<?xml version="1.0" encoding="utf-8"?>
<!DOCTYPE svg PUBLIC "-//W3C//DTD SVG 1.1//EN" "http://www.w3.org/Graphics/SVG/1.1/DTD/svg11.dtd">
<svg class="marks" width="241" height="271" viewBox="0 0 241 271" version="1.1" xmlns="http://www.w3.org/2000/svg" xmlns:xlink="http://www.w3.org/1999/xlink"><rect width="241" height="271" fill="white"></rect><g fill="none" stroke-miterlimit="10" transform="translate(34,34)"><g class="mark-group role-frame root" role="graphics-object" aria-roledescription="group mark container"><g transform="translate(0,0)"><path class="background" aria-hidden="true" d="M0.5,0.5h200v200h-200Z" stroke="#ddd"></path><g><g class="mark-group role-axis" aria-hidden="true"><g transform="translate(0.5,200.5)"><path class="background" aria-hidden="true" d="M0,0h0v0h0Z" pointer-events="none"></path><g><g class="mark-rule role-axis-grid" pointer-events="none"><line transform="translate(0,-200)" x2="0" y2="200" stroke="#ddd" stroke-width="1" opacity="1"></line><line transform="translate(30,-200)" x2="0" y2="200" stroke="#ddd" stroke-width="1" opacity="1"></line><line transform="translate(48,-200)" x2="0" y2="200" stroke="#ddd" stroke-width="1" opacity="1"></line><line transform="translate(60,-200)" x2="0" y2="200" stroke="#ddd" stroke-width="1" opacity="1"></line><line transform="translate(70,-200)" x2="0" y2="200" stroke="#ddd" stroke-width="1" opacity="1"></line><line transform="translate(78,-200)" x2="0" y2="200" stroke="#ddd" stroke-width="1" opacity="1"></line><line transform="translate(85,-200)" x2="0" y2="200" stroke="#ddd" stroke-width="1" opacity="1"></line><line transform="translate(90,-200)" x2="0" y2="200" stroke="#ddd" stroke-width="1" opacity="1"></line><line transform="translate(95,-200)" x2="0" y2="200" stroke="#ddd" stroke-width="1" opacity="1"></line><line transform="translate(100,-200)" x2="0" y2="200" stroke="#ddd" stroke-width="1" opacity="1"></line><line transform="translate(130,-200)" x2="0" y2="200" stroke="#ddd" stroke-width="1" opacity="1"></line><line transform="translate(148,-200)" x2="0" y2="200" stroke="#ddd" stroke-width="1" opacity="1"></line><line transform="translate(160,-200)" x2="0" y2="200" stroke="#ddd" stroke-width="1" opacity="1"></line><line transform="translate(170,-200)" x2="0" y2="200" stroke="#ddd" stroke-width="1" opacity="1"></line><line transform="translate(178,-200)" x2="0" y2="200" stroke="#ddd" stroke-width="1" opacity="1"></line><line transform="translate(185,-200)" x2="0" y2="200" stroke="#ddd" stroke-width="1" opacity="1"></line><line transform="translate(190,-200)" x2="0" y2="200" stroke="#ddd" stroke-width="1" opacity="1"></line><line transform="translate(195,-200)" x2="0" y2="200" stroke="#ddd" stroke-width="1" opacity="1"></line><line transform="translate(200,-200)" x2="0" y2="200" stroke="#ddd" stroke-width="1" opacity="1"></line></g></g><path class="foreground" aria-hidden="true" d="" pointer-events="none" display="none"></path></g></g><g class="mark-group role-axis" aria-hidden="true"><g transform="translate(0.5,0.5)"><path class="background" aria-hidden="true" d="M0,0h0v0h0Z" pointer-events="none"></path><g><g class="mark-rule role-axis-grid" pointer-events="none"><line transform="translate(0,180)" x2="200" y2="0" stroke="#ddd" stroke-width="1" opacity="1"></line><line transform="translate(0,140)" x2="200" y2="0" stroke="#ddd" stroke-width="1" opacity="1"></line><line transform="translate(0,100)" x2="200" y2="0" stroke="#ddd" stroke-width="1" opacity="1"></line><line transform="translate(0,60)" x2="200" y2="0" stroke="#ddd" stroke-width="1" opacity="1"></line><line transform="translate(0,20)" x2="200" y2="0" stroke="#ddd" stroke-width="1" opacity="1"></line></g></g><path class="foreground" aria-hidden="true" d="" pointer-events="none" display="none"></path></g></g><g class="mark-group role-axis" role="graphics-symbol" aria-roledescription="axis" aria-label="X-axis titled 'Regularization Parameter (位)' for a log scale with values from 0.01 to 1"><g transform="translate(0.5,200.5)"><path class="background" aria-hidden="true" d="M0,0h0v0h0Z" pointer-events="none"></path><g><g class="mark-rule role-axis-tick" pointer-events="none"><line transform="translate(0,0)" x2="0" y2="5" stroke="#888" stroke-width="1" opacity="1"></line><line transform="translate(30,0)" x2="0" y2="5" stroke="#888" stroke-width="1" opacity="1"></line><line transform="translate(48,0)" x2="0" y2="5" stroke="#888" stroke-width="1" opacity="1"></line><line transform="translate(60,0)" x2="0" y2="5" stroke="#888" stroke-width="1" opacity="1"></line><line transform="translate(70,0)" x2="0" y2="5" stroke="#888" stroke-width="1" opacity="1"></line><line transform="translate(78,0)" x2="0" y2="5" stroke="#888" stroke-width="1" opacity="1"></line><line transform="translate(85,0)" x2="0" y2="5" stroke="#888" stroke-width="1" opacity="1"></line><line transform="translate(90,0)" x2="0" y2="5" stroke="#888" stroke-width="1" opacity="1"></line><line transform="translate(95,0)" x2="0" y2="5" stroke="#888" stroke-width="1" opacity="1"></line><line transform="translate(100,0)" x2="0" y2="5" stroke="#888" stroke-width="1" opacity="1"></line><line transform="translate(130,0)" x2="0" y2="5" stroke="#888" stroke-width="1" opacity="1"></line><line transform="translate(148,0)" x2="0" y2="5" stroke="#888" stroke-width="1" opacity="1"></line><line transform="translate(160,0)" x2="0" y2="5" stroke="#888" stroke-width="1" opacity="1"></line><line transform="translate(170,0)" x2="0" y2="5" stroke="#888" stroke-width="1" opacity="1"></line><line transform="translate(178,0)" x2="0" y2="5" stroke="#888" stroke-width="1" opacity="1"></line><line transform="translate(185,0)" x2="0" y2="5" stroke="#888" stroke-width="1" opacity="1"></line><line transform="translate(190,0)" x2="0" y2="5" stroke="#888" stroke-width="1" opacity="1"></line><line transform="translate(195,0)" x2="0" y2="5" stroke="#888" stroke-width="1" opacity="1"></line><line transform="translate(200,0)" x2="0" y2="5" stroke="#888" stroke-width="1" opacity="1"></line></g><g class="mark-text role-axis-label" pointer-events="none"><text text-anchor="start" transform="translate(0,15)" font-family="sans-serif" font-size="10px" fill="#000" opacity="1">0.01</text><text text-anchor="middle" transform="translate(30.102999566398108,15)" font-family="sans-serif" font-size="10px" fill="#000" opacity="0">0.02</text><text text-anchor="middle" transform="translate(47.712125471966225,15)" font-family="sans-serif" font-size="10px" fill="#000" opacity="1">0.03</text><text text-anchor="middle" transform="translate(60.20599913279623,15)" font-family="sans-serif" font-size="10px" fill="#000" opacity="0">0.04</text><text text-anchor="middle" transform="translate(69.89700043360187,15)" font-family="sans-serif" font-size="10px" fill="#000" opacity="1">0.05</text><text text-anchor="middle" transform="translate(77.81512503836436,15)" font-family="sans-serif" font-size="10px" fill="#000" opacity="1"></text><text text-anchor="middle" transform="translate(84.50980400142568,15)" font-family="sans-serif" font-size="10px" fill="#000" opacity="1"></text><text text-anchor="middle" transform="translate(90.30899869919435,15)" font-family="sans-serif" font-size="10px" fill="#000" opacity="1"></text><text text-anchor="middle" transform="translate(95.42425094393249,15)" font-family="sans-serif" font-size="10px" fill="#000" opacity="1"></text><text text-anchor="middle" transform="translate(100,15)" font-family="sans-serif" font-size="10px" fill="#000" opacity="1">0.1</text><text text-anchor="middle" transform="translate(130.1029995663981,15)" font-family="sans-serif" font-size="10px" fill="#000" opacity="1">0.2</text><text text-anchor="middle" transform="translate(147.71212547196623,15)" font-family="sans-serif" font-size="10px" fill="#000" opacity="1">0.3</text><text text-anchor="middle" transform="translate(160.20599913279622,15)" font-family="sans-serif" font-size="10px" fill="#000" opacity="0">0.4</text><text text-anchor="middle" transform="translate(169.89700043360187,15)" font-family="sans-serif" font-size="10px" fill="#000" opacity="1">0.5</text><text text-anchor="middle" transform="translate(177.81512503836436,15)" font-family="sans-serif" font-size="10px" fill="#000" opacity="1"></text><text text-anchor="middle" transform="translate(184.50980400142566,15)" font-family="sans-serif" font-size="10px" fill="#000" opacity="1"></text><text text-anchor="middle" transform="translate(190.30899869919435,15)" font-family="sans-serif" font-size="10px" fill="#000" opacity="1"></text><text text-anchor="middle" transform="translate(195.4242509439325,15)" font-family="sans-serif" font-size="10px" fill="#000" opacity="1"></text><text text-anchor="end" transform="translate(200,15)" font-family="sans-serif" font-size="10px" fill="#000" opacity="1">1</text></g><g class="mark-rule role-axis-domain" pointer-events="none"><line transform="translate(0,0)" x2="200" y2="0" stroke="#888" stroke-width="1" opacity="1"></line></g><g class="mark-text role-axis-title" pointer-events="none"><text text-anchor="middle" transform="translate(100,30)" font-family="sans-serif" font-size="11px" font-weight="bold" fill="#000" opacity="1">Regularization Parameter (位)</text></g></g><path class="foreground" aria-hidden="true" d="" pointer-events="none" display="none"></path></g></g><g class="mark-group role-axis" role="graphics-symbol" aria-roledescription="axis" aria-label="Y-axis titled 'Model - Null Model Accuracy (logit scale)' for a linear scale with values from -1 to 5"><g transform="translate(0.5,0.5)"><path class="background" aria-hidden="true" d="M0,0h0v0h0Z" pointer-events="none"></path><g><g class="mark-rule role-axis-tick" pointer-events="none"><line transform="translate(0,180)" x2="-5" y2="0" stroke="#888" stroke-width="1" opacity="1"></line><line transform="translate(0,140)" x2="-5" y2="0" stroke="#888" stroke-width="1" opacity="1"></line><line transform="translate(0,100)" x2="-5" y2="0" stroke="#888" stroke-width="1" opacity="1"></line><line transform="translate(0,60)" x2="-5" y2="0" stroke="#888" stroke-width="1" opacity="1"></line><line transform="translate(0,20)" x2="-5" y2="0" stroke="#888" stroke-width="1" opacity="1"></line></g><g class="mark-text role-axis-label" pointer-events="none"><text text-anchor="end" transform="translate(-7,183)" font-family="sans-serif" font-size="10px" fill="#000" opacity="1">0</text><text text-anchor="end" transform="translate(-7,143)" font-family="sans-serif" font-size="10px" fill="#000" opacity="1">1</text><text text-anchor="end" transform="translate(-7,103)" font-family="sans-serif" font-size="10px" fill="#000" opacity="1">2</text><text text-anchor="end" transform="translate(-7,63.00000000000001)" font-family="sans-serif" font-size="10px" fill="#000" opacity="1">3</text><text text-anchor="end" transform="translate(-7,22.999999999999996)" font-family="sans-serif" font-size="10px" fill="#000" opacity="1">4</text></g><g class="mark-rule role-axis-domain" pointer-events="none"><line transform="translate(0,200)" x2="0" y2="-200" stroke="#888" stroke-width="1" opacity="1"></line></g><g class="mark-text role-axis-title" pointer-events="none"><text text-anchor="middle" transform="translate(-17,100) rotate(-90) translate(0,-2)" font-family="sans-serif" font-size="11px" font-weight="bold" fill="#000" opacity="1">Model - Null Model Accuracy (logit scale)</text></g></g><path class="foreground" aria-hidden="true" d="" pointer-events="none" display="none"></path></g></g><g class="mark-group role-scope layer_0_pathgroup" role="graphics-object" aria-roledescription="group mark container"><g transform="translate(0,0)"><path class="background" aria-hidden="true" d="M0,0h200v200h-200Z"></path><g><g class="mark-line role-mark layer_0_marks" role="graphics-object" aria-roledescription="line mark container"><path aria-label="fold: 1; Regularization Parameter (位): 0.01; Model - Null Model Accuracy (logit scale): 4.02023616741" role="graphics-symbol" aria-roledescription="line mark" d="M0,19.190553303406375L2.0202020202019937,19.192224340662413L4.0404040404040265,19.193266562069123L6.06060606060602,19.192914397121896L8.080808080808053,19.19071325150814L10.101010101010084,19.186869711972456L12.121212121212078,19.182448593625836L14.14141414141411,19.179256872020865L16.161616161616145,19.17932968930951L18.181818181818173,19.184081722173897L20.20202020202017,19.19337151222329L22.2222222222222,19.204876938162265L24.24242424242423,19.2142115922185L26.262626262626227,19.21605682703187L28.28282828282826,19.206232133913236L30.303030303030294,19.184154048524537L32.323232323232325,19.154707892295384L34.34343434343432,19.12839659708321L36.36363636363633,19.118929140089346L38.383838383838366,19.13823195950315L40.40404040404037,19.190059489863387L42.42424242424241,19.264554692983182L44.44444444444442,19.336714581650227L46.46464646464648,19.3712208738567L48.48484848484846,19.33425622271663L50.50505050505048,19.210018575550624L52.52525252525251,19.016569046640086L54.54545454545452,18.813771692498094L56.56565656565655,18.69679959196442L58.585858585858574,18.772740301509884L60.60606060606059,19.12467327154328L62.626262626262616,19.774998387966967L64.64646464646464,20.664241796575887L66.66666666666666,21.659475142537342L68.68686868686868,22.596345018308316L70.70707070707068,23.343221344827402L72.72727272727272,23.862323902541394L74.74747474747473,24.23923258670946L76.76767676767676,24.662859157173212L78.78787878787877,25.35888840163154L80.8080808080808,26.501103381407344L82.82828282828282,28.13648787217531L84.84848484848484,30.1554713689524L86.86868686868686,32.31936082720943L88.88888888888889,34.33181459244263L90.90909090909092,35.9231426558122L92.9292929292929,36.91466866412072L94.94949494949492,37.24463430357079L96.96969696969697,36.957076285429615L98.98989898989896,36.16910233110073L101.010101010101,35.034572113236464L103.030303030303,33.715935292868046L105.05050505050504,32.367642234189155L107.07070707070704,31.12939187950172L109.09090909090908,30.1260271312475L111.1111111111111,29.470247353849153L113.1313131313131,29.262615761564838L115.15151515151514,29.582398751697458L117.17171717171715,30.46605983170252L119.19191919191918,31.87878253555332L121.21212121212119,33.69481444855915L123.23232323232322,35.707928904729805L125.25252525252523,37.68678089899997L127.27272727272727,39.46906225080329L129.2929292929293,41.06123292421129L131.31313131313132,42.694957906012256L133.33333333333331,44.802475754567354L135.35353535353536,47.909029320248166L137.37373737373736,52.480913470090606L139.39393939393938,58.78920847368796L141.41414141414143,66.84150209823336L143.43434343434342,76.40287185516068L145.45454545454547,87.08843156267929L147.47474747474746,98.47998727826037L149.49494949494948,110.21244913293043L151.5151515151515,121.99563982502022L153.53535353535352,133.57395328089382L155.55555555555557,144.66003353473806L157.57575757575756,154.89171045101185L159.59595959595958,163.84832017041578L161.6161616161616,171.130592759865L163.63636363636363,176.47328155691991L165.65656565656565,179.8395320507629L167.67676767676767,181.45185276505487L169.6969696969697,181.74330304116114L171.7171717171717,181.24785097963868L173.73737373737373,180.4722075322188L175.75757575757575,179.79341845638157L177.77777777777777,179.4102223004204L179.7979797979798,179.35243969999743L181.81818181818184,179.5325730416657L183.83838383838383,179.81395336352594L185.85858585858585,180.07102921388864L187.87878787878788,180.22634263257115L189.89898989898987,180.26025097927305L191.91919191919192,180.19899967006273L193.93939393939394,180.09177243513858L195.959595959596,179.98752924666135L197.97979797979798,179.91915133820925L200,179.897736606978" stroke="#4c78a8" stroke-width="2"></path></g></g><path class="foreground" aria-hidden="true" d="" display="none"></path></g><g transform="translate(0,0)"><path class="background" aria-hidden="true" d="M0,0h200v200h-200Z"></path><g><g class="mark-line role-mark layer_0_marks" role="graphics-object" aria-roledescription="line mark container"><path aria-label="fold: 2; Regularization Parameter (位): 0.01; Model - Null Model Accuracy (logit scale): 4.16211261915" role="graphics-symbol" aria-roledescription="line mark" d="M0,13.515495233862529L2.0202020202019937,13.511805580262926L4.0404040404040265,13.508403150592718L6.06060606060602,13.507003219396442L8.080808080808053,13.509147662744736L10.101010101010084,13.515408368108584L12.121212121212078,13.524689933929746L14.14141414141411,13.534001338830493L16.161616161616145,13.539011515528433L18.181818181818173,13.535477667292351L20.20202020202017,13.521267089616696L22.2222222222222,13.498291831496157L24.24242424242423,13.473413111170917L26.262626262626227,13.45743299165878L28.28282828282826,13.461789506974565L30.303030303030294,13.493470404310015L32.323232323232325,13.549719589874055L34.34343434343432,13.61490950108568L36.36363636363633,13.662010186508233L38.383838383838366,13.660056232896988L40.40404040404037,13.586907973040097L42.42424242424241,13.443943832218718L44.44444444444442,13.267109196313287L46.46464646464648,13.128199682073083L48.48484848484846,13.122303188750584L50.50505050505048,13.342016993424966L52.52525252525251,13.845131170981407L54.54545454545452,14.627392181664334L56.56565656565655,15.61272305003698L58.585858585858574,16.66803051998127L60.60606060606059,17.639658914644652L62.626262626262616,18.398378220431045L64.64646464646464,18.875382207963078L66.66666666666666,19.075898537272696L68.68686868686868,19.06715444281022L70.70707070707068,18.947868183909875L72.72727272727272,18.812351688617923L74.74747474747473,18.722246235296367L76.76767676767676,18.69431040904641L78.78787878787877,18.706173936812178L80.8080808080808,18.71595952104961L82.82828282828282,18.6876711091718L84.84848484848484,18.612876269402534L86.86868686868686,18.520495293453365L88.88888888888889,18.470123355253243L90.90909090909092,18.529620135768244L92.9292929292929,18.743620941363726L94.94949494949492,19.104498329043416L96.96969696969697,19.539062807085973L98.98989898989896,19.921086265004952L101.010101010101,20.111044531867208L103.030303030303,20.012360726871492L105.05050505050504,19.62293712941627L107.07070707070704,19.0581220563103L109.09090909090908,18.529823133319347L111.1111111111111,18.283602481198137L113.1313131313131,18.514014278811295L115.15151515151514,19.29086184735982L117.17171717171715,20.53095132074194L119.19191919191918,22.0392725435119L121.21212121212119,23.620501417781558L123.23232323232322,25.230568845486268L125.25252525252523,27.109295958858826L127.27272727272727,29.82394110414419L129.2929292929293,34.17279749739841L131.31313131313132,40.94856647573402L133.33333333333331,50.62645074285679L135.35353535353536,63.09244804589662L137.37373737373736,77.53503689104744L139.39393939393938,92.57586177504638L141.41414141414143,106.62393640669563L143.43434343434342,118.3394723129269L145.45454545454547,127.0356304571308L147.47474747474746,132.8629239096549L149.49494949494948,136.70731883183228L151.5151515151515,139.84734300265046L153.53535353535352,143.50425289518688L155.55555555555557,148.44790818394728L157.57575757575756,154.7869960133671L159.59595959595958,161.9975972978376L161.6161616161616,169.15870624666286L163.63636363636363,175.29481922623057L165.65656565656565,179.69645517537043L167.67676767676767,182.11047403049204L169.6969696969697,182.75348145823648L171.7171717171717,182.1737195405435L173.73737373737373,181.03691276787302L175.75757575757575,179.9226633881179L177.77777777777777,179.194580396978L179.7979797979798,178.9671135502958L181.81818181818184,179.15431023941298L183.83838383838383,179.5631030595181L185.85858585858585,179.9897880738822L187.87878787878788,180.2890658159924L189.89898989898987,180.40258906561863L191.91919191919192,180.35061374746627L193.93939393939394,180.2009245180478L195.959595959596,180.0320839727706L197.97979797979798,179.90461053198328L200,179.84693947597964" stroke="#f58518" stroke-width="2"></path></g></g><path class="foreground" aria-hidden="true" d="" display="none"></path></g></g><g class="mark-group role-legend" role="graphics-symbol" aria-roledescription="legend" aria-label="Symbol legend titled 'fold' for stroke color with 2 values: 1, 2"><g transform="translate(175,0.5)"><path class="background" aria-hidden="true" d="M0,0h25v40h-25Z" pointer-events="none"></path><g><g class="mark-group role-legend-entry"><g transform="translate(0,16)"><path class="background" aria-hidden="true" d="M0,0h0v0h0Z" pointer-events="none"></path><g><g class="mark-group role-scope" role="graphics-object" aria-roledescription="group mark container"><g transform="translate(0,0)"><path class="background" aria-hidden="true" d="M0,0h22v11h-22Z" pointer-events="none" opacity="1"></path><g><g class="mark-symbol role-legend-symbol" pointer-events="none"><path transform="translate(6,6)" d="M-5,0L5,0" stroke="#4c78a8" stroke-width="1.5" opacity="1"></path></g><g class="mark-text role-legend-label" pointer-events="none"><text text-anchor="start" transform="translate(16,9)" font-family="sans-serif" font-size="10px" fill="#000" opacity="1">1</text></g></g><path class="foreground" aria-hidden="true" d="" pointer-events="none" display="none"></path></g><g transform="translate(0,13)"><path class="background" aria-hidden="true" d="M0,0h22v11h-22Z" pointer-events="none" opacity="1"></path><g><g class="mark-symbol role-legend-symbol" pointer-events="none"><path transform="translate(6,6)" d="M-5,0L5,0" stroke="#f58518" stroke-width="1.5" opacity="1"></path></g><g class="mark-text role-legend-label" pointer-events="none"><text text-anchor="start" transform="translate(16,9)" font-family="sans-serif" font-size="10px" fill="#000" opacity="1">2</text></g></g><path class="foreground" aria-hidden="true" d="" pointer-events="none" display="none"></path></g></g></g><path class="foreground" aria-hidden="true" d="" pointer-events="none" display="none"></path></g></g><g class="mark-text role-legend-title" pointer-events="none"><text text-anchor="start" transform="translate(0,9)" font-family="sans-serif" font-size="11px" font-weight="bold" fill="#000" opacity="1">fold</text></g></g><path class="foreground" aria-hidden="true" d="" pointer-events="none" display="none"></path></g></g></g><path class="foreground" aria-hidden="true" d="" display="none"></path></g></g></g></svg>
