<?xml version="1.0" encoding="utf-8"?>
<!DOCTYPE svg PUBLIC "-//W3C//DTD SVG 1.1//EN" "http://www.w3.org/Graphics/SVG/1.1/DTD/svg11.dtd">
<svg class="marks" width="299" height="259" viewBox="0 0 299 259" version="1.1" xmlns="http://www.w3.org/2000/svg" xmlns:xlink="http://www.w3.org/1999/xlink"><rect width="299" height="259" fill="white"></rect><g fill="none" stroke-miterlimit="10" transform="translate(52,22)"><g class="mark-group role-frame root" role="graphics-object" aria-roledescription="group mark container"><g transform="translate(0,0)"><path class="background" aria-hidden="true" d="M0.5,0.5h200v200h-200Z" stroke="#ddd"></path><g><g class="mark-group role-axis" aria-hidden="true"><g transform="translate(0.5,200.5)"><path class="background" aria-hidden="true" d="M0,0h0v0h0Z" pointer-events="none"></path><g><g class="mark-rule role-axis-grid" pointer-events="none"><line transform="translate(0,-200)" x2="0" y2="200" stroke="#ddd" stroke-width="1" opacity="1"></line><line transform="translate(33,-200)" x2="0" y2="200" stroke="#ddd" stroke-width="1" opacity="1"></line><line transform="translate(67,-200)" x2="0" y2="200" stroke="#ddd" stroke-width="1" opacity="1"></line><line transform="translate(100,-200)" x2="0" y2="200" stroke="#ddd" stroke-width="1" opacity="1"></line><line transform="translate(133,-200)" x2="0" y2="200" stroke="#ddd" stroke-width="1" opacity="1"></line><line transform="translate(167,-200)" x2="0" y2="200" stroke="#ddd" stroke-width="1" opacity="1"></line><line transform="translate(200,-200)" x2="0" y2="200" stroke="#ddd" stroke-width="1" opacity="1"></line></g></g><path class="foreground" aria-hidden="true" d="" pointer-events="none" display="none"></path></g></g><g class="mark-group role-axis" aria-hidden="true"><g transform="translate(0.5,0.5)"><path class="background" aria-hidden="true" d="M0,0h0v0h0Z" pointer-events="none"></path><g><g class="mark-rule role-axis-grid" pointer-events="none"><line transform="translate(0,200)" x2="200" y2="0" stroke="#ddd" stroke-width="1" opacity="1"></line><line transform="translate(0,144)" x2="200" y2="0" stroke="#ddd" stroke-width="1" opacity="1"></line><line transform="translate(0,89)" x2="200" y2="0" stroke="#ddd" stroke-width="1" opacity="1"></line><line transform="translate(0,33)" x2="200" y2="0" stroke="#ddd" stroke-width="1" opacity="1"></line></g></g><path class="foreground" aria-hidden="true" d="" pointer-events="none" display="none"></path></g></g><g class="mark-group role-axis" role="graphics-symbol" aria-roledescription="axis" aria-label="X-axis titled 'Time (s) Relative to Target Onset' for a linear scale with values from 0.0 to 3.0"><g transform="translate(0.5,200.5)"><path class="background" aria-hidden="true" d="M0,0h0v0h0Z" pointer-events="none"></path><g><g class="mark-rule role-axis-tick" pointer-events="none"><line transform="translate(0,0)" x2="0" y2="5" stroke="#888" stroke-width="1" opacity="1"></line><line transform="translate(33,0)" x2="0" y2="5" stroke="#888" stroke-width="1" opacity="1"></line><line transform="translate(67,0)" x2="0" y2="5" stroke="#888" stroke-width="1" opacity="1"></line><line transform="translate(100,0)" x2="0" y2="5" stroke="#888" stroke-width="1" opacity="1"></line><line transform="translate(133,0)" x2="0" y2="5" stroke="#888" stroke-width="1" opacity="1"></line><line transform="translate(167,0)" x2="0" y2="5" stroke="#888" stroke-width="1" opacity="1"></line><line transform="translate(200,0)" x2="0" y2="5" stroke="#888" stroke-width="1" opacity="1"></line></g><g class="mark-text role-axis-label" pointer-events="none"><text text-anchor="start" transform="translate(0,15)" font-family="sans-serif" font-size="10px" fill="#000" opacity="1">0.0</text><text text-anchor="middle" transform="translate(33.33333333333333,15)" font-family="sans-serif" font-size="10px" fill="#000" opacity="1">0.5</text><text text-anchor="middle" transform="translate(66.66666666666666,15)" font-family="sans-serif" font-size="10px" fill="#000" opacity="1">1.0</text><text text-anchor="middle" transform="translate(100,15)" font-family="sans-serif" font-size="10px" fill="#000" opacity="1">1.5</text><text text-anchor="middle" transform="translate(133.33333333333331,15)" font-family="sans-serif" font-size="10px" fill="#000" opacity="1">2.0</text><text text-anchor="middle" transform="translate(166.66666666666669,15)" font-family="sans-serif" font-size="10px" fill="#000" opacity="1">2.5</text><text text-anchor="end" transform="translate(200,15)" font-family="sans-serif" font-size="10px" fill="#000" opacity="1">3.0</text></g><g class="mark-rule role-axis-domain" pointer-events="none"><line transform="translate(0,0)" x2="200" y2="0" stroke="#888" stroke-width="1" opacity="1"></line></g><g class="mark-text role-axis-title" pointer-events="none"><text text-anchor="middle" transform="translate(100,30)" font-family="sans-serif" font-size="11px" font-weight="bold" fill="#000" opacity="1">Time (s) Relative to Target Onset</text></g></g><path class="foreground" aria-hidden="true" d="" pointer-events="none" display="none"></path></g></g><g class="mark-group role-axis" role="graphics-symbol" aria-roledescription="axis" aria-label="Y-axis titled '% Correct (Null-model Corrected)' for a linear scale with values from 50 to 68"><g transform="translate(0.5,0.5)"><path class="background" aria-hidden="true" d="M0,0h0v0h0Z" pointer-events="none"></path><g><g class="mark-rule role-axis-tick" pointer-events="none"><line transform="translate(0,200)" x2="-5" y2="0" stroke="#888" stroke-width="1" opacity="1"></line><line transform="translate(0,144)" x2="-5" y2="0" stroke="#888" stroke-width="1" opacity="1"></line><line transform="translate(0,89)" x2="-5" y2="0" stroke="#888" stroke-width="1" opacity="1"></line><line transform="translate(0,33)" x2="-5" y2="0" stroke="#888" stroke-width="1" opacity="1"></line></g><g class="mark-text role-axis-label" pointer-events="none"><text text-anchor="end" transform="translate(-7,203)" font-family="sans-serif" font-size="10px" fill="#000" opacity="1">50</text><text text-anchor="end" transform="translate(-7,147.44444444444443)" font-family="sans-serif" font-size="10px" fill="#000" opacity="1">55</text><text text-anchor="end" transform="translate(-7,91.88888888888889)" font-family="sans-serif" font-size="10px" fill="#000" opacity="1">60</text><text text-anchor="end" transform="translate(-7,36.33333333333333)" font-family="sans-serif" font-size="10px" fill="#000" opacity="1">65</text></g><g class="mark-rule role-axis-domain" pointer-events="none"><line transform="translate(0,200)" x2="0" y2="-200" stroke="#888" stroke-width="1" opacity="1"></line></g><g class="mark-text role-axis-title" pointer-events="none"><text text-anchor="middle" transform="translate(-36,100) rotate(-90) translate(0,-2)" font-family="sans-serif" font-size="11px" font-weight="bold" fill="#000" opacity="1"><tspan>% Correct</tspan><tspan x="0" dy="13">(Null-model Corrected)</tspan></text></g></g><path class="foreground" aria-hidden="true" d="" pointer-events="none" display="none"></path></g></g><g class="mark-group role-scope layer_0_pathgroup" role="graphics-object" aria-roledescription="group mark container"><g transform="translate(0,0)"><path class="background" aria-hidden="true" d="M0,0h200v200h-200Z"></path><g><g class="mark-line role-mark layer_0_marks" role="graphics-object" aria-roledescription="line mark container"><path aria-label="condition: global; Time (s) Relative to Target Onset: 0; % Correct, (Null-model Corrected): 55.2138958479" role="graphics-symbol" aria-roledescription="line mark" d="M0,142.06782391166817L3.1746031746031744,143.21562253594075L6.349206349206349,145.8949665855245L9.523809523809524,148.5817577063211L12.698412698412698,144.29426449165726L15.873015873015872,140.01185093331716L19.047619047619047,142.6960161718847L22.22222222222222,139.52956664925713L25.396825396825395,142.19367507394742L28.57142857142857,136.80183113400722L31.746031746031743,133.43825124338068L34.920634920634924,132.43054397889424L38.095238095238095,126.77601808124103L41.26984126984127,120.47743020780834L44.44444444444444,122.04774915856729L47.61904761904762,118.91513777472267L50.79365079365079,116.53493711610068L53.96825396825397,113.10400797523621L57.14285714285714,115.38802787901056L60.317460317460316,110.11584918979116L63.49206349206349,108.47881098876273L66.66666666666666,107.25177287339476L69.84126984126985,105.74326664933251L73.01587301587303,99.57278472498648L76.19047619047619,106.08721475516157L79.36507936507937,99.75656513032223L82.53968253968254,93.94573830147093L85.71428571428572,93.49975007801925L88.88888888888889,89.1860253710979L92.06349206349206,84.67372773577213L95.23809523809524,84.83568464741633L98.41269841269842,84.64430663703237L101.58730158730158,83.58434594287327L104.76190476190477,86.55521020215294L107.93650793650794,75.5048967695733L111.11111111111111,71.25439929192059L114.28571428571428,68.47336188880296L117.46031746031747,66.04592063526671L120.63492063492063,59.89928161896927L123.80952380952381,64.02281324393446L126.98412698412697,57.47448773491084L130.15873015873015,50.79831990858084L133.33333333333331,42.98944165522096L136.50793650793648,40.83690404284444L139.6825396825397,59.422253925774825L142.85714285714286,67.14674634006204L146.03174603174605,67.69453689578637L149.20634920634922,69.60575758739462L152.38095238095238,61.449917784057575L155.55555555555557,68.0847934907085L158.73015873015873,45.574826295564705L161.9047619047619,54.043075511116L165.0793650793651,53.84098039631182L168.25396825396825,65.95532945728633L171.42857142857144,62.57622106128724L174.6031746031746,60.89414923394108L177.77777777777777,65.85774265610817L180.95238095238096,82.31680292043717L184.12698412698413,77.43256196555714L187.3015873015873,102.57157846494951L190.47619047619048,105.33058814605516L193.65079365079364,157.09669549212282L196.82539682539684,120.43895641341132L200,152.3669340299386" stroke="#4c78a8" stroke-width="2"></path></g></g><path class="foreground" aria-hidden="true" d="" display="none"></path></g><g transform="translate(0,0)"><path class="background" aria-hidden="true" d="M0,0h200v200h-200Z"></path><g><g class="mark-line role-mark layer_0_marks" role="graphics-object" aria-roledescription="line mark container"><path aria-label="condition: object; Time (s) Relative to Target Onset: 0; % Correct, (Null-model Corrected): 53.0947133708" role="graphics-symbol" aria-roledescription="line mark" d="M0,165.61429588000905L3.1746031746031744,165.62457531707975L6.349206349206349,168.8609841615214L9.523809523809524,155.23573462686798L12.698412698412698,164.79101020551101L15.873015873015872,155.6602455688942L19.047619047619047,162.58968450558942L22.22222222222222,166.7517163333339L25.396825396825395,163.00188238210595L28.57142857142857,160.5898745612997L31.746031746031743,162.50212524548618L34.920634920634924,163.7120316438069L38.095238095238095,159.2734889314321L41.26984126984127,159.71376448098638L44.44444444444444,166.02316780752244L47.61904761904762,169.00238194021523L50.79365079365079,163.39593284655822L53.96825396825397,160.76637039500596L57.14285714285714,156.5772259578213L60.317460317460316,159.5153570116719L63.49206349206349,155.57870382841696L66.66666666666666,162.15133061637675L69.84126984126985,157.86210190846418L73.01587301587303,159.70861979406763L76.19047619047619,159.41171605752388L79.36507936507937,159.03132591348808L82.53968253968254,145.46879828423323L85.71428571428572,154.08490829521892L88.88888888888889,153.6856505788077L92.06349206349206,148.80682294909192L95.23809523809524,147.86549119964656L98.41269841269842,138.03990870385556L101.58730158730158,135.7100212372096L104.76190476190477,134.98391480514908L107.93650793650794,132.765936292174L111.11111111111111,133.95171741692073L114.28571428571428,134.1127909142628L117.46031746031747,131.474018041563L120.63492063492063,126.50840755101163L123.80952380952381,131.4763061959869L126.98412698412697,122.75843218975959L130.15873015873015,115.51404858509216L133.33333333333331,125.30673848662283L136.50793650793648,119.03075841531341L139.6825396825397,117.38154724836147L142.85714285714286,121.02704280182598L146.03174603174605,117.93475266403681L149.20634920634922,110.27967374396736L152.38095238095238,112.14119202356451L155.55555555555557,101.58219194657039L158.73015873015873,99.74544652452384L161.9047619047619,126.48813170338053L165.0793650793651,123.62867126890143L168.25396825396825,122.19360772716877L171.42857142857144,114.90962759484857L174.6031746031746,108.79062796619381L177.77777777777777,124.98577981746182L180.95238095238096,123.320913815283L184.12698412698413,126.0478455287503L187.3015873015873,123.41704561714715L190.47619047619048,115.06516261092136L193.65079365079364,154.38774798222923L196.82539682539684,106.48319133497534L200,144.7720087894118" stroke="#f58518" stroke-width="2"></path></g></g><path class="foreground" aria-hidden="true" d="" display="none"></path></g><g transform="translate(0,0)"><path class="background" aria-hidden="true" d="M0,0h200v200h-200Z"></path><g><g class="mark-line role-mark layer_0_marks" role="graphics-object" aria-roledescription="line mark container"><path aria-label="condition: spatial; Time (s) Relative to Target Onset: 0; % Correct, (Null-model Corrected): 54.977514085" role="graphics-symbol" aria-roledescription="line mark" d="M0,144.69428794407705L3.1746031746031744,144.75095755593608L6.349206349206349,158.2410106289456L9.523809523809524,146.18873520477274L12.698412698412698,151.05386825842174L15.873015873015872,162.16387961334644L19.047619047619047,147.8409069450791L22.22222222222222,146.06157118694543L25.396825396825395,145.32367240190118L28.57142857142857,142.25590109452915L31.746031746031743,153.214229548621L34.920634920634924,163.7381528355699L38.095238095238095,162.30642343348012L41.26984126984127,163.92443995303046L44.44444444444444,159.7587908137774L47.61904761904762,151.89169730135998L50.79365079365079,161.06293185187016L53.96825396825397,143.7423832723002L57.14285714285714,147.997056193547L60.317460317460316,136.4693561159076L63.49206349206349,122.11758731431088L66.66666666666666,149.79371571467195L69.84126984126985,146.3994983037309L73.01587301587303,144.3958230626063L76.19047619047619,147.83748982435534L79.36507936507937,143.10733146410146L82.53968253968254,144.88205220395818L85.71428571428572,153.45248995692867L88.88888888888889,163.29817538624337L92.06349206349206,160.09541588984777L95.23809523809524,159.6624898845096L98.41269841269842,145.22846168064692L101.58730158730158,140.67127861062608L104.76190476190477,133.5101845248679L107.93650793650794,131.7783245361177L111.11111111111111,136.33969283049873L114.28571428571428,121.37986317537073L117.46031746031747,118.1104402717279L120.63492063492063,105.73715590566195L123.80952380952381,121.66359511793465L126.98412698412697,108.64465602334066L130.15873015873015,126.53374408128815L133.33333333333331,112.98108807926153L136.50793650793648,88.57810640223715L139.6825396825397,96.76704607234588L142.85714285714286,97.78961954790253L146.03174603174605,90.6107972882701L149.20634920634922,80.5801101441229L152.38095238095238,100.12693622553839L155.55555555555557,108.22123814423377L158.73015873015873,104.55824680847228L161.9047619047619,77.22028125149802L165.0793650793651,82.92095769873993L168.25396825396825,114.88765126689344L171.42857142857144,111.51437259067265L174.6031746031746,105.98410272693089L177.77777777777777,130.74514168372096L180.95238095238096,109.77456670131187L184.12698412698413,94.24742991216932L187.3015873015873,99.2626991752033L190.47619047619048,101.77900260645876L193.65079365079364,141.28695349479173L196.82539682539684,85.607887247523L200,169.05466020710404" stroke="#e45756" stroke-width="2"></path></g></g><path class="foreground" aria-hidden="true" d="" display="none"></path></g></g><g class="mark-group role-scope layer_1_layer_0_pathgroup" role="graphics-object" aria-roledescription="group mark container"><g transform="translate(0,0)"><path class="background" aria-hidden="true" d="M0,0h200v200h-200Z"></path><g><g class="mark-area role-mark layer_1_layer_0_marks" role="graphics-object" aria-roledescription="area mark container"><path aria-label="% Correct, (Null-model Corrected): 54.2980238863; upper_logitmeandiff: 56.1297678096; condition: global; Time (s) Relative to Target Onset: 0; Mean of logitmeandiff: 55.2138958479; Mean + stderr of logitmeandiff: 56.1297678096; Mean - stderr of logitmeandiff: 54.2980238863" role="graphics-symbol" aria-roledescription="errorband" d="M0,152.2441790406977L3.1746031746031744,152.78874568376L6.349206349206349,155.00875920224493L9.523809523809524,157.43883803158084L12.698412698412698,153.93344263432533L15.873015873015872,150.15434686648743L19.047619047619047,152.4301096874395L22.22222222222222,147.88707674714195L25.396825396825395,150.2074029657927L28.57142857142857,144.53749041508544L31.746031746031743,141.5520767589178L34.920634920634924,140.58523434263037L38.095238095238095,135.34306606067616L41.26984126984127,129.54447934337279L44.44444444444444,129.6718935019554L47.61904761904762,127.46901150636182L50.79365079365079,125.69062314785148L53.96825396825397,122.4699091543632L57.14285714285714,125.0003999781081L60.317460317460316,119.72923189407072L63.49206349206349,118.90720457549486L66.66666666666666,117.35011496933849L69.84126984126985,115.49929183396388L73.01587301587303,110.33396428993159L76.19047619047619,116.21457836434894L79.36507936507937,110.73552764133312L82.53968253968254,105.4249898952475L85.71428571428572,104.95928824967251L88.88888888888889,101.04196848756968L92.06349206349206,97.28293569503548L95.23809523809524,97.85941942294419L98.41269841269842,97.93362622568122L101.58730158730158,97.71993907751084L104.76190476190477,99.83101921769399L107.93650793650794,89.72664301478162L111.11111111111111,85.87932768651523L114.28571428571428,83.79377194097854L117.46031746031747,81.21894315058489L120.63492063492063,75.67309589021976L123.80952380952381,79.53775562325076L126.98412698412697,73.68895193652081L130.15873015873015,67.88456083605476L133.33333333333331,60.83645167195424L136.50793650793648,58.95155043693276L139.6825396825397,75.43379245420591L142.85714285714286,83.05516952382379L146.03174603174605,82.94725083334116L149.20634920634922,85.0297923927714L152.38095238095238,77.15172469405718L155.55555555555557,83.6136042143707L158.73015873015873,63.18003833307171L161.9047619047619,70.53357395910022L165.0793650793651,70.29162206038211L168.25396825396825,81.46532587749415L171.42857142857144,78.29568349963694L174.6031746031746,76.71635961704206L177.77777777777777,81.009220550303L180.95238095238096,96.0782000251984L184.12698412698413,91.53396013335006L187.3015873015873,115.69001695288306L190.47619047619048,118.16265444892622L193.65079365079364,161.2568591469482L196.82539682539684,130.51427804057184L200,154.1992622501715L200,150.53460580970568L196.82539682539684,110.3636347862508L193.65079365079364,152.93653183729745L190.47619047619048,92.49852184318412L187.3015873015873,89.45313997701598L184.12698412698413,63.33116379776422L180.95238095238096,68.55540581567594L177.77777777777777,50.70626476191333L174.6031746031746,45.07193885084011L171.42857142857144,46.85675862293755L168.25396825396825,50.4453330370785L165.0793650793651,37.390338732241446L161.9047619047619,37.55257706313178L158.73015873015873,27.969614258057774L155.55555555555557,52.555982767046316L152.38095238095238,45.74811087405797L149.20634920634922,54.18172278201783L146.03174603174605,52.44182295823157L142.85714285714286,51.23832315630028L139.6825396825397,43.410715397343665L136.50793650793648,22.722257648756127L133.33333333333331,25.142431638487665L130.15873015873015,33.71207898110684L126.98412698412697,41.26002353330085L123.80952380952381,48.507870864618184L120.63492063492063,44.12546734771878L117.46031746031747,50.87289811994853L114.28571428571428,53.15295183662738L111.11111111111111,56.62947089732597L107.93650793650794,61.28315052436501L104.76190476190477,73.27940118661189L101.58730158730158,69.44875280823568L98.41269841269842,71.35498704838352L95.23809523809524,71.81194987188846L92.06349206349206,72.0645197765088L88.88888888888889,77.33008225462612L85.71428571428572,82.04021190636597L82.53968253968254,82.46648670769434L79.36507936507937,88.77760261931134L76.19047619047619,95.95985114597423L73.01587301587303,88.81160516004138L69.84126984126985,95.98724146470114L66.66666666666666,97.15343077745102L63.49206349206349,98.05041740203062L60.317460317460316,100.5024664855116L57.14285714285714,105.775655779913L53.96825396825397,103.73810679610926L50.79365079365079,107.37925108434987L47.61904761904762,110.36126404308351L44.44444444444444,114.42360481517917L41.26984126984127,111.41038107224388L38.095238095238095,118.20897010180589L34.920634920634924,124.27585361515807L31.746031746031743,125.32442572784359L28.57142857142857,129.066171852929L25.396825396825395,134.1799471821021L22.22222222222222,131.17205655137232L19.047619047619047,132.96192265632993L15.873015873015872,129.8693550001469L12.698412698412698,134.65508634898922L9.523809523809524,139.72467738106138L6.349206349206349,136.78117396880407L3.1746031746031744,133.6424993881215L0,131.89146878263864Z" fill="#4c78a8" opacity="0.3"></path></g></g><path class="foreground" aria-hidden="true" d="" display="none"></path></g><g transform="translate(0,0)"><path class="background" aria-hidden="true" d="M0,0h200v200h-200Z"></path><g><g class="mark-area role-mark layer_1_layer_0_marks" role="graphics-object" aria-roledescription="area mark container"><path aria-label="% Correct, (Null-model Corrected): 52.1114628869; upper_logitmeandiff: 54.0779638547; condition: object; Time (s) Relative to Target Onset: 0; Mean of logitmeandiff: 53.0947133708; Mean + stderr of logitmeandiff: 54.0779638547; Mean - stderr of logitmeandiff: 52.1114628869" role="graphics-symbol" aria-roledescription="errorband" d="M0,176.53930125690863L3.1746031746031744,176.3549642187873L6.349206349206349,180.49901513108324L9.523809523809524,166.27370109906937L12.698412698412698,175.79508916182718L15.873015873015872,168.30532617497332L19.047619047619047,174.88957068251665L22.22222222222222,178.82651599329168L25.396825396825395,175.93463579407387L28.57142857142857,170.78230521651614L31.746031746031743,172.59121070306293L34.920634920634924,173.27686318452598L38.095238095238095,171.07622255199462L41.26984126984127,169.46867932694033L44.44444444444444,177.84627082980728L47.61904761904762,179.9517998796005L50.79365079365079,172.2891111853055L53.96825396825397,170.4673006893604L57.14285714285714,166.51746189476765L60.317460317460316,169.1072678411934L63.49206349206349,165.4134788796765L66.66666666666666,173.2696095870736L69.84126984126985,167.6138665987338L73.01587301587303,170.00069079621113L76.19047619047619,168.48235120783147L79.36507936507937,169.11265788120687L82.53968253968254,154.3176157708003L85.71428571428572,164.62480705374801L88.88888888888889,163.68172519572482L92.06349206349206,159.06314964769211L95.23809523809524,156.65145471935125L98.41269841269842,146.8194892367142L101.58730158730158,143.72163826806053L104.76190476190477,144.17053423913617L107.93650793650794,141.81324114845881L111.11111111111111,143.48382094590534L114.28571428571428,143.83489856289194L117.46031746031747,140.76360218694126L120.63492063492063,137.56181073525283L123.80952380952381,142.9288067729279L126.98412698412697,133.49873602160574L130.15873015873015,127.00924821126245L133.33333333333331,135.80083826056142L136.50793650793648,130.92867815048436L139.6825396825397,128.49574005313733L142.85714285714286,131.52366586750892L146.03174603174605,128.91129244836193L149.20634920634922,121.41526728929135L152.38095238095238,122.90591933592015L155.55555555555557,112.15892022785772L158.73015873015873,111.0776394029505L161.9047619047619,137.45615025001428L165.0793650793651,134.71574727838188L168.25396825396825,134.15843303270836L171.42857142857144,126.68659821599135L174.6031746031746,120.60996473832182L177.77777777777777,132.8580869221966L180.95238095238096,131.84780770719757L184.12698412698413,134.01657775736894L187.3015873015873,131.45852658815315L190.47619047619048,123.4725793417171L193.65079365079364,159.52094242911105L196.82539682539684,119.14107409152686L200,150.6750635075254L200,138.86895407129822L196.82539682539684,93.82530857842382L193.65079365079364,149.25455353534738L190.47619047619048,106.65774588012562L187.3015873015873,115.37556464614119L184.12698412698413,118.07911330013164L180.95238095238096,114.79401992336844L177.77777777777777,117.11347271272703L174.6031746031746,96.9712911940658L171.42857142857144,103.13265697370579L168.25396825396825,110.22878242162919L165.0793650793651,112.541595259421L161.9047619047619,115.52011315674677L158.73015873015873,88.4132536460972L155.55555555555557,91.00546366528306L152.38095238095238,101.37646471120887L149.20634920634922,99.14408019864338L146.03174603174605,106.95821287971165L142.85714285714286,110.53041973614302L139.6825396825397,106.26735444358562L136.50793650793648,107.1328386801425L133.33333333333331,114.81263871268423L130.15873015873015,104.01884895892186L126.98412698412697,112.01812835791343L123.80952380952381,120.02380561904589L120.63492063492063,115.45500436677045L117.46031746031747,122.18443389618474L114.28571428571428,124.39068326563367L111.11111111111111,124.4196138879361L107.93650793650794,123.71863143588917L104.76190476190477,125.797295371162L101.58730158730158,127.69840420635865L98.41269841269842,129.26032817099693L95.23809523809524,139.07952767994183L92.06349206349206,138.55049625049168L88.88888888888889,143.68957596189054L85.71428571428572,143.54500953668983L82.53968253968254,136.6199807976662L79.36507936507937,148.94999394576928L76.19047619047619,150.3410809072163L73.01587301587303,149.41654879192413L69.84126984126985,148.11033721819453L66.66666666666666,151.03305164567996L63.49206349206349,145.7439287771574L60.317460317460316,149.92344618215046L57.14285714285714,146.63699002087492L53.96825396825397,151.06544010065153L50.79365079365079,154.50275450781095L47.61904761904762,158.05296400082995L44.44444444444444,154.2000647852376L41.26984126984127,149.9588496350325L38.095238095238095,147.47075531086958L34.920634920634924,154.14720010308787L31.746031746031743,152.4130397879095L28.57142857142857,150.39744390608325L25.396825396825395,150.069128970138L22.22222222222222,154.67691667337604L19.047619047619047,150.2897983286622L15.873015873015872,143.01516496281508L12.698412698412698,153.78693124919485L9.523809523809524,144.19776815466662L6.349206349206349,157.22295319195956L3.1746031746031744,154.89418641537216L0,154.68929050310948Z" fill="#f58518" opacity="0.3"></path></g></g><path class="foreground" aria-hidden="true" d="" display="none"></path></g><g transform="translate(0,0)"><path class="background" aria-hidden="true" d="M0,0h200v200h-200Z"></path><g><g class="mark-area role-mark layer_1_layer_0_marks" role="graphics-object" aria-roledescription="area mark container"><path aria-label="% Correct, (Null-model Corrected): 53.2349055049; upper_logitmeandiff: 56.7201226651; condition: spatial; Time (s) Relative to Target Onset: 0; Mean of logitmeandiff: 54.977514085; Mean + stderr of logitmeandiff: 56.7201226651; Mean - stderr of logitmeandiff: 53.2349055049" role="graphics-symbol" aria-roledescription="errorband" d="M0,164.05660550066577L3.1746031746031744,165.77562611634215L6.349206349206349,176.52971642134654L9.523809523809524,166.70617995532697L12.698412698412698,171.7900895967781L15.873015873015872,182.67150486200978L19.047619047619047,166.18443038506285L22.22222222222222,164.394083636993L25.396825396825395,163.63580534287863L28.57142857142857,161.70403129837635L31.746031746031743,172.8299919024488L34.920634920634924,184.27400009316304L38.095238095238095,182.37874347406532L41.26984126984127,183.6297843274118L44.44444444444444,175.4632536268917L47.61904761904762,168.64968643941478L50.79365079365079,175.35308135595028L53.96825396825397,160.54016007124744L57.14285714285714,164.45888984239784L60.317460317460316,154.39967685737872L63.49206349206349,138.47113655374997L66.66666666666666,164.99583301770002L69.84126984126985,163.47485474756763L73.01587301587303,162.31180375638598L76.19047619047619,164.71710152902915L79.36507936507937,159.48012321043709L82.53968253968254,163.11750036647413L85.71428571428572,171.08455603628406L88.88888888888889,181.84530684619804L92.06349206349206,180.51540614409777L95.23809523809524,177.3170445178537L98.41269841269842,162.84748267311184L101.58730158730158,155.1715549590321L104.76190476190477,149.4075570008197L107.93650793650794,148.64862901826714L111.11111111111111,154.4266078508577L114.28571428571428,139.1691761867183L117.46031746031747,133.85147893836148L120.63492063492063,121.69559336776081L123.80952380952381,138.31252107356806L126.98412698412697,124.79671021698175L130.15873015873015,141.10418697500307L133.33333333333331,129.2928000897947L136.50793650793648,107.04291005112567L139.6825396825397,116.79285157449526L142.85714285714286,118.58146251016572L146.03174603174605,112.92317368164535L149.20634920634922,103.53943886060884L152.38095238095238,122.15192112611564L155.55555555555557,130.94807139634628L158.73015873015873,128.59271165551465L161.9047619047619,99.72413265567918L165.0793650793651,105.5179874119371L168.25396825396825,140.61039423912817L171.42857142857144,138.79543652842648L174.6031746031746,132.20952430963644L177.77777777777777,152.9300339105316L180.95238095238096,133.26845200478394L184.12698412698413,118.02067964173644L187.3015873015873,121.89299072315714L190.47619047619048,125.84861095063906L193.65079365079364,161.47983544777546L196.82539682539684,112.0552867815684L200,190.7420327922373L200,147.36728762197075L196.82539682539684,59.16048771347759L193.65079365079364,121.09407154180806L190.47619047619048,77.7093942622785L187.3015873015873,76.63240762724944L184.12698412698413,70.47418018260221L180.95238095238096,86.2806813978398L177.77777777777777,108.56024945691034L174.6031746031746,79.75868114422535L171.42857142857144,84.23330865291882L168.25396825396825,89.16490829465873L165.0793650793651,60.32392798554274L161.9047619047619,54.71642984731686L158.73015873015873,80.5237819614299L155.55555555555557,85.49440489212125L152.38095238095238,78.10195132496114L149.20634920634922,57.620781427636956L146.03174603174605,68.29842089489486L142.85714285714286,76.99777658563936L139.6825396825397,76.74124057019651L136.50793650793648,70.11330275334862L133.33333333333331,96.66937606872834L130.15873015873015,111.96330118757322L126.98412698412697,92.49260182969958L123.80952380952381,105.0146691623012L120.63492063492063,89.77871844356311L117.46031746031747,102.36940160509431L114.28571428571428,103.59055016402317L111.11111111111111,118.25277781013975L107.93650793650794,114.90802005396827L104.76190476190477,117.61281204891611L101.58730158730158,126.17100226222004L98.41269841269842,127.60944068818199L95.23809523809524,142.00793525116552L92.06349206349206,139.67542563559775L88.88888888888889,144.75104392628865L85.71428571428572,135.82042387757326L82.53968253968254,126.64660404144223L79.36507936507937,126.73453971776583L76.19047619047619,130.95787811968154L73.01587301587303,126.47984236882661L69.84126984126985,129.32414185989418L66.66666666666666,134.59159841164387L63.49206349206349,105.76403807487176L60.317460317460316,118.53903537443648L57.14285714285714,131.53522254469618L53.96825396825397,126.94460647335299L50.79365079365079,146.7727823477901L47.61904761904762,135.1337081633052L44.44444444444444,144.05432800066308L41.26984126984127,144.21909557864913L38.095238095238095,142.23410339289492L34.920634920634924,143.20230557797672L31.746031746031743,133.59846719479322L28.57142857142857,122.80777089068198L25.396825396825395,127.0115394609237L22.22222222222222,127.72905873689785L19.047619047619047,129.49738350509534L15.873015873015872,141.6562543646831L12.698412698412698,130.31764692006536L9.523809523809524,125.67129045421852L6.349206349206349,139.95230483654467L3.1746031746031744,123.72628899553004L0,125.33197038748835Z" fill="#e45756" opacity="0.3"></path></g></g><path class="foreground" aria-hidden="true" d="" display="none"></path></g></g><g class="mark-text role-mark layer_2_marks" role="graphics-object" aria-roledescription="text mark container"><text aria-label="condition: global; Mean of logitmeandiff: 60.5594516481" role="graphics-symbol" aria-roledescription="text mark" text-anchor="start" transform="translate(205,85.67275946507316)" font-family="sans-serif" font-size="11px" fill="#4c78a8">global</text><text aria-label="condition: object; Mean of logitmeandiff: 57.2093236506" role="graphics-symbol" aria-roledescription="text mark" text-anchor="start" transform="translate(205,122.8964038820757)" font-family="sans-serif" font-size="11px" fill="#f58518">object</text><text aria-label="condition: spatial; Mean of logitmeandiff: 58.3764999171" role="graphics-symbol" aria-roledescription="text mark" text-anchor="start" transform="translate(205,109.92777869914045)" font-family="sans-serif" font-size="11px" fill="#e45756">spatial</text></g><g class="mark-rule role-mark layer_3_layer_0_marks" role="graphics-symbol" aria-roledescription="rule mark container"><line transform="translate(200,153.20218679634428)" x2="-200" y2="0" stroke="black" stroke-width="2" stroke-dasharray="4,4"></line></g><g class="mark-text role-mark layer_4_layer_0_marks" role="graphics-object" aria-roledescription="text mark container"><text text-anchor="middle" transform="translate(153.33333333333331,167.20218679634428)" font-family="sans-serif" font-size="11px" fill="black"><tspan>Mean Accuracy</tspan><tspan x="0" dy="13">of Null Model</tspan></text></g><g class="mark-line role-mark layer_5_layer_0_marks" role="graphics-object" aria-roledescription="line mark container"><path aria-label="x: 0.05; y: 60" role="graphics-symbol" aria-roledescription="line mark" d="M3.3333333333333335,88.88888888888889L63.33333333333333,88.88888888888889" stroke="black" stroke-width="1.5"></path></g><g class="mark-symbol role-mark layer_5_layer_1_marks" role="graphics-object" aria-roledescription="symbol mark container"><path aria-label="x: 0.05; y: 60; dir: 270" role="graphics-symbol" aria-roledescription="point" transform="translate(3.3333333333333335,88.88888888888889) rotate(270)" d="M0,-1.8257418583505536L-1.5811388300841898,0.9128709291752769L1.5811388300841898,0.9128709291752769Z" stroke="black" stroke-width="2" opacity="1"></path><path aria-label="x: 0.95; y: 60; dir: 90" role="graphics-symbol" aria-roledescription="point" transform="translate(63.33333333333333,88.88888888888889) rotate(90)" d="M0,-1.8257418583505536L-1.5811388300841898,0.9128709291752769L1.5811388300841898,0.9128709291752769Z" stroke="black" stroke-width="2" opacity="1"></path></g><g class="mark-text role-mark layer_6_layer_0_marks" role="graphics-object" aria-roledescription="text mark container"><text text-anchor="middle" transform="translate(33.33333333333333,83.88888888888889)" font-family="sans-serif" font-size="11px" fill="black">Target Length</text></g><g class="mark-group role-title"><g transform="translate(100,-17)"><path class="background" aria-hidden="true" d="M0,0h0v0h0Z" pointer-events="none"></path><g><g class="mark-text role-title-text" role="graphics-symbol" aria-roledescription="title" aria-label="Title text 'Salience Classification Accuracy'" pointer-events="none"><text text-anchor="middle" transform="translate(0,10)" font-family="sans-serif" font-size="13px" font-weight="bold" fill="#000" opacity="1">Salience Classification Accuracy</text></g></g><path class="foreground" aria-hidden="true" d="" pointer-events="none" display="none"></path></g></g></g><path class="foreground" aria-hidden="true" d="" display="none"></path></g></g></g></svg>
