<?xml version="1.0" encoding="utf-8"?>
<!DOCTYPE svg PUBLIC "-//W3C//DTD SVG 1.1//EN" "http://www.w3.org/Graphics/SVG/1.1/DTD/svg11.dtd">
<svg class="marks" width="318" height="288" viewBox="0 0 318 288" version="1.1" xmlns="http://www.w3.org/2000/svg" xmlns:xlink="http://www.w3.org/1999/xlink"><rect width="318" height="288" fill="white"></rect><g fill="none" stroke-miterlimit="10" transform="translate(59,51)"><g class="mark-group role-frame root" role="graphics-object" aria-roledescription="group mark container"><g transform="translate(0,0)"><path class="background" aria-hidden="true" d="M0.5,0.5h200v200h-200Z" stroke="#ddd"></path><g><g class="mark-group role-axis" aria-hidden="true"><g transform="translate(0.5,200.5)"><path class="background" aria-hidden="true" d="M0,0h0v0h0Z" pointer-events="none"></path><g><g class="mark-rule role-axis-grid" pointer-events="none"><line transform="translate(0,-200)" x2="0" y2="200" stroke="#ddd" stroke-width="1" opacity="1"></line><line transform="translate(33,-200)" x2="0" y2="200" stroke="#ddd" stroke-width="1" opacity="1"></line><line transform="translate(67,-200)" x2="0" y2="200" stroke="#ddd" stroke-width="1" opacity="1"></line><line transform="translate(100,-200)" x2="0" y2="200" stroke="#ddd" stroke-width="1" opacity="1"></line><line transform="translate(133,-200)" x2="0" y2="200" stroke="#ddd" stroke-width="1" opacity="1"></line><line transform="translate(167,-200)" x2="0" y2="200" stroke="#ddd" stroke-width="1" opacity="1"></line><line transform="translate(200,-200)" x2="0" y2="200" stroke="#ddd" stroke-width="1" opacity="1"></line></g></g><path class="foreground" aria-hidden="true" d="" pointer-events="none" display="none"></path></g></g><g class="mark-group role-axis" aria-hidden="true"><g transform="translate(0.5,0.5)"><path class="background" aria-hidden="true" d="M0,0h0v0h0Z" pointer-events="none"></path><g><g class="mark-rule role-axis-grid" pointer-events="none"><line transform="translate(0,193)" x2="200" y2="0" stroke="#ddd" stroke-width="1" opacity="1"></line><line transform="translate(0,160)" x2="200" y2="0" stroke="#ddd" stroke-width="1" opacity="1"></line><line transform="translate(0,127)" x2="200" y2="0" stroke="#ddd" stroke-width="1" opacity="1"></line><line transform="translate(0,93)" x2="200" y2="0" stroke="#ddd" stroke-width="1" opacity="1"></line><line transform="translate(0,60)" x2="200" y2="0" stroke="#ddd" stroke-width="1" opacity="1"></line><line transform="translate(0,27)" x2="200" y2="0" stroke="#ddd" stroke-width="1" opacity="1"></line></g></g><path class="foreground" aria-hidden="true" d="" pointer-events="none" display="none"></path></g></g><g class="mark-group role-axis" role="graphics-symbol" aria-roledescription="axis" aria-label="X-axis titled 'Time (s) Relative to Target Onset' for a linear scale with values from 0.0 to 3.0"><g transform="translate(0.5,200.5)"><path class="background" aria-hidden="true" d="M0,0h0v0h0Z" pointer-events="none"></path><g><g class="mark-rule role-axis-tick" pointer-events="none"><line transform="translate(0,0)" x2="0" y2="5" stroke="#888" stroke-width="1" opacity="1"></line><line transform="translate(33,0)" x2="0" y2="5" stroke="#888" stroke-width="1" opacity="1"></line><line transform="translate(67,0)" x2="0" y2="5" stroke="#888" stroke-width="1" opacity="1"></line><line transform="translate(100,0)" x2="0" y2="5" stroke="#888" stroke-width="1" opacity="1"></line><line transform="translate(133,0)" x2="0" y2="5" stroke="#888" stroke-width="1" opacity="1"></line><line transform="translate(167,0)" x2="0" y2="5" stroke="#888" stroke-width="1" opacity="1"></line><line transform="translate(200,0)" x2="0" y2="5" stroke="#888" stroke-width="1" opacity="1"></line></g><g class="mark-text role-axis-label" pointer-events="none"><text text-anchor="start" transform="translate(0,15)" font-family="sans-serif" font-size="10px" fill="#000" opacity="1">0.0</text><text text-anchor="middle" transform="translate(33.33333333333333,15)" font-family="sans-serif" font-size="10px" fill="#000" opacity="1">0.5</text><text text-anchor="middle" transform="translate(66.66666666666666,15)" font-family="sans-serif" font-size="10px" fill="#000" opacity="1">1.0</text><text text-anchor="middle" transform="translate(100,15)" font-family="sans-serif" font-size="10px" fill="#000" opacity="1">1.5</text><text text-anchor="middle" transform="translate(133.33333333333331,15)" font-family="sans-serif" font-size="10px" fill="#000" opacity="1">2.0</text><text text-anchor="middle" transform="translate(166.66666666666669,15)" font-family="sans-serif" font-size="10px" fill="#000" opacity="1">2.5</text><text text-anchor="end" transform="translate(200,15)" font-family="sans-serif" font-size="10px" fill="#000" opacity="1">3.0</text></g><g class="mark-rule role-axis-domain" pointer-events="none"><line transform="translate(0,0)" x2="200" y2="0" stroke="#888" stroke-width="1" opacity="1"></line></g><g class="mark-text role-axis-title" pointer-events="none"><text text-anchor="middle" transform="translate(100,30)" font-family="sans-serif" font-size="11px" font-weight="bold" fill="#000" opacity="1">Time (s) Relative to Target Onset</text></g></g><path class="foreground" aria-hidden="true" d="" pointer-events="none" display="none"></path></g></g><g class="mark-group role-axis" role="graphics-symbol" aria-roledescription="axis" aria-label="Y-axis titled 'Model - Null Model Accuracy (logit scale)' for a linear scale with values from -0.6 to 2.4"><g transform="translate(0.5,0.5)"><path class="background" aria-hidden="true" d="M0,0h0v0h0Z" pointer-events="none"></path><g><g class="mark-rule role-axis-tick" pointer-events="none"><line transform="translate(0,193)" x2="-5" y2="0" stroke="#888" stroke-width="1" opacity="1"></line><line transform="translate(0,160)" x2="-5" y2="0" stroke="#888" stroke-width="1" opacity="1"></line><line transform="translate(0,127)" x2="-5" y2="0" stroke="#888" stroke-width="1" opacity="1"></line><line transform="translate(0,93)" x2="-5" y2="0" stroke="#888" stroke-width="1" opacity="1"></line><line transform="translate(0,60)" x2="-5" y2="0" stroke="#888" stroke-width="1" opacity="1"></line><line transform="translate(0,27)" x2="-5" y2="0" stroke="#888" stroke-width="1" opacity="1"></line></g><g class="mark-text role-axis-label" pointer-events="none"><text text-anchor="end" transform="translate(-7,196.33333333333334)" font-family="sans-serif" font-size="10px" fill="#000" opacity="1">-0.5</text><text text-anchor="end" transform="translate(-7,163)" font-family="sans-serif" font-size="10px" fill="#000" opacity="1">0.0</text><text text-anchor="end" transform="translate(-7,129.66666666666666)" font-family="sans-serif" font-size="10px" fill="#000" opacity="1">0.5</text><text text-anchor="end" transform="translate(-7,96.33333333333333)" font-family="sans-serif" font-size="10px" fill="#000" opacity="1">1.0</text><text text-anchor="end" transform="translate(-7,62.999999999999986)" font-family="sans-serif" font-size="10px" fill="#000" opacity="1">1.5</text><text text-anchor="end" transform="translate(-7,29.66666666666666)" font-family="sans-serif" font-size="10px" fill="#000" opacity="1">2.0</text></g><g class="mark-rule role-axis-domain" pointer-events="none"><line transform="translate(0,200)" x2="0" y2="-200" stroke="#888" stroke-width="1" opacity="1"></line></g><g class="mark-text role-axis-title" pointer-events="none"><text text-anchor="middle" transform="translate(-30,100) rotate(-90) translate(0,-2)" font-family="sans-serif" font-size="11px" font-weight="bold" fill="#000" opacity="1">Model - Null Model Accuracy (logit scale)</text></g></g><path class="foreground" aria-hidden="true" d="" pointer-events="none" display="none"></path></g></g><g class="mark-group role-scope layer_0_pathgroup" role="graphics-object" aria-roledescription="group mark container"><g transform="translate(0,0)"><path class="background" aria-hidden="true" d="M0,0h200v200h-200Z"></path><g><g class="mark-line role-mark layer_0_marks" role="graphics-object" aria-roledescription="line mark container"><path aria-label="condition: global; Time (s) Relative to Target Onset: 0; Model - Null Model Accuracy (logit scale): 0.00831206241487" role="graphics-symbol" aria-roledescription="line mark" d="M0,159.44586250567502L3.1746031746031744,154.86448916861838L6.349206349206349,163.97409243739526L9.523809523809524,161.63010408823249L12.698412698412698,162.57477545018185L15.873015873015872,161.55281786326407L19.047619047619047,164.6405138066564L22.22222222222222,169.86370823945776L25.396825396825395,164.4666073965229L28.57142857142857,168.40238069501308L31.746031746031743,172.19861355610487L34.920634920634924,170.3526715710036L38.095238095238095,163.61225375916294L41.26984126984127,163.27320468772137L44.44444444444444,167.67224051768105L47.61904761904762,164.84504797861712L50.79365079365079,164.03794381632068L53.96825396825397,154.10203093394867L57.14285714285714,151.12460426889893L60.317460317460316,154.92754871207353L63.49206349206349,162.40601435206727L66.66666666666666,163.4205595879632L69.84126984126985,158.0533958947654L73.01587301587303,151.6867786125895L76.19047619047619,142.48016679119021L79.36507936507937,126.8611485359795L82.53968253968254,126.09454065205776L85.71428571428572,128.69678808488607L88.88888888888889,128.62383017456622L92.06349206349206,121.20621065900706L95.23809523809524,127.31043343512955L98.41269841269842,110.94474095440363L101.58730158730158,132.57892700838858L104.76190476190477,123.58322955354608L107.93650793650794,106.12912675478223L111.11111111111111,85.13695325000745L114.28571428571428,90.3571571543338L117.46031746031747,97.79855697056131L120.63492063492063,75.03742658252897L123.80952380952381,79.8337829916932L126.98412698412697,91.69684652697143L130.15873015873015,70.6140908984719L133.33333333333331,70.68498629547663L136.50793650793648,71.20864674303388L139.6825396825397,64.65135950506371L142.85714285714286,66.12770255936553L146.03174603174605,59.94238719789002L149.20634920634922,61.674863866490526L152.38095238095238,52.66651977476853L155.55555555555557,56.31311673197536L158.73015873015873,54.9031110249454L161.9047619047619,44.920993899867945L165.0793650793651,51.37490043057748L168.25396825396825,49.92830358652603L171.42857142857144,42.87709150673689L174.6031746031746,60.58412116188825L177.77777777777777,54.72531552896367L180.95238095238096,42.68088844210312L184.12698412698413,32.55733851402513L187.3015873015873,44.418962858517204L190.47619047619048,49.48596475837812L193.65079365079364,49.89211157324915L196.82539682539684,56.706871561037154L200,62.493311048181056" stroke="#4c78a8" stroke-width="2"></path></g></g><path class="foreground" aria-hidden="true" d="" display="none"></path></g><g transform="translate(0,0)"><path class="background" aria-hidden="true" d="M0,0h200v200h-200Z"></path><g><g class="mark-line role-mark layer_0_marks" role="graphics-object" aria-roledescription="line mark container"><path aria-label="condition: object; Time (s) Relative to Target Onset: 0; Model - Null Model Accuracy (logit scale): 0.0643631828409" role="graphics-symbol" aria-roledescription="line mark" d="M0,155.7091211439412L3.1746031746031744,154.283179204732L6.349206349206349,160.55858101690487L9.523809523809524,161.03483975361758L12.698412698412698,160.44002898921477L15.873015873015872,158.24532499428992L19.047619047619047,158.23103690443548L22.22222222222222,158.74291765518237L25.396825396825395,159.4880519114527L28.57142857142857,154.21178963613318L31.746031746031743,153.3193511303191L34.920634920634924,155.5762964805311L38.095238095238095,147.33374993494584L41.26984126984127,155.51297964503584L44.44444444444444,155.2842282987657L47.61904761904762,153.50816321227774L50.79365079365079,152.7908433907949L53.96825396825397,144.06826264818616L57.14285714285714,141.61152480531408L60.317460317460316,151.68880156407988L63.49206349206349,146.569938192073L66.66666666666666,148.66377261302364L69.84126984126985,149.9669574435341L73.01587301587303,147.70850973014478L76.19047619047619,151.57267979862004L79.36507936507937,139.38316940692826L82.53968253968254,141.32919502257934L85.71428571428572,141.75840548677786L88.88888888888889,141.2560250033363L92.06349206349206,138.67245032359264L95.23809523809524,137.51579163794355L98.41269841269842,135.04274719961484L101.58730158730158,132.72158731723937L104.76190476190477,125.57552738274889L107.93650793650794,131.21336301889306L111.11111111111111,123.21061135296492L114.28571428571428,129.8497719849785L117.46031746031747,135.17696352082308L120.63492063492063,136.43774805746236L123.80952380952381,143.11322793070383L126.98412698412697,139.3205768663488L130.15873015873015,135.8538519269394L133.33333333333331,134.67569950526382L136.50793650793648,137.25099743052508L139.6825396825397,140.47606438789836L142.85714285714286,142.83773264163665L146.03174603174605,139.53939784739862L149.20634920634922,138.40700999559462L152.38095238095238,139.41791711824476L155.55555555555557,136.94157619806285L158.73015873015873,137.4979162161937L161.9047619047619,137.4669156825794L165.0793650793651,137.6910858399684L168.25396825396825,140.54525032280284L171.42857142857144,139.4864804550306L174.6031746031746,145.8091995546868L177.77777777777777,143.3064133585768L180.95238095238096,140.28989257668064L184.12698412698413,139.6423218181229L187.3015873015873,141.52710458890323L190.47619047619048,131.37311833480027L193.65079365079364,130.3719684092596L196.82539682539684,131.98799405818468L200,150.80451316943245" stroke="#f58518" stroke-width="2"></path></g></g><path class="foreground" aria-hidden="true" d="" display="none"></path></g><g transform="translate(0,0)"><path class="background" aria-hidden="true" d="M0,0h200v200h-200Z"></path><g><g class="mark-line role-mark layer_0_marks" role="graphics-object" aria-roledescription="line mark container"><path aria-label="condition: spatial; Time (s) Relative to Target Onset: 0; Model - Null Model Accuracy (logit scale): 0.182435469128" role="graphics-symbol" aria-roledescription="line mark" d="M0,147.83763539147054L3.1746031746031744,148.90792415778247L6.349206349206349,149.60618202253292L9.523809523809524,151.52554188075072L12.698412698412698,152.84394443810555L15.873015873015872,152.43725928579147L19.047619047619047,154.10844383559993L22.22222222222222,142.93486172909437L25.396825396825395,134.9627913294718L28.57142857142857,141.18766229036126L31.746031746031743,154.2755427581158L34.920634920634924,154.8205481909012L38.095238095238095,157.5827848446765L41.26984126984127,153.4453472763078L44.44444444444444,153.0285964241187L47.61904761904762,156.31874340697735L50.79365079365079,152.526089129583L53.96825396825397,147.89493873795388L57.14285714285714,145.52460180784962L60.317460317460316,142.6813555083499L63.49206349206349,140.62528725739855L66.66666666666666,139.61875437253232L69.84126984126985,138.6531652868148L73.01587301587303,141.48162565888492L76.19047619047619,138.526477149215L79.36507936507937,134.8951822458167L82.53968253968254,129.13267590767447L85.71428571428572,130.72460416715424L88.88888888888889,133.51105961044107L92.06349206349206,138.47616628527985L95.23809523809524,137.19910060903513L98.41269841269842,141.96859454783728L101.58730158730158,147.271815035813L104.76190476190477,150.081205004881L107.93650793650794,151.06216560743445L111.11111111111111,154.12604610884398L114.28571428571428,151.55804886634186L117.46031746031747,154.19119637307458L120.63492063492063,155.07585475178308L123.80952380952381,153.81964844737655L126.98412698412697,157.0951983638182L130.15873015873015,153.98041512393073L133.33333333333331,153.9428905960213L136.50793650793648,153.20228804386915L139.6825396825397,148.62216925505496L142.85714285714286,141.08995937391637L146.03174603174605,139.29767762604263L149.20634920634922,148.50002553858883L152.38095238095238,141.6083396178528L155.55555555555557,149.32857009428767L158.73015873015873,157.08601619566298L161.9047619047619,149.71002515490906L165.0793650793651,138.26580159766038L168.25396825396825,151.28134881004675L171.42857142857144,160.3367270902818L174.6031746031746,160.4714729361445L177.77777777777777,168.48023469082455L180.95238095238096,152.0556193020037L184.12698412698413,160.10450583193466L187.3015873015873,152.2919933282932L190.47619047619048,148.9936798897836L193.65079365079364,138.50316108112298L196.82539682539684,137.10807212413897L200,175.50688747190796" stroke="#e45756" stroke-width="2"></path></g></g><path class="foreground" aria-hidden="true" d="" display="none"></path></g></g><g class="mark-group role-scope layer_1_layer_0_pathgroup" role="graphics-object" aria-roledescription="group mark container"><g transform="translate(0,0)"><path class="background" aria-hidden="true" d="M0,0h200v200h-200Z"></path><g><g class="mark-area role-mark layer_1_layer_0_marks" role="graphics-object" aria-roledescription="area mark container"><path aria-label="Model - Null Model Accuracy (logit scale): -0.112331709106; upper_logitmeandiff: 0.128955833936; condition: global; Time (s) Relative to Target Onset: 0; Mean of logitmeandiff: 0.00831206241487; Mean + stderr of logitmeandiff: 0.128955833936; Mean - stderr of logitmeandiff: -0.112331709106" role="graphics-symbol" aria-roledescription="errorband" d="M0,167.4887806070918L3.1746031746031744,165.36140705295847L6.349206349206349,172.22093371308506L9.523809523809524,169.47752203712966L12.698412698412698,171.35753959826977L15.873015873015872,170.65904572795017L19.047619047619047,172.7417727130618L22.22222222222222,177.9813954143878L25.396825396825395,170.4925589338262L28.57142857142857,174.7653472204765L31.746031746031743,182.32505586944524L34.920634920634924,178.7672730991258L38.095238095238095,173.3100953034811L41.26984126984127,167.81865799106808L44.44444444444444,173.47247148574985L47.61904761904762,171.2920536810712L50.79365079365079,171.10999075277613L53.96825396825397,161.75139239042966L57.14285714285714,160.17600881590113L60.317460317460316,160.8298785305257L63.49206349206349,167.7282746805313L66.66666666666666,169.07722106632346L69.84126984126985,163.6948517927664L73.01587301587303,159.28841205691904L76.19047619047619,152.8157714908378L79.36507936507937,140.74276697604424L82.53968253968254,140.13906630430824L85.71428571428572,141.9921232061403L88.88888888888889,140.85519506929552L92.06349206349206,135.3867031040261L95.23809523809524,139.63333634339133L98.41269841269842,126.73410640464446L101.58730158730158,142.67036564328453L104.76190476190477,136.89061185391904L107.93650793650794,126.21621391236641L111.11111111111111,104.31786180161633L114.28571428571428,110.01469632285601L117.46031746031747,115.18102259468375L120.63492063492063,95.78391482146287L123.80952380952381,99.51577756782142L126.98412698412697,110.08161003075662L130.15873015873015,90.85674081708852L133.33333333333331,91.6126137634487L136.50793650793648,92.30842321198021L139.6825396825397,85.14529344522279L142.85714285714286,86.18324767961214L146.03174603174605,81.04954749303211L149.20634920634922,81.99011162984486L152.38095238095238,74.45618725271021L155.55555555555557,78.02730587084261L158.73015873015873,76.90535470551067L161.9047619047619,66.7237295861809L165.0793650793651,72.98752627605765L168.25396825396825,71.34670353192784L171.42857142857144,64.2960367052745L174.6031746031746,80.49207254358137L177.77777777777777,74.30531724670058L180.95238095238096,63.4395908407388L184.12698412698413,54.20551563887261L187.3015873015873,64.02019503849772L190.47619047619048,68.48710181497752L193.65079365079364,69.04528414100864L196.82539682539684,74.8714456181797L200,79.99536880068918L200,44.99125329567295L196.82539682539684,38.54229750389455L193.65079365079364,30.73893900548967L190.47619047619048,30.484827701778713L187.3015873015873,24.817730678536677L184.12698412698413,10.909161389177655L180.95238095238096,21.92218604346745L177.77777777777777,35.145313811226764L174.6031746031746,40.676169780195146L171.42857142857144,21.458146308199247L168.25396825396825,28.509903641124197L165.0793650793651,29.762274585097344L161.9047619047619,23.118258213554995L158.73015873015873,32.90086734438014L155.55555555555557,34.5989275931081L152.38095238095238,30.87685229682686L149.20634920634922,41.35961610313619L146.03174603174605,38.83522690274794L142.85714285714286,46.072157439118925L139.6825396825397,44.15742556490463L136.50793650793648,50.10887027408752L133.33333333333331,49.75735882750458L130.15873015873015,50.371440979855265L126.98412698412697,73.31208302318623L123.80952380952381,60.151788415564965L120.63492063492063,54.290938343595066L117.46031746031747,80.41609134643888L114.28571428571428,70.69961798581161L111.11111111111111,65.95604469839857L107.93650793650794,86.04203959719803L104.76190476190477,110.27584725317313L101.58730158730158,122.48748837349268L98.41269841269842,95.1553755041628L95.23809523809524,114.98753052686777L92.06349206349206,107.02571821398803L88.88888888888889,116.39246527983693L85.71428571428572,115.40145296363184L82.53968253968254,112.05001499980729L79.36507936507937,112.97953009591475L76.19047619047619,132.14456209154264L73.01587301587303,144.08514516825994L69.84126984126985,152.4119399967644L66.66666666666666,157.76389810960293L63.49206349206349,157.0837540236032L60.317460317460316,149.02521889362131L57.14285714285714,142.07319972189677L53.96825396825397,146.45266947746768L50.79365079365079,156.96589687986523L47.61904761904762,158.39804227616304L44.44444444444444,161.87200954961222L41.26984126984127,158.7277513843747L38.095238095238095,153.91441221484484L34.920634920634924,161.93807004288144L31.746031746031743,162.07217124276457L28.57142857142857,162.03941416954964L25.396825396825395,158.4406558592196L22.22222222222222,161.74602106452772L19.047619047619047,156.53925490025097L15.873015873015872,152.4465899985779L12.698412698412698,153.79201130209393L9.523809523809524,153.7826861393353L6.349206349206349,155.72725116170548L3.1746031746031744,144.36757128427828L0,151.40294440425822Z" fill="#4c78a8" opacity="0.3"></path></g></g><path class="foreground" aria-hidden="true" d="" display="none"></path></g><g transform="translate(0,0)"><path class="background" aria-hidden="true" d="M0,0h200v200h-200Z"></path><g><g class="mark-area role-mark layer_1_layer_0_marks" role="graphics-object" aria-roledescription="area mark container"><path aria-label="Model - Null Model Accuracy (logit scale): -0.0259269560514; upper_logitmeandiff: 0.154653321733; condition: object; Time (s) Relative to Target Onset: 0; Mean of logitmeandiff: 0.0643631828409; Mean + stderr of logitmeandiff: 0.154653321733; Mean - stderr of logitmeandiff: -0.0259269560514" role="graphics-symbol" aria-roledescription="errorband" d="M0,161.72846373676214L3.1746031746031744,162.32799186834345L6.349206349206349,165.98806709973758L9.523809523809524,165.82269367130277L12.698412698412698,165.49342974393647L15.873015873015872,164.03043186161983L19.047619047619047,163.494107862371L22.22222222222222,164.96191770466925L25.396825396825395,164.7547351821062L28.57142857142857,162.53697431880246L31.746031746031743,161.97051654236142L34.920634920634924,163.96742490885336L38.095238095238095,156.6328019834412L41.26984126984127,161.8691632548222L44.44444444444444,161.74391933973132L47.61904761904762,159.98134288946375L50.79365079365079,159.25440073952598L53.96825396825397,152.23960230973083L57.14285714285714,152.13158793459547L60.317460317460316,157.95584232505144L63.49206349206349,154.28100804998292L66.66666666666666,155.40251009254237L69.84126984126985,156.30742521795872L73.01587301587303,155.8205019988296L76.19047619047619,158.83931917095236L79.36507936507937,150.46518095666713L82.53968253968254,151.00297389227637L85.71428571428572,152.11683052762567L88.88888888888889,151.98138412124328L92.06349206349206,149.81309122960906L95.23809523809524,148.81785033808436L98.41269841269842,146.7487509607929L101.58730158730158,145.41724365068606L104.76190476190477,139.45789640029136L107.93650793650794,142.69182914201414L111.11111111111111,137.38543287160837L114.28571428571428,141.36821686680526L117.46031746031747,145.92042179278423L120.63492063492063,147.57395112111507L123.80952380952381,151.75899860706593L126.98412698412697,148.8302127238397L130.15873015873015,146.449404354934L133.33333333333331,145.24523789370195L136.50793650793648,148.27452645111913L139.6825396825397,151.45117905034706L142.85714285714286,153.26725644644773L146.03174603174605,150.72115573586453L149.20634920634922,149.80382090934293L152.38095238095238,150.2681042033336L155.55555555555557,147.6478390635865L158.73015873015873,148.46884931837124L161.9047619047619,150.21881690549935L165.0793650793651,149.5258314939159L168.25396825396825,152.74728471091507L171.42857142857144,151.52892039964007L174.6031746031746,156.2116089250731L177.77777777777777,154.07607430437787L180.95238095238096,152.1969342768979L184.12698412698413,151.60293439844628L187.3015873015873,153.79376521292426L190.47619047619048,146.2620047062881L193.65079365079364,145.80255433589465L196.82539682539684,145.8669162495281L200,170.09068720349393L200,131.51833913537098L196.82539682539684,118.10907186684135L193.65079365079364,114.94138248262456L190.47619047619048,116.48423196331245L187.3015873015873,129.2604439648822L184.12698412698413,127.6817092377995L180.95238095238096,128.38285087646338L177.77777777777777,132.5367524127757L174.6031746031746,135.4067901843005L171.42857142857144,127.44404051042113L168.25396825396825,128.34321593469062L165.0793650793651,125.85634018602083L161.9047619047619,124.71501445965947L158.73015873015873,126.52698311401616L155.55555555555557,126.23531333253916L152.38095238095238,128.56773003315598L149.20634920634922,127.01019908184632L146.03174603174605,128.35763995893274L142.85714285714286,132.40820883682557L139.6825396825397,129.5009497254496L136.50793650793648,126.22746840993102L133.33333333333331,124.10616111682566L130.15873015873015,125.25829949894475L126.98412698412697,129.8109410088579L123.80952380952381,134.4674572543417L120.63492063492063,125.30154499380966L117.46031746031747,124.43350524886192L114.28571428571428,118.33132710315168L111.11111111111111,109.03578983432145L107.93650793650794,119.73489689577197L104.76190476190477,111.69315836520646L101.58730158730158,120.02593098379263L98.41269841269842,123.3367434384368L95.23809523809524,126.21373293780276L92.06349206349206,127.53180941757623L88.88888888888889,130.53066588542933L85.71428571428572,131.39998044593008L82.53968253968254,131.6554161528823L79.36507936507937,128.30115785718937L76.19047619047619,144.3060404262877L73.01587301587303,139.59651746145997L69.84126984126985,143.62648966910947L66.66666666666666,141.9250351335049L63.49206349206349,138.85886833416313L60.317460317460316,145.42176080310827L57.14285714285714,131.09146167603268L53.96825396825397,135.89692298664153L50.79365079365079,146.32728604206383L47.61904761904762,147.03498353509175L44.44444444444444,148.82453725780007L41.26984126984127,149.15679603524944L38.095238095238095,138.03469788645054L34.920634920634924,147.18516805220884L31.746031746031743,144.66818571827673L28.57142857142857,145.88660495346392L25.396825396825395,154.22136864079917L22.22222222222222,152.5239176056955L19.047619047619047,152.96796594650002L15.873015873015872,152.46021812696L12.698412698412698,155.38662823449306L9.523809523809524,156.24698583593238L6.349206349206349,155.12909493407213L3.1746031746031744,146.23836654112057L0,149.6897785511202Z" fill="#f58518" opacity="0.3"></path></g></g><path class="foreground" aria-hidden="true" d="" display="none"></path></g><g transform="translate(0,0)"><path class="background" aria-hidden="true" d="M0,0h200v200h-200Z"></path><g><g class="mark-area role-mark layer_1_layer_0_marks" role="graphics-object" aria-roledescription="area mark container"><path aria-label="Model - Null Model Accuracy (logit scale): 0.0909948586815; upper_logitmeandiff: 0.273876079574; condition: spatial; Time (s) Relative to Target Onset: 0; Mean of logitmeandiff: 0.182435469128; Mean + stderr of logitmeandiff: 0.273876079574; Mean - stderr of logitmeandiff: 0.0909948586815" role="graphics-symbol" aria-roledescription="errorband" d="M0,153.93367608789944L3.1746031746031744,155.0877093009941L6.349206349206349,155.65527979845595L9.523809523809524,157.42896726738553L12.698412698412698,159.5214133950471L15.873015873015872,158.99524355046216L19.047619047619047,160.84141732072285L22.22222222222222,151.46197373137497L25.396825396825395,146.92643842215836L28.57142857142857,152.33191183072734L31.746031746031743,164.69544352940076L34.920634920634924,163.05250337990768L38.095238095238095,166.03541216194856L41.26984126984127,165.2916264135115L44.44444444444444,161.66907642633365L47.61904761904762,164.35190790176128L50.79365079365079,160.49912427626097L53.96825396825397,157.940330758993L57.14285714285714,153.26408149109523L60.317460317460316,151.7668088806389L63.49206349206349,150.12015412408613L66.66666666666666,148.88318369376785L69.84126984126985,149.24546086428964L73.01587301587303,150.2781097411665L76.19047619047619,147.06392555743653L79.36507936507937,145.09890313466033L82.53968253968254,140.46258026694835L85.71428571428572,140.70091546312474L88.88888888888889,142.02583267718242L92.06349206349206,146.7054306061679L95.23809523809524,145.4213885628928L98.41269841269842,148.73117144098865L101.58730158730158,152.99997633730032L104.76190476190477,155.08451741376433L107.93650793650794,156.9145360596207L111.11111111111111,158.45571233203103L114.28571428571428,156.51495262864125L117.46031746031747,159.88297096287954L120.63492063492063,160.80836949434038L123.80952380952381,162.43806003304755L126.98412698412697,163.96601103609933L130.15873015873015,164.60142813884443L133.33333333333331,164.66541939698703L136.50793650793648,162.48494831758435L139.6825396825397,158.43393489774428L142.85714285714286,150.51432826434132L146.03174603174605,148.91744917778345L149.20634920634922,157.8878773432921L152.38095238095238,153.16460001383717L155.55555555555557,159.94275086506465L158.73015873015873,165.87500977613067L161.9047619047619,156.07003114418714L165.0793650793651,150.63439689314635L168.25396825396825,171.658290214265L171.42857142857144,178.9189450268958L174.6031746031746,179.42395439774106L177.77777777777777,187.47923496812226L180.95238095238096,164.83922984324929L184.12698412698413,173.59755254043364L187.3015873015873,166.31228925724045L190.47619047619048,164.26693798727524L193.65079365079364,152.7903533506938L196.82539682539684,151.1020480023609L200,189.57092553883314L200,161.44284940498278L196.82539682539684,123.11409624591705L193.65079365079364,124.21596881155214L190.47619047619048,133.72042179229192L187.3015873015873,138.2716973993459L184.12698412698413,146.61145912343562L180.95238095238096,139.2720087607581L177.77777777777777,149.48123441352678L174.6031746031746,141.51899147454793L171.42857142857144,141.75450915366778L168.25396825396825,130.90440740582855L165.0793650793651,125.89720630217438L161.9047619047619,143.35001916563098L158.73015873015873,148.29702261519526L155.55555555555557,138.7143893235107L152.38095238095238,130.05207922186847L149.20634920634922,139.11217373388553L146.03174603174605,129.67790607430177L142.85714285714286,131.6655904834914L139.6825396825397,138.81040361236563L136.50793650793648,143.91962777015394L133.33333333333331,143.22036179505554L130.15873015873015,143.35940210901703L126.98412698412697,150.22438569153704L123.80952380952381,145.20123686170555L120.63492063492063,149.3433400092258L117.46031746031747,148.49942178326958L114.28571428571428,146.60114510404244L111.11111111111111,149.79637988565693L107.93650793650794,145.20979515524823L104.76190476190477,145.07789259599772L101.58730158730158,141.54365373432563L98.41269841269842,135.20601765468592L95.23809523809524,128.9768126551775L92.06349206349206,130.24690196439175L88.88888888888889,124.99628654369968L85.71428571428572,120.74829287118374L82.53968253968254,117.8027715484006L79.36507936507937,124.6914613569731L76.19047619047619,129.98902874099346L73.01587301587303,132.68514157660337L69.84126984126985,128.06086970933995L66.66666666666666,130.35432505129685L63.49206349206349,131.13042039071098L60.317460317460316,133.59590213606091L57.14285714285714,137.78512212460404L53.96825396825397,137.84954671691474L50.79365079365079,144.55305398290506L47.61904761904762,148.28557891219342L44.44444444444444,144.38811642190373L41.26984126984127,141.59906813910413L38.095238095238095,149.13015752740446L34.920634920634924,146.58859300189474L31.746031746031743,143.85564198683082L28.57142857142857,130.0434127499952L25.396825396825395,122.99914423678521L22.22222222222222,134.40774972681376L19.047619047619047,147.375470350477L15.873015873015872,145.8792750211208L12.698412698412698,146.16647548116407L9.523809523809524,145.62211649411591L6.349206349206349,143.55708424660986L3.1746031746031744,142.72813901457081L0,141.74159469504167Z" fill="#e45756" opacity="0.3"></path></g></g><path class="foreground" aria-hidden="true" d="" display="none"></path></g></g><g class="mark-text role-mark layer_2_marks" role="graphics-object" aria-roledescription="text mark container"><text aria-label="condition: global; Mean of logitmeandiff: 1.63393783565" role="graphics-symbol" aria-roledescription="text mark" text-anchor="start" transform="translate(205,54.070810956954716)" font-family="sans-serif" font-size="11px" fill="#4c78a8">global</text><text aria-label="condition: object; Mean of logitmeandiff: 0.315382343208" role="graphics-symbol" aria-roledescription="text mark" text-anchor="start" transform="translate(205,141.97451045277202)" font-family="sans-serif" font-size="11px" fill="#f58518">object</text><text aria-label="condition: spatial; Mean of logitmeandiff: 0.115030164039" role="graphics-symbol" aria-roledescription="text mark" text-anchor="start" transform="translate(205,155.33132239737907)" font-family="sans-serif" font-size="11px" fill="#e45756">spatial</text></g><g class="mark-rule role-mark layer_3_layer_0_marks" role="graphics-symbol" aria-roledescription="rule mark container"><line transform="translate(200,160)" x2="-200" y2="0" stroke="black" stroke-width="2" stroke-dasharray="4,4"></line></g><g class="mark-line role-mark layer_4_layer_0_marks" role="graphics-object" aria-roledescription="line mark container"><path aria-label="x: 0.05; y: 0.25" role="graphics-symbol" aria-roledescription="line mark" d="M3.3333333333333335,143.33333333333334L63.33333333333333,143.33333333333334" stroke="black" stroke-width="1.5"></path></g><g class="mark-symbol role-mark layer_4_layer_1_marks" role="graphics-object" aria-roledescription="symbol mark container"><path aria-label="x: 0.05; y: 0.25; dir: 270" role="graphics-symbol" aria-roledescription="point" transform="translate(3.3333333333333335,143.33333333333334) rotate(270)" d="M0,-1.8257418583505536L-1.5811388300841898,0.9128709291752769L1.5811388300841898,0.9128709291752769Z" stroke="black" stroke-width="2" opacity="1"></path><path aria-label="x: 0.95; y: 0.25; dir: 90" role="graphics-symbol" aria-roledescription="point" transform="translate(63.33333333333333,143.33333333333334) rotate(90)" d="M0,-1.8257418583505536L-1.5811388300841898,0.9128709291752769L1.5811388300841898,0.9128709291752769Z" stroke="black" stroke-width="2" opacity="1"></path></g><g class="mark-text role-mark layer_5_layer_0_marks" role="graphics-object" aria-roledescription="text mark container"><text text-anchor="middle" transform="translate(33.33333333333333,138.33333333333334)" font-family="sans-serif" font-size="11px" fill="black">Target Length</text></g><g class="mark-group role-title"><g transform="translate(100,-46)"><path class="background" aria-hidden="true" d="M0,0h0v0h0Z" pointer-events="none"></path><g><g class="mark-text role-title-text" role="graphics-symbol" aria-roledescription="title" aria-label="Title text 'Low/High Salience Classification Accuracy'" pointer-events="none"><text text-anchor="middle" transform="translate(0,10)" font-family="sans-serif" font-size="13px" font-weight="bold" fill="#000" opacity="1">Low/High Salience Classification Accuracy</text></g></g><path class="foreground" aria-hidden="true" d="" pointer-events="none" display="none"></path></g></g></g><path class="foreground" aria-hidden="true" d="" display="none"></path></g></g></g></svg>
