<?xml version="1.0" encoding="utf-8"?>
<!DOCTYPE svg PUBLIC "-//W3C//DTD SVG 1.1//EN" "http://www.w3.org/Graphics/SVG/1.1/DTD/svg11.dtd">
<svg class="marks" width="318" height="288" viewBox="0 0 318 288" version="1.1" xmlns="http://www.w3.org/2000/svg" xmlns:xlink="http://www.w3.org/1999/xlink"><rect width="318" height="288" fill="white"></rect><g fill="none" stroke-miterlimit="10" transform="translate(59,51)"><g class="mark-group role-frame root" role="graphics-object" aria-roledescription="group mark container"><g transform="translate(0,0)"><path class="background" aria-hidden="true" d="M0.5,0.5h200v200h-200Z" stroke="#ddd"></path><g><g class="mark-group role-axis" aria-hidden="true"><g transform="translate(0.5,200.5)"><path class="background" aria-hidden="true" d="M0,0h0v0h0Z" pointer-events="none"></path><g><g class="mark-rule role-axis-grid" pointer-events="none"><line transform="translate(0,-200)" x2="0" y2="200" stroke="#ddd" stroke-width="1" opacity="1"></line><line transform="translate(33,-200)" x2="0" y2="200" stroke="#ddd" stroke-width="1" opacity="1"></line><line transform="translate(67,-200)" x2="0" y2="200" stroke="#ddd" stroke-width="1" opacity="1"></line><line transform="translate(100,-200)" x2="0" y2="200" stroke="#ddd" stroke-width="1" opacity="1"></line><line transform="translate(133,-200)" x2="0" y2="200" stroke="#ddd" stroke-width="1" opacity="1"></line><line transform="translate(167,-200)" x2="0" y2="200" stroke="#ddd" stroke-width="1" opacity="1"></line><line transform="translate(200,-200)" x2="0" y2="200" stroke="#ddd" stroke-width="1" opacity="1"></line></g></g><path class="foreground" aria-hidden="true" d="" pointer-events="none" display="none"></path></g></g><g class="mark-group role-axis" aria-hidden="true"><g transform="translate(0.5,0.5)"><path class="background" aria-hidden="true" d="M0,0h0v0h0Z" pointer-events="none"></path><g><g class="mark-rule role-axis-grid" pointer-events="none"><line transform="translate(0,173)" x2="200" y2="0" stroke="#ddd" stroke-width="1" opacity="1"></line><line transform="translate(0,127)" x2="200" y2="0" stroke="#ddd" stroke-width="1" opacity="1"></line><line transform="translate(0,82)" x2="200" y2="0" stroke="#ddd" stroke-width="1" opacity="1"></line><line transform="translate(0,36)" x2="200" y2="0" stroke="#ddd" stroke-width="1" opacity="1"></line></g></g><path class="foreground" aria-hidden="true" d="" pointer-events="none" display="none"></path></g></g><g class="mark-group role-axis" role="graphics-symbol" aria-roledescription="axis" aria-label="X-axis titled 'Time (s) Relative to Target Onset' for a linear scale with values from 0.0 to 3.0"><g transform="translate(0.5,200.5)"><path class="background" aria-hidden="true" d="M0,0h0v0h0Z" pointer-events="none"></path><g><g class="mark-rule role-axis-tick" pointer-events="none"><line transform="translate(0,0)" x2="0" y2="5" stroke="#888" stroke-width="1" opacity="1"></line><line transform="translate(33,0)" x2="0" y2="5" stroke="#888" stroke-width="1" opacity="1"></line><line transform="translate(67,0)" x2="0" y2="5" stroke="#888" stroke-width="1" opacity="1"></line><line transform="translate(100,0)" x2="0" y2="5" stroke="#888" stroke-width="1" opacity="1"></line><line transform="translate(133,0)" x2="0" y2="5" stroke="#888" stroke-width="1" opacity="1"></line><line transform="translate(167,0)" x2="0" y2="5" stroke="#888" stroke-width="1" opacity="1"></line><line transform="translate(200,0)" x2="0" y2="5" stroke="#888" stroke-width="1" opacity="1"></line></g><g class="mark-text role-axis-label" pointer-events="none"><text text-anchor="start" transform="translate(0,15)" font-family="sans-serif" font-size="10px" fill="#000" opacity="1">0.0</text><text text-anchor="middle" transform="translate(33.33333333333333,15)" font-family="sans-serif" font-size="10px" fill="#000" opacity="1">0.5</text><text text-anchor="middle" transform="translate(66.66666666666666,15)" font-family="sans-serif" font-size="10px" fill="#000" opacity="1">1.0</text><text text-anchor="middle" transform="translate(100,15)" font-family="sans-serif" font-size="10px" fill="#000" opacity="1">1.5</text><text text-anchor="middle" transform="translate(133.33333333333331,15)" font-family="sans-serif" font-size="10px" fill="#000" opacity="1">2.0</text><text text-anchor="middle" transform="translate(166.66666666666669,15)" font-family="sans-serif" font-size="10px" fill="#000" opacity="1">2.5</text><text text-anchor="end" transform="translate(200,15)" font-family="sans-serif" font-size="10px" fill="#000" opacity="1">3.0</text></g><g class="mark-rule role-axis-domain" pointer-events="none"><line transform="translate(0,0)" x2="200" y2="0" stroke="#888" stroke-width="1" opacity="1"></line></g><g class="mark-text role-axis-title" pointer-events="none"><text text-anchor="middle" transform="translate(100,30)" font-family="sans-serif" font-size="11px" font-weight="bold" fill="#000" opacity="1">Time (s) Relative to Target Onset</text></g></g><path class="foreground" aria-hidden="true" d="" pointer-events="none" display="none"></path></g></g><g class="mark-group role-axis" role="graphics-symbol" aria-roledescription="axis" aria-label="Y-axis titled 'Model - Null Model Accuracy (logit scale)' for a linear scale with values from -0.8 to 1.4"><g transform="translate(0.5,0.5)"><path class="background" aria-hidden="true" d="M0,0h0v0h0Z" pointer-events="none"></path><g><g class="mark-rule role-axis-tick" pointer-events="none"><line transform="translate(0,173)" x2="-5" y2="0" stroke="#888" stroke-width="1" opacity="1"></line><line transform="translate(0,127)" x2="-5" y2="0" stroke="#888" stroke-width="1" opacity="1"></line><line transform="translate(0,82)" x2="-5" y2="0" stroke="#888" stroke-width="1" opacity="1"></line><line transform="translate(0,36)" x2="-5" y2="0" stroke="#888" stroke-width="1" opacity="1"></line></g><g class="mark-text role-axis-label" pointer-events="none"><text text-anchor="end" transform="translate(-7,175.72727272727272)" font-family="sans-serif" font-size="10px" fill="#000" opacity="1">-0.5</text><text text-anchor="end" transform="translate(-7,130.27272727272725)" font-family="sans-serif" font-size="10px" fill="#000" opacity="1">0.0</text><text text-anchor="end" transform="translate(-7,84.81818181818184)" font-family="sans-serif" font-size="10px" fill="#000" opacity="1">0.5</text><text text-anchor="end" transform="translate(-7,39.363636363636374)" font-family="sans-serif" font-size="10px" fill="#000" opacity="1">1.0</text></g><g class="mark-rule role-axis-domain" pointer-events="none"><line transform="translate(0,200)" x2="0" y2="-200" stroke="#888" stroke-width="1" opacity="1"></line></g><g class="mark-text role-axis-title" pointer-events="none"><text text-anchor="middle" transform="translate(-30,100) rotate(-90) translate(0,-2)" font-family="sans-serif" font-size="11px" font-weight="bold" fill="#000" opacity="1">Model - Null Model Accuracy (logit scale)</text></g></g><path class="foreground" aria-hidden="true" d="" pointer-events="none" display="none"></path></g></g><g class="mark-group role-scope layer_0_layer_0_pathgroup" role="graphics-object" aria-roledescription="group mark container"><g transform="translate(0,0)"><path class="background" aria-hidden="true" d="M0,0h200v200h-200Z"></path><g><g class="mark-line role-mark layer_0_layer_0_marks" role="graphics-object" aria-roledescription="line mark container"><path aria-label="condition: global; Time (s) Relative to Target Onset: 0; Model - Null Model Accuracy (logit scale): -0.000859405466116" role="graphics-symbol" aria-roledescription="line mark" d="M0,127.35085504237422L3.1746031746031744,127.27272727272727L6.349206349206349,127.27272727272727L9.523809523809524,127.27272727272727L12.698412698412698,127.27272727272727L15.873015873015872,127.27272727272727L19.047619047619047,127.27272727272727L22.22222222222222,127.27272727272727L25.396825396825395,126.33312301073154L28.57142857142857,125.53121608689115L31.746031746031743,124.38138838780999L34.920634920634924,125.98273843270862L38.095238095238095,124.44303934435483L41.26984126984127,126.67896614536546L44.44444444444444,127.65931319994452L47.61904761904762,127.71317143217394L50.79365079365079,131.290379702658L53.96825396825397,133.51485182393915L57.14285714285714,132.2154388575524L60.317460317460316,130.3259287325036L63.49206349206349,133.43282335750334L66.66666666666666,132.92945507636335L69.84126984126985,132.19134996501407L73.01587301587303,136.6531237773283L76.19047619047619,137.34840807402531L79.36507936507937,139.55159115062705L82.53968253968254,142.86496758965913L85.71428571428572,139.8746687635968L88.88888888888889,143.95977900004087L92.06349206349206,148.0453367106602L95.23809523809524,147.5813641580569L98.41269841269842,147.5665755204758L101.58730158730158,140.9225364681976L104.76190476190477,146.90046884638798L107.93650793650794,147.7143541138219L111.11111111111111,147.28904478496148L114.28571428571428,137.6816222522888L117.46031746031747,137.5688523098741L120.63492063492063,142.9055862107701L123.80952380952381,139.50769889273954L126.98412698412697,133.67829290836337L130.15873015873015,133.92906444260325L133.33333333333331,130.77591325036204L136.50793650793648,101.82074023102766L139.6825396825397,83.34088965349586L142.85714285714286,77.07705830044003L146.03174603174605,76.38204372249406L149.20634920634922,131.39123960558234L152.38095238095238,135.32797495592195L155.55555555555557,149.93592491297989L158.73015873015873,132.99163884925483L161.9047619047619,160.53043340572918L165.0793650793651,145.77558646784686L168.25396825396825,177.41630252618754L171.42857142857144,168.02784077327885L174.6031746031746,164.72929352763884L177.77777777777777,119.6674290912561L180.95238095238096,145.4513722893146L184.12698412698413,152.13221656646687L187.3015873015873,131.68738176581803L190.47619047619048,136.48755274353277L193.65079365079364,127.27272727272727L196.82539682539684,127.27272727272727L200,127.27272727272727" stroke="#4c78a8" stroke-width="2"></path></g></g><path class="foreground" aria-hidden="true" d="" display="none"></path></g><g transform="translate(0,0)"><path class="background" aria-hidden="true" d="M0,0h200v200h-200Z"></path><g><g class="mark-line role-mark layer_0_layer_0_marks" role="graphics-object" aria-roledescription="line mark container"><path aria-label="condition: object; Time (s) Relative to Target Onset: 0; Model - Null Model Accuracy (logit scale): 0.00628156274514" role="graphics-symbol" aria-roledescription="line mark" d="M0,126.7016761140785L3.1746031746031744,125.57057292261278L6.349206349206349,125.67514160496418L9.523809523809524,124.98822095442725L12.698412698412698,125.7238503526091L15.873015873015872,126.04441573984113L19.047619047619047,125.9370762587809L22.22222222222222,127.31649156855656L25.396825396825395,126.48372338919387L28.57142857142857,127.2428210376117L31.746031746031743,127.16874602548872L34.920634920634924,126.56442937576726L38.095238095238095,126.5824054735162L41.26984126984127,127.05094782752109L44.44444444444444,127.27272727272727L47.61904761904762,127.11244590610815L50.79365079365079,126.5815735106357L53.96825396825397,126.95205736733102L57.14285714285714,127.31256928229693L60.317460317460316,110.55408712175468L63.49206349206349,115.11337962245909L66.66666666666666,126.86661963837138L69.84126984126985,126.30170325739725L73.01587301587303,115.68697037719492L76.19047619047619,126.75852035338599L79.36507936507937,115.93048445116972L82.53968253968254,126.23148083154786L85.71428571428572,127.7797160594238L88.88888888888889,127.11236221016433L92.06349206349206,126.92054814917589L95.23809523809524,126.57722224289924L98.41269841269842,127.27272727272727L101.58730158730158,126.666858178758L104.76190476190477,127.14796127224032L107.93650793650794,127.52842135525286L111.11111111111111,127.41149847842385L114.28571428571428,126.38133918748488L117.46031746031747,125.8362195416967L120.63492063492063,127.59679241145854L123.80952380952381,126.51873477594063L126.98412698412697,126.4045788858568L130.15873015873015,124.17997488169053L133.33333333333331,123.60139999675481L136.50793650793648,124.15203464130326L139.6825396825397,118.5683606658389L142.85714285714286,104.22478816620917L146.03174603174605,104.96864474714629L149.20634920634922,118.96944669486736L152.38095238095238,115.16485671332295L155.55555555555557,112.04476765087973L158.73015873015873,118.8941252373374L161.9047619047619,115.10095954461241L165.0793650793651,115.15721718347731L168.25396825396825,123.59495710054853L171.42857142857144,127.80902926552669L174.6031746031746,138.3179971073283L177.77777777777777,125.7030252896614L180.95238095238096,124.92688493814472L184.12698412698413,126.67300506650245L187.3015873015873,136.21364732044205L190.47619047619048,141.51185929697658L193.65079365079364,127.27272727272727L196.82539682539684,134.33158816533742L200,127.27272727272727" stroke="#f58518" stroke-width="2"></path></g></g><path class="foreground" aria-hidden="true" d="" display="none"></path></g><g transform="translate(0,0)"><path class="background" aria-hidden="true" d="M0,0h200v200h-200Z"></path><g><g class="mark-line role-mark layer_0_layer_0_marks" role="graphics-object" aria-roledescription="line mark container"><path aria-label="condition: spatial; Time (s) Relative to Target Onset: 0; Model - Null Model Accuracy (logit scale): 0.116996528521" role="graphics-symbol" aria-roledescription="line mark" d="M0,116.63667922539622L3.1746031746031744,111.71786240804539L6.349206349206349,104.52883081526399L9.523809523809524,103.66666715856532L12.698412698412698,99.87709229372734L15.873015873015872,108.77547380877223L19.047619047619047,107.5637028923105L22.22222222222222,112.2371297041695L25.396825396825395,116.43158112299625L28.57142857142857,115.12031110795613L31.746031746031743,110.16769947775984L34.920634920634924,100.10619613449406L38.095238095238095,91.03655190457978L41.26984126984127,92.61774569270527L44.44444444444444,92.8662918766433L47.61904761904762,91.8842095157132L50.79365079365079,77.27152489464282L53.96825396825397,94.00760382336347L57.14285714285714,94.89071507003779L60.317460317460316,94.13618234635197L63.49206349206349,89.2291114708937L66.66666666666666,98.43427637859064L69.84126984126985,88.55073664047507L73.01587301587303,97.45382932824558L76.19047619047619,100.06614550925006L79.36507936507937,107.45561595532145L82.53968253968254,108.47439182567848L85.71428571428572,112.48302188272518L88.88888888888889,105.48030518889107L92.06349206349206,111.34096354029302L95.23809523809524,102.9616152781598L98.41269841269842,103.72231936777735L101.58730158730158,109.12950925807847L104.76190476190477,110.40576420833408L107.93650793650794,101.82595601400801L111.11111111111111,107.6051215384704L114.28571428571428,100.54695132157794L117.46031746031747,102.7198685634031L120.63492063492063,103.65641632359753L123.80952380952381,104.36119156907264L126.98412698412697,111.9602221954304L130.15873015873015,112.74720003503207L133.33333333333331,111.14398036396729L136.50793650793648,110.79830225729211L139.6825396825397,107.91992844259272L142.85714285714286,111.50559897657612L146.03174603174605,112.93415470954986L149.20634920634922,148.64791880993832L152.38095238095238,135.94815825587295L155.55555555555557,147.11515429894385L158.73015873015873,143.7306540260546L161.9047619047619,122.21139230027003L165.0793650793651,119.34667146638982L168.25396825396825,163.02584999248458L171.42857142857144,163.04585714340016L174.6031746031746,154.61710776626535L177.77777777777777,127.38106612908791L180.95238095238096,126.83366489757732L184.12698412698413,85.81356632056153L187.3015873015873,82.83123060224578L190.47619047619048,51.147841471316234L193.65079365079364,127.54251197494044L196.82539682539684,56.95337880847291L200,127.27272727272727" stroke="#e45756" stroke-width="2"></path></g></g><path class="foreground" aria-hidden="true" d="" display="none"></path></g></g><g class="mark-group role-scope layer_0_layer_1_layer_0_pathgroup" role="graphics-object" aria-roledescription="group mark container"><g transform="translate(0,0)"><path class="background" aria-hidden="true" d="M0,0h200v200h-200Z"></path><g><g class="mark-area role-mark layer_0_layer_1_layer_0_marks" role="graphics-object" aria-roledescription="area mark container"><path aria-label="Model - Null Model Accuracy (logit scale): -0.00171881093223; upper_hitvmiss: 2.16840434497e-19; condition: global; Time (s) Relative to Target Onset: 0; Mean of hitvmiss: -0.000859405466116; Mean + stderr of hitvmiss: 2.16840434497e-19; Mean - stderr of hitvmiss: -0.00171881093223" role="graphics-symbol" aria-roledescription="errorband" d="M0,127.42898281202115L3.1746031746031744,127.27272727272727L6.349206349206349,127.27272727272727L9.523809523809524,127.27272727272727L12.698412698412698,127.27272727272727L15.873015873015872,127.27272727272727L19.047619047619047,127.27272727272727L22.22222222222222,127.27272727272727L25.396825396825395,127.06649437952144L28.57142857142857,127.11736302976493L31.746031746031743,126.91027068501116L34.920634920634924,127.47800185577162L38.095238095238095,126.29373105529807L41.26984126984127,127.53520992229426L44.44444444444444,128.91557744992338L47.61904761904762,128.76652748550538L50.79365079365079,133.1392302039821L53.96825396825397,135.42846595348672L57.14285714285714,134.24817950454658L60.317460317460316,132.1429753115693L63.49206349206349,136.39671867244547L66.66666666666666,137.17383112003873L69.84126984126985,136.6417906658284L73.01587301587303,142.5371762433173L76.19047619047619,145.0839469776838L79.36507936507937,149.3993989320841L82.53968253968254,153.92875252913322L85.71428571428572,150.5728276077515L88.88888888888889,156.30959525035252L92.06349206349206,161.30202405986205L95.23809523809524,161.45687325316604L98.41269841269842,162.0609262759346L101.58730158730158,157.07296838617648L104.76190476190477,164.45664803648756L107.93650793650794,165.98225678326838L111.11111111111111,164.58923849013877L114.28571428571428,154.12258723087325L117.46031746031747,153.02336122197457L120.63492063492063,158.50366077782172L123.80952380952381,154.35578500793847L126.98412698412697,148.6204093464677L130.15873015873015,149.82661508009076L133.33333333333331,146.51674532148914L136.50793650793648,115.8997212048843L139.6825396825397,94.58333844924532L142.85714285714286,86.68038607994015L146.03174603174605,86.72920138474237L149.20634920634922,149.73463160297845L152.38095238095238,155.8515969141153L155.55555555555557,173.03928960477208L158.73015873015873,156.7627782726825L161.9047619047619,186.77376105052346L165.0793650793651,166.78816495558868L168.25396825396825,199.1944706739472L171.42857142857144,188.52456466593455L174.6031746031746,186.93464908170768L177.77777777777777,130.5576573020824L180.95238095238096,152.04223392628623L184.12698412698413,160.24462702471962L187.3015873015873,136.1668912277415L190.47619047619048,141.62351693422627L193.65079365079364,127.27272727272727L196.82539682539684,127.27272727272727L200,127.27272727272727L200,127.27272727272727L196.82539682539684,127.27272727272727L193.65079365079364,127.27272727272727L190.47619047619048,131.35158855283925L187.3015873015873,127.20787230389459L184.12698412698413,144.0198061082141L180.95238095238096,138.86051065234298L177.77777777777777,108.77720088042979L174.6031746031746,142.52393797357004L171.42857142857144,147.53111688062316L168.25396825396825,155.63813437842788L165.0793650793651,124.76300798010502L161.9047619047619,134.28710576093494L158.73015873015873,109.22049942582713L155.55555555555557,126.83256022118768L152.38095238095238,114.8043529977286L149.20634920634922,113.04784760818627L146.03174603174605,66.03488606024574L142.85714285714286,67.4737305209399L139.6825396825397,72.09844085774644L136.50793650793648,87.74175925717103L133.33333333333331,115.03508117923494L130.15873015873015,118.03151380511574L126.98412698412697,118.73617647025902L123.80952380952381,124.6596127775406L120.63492063492063,127.3075116437185L117.46031746031747,122.11434339777365L114.28571428571428,121.24065727370433L111.11111111111111,129.98885107978418L107.93650793650794,129.44645144437538L104.76190476190477,129.34428965628834L101.58730158730158,124.77210455021867L98.41269841269842,133.07222476501698L95.23809523809524,133.7058550629478L92.06349206349206,134.78864936145834L88.88888888888889,131.60996274972922L85.71428571428572,129.1765099194421L82.53968253968254,131.80118265018504L79.36507936507937,129.70378336917005L76.19047619047619,129.61286917036682L73.01587301587303,130.76907131133933L69.84126984126985,127.74090926419976L66.66666666666666,128.685079032688L63.49206349206349,130.46892804256123L60.317460317460316,128.5088821534379L57.14285714285714,130.18269821055821L53.96825396825397,131.6012376943916L50.79365079365079,129.44152920133388L47.61904761904762,126.65981537884252L44.44444444444444,126.40304894996568L41.26984126984127,125.82272236843667L38.095238095238095,122.5923476334116L34.920634920634924,124.48747500964564L31.746031746031743,121.8525060906088L28.57142857142857,123.94506914401735L25.396825396825395,125.59975164194161L22.22222222222222,127.27272727272727L19.047619047619047,127.27272727272727L15.873015873015872,127.27272727272727L12.698412698412698,127.27272727272727L9.523809523809524,127.27272727272727L6.349206349206349,127.27272727272727L3.1746031746031744,127.27272727272727L0,127.27272727272727Z" fill="#4c78a8" opacity="0.3"></path></g></g><path class="foreground" aria-hidden="true" d="" display="none"></path></g><g transform="translate(0,0)"><path class="background" aria-hidden="true" d="M0,0h200v200h-200Z"></path><g><g class="mark-area role-mark layer_0_layer_1_layer_0_marks" role="graphics-object" aria-roledescription="area mark container"><path aria-label="Model - Null Model Accuracy (logit scale): -8.67361737988e-19; upper_hitvmiss: 0.0125631254903; condition: object; Time (s) Relative to Target Onset: 0; Mean of hitvmiss: 0.00628156274514; Mean + stderr of hitvmiss: 0.0125631254903; Mean - stderr of hitvmiss: -8.67361737988e-19" role="graphics-symbol" aria-roledescription="errorband" d="M0,127.27272727272727L3.1746031746031744,127.82265037858798L6.349206349206349,127.82514207403229L9.523809523809524,127.27272727272727L12.698412698412698,127.27272727272727L15.873015873015872,127.27272727272727L19.047619047619047,127.27272727272727L22.22222222222222,127.45790711965795L25.396825396825395,126.94379662582733L28.57142857142857,127.43528766769434L31.746031746031743,127.3746327970164L34.920634920634924,126.90205567732109L38.095238095238095,127.08725136087455L41.26984126984127,127.27272727272727L44.44444444444444,127.27272727272727L47.61904761904762,127.22367573078182L50.79365079365079,127.0531533967072L53.96825396825397,127.24131144140934L57.14285714285714,128.07679200904485L60.317460317460316,126.47358739372771L63.49206349206349,126.25158876743731L66.66666666666666,127.13854146902075L69.84126984126985,127.07440702381993L73.01587301587303,126.84393826076641L76.19047619047619,127.27272727272727L79.36507936507937,127.09383729918767L82.53968253968254,126.98897356776327L85.71428571428572,128.54964955673574L88.88888888888889,127.22364470907053L92.06349206349206,127.43409009451045L95.23809523809524,126.99117676434051L98.41269841269842,127.27272727272727L101.58730158730158,127.1896226578993L104.76190476190477,127.36073496091831L107.93650793650794,127.86922531596741L111.11111111111111,127.71947658188418L114.28571428571428,127.07172649769606L117.46031746031747,127.28719730553664L120.63492063492063,129.28274663078992L123.80952380952381,128.38298312944488L126.98412698412697,129.04731355372613L130.15873015873015,127.63949519151743L133.33333333333331,125.44785337851417L136.50793650793648,126.50530902906578L139.6825396825397,122.1872638752117L142.85714285714286,115.73170611632958L146.03174603174605,118.13149998788965L149.20634920634922,140.31687149426614L152.38095238095238,135.20185248798282L155.55555555555557,131.42257525646846L158.73015873015873,137.0433422362024L161.9047619047619,136.93050098078956L165.0793650793651,138.16447462764575L168.25396825396825,147.90091385656322L171.42857142857144,151.0685840322947L174.6031746031746,161.11088017772585L177.77777777777777,138.53499445775665L180.95238095238096,137.7949838697503L184.12698412698413,139.19532323900876L187.3015873015873,140.52464692204384L190.47619047619048,146.92036687851785L193.65079365079364,127.27272727272727L196.82539682539684,141.6830759725191L200,127.27272727272727L200,127.27272727272727L196.82539682539684,126.9801003581558L193.65079365079364,127.27272727272727L190.47619047619048,136.1033517154353L187.3015873015873,131.90264771884026L184.12698412698413,114.15068689399617L180.95238095238096,112.05878600653918L177.77777777777777,112.87105612156614L174.6031746031746,115.52511403693073L171.42857142857144,104.54947449875868L168.25396825396825,99.2890003445338L165.0793650793651,92.14995973930891L161.9047619047619,93.27141810843528L158.73015873015873,100.74490823847242L155.55555555555557,92.66696004529102L152.38095238095238,95.12786093866306L149.20634920634922,97.62202189546858L146.03174603174605,91.8057895064029L142.85714285714286,92.71787021608876L139.6825396825397,114.94945745646605L136.50793650793648,121.79876025354078L133.33333333333331,121.75494661499546L130.15873015873015,120.72045457186363L126.98412698412697,123.76184421798743L123.80952380952381,124.65448642243638L120.63492063492063,125.91083819212714L117.46031746031747,124.38524177785678L114.28571428571428,125.69095187727375L111.11111111111111,127.10352037496351L107.93650793650794,127.1876173945383L104.76190476190477,126.93518758356235L101.58730158730158,126.14409369961668L98.41269841269842,127.27272727272727L95.23809523809524,126.16326772145798L92.06349206349206,126.40700620384133L88.88888888888889,127.00107971125814L85.71428571428572,127.00978256211184L82.53968253968254,125.47398809533243L79.36507936507937,104.76713160315177L76.19047619047619,126.2443134340447L73.01587301587303,104.53000249362346L69.84126984126985,125.52899949097456L66.66666666666666,126.59469780772201L63.49206349206349,103.97517047748084L60.317460317460316,94.63458684978158L57.14285714285714,126.54834655554903L53.96825396825397,126.66280329325268L50.79365079365079,126.10999362456417L47.61904761904762,127.00121608143449L44.44444444444444,127.27272727272727L41.26984126984127,126.82916838231489L38.095238095238095,126.07755958615785L34.920634920634924,126.22680307421344L31.746031746031743,126.96285925396107L28.57142857142857,127.05035440752907L25.396825396825395,126.02365015256038L22.22222222222222,127.17507601745517L19.047619047619047,124.60142524483453L15.873015873015872,124.81610420695502L12.698412698412698,124.17497343249093L9.523809523809524,122.70371463612726L6.349206349206349,123.52514113589609L3.1746031746031744,123.31849546663753L0,126.13062495542972Z" fill="#f58518" opacity="0.3"></path></g></g><path class="foreground" aria-hidden="true" d="" display="none"></path></g><g transform="translate(0,0)"><path class="background" aria-hidden="true" d="M0,0h200v200h-200Z"></path><g><g class="mark-area role-mark layer_0_layer_1_layer_0_marks" role="graphics-object" aria-roledescription="area mark container"><path aria-label="Model - Null Model Accuracy (logit scale): -0.0505394439411; upper_hitvmiss: 0.284532500982; condition: spatial; Time (s) Relative to Target Onset: 0; Mean of hitvmiss: 0.116996528521; Mean + stderr of hitvmiss: 0.284532500982; Mean - stderr of hitvmiss: -0.0505394439411" role="graphics-symbol" aria-roledescription="errorband" d="M0,131.86722217646803L3.1746031746031744,127.89698046105664L6.349206349206349,122.99441498346786L9.523809523809524,123.27338143742979L12.698412698412698,123.20501608486217L15.873015873015872,130.04479878236768L19.047619047619047,130.27991840090237L22.22222222222222,133.74234171486557L25.396825396825395,131.68875515588016L28.57142857142857,129.88084061402068L31.746031746031743,128.49380104281306L34.920634920634924,118.52840966386916L38.095238095238095,114.87658207340759L41.26984126984127,117.04835070870882L44.44444444444444,117.2979255677272L47.61904761904762,120.49978100499898L50.79365079365079,120.05131969854872L53.96825396825397,120.58109943080066L57.14285714285714,115.44357399712624L60.317460317460316,112.84111674445239L63.49206349206349,114.66681198698426L66.66666666666666,116.83336402261166L69.84126984126985,107.51759759284086L73.01587301587303,114.65923978708955L76.19047619047619,116.50073297088788L79.36507936507937,121.65668885713137L82.53968253968254,122.34287563084169L85.71428571428572,122.84889052367458L88.88888888888889,122.70978770560785L92.06349206349206,132.58461302188925L95.23809523809524,125.14466566306342L98.41269841269842,125.59689727020648L101.58730158730158,131.60652973039979L104.76190476190477,131.87469544062867L107.93650793650794,121.88305714112013L111.11111111111111,125.909408020804L114.28571428571428,120.02081325820902L117.46031746031747,122.98362226346909L120.63492063492063,123.43751641134585L123.80952380952381,124.73898789644605L126.98412698412697,125.61670534588825L130.15873015873015,127.94445044247014L133.33333333333331,128.25065406796165L136.50793650793648,125.72224396628258L139.6825396825397,124.81252804853911L142.85714285714286,129.7786607131564L146.03174603174605,131.4605839466064L149.20634920634922,181.1574340248087L152.38095238095238,173.6045419822526L155.55555555555557,183.85345307252555L158.73015873015873,179.21184712464012L161.9047619047619,162.26286886115165L165.0793650793651,161.66604841118638L168.25396825396825,194.38096892079201L171.42857142857144,196.61998663083799L174.6031746031746,184.79655322829674L177.77777777777777,129.14261331539234L180.95238095238096,149.55786863978548L184.12698412698413,112.78581756807064L187.3015873015873,106.5288766487154L190.47619047619048,83.98371736479757L193.65079365079364,127.81229667715364L196.82539682539684,96.80304337709057L200,127.27272727272727L200,127.27272727272727L196.82539682539684,17.103714239855194L193.65079365079364,127.27272727272727L190.47619047619048,18.311965577834883L187.3015873015873,59.133584555776174L184.12698412698413,58.84131507305248L180.95238095238096,104.10946115536916L177.77777777777777,125.61951894278351L174.6031746031746,124.43766230423394L171.42857142857144,129.47172765596227L168.25396825396825,131.67073106417712L165.0793650793651,77.02729452159322L161.9047619047619,82.15991573938844L158.73015873015873,108.24946092746912L155.55555555555557,110.37685552536223L152.38095238095238,98.2917745294933L149.20634920634922,116.13840359506793L146.03174603174605,94.40772547249334L142.85714285714286,93.23253723999585L139.6825396825397,91.02732883664635L136.50793650793648,95.87436054830167L133.33333333333331,94.03730665997294L130.15873015873015,97.549949627594L126.98412698412697,98.30373904497256L123.80952380952381,83.98339524169928L120.63492063492063,83.87531623584918L117.46031746031747,82.45611486333712L114.28571428571428,81.07308938494691L111.11111111111111,89.30083505613683L107.93650793650794,81.76885488689594L104.76190476190477,88.93683297603945L101.58730158730158,86.65248878575717L98.41269841269842,81.84774146534816L95.23809523809524,80.77856489325615L92.06349206349206,90.09731405869678L88.88888888888889,88.25082267217432L85.71428571428572,102.11715324177581L82.53968253968254,94.6059080205153L79.36507936507937,93.25454305351157L76.19047619047619,83.63155804761222L73.01587301587303,80.24841886940163L69.84126984126985,69.58387568810929L66.66666666666666,80.03518873456963L63.49206349206349,63.79141095480314L60.317460317460316,75.43124794825154L57.14285714285714,74.33785614294935L53.96825396825397,67.43410821592626L50.79365079365079,34.49173009073692L47.61904761904762,63.26863802642737L44.44444444444444,68.43465818555943L41.26984126984127,68.18714067670169L38.095238095238095,67.19652173575201L34.920634920634924,81.683982605119L31.746031746031743,91.84159791270659L28.57142857142857,100.35978160189161L25.396825396825395,101.17440709011234L22.22222222222222,90.73191769347342L19.047619047619047,84.84748738371862L15.873015873015872,87.50614883517684L12.698412698412698,76.54916850259255L9.523809523809524,84.05995287970087L6.349206349206349,86.06324664706008L3.1746031746031744,95.53874435503411L0,101.40613627432442Z" fill="#e45756" opacity="0.3"></path></g></g><path class="foreground" aria-hidden="true" d="" display="none"></path></g></g><g class="mark-text role-mark layer_0_layer_2_marks" role="graphics-object" aria-roledescription="text mark container"><text aria-label="condition: global; Mean of hitvmiss: -0.17453376837" role="graphics-symbol" aria-roledescription="text mark" text-anchor="start" transform="translate(205,146.13943348817594)" font-family="sans-serif" font-size="11px" fill="#4c78a8">global</text><text aria-label="condition: object; Mean of hitvmiss: 0.0224384098633" role="graphics-symbol" aria-roledescription="text mark" text-anchor="start" transform="translate(205,128.23287183061294)" font-family="sans-serif" font-size="11px" fill="#f58518">object</text><text aria-label="condition: spatial; Mean of hitvmiss: 0.0518757490058" role="graphics-symbol" aria-roledescription="text mark" text-anchor="start" transform="translate(205,125.55675009038525)" font-family="sans-serif" font-size="11px" fill="#e45756">spatial</text></g><g class="mark-rule role-mark layer_0_layer_3_layer_0_marks" role="graphics-symbol" aria-roledescription="rule mark container"><line transform="translate(200,127.27272727272727)" x2="-200" y2="0" stroke="black" stroke-width="2" stroke-dasharray="4,4"></line></g><g class="mark-line role-mark layer_0_layer_4_layer_0_marks" role="graphics-object" aria-roledescription="line mark container"><path aria-label="x: 0.05; y: 0.25" role="graphics-symbol" aria-roledescription="line mark" d="M3.3333333333333335,104.54545454545455L63.33333333333333,104.54545454545455" stroke="black" stroke-width="1.5"></path></g><g class="mark-symbol role-mark layer_0_layer_4_layer_1_marks" role="graphics-object" aria-roledescription="symbol mark container"><path aria-label="x: 0.05; y: 0.25; dir: 270" role="graphics-symbol" aria-roledescription="point" transform="translate(3.3333333333333335,104.54545454545455) rotate(270)" d="M0,-1.8257418583505536L-1.5811388300841898,0.9128709291752769L1.5811388300841898,0.9128709291752769Z" stroke="black" stroke-width="2" opacity="1"></path><path aria-label="x: 0.95; y: 0.25; dir: 90" role="graphics-symbol" aria-roledescription="point" transform="translate(63.33333333333333,104.54545454545455) rotate(90)" d="M0,-1.8257418583505536L-1.5811388300841898,0.9128709291752769L1.5811388300841898,0.9128709291752769Z" stroke="black" stroke-width="2" opacity="1"></path></g><g class="mark-text role-mark layer_0_layer_5_layer_0_marks" role="graphics-object" aria-roledescription="text mark container"><text text-anchor="middle" transform="translate(33.33333333333333,99.54545454545455)" font-family="sans-serif" font-size="11px" fill="black">Target Length</text></g><g class="mark-group role-title"><g transform="translate(100,-46)"><path class="background" aria-hidden="true" d="M0,0h0v0h0Z" pointer-events="none"></path><g><g class="mark-text role-title-text" role="graphics-symbol" aria-roledescription="title" aria-label="Title text 'Low/High Salience Classification Accuracy'" pointer-events="none"><text text-anchor="middle" transform="translate(0,10)" font-family="sans-serif" font-size="13px" font-weight="bold" fill="#000" opacity="1">Low/High Salience Classification Accuracy</text></g></g><path class="foreground" aria-hidden="true" d="" pointer-events="none" display="none"></path></g></g></g><path class="foreground" aria-hidden="true" d="" display="none"></path></g></g></g></svg>
