<?xml version="1.0" encoding="utf-8"?>
<!DOCTYPE svg PUBLIC "-//W3C//DTD SVG 1.1//EN" "http://www.w3.org/Graphics/SVG/1.1/DTD/svg11.dtd">
<svg class="marks" width="661" height="298" viewBox="0 0 661 298" version="1.1" xmlns="http://www.w3.org/2000/svg" xmlns:xlink="http://www.w3.org/1999/xlink"><rect width="661" height="298" fill="white"></rect><g fill="none" stroke-miterlimit="10" transform="translate(65,57)"><g class="mark-group role-frame root" role="graphics-object" aria-roledescription="group mark container"><g transform="translate(0,0)"><path class="background" aria-hidden="true" d="M0,0h0v0h0Z"></path><g><g class="mark-group role-row-header row_header" role="graphics-object" aria-roledescription="group mark container"><g transform="translate(-7,0)"><path class="background" aria-hidden="true" d="M0,0h0v200h0Z"></path><g><g class="mark-group role-axis" role="graphics-symbol" aria-roledescription="axis" aria-label="Y-axis titled '% Correct (Null-Model Corrected)' for a linear scale with values from 50 to 100"><g transform="translate(0.5,0.5)"><path class="background" aria-hidden="true" d="M0,0h0v0h0Z" pointer-events="none"></path><g><g class="mark-rule role-axis-tick" pointer-events="none"><line transform="translate(0,200)" x2="-5" y2="0" stroke="#888" stroke-width="1" opacity="1"></line><line transform="translate(0,160)" x2="-5" y2="0" stroke="#888" stroke-width="1" opacity="1"></line><line transform="translate(0,120)" x2="-5" y2="0" stroke="#888" stroke-width="1" opacity="1"></line><line transform="translate(0,80)" x2="-5" y2="0" stroke="#888" stroke-width="1" opacity="1"></line><line transform="translate(0,40)" x2="-5" y2="0" stroke="#888" stroke-width="1" opacity="1"></line><line transform="translate(0,0)" x2="-5" y2="0" stroke="#888" stroke-width="1" opacity="1"></line></g><g class="mark-text role-axis-label" pointer-events="none"><text text-anchor="end" transform="translate(-7,203)" font-family="sans-serif" font-size="10px" fill="#000" opacity="1">50</text><text text-anchor="end" transform="translate(-7,163)" font-family="sans-serif" font-size="10px" fill="#000" opacity="1">60</text><text text-anchor="end" transform="translate(-7,123)" font-family="sans-serif" font-size="10px" fill="#000" opacity="1">70</text><text text-anchor="end" transform="translate(-7,83)" font-family="sans-serif" font-size="10px" fill="#000" opacity="1">80</text><text text-anchor="end" transform="translate(-7,42.99999999999999)" font-family="sans-serif" font-size="10px" fill="#000" opacity="1">90</text><text text-anchor="end" transform="translate(-7,3)" font-family="sans-serif" font-size="10px" fill="#000" opacity="1">100</text></g><g class="mark-rule role-axis-domain" pointer-events="none"><line transform="translate(0,200)" x2="0" y2="-200" stroke="#888" stroke-width="1" opacity="1"></line></g><g class="mark-text role-axis-title" pointer-events="none"><text text-anchor="middle" transform="translate(-42,100) rotate(-90) translate(0,-2)" font-family="sans-serif" font-size="11px" font-weight="bold" fill="#000" opacity="1"><tspan>% Correct</tspan><tspan x="0" dy="13">(Null-Model Corrected)</tspan></text></g></g><path class="foreground" aria-hidden="true" d="" pointer-events="none" display="none"></path></g></g></g><path class="foreground" aria-hidden="true" d="" display="none"></path></g></g><g class="mark-group role-column-header column_header" role="graphics-object" aria-roledescription="group mark container"><g transform="translate(0,-1)"><path class="background" aria-hidden="true" d="M0,0h200v0h-200Z"></path><g><g class="mark-group role-title"><g transform="translate(100,-20)"><path class="background" aria-hidden="true" d="M0,0h0v0h0Z" pointer-events="none"></path><g><g class="mark-text role-title-text" role="graphics-symbol" aria-roledescription="title" aria-label="Title text 'hit'" pointer-events="none"><text text-anchor="middle" transform="translate(0,8)" font-family="sans-serif" font-size="10px" fill="#000" opacity="1">hit</text></g></g><path class="foreground" aria-hidden="true" d="" pointer-events="none" display="none"></path></g></g></g><path class="foreground" aria-hidden="true" d="" display="none"></path></g><g transform="translate(309,-1)"><path class="background" aria-hidden="true" d="M0,0h200v0h-200Z"></path><g><g class="mark-group role-title"><g transform="translate(100,-20)"><path class="background" aria-hidden="true" d="M0,0h0v0h0Z" pointer-events="none"></path><g><g class="mark-text role-title-text" role="graphics-symbol" aria-roledescription="title" aria-label="Title text 'miss'" pointer-events="none"><text text-anchor="middle" transform="translate(0,8)" font-family="sans-serif" font-size="10px" fill="#000" opacity="1">miss</text></g></g><path class="foreground" aria-hidden="true" d="" pointer-events="none" display="none"></path></g></g></g><path class="foreground" aria-hidden="true" d="" display="none"></path></g></g><g class="mark-group role-column-footer column_footer" role="graphics-object" aria-roledescription="group mark container"><g transform="translate(0,204)"><path class="background" aria-hidden="true" d="M0,0h200v0h-200Z"></path><g><g class="mark-group role-axis" role="graphics-symbol" aria-roledescription="axis" aria-label="X-axis titled 'Time (s) Relative to Target Onset' for a linear scale with values from 0.0 to 3.0"><g transform="translate(0.5,0.5)"><path class="background" aria-hidden="true" d="M0,0h0v0h0Z" pointer-events="none"></path><g><g class="mark-rule role-axis-tick" pointer-events="none"><line transform="translate(0,0)" x2="0" y2="5" stroke="#888" stroke-width="1" opacity="1"></line><line transform="translate(33,0)" x2="0" y2="5" stroke="#888" stroke-width="1" opacity="1"></line><line transform="translate(67,0)" x2="0" y2="5" stroke="#888" stroke-width="1" opacity="1"></line><line transform="translate(100,0)" x2="0" y2="5" stroke="#888" stroke-width="1" opacity="1"></line><line transform="translate(133,0)" x2="0" y2="5" stroke="#888" stroke-width="1" opacity="1"></line><line transform="translate(167,0)" x2="0" y2="5" stroke="#888" stroke-width="1" opacity="1"></line><line transform="translate(200,0)" x2="0" y2="5" stroke="#888" stroke-width="1" opacity="1"></line></g><g class="mark-text role-axis-label" pointer-events="none"><text text-anchor="start" transform="translate(0,15)" font-family="sans-serif" font-size="10px" fill="#000" opacity="1">0.0</text><text text-anchor="middle" transform="translate(33.33333333333333,15)" font-family="sans-serif" font-size="10px" fill="#000" opacity="1">0.5</text><text text-anchor="middle" transform="translate(66.66666666666666,15)" font-family="sans-serif" font-size="10px" fill="#000" opacity="1">1.0</text><text text-anchor="middle" transform="translate(100,15)" font-family="sans-serif" font-size="10px" fill="#000" opacity="1">1.5</text><text text-anchor="middle" transform="translate(133.33333333333331,15)" font-family="sans-serif" font-size="10px" fill="#000" opacity="1">2.0</text><text text-anchor="middle" transform="translate(166.66666666666669,15)" font-family="sans-serif" font-size="10px" fill="#000" opacity="1">2.5</text><text text-anchor="end" transform="translate(200,15)" font-family="sans-serif" font-size="10px" fill="#000" opacity="1">3.0</text></g><g class="mark-rule role-axis-domain" pointer-events="none"><line transform="translate(0,0)" x2="200" y2="0" stroke="#888" stroke-width="1" opacity="1"></line></g><g class="mark-text role-axis-title" pointer-events="none"><text text-anchor="middle" transform="translate(100,30)" font-family="sans-serif" font-size="11px" font-weight="bold" fill="#000" opacity="1">Time (s) Relative to Target Onset</text></g></g><path class="foreground" aria-hidden="true" d="" pointer-events="none" display="none"></path></g></g></g><path class="foreground" aria-hidden="true" d="" display="none"></path></g><g transform="translate(309,204)"><path class="background" aria-hidden="true" d="M0,0h200v0h-200Z"></path><g><g class="mark-group role-axis" role="graphics-symbol" aria-roledescription="axis" aria-label="X-axis titled 'Time (s) Relative to Target Onset' for a linear scale with values from 0.0 to 3.0"><g transform="translate(0.5,0.5)"><path class="background" aria-hidden="true" d="M0,0h0v0h0Z" pointer-events="none"></path><g><g class="mark-rule role-axis-tick" pointer-events="none"><line transform="translate(0,0)" x2="0" y2="5" stroke="#888" stroke-width="1" opacity="1"></line><line transform="translate(33,0)" x2="0" y2="5" stroke="#888" stroke-width="1" opacity="1"></line><line transform="translate(67,0)" x2="0" y2="5" stroke="#888" stroke-width="1" opacity="1"></line><line transform="translate(100,0)" x2="0" y2="5" stroke="#888" stroke-width="1" opacity="1"></line><line transform="translate(133,0)" x2="0" y2="5" stroke="#888" stroke-width="1" opacity="1"></line><line transform="translate(167,0)" x2="0" y2="5" stroke="#888" stroke-width="1" opacity="1"></line><line transform="translate(200,0)" x2="0" y2="5" stroke="#888" stroke-width="1" opacity="1"></line></g><g class="mark-text role-axis-label" pointer-events="none"><text text-anchor="start" transform="translate(0,15)" font-family="sans-serif" font-size="10px" fill="#000" opacity="1">0.0</text><text text-anchor="middle" transform="translate(33.33333333333333,15)" font-family="sans-serif" font-size="10px" fill="#000" opacity="1">0.5</text><text text-anchor="middle" transform="translate(66.66666666666666,15)" font-family="sans-serif" font-size="10px" fill="#000" opacity="1">1.0</text><text text-anchor="middle" transform="translate(100,15)" font-family="sans-serif" font-size="10px" fill="#000" opacity="1">1.5</text><text text-anchor="middle" transform="translate(133.33333333333331,15)" font-family="sans-serif" font-size="10px" fill="#000" opacity="1">2.0</text><text text-anchor="middle" transform="translate(166.66666666666669,15)" font-family="sans-serif" font-size="10px" fill="#000" opacity="1">2.5</text><text text-anchor="end" transform="translate(200,15)" font-family="sans-serif" font-size="10px" fill="#000" opacity="1">3.0</text></g><g class="mark-rule role-axis-domain" pointer-events="none"><line transform="translate(0,0)" x2="200" y2="0" stroke="#888" stroke-width="1" opacity="1"></line></g><g class="mark-text role-axis-title" pointer-events="none"><text text-anchor="middle" transform="translate(100,30)" font-family="sans-serif" font-size="11px" font-weight="bold" fill="#000" opacity="1">Time (s) Relative to Target Onset</text></g></g><path class="foreground" aria-hidden="true" d="" pointer-events="none" display="none"></path></g></g></g><path class="foreground" aria-hidden="true" d="" display="none"></path></g></g><g class="mark-group role-scope cell" role="graphics-object" aria-roledescription="group mark container"><g transform="translate(0,0)"><path class="background" aria-hidden="true" d="M0.5,0.5h200v200h-200Z" stroke="#ddd"></path><g><g class="mark-group role-axis" aria-hidden="true"><g transform="translate(0.5,200.5)"><path class="background" aria-hidden="true" d="M0,0h0v0h0Z" pointer-events="none"></path><g><g class="mark-rule role-axis-grid" pointer-events="none"><line transform="translate(0,-200)" x2="0" y2="200" stroke="#ddd" stroke-width="1" opacity="1"></line><line transform="translate(33,-200)" x2="0" y2="200" stroke="#ddd" stroke-width="1" opacity="1"></line><line transform="translate(67,-200)" x2="0" y2="200" stroke="#ddd" stroke-width="1" opacity="1"></line><line transform="translate(100,-200)" x2="0" y2="200" stroke="#ddd" stroke-width="1" opacity="1"></line><line transform="translate(133,-200)" x2="0" y2="200" stroke="#ddd" stroke-width="1" opacity="1"></line><line transform="translate(167,-200)" x2="0" y2="200" stroke="#ddd" stroke-width="1" opacity="1"></line><line transform="translate(200,-200)" x2="0" y2="200" stroke="#ddd" stroke-width="1" opacity="1"></line></g></g><path class="foreground" aria-hidden="true" d="" pointer-events="none" display="none"></path></g></g><g class="mark-group role-axis" aria-hidden="true"><g transform="translate(0.5,0.5)"><path class="background" aria-hidden="true" d="M0,0h0v0h0Z" pointer-events="none"></path><g><g class="mark-rule role-axis-grid" pointer-events="none"><line transform="translate(0,200)" x2="200" y2="0" stroke="#ddd" stroke-width="1" opacity="1"></line><line transform="translate(0,160)" x2="200" y2="0" stroke="#ddd" stroke-width="1" opacity="1"></line><line transform="translate(0,120)" x2="200" y2="0" stroke="#ddd" stroke-width="1" opacity="1"></line><line transform="translate(0,80)" x2="200" y2="0" stroke="#ddd" stroke-width="1" opacity="1"></line><line transform="translate(0,40)" x2="200" y2="0" stroke="#ddd" stroke-width="1" opacity="1"></line><line transform="translate(0,0)" x2="200" y2="0" stroke="#ddd" stroke-width="1" opacity="1"></line></g></g><path class="foreground" aria-hidden="true" d="" pointer-events="none" display="none"></path></g></g><g class="mark-group role-scope child_layer_0_pathgroup" role="graphics-object" aria-roledescription="group mark container"><g transform="translate(0,0)"><path class="background" aria-hidden="true" d="M0,0h200v200h-200Z"></path><g><g class="mark-line role-mark child_layer_0_marks" role="graphics-object" aria-roledescription="line mark container"><path aria-label="modeltype_title: High:	1st vs. 4th Quartile; Time (s) Relative to Target Onset: 0; % Correct, (Null-Model Corrected): 58.0068553809" role="graphics-symbol" aria-roledescription="line mark" d="M0,167.97257847651505L3.1746031746031744,167.6050945520386L6.349206349206349,165.57055789062994L9.523809523809524,164.14573727783016L12.698412698412698,162.7111232263897L15.873015873015872,160.12387404250194L19.047619047619047,161.77676597876305L22.22222222222222,159.2119422689006L25.396825396825395,161.880009609295L28.57142857142857,165.52254638414047L31.746031746031743,166.7297298196432L34.920634920634924,165.8510639523181L38.095238095238095,165.48502405439984L41.26984126984127,162.86028090105117L44.44444444444444,158.44925045376624L47.61904761904762,152.4268645481791L50.79365079365079,151.72873845709384L53.96825396825397,151.6128578925814L57.14285714285714,150.0768020403257L60.317460317460316,150.2220379426461L63.49206349206349,151.22179768240883L66.66666666666666,153.2162346020435L69.84126984126985,151.1082976401415L73.01587301587303,150.01358145629598L76.19047619047619,145.72126522384997L79.36507936507937,144.92162265289133L82.53968253968254,143.88029493530956L85.71428571428572,140.5982263120872L88.88888888888889,134.6954831411417L92.06349206349206,131.0983836033147L95.23809523809524,130.02900455702667L98.41269841269842,125.16661379802656L101.58730158730158,123.52776974483027L104.76190476190477,114.20411377124684L107.93650793650794,107.23151666919937L111.11111111111111,99.0035756738274L114.28571428571428,92.71568280447859L117.46031746031747,86.09844646826082L120.63492063492063,74.59144331725088L123.80952380952381,69.6426877871495L126.98412698412697,65.36753712162412L130.15873015873015,57.567701345712116L133.33333333333331,53.938801952427575L136.50793650793648,42.336713848713714L139.6825396825397,41.319052276012826L142.85714285714286,47.913415035112216L146.03174603174605,47.19063959869578L149.20634920634922,56.82406475579904L152.38095238095238,49.85330020892695L155.55555555555557,63.8476243976831L158.73015873015873,56.04715115844863L161.9047619047619,54.310079424231496L165.0793650793651,48.84563026752311L168.25396825396825,45.22529171572802L171.42857142857144,40.37391550393199L174.6031746031746,35.45920857640197L177.77777777777777,35.317700304617006L180.95238095238096,59.88956471895659L184.12698412698413,59.9844502709592L187.3015873015873,158.41496231726873L190.47619047619048,146.68825004327672L193.65079365079364,173.3046097724316L196.82539682539684,173.3046097724316L200,173.3046097724316" stroke="rgb(87, 16, 109)" stroke-width="2"></path></g></g><path class="foreground" aria-hidden="true" d="" display="none"></path></g><g transform="translate(0,0)"><path class="background" aria-hidden="true" d="M0,0h200v200h-200Z"></path><g><g class="mark-line role-mark child_layer_0_marks" role="graphics-object" aria-roledescription="line mark container"><path aria-label="modeltype_title: Medium:	1st vs. 3rd Quartile; Time (s) Relative to Target Onset: 0; % Correct, (Null-Model Corrected): 56.6738475569" role="graphics-symbol" aria-roledescription="line mark" d="M0,173.3046097724316L3.1746031746031744,173.21438119599844L6.349206349206349,173.3046097724316L9.523809523809524,173.24239599571737L12.698412698412698,173.3046097724316L15.873015873015872,173.3046097724316L19.047619047619047,173.3046097724316L22.22222222222222,173.55872416967077L25.396825396825395,173.3046097724316L28.57142857142857,173.3046097724316L31.746031746031743,173.3046097724316L34.920634920634924,173.3046097724316L38.095238095238095,173.48626530694568L41.26984126984127,173.57769758228008L44.44444444444444,173.70299050759127L47.61904761904762,174.012406636611L50.79365079365079,173.71112139671516L53.96825396825397,173.6194068728312L57.14285714285714,172.15828429844873L60.317460317460316,170.63821149635655L63.49206349206349,172.85326755629637L66.66666666666666,171.9062912746474L69.84126984126985,169.99368612011077L73.01587301587303,166.73188467894275L76.19047619047619,164.36902033818598L79.36507936507937,161.73199866566733L82.53968253968254,158.5819288672435L85.71428571428572,154.25865472637784L88.88888888888889,155.5326540039245L92.06349206349206,152.89350203081003L95.23809523809524,153.8512372338608L98.41269841269842,147.87458635931804L101.58730158730158,139.6520253832411L104.76190476190477,137.2663145363898L107.93650793650794,138.74219315423096L111.11111111111111,137.3849001678263L114.28571428571428,133.28898092856423L117.46031746031747,133.4905309399852L120.63492063492063,129.38316040335894L123.80952380952381,133.06262761049595L126.98412698412697,129.4599057595987L130.15873015873015,131.3284090712262L133.33333333333331,126.65913099245039L136.50793650793648,119.82650394741108L139.6825396825397,126.2098096952566L142.85714285714286,118.41405836730434L146.03174603174605,116.73166465488794L149.20634920634922,114.84626514822263L152.38095238095238,115.1172092640302L155.55555555555557,115.79309892627805L158.73015873015873,113.74333778222842L161.9047619047619,130.1877022528481L165.0793650793651,127.189252508158L168.25396825396825,173.1779301424418L171.42857142857144,173.14974045132217L174.6031746031746,172.58957066222607L177.77777777777777,171.6250427456539L180.95238095238096,170.1383587202159L184.12698412698413,166.37823319938002L187.3015873015873,166.41810550528933L190.47619047619048,159.94368308814526L193.65079365079364,173.3046097724316L196.82539682539684,173.3046097724316L200,173.3046097724316" stroke="rgb(187, 55, 85)" stroke-width="2"></path></g></g><path class="foreground" aria-hidden="true" d="" display="none"></path></g><g transform="translate(0,0)"><path class="background" aria-hidden="true" d="M0,0h200v200h-200Z"></path><g><g class="mark-line role-mark child_layer_0_marks" role="graphics-object" aria-roledescription="line mark container"><path aria-label="modeltype_title: Low:	1st vs. 2nd Quartile; Time (s) Relative to Target Onset: 0; % Correct, (Null-Model Corrected): 56.6160532552" role="graphics-symbol" aria-roledescription="line mark" d="M0,173.53578697932576L3.1746031746031744,173.87601932515224L6.349206349206349,173.89853958317684L9.523809523809524,173.59469918031405L12.698412698412698,173.22052383124856L15.873015873015872,173.4173586068894L19.047619047619047,173.52682503773065L22.22222222222222,173.4173586068894L25.396825396825395,173.52682503773065L28.57142857142857,173.3046097724316L31.746031746031743,173.41407620327288L34.920634920634924,173.41407620327288L38.095238095238095,173.41407620327288L41.26984126984127,173.3046097724316L44.44444444444444,173.3046097724316L47.61904761904762,173.3046097724316L50.79365079365079,173.3046097724316L53.96825396825397,173.42846677597305L57.14285714285714,173.37610724082887L60.317460317460316,173.4033696396673L63.49206349206349,173.52326486616585L66.66666666666666,173.53369853267554L69.84126984126985,173.74080957202372L73.01587301587303,173.42024985605937L76.19047619047619,173.68079817078265L79.36507936507937,174.7328504462808L82.53968253968254,176.0219100697701L85.71428571428572,176.25712661442708L88.88888888888889,177.40433841501144L92.06349206349206,179.15739178631662L95.23809523809524,180.12575043473205L98.41269841269842,181.44438500917468L101.58730158730158,181.3283475719328L104.76190476190477,182.53146932671237L107.93650793650794,180.91938538841094L111.11111111111111,181.40197269583825L114.28571428571428,180.54136371723934L117.46031746031747,181.9131289463424L120.63492063492063,177.37381416483424L123.80952380952381,174.69017916646916L126.98412698412697,174.3245448290396L130.15873015873015,173.31845499383937L133.33333333333331,172.3821635723076L136.50793650793648,158.3822865203035L139.6825396825397,157.48417900296448L142.85714285714286,156.042090232482L146.03174603174605,152.3881275019152L149.20634920634922,151.8698076955962L152.38095238095238,147.1828504012814L155.55555555555557,142.7811136969467L158.73015873015873,173.59982515534801L161.9047619047619,173.3046097724316L165.0793650793651,173.3046097724316L168.25396825396825,173.3046097724316L171.42857142857144,173.3046097724316L174.6031746031746,173.43674481262266L177.77777777777777,173.3046097724316L180.95238095238096,173.18091552884798L184.12698412698413,173.3046097724316L187.3015873015873,173.0599277002923L190.47619047619048,173.21182084292565L193.65079365079364,173.64240198861145L196.82539682539684,173.3046097724316L200,173.3046097724316" stroke="rgb(250, 141, 11)" stroke-width="2"></path></g></g><path class="foreground" aria-hidden="true" d="" display="none"></path></g></g><g class="mark-group role-scope child_layer_1_layer_0_pathgroup" role="graphics-object" aria-roledescription="group mark container"><g transform="translate(0,0)"><path class="background" aria-hidden="true" d="M0,0h200v200h-200Z"></path><g><g class="mark-area role-mark child_layer_1_layer_0_marks" role="graphics-object" aria-roledescription="area mark container"><path aria-label="% Correct, (Null-Model Corrected): 57.2916501013; upper_logitmeandiff: 58.7220606604; modeltype_title: High:	1st vs. 4th Quartile; Time (s) Relative to Target Onset: 0; Mean of logitmeandiff: 58.0068553809; Mean + stderr of logitmeandiff: 58.7220606604; Mean - stderr of logitmeandiff: 57.2916501013" role="graphics-symbol" aria-roledescription="errorband" d="M0,170.83339959482225L3.1746031746031744,170.50584823288384L6.349206349206349,169.1841930906145L9.523809523809524,168.15997532974728L12.698412698412698,167.09480927111647L15.873015873015872,165.54896539486742L19.047619047619047,166.98482938907628L22.22222222222222,165.59125984448522L25.396825396825395,167.8626113303564L28.57142857142857,172.29449621042463L31.746031746031743,173.7122123814251L34.920634920634924,173.41968721849378L38.095238095238095,174.18466609509403L41.26984126984127,171.321296750015L44.44444444444444,167.49317575032956L47.61904761904762,160.0617234605541L50.79365079365079,159.60657795352847L53.96825396825397,159.28405466221156L57.14285714285714,157.98145951358202L60.317460317460316,158.1541826204196L63.49206349206349,158.58993724079932L66.66666666666666,159.52935187705603L69.84126984126985,157.47350212219277L73.01587301587303,156.4076478521401L76.19047619047619,151.77013637755294L79.36507936507937,151.3213640494344L82.53968253968254,150.10238606505928L85.71428571428572,147.15252494457675L88.88888888888889,141.60828049654287L92.06349206349206,138.4135930538206L95.23809523809524,137.265339105442L98.41269841269842,133.42100846920252L101.58730158730158,131.5739534096304L104.76190476190477,122.04988522228545L107.93650793650794,115.54667893062604L111.11111111111111,107.0687388303395L114.28571428571428,101.12731441911448L117.46031746031747,94.16667826915426L120.63492063492063,82.1556703028947L123.80952380952381,76.81990415549143L126.98412698412697,72.93180306538886L130.15873015873015,64.85647769724818L133.33333333333331,60.42764587332186L136.50793650793648,47.65088881265365L139.6825396825397,46.97066696409211L142.85714285714286,54.03075264972968L146.03174603174605,52.74023354998904L149.20634920634922,63.3436469962789L152.38095238095238,56.70139222031605L155.55555555555557,71.96642451751956L158.73015873015873,63.93277967347461L161.9047619047619,62.00640594495588L165.0793650793651,55.74550556274722L168.25396825396825,51.78828017971859L171.42857142857144,46.59501393551733L174.6031746031746,41.52969824010113L177.77777777777777,41.44101237556339L180.95238095238096,69.10761136974686L184.12698412698413,69.25762146675054L187.3015873015873,165.2559087875874L190.47619047619048,155.90180606864112L193.65079365079364,173.3046097724316L196.82539682539684,173.3046097724316L200,173.3046097724316L200,173.3046097724316L196.82539682539684,173.3046097724316L193.65079365079364,173.3046097724316L190.47619047619048,137.47469401791233L187.3015873015873,151.57401584695006L184.12698412698413,50.71127907516786L180.95238095238096,50.67151806816634L177.77777777777777,29.194388233670622L174.6031746031746,29.388718912702807L171.42857142857144,34.15281707234663L168.25396825396825,38.66230325173745L165.0793650793651,41.94575497229902L161.9047619047619,46.613752903507134L158.73015873015873,48.161522643422636L155.55555555555557,55.72882427784662L152.38095238095238,43.00520819753786L149.20634920634922,50.30448251531921L146.03174603174605,41.6410456474025L142.85714285714286,41.79607742049478L139.6825396825397,35.667437587933534L136.50793650793648,37.02253888477378L133.33333333333331,47.44995803153329L130.15873015873015,50.27892499417605L126.98412698412697,57.803271177859415L123.80952380952381,62.46547141880756L120.63492063492063,67.02721633160706L117.46031746031747,78.03021466736737L114.28571428571428,84.3040511898427L111.11111111111111,90.93841251731534L107.93650793650794,98.91635440777272L104.76190476190477,106.35834232020822L101.58730158730158,115.48158608003014L98.41269841269842,116.91221912685062L95.23809523809524,122.79267000861131L92.06349206349206,123.78317415280877L88.88888888888889,127.78268578574045L85.71428571428572,134.0439276795977L82.53968253968254,137.65820380555988L79.36507936507937,138.52188125634825L76.19047619047619,139.67239407014696L73.01587301587303,143.61951506045187L69.84126984126985,144.74309315809023L66.66666666666666,146.903117327031L63.49206349206349,143.85365812401835L60.317460317460316,142.2898932648726L57.14285714285714,142.17214456706938L53.96825396825397,143.94166112295125L50.79365079365079,143.8508989606592L47.61904761904762,144.79200563580412L44.44444444444444,149.40532515720292L41.26984126984127,154.39926505208734L38.095238095238095,156.78538201370566L34.920634920634924,158.28244068614242L31.746031746031743,159.74724725786132L28.57142857142857,158.7505965578563L25.396825396825395,155.8974078882336L22.22222222222222,152.83262469331598L19.047619047619047,156.56870256844982L15.873015873015872,154.69878269013645L12.698412698412698,158.32743718166293L9.523809523809524,160.13149922591305L6.349206349206349,161.95692269064537L3.1746031746031744,164.70434087119335L0,165.11175735820785Z" fill="rgb(87, 16, 109)" opacity="0.3"></path></g></g><path class="foreground" aria-hidden="true" d="" display="none"></path></g><g transform="translate(0,0)"><path class="background" aria-hidden="true" d="M0,0h200v200h-200Z"></path><g><g class="mark-area role-mark child_layer_1_layer_0_marks" role="graphics-object" aria-roledescription="area mark container"><path aria-label="% Correct, (Null-Model Corrected): 56.6738475569; upper_logitmeandiff: 56.6738475569; modeltype_title: Medium:	1st vs. 3rd Quartile; Time (s) Relative to Target Onset: 0; Mean of logitmeandiff: 56.6738475569; Mean + stderr of logitmeandiff: 56.6738475569; Mean - stderr of logitmeandiff: 56.6738475569" role="graphics-symbol" aria-roledescription="errorband" d="M0,173.3046097724316L3.1746031746031744,173.3046097724316L6.349206349206349,173.3046097724316L9.523809523809524,173.43185891134988L12.698412698412698,173.3046097724316L15.873015873015872,173.3046097724316L19.047619047619047,173.3046097724316L22.22222222222222,173.73567201280983L25.396825396825395,173.3046097724316L28.57142857142857,173.3046097724316L31.746031746031743,173.3046097724316L34.920634920634924,173.3046097724316L38.095238095238095,173.66792084145976L41.26984126984127,173.85078539212853L44.44444444444444,174.18308714101596L47.61904761904762,174.63825499664648L50.79365079365079,174.65635805804982L53.96825396825397,175.03135678479603L57.14285714285714,173.9989077964743L60.317460317460316,172.50228347130155L63.49206349206349,174.42401819329507L66.66666666666666,173.28986722998224L69.84126984126985,171.82896078764315L73.01587301587303,169.42331038315135L76.19047619047619,167.84466780397355L79.36507936507937,165.89807270414533L82.53968253968254,163.1578000656975L85.71428571428572,159.0688140427556L88.88888888888889,160.14866542982855L92.06349206349206,158.03795047645028L95.23809523809524,159.39558685043545L98.41269841269842,153.6532084115209L101.58730158730158,145.67094610380303L104.76190476190477,142.99544913644542L107.93650793650794,144.0367610509122L111.11111111111111,143.29729107533115L114.28571428571428,139.23386117686L117.46031746031747,139.83969106976787L120.63492063492063,135.46965507089357L123.80952380952381,140.04961428846877L126.98412698412697,136.89135775359142L130.15873015873015,138.17079047983628L133.33333333333331,133.9484458985212L136.50793650793648,127.65106067064704L139.6825396825397,133.8952093334031L142.85714285714286,125.793128243156L146.03174603174605,122.97719998828951L149.20634920634922,121.13202528604931L152.38095238095238,121.4393992130184L155.55555555555557,121.57518597638632L158.73015873015873,118.94934257995595L161.9047619047619,135.73756502794174L165.0793650793651,132.5677864531114L168.25396825396825,173.3046097724316L171.42857142857144,173.3046097724316L174.6031746031746,173.11018816775143L177.77777777777777,172.53115058394388L180.95238095238096,171.3013223888742L184.12698412698413,168.3345621027174L187.3015873015873,168.15670072538964L190.47619047619048,162.39753396419675L193.65079365079364,173.3046097724316L196.82539682539684,173.3046097724316L200,173.3046097724316L200,173.3046097724316L196.82539682539684,173.3046097724316L193.65079365079364,173.3046097724316L190.47619047619048,157.48983221209377L187.3015873015873,164.67951028518902L184.12698412698413,164.42190429604264L180.95238095238096,168.9753950515576L177.77777777777777,170.71893490736392L174.6031746031746,172.0689531567007L171.42857142857144,172.99487113021274L168.25396825396825,173.051250512452L165.0793650793651,121.8107185632046L161.9047619047619,124.63783947775448L158.73015873015873,108.53733298450088L155.55555555555557,110.01101187616977L152.38095238095238,108.79501931504194L149.20634920634922,108.56050501039596L146.03174603174605,110.48612932148636L142.85714285714286,111.03498849145268L139.6825396825397,118.52441005711007L136.50793650793648,112.00194722417511L133.33333333333331,119.3698160863796L130.15873015873015,124.4860276626161L126.98412698412697,122.028453765606L123.80952380952381,126.07564093252313L120.63492063492063,123.29666573582432L117.46031746031747,127.14137081020253L114.28571428571428,127.34410068026847L111.11111111111111,131.47250926032143L107.93650793650794,133.44762525754976L104.76190476190477,131.5371799363342L101.58730158730158,133.6331046626791L98.41269841269842,142.0959643071152L95.23809523809524,148.30688761728612L92.06349206349206,147.74905358516978L88.88888888888889,150.91664257802046L85.71428571428572,149.44849541000008L82.53968253968254,154.0060576687895L79.36507936507937,157.56592462718933L76.19047619047619,160.8933728723984L73.01587301587303,164.04045897473415L69.84126984126985,168.15841145257838L66.66666666666666,170.52271531931257L63.49206349206349,171.28251691929768L60.317460317460316,168.77413952141154L57.14285714285714,170.31766080042317L53.96825396825397,172.20745696086638L50.79365079365079,172.7658847353805L47.61904761904762,173.3865582765755L44.44444444444444,173.22289387416657L41.26984126984127,173.30460977243163L38.095238095238095,173.3046097724316L34.920634920634924,173.3046097724316L31.746031746031743,173.3046097724316L28.57142857142857,173.3046097724316L25.396825396825395,173.3046097724316L22.22222222222222,173.3817763265317L19.047619047619047,173.3046097724316L15.873015873015872,173.3046097724316L12.698412698412698,173.3046097724316L9.523809523809524,173.05293308008487L6.349206349206349,173.3046097724316L3.1746031746031744,173.12415261956528L0,173.3046097724316Z" fill="rgb(187, 55, 85)" opacity="0.3"></path></g></g><path class="foreground" aria-hidden="true" d="" display="none"></path></g><g transform="translate(0,0)"><path class="background" aria-hidden="true" d="M0,0h200v200h-200Z"></path><g><g class="mark-area role-mark child_layer_1_layer_0_marks" role="graphics-object" aria-roledescription="area mark container"><path aria-label="% Correct, (Null-Model Corrected): 56.5582589534; upper_logitmeandiff: 56.6738475569; modeltype_title: Low:	1st vs. 2nd Quartile; Time (s) Relative to Target Onset: 0; Mean of logitmeandiff: 56.6160532552; Mean + stderr of logitmeandiff: 56.6738475569; Mean - stderr of logitmeandiff: 56.5582589534" role="graphics-symbol" aria-roledescription="errorband" d="M0,173.76696418621995L3.1746031746031744,174.34610143911914L6.349206349206349,174.39006407998497L9.523809523809524,174.25911506149365L12.698412698412698,173.55495235610408L15.873015873015872,173.53010744134716L19.047619047619047,173.68051942046486L22.22222222222222,173.53010744134716L25.396825396825395,173.68051942046486L28.57142857142857,173.3046097724316L31.746031746031743,173.52354263411414L34.920634920634924,173.52354263411414L38.095238095238095,173.52354263411414L41.26984126984127,173.3046097724316L44.44444444444444,173.3046097724316L47.61904761904762,173.3046097724316L50.79365079365079,173.3046097724316L53.96825396825397,173.55232377951447L57.14285714285714,173.61590910610064L60.317460317460316,173.502129506903L63.49206349206349,173.7419199599001L66.66666666666666,174.11461413512475L69.84126984126985,174.29669349266817L73.01587301587303,173.53588993968714L76.19047619047619,174.19103759513777L79.36507936507937,175.85421601832206L82.53968253968254,177.79264397279584L85.71428571428572,178.1679987010835L88.88888888888889,180.01363565528789L92.06349206349206,182.8427011457043L95.23809523809524,184.21557984646702L98.41269841269842,186.3205260685453L101.58730158730158,186.2788220795969L104.76190476190477,187.72422313645885L107.93650793650794,185.81814477229543L111.11111111111111,186.3983844784321L114.28571428571428,185.91068029725898L117.46031746031747,186.9855039719847L120.63492063492063,182.68077566958456L123.80952380952381,181.2575665858403L126.98412698412697,181.17905962310203L130.15873015873015,179.95786639251668L133.33333333333331,179.4763795898151L136.50793650793648,165.9238170986618L139.6825396825397,164.8919316059963L142.85714285714286,163.42328815283267L146.03174603174605,160.02593463120442L149.20634920634922,158.36786050676375L152.38095238095238,153.56026268248075L155.55555555555557,148.65826302449616L158.73015873015873,173.89504053826442L161.9047619047619,173.3046097724316L165.0793650793651,173.3046097724316L168.25396825396825,173.3046097724316L171.42857142857144,173.3046097724316L174.6031746031746,173.56887985281372L177.77777777777777,173.3046097724316L180.95238095238096,173.3046097724316L184.12698412698413,173.3046097724316L187.3015873015873,173.45647921603947L190.47619047619048,174.78279095726626L193.65079365079364,174.4457055698159L196.82539682539684,173.3046097724316L200,173.3046097724316L200,173.3046097724316L196.82539682539684,173.3046097724316L193.65079365079364,172.839098407407L190.47619047619048,171.64085072858504L187.3015873015873,172.66337618454511L184.12698412698413,173.3046097724316L180.95238095238096,173.05722128526435L177.77777777777777,173.3046097724316L174.6031746031746,173.3046097724316L171.42857142857144,173.3046097724316L168.25396825396825,173.3046097724316L165.0793650793651,173.3046097724316L161.9047619047619,173.3046097724316L158.73015873015873,173.3046097724316L155.55555555555557,136.90396436939722L152.38095238095238,140.80543812008207L149.20634920634922,145.37175488442864L146.03174603174605,144.75032037262596L142.85714285714286,148.6608923121313L139.6825396825397,150.07642639993267L136.50793650793648,150.8407559419452L133.33333333333331,165.2879475548001L130.15873015873015,166.67904359516206L126.98412698412697,167.47003003497719L123.80952380952381,168.12279174709803L120.63492063492063,172.06685266008392L117.46031746031747,176.84075392070008L114.28571428571428,175.1720471372197L111.11111111111111,176.40556091324441L107.93650793650794,176.02062600452646L104.76190476190477,177.3387155169659L101.58730158730158,176.3778730642687L98.41269841269842,176.56824394980407L95.23809523809524,176.0359210229971L92.06349206349206,175.47208242692895L88.88888888888889,174.795041174735L85.71428571428572,174.34625452777067L82.53968253968254,174.25117616674433L79.36507936507937,173.61148487423952L76.19047619047619,173.17055874642753L73.01587301587303,173.3046097724316L69.84126984126985,173.18492565137927L66.66666666666666,172.95278293022633L63.49206349206349,173.3046097724316L60.317460317460316,173.30460977243158L57.14285714285714,173.1363053755571L53.96825396825397,173.30460977243163L50.79365079365079,173.3046097724316L47.61904761904762,173.3046097724316L44.44444444444444,173.3046097724316L41.26984126984127,173.3046097724316L38.095238095238095,173.30460977243163L34.920634920634924,173.30460977243163L31.746031746031743,173.30460977243163L28.57142857142857,173.3046097724316L25.396825396825395,173.37313065499643L22.22222222222222,173.30460977243163L19.047619047619047,173.37313065499643L15.873015873015872,173.30460977243163L12.698412698412698,172.88609530639303L9.523809523809524,172.93028329913446L6.349206349206349,173.40701508636872L3.1746031746031744,173.40593721118535L0,173.30460977243158Z" fill="rgb(250, 141, 11)" opacity="0.3"></path></g></g><path class="foreground" aria-hidden="true" d="" display="none"></path></g></g><g class="mark-text role-mark child_layer_2_marks" role="graphics-object" aria-roledescription="text mark container"><text aria-label="modeltype_title: High:	1st vs. 4th Quartile; Mean of logitmeandiff: 87.1055362885; modeltype_shorttitle: High,1st vs. 4th Q" role="graphics-symbol" aria-roledescription="text mark" text-anchor="start" transform="translate(205,54.577854845877205)" font-family="sans-serif" font-size="11px" fill="rgb(87, 16, 109)"><tspan>High</tspan><tspan x="0" dy="13">1st vs. 4th Q</tspan></text><text aria-label="modeltype_title: Medium:	1st vs. 3rd Quartile; Mean of logitmeandiff: 67.8278806549; modeltype_shorttitle: Medium,1st vs. 3rd Q" role="graphics-symbol" aria-roledescription="text mark" text-anchor="start" transform="translate(205,131.68847738050312)" font-family="sans-serif" font-size="11px" fill="rgb(187, 55, 85)"><tspan>Medium</tspan><tspan x="0" dy="13">1st vs. 3rd Q</tspan></text><text aria-label="modeltype_title: Low:	1st vs. 2nd Quartile; Mean of logitmeandiff: 56.6738475569; modeltype_shorttitle: Low,1st vs. 2nd Q" role="graphics-symbol" aria-roledescription="text mark" text-anchor="start" transform="translate(205,176.3046097724316)" font-family="sans-serif" font-size="11px" fill="rgb(250, 141, 11)"><tspan>Low</tspan><tspan x="0" dy="13">1st vs. 2nd Q</tspan></text></g><g class="mark-rule role-mark child_layer_3_layer_0_marks" role="graphics-symbol" aria-roledescription="rule mark container"><line transform="translate(200,173.3046097724316)" x2="-200" y2="0" stroke="black" stroke-width="2" stroke-dasharray="4,4"></line></g><g class="mark-line role-mark child_layer_4_layer_0_marks" role="graphics-object" aria-roledescription="line mark container"><path aria-label="x: 0.05; y: 70" role="graphics-symbol" aria-roledescription="line mark" d="M3.3333333333333335,120L63.33333333333333,120" stroke="black" stroke-width="1.5"></path></g><g class="mark-symbol role-mark child_layer_4_layer_1_marks" role="graphics-object" aria-roledescription="symbol mark container"><path aria-label="x: 0.05; y: 70; dir: 270" role="graphics-symbol" aria-roledescription="point" transform="translate(3.3333333333333335,120) rotate(270)" d="M0,-1.8257418583505536L-1.5811388300841898,0.9128709291752769L1.5811388300841898,0.9128709291752769Z" stroke="black" stroke-width="2" opacity="1"></path><path aria-label="x: 0.95; y: 70; dir: 90" role="graphics-symbol" aria-roledescription="point" transform="translate(63.33333333333333,120) rotate(90)" d="M0,-1.8257418583505536L-1.5811388300841898,0.9128709291752769L1.5811388300841898,0.9128709291752769Z" stroke="black" stroke-width="2" opacity="1"></path></g><g class="mark-text role-mark child_layer_5_layer_0_marks" role="graphics-object" aria-roledescription="text mark container"><text text-anchor="middle" transform="translate(33.33333333333333,115)" font-family="sans-serif" font-size="11px" fill="black">Target Length</text></g><g class="mark-text role-mark child_layer_6_layer_0_marks" role="graphics-object" aria-roledescription="text mark container"><text text-anchor="middle" transform="translate(133.33333333333331,187.3046097724316)" font-family="sans-serif" font-size="11px" fill="black"><tspan>Mean Accuracy</tspan><tspan x="0" dy="13">of Null Model</tspan></text></g></g><path class="foreground" aria-hidden="true" d="" display="none"></path></g><g transform="translate(309,0)"><path class="background" aria-hidden="true" d="M0.5,0.5h200v200h-200Z" stroke="#ddd"></path><g><g class="mark-group role-axis" aria-hidden="true"><g transform="translate(0.5,200.5)"><path class="background" aria-hidden="true" d="M0,0h0v0h0Z" pointer-events="none"></path><g><g class="mark-rule role-axis-grid" pointer-events="none"><line transform="translate(0,-200)" x2="0" y2="200" stroke="#ddd" stroke-width="1" opacity="1"></line><line transform="translate(33,-200)" x2="0" y2="200" stroke="#ddd" stroke-width="1" opacity="1"></line><line transform="translate(67,-200)" x2="0" y2="200" stroke="#ddd" stroke-width="1" opacity="1"></line><line transform="translate(100,-200)" x2="0" y2="200" stroke="#ddd" stroke-width="1" opacity="1"></line><line transform="translate(133,-200)" x2="0" y2="200" stroke="#ddd" stroke-width="1" opacity="1"></line><line transform="translate(167,-200)" x2="0" y2="200" stroke="#ddd" stroke-width="1" opacity="1"></line><line transform="translate(200,-200)" x2="0" y2="200" stroke="#ddd" stroke-width="1" opacity="1"></line></g></g><path class="foreground" aria-hidden="true" d="" pointer-events="none" display="none"></path></g></g><g class="mark-group role-axis" aria-hidden="true"><g transform="translate(0.5,0.5)"><path class="background" aria-hidden="true" d="M0,0h0v0h0Z" pointer-events="none"></path><g><g class="mark-rule role-axis-grid" pointer-events="none"><line transform="translate(0,200)" x2="200" y2="0" stroke="#ddd" stroke-width="1" opacity="1"></line><line transform="translate(0,160)" x2="200" y2="0" stroke="#ddd" stroke-width="1" opacity="1"></line><line transform="translate(0,120)" x2="200" y2="0" stroke="#ddd" stroke-width="1" opacity="1"></line><line transform="translate(0,80)" x2="200" y2="0" stroke="#ddd" stroke-width="1" opacity="1"></line><line transform="translate(0,40)" x2="200" y2="0" stroke="#ddd" stroke-width="1" opacity="1"></line><line transform="translate(0,0)" x2="200" y2="0" stroke="#ddd" stroke-width="1" opacity="1"></line></g></g><path class="foreground" aria-hidden="true" d="" pointer-events="none" display="none"></path></g></g><g class="mark-group role-scope child_layer_0_pathgroup" role="graphics-object" aria-roledescription="group mark container"><g transform="translate(0,0)"><path class="background" aria-hidden="true" d="M0,0h200v200h-200Z"></path><g><g class="mark-line role-mark child_layer_0_marks" role="graphics-object" aria-roledescription="line mark container"><path aria-label="modeltype_title: High:	1st vs. 4th Quartile; Time (s) Relative to Target Onset: 0; % Correct, (Null-Model Corrected): 58.3084465622" role="graphics-symbol" aria-roledescription="line mark" d="M0,166.76621375125538L3.1746031746031744,173.13318791485366L6.349206349206349,175.75108792229835L9.523809523809524,172.68290408766913L12.698412698412698,160.98549543101288L15.873015873015872,166.4566962568628L19.047619047619047,171.01221855318843L22.22222222222222,171.9878037908394L25.396825396825395,172.48311335676456L28.57142857142857,172.4849891734113L31.746031746031743,169.85172535127992L34.920634920634924,172.86658076826282L38.095238095238095,176.99124109728334L41.26984126984127,174.65438245862228L44.44444444444444,160.90473439749806L47.61904761904762,159.7738700200502L50.79365079365079,161.50632950276022L53.96825396825397,156.17379622474323L57.14285714285714,157.192032243701L60.317460317460316,147.23435947902175L63.49206349206349,147.92558478655044L66.66666666666666,144.5716975406852L69.84126984126985,145.56247881880708L73.01587301587303,149.402976440324L76.19047619047619,162.0215408463731L79.36507936507937,146.30595442473165L82.53968253968254,154.43496265425168L85.71428571428572,149.0164903725526L88.88888888888889,146.5520274939235L92.06349206349206,150.38779841542524L95.23809523809524,145.59184823979757L98.41269841269842,152.7273599030763L101.58730158730158,146.88829395721956L104.76190476190477,135.35974221024145L107.93650793650794,133.59209936350206L111.11111111111111,134.74594393384956L114.28571428571428,132.523132327116L117.46031746031747,122.03007014172802L120.63492063492063,114.57956715108008L123.80952380952381,110.63487321391005L126.98412698412697,106.9112239773665L130.15873015873015,104.77870370038063L133.33333333333331,94.68800603906938L136.50793650793648,87.97065213714808L139.6825396825397,86.4443881650318L142.85714285714286,83.17743737219632L146.03174603174605,80.90825032483207L149.20634920634922,84.23139794131687L152.38095238095238,79.3655135544521L155.55555555555557,95.97496573982329L158.73015873015873,83.19726254275662L161.9047619047619,78.07782477956493L165.0793650793651,76.17433670049871L168.25396825396825,74.10743170890652L171.42857142857144,76.06558064528741L174.6031746031746,71.21903418662924L177.77777777777777,100.11520439809094L180.95238095238096,116.2467021073589L184.12698412698413,109.62833651859421L187.3015873015873,129.90156483816315L190.47619047619048,129.22298502072522L193.65079365079364,176.13006965125982L196.82539682539684,175.73344479554416L200,168.11963862566742" stroke="rgb(87, 16, 109)" stroke-width="2"></path></g></g><path class="foreground" aria-hidden="true" d="" display="none"></path></g><g transform="translate(0,0)"><path class="background" aria-hidden="true" d="M0,0h200v200h-200Z"></path><g><g class="mark-line role-mark child_layer_0_marks" role="graphics-object" aria-roledescription="line mark container"><path aria-label="modeltype_title: Medium:	1st vs. 3rd Quartile; Time (s) Relative to Target Onset: 0; % Correct, (Null-Model Corrected): 55.1284049816" role="graphics-symbol" aria-roledescription="line mark" d="M0,179.48638007349584L3.1746031746031744,176.24112748707108L6.349206349206349,174.18847292628772L9.523809523809524,173.34685537062177L12.698412698412698,174.8079847185913L15.873015873015872,174.94626753978955L19.047619047619047,174.19256423077132L22.22222222222222,172.85772285069717L25.396825396825395,174.7474914102551L28.57142857142857,175.0888057256366L31.746031746031743,174.0087737079207L34.920634920634924,173.46242632611853L38.095238095238095,176.47044276741966L41.26984126984127,168.44338050554583L44.44444444444444,173.89486631277347L47.61904761904762,178.0289784233694L50.79365079365079,167.79465636733903L53.96825396825397,169.44577578499386L57.14285714285714,162.25470679279167L60.317460317460316,170.85500959656036L63.49206349206349,171.38860024133515L66.66666666666666,161.311714949493L69.84126984126985,157.61682394859648L73.01587301587303,157.3969893309474L76.19047619047619,153.5932939452899L79.36507936507937,153.11615774681516L82.53968253968254,153.07419782900607L85.71428571428572,151.8700926883531L88.88888888888889,150.09035500782701L92.06349206349206,149.57542708055112L95.23809523809524,148.11743749375603L98.41269841269842,145.20341967664675L101.58730158730158,138.8297542758565L104.76190476190477,135.93767501834066L107.93650793650794,133.32080890207766L111.11111111111111,135.5369129799173L114.28571428571428,132.9497917466772L117.46031746031747,125.31827987324537L120.63492063492063,117.43318045046732L123.80952380952381,114.58491038665619L126.98412698412697,116.82120352320537L130.15873015873015,107.97548699753467L133.33333333333331,108.70386033421909L136.50793650793648,113.2366282377908L139.6825396825397,153.52371438250634L142.85714285714286,153.9005759781362L146.03174603174605,150.55535643416562L149.20634920634922,153.56843897498192L152.38095238095238,145.35899850026328L155.55555555555557,148.42604783407026L158.73015873015873,151.46257531704856L161.9047619047619,150.40940963849027L165.0793650793651,147.67243183808156L168.25396825396825,157.9521849299454L171.42857142857144,157.14235335123334L174.6031746031746,152.12636508639713L177.77777777777777,157.56072634009158L180.95238095238096,151.3304318903343L184.12698412698413,143.70729281740972L187.3015873015873,140.255401975869L190.47619047619048,149.86302080161371L193.65079365079364,168.57600282054875L196.82539682539684,165.70869895883973L200,173.3046097724316" stroke="rgb(187, 55, 85)" stroke-width="2"></path></g></g><path class="foreground" aria-hidden="true" d="" display="none"></path></g><g transform="translate(0,0)"><path class="background" aria-hidden="true" d="M0,0h200v200h-200Z"></path><g><g class="mark-line role-mark child_layer_0_marks" role="graphics-object" aria-roledescription="line mark container"><path aria-label="modeltype_title: Low:	1st vs. 2nd Quartile; Time (s) Relative to Target Onset: 0; % Correct, (Null-Model Corrected): 53.1726140065" role="graphics-symbol" aria-roledescription="line mark" d="M0,187.30954397419347L3.1746031746031744,187.73280656586962L6.349206349206349,188.42846165026597L9.523809523809524,187.1740569478192L12.698412698412698,185.5301440048514L15.873015873015872,187.19778347448732L19.047619047619047,186.44604752834738L22.22222222222222,184.18962553525233L25.396825396825395,187.93567449885447L28.57142857142857,185.51526981305577L31.746031746031743,186.7918998688214L34.920634920634924,190.00093417533603L38.095238095238095,190.44926735720082L41.26984126984127,186.71729196036364L44.44444444444444,182.71577013989454L47.61904761904762,168.86936109662557L50.79365079365079,178.75173932772535L53.96825396825397,183.13370097888992L57.14285714285714,180.37014134899687L60.317460317460316,178.4738563365255L63.49206349206349,180.61220270590707L66.66666666666666,180.88900662639904L69.84126984126985,180.66976184627242L73.01587301587303,180.38646514116613L76.19047619047619,181.83777416110172L79.36507936507937,182.81725367749857L82.53968253968254,182.0643412607906L85.71428571428572,178.49664675950726L88.88888888888889,178.29070926946838L92.06349206349206,179.8893715619635L95.23809523809524,181.11947751124396L98.41269841269842,179.4489212443616L101.58730158730158,179.2516397977395L104.76190476190477,180.3690446529141L107.93650793650794,180.80052294927475L111.11111111111111,178.90815669982698L114.28571428571428,179.79198253811214L117.46031746031747,176.43340315425695L120.63492063492063,176.4265693138133L123.80952380952381,171.9880628146134L126.98412698412697,179.00571154311672L130.15873015873015,177.4057811621816L133.33333333333331,178.7997932301226L136.50793650793648,175.589987199345L139.6825396825397,169.55360462797896L142.85714285714286,158.19841240608997L146.03174603174605,156.9906297069306L149.20634920634922,170.88768098569534L152.38095238095238,169.46975411888934L155.55555555555557,169.121460099835L158.73015873015873,173.47388864918315L161.9047619047619,173.3046097724316L165.0793650793651,174.01983955835044L168.25396825396825,173.8496234847943L171.42857142857144,173.3046097724316L174.6031746031746,173.47388864918315L177.77777777777777,174.36311460141545L180.95238095238096,175.86009090562789L184.12698412698413,173.3046097724316L187.3015873015873,173.3046097724316L190.47619047619048,173.3046097724316L193.65079365079364,173.10770539601606L196.82539682539684,173.50143884473763L200,173.3046097724316" stroke="rgb(250, 141, 11)" stroke-width="2"></path></g></g><path class="foreground" aria-hidden="true" d="" display="none"></path></g></g><g class="mark-group role-scope child_layer_1_layer_0_pathgroup" role="graphics-object" aria-roledescription="group mark container"><g transform="translate(0,0)"><path class="background" aria-hidden="true" d="M0,0h200v200h-200Z"></path><g><g class="mark-area role-mark child_layer_1_layer_0_marks" role="graphics-object" aria-roledescription="area mark container"><path aria-label="% Correct, (Null-Model Corrected): 56.9768129946; upper_logitmeandiff: 59.6400801298; modeltype_title: High:	1st vs. 4th Quartile; Time (s) Relative to Target Onset: 0; Mean of logitmeandiff: 58.3084465622; Mean + stderr of logitmeandiff: 59.6400801298; Mean - stderr of logitmeandiff: 56.9768129946" role="graphics-symbol" aria-roledescription="errorband" d="M0,172.09274802176418L3.1746031746031744,182.52253861985292L6.349206349206349,185.95006203849536L9.523809523809524,182.5257247052881L12.698412698412698,167.2589683635425L15.873015873015872,176.46750996005315L19.047619047619047,181.98848964009392L22.22222222222222,182.61229143631087L25.396825396825395,183.7794341511618L28.57142857142857,183.16932455957647L31.746031746031743,182.12479127049272L34.920634920634924,185.4050186571759L38.095238095238095,190.17843037530125L41.26984126984127,188.20608995808934L44.44444444444444,174.3555526831796L47.61904761904762,173.2023028158006L50.79365079365079,175.2109462012329L53.96825396825397,169.1286526024505L57.14285714285714,170.10610884329034L60.317460317460316,160.46633442522315L63.49206349206349,161.7146566510469L66.66666666666666,158.40253530933458L69.84126984126985,159.95686231219167L73.01587301587303,164.1282257576784L76.19047619047619,178.96463861096956L79.36507936507937,161.44487648694002L82.53968253968254,171.81343039718035L85.71428571428572,165.09456200406098L88.88888888888889,162.57293428811437L92.06349206349206,166.52434448091037L95.23809523809524,162.51152465206698L98.41269841269842,171.550494904305L101.58730158730158,166.25517057909028L104.76190476190477,152.23521243297964L107.93650793650794,149.73699673503506L111.11111111111111,151.60462181996664L114.28571428571428,150.2696884541863L117.46031746031747,140.0595966045835L120.63492063492063,131.8928392326643L123.80952380952381,128.5999718364447L126.98412698412697,125.30096776705165L130.15873015873015,122.77725551818133L133.33333333333331,108.94485566376146L136.50793650793648,101.72426533310421L139.6825396825397,103.36600639136975L142.85714285714286,94.17989405687075L146.03174603174605,94.00585097707375L149.20634920634922,97.69836283794808L152.38095238095238,91.70174869721734L155.55555555555557,112.60417616942591L158.73015873015873,100.40217601976758L161.9047619047619,95.15286130627021L165.0793650793651,92.19275822183823L168.25396825396825,90.81141663270228L171.42857142857144,92.44999863814883L174.6031746031746,88.06343068492059L177.77777777777777,113.14887072888284L180.95238095238096,130.01397360141294L184.12698412698413,122.95284511027513L187.3015873015873,141.69123606605297L190.47619047619048,140.19475202983932L193.65079365079364,178.95552953008806L196.82539682539684,178.60363336459136L200,171.60132982567248L200,164.63794742566236L196.82539682539684,172.86325622649696L193.65079365079364,173.30460977243158L190.47619047619048,118.25121801161112L187.3015873015873,118.11189361027334L184.12698412698413,96.3038279269133L180.95238095238096,102.47943061330483L177.77777777777777,87.08153806729906L174.6031746031746,54.37463768833788L171.42857142857144,59.681162652426L168.25396825396825,57.40344678511076L165.0793650793651,60.155915179159194L161.9047619047619,61.00278825285965L158.73015873015873,65.99234906574564L155.55555555555557,79.34575531022068L152.38095238095238,67.02927841168685L149.20634920634922,70.76443304468563L146.03174603174605,67.81064967259039L142.85714285714286,72.17498068752191L139.6825396825397,69.52276993869384L136.50793650793648,74.21703894119196L133.33333333333331,80.43115641437726L130.15873015873015,86.7801518825799L126.98412698412697,88.52148018768133L123.80952380952381,92.66977459137541L120.63492063492063,97.26629506949587L117.46031746031747,104.00054367887255L114.28571428571428,114.77657620004567L111.11111111111111,117.88726604773245L107.93650793650794,117.4472019919691L104.76190476190477,118.48427198750322L101.58730158730158,127.52141733534887L98.41269841269842,133.9042249018476L95.23809523809524,128.67217182752816L92.06349206349206,134.25125234994007L88.88888888888889,130.53112069973264L85.71428571428572,132.9384187410442L82.53968253968254,137.056494911323L79.36507936507937,131.1670323625233L76.19047619047619,145.07844308177667L73.01587301587303,134.67772712296966L69.84126984126985,131.16809532542248L66.66666666666666,130.74085977203583L63.49206349206349,134.13651292205395L60.317460317460316,134.00238453282032L57.14285714285714,144.27795564411164L53.96825396825397,143.21893984703593L50.79365079365079,147.80171280428755L47.61904761904762,146.3454372242998L44.44444444444444,147.4539161118165L41.26984126984127,161.10267495915522L38.095238095238095,163.80405181926542L34.920634920634924,160.32814287934974L31.746031746031743,157.57865943206713L28.57142857142857,161.80065378724612L25.396825396825395,161.18679256236732L22.22222222222222,161.36331614536792L19.047619047619047,160.03594746628295L15.873015873015872,156.44588255367248L12.698412698412698,154.71202249848326L9.523809523809524,162.84008347005016L6.349206349206349,165.55211380610135L3.1746031746031744,163.7438372098544L0,161.43967948074658Z" fill="rgb(87, 16, 109)" opacity="0.3"></path></g></g><path class="foreground" aria-hidden="true" d="" display="none"></path></g><g transform="translate(0,0)"><path class="background" aria-hidden="true" d="M0,0h200v200h-200Z"></path><g><g class="mark-area role-mark child_layer_1_layer_0_marks" role="graphics-object" aria-roledescription="area mark container"><path aria-label="% Correct, (Null-Model Corrected): 53.9378917443; upper_logitmeandiff: 56.3189182189; modeltype_title: Medium:	1st vs. 3rd Quartile; Time (s) Relative to Target Onset: 0; Mean of logitmeandiff: 55.1284049816; Mean + stderr of logitmeandiff: 56.3189182189; Mean - stderr of logitmeandiff: 53.9378917443" role="graphics-symbol" aria-roledescription="errorband" d="M0,184.2484330227678L3.1746031746031744,180.01149884291493L6.349206349206349,174.9990508645228L9.523809523809524,174.6200859713358L12.698412698412698,176.87314455406516L15.873015873015872,176.26071908629157L19.047619047619047,174.8117884908724L22.22222222222222,173.3046097724316L25.396825396825395,175.86896927926563L28.57142857142857,177.53616375720483L31.746031746031743,177.16996930055853L34.920634920634924,175.2446407751259L38.095238095238095,180.2839454921928L41.26984126984127,172.6835276001042L44.44444444444444,178.96364548589355L47.61904761904762,181.98041487005588L50.79365079365079,172.69082232445174L53.96825396825397,175.407683161446L57.14285714285714,168.5583097244342L60.317460317460316,175.61160050215045L63.49206349206349,177.6236177511636L66.66666666666666,167.9123321490926L69.84126984126985,164.68137947701632L73.01587301587303,163.32943611764554L76.19047619047619,162.3497909874402L79.36507936507937,163.46467190695844L82.53968253968254,163.6773817382049L85.71428571428572,163.00762208174837L88.88888888888889,161.29922196990842L92.06349206349206,161.3781832015507L95.23809523809524,159.9831082978065L98.41269841269842,157.4652889997796L101.58730158730158,151.5352495921615L104.76190476190477,148.9533254439779L107.93650793650794,146.114805342861L111.11111111111111,147.64184553992652L114.28571428571428,144.33844982168688L117.46031746031747,135.9822719597752L120.63492063492063,127.73705668485844L123.80952380952381,123.9494057132265L126.98412698412697,126.6017465124083L130.15873015873015,117.60350618690643L133.33333333333331,118.48686691131127L136.50793650793648,124.87807976823957L139.6825396825397,166.98472428563278L142.85714285714286,167.0419589570005L146.03174603174605,164.42297265305743L149.20634920634922,168.9301044308487L152.38095238095238,159.47611061304966L155.55555555555557,164.02471530794836L158.73015873015873,167.42855735243896L161.9047619047619,164.0240265837281L165.0793650793651,161.60539086419993L168.25396825396825,163.35391570677893L171.42857142857144,162.77699675625425L174.6031746031746,160.01708987533686L177.77777777777777,168.48572472645026L180.95238095238096,159.61256922091818L184.12698412698413,152.4066082651573L187.3015873015873,148.16521417210416L190.47619047619048,159.22499672528193L193.65079365079364,171.0141542992724L196.82539682539684,169.35690914438223L200,173.3046097724316L200,173.3046097724316L196.82539682539684,162.06048877329724L193.65079365079364,166.1378513418251L190.47619047619048,140.5010448779455L187.3015873015873,132.34558977963383L184.12698412698413,135.00797736966217L180.95238095238096,143.0482945597504L177.77777777777777,146.6357279537329L174.6031746031746,144.2356402974574L171.42857142857144,151.50770994621243L168.25396825396825,152.55045415311184L165.0793650793651,133.7394728119632L161.9047619047619,136.79479269325248L158.73015873015873,135.49659328165814L155.55555555555557,132.82738036019214L152.38095238095238,131.24188638747694L149.20634920634922,138.20677351911513L146.03174603174605,136.68774021527383L142.85714285714286,140.75919299927193L139.6825396825397,140.06270447937993L136.50793650793648,101.59517670734203L133.33333333333331,98.92085375712692L130.15873015873015,98.34746780816295L126.98412698412697,107.0406605340025L123.80952380952381,105.22041506008588L120.63492063492063,107.1293042160762L117.46031746031747,114.6542877867156L114.28571428571428,121.56113367166756L111.11111111111111,123.43198041990809L107.93650793650794,120.52681246129428L104.76190476190477,122.92202459270345L101.58730158730158,126.12425895955148L98.41269841269842,132.9415503535139L95.23809523809524,136.2517666897056L92.06349206349206,137.77267095955153L88.88888888888889,138.88148804574558L85.71428571428572,140.73256329495786L82.53968253968254,142.4710139198072L79.36507936507937,142.7676435866719L76.19047619047619,144.8367969031396L73.01587301587303,151.46454254424927L69.84126984126985,150.55226842017663L66.66666666666666,154.71109774989338L63.49206349206349,165.1535827315067L60.317460317460316,166.09841869097028L57.14285714285714,155.95110386114914L53.96825396825397,163.48386840854172L50.79365079365079,162.89849041022632L47.61904761904762,174.07754197668294L44.44444444444444,168.8260871396534L41.26984126984127,164.20323341098745L38.095238095238095,172.6569400426465L34.920634920634924,171.68021187711116L31.746031746031743,170.8475781152829L28.57142857142857,172.64144769406838L25.396825396825395,173.62601354124456L22.22222222222222,172.41083592896274L19.047619047619047,173.57333997067025L15.873015873015872,173.63181599328752L12.698412698412698,172.74282488311746L9.523809523809524,172.07362476990772L6.349206349206349,173.37789498805265L3.1746031746031744,172.47075613122723L0,174.72432712422386Z" fill="rgb(187, 55, 85)" opacity="0.3"></path></g></g><path class="foreground" aria-hidden="true" d="" display="none"></path></g><g transform="translate(0,0)"><path class="background" aria-hidden="true" d="M0,0h200v200h-200Z"></path><g><g class="mark-area role-mark child_layer_1_layer_0_marks" role="graphics-object" aria-roledescription="area mark container"><path aria-label="% Correct, (Null-Model Corrected): 51.2104464045; upper_logitmeandiff: 55.1347816084; modeltype_title: Low:	1st vs. 2nd Quartile; Time (s) Relative to Target Onset: 0; Mean of logitmeandiff: 53.1726140065; Mean + stderr of logitmeandiff: 55.1347816084; Mean - stderr of logitmeandiff: 51.2104464045" role="graphics-symbol" aria-roledescription="errorband" d="M0,195.15821438192097L3.1746031746031744,195.60366785233887L6.349206349206349,196.51937635211073L9.523809523809524,195.04896546919252L12.698412698412698,194.2881586758407L15.873015873015872,196.7465530764168L19.047619047619047,194.94255371629487L22.22222222222222,192.28119639587092L25.396825396825395,195.78840330937695L28.57142857142857,193.191337209365L31.746031746031743,194.26409353196019L34.920634920634924,197.6622709885554L38.095238095238095,197.8258612625202L41.26984126984127,194.0853269685705L44.44444444444444,191.07723645637873L47.61904761904762,179.55372053061689L50.79365079365079,188.2036364239556L53.96825396825397,191.61020702734135L57.14285714285714,188.9240448457356L60.317460317460316,188.09640041339392L63.49206349206349,187.01381074353256L66.66666666666666,185.33340338957856L69.84126984126985,185.2027326950689L73.01587301587303,185.17166420536552L76.19047619047619,186.50709317484518L79.36507936507937,186.69526744251127L82.53968253968254,185.3411573463278L85.71428571428572,180.87739103309008L88.88888888888889,180.9699971537856L92.06349206349206,183.2959483296231L95.23809523809524,186.2083192793279L98.41269841269842,183.2374375548303L101.58730158730158,184.71975275027302L104.76190476190477,185.8339843129693L107.93650793650794,188.17822217544966L111.11111111111111,185.111402301244L114.28571428571428,186.8902731371986L117.46031746031747,183.25785152856537L120.63492063492063,183.8365795954036L123.80952380952381,180.1730075280924L126.98412698412697,188.5284571461348L130.15873015873015,187.34429482784202L133.33333333333331,189.45840872879765L136.50793650793648,186.3050737227191L139.6825396825397,180.32744818416947L142.85714285714286,170.08396431060925L146.03174603174605,169.23103875872147L149.20634920634922,172.14681796078418L152.38095238095238,171.52687325548044L155.55555555555557,171.19626587393753L158.73015873015873,173.64316752593473L161.9047619047619,173.3046097724316L165.0793650793651,174.51515895748958L168.25396825396825,174.25496435952232L171.42857142857144,173.3046097724316L174.6031746031746,173.64316752593473L177.77777777777777,175.12799607163106L180.95238095238096,177.7295145610514L184.12698412698413,173.3046097724316L187.3015873015873,173.3046097724316L190.47619047619048,173.3046097724316L193.65079365079364,173.30460977243158L196.82539682539684,173.6982679170437L200,173.3046097724316L200,173.3046097724316L196.82539682539684,173.30460977243158L193.65079365079364,172.91080101960054L190.47619047619048,173.3046097724316L187.3015873015873,173.3046097724316L184.12698412698413,173.3046097724316L180.95238095238096,173.99066725020438L177.77777777777777,173.59823313119983L174.6031746031746,173.30460977243158L171.42857142857144,173.3046097724316L168.25396825396825,173.4442826100663L165.0793650793651,173.5245201592113L161.9047619047619,173.3046097724316L158.73015873015873,173.30460977243158L155.55555555555557,167.04665432573245L152.38095238095238,167.41263498229824L149.20634920634922,169.6285440106065L146.03174603174605,144.75022065513974L142.85714285714286,146.3128605015707L139.6825396825397,158.77976107178844L136.50793650793648,164.87490067597088L133.33333333333331,168.14117773144753L130.15873015873015,167.46726749652117L126.98412698412697,169.48296594009864L123.80952380952381,163.80311810113437L120.63492063492063,169.016559032223L117.46031746031747,169.60895477994853L114.28571428571428,172.69369193902568L111.11111111111111,172.70491109840995L107.93650793650794,173.42282372309984L104.76190476190477,174.90410499285892L101.58730158730158,173.78352684520598L98.41269841269842,175.6604049338929L95.23809523809524,176.03063574316002L92.06349206349206,176.48279479430389L88.88888888888889,175.61142138515115L85.71428571428572,176.11590248592444L82.53968253968254,178.7875251752534L79.36507936507937,178.93923991248587L76.19047619047619,177.16845514735826L73.01587301587303,175.60126607696674L69.84126984126985,176.13679099747594L66.66666666666666,176.4446098632195L63.49206349206349,174.21059466828157L60.317460317460316,168.85131225965708L57.14285714285714,171.81623785225813L53.96825396825397,174.6571949304385L50.79365079365079,169.2998422314951L47.61904761904762,158.18500166263425L44.44444444444444,174.35430382341036L41.26984126984127,179.34925695215676L38.095238095238095,183.07267345188146L34.920634920634924,182.33959736211665L31.746031746031743,179.3197062056826L28.57142857142857,177.83920241674653L25.396825396825395,180.082945688332L22.22222222222222,176.09805467463374L19.047619047619047,177.9495413403999L15.873015873015872,177.64901387255784L12.698412698412698,176.7721293338621L9.523809523809524,179.29914842644587L6.349206349206349,180.33754694842122L3.1746031746031744,179.86194527940037L0,179.46087356646598Z" fill="rgb(250, 141, 11)" opacity="0.3"></path></g></g><path class="foreground" aria-hidden="true" d="" display="none"></path></g></g><g class="mark-text role-mark child_layer_2_marks" role="graphics-object" aria-roledescription="text mark container"><text aria-label="modeltype_title: High:	1st vs. 4th Quartile; Mean of logitmeandiff: 80.718479815; modeltype_shorttitle: High,1st vs. 4th Q" role="graphics-symbol" aria-roledescription="text mark" text-anchor="start" transform="translate(205,80.12608074003184)" font-family="sans-serif" font-size="11px" fill="rgb(87, 16, 109)"><tspan>High</tspan><tspan x="0" dy="13">1st vs. 4th Q</tspan></text><text aria-label="modeltype_title: Medium:	1st vs. 3rd Quartile; Mean of logitmeandiff: 62.7397698154; modeltype_shorttitle: Medium,1st vs. 3rd Q" role="graphics-symbol" aria-roledescription="text mark" text-anchor="start" transform="translate(205,152.04092073828588)" font-family="sans-serif" font-size="11px" fill="rgb(187, 55, 85)"><tspan>Medium</tspan><tspan x="0" dy="13">1st vs. 3rd Q</tspan></text><text aria-label="modeltype_title: Low:	1st vs. 2nd Quartile; Mean of logitmeandiff: 56.5844438337; modeltype_shorttitle: Low,1st vs. 2nd Q" role="graphics-symbol" aria-roledescription="text mark" text-anchor="start" transform="translate(205,176.66222466539102)" font-family="sans-serif" font-size="11px" fill="rgb(250, 141, 11)"><tspan>Low</tspan><tspan x="0" dy="13">1st vs. 2nd Q</tspan></text></g><g class="mark-rule role-mark child_layer_3_layer_0_marks" role="graphics-symbol" aria-roledescription="rule mark container"><line transform="translate(200,173.3046097724316)" x2="-200" y2="0" stroke="black" stroke-width="2" stroke-dasharray="4,4"></line></g><g class="mark-line role-mark child_layer_4_layer_0_marks" role="graphics-object" aria-roledescription="line mark container"><path aria-label="x: 0.05; y: 70" role="graphics-symbol" aria-roledescription="line mark" d="M3.3333333333333335,120L63.33333333333333,120" stroke="black" stroke-width="1.5"></path></g><g class="mark-symbol role-mark child_layer_4_layer_1_marks" role="graphics-object" aria-roledescription="symbol mark container"><path aria-label="x: 0.05; y: 70; dir: 270" role="graphics-symbol" aria-roledescription="point" transform="translate(3.3333333333333335,120) rotate(270)" d="M0,-1.8257418583505536L-1.5811388300841898,0.9128709291752769L1.5811388300841898,0.9128709291752769Z" stroke="black" stroke-width="2" opacity="1"></path><path aria-label="x: 0.95; y: 70; dir: 90" role="graphics-symbol" aria-roledescription="point" transform="translate(63.33333333333333,120) rotate(90)" d="M0,-1.8257418583505536L-1.5811388300841898,0.9128709291752769L1.5811388300841898,0.9128709291752769Z" stroke="black" stroke-width="2" opacity="1"></path></g><g class="mark-text role-mark child_layer_5_layer_0_marks" role="graphics-object" aria-roledescription="text mark container"><text text-anchor="middle" transform="translate(33.33333333333333,115)" font-family="sans-serif" font-size="11px" fill="black">Target Length</text></g><g class="mark-text role-mark child_layer_6_layer_0_marks" role="graphics-object" aria-roledescription="text mark container"><text text-anchor="middle" transform="translate(133.33333333333331,187.3046097724316)" font-family="sans-serif" font-size="11px" fill="black"><tspan>Mean Accuracy</tspan><tspan x="0" dy="13">of Null Model</tspan></text></g></g><path class="foreground" aria-hidden="true" d="" display="none"></path></g></g><g class="mark-group role-legend" role="graphics-symbol" aria-roledescription="legend" aria-label="Symbol legend for fill color and stroke color with 3 values: High:	1st vs. 4th Quartile, Medium:	1st vs. 3rd Quartile, Low:	1st vs. 2nd Quartile"><g transform="translate(5,0.5)"><path class="background" aria-hidden="true" d="M0,0h160v45h-160Z" pointer-events="none"></path><g><g class="mark-group role-legend-entry"><g transform="translate(0,0)"><path class="background" aria-hidden="true" d="M0,0h0v0h0Z" pointer-events="none"></path><g><g class="mark-group role-scope" role="graphics-object" aria-roledescription="group mark container"><g transform="translate(0,0)"><path class="background" aria-hidden="true" d="M0,0h160v12.5h-160Z" pointer-events="none" opacity="1"></path><g><g class="mark-symbol role-legend-symbol" pointer-events="none"><path transform="translate(6,6)" d="M5,0A5,5,0,1,1,-5,0A5,5,0,1,1,5,0" fill="rgb(87, 16, 109)" stroke="rgb(87, 16, 109)" stroke-width="1.5" opacity="0.3"></path></g><g class="mark-text role-legend-label" pointer-events="none"><text text-anchor="start" transform="translate(16,9)" font-family="sans-serif" font-size="10px" fill="#000" opacity="1">High:	1st vs. 4th Quartile</text></g></g><path class="foreground" aria-hidden="true" d="" pointer-events="none" display="none"></path></g><g transform="translate(0,16)"><path class="background" aria-hidden="true" d="M0,0h160v12.5h-160Z" pointer-events="none" opacity="1"></path><g><g class="mark-symbol role-legend-symbol" pointer-events="none"><path transform="translate(6,6)" d="M5,0A5,5,0,1,1,-5,0A5,5,0,1,1,5,0" fill="rgb(187, 55, 85)" stroke="rgb(187, 55, 85)" stroke-width="1.5" opacity="0.3"></path></g><g class="mark-text role-legend-label" pointer-events="none"><text text-anchor="start" transform="translate(16,9)" font-family="sans-serif" font-size="10px" fill="#000" opacity="1">Medium:	1st vs. 3rd Quartile</text></g></g><path class="foreground" aria-hidden="true" d="" pointer-events="none" display="none"></path></g><g transform="translate(0,32)"><path class="background" aria-hidden="true" d="M0,0h160v12.5h-160Z" pointer-events="none" opacity="1"></path><g><g class="mark-symbol role-legend-symbol" pointer-events="none"><path transform="translate(6,6)" d="M5,0A5,5,0,1,1,-5,0A5,5,0,1,1,5,0" fill="rgb(250, 141, 11)" stroke="rgb(250, 141, 11)" stroke-width="1.5" opacity="0.3"></path></g><g class="mark-text role-legend-label" pointer-events="none"><text text-anchor="start" transform="translate(16,9)" font-family="sans-serif" font-size="10px" fill="#000" opacity="1">Low:	1st vs. 2nd Quartile</text></g></g><path class="foreground" aria-hidden="true" d="" pointer-events="none" display="none"></path></g></g></g><path class="foreground" aria-hidden="true" d="" pointer-events="none" display="none"></path></g></g></g><path class="foreground" aria-hidden="true" d="" pointer-events="none" display="none"></path></g></g><g class="mark-group role-title"><g transform="translate(-60,-52)"><path class="background" aria-hidden="true" d="M0,0h0v0h0Z" pointer-events="none"></path><g><g class="mark-text role-title-text" role="graphics-symbol" aria-roledescription="title" aria-label="Title text 'Salience Classification Accuracy'" pointer-events="none"><text text-anchor="start" transform="translate(0,10)" font-family="sans-serif" font-size="13px" font-weight="bold" fill="#000" opacity="1">Salience Classification Accuracy</text></g><g class="mark-text role-title-subtitle" role="graphics-symbol" aria-roledescription="subtitle" aria-label="Subtitle text 'Global Condition'" pointer-events="none"><text text-anchor="start" transform="translate(0,25)" font-family="sans-serif" font-size="12px" fill="#000" opacity="1">Global Condition</text></g></g><path class="foreground" aria-hidden="true" d="" pointer-events="none" display="none"></path></g></g></g><path class="foreground" aria-hidden="true" d="" display="none"></path></g></g></g></svg>
