<?xml version="1.0" encoding="utf-8"?>
<!DOCTYPE svg PUBLIC "-//W3C//DTD SVG 1.1//EN" "http://www.w3.org/Graphics/SVG/1.1/DTD/svg11.dtd">
<svg class="marks" width="358" height="334" viewBox="0 0 358 334" version="1.1" xmlns="http://www.w3.org/2000/svg" xmlns:xlink="http://www.w3.org/1999/xlink"><rect width="358" height="334" fill="white"></rect><g fill="none" stroke-miterlimit="10" transform="translate(72,81)"><g class="mark-group role-frame root" role="graphics-object" aria-roledescription="group mark container"><g transform="translate(0,0)"><path class="background" aria-hidden="true" d="M0.5,0.5h200v200h-200Z" stroke="#ddd"></path><g><g class="mark-group role-axis" aria-hidden="true"><g transform="translate(0.5,200.5)"><path class="background" aria-hidden="true" d="M0,0h0v0h0Z" pointer-events="none"></path><g><g class="mark-rule role-axis-grid" pointer-events="none"><line transform="translate(0,-200)" x2="0" y2="200" stroke="#ddd" stroke-width="1" opacity="1"></line><line transform="translate(33,-200)" x2="0" y2="200" stroke="#ddd" stroke-width="1" opacity="1"></line><line transform="translate(67,-200)" x2="0" y2="200" stroke="#ddd" stroke-width="1" opacity="1"></line><line transform="translate(100,-200)" x2="0" y2="200" stroke="#ddd" stroke-width="1" opacity="1"></line><line transform="translate(133,-200)" x2="0" y2="200" stroke="#ddd" stroke-width="1" opacity="1"></line><line transform="translate(167,-200)" x2="0" y2="200" stroke="#ddd" stroke-width="1" opacity="1"></line><line transform="translate(200,-200)" x2="0" y2="200" stroke="#ddd" stroke-width="1" opacity="1"></line></g></g><path class="foreground" aria-hidden="true" d="" pointer-events="none" display="none"></path></g></g><g class="mark-group role-axis" aria-hidden="true"><g transform="translate(0.5,0.5)"><path class="background" aria-hidden="true" d="M0,0h0v0h0Z" pointer-events="none"></path><g><g class="mark-rule role-axis-grid" pointer-events="none"><line transform="translate(0,178)" x2="200" y2="0" stroke="#ddd" stroke-width="1" opacity="1"></line><line transform="translate(0,122)" x2="200" y2="0" stroke="#ddd" stroke-width="1" opacity="1"></line><line transform="translate(0,67)" x2="200" y2="0" stroke="#ddd" stroke-width="1" opacity="1"></line><line transform="translate(0,11)" x2="200" y2="0" stroke="#ddd" stroke-width="1" opacity="1"></line></g></g><path class="foreground" aria-hidden="true" d="" pointer-events="none" display="none"></path></g></g><g class="mark-group role-axis" role="graphics-symbol" aria-roledescription="axis" aria-label="X-axis titled 'Time (s) Relative to Target Onset' for a linear scale with values from 0.0 to 3.0"><g transform="translate(0.5,200.5)"><path class="background" aria-hidden="true" d="M0,0h0v0h0Z" pointer-events="none"></path><g><g class="mark-rule role-axis-tick" pointer-events="none"><line transform="translate(0,0)" x2="0" y2="5" stroke="#888" stroke-width="1" opacity="1"></line><line transform="translate(33,0)" x2="0" y2="5" stroke="#888" stroke-width="1" opacity="1"></line><line transform="translate(67,0)" x2="0" y2="5" stroke="#888" stroke-width="1" opacity="1"></line><line transform="translate(100,0)" x2="0" y2="5" stroke="#888" stroke-width="1" opacity="1"></line><line transform="translate(133,0)" x2="0" y2="5" stroke="#888" stroke-width="1" opacity="1"></line><line transform="translate(167,0)" x2="0" y2="5" stroke="#888" stroke-width="1" opacity="1"></line><line transform="translate(200,0)" x2="0" y2="5" stroke="#888" stroke-width="1" opacity="1"></line></g><g class="mark-text role-axis-label" pointer-events="none"><text text-anchor="start" transform="translate(0,15)" font-family="sans-serif" font-size="10px" fill="#000" opacity="1">0.0</text><text text-anchor="middle" transform="translate(33.33333333333333,15)" font-family="sans-serif" font-size="10px" fill="#000" opacity="1">0.5</text><text text-anchor="middle" transform="translate(66.66666666666666,15)" font-family="sans-serif" font-size="10px" fill="#000" opacity="1">1.0</text><text text-anchor="middle" transform="translate(100,15)" font-family="sans-serif" font-size="10px" fill="#000" opacity="1">1.5</text><text text-anchor="middle" transform="translate(133.33333333333331,15)" font-family="sans-serif" font-size="10px" fill="#000" opacity="1">2.0</text><text text-anchor="middle" transform="translate(166.66666666666669,15)" font-family="sans-serif" font-size="10px" fill="#000" opacity="1">2.5</text><text text-anchor="end" transform="translate(200,15)" font-family="sans-serif" font-size="10px" fill="#000" opacity="1">3.0</text></g><g class="mark-rule role-axis-domain" pointer-events="none"><line transform="translate(0,0)" x2="200" y2="0" stroke="#888" stroke-width="1" opacity="1"></line></g><g class="mark-text role-axis-title" pointer-events="none"><text text-anchor="middle" transform="translate(100,46)" font-family="sans-serif" font-size="11px" font-weight="bold" fill="#000" opacity="1">Time (s) Relative to Target Onset</text></g></g><path class="foreground" aria-hidden="true" d="" pointer-events="none" display="none"></path></g></g><g class="mark-group role-axis" role="graphics-symbol" aria-roledescription="axis" aria-label="Y-axis titled 'Model - Null Model Accuracy Logit Scale (% Correct, given 50% Null Model)' for a linear scale with values from -0.2 to 1.6"><g transform="translate(0.5,0.5)"><path class="background" aria-hidden="true" d="M0,0h0v0h0Z" pointer-events="none"></path><g><g class="mark-rule role-axis-tick" pointer-events="none"><line transform="translate(0,178)" x2="-5" y2="0" stroke="#888" stroke-width="1" opacity="1"></line><line transform="translate(0,122)" x2="-5" y2="0" stroke="#888" stroke-width="1" opacity="1"></line><line transform="translate(0,67)" x2="-5" y2="0" stroke="#888" stroke-width="1" opacity="1"></line><line transform="translate(0,11)" x2="-5" y2="0" stroke="#888" stroke-width="1" opacity="1"></line></g><g class="mark-text role-axis-label" pointer-events="none"><text text-anchor="end" transform="translate(-7,180.77777777777777)" font-family="sans-serif" font-size="10px" fill="#000" opacity="1">0.0</text><text text-anchor="end" transform="translate(-7,125.22222222222223)" font-family="sans-serif" font-size="10px" fill="#000" opacity="1">0.5</text><text text-anchor="end" transform="translate(-7,69.66666666666667)" font-family="sans-serif" font-size="10px" fill="#000" opacity="1">1.0</text><text text-anchor="end" transform="translate(-7,14.111111111111116)" font-family="sans-serif" font-size="10px" fill="#000" opacity="1">1.5</text></g><g class="mark-rule role-axis-domain" pointer-events="none"><line transform="translate(0,200)" x2="0" y2="-200" stroke="#888" stroke-width="1" opacity="1"></line></g><g class="mark-text role-axis-title" pointer-events="none"><text text-anchor="middle" transform="translate(-55,100) rotate(-90) translate(0,-2)" font-family="sans-serif" font-size="11px" font-weight="bold" fill="#000" opacity="1"><tspan>Model - Null Model Accuracy</tspan><tspan x="0" dy="13">Logit Scale (% Correct, given 50% Null Model)</tspan></text></g></g><path class="foreground" aria-hidden="true" d="" pointer-events="none" display="none"></path></g></g><g class="mark-group role-scope layer_0_layer_0_pathgroup" role="graphics-object" aria-roledescription="group mark container"><g transform="translate(0,0)"><path class="background" aria-hidden="true" d="M0,0h200v200h-200Z"></path><g><g class="mark-line role-mark layer_0_layer_0_marks" role="graphics-object" aria-roledescription="line mark container"><path aria-label="modeltype_title: High:	1st vs. 4th Quartile; Time (s) Relative to Target Onset: 0; Model - Null Model Accuracy, Logit Scale (% Correct, given 50% Null Model): 0.0267055649764" role="graphics-symbol" aria-roledescription="line mark" d="M0,174.81049278039956L3.1746031746031744,176.8054152032738L6.349206349206349,183.1844190186612L9.523809523809524,180.13247176753887L12.698412698412698,180.67224148048814L15.873015873015872,177.2346805282899L19.047619047619047,175.58889634073026L22.22222222222222,175.26067999219987L25.396825396825395,173.62614485277504L28.57142857142857,172.22026692310317L31.746031746031743,170.1862962222748L34.920634920634924,168.00125135485428L38.095238095238095,165.84167186232995L41.26984126984127,165.88589267344872L44.44444444444444,162.69535969610197L47.61904761904762,162.75770986387732L50.79365079365079,163.68708231745842L53.96825396825397,159.86887220499088L57.14285714285714,158.24708687179836L60.317460317460316,152.74661438354576L63.49206349206349,156.19927446749938L66.66666666666666,152.5662987694684L69.84126984126985,148.34207735789911L73.01587301587303,142.3365223263966L76.19047619047619,144.99974395260304L79.36507936507937,144.5082294326078L82.53968253968254,138.75833216555122L85.71428571428572,139.23500267088306L88.88888888888889,135.85817556954248L92.06349206349206,132.42788776864546L95.23809523809524,131.1881676406674L98.41269841269842,132.68113006481522L101.58730158730158,129.73232239168482L104.76190476190477,128.06634912431701L107.93650793650794,120.2940737901173L111.11111111111111,111.18581505813037L114.28571428571428,110.71538877803313L117.46031746031747,107.24395891257154L120.63492063492063,99.37429355311164L123.80952380952381,94.52773581136364L126.98412698412697,90.16017360235648L130.15873015873015,74.50811214447481L133.33333333333331,71.07395801676255L136.50793650793648,58.3681888712416L139.6825396825397,53.41478911329753L142.85714285714286,61.14342831151305L146.03174603174605,60.77142766184438L149.20634920634922,61.00859269952841L152.38095238095238,58.48920774729027L155.55555555555557,59.067897891431784L158.73015873015873,58.61035558743861L161.9047619047619,52.82676673311999L165.0793650793651,52.34604922707824L168.25396825396825,48.20521762243226L171.42857142857144,35.567646675402266L174.6031746031746,29.686815811846046L177.77777777777777,32.49421778325965L180.95238095238096,46.138861312187274L184.12698412698413,48.9409566786428L187.3015873015873,98.1656687424056L190.47619047619048,100.08581976436149L193.65079365079364,154.03503722721496L196.82539682539684,156.24303965651225L200,152.94121817793865" stroke="rgb(250, 141, 11)" stroke-width="2"></path></g></g><path class="foreground" aria-hidden="true" d="" display="none"></path></g><g transform="translate(0,0)"><path class="background" aria-hidden="true" d="M0,0h200v200h-200Z"></path><g><g class="mark-line role-mark layer_0_layer_0_marks" role="graphics-object" aria-roledescription="line mark container"><path aria-label="modeltype_title: Medium:	1st vs. 3rd Quartile; Time (s) Relative to Target Onset: 0; Model - Null Model Accuracy, Logit Scale (% Correct, given 50% Null Model): 0.0659348628206" role="graphics-symbol" aria-roledescription="line mark" d="M0,170.4516819088214L3.1746031746031744,175.29486447191346L6.349206349206349,174.92049298937994L9.523809523809524,177.33212119109638L12.698412698412698,176.20455693165883L15.873015873015872,180.08600303261463L19.047619047619047,180.2964566514714L22.22222222222222,176.43232673113437L25.396825396825395,179.11867500482043L28.57142857142857,177.02342953341625L31.746031746031743,181.50136330793057L34.920634920634924,176.28552343358947L38.095238095238095,171.5128612751989L41.26984126984127,173.13034483762786L44.44444444444444,174.7093003005773L47.61904761904762,175.6344210628945L50.79365079365079,172.60619412098833L53.96825396825397,166.16737483441779L57.14285714285714,169.62686671520274L60.317460317460316,171.0247255096069L63.49206349206349,166.220507179305L66.66666666666666,165.7920224706656L69.84126984126985,165.1618365857844L73.01587301587303,161.9433206539096L76.19047619047619,162.0419708616563L79.36507936507937,161.19723839902258L82.53968253968254,158.09982168335534L85.71428571428572,154.7233899674926L88.88888888888889,153.86452908678385L92.06349206349206,154.608588820921L95.23809523809524,152.85291958139092L98.41269841269842,153.94605517639596L101.58730158730158,153.0959945246871L104.76190476190477,154.94290233440853L107.93650793650794,154.2484472113659L111.11111111111111,152.75079111715678L114.28571428571428,151.37808168640308L117.46031746031747,146.9127316379737L120.63492063492063,147.3372893771346L123.80952380952381,148.39154826778045L126.98412698412697,146.34719275771567L130.15873015873015,146.66078305861393L133.33333333333331,144.41532534026393L136.50793650793648,139.76156699287995L139.6825396825397,143.22573237502107L142.85714285714286,140.84419930620342L146.03174603174605,139.9580967845894L149.20634920634922,140.65980140244335L152.38095238095238,140.09666581845187L155.55555555555557,137.06693326837024L158.73015873015873,137.1691244597252L161.9047619047619,153.74950358678964L165.0793650793651,154.66846841261633L168.25396825396825,166.3303029734729L171.42857142857144,164.2031073285092L174.6031746031746,167.49338962190453L177.77777777777777,165.9783391287392L180.95238095238096,169.00459598534007L184.12698412698413,163.8688351512449L187.3015873015873,162.91856303937627L190.47619047619048,161.3074125832841L193.65079365079364,168.89848628141323L196.82539682539684,169.03985465215712L200,182.0216117335594" stroke="rgb(187, 55, 85)" stroke-width="2"></path></g></g><path class="foreground" aria-hidden="true" d="" display="none"></path></g><g transform="translate(0,0)"><path class="background" aria-hidden="true" d="M0,0h200v200h-200Z"></path><g><g class="mark-line role-mark layer_0_layer_0_marks" role="graphics-object" aria-roledescription="line mark container"><path aria-label="modeltype_title: Low:	1st vs. 2nd Quartile; Time (s) Relative to Target Onset: 0; Model - Null Model Accuracy, Logit Scale (% Correct, given 50% Null Model): -0.0997796439548" role="graphics-symbol" aria-roledescription="line mark" d="M0,188.86440488386665L3.1746031746031744,185.9869935517946L6.349206349206349,184.86118596011508L9.523809523809524,178.84318781229558L12.698412698412698,182.8466647293207L15.873015873015872,177.09233386166702L19.047619047619047,174.27147323254087L22.22222222222222,179.3518015323056L25.396825396825395,180.19919773457283L28.57142857142857,181.90357835717708L31.746031746031743,185.7921839260324L34.920634920634924,181.51649789017904L38.095238095238095,183.06251340259598L41.26984126984127,179.9918615981178L44.44444444444444,178.4473953007555L47.61904761904762,182.58499241311458L50.79365079365079,177.522708439162L53.96825396825397,176.75159035427873L57.14285714285714,177.34986998297288L60.317460317460316,175.6320124974298L63.49206349206349,179.37225106855428L66.66666666666666,179.96911320472142L69.84126984126985,184.49719844409677L73.01587301587303,180.66919747701672L76.19047619047619,183.01080767553086L79.36507936507937,181.74023673592689L82.53968253968254,180.16748488450335L85.71428571428572,177.94247416149503L88.88888888888889,175.81534328206567L92.06349206349206,178.1903645234975L95.23809523809524,169.74913968510864L98.41269841269842,176.3142920713383L101.58730158730158,174.8316115142324L104.76190476190477,173.98032491711416L107.93650793650794,174.00531179154495L111.11111111111111,171.19610486995663L114.28571428571428,170.1641113380705L117.46031746031747,170.71553961854934L120.63492063492063,164.71646457073538L123.80952380952381,166.23877385624266L126.98412698412697,165.37270154771292L130.15873015873015,165.8207403346013L133.33333333333331,166.2518066366413L136.50793650793648,157.88535609696157L139.6825396825397,158.5059438051063L142.85714285714286,159.0600267954233L146.03174603174605,158.84390266905353L149.20634920634922,154.59196165659733L152.38095238095238,147.98195243327373L155.55555555555557,147.38916955225628L158.73015873015873,173.50286536792242L161.9047619047619,174.93350022653985L165.0793650793651,178.57932589442197L168.25396825396825,184.00168271947285L171.42857142857144,178.9251429393253L174.6031746031746,179.07809122628646L177.77777777777777,177.2941519728379L180.95238095238096,173.8714464430034L184.12698412698413,177.01162657339583L187.3015873015873,177.74929205827166L190.47619047619048,176.42228988315398L193.65079365079364,177.70368375785785L196.82539682539684,189.14384764554606L200,192.29743278045012" stroke="rgb(87, 16, 109)" stroke-width="2"></path></g></g><path class="foreground" aria-hidden="true" d="" display="none"></path></g></g><g class="mark-group role-scope layer_0_layer_1_layer_0_pathgroup" role="graphics-object" aria-roledescription="group mark container"><g transform="translate(0,0)"><path class="background" aria-hidden="true" d="M0,0h200v200h-200Z"></path><g><g class="mark-area role-mark layer_0_layer_1_layer_0_marks" role="graphics-object" aria-roledescription="area mark container"><path aria-label="Model - Null Model Accuracy, Logit Scale (% Correct, given 50% Null Model): -0.0203040971896; upper_logitmeandiff: 0.0737152271424; modeltype_title: High:	1st vs. 4th Quartile; Time (s) Relative to Target Onset: 0; Mean of logitmeandiff: 0.0267055649764; Mean + stderr of logitmeandiff: 0.0737152271424; Mean - stderr of logitmeandiff: -0.0203040971896" role="graphics-symbol" aria-roledescription="errorband" d="M0,180.0337885766172L3.1746031746031744,181.9167956845335L6.349206349206349,188.52519104603132L9.523809523809524,184.58249780981595L12.698412698412698,185.79581900596654L15.873015873015872,182.1462491488221L19.047619047619047,180.83687620259653L22.22222222222222,180.93226605391243L25.396825396825395,180.1089639490167L28.57142857142857,178.91292945170915L31.746031746031743,176.82444800928693L34.920634920634924,175.21684491471078L38.095238095238095,173.03123340695458L41.26984126984127,172.83306097290338L44.44444444444444,170.17180636193768L47.61904761904762,170.1086262452232L50.79365079365079,171.03157929337948L53.96825396825397,167.1295827387283L57.14285714285714,166.37403095619402L60.317460317460316,161.56449422287315L63.49206349206349,165.4593857521021L66.66666666666666,162.75276450632933L69.84126984126985,159.63468734596435L73.01587301587303,155.9128997511846L76.19047619047619,156.99779435859122L79.36507936507937,156.690809313913L82.53968253968254,152.58012692573845L85.71428571428572,153.02668068548195L88.88888888888889,150.31330851639999L92.06349206349206,147.2872334565161L95.23809523809524,146.2379240366091L98.41269841269842,145.2920721779966L101.58730158730158,142.75040226881458L104.76190476190477,141.597594512688L107.93650793650794,133.71538462452466L111.11111111111111,126.35511480220897L114.28571428571428,126.01220395995666L117.46031746031747,123.75123535543646L120.63492063492063,117.52610454581594L123.80952380952381,112.20753545652178L126.98412698412697,108.36848716282947L130.15873015873015,96.5659960584629L133.33333333333331,93.35778696377814L136.50793650793648,82.42570499487039L139.6825396825397,78.675144625136L142.85714285714286,84.30806806192577L146.03174603174605,84.12019504118702L149.20634920634922,84.19449628335218L152.38095238095238,81.18329803904747L155.55555555555557,82.63813032372708L158.73015873015873,81.96016720506292L161.9047619047619,76.67112208707579L165.0793650793651,75.57362093088484L168.25396825396825,71.92195383492881L171.42857142857144,61.08101757776825L174.6031746031746,56.456949991495954L177.77777777777777,59.321922335342904L180.95238095238096,72.48015873848077L184.12698412698413,74.57830392312756L187.3015873015873,117.95847316028065L190.47619047619048,119.88983960177305L193.65079365079364,165.75098543924355L196.82539682539684,168.46258502143775L200,164.71922019385596L200,141.16321616202134L196.82539682539684,144.0234942915868L193.65079365079364,142.31908901518634L190.47619047619048,80.2817999269499L187.3015873015873,78.37286432453057L184.12698412698413,23.303609434158055L180.95238095238096,19.79756388589375L177.77777777777777,5.6665132311763955L174.6031746031746,2.916681632196159L171.42857142857144,10.05427577303628L168.25396825396825,24.488481409935687L165.0793650793651,29.118477523271615L161.9047619047619,28.982411379164176L158.73015873015873,35.26054396981431L155.55555555555557,35.497665459136485L152.38095238095238,35.795117455533074L149.20634920634922,37.82268911570461L146.03174603174605,37.42266028250177L142.85714285714286,37.97878856110031L139.6825396825397,28.15443360145906L136.50793650793648,34.31067274761281L133.33333333333331,48.79012906974695L130.15873015873015,52.45022823048671L126.98412698412697,71.95186004188352L123.80952380952381,76.84793616620551L120.63492063492063,81.22248256040736L117.46031746031747,90.73668246970664L114.28571428571428,95.41857359610961L111.11111111111111,96.0165153140517L107.93650793650794,106.87276295570993L104.76190476190477,114.53510373594602L101.58730158730158,116.71424251455508L98.41269841269842,120.0701879516338L95.23809523809524,116.13841124472569L92.06349206349206,117.5685420807748L88.88888888888889,121.40304262268495L85.71428571428572,125.44332465628413L82.53968253968254,124.93653740536399L79.36507936507937,132.32564955130258L76.19047619047619,133.00169354661492L73.01587301587303,128.7601449016086L69.84126984126985,137.04946736983382L66.66666666666666,142.3798330326075L63.49206349206349,146.93916318289664L60.317460317460316,143.92873454421834L57.14285714285714,150.12014278740264L53.96825396825397,152.6081616712535L50.79365079365079,156.3425853415373L47.61904761904762,155.40679348253138L44.44444444444444,155.21891303026626L41.26984126984127,158.938724373994L38.095238095238095,158.6521103177053L34.920634920634924,160.78565779499775L31.746031746031743,163.54814443526266L28.57142857142857,165.5276043944972L25.396825396825395,167.1433257565334L22.22222222222222,169.5890939304873L19.047619047619047,170.34091647886402L15.873015873015872,172.32311190775775L12.698412698412698,175.54866395500977L9.523809523809524,175.6824457252618L6.349206349206349,177.8436469912911L3.1746031746031744,171.69403472201418L0,169.5871969841819Z" fill="rgb(250, 141, 11)" opacity="0.3"></path></g></g><path class="foreground" aria-hidden="true" d="" display="none"></path></g><g transform="translate(0,0)"><path class="background" aria-hidden="true" d="M0,0h200v200h-200Z"></path><g><g class="mark-area role-mark layer_0_layer_1_layer_0_marks" role="graphics-object" aria-roledescription="area mark container"><path aria-label="Model - Null Model Accuracy, Logit Scale (% Correct, given 50% Null Model): 0.0215325976823; upper_logitmeandiff: 0.110337127959; modeltype_title: Medium:	1st vs. 3rd Quartile; Time (s) Relative to Target Onset: 0; Mean of logitmeandiff: 0.0659348628206; Mean + stderr of logitmeandiff: 0.110337127959; Mean - stderr of logitmeandiff: 0.0215325976823" role="graphics-symbol" aria-roledescription="errorband" d="M0,175.38526692418483L3.1746031746031744,180.7948964833301L6.349206349206349,180.03332652961518L9.523809523809524,182.4706913015022L12.698412698412698,182.27458214929783L15.873015873015872,185.5065144005918L19.047619047619047,185.20421598186877L22.22222222222222,181.9631425190005L25.396825396825395,184.2545434499805L28.57142857142857,181.64859739657985L31.746031746031743,185.66982649320389L34.920634920634924,179.48161363888283L38.095238095238095,175.8789921956644L41.26984126984127,177.11638709101896L44.44444444444444,178.14620555869314L47.61904761904762,179.7857231173195L50.79365079365079,176.08951746005675L53.96825396825397,170.47301438187364L57.14285714285714,173.67285030352886L60.317460317460316,175.0814225802729L63.49206349206349,170.710974994823L66.66666666666666,170.7239419981876L69.84126984126985,169.34756354527104L73.01587301587303,166.47734606858435L76.19047619047619,166.9371882479314L79.36507936507937,166.30418943612003L82.53968253968254,163.77630343820385L85.71428571428572,160.43377763128962L88.88888888888889,159.2259257092254L92.06349206349206,160.10188131394963L95.23809523809524,158.73629276469944L98.41269841269842,159.579993142939L101.58730158730158,159.41629081624822L104.76190476190477,161.22463615026874L107.93650793650794,160.7014098561006L111.11111111111111,159.1706179657136L114.28571428571428,157.92901278200458L117.46031746031747,154.1380233144544L120.63492063492063,154.3324276260195L123.80952380952381,155.5098910353628L126.98412698412697,153.5000947716965L130.15873015873015,153.75444956914532L133.33333333333331,151.95988653816778L136.50793650793648,147.87695888864062L139.6825396825397,150.8214552464723L142.85714285714286,148.57363077895533L146.03174603174605,147.64271624619303L149.20634920634922,148.39701181275916L152.38095238095238,148.10586658191335L155.55555555555557,145.24021188033404L158.73015873015873,145.00050290113205L161.9047619047619,160.18692371079337L165.0793650793651,160.90008998810282L168.25396825396825,173.14861792855828L171.42857142857144,170.56318429744564L174.6031746031746,174.28660985884878L177.77777777777777,172.18698356258489L180.95238095238096,175.607584046683L184.12698412698413,170.2716429225302L187.3015873015873,169.37634154052483L190.47619047619048,168.36531932286547L193.65079365079364,173.805561417691L196.82539682539684,174.1332863113731L200,184.55294282261886L200,179.49028064449993L196.82539682539684,163.94642299294114L193.65079365079364,163.9914111451354L190.47619047619048,154.24950584370274L187.3015873015873,156.4607845382277L184.12698412698413,157.4660273799596L180.95238095238096,162.40160792399715L177.77777777777777,159.76969469489353L174.6031746031746,160.70016938496025L171.42857142857144,157.84303035957282L168.25396825396825,159.5119880183875L165.0793650793651,148.4368468371298L161.9047619047619,147.31208346278595L158.73015873015873,129.33774601831834L155.55555555555557,128.89365465640643L152.38095238095238,132.08746505499042L149.20634920634922,132.92259099212754L146.03174603174605,132.2734773229858L142.85714285714286,133.1147678334515L139.6825396825397,135.6300095035698L136.50793650793648,131.6461750971193L133.33333333333331,136.8707641423601L130.15873015873015,139.56711654808248L126.98412698412697,139.19429074373483L123.80952380952381,141.2732055001981L120.63492063492063,140.3421511282497L117.46031746031747,139.68743996149306L114.28571428571428,144.8271505908016L111.11111111111111,146.33096426859998L107.93650793650794,147.79548456663122L104.76190476190477,148.6611685185483L101.58730158730158,146.77569823312595L98.41269841269842,148.3121172098529L95.23809523809524,146.9695463980824L92.06349206349206,149.11529632789234L88.88888888888889,148.50313246434231L85.71428571428572,149.0130023036956L82.53968253968254,152.42333992850686L79.36507936507937,156.0902873619251L76.19047619047619,157.14675347538116L73.01587301587303,157.40929523923484L69.84126984126985,160.97610962629776L66.66666666666666,160.86010294314354L63.49206349206349,161.730039363787L60.317460317460316,166.96802843894085L57.14285714285714,165.5808831268766L53.96825396825397,161.86173528696193L50.79365079365079,169.1228707819199L47.61904761904762,171.4831190084695L44.44444444444444,171.27239504246145L41.26984126984127,169.14430258423675L38.095238095238095,167.14673035473342L34.920634920634924,173.08943322829612L31.746031746031743,177.33290012265724L28.57142857142857,172.39826167025265L25.396825396825395,173.9828065596604L22.22222222222222,170.90151094326825L19.047619047619047,175.38869732107406L15.873015873015872,174.66549166463744L12.698412698412698,170.13453171401983L9.523809523809524,172.19355108069058L6.349206349206349,169.80765944914467L3.1746031746031744,169.7948324604968L0,165.51809689345797Z" fill="rgb(187, 55, 85)" opacity="0.3"></path></g></g><path class="foreground" aria-hidden="true" d="" display="none"></path></g><g transform="translate(0,0)"><path class="background" aria-hidden="true" d="M0,0h200v200h-200Z"></path><g><g class="mark-area role-mark layer_0_layer_1_layer_0_marks" role="graphics-object" aria-roledescription="area mark container"><path aria-label="Model - Null Model Accuracy, Logit Scale (% Correct, given 50% Null Model): -0.150633710621; upper_logitmeandiff: -0.0489255772885; modeltype_title: Low:	1st vs. 2nd Quartile; Time (s) Relative to Target Onset: 0; Mean of logitmeandiff: -0.0997796439548; Mean + stderr of logitmeandiff: -0.0489255772885; Mean - stderr of logitmeandiff: -0.150633710621" role="graphics-symbol" aria-roledescription="errorband" d="M0,194.51485673568072L3.1746031746031744,191.69443337607126L6.349206349206349,191.0417074812558L9.523809523809524,185.0619257802859L12.698412698412698,188.27248613549193L15.873015873015872,182.52321674641152L19.047619047619047,179.6024729751396L22.22222222222222,185.26467532861827L25.396825396825395,185.9752311934836L28.57142857142857,187.79290890330867L31.746031746031743,191.67837869388694L34.920634920634924,186.83081684596272L38.095238095238095,189.24585278809988L41.26984126984127,184.97309208749363L44.44444444444444,183.7514218717178L47.61904761904762,188.02969569372593L50.79365079365079,182.26876042632688L53.96825396825397,180.76448670157237L57.14285714285714,182.3400847319104L60.317460317460316,180.06347113300376L63.49206349206349,185.20270278910738L66.66666666666666,185.22618807842326L69.84126984126985,190.4259703844717L73.01587301587303,185.5814096189649L76.19047619047619,187.98114923211568L79.36507936507937,187.0560611759007L82.53968253968254,185.8161065828086L85.71428571428572,184.5377719967826L88.88888888888889,180.66236405506515L92.06349206349206,183.15976925151355L95.23809523809524,174.60608650047587L98.41269841269842,180.76159503211724L101.58730158730158,179.30412360062599L104.76190476190477,179.1297704767868L107.93650793650794,179.25416700748255L111.11111111111111,175.63796742140445L114.28571428571428,175.28462695484032L117.46031746031747,175.7482676623624L120.63492063492063,170.0548766236075L123.80952380952381,172.2483364368858L126.98412698412697,171.4201164687267L130.15873015873015,171.6079859814106L133.33333333333331,172.35548332025354L136.50793650793648,163.94690051115091L139.6825396825397,164.4441633496225L142.85714285714286,165.31456091035682L146.03174603174605,164.87798648297766L149.20634920634922,161.30984905967853L152.38095238095238,155.58950370696098L155.55555555555557,154.35279103187767L158.73015873015873,179.36159576213254L161.9047619047619,180.2964807011146L165.0793650793651,183.75415332242397L168.25396825396825,189.4909318703242L171.42857142857144,184.01856855738276L174.6031746031746,184.1409092336346L177.77777777777777,182.2662179296037L180.95238095238096,179.3129440656326L184.12698412698413,182.26429261879485L187.3015873015873,182.53996148447567L190.47619047619048,181.42279456639903L193.65079365079364,182.57615291154332L196.82539682539684,193.93968755271948L200,197.52206658868948L200,187.0727989722108L196.82539682539684,184.34800773837264L193.65079365079364,172.8312146041724L190.47619047619048,171.42178519990892L187.3015873015873,172.95862263206763L184.12698412698413,171.7589605279968L180.95238095238096,168.42994882037425L177.77777777777777,172.32208601607212L174.6031746031746,174.01527321893835L171.42857142857144,173.83171732126786L168.25396825396825,178.51243356862153L165.0793650793651,173.40449846641994L161.9047619047619,169.57051975196507L158.73015873015873,167.6441349737123L155.55555555555557,140.42554807263485L152.38095238095238,140.37440115958648L149.20634920634922,147.87407425351614L146.03174603174605,152.80981885512938L142.85714285714286,152.80549268048986L139.6825396825397,152.5677242605902L136.50793650793648,151.82381168277223L133.33333333333331,160.14812995302907L130.15873015873015,160.03349468779206L126.98412698412697,159.32528662669912L123.80952380952381,160.22921127559954L120.63492063492063,159.37805251786327L117.46031746031747,165.68281157473626L114.28571428571428,165.04359572130065L111.11111111111111,166.7542423185088L107.93650793650794,168.75645657560736L104.76190476190477,168.83087935744157L101.58730158730158,170.35909942783883L98.41269841269842,171.86698911055933L95.23809523809524,164.89219286974145L92.06349206349206,173.22095979548143L88.88888888888889,170.96832250906618L85.71428571428572,171.34717632620746L82.53968253968254,174.5188631861981L79.36507936507937,176.42441229595312L76.19047619047619,178.04046611894603L73.01587301587303,175.75698533506855L69.84126984126985,178.56842650372184L66.66666666666666,174.71203833101956L63.49206349206349,173.54179934800118L60.317460317460316,171.2005538618558L57.14285714285714,172.35965523403536L53.96825396825397,172.73869400698507L50.79365079365079,172.77665645199707L47.61904761904762,177.14028913250323L44.44444444444444,173.1433687297931L41.26984126984127,175.010631108742L38.095238095238095,176.87917401709205L34.920634920634924,176.2021789343954L31.746031746031743,179.90598915817785L28.57142857142857,176.0142478110455L25.396825396825395,174.42316427566203L22.22222222222222,173.43892773599288L19.047619047619047,168.94047348994215L15.873015873015872,171.66145097692254L12.698412698412698,177.42084332314946L9.523809523809524,172.62444984430525L6.349206349206349,178.68066443897442L3.1746031746031744,180.27955372751794L0,183.21395303205256Z" fill="rgb(87, 16, 109)" opacity="0.3"></path></g></g><path class="foreground" aria-hidden="true" d="" display="none"></path></g></g><g class="mark-text role-mark layer_0_layer_2_marks" role="graphics-object" aria-roledescription="text mark container"><text aria-label="modeltype_title: High:	1st vs. 4th Quartile; Mean of logitmeandiff: 1.22302211066; modeltype_shorttitle: High,1st vs. 4th Q" role="graphics-symbol" aria-roledescription="text mark" text-anchor="start" transform="translate(205,44.88643214891723)" font-family="sans-serif" font-size="11px" fill="rgb(250, 141, 11)"><tspan>High</tspan><tspan x="0" dy="13">1st vs. 4th Q</tspan></text><text aria-label="modeltype_title: Medium:	1st vs. 3rd Quartile; Mean of logitmeandiff: 0.112599653641; modeltype_shorttitle: Medium,1st vs. 3rd Q" role="graphics-symbol" aria-roledescription="text mark" text-anchor="start" transform="translate(205,168.26670515099107)" font-family="sans-serif" font-size="11px" fill="rgb(187, 55, 85)"><tspan>Medium</tspan><tspan x="0" dy="13">1st vs. 3rd Q</tspan></text><text aria-label="modeltype_title: Low:	1st vs. 2nd Quartile; Mean of logitmeandiff: -0.0331707154646; modeltype_shorttitle: Low,1st vs. 2nd Q" role="graphics-symbol" aria-roledescription="text mark" text-anchor="start" transform="translate(205,184.4634128293991)" font-family="sans-serif" font-size="11px" fill="rgb(87, 16, 109)"><tspan>Low</tspan><tspan x="0" dy="13">1st vs. 2nd Q</tspan></text></g><g class="mark-rule role-mark layer_0_layer_3_layer_0_marks" role="graphics-symbol" aria-roledescription="rule mark container"><line transform="translate(200,177.77777777777777)" x2="-200" y2="0" stroke="black" stroke-width="2" stroke-dasharray="4,4"></line></g><g class="mark-line role-mark layer_0_layer_4_layer_0_marks" role="graphics-object" aria-roledescription="line mark container"><path aria-label="x: 0.05; y: 1" role="graphics-symbol" aria-roledescription="line mark" d="M3.3333333333333335,66.66666666666667L63.33333333333333,66.66666666666667" stroke="black" stroke-width="1.5"></path></g><g class="mark-symbol role-mark layer_0_layer_4_layer_1_marks" role="graphics-object" aria-roledescription="symbol mark container"><path aria-label="x: 0.05; y: 1; dir: 270" role="graphics-symbol" aria-roledescription="point" transform="translate(3.3333333333333335,66.66666666666667) rotate(270)" d="M0,-1.8257418583505536L-1.5811388300841898,0.9128709291752769L1.5811388300841898,0.9128709291752769Z" stroke="black" stroke-width="2" opacity="1"></path><path aria-label="x: 0.95; y: 1; dir: 90" role="graphics-symbol" aria-roledescription="point" transform="translate(63.33333333333333,66.66666666666667) rotate(90)" d="M0,-1.8257418583505536L-1.5811388300841898,0.9128709291752769L1.5811388300841898,0.9128709291752769Z" stroke="black" stroke-width="2" opacity="1"></path></g><g class="mark-text role-mark layer_0_layer_5_layer_0_marks" role="graphics-object" aria-roledescription="text mark container"><text text-anchor="middle" transform="translate(33.33333333333333,61.66666666666667)" font-family="sans-serif" font-size="11px" fill="black">Target Length</text></g><g class="mark-text role-mark layer_0_layer_6_layer_0_marks" role="graphics-object" aria-roledescription="text mark container"><text aria-label="x: 0; y: 0.5; text: (62%)" role="graphics-symbol" aria-roledescription="text mark" text-anchor="end" transform="translate(0,136.22222222222223)" font-family="sans-serif" font-size="11px" fill="gray">(62%)</text><text aria-label="x: 0; y: 1; text: (73%)" role="graphics-symbol" aria-roledescription="text mark" text-anchor="end" transform="translate(0,80.66666666666667)" font-family="sans-serif" font-size="11px" fill="gray">(73%)</text><text aria-label="x: 0; y: 1.5; text: (82%)" role="graphics-symbol" aria-roledescription="text mark" text-anchor="end" transform="translate(0,25.111111111111114)" font-family="sans-serif" font-size="11px" fill="gray">(82%)</text></g><g class="mark-group role-legend" role="graphics-symbol" aria-roledescription="legend" aria-label="Symbol legend for fill color and stroke color with 3 values: Low:	1st vs. 2nd Quartile, Medium:	1st vs. 3rd Quartile, High:	1st vs. 4th Quartile"><g transform="translate(5,0.5)"><path class="background" aria-hidden="true" d="M0,0h160v45h-160Z" pointer-events="none"></path><g><g class="mark-group role-legend-entry"><g transform="translate(0,0)"><path class="background" aria-hidden="true" d="M0,0h0v0h0Z" pointer-events="none"></path><g><g class="mark-group role-scope" role="graphics-object" aria-roledescription="group mark container"><g transform="translate(0,0)"><path class="background" aria-hidden="true" d="M0,0h160v12.5h-160Z" pointer-events="none" opacity="1"></path><g><g class="mark-symbol role-legend-symbol" pointer-events="none"><path transform="translate(6,6)" d="M5,0A5,5,0,1,1,-5,0A5,5,0,1,1,5,0" fill="rgb(87, 16, 109)" stroke="rgb(87, 16, 109)" stroke-width="1.5" opacity="0.3"></path></g><g class="mark-text role-legend-label" pointer-events="none"><text text-anchor="start" transform="translate(16,9)" font-family="sans-serif" font-size="10px" fill="#000" opacity="1">Low:	1st vs. 2nd Quartile</text></g></g><path class="foreground" aria-hidden="true" d="" pointer-events="none" display="none"></path></g><g transform="translate(0,16)"><path class="background" aria-hidden="true" d="M0,0h160v12.5h-160Z" pointer-events="none" opacity="1"></path><g><g class="mark-symbol role-legend-symbol" pointer-events="none"><path transform="translate(6,6)" d="M5,0A5,5,0,1,1,-5,0A5,5,0,1,1,5,0" fill="rgb(187, 55, 85)" stroke="rgb(187, 55, 85)" stroke-width="1.5" opacity="0.3"></path></g><g class="mark-text role-legend-label" pointer-events="none"><text text-anchor="start" transform="translate(16,9)" font-family="sans-serif" font-size="10px" fill="#000" opacity="1">Medium:	1st vs. 3rd Quartile</text></g></g><path class="foreground" aria-hidden="true" d="" pointer-events="none" display="none"></path></g><g transform="translate(0,32)"><path class="background" aria-hidden="true" d="M0,0h160v12.5h-160Z" pointer-events="none" opacity="1"></path><g><g class="mark-symbol role-legend-symbol" pointer-events="none"><path transform="translate(6,6)" d="M5,0A5,5,0,1,1,-5,0A5,5,0,1,1,5,0" fill="rgb(250, 141, 11)" stroke="rgb(250, 141, 11)" stroke-width="1.5" opacity="0.3"></path></g><g class="mark-text role-legend-label" pointer-events="none"><text text-anchor="start" transform="translate(16,9)" font-family="sans-serif" font-size="10px" fill="#000" opacity="1">High:	1st vs. 4th Quartile</text></g></g><path class="foreground" aria-hidden="true" d="" pointer-events="none" display="none"></path></g></g></g><path class="foreground" aria-hidden="true" d="" pointer-events="none" display="none"></path></g></g></g><path class="foreground" aria-hidden="true" d="" pointer-events="none" display="none"></path></g></g><g class="mark-group role-title"><g transform="translate(100,-75.5)"><path class="background" aria-hidden="true" d="M0,0h0v0h0Z" pointer-events="none"></path><g><g class="mark-text role-title-text" role="graphics-symbol" aria-roledescription="title" aria-label="Title text 'Salience Classification Accuracy Object Condition'" pointer-events="none"><text text-anchor="middle" transform="translate(0,10)" font-family="sans-serif" font-size="13px" font-weight="bold" fill="#000" opacity="1"><tspan>Salience Classification Accuracy</tspan><tspan x="0" dy="15">Object Condition</tspan></text></g></g><path class="foreground" aria-hidden="true" d="" pointer-events="none" display="none"></path></g></g></g><path class="foreground" aria-hidden="true" d="" display="none"></path></g></g></g></svg>
