<?xml version="1.0" encoding="utf-8"?>
<!DOCTYPE svg PUBLIC "-//W3C//DTD SVG 1.1//EN" "http://www.w3.org/Graphics/SVG/1.1/DTD/svg11.dtd">
<svg class="marks" width="318" height="259" viewBox="0 0 318 259" version="1.1" xmlns="http://www.w3.org/2000/svg" xmlns:xlink="http://www.w3.org/1999/xlink"><rect width="318" height="259" fill="white"></rect><g fill="none" stroke-miterlimit="10" transform="translate(59,22)"><g class="mark-group role-frame root" role="graphics-object" aria-roledescription="group mark container"><g transform="translate(0,0)"><path class="background" aria-hidden="true" d="M0.5,0.5h200v200h-200Z" stroke="#ddd"></path><g><g class="mark-group role-axis" aria-hidden="true"><g transform="translate(0.5,200.5)"><path class="background" aria-hidden="true" d="M0,0h0v0h0Z" pointer-events="none"></path><g><g class="mark-rule role-axis-grid" pointer-events="none"><line transform="translate(0,-200)" x2="0" y2="200" stroke="#ddd" stroke-width="1" opacity="1"></line><line transform="translate(33,-200)" x2="0" y2="200" stroke="#ddd" stroke-width="1" opacity="1"></line><line transform="translate(67,-200)" x2="0" y2="200" stroke="#ddd" stroke-width="1" opacity="1"></line><line transform="translate(100,-200)" x2="0" y2="200" stroke="#ddd" stroke-width="1" opacity="1"></line><line transform="translate(133,-200)" x2="0" y2="200" stroke="#ddd" stroke-width="1" opacity="1"></line><line transform="translate(167,-200)" x2="0" y2="200" stroke="#ddd" stroke-width="1" opacity="1"></line><line transform="translate(200,-200)" x2="0" y2="200" stroke="#ddd" stroke-width="1" opacity="1"></line></g></g><path class="foreground" aria-hidden="true" d="" pointer-events="none" display="none"></path></g></g><g class="mark-group role-axis" aria-hidden="true"><g transform="translate(0.5,0.5)"><path class="background" aria-hidden="true" d="M0,0h0v0h0Z" pointer-events="none"></path><g><g class="mark-rule role-axis-grid" pointer-events="none"><line transform="translate(0,175)" x2="200" y2="0" stroke="#ddd" stroke-width="1" opacity="1"></line><line transform="translate(0,125)" x2="200" y2="0" stroke="#ddd" stroke-width="1" opacity="1"></line><line transform="translate(0,75)" x2="200" y2="0" stroke="#ddd" stroke-width="1" opacity="1"></line><line transform="translate(0,25)" x2="200" y2="0" stroke="#ddd" stroke-width="1" opacity="1"></line></g></g><path class="foreground" aria-hidden="true" d="" pointer-events="none" display="none"></path></g></g><g class="mark-group role-axis" role="graphics-symbol" aria-roledescription="axis" aria-label="X-axis titled 'Time (s) Relative to Target Onset' for a linear scale with values from 0.0 to 3.0"><g transform="translate(0.5,200.5)"><path class="background" aria-hidden="true" d="M0,0h0v0h0Z" pointer-events="none"></path><g><g class="mark-rule role-axis-tick" pointer-events="none"><line transform="translate(0,0)" x2="0" y2="5" stroke="#888" stroke-width="1" opacity="1"></line><line transform="translate(33,0)" x2="0" y2="5" stroke="#888" stroke-width="1" opacity="1"></line><line transform="translate(67,0)" x2="0" y2="5" stroke="#888" stroke-width="1" opacity="1"></line><line transform="translate(100,0)" x2="0" y2="5" stroke="#888" stroke-width="1" opacity="1"></line><line transform="translate(133,0)" x2="0" y2="5" stroke="#888" stroke-width="1" opacity="1"></line><line transform="translate(167,0)" x2="0" y2="5" stroke="#888" stroke-width="1" opacity="1"></line><line transform="translate(200,0)" x2="0" y2="5" stroke="#888" stroke-width="1" opacity="1"></line></g><g class="mark-text role-axis-label" pointer-events="none"><text text-anchor="start" transform="translate(0,15)" font-family="sans-serif" font-size="10px" fill="#000" opacity="1">0.0</text><text text-anchor="middle" transform="translate(33.33333333333333,15)" font-family="sans-serif" font-size="10px" fill="#000" opacity="1">0.5</text><text text-anchor="middle" transform="translate(66.66666666666666,15)" font-family="sans-serif" font-size="10px" fill="#000" opacity="1">1.0</text><text text-anchor="middle" transform="translate(100,15)" font-family="sans-serif" font-size="10px" fill="#000" opacity="1">1.5</text><text text-anchor="middle" transform="translate(133.33333333333331,15)" font-family="sans-serif" font-size="10px" fill="#000" opacity="1">2.0</text><text text-anchor="middle" transform="translate(166.66666666666669,15)" font-family="sans-serif" font-size="10px" fill="#000" opacity="1">2.5</text><text text-anchor="end" transform="translate(200,15)" font-family="sans-serif" font-size="10px" fill="#000" opacity="1">3.0</text></g><g class="mark-rule role-axis-domain" pointer-events="none"><line transform="translate(0,0)" x2="200" y2="0" stroke="#888" stroke-width="1" opacity="1"></line></g><g class="mark-text role-axis-title" pointer-events="none"><text text-anchor="middle" transform="translate(100,30)" font-family="sans-serif" font-size="11px" font-weight="bold" fill="#000" opacity="1">Time (s) Relative to Target Onset</text></g></g><path class="foreground" aria-hidden="true" d="" pointer-events="none" display="none"></path></g></g><g class="mark-group role-axis" role="graphics-symbol" aria-roledescription="axis" aria-label="Y-axis titled 'Hit - Miss (logit scale)' for a linear scale with values from -2 to 3"><g transform="translate(0.5,0.5)"><path class="background" aria-hidden="true" d="M0,0h0v0h0Z" pointer-events="none"></path><g><g class="mark-rule role-axis-tick" pointer-events="none"><line transform="translate(0,175)" x2="-5" y2="0" stroke="#888" stroke-width="1" opacity="1"></line><line transform="translate(0,125)" x2="-5" y2="0" stroke="#888" stroke-width="1" opacity="1"></line><line transform="translate(0,75)" x2="-5" y2="0" stroke="#888" stroke-width="1" opacity="1"></line><line transform="translate(0,25)" x2="-5" y2="0" stroke="#888" stroke-width="1" opacity="1"></line></g><g class="mark-text role-axis-label" pointer-events="none"><text text-anchor="end" transform="translate(-7,178)" font-family="sans-serif" font-size="10px" fill="#000" opacity="1">-1</text><text text-anchor="end" transform="translate(-7,128)" font-family="sans-serif" font-size="10px" fill="#000" opacity="1">0</text><text text-anchor="end" transform="translate(-7,78)" font-family="sans-serif" font-size="10px" fill="#000" opacity="1">1</text><text text-anchor="end" transform="translate(-7,28)" font-family="sans-serif" font-size="10px" fill="#000" opacity="1">2</text></g><g class="mark-rule role-axis-domain" pointer-events="none"><line transform="translate(0,200)" x2="0" y2="-200" stroke="#888" stroke-width="1" opacity="1"></line></g><g class="mark-text role-axis-title" pointer-events="none"><text text-anchor="middle" transform="translate(-21,100) rotate(-90) translate(0,-2)" font-family="sans-serif" font-size="11px" font-weight="bold" fill="#000" opacity="1">Hit - Miss (logit scale)</text></g></g><path class="foreground" aria-hidden="true" d="" pointer-events="none" display="none"></path></g></g><g class="mark-group role-scope layer_0_layer_0_pathgroup" role="graphics-object" aria-roledescription="group mark container"><g transform="translate(0,0)"><path class="background" aria-hidden="true" d="M0,0h200v200h-200Z"></path><g><g class="mark-line role-mark layer_0_layer_0_marks" role="graphics-object" aria-roledescription="line mark container"><path aria-label="condition: global; Time (s) Relative to Target Onset: 0; Hit - Miss (logit scale): -0.111968627332" role="graphics-symbol" aria-roledescription="line mark" d="M0,130.598431366623L3.1746031746031744,138.5852720411866L6.349206349206349,121.81817578088057L9.523809523809524,127.93335822311003L12.698412698412698,121.3187974158004L15.873015873015872,124.67435147420241L19.047619047619047,126.65221996945996L22.22222222222222,131.0782890812407L25.396825396825395,127.75876147797378L28.57142857142857,130.36235486178086L31.746031746031743,122.28612912323304L34.920634920634924,127.90947902392386L38.095238095238095,134.18245649680964L41.26984126984127,136.40937586766827L44.44444444444444,132.34968625920766L47.61904761904762,136.66913426328153L50.79365079365079,153.48055309565933L53.96825396825397,132.19310579159253L57.14285714285714,129.95114717868836L60.317460317460316,140.87190052587405L63.49206349206349,131.85928632217667L66.66666666666666,135.47170534768972L69.84126984126985,116.34025815267404L73.01587301587303,118.60828029085484L76.19047619047619,122.61871262449785L79.36507936507937,135.34804953047296L82.53968253968254,153.03258403702674L85.71428571428572,142.42567804274023L88.88888888888889,148.46954597351262L92.06349206349206,135.0604934061421L95.23809523809524,123.49152983794829L98.41269841269842,139.73541498645997L101.58730158730158,129.40575134083488L104.76190476190477,118.41358162235566L107.93650793650794,143.99262864027267L111.11111111111111,134.73229144896976L114.28571428571428,132.01582014694822L117.46031746031747,156.600961650455L120.63492063492063,150.9148491309845L123.80952380952381,151.04581686496147L126.98412698412697,157.13185225700002L130.15873015873015,148.00322445023858L133.33333333333331,149.33037827435683L136.50793650793648,142.13072562226614L139.6825396825397,129.84718988461083L142.85714285714286,130.41835121274605L146.03174603174605,108.69949947595224L149.20634920634922,119.31929773138359L152.38095238095238,100.00042465460739L155.55555555555557,103.02693016696497L158.73015873015873,109.0854802003439L161.9047619047619,103.1384718348761L165.0793650793651,113.53859032991942L168.25396825396825,97.17779462670674L171.42857142857144,91.55266282475347L174.6031746031746,92.09427305344065L177.77777777777777,86.1829254590262L180.95238095238096,81.96037385866886L184.12698412698413,89.38732665569265L187.3015873015873,92.85908250306885L190.47619047619048,72.74578286304619L193.65079365079364,87.15455539744497L196.82539682539684,88.79289710474455L200,53.24117696307616" stroke="#4c78a8" stroke-width="2"></path></g></g><path class="foreground" aria-hidden="true" d="" display="none"></path></g><g transform="translate(0,0)"><path class="background" aria-hidden="true" d="M0,0h200v200h-200Z"></path><g><g class="mark-line role-mark layer_0_layer_0_marks" role="graphics-object" aria-roledescription="line mark container"><path aria-label="condition: object; Time (s) Relative to Target Onset: 0; Hit - Miss (logit scale): 1.19149840552" role="graphics-symbol" aria-roledescription="line mark" d="M0,65.42507972420223L3.1746031746031744,67.74831774506262L6.349206349206349,79.30567752006795L9.523809523809524,83.09653280278495L12.698412698412698,85.1143002611356L15.873015873015872,82.45680055520866L19.047619047619047,89.83632157885148L22.22222222222222,90.92609766865085L25.396825396825395,86.07663947547795L28.57142857142857,80.35887094329497L31.746031746031743,78.00206886862888L34.920634920634924,80.53778867156399L38.095238095238095,77.86138412711222L41.26984126984127,85.31906332740242L44.44444444444444,77.01931922063412L47.61904761904762,76.05974028202557L50.79365079365079,78.21394274561735L53.96825396825397,64.41113055423757L57.14285714285714,80.11387321237365L60.317460317460316,73.0327517486149L63.49206349206349,81.40452259839375L66.66666666666666,79.23173796378924L69.84126984126985,68.00250832990642L73.01587301587303,60.969919561694354L76.19047619047619,60.182708383801085L79.36507936507937,58.74038732419997L82.53968253968254,60.770129567996854L85.71428571428572,62.14410666570092L88.88888888888889,68.12271465666524L92.06349206349206,58.97408938884965L95.23809523809524,65.04799742951177L98.41269841269842,77.82961498944556L101.58730158730158,70.47605962628518L104.76190476190477,54.65108049428622L107.93650793650794,62.633098618388615L111.11111111111111,64.02757771241765L114.28571428571428,50.32334763353934L117.46031746031747,45.69299830010984L120.63492063492063,67.3060129876156L123.80952380952381,54.62806479729054L126.98412698412697,65.08122996125721L130.15873015873015,54.93471127082008L133.33333333333331,58.12580218459538L136.50793650793648,64.91307832713198L139.6825396825397,63.79745248175897L142.85714285714286,62.533869463599686L146.03174603174605,74.94038791617909L149.20634920634922,52.6845603988745L152.38095238095238,71.13388938110927L155.55555555555557,68.1257729712649L158.73015873015873,51.556821930341854L161.9047619047619,68.12799486697838L165.0793650793651,69.52757691835257L168.25396825396825,71.47150098705963L171.42857142857144,91.947230985197L174.6031746031746,77.28978908482497L177.77777777777777,88.9953901106217L180.95238095238096,90.93346573414766L184.12698412698413,87.52954134230322L187.3015873015873,61.67013221467299L190.47619047619048,75.18312215444425L193.65079365079364,71.95056828300916L196.82539682539684,81.3551057752199L200,75.76068980462303" stroke="#f58518" stroke-width="2"></path></g></g><path class="foreground" aria-hidden="true" d="" display="none"></path></g><g transform="translate(0,0)"><path class="background" aria-hidden="true" d="M0,0h200v200h-200Z"></path><g><g class="mark-line role-mark layer_0_layer_0_marks" role="graphics-object" aria-roledescription="line mark container"><path aria-label="condition: spatial; Time (s) Relative to Target Onset: 0; Hit - Miss (logit scale): 0.651455440323" role="graphics-symbol" aria-roledescription="line mark" d="M0,92.42722798386586L3.1746031746031744,88.18667686485342L6.349206349206349,99.28913249284186L9.523809523809524,97.15887907388793L12.698412698412698,100.45489609683085L15.873015873015872,75.88884487501772L19.047619047619047,86.73430376949618L22.22222222222222,99.92517122665903L25.396825396825395,80.47681551672154L28.57142857142857,75.62650535331072L31.746031746031743,72.566101150998L34.920634920634924,75.10403281008338L38.095238095238095,82.92232057937565L41.26984126984127,83.2848074970024L44.44444444444444,79.36374838620763L47.61904761904762,95.4382857764938L50.79365079365079,98.47125859776322L53.96825396825397,87.41402727940593L57.14285714285714,99.60526586184639L60.317460317460316,81.39782640424554L63.49206349206349,67.89712330902842L66.66666666666666,81.13982355413492L69.84126984126985,57.56346804413699L73.01587301587303,71.75564205781846L76.19047619047619,66.25595331950672L79.36507936507937,48.8371378881691L82.53968253968254,55.49590488949079L85.71428571428572,68.51107347845912L88.88888888888889,72.75833217713081L92.06349206349206,63.85194319879051L95.23809523809524,73.0895071118973L98.41269841269842,81.09255771798611L101.58730158730158,61.13952182807376L104.76190476190477,65.64481301089037L107.93650793650794,72.53580089557803L111.11111111111111,74.77113348174052L114.28571428571428,50.70398494141286L117.46031746031747,42.38545665977122L120.63492063492063,38.1435360486686L123.80952380952381,50.928003925076524L126.98412698412697,45.487599602493574L130.15873015873015,39.954008828638536L133.33333333333331,43.08737093792294L136.50793650793648,57.605600724462946L139.6825396825397,62.63292567450325L142.85714285714286,51.87845310322334L146.03174603174605,81.08419205659408L149.20634920634922,89.12262004783287L152.38095238095238,93.12293430375986L155.55555555555557,109.24400708310473L158.73015873015873,117.92604745160263L161.9047619047619,111.52328687981235L165.0793650793651,108.80915293564881L168.25396825396825,107.33467196169933L171.42857142857144,133.24913491841892L174.6031746031746,115.66222225921972L177.77777777777777,114.80191324773585L180.95238095238096,102.20551820390327L184.12698412698413,125.74251796507845L187.3015873015873,102.67313480530638L190.47619047619048,84.427790421873L193.65079365079364,86.75833875699446L196.82539682539684,104.38880515737947L200,80.05202232595214" stroke="#e45756" stroke-width="2"></path></g></g><path class="foreground" aria-hidden="true" d="" display="none"></path></g></g><g class="mark-group role-scope layer_0_layer_1_layer_0_pathgroup" role="graphics-object" aria-roledescription="group mark container"><g transform="translate(0,0)"><path class="background" aria-hidden="true" d="M0,0h200v200h-200Z"></path><g><g class="mark-area role-mark layer_0_layer_1_layer_0_marks" role="graphics-object" aria-roledescription="area mark container"><path aria-label="Hit - Miss (logit scale): -0.455729272752; upper_hitvmiss: 0.231792018087; condition: global; Time (s) Relative to Target Onset: 0; Mean of hitvmiss: -0.111968627332; Mean + stderr of hitvmiss: 0.231792018087; Mean - stderr of hitvmiss: -0.455729272752" role="graphics-symbol" aria-roledescription="errorband" d="M0,147.78646363761445L3.1746031746031744,155.1688955579723L6.349206349206349,133.14147033115788L9.523809523809524,141.87460744860812L12.698412698412698,137.57757739095175L15.873015873015872,137.7630441659019L19.047619047619047,138.97662415094888L22.22222222222222,145.20829049748272L25.396825396825395,141.16325022171802L28.57142857142857,141.06446521018646L31.746031746031743,133.3672455789084L34.920634920634924,139.7274740438435L38.095238095238095,146.39537067416026L41.26984126984127,148.28879929431992L44.44444444444444,146.7374944978876L47.61904761904762,155.4760668551337L50.79365079365079,169.78425495560722L53.96825396825397,149.45483088483118L57.14285714285714,148.90683089789596L60.317460317460316,155.79910381473596L63.49206349206349,144.68489230985188L66.66666666666666,147.52787788524563L69.84126984126985,129.00578939364135L73.01587301587303,134.9964208395931L76.19047619047619,136.0559345576525L79.36507936507937,147.28890243122103L82.53968253968254,170.17553751934523L85.71428571428572,157.38938646748244L88.88888888888889,164.41245117927363L92.06349206349206,151.02912744588645L95.23809523809524,140.62803567085044L98.41269841269842,162.799343104693L101.58730158730158,148.84735823692785L104.76190476190477,139.90790119116255L107.93650793650794,168.7400266044382L111.11111111111111,158.43766770348503L114.28571428571428,152.61795353993176L117.46031746031747,181.5785407760218L120.63492063492063,177.25621793583474L123.80952380952381,176.86328986818503L126.98412698412697,181.02742182100897L130.15873015873015,172.90926759665473L133.33333333333331,175.48638979933165L136.50793650793648,171.23299199991195L139.6825396825397,157.29293776186813L142.85714285714286,156.6003791078748L146.03174603174605,136.32407608992813L149.20634920634922,147.85307738932127L152.38095238095238,124.81258785589296L155.55555555555557,128.6106545441919L158.73015873015873,140.87327409993853L161.9047619047619,137.82022653922058L165.0793650793651,145.74178810090405L168.25396825396825,131.07132997800642L171.42857142857144,127.5603045705263L174.6031746031746,124.78433828044567L177.77777777777777,120.1599903952617L180.95238095238096,115.75629381282377L184.12698412698413,121.09781434350244L187.3015873015873,123.17297210098116L190.47619047619048,107.56304871099303L193.65079365079364,125.2146694351633L196.82539682539684,121.85926991818914L200,86.2249698285042L200,20.257384097648128L196.82539682539684,55.72652429130001L193.65079365079364,49.0944413597266L190.47619047619048,37.928517015099345L187.3015873015873,62.54519290515652L184.12698412698413,57.67683896788287L180.95238095238096,48.16445390451389L177.77777777777777,52.20586052279069L174.6031746031746,59.40420782643561L171.42857142857144,55.545021078980625L168.25396825396825,63.28425927540708L165.0793650793651,81.33539255893476L161.9047619047619,68.45671713053162L158.73015873015873,77.29768630074925L155.55555555555557,77.44320578973807L152.38095238095238,75.18826145332187L149.20634920634922,90.78551807344589L146.03174603174605,81.07492286197635L142.85714285714286,104.23632331761735L139.6825396825397,102.40144200735352L136.50793650793648,113.02845924462031L133.33333333333331,123.174366749382L130.15873015873015,123.09718130382241L126.98412698412697,133.23628269299107L123.80952380952381,125.22834386173787L120.63492063492063,124.57348032613424L117.46031746031747,131.6233825248882L114.28571428571428,111.41368675396465L111.11111111111111,111.02691519445452L107.93650793650794,119.24523067610713L104.76190476190477,96.91926205354879L101.58730158730158,109.96414444474192L98.41269841269842,116.67148686822695L95.23809523809524,106.3550240050461L92.06349206349206,119.09185936639774L88.88888888888889,132.52664076775162L85.71428571428572,127.46196961799808L82.53968253968254,135.88963055470822L79.36507936507937,123.40719662972491L76.19047619047619,109.18149069134317L73.01587301587303,102.22013974211657L69.84126984126985,103.67472691170671L66.66666666666666,123.41553281013383L63.49206349206349,119.03368033450153L60.317460317460316,125.94469723701214L57.14285714285714,110.99546345948079L53.96825396825397,114.93138069835389L50.79365079365079,137.17685123571144L47.61904761904762,117.86220167142936L44.44444444444444,117.96187802052769L41.26984126984127,124.52995244101666L38.095238095238095,121.96954231945902L34.920634920634924,116.09148400400424L31.746031746031743,111.20501266755767L28.57142857142857,119.66024451337525L25.396825396825395,114.35427273422951L22.22222222222222,116.94828766499872L19.047619047619047,114.32781578797105L15.873015873015872,111.58565878250289L12.698412698412698,105.06001744064903L9.523809523809524,113.99210899761194L6.349206349206349,110.49488123060326L3.1746031746031744,122.00164852440092L0,113.41039909563153Z" fill="#4c78a8" opacity="0.3"></path></g></g><path class="foreground" aria-hidden="true" d="" display="none"></path></g><g transform="translate(0,0)"><path class="background" aria-hidden="true" d="M0,0h200v200h-200Z"></path><g><g class="mark-area role-mark layer_0_layer_1_layer_0_marks" role="graphics-object" aria-roledescription="area mark container"><path aria-label="Hit - Miss (logit scale): 0.602190439716; upper_hitvmiss: 1.78080637132; condition: object; Time (s) Relative to Target Onset: 0; Mean of hitvmiss: 1.19149840552; Mean + stderr of hitvmiss: 1.78080637132; Mean - stderr of hitvmiss: 0.602190439716" role="graphics-symbol" aria-roledescription="errorband" d="M0,94.89047801420827L3.1746031746031744,99.03109495119946L6.349206349206349,110.95757666430224L9.523809523809524,113.34057973563989L12.698412698412698,114.41802981629326L15.873015873015872,112.57432219621562L19.047619047619047,118.47633470854848L22.22222222222222,123.52986795867034L25.396825396825395,111.15244318982656L28.57142857142857,105.32604043843614L31.746031746031743,106.47261844904412L34.920634920634924,104.0325504601469L38.095238095238095,108.19674976758726L41.26984126984127,113.44357675391325L44.44444444444444,108.89990983105706L47.61904761904762,109.39081221510867L50.79365079365079,110.25070858783042L53.96825396825397,93.09699948975465L57.14285714285714,104.59705987168802L60.317460317460316,97.32356593937462L63.49206349206349,106.14086743296905L66.66666666666666,103.44293795420421L69.84126984126985,97.74347696984135L73.01587301587303,92.2844520520948L76.19047619047619,90.949862749628L79.36507936507937,88.44455017283019L82.53968253968254,89.78806209871617L85.71428571428572,87.78294211915718L88.88888888888889,99.12606553436748L92.06349206349206,92.37843885822707L95.23809523809524,99.70181020999567L98.41269841269842,109.9745687545348L101.58730158730158,101.06755346179224L104.76190476190477,89.95198360575667L107.93650793650794,97.70662196752933L111.11111111111111,99.09205395897823L114.28571428571428,83.36562917565642L117.46031746031747,81.01776138804236L120.63492063492063,99.0812558638246L123.80952380952381,90.50932922940689L126.98412698412697,96.1717058781101L130.15873015873015,90.35183208725522L133.33333333333331,94.39713436413493L136.50793650793648,99.50205082478583L139.6825396825397,100.67266991364194L142.85714285714286,96.60286754620735L146.03174603174605,103.91278659020975L149.20634920634922,87.28620406704428L152.38095238095238,106.59530714874963L155.55555555555557,100.27990523784389L158.73015873015873,91.82236194259599L161.9047619047619,103.93048045400002L165.0793650793651,101.12133667382459L168.25396825396825,101.03881546272338L171.42857142857144,121.53949848136314L174.6031746031746,112.19482401967711L177.77777777777777,129.2951163422837L180.95238095238096,129.67073470038062L184.12698412698413,123.32825264113198L187.3015873015873,101.55494518989805L190.47619047619048,115.52611823856725L193.65079365079364,107.54071686825142L196.82539682539684,123.43412042292248L200,114.90080261450346L200,36.62057699474262L196.82539682539684,39.27609112751729L193.65079365079364,36.3604196977669L190.47619047619048,34.84012607032123L187.3015873015873,21.78531923944793L184.12698412698413,51.730830043474455L180.95238095238096,52.196196767914714L177.77777777777777,48.69566387895969L174.6031746031746,42.384754149972835L171.42857142857144,62.354963489030844L168.25396825396825,41.90418651139591L165.0793650793651,37.93381716288054L161.9047619047619,32.32550927995675L158.73015873015873,11.29128191808772L155.55555555555557,35.971640704685925L152.38095238095238,35.672471613468886L149.20634920634922,18.08291673070474L146.03174603174605,45.96798924214842L142.85714285714286,28.464871380992008L139.6825396825397,26.922235049875994L136.50793650793648,30.32410582947813L133.33333333333331,21.85447000505583L130.15873015873015,19.517590454384944L126.98412698412697,33.990754044404305L123.80952380952381,18.746800365174195L120.63492063492063,35.53077011140664L117.46031746031747,10.368235212177353L114.28571428571428,17.28106609142226L111.11111111111111,28.963101465857108L107.93650793650794,27.5595752692479L104.76190476190477,19.3501773828158L101.58730158730158,39.88456579077815L98.41269841269842,45.68466122435632L95.23809523809524,30.394184649027835L92.06349206349206,25.569739919472227L88.88888888888889,37.119363778963034L85.71428571428572,36.50527121224463L82.53968253968254,31.75219703727756L79.36507936507937,29.036224475569767L76.19047619047619,29.415554017974173L73.01587301587303,29.655387071293873L69.84126984126985,38.26153968997148L66.66666666666666,55.020537973374275L63.49206349206349,56.66817776381843L60.317460317460316,48.74193755785517L57.14285714285714,55.63068655305927L53.96825396825397,35.725261618720495L50.79365079365079,46.17717690340433L47.61904761904762,42.72866834894246L44.44444444444444,45.138728610211174L41.26984126984127,57.19454990089159L38.095238095238095,47.526018486637156L34.920634920634924,57.04302688298106L31.746031746031743,49.531519288213644L28.57142857142857,55.391701448153796L25.396825396825395,61.00083576112931L22.22222222222222,58.322327378631385L19.047619047619047,61.196308449154515L15.873015873015872,52.33927891420165L12.698412698412698,55.810570705977945L9.523809523809524,52.852485869930035L6.349206349206349,47.653778375833625L3.1746031746031744,36.46554053892579L0,35.95968143419621Z" fill="#f58518" opacity="0.3"></path></g></g><path class="foreground" aria-hidden="true" d="" display="none"></path></g><g transform="translate(0,0)"><path class="background" aria-hidden="true" d="M0,0h200v200h-200Z"></path><g><g class="mark-area role-mark layer_0_layer_1_layer_0_marks" role="graphics-object" aria-roledescription="area mark container"><path aria-label="Hit - Miss (logit scale): 0.18772997009; upper_hitvmiss: 1.11518091056; condition: spatial; Time (s) Relative to Target Onset: 0; Mean of hitvmiss: 0.651455440323; Mean + stderr of hitvmiss: 1.11518091056; Mean - stderr of hitvmiss: 0.18772997009" role="graphics-symbol" aria-roledescription="errorband" d="M0,115.61350149550589L3.1746031746031744,108.24524774565987L6.349206349206349,120.88894390037711L9.523809523809524,118.58943743673906L12.698412698412698,121.39125532263337L15.873015873015872,97.14765736030589L19.047619047619047,106.343188968793L22.22222222222222,118.8460996651365L25.396825396825395,98.89915677258958L28.57142857142857,95.74400069318392L31.746031746031743,93.22853950994347L34.920634920634924,98.65551937663975L38.095238095238095,108.202922960008L41.26984126984127,106.16583657056555L44.44444444444444,103.6038957024916L47.61904761904762,121.02867710228269L50.79365079365079,127.22957471129284L53.96825396825397,116.55161169025344L57.14285714285714,131.74416851481107L60.317460317460316,111.59012145564493L63.49206349206349,96.50301723454638L66.66666666666666,108.9454800951549L69.84126984126985,84.49032565785537L73.01587301587303,93.42397677667553L76.19047619047619,93.3540437021426L79.36507936507937,75.37966595756598L82.53968253968254,81.16869018449009L85.71428571428572,89.18875651977433L88.88888888888889,96.06217514705806L92.06349206349206,93.62638285675277L95.23809523809524,104.11905504877186L98.41269841269842,113.695798444579L101.58730158730158,90.3662841989966L104.76190476190477,94.00185741634513L107.93650793650794,101.68303447964546L111.11111111111111,105.11409905924232L114.28571428571428,81.59581842659077L117.46031746031747,67.75076272696123L120.63492063492063,62.6912927254085L123.80952380952381,75.6906321972409L126.98412698412697,71.28012040407414L130.15873015873015,60.57379091271113L133.33333333333331,62.39790005734558L136.50793650793648,74.99730703402672L139.6825396825397,81.36377564327111L142.85714285714286,71.05434234028812L146.03174603174605,100.58305819414406L149.20634920634922,108.03497462855451L152.38095238095238,112.61554300532421L155.55555555555557,133.12533312884233L158.73015873015873,147.2080025473562L161.9047619047619,138.826512366443L165.0793650793651,135.98139258171003L168.25396825396825,135.65931346497413L171.42857142857144,163.25765898794018L174.6031746031746,146.07615546454076L177.77777777777777,144.46072362539516L180.95238095238096,133.7791928872955L184.12698412698413,159.2562443846699L187.3015873015873,133.52321851173224L190.47619047619048,129.13583877456182L193.65079365079364,130.56167872938548L196.82539682539684,151.10340307989554L200,126.63038651877645L200,33.473658133127856L196.82539682539684,57.67420723486339L193.65079365079364,42.95499878460345L190.47619047619048,39.71974206918421L187.3015873015873,71.8230510988805L184.12698412698413,92.22879154548696L180.95238095238096,70.63184352051104L177.77777777777777,85.14310287007656L174.6031746031746,85.24828905389865L171.42857142857144,103.24061084889765L168.25396825396825,79.01003045842452L165.0793650793651,81.63691328958758L161.9047619047619,84.2200613931817L158.73015873015873,88.64409235584904L155.55555555555557,85.36268103736711L152.38095238095238,73.63032560219551L149.20634920634922,70.21026546711124L146.03174603174605,61.58532591904411L142.85714285714286,32.70256386615857L139.6825396825397,43.902075705735385L136.50793650793648,40.21389441489917L133.33333333333331,23.77684181850033L130.15873015873015,19.33422674456593L126.98412698412697,19.695078800913038L123.80952380952381,26.165375652912147L120.63492063492063,13.595779371928707L117.46031746031747,17.020150592581217L114.28571428571428,19.812151456234957L111.11111111111111,44.428167904238734L107.93650793650794,43.3885673115106L104.76190476190477,37.28776860543563L101.58730158730158,31.912759457150926L98.41269841269842,48.489316991393196L95.23809523809524,42.05995917502274L92.06349206349206,34.07750354082826L88.88888888888889,49.454489207203565L85.71428571428572,47.83339043714392L82.53968253968254,29.82311959449151L79.36507936507937,22.29460981877223L76.19047619047619,39.15786293687085L73.01587301587303,50.08730733896138L69.84126984126985,30.636610430418628L66.66666666666666,53.33416701311491L63.49206349206349,39.29122938351046L60.317460317460316,51.20553135284611L57.14285714285714,67.4663632088817L53.96825396825397,58.27644286855844L50.79365079365079,69.7129424842336L47.61904761904762,69.8478944507049L44.44444444444444,55.12360106992369L41.26984126984127,60.40377842343925L38.095238095238095,57.641718198743305L34.920634920634924,51.55254624352703L31.746031746031743,51.903662792052515L28.57142857142857,55.50901001343753L25.396825396825395,62.05447426085353L22.22222222222222,81.00424278818159L19.047619047619047,67.12541857019939L15.873015873015872,54.630032389729564L12.698412698412698,79.51853687102832L9.523809523809524,75.72832071103682L6.349206349206349,77.68932108530657L3.1746031746031744,68.128105984047L0,69.24095447222585Z" fill="#e45756" opacity="0.3"></path></g></g><path class="foreground" aria-hidden="true" d="" display="none"></path></g></g><g class="mark-text role-mark layer_0_layer_2_marks" role="graphics-object" aria-roledescription="text mark container"><text aria-label="condition: global; Mean of hitvmiss: 0.639696416203" role="graphics-symbol" aria-roledescription="text mark" text-anchor="start" transform="translate(205,96.01517918986848)" font-family="sans-serif" font-size="11px" fill="#4c78a8">global</text><text aria-label="condition: object; Mean of hitvmiss: 1.02324334948" role="graphics-symbol" aria-roledescription="text mark" text-anchor="start" transform="translate(205,76.83783252606139)" font-family="sans-serif" font-size="11px" fill="#f58518">object</text><text aria-label="condition: spatial; Mean of hitvmiss: 0.397595154441" role="graphics-symbol" aria-roledescription="text mark" text-anchor="start" transform="translate(205,108.12024227796013)" font-family="sans-serif" font-size="11px" fill="#e45756">spatial</text></g><g class="mark-rule role-mark layer_0_layer_3_layer_0_marks" role="graphics-symbol" aria-roledescription="rule mark container"><line transform="translate(200,125)" x2="-200" y2="0" stroke="black" stroke-width="2" stroke-dasharray="4,4"></line></g><g class="mark-line role-mark layer_0_layer_4_layer_0_marks" role="graphics-object" aria-roledescription="line mark container"><path aria-label="x: 0.05; y: 0.25" role="graphics-symbol" aria-roledescription="line mark" d="M3.3333333333333335,112.5L63.33333333333333,112.5" stroke="black" stroke-width="1.5"></path></g><g class="mark-symbol role-mark layer_0_layer_4_layer_1_marks" role="graphics-object" aria-roledescription="symbol mark container"><path aria-label="x: 0.05; y: 0.25; dir: 270" role="graphics-symbol" aria-roledescription="point" transform="translate(3.3333333333333335,112.5) rotate(270)" d="M0,-1.8257418583505536L-1.5811388300841898,0.9128709291752769L1.5811388300841898,0.9128709291752769Z" stroke="black" stroke-width="2" opacity="1"></path><path aria-label="x: 0.95; y: 0.25; dir: 90" role="graphics-symbol" aria-roledescription="point" transform="translate(63.33333333333333,112.5) rotate(90)" d="M0,-1.8257418583505536L-1.5811388300841898,0.9128709291752769L1.5811388300841898,0.9128709291752769Z" stroke="black" stroke-width="2" opacity="1"></path></g><g class="mark-text role-mark layer_0_layer_5_layer_0_marks" role="graphics-object" aria-roledescription="text mark container"><text text-anchor="middle" transform="translate(33.33333333333333,107.5)" font-family="sans-serif" font-size="11px" fill="black">Target Length</text></g><g class="mark-group role-title"><g transform="translate(100,-17)"><path class="background" aria-hidden="true" d="M0,0h0v0h0Z" pointer-events="none"></path><g><g class="mark-text role-title-text" role="graphics-symbol" aria-roledescription="title" aria-label="Title text 'Low/High Salience Classification Accuracy'" pointer-events="none"><text text-anchor="middle" transform="translate(0,10)" font-family="sans-serif" font-size="13px" font-weight="bold" fill="#000" opacity="1">Low/High Salience Classification Accuracy</text></g></g><path class="foreground" aria-hidden="true" d="" pointer-events="none" display="none"></path></g></g></g><path class="foreground" aria-hidden="true" d="" display="none"></path></g></g></g></svg>
