<?xml version="1.0" encoding="utf-8"?>
<!DOCTYPE svg PUBLIC "-//W3C//DTD SVG 1.1//EN" "http://www.w3.org/Graphics/SVG/1.1/DTD/svg11.dtd">
<svg class="marks" width="661" height="316" viewBox="0 0 661 316" version="1.1" xmlns="http://www.w3.org/2000/svg" xmlns:xlink="http://www.w3.org/1999/xlink"><rect width="661" height="316" fill="white"></rect><g fill="none" stroke-miterlimit="10" transform="translate(65,57)"><g class="mark-group role-frame root" role="graphics-object" aria-roledescription="group mark container"><g transform="translate(0,0)"><path class="background" aria-hidden="true" d="M0,0h0v0h0Z"></path><g><g class="mark-group role-row-header row_header" role="graphics-object" aria-roledescription="group mark container"><g transform="translate(-7,0)"><path class="background" aria-hidden="true" d="M0,0h0v200h0Z"></path><g><g class="mark-group role-axis" role="graphics-symbol" aria-roledescription="axis" aria-label="Y-axis titled '% Correct (Null-Model Corrected)' for a linear scale with values from 50 to 100"><g transform="translate(0.5,0.5)"><path class="background" aria-hidden="true" d="M0,0h0v0h0Z" pointer-events="none"></path><g><g class="mark-rule role-axis-tick" pointer-events="none"><line transform="translate(0,200)" x2="-5" y2="0" stroke="#888" stroke-width="1" opacity="1"></line><line transform="translate(0,160)" x2="-5" y2="0" stroke="#888" stroke-width="1" opacity="1"></line><line transform="translate(0,120)" x2="-5" y2="0" stroke="#888" stroke-width="1" opacity="1"></line><line transform="translate(0,80)" x2="-5" y2="0" stroke="#888" stroke-width="1" opacity="1"></line><line transform="translate(0,40)" x2="-5" y2="0" stroke="#888" stroke-width="1" opacity="1"></line><line transform="translate(0,0)" x2="-5" y2="0" stroke="#888" stroke-width="1" opacity="1"></line></g><g class="mark-text role-axis-label" pointer-events="none"><text text-anchor="end" transform="translate(-7,203)" font-family="sans-serif" font-size="10px" fill="#000" opacity="1">50</text><text text-anchor="end" transform="translate(-7,163)" font-family="sans-serif" font-size="10px" fill="#000" opacity="1">60</text><text text-anchor="end" transform="translate(-7,123)" font-family="sans-serif" font-size="10px" fill="#000" opacity="1">70</text><text text-anchor="end" transform="translate(-7,83)" font-family="sans-serif" font-size="10px" fill="#000" opacity="1">80</text><text text-anchor="end" transform="translate(-7,42.99999999999999)" font-family="sans-serif" font-size="10px" fill="#000" opacity="1">90</text><text text-anchor="end" transform="translate(-7,3)" font-family="sans-serif" font-size="10px" fill="#000" opacity="1">100</text></g><g class="mark-rule role-axis-domain" pointer-events="none"><line transform="translate(0,200)" x2="0" y2="-200" stroke="#888" stroke-width="1" opacity="1"></line></g><g class="mark-text role-axis-title" pointer-events="none"><text text-anchor="middle" transform="translate(-42,100) rotate(-90) translate(0,-2)" font-family="sans-serif" font-size="11px" font-weight="bold" fill="#000" opacity="1"><tspan>% Correct</tspan><tspan x="0" dy="13">(Null-Model Corrected)</tspan></text></g></g><path class="foreground" aria-hidden="true" d="" pointer-events="none" display="none"></path></g></g></g><path class="foreground" aria-hidden="true" d="" display="none"></path></g></g><g class="mark-group role-column-header column_header" role="graphics-object" aria-roledescription="group mark container"><g transform="translate(0,-1)"><path class="background" aria-hidden="true" d="M0,0h200v0h-200Z"></path><g><g class="mark-group role-title"><g transform="translate(100,-20)"><path class="background" aria-hidden="true" d="M0,0h0v0h0Z" pointer-events="none"></path><g><g class="mark-text role-title-text" role="graphics-symbol" aria-roledescription="title" aria-label="Title text 'hit'" pointer-events="none"><text text-anchor="middle" transform="translate(0,8)" font-family="sans-serif" font-size="10px" fill="#000" opacity="1">hit</text></g></g><path class="foreground" aria-hidden="true" d="" pointer-events="none" display="none"></path></g></g></g><path class="foreground" aria-hidden="true" d="" display="none"></path></g><g transform="translate(309,-1)"><path class="background" aria-hidden="true" d="M0,0h200v0h-200Z"></path><g><g class="mark-group role-title"><g transform="translate(100,-20)"><path class="background" aria-hidden="true" d="M0,0h0v0h0Z" pointer-events="none"></path><g><g class="mark-text role-title-text" role="graphics-symbol" aria-roledescription="title" aria-label="Title text 'miss'" pointer-events="none"><text text-anchor="middle" transform="translate(0,8)" font-family="sans-serif" font-size="10px" fill="#000" opacity="1">miss</text></g></g><path class="foreground" aria-hidden="true" d="" pointer-events="none" display="none"></path></g></g></g><path class="foreground" aria-hidden="true" d="" display="none"></path></g></g><g class="mark-group role-column-footer column_footer" role="graphics-object" aria-roledescription="group mark container"><g transform="translate(0,222)"><path class="background" aria-hidden="true" d="M0,0h200v0h-200Z"></path><g><g class="mark-group role-axis" role="graphics-symbol" aria-roledescription="axis" aria-label="X-axis titled 'Time (s) Relative to Target Onset' for a linear scale with values from 0.0 to 3.0"><g transform="translate(0.5,0.5)"><path class="background" aria-hidden="true" d="M0,0h0v0h0Z" pointer-events="none"></path><g><g class="mark-rule role-axis-tick" pointer-events="none"><line transform="translate(0,0)" x2="0" y2="5" stroke="#888" stroke-width="1" opacity="1"></line><line transform="translate(33,0)" x2="0" y2="5" stroke="#888" stroke-width="1" opacity="1"></line><line transform="translate(67,0)" x2="0" y2="5" stroke="#888" stroke-width="1" opacity="1"></line><line transform="translate(100,0)" x2="0" y2="5" stroke="#888" stroke-width="1" opacity="1"></line><line transform="translate(133,0)" x2="0" y2="5" stroke="#888" stroke-width="1" opacity="1"></line><line transform="translate(167,0)" x2="0" y2="5" stroke="#888" stroke-width="1" opacity="1"></line><line transform="translate(200,0)" x2="0" y2="5" stroke="#888" stroke-width="1" opacity="1"></line></g><g class="mark-text role-axis-label" pointer-events="none"><text text-anchor="start" transform="translate(0,15)" font-family="sans-serif" font-size="10px" fill="#000" opacity="1">0.0</text><text text-anchor="middle" transform="translate(33.33333333333333,15)" font-family="sans-serif" font-size="10px" fill="#000" opacity="1">0.5</text><text text-anchor="middle" transform="translate(66.66666666666666,15)" font-family="sans-serif" font-size="10px" fill="#000" opacity="1">1.0</text><text text-anchor="middle" transform="translate(100,15)" font-family="sans-serif" font-size="10px" fill="#000" opacity="1">1.5</text><text text-anchor="middle" transform="translate(133.33333333333331,15)" font-family="sans-serif" font-size="10px" fill="#000" opacity="1">2.0</text><text text-anchor="middle" transform="translate(166.66666666666669,15)" font-family="sans-serif" font-size="10px" fill="#000" opacity="1">2.5</text><text text-anchor="end" transform="translate(200,15)" font-family="sans-serif" font-size="10px" fill="#000" opacity="1">3.0</text></g><g class="mark-rule role-axis-domain" pointer-events="none"><line transform="translate(0,0)" x2="200" y2="0" stroke="#888" stroke-width="1" opacity="1"></line></g><g class="mark-text role-axis-title" pointer-events="none"><text text-anchor="middle" transform="translate(100,30)" font-family="sans-serif" font-size="11px" font-weight="bold" fill="#000" opacity="1">Time (s) Relative to Target Onset</text></g></g><path class="foreground" aria-hidden="true" d="" pointer-events="none" display="none"></path></g></g></g><path class="foreground" aria-hidden="true" d="" display="none"></path></g><g transform="translate(309,222)"><path class="background" aria-hidden="true" d="M0,0h200v0h-200Z"></path><g><g class="mark-group role-axis" role="graphics-symbol" aria-roledescription="axis" aria-label="X-axis titled 'Time (s) Relative to Target Onset' for a linear scale with values from 0.0 to 3.0"><g transform="translate(0.5,0.5)"><path class="background" aria-hidden="true" d="M0,0h0v0h0Z" pointer-events="none"></path><g><g class="mark-rule role-axis-tick" pointer-events="none"><line transform="translate(0,0)" x2="0" y2="5" stroke="#888" stroke-width="1" opacity="1"></line><line transform="translate(33,0)" x2="0" y2="5" stroke="#888" stroke-width="1" opacity="1"></line><line transform="translate(67,0)" x2="0" y2="5" stroke="#888" stroke-width="1" opacity="1"></line><line transform="translate(100,0)" x2="0" y2="5" stroke="#888" stroke-width="1" opacity="1"></line><line transform="translate(133,0)" x2="0" y2="5" stroke="#888" stroke-width="1" opacity="1"></line><line transform="translate(167,0)" x2="0" y2="5" stroke="#888" stroke-width="1" opacity="1"></line><line transform="translate(200,0)" x2="0" y2="5" stroke="#888" stroke-width="1" opacity="1"></line></g><g class="mark-text role-axis-label" pointer-events="none"><text text-anchor="start" transform="translate(0,15)" font-family="sans-serif" font-size="10px" fill="#000" opacity="1">0.0</text><text text-anchor="middle" transform="translate(33.33333333333333,15)" font-family="sans-serif" font-size="10px" fill="#000" opacity="1">0.5</text><text text-anchor="middle" transform="translate(66.66666666666666,15)" font-family="sans-serif" font-size="10px" fill="#000" opacity="1">1.0</text><text text-anchor="middle" transform="translate(100,15)" font-family="sans-serif" font-size="10px" fill="#000" opacity="1">1.5</text><text text-anchor="middle" transform="translate(133.33333333333331,15)" font-family="sans-serif" font-size="10px" fill="#000" opacity="1">2.0</text><text text-anchor="middle" transform="translate(166.66666666666669,15)" font-family="sans-serif" font-size="10px" fill="#000" opacity="1">2.5</text><text text-anchor="end" transform="translate(200,15)" font-family="sans-serif" font-size="10px" fill="#000" opacity="1">3.0</text></g><g class="mark-rule role-axis-domain" pointer-events="none"><line transform="translate(0,0)" x2="200" y2="0" stroke="#888" stroke-width="1" opacity="1"></line></g><g class="mark-text role-axis-title" pointer-events="none"><text text-anchor="middle" transform="translate(100,30)" font-family="sans-serif" font-size="11px" font-weight="bold" fill="#000" opacity="1">Time (s) Relative to Target Onset</text></g></g><path class="foreground" aria-hidden="true" d="" pointer-events="none" display="none"></path></g></g></g><path class="foreground" aria-hidden="true" d="" display="none"></path></g></g><g class="mark-group role-scope cell" role="graphics-object" aria-roledescription="group mark container"><g transform="translate(0,0)"><path class="background" aria-hidden="true" d="M0.5,0.5h200v200h-200Z" stroke="#ddd"></path><g><g class="mark-group role-axis" aria-hidden="true"><g transform="translate(0.5,200.5)"><path class="background" aria-hidden="true" d="M0,0h0v0h0Z" pointer-events="none"></path><g><g class="mark-rule role-axis-grid" pointer-events="none"><line transform="translate(0,-200)" x2="0" y2="200" stroke="#ddd" stroke-width="1" opacity="1"></line><line transform="translate(33,-200)" x2="0" y2="200" stroke="#ddd" stroke-width="1" opacity="1"></line><line transform="translate(67,-200)" x2="0" y2="200" stroke="#ddd" stroke-width="1" opacity="1"></line><line transform="translate(100,-200)" x2="0" y2="200" stroke="#ddd" stroke-width="1" opacity="1"></line><line transform="translate(133,-200)" x2="0" y2="200" stroke="#ddd" stroke-width="1" opacity="1"></line><line transform="translate(167,-200)" x2="0" y2="200" stroke="#ddd" stroke-width="1" opacity="1"></line><line transform="translate(200,-200)" x2="0" y2="200" stroke="#ddd" stroke-width="1" opacity="1"></line></g></g><path class="foreground" aria-hidden="true" d="" pointer-events="none" display="none"></path></g></g><g class="mark-group role-axis" aria-hidden="true"><g transform="translate(0.5,0.5)"><path class="background" aria-hidden="true" d="M0,0h0v0h0Z" pointer-events="none"></path><g><g class="mark-rule role-axis-grid" pointer-events="none"><line transform="translate(0,200)" x2="200" y2="0" stroke="#ddd" stroke-width="1" opacity="1"></line><line transform="translate(0,160)" x2="200" y2="0" stroke="#ddd" stroke-width="1" opacity="1"></line><line transform="translate(0,120)" x2="200" y2="0" stroke="#ddd" stroke-width="1" opacity="1"></line><line transform="translate(0,80)" x2="200" y2="0" stroke="#ddd" stroke-width="1" opacity="1"></line><line transform="translate(0,40)" x2="200" y2="0" stroke="#ddd" stroke-width="1" opacity="1"></line><line transform="translate(0,0)" x2="200" y2="0" stroke="#ddd" stroke-width="1" opacity="1"></line></g></g><path class="foreground" aria-hidden="true" d="" pointer-events="none" display="none"></path></g></g><g class="mark-group role-scope child_layer_0_pathgroup" role="graphics-object" aria-roledescription="group mark container"><g transform="translate(0,0)"><path class="background" aria-hidden="true" d="M0,0h200v200h-200Z"></path><g><g class="mark-line role-mark child_layer_0_marks" role="graphics-object" aria-roledescription="line mark container"><path aria-label="modeltype_title: High:	1st vs. 4th Quartile; Time (s) Relative to Target Onset: 0; % Correct, (Null-Model Corrected): 51.846337264" role="graphics-symbol" aria-roledescription="line mark" d="M0,192.6146509441498L3.1746031746031744,189.88417942506925L6.349206349206349,189.1949697142365L9.523809523809524,188.64222366521247L12.698412698412698,188.52189787126497L15.873015873015872,188.3707772148225L19.047619047619047,188.04018988714444L22.22222222222222,187.32465379220537L25.396825396825395,188.31160673927218L28.57142857142857,189.35506248342872L31.746031746031743,188.90026138356873L34.920634920634924,188.8192797472702L38.095238095238095,188.1470705229769L41.26984126984127,185.43999322726276L44.44444444444444,183.33283724809854L47.61904761904762,180.9335617171594L50.79365079365079,179.62659381835138L53.96825396825397,178.97273459866463L57.14285714285714,172.86260236350452L60.317460317460316,176.73216606648077L63.49206349206349,177.41686144052832L66.66666666666666,174.95453558683556L69.84126984126985,169.96893526293672L73.01587301587303,163.49310921180333L76.19047619047619,160.50853365039438L79.36507936507937,164.6253368958132L82.53968253968254,172.13343713902006L85.71428571428572,176.0282173021472L88.88888888888889,172.94567265904058L92.06349206349206,176.6501515656059L95.23809523809524,176.76184093989562L98.41269841269842,176.23177839104682L101.58730158730158,178.28406464477737L104.76190476190477,174.88808241260102L107.93650793650794,176.6249046233686L111.11111111111111,178.35245446711227L114.28571428571428,172.47789322900456L117.46031746031747,164.69260837415717L120.63492063492063,163.10381397107085L123.80952380952381,154.8498063511303L126.98412698412697,149.49244700410787L130.15873015873015,135.96996741838097L133.33333333333331,124.31117641183624L136.50793650793648,115.79796231290027L139.6825396825397,105.61613345025624L142.85714285714286,101.46997989914775L146.03174603174605,97.19212194674458L149.20634920634922,92.03515324257205L152.38095238095238,83.12701832082008L155.55555555555557,80.00043968882784L158.73015873015873,74.53379411726524L161.9047619047619,70.62299816136033L165.0793650793651,61.93244274786069L168.25396825396825,60.10854050404993L171.42857142857144,53.70355407636844L174.6031746031746,48.35786837642458L177.77777777777777,42.27561865549872L180.95238095238096,40.84088521448614L184.12698412698413,37.84173101258374L187.3015873015873,34.49181824288217L190.47619047619048,31.48379562749557L193.65079365079364,31.94977161657311L196.82539682539684,32.96504485634699L200,31.598045667394793" stroke="rgb(87, 16, 109)" stroke-width="2"></path></g></g><path class="foreground" aria-hidden="true" d="" display="none"></path></g><g transform="translate(0,0)"><path class="background" aria-hidden="true" d="M0,0h200v200h-200Z"></path><g><g class="mark-line role-mark child_layer_0_marks" role="graphics-object" aria-roledescription="line mark container"><path aria-label="modeltype_title: Medium:	1st vs. 3rd Quartile; Time (s) Relative to Target Onset: 0; % Correct, (Null-Model Corrected): 52.7202002023" role="graphics-symbol" aria-roledescription="line mark" d="M0,189.11919919074657L3.1746031746031744,189.1663522677586L6.349206349206349,189.1663522677586L9.523809523809524,189.55632686039516L12.698412698412698,189.55714542087912L15.873015873015872,189.1663522677586L19.047619047619047,189.1663522677586L22.22222222222222,189.58865532207446L25.396825396825395,189.25827187205067L28.57142857142857,189.58975004371774L31.746031746031743,189.11619654683125L34.920634920634924,189.46991650605898L38.095238095238095,189.0365045825377L41.26984126984127,189.5620808312974L44.44444444444444,189.180751106486L47.61904761904762,189.6073011418065L50.79365079365079,189.4713779526777L53.96825396825397,189.47977070490472L57.14285714285714,189.40193498637996L60.317460317460316,189.24009607763472L63.49206349206349,189.2594275253011L66.66666666666666,189.69623930806176L69.84126984126985,189.0973328335899L73.01587301587303,188.91029257820892L76.19047619047619,189.11690851778124L79.36507936507937,188.37457283826416L82.53968253968254,188.67220719877977L85.71428571428572,187.1814956492285L88.88888888888889,186.73501161792615L92.06349206349206,186.43636347279053L95.23809523809524,186.1734923930782L98.41269841269842,184.6809446119928L101.58730158730158,182.91005624230047L104.76190476190477,178.04514367706847L107.93650793650794,179.82509439956624L111.11111111111111,181.39365343392862L114.28571428571428,181.1733098335068L117.46031746031747,181.433157148053L120.63492063492063,180.26055670356567L123.80952380952381,176.8590736390619L126.98412698412697,174.0835073797487L130.15873015873015,175.36156254991334L133.33333333333331,167.71071687885555L136.50793650793648,160.7240993654843L139.6825396825397,148.27717697632582L142.85714285714286,142.3258038043603L146.03174603174605,146.44956402893908L149.20634920634922,149.93124426150953L152.38095238095238,140.43386163104037L155.55555555555557,137.8681201065778L158.73015873015873,140.67216308279092L161.9047619047619,132.83981178303338L165.0793650793651,132.85327577287296L168.25396825396825,125.83204313477067L171.42857142857144,124.18760859955502L174.6031746031746,121.28953318639645L177.77777777777777,121.3651633402328L180.95238095238096,122.86747645122938L184.12698412698413,118.41900109242522L187.3015873015873,117.78060613932651L190.47619047619048,115.12308619794057L193.65079365079364,113.21252697647468L196.82539682539684,116.37949805652043L200,110.06818583236412" stroke="rgb(187, 55, 85)" stroke-width="2"></path></g></g><path class="foreground" aria-hidden="true" d="" display="none"></path></g><g transform="translate(0,0)"><path class="background" aria-hidden="true" d="M0,0h200v200h-200Z"></path><g><g class="mark-line role-mark child_layer_0_marks" role="graphics-object" aria-roledescription="line mark container"><path aria-label="modeltype_title: Low:	1st vs. 2nd Quartile; Time (s) Relative to Target Onset: 0; % Correct, (Null-Model Corrected): 52.6472969606" role="graphics-symbol" aria-roledescription="line mark" d="M0,189.41081215759343L3.1746031746031744,189.91768449669468L6.349206349206349,189.38785110061266L9.523809523809524,189.63288613676053L12.698412698412698,189.5156252850537L15.873015873015872,189.18568371542491L19.047619047619047,189.27735957217774L22.22222222222222,188.56562070182576L25.396825396825395,189.38785110061266L28.57142857142857,189.40258718340164L31.746031746031743,189.16651270571177L34.920634920634924,189.1663522677586L38.095238095238095,189.04872344092294L41.26984126984127,189.1663522677586L44.44444444444444,190.04016751103956L47.61904761904762,189.1663522677586L50.79365079365079,189.1663522677586L53.96825396825397,189.1663522677586L57.14285714285714,189.1080231701972L60.317460317460316,189.37293154868627L63.49206349206349,189.52301429342867L66.66666666666666,190.95574788765325L69.84126984126985,189.40425083286638L73.01587301587303,189.70658433689798L76.19047619047619,189.83019220566317L79.36507936507937,189.1663522677586L82.53968253968254,189.32590287024647L85.71428571428572,189.30294456713182L88.88888888888889,189.46577121098534L92.06349206349206,190.33181551084004L95.23809523809524,190.05632381750132L98.41269841269842,189.89694947760427L101.58730158730158,189.5476866230635L104.76190476190477,189.94524936874262L107.93650793650794,189.77686326315333L111.11111111111111,190.12191417358557L114.28571428571428,190.4754833570321L117.46031746031747,191.08488579771745L120.63492063492063,190.1545487632797L123.80952380952381,189.3692632134207L126.98412698412697,191.11647422825013L130.15873015873015,193.8555293645271L133.33333333333331,192.35798991204265L136.50793650793648,189.89933882587152L139.6825396825397,191.8671009238877L142.85714285714286,193.1334806558529L146.03174603174605,186.9357286095226L149.20634920634922,186.6733458978956L152.38095238095238,186.16311761780156L155.55555555555557,179.916261081104L158.73015873015873,180.90608147841849L161.9047619047619,185.6472511010016L165.0793650793651,185.11470370825336L168.25396825396825,187.96251081824784L171.42857142857144,187.6782531753873L174.6031746031746,179.2075010345251L177.77777777777777,177.28689275502293L180.95238095238096,177.19442765982296L184.12698412698413,179.04839049045896L187.3015873015873,179.94974488312542L190.47619047619048,169.19418644716515L193.65079365079364,167.52778888055516L196.82539682539684,163.6137484206674L200,164.44355926157172" stroke="rgb(250, 141, 11)" stroke-width="2"></path></g></g><path class="foreground" aria-hidden="true" d="" display="none"></path></g></g><g class="mark-group role-scope child_layer_1_layer_0_pathgroup" role="graphics-object" aria-roledescription="group mark container"><g transform="translate(0,0)"><path class="background" aria-hidden="true" d="M0,0h200v200h-200Z"></path><g><g class="mark-area role-mark child_layer_1_layer_0_marks" role="graphics-object" aria-roledescription="area mark container"><path aria-label="% Correct, (Null-Model Corrected): 51.1939874173; upper_meancor: 52.4986871106; modeltype_title: High:	1st vs. 4th Quartile; Time (s) Relative to Target Onset: 0; Mean of meancor: 51.846337264; Mean + stderr of meancor: 52.4986871106; Mean - stderr of meancor: 51.1939874173" role="graphics-symbol" aria-roledescription="errorband" d="M0,195.2240503308188L3.1746031746031744,192.38673673134042L6.349206349206349,191.02273208107013L9.523809523809524,190.23884390033672L12.698412698412698,189.8621766057158L15.873015873015872,189.19386781895852L19.047619047619047,188.9477585434734L22.22222222222222,188.59386308222741L25.396825396825395,190.0373735199473L28.57142857142857,190.5399155055683L31.746031746031743,189.52177400435102L34.920634920634924,189.85635326767672L38.095238095238095,189.33818915717836L41.26984126984127,187.1616484976506L44.44444444444444,186.0024723614599L47.61904761904762,184.56426111216683L50.79365079365079,183.27734610256724L53.96825396825397,183.36052140657324L57.14285714285714,179.00360736006783L60.317460317460316,182.2208341595041L63.49206349206349,182.3374356642573L66.66666666666666,179.84269017918194L69.84126984126985,175.92972084912904L73.01587301587303,170.3902922215623L76.19047619047619,167.8175222054911L79.36507936507937,171.81072660887864L82.53968253968254,177.1730927967245L85.71428571428572,180.57243455188933L88.88888888888889,178.26247043844748L92.06349206349206,180.88456539337966L95.23809523809524,180.7284270741293L98.41269841269842,180.3229016997601L101.58730158730158,182.85014228844744L104.76190476190477,180.3052446599958L107.93650793650794,181.88907648834277L111.11111111111111,183.39397660761904L114.28571428571428,177.9733469521565L117.46031746031747,170.9662883761408L120.63492063492063,169.7715832467723L123.80952380952381,161.80186931701192L126.98412698412697,157.03118413548492L130.15873015873015,144.1718983777023L133.33333333333331,132.0249509371978L136.50793650793648,123.61629726716639L139.6825396825397,112.9824730302118L142.85714285714286,109.34081781685472L146.03174603174605,105.66248709057726L149.20634920634922,100.2885045205649L152.38095238095238,91.37410205042596L155.55555555555557,87.67737464382117L158.73015873015873,82.32294286582767L161.9047619047619,78.13126424070902L165.0793650793651,69.48395539994272L168.25396825396825,67.7206269403277L171.42857142857144,60.9843660518576L174.6031746031746,55.29893251021787L177.77777777777777,48.399783659790565L180.95238095238096,47.16029673671551L184.12698412698413,43.60997846729235L187.3015873015873,39.969401562824316L190.47619047619048,35.844023180818915L193.65079365079364,36.81773549344467L196.82539682539684,38.10590139712888L200,36.4218496184388L200,26.774241716350787L196.82539682539684,27.824188315565102L193.65079365079364,27.081807739701567L190.47619047619048,27.123568074172223L187.3015873015873,29.01423492294004L184.12698412698413,32.073483557875136L180.95238095238096,34.5214736922568L177.77777777777777,36.15145365120684L174.6031746031746,41.41680424263126L171.42857142857144,46.42274210087931L168.25396825396825,52.49645406777217L165.0793650793651,54.38093009577869L161.9047619047619,63.114732082011635L158.73015873015873,66.74464536870283L155.55555555555557,72.32350473383451L152.38095238095238,74.87993459121418L149.20634920634922,83.78180196457919L146.03174603174605,88.7217568029119L142.85714285714286,93.59914198144077L139.6825396825397,98.24979387030072L136.50793650793648,107.97962735863416L133.33333333333331,116.5974018864747L130.15873015873015,127.76803645905966L126.98412698412697,141.95370987273083L123.80952380952381,147.89774338524867L120.63492063492063,156.4360446953694L117.46031746031747,158.41892837217355L114.28571428571428,166.98243950585262L111.11111111111111,173.3109323266055L107.93650793650794,171.36073275839442L104.76190476190477,169.47092016520625L101.58730158730158,173.7179870011073L98.41269841269842,172.14065508233352L95.23809523809524,172.79525480566193L92.06349206349206,172.41573773783216L88.88888888888889,167.62887487963368L85.71428571428572,171.48400005240507L82.53968253968254,167.09378148131563L79.36507936507937,157.43994718274777L76.19047619047619,153.19954509529768L73.01587301587303,156.59592620204435L69.84126984126985,164.0081496767444L66.66666666666666,170.06638099448918L63.49206349206349,172.49628721679935L60.317460317460316,171.24349797345744L57.14285714285714,166.7215973669412L53.96825396825397,174.58494779075602L50.79365079365079,175.97584153413553L47.61904761904762,177.30286232215195L44.44444444444444,180.6632021347372L41.26984126984127,183.71833795687493L38.095238095238095,186.95595188877542L34.920634920634924,187.78220622686368L31.746031746031743,188.27874876278645L28.57142857142857,188.17020946128915L25.396825396825395,186.58583995859706L22.22222222222222,186.05544450218332L19.047619047619047,187.13262123081546L15.873015873015872,187.5476866106865L12.698412698412698,187.18161913681413L9.523809523809524,187.04560343008822L6.349206349206349,187.36720734740285L3.1746031746031744,187.38162211879808L0,190.00525155748076Z" fill="rgb(87, 16, 109)" opacity="0.3"></path></g></g><path class="foreground" aria-hidden="true" d="" display="none"></path></g><g transform="translate(0,0)"><path class="background" aria-hidden="true" d="M0,0h200v200h-200Z"></path><g><g class="mark-area role-mark child_layer_1_layer_0_marks" role="graphics-object" aria-roledescription="area mark container"><path aria-label="% Correct, (Null-Model Corrected): 52.6697306151; upper_meancor: 52.7706697895; modeltype_title: Medium:	1st vs. 3rd Quartile; Time (s) Relative to Target Onset: 0; Mean of meancor: 52.7202002023; Mean + stderr of meancor: 52.7706697895; Mean - stderr of meancor: 52.6697306151" role="graphics-symbol" aria-roledescription="errorband" d="M0,189.32107753952775L3.1746031746031744,189.1663522677586L6.349206349206349,189.1663522677586L9.523809523809524,189.73976214262606L12.698412698412698,190.03267593563163L15.873015873015872,189.1663522677586L19.047619047619047,189.1663522677586L22.22222222222222,189.94259753866635L25.396825396825395,189.35019147634273L28.57142857142857,189.92986397156056L31.746031746031743,189.28873703788292L34.920634920634924,189.69696493102316L38.095238095238095,189.45161962630655L41.26984126984127,189.83647559335137L44.44444444444444,189.35255526495732L47.61904761904762,190.04825001585436L50.79365079365079,189.99469722008016L53.96825396825397,189.71586497512146L57.14285714285714,189.57334354103767L60.317460317460316,189.4177433216476L63.49206349206349,189.4897459878368L66.66666666666666,190.03494599225132L69.84126984126985,189.27332386723168L73.01587301587303,189.28879682821815L76.19047619047619,189.65985478759794L79.36507936507937,189.17227428027553L82.53968253968254,189.6055231840781L85.71428571428572,188.39849293181L88.88888888888889,187.79890436053836L92.06349206349206,188.16118576323532L95.23809523809524,188.19511382715052L98.41269841269842,187.2896877323795L101.58730158730158,186.4863792612487L104.76190476190477,181.94534691485916L107.93650793650794,183.91033249562116L111.11111111111111,184.11710742453812L114.28571428571428,184.69329404095475L117.46031746031747,186.00468037122118L120.63492063492063,185.52311304212407L123.80952380952381,181.90653490616938L126.98412698412697,179.43091850289318L130.15873015873015,180.58090603912626L133.33333333333331,173.23775859215903L136.50793650793648,166.20146657529656L139.6825396825397,153.69000644849817L142.85714285714286,147.51181277395906L146.03174603174605,150.86671924475388L149.20634920634922,154.41448610406798L152.38095238095238,145.8204919555517L155.55555555555557,144.98767683760664L158.73015873015873,148.31780001793396L161.9047619047619,139.59672869906206L165.0793650793651,140.3853727779719L168.25396825396825,133.70326820291513L171.42857142857144,132.1220946258057L174.6031746031746,128.7610844220986L177.77777777777777,129.9211470427897L180.95238095238096,131.36579467461104L184.12698412698413,127.81278574764605L187.3015873015873,127.70796778208376L190.47619047619048,124.36273956406767L193.65079365079364,123.32693808571827L196.82539682539684,125.8994611939396L200,119.00751505777932L200,101.12885660694894L196.82539682539684,106.85953491910129L193.65079365079364,103.0981158672311L190.47619047619048,105.88343283181341L187.3015873015873,107.85324449656923L184.12698412698413,109.02521643720439L180.95238095238096,114.36915822784772L177.77777777777777,112.80917963767591L174.6031746031746,113.81798195069433L171.42857142857144,116.25312257330434L168.25396825396825,117.96081806662625L165.0793650793651,125.32117876777403L161.9047619047619,126.0828948670047L158.73015873015873,133.02652614764787L155.55555555555557,130.748563375549L152.38095238095238,135.04723130652906L149.20634920634922,145.4480024189511L146.03174603174605,142.03240881312428L142.85714285714286,137.13979483476152L139.6825396825397,142.86434750415344L136.50793650793648,155.24673215567205L133.33333333333331,162.18367516555207L130.15873015873015,170.14221906070043L126.98412698412697,168.73609625660424L123.80952380952381,171.81161237195442L120.63492063492063,174.99800036500727L117.46031746031747,176.8616339248848L114.28571428571428,177.65332562605886L111.11111111111111,178.67019944331912L107.93650793650794,175.73985630351132L104.76190476190477,174.14494043927778L101.58730158730158,179.33373322335225L98.41269841269842,182.0722014916061L95.23809523809524,184.15187095900586L92.06349206349206,184.71154118234574L88.88888888888889,185.67111887531394L85.71428571428572,185.964498366647L82.53968253968254,187.73889121348145L79.36507936507937,187.57687139625278L76.19047619047619,188.57396224796454L73.01587301587303,188.5317883281997L69.84126984126985,188.9213417999481L66.66666666666666,189.3575326238722L63.49206349206349,189.0291090627654L60.317460317460316,189.06244883362183L57.14285714285714,189.23052643172224L53.96825396825397,189.24367643468798L50.79365079365079,188.94805868527524L47.61904761904762,189.1663522677586L44.44444444444444,189.0089469480147L41.26984126984127,189.28768606924345L38.095238095238095,188.62138953876885L34.920634920634924,189.2428680810948L31.746031746031743,188.94365605577957L28.57142857142857,189.24963611587492L25.396825396825395,189.1663522677586L22.22222222222222,189.23471310548257L19.047619047619047,189.1663522677586L15.873015873015872,189.1663522677586L12.698412698412698,189.08161490612662L9.523809523809524,189.37289157816426L6.349206349206349,189.1663522677586L3.1746031746031744,189.1663522677586L0,188.9173208419654Z" fill="rgb(187, 55, 85)" opacity="0.3"></path></g></g><path class="foreground" aria-hidden="true" d="" display="none"></path></g><g transform="translate(0,0)"><path class="background" aria-hidden="true" d="M0,0h200v200h-200Z"></path><g><g class="mark-area role-mark child_layer_1_layer_0_marks" role="graphics-object" aria-roledescription="area mark container"><path aria-label="% Correct, (Null-Model Corrected): 52.541289913; upper_meancor: 52.7533040082; modeltype_title: Low:	1st vs. 2nd Quartile; Time (s) Relative to Target Onset: 0; Mean of meancor: 52.6472969606; Mean + stderr of meancor: 52.7533040082; Mean - stderr of meancor: 52.541289913" role="graphics-symbol" aria-roledescription="errorband" d="M0,189.8348403479747L3.1746031746031744,190.50286762712872L6.349206349206349,189.60934993346672L9.523809523809524,190.0982292854601L12.698412698412698,189.96988901294753L15.873015873015872,189.33269396638804L19.047619047619047,189.3883668765969L22.22222222222222,188.97053917138533L25.396825396825395,189.60934993346672L28.57142857142857,189.68195519488643L31.746031746031743,189.32676136585857L34.920634920634924,189.1663522677586L38.095238095238095,189.1663522677586L41.26984126984127,189.1663522677586L44.44444444444444,190.91398275432047L47.61904761904762,189.1663522677586L50.79365079365079,189.1663522677586L53.96825396825397,189.1663522677586L57.14285714285714,189.9014017891123L60.317460317460316,190.46134993541443L63.49206349206349,189.72067946153155L66.66666666666666,192.00050886391742L69.84126984126985,189.84111490961655L73.01587301587303,190.15596411119358L76.19047619047619,190.3375356770246L79.36507936507937,189.1663522677586L82.53968253968254,189.52773966425895L85.71428571428572,189.49046791573986L88.88888888888889,190.1616128724101L92.06349206349206,191.18033345555614L95.23809523809524,190.7240509653774L98.41269841269842,190.40456104406235L101.58730158730158,189.83353179227646L104.76190476190477,190.48408775352632L107.93650793650794,190.2026719564514L111.11111111111111,190.84952537509514L114.28571428571428,191.10271259496162L117.46031746031747,192.18594257919392L120.63492063492063,191.2506386117757L123.80952380952381,191.07465760577722L126.98412698412697,194.5679681998176L130.15873015873015,197.26543700826295L133.33333333333331,196.03882644790994L136.50793650793648,193.72015553726945L139.6825396825397,196.08490312866L142.85714285714286,198.4007826851782L146.03174603174605,192.1861281295491L149.20634920634922,192.7736905237129L152.38095238095238,191.94209003975357L155.55555555555557,185.8982186459146L158.73015873015873,187.3188112048669L161.9047619047619,191.4715144947157L165.0793650793651,190.41880930752797L168.25396825396825,193.32158066149708L171.42857142857144,193.05415319898097L174.6031746031746,184.79757324101126L177.77777777777777,183.16505317467954L180.95238095238096,182.1845238943561L184.12698412698413,185.53093686104037L187.3015873015873,187.07895494386L190.47619047619048,175.7670966598719L193.65079365079364,173.45968509059918L196.82539682539684,169.8752628153708L200,170.84098309542117L200,158.04613542772228L196.82539682539684,157.352234025964L193.65079365079364,161.59589267051115L190.47619047619048,162.6212762344584L187.3015873015873,172.82053482239084L184.12698412698413,172.56584411987754L180.95238095238096,172.20433142528984L177.77777777777777,171.40873233536632L174.6031746031746,173.61742882803895L171.42857142857144,182.30235315179365L168.25396825396825,182.6034409749986L165.0793650793651,179.81059810897875L161.9047619047619,179.82298770728747L158.73015873015873,174.49335175197007L155.55555555555557,173.93430351629343L152.38095238095238,180.38414519584956L149.20634920634922,180.57300127207827L146.03174603174605,181.68532908949612L142.85714285714286,187.8661786265276L139.6825396825397,187.64929871911542L136.50793650793648,186.0785221144736L133.33333333333331,188.67715337617537L130.15873015873015,190.44562172079122L126.98412698412697,187.66498025668264L123.80952380952381,187.6638688210642L120.63492063492063,189.0584589147837L117.46031746031747,189.98382901624097L114.28571428571428,189.84825411910256L111.11111111111111,189.394302972076L107.93650793650794,189.35105456985525L104.76190476190477,189.40641098395892L101.58730158730158,189.26184145385054L98.41269841269842,189.38933791114619L95.23809523809524,189.38859666962526L92.06349206349206,189.48329756612395L88.88888888888889,188.76992954956057L85.71428571428572,189.11542121852378L82.53968253968254,189.124066076234L79.36507936507937,189.1663522677586L76.19047619047619,189.32284873430174L73.01587301587303,189.25720456260237L69.84126984126985,188.9673867561162L66.66666666666666,189.91098691138907L63.49206349206349,189.3253491253258L60.317460317460316,188.2845131619581L57.14285714285714,188.31464455128213L53.96825396825397,189.1663522677586L50.79365079365079,189.1663522677586L47.61904761904762,189.1663522677586L44.44444444444444,189.16635226775864L41.26984126984127,189.1663522677586L38.095238095238095,188.93109461408727L34.920634920634924,189.1663522677586L31.746031746031743,189.00626404556496L28.57142857142857,189.12321917191684L25.396825396825395,189.1663522677586L22.22222222222222,188.1607022322662L19.047619047619047,189.16635226775858L15.873015873015872,189.0386734644618L12.698412698412698,189.06136155715984L9.523809523809524,189.16754298806097L6.349206349206349,189.1663522677586L3.1746031746031744,189.33250136626063L0,188.98678396721215Z" fill="rgb(250, 141, 11)" opacity="0.3"></path></g></g><path class="foreground" aria-hidden="true" d="" display="none"></path></g></g><g class="mark-text role-mark child_layer_2_marks" role="graphics-object" aria-roledescription="text mark container"><text aria-label="modeltype_title: High:	1st vs. 4th Quartile; Mean of meancor: 83.4305698863; modeltype_shorttitle: High,1st vs. 4th Q" role="graphics-symbol" aria-roledescription="text mark" text-anchor="start" transform="translate(205,69.27772045461057)" font-family="sans-serif" font-size="11px" fill="rgb(87, 16, 109)"><tspan>High</tspan><tspan x="0" dy="13">1st vs. 4th Q</tspan></text><text aria-label="modeltype_title: Medium:	1st vs. 3rd Quartile; Mean of meancor: 66.7883640555; modeltype_shorttitle: Medium,1st vs. 3rd Q" role="graphics-symbol" aria-roledescription="text mark" text-anchor="start" transform="translate(205,135.84654377795306)" font-family="sans-serif" font-size="11px" fill="rgb(187, 55, 85)"><tspan>Medium</tspan><tspan x="0" dy="13">1st vs. 3rd Q</tspan></text><text aria-label="modeltype_title: Low:	1st vs. 2nd Quartile; Mean of meancor: 53.6547556488; modeltype_shorttitle: Low,1st vs. 2nd Q" role="graphics-symbol" aria-roledescription="text mark" text-anchor="start" transform="translate(205,188.38097740462746)" font-family="sans-serif" font-size="11px" fill="rgb(250, 141, 11)"><tspan>Low</tspan><tspan x="0" dy="13">1st vs. 2nd Q</tspan></text></g><g class="mark-rule role-mark child_layer_3_layer_0_marks" role="graphics-symbol" aria-roledescription="rule mark container"><line transform="translate(200,189.1663522677586)" x2="-200" y2="0" stroke="black" stroke-width="2" stroke-dasharray="4,4"></line></g><g class="mark-line role-mark child_layer_4_layer_0_marks" role="graphics-object" aria-roledescription="line mark container"><path aria-label="x: 0.05; y: 70" role="graphics-symbol" aria-roledescription="line mark" d="M3.3333333333333335,120L63.33333333333333,120" stroke="black" stroke-width="1.5"></path></g><g class="mark-symbol role-mark child_layer_4_layer_1_marks" role="graphics-object" aria-roledescription="symbol mark container"><path aria-label="x: 0.05; y: 70; dir: 270" role="graphics-symbol" aria-roledescription="point" transform="translate(3.3333333333333335,120) rotate(270)" d="M0,-1.8257418583505536L-1.5811388300841898,0.9128709291752769L1.5811388300841898,0.9128709291752769Z" stroke="black" stroke-width="2" opacity="1"></path><path aria-label="x: 0.95; y: 70; dir: 90" role="graphics-symbol" aria-roledescription="point" transform="translate(63.33333333333333,120) rotate(90)" d="M0,-1.8257418583505536L-1.5811388300841898,0.9128709291752769L1.5811388300841898,0.9128709291752769Z" stroke="black" stroke-width="2" opacity="1"></path></g><g class="mark-text role-mark child_layer_5_layer_0_marks" role="graphics-object" aria-roledescription="text mark container"><text text-anchor="middle" transform="translate(33.33333333333333,115)" font-family="sans-serif" font-size="11px" fill="black">Target Length</text></g><g class="mark-text role-mark child_layer_6_layer_0_marks" role="graphics-object" aria-roledescription="text mark container"><text text-anchor="middle" transform="translate(133.33333333333331,203.1663522677586)" font-family="sans-serif" font-size="11px" fill="black"><tspan>Mean Accuracy</tspan><tspan x="0" dy="13">of Null Model</tspan></text></g></g><path class="foreground" aria-hidden="true" d="" display="none"></path></g><g transform="translate(309,0)"><path class="background" aria-hidden="true" d="M0.5,0.5h200v200h-200Z" stroke="#ddd"></path><g><g class="mark-group role-axis" aria-hidden="true"><g transform="translate(0.5,200.5)"><path class="background" aria-hidden="true" d="M0,0h0v0h0Z" pointer-events="none"></path><g><g class="mark-rule role-axis-grid" pointer-events="none"><line transform="translate(0,-200)" x2="0" y2="200" stroke="#ddd" stroke-width="1" opacity="1"></line><line transform="translate(33,-200)" x2="0" y2="200" stroke="#ddd" stroke-width="1" opacity="1"></line><line transform="translate(67,-200)" x2="0" y2="200" stroke="#ddd" stroke-width="1" opacity="1"></line><line transform="translate(100,-200)" x2="0" y2="200" stroke="#ddd" stroke-width="1" opacity="1"></line><line transform="translate(133,-200)" x2="0" y2="200" stroke="#ddd" stroke-width="1" opacity="1"></line><line transform="translate(167,-200)" x2="0" y2="200" stroke="#ddd" stroke-width="1" opacity="1"></line><line transform="translate(200,-200)" x2="0" y2="200" stroke="#ddd" stroke-width="1" opacity="1"></line></g></g><path class="foreground" aria-hidden="true" d="" pointer-events="none" display="none"></path></g></g><g class="mark-group role-axis" aria-hidden="true"><g transform="translate(0.5,0.5)"><path class="background" aria-hidden="true" d="M0,0h0v0h0Z" pointer-events="none"></path><g><g class="mark-rule role-axis-grid" pointer-events="none"><line transform="translate(0,200)" x2="200" y2="0" stroke="#ddd" stroke-width="1" opacity="1"></line><line transform="translate(0,160)" x2="200" y2="0" stroke="#ddd" stroke-width="1" opacity="1"></line><line transform="translate(0,120)" x2="200" y2="0" stroke="#ddd" stroke-width="1" opacity="1"></line><line transform="translate(0,80)" x2="200" y2="0" stroke="#ddd" stroke-width="1" opacity="1"></line><line transform="translate(0,40)" x2="200" y2="0" stroke="#ddd" stroke-width="1" opacity="1"></line><line transform="translate(0,0)" x2="200" y2="0" stroke="#ddd" stroke-width="1" opacity="1"></line></g></g><path class="foreground" aria-hidden="true" d="" pointer-events="none" display="none"></path></g></g><g class="mark-group role-scope child_layer_0_pathgroup" role="graphics-object" aria-roledescription="group mark container"><g transform="translate(0,0)"><path class="background" aria-hidden="true" d="M0,0h200v200h-200Z"></path><g><g class="mark-line role-mark child_layer_0_marks" role="graphics-object" aria-roledescription="line mark container"><path aria-label="modeltype_title: High:	1st vs. 4th Quartile; Time (s) Relative to Target Onset: 0; % Correct, (Null-Model Corrected): 51.3952470699" role="graphics-symbol" aria-roledescription="line mark" d="M0,194.41901172046786L3.1746031746031744,209.40306994638593L6.349206349206349,193.93459203354524L9.523809523809524,193.92846327030063L12.698412698412698,190.97691083880179L15.873015873015872,191.19469840380555L19.047619047619047,193.54705863309033L22.22222222222222,189.70893216285822L25.396825396825395,188.14699631288767L28.57142857142857,191.67589149624533L31.746031746031743,194.64075490685954L34.920634920634924,202.37809350632023L38.095238095238095,196.29032167361217L41.26984126984127,190.67870777822552L44.44444444444444,208.20367121037572L47.61904761904762,197.35365805809187L50.79365079365079,201.89188215211448L53.96825396825397,204.01115722508553L57.14285714285714,203.36157907201252L60.317460317460316,197.0239578593613L63.49206349206349,195.91061939981606L66.66666666666666,185.57274769264768L69.84126984126985,185.028450424183L73.01587301587303,184.05184975867013L76.19047619047619,188.07436398354966L79.36507936507937,197.26711425004788L82.53968253968254,197.0085353843845L85.71428571428572,196.13829901139948L88.88888888888889,193.6178349636392L92.06349206349206,190.2531884189635L95.23809523809524,189.72283809774032L98.41269841269842,191.86027654985517L101.58730158730158,193.4656910229533L104.76190476190477,190.31384554524956L107.93650793650794,193.4026403220639L111.11111111111111,190.4573512793479L114.28571428571428,183.84464370011247L117.46031746031747,179.73157571211456L120.63492063492063,184.6457505552591L123.80952380952381,174.56658605932992L126.98412698412697,165.22788287658472L130.15873015873015,161.68053971349175L133.33333333333331,155.73879199347724L136.50793650793648,134.40298460233825L139.6825396825397,128.75681508952647L142.85714285714286,124.89890440902036L146.03174603174605,128.35689788026707L149.20634920634922,125.57427607673128L152.38095238095238,121.20907838365042L155.55555555555557,126.63109251518972L158.73015873015873,120.25240637561399L161.9047619047619,107.09550013976235L165.0793650793651,108.26426379806281L168.25396825396825,99.4946158393538L171.42857142857144,100.36243044023121L174.6031746031746,82.68971094692381L177.77777777777777,83.41259832318553L180.95238095238096,83.26832105006004L184.12698412698413,83.13595718214577L187.3015873015873,78.6193764158142L190.47619047619048,76.88819365486705L193.65079365079364,73.99245353706954L196.82539682539684,71.6027703213054L200,64.21924524508933" stroke="rgb(87, 16, 109)" stroke-width="2"></path></g></g><path class="foreground" aria-hidden="true" d="" display="none"></path></g><g transform="translate(0,0)"><path class="background" aria-hidden="true" d="M0,0h200v200h-200Z"></path><g><g class="mark-line role-mark child_layer_0_marks" role="graphics-object" aria-roledescription="line mark container"><path aria-label="modeltype_title: Medium:	1st vs. 3rd Quartile; Time (s) Relative to Target Onset: 0; % Correct, (Null-Model Corrected): 51.6825243621" role="graphics-symbol" aria-roledescription="line mark" d="M0,193.26990255147447L3.1746031746031744,195.77885119038382L6.349206349206349,195.97979406492317L9.523809523809524,196.51858887830835L12.698412698412698,193.40822813562573L15.873015873015872,194.0681835964936L19.047619047619047,195.15607208423592L22.22222222222222,188.55465272736666L25.396825396825395,189.4205568435355L28.57142857142857,193.28070676184842L31.746031746031743,193.8048483151677L34.920634920634924,194.3817907848889L38.095238095238095,194.65778163332809L41.26984126984127,194.86492976330575L44.44444444444444,194.038491618236L47.61904761904762,192.0197828018436L50.79365079365079,191.08450421006393L53.96825396825397,189.16288717028047L57.14285714285714,192.31314555130933L60.317460317460316,194.74289383772089L63.49206349206349,193.98825712004316L66.66666666666666,197.88981234994006L69.84126984126985,195.43514711850796L73.01587301587303,190.8731445165031L76.19047619047619,190.97306108962806L79.36507936507937,196.6237309535537L82.53968253968254,197.96504965189885L85.71428571428572,198.30219610601446L88.88888888888889,186.67483018311668L92.06349206349206,177.20318882062878L95.23809523809524,179.9810347253527L98.41269841269842,175.90616742801075L101.58730158730158,171.17329966610322L104.76190476190477,169.77082818785934L107.93650793650794,169.92509336185609L111.11111111111111,164.57808015556685L114.28571428571428,167.41218953417288L117.46031746031747,165.32570513601365L120.63492063492063,158.78567094979695L123.80952380952381,153.95652434506144L126.98412698412697,158.45612493380614L130.15873015873015,147.9260718957139L133.33333333333331,143.7948219343465L136.50793650793648,131.7656793403733L139.6825396825397,133.54114079121524L142.85714285714286,137.26006398378053L146.03174603174605,134.41360521697086L149.20634920634922,134.5653065543703L152.38095238095238,131.70563842812493L155.55555555555557,129.88988386579706L158.73015873015873,126.09955736321079L161.9047619047619,128.98941946827597L165.0793650793651,123.46166296079177L168.25396825396825,125.41379505371064L171.42857142857144,116.22438051594001L174.6031746031746,114.1016743140331L177.77777777777777,119.0753307640001L180.95238095238096,124.20056758857083L184.12698412698413,114.6221346806654L187.3015873015873,105.93559324078842L190.47619047619048,104.90099751040214L193.65079365079364,100.23165991269536L196.82539682539684,98.9278057132895L200,101.09360222758647" stroke="rgb(187, 55, 85)" stroke-width="2"></path></g></g><path class="foreground" aria-hidden="true" d="" display="none"></path></g><g transform="translate(0,0)"><path class="background" aria-hidden="true" d="M0,0h200v200h-200Z"></path><g><g class="mark-line role-mark child_layer_0_marks" role="graphics-object" aria-roledescription="line mark container"><path aria-label="modeltype_title: Low:	1st vs. 2nd Quartile; Time (s) Relative to Target Onset: 0; % Correct, (Null-Model Corrected): 52.1863869151" role="graphics-symbol" aria-roledescription="line mark" d="M0,191.25445233967113L3.1746031746031744,192.74964387982084L6.349206349206349,191.82251092731934L9.523809523809524,193.42644106166048L12.698412698412698,193.33257963573138L15.873015873015872,192.00321085211488L19.047619047619047,195.74745080605157L22.22222222222222,194.13261916154875L25.396825396825395,196.69433999852896L28.57142857142857,196.68555704994165L31.746031746031743,195.9724634797707L34.920634920634924,196.1681668762735L38.095238095238095,198.58727677509643L41.26984126984127,197.10329735130173L44.44444444444444,198.77778430117718L47.61904761904762,183.81593537027777L50.79365079365079,191.44862612300793L53.96825396825397,193.6188228823676L57.14285714285714,196.23410327195657L60.317460317460316,195.59848006196347L63.49206349206349,194.57588410183564L66.66666666666666,199.80227554847585L69.84126984126985,199.53402502805199L73.01587301587303,199.74461784836532L76.19047619047619,196.3600753067151L79.36507936507937,195.93382615263945L82.53968253968254,195.3057832749026L85.71428571428572,193.99634174581527L88.88888888888889,195.95760829120312L92.06349206349206,195.01688861738967L95.23809523809524,192.929134150539L98.41269841269842,195.56440638904914L101.58730158730158,196.71536732663608L104.76190476190477,195.89568815167814L107.93650793650794,198.70568376549454L111.11111111111111,193.00474780394646L114.28571428571428,191.61120239109678L117.46031746031747,190.6004013311111L120.63492063492063,196.66945876052412L123.80952380952381,196.4617457777505L126.98412698412697,195.53279530227638L130.15873015873015,193.70723000471074L133.33333333333331,193.43064261834306L136.50793650793648,192.0284406141888L139.6825396825397,187.46400385191572L142.85714285714286,191.8874213109854L146.03174603174605,195.1439799145566L149.20634920634922,187.94826498742765L152.38095238095238,171.73174150379273L155.55555555555557,183.9134766771468L158.73015873015873,182.0671068717424L161.9047619047619,177.0975541991676L165.0793650793651,177.2551820364635L168.25396825396825,174.46980980200186L171.42857142857144,169.18604073087573L174.6031746031746,175.10271402782323L177.77777777777777,165.62485731924625L180.95238095238096,177.38113674285896L184.12698412698413,178.67215840538157L187.3015873015873,170.02783150118796L190.47619047619048,172.11725311859456L193.65079365079364,180.43523289808812L196.82539682539684,176.78093961055396L200,168.32715839867504" stroke="rgb(250, 141, 11)" stroke-width="2"></path></g></g><path class="foreground" aria-hidden="true" d="" display="none"></path></g></g><g class="mark-group role-scope child_layer_1_layer_0_pathgroup" role="graphics-object" aria-roledescription="group mark container"><g transform="translate(0,0)"><path class="background" aria-hidden="true" d="M0,0h200v200h-200Z"></path><g><g class="mark-area role-mark child_layer_1_layer_0_marks" role="graphics-object" aria-roledescription="area mark container"><path aria-label="% Correct, (Null-Model Corrected): 50.3560651573; upper_meancor: 52.4344289825; modeltype_title: High:	1st vs. 4th Quartile; Time (s) Relative to Target Onset: 0; Mean of meancor: 51.3952470699; Mean + stderr of meancor: 52.4344289825; Mean - stderr of meancor: 50.3560651573" role="graphics-symbol" aria-roledescription="errorband" d="M0,198.5757393708216L3.1746031746031744,219.81311553360086L6.349206349206349,198.203993925882L9.523809523809524,197.24357502557336L12.698412698412698,192.27807696686904L15.873015873015872,191.9051687521378L19.047619047619047,195.87571121451614L22.22222222222222,193.43882911144817L25.396825396825395,192.44945828850234L28.57142857142857,196.96389003757915L31.746031746031743,199.82944455153532L34.920634920634924,211.79090082425964L38.095238095238095,203.23085505780614L41.26984126984127,198.37459122864377L44.44444444444444,220.74724057993348L47.61904761904762,206.55555103193294L50.79365079365079,214.69272804205417L53.96825396825397,216.33926858995233L57.14285714285714,215.51803443625786L60.317460317460316,208.96632765665063L63.49206349206349,208.70006284329645L66.66666666666666,199.4132590513436L69.84126984126985,195.1391838557096L73.01587301587303,193.0173464680962L76.19047619047619,198.10587608753332L79.36507936507937,210.69740561720153L82.53968253968254,210.4317719794417L85.71428571428572,210.43339996116254L88.88888888888889,208.2385923146161L92.06349206349206,202.94506598590135L95.23809523809524,202.47768935926885L98.41269841269842,204.1432745363136L101.58730158730158,205.96748456349223L104.76190476190477,202.44355070406397L107.93650793650794,206.39310322370318L111.11111111111111,204.2731101648556L114.28571428571428,197.7825093091786L117.46031746031747,194.0098594779274L120.63492063492063,201.86147026955626L123.80952380952381,190.84743572104483L126.98412698412697,182.31505805488908L130.15873015873015,178.49603242091297L133.33333333333331,172.02406473891782L136.50793650793648,146.83501660271895L139.6825396825397,141.88777240238727L142.85714285714286,137.53139195618297L146.03174603174605,143.88705108586274L149.20634920634922,140.70053901969106L152.38095238095238,135.38724531953306L155.55555555555557,143.7754257791911L158.73015873015873,136.99066199195812L161.9047619047619,121.0164448175758L165.0793650793651,120.78355677459854L168.25396825396825,112.5477356277731L171.42857142857144,112.8888734591353L174.6031746031746,94.24833042465592L177.77777777777777,95.54753863198681L180.95238095238096,96.96113253233551L184.12698412698413,98.1334230865216L187.3015873015873,93.40652051985757L190.47619047619048,91.10719901607386L193.65079365079364,89.15886682175721L196.82539682539684,86.13634520390343L200,78.19848228941044L200,50.240008200768216L196.82539682539684,57.06919543870737L193.65079365079364,58.82604025238185L190.47619047619048,62.66918829366021L187.3015873015873,63.832232311770845L184.12698412698413,68.13849127776996L180.95238095238096,69.57550956778454L177.77777777777777,71.27765801438426L174.6031746031746,71.1310914691917L171.42857142857144,87.8359874213271L168.25396825396825,86.44149605093452L165.0793650793651,95.74497082152709L161.9047619047619,93.1745554619489L158.73015873015873,103.51415075926984L155.55555555555557,109.48675925118833L152.38095238095238,107.03091144776778L149.20634920634922,110.44801313377151L146.03174603174605,112.82674467467137L142.85714285714286,112.26641686185776L139.6825396825397,115.62585777666565L136.50793650793648,121.97095260195749L133.33333333333331,139.45351924803668L130.15873015873015,144.8650470060705L126.98412698412697,148.14070769828035L123.80952380952381,158.285736397615L120.63492063492063,167.43003084096196L117.46031746031747,165.45329194630173L114.28571428571428,169.90677809104633L111.11111111111111,176.6415923938402L107.93650793650794,180.4121774204246L104.76190476190477,178.18414038643516L101.58730158730158,180.96389748241438L98.41269841269842,179.57727856339676L95.23809523809524,176.9679868362118L92.06349206349206,177.56131085202568L88.88888888888889,178.9970776126623L85.71428571428572,181.8431980616364L82.53968253968254,183.58529878932728L79.36507936507937,183.83682288289424L76.19047619047619,178.042851879566L73.01587301587303,175.08635304924405L69.84126984126985,174.9177169926564L66.66666666666666,171.73223633395176L63.49206349206349,183.12117595633566L60.317460317460316,185.08158806207197L57.14285714285714,191.20512370776714L53.96825396825397,191.68304586021864L50.79365079365079,189.09103626217473L47.61904761904762,188.15176508425083L44.44444444444444,195.66010184081796L41.26984126984127,182.98282432780726L38.095238095238095,189.3497882894182L34.920634920634924,192.96528618838082L31.746031746031743,189.45206526218377L28.57142857142857,186.3878929549115L25.396825396825395,183.844534337273L22.22222222222222,185.97903521426827L19.047619047619047,191.21840605166452L15.873015873015872,190.4842280554733L12.698412698412698,189.67574471073453L9.523809523809524,190.6133515150279L6.349206349206349,189.66519014120848L3.1746031746031744,198.99302435917105L0,190.26228407011413Z" fill="rgb(87, 16, 109)" opacity="0.3"></path></g></g><path class="foreground" aria-hidden="true" d="" display="none"></path></g><g transform="translate(0,0)"><path class="background" aria-hidden="true" d="M0,0h200v200h-200Z"></path><g><g class="mark-area role-mark child_layer_1_layer_0_marks" role="graphics-object" aria-roledescription="area mark container"><path aria-label="% Correct, (Null-Model Corrected): 50.2905262397; upper_meancor: 53.0745224846; modeltype_title: Medium:	1st vs. 3rd Quartile; Time (s) Relative to Target Onset: 0; Mean of meancor: 51.6825243621; Mean + stderr of meancor: 53.0745224846; Mean - stderr of meancor: 50.2905262397" role="graphics-symbol" aria-roledescription="errorband" d="M0,198.83789504122169L3.1746031746031744,201.18473420223353L6.349206349206349,200.86755451344814L9.523809523809524,200.5192244725365L12.698412698412698,196.82713459244042L15.873015873015872,198.00712028063856L19.047619047619047,198.64010869769766L22.22222222222222,190.71565225375417L25.396825396825395,192.56197232104523L28.57142857142857,197.0448996059095L31.746031746031743,197.93343425421995L34.920634920634924,198.55755397458626L38.095238095238095,198.57292485995285L41.26984126984127,198.83736651071996L44.44444444444444,196.6308302332L47.61904761904762,193.50128730772528L50.79365079365079,196.09256143253617L53.96825396825397,194.4310529473466L57.14285714285714,194.90395049699384L60.317460317460316,197.06885457526633L63.49206349206349,197.83217853095715L66.66666666666666,203.73975753315028L69.84126984126985,200.14279783580434L73.01587301587303,195.63629241648763L76.19047619047619,193.9257713272062L79.36507936507937,200.55460344938555L82.53968253968254,202.6772037568159L85.71428571428572,205.40819587395305L88.88888888888889,195.2570455589478L92.06349206349206,186.24079628883513L95.23809523809524,191.24169154570785L98.41269841269842,185.69996870114505L101.58730158730158,181.20182879938207L104.76190476190477,180.40920563432164L107.93650793650794,180.4402503923568L111.11111111111111,174.86468007573447L114.28571428571428,177.07836882032615L117.46031746031747,175.94580038822775L120.63492063492063,170.56672076506277L123.80952380952381,165.3291871476525L126.98412698412697,170.20713947251716L130.15873015873015,159.90112209910555L133.33333333333331,156.86109123327043L136.50793650793648,145.29493511690924L139.6825396825397,146.2430997829954L142.85714285714286,150.2947426972983L146.03174603174605,147.96079395447026L149.20634920634922,146.94956547317415L152.38095238095238,144.0733762101793L155.55555555555557,142.3297543304622L158.73015873015873,137.61786319139793L161.9047619047619,140.7188868183053L165.0793650793651,135.4144098613681L168.25396825396825,138.04775820002436L171.42857142857144,127.81859801627884L174.6031746031746,125.25326765776161L177.77777777777777,130.24911070146678L180.95238095238096,136.36488269905647L184.12698412698413,127.24944317760043L187.3015873015873,119.09857333606242L190.47619047619048,116.15882713930841L193.65079365079364,113.10620802362178L196.82539682539684,110.70442625646012L200,113.7684907544287L200,88.41871370074426L196.82539682539684,87.15118517011888L193.65079365079364,87.35711180176895L190.47619047619048,93.64316788149584L187.3015873015873,92.77261314551441L184.12698412698413,101.99482618373037L180.95238095238096,112.03625247808522L177.77777777777777,107.90155082653348L174.6031746031746,102.9500809703046L171.42857142857144,104.63016301560124L168.25396825396825,112.77983190739695L165.0793650793651,111.50891606021548L161.9047619047619,117.25995211824664L158.73015873015873,114.5812515350237L155.55555555555557,117.4500134011319L152.38095238095238,119.3379006460706L149.20634920634922,122.18104763556643L146.03174603174605,120.86641647947154L142.85714285714286,124.22538527026279L139.6825396825397,120.8391817994351L136.50793650793648,118.23642356383743L133.33333333333331,130.72855263542255L130.15873015873015,135.95102169232234L126.98412698412697,146.70511039509512L123.80952380952381,142.5838615424704L120.63492063492063,147.00462113453113L117.46031746031747,154.70560988379955L114.28571428571428,157.74601024801962L111.11111111111111,154.29148023539923L107.93650793650794,159.40993633135537L104.76190476190477,159.13245074139704L101.58730158730158,161.14477053282437L98.41269841269842,166.11236615487644L95.23809523809524,168.72037790499758L92.06349206349206,168.16558135242244L88.88888888888889,178.09261480728557L85.71428571428572,191.19619633807588L82.53968253968254,193.2528955469818L79.36507936507937,192.6928584577218L76.19047619047619,188.02035085204992L73.01587301587303,186.10999661651854L69.84126984126985,190.72749640121157L66.66666666666666,192.03986716672983L63.49206349206349,190.14433570912917L60.317460317460316,192.41693310017544L57.14285714285714,189.72234060562482L53.96825396825397,183.89472139321435L50.79365079365079,186.07644698759168L47.61904761904762,190.53827829596193L44.44444444444444,191.44615300327203L41.26984126984127,190.89249301589155L38.095238095238095,190.74263840670332L34.920634920634924,190.20602759519153L31.746031746031743,189.67626237611546L28.57142857142857,189.51651391778734L25.396825396825395,186.27914136602578L22.22222222222222,186.39365320097914L19.047619047619047,191.67203547077418L15.873015873015872,190.12924691234866L12.698412698412698,189.98932167881105L9.523809523809524,192.51795328408022L6.349206349206349,191.0920336163982L3.1746031746031744,190.3729681785341L0,187.70191006172726Z" fill="rgb(187, 55, 85)" opacity="0.3"></path></g></g><path class="foreground" aria-hidden="true" d="" display="none"></path></g><g transform="translate(0,0)"><path class="background" aria-hidden="true" d="M0,0h200v200h-200Z"></path><g><g class="mark-area role-mark child_layer_1_layer_0_marks" role="graphics-object" aria-roledescription="area mark container"><path aria-label="% Correct, (Null-Model Corrected): 51.6668686359; upper_meancor: 52.7059051943; modeltype_title: Low:	1st vs. 2nd Quartile; Time (s) Relative to Target Onset: 0; Mean of meancor: 52.1863869151; Mean + stderr of meancor: 52.7059051943; Mean - stderr of meancor: 51.6668686359" role="graphics-symbol" aria-roledescription="errorband" d="M0,193.3325254563714L3.1746031746031744,194.66542816378012L6.349206349206349,194.59851696387386L9.523809523809524,195.77249262756285L12.698412698412698,196.7451009567514L15.873015873015872,195.79167091750182L19.047619047619047,199.29451792224066L22.22222222222222,198.3624909456567L25.396825396825395,201.0480933086332L28.57142857142857,201.72219775499985L31.746031746031743,199.69318874750275L34.920634920634924,199.59237394195435L38.095238095238095,203.03076295828606L41.26984126984127,202.96766312509823L44.44444444444444,205.6553332548038L47.61904761904762,191.88642065962046L50.79365079365079,200.0698163930201L53.96825396825397,202.99219370017835L57.14285714285714,204.94030342389115L60.317460317460316,203.03176119318093L63.49206349206349,201.1913419726144L66.66666666666666,206.02083566670407L69.84126984126985,204.98472385849163L73.01587301587303,205.44532646952837L76.19047619047619,201.21169200083932L79.36507936507937,200.67537075249854L82.53968253968254,198.13895352097768L85.71428571428572,196.43596564250268L88.88888888888889,198.94493690694122L92.06349206349206,197.7370062581934L95.23809523809524,194.8082630362043L98.41269841269842,198.74511738005748L101.58730158730158,200.28487433264618L104.76190476190477,199.1873656571297L107.93650793650794,202.40377993944173L111.11111111111111,195.418275059L114.28571428571428,193.31103359170802L117.46031746031747,193.12171761148386L120.63492063492063,199.71372569057039L123.80952380952381,200.27598054985685L126.98412698412697,201.35397010006577L130.15873015873015,199.3114575519652L133.33333333333331,200.73766228181108L136.50793650793648,198.6147569900106L139.6825396825397,195.16045064792047L142.85714285714286,199.831490955849L146.03174603174605,203.45627526121976L149.20634920634922,196.3175969207744L152.38095238095238,182.10990523558837L155.55555555555557,193.79629114804368L158.73015873015873,190.87700684219428L161.9047619047619,189.09485992269836L165.0793650793651,186.2817369794811L168.25396825396825,183.96476715587326L171.42857142857144,179.0602683696129L174.6031746031746,185.9496671245979L177.77777777777777,177.54313212507986L180.95238095238096,187.66768607650465L184.12698412698413,188.92474046926114L187.3015873015873,180.21127560468506L190.47619047619048,184.90497135204237L193.65079365079364,190.45914576714875L196.82539682539684,187.28874789935094L200,180.4972550389499L200,156.15706175840018L196.82539682539684,166.27313132175698L193.65079365079364,170.41132002902748L190.47619047619048,159.32953488514676L187.3015873015873,159.84438739769087L184.12698412698413,168.419576341502L180.95238095238096,167.09458740921326L177.77777777777777,153.70658251341263L174.6031746031746,164.25576093104854L171.42857142857144,159.31181309213855L168.25396825396825,164.97485244813046L165.0793650793651,168.2286270934459L161.9047619047619,165.10024847563685L158.73015873015873,173.25720690129052L155.55555555555557,174.03066220624993L152.38095238095238,161.3535777719971L149.20634920634922,179.5789330540809L146.03174603174605,186.83168456789343L142.85714285714286,183.94335166612177L139.6825396825397,179.76755705591097L136.50793650793648,185.44212423836703L133.33333333333331,186.12362295487503L130.15873015873015,188.10300245745628L126.98412698412697,189.711620504487L123.80952380952381,192.64751100564416L120.63492063492063,193.62519183047786L117.46031746031747,188.07908505073834L114.28571428571428,189.91137119048554L111.11111111111111,190.59122054889292L107.93650793650794,195.00758759154735L104.76190476190477,192.60401064622658L101.58730158730158,193.14586032062596L98.41269841269842,192.3836953980408L95.23809523809524,191.0500052648737L92.06349206349206,192.29677097658595L88.88888888888889,192.970279675465L85.71428571428572,191.55671784912786L82.53968253968254,192.47261302882754L79.36507936507937,191.19228155278037L76.19047619047619,191.50845861259086L73.01587301587303,194.04390922720228L69.84126984126985,194.08332619761234L66.66666666666666,193.58371543024765L63.49206349206349,187.96042623105689L60.317460317460316,188.165198930746L57.14285714285714,187.527903120022L53.96825396825397,184.24545206455684L50.79365079365079,182.82743585299576L47.61904761904762,175.7454500809351L44.44444444444444,191.90023534755056L41.26984126984127,191.2389315775052L38.095238095238095,194.1437905919068L34.920634920634924,192.74395981059263L31.746031746031743,192.25173821203867L28.57142857142857,191.64891634488347L25.396825396825395,192.3405866884247L22.22222222222222,189.9027473774408L19.047619047619047,192.2003836898625L15.873015873015872,188.21475078672793L12.698412698412698,189.92005831471135L9.523809523809524,191.0803894957581L6.349206349206349,189.04650489076482L3.1746031746031744,190.83385959586155L0,189.17637922297087Z" fill="rgb(250, 141, 11)" opacity="0.3"></path></g></g><path class="foreground" aria-hidden="true" d="" display="none"></path></g></g><g class="mark-text role-mark child_layer_2_marks" role="graphics-object" aria-roledescription="text mark container"><text aria-label="modeltype_title: High:	1st vs. 4th Quartile; Mean of meancor: 73.0800295078; modeltype_shorttitle: High,1st vs. 4th Q" role="graphics-symbol" aria-roledescription="text mark" text-anchor="start" transform="translate(205,110.67988196891258)" font-family="sans-serif" font-size="11px" fill="rgb(87, 16, 109)"><tspan>High</tspan><tspan x="0" dy="13">1st vs. 4th Q</tspan></text><text aria-label="modeltype_title: Medium:	1st vs. 3rd Quartile; Mean of meancor: 68.4436146964; modeltype_shorttitle: Medium,1st vs. 3rd Q" role="graphics-symbol" aria-roledescription="text mark" text-anchor="start" transform="translate(205,129.22554121453373)" font-family="sans-serif" font-size="11px" fill="rgb(187, 55, 85)"><tspan>Medium</tspan><tspan x="0" dy="13">1st vs. 3rd Q</tspan></text><text aria-label="modeltype_title: Low:	1st vs. 2nd Quartile; Mean of meancor: 55.7059079705; modeltype_shorttitle: Low,1st vs. 2nd Q" role="graphics-symbol" aria-roledescription="text mark" text-anchor="start" transform="translate(205,180.17636811781557)" font-family="sans-serif" font-size="11px" fill="rgb(250, 141, 11)"><tspan>Low</tspan><tspan x="0" dy="13">1st vs. 2nd Q</tspan></text></g><g class="mark-rule role-mark child_layer_3_layer_0_marks" role="graphics-symbol" aria-roledescription="rule mark container"><line transform="translate(200,189.1663522677586)" x2="-200" y2="0" stroke="black" stroke-width="2" stroke-dasharray="4,4"></line></g><g class="mark-line role-mark child_layer_4_layer_0_marks" role="graphics-object" aria-roledescription="line mark container"><path aria-label="x: 0.05; y: 70" role="graphics-symbol" aria-roledescription="line mark" d="M3.3333333333333335,120L63.33333333333333,120" stroke="black" stroke-width="1.5"></path></g><g class="mark-symbol role-mark child_layer_4_layer_1_marks" role="graphics-object" aria-roledescription="symbol mark container"><path aria-label="x: 0.05; y: 70; dir: 270" role="graphics-symbol" aria-roledescription="point" transform="translate(3.3333333333333335,120) rotate(270)" d="M0,-1.8257418583505536L-1.5811388300841898,0.9128709291752769L1.5811388300841898,0.9128709291752769Z" stroke="black" stroke-width="2" opacity="1"></path><path aria-label="x: 0.95; y: 70; dir: 90" role="graphics-symbol" aria-roledescription="point" transform="translate(63.33333333333333,120) rotate(90)" d="M0,-1.8257418583505536L-1.5811388300841898,0.9128709291752769L1.5811388300841898,0.9128709291752769Z" stroke="black" stroke-width="2" opacity="1"></path></g><g class="mark-text role-mark child_layer_5_layer_0_marks" role="graphics-object" aria-roledescription="text mark container"><text text-anchor="middle" transform="translate(33.33333333333333,115)" font-family="sans-serif" font-size="11px" fill="black">Target Length</text></g><g class="mark-text role-mark child_layer_6_layer_0_marks" role="graphics-object" aria-roledescription="text mark container"><text text-anchor="middle" transform="translate(133.33333333333331,203.1663522677586)" font-family="sans-serif" font-size="11px" fill="black"><tspan>Mean Accuracy</tspan><tspan x="0" dy="13">of Null Model</tspan></text></g></g><path class="foreground" aria-hidden="true" d="" display="none"></path></g></g><g class="mark-group role-legend" role="graphics-symbol" aria-roledescription="legend" aria-label="Symbol legend for fill color and stroke color with 3 values: High:	1st vs. 4th Quartile, Medium:	1st vs. 3rd Quartile, Low:	1st vs. 2nd Quartile"><g transform="translate(5,0.5)"><path class="background" aria-hidden="true" d="M0,0h160v45h-160Z" pointer-events="none"></path><g><g class="mark-group role-legend-entry"><g transform="translate(0,0)"><path class="background" aria-hidden="true" d="M0,0h0v0h0Z" pointer-events="none"></path><g><g class="mark-group role-scope" role="graphics-object" aria-roledescription="group mark container"><g transform="translate(0,0)"><path class="background" aria-hidden="true" d="M0,0h160v12.5h-160Z" pointer-events="none" opacity="1"></path><g><g class="mark-symbol role-legend-symbol" pointer-events="none"><path transform="translate(6,6)" d="M5,0A5,5,0,1,1,-5,0A5,5,0,1,1,5,0" fill="rgb(87, 16, 109)" stroke="rgb(87, 16, 109)" stroke-width="1.5" opacity="0.3"></path></g><g class="mark-text role-legend-label" pointer-events="none"><text text-anchor="start" transform="translate(16,9)" font-family="sans-serif" font-size="10px" fill="#000" opacity="1">High:	1st vs. 4th Quartile</text></g></g><path class="foreground" aria-hidden="true" d="" pointer-events="none" display="none"></path></g><g transform="translate(0,16)"><path class="background" aria-hidden="true" d="M0,0h160v12.5h-160Z" pointer-events="none" opacity="1"></path><g><g class="mark-symbol role-legend-symbol" pointer-events="none"><path transform="translate(6,6)" d="M5,0A5,5,0,1,1,-5,0A5,5,0,1,1,5,0" fill="rgb(187, 55, 85)" stroke="rgb(187, 55, 85)" stroke-width="1.5" opacity="0.3"></path></g><g class="mark-text role-legend-label" pointer-events="none"><text text-anchor="start" transform="translate(16,9)" font-family="sans-serif" font-size="10px" fill="#000" opacity="1">Medium:	1st vs. 3rd Quartile</text></g></g><path class="foreground" aria-hidden="true" d="" pointer-events="none" display="none"></path></g><g transform="translate(0,32)"><path class="background" aria-hidden="true" d="M0,0h160v12.5h-160Z" pointer-events="none" opacity="1"></path><g><g class="mark-symbol role-legend-symbol" pointer-events="none"><path transform="translate(6,6)" d="M5,0A5,5,0,1,1,-5,0A5,5,0,1,1,5,0" fill="rgb(250, 141, 11)" stroke="rgb(250, 141, 11)" stroke-width="1.5" opacity="0.3"></path></g><g class="mark-text role-legend-label" pointer-events="none"><text text-anchor="start" transform="translate(16,9)" font-family="sans-serif" font-size="10px" fill="#000" opacity="1">Low:	1st vs. 2nd Quartile</text></g></g><path class="foreground" aria-hidden="true" d="" pointer-events="none" display="none"></path></g></g></g><path class="foreground" aria-hidden="true" d="" pointer-events="none" display="none"></path></g></g></g><path class="foreground" aria-hidden="true" d="" pointer-events="none" display="none"></path></g></g><g class="mark-group role-title"><g transform="translate(-60,-52)"><path class="background" aria-hidden="true" d="M0,0h0v0h0Z" pointer-events="none"></path><g><g class="mark-text role-title-text" role="graphics-symbol" aria-roledescription="title" aria-label="Title text 'Salience Classification Accuracy'" pointer-events="none"><text text-anchor="start" transform="translate(0,10)" font-family="sans-serif" font-size="13px" font-weight="bold" fill="#000" opacity="1">Salience Classification Accuracy</text></g><g class="mark-text role-title-subtitle" role="graphics-symbol" aria-roledescription="subtitle" aria-label="Subtitle text 'Global Condition'" pointer-events="none"><text text-anchor="start" transform="translate(0,25)" font-family="sans-serif" font-size="12px" fill="#000" opacity="1">Global Condition</text></g></g><path class="foreground" aria-hidden="true" d="" pointer-events="none" display="none"></path></g></g></g><path class="foreground" aria-hidden="true" d="" display="none"></path></g></g></g></svg>
