<?xml version="1.0" encoding="utf-8"?>
<!DOCTYPE svg PUBLIC "-//W3C//DTD SVG 1.1//EN" "http://www.w3.org/Graphics/SVG/1.1/DTD/svg11.dtd">
<svg class="marks" width="598" height="285" viewBox="0 0 598 285" version="1.1" xmlns="http://www.w3.org/2000/svg" xmlns:xlink="http://www.w3.org/1999/xlink"><defs><clipPath id="clip1"><rect x="0" y="0" width="200" height="200"></rect></clipPath><clipPath id="clip2"><rect x="0" y="0" width="200" height="200"></rect></clipPath><clipPath id="clip3"><rect x="0" y="0" width="200" height="200"></rect></clipPath><clipPath id="clip4"><rect x="0" y="0" width="200" height="200"></rect></clipPath><clipPath id="clip5"><rect x="0" y="0" width="200" height="200"></rect></clipPath><clipPath id="clip6"><rect x="0" y="0" width="200" height="200"></rect></clipPath><clipPath id="clip7"><rect x="0" y="0" width="200" height="200"></rect></clipPath><clipPath id="clip8"><rect x="0" y="0" width="200" height="200"></rect></clipPath><clipPath id="clip9"><rect x="0" y="0" width="200" height="200"></rect></clipPath><clipPath id="clip10"><rect x="0" y="0" width="200" height="200"></rect></clipPath><clipPath id="clip11"><rect x="0" y="0" width="200" height="200"></rect></clipPath><clipPath id="clip12"><rect x="0" y="0" width="200" height="200"></rect></clipPath></defs><rect width="598" height="285" fill="white"></rect><g fill="none" stroke-miterlimit="10" transform="translate(58,47)"><g class="mark-group role-frame root" role="graphics-object" aria-roledescription="group mark container"><g transform="translate(0,0)"><path class="background" aria-hidden="true" d="M0,0h0v0h0Z"></path><g><g class="mark-group role-column-title facet-title" role="graphics-object" aria-roledescription="group mark container"><g transform="translate(266,-21)"><path class="background" aria-hidden="true" d="M0,0h0v0h0Z"></path><g><g class="mark-group role-title"><g transform="translate(0,-21)"><path class="background" aria-hidden="true" d="M0,0h0v0h0Z" pointer-events="none"></path><g><g class="mark-text role-title-text" role="graphics-symbol" aria-roledescription="title" aria-label="Title text 'target_time_label'" pointer-events="none"><text text-anchor="middle" transform="translate(0,9)" font-family="Helvetica" font-size="11px" font-weight="bold" fill="#000" opacity="1">target_time_label</text></g></g><path class="foreground" aria-hidden="true" d="" pointer-events="none" display="none"></path></g></g></g><path class="foreground" aria-hidden="true" d="" display="none"></path></g></g><g class="mark-group role-row-header row_header" role="graphics-object" aria-roledescription="group mark container"><g transform="translate(-3,0)"><path class="background" aria-hidden="true" d="M0,0h0v200h0Z"></path><g><g class="mark-group role-axis" role="graphics-symbol" aria-roledescription="axis" aria-label="Y-axis titled 'High/Low Salience Classification' for a linear scale with values from 0.4 to 1.0"><g transform="translate(0.5,0.5)"><path class="background" aria-hidden="true" d="M0,0h0v0h0Z" pointer-events="none"></path><g><g class="mark-rule role-axis-tick" pointer-events="none"><line transform="translate(0,200)" x2="-5" y2="0" stroke="#888" stroke-width="1" opacity="1"></line><line transform="translate(0,167)" x2="-5" y2="0" stroke="#888" stroke-width="1" opacity="1"></line><line transform="translate(0,133)" x2="-5" y2="0" stroke="#888" stroke-width="1" opacity="1"></line><line transform="translate(0,100)" x2="-5" y2="0" stroke="#888" stroke-width="1" opacity="1"></line><line transform="translate(0,67)" x2="-5" y2="0" stroke="#888" stroke-width="1" opacity="1"></line><line transform="translate(0,33)" x2="-5" y2="0" stroke="#888" stroke-width="1" opacity="1"></line><line transform="translate(0,0)" x2="-5" y2="0" stroke="#888" stroke-width="1" opacity="1"></line></g><g class="mark-text role-axis-label" pointer-events="none"><text text-anchor="end" transform="translate(-7,203)" font-family="Helvetica" font-size="10px" fill="#000" opacity="1">0.4</text><text text-anchor="end" transform="translate(-7,169.66666666666669)" font-family="Helvetica" font-size="10px" fill="#000" opacity="1">0.5</text><text text-anchor="end" transform="translate(-7,136.33333333333334)" font-family="Helvetica" font-size="10px" fill="#000" opacity="1">0.6</text><text text-anchor="end" transform="translate(-7,103.00000000000003)" font-family="Helvetica" font-size="10px" fill="#000" opacity="1">0.7</text><text text-anchor="end" transform="translate(-7,69.66666666666666)" font-family="Helvetica" font-size="10px" fill="#000" opacity="1">0.8</text><text text-anchor="end" transform="translate(-7,36.33333333333333)" font-family="Helvetica" font-size="10px" fill="#000" opacity="1">0.9</text><text text-anchor="end" transform="translate(-7,3)" font-family="Helvetica" font-size="10px" fill="#000" opacity="1">1.0</text></g><g class="mark-rule role-axis-domain" pointer-events="none"><line transform="translate(0,200)" x2="0" y2="-200" stroke="#888" stroke-width="1" opacity="1"></line></g><g class="mark-text role-axis-title" pointer-events="none"><text text-anchor="middle" transform="translate(-39,100) rotate(-90) translate(0,-2)" font-family="Helvetica" font-size="11px" font-weight="bold" fill="#000" opacity="1"><tspan>High/Low Salience</tspan><tspan x="0" dy="13">Classification</tspan></text></g></g><path class="foreground" aria-hidden="true" d="" pointer-events="none" display="none"></path></g></g></g><path class="foreground" aria-hidden="true" d="" display="none"></path></g></g><g class="mark-group role-column-footer column_footer" role="graphics-object" aria-roledescription="group mark container"><g transform="translate(0,201)"><path class="background" aria-hidden="true" d="M0,0h200v0h-200Z"></path><g><g class="mark-group role-axis" role="graphics-symbol" aria-roledescription="axis" aria-label="X-axis titled 'Time relative to target onset (s)' for a linear scale with values from 0 to 4"><g transform="translate(0.5,0.5)"><path class="background" aria-hidden="true" d="M0,0h0v0h0Z" pointer-events="none"></path><g><g class="mark-rule role-axis-tick" pointer-events="none"><line transform="translate(0,0)" x2="0" y2="5" stroke="#888" stroke-width="1" opacity="1"></line><line transform="translate(50,0)" x2="0" y2="5" stroke="#888" stroke-width="1" opacity="1"></line><line transform="translate(100,0)" x2="0" y2="5" stroke="#888" stroke-width="1" opacity="1"></line><line transform="translate(150,0)" x2="0" y2="5" stroke="#888" stroke-width="1" opacity="1"></line><line transform="translate(200,0)" x2="0" y2="5" stroke="#888" stroke-width="1" opacity="1"></line></g><g class="mark-text role-axis-label" pointer-events="none"><text text-anchor="start" transform="translate(0,15)" font-family="Helvetica" font-size="10px" fill="#000" opacity="1">0</text><text text-anchor="middle" transform="translate(50,15)" font-family="Helvetica" font-size="10px" fill="#000" opacity="1">1</text><text text-anchor="middle" transform="translate(100,15)" font-family="Helvetica" font-size="10px" fill="#000" opacity="1">2</text><text text-anchor="middle" transform="translate(150,15)" font-family="Helvetica" font-size="10px" fill="#000" opacity="1">3</text><text text-anchor="end" transform="translate(200,15)" font-family="Helvetica" font-size="10px" fill="#000" opacity="1">4</text></g><g class="mark-rule role-axis-domain" pointer-events="none"><line transform="translate(0,0)" x2="200" y2="0" stroke="#888" stroke-width="1" opacity="1"></line></g><g class="mark-text role-axis-title" pointer-events="none"><text text-anchor="middle" transform="translate(100,30)" font-family="Helvetica" font-size="11px" font-weight="bold" fill="#000" opacity="1">Time relative to target onset (s)</text></g></g><path class="foreground" aria-hidden="true" d="" pointer-events="none" display="none"></path></g></g></g><path class="foreground" aria-hidden="true" d="" display="none"></path></g><g transform="translate(279,201)"><path class="background" aria-hidden="true" d="M0,0h200v0h-200Z"></path><g><g class="mark-group role-axis" role="graphics-symbol" aria-roledescription="axis" aria-label="X-axis titled 'Time relative to target onset (s)' for a linear scale with values from 0 to 4"><g transform="translate(0.5,0.5)"><path class="background" aria-hidden="true" d="M0,0h0v0h0Z" pointer-events="none"></path><g><g class="mark-rule role-axis-tick" pointer-events="none"><line transform="translate(0,0)" x2="0" y2="5" stroke="#888" stroke-width="1" opacity="1"></line><line transform="translate(50,0)" x2="0" y2="5" stroke="#888" stroke-width="1" opacity="1"></line><line transform="translate(100,0)" x2="0" y2="5" stroke="#888" stroke-width="1" opacity="1"></line><line transform="translate(150,0)" x2="0" y2="5" stroke="#888" stroke-width="1" opacity="1"></line><line transform="translate(200,0)" x2="0" y2="5" stroke="#888" stroke-width="1" opacity="1"></line></g><g class="mark-text role-axis-label" pointer-events="none"><text text-anchor="start" transform="translate(0,15)" font-family="Helvetica" font-size="10px" fill="#000" opacity="1">0</text><text text-anchor="middle" transform="translate(50,15)" font-family="Helvetica" font-size="10px" fill="#000" opacity="1">1</text><text text-anchor="middle" transform="translate(100,15)" font-family="Helvetica" font-size="10px" fill="#000" opacity="1">2</text><text text-anchor="middle" transform="translate(150,15)" font-family="Helvetica" font-size="10px" fill="#000" opacity="1">3</text><text text-anchor="end" transform="translate(200,15)" font-family="Helvetica" font-size="10px" fill="#000" opacity="1">4</text></g><g class="mark-rule role-axis-domain" pointer-events="none"><line transform="translate(0,0)" x2="200" y2="0" stroke="#888" stroke-width="1" opacity="1"></line></g><g class="mark-text role-axis-title" pointer-events="none"><text text-anchor="middle" transform="translate(100,30)" font-family="Helvetica" font-size="11px" font-weight="bold" fill="#000" opacity="1">Time relative to target onset (s)</text></g></g><path class="foreground" aria-hidden="true" d="" pointer-events="none" display="none"></path></g></g></g><path class="foreground" aria-hidden="true" d="" display="none"></path></g></g><g class="mark-group role-scope cell" role="graphics-object" aria-roledescription="group mark container"><g transform="translate(0,0)"><path class="background" aria-hidden="true" d="M0.5,0.5h200v200h-200Z" stroke="#ddd"></path><g><g class="mark-group role-axis" aria-hidden="true"><g transform="translate(0.5,200.5)"><path class="background" aria-hidden="true" d="M0,0h0v0h0Z" pointer-events="none"></path><g><g class="mark-rule role-axis-grid" pointer-events="none"><line transform="translate(0,-200)" x2="0" y2="200" stroke="#ddd" stroke-width="1" opacity="1"></line><line transform="translate(50,-200)" x2="0" y2="200" stroke="#ddd" stroke-width="1" opacity="1"></line><line transform="translate(100,-200)" x2="0" y2="200" stroke="#ddd" stroke-width="1" opacity="1"></line><line transform="translate(150,-200)" x2="0" y2="200" stroke="#ddd" stroke-width="1" opacity="1"></line><line transform="translate(200,-200)" x2="0" y2="200" stroke="#ddd" stroke-width="1" opacity="1"></line></g></g><path class="foreground" aria-hidden="true" d="" pointer-events="none" display="none"></path></g></g><g class="mark-group role-axis" aria-hidden="true"><g transform="translate(0.5,0.5)"><path class="background" aria-hidden="true" d="M0,0h0v0h0Z" pointer-events="none"></path><g><g class="mark-rule role-axis-grid" pointer-events="none"><line transform="translate(0,200)" x2="200" y2="0" stroke="#ddd" stroke-width="1" opacity="1"></line><line transform="translate(0,167)" x2="200" y2="0" stroke="#ddd" stroke-width="1" opacity="1"></line><line transform="translate(0,133)" x2="200" y2="0" stroke="#ddd" stroke-width="1" opacity="1"></line><line transform="translate(0,100)" x2="200" y2="0" stroke="#ddd" stroke-width="1" opacity="1"></line><line transform="translate(0,67)" x2="200" y2="0" stroke="#ddd" stroke-width="1" opacity="1"></line><line transform="translate(0,33)" x2="200" y2="0" stroke="#ddd" stroke-width="1" opacity="1"></line><line transform="translate(0,0)" x2="200" y2="0" stroke="#ddd" stroke-width="1" opacity="1"></line></g></g><path class="foreground" aria-hidden="true" d="" pointer-events="none" display="none"></path></g></g><g class="mark-group role-scope child_layer_0_pathgroup" role="graphics-object" aria-roledescription="group mark container"><g transform="translate(0,0)"><path class="background" aria-hidden="true" d="M0,0h200v200h-200Z"></path><g><g class="mark-line role-mark child_layer_0_marks" clip-path="url(#clip1)" role="graphics-object" aria-roledescription="line mark container"><path aria-label="condition: global; Time relative to target onset (s): 0; High/Low Salience, Classification: 0.73216408055" role="graphics-symbol" aria-roledescription="line mark" d="M0,89.27863981658773L8.695652173913043,87.01618135325843L17.391304347826086,97.6280944015312L26.08695652173913,78.98770580905878L34.78260869565217,71.72963518801679L43.47826086956522,66.1698229465298L52.17391304347826,68.52177275884881L60.86956521739131,65.88753865963422L69.56521739130434,60.583098843418504L78.26086956521739,71.89001515149911L86.95652173913044,67.8137340170714L95.65217391304348,60.34418350791715L104.34782608695652,68.27104927288119L113.04347826086956,63.626419690765324L121.73913043478262,60.351902404671144L130.43478260869566,60.96850823192057L139.1304347826087,54.95911084086813L147.82608695652172,58.234697967924646L156.52173913043478,40.203564969914L165.2173913043478,34.58418621907007L173.91304347826087,32.82552299947987L182.6086956521739,28.424409370844963L191.30434782608697,33.19307028016078L200,33.76448186874692" stroke="#0F3C5F" stroke-width="2" stroke-linecap="round" stroke-dasharray="1,0"></path></g></g><path class="foreground" aria-hidden="true" d="" display="none"></path></g><g transform="translate(0,0)"><path class="background" aria-hidden="true" d="M0,0h200v200h-200Z"></path><g><g class="mark-line role-mark child_layer_0_marks" clip-path="url(#clip2)" role="graphics-object" aria-roledescription="line mark container"><path aria-label="condition: object; Time relative to target onset (s): 0; High/Low Salience, Classification: 0.611402207818" role="graphics-symbol" aria-roledescription="line mark" d="M0,129.5325973940473L8.695652173913043,115.1116371172987L17.391304347826086,113.44776530953911L26.08695652173913,131.2650144350456L34.78260869565217,119.4026105438231L43.47826086956522,135.00211320330487L52.17391304347826,94.4962800388603L60.86956521739131,120.33989599063804L69.56521739130434,122.89546622240803L78.26086956521739,112.32268335363082L86.95652173913044,121.09556455092256L95.65217391304348,117.18200526480081L104.34782608695652,113.90164224051095L113.04347826086956,115.4812363275712L121.73913043478262,112.47900500986067L130.43478260869566,115.30505476518455L139.1304347826087,120.89659200533254L147.82608695652172,121.13820284651145L156.52173913043478,110.84594715382119L165.2173913043478,103.16173114308836L173.91304347826087,111.691996809314L182.6086956521739,121.62034848299585L191.30434782608697,115.32949253123132L200,98.09700806364174" stroke="#687B3E" stroke-width="2" stroke-linecap="round" stroke-dasharray="6,4"></path></g></g><path class="foreground" aria-hidden="true" d="" display="none"></path></g><g transform="translate(0,0)"><path class="background" aria-hidden="true" d="M0,0h200v200h-200Z"></path><g><g class="mark-line role-mark child_layer_0_marks" clip-path="url(#clip3)" role="graphics-object" aria-roledescription="line mark container"><path aria-label="condition: spatial; Time relative to target onset (s): 0; High/Low Salience, Classification: 0.524657608" role="graphics-symbol" aria-roledescription="line mark" d="M0,158.4474639999847L8.695652173913043,158.770421696115L17.391304347826086,145.58652608109028L26.08695652173913,159.08308239004688L34.78260869565217,146.07280312316436L43.47826086956522,150.7740026001524L52.17391304347826,146.62216069566188L60.86956521739131,155.89333264213053L69.56521739130434,145.43636928926583L78.26086956521739,133.01286491870962L86.95652173913044,135.995863123893L95.65217391304348,131.24291215356425L104.34782608695652,157.21299316117222L113.04347826086956,143.99595116667027L121.73913043478262,139.84374864699416L130.43478260869566,129.553432290357L139.1304347826087,144.49767526926797L147.82608695652172,130.78727833868396L156.52173913043478,118.7483870973877L165.2173913043478,103.5568118333427L173.91304347826087,120.36054585602878L182.6086956521739,118.9601114979895L191.30434782608697,113.52308606916539L200,123.757366504978" stroke="#EB9A60" stroke-width="2" stroke-linecap="round" stroke-dasharray="2,4"></path></g></g><path class="foreground" aria-hidden="true" d="" display="none"></path></g></g><g class="mark-group role-scope child_layer_1_layer_0_pathgroup" role="graphics-object" aria-roledescription="group mark container"><g transform="translate(0,0)"><path class="background" aria-hidden="true" d="M0,0h200v200h-200Z"></path><g><g class="mark-area role-mark child_layer_1_layer_0_marks" clip-path="url(#clip4)" role="graphics-object" aria-roledescription="area mark container"><path aria-label="High/Low Salience, Classification: 0.686599866008; upper_lower: 0.777960535552; condition: global; winstart: 0; upper: 0.777960535552; lower: 0.686599866008" role="graphics-symbol" aria-roledescription="errorband" d="M0,104.46671133061203L8.695652173913043,100.89025082881432L17.391304347826086,114.14725479258591L26.08695652173913,92.8172683313629L34.78260869565217,84.2531672953453L43.47826086956522,79.44441647428029L52.17391304347826,81.78767076672825L60.86956521739131,77.76802398303325L69.56521739130434,73.1762993545303L78.26086956521739,84.82921718881371L86.95652173913044,81.65187517232002L95.65217391304348,71.17974651837716L104.34782608695652,81.6826779359518L113.04347826086956,74.84100194682324L121.73913043478262,74.66844340665402L130.43478260869566,74.67994085882106L139.1304347826087,65.83268259589626L147.82608695652172,70.67667122513825L156.52173913043478,49.14414246891015L165.2173913043478,43.69916748983782L173.91304347826087,41.585130036673256L182.6086956521739,37.48868049745002L191.30434782608697,41.7287742955224L200,43.70575587528018L200,23.73284781129774L191.30434782608697,24.645670953392028L182.6086956521739,19.599604139037787L173.91304347826087,24.139079247319618L165.2173913043478,25.71156056269508L156.52173913043478,31.26214833549994L147.82608695652172,45.873620807164215L139.1304347826087,44.187524196153305L130.43478260869566,47.12962420618689L121.73913043478262,46.127485846150826L113.04347826086956,52.879887050555396L104.34782608695652,55.149894271095064L95.65217391304348,49.651523689131615L86.95652173913044,54.11273009217539L78.26086956521739,59.045646668695674L69.56521739130434,48.43903591897569L60.86956521739131,53.501149815248404L52.17391304347826,55.02069142508048L43.47826086956522,53.151948051865475L34.78260869565217,59.07524103448347L26.08695652173913,65.49922347753639L17.391304347826086,81.05007707376406L8.695652173913043,73.07169346912671L0,74.01315481600352Z" fill="#0F3C5F" opacity="0.3"></path></g></g><path class="foreground" aria-hidden="true" d="" display="none"></path></g><g transform="translate(0,0)"><path class="background" aria-hidden="true" d="M0,0h200v200h-200Z"></path><g><g class="mark-area role-mark child_layer_1_layer_0_marks" clip-path="url(#clip5)" role="graphics-object" aria-roledescription="area mark container"><path aria-label="High/Low Salience, Classification: 0.576729925243; upper_lower: 0.646661084135; condition: object; winstart: 0; upper: 0.646661084135; lower: 0.576729925243" role="graphics-symbol" aria-roledescription="errorband" d="M0,141.09002491911804L8.695652173913043,126.19913610135458L17.391304347826086,126.16953700442255L26.08695652173913,141.77405600414284L34.78260869565217,129.58566685053634L43.47826086956522,146.7531777827728L52.17391304347826,106.04238691797485L60.86956521739131,130.73705275055846L69.56521739130434,135.801851919782L78.26086956521739,124.08473735673459L86.95652173913044,132.81715636245428L95.65217391304348,129.46402268067746L104.34782608695652,126.80317965321426L113.04347826086956,128.4468288514498L121.73913043478262,125.95187601019981L130.43478260869566,127.16985395358948L139.1304347826087,132.7850871994944L147.82608695652172,133.49923269490844L156.52173913043478,122.86602135827147L165.2173913043478,116.46431749456903L173.91304347826087,125.04349666299291L182.6086956521739,134.21397985244118L191.30434782608697,128.70023336076474L200,110.84641983271175L200,84.99822586841984L191.30434782608697,102.29228128317342L182.6086956521739,108.69193926636443L173.91304347826087,98.2134583302629L165.2173913043478,90.1641790617903L156.52173913043478,98.74101478827151L147.82608695652172,108.7746356560329L139.1304347826087,108.99589794792578L130.43478260869566,103.44094366817522L121.73913043478262,99.08855536280392L113.04347826086956,102.52458539847431L104.34782608695652,100.92299077018025L95.65217391304348,104.71526093078765L86.95652173913044,109.36166977807471L78.26086956521739,100.2762957418002L69.56521739130434,109.65437766595403L60.86956521739131,109.94334491314444L52.17391304347826,82.85097923956208L43.47826086956522,123.31851089224676L34.78260869565217,109.24551112836878L26.08695652173913,120.29782308107384L17.391304347826086,100.57665179739361L8.695652173913043,103.94538984794472L0,117.77963862157902Z" fill="#687B3E" opacity="0.3"></path></g></g><path class="foreground" aria-hidden="true" d="" display="none"></path></g><g transform="translate(0,0)"><path class="background" aria-hidden="true" d="M0,0h200v200h-200Z"></path><g><g class="mark-area role-mark child_layer_1_layer_0_marks" clip-path="url(#clip6)" role="graphics-object" aria-roledescription="area mark container"><path aria-label="High/Low Salience, Classification: 0.464004179918; upper_lower: 0.585419770314; condition: spatial; winstart: 0; upper: 0.585419770314; lower: 0.464004179918" role="graphics-symbol" aria-roledescription="errorband" d="M0,178.66527336067566L8.695652173913043,178.68999072989098L17.391304347826086,166.02009862981743L26.08695652173913,178.7997962675217L34.78260869565217,166.55441578960722L43.47826086956522,169.49560990572664L52.17391304347826,165.7164807929896L60.86956521739131,176.01186577591795L69.56521739130434,165.64894531287965L78.26086956521739,153.34587991418502L86.95652173913044,157.29823482804244L95.65217391304348,151.02484104443548L104.34782608695652,179.75184522743515L113.04347826086956,165.73814254242833L121.73913043478262,163.02381468482312L130.43478260869566,151.53713124200846L139.1304347826087,167.35899352095825L147.82608695652172,151.73374508922112L156.52173913043478,137.2926884973993L165.2173913043478,126.82558084073476L173.91304347826087,142.39582508141729L182.6086956521739,139.25858674265135L191.30434782608697,132.89312020704452L200,144.35614174886683L200,102.82260788574898L191.30434782608697,93.52073728442723L182.6086956521739,99.06762661610298L173.91304347826087,99.00983562921122L165.2173913043478,79.82204463174132L156.52173913043478,100.11971503920552L147.82608695652172,109.94715168473132L139.1304347826087,121.69746877471539L130.43478260869566,107.71236117076471L121.73913043478262,116.87340487131301L113.04347826086956,122.4644642372712L104.34782608695652,134.27828953342308L95.65217391304348,111.06784571238025L86.95652173913044,114.46724264086589L78.26086956521739,112.40287793981052L69.56521739130434,124.5171494677783L60.86956521739131,135.2455140259753L52.17391304347826,127.25703499634461L43.47826086956522,132.10862594376303L34.78260869565217,125.36844226457977L26.08695652173913,138.8045026686488L17.391304347826086,124.73418831546255L8.695652173913043,139.18014597290866L0,138.19340989527072Z" fill="#EB9A60" opacity="0.3"></path></g></g><path class="foreground" aria-hidden="true" d="" display="none"></path></g></g><g class="mark-text role-mark child_layer_2_marks" role="graphics-object" aria-roledescription="text mark container"><text aria-label="condition: global; Mean of corrected_mean: 0.898706554394; condition_label: Global" role="graphics-symbol" aria-roledescription="text mark" text-anchor="start" transform="translate(205,36.76448186874692)" font-family="Helvetica" font-size="11px" fill="#0F3C5F">Global</text><text aria-label="condition: object; Mean of corrected_mean: 0.705708975809; condition_label: Object" role="graphics-symbol" aria-roledescription="text mark" text-anchor="start" transform="translate(205,101.09700806364174)" font-family="Helvetica" font-size="11px" fill="#687B3E">Object</text><text aria-label="condition: spatial; Mean of corrected_mean: 0.628727900485; condition_label: Spatial" role="graphics-symbol" aria-roledescription="text mark" text-anchor="start" transform="translate(205,126.757366504978)" font-family="Helvetica" font-size="11px" fill="#EB9A60">Spatial</text></g><g class="mark-text role-mark child_layer_3_layer_0_marks" role="graphics-object" aria-roledescription="text mark container"><text text-anchor="start" transform="translate(205,117.98294937351051)" font-family="Helvetica" font-size="11px" fill="black"><tspan>Null Model</tspan><tspan x="0" dy="13">Accuracy</tspan></text></g><g class="mark-rule role-mark child_layer_4_layer_0_marks" role="graphics-symbol" aria-roledescription="rule mark container"><line transform="translate(200,119.98294937351051)" x2="-200" y2="0" stroke="black" stroke-width="2" stroke-dasharray="4,4"></line></g><g class="mark-line role-mark child_layer_5_layer_0_marks" role="graphics-object" aria-roledescription="line mark container"><path aria-label="x: 0.05; y: 0.8" role="graphics-symbol" aria-roledescription="line mark" d="M2.5,66.66666666666666L47.5,66.66666666666666" stroke="black" stroke-width="1.5"></path></g><g class="mark-symbol role-mark child_layer_5_layer_1_marks" role="graphics-object" aria-roledescription="symbol mark container"><path aria-label="x: 0.05; y: 0.8; dir: 270" role="graphics-symbol" aria-roledescription="point" transform="translate(2.5,66.66666666666666) rotate(270)" d="M0,-1.8257418583505536L-1.5811388300841898,0.9128709291752769L1.5811388300841898,0.9128709291752769Z" stroke="black" stroke-width="2" opacity="1"></path><path aria-label="x: 0.95; y: 0.8; dir: 90" role="graphics-symbol" aria-roledescription="point" transform="translate(47.5,66.66666666666666) rotate(90)" d="M0,-1.8257418583505536L-1.5811388300841898,0.9128709291752769L1.5811388300841898,0.9128709291752769Z" stroke="black" stroke-width="2" opacity="1"></path></g><g class="mark-text role-mark child_layer_6_layer_0_marks" role="graphics-object" aria-roledescription="text mark container"><text text-anchor="start" transform="translate(0,61.66666666666666)" font-family="Helvetica" font-size="11px" fill="black">Target Length</text></g><g class="mark-group role-title"><g transform="translate(100,-20)"><path class="background" aria-hidden="true" d="M0,0h0v0h0Z" pointer-events="none"></path><g><g class="mark-text role-title-text" role="graphics-symbol" aria-roledescription="title" aria-label="Title text 'early'" pointer-events="none"><text text-anchor="middle" transform="translate(0,8)" font-family="Helvetica" font-size="10px" fill="#000" opacity="1">early</text></g></g><path class="foreground" aria-hidden="true" d="" pointer-events="none" display="none"></path></g></g></g><path class="foreground" aria-hidden="true" d="" display="none"></path></g><g transform="translate(279,0)"><path class="background" aria-hidden="true" d="M0.5,0.5h200v200h-200Z" stroke="#ddd"></path><g><g class="mark-group role-axis" aria-hidden="true"><g transform="translate(0.5,200.5)"><path class="background" aria-hidden="true" d="M0,0h0v0h0Z" pointer-events="none"></path><g><g class="mark-rule role-axis-grid" pointer-events="none"><line transform="translate(0,-200)" x2="0" y2="200" stroke="#ddd" stroke-width="1" opacity="1"></line><line transform="translate(50,-200)" x2="0" y2="200" stroke="#ddd" stroke-width="1" opacity="1"></line><line transform="translate(100,-200)" x2="0" y2="200" stroke="#ddd" stroke-width="1" opacity="1"></line><line transform="translate(150,-200)" x2="0" y2="200" stroke="#ddd" stroke-width="1" opacity="1"></line><line transform="translate(200,-200)" x2="0" y2="200" stroke="#ddd" stroke-width="1" opacity="1"></line></g></g><path class="foreground" aria-hidden="true" d="" pointer-events="none" display="none"></path></g></g><g class="mark-group role-axis" aria-hidden="true"><g transform="translate(0.5,0.5)"><path class="background" aria-hidden="true" d="M0,0h0v0h0Z" pointer-events="none"></path><g><g class="mark-rule role-axis-grid" pointer-events="none"><line transform="translate(0,200)" x2="200" y2="0" stroke="#ddd" stroke-width="1" opacity="1"></line><line transform="translate(0,167)" x2="200" y2="0" stroke="#ddd" stroke-width="1" opacity="1"></line><line transform="translate(0,133)" x2="200" y2="0" stroke="#ddd" stroke-width="1" opacity="1"></line><line transform="translate(0,100)" x2="200" y2="0" stroke="#ddd" stroke-width="1" opacity="1"></line><line transform="translate(0,67)" x2="200" y2="0" stroke="#ddd" stroke-width="1" opacity="1"></line><line transform="translate(0,33)" x2="200" y2="0" stroke="#ddd" stroke-width="1" opacity="1"></line><line transform="translate(0,0)" x2="200" y2="0" stroke="#ddd" stroke-width="1" opacity="1"></line></g></g><path class="foreground" aria-hidden="true" d="" pointer-events="none" display="none"></path></g></g><g class="mark-group role-scope child_layer_0_pathgroup" role="graphics-object" aria-roledescription="group mark container"><g transform="translate(0,0)"><path class="background" aria-hidden="true" d="M0,0h200v200h-200Z"></path><g><g class="mark-line role-mark child_layer_0_marks" clip-path="url(#clip7)" role="graphics-object" aria-roledescription="line mark container"><path aria-label="condition: global; Time relative to target onset (s): 0; High/Low Salience, Classification: 0.780332012917" role="graphics-symbol" aria-roledescription="line mark" d="M0,73.22266236115111L8.695652173913043,72.26386132915346L17.391304347826086,55.364077229103344L26.08695652173913,49.445005070341594L34.78260869565217,70.55801900057457L43.47826086956522,66.42074286495614L52.17391304347826,65.4382607694342L60.86956521739131,58.76094259430269L69.56521739130434,73.26875623184748L78.26086956521739,83.28958420853844L86.95652173913044,93.38019000485416L95.65217391304348,100.55926347386608L104.34782608695652,94.66579135254332L113.04347826086956,108.9280168297565L121.73913043478262,121.45205774673688L130.43478260869566,104.62490300450867L139.1304347826087,74.13741695611186L147.82608695652172,39.860112574263965L156.52173913043478,21.34318030607769L165.2173913043478,25.11600232848661L173.91304347826087,23.22414574454863L182.6086956521739,19.771144008362505L191.30434782608697,18.82193480801242L200,23.677420252924076" stroke="#0F3C5F" stroke-width="2" stroke-linecap="round" stroke-dasharray="1,0"></path></g></g><path class="foreground" aria-hidden="true" d="" display="none"></path></g><g transform="translate(0,0)"><path class="background" aria-hidden="true" d="M0,0h200v200h-200Z"></path><g><g class="mark-line role-mark child_layer_0_marks" clip-path="url(#clip8)" role="graphics-object" aria-roledescription="line mark container"><path aria-label="condition: object; Time relative to target onset (s): 0; High/Low Salience, Classification: 0.6658796364" role="graphics-symbol" aria-roledescription="line mark" d="M0,111.37345453346109L8.695652173913043,111.19621549935393L17.391304347826086,118.089822710069L26.08695652173913,133.87449593171925L34.78260869565217,124.77339077484713L43.47826086956522,93.73049331788074L52.17391304347826,130.18286962534575L60.86956521739131,134.33046763311884L69.56521739130434,106.68580063021915L78.26086956521739,143.07225123726158L86.95652173913044,134.16246644395687L95.65217391304348,123.26616894153224L104.34782608695652,111.57344442841988L113.04347826086956,116.19430327213065L121.73913043478262,86.38071204181324L130.43478260869566,50.06664322206467L139.1304347826087,49.09311972402042L147.82608695652172,31.495614779195602L156.52173913043478,33.956055476972715L165.2173913043478,24.637004603920044L173.91304347826087,18.955104786412093L182.6086956521739,20.55035011959905L191.30434782608697,17.72341532038584L200,17.361736990537622" stroke="#687B3E" stroke-width="2" stroke-linecap="round" stroke-dasharray="6,4"></path></g></g><path class="foreground" aria-hidden="true" d="" display="none"></path></g><g transform="translate(0,0)"><path class="background" aria-hidden="true" d="M0,0h200v200h-200Z"></path><g><g class="mark-line role-mark child_layer_0_marks" clip-path="url(#clip9)" role="graphics-object" aria-roledescription="line mark container"><path aria-label="condition: spatial; Time relative to target onset (s): 0; High/Low Salience, Classification: 0.59627378663" role="graphics-symbol" aria-roledescription="line mark" d="M0,134.57540445679004L8.695652173913043,134.86027674162057L17.391304347826086,141.84866360918213L26.08695652173913,127.43763625424273L34.78260869565217,138.3380899597759L43.47826086956522,154.57737421402825L52.17391304347826,175.9900637225663L60.86956521739131,158.76504488270865L69.56521739130434,168.51437262016213L78.26086956521739,146.21761241323898L86.95652173913044,136.80166329108084L95.65217391304348,148.2660327483653L104.34782608695652,134.06512861814812L113.04347826086956,112.75070075301161L121.73913043478262,122.94257265339246L130.43478260869566,120.5496215039517L139.1304347826087,165.91197162633532L147.82608695652172,204.5596791547626L156.52173913043478,177.96665296494064L165.2173913043478,177.96665296494064L173.91304347826087,177.96665296494064L182.6086956521739,177.96665296494064L191.30434782608697,177.96665296494064L200,177.96665296494064" stroke="#EB9A60" stroke-width="2" stroke-linecap="round" stroke-dasharray="2,4"></path></g></g><path class="foreground" aria-hidden="true" d="" display="none"></path></g></g><g class="mark-group role-scope child_layer_1_layer_0_pathgroup" role="graphics-object" aria-roledescription="group mark container"><g transform="translate(0,0)"><path class="background" aria-hidden="true" d="M0,0h200v200h-200Z"></path><g><g class="mark-area role-mark child_layer_1_layer_0_marks" clip-path="url(#clip10)" role="graphics-object" aria-roledescription="area mark container"><path aria-label="High/Low Salience, Classification: 0.730038664361; upper_lower: 0.832073355451; condition: global; winstart: 0; upper: 0.832073355451; lower: 0.730038664361" role="graphics-symbol" aria-roledescription="errorband" d="M0,89.98711187970072L8.695652173913043,89.37469182015829L17.391304347826086,71.17877830774782L26.08695652173913,62.21158582299784L34.78260869565217,86.21129979146698L43.47826086956522,81.05010619525844L52.17391304347826,80.6735400588881L60.86956521739131,75.3179809679216L69.56521739130434,89.92303864219653L78.26086956521739,104.24000779774923L86.95652173913044,113.0257733977486L95.65217391304348,118.72157113170634L104.34782608695652,109.02395554198552L113.04347826086956,121.55661751602027L121.73913043478262,133.2395290607206L130.43478260869566,115.92906864775803L139.1304347826087,87.75101373681838L147.82608695652172,48.8268254204961L156.52173913043478,29.189802886996617L165.2173913043478,32.98652268072666L173.91304347826087,31.05072687655086L182.6086956521739,26.713245001537977L191.30434782608697,26.394265426019903L200,30.732293331624973L200,16.708732367704382L191.30434782608697,11.309306509090945L182.6086956521739,12.975678870291606L173.91304347826087,15.429130903440157L165.2173913043478,17.29227015177255L156.52173913043478,13.473230979667283L147.82608695652172,30.587637415304748L139.1304347826087,60.42741237994438L130.43478260869566,93.41059278152537L121.73913043478262,109.84005297028175L113.04347826086956,95.95541471600393L104.34782608695652,80.5102131987298L95.65217391304348,82.14379771393905L86.95652173913044,73.24182335666603L78.26086956521739,63.016350922824756L69.56521739130434,56.61791281197208L60.86956521739131,42.53992072551937L52.17391304347826,49.96909115651764L43.47826086956522,52.06059796875244L34.78260869565217,54.827184185089806L26.08695652173913,36.74454606872584L17.391304347826086,39.89068341135231L8.695652173913043,55.196302886300245L0,55.97554818300321Z" fill="#0F3C5F" opacity="0.3"></path></g></g><path class="foreground" aria-hidden="true" d="" display="none"></path></g><g transform="translate(0,0)"><path class="background" aria-hidden="true" d="M0,0h200v200h-200Z"></path><g><g class="mark-area role-mark child_layer_1_layer_0_marks" clip-path="url(#clip11)" role="graphics-object" aria-roledescription="area mark container"><path aria-label="High/Low Salience, Classification: 0.6148766004; upper_lower: 0.717297211401; condition: object; winstart: 0; upper: 0.717297211401; lower: 0.6148766004" role="graphics-symbol" aria-roledescription="errorband" d="M0,128.37446653345518L8.695652173913043,130.87853247062841L17.391304347826086,135.85153005051774L26.08695652173913,151.38017605809583L34.78260869565217,143.5009023895256L43.47826086956522,108.08324266478952L52.17391304347826,144.57089185355065L60.86956521739131,153.36251785208782L69.56521739130434,122.05616345045217L78.26086956521739,158.835250918889L86.95652173913044,149.5730598155671L95.65217391304348,138.23436615663257L104.34782608695652,129.44412815675867L113.04347826086956,135.65535629694992L121.73913043478262,103.73033878278149L130.43478260869566,64.7611982198421L139.1304347826087,64.01390969638254L147.82608695652172,45.67725635864124L156.52173913043478,52.32618573232124L165.2173913043478,37.99395845927063L173.91304347826087,26.743007559461752L182.6086956521739,28.890289838127803L191.30434782608697,26.117007612835753L200,26.314159903630618L200,8.140638840173242L191.30434782608697,9.285435247062157L182.6086956521739,12.492381315799104L173.91304347826087,11.3457784353594L165.2173913043478,11.224452006228415L156.52173913043478,15.142681662548547L147.82608695652172,16.60647651907976L139.1304347826087,34.12011404412907L130.43478260869566,35.31330942663069L121.73913043478262,69.18038255236125L113.04347826086956,96.5177278611663L104.34782608695652,94.56305551073237L95.65217391304348,108.19681567265131L86.95652173913044,118.90427155473904L78.26086956521739,127.3779924994117L69.56521739130434,91.06028786212394L60.86956521739131,115.9627701519419L52.17391304347826,115.53548046982813L43.47826086956522,79.21831729209498L34.78260869565217,105.72114165461655L26.08695652173913,115.69406432296718L17.391304347826086,100.13836633770427L8.695652173913043,91.56225879152113L0,94.23426286646142Z" fill="#687B3E" opacity="0.3"></path></g></g><path class="foreground" aria-hidden="true" d="" display="none"></path></g><g transform="translate(0,0)"><path class="background" aria-hidden="true" d="M0,0h200v200h-200Z"></path><g><g class="mark-area role-mark child_layer_1_layer_0_marks" clip-path="url(#clip12)" role="graphics-object" aria-roledescription="area mark container"><path aria-label="High/Low Salience, Classification: 0.525597554233; upper_lower: 0.664812427369; condition: spatial; winstart: 0; upper: 0.664812427369; lower: 0.525597554233" role="graphics-symbol" aria-roledescription="errorband" d="M0,158.13414858911852L8.695652173913043,158.51611679317557L17.391304347826086,166.69226747742198L26.08695652173913,152.14745436868498L34.78260869565217,160.3486170583382L43.47826086956522,180.1758720372578L52.17391304347826,202.58021020802914L60.86956521739131,184.60791519307756L69.56521739130434,195.22410587159644L78.26086956521739,168.84898078241673L86.95652173913044,160.4184274716052L95.65217391304348,174.41577044982608L104.34782608695652,158.2123339718018L113.04347826086956,136.39964092299417L121.73913043478262,144.93810115747135L130.43478260869566,142.60694337087253L139.1304347826087,183.21797443192187L147.82608695652172,225.56716231616232L156.52173913043478,199.44408064706758L165.2173913043478,201.0541992592727L173.91304347826087,201.0541992592727L182.6086956521739,199.9449797202486L191.30434782608697,199.65639673133418L200,200.693154481809L200,155.24015144807234L191.30434782608697,155.3105687616801L182.6086956521739,155.38098607528786L173.91304347826087,155.24015144807234L165.2173913043478,155.38098607528786L156.52173913043478,155.4514033888956L147.82608695652172,183.98120839685706L139.1304347826087,148.56866643810892L130.43478260869566,98.62443960655139L121.73913043478262,100.62481900048053L113.04347826086956,88.96511927805055L104.34782608695652,108.85672178090356L95.65217391304348,121.41334949330212L86.95652173913044,113.28072071907962L78.26086956521739,122.81376270379396L69.56521739130434,142.61221620740906L60.86956521739131,133.43985664537976L52.17391304347826,150.04743609567777L43.47826086956522,129.50706136828813L34.78260869565217,116.58614777086807L26.08695652173913,102.55062304912492L17.391304347826086,116.57785236005344L8.695652173913043,111.77263211134158L0,111.72919087716093Z" fill="#EB9A60" opacity="0.3"></path></g></g><path class="foreground" aria-hidden="true" d="" display="none"></path></g></g><g class="mark-text role-mark child_layer_2_marks" role="graphics-object" aria-roledescription="text mark container"><text aria-label="condition: global; Mean of corrected_mean: 0.928967739241; condition_label: Global" role="graphics-symbol" aria-roledescription="text mark" text-anchor="start" transform="translate(205,26.677420252924076)" font-family="Helvetica" font-size="11px" fill="#0F3C5F">Global</text><text aria-label="condition: object; Mean of corrected_mean: 0.947914789028; condition_label: Object" role="graphics-symbol" aria-roledescription="text mark" text-anchor="start" transform="translate(205,20.361736990537622)" font-family="Helvetica" font-size="11px" fill="#687B3E">Object</text><text aria-label="condition: spatial; Mean of corrected_mean: 0.466100041105; condition_label: Spatial" role="graphics-symbol" aria-roledescription="text mark" text-anchor="start" transform="translate(205,180.96665296494064)" font-family="Helvetica" font-size="11px" fill="#EB9A60">Spatial</text></g><g class="mark-text role-mark child_layer_3_layer_0_marks" role="graphics-object" aria-roledescription="text mark container"><text text-anchor="start" transform="translate(205,117.98294937351051)" font-family="Helvetica" font-size="11px" fill="black"><tspan>Null Model</tspan><tspan x="0" dy="13">Accuracy</tspan></text></g><g class="mark-rule role-mark child_layer_4_layer_0_marks" role="graphics-symbol" aria-roledescription="rule mark container"><line transform="translate(200,119.98294937351051)" x2="-200" y2="0" stroke="black" stroke-width="2" stroke-dasharray="4,4"></line></g><g class="mark-line role-mark child_layer_5_layer_0_marks" role="graphics-object" aria-roledescription="line mark container"><path aria-label="x: 0.05; y: 0.8" role="graphics-symbol" aria-roledescription="line mark" d="M2.5,66.66666666666666L47.5,66.66666666666666" stroke="black" stroke-width="1.5"></path></g><g class="mark-symbol role-mark child_layer_5_layer_1_marks" role="graphics-object" aria-roledescription="symbol mark container"><path aria-label="x: 0.05; y: 0.8; dir: 270" role="graphics-symbol" aria-roledescription="point" transform="translate(2.5,66.66666666666666) rotate(270)" d="M0,-1.8257418583505536L-1.5811388300841898,0.9128709291752769L1.5811388300841898,0.9128709291752769Z" stroke="black" stroke-width="2" opacity="1"></path><path aria-label="x: 0.95; y: 0.8; dir: 90" role="graphics-symbol" aria-roledescription="point" transform="translate(47.5,66.66666666666666) rotate(90)" d="M0,-1.8257418583505536L-1.5811388300841898,0.9128709291752769L1.5811388300841898,0.9128709291752769Z" stroke="black" stroke-width="2" opacity="1"></path></g><g class="mark-text role-mark child_layer_6_layer_0_marks" role="graphics-object" aria-roledescription="text mark container"><text text-anchor="start" transform="translate(0,61.66666666666666)" font-family="Helvetica" font-size="11px" fill="black">Target Length</text></g><g class="mark-group role-title"><g transform="translate(100,-20)"><path class="background" aria-hidden="true" d="M0,0h0v0h0Z" pointer-events="none"></path><g><g class="mark-text role-title-text" role="graphics-symbol" aria-roledescription="title" aria-label="Title text 'late'" pointer-events="none"><text text-anchor="middle" transform="translate(0,8)" font-family="Helvetica" font-size="10px" fill="#000" opacity="1">late</text></g></g><path class="foreground" aria-hidden="true" d="" pointer-events="none" display="none"></path></g></g></g><path class="foreground" aria-hidden="true" d="" display="none"></path></g></g></g><path class="foreground" aria-hidden="true" d="" display="none"></path></g></g></g></svg>
