<?xml version="1.0" encoding="utf-8"?>
<!DOCTYPE svg PUBLIC "-//W3C//DTD SVG 1.1//EN" "http://www.w3.org/Graphics/SVG/1.1/DTD/svg11.dtd">
<svg class="marks" width="308" height="247" viewBox="0 0 308 247" version="1.1" xmlns="http://www.w3.org/2000/svg" xmlns:xlink="http://www.w3.org/1999/xlink"><defs><linearGradient id="gradient_0" x1="0" x2="0" y1="1" y2="0"><stop offset="0" stop-color="rgb(207, 225, 242)"></stop><stop offset="0.06666666666666665" stop-color="rgb(196, 219, 238)"></stop><stop offset="0.1333333333333333" stop-color="rgb(183, 213, 234)"></stop><stop offset="0.20000000000000004" stop-color="rgb(168, 206, 229)"></stop><stop offset="0.26666666666666666" stop-color="rgb(151, 197, 224)"></stop><stop offset="0.3333333333333333" stop-color="rgb(134, 188, 220)"></stop><stop offset="0.4000000000000001" stop-color="rgb(116, 178, 215)"></stop><stop offset="0.4666666666666666" stop-color="rgb(99, 168, 210)"></stop><stop offset="0.5333333333333333" stop-color="rgb(84, 157, 204)"></stop><stop offset="0.6" stop-color="rgb(69, 146, 198)"></stop><stop offset="0.6666666666666666" stop-color="rgb(56, 135, 192)"></stop><stop offset="0.7333333333333334" stop-color="rgb(43, 123, 185)"></stop><stop offset="0.7999999999999999" stop-color="rgb(32, 111, 178)"></stop><stop offset="0.8666666666666667" stop-color="rgb(23, 98, 169)"></stop><stop offset="0.9333333333333332" stop-color="rgb(15, 86, 157)"></stop><stop offset="1" stop-color="rgb(10, 74, 144)"></stop></linearGradient></defs><rect width="308" height="247" fill="white"></rect><g fill="none" stroke-miterlimit="10" transform="translate(42,10)"><g class="mark-group role-frame root" role="graphics-object" aria-roledescription="group mark container"><g transform="translate(0,0)"><path class="background" aria-hidden="true" d="M0.5,0.5h200v200h-200Z" stroke="#ddd"></path><g><g class="mark-group role-axis" aria-hidden="true"><g transform="translate(0.5,200.5)"><path class="background" aria-hidden="true" d="M0,0h0v0h0Z" pointer-events="none"></path><g><g class="mark-rule role-axis-grid" pointer-events="none"><line transform="translate(0,-200)" x2="0" y2="200" stroke="#ddd" stroke-width="1" opacity="1"></line><line transform="translate(40,-200)" x2="0" y2="200" stroke="#ddd" stroke-width="1" opacity="1"></line><line transform="translate(80,-200)" x2="0" y2="200" stroke="#ddd" stroke-width="1" opacity="1"></line><line transform="translate(120,-200)" x2="0" y2="200" stroke="#ddd" stroke-width="1" opacity="1"></line><line transform="translate(160,-200)" x2="0" y2="200" stroke="#ddd" stroke-width="1" opacity="1"></line><line transform="translate(200,-200)" x2="0" y2="200" stroke="#ddd" stroke-width="1" opacity="1"></line></g></g><path class="foreground" aria-hidden="true" d="" pointer-events="none" display="none"></path></g></g><g class="mark-group role-axis" aria-hidden="true"><g transform="translate(0.5,0.5)"><path class="background" aria-hidden="true" d="M0,0h0v0h0Z" pointer-events="none"></path><g><g class="mark-rule role-axis-grid" pointer-events="none"><line transform="translate(0,200)" x2="200" y2="0" stroke="#ddd" stroke-width="1" opacity="1"></line><line transform="translate(0,167)" x2="200" y2="0" stroke="#ddd" stroke-width="1" opacity="1"></line><line transform="translate(0,133)" x2="200" y2="0" stroke="#ddd" stroke-width="1" opacity="1"></line><line transform="translate(0,100)" x2="200" y2="0" stroke="#ddd" stroke-width="1" opacity="1"></line><line transform="translate(0,67)" x2="200" y2="0" stroke="#ddd" stroke-width="1" opacity="1"></line><line transform="translate(0,33)" x2="200" y2="0" stroke="#ddd" stroke-width="1" opacity="1"></line><line transform="translate(0,0)" x2="200" y2="0" stroke="#ddd" stroke-width="1" opacity="1"></line></g></g><path class="foreground" aria-hidden="true" d="" pointer-events="none" display="none"></path></g></g><g class="mark-group role-axis" role="graphics-symbol" aria-roledescription="axis" aria-label="X-axis titled 'winstart' for a linear scale with values from 0.0 to 1.0"><g transform="translate(0.5,200.5)"><path class="background" aria-hidden="true" d="M0,0h0v0h0Z" pointer-events="none"></path><g><g class="mark-rule role-axis-tick" pointer-events="none"><line transform="translate(0,0)" x2="0" y2="5" stroke="#888" stroke-width="1" opacity="1"></line><line transform="translate(40,0)" x2="0" y2="5" stroke="#888" stroke-width="1" opacity="1"></line><line transform="translate(80,0)" x2="0" y2="5" stroke="#888" stroke-width="1" opacity="1"></line><line transform="translate(120,0)" x2="0" y2="5" stroke="#888" stroke-width="1" opacity="1"></line><line transform="translate(160,0)" x2="0" y2="5" stroke="#888" stroke-width="1" opacity="1"></line><line transform="translate(200,0)" x2="0" y2="5" stroke="#888" stroke-width="1" opacity="1"></line></g><g class="mark-text role-axis-label" pointer-events="none"><text text-anchor="start" transform="translate(0,15)" font-family="sans-serif" font-size="10px" fill="#000" opacity="1">0.0</text><text text-anchor="middle" transform="translate(40,15)" font-family="sans-serif" font-size="10px" fill="#000" opacity="1">0.2</text><text text-anchor="middle" transform="translate(80,15)" font-family="sans-serif" font-size="10px" fill="#000" opacity="1">0.4</text><text text-anchor="middle" transform="translate(120,15)" font-family="sans-serif" font-size="10px" fill="#000" opacity="1">0.6</text><text text-anchor="middle" transform="translate(160,15)" font-family="sans-serif" font-size="10px" fill="#000" opacity="1">0.8</text><text text-anchor="end" transform="translate(200,15)" font-family="sans-serif" font-size="10px" fill="#000" opacity="1">1.0</text></g><g class="mark-rule role-axis-domain" pointer-events="none"><line transform="translate(0,0)" x2="200" y2="0" stroke="#888" stroke-width="1" opacity="1"></line></g><g class="mark-text role-axis-title" pointer-events="none"><text text-anchor="middle" transform="translate(100,30)" font-family="sans-serif" font-size="11px" font-weight="bold" fill="#000" opacity="1">winstart</text></g></g><path class="foreground" aria-hidden="true" d="" pointer-events="none" display="none"></path></g></g><g class="mark-group role-axis" role="graphics-symbol" aria-roledescription="axis" aria-label="Y-axis titled 'mean' for a linear scale with values from 0.0 to 0.6"><g transform="translate(0.5,0.5)"><path class="background" aria-hidden="true" d="M0,0h0v0h0Z" pointer-events="none"></path><g><g class="mark-rule role-axis-tick" pointer-events="none"><line transform="translate(0,200)" x2="-5" y2="0" stroke="#888" stroke-width="1" opacity="1"></line><line transform="translate(0,167)" x2="-5" y2="0" stroke="#888" stroke-width="1" opacity="1"></line><line transform="translate(0,133)" x2="-5" y2="0" stroke="#888" stroke-width="1" opacity="1"></line><line transform="translate(0,100)" x2="-5" y2="0" stroke="#888" stroke-width="1" opacity="1"></line><line transform="translate(0,67)" x2="-5" y2="0" stroke="#888" stroke-width="1" opacity="1"></line><line transform="translate(0,33)" x2="-5" y2="0" stroke="#888" stroke-width="1" opacity="1"></line><line transform="translate(0,0)" x2="-5" y2="0" stroke="#888" stroke-width="1" opacity="1"></line></g><g class="mark-text role-axis-label" pointer-events="none"><text text-anchor="end" transform="translate(-7,203)" font-family="sans-serif" font-size="10px" fill="#000" opacity="1">0.0</text><text text-anchor="end" transform="translate(-7,169.66666666666666)" font-family="sans-serif" font-size="10px" fill="#000" opacity="1">0.1</text><text text-anchor="end" transform="translate(-7,136.33333333333331)" font-family="sans-serif" font-size="10px" fill="#000" opacity="1">0.2</text><text text-anchor="end" transform="translate(-7,103)" font-family="sans-serif" font-size="10px" fill="#000" opacity="1">0.3</text><text text-anchor="end" transform="translate(-7,69.66666666666666)" font-family="sans-serif" font-size="10px" fill="#000" opacity="1">0.4</text><text text-anchor="end" transform="translate(-7,36.33333333333333)" font-family="sans-serif" font-size="10px" fill="#000" opacity="1">0.5</text><text text-anchor="end" transform="translate(-7,3)" font-family="sans-serif" font-size="10px" fill="#000" opacity="1">0.6</text></g><g class="mark-rule role-axis-domain" pointer-events="none"><line transform="translate(0,200)" x2="0" y2="-200" stroke="#888" stroke-width="1" opacity="1"></line></g><g class="mark-text role-axis-title" pointer-events="none"><text text-anchor="middle" transform="translate(-26,100) rotate(-90) translate(0,-2)" font-family="sans-serif" font-size="11px" font-weight="bold" fill="#000" opacity="1">mean</text></g></g><path class="foreground" aria-hidden="true" d="" pointer-events="none" display="none"></path></g></g><g class="mark-group role-scope pathgroup" role="graphics-object" aria-roledescription="group mark container"><g transform="translate(0,0)"><path class="background" aria-hidden="true" d="M0,0h200v200h-200Z"></path><g><g class="mark-line role-mark marks" role="graphics-object" aria-roledescription="line mark container"><path aria-label="winstart: 0; mean: 0.5; winlen: 0.5" role="graphics-symbol" aria-roledescription="line mark" d="M0,33.33333333333333L0,33.33333333333333L0,33.33333333333333L0,33.33333333333333L0,33.33333333333333L0,33.33333333333333L0,33.33333333333333L0,33.33333333333333L0,33.33333333333333L0,33.33333333333333L22.22222222222222,25.757575757575758L22.22222222222222,28.282828282828287L22.22222222222222,25.396825396825374L22.22222222222222,25.757575757575758L22.22222222222222,25.396825396825374L22.22222222222222,28.282828282828287L22.22222222222222,25.757575757575758L22.22222222222222,25.396825396825374L22.22222222222222,28.282828282828287L22.22222222222222,25.396825396825374L44.44444444444444,33.33333333333333L44.44444444444444,33.33333333333333L44.44444444444444,33.33333333333333L44.44444444444444,33.33333333333333L44.44444444444444,33.33333333333333L44.44444444444444,33.33333333333333L44.44444444444444,33.33333333333333L44.44444444444444,33.33333333333333L44.44444444444444,33.33333333333333L44.44444444444444,33.33333333333333L66.66666666666666,33.33333333333333L66.66666666666666,33.33333333333333L66.66666666666666,33.33333333333333L66.66666666666666,33.33333333333333L66.66666666666666,33.33333333333333L66.66666666666666,33.33333333333333L66.66666666666666,33.33333333333333L66.66666666666666,33.33333333333333L66.66666666666666,33.33333333333333L66.66666666666666,33.33333333333333L88.88888888888889,33.33333333333333L88.88888888888889,33.33333333333333L88.88888888888889,33.33333333333333L88.88888888888889,33.33333333333333L88.88888888888889,33.33333333333333L88.88888888888889,33.33333333333333L88.88888888888889,33.33333333333333L88.88888888888889,33.33333333333333L88.88888888888889,33.33333333333333L88.88888888888889,33.33333333333333L111.11111111111111,33.33333333333333L111.11111111111111,33.33333333333333L111.11111111111111,33.33333333333333L111.11111111111111,33.33333333333333L111.11111111111111,33.33333333333333L111.11111111111111,33.33333333333333L111.11111111111111,33.33333333333333L111.11111111111111,35.978835978835974L111.11111111111111,30.808080808080796L111.11111111111111,33.33333333333333L133.33333333333331,35.858585858585855L133.33333333333331,35.858585858585855L133.33333333333331,35.978835978835974L133.33333333333331,35.858585858585855L133.33333333333331,35.978835978835974L133.33333333333331,35.858585858585855L133.33333333333331,35.858585858585855L133.33333333333331,33.33333333333333L133.33333333333331,35.858585858585855L133.33333333333331,35.978835978835974L155.55555555555557,35.858585858585855L155.55555555555557,35.858585858585855L155.55555555555557,35.978835978835974L155.55555555555557,33.33333333333333L155.55555555555557,35.978835978835974L155.55555555555557,35.858585858585855L155.55555555555557,35.858585858585855L155.55555555555557,35.978835978835974L155.55555555555557,35.858585858585855L155.55555555555557,35.978835978835974L177.77777777777777,33.33333333333333L177.77777777777777,35.858585858585855L177.77777777777777,35.978835978835974L177.77777777777777,35.858585858585855L177.77777777777777,35.978835978835974L177.77777777777777,35.858585858585855L177.77777777777777,35.858585858585855L177.77777777777777,35.978835978835974L177.77777777777777,35.858585858585855L177.77777777777777,35.978835978835974L200,20.70707070707072L200,18.181818181818187L200,14.814814814814792L200,15.656565656565657L200,17.46031746031744L200,15.656565656565657L200,15.656565656565657L200,20.105820105820115L200,15.656565656565657L200,17.46031746031744" stroke="rgb(207, 225, 242)" stroke-width="2"></path></g></g><path class="foreground" aria-hidden="true" d="" display="none"></path></g><g transform="translate(0,0)"><path class="background" aria-hidden="true" d="M0,0h200v200h-200Z"></path><g><g class="mark-line role-mark marks" role="graphics-object" aria-roledescription="line mark container"><path aria-label="winstart: 0; mean: 0.507575757576; winlen: 0.583264519788" role="graphics-symbol" aria-roledescription="line mark" d="M0,30.808080808080796L0,30.808080808080796L0,30.687830687830697L0,30.808080808080796L0,30.687830687830697L0,30.808080808080796L0,33.33333333333333L0,30.687830687830697L0,30.808080808080796L0,30.687830687830697L22.22222222222222,35.858585858585855L22.22222222222222,35.858585858585855L22.22222222222222,35.978835978835974L22.22222222222222,38.383838383838366L22.22222222222222,38.62433862433863L22.22222222222222,35.858585858585855L22.22222222222222,35.858585858585855L22.22222222222222,33.33333333333333L22.22222222222222,33.33333333333333L22.22222222222222,33.33333333333333L44.44444444444444,35.858585858585855L44.44444444444444,35.858585858585855L44.44444444444444,33.33333333333333L44.44444444444444,35.858585858585855L44.44444444444444,35.978835978835974L44.44444444444444,35.858585858585855L44.44444444444444,35.858585858585855L44.44444444444444,35.978835978835974L44.44444444444444,35.858585858585855L44.44444444444444,35.978835978835974L66.66666666666666,33.33333333333333L66.66666666666666,35.858585858585855L66.66666666666666,35.978835978835974L66.66666666666666,35.858585858585855L66.66666666666666,35.978835978835974L66.66666666666666,35.858585858585855L66.66666666666666,35.858585858585855L66.66666666666666,35.978835978835974L66.66666666666666,35.858585858585855L66.66666666666666,35.978835978835974L88.88888888888889,33.33333333333333L88.88888888888889,33.33333333333333L88.88888888888889,33.33333333333333L88.88888888888889,33.33333333333333L88.88888888888889,33.33333333333333L88.88888888888889,33.33333333333333L88.88888888888889,33.33333333333333L88.88888888888889,33.33333333333333L88.88888888888889,33.33333333333333L88.88888888888889,33.33333333333333L111.11111111111111,33.33333333333333L111.11111111111111,33.33333333333333L111.11111111111111,33.33333333333333L111.11111111111111,33.33333333333333L111.11111111111111,33.33333333333333L111.11111111111111,33.33333333333333L111.11111111111111,33.33333333333333L111.11111111111111,33.33333333333333L111.11111111111111,33.33333333333333L111.11111111111111,33.33333333333333L133.33333333333331,33.33333333333333L133.33333333333331,33.33333333333333L133.33333333333331,33.33333333333333L133.33333333333331,33.33333333333333L133.33333333333331,33.33333333333333L133.33333333333331,33.33333333333333L133.33333333333331,33.33333333333333L133.33333333333331,33.33333333333333L133.33333333333331,33.33333333333333L133.33333333333331,33.33333333333333L155.55555555555557,35.858585858585855L155.55555555555557,35.858585858585855L155.55555555555557,35.978835978835974L155.55555555555557,35.858585858585855L155.55555555555557,35.978835978835974L155.55555555555557,35.858585858585855L155.55555555555557,35.858585858585855L155.55555555555557,35.978835978835974L155.55555555555557,35.858585858585855L155.55555555555557,33.33333333333333L177.77777777777777,33.33333333333333L177.77777777777777,33.33333333333333L177.77777777777777,33.33333333333333L177.77777777777777,33.33333333333333L177.77777777777777,35.978835978835974L177.77777777777777,33.33333333333333L177.77777777777777,33.33333333333333L177.77777777777777,33.33333333333333L177.77777777777777,33.33333333333333L177.77777777777777,30.687830687830697L200,33.33333333333333L200,33.33333333333333L200,33.33333333333333L200,33.33333333333333L200,33.33333333333333L200,33.33333333333333L200,33.33333333333333L200,33.33333333333333L200,33.33333333333333L200,33.33333333333333" stroke="rgb(198, 220, 239)" stroke-width="2"></path></g></g><path class="foreground" aria-hidden="true" d="" display="none"></path></g><g transform="translate(0,0)"><path class="background" aria-hidden="true" d="M0,0h200v200h-200Z"></path><g><g class="mark-line role-mark marks" role="graphics-object" aria-roledescription="line mark container"><path aria-label="winstart: 0; mean: 0.5; winlen: 0.680395000087" role="graphics-symbol" aria-roledescription="line mark" d="M0,33.33333333333333L0,33.33333333333333L0,33.33333333333333L0,33.33333333333333L0,33.33333333333333L0,33.33333333333333L0,33.33333333333333L0,33.33333333333333L0,33.33333333333333L0,33.33333333333333L22.22222222222222,33.33333333333333L22.22222222222222,35.858585858585855L22.22222222222222,35.978835978835974L22.22222222222222,35.858585858585855L22.22222222222222,35.978835978835974L22.22222222222222,35.858585858585855L22.22222222222222,35.858585858585855L22.22222222222222,35.978835978835974L22.22222222222222,35.858585858585855L22.22222222222222,35.978835978835974L44.44444444444444,30.808080808080796L44.44444444444444,33.33333333333333L44.44444444444444,30.687830687830697L44.44444444444444,30.808080808080796L44.44444444444444,30.687830687830697L44.44444444444444,30.808080808080796L44.44444444444444,30.808080808080796L44.44444444444444,30.687830687830697L44.44444444444444,30.808080808080796L44.44444444444444,30.687830687830697L66.66666666666666,33.33333333333333L66.66666666666666,33.33333333333333L66.66666666666666,33.33333333333333L66.66666666666666,33.33333333333333L66.66666666666666,33.33333333333333L66.66666666666666,33.33333333333333L66.66666666666666,33.33333333333333L66.66666666666666,33.33333333333333L66.66666666666666,33.33333333333333L66.66666666666666,33.33333333333333L88.88888888888889,33.33333333333333L88.88888888888889,33.33333333333333L88.88888888888889,33.33333333333333L88.88888888888889,33.33333333333333L88.88888888888889,33.33333333333333L88.88888888888889,33.33333333333333L88.88888888888889,33.33333333333333L88.88888888888889,33.33333333333333L88.88888888888889,33.33333333333333L88.88888888888889,33.33333333333333L111.11111111111111,35.858585858585855L111.11111111111111,35.858585858585855L111.11111111111111,35.978835978835974L111.11111111111111,33.33333333333333L111.11111111111111,35.978835978835974L111.11111111111111,35.858585858585855L111.11111111111111,35.858585858585855L111.11111111111111,35.978835978835974L111.11111111111111,35.858585858585855L111.11111111111111,35.978835978835974L133.33333333333331,33.33333333333333L133.33333333333331,33.33333333333333L133.33333333333331,33.33333333333333L133.33333333333331,33.33333333333333L133.33333333333331,33.33333333333333L133.33333333333331,33.33333333333333L133.33333333333331,33.33333333333333L133.33333333333331,33.33333333333333L133.33333333333331,33.33333333333333L133.33333333333331,33.33333333333333L155.55555555555557,35.858585858585855L155.55555555555557,33.33333333333333L155.55555555555557,35.978835978835974L155.55555555555557,35.858585858585855L155.55555555555557,35.978835978835974L155.55555555555557,35.858585858585855L155.55555555555557,35.858585858585855L155.55555555555557,35.978835978835974L155.55555555555557,35.858585858585855L155.55555555555557,35.978835978835974L177.77777777777777,38.383838383838366L177.77777777777777,38.383838383838366L177.77777777777777,33.33333333333333L177.77777777777777,38.383838383838366L177.77777777777777,38.62433862433863L177.77777777777777,38.383838383838366L177.77777777777777,38.383838383838366L177.77777777777777,38.62433862433863L177.77777777777777,38.383838383838366L177.77777777777777,38.62433862433863L200,33.33333333333333L200,33.33333333333333L200,35.978835978835974L200,33.33333333333333L200,33.33333333333333L200,33.33333333333333L200,33.33333333333333L200,33.33333333333333L200,33.33333333333333L200,30.687830687830697" stroke="rgb(186, 214, 235)" stroke-width="2"></path></g></g><path class="foreground" aria-hidden="true" d="" display="none"></path></g><g transform="translate(0,0)"><path class="background" aria-hidden="true" d="M0,0h200v200h-200Z"></path><g><g class="mark-line role-mark marks" role="graphics-object" aria-roledescription="line mark container"><path aria-label="winstart: 0; mean: 0.5; winlen: 0.793700525984" role="graphics-symbol" aria-roledescription="line mark" d="M0,33.33333333333333L0,33.33333333333333L0,33.33333333333333L0,33.33333333333333L0,33.33333333333333L0,33.33333333333333L0,33.33333333333333L0,33.33333333333333L0,33.33333333333333L0,33.33333333333333L22.22222222222222,35.858585858585855L22.22222222222222,35.858585858585855L22.22222222222222,35.978835978835974L22.22222222222222,35.858585858585855L22.22222222222222,35.978835978835974L22.22222222222222,35.858585858585855L22.22222222222222,33.33333333333333L22.22222222222222,35.978835978835974L22.22222222222222,35.858585858585855L22.22222222222222,35.978835978835974L44.44444444444444,33.33333333333333L44.44444444444444,33.33333333333333L44.44444444444444,33.33333333333333L44.44444444444444,33.33333333333333L44.44444444444444,33.33333333333333L44.44444444444444,33.33333333333333L44.44444444444444,33.33333333333333L44.44444444444444,33.33333333333333L44.44444444444444,33.33333333333333L44.44444444444444,33.33333333333333L66.66666666666666,33.33333333333333L66.66666666666666,33.33333333333333L66.66666666666666,33.33333333333333L66.66666666666666,33.33333333333333L66.66666666666666,33.33333333333333L66.66666666666666,33.33333333333333L66.66666666666666,33.33333333333333L66.66666666666666,33.33333333333333L66.66666666666666,33.33333333333333L66.66666666666666,33.33333333333333L88.88888888888889,35.858585858585855L88.88888888888889,35.858585858585855L88.88888888888889,35.978835978835974L88.88888888888889,35.858585858585855L88.88888888888889,35.978835978835974L88.88888888888889,35.858585858585855L88.88888888888889,35.858585858585855L88.88888888888889,35.978835978835974L88.88888888888889,33.33333333333333L88.88888888888889,35.978835978835974L111.11111111111111,30.808080808080796L111.11111111111111,28.282828282828287L111.11111111111111,30.687830687830697L111.11111111111111,30.808080808080796L111.11111111111111,35.978835978835974L111.11111111111111,30.808080808080796L111.11111111111111,30.808080808080796L111.11111111111111,30.687830687830697L111.11111111111111,30.808080808080796L111.11111111111111,30.687830687830697L133.33333333333331,35.858585858585855L133.33333333333331,35.858585858585855L133.33333333333331,35.978835978835974L133.33333333333331,35.858585858585855L133.33333333333331,35.978835978835974L133.33333333333331,35.858585858585855L133.33333333333331,35.858585858585855L133.33333333333331,33.33333333333333L133.33333333333331,35.858585858585855L133.33333333333331,35.978835978835974L155.55555555555557,33.33333333333333L155.55555555555557,33.33333333333333L155.55555555555557,33.33333333333333L155.55555555555557,33.33333333333333L155.55555555555557,33.33333333333333L155.55555555555557,33.33333333333333L155.55555555555557,33.33333333333333L155.55555555555557,33.33333333333333L155.55555555555557,33.33333333333333L155.55555555555557,33.33333333333333L177.77777777777777,33.33333333333333L177.77777777777777,33.33333333333333L177.77777777777777,33.33333333333333L177.77777777777777,33.33333333333333L177.77777777777777,33.33333333333333L177.77777777777777,33.33333333333333L177.77777777777777,33.33333333333333L177.77777777777777,33.33333333333333L177.77777777777777,33.33333333333333L177.77777777777777,33.33333333333333L200,33.33333333333333L200,33.33333333333333L200,33.33333333333333L200,33.33333333333333L200,33.33333333333333L200,33.33333333333333L200,33.33333333333333L200,33.33333333333333L200,33.33333333333333L200,33.33333333333333" stroke="rgb(169, 206, 229)" stroke-width="2"></path></g></g><path class="foreground" aria-hidden="true" d="" display="none"></path></g><g transform="translate(0,0)"><path class="background" aria-hidden="true" d="M0,0h200v200h-200Z"></path><g><g class="mark-line role-mark marks" role="graphics-object" aria-roledescription="line mark container"><path aria-label="winstart: 0; mean: 0.5; winlen: 0.925874712287" role="graphics-symbol" aria-roledescription="line mark" d="M0,33.33333333333333L0,33.33333333333333L0,33.33333333333333L0,33.33333333333333L0,33.33333333333333L0,33.33333333333333L0,33.33333333333333L0,33.33333333333333L0,33.33333333333333L0,33.33333333333333L22.22222222222222,33.33333333333333L22.22222222222222,33.33333333333333L22.22222222222222,33.33333333333333L22.22222222222222,33.33333333333333L22.22222222222222,33.33333333333333L22.22222222222222,33.33333333333333L22.22222222222222,33.33333333333333L22.22222222222222,33.33333333333333L22.22222222222222,33.33333333333333L22.22222222222222,33.33333333333333L44.44444444444444,25.757575757575758L44.44444444444444,25.757575757575758L44.44444444444444,28.042328042328023L44.44444444444444,28.282828282828287L44.44444444444444,25.396825396825374L44.44444444444444,25.757575757575758L44.44444444444444,25.757575757575758L44.44444444444444,28.042328042328023L44.44444444444444,25.757575757575758L44.44444444444444,25.396825396825374L66.66666666666666,33.33333333333333L66.66666666666666,33.33333333333333L66.66666666666666,33.33333333333333L66.66666666666666,33.33333333333333L66.66666666666666,33.33333333333333L66.66666666666666,33.33333333333333L66.66666666666666,33.33333333333333L66.66666666666666,33.33333333333333L66.66666666666666,33.33333333333333L66.66666666666666,33.33333333333333L88.88888888888889,35.858585858585855L88.88888888888889,33.33333333333333L88.88888888888889,35.978835978835974L88.88888888888889,35.858585858585855L88.88888888888889,35.978835978835974L88.88888888888889,35.858585858585855L88.88888888888889,35.858585858585855L88.88888888888889,35.978835978835974L88.88888888888889,35.858585858585855L88.88888888888889,35.978835978835974L111.11111111111111,28.282828282828287L111.11111111111111,28.282828282828287L111.11111111111111,25.396825396825374L111.11111111111111,30.808080808080796L111.11111111111111,30.687830687830697L111.11111111111111,28.282828282828287L111.11111111111111,30.808080808080796L111.11111111111111,28.042328042328023L111.11111111111111,28.282828282828287L111.11111111111111,28.042328042328023L133.33333333333331,33.33333333333333L133.33333333333331,33.33333333333333L133.33333333333331,33.33333333333333L133.33333333333331,33.33333333333333L133.33333333333331,33.33333333333333L133.33333333333331,33.33333333333333L133.33333333333331,33.33333333333333L133.33333333333331,33.33333333333333L133.33333333333331,33.33333333333333L133.33333333333331,33.33333333333333L155.55555555555557,33.33333333333333L155.55555555555557,33.33333333333333L155.55555555555557,33.33333333333333L155.55555555555557,33.33333333333333L155.55555555555557,33.33333333333333L155.55555555555557,33.33333333333333L155.55555555555557,33.33333333333333L155.55555555555557,33.33333333333333L155.55555555555557,33.33333333333333L155.55555555555557,33.33333333333333L177.77777777777777,35.858585858585855L177.77777777777777,35.858585858585855L177.77777777777777,35.978835978835974L177.77777777777777,35.858585858585855L177.77777777777777,35.978835978835974L177.77777777777777,35.858585858585855L177.77777777777777,35.858585858585855L177.77777777777777,35.978835978835974L177.77777777777777,33.33333333333333L177.77777777777777,35.978835978835974L200,33.33333333333333L200,33.33333333333333L200,33.33333333333333L200,33.33333333333333L200,33.33333333333333L200,33.33333333333333L200,33.33333333333333L200,33.33333333333333L200,33.33333333333333L200,33.33333333333333" stroke="rgb(147, 195, 223)" stroke-width="2"></path></g></g><path class="foreground" aria-hidden="true" d="" display="none"></path></g><g transform="translate(0,0)"><path class="background" aria-hidden="true" d="M0,0h200v200h-200Z"></path><g><g class="mark-line role-mark marks" role="graphics-object" aria-roledescription="line mark container"><path aria-label="winstart: 0; mean: 0.5; winlen: 1.08005973889" role="graphics-symbol" aria-roledescription="line mark" d="M0,33.33333333333333L0,33.33333333333333L0,33.33333333333333L0,33.33333333333333L0,33.33333333333333L0,33.33333333333333L0,33.33333333333333L0,33.33333333333333L0,33.33333333333333L0,33.33333333333333L22.22222222222222,33.33333333333333L22.22222222222222,33.33333333333333L22.22222222222222,33.33333333333333L22.22222222222222,33.33333333333333L22.22222222222222,33.33333333333333L22.22222222222222,33.33333333333333L22.22222222222222,33.33333333333333L22.22222222222222,33.33333333333333L22.22222222222222,33.33333333333333L22.22222222222222,33.33333333333333L44.44444444444444,33.33333333333333L44.44444444444444,33.33333333333333L44.44444444444444,33.33333333333333L44.44444444444444,33.33333333333333L44.44444444444444,33.33333333333333L44.44444444444444,33.33333333333333L44.44444444444444,33.33333333333333L44.44444444444444,33.33333333333333L44.44444444444444,33.33333333333333L44.44444444444444,33.33333333333333L66.66666666666666,33.33333333333333L66.66666666666666,33.33333333333333L66.66666666666666,33.33333333333333L66.66666666666666,33.33333333333333L66.66666666666666,33.33333333333333L66.66666666666666,33.33333333333333L66.66666666666666,33.33333333333333L66.66666666666666,33.33333333333333L66.66666666666666,33.33333333333333L66.66666666666666,33.33333333333333L88.88888888888889,30.808080808080796L88.88888888888889,30.808080808080796L88.88888888888889,30.687830687830697L88.88888888888889,33.33333333333333L88.88888888888889,30.687830687830697L88.88888888888889,30.808080808080796L88.88888888888889,30.808080808080796L88.88888888888889,30.687830687830697L88.88888888888889,30.808080808080796L88.88888888888889,30.687830687830697L111.11111111111111,33.33333333333333L111.11111111111111,33.33333333333333L111.11111111111111,33.33333333333333L111.11111111111111,33.33333333333333L111.11111111111111,33.33333333333333L111.11111111111111,33.33333333333333L111.11111111111111,33.33333333333333L111.11111111111111,33.33333333333333L111.11111111111111,33.33333333333333L111.11111111111111,33.33333333333333L133.33333333333331,33.33333333333333L133.33333333333331,33.33333333333333L133.33333333333331,33.33333333333333L133.33333333333331,33.33333333333333L133.33333333333331,33.33333333333333L133.33333333333331,33.33333333333333L133.33333333333331,33.33333333333333L133.33333333333331,33.33333333333333L133.33333333333331,33.33333333333333L133.33333333333331,33.33333333333333L155.55555555555557,33.33333333333333L155.55555555555557,33.33333333333333L155.55555555555557,33.33333333333333L155.55555555555557,33.33333333333333L155.55555555555557,33.33333333333333L155.55555555555557,33.33333333333333L155.55555555555557,33.33333333333333L155.55555555555557,33.33333333333333L155.55555555555557,33.33333333333333L155.55555555555557,33.33333333333333L177.77777777777777,28.282828282828287L177.77777777777777,30.808080808080796L177.77777777777777,28.042328042328023L177.77777777777777,28.282828282828287L177.77777777777777,28.042328042328023L177.77777777777777,28.282828282828287L177.77777777777777,28.282828282828287L177.77777777777777,28.042328042328023L177.77777777777777,28.282828282828287L177.77777777777777,30.687830687830697L200,33.33333333333333L200,33.33333333333333L200,33.33333333333333L200,33.33333333333333L200,33.33333333333333L200,33.33333333333333L200,33.33333333333333L200,33.33333333333333L200,33.33333333333333L200,33.33333333333333" stroke="rgb(120, 180, 216)" stroke-width="2"></path></g></g><path class="foreground" aria-hidden="true" d="" display="none"></path></g><g transform="translate(0,0)"><path class="background" aria-hidden="true" d="M0,0h200v200h-200Z"></path><g><g class="mark-line role-mark marks" role="graphics-object" aria-roledescription="line mark container"><path aria-label="winstart: 0; mean: 0.5; winlen: 1.25992104989" role="graphics-symbol" aria-roledescription="line mark" d="M0,33.33333333333333L0,33.33333333333333L0,33.33333333333333L0,33.33333333333333L0,33.33333333333333L0,33.33333333333333L0,33.33333333333333L0,33.33333333333333L0,33.33333333333333L0,33.33333333333333L22.22222222222222,33.33333333333333L22.22222222222222,33.33333333333333L22.22222222222222,33.33333333333333L22.22222222222222,33.33333333333333L22.22222222222222,33.33333333333333L22.22222222222222,33.33333333333333L22.22222222222222,33.33333333333333L22.22222222222222,33.33333333333333L22.22222222222222,33.33333333333333L22.22222222222222,33.33333333333333L44.44444444444444,33.33333333333333L44.44444444444444,33.33333333333333L44.44444444444444,33.33333333333333L44.44444444444444,33.33333333333333L44.44444444444444,33.33333333333333L44.44444444444444,33.33333333333333L44.44444444444444,33.33333333333333L44.44444444444444,33.33333333333333L44.44444444444444,33.33333333333333L44.44444444444444,33.33333333333333L66.66666666666666,35.858585858585855L66.66666666666666,35.858585858585855L66.66666666666666,33.33333333333333L66.66666666666666,35.858585858585855L66.66666666666666,35.978835978835974L66.66666666666666,35.858585858585855L66.66666666666666,35.858585858585855L66.66666666666666,35.978835978835974L66.66666666666666,35.858585858585855L66.66666666666666,35.978835978835974L88.88888888888889,33.33333333333333L88.88888888888889,33.33333333333333L88.88888888888889,33.33333333333333L88.88888888888889,33.33333333333333L88.88888888888889,33.33333333333333L88.88888888888889,33.33333333333333L88.88888888888889,33.33333333333333L88.88888888888889,33.33333333333333L88.88888888888889,33.33333333333333L88.88888888888889,33.33333333333333L111.11111111111111,33.33333333333333L111.11111111111111,33.33333333333333L111.11111111111111,33.33333333333333L111.11111111111111,33.33333333333333L111.11111111111111,33.33333333333333L111.11111111111111,33.33333333333333L111.11111111111111,33.33333333333333L111.11111111111111,33.33333333333333L111.11111111111111,33.33333333333333L111.11111111111111,33.33333333333333L133.33333333333331,33.33333333333333L133.33333333333331,33.33333333333333L133.33333333333331,33.33333333333333L133.33333333333331,33.33333333333333L133.33333333333331,33.33333333333333L133.33333333333331,33.33333333333333L133.33333333333331,33.33333333333333L133.33333333333331,33.33333333333333L133.33333333333331,33.33333333333333L133.33333333333331,33.33333333333333L155.55555555555557,33.33333333333333L155.55555555555557,33.33333333333333L155.55555555555557,33.33333333333333L155.55555555555557,33.33333333333333L155.55555555555557,33.33333333333333L155.55555555555557,33.33333333333333L155.55555555555557,33.33333333333333L155.55555555555557,33.33333333333333L155.55555555555557,33.33333333333333L155.55555555555557,33.33333333333333L177.77777777777777,33.33333333333333L177.77777777777777,33.33333333333333L177.77777777777777,33.33333333333333L177.77777777777777,33.33333333333333L177.77777777777777,33.33333333333333L177.77777777777777,33.33333333333333L177.77777777777777,33.33333333333333L177.77777777777777,33.33333333333333L177.77777777777777,33.33333333333333L177.77777777777777,33.33333333333333L200,30.808080808080796L200,30.808080808080796L200,30.687830687830697L200,30.808080808080796L200,33.33333333333333L200,30.808080808080796L200,30.808080808080796L200,30.687830687830697L200,30.808080808080796L200,30.687830687830697" stroke="rgb(90, 162, 206)" stroke-width="2"></path></g></g><path class="foreground" aria-hidden="true" d="" display="none"></path></g><g transform="translate(0,0)"><path class="background" aria-hidden="true" d="M0,0h200v200h-200Z"></path><g><g class="mark-line role-mark marks" role="graphics-object" aria-roledescription="line mark container"><path aria-label="winstart: 0; mean: 0.5; winlen: 1.46973449228" role="graphics-symbol" aria-roledescription="line mark" d="M0,33.33333333333333L0,33.33333333333333L0,33.33333333333333L0,33.33333333333333L0,33.33333333333333L0,33.33333333333333L0,33.33333333333333L0,33.33333333333333L0,33.33333333333333L0,33.33333333333333L22.22222222222222,33.33333333333333L22.22222222222222,33.33333333333333L22.22222222222222,33.33333333333333L22.22222222222222,33.33333333333333L22.22222222222222,33.33333333333333L22.22222222222222,33.33333333333333L22.22222222222222,33.33333333333333L22.22222222222222,33.33333333333333L22.22222222222222,33.33333333333333L22.22222222222222,33.33333333333333L44.44444444444444,33.33333333333333L44.44444444444444,33.33333333333333L44.44444444444444,33.33333333333333L44.44444444444444,33.33333333333333L44.44444444444444,33.33333333333333L44.44444444444444,33.33333333333333L44.44444444444444,33.33333333333333L44.44444444444444,33.33333333333333L44.44444444444444,33.33333333333333L44.44444444444444,33.33333333333333L66.66666666666666,33.33333333333333L66.66666666666666,33.33333333333333L66.66666666666666,33.33333333333333L66.66666666666666,33.33333333333333L66.66666666666666,33.33333333333333L66.66666666666666,33.33333333333333L66.66666666666666,33.33333333333333L66.66666666666666,33.33333333333333L66.66666666666666,33.33333333333333L66.66666666666666,33.33333333333333L88.88888888888889,33.33333333333333L88.88888888888889,33.33333333333333L88.88888888888889,33.33333333333333L88.88888888888889,33.33333333333333L88.88888888888889,33.33333333333333L88.88888888888889,33.33333333333333L88.88888888888889,33.33333333333333L88.88888888888889,33.33333333333333L88.88888888888889,33.33333333333333L88.88888888888889,33.33333333333333L111.11111111111111,33.33333333333333L111.11111111111111,33.33333333333333L111.11111111111111,33.33333333333333L111.11111111111111,33.33333333333333L111.11111111111111,33.33333333333333L111.11111111111111,33.33333333333333L111.11111111111111,33.33333333333333L111.11111111111111,33.33333333333333L111.11111111111111,33.33333333333333L111.11111111111111,33.33333333333333L133.33333333333331,33.33333333333333L133.33333333333331,33.33333333333333L133.33333333333331,33.33333333333333L133.33333333333331,33.33333333333333L133.33333333333331,33.33333333333333L133.33333333333331,33.33333333333333L133.33333333333331,33.33333333333333L133.33333333333331,33.33333333333333L133.33333333333331,33.33333333333333L133.33333333333331,33.33333333333333L155.55555555555557,33.33333333333333L155.55555555555557,33.33333333333333L155.55555555555557,33.33333333333333L155.55555555555557,33.33333333333333L155.55555555555557,33.33333333333333L155.55555555555557,33.33333333333333L155.55555555555557,33.33333333333333L155.55555555555557,33.33333333333333L155.55555555555557,33.33333333333333L155.55555555555557,33.33333333333333L177.77777777777777,28.282828282828287L177.77777777777777,30.808080808080796L177.77777777777777,28.042328042328023L177.77777777777777,28.282828282828287L177.77777777777777,28.042328042328023L177.77777777777777,28.282828282828287L177.77777777777777,30.808080808080796L177.77777777777777,28.042328042328023L177.77777777777777,28.282828282828287L177.77777777777777,28.042328042328023L200,33.33333333333333L200,33.33333333333333L200,33.33333333333333L200,33.33333333333333L200,33.33333333333333L200,33.33333333333333L200,33.33333333333333L200,33.33333333333333L200,33.33333333333333L200,33.33333333333333" stroke="rgb(60, 138, 194)" stroke-width="2"></path></g></g><path class="foreground" aria-hidden="true" d="" display="none"></path></g><g transform="translate(0,0)"><path class="background" aria-hidden="true" d="M0,0h200v200h-200Z"></path><g><g class="mark-line role-mark marks" role="graphics-object" aria-roledescription="line mark container"><path aria-label="winstart: 0; mean: 0.5; winlen: 1.71448796571" role="graphics-symbol" aria-roledescription="line mark" d="M0,33.33333333333333L0,33.33333333333333L0,33.33333333333333L0,33.33333333333333L0,33.33333333333333L0,33.33333333333333L0,33.33333333333333L0,33.33333333333333L0,33.33333333333333L0,33.33333333333333L22.22222222222222,33.33333333333333L22.22222222222222,33.33333333333333L22.22222222222222,33.33333333333333L22.22222222222222,33.33333333333333L22.22222222222222,33.33333333333333L22.22222222222222,33.33333333333333L22.22222222222222,33.33333333333333L22.22222222222222,33.33333333333333L22.22222222222222,33.33333333333333L22.22222222222222,33.33333333333333L44.44444444444444,33.33333333333333L44.44444444444444,33.33333333333333L44.44444444444444,33.33333333333333L44.44444444444444,33.33333333333333L44.44444444444444,33.33333333333333L44.44444444444444,33.33333333333333L44.44444444444444,33.33333333333333L44.44444444444444,33.33333333333333L44.44444444444444,33.33333333333333L44.44444444444444,33.33333333333333L66.66666666666666,30.808080808080796L66.66666666666666,30.808080808080796L66.66666666666666,30.687830687830697L66.66666666666666,30.808080808080796L66.66666666666666,30.687830687830697L66.66666666666666,30.808080808080796L66.66666666666666,30.808080808080796L66.66666666666666,30.687830687830697L66.66666666666666,30.808080808080796L66.66666666666666,33.33333333333333L88.88888888888889,33.33333333333333L88.88888888888889,33.33333333333333L88.88888888888889,33.33333333333333L88.88888888888889,33.33333333333333L88.88888888888889,33.33333333333333L88.88888888888889,33.33333333333333L88.88888888888889,33.33333333333333L88.88888888888889,33.33333333333333L88.88888888888889,33.33333333333333L88.88888888888889,33.33333333333333L111.11111111111111,33.33333333333333L111.11111111111111,33.33333333333333L111.11111111111111,33.33333333333333L111.11111111111111,33.33333333333333L111.11111111111111,33.33333333333333L111.11111111111111,33.33333333333333L111.11111111111111,33.33333333333333L111.11111111111111,33.33333333333333L111.11111111111111,33.33333333333333L111.11111111111111,33.33333333333333L133.33333333333331,33.33333333333333L133.33333333333331,33.33333333333333L133.33333333333331,33.33333333333333L133.33333333333331,33.33333333333333L133.33333333333331,33.33333333333333L133.33333333333331,33.33333333333333L133.33333333333331,33.33333333333333L133.33333333333331,33.33333333333333L133.33333333333331,33.33333333333333L133.33333333333331,33.33333333333333L155.55555555555557,33.33333333333333L155.55555555555557,33.33333333333333L155.55555555555557,33.33333333333333L155.55555555555557,33.33333333333333L155.55555555555557,33.33333333333333L155.55555555555557,33.33333333333333L155.55555555555557,33.33333333333333L155.55555555555557,33.33333333333333L155.55555555555557,33.33333333333333L155.55555555555557,33.33333333333333L177.77777777777777,28.282828282828287L177.77777777777777,30.808080808080796L177.77777777777777,28.042328042328023L177.77777777777777,30.808080808080796L177.77777777777777,28.042328042328023L177.77777777777777,28.282828282828287L177.77777777777777,28.282828282828287L177.77777777777777,28.042328042328023L177.77777777777777,28.282828282828287L177.77777777777777,28.042328042328023L200,33.33333333333333L200,33.33333333333333L200,33.33333333333333L200,33.33333333333333L200,33.33333333333333L200,33.33333333333333L200,33.33333333333333L200,33.33333333333333L200,33.33333333333333L200,33.33333333333333" stroke="rgb(31, 109, 177)" stroke-width="2"></path></g></g><path class="foreground" aria-hidden="true" d="" display="none"></path></g><g transform="translate(0,0)"><path class="background" aria-hidden="true" d="M0,0h200v200h-200Z"></path><g><g class="mark-line role-mark marks" role="graphics-object" aria-roledescription="line mark container"><path aria-label="winstart: 0; mean: 0.5; winlen: 2" role="graphics-symbol" aria-roledescription="line mark" d="M0,33.33333333333333L0,33.33333333333333L0,33.33333333333333L0,33.33333333333333L0,33.33333333333333L0,33.33333333333333L0,33.33333333333333L0,33.33333333333333L0,33.33333333333333L0,33.33333333333333L22.22222222222222,33.33333333333333L22.22222222222222,33.33333333333333L22.22222222222222,33.33333333333333L22.22222222222222,33.33333333333333L22.22222222222222,33.33333333333333L22.22222222222222,33.33333333333333L22.22222222222222,33.33333333333333L22.22222222222222,33.33333333333333L22.22222222222222,33.33333333333333L22.22222222222222,33.33333333333333L44.44444444444444,33.33333333333333L44.44444444444444,33.33333333333333L44.44444444444444,33.33333333333333L44.44444444444444,33.33333333333333L44.44444444444444,33.33333333333333L44.44444444444444,33.33333333333333L44.44444444444444,33.33333333333333L44.44444444444444,33.33333333333333L44.44444444444444,33.33333333333333L44.44444444444444,33.33333333333333L66.66666666666666,33.33333333333333L66.66666666666666,33.33333333333333L66.66666666666666,33.33333333333333L66.66666666666666,33.33333333333333L66.66666666666666,33.33333333333333L66.66666666666666,33.33333333333333L66.66666666666666,33.33333333333333L66.66666666666666,33.33333333333333L66.66666666666666,33.33333333333333L66.66666666666666,33.33333333333333L88.88888888888889,33.33333333333333L88.88888888888889,33.33333333333333L88.88888888888889,33.33333333333333L88.88888888888889,33.33333333333333L88.88888888888889,33.33333333333333L88.88888888888889,33.33333333333333L88.88888888888889,33.33333333333333L88.88888888888889,33.33333333333333L88.88888888888889,33.33333333333333L88.88888888888889,33.33333333333333L111.11111111111111,33.33333333333333L111.11111111111111,33.33333333333333L111.11111111111111,33.33333333333333L111.11111111111111,33.33333333333333L111.11111111111111,33.33333333333333L111.11111111111111,33.33333333333333L111.11111111111111,33.33333333333333L111.11111111111111,33.33333333333333L111.11111111111111,33.33333333333333L111.11111111111111,33.33333333333333L133.33333333333331,35.858585858585855L133.33333333333331,35.858585858585855L133.33333333333331,35.978835978835974L133.33333333333331,33.33333333333333L133.33333333333331,35.978835978835974L133.33333333333331,35.858585858585855L133.33333333333331,35.858585858585855L133.33333333333331,35.978835978835974L133.33333333333331,35.858585858585855L133.33333333333331,35.978835978835974L155.55555555555557,33.33333333333333L155.55555555555557,33.33333333333333L155.55555555555557,33.33333333333333L155.55555555555557,33.33333333333333L155.55555555555557,33.33333333333333L155.55555555555557,33.33333333333333L155.55555555555557,33.33333333333333L155.55555555555557,33.33333333333333L155.55555555555557,33.33333333333333L155.55555555555557,33.33333333333333L177.77777777777777,30.808080808080796L177.77777777777777,33.33333333333333L177.77777777777777,30.687830687830697L177.77777777777777,30.808080808080796L177.77777777777777,30.687830687830697L177.77777777777777,30.808080808080796L177.77777777777777,30.808080808080796L177.77777777777777,30.687830687830697L177.77777777777777,30.808080808080796L177.77777777777777,30.687830687830697L200,25.757575757575758L200,25.757575757575758L200,25.396825396825374L200,28.282828282828287L200,25.396825396825374L200,28.282828282828287L200,28.282828282828287L200,25.396825396825374L200,25.757575757575758L200,25.396825396825374" stroke="rgb(10, 74, 144)" stroke-width="2"></path></g></g><path class="foreground" aria-hidden="true" d="" display="none"></path></g></g><g class="mark-group role-legend" role="graphics-symbol" aria-roledescription="legend" aria-label="Gradient legend titled 'winlen' for stroke color with values from 0.5 to 2.0"><g transform="translate(220,0)"><path class="background" aria-hidden="true" d="M0,0h41v216h-41Z" pointer-events="none"></path><g><g class="mark-group role-legend-entry"><g transform="translate(0,16)"><path class="background" aria-hidden="true" d="M0,0h0v0h0Z" pointer-events="none"></path><g><g class="mark-rect role-legend-gradient" pointer-events="none"><path d="M0,0h16v200h-16Z" fill="url(#gradient_0)" stroke="#ddd" stroke-width="0" opacity="1"></path></g><g class="mark-text role-legend-label" pointer-events="none"><text text-anchor="start" transform="translate(18,198)" font-family="sans-serif" font-size="10px" fill="#000" opacity="1">0.5</text><text text-anchor="start" transform="translate(18,136.33333333333334)" font-family="sans-serif" font-size="10px" fill="#000" opacity="1">1.0</text><text text-anchor="start" transform="translate(18,69.66666666666667)" font-family="sans-serif" font-size="10px" fill="#000" opacity="1">1.5</text><text text-anchor="start" transform="translate(18,8)" font-family="sans-serif" font-size="10px" fill="#000" opacity="1">2.0</text></g></g><path class="foreground" aria-hidden="true" d="" pointer-events="none" display="none"></path></g></g><g class="mark-text role-legend-title" pointer-events="none"><text text-anchor="start" transform="translate(0,9)" font-family="sans-serif" font-size="11px" font-weight="bold" fill="#000" opacity="1">winlen</text></g></g><path class="foreground" aria-hidden="true" d="" pointer-events="none" display="none"></path></g></g></g><path class="foreground" aria-hidden="true" d="" display="none"></path></g></g></g></svg>
