<?xml version="1.0" encoding="utf-8"?>
<!DOCTYPE svg PUBLIC "-//W3C//DTD SVG 1.1//EN" "http://www.w3.org/Graphics/SVG/1.1/DTD/svg11.dtd">
<svg class="marks" width="308" height="247" viewBox="0 0 308 247" version="1.1" xmlns="http://www.w3.org/2000/svg" xmlns:xlink="http://www.w3.org/1999/xlink"><defs><linearGradient id="gradient_0" x1="0" x2="0" y1="1" y2="0"><stop offset="0" stop-color="rgb(207, 225, 242)"></stop><stop offset="0.019354838709677424" stop-color="rgb(204, 223, 241)"></stop><stop offset="0.07096774193548387" stop-color="rgb(195, 219, 238)"></stop><stop offset="0.12258064516129032" stop-color="rgb(185, 214, 234)"></stop><stop offset="0.17419354838709677" stop-color="rgb(174, 209, 231)"></stop><stop offset="0.22580645161290322" stop-color="rgb(162, 203, 227)"></stop><stop offset="0.27741935483870966" stop-color="rgb(149, 196, 224)"></stop><stop offset="0.3290322580645161" stop-color="rgb(135, 189, 220)"></stop><stop offset="0.3806451612903226" stop-color="rgb(121, 181, 216)"></stop><stop offset="0.432258064516129" stop-color="rgb(108, 173, 212)"></stop><stop offset="0.4838709677419355" stop-color="rgb(95, 165, 208)"></stop><stop offset="0.535483870967742" stop-color="rgb(83, 157, 204)"></stop><stop offset="0.5870967741935483" stop-color="rgb(72, 148, 199)"></stop><stop offset="0.6387096774193549" stop-color="rgb(61, 139, 195)"></stop><stop offset="0.6903225806451613" stop-color="rgb(51, 131, 190)"></stop><stop offset="0.7419354838709677" stop-color="rgb(42, 121, 184)"></stop><stop offset="0.7935483870967742" stop-color="rgb(33, 112, 179)"></stop><stop offset="0.8451612903225806" stop-color="rgb(26, 102, 172)"></stop><stop offset="0.8967741935483872" stop-color="rgb(18, 93, 164)"></stop><stop offset="0.9483870967741935" stop-color="rgb(14, 83, 154)"></stop><stop offset="1" stop-color="rgb(10, 74, 144)"></stop></linearGradient></defs><rect width="308" height="247" fill="white"></rect><g fill="none" stroke-miterlimit="10" transform="translate(42,10)"><g class="mark-group role-frame root" role="graphics-object" aria-roledescription="group mark container"><g transform="translate(0,0)"><path class="background" aria-hidden="true" d="M0.5,0.5h200v200h-200Z" stroke="#ddd"></path><g><g class="mark-group role-axis" aria-hidden="true"><g transform="translate(0.5,200.5)"><path class="background" aria-hidden="true" d="M0,0h0v0h0Z" pointer-events="none"></path><g><g class="mark-rule role-axis-grid" pointer-events="none"><line transform="translate(0,-200)" x2="0" y2="200" stroke="#ddd" stroke-width="1" opacity="1"></line><line transform="translate(40,-200)" x2="0" y2="200" stroke="#ddd" stroke-width="1" opacity="1"></line><line transform="translate(80,-200)" x2="0" y2="200" stroke="#ddd" stroke-width="1" opacity="1"></line><line transform="translate(120,-200)" x2="0" y2="200" stroke="#ddd" stroke-width="1" opacity="1"></line><line transform="translate(160,-200)" x2="0" y2="200" stroke="#ddd" stroke-width="1" opacity="1"></line><line transform="translate(200,-200)" x2="0" y2="200" stroke="#ddd" stroke-width="1" opacity="1"></line></g></g><path class="foreground" aria-hidden="true" d="" pointer-events="none" display="none"></path></g></g><g class="mark-group role-axis" aria-hidden="true"><g transform="translate(0.5,0.5)"><path class="background" aria-hidden="true" d="M0,0h0v0h0Z" pointer-events="none"></path><g><g class="mark-rule role-axis-grid" pointer-events="none"><line transform="translate(0,200)" x2="200" y2="0" stroke="#ddd" stroke-width="1" opacity="1"></line><line transform="translate(0,167)" x2="200" y2="0" stroke="#ddd" stroke-width="1" opacity="1"></line><line transform="translate(0,133)" x2="200" y2="0" stroke="#ddd" stroke-width="1" opacity="1"></line><line transform="translate(0,100)" x2="200" y2="0" stroke="#ddd" stroke-width="1" opacity="1"></line><line transform="translate(0,67)" x2="200" y2="0" stroke="#ddd" stroke-width="1" opacity="1"></line><line transform="translate(0,33)" x2="200" y2="0" stroke="#ddd" stroke-width="1" opacity="1"></line><line transform="translate(0,0)" x2="200" y2="0" stroke="#ddd" stroke-width="1" opacity="1"></line></g></g><path class="foreground" aria-hidden="true" d="" pointer-events="none" display="none"></path></g></g><g class="mark-group role-axis" role="graphics-symbol" aria-roledescription="axis" aria-label="X-axis titled 'winstart' for a linear scale with values from 0.0 to 1.0"><g transform="translate(0.5,200.5)"><path class="background" aria-hidden="true" d="M0,0h0v0h0Z" pointer-events="none"></path><g><g class="mark-rule role-axis-tick" pointer-events="none"><line transform="translate(0,0)" x2="0" y2="5" stroke="#888" stroke-width="1" opacity="1"></line><line transform="translate(40,0)" x2="0" y2="5" stroke="#888" stroke-width="1" opacity="1"></line><line transform="translate(80,0)" x2="0" y2="5" stroke="#888" stroke-width="1" opacity="1"></line><line transform="translate(120,0)" x2="0" y2="5" stroke="#888" stroke-width="1" opacity="1"></line><line transform="translate(160,0)" x2="0" y2="5" stroke="#888" stroke-width="1" opacity="1"></line><line transform="translate(200,0)" x2="0" y2="5" stroke="#888" stroke-width="1" opacity="1"></line></g><g class="mark-text role-axis-label" pointer-events="none"><text text-anchor="start" transform="translate(0,15)" font-family="sans-serif" font-size="10px" fill="#000" opacity="1">0.0</text><text text-anchor="middle" transform="translate(40,15)" font-family="sans-serif" font-size="10px" fill="#000" opacity="1">0.2</text><text text-anchor="middle" transform="translate(80,15)" font-family="sans-serif" font-size="10px" fill="#000" opacity="1">0.4</text><text text-anchor="middle" transform="translate(120,15)" font-family="sans-serif" font-size="10px" fill="#000" opacity="1">0.6</text><text text-anchor="middle" transform="translate(160,15)" font-family="sans-serif" font-size="10px" fill="#000" opacity="1">0.8</text><text text-anchor="end" transform="translate(200,15)" font-family="sans-serif" font-size="10px" fill="#000" opacity="1">1.0</text></g><g class="mark-rule role-axis-domain" pointer-events="none"><line transform="translate(0,0)" x2="200" y2="0" stroke="#888" stroke-width="1" opacity="1"></line></g><g class="mark-text role-axis-title" pointer-events="none"><text text-anchor="middle" transform="translate(100,30)" font-family="sans-serif" font-size="11px" font-weight="bold" fill="#000" opacity="1">winstart</text></g></g><path class="foreground" aria-hidden="true" d="" pointer-events="none" display="none"></path></g></g><g class="mark-group role-axis" role="graphics-symbol" aria-roledescription="axis" aria-label="Y-axis titled 'mean' for a linear scale with values from 0.0 to 0.6"><g transform="translate(0.5,0.5)"><path class="background" aria-hidden="true" d="M0,0h0v0h0Z" pointer-events="none"></path><g><g class="mark-rule role-axis-tick" pointer-events="none"><line transform="translate(0,200)" x2="-5" y2="0" stroke="#888" stroke-width="1" opacity="1"></line><line transform="translate(0,167)" x2="-5" y2="0" stroke="#888" stroke-width="1" opacity="1"></line><line transform="translate(0,133)" x2="-5" y2="0" stroke="#888" stroke-width="1" opacity="1"></line><line transform="translate(0,100)" x2="-5" y2="0" stroke="#888" stroke-width="1" opacity="1"></line><line transform="translate(0,67)" x2="-5" y2="0" stroke="#888" stroke-width="1" opacity="1"></line><line transform="translate(0,33)" x2="-5" y2="0" stroke="#888" stroke-width="1" opacity="1"></line><line transform="translate(0,0)" x2="-5" y2="0" stroke="#888" stroke-width="1" opacity="1"></line></g><g class="mark-text role-axis-label" pointer-events="none"><text text-anchor="end" transform="translate(-7,203)" font-family="sans-serif" font-size="10px" fill="#000" opacity="1">0.0</text><text text-anchor="end" transform="translate(-7,169.66666666666666)" font-family="sans-serif" font-size="10px" fill="#000" opacity="1">0.1</text><text text-anchor="end" transform="translate(-7,136.33333333333331)" font-family="sans-serif" font-size="10px" fill="#000" opacity="1">0.2</text><text text-anchor="end" transform="translate(-7,103)" font-family="sans-serif" font-size="10px" fill="#000" opacity="1">0.3</text><text text-anchor="end" transform="translate(-7,69.66666666666666)" font-family="sans-serif" font-size="10px" fill="#000" opacity="1">0.4</text><text text-anchor="end" transform="translate(-7,36.33333333333333)" font-family="sans-serif" font-size="10px" fill="#000" opacity="1">0.5</text><text text-anchor="end" transform="translate(-7,3)" font-family="sans-serif" font-size="10px" fill="#000" opacity="1">0.6</text></g><g class="mark-rule role-axis-domain" pointer-events="none"><line transform="translate(0,200)" x2="0" y2="-200" stroke="#888" stroke-width="1" opacity="1"></line></g><g class="mark-text role-axis-title" pointer-events="none"><text text-anchor="middle" transform="translate(-26,100) rotate(-90) translate(0,-2)" font-family="sans-serif" font-size="11px" font-weight="bold" fill="#000" opacity="1">mean</text></g></g><path class="foreground" aria-hidden="true" d="" pointer-events="none" display="none"></path></g></g><g class="mark-group role-scope pathgroup" role="graphics-object" aria-roledescription="group mark container"><g transform="translate(0,0)"><path class="background" aria-hidden="true" d="M0,0h200v200h-200Z"></path><g><g class="mark-line role-mark marks" role="graphics-object" aria-roledescription="line mark container"><path aria-label="winstart: 0; mean: 0.5; fold: 1; winlen: 0.0625" role="graphics-symbol" aria-roledescription="line mark" d="M0,33.33333333333333L22.22222222222222,38.383838383838366L44.44444444444444,25.757575757575758L66.66666666666666,28.282828282828287L88.88888888888889,33.33333333333333L111.11111111111111,8.080808080808065L133.33333333333331,28.282828282828287L155.55555555555557,40.90909090909089L177.77777777777777,33.33333333333333L200,33.33333333333333" stroke="rgb(207, 225, 242)" stroke-width="2"></path></g></g><path class="foreground" aria-hidden="true" d="" display="none"></path></g><g transform="translate(0,0)"><path class="background" aria-hidden="true" d="M0,0h200v200h-200Z"></path><g><g class="mark-line role-mark marks" role="graphics-object" aria-roledescription="line mark container"><path aria-label="winstart: 0; mean: 0.507575757576; fold: 1; winlen: 0.0918584057672" role="graphics-symbol" aria-roledescription="line mark" d="M0,30.808080808080796L22.22222222222222,30.808080808080796L44.44444444444444,18.181818181818187L66.66666666666666,35.858585858585855L88.88888888888889,38.383838383838366L111.11111111111111,38.383838383838366L133.33333333333331,30.808080808080796L155.55555555555557,35.858585858585855L177.77777777777777,23.232323232323225L200,40.90909090909089" stroke="rgb(204, 224, 241)" stroke-width="2"></path></g></g><path class="foreground" aria-hidden="true" d="" display="none"></path></g><g transform="translate(0,0)"><path class="background" aria-hidden="true" d="M0,0h200v200h-200Z"></path><g><g class="mark-line role-mark marks" role="graphics-object" aria-roledescription="line mark container"><path aria-label="winstart: 0; mean: 0.5; fold: 1; winlen: 0.135007467362" role="graphics-symbol" aria-roledescription="line mark" d="M0,33.33333333333333L22.22222222222222,33.33333333333333L44.44444444444444,18.181818181818187L66.66666666666666,35.858585858585855L88.88888888888889,33.33333333333333L111.11111111111111,13.13131313131315L133.33333333333331,33.33333333333333L155.55555555555557,35.858585858585855L177.77777777777777,28.282828282828287L200,35.858585858585855" stroke="rgb(201, 222, 240)" stroke-width="2"></path></g></g><path class="foreground" aria-hidden="true" d="" display="none"></path></g><g transform="translate(0,0)"><path class="background" aria-hidden="true" d="M0,0h200v200h-200Z"></path><g><g class="mark-line role-mark marks" role="graphics-object" aria-roledescription="line mark container"><path aria-label="winstart: 0; mean: 0.5; fold: 1; winlen: 0.198425131496" role="graphics-symbol" aria-roledescription="line mark" d="M0,33.33333333333333L22.22222222222222,35.858585858585855L44.44444444444444,33.33333333333333L66.66666666666666,33.33333333333333L88.88888888888889,30.808080808080796L111.11111111111111,33.33333333333333L133.33333333333331,18.181818181818187L155.55555555555557,38.383838383838366L177.77777777777777,33.33333333333333L200,33.33333333333333" stroke="rgb(195, 219, 238)" stroke-width="2"></path></g></g><path class="foreground" aria-hidden="true" d="" display="none"></path></g><g transform="translate(0,0)"><path class="background" aria-hidden="true" d="M0,0h200v200h-200Z"></path><g><g class="mark-line role-mark marks" role="graphics-object" aria-roledescription="line mark container"><path aria-label="winstart: 0; mean: 0.515151515152; fold: 1; winlen: 0.291632259894" role="graphics-symbol" aria-roledescription="line mark" d="M0,28.282828282828287L22.22222222222222,18.181818181818187L44.44444444444444,33.33333333333333L66.66666666666666,30.808080808080796L88.88888888888889,33.33333333333333L111.11111111111111,35.858585858585855L133.33333333333331,28.282828282828287L155.55555555555557,33.33333333333333L177.77777777777777,33.33333333333333L200,33.33333333333333" stroke="rgb(186, 214, 235)" stroke-width="2"></path></g></g><path class="foreground" aria-hidden="true" d="" display="none"></path></g><g transform="translate(0,0)"><path class="background" aria-hidden="true" d="M0,0h200v200h-200Z"></path><g><g class="mark-line role-mark marks" role="graphics-object" aria-roledescription="line mark container"><path aria-label="winstart: 0; mean: 0.492424242424; fold: 1; winlen: 0.428621991427" role="graphics-symbol" aria-roledescription="line mark" d="M0,35.858585858585855L22.22222222222222,33.33333333333333L44.44444444444444,30.808080808080796L66.66666666666666,35.858585858585855L88.88888888888889,33.33333333333333L111.11111111111111,33.33333333333333L133.33333333333331,35.858585858585855L155.55555555555557,35.858585858585855L177.77777777777777,25.757575757575758L200,33.33333333333333" stroke="rgb(170, 207, 230)" stroke-width="2"></path></g></g><path class="foreground" aria-hidden="true" d="" display="none"></path></g><g transform="translate(0,0)"><path class="background" aria-hidden="true" d="M0,0h200v200h-200Z"></path><g><g class="mark-line role-mark marks" role="graphics-object" aria-roledescription="line mark container"><path aria-label="winstart: 0; mean: 0.5; fold: 1; winlen: 0.629960524947" role="graphics-symbol" aria-roledescription="line mark" d="M0,33.33333333333333L22.22222222222222,35.858585858585855L44.44444444444444,23.232323232323225L66.66666666666666,33.33333333333333L88.88888888888889,35.858585858585855L111.11111111111111,33.33333333333333L133.33333333333331,35.858585858585855L155.55555555555557,35.858585858585855L177.77777777777777,33.33333333333333L200,25.757575757575758" stroke="rgb(145, 194, 222)" stroke-width="2"></path></g></g><path class="foreground" aria-hidden="true" d="" display="none"></path></g><g transform="translate(0,0)"><path class="background" aria-hidden="true" d="M0,0h200v200h-200Z"></path><g><g class="mark-line role-mark marks" role="graphics-object" aria-roledescription="line mark container"><path aria-label="winstart: 0; mean: 0.5; fold: 1; winlen: 0.925874712287" role="graphics-symbol" aria-roledescription="line mark" d="M0,33.33333333333333L22.22222222222222,33.33333333333333L44.44444444444444,33.33333333333333L66.66666666666666,33.33333333333333L88.88888888888889,33.33333333333333L111.11111111111111,33.33333333333333L133.33333333333331,33.33333333333333L155.55555555555557,28.282828282828287L177.77777777777777,33.33333333333333L200,33.33333333333333" stroke="rgb(105, 171, 211)" stroke-width="2"></path></g></g><path class="foreground" aria-hidden="true" d="" display="none"></path></g><g transform="translate(0,0)"><path class="background" aria-hidden="true" d="M0,0h200v200h-200Z"></path><g><g class="mark-line role-mark marks" role="graphics-object" aria-roledescription="line mark container"><path aria-label="winstart: 0; mean: 0.5; fold: 1; winlen: 1.36079000017" role="graphics-symbol" aria-roledescription="line mark" d="M0,33.33333333333333L22.22222222222222,35.858585858585855L44.44444444444444,33.33333333333333L66.66666666666666,33.33333333333333L88.88888888888889,33.33333333333333L111.11111111111111,33.33333333333333L133.33333333333331,33.33333333333333L155.55555555555557,33.33333333333333L177.77777777777777,33.33333333333333L200,30.808080808080796" stroke="rgb(55, 134, 192)" stroke-width="2"></path></g></g><path class="foreground" aria-hidden="true" d="" display="none"></path></g><g transform="translate(0,0)"><path class="background" aria-hidden="true" d="M0,0h200v200h-200Z"></path><g><g class="mark-line role-mark marks" role="graphics-object" aria-roledescription="line mark container"><path aria-label="winstart: 0; mean: 0.5; fold: 1; winlen: 2" role="graphics-symbol" aria-roledescription="line mark" d="M0,33.33333333333333L22.22222222222222,33.33333333333333L44.44444444444444,33.33333333333333L66.66666666666666,25.757575757575758L88.88888888888889,33.33333333333333L111.11111111111111,33.33333333333333L133.33333333333331,35.858585858585855L155.55555555555557,33.33333333333333L177.77777777777777,33.33333333333333L200,33.33333333333333" stroke="rgb(10, 74, 144)" stroke-width="2"></path></g></g><path class="foreground" aria-hidden="true" d="" display="none"></path></g><g transform="translate(0,0)"><path class="background" aria-hidden="true" d="M0,0h200v200h-200Z"></path><g><g class="mark-line role-mark marks" role="graphics-object" aria-roledescription="line mark container"><path aria-label="winstart: 0; mean: 0.5; fold: 2; winlen: 0.0625" role="graphics-symbol" aria-roledescription="line mark" d="M0,33.33333333333333L22.22222222222222,35.858585858585855L44.44444444444444,23.232323232323225L66.66666666666666,25.757575757575758L88.88888888888889,33.33333333333333L111.11111111111111,5.555555555555536L133.33333333333331,28.282828282828287L155.55555555555557,40.90909090909089L177.77777777777777,33.33333333333333L200,35.858585858585855" stroke="rgb(207, 225, 242)" stroke-width="2"></path></g></g><path class="foreground" aria-hidden="true" d="" display="none"></path></g><g transform="translate(0,0)"><path class="background" aria-hidden="true" d="M0,0h200v200h-200Z"></path><g><g class="mark-line role-mark marks" role="graphics-object" aria-roledescription="line mark container"><path aria-label="winstart: 0; mean: 0.507575757576; fold: 2; winlen: 0.0918584057672" role="graphics-symbol" aria-roledescription="line mark" d="M0,30.808080808080796L22.22222222222222,30.808080808080796L44.44444444444444,20.70707070707072L66.66666666666666,35.858585858585855L88.88888888888889,38.383838383838366L111.11111111111111,38.383838383838366L133.33333333333331,28.282828282828287L155.55555555555557,33.33333333333333L177.77777777777777,23.232323232323225L200,43.434343434343425" stroke="rgb(204, 224, 241)" stroke-width="2"></path></g></g><path class="foreground" aria-hidden="true" d="" display="none"></path></g><g transform="translate(0,0)"><path class="background" aria-hidden="true" d="M0,0h200v200h-200Z"></path><g><g class="mark-line role-mark marks" role="graphics-object" aria-roledescription="line mark container"><path aria-label="winstart: 0; mean: 0.507575757576; fold: 2; winlen: 0.135007467362" role="graphics-symbol" aria-roledescription="line mark" d="M0,30.808080808080796L22.22222222222222,33.33333333333333L44.44444444444444,20.70707070707072L66.66666666666666,35.858585858585855L88.88888888888889,33.33333333333333L111.11111111111111,20.70707070707072L133.33333333333331,33.33333333333333L155.55555555555557,35.858585858585855L177.77777777777777,20.70707070707072L200,35.858585858585855" stroke="rgb(201, 222, 240)" stroke-width="2"></path></g></g><path class="foreground" aria-hidden="true" d="" display="none"></path></g><g transform="translate(0,0)"><path class="background" aria-hidden="true" d="M0,0h200v200h-200Z"></path><g><g class="mark-line role-mark marks" role="graphics-object" aria-roledescription="line mark container"><path aria-label="winstart: 0; mean: 0.5; fold: 2; winlen: 0.198425131496" role="graphics-symbol" aria-roledescription="line mark" d="M0,33.33333333333333L22.22222222222222,33.33333333333333L44.44444444444444,33.33333333333333L66.66666666666666,33.33333333333333L88.88888888888889,30.808080808080796L111.11111111111111,33.33333333333333L133.33333333333331,20.70707070707072L155.55555555555557,38.383838383838366L177.77777777777777,33.33333333333333L200,30.808080808080796" stroke="rgb(195, 219, 238)" stroke-width="2"></path></g></g><path class="foreground" aria-hidden="true" d="" display="none"></path></g><g transform="translate(0,0)"><path class="background" aria-hidden="true" d="M0,0h200v200h-200Z"></path><g><g class="mark-line role-mark marks" role="graphics-object" aria-roledescription="line mark container"><path aria-label="winstart: 0; mean: 0.515151515152; fold: 2; winlen: 0.291632259894" role="graphics-symbol" aria-roledescription="line mark" d="M0,28.282828282828287L22.22222222222222,20.70707070707072L44.44444444444444,33.33333333333333L66.66666666666666,30.808080808080796L88.88888888888889,33.33333333333333L111.11111111111111,38.383838383838366L133.33333333333331,30.808080808080796L155.55555555555557,33.33333333333333L177.77777777777777,30.808080808080796L200,33.33333333333333" stroke="rgb(186, 214, 235)" stroke-width="2"></path></g></g><path class="foreground" aria-hidden="true" d="" display="none"></path></g><g transform="translate(0,0)"><path class="background" aria-hidden="true" d="M0,0h200v200h-200Z"></path><g><g class="mark-line role-mark marks" role="graphics-object" aria-roledescription="line mark container"><path aria-label="winstart: 0; mean: 0.492424242424; fold: 2; winlen: 0.428621991427" role="graphics-symbol" aria-roledescription="line mark" d="M0,35.858585858585855L22.22222222222222,33.33333333333333L44.44444444444444,33.33333333333333L66.66666666666666,35.858585858585855L88.88888888888889,30.808080808080796L111.11111111111111,33.33333333333333L133.33333333333331,35.858585858585855L155.55555555555557,33.33333333333333L177.77777777777777,28.282828282828287L200,33.33333333333333" stroke="rgb(170, 207, 230)" stroke-width="2"></path></g></g><path class="foreground" aria-hidden="true" d="" display="none"></path></g><g transform="translate(0,0)"><path class="background" aria-hidden="true" d="M0,0h200v200h-200Z"></path><g><g class="mark-line role-mark marks" role="graphics-object" aria-roledescription="line mark container"><path aria-label="winstart: 0; mean: 0.5; fold: 2; winlen: 0.629960524947" role="graphics-symbol" aria-roledescription="line mark" d="M0,33.33333333333333L22.22222222222222,35.858585858585855L44.44444444444444,20.70707070707072L66.66666666666666,33.33333333333333L88.88888888888889,33.33333333333333L111.11111111111111,33.33333333333333L133.33333333333331,35.858585858585855L155.55555555555557,35.858585858585855L177.77777777777777,33.33333333333333L200,25.757575757575758" stroke="rgb(145, 194, 222)" stroke-width="2"></path></g></g><path class="foreground" aria-hidden="true" d="" display="none"></path></g><g transform="translate(0,0)"><path class="background" aria-hidden="true" d="M0,0h200v200h-200Z"></path><g><g class="mark-line role-mark marks" role="graphics-object" aria-roledescription="line mark container"><path aria-label="winstart: 0; mean: 0.5; fold: 2; winlen: 0.925874712287" role="graphics-symbol" aria-roledescription="line mark" d="M0,33.33333333333333L22.22222222222222,33.33333333333333L44.44444444444444,33.33333333333333L66.66666666666666,33.33333333333333L88.88888888888889,33.33333333333333L111.11111111111111,33.33333333333333L133.33333333333331,33.33333333333333L155.55555555555557,25.757575757575758L177.77777777777777,33.33333333333333L200,33.33333333333333" stroke="rgb(105, 171, 211)" stroke-width="2"></path></g></g><path class="foreground" aria-hidden="true" d="" display="none"></path></g><g transform="translate(0,0)"><path class="background" aria-hidden="true" d="M0,0h200v200h-200Z"></path><g><g class="mark-line role-mark marks" role="graphics-object" aria-roledescription="line mark container"><path aria-label="winstart: 0; mean: 0.5; fold: 2; winlen: 1.36079000017" role="graphics-symbol" aria-roledescription="line mark" d="M0,33.33333333333333L22.22222222222222,35.858585858585855L44.44444444444444,33.33333333333333L66.66666666666666,33.33333333333333L88.88888888888889,33.33333333333333L111.11111111111111,33.33333333333333L133.33333333333331,33.33333333333333L155.55555555555557,33.33333333333333L177.77777777777777,33.33333333333333L200,30.808080808080796" stroke="rgb(55, 134, 192)" stroke-width="2"></path></g></g><path class="foreground" aria-hidden="true" d="" display="none"></path></g><g transform="translate(0,0)"><path class="background" aria-hidden="true" d="M0,0h200v200h-200Z"></path><g><g class="mark-line role-mark marks" role="graphics-object" aria-roledescription="line mark container"><path aria-label="winstart: 0; mean: 0.5; fold: 2; winlen: 2" role="graphics-symbol" aria-roledescription="line mark" d="M0,33.33333333333333L22.22222222222222,33.33333333333333L44.44444444444444,33.33333333333333L66.66666666666666,23.232323232323225L88.88888888888889,33.33333333333333L111.11111111111111,33.33333333333333L133.33333333333331,35.858585858585855L155.55555555555557,33.33333333333333L177.77777777777777,33.33333333333333L200,33.33333333333333" stroke="rgb(10, 74, 144)" stroke-width="2"></path></g></g><path class="foreground" aria-hidden="true" d="" display="none"></path></g><g transform="translate(0,0)"><path class="background" aria-hidden="true" d="M0,0h200v200h-200Z"></path><g><g class="mark-line role-mark marks" role="graphics-object" aria-roledescription="line mark container"><path aria-label="winstart: 0; mean: 0.507936507937; fold: 3; winlen: 0.0625" role="graphics-symbol" aria-roledescription="line mark" d="M0,30.687830687830697L22.22222222222222,35.978835978835974L44.44444444444444,25.396825396825374L66.66666666666666,28.042328042328023L88.88888888888889,33.33333333333333L111.11111111111111,9.523809523809534L133.33333333333331,30.687830687830697L155.55555555555557,35.978835978835974L177.77777777777777,35.978835978835974L200,35.978835978835974" stroke="rgb(207, 225, 242)" stroke-width="2"></path></g></g><path class="foreground" aria-hidden="true" d="" display="none"></path></g><g transform="translate(0,0)"><path class="background" aria-hidden="true" d="M0,0h200v200h-200Z"></path><g><g class="mark-line role-mark marks" role="graphics-object" aria-roledescription="line mark container"><path aria-label="winstart: 0; mean: 0.507936507937; fold: 3; winlen: 0.0918584057672" role="graphics-symbol" aria-roledescription="line mark" d="M0,30.687830687830697L22.22222222222222,30.687830687830697L44.44444444444444,22.751322751322746L66.66666666666666,35.978835978835974L88.88888888888889,38.62433862433863L111.11111111111111,38.62433862433863L133.33333333333331,25.396825396825374L155.55555555555557,35.978835978835974L177.77777777777777,25.396825396825374L200,38.62433862433863" stroke="rgb(204, 224, 241)" stroke-width="2"></path></g></g><path class="foreground" aria-hidden="true" d="" display="none"></path></g><g transform="translate(0,0)"><path class="background" aria-hidden="true" d="M0,0h200v200h-200Z"></path><g><g class="mark-line role-mark marks" role="graphics-object" aria-roledescription="line mark container"><path aria-label="winstart: 0; mean: 0.5; fold: 3; winlen: 0.135007467362" role="graphics-symbol" aria-roledescription="line mark" d="M0,33.33333333333333L22.22222222222222,33.33333333333333L44.44444444444444,22.751322751322746L66.66666666666666,35.978835978835974L88.88888888888889,33.33333333333333L111.11111111111111,17.46031746031744L133.33333333333331,30.687830687830697L155.55555555555557,35.978835978835974L177.77777777777777,20.105820105820115L200,35.978835978835974" stroke="rgb(201, 222, 240)" stroke-width="2"></path></g></g><path class="foreground" aria-hidden="true" d="" display="none"></path></g><g transform="translate(0,0)"><path class="background" aria-hidden="true" d="M0,0h200v200h-200Z"></path><g><g class="mark-line role-mark marks" role="graphics-object" aria-roledescription="line mark container"><path aria-label="winstart: 0; mean: 0.5; fold: 3; winlen: 0.198425131496" role="graphics-symbol" aria-roledescription="line mark" d="M0,33.33333333333333L22.22222222222222,35.978835978835974L44.44444444444444,33.33333333333333L66.66666666666666,33.33333333333333L88.88888888888889,30.687830687830697L111.11111111111111,33.33333333333333L133.33333333333331,17.46031746031744L155.55555555555557,38.62433862433863L177.77777777777777,35.978835978835974L200,30.687830687830697" stroke="rgb(195, 219, 238)" stroke-width="2"></path></g></g><path class="foreground" aria-hidden="true" d="" display="none"></path></g><g transform="translate(0,0)"><path class="background" aria-hidden="true" d="M0,0h200v200h-200Z"></path><g><g class="mark-line role-mark marks" role="graphics-object" aria-roledescription="line mark container"><path aria-label="winstart: 0; mean: 0.515873015873; fold: 3; winlen: 0.291632259894" role="graphics-symbol" aria-roledescription="line mark" d="M0,28.042328042328023L22.22222222222222,17.46031746031744L44.44444444444444,33.33333333333333L66.66666666666666,30.687830687830697L88.88888888888889,33.33333333333333L111.11111111111111,33.33333333333333L133.33333333333331,33.33333333333333L155.55555555555557,33.33333333333333L177.77777777777777,30.687830687830697L200,33.33333333333333" stroke="rgb(186, 214, 235)" stroke-width="2"></path></g></g><path class="foreground" aria-hidden="true" d="" display="none"></path></g><g transform="translate(0,0)"><path class="background" aria-hidden="true" d="M0,0h200v200h-200Z"></path><g><g class="mark-line role-mark marks" role="graphics-object" aria-roledescription="line mark container"><path aria-label="winstart: 0; mean: 0.492063492063; fold: 3; winlen: 0.428621991427" role="graphics-symbol" aria-roledescription="line mark" d="M0,35.978835978835974L22.22222222222222,33.33333333333333L44.44444444444444,30.687830687830697L66.66666666666666,33.33333333333333L88.88888888888889,30.687830687830697L111.11111111111111,33.33333333333333L133.33333333333331,35.978835978835974L155.55555555555557,35.978835978835974L177.77777777777777,30.687830687830697L200,33.33333333333333" stroke="rgb(170, 207, 230)" stroke-width="2"></path></g></g><path class="foreground" aria-hidden="true" d="" display="none"></path></g><g transform="translate(0,0)"><path class="background" aria-hidden="true" d="M0,0h200v200h-200Z"></path><g><g class="mark-line role-mark marks" role="graphics-object" aria-roledescription="line mark container"><path aria-label="winstart: 0; mean: 0.5; fold: 3; winlen: 0.629960524947" role="graphics-symbol" aria-roledescription="line mark" d="M0,33.33333333333333L22.22222222222222,35.978835978835974L44.44444444444444,20.105820105820115L66.66666666666666,33.33333333333333L88.88888888888889,35.978835978835974L111.11111111111111,33.33333333333333L133.33333333333331,35.978835978835974L155.55555555555557,35.978835978835974L177.77777777777777,33.33333333333333L200,25.396825396825374" stroke="rgb(145, 194, 222)" stroke-width="2"></path></g></g><path class="foreground" aria-hidden="true" d="" display="none"></path></g><g transform="translate(0,0)"><path class="background" aria-hidden="true" d="M0,0h200v200h-200Z"></path><g><g class="mark-line role-mark marks" role="graphics-object" aria-roledescription="line mark container"><path aria-label="winstart: 0; mean: 0.5; fold: 3; winlen: 0.925874712287" role="graphics-symbol" aria-roledescription="line mark" d="M0,33.33333333333333L22.22222222222222,33.33333333333333L44.44444444444444,33.33333333333333L66.66666666666666,33.33333333333333L88.88888888888889,33.33333333333333L111.11111111111111,33.33333333333333L133.33333333333331,33.33333333333333L155.55555555555557,28.042328042328023L177.77777777777777,33.33333333333333L200,33.33333333333333" stroke="rgb(105, 171, 211)" stroke-width="2"></path></g></g><path class="foreground" aria-hidden="true" d="" display="none"></path></g><g transform="translate(0,0)"><path class="background" aria-hidden="true" d="M0,0h200v200h-200Z"></path><g><g class="mark-line role-mark marks" role="graphics-object" aria-roledescription="line mark container"><path aria-label="winstart: 0; mean: 0.5; fold: 3; winlen: 1.36079000017" role="graphics-symbol" aria-roledescription="line mark" d="M0,33.33333333333333L22.22222222222222,33.33333333333333L44.44444444444444,33.33333333333333L66.66666666666666,33.33333333333333L88.88888888888889,33.33333333333333L111.11111111111111,33.33333333333333L133.33333333333331,33.33333333333333L155.55555555555557,33.33333333333333L177.77777777777777,33.33333333333333L200,30.687830687830697" stroke="rgb(55, 134, 192)" stroke-width="2"></path></g></g><path class="foreground" aria-hidden="true" d="" display="none"></path></g><g transform="translate(0,0)"><path class="background" aria-hidden="true" d="M0,0h200v200h-200Z"></path><g><g class="mark-line role-mark marks" role="graphics-object" aria-roledescription="line mark container"><path aria-label="winstart: 0; mean: 0.5; fold: 3; winlen: 2" role="graphics-symbol" aria-roledescription="line mark" d="M0,33.33333333333333L22.22222222222222,33.33333333333333L44.44444444444444,33.33333333333333L66.66666666666666,22.751322751322746L88.88888888888889,33.33333333333333L111.11111111111111,33.33333333333333L133.33333333333331,35.978835978835974L155.55555555555557,33.33333333333333L177.77777777777777,33.33333333333333L200,33.33333333333333" stroke="rgb(10, 74, 144)" stroke-width="2"></path></g></g><path class="foreground" aria-hidden="true" d="" display="none"></path></g><g transform="translate(0,0)"><path class="background" aria-hidden="true" d="M0,0h200v200h-200Z"></path><g><g class="mark-line role-mark marks" role="graphics-object" aria-roledescription="line mark container"><path aria-label="winstart: 0; mean: 0.492424242424; fold: 4; winlen: 0.0625" role="graphics-symbol" aria-roledescription="line mark" d="M0,35.858585858585855L22.22222222222222,38.383838383838366L44.44444444444444,23.232323232323225L66.66666666666666,25.757575757575758L88.88888888888889,33.33333333333333L111.11111111111111,8.080808080808065L133.33333333333331,28.282828282828287L155.55555555555557,40.90909090909089L177.77777777777777,33.33333333333333L200,35.858585858585855" stroke="rgb(207, 225, 242)" stroke-width="2"></path></g></g><path class="foreground" aria-hidden="true" d="" display="none"></path></g><g transform="translate(0,0)"><path class="background" aria-hidden="true" d="M0,0h200v200h-200Z"></path><g><g class="mark-line role-mark marks" role="graphics-object" aria-roledescription="line mark container"><path aria-label="winstart: 0; mean: 0.507575757576; fold: 4; winlen: 0.0918584057672" role="graphics-symbol" aria-roledescription="line mark" d="M0,30.808080808080796L22.22222222222222,30.808080808080796L44.44444444444444,18.181818181818187L66.66666666666666,35.858585858585855L88.88888888888889,35.858585858585855L111.11111111111111,38.383838383838366L133.33333333333331,25.757575757575758L155.55555555555557,35.858585858585855L177.77777777777777,23.232323232323225L200,40.90909090909089" stroke="rgb(204, 224, 241)" stroke-width="2"></path></g></g><path class="foreground" aria-hidden="true" d="" display="none"></path></g><g transform="translate(0,0)"><path class="background" aria-hidden="true" d="M0,0h200v200h-200Z"></path><g><g class="mark-line role-mark marks" role="graphics-object" aria-roledescription="line mark container"><path aria-label="winstart: 0; mean: 0.5; fold: 4; winlen: 0.135007467362" role="graphics-symbol" aria-roledescription="line mark" d="M0,33.33333333333333L22.22222222222222,33.33333333333333L44.44444444444444,23.232323232323225L66.66666666666666,35.858585858585855L88.88888888888889,33.33333333333333L111.11111111111111,18.181818181818187L133.33333333333331,35.858585858585855L155.55555555555557,35.858585858585855L177.77777777777777,20.70707070707072L200,35.858585858585855" stroke="rgb(201, 222, 240)" stroke-width="2"></path></g></g><path class="foreground" aria-hidden="true" d="" display="none"></path></g><g transform="translate(0,0)"><path class="background" aria-hidden="true" d="M0,0h200v200h-200Z"></path><g><g class="mark-line role-mark marks" role="graphics-object" aria-roledescription="line mark container"><path aria-label="winstart: 0; mean: 0.5; fold: 4; winlen: 0.198425131496" role="graphics-symbol" aria-roledescription="line mark" d="M0,33.33333333333333L22.22222222222222,35.858585858585855L44.44444444444444,33.33333333333333L66.66666666666666,33.33333333333333L88.88888888888889,30.808080808080796L111.11111111111111,33.33333333333333L133.33333333333331,20.70707070707072L155.55555555555557,38.383838383838366L177.77777777777777,33.33333333333333L200,30.808080808080796" stroke="rgb(195, 219, 238)" stroke-width="2"></path></g></g><path class="foreground" aria-hidden="true" d="" display="none"></path></g><g transform="translate(0,0)"><path class="background" aria-hidden="true" d="M0,0h200v200h-200Z"></path><g><g class="mark-line role-mark marks" role="graphics-object" aria-roledescription="line mark container"><path aria-label="winstart: 0; mean: 0.507575757576; fold: 4; winlen: 0.291632259894" role="graphics-symbol" aria-roledescription="line mark" d="M0,30.808080808080796L22.22222222222222,20.70707070707072L44.44444444444444,33.33333333333333L66.66666666666666,30.808080808080796L88.88888888888889,33.33333333333333L111.11111111111111,35.858585858585855L133.33333333333331,30.808080808080796L155.55555555555557,33.33333333333333L177.77777777777777,33.33333333333333L200,33.33333333333333" stroke="rgb(186, 214, 235)" stroke-width="2"></path></g></g><path class="foreground" aria-hidden="true" d="" display="none"></path></g><g transform="translate(0,0)"><path class="background" aria-hidden="true" d="M0,0h200v200h-200Z"></path><g><g class="mark-line role-mark marks" role="graphics-object" aria-roledescription="line mark container"><path aria-label="winstart: 0; mean: 0.492424242424; fold: 4; winlen: 0.428621991427" role="graphics-symbol" aria-roledescription="line mark" d="M0,35.858585858585855L22.22222222222222,33.33333333333333L44.44444444444444,30.808080808080796L66.66666666666666,35.858585858585855L88.88888888888889,30.808080808080796L111.11111111111111,33.33333333333333L133.33333333333331,35.858585858585855L155.55555555555557,35.858585858585855L177.77777777777777,30.808080808080796L200,33.33333333333333" stroke="rgb(170, 207, 230)" stroke-width="2"></path></g></g><path class="foreground" aria-hidden="true" d="" display="none"></path></g><g transform="translate(0,0)"><path class="background" aria-hidden="true" d="M0,0h200v200h-200Z"></path><g><g class="mark-line role-mark marks" role="graphics-object" aria-roledescription="line mark container"><path aria-label="winstart: 0; mean: 0.5; fold: 4; winlen: 0.629960524947" role="graphics-symbol" aria-roledescription="line mark" d="M0,33.33333333333333L22.22222222222222,35.858585858585855L44.44444444444444,20.70707070707072L66.66666666666666,33.33333333333333L88.88888888888889,35.858585858585855L111.11111111111111,33.33333333333333L133.33333333333331,33.33333333333333L155.55555555555557,35.858585858585855L177.77777777777777,33.33333333333333L200,25.757575757575758" stroke="rgb(145, 194, 222)" stroke-width="2"></path></g></g><path class="foreground" aria-hidden="true" d="" display="none"></path></g><g transform="translate(0,0)"><path class="background" aria-hidden="true" d="M0,0h200v200h-200Z"></path><g><g class="mark-line role-mark marks" role="graphics-object" aria-roledescription="line mark container"><path aria-label="winstart: 0; mean: 0.5; fold: 4; winlen: 0.925874712287" role="graphics-symbol" aria-roledescription="line mark" d="M0,33.33333333333333L22.22222222222222,33.33333333333333L44.44444444444444,33.33333333333333L66.66666666666666,33.33333333333333L88.88888888888889,33.33333333333333L111.11111111111111,33.33333333333333L133.33333333333331,33.33333333333333L155.55555555555557,25.757575757575758L177.77777777777777,33.33333333333333L200,33.33333333333333" stroke="rgb(105, 171, 211)" stroke-width="2"></path></g></g><path class="foreground" aria-hidden="true" d="" display="none"></path></g><g transform="translate(0,0)"><path class="background" aria-hidden="true" d="M0,0h200v200h-200Z"></path><g><g class="mark-line role-mark marks" role="graphics-object" aria-roledescription="line mark container"><path aria-label="winstart: 0; mean: 0.5; fold: 4; winlen: 1.36079000017" role="graphics-symbol" aria-roledescription="line mark" d="M0,33.33333333333333L22.22222222222222,35.858585858585855L44.44444444444444,33.33333333333333L66.66666666666666,33.33333333333333L88.88888888888889,33.33333333333333L111.11111111111111,33.33333333333333L133.33333333333331,33.33333333333333L155.55555555555557,33.33333333333333L177.77777777777777,33.33333333333333L200,30.808080808080796" stroke="rgb(55, 134, 192)" stroke-width="2"></path></g></g><path class="foreground" aria-hidden="true" d="" display="none"></path></g><g transform="translate(0,0)"><path class="background" aria-hidden="true" d="M0,0h200v200h-200Z"></path><g><g class="mark-line role-mark marks" role="graphics-object" aria-roledescription="line mark container"><path aria-label="winstart: 0; mean: 0.5; fold: 4; winlen: 2" role="graphics-symbol" aria-roledescription="line mark" d="M0,33.33333333333333L22.22222222222222,33.33333333333333L44.44444444444444,33.33333333333333L66.66666666666666,25.757575757575758L88.88888888888889,33.33333333333333L111.11111111111111,33.33333333333333L133.33333333333331,35.858585858585855L155.55555555555557,33.33333333333333L177.77777777777777,33.33333333333333L200,33.33333333333333" stroke="rgb(10, 74, 144)" stroke-width="2"></path></g></g><path class="foreground" aria-hidden="true" d="" display="none"></path></g><g transform="translate(0,0)"><path class="background" aria-hidden="true" d="M0,0h200v200h-200Z"></path><g><g class="mark-line role-mark marks" role="graphics-object" aria-roledescription="line mark container"><path aria-label="winstart: 0; mean: 0.5; fold: 5; winlen: 0.0625" role="graphics-symbol" aria-roledescription="line mark" d="M0,33.33333333333333L22.22222222222222,38.62433862433863L44.44444444444444,28.042328042328023L66.66666666666666,25.396825396825374L88.88888888888889,33.33333333333333L111.11111111111111,4.23280423280421L133.33333333333331,28.042328042328023L155.55555555555557,41.26984126984128L177.77777777777777,33.33333333333333L200,35.978835978835974" stroke="rgb(207, 225, 242)" stroke-width="2"></path></g></g><path class="foreground" aria-hidden="true" d="" display="none"></path></g><g transform="translate(0,0)"><path class="background" aria-hidden="true" d="M0,0h200v200h-200Z"></path><g><g class="mark-line role-mark marks" role="graphics-object" aria-roledescription="line mark container"><path aria-label="winstart: 0; mean: 0.507936507937; fold: 5; winlen: 0.0918584057672" role="graphics-symbol" aria-roledescription="line mark" d="M0,30.687830687830697L22.22222222222222,30.687830687830697L44.44444444444444,20.105820105820115L66.66666666666666,35.978835978835974L88.88888888888889,38.62433862433863L111.11111111111111,38.62433862433863L133.33333333333331,25.396825396825374L155.55555555555557,35.978835978835974L177.77777777777777,25.396825396825374L200,41.26984126984128" stroke="rgb(204, 224, 241)" stroke-width="2"></path></g></g><path class="foreground" aria-hidden="true" d="" display="none"></path></g><g transform="translate(0,0)"><path class="background" aria-hidden="true" d="M0,0h200v200h-200Z"></path><g><g class="mark-line role-mark marks" role="graphics-object" aria-roledescription="line mark container"><path aria-label="winstart: 0; mean: 0.5; fold: 5; winlen: 0.135007467362" role="graphics-symbol" aria-roledescription="line mark" d="M0,33.33333333333333L22.22222222222222,33.33333333333333L44.44444444444444,22.751322751322746L66.66666666666666,35.978835978835974L88.88888888888889,33.33333333333333L111.11111111111111,14.814814814814792L133.33333333333331,30.687830687830697L155.55555555555557,35.978835978835974L177.77777777777777,25.396825396825374L200,35.978835978835974" stroke="rgb(201, 222, 240)" stroke-width="2"></path></g></g><path class="foreground" aria-hidden="true" d="" display="none"></path></g><g transform="translate(0,0)"><path class="background" aria-hidden="true" d="M0,0h200v200h-200Z"></path><g><g class="mark-line role-mark marks" role="graphics-object" aria-roledescription="line mark container"><path aria-label="winstart: 0; mean: 0.5; fold: 5; winlen: 0.198425131496" role="graphics-symbol" aria-roledescription="line mark" d="M0,33.33333333333333L22.22222222222222,35.978835978835974L44.44444444444444,33.33333333333333L66.66666666666666,33.33333333333333L88.88888888888889,30.687830687830697L111.11111111111111,33.33333333333333L133.33333333333331,14.814814814814792L155.55555555555557,38.62433862433863L177.77777777777777,33.33333333333333L200,30.687830687830697" stroke="rgb(195, 219, 238)" stroke-width="2"></path></g></g><path class="foreground" aria-hidden="true" d="" display="none"></path></g><g transform="translate(0,0)"><path class="background" aria-hidden="true" d="M0,0h200v200h-200Z"></path><g><g class="mark-line role-mark marks" role="graphics-object" aria-roledescription="line mark container"><path aria-label="winstart: 0; mean: 0.507936507937; fold: 5; winlen: 0.291632259894" role="graphics-symbol" aria-roledescription="line mark" d="M0,30.687830687830697L22.22222222222222,20.105820105820115L44.44444444444444,33.33333333333333L66.66666666666666,30.687830687830697L88.88888888888889,33.33333333333333L111.11111111111111,35.978835978835974L133.33333333333331,30.687830687830697L155.55555555555557,33.33333333333333L177.77777777777777,30.687830687830697L200,33.33333333333333" stroke="rgb(186, 214, 235)" stroke-width="2"></path></g></g><path class="foreground" aria-hidden="true" d="" display="none"></path></g><g transform="translate(0,0)"><path class="background" aria-hidden="true" d="M0,0h200v200h-200Z"></path><g><g class="mark-line role-mark marks" role="graphics-object" aria-roledescription="line mark container"><path aria-label="winstart: 0; mean: 0.5; fold: 5; winlen: 0.428621991427" role="graphics-symbol" aria-roledescription="line mark" d="M0,33.33333333333333L22.22222222222222,33.33333333333333L44.44444444444444,30.687830687830697L66.66666666666666,35.978835978835974L88.88888888888889,30.687830687830697L111.11111111111111,33.33333333333333L133.33333333333331,35.978835978835974L155.55555555555557,35.978835978835974L177.77777777777777,28.042328042328023L200,33.33333333333333" stroke="rgb(170, 207, 230)" stroke-width="2"></path></g></g><path class="foreground" aria-hidden="true" d="" display="none"></path></g><g transform="translate(0,0)"><path class="background" aria-hidden="true" d="M0,0h200v200h-200Z"></path><g><g class="mark-line role-mark marks" role="graphics-object" aria-roledescription="line mark container"><path aria-label="winstart: 0; mean: 0.5; fold: 5; winlen: 0.629960524947" role="graphics-symbol" aria-roledescription="line mark" d="M0,33.33333333333333L22.22222222222222,35.978835978835974L44.44444444444444,20.105820105820115L66.66666666666666,33.33333333333333L88.88888888888889,35.978835978835974L111.11111111111111,33.33333333333333L133.33333333333331,35.978835978835974L155.55555555555557,35.978835978835974L177.77777777777777,33.33333333333333L200,25.396825396825374" stroke="rgb(145, 194, 222)" stroke-width="2"></path></g></g><path class="foreground" aria-hidden="true" d="" display="none"></path></g><g transform="translate(0,0)"><path class="background" aria-hidden="true" d="M0,0h200v200h-200Z"></path><g><g class="mark-line role-mark marks" role="graphics-object" aria-roledescription="line mark container"><path aria-label="winstart: 0; mean: 0.5; fold: 5; winlen: 0.925874712287" role="graphics-symbol" aria-roledescription="line mark" d="M0,33.33333333333333L22.22222222222222,33.33333333333333L44.44444444444444,33.33333333333333L66.66666666666666,33.33333333333333L88.88888888888889,33.33333333333333L111.11111111111111,33.33333333333333L133.33333333333331,33.33333333333333L155.55555555555557,25.396825396825374L177.77777777777777,33.33333333333333L200,35.978835978835974" stroke="rgb(105, 171, 211)" stroke-width="2"></path></g></g><path class="foreground" aria-hidden="true" d="" display="none"></path></g><g transform="translate(0,0)"><path class="background" aria-hidden="true" d="M0,0h200v200h-200Z"></path><g><g class="mark-line role-mark marks" role="graphics-object" aria-roledescription="line mark container"><path aria-label="winstart: 0; mean: 0.5; fold: 5; winlen: 1.36079000017" role="graphics-symbol" aria-roledescription="line mark" d="M0,33.33333333333333L22.22222222222222,35.978835978835974L44.44444444444444,33.33333333333333L66.66666666666666,33.33333333333333L88.88888888888889,33.33333333333333L111.11111111111111,33.33333333333333L133.33333333333331,33.33333333333333L155.55555555555557,33.33333333333333L177.77777777777777,33.33333333333333L200,30.687830687830697" stroke="rgb(55, 134, 192)" stroke-width="2"></path></g></g><path class="foreground" aria-hidden="true" d="" display="none"></path></g><g transform="translate(0,0)"><path class="background" aria-hidden="true" d="M0,0h200v200h-200Z"></path><g><g class="mark-line role-mark marks" role="graphics-object" aria-roledescription="line mark container"><path aria-label="winstart: 0; mean: 0.5; fold: 5; winlen: 2" role="graphics-symbol" aria-roledescription="line mark" d="M0,33.33333333333333L22.22222222222222,33.33333333333333L44.44444444444444,33.33333333333333L66.66666666666666,22.751322751322746L88.88888888888889,33.33333333333333L111.11111111111111,33.33333333333333L133.33333333333331,33.33333333333333L155.55555555555557,33.33333333333333L177.77777777777777,33.33333333333333L200,33.33333333333333" stroke="rgb(10, 74, 144)" stroke-width="2"></path></g></g><path class="foreground" aria-hidden="true" d="" display="none"></path></g><g transform="translate(0,0)"><path class="background" aria-hidden="true" d="M0,0h200v200h-200Z"></path><g><g class="mark-line role-mark marks" role="graphics-object" aria-roledescription="line mark container"><path aria-label="winstart: 0; mean: 0.484848484848; fold: 6; winlen: 0.0625" role="graphics-symbol" aria-roledescription="line mark" d="M0,38.383838383838366L22.22222222222222,38.383838383838366L44.44444444444444,23.232323232323225L66.66666666666666,25.757575757575758L88.88888888888889,33.33333333333333L111.11111111111111,5.555555555555536L133.33333333333331,28.282828282828287L155.55555555555557,40.90909090909089L177.77777777777777,30.808080808080796L200,35.858585858585855" stroke="rgb(207, 225, 242)" stroke-width="2"></path></g></g><path class="foreground" aria-hidden="true" d="" display="none"></path></g><g transform="translate(0,0)"><path class="background" aria-hidden="true" d="M0,0h200v200h-200Z"></path><g><g class="mark-line role-mark marks" role="graphics-object" aria-roledescription="line mark container"><path aria-label="winstart: 0; mean: 0.507575757576; fold: 6; winlen: 0.0918584057672" role="graphics-symbol" aria-roledescription="line mark" d="M0,30.808080808080796L22.22222222222222,30.808080808080796L44.44444444444444,20.70707070707072L66.66666666666666,35.858585858585855L88.88888888888889,38.383838383838366L111.11111111111111,38.383838383838366L133.33333333333331,25.757575757575758L155.55555555555557,35.858585858585855L177.77777777777777,23.232323232323225L200,38.383838383838366" stroke="rgb(204, 224, 241)" stroke-width="2"></path></g></g><path class="foreground" aria-hidden="true" d="" display="none"></path></g><g transform="translate(0,0)"><path class="background" aria-hidden="true" d="M0,0h200v200h-200Z"></path><g><g class="mark-line role-mark marks" role="graphics-object" aria-roledescription="line mark container"><path aria-label="winstart: 0; mean: 0.5; fold: 6; winlen: 0.135007467362" role="graphics-symbol" aria-roledescription="line mark" d="M0,33.33333333333333L22.22222222222222,33.33333333333333L44.44444444444444,20.70707070707072L66.66666666666666,35.858585858585855L88.88888888888889,33.33333333333333L111.11111111111111,18.181818181818187L133.33333333333331,35.858585858585855L155.55555555555557,35.858585858585855L177.77777777777777,20.70707070707072L200,33.33333333333333" stroke="rgb(201, 222, 240)" stroke-width="2"></path></g></g><path class="foreground" aria-hidden="true" d="" display="none"></path></g><g transform="translate(0,0)"><path class="background" aria-hidden="true" d="M0,0h200v200h-200Z"></path><g><g class="mark-line role-mark marks" role="graphics-object" aria-roledescription="line mark container"><path aria-label="winstart: 0; mean: 0.5; fold: 6; winlen: 0.198425131496" role="graphics-symbol" aria-roledescription="line mark" d="M0,33.33333333333333L22.22222222222222,35.858585858585855L44.44444444444444,33.33333333333333L66.66666666666666,33.33333333333333L88.88888888888889,30.808080808080796L111.11111111111111,33.33333333333333L133.33333333333331,23.232323232323225L155.55555555555557,38.383838383838366L177.77777777777777,33.33333333333333L200,30.808080808080796" stroke="rgb(195, 219, 238)" stroke-width="2"></path></g></g><path class="foreground" aria-hidden="true" d="" display="none"></path></g><g transform="translate(0,0)"><path class="background" aria-hidden="true" d="M0,0h200v200h-200Z"></path><g><g class="mark-line role-mark marks" role="graphics-object" aria-roledescription="line mark container"><path aria-label="winstart: 0; mean: 0.515151515152; fold: 6; winlen: 0.291632259894" role="graphics-symbol" aria-roledescription="line mark" d="M0,28.282828282828287L22.22222222222222,18.181818181818187L44.44444444444444,33.33333333333333L66.66666666666666,30.808080808080796L88.88888888888889,33.33333333333333L111.11111111111111,35.858585858585855L133.33333333333331,30.808080808080796L155.55555555555557,33.33333333333333L177.77777777777777,30.808080808080796L200,33.33333333333333" stroke="rgb(186, 214, 235)" stroke-width="2"></path></g></g><path class="foreground" aria-hidden="true" d="" display="none"></path></g><g transform="translate(0,0)"><path class="background" aria-hidden="true" d="M0,0h200v200h-200Z"></path><g><g class="mark-line role-mark marks" role="graphics-object" aria-roledescription="line mark container"><path aria-label="winstart: 0; mean: 0.492424242424; fold: 6; winlen: 0.428621991427" role="graphics-symbol" aria-roledescription="line mark" d="M0,35.858585858585855L22.22222222222222,33.33333333333333L44.44444444444444,30.808080808080796L66.66666666666666,35.858585858585855L88.88888888888889,30.808080808080796L111.11111111111111,33.33333333333333L133.33333333333331,35.858585858585855L155.55555555555557,35.858585858585855L177.77777777777777,28.282828282828287L200,33.33333333333333" stroke="rgb(170, 207, 230)" stroke-width="2"></path></g></g><path class="foreground" aria-hidden="true" d="" display="none"></path></g><g transform="translate(0,0)"><path class="background" aria-hidden="true" d="M0,0h200v200h-200Z"></path><g><g class="mark-line role-mark marks" role="graphics-object" aria-roledescription="line mark container"><path aria-label="winstart: 0; mean: 0.5; fold: 6; winlen: 0.629960524947" role="graphics-symbol" aria-roledescription="line mark" d="M0,33.33333333333333L22.22222222222222,35.858585858585855L44.44444444444444,20.70707070707072L66.66666666666666,33.33333333333333L88.88888888888889,35.858585858585855L111.11111111111111,33.33333333333333L133.33333333333331,35.858585858585855L155.55555555555557,35.858585858585855L177.77777777777777,33.33333333333333L200,28.282828282828287" stroke="rgb(145, 194, 222)" stroke-width="2"></path></g></g><path class="foreground" aria-hidden="true" d="" display="none"></path></g><g transform="translate(0,0)"><path class="background" aria-hidden="true" d="M0,0h200v200h-200Z"></path><g><g class="mark-line role-mark marks" role="graphics-object" aria-roledescription="line mark container"><path aria-label="winstart: 0; mean: 0.5; fold: 6; winlen: 0.925874712287" role="graphics-symbol" aria-roledescription="line mark" d="M0,33.33333333333333L22.22222222222222,33.33333333333333L44.44444444444444,33.33333333333333L66.66666666666666,33.33333333333333L88.88888888888889,33.33333333333333L111.11111111111111,33.33333333333333L133.33333333333331,33.33333333333333L155.55555555555557,25.757575757575758L177.77777777777777,33.33333333333333L200,33.33333333333333" stroke="rgb(105, 171, 211)" stroke-width="2"></path></g></g><path class="foreground" aria-hidden="true" d="" display="none"></path></g><g transform="translate(0,0)"><path class="background" aria-hidden="true" d="M0,0h200v200h-200Z"></path><g><g class="mark-line role-mark marks" role="graphics-object" aria-roledescription="line mark container"><path aria-label="winstart: 0; mean: 0.5; fold: 6; winlen: 1.36079000017" role="graphics-symbol" aria-roledescription="line mark" d="M0,33.33333333333333L22.22222222222222,35.858585858585855L44.44444444444444,33.33333333333333L66.66666666666666,33.33333333333333L88.88888888888889,33.33333333333333L111.11111111111111,33.33333333333333L133.33333333333331,33.33333333333333L155.55555555555557,33.33333333333333L177.77777777777777,33.33333333333333L200,30.808080808080796" stroke="rgb(55, 134, 192)" stroke-width="2"></path></g></g><path class="foreground" aria-hidden="true" d="" display="none"></path></g><g transform="translate(0,0)"><path class="background" aria-hidden="true" d="M0,0h200v200h-200Z"></path><g><g class="mark-line role-mark marks" role="graphics-object" aria-roledescription="line mark container"><path aria-label="winstart: 0; mean: 0.5; fold: 6; winlen: 2" role="graphics-symbol" aria-roledescription="line mark" d="M0,33.33333333333333L22.22222222222222,33.33333333333333L44.44444444444444,33.33333333333333L66.66666666666666,23.232323232323225L88.88888888888889,33.33333333333333L111.11111111111111,33.33333333333333L133.33333333333331,35.858585858585855L155.55555555555557,33.33333333333333L177.77777777777777,33.33333333333333L200,33.33333333333333" stroke="rgb(10, 74, 144)" stroke-width="2"></path></g></g><path class="foreground" aria-hidden="true" d="" display="none"></path></g><g transform="translate(0,0)"><path class="background" aria-hidden="true" d="M0,0h200v200h-200Z"></path><g><g class="mark-line role-mark marks" role="graphics-object" aria-roledescription="line mark container"><path aria-label="winstart: 0; mean: 0.5; fold: 7; winlen: 0.0625" role="graphics-symbol" aria-roledescription="line mark" d="M0,33.33333333333333L22.22222222222222,38.383838383838366L44.44444444444444,23.232323232323225L66.66666666666666,25.757575757575758L88.88888888888889,33.33333333333333L111.11111111111111,10.606060606060574L133.33333333333331,28.282828282828287L155.55555555555557,40.90909090909089L177.77777777777777,33.33333333333333L200,35.858585858585855" stroke="rgb(207, 225, 242)" stroke-width="2"></path></g></g><path class="foreground" aria-hidden="true" d="" display="none"></path></g><g transform="translate(0,0)"><path class="background" aria-hidden="true" d="M0,0h200v200h-200Z"></path><g><g class="mark-line role-mark marks" role="graphics-object" aria-roledescription="line mark container"><path aria-label="winstart: 0; mean: 0.5; fold: 7; winlen: 0.0918584057672" role="graphics-symbol" aria-roledescription="line mark" d="M0,33.33333333333333L22.22222222222222,30.808080808080796L44.44444444444444,20.70707070707072L66.66666666666666,33.33333333333333L88.88888888888889,38.383838383838366L111.11111111111111,38.383838383838366L133.33333333333331,25.757575757575758L155.55555555555557,35.858585858585855L177.77777777777777,25.757575757575758L200,35.858585858585855" stroke="rgb(204, 224, 241)" stroke-width="2"></path></g></g><path class="foreground" aria-hidden="true" d="" display="none"></path></g><g transform="translate(0,0)"><path class="background" aria-hidden="true" d="M0,0h200v200h-200Z"></path><g><g class="mark-line role-mark marks" role="graphics-object" aria-roledescription="line mark container"><path aria-label="winstart: 0; mean: 0.5; fold: 7; winlen: 0.135007467362" role="graphics-symbol" aria-roledescription="line mark" d="M0,33.33333333333333L22.22222222222222,33.33333333333333L44.44444444444444,20.70707070707072L66.66666666666666,35.858585858585855L88.88888888888889,33.33333333333333L111.11111111111111,20.70707070707072L133.33333333333331,33.33333333333333L155.55555555555557,35.858585858585855L177.77777777777777,23.232323232323225L200,33.33333333333333" stroke="rgb(201, 222, 240)" stroke-width="2"></path></g></g><path class="foreground" aria-hidden="true" d="" display="none"></path></g><g transform="translate(0,0)"><path class="background" aria-hidden="true" d="M0,0h200v200h-200Z"></path><g><g class="mark-line role-mark marks" role="graphics-object" aria-roledescription="line mark container"><path aria-label="winstart: 0; mean: 0.5; fold: 7; winlen: 0.198425131496" role="graphics-symbol" aria-roledescription="line mark" d="M0,33.33333333333333L22.22222222222222,35.858585858585855L44.44444444444444,33.33333333333333L66.66666666666666,33.33333333333333L88.88888888888889,30.808080808080796L111.11111111111111,33.33333333333333L133.33333333333331,20.70707070707072L155.55555555555557,38.383838383838366L177.77777777777777,30.808080808080796L200,30.808080808080796" stroke="rgb(195, 219, 238)" stroke-width="2"></path></g></g><path class="foreground" aria-hidden="true" d="" display="none"></path></g><g transform="translate(0,0)"><path class="background" aria-hidden="true" d="M0,0h200v200h-200Z"></path><g><g class="mark-line role-mark marks" role="graphics-object" aria-roledescription="line mark container"><path aria-label="winstart: 0; mean: 0.515151515152; fold: 7; winlen: 0.291632259894" role="graphics-symbol" aria-roledescription="line mark" d="M0,28.282828282828287L22.22222222222222,18.181818181818187L44.44444444444444,33.33333333333333L66.66666666666666,30.808080808080796L88.88888888888889,33.33333333333333L111.11111111111111,35.858585858585855L133.33333333333331,30.808080808080796L155.55555555555557,33.33333333333333L177.77777777777777,28.282828282828287L200,33.33333333333333" stroke="rgb(186, 214, 235)" stroke-width="2"></path></g></g><path class="foreground" aria-hidden="true" d="" display="none"></path></g><g transform="translate(0,0)"><path class="background" aria-hidden="true" d="M0,0h200v200h-200Z"></path><g><g class="mark-line role-mark marks" role="graphics-object" aria-roledescription="line mark container"><path aria-label="winstart: 0; mean: 0.492424242424; fold: 7; winlen: 0.428621991427" role="graphics-symbol" aria-roledescription="line mark" d="M0,35.858585858585855L22.22222222222222,33.33333333333333L44.44444444444444,30.808080808080796L66.66666666666666,35.858585858585855L88.88888888888889,30.808080808080796L111.11111111111111,33.33333333333333L133.33333333333331,35.858585858585855L155.55555555555557,35.858585858585855L177.77777777777777,30.808080808080796L200,33.33333333333333" stroke="rgb(170, 207, 230)" stroke-width="2"></path></g></g><path class="foreground" aria-hidden="true" d="" display="none"></path></g><g transform="translate(0,0)"><path class="background" aria-hidden="true" d="M0,0h200v200h-200Z"></path><g><g class="mark-line role-mark marks" role="graphics-object" aria-roledescription="line mark container"><path aria-label="winstart: 0; mean: 0.5; fold: 7; winlen: 0.629960524947" role="graphics-symbol" aria-roledescription="line mark" d="M0,33.33333333333333L22.22222222222222,33.33333333333333L44.44444444444444,20.70707070707072L66.66666666666666,33.33333333333333L88.88888888888889,35.858585858585855L111.11111111111111,33.33333333333333L133.33333333333331,35.858585858585855L155.55555555555557,35.858585858585855L177.77777777777777,33.33333333333333L200,28.282828282828287" stroke="rgb(145, 194, 222)" stroke-width="2"></path></g></g><path class="foreground" aria-hidden="true" d="" display="none"></path></g><g transform="translate(0,0)"><path class="background" aria-hidden="true" d="M0,0h200v200h-200Z"></path><g><g class="mark-line role-mark marks" role="graphics-object" aria-roledescription="line mark container"><path aria-label="winstart: 0; mean: 0.5; fold: 7; winlen: 0.925874712287" role="graphics-symbol" aria-roledescription="line mark" d="M0,33.33333333333333L22.22222222222222,33.33333333333333L44.44444444444444,33.33333333333333L66.66666666666666,33.33333333333333L88.88888888888889,33.33333333333333L111.11111111111111,33.33333333333333L133.33333333333331,33.33333333333333L155.55555555555557,28.282828282828287L177.77777777777777,33.33333333333333L200,30.808080808080796" stroke="rgb(105, 171, 211)" stroke-width="2"></path></g></g><path class="foreground" aria-hidden="true" d="" display="none"></path></g><g transform="translate(0,0)"><path class="background" aria-hidden="true" d="M0,0h200v200h-200Z"></path><g><g class="mark-line role-mark marks" role="graphics-object" aria-roledescription="line mark container"><path aria-label="winstart: 0; mean: 0.5; fold: 7; winlen: 1.36079000017" role="graphics-symbol" aria-roledescription="line mark" d="M0,33.33333333333333L22.22222222222222,35.858585858585855L44.44444444444444,33.33333333333333L66.66666666666666,33.33333333333333L88.88888888888889,33.33333333333333L111.11111111111111,33.33333333333333L133.33333333333331,33.33333333333333L155.55555555555557,33.33333333333333L177.77777777777777,33.33333333333333L200,30.808080808080796" stroke="rgb(55, 134, 192)" stroke-width="2"></path></g></g><path class="foreground" aria-hidden="true" d="" display="none"></path></g><g transform="translate(0,0)"><path class="background" aria-hidden="true" d="M0,0h200v200h-200Z"></path><g><g class="mark-line role-mark marks" role="graphics-object" aria-roledescription="line mark container"><path aria-label="winstart: 0; mean: 0.5; fold: 7; winlen: 2" role="graphics-symbol" aria-roledescription="line mark" d="M0,33.33333333333333L22.22222222222222,33.33333333333333L44.44444444444444,33.33333333333333L66.66666666666666,25.757575757575758L88.88888888888889,33.33333333333333L111.11111111111111,33.33333333333333L133.33333333333331,35.858585858585855L155.55555555555557,33.33333333333333L177.77777777777777,33.33333333333333L200,33.33333333333333" stroke="rgb(10, 74, 144)" stroke-width="2"></path></g></g><path class="foreground" aria-hidden="true" d="" display="none"></path></g><g transform="translate(0,0)"><path class="background" aria-hidden="true" d="M0,0h200v200h-200Z"></path><g><g class="mark-line role-mark marks" role="graphics-object" aria-roledescription="line mark container"><path aria-label="winstart: 0; mean: 0.507936507937; fold: 8; winlen: 0.0625" role="graphics-symbol" aria-roledescription="line mark" d="M0,30.687830687830697L22.22222222222222,38.62433862433863L44.44444444444444,22.751322751322746L66.66666666666666,28.042328042328023L88.88888888888889,33.33333333333333L111.11111111111111,9.523809523809534L133.33333333333331,28.042328042328023L155.55555555555557,41.26984126984128L177.77777777777777,33.33333333333333L200,35.978835978835974" stroke="rgb(207, 225, 242)" stroke-width="2"></path></g></g><path class="foreground" aria-hidden="true" d="" display="none"></path></g><g transform="translate(0,0)"><path class="background" aria-hidden="true" d="M0,0h200v200h-200Z"></path><g><g class="mark-line role-mark marks" role="graphics-object" aria-roledescription="line mark container"><path aria-label="winstart: 0; mean: 0.507936507937; fold: 8; winlen: 0.0918584057672" role="graphics-symbol" aria-roledescription="line mark" d="M0,30.687830687830697L22.22222222222222,30.687830687830697L44.44444444444444,17.46031746031744L66.66666666666666,35.978835978835974L88.88888888888889,38.62433862433863L111.11111111111111,35.978835978835974L133.33333333333331,28.042328042328023L155.55555555555557,35.978835978835974L177.77777777777777,22.751322751322746L200,41.26984126984128" stroke="rgb(204, 224, 241)" stroke-width="2"></path></g></g><path class="foreground" aria-hidden="true" d="" display="none"></path></g><g transform="translate(0,0)"><path class="background" aria-hidden="true" d="M0,0h200v200h-200Z"></path><g><g class="mark-line role-mark marks" role="graphics-object" aria-roledescription="line mark container"><path aria-label="winstart: 0; mean: 0.5; fold: 8; winlen: 0.135007467362" role="graphics-symbol" aria-roledescription="line mark" d="M0,33.33333333333333L22.22222222222222,33.33333333333333L44.44444444444444,22.751322751322746L66.66666666666666,33.33333333333333L88.88888888888889,33.33333333333333L111.11111111111111,17.46031746031744L133.33333333333331,33.33333333333333L155.55555555555557,33.33333333333333L177.77777777777777,17.46031746031744L200,38.62433862433863" stroke="rgb(201, 222, 240)" stroke-width="2"></path></g></g><path class="foreground" aria-hidden="true" d="" display="none"></path></g><g transform="translate(0,0)"><path class="background" aria-hidden="true" d="M0,0h200v200h-200Z"></path><g><g class="mark-line role-mark marks" role="graphics-object" aria-roledescription="line mark container"><path aria-label="winstart: 0; mean: 0.5; fold: 8; winlen: 0.198425131496" role="graphics-symbol" aria-roledescription="line mark" d="M0,33.33333333333333L22.22222222222222,35.978835978835974L44.44444444444444,33.33333333333333L66.66666666666666,33.33333333333333L88.88888888888889,30.687830687830697L111.11111111111111,33.33333333333333L133.33333333333331,20.105820105820115L155.55555555555557,33.33333333333333L177.77777777777777,33.33333333333333L200,30.687830687830697" stroke="rgb(195, 219, 238)" stroke-width="2"></path></g></g><path class="foreground" aria-hidden="true" d="" display="none"></path></g><g transform="translate(0,0)"><path class="background" aria-hidden="true" d="M0,0h200v200h-200Z"></path><g><g class="mark-line role-mark marks" role="graphics-object" aria-roledescription="line mark container"><path aria-label="winstart: 0; mean: 0.515873015873; fold: 8; winlen: 0.291632259894" role="graphics-symbol" aria-roledescription="line mark" d="M0,28.042328042328023L22.22222222222222,20.105820105820115L44.44444444444444,33.33333333333333L66.66666666666666,28.042328042328023L88.88888888888889,33.33333333333333L111.11111111111111,35.978835978835974L133.33333333333331,30.687830687830697L155.55555555555557,33.33333333333333L177.77777777777777,30.687830687830697L200,33.33333333333333" stroke="rgb(186, 214, 235)" stroke-width="2"></path></g></g><path class="foreground" aria-hidden="true" d="" display="none"></path></g><g transform="translate(0,0)"><path class="background" aria-hidden="true" d="M0,0h200v200h-200Z"></path><g><g class="mark-line role-mark marks" role="graphics-object" aria-roledescription="line mark container"><path aria-label="winstart: 0; mean: 0.492063492063; fold: 8; winlen: 0.428621991427" role="graphics-symbol" aria-roledescription="line mark" d="M0,35.978835978835974L22.22222222222222,33.33333333333333L44.44444444444444,30.687830687830697L66.66666666666666,35.978835978835974L88.88888888888889,30.687830687830697L111.11111111111111,33.33333333333333L133.33333333333331,33.33333333333333L155.55555555555557,35.978835978835974L177.77777777777777,28.042328042328023L200,33.33333333333333" stroke="rgb(170, 207, 230)" stroke-width="2"></path></g></g><path class="foreground" aria-hidden="true" d="" display="none"></path></g><g transform="translate(0,0)"><path class="background" aria-hidden="true" d="M0,0h200v200h-200Z"></path><g><g class="mark-line role-mark marks" role="graphics-object" aria-roledescription="line mark container"><path aria-label="winstart: 0; mean: 0.5; fold: 8; winlen: 0.629960524947" role="graphics-symbol" aria-roledescription="line mark" d="M0,33.33333333333333L22.22222222222222,35.978835978835974L44.44444444444444,25.396825396825374L66.66666666666666,33.33333333333333L88.88888888888889,35.978835978835974L111.11111111111111,33.33333333333333L133.33333333333331,35.978835978835974L155.55555555555557,33.33333333333333L177.77777777777777,33.33333333333333L200,28.042328042328023" stroke="rgb(145, 194, 222)" stroke-width="2"></path></g></g><path class="foreground" aria-hidden="true" d="" display="none"></path></g><g transform="translate(0,0)"><path class="background" aria-hidden="true" d="M0,0h200v200h-200Z"></path><g><g class="mark-line role-mark marks" role="graphics-object" aria-roledescription="line mark container"><path aria-label="winstart: 0; mean: 0.5; fold: 8; winlen: 0.925874712287" role="graphics-symbol" aria-roledescription="line mark" d="M0,33.33333333333333L22.22222222222222,33.33333333333333L44.44444444444444,33.33333333333333L66.66666666666666,33.33333333333333L88.88888888888889,33.33333333333333L111.11111111111111,33.33333333333333L133.33333333333331,33.33333333333333L155.55555555555557,25.396825396825374L177.77777777777777,33.33333333333333L200,33.33333333333333" stroke="rgb(105, 171, 211)" stroke-width="2"></path></g></g><path class="foreground" aria-hidden="true" d="" display="none"></path></g><g transform="translate(0,0)"><path class="background" aria-hidden="true" d="M0,0h200v200h-200Z"></path><g><g class="mark-line role-mark marks" role="graphics-object" aria-roledescription="line mark container"><path aria-label="winstart: 0; mean: 0.5; fold: 8; winlen: 1.36079000017" role="graphics-symbol" aria-roledescription="line mark" d="M0,33.33333333333333L22.22222222222222,35.978835978835974L44.44444444444444,33.33333333333333L66.66666666666666,33.33333333333333L88.88888888888889,33.33333333333333L111.11111111111111,33.33333333333333L133.33333333333331,33.33333333333333L155.55555555555557,33.33333333333333L177.77777777777777,30.687830687830697L200,30.687830687830697" stroke="rgb(55, 134, 192)" stroke-width="2"></path></g></g><path class="foreground" aria-hidden="true" d="" display="none"></path></g><g transform="translate(0,0)"><path class="background" aria-hidden="true" d="M0,0h200v200h-200Z"></path><g><g class="mark-line role-mark marks" role="graphics-object" aria-roledescription="line mark container"><path aria-label="winstart: 0; mean: 0.5; fold: 8; winlen: 2" role="graphics-symbol" aria-roledescription="line mark" d="M0,33.33333333333333L22.22222222222222,33.33333333333333L44.44444444444444,33.33333333333333L66.66666666666666,22.751322751322746L88.88888888888889,33.33333333333333L111.11111111111111,33.33333333333333L133.33333333333331,35.978835978835974L155.55555555555557,33.33333333333333L177.77777777777777,33.33333333333333L200,33.33333333333333" stroke="rgb(10, 74, 144)" stroke-width="2"></path></g></g><path class="foreground" aria-hidden="true" d="" display="none"></path></g><g transform="translate(0,0)"><path class="background" aria-hidden="true" d="M0,0h200v200h-200Z"></path><g><g class="mark-line role-mark marks" role="graphics-object" aria-roledescription="line mark container"><path aria-label="winstart: 0; mean: 0.5; fold: 9; winlen: 0.0625" role="graphics-symbol" aria-roledescription="line mark" d="M0,33.33333333333333L22.22222222222222,38.383838383838366L44.44444444444444,20.70707070707072L66.66666666666666,28.282828282828287L88.88888888888889,33.33333333333333L111.11111111111111,8.080808080808065L133.33333333333331,30.808080808080796L155.55555555555557,38.383838383838366L177.77777777777777,33.33333333333333L200,35.858585858585855" stroke="rgb(207, 225, 242)" stroke-width="2"></path></g></g><path class="foreground" aria-hidden="true" d="" display="none"></path></g><g transform="translate(0,0)"><path class="background" aria-hidden="true" d="M0,0h200v200h-200Z"></path><g><g class="mark-line role-mark marks" role="graphics-object" aria-roledescription="line mark container"><path aria-label="winstart: 0; mean: 0.507575757576; fold: 9; winlen: 0.0918584057672" role="graphics-symbol" aria-roledescription="line mark" d="M0,30.808080808080796L22.22222222222222,30.808080808080796L44.44444444444444,18.181818181818187L66.66666666666666,35.858585858585855L88.88888888888889,35.858585858585855L111.11111111111111,38.383838383838366L133.33333333333331,25.757575757575758L155.55555555555557,35.858585858585855L177.77777777777777,25.757575757575758L200,40.90909090909089" stroke="rgb(204, 224, 241)" stroke-width="2"></path></g></g><path class="foreground" aria-hidden="true" d="" display="none"></path></g><g transform="translate(0,0)"><path class="background" aria-hidden="true" d="M0,0h200v200h-200Z"></path><g><g class="mark-line role-mark marks" role="graphics-object" aria-roledescription="line mark container"><path aria-label="winstart: 0; mean: 0.5; fold: 9; winlen: 0.135007467362" role="graphics-symbol" aria-roledescription="line mark" d="M0,33.33333333333333L22.22222222222222,33.33333333333333L44.44444444444444,23.232323232323225L66.66666666666666,35.858585858585855L88.88888888888889,33.33333333333333L111.11111111111111,15.656565656565657L133.33333333333331,33.33333333333333L155.55555555555557,35.858585858585855L177.77777777777777,20.70707070707072L200,35.858585858585855" stroke="rgb(201, 222, 240)" stroke-width="2"></path></g></g><path class="foreground" aria-hidden="true" d="" display="none"></path></g><g transform="translate(0,0)"><path class="background" aria-hidden="true" d="M0,0h200v200h-200Z"></path><g><g class="mark-line role-mark marks" role="graphics-object" aria-roledescription="line mark container"><path aria-label="winstart: 0; mean: 0.5; fold: 9; winlen: 0.198425131496" role="graphics-symbol" aria-roledescription="line mark" d="M0,33.33333333333333L22.22222222222222,35.858585858585855L44.44444444444444,33.33333333333333L66.66666666666666,33.33333333333333L88.88888888888889,33.33333333333333L111.11111111111111,33.33333333333333L133.33333333333331,18.181818181818187L155.55555555555557,38.383838383838366L177.77777777777777,33.33333333333333L200,30.808080808080796" stroke="rgb(195, 219, 238)" stroke-width="2"></path></g></g><path class="foreground" aria-hidden="true" d="" display="none"></path></g><g transform="translate(0,0)"><path class="background" aria-hidden="true" d="M0,0h200v200h-200Z"></path><g><g class="mark-line role-mark marks" role="graphics-object" aria-roledescription="line mark container"><path aria-label="winstart: 0; mean: 0.515151515152; fold: 9; winlen: 0.291632259894" role="graphics-symbol" aria-roledescription="line mark" d="M0,28.282828282828287L22.22222222222222,18.181818181818187L44.44444444444444,33.33333333333333L66.66666666666666,33.33333333333333L88.88888888888889,33.33333333333333L111.11111111111111,33.33333333333333L133.33333333333331,33.33333333333333L155.55555555555557,33.33333333333333L177.77777777777777,30.808080808080796L200,33.33333333333333" stroke="rgb(186, 214, 235)" stroke-width="2"></path></g></g><path class="foreground" aria-hidden="true" d="" display="none"></path></g><g transform="translate(0,0)"><path class="background" aria-hidden="true" d="M0,0h200v200h-200Z"></path><g><g class="mark-line role-mark marks" role="graphics-object" aria-roledescription="line mark container"><path aria-label="winstart: 0; mean: 0.492424242424; fold: 9; winlen: 0.428621991427" role="graphics-symbol" aria-roledescription="line mark" d="M0,35.858585858585855L22.22222222222222,33.33333333333333L44.44444444444444,30.808080808080796L66.66666666666666,35.858585858585855L88.88888888888889,30.808080808080796L111.11111111111111,33.33333333333333L133.33333333333331,35.858585858585855L155.55555555555557,35.858585858585855L177.77777777777777,28.282828282828287L200,33.33333333333333" stroke="rgb(170, 207, 230)" stroke-width="2"></path></g></g><path class="foreground" aria-hidden="true" d="" display="none"></path></g><g transform="translate(0,0)"><path class="background" aria-hidden="true" d="M0,0h200v200h-200Z"></path><g><g class="mark-line role-mark marks" role="graphics-object" aria-roledescription="line mark container"><path aria-label="winstart: 0; mean: 0.5; fold: 9; winlen: 0.629960524947" role="graphics-symbol" aria-roledescription="line mark" d="M0,33.33333333333333L22.22222222222222,35.858585858585855L44.44444444444444,20.70707070707072L66.66666666666666,33.33333333333333L88.88888888888889,35.858585858585855L111.11111111111111,33.33333333333333L133.33333333333331,35.858585858585855L155.55555555555557,35.858585858585855L177.77777777777777,33.33333333333333L200,25.757575757575758" stroke="rgb(145, 194, 222)" stroke-width="2"></path></g></g><path class="foreground" aria-hidden="true" d="" display="none"></path></g><g transform="translate(0,0)"><path class="background" aria-hidden="true" d="M0,0h200v200h-200Z"></path><g><g class="mark-line role-mark marks" role="graphics-object" aria-roledescription="line mark container"><path aria-label="winstart: 0; mean: 0.5; fold: 9; winlen: 0.925874712287" role="graphics-symbol" aria-roledescription="line mark" d="M0,33.33333333333333L22.22222222222222,33.33333333333333L44.44444444444444,33.33333333333333L66.66666666666666,33.33333333333333L88.88888888888889,33.33333333333333L111.11111111111111,33.33333333333333L133.33333333333331,33.33333333333333L155.55555555555557,25.757575757575758L177.77777777777777,33.33333333333333L200,33.33333333333333" stroke="rgb(105, 171, 211)" stroke-width="2"></path></g></g><path class="foreground" aria-hidden="true" d="" display="none"></path></g><g transform="translate(0,0)"><path class="background" aria-hidden="true" d="M0,0h200v200h-200Z"></path><g><g class="mark-line role-mark marks" role="graphics-object" aria-roledescription="line mark container"><path aria-label="winstart: 0; mean: 0.5; fold: 9; winlen: 1.36079000017" role="graphics-symbol" aria-roledescription="line mark" d="M0,33.33333333333333L22.22222222222222,35.858585858585855L44.44444444444444,33.33333333333333L66.66666666666666,33.33333333333333L88.88888888888889,33.33333333333333L111.11111111111111,33.33333333333333L133.33333333333331,33.33333333333333L155.55555555555557,33.33333333333333L177.77777777777777,35.858585858585855L200,30.808080808080796" stroke="rgb(55, 134, 192)" stroke-width="2"></path></g></g><path class="foreground" aria-hidden="true" d="" display="none"></path></g><g transform="translate(0,0)"><path class="background" aria-hidden="true" d="M0,0h200v200h-200Z"></path><g><g class="mark-line role-mark marks" role="graphics-object" aria-roledescription="line mark container"><path aria-label="winstart: 0; mean: 0.5; fold: 9; winlen: 2" role="graphics-symbol" aria-roledescription="line mark" d="M0,33.33333333333333L22.22222222222222,33.33333333333333L44.44444444444444,33.33333333333333L66.66666666666666,23.232323232323225L88.88888888888889,33.33333333333333L111.11111111111111,33.33333333333333L133.33333333333331,35.858585858585855L155.55555555555557,33.33333333333333L177.77777777777777,33.33333333333333L200,33.33333333333333" stroke="rgb(10, 74, 144)" stroke-width="2"></path></g></g><path class="foreground" aria-hidden="true" d="" display="none"></path></g><g transform="translate(0,0)"><path class="background" aria-hidden="true" d="M0,0h200v200h-200Z"></path><g><g class="mark-line role-mark marks" role="graphics-object" aria-roledescription="line mark container"><path aria-label="winstart: 0; mean: 0.507936507937; fold: 10; winlen: 0.0625" role="graphics-symbol" aria-roledescription="line mark" d="M0,30.687830687830697L22.22222222222222,38.62433862433863L44.44444444444444,25.396825396825374L66.66666666666666,22.751322751322746L88.88888888888889,33.33333333333333L111.11111111111111,9.523809523809534L133.33333333333331,28.042328042328023L155.55555555555557,41.26984126984128L177.77777777777777,33.33333333333333L200,35.978835978835974" stroke="rgb(207, 225, 242)" stroke-width="2"></path></g></g><path class="foreground" aria-hidden="true" d="" display="none"></path></g><g transform="translate(0,0)"><path class="background" aria-hidden="true" d="M0,0h200v200h-200Z"></path><g><g class="mark-line role-mark marks" role="graphics-object" aria-roledescription="line mark container"><path aria-label="winstart: 0; mean: 0.507936507937; fold: 10; winlen: 0.0918584057672" role="graphics-symbol" aria-roledescription="line mark" d="M0,30.687830687830697L22.22222222222222,33.33333333333333L44.44444444444444,17.46031746031744L66.66666666666666,35.978835978835974L88.88888888888889,38.62433862433863L111.11111111111111,35.978835978835974L133.33333333333331,22.751322751322746L155.55555555555557,35.978835978835974L177.77777777777777,22.751322751322746L200,41.26984126984128" stroke="rgb(204, 224, 241)" stroke-width="2"></path></g></g><path class="foreground" aria-hidden="true" d="" display="none"></path></g><g transform="translate(0,0)"><path class="background" aria-hidden="true" d="M0,0h200v200h-200Z"></path><g><g class="mark-line role-mark marks" role="graphics-object" aria-roledescription="line mark container"><path aria-label="winstart: 0; mean: 0.492063492063; fold: 10; winlen: 0.135007467362" role="graphics-symbol" aria-roledescription="line mark" d="M0,35.978835978835974L22.22222222222222,33.33333333333333L44.44444444444444,22.751322751322746L66.66666666666666,35.978835978835974L88.88888888888889,33.33333333333333L111.11111111111111,14.814814814814792L133.33333333333331,33.33333333333333L155.55555555555557,35.978835978835974L177.77777777777777,20.105820105820115L200,35.978835978835974" stroke="rgb(201, 222, 240)" stroke-width="2"></path></g></g><path class="foreground" aria-hidden="true" d="" display="none"></path></g><g transform="translate(0,0)"><path class="background" aria-hidden="true" d="M0,0h200v200h-200Z"></path><g><g class="mark-line role-mark marks" role="graphics-object" aria-roledescription="line mark container"><path aria-label="winstart: 0; mean: 0.5; fold: 10; winlen: 0.198425131496" role="graphics-symbol" aria-roledescription="line mark" d="M0,33.33333333333333L22.22222222222222,35.978835978835974L44.44444444444444,33.33333333333333L66.66666666666666,33.33333333333333L88.88888888888889,30.687830687830697L111.11111111111111,33.33333333333333L133.33333333333331,20.105820105820115L155.55555555555557,38.62433862433863L177.77777777777777,33.33333333333333L200,30.687830687830697" stroke="rgb(195, 219, 238)" stroke-width="2"></path></g></g><path class="foreground" aria-hidden="true" d="" display="none"></path></g><g transform="translate(0,0)"><path class="background" aria-hidden="true" d="M0,0h200v200h-200Z"></path><g><g class="mark-line role-mark marks" role="graphics-object" aria-roledescription="line mark container"><path aria-label="winstart: 0; mean: 0.515873015873; fold: 10; winlen: 0.291632259894" role="graphics-symbol" aria-roledescription="line mark" d="M0,28.042328042328023L22.22222222222222,22.751322751322746L44.44444444444444,33.33333333333333L66.66666666666666,33.33333333333333L88.88888888888889,33.33333333333333L111.11111111111111,35.978835978835974L133.33333333333331,30.687830687830697L155.55555555555557,33.33333333333333L177.77777777777777,30.687830687830697L200,33.33333333333333" stroke="rgb(186, 214, 235)" stroke-width="2"></path></g></g><path class="foreground" aria-hidden="true" d="" display="none"></path></g><g transform="translate(0,0)"><path class="background" aria-hidden="true" d="M0,0h200v200h-200Z"></path><g><g class="mark-line role-mark marks" role="graphics-object" aria-roledescription="line mark container"><path aria-label="winstart: 0; mean: 0.492063492063; fold: 10; winlen: 0.428621991427" role="graphics-symbol" aria-roledescription="line mark" d="M0,35.978835978835974L22.22222222222222,33.33333333333333L44.44444444444444,30.687830687830697L66.66666666666666,35.978835978835974L88.88888888888889,30.687830687830697L111.11111111111111,33.33333333333333L133.33333333333331,35.978835978835974L155.55555555555557,35.978835978835974L177.77777777777777,28.042328042328023L200,33.33333333333333" stroke="rgb(170, 207, 230)" stroke-width="2"></path></g></g><path class="foreground" aria-hidden="true" d="" display="none"></path></g><g transform="translate(0,0)"><path class="background" aria-hidden="true" d="M0,0h200v200h-200Z"></path><g><g class="mark-line role-mark marks" role="graphics-object" aria-roledescription="line mark container"><path aria-label="winstart: 0; mean: 0.5; fold: 10; winlen: 0.629960524947" role="graphics-symbol" aria-roledescription="line mark" d="M0,33.33333333333333L22.22222222222222,35.978835978835974L44.44444444444444,25.396825396825374L66.66666666666666,33.33333333333333L88.88888888888889,35.978835978835974L111.11111111111111,33.33333333333333L133.33333333333331,35.978835978835974L155.55555555555557,35.978835978835974L177.77777777777777,33.33333333333333L200,25.396825396825374" stroke="rgb(145, 194, 222)" stroke-width="2"></path></g></g><path class="foreground" aria-hidden="true" d="" display="none"></path></g><g transform="translate(0,0)"><path class="background" aria-hidden="true" d="M0,0h200v200h-200Z"></path><g><g class="mark-line role-mark marks" role="graphics-object" aria-roledescription="line mark container"><path aria-label="winstart: 0; mean: 0.5; fold: 10; winlen: 0.925874712287" role="graphics-symbol" aria-roledescription="line mark" d="M0,33.33333333333333L22.22222222222222,33.33333333333333L44.44444444444444,33.33333333333333L66.66666666666666,33.33333333333333L88.88888888888889,33.33333333333333L111.11111111111111,33.33333333333333L133.33333333333331,33.33333333333333L155.55555555555557,25.396825396825374L177.77777777777777,33.33333333333333L200,33.33333333333333" stroke="rgb(105, 171, 211)" stroke-width="2"></path></g></g><path class="foreground" aria-hidden="true" d="" display="none"></path></g><g transform="translate(0,0)"><path class="background" aria-hidden="true" d="M0,0h200v200h-200Z"></path><g><g class="mark-line role-mark marks" role="graphics-object" aria-roledescription="line mark container"><path aria-label="winstart: 0; mean: 0.5; fold: 10; winlen: 1.36079000017" role="graphics-symbol" aria-roledescription="line mark" d="M0,33.33333333333333L22.22222222222222,35.978835978835974L44.44444444444444,33.33333333333333L66.66666666666666,33.33333333333333L88.88888888888889,33.33333333333333L111.11111111111111,33.33333333333333L133.33333333333331,33.33333333333333L155.55555555555557,33.33333333333333L177.77777777777777,33.33333333333333L200,33.33333333333333" stroke="rgb(55, 134, 192)" stroke-width="2"></path></g></g><path class="foreground" aria-hidden="true" d="" display="none"></path></g><g transform="translate(0,0)"><path class="background" aria-hidden="true" d="M0,0h200v200h-200Z"></path><g><g class="mark-line role-mark marks" role="graphics-object" aria-roledescription="line mark container"><path aria-label="winstart: 0; mean: 0.5; fold: 10; winlen: 2" role="graphics-symbol" aria-roledescription="line mark" d="M0,33.33333333333333L22.22222222222222,33.33333333333333L44.44444444444444,33.33333333333333L66.66666666666666,25.396825396825374L88.88888888888889,33.33333333333333L111.11111111111111,33.33333333333333L133.33333333333331,35.978835978835974L155.55555555555557,33.33333333333333L177.77777777777777,33.33333333333333L200,33.33333333333333" stroke="rgb(10, 74, 144)" stroke-width="2"></path></g></g><path class="foreground" aria-hidden="true" d="" display="none"></path></g></g><g class="mark-group role-legend" role="graphics-symbol" aria-roledescription="legend" aria-label="Gradient legend titled 'winlen' for stroke color with values from 0.1 to 2.0"><g transform="translate(220,0)"><path class="background" aria-hidden="true" d="M0,0h41v216h-41Z" pointer-events="none"></path><g><g class="mark-group role-legend-entry"><g transform="translate(0,16)"><path class="background" aria-hidden="true" d="M0,0h0v0h0Z" pointer-events="none"></path><g><g class="mark-rect role-legend-gradient" pointer-events="none"><path d="M0,0h16v200h-16Z" fill="url(#gradient_0)" stroke="#ddd" stroke-width="0" opacity="1"></path></g><g class="mark-text role-legend-label" pointer-events="none"><text text-anchor="start" transform="translate(18,157.83870967741936)" font-family="sans-serif" font-size="10px" fill="#000" opacity="1">0.5</text><text text-anchor="start" transform="translate(18,106.2258064516129)" font-family="sans-serif" font-size="10px" fill="#000" opacity="1">1.0</text><text text-anchor="start" transform="translate(18,54.61290322580645)" font-family="sans-serif" font-size="10px" fill="#000" opacity="1">1.5</text><text text-anchor="start" transform="translate(18,8)" font-family="sans-serif" font-size="10px" fill="#000" opacity="1">2.0</text></g></g><path class="foreground" aria-hidden="true" d="" pointer-events="none" display="none"></path></g></g><g class="mark-text role-legend-title" pointer-events="none"><text text-anchor="start" transform="translate(0,9)" font-family="sans-serif" font-size="11px" font-weight="bold" fill="#000" opacity="1">winlen</text></g></g><path class="foreground" aria-hidden="true" d="" pointer-events="none" display="none"></path></g></g></g><path class="foreground" aria-hidden="true" d="" display="none"></path></g></g></g></svg>
