<?xml version="1.0" encoding="utf-8"?>
<!DOCTYPE svg PUBLIC "-//W3C//DTD SVG 1.1//EN" "http://www.w3.org/Graphics/SVG/1.1/DTD/svg11.dtd">
<svg class="marks" width="544" height="295" viewBox="0 0 544 295" version="1.1" xmlns="http://www.w3.org/2000/svg" xmlns:xlink="http://www.w3.org/1999/xlink"><defs><linearGradient id="gradient_0" x1="0" x2="0" y1="1" y2="0"><stop offset="0" stop-color="rgb(207, 225, 242)"></stop><stop offset="0.05" stop-color="rgb(199, 221, 239)"></stop><stop offset="0.1" stop-color="rgb(190, 216, 236)"></stop><stop offset="0.15" stop-color="rgb(179, 211, 233)"></stop><stop offset="0.2" stop-color="rgb(168, 206, 229)"></stop><stop offset="0.25" stop-color="rgb(156, 200, 226)"></stop><stop offset="0.3" stop-color="rgb(143, 193, 222)"></stop><stop offset="0.35" stop-color="rgb(130, 186, 219)"></stop><stop offset="0.4" stop-color="rgb(116, 178, 215)"></stop><stop offset="0.45" stop-color="rgb(104, 171, 211)"></stop><stop offset="0.5" stop-color="rgb(91, 163, 207)"></stop><stop offset="0.55" stop-color="rgb(80, 155, 203)"></stop><stop offset="0.6" stop-color="rgb(69, 146, 198)"></stop><stop offset="0.65" stop-color="rgb(59, 138, 194)"></stop><stop offset="0.7" stop-color="rgb(49, 129, 189)"></stop><stop offset="0.75" stop-color="rgb(41, 120, 184)"></stop><stop offset="0.8" stop-color="rgb(32, 111, 178)"></stop><stop offset="0.85" stop-color="rgb(25, 102, 171)"></stop><stop offset="0.9" stop-color="rgb(18, 92, 164)"></stop><stop offset="0.95" stop-color="rgb(14, 83, 154)"></stop><stop offset="1" stop-color="rgb(10, 74, 144)"></stop></linearGradient></defs><rect width="544" height="295" fill="white"></rect><g fill="none" stroke-miterlimit="10" transform="translate(43,57)"><g class="mark-group role-frame root" role="graphics-object" aria-roledescription="group mark container"><g transform="translate(0,0)"><path class="background" aria-hidden="true" d="M0,0h0v0h0Z"></path><g><g class="mark-group role-column-title column-title" role="graphics-object" aria-roledescription="group mark container"><g transform="translate(213,-31)"><path class="background" aria-hidden="true" d="M0,0h0v0h0Z"></path><g><g class="mark-group role-title"><g transform="translate(0,-21)"><path class="background" aria-hidden="true" d="M0,0h0v0h0Z" pointer-events="none"></path><g><g class="mark-text role-title-text" role="graphics-symbol" aria-roledescription="title" aria-label="Title text 'fold'" pointer-events="none"><text text-anchor="middle" transform="translate(0,9)" font-family="sans-serif" font-size="11px" font-weight="bold" fill="#000" opacity="1">fold</text></g></g><path class="foreground" aria-hidden="true" d="" pointer-events="none" display="none"></path></g></g></g><path class="foreground" aria-hidden="true" d="" display="none"></path></g></g><g class="mark-group role-row-header row_header" role="graphics-object" aria-roledescription="group mark container"><g transform="translate(-1,0)"><path class="background" aria-hidden="true" d="M0,0h0v200h0Z"></path><g><g class="mark-group role-axis" role="graphics-symbol" aria-roledescription="axis" aria-label="Y-axis titled 'Mean of logitmean' for a linear scale with values from 0.0 to 0.6"><g transform="translate(0.5,0.5)"><path class="background" aria-hidden="true" d="M0,0h0v0h0Z" pointer-events="none"></path><g><g class="mark-rule role-axis-tick" pointer-events="none"><line transform="translate(0,200)" x2="-5" y2="0" stroke="#888" stroke-width="1" opacity="1"></line><line transform="translate(0,167)" x2="-5" y2="0" stroke="#888" stroke-width="1" opacity="1"></line><line transform="translate(0,133)" x2="-5" y2="0" stroke="#888" stroke-width="1" opacity="1"></line><line transform="translate(0,100)" x2="-5" y2="0" stroke="#888" stroke-width="1" opacity="1"></line><line transform="translate(0,67)" x2="-5" y2="0" stroke="#888" stroke-width="1" opacity="1"></line><line transform="translate(0,33)" x2="-5" y2="0" stroke="#888" stroke-width="1" opacity="1"></line><line transform="translate(0,0)" x2="-5" y2="0" stroke="#888" stroke-width="1" opacity="1"></line></g><g class="mark-text role-axis-label" pointer-events="none"><text text-anchor="end" transform="translate(-7,203)" font-family="sans-serif" font-size="10px" fill="#000" opacity="1">0.0</text><text text-anchor="end" transform="translate(-7,169.66666666666666)" font-family="sans-serif" font-size="10px" fill="#000" opacity="1">0.1</text><text text-anchor="end" transform="translate(-7,136.33333333333331)" font-family="sans-serif" font-size="10px" fill="#000" opacity="1">0.2</text><text text-anchor="end" transform="translate(-7,103)" font-family="sans-serif" font-size="10px" fill="#000" opacity="1">0.3</text><text text-anchor="end" transform="translate(-7,69.66666666666666)" font-family="sans-serif" font-size="10px" fill="#000" opacity="1">0.4</text><text text-anchor="end" transform="translate(-7,36.33333333333333)" font-family="sans-serif" font-size="10px" fill="#000" opacity="1">0.5</text><text text-anchor="end" transform="translate(-7,3)" font-family="sans-serif" font-size="10px" fill="#000" opacity="1">0.6</text></g><g class="mark-rule role-axis-domain" pointer-events="none"><line transform="translate(0,200)" x2="0" y2="-200" stroke="#888" stroke-width="1" opacity="1"></line></g><g class="mark-text role-axis-title" pointer-events="none"><text text-anchor="middle" transform="translate(-26,100) rotate(-90) translate(0,-2)" font-family="sans-serif" font-size="11px" font-weight="bold" fill="#000" opacity="1">Mean of logitmean</text></g></g><path class="foreground" aria-hidden="true" d="" pointer-events="none" display="none"></path></g></g></g><path class="foreground" aria-hidden="true" d="" display="none"></path></g></g><g class="mark-group role-column-header column_header" role="graphics-object" aria-roledescription="group mark container"><g transform="translate(0,-1)"><path class="background" aria-hidden="true" d="M0,0h200v0h-200Z"></path><g><g class="mark-group role-title"><g transform="translate(100,-20)"><path class="background" aria-hidden="true" d="M0,0h0v0h0Z" pointer-events="none"></path><g><g class="mark-text role-title-text" role="graphics-symbol" aria-roledescription="title" aria-label="Title text '1'" pointer-events="none"><text text-anchor="middle" transform="translate(0,8)" font-family="sans-serif" font-size="10px" fill="#000" opacity="1">1</text></g></g><path class="foreground" aria-hidden="true" d="" pointer-events="none" display="none"></path></g></g></g><path class="foreground" aria-hidden="true" d="" display="none"></path></g><g transform="translate(224,-1)"><path class="background" aria-hidden="true" d="M0,0h200v0h-200Z"></path><g><g class="mark-group role-title"><g transform="translate(100,-20)"><path class="background" aria-hidden="true" d="M0,0h0v0h0Z" pointer-events="none"></path><g><g class="mark-text role-title-text" role="graphics-symbol" aria-roledescription="title" aria-label="Title text '2'" pointer-events="none"><text text-anchor="middle" transform="translate(0,8)" font-family="sans-serif" font-size="10px" fill="#000" opacity="1">2</text></g></g><path class="foreground" aria-hidden="true" d="" pointer-events="none" display="none"></path></g></g></g><path class="foreground" aria-hidden="true" d="" display="none"></path></g></g><g class="mark-group role-column-footer column_footer" role="graphics-object" aria-roledescription="group mark container"><g transform="translate(0,201)"><path class="background" aria-hidden="true" d="M0,0h200v0h-200Z"></path><g><g class="mark-group role-axis" role="graphics-symbol" aria-roledescription="axis" aria-label="X-axis titled 'winlen' for a linear scale with values from 0.4 to 2.0"><g transform="translate(0.5,0.5)"><path class="background" aria-hidden="true" d="M0,0h0v0h0Z" pointer-events="none"></path><g><g class="mark-rule role-axis-tick" pointer-events="none"><line transform="translate(12,0)" x2="0" y2="5" stroke="#888" stroke-width="1" opacity="1"></line><line transform="translate(75,0)" x2="0" y2="5" stroke="#888" stroke-width="1" opacity="1"></line><line transform="translate(138,0)" x2="0" y2="5" stroke="#888" stroke-width="1" opacity="1"></line><line transform="translate(200,0)" x2="0" y2="5" stroke="#888" stroke-width="1" opacity="1"></line></g><g class="mark-text role-axis-label" pointer-events="none"><text text-anchor="middle" transform="translate(12.499999999999996,15)" font-family="sans-serif" font-size="10px" fill="#000" opacity="1">0.5</text><text text-anchor="middle" transform="translate(74.99999999999999,15)" font-family="sans-serif" font-size="10px" fill="#000" opacity="1">1.0</text><text text-anchor="middle" transform="translate(137.5,15)" font-family="sans-serif" font-size="10px" fill="#000" opacity="1">1.5</text><text text-anchor="end" transform="translate(200,15)" font-family="sans-serif" font-size="10px" fill="#000" opacity="1">2.0</text></g><g class="mark-rule role-axis-domain" pointer-events="none"><line transform="translate(0,0)" x2="200" y2="0" stroke="#888" stroke-width="1" opacity="1"></line></g><g class="mark-text role-axis-title" pointer-events="none"><text text-anchor="middle" transform="translate(100,30)" font-family="sans-serif" font-size="11px" font-weight="bold" fill="#000" opacity="1">winlen</text></g></g><path class="foreground" aria-hidden="true" d="" pointer-events="none" display="none"></path></g></g></g><path class="foreground" aria-hidden="true" d="" display="none"></path></g><g transform="translate(224,201)"><path class="background" aria-hidden="true" d="M0,0h200v0h-200Z"></path><g><g class="mark-group role-axis" role="graphics-symbol" aria-roledescription="axis" aria-label="X-axis titled 'winlen' for a linear scale with values from 0.4 to 2.0"><g transform="translate(0.5,0.5)"><path class="background" aria-hidden="true" d="M0,0h0v0h0Z" pointer-events="none"></path><g><g class="mark-rule role-axis-tick" pointer-events="none"><line transform="translate(12,0)" x2="0" y2="5" stroke="#888" stroke-width="1" opacity="1"></line><line transform="translate(75,0)" x2="0" y2="5" stroke="#888" stroke-width="1" opacity="1"></line><line transform="translate(138,0)" x2="0" y2="5" stroke="#888" stroke-width="1" opacity="1"></line><line transform="translate(200,0)" x2="0" y2="5" stroke="#888" stroke-width="1" opacity="1"></line></g><g class="mark-text role-axis-label" pointer-events="none"><text text-anchor="middle" transform="translate(12.499999999999996,15)" font-family="sans-serif" font-size="10px" fill="#000" opacity="1">0.5</text><text text-anchor="middle" transform="translate(74.99999999999999,15)" font-family="sans-serif" font-size="10px" fill="#000" opacity="1">1.0</text><text text-anchor="middle" transform="translate(137.5,15)" font-family="sans-serif" font-size="10px" fill="#000" opacity="1">1.5</text><text text-anchor="end" transform="translate(200,15)" font-family="sans-serif" font-size="10px" fill="#000" opacity="1">2.0</text></g><g class="mark-rule role-axis-domain" pointer-events="none"><line transform="translate(0,0)" x2="200" y2="0" stroke="#888" stroke-width="1" opacity="1"></line></g><g class="mark-text role-axis-title" pointer-events="none"><text text-anchor="middle" transform="translate(100,30)" font-family="sans-serif" font-size="11px" font-weight="bold" fill="#000" opacity="1">winlen</text></g></g><path class="foreground" aria-hidden="true" d="" pointer-events="none" display="none"></path></g></g></g><path class="foreground" aria-hidden="true" d="" display="none"></path></g></g><g class="mark-group role-scope cell" role="graphics-object" aria-roledescription="group mark container"><g transform="translate(0,0)"><path class="background" aria-hidden="true" d="M0.5,0.5h200v200h-200Z" stroke="#ddd"></path><g><g class="mark-group role-axis" aria-hidden="true"><g transform="translate(0.5,200.5)"><path class="background" aria-hidden="true" d="M0,0h0v0h0Z" pointer-events="none"></path><g><g class="mark-rule role-axis-grid" pointer-events="none"><line transform="translate(12,-200)" x2="0" y2="200" stroke="#ddd" stroke-width="1" opacity="1"></line><line transform="translate(75,-200)" x2="0" y2="200" stroke="#ddd" stroke-width="1" opacity="1"></line><line transform="translate(138,-200)" x2="0" y2="200" stroke="#ddd" stroke-width="1" opacity="1"></line><line transform="translate(200,-200)" x2="0" y2="200" stroke="#ddd" stroke-width="1" opacity="1"></line></g></g><path class="foreground" aria-hidden="true" d="" pointer-events="none" display="none"></path></g></g><g class="mark-group role-axis" aria-hidden="true"><g transform="translate(0.5,0.5)"><path class="background" aria-hidden="true" d="M0,0h0v0h0Z" pointer-events="none"></path><g><g class="mark-rule role-axis-grid" pointer-events="none"><line transform="translate(0,200)" x2="200" y2="0" stroke="#ddd" stroke-width="1" opacity="1"></line><line transform="translate(0,167)" x2="200" y2="0" stroke="#ddd" stroke-width="1" opacity="1"></line><line transform="translate(0,133)" x2="200" y2="0" stroke="#ddd" stroke-width="1" opacity="1"></line><line transform="translate(0,100)" x2="200" y2="0" stroke="#ddd" stroke-width="1" opacity="1"></line><line transform="translate(0,67)" x2="200" y2="0" stroke="#ddd" stroke-width="1" opacity="1"></line><line transform="translate(0,33)" x2="200" y2="0" stroke="#ddd" stroke-width="1" opacity="1"></line><line transform="translate(0,0)" x2="200" y2="0" stroke="#ddd" stroke-width="1" opacity="1"></line></g></g><path class="foreground" aria-hidden="true" d="" pointer-events="none" display="none"></path></g></g><g class="mark-group role-scope child_pathgroup" role="graphics-object" aria-roledescription="group mark container"><g transform="translate(0,0)"><path class="background" aria-hidden="true" d="M0,0h200v200h-200Z"></path><g><g class="mark-line role-mark child_marks" role="graphics-object" aria-roledescription="line mark container"><path aria-label="winlen: 0.5; Mean of logitmean: 0.517993761555; winstart: 0" role="graphics-symbol" aria-roledescription="line mark" d="M12.499999999999996,27.33541281502734L22.90806497350728,15.878596406711676L35.04937501089855,34.952369106277125L49.21256574801247,39.90694673448487L65.7343390359113,23.55826514654602L85.00746736153826,36.71719351205112L107.49013123685913,38.78951171502154L133.71681153444985,35.74831177353328L164.31099571326817,27.388202893655446L200,33.41492939305617" stroke="rgb(207, 225, 242)" stroke-width="2"></path></g></g><path class="foreground" aria-hidden="true" d="" display="none"></path></g><g transform="translate(0,0)"><path class="background" aria-hidden="true" d="M0,0h200v200h-200Z"></path><g><g class="mark-line role-mark child_marks" role="graphics-object" aria-roledescription="line mark container"><path aria-label="winlen: 0.5; Mean of logitmean: 0.502950525316; winstart: 0.25" role="graphics-symbol" aria-roledescription="line mark" d="M12.499999999999996,32.34982489460185L22.90806497350728,43.40466571701356L35.04937501089855,44.680927657685324L49.21256574801247,31.855743952484517L65.7343390359113,35.878543410778605L85.00746736153826,42.736006351830056L107.49013123685913,31.71096249505412L133.71681153444985,20.065826070483396L164.31099571326817,37.36825180489794L200,26.59177733012079" stroke="rgb(196, 219, 238)" stroke-width="2"></path></g></g><path class="foreground" aria-hidden="true" d="" display="none"></path></g><g transform="translate(0,0)"><path class="background" aria-hidden="true" d="M0,0h200v200h-200Z"></path><g><g class="mark-line role-mark child_marks" role="graphics-object" aria-roledescription="line mark container"><path aria-label="winlen: 0.5; Mean of logitmean: 0.463146422824; winstart: 0.340197500044" role="graphics-symbol" aria-roledescription="line mark" d="M12.499999999999996,45.617859058749445L22.90806497350728,21.661993719083796L35.04937501089855,46.86488151816776L49.21256574801247,33.004043972612074L65.7343390359113,27.88188886052756L85.00746736153826,25.82467265944588L107.49013123685913,30.53224805293826L133.71681153444985,36.85691869365695L164.31099571326817,32.37544671238586L200,22.445610818977112" stroke="rgb(193, 217, 237)" stroke-width="2"></path></g></g><path class="foreground" aria-hidden="true" d="" display="none"></path></g><g transform="translate(0,0)"><path class="background" aria-hidden="true" d="M0,0h200v200h-200Z"></path><g><g class="mark-line role-mark child_marks" role="graphics-object" aria-roledescription="line mark container"><path aria-label="winlen: 0.5; Mean of logitmean: 0.400484696114; winstart: 0.462937356144" role="graphics-symbol" aria-roledescription="line mark" d="M12.499999999999996,66.5051012952806L22.90806497350728,39.93369123943591L35.04937501089855,41.05575900886118L49.21256574801247,36.83189907640853L65.7343390359113,39.152799487716415L85.00746736153826,27.0179290452065L107.49013123685913,21.830369956965146L133.71681153444985,34.40666620920425L164.31099571326817,53.04020581897617L200,35.993664916576805" stroke="rgb(187, 214, 235)" stroke-width="2"></path></g></g><path class="foreground" aria-hidden="true" d="" display="none"></path></g><g transform="translate(0,0)"><path class="background" aria-hidden="true" d="M0,0h200v200h-200Z"></path><g><g class="mark-line role-mark child_marks" role="graphics-object" aria-roledescription="line mark container"><path aria-label="winlen: 0.5; Mean of logitmean: 0.47229650449; winstart: 0.629960524947" role="graphics-symbol" aria-roledescription="line mark" d="M12.499999999999996,42.56783183651631L22.90806497350728,33.47016117459292L35.04937501089855,26.44769034981438L49.21256574801247,23.66110739853262L65.7343390359113,34.7846749721882L85.00746736153826,41.21281025548902L107.49013123685913,43.022158493004284L133.71681153444985,39.07417735523151L164.31099571326817,24.44401855722944L200,31.29756864917328" stroke="rgb(177, 210, 232)" stroke-width="2"></path></g></g><path class="foreground" aria-hidden="true" d="" display="none"></path></g><g transform="translate(0,0)"><path class="background" aria-hidden="true" d="M0,0h200v200h-200Z"></path><g><g class="mark-line role-mark child_marks" role="graphics-object" aria-roledescription="line mark container"><path aria-label="winlen: 0.5; Mean of logitmean: 0.505161471596; winstart: 0.857243982853" role="graphics-symbol" aria-roledescription="line mark" d="M12.499999999999996,31.612842801479026L22.90806497350728,2.0611160677416196L35.04937501089855,16.134851954968845L49.21256574801247,29.98804468658345L65.7343390359113,34.346145714087825L85.00746736153826,34.06525927535067L107.49013123685913,31.678051209519342L133.71681153444985,26.920187379276108L164.31099571326817,26.927847677154993L200,56.52823034204397" stroke="rgb(164, 204, 228)" stroke-width="2"></path></g></g><path class="foreground" aria-hidden="true" d="" display="none"></path></g><g transform="translate(0,0)"><path class="background" aria-hidden="true" d="M0,0h200v200h-200Z"></path><g><g class="mark-line role-mark child_marks" role="graphics-object" aria-roledescription="line mark container"><path aria-label="winlen: 0.5; Mean of logitmean: 0.510651963225; winstart: 1.16652903958" role="graphics-symbol" aria-roledescription="line mark" d="M12.499999999999996,29.78267892485953L22.90806497350728,36.5390511753652L35.04937501089855,34.23265972628753L49.21256574801247,58.80716428243418L65.7343390359113,51.02022533029L85.00746736153826,38.935040034909505L107.49013123685913,34.181971659412724L133.71681153444985,48.645607461213004L164.31099571326817,40.644237627883115L200,31.63985961899489" stroke="rgb(145, 194, 223)" stroke-width="2"></path></g></g><path class="foreground" aria-hidden="true" d="" display="none"></path></g><g transform="translate(0,0)"><path class="background" aria-hidden="true" d="M0,0h200v200h-200Z"></path><g><g class="mark-line role-mark child_marks" role="graphics-object" aria-roledescription="line mark container"><path aria-label="winlen: 0.5; Mean of logitmean: 0.473482679773; winstart: 1.58740105197" role="graphics-symbol" aria-roledescription="line mark" d="M12.499999999999996,42.17244007555132L22.90806497350728,48.7698320183773L35.04937501089855,39.39391859692931L49.21256574801247,48.30711993456474L65.7343390359113,43.922447237642245L85.00746736153826,38.555635300091026L107.49013123685913,26.835555607129315L133.71681153444985,27.179306514823853L164.31099571326817,42.78345689299046L200,56.38689781238027" stroke="rgb(117, 178, 215)" stroke-width="2"></path></g></g><path class="foreground" aria-hidden="true" d="" display="none"></path></g><g transform="translate(0,0)"><path class="background" aria-hidden="true" d="M0,0h200v200h-200Z"></path><g><g class="mark-line role-mark child_marks" role="graphics-object" aria-roledescription="line mark container"><path aria-label="winlen: 0.5; Mean of logitmean: 0.545001899928; winstart: 2.16011947778" role="graphics-symbol" aria-roledescription="line mark" d="M12.499999999999996,18.332700024008332L22.90806497350728,7.995905860156927L35.04937501089855,22.72544577656339L49.21256574801247,25.104689322077434L65.7343390359113,15.44944584409742L85.00746736153826,36.910609202818364L107.49013123685913,45.77466095875702L133.71681153444985,53.889070291539284L164.31099571326817,57.92750579105566L200,68.43693708123499" stroke="rgb(82, 156, 203)" stroke-width="2"></path></g></g><path class="foreground" aria-hidden="true" d="" display="none"></path></g><g transform="translate(0,0)"><path class="background" aria-hidden="true" d="M0,0h200v200h-200Z"></path><g><g class="mark-line role-mark child_marks" role="graphics-object" aria-roledescription="line mark container"><path aria-label="winlen: 0.5; Mean of logitmean: 0.307670339366; winstart: 2.93946898455" role="graphics-symbol" aria-roledescription="line mark" d="M12.499999999999996,97.44322021135316L22.90806497350728,94.0538039504077L35.04937501089855,94.35849421210598L49.21256574801247,88.56521170554016L65.7343390359113,86.56739115768133L85.00746736153826,85.28225559250711L107.49013123685913,85.15968229533219L133.71681153444985,85.105044943315L164.31099571326817,85.93474030184257L200,84.67199535902348" stroke="rgb(43, 123, 185)" stroke-width="2"></path></g></g><path class="foreground" aria-hidden="true" d="" display="none"></path></g><g transform="translate(0,0)"><path class="background" aria-hidden="true" d="M0,0h200v200h-200Z"></path><g><g class="mark-line role-mark child_marks" role="graphics-object" aria-roledescription="line mark container"><path aria-label="winlen: 0.5; Mean of logitmean: 0.339099818703; winstart: 4" role="graphics-symbol" aria-roledescription="line mark" d="M12.499999999999996,86.96672709889381L22.90806497350728,85.60656900211244L35.04937501089855,86.29425044488895L49.21256574801247,85.93672490692823L65.7343390359113,84.24124013547056L85.00746736153826,83.97468916686944L107.49013123685913,84.8295027013258L133.71681153444985,85.94259341921588L164.31099571326817,84.2565512648994L200,83.22892754494899" stroke="rgb(10, 74, 144)" stroke-width="2"></path></g></g><path class="foreground" aria-hidden="true" d="" display="none"></path></g></g></g><path class="foreground" aria-hidden="true" d="" display="none"></path></g><g transform="translate(224,0)"><path class="background" aria-hidden="true" d="M0.5,0.5h200v200h-200Z" stroke="#ddd"></path><g><g class="mark-group role-axis" aria-hidden="true"><g transform="translate(0.5,200.5)"><path class="background" aria-hidden="true" d="M0,0h0v0h0Z" pointer-events="none"></path><g><g class="mark-rule role-axis-grid" pointer-events="none"><line transform="translate(12,-200)" x2="0" y2="200" stroke="#ddd" stroke-width="1" opacity="1"></line><line transform="translate(75,-200)" x2="0" y2="200" stroke="#ddd" stroke-width="1" opacity="1"></line><line transform="translate(138,-200)" x2="0" y2="200" stroke="#ddd" stroke-width="1" opacity="1"></line><line transform="translate(200,-200)" x2="0" y2="200" stroke="#ddd" stroke-width="1" opacity="1"></line></g></g><path class="foreground" aria-hidden="true" d="" pointer-events="none" display="none"></path></g></g><g class="mark-group role-axis" aria-hidden="true"><g transform="translate(0.5,0.5)"><path class="background" aria-hidden="true" d="M0,0h0v0h0Z" pointer-events="none"></path><g><g class="mark-rule role-axis-grid" pointer-events="none"><line transform="translate(0,200)" x2="200" y2="0" stroke="#ddd" stroke-width="1" opacity="1"></line><line transform="translate(0,167)" x2="200" y2="0" stroke="#ddd" stroke-width="1" opacity="1"></line><line transform="translate(0,133)" x2="200" y2="0" stroke="#ddd" stroke-width="1" opacity="1"></line><line transform="translate(0,100)" x2="200" y2="0" stroke="#ddd" stroke-width="1" opacity="1"></line><line transform="translate(0,67)" x2="200" y2="0" stroke="#ddd" stroke-width="1" opacity="1"></line><line transform="translate(0,33)" x2="200" y2="0" stroke="#ddd" stroke-width="1" opacity="1"></line><line transform="translate(0,0)" x2="200" y2="0" stroke="#ddd" stroke-width="1" opacity="1"></line></g></g><path class="foreground" aria-hidden="true" d="" pointer-events="none" display="none"></path></g></g><g class="mark-group role-scope child_pathgroup" role="graphics-object" aria-roledescription="group mark container"><g transform="translate(0,0)"><path class="background" aria-hidden="true" d="M0,0h200v200h-200Z"></path><g><g class="mark-line role-mark child_marks" role="graphics-object" aria-roledescription="line mark container"><path aria-label="winlen: 0.5; Mean of logitmean: 0.45263997872; winstart: 0" role="graphics-symbol" aria-roledescription="line mark" d="M12.499999999999996,49.120007093240645L22.90806497350728,96.9089741881984L35.04937501089855,52.591667989857214L49.21256574801247,16.704137714356904L65.7343390359113,55.06622572081166L85.00746736153826,57.82830146723042L107.49013123685913,62.55503567899308L133.71681153444985,61.19554310906208L164.31099571326817,63.33657533124715L200,68.47976037572401" stroke="rgb(207, 225, 242)" stroke-width="2"></path></g></g><path class="foreground" aria-hidden="true" d="" display="none"></path></g><g transform="translate(0,0)"><path class="background" aria-hidden="true" d="M0,0h200v200h-200Z"></path><g><g class="mark-line role-mark child_marks" role="graphics-object" aria-roledescription="line mark container"><path aria-label="winlen: 0.5; Mean of logitmean: 0.334874021364; winstart: 0.25" role="graphics-symbol" aria-roledescription="line mark" d="M12.499999999999996,88.37532621211939L22.90806497350728,84.80574722736813L35.04937501089855,75.7220805022745L49.21256574801247,90.15425248023095L65.7343390359113,84.30297446865849L85.00746736153826,74.0995408433252L107.49013123685913,79.64384230129373L133.71681153444985,67.53985338488995L164.31099571326817,72.9153792882683L200,76.63165981644116" stroke="rgb(196, 219, 238)" stroke-width="2"></path></g></g><path class="foreground" aria-hidden="true" d="" display="none"></path></g><g transform="translate(0,0)"><path class="background" aria-hidden="true" d="M0,0h200v200h-200Z"></path><g><g class="mark-line role-mark child_marks" role="graphics-object" aria-roledescription="line mark container"><path aria-label="winlen: 0.5; Mean of logitmean: 0.333525693714; winstart: 0.340197500044" role="graphics-symbol" aria-roledescription="line mark" d="M12.499999999999996,88.8247687620818L22.90806497350728,95.23326005882421L35.04937501089855,74.26567865745764L49.21256574801247,85.50843936033404L65.7343390359113,88.28466412614966L85.00746736153826,88.56908030923016L107.49013123685913,82.4595149938604L133.71681153444985,70.8579497956606L164.31099571326817,83.30689656984403L200,79.88717148329845" stroke="rgb(193, 217, 237)" stroke-width="2"></path></g></g><path class="foreground" aria-hidden="true" d="" display="none"></path></g><g transform="translate(0,0)"><path class="background" aria-hidden="true" d="M0,0h200v200h-200Z"></path><g><g class="mark-line role-mark child_marks" role="graphics-object" aria-roledescription="line mark container"><path aria-label="winlen: 0.5; Mean of logitmean: 0.265939228634; winstart: 0.462937356144" role="graphics-symbol" aria-roledescription="line mark" d="M12.499999999999996,111.35359045517113L22.90806497350728,97.74170037370844L35.04937501089855,84.41509170202102L49.21256574801247,90.29890924757429L65.7343390359113,88.66207874862417L85.00746736153826,66.96489668639707L107.49013123685913,76.09096368238878L133.71681153444985,84.9149475896714L164.31099571326817,91.37407589914828L200,68.95161282395796" stroke="rgb(187, 214, 235)" stroke-width="2"></path></g></g><path class="foreground" aria-hidden="true" d="" display="none"></path></g><g transform="translate(0,0)"><path class="background" aria-hidden="true" d="M0,0h200v200h-200Z"></path><g><g class="mark-line role-mark child_marks" role="graphics-object" aria-roledescription="line mark container"><path aria-label="winlen: 0.5; Mean of logitmean: 0.334411323849; winstart: 0.629960524947" role="graphics-symbol" aria-roledescription="line mark" d="M12.499999999999996,88.52955871701926L22.90806497350728,72.03271299301693L35.04937501089855,68.86635454025436L49.21256574801247,77.32378684672496L65.7343390359113,92.64030139445096L85.00746736153826,77.40999111433054L107.49013123685913,73.65012048856607L133.71681153444985,89.68591477031458L164.31099571326817,92.24062723327577L200,95.8438320831984" stroke="rgb(177, 210, 232)" stroke-width="2"></path></g></g><path class="foreground" aria-hidden="true" d="" display="none"></path></g><g transform="translate(0,0)"><path class="background" aria-hidden="true" d="M0,0h200v200h-200Z"></path><g><g class="mark-line role-mark child_marks" role="graphics-object" aria-roledescription="line mark container"><path aria-label="winlen: 0.5; Mean of logitmean: 0.496240950449; winstart: 0.857243982853" role="graphics-symbol" aria-roledescription="line mark" d="M12.499999999999996,34.58634985039932L22.90806497350728,90.67198540371342L35.04937501089855,91.0372168883982L49.21256574801247,62.73723781448211L65.7343390359113,75.86010327781155L85.00746736153826,74.55413054167137L107.49013123685913,73.47967417077625L133.71681153444985,81.20621441045898L164.31099571326817,99.98131317173402L200,106.40340227593184" stroke="rgb(164, 204, 228)" stroke-width="2"></path></g></g><path class="foreground" aria-hidden="true" d="" display="none"></path></g><g transform="translate(0,0)"><path class="background" aria-hidden="true" d="M0,0h200v200h-200Z"></path><g><g class="mark-line role-mark child_marks" role="graphics-object" aria-roledescription="line mark container"><path aria-label="winlen: 0.5; Mean of logitmean: 0.494388707736; winstart: 1.16652903958" role="graphics-symbol" aria-roledescription="line mark" d="M12.499999999999996,35.20376408794637L22.90806497350728,96.61205758029774L35.04937501089855,121.00165634421955L49.21256574801247,87.5113568564524L65.7343390359113,47.337448320459494L85.00746736153826,89.61345397829517L107.49013123685913,100.63461179600608L133.71681153444985,110.42148066235673L164.31099571326817,115.61619978417362L200,97.94953013272803" stroke="rgb(145, 194, 223)" stroke-width="2"></path></g></g><path class="foreground" aria-hidden="true" d="" display="none"></path></g><g transform="translate(0,0)"><path class="background" aria-hidden="true" d="M0,0h200v200h-200Z"></path><g><g class="mark-line role-mark child_marks" role="graphics-object" aria-roledescription="line mark container"><path aria-label="winlen: 0.5; Mean of logitmean: 0.321060767265; winstart: 1.58740105197" role="graphics-symbol" aria-roledescription="line mark" d="M12.499999999999996,92.97974424493245L22.90806497350728,108.52510586438973L35.04937501089855,66.02182250845985L49.21256574801247,72.74635326595735L65.7343390359113,57.14413428910865L85.00746736153826,92.20299529487757L107.49013123685913,91.7715274074407L133.71681153444985,121.37878433861297L164.31099571326817,127.48636466945653L200,128.69309878119165" stroke="rgb(117, 178, 215)" stroke-width="2"></path></g></g><path class="foreground" aria-hidden="true" d="" display="none"></path></g><g transform="translate(0,0)"><path class="background" aria-hidden="true" d="M0,0h200v200h-200Z"></path><g><g class="mark-line role-mark child_marks" role="graphics-object" aria-roledescription="line mark container"><path aria-label="winlen: 0.5; Mean of logitmean: 0.332304144112; winstart: 2.16011947778" role="graphics-symbol" aria-roledescription="line mark" d="M12.499999999999996,89.23195196268918L22.90806497350728,121.73423479684135L35.04937501089855,120.29753881664176L49.21256574801247,110.0739156963749L65.7343390359113,114.91825825078811L85.00746736153826,103.60693585549379L107.49013123685913,125.31925968277517L133.71681153444985,125.91575816506642L164.31099571326817,135.2091572421078L200,134.3222390347644" stroke="rgb(82, 156, 203)" stroke-width="2"></path></g></g><path class="foreground" aria-hidden="true" d="" display="none"></path></g><g transform="translate(0,0)"><path class="background" aria-hidden="true" d="M0,0h200v200h-200Z"></path><g><g class="mark-line role-mark child_marks" role="graphics-object" aria-roledescription="line mark container"><path aria-label="winlen: 0.5; Mean of logitmean: 0.212710116026; winstart: 2.93946898455" role="graphics-symbol" aria-roledescription="line mark" d="M12.499999999999996,129.09662799145872L22.90806497350728,127.87612751586366L35.04937501089855,132.78242808268016L49.21256574801247,129.15965403664978L65.7343390359113,126.96159785453615L85.00746736153826,125.93565809767159L107.49013123685913,138.39641281294416L133.71681153444985,131.67047379449588L164.31099571326817,134.69250686176798L200,142.28218961703323" stroke="rgb(43, 123, 185)" stroke-width="2"></path></g></g><path class="foreground" aria-hidden="true" d="" display="none"></path></g><g transform="translate(0,0)"><path class="background" aria-hidden="true" d="M0,0h200v200h-200Z"></path><g><g class="mark-line role-mark child_marks" role="graphics-object" aria-roledescription="line mark container"><path aria-label="winlen: 0.5; Mean of logitmean: 0.181290086638; winstart: 4" role="graphics-symbol" aria-roledescription="line mark" d="M12.499999999999996,139.5699711207782L22.90806497350728,121.60275911905872L35.04937501089855,121.10091817146386L49.21256574801247,128.39037413237006L65.7343390359113,132.79988593996168L85.00746736153826,131.97675762449288L107.49013123685913,142.28918807390153L133.71681153444985,132.63061850855206L164.31099571326817,138.06019971740423L200,136.8041614282682" stroke="rgb(10, 74, 144)" stroke-width="2"></path></g></g><path class="foreground" aria-hidden="true" d="" display="none"></path></g></g></g><path class="foreground" aria-hidden="true" d="" display="none"></path></g></g><g class="mark-group role-legend" role="graphics-symbol" aria-roledescription="legend" aria-label="Gradient legend titled 'winstart' for stroke color with values from 0 to 4"><g transform="translate(445,0)"><path class="background" aria-hidden="true" d="M0,0h51v216h-51Z" pointer-events="none"></path><g><g class="mark-group role-legend-entry"><g transform="translate(0,16)"><path class="background" aria-hidden="true" d="M0,0h0v0h0Z" pointer-events="none"></path><g><g class="mark-rect role-legend-gradient" pointer-events="none"><path d="M0,0h16v200h-16Z" fill="url(#gradient_0)" stroke="#ddd" stroke-width="0" opacity="1"></path></g><g class="mark-text role-legend-label" pointer-events="none"><text text-anchor="start" transform="translate(18,198)" font-family="sans-serif" font-size="10px" fill="#000" opacity="1">0</text><text text-anchor="start" transform="translate(18,153)" font-family="sans-serif" font-size="10px" fill="#000" opacity="1">1</text><text text-anchor="start" transform="translate(18,103)" font-family="sans-serif" font-size="10px" fill="#000" opacity="1">2</text><text text-anchor="start" transform="translate(18,53)" font-family="sans-serif" font-size="10px" fill="#000" opacity="1">3</text><text text-anchor="start" transform="translate(18,8)" font-family="sans-serif" font-size="10px" fill="#000" opacity="1">4</text></g></g><path class="foreground" aria-hidden="true" d="" pointer-events="none" display="none"></path></g></g><g class="mark-text role-legend-title" pointer-events="none"><text text-anchor="start" transform="translate(0,9)" font-family="sans-serif" font-size="11px" font-weight="bold" fill="#000" opacity="1">winstart</text></g></g><path class="foreground" aria-hidden="true" d="" pointer-events="none" display="none"></path></g></g></g><path class="foreground" aria-hidden="true" d="" display="none"></path></g></g></g></svg>
