<?xml version="1.0" encoding="utf-8"?>
<!DOCTYPE svg PUBLIC "-//W3C//DTD SVG 1.1//EN" "http://www.w3.org/Graphics/SVG/1.1/DTD/svg11.dtd">
<svg class="marks" width="267" height="177" viewBox="0 0 267 177" version="1.1" xmlns="http://www.w3.org/2000/svg" xmlns:xlink="http://www.w3.org/1999/xlink"><rect width="267" height="177" fill="white"></rect><g fill="none" stroke-miterlimit="10" transform="translate(53,10)"><g class="mark-group role-frame root" role="graphics-object" aria-roledescription="group mark container"><g transform="translate(0,0)"><path class="background" aria-hidden="true" d="M0.5,0.5h128v130h-128Z" stroke="#ddd"></path><g><g class="mark-group role-axis" aria-hidden="true"><g transform="translate(0.5,130.5)"><path class="background" aria-hidden="true" d="M0,0h0v0h0Z" pointer-events="none"></path><g><g class="mark-rule role-axis-grid" pointer-events="none"><line transform="translate(0,-130)" x2="0" y2="130" stroke="#ddd" stroke-width="1" opacity="1"></line><line transform="translate(43,-130)" x2="0" y2="130" stroke="#ddd" stroke-width="1" opacity="1"></line><line transform="translate(85,-130)" x2="0" y2="130" stroke="#ddd" stroke-width="1" opacity="1"></line><line transform="translate(128,-130)" x2="0" y2="130" stroke="#ddd" stroke-width="1" opacity="1"></line></g></g><path class="foreground" aria-hidden="true" d="" pointer-events="none" display="none"></path></g></g><g class="mark-group role-axis" aria-hidden="true"><g transform="translate(0.5,0.5)"><path class="background" aria-hidden="true" d="M0,0h0v0h0Z" pointer-events="none"></path><g><g class="mark-rule role-axis-grid" pointer-events="none"><line transform="translate(0,130)" x2="128" y2="0" stroke="#ddd" stroke-width="1" opacity="1"></line><line transform="translate(0,104)" x2="128" y2="0" stroke="#ddd" stroke-width="1" opacity="1"></line><line transform="translate(0,78)" x2="128" y2="0" stroke="#ddd" stroke-width="1" opacity="1"></line><line transform="translate(0,52)" x2="128" y2="0" stroke="#ddd" stroke-width="1" opacity="1"></line><line transform="translate(0,26)" x2="128" y2="0" stroke="#ddd" stroke-width="1" opacity="1"></line><line transform="translate(0,0)" x2="128" y2="0" stroke="#ddd" stroke-width="1" opacity="1"></line></g></g><path class="foreground" aria-hidden="true" d="" pointer-events="none" display="none"></path></g></g><g class="mark-group role-axis" role="graphics-symbol" aria-roledescription="axis" aria-label="X-axis titled 'Time (s)' for a linear scale with values from -2 to 4"><g transform="translate(0.5,130.5)"><path class="background" aria-hidden="true" d="M0,0h0v0h0Z" pointer-events="none"></path><g><g class="mark-rule role-axis-tick" pointer-events="none"><line transform="translate(0,0)" x2="0" y2="5" stroke="#888" stroke-width="1" opacity="1"></line><line transform="translate(43,0)" x2="0" y2="5" stroke="#888" stroke-width="1" opacity="1"></line><line transform="translate(85,0)" x2="0" y2="5" stroke="#888" stroke-width="1" opacity="1"></line><line transform="translate(128,0)" x2="0" y2="5" stroke="#888" stroke-width="1" opacity="1"></line></g><g class="mark-text role-axis-label" pointer-events="none"><text text-anchor="start" transform="translate(0,15)" font-family="sans-serif" font-size="10px" fill="#000" opacity="1">-2</text><text text-anchor="middle" transform="translate(42.666666666666664,15)" font-family="sans-serif" font-size="10px" fill="#000" opacity="1">0</text><text text-anchor="middle" transform="translate(85.33333333333333,15)" font-family="sans-serif" font-size="10px" fill="#000" opacity="1">2</text><text text-anchor="end" transform="translate(128,15)" font-family="sans-serif" font-size="10px" fill="#000" opacity="1">4</text></g><g class="mark-rule role-axis-domain" pointer-events="none"><line transform="translate(0,0)" x2="128" y2="0" stroke="#888" stroke-width="1" opacity="1"></line></g><g class="mark-text role-axis-title" pointer-events="none"><text text-anchor="middle" transform="translate(64,30)" font-family="sans-serif" font-size="11px" font-weight="bold" fill="#000" opacity="1">Time (s)</text></g></g><path class="foreground" aria-hidden="true" d="" pointer-events="none" display="none"></path></g></g><g class="mark-group role-axis" role="graphics-symbol" aria-roledescription="axis" aria-label="Y-axis titled 'Decoding Correlation' for a linear scale with values from -0.02 to 0.08"><g transform="translate(0.5,0.5)"><path class="background" aria-hidden="true" d="M0,0h0v0h0Z" pointer-events="none"></path><g><g class="mark-rule role-axis-tick" pointer-events="none"><line transform="translate(0,130)" x2="-5" y2="0" stroke="#888" stroke-width="1" opacity="1"></line><line transform="translate(0,104)" x2="-5" y2="0" stroke="#888" stroke-width="1" opacity="1"></line><line transform="translate(0,78)" x2="-5" y2="0" stroke="#888" stroke-width="1" opacity="1"></line><line transform="translate(0,52)" x2="-5" y2="0" stroke="#888" stroke-width="1" opacity="1"></line><line transform="translate(0,26)" x2="-5" y2="0" stroke="#888" stroke-width="1" opacity="1"></line><line transform="translate(0,0)" x2="-5" y2="0" stroke="#888" stroke-width="1" opacity="1"></line></g><g class="mark-text role-axis-label" pointer-events="none"><text text-anchor="end" transform="translate(-7,133)" font-family="sans-serif" font-size="10px" fill="#000" opacity="1">-0.02</text><text text-anchor="end" transform="translate(-7,107)" font-family="sans-serif" font-size="10px" fill="#000" opacity="1">0.00</text><text text-anchor="end" transform="translate(-7,81.00000000000001)" font-family="sans-serif" font-size="10px" fill="#000" opacity="1">0.02</text><text text-anchor="end" transform="translate(-7,55)" font-family="sans-serif" font-size="10px" fill="#000" opacity="1">0.04</text><text text-anchor="end" transform="translate(-7,29.000000000000007)" font-family="sans-serif" font-size="10px" fill="#000" opacity="1">0.06</text><text text-anchor="end" transform="translate(-7,3)" font-family="sans-serif" font-size="10px" fill="#000" opacity="1">0.08</text></g><g class="mark-rule role-axis-domain" pointer-events="none"><line transform="translate(0,130)" x2="0" y2="-130" stroke="#888" stroke-width="1" opacity="1"></line></g><g class="mark-text role-axis-title" pointer-events="none"><text text-anchor="middle" transform="translate(-36,65) rotate(-90) translate(0,-2)" font-family="sans-serif" font-size="11px" font-weight="bold" fill="#000" opacity="1">Decoding Correlation</text></g></g><path class="foreground" aria-hidden="true" d="" pointer-events="none" display="none"></path></g></g><g class="mark-group role-scope layer_0_layer_0_layer_0_pathgroup" role="graphics-object" aria-roledescription="group mark container"><g transform="translate(0,0)"><path class="background" aria-hidden="true" d="M0,0h128v130h-128Z"></path><g><g class="mark-line role-mark layer_0_layer_0_layer_0_marks" role="graphics-object" aria-roledescription="line mark container"><path aria-label="Time (s): -2; Condition: global; Decoding Correlation: -0.00127877218977" role="graphics-symbol" aria-roledescription="line mark" d="M0,105.66240384669767L2,100.00332017989875L4,96.77640039132085L6,100.44402120448709L8,93.41282490796401L10,90.29741233153351L12,86.99986937675614L14,87.4365449995536L16,89.3539877454848L18,94.41153873266725L20,84.62538891783414L22,86.35774674580512L24,88.22735171848406L26,95.14726656573207L28,98.05157508806796L30,98.87108879139669L32,95.43925414185448L34,91.93504908669577L36,85.7416241246717L38,85.04048453065937L40,86.29527951606137L42,81.6883585235908L44,70.92924145456473L46,66.53521328136058L48,72.17743319940375L50,83.11896684876021L52,87.76088639872972L54,99.6810587466064L56,94.68077125000947L58,84.49513909315004L60,90.85555554943653L62,95.56815258606105L64,90.46312514505794L66,93.23514331822895L68,93.73405295253578L70,99.87956136638559L72,105.73759160760493L74,107.20152631779078L76,99.11204943615184L78,87.36910913165535L80,89.01958852989277L82,84.30877019676647L84,84.52940555726063L86,86.35307084927895L88,101.06861600916871L90,93.0530816209494L92,91.96474477437694L94,93.15478803225088L96,96.37244795005395L98,115.31571942102958L100,101.46024559063193L102,99.80299634254601L104,102.45140340362782L106,103.35706797393324L108,75.04740504171531L110,80.79570456343325L112,80.22021054964468L114,80.94377944407967L116,80.77209052112427L118,91.62442233678985L120,86.32178686126136L122,84.34424787792605L124,86.40939130732689L126,82.18621760956785L128,101.49058861103262" stroke="#0F3C5F" stroke-width="2" stroke-linejoin="round"></path></g></g><path class="foreground" aria-hidden="true" d="" display="none"></path></g><g transform="translate(0,0)"><path class="background" aria-hidden="true" d="M0,0h128v130h-128Z"></path><g><g class="mark-line role-mark layer_0_layer_0_layer_0_marks" role="graphics-object" aria-roledescription="line mark container"><path aria-label="Time (s): -2; Condition: object; Decoding Correlation: 0.0118671807048" role="graphics-symbol" aria-roledescription="line mark" d="M0,88.57266508374813L2,87.64317499080424L4,87.31065216991652L6,92.8656548655086L8,93.99556687890592L10,96.17381660348408L12,93.21723953698412L14,93.05194804658217L16,89.49809401036036L18,80.55992893517609L20,80.78946407458061L22,70.88541601604969L24,67.87047640869264L26,76.35896069217068L28,68.12709714075513L30,57.80994395430862L32,53.11458106877991L34,51.21958636046084L36,45.16156730216893L38,52.84284555477258L40,49.228943610522606L42,46.956055081224406L44,44.25676041875302L46,61.05727417368229L48,71.64011031001296L50,82.4146103038264L52,89.69993924656127L54,80.06391811957127L56,96.6442578866586L58,74.2756148254976L60,81.42884488407749L62,85.11650174544506L64,86.7429323579151L66,92.88034153754187L68,82.13007513430917L70,75.74229032416274L72,84.26150904653038L74,77.21156609231129L76,74.84824539029759L78,71.24394969940032L80,73.40693662935585L82,67.40365152385941L84,69.11134281435433L86,69.49832049910725L88,74.6200973389188L90,68.16385012792404L92,72.50937554978493L94,76.72684340254281L96,88.77956624671248L98,72.32445694544083L100,78.66739854660113L102,58.25725316402176L104,54.577230857661625L106,57.49620893914336L108,46.332272696434224L110,50.72014664899959L112,45.122054327257594L114,45.83088455652361L116,34.7764791702386L118,51.93547108004489L120,66.3558464576203L122,68.27103618231138L124,45.339140584450575L126,51.15888054845307L128,84.42119162911706" stroke="#687B3E" stroke-width="2" stroke-linejoin="round"></path></g></g><path class="foreground" aria-hidden="true" d="" display="none"></path></g></g><g class="mark-group role-scope layer_0_layer_0_layer_1_layer_0_pathgroup" role="graphics-object" aria-roledescription="group mark container"><g transform="translate(0,0)"><path class="background" aria-hidden="true" d="M0,0h128v130h-128Z"></path><g><g class="mark-area role-mark layer_0_layer_0_layer_1_layer_0_marks" role="graphics-object" aria-roledescription="area mark container"><path aria-label=": -0.00718548297771; upper_lower: 0.00453343682505; Time (s): -2; Condition: global; upper: 0.00453343682505; lower: -0.00718548297771" role="graphics-symbol" aria-roledescription="errorband" d="M0,113.34112787102822L2,107.19298358903603L4,103.67038838059035L6,106.72413454682898L8,99.26256102887591L10,96.00379268960438L12,93.06062834626142L14,94.1122934312076L16,95.29222802113054L18,100.9155279565702L20,92.33486785694116L22,93.07667370722764L24,95.55490354473433L26,102.08888010139478L28,104.12969866818207L30,105.87519147070176L32,104.73680144179741L34,100.80159789026159L36,94.32398974045151L38,94.02631211026953L40,92.29147064528074L42,88.37171682532255L44,77.29949034108124L46,73.64364036075067L48,79.20796418241125L50,89.23149537936524L52,95.09161871050601L54,107.20807659408428L56,101.78613302902863L58,91.06563518605623L60,97.31415560085712L62,102.38089295827776L64,96.57690934266724L66,98.7853747018092L68,99.24845260446133L70,106.47148262157279L72,111.45848189908415L74,113.57797797449531L76,106.54714433049449L78,95.59772132501449L80,96.87778134671211L82,91.0800602708375L84,90.51501091874076L86,93.16486296807352L88,107.06728515661226L90,98.79409778490225L92,98.32119480674886L94,99.73315193329528L96,102.98567162891321L98,122.68362701649876L100,108.62972772272279L102,107.10228010762826L104,110.47107916590699L106,112.89705804420458L108,86.63038410640345L110,90.5540626116705L112,89.82900870103163L114,88.98651041556393L116,87.92646224117382L118,98.85421416316743L120,92.44271532166833L122,91.22734379375844L124,94.78189512398502L126,93.33043571252509L128,109.4387596363359L128,93.49043975878632L126,71.13371431142892L124,77.5699548828068L122,77.44930709367313L120,80.09674797293513L118,84.09263663268247L116,73.50808535441675L114,72.97423194283272L112,70.74790997335903L110,71.04046948150241L108,63.23399665441505L106,93.86649886666675L104,94.43786310767479L102,92.67075383473605L100,94.39065693051222L98,108.10624964578209L96,89.3349570377456L94,86.61743533869509L92,85.69028463613353L90,87.19814392932616L88,95.40607515796842L86,79.70090251711592L84,78.72700248907779L82,77.54699742434681L80,81.44790026957389L78,79.07709073027254L76,91.80318347213083L74,100.81940496525891L72,99.97727794900946L70,93.4259127942321L68,88.24426655368595L66,87.86626504357885L64,84.50340102129265L62,88.47019875075216L60,84.35730502070228L58,78.0344292657119L56,87.77549814888545L54,92.14433461943433L52,80.34423445778673L50,77.21211517031712L48,65.35851043906459L46,59.45291572595253L44,64.59738730782942L42,74.99043136460466L40,80.53747405691887L38,76.29830537120684L36,76.88091524158044L34,83.42055334503223L32,86.17890564718927L30,91.78715858528308L28,91.91837746814497L26,88.34763791024535L24,81.26556885871413L22,79.51207663194558L20,77.07978659865019L18,87.93905363529505L16,83.43108126370775L14,80.97965628485319L12,81.15541865525994L10,84.5401139413363L8,87.37752770357453L6,94.04759624740659L4,89.75660925099048L2,92.66565774621401L0,98.10653212743782Z" fill="#0F3C5F" opacity="0.3"></path></g></g><path class="foreground" aria-hidden="true" d="" display="none"></path></g><g transform="translate(0,0)"><path class="background" aria-hidden="true" d="M0,0h128v130h-128Z"></path><g><g class="mark-area role-mark layer_0_layer_0_layer_1_layer_0_marks" role="graphics-object" aria-roledescription="area mark container"><path aria-label=": 0.0046062026637; upper_lower: 0.0191691108631; Time (s): -2; Condition: object; upper: 0.0191691108631; lower: 0.0046062026637" role="graphics-symbol" aria-roledescription="errorband" d="M0,98.01193653718661L2,96.80299260068935L4,96.84012208550519L6,101.97781369168179L8,104.49019535286946L10,105.24756583822258L12,102.95809610749843L14,104.17226624307655L16,100.38368043435901L18,93.44237835893294L20,91.74371138201542L22,80.97741682553692L24,77.40985720006331L26,84.94113421634862L28,77.10721688921623L30,66.6466440113861L32,60.906270899337244L34,58.819835500547796L36,54.835642344838284L38,62.97855421322541L40,56.42372406360768L42,55.82364063109903L44,53.77586146226704L46,70.63600473355591L48,81.46501201880344L50,92.9534171424786L52,98.3048848455572L54,88.896928041785L56,104.87266904888187L58,85.27543517091382L60,92.16704961948443L62,94.8495209162339L64,96.87342966916167L66,103.15101485468429L68,91.01288959308323L70,86.18381841204528L72,93.62181567445346L74,86.96153031788808L76,85.57177770787243L78,80.12883545103406L80,82.66796282676742L82,76.45877177867985L84,78.94255961998917L86,77.96837378272988L88,83.57309957148186L90,77.82707200233921L92,82.60966605371401L94,88.82462032371814L96,98.38456532303556L98,82.60900464963264L100,88.28745668299472L102,69.71269416213458L104,62.954283412726255L106,65.8323258503128L108,55.5721354529419L110,60.06260505477622L112,55.24508832286153L114,57.33725348468018L116,46.62413515274552L118,63.93159741697415L120,77.4879795540486L122,77.77897903593852L124,55.25474714491178L126,60.160482968260794L128,96.18965792114875L128,72.56105297191547L126,42.366879955215495L124,34.94746324063679L122,58.69483958384509L120,55.049830174390344L118,39.799781021407604L116,22.908126677660274L114,34.50616598786996L112,35.01035075580681L110,41.47445082980419L108,36.80535705693766L106,49.20452880556103L104,46.41192412851339L102,46.80013040455698L100,68.69232217330973L98,61.75074371955356L96,78.79202834439859L94,64.5516239466037L92,62.138433040821575L90,58.658557727549244L88,65.49436792791926L86,61.2711450754493L84,59.00795522526343L82,58.186054010963254L80,64.15275035067013L78,62.383018789377225L76,64.25377568311194L74,67.33037718623041L72,74.92372739397518L70,65.38816504029872L68,73.07566098877167L66,82.4545874361723L64,76.66624764813218L62,75.75683176527936L60,70.93267677637066L58,64.04336991497676L56,88.08103186419085L54,71.11052674164397L52,80.94119826633306L50,71.94746062795573L48,61.98285932852704L46,51.6684179946305L44,35.01900952701719L42,38.32197023978018L40,42.14407679744243L38,42.40526055184618L36,35.315164032624445L34,43.96676653957067L32,45.14859850240464L30,48.88593891183451L28,58.76148130802357L26,67.7217943460909L24,58.33659074844402L22,61.04356487289672L20,70.38052008102594L18,68.12454997287475L16,78.98065532121623L14,81.92753265448876L12,83.41863026869231L10,87.04312902438775L8,83.82208941481292L6,83.64755722375199L4,77.71536282004797L2,78.45834684400758L0,79.08015587796021Z" fill="#687B3E" opacity="0.3"></path></g></g><path class="foreground" aria-hidden="true" d="" display="none"></path></g></g><g class="mark-group role-legend" role="graphics-symbol" aria-roledescription="legend" aria-label="Symbol legend titled 'Condition' for fill color and stroke color with 2 values: global, object"><g transform="translate(148,0)"><path class="background" aria-hidden="true" d="M0,0h61v45h-61Z" pointer-events="none"></path><g><g class="mark-group role-legend-entry"><g transform="translate(0,16)"><path class="background" aria-hidden="true" d="M0,0h0v0h0Z" pointer-events="none"></path><g><g class="mark-group role-scope" role="graphics-object" aria-roledescription="group mark container"><g transform="translate(0,0)"><path class="background" aria-hidden="true" d="M0,0h47v12.5h-47Z" pointer-events="none" opacity="1"></path><g><g class="mark-symbol role-legend-symbol" pointer-events="none"><path transform="translate(6,6)" d="M5,0A5,5,0,1,1,-5,0A5,5,0,1,1,5,0" fill="#0F3C5F" stroke="#0F3C5F" stroke-width="1.5" opacity="0.3"></path></g><g class="mark-text role-legend-label" pointer-events="none"><text text-anchor="start" transform="translate(16,9)" font-family="sans-serif" font-size="10px" fill="#000" opacity="1">global</text></g></g><path class="foreground" aria-hidden="true" d="" pointer-events="none" display="none"></path></g><g transform="translate(0,16)"><path class="background" aria-hidden="true" d="M0,0h47v12.5h-47Z" pointer-events="none" opacity="1"></path><g><g class="mark-symbol role-legend-symbol" pointer-events="none"><path transform="translate(6,6)" d="M5,0A5,5,0,1,1,-5,0A5,5,0,1,1,5,0" fill="#687B3E" stroke="#687B3E" stroke-width="1.5" opacity="0.3"></path></g><g class="mark-text role-legend-label" pointer-events="none"><text text-anchor="start" transform="translate(16,9)" font-family="sans-serif" font-size="10px" fill="#000" opacity="1">object</text></g></g><path class="foreground" aria-hidden="true" d="" pointer-events="none" display="none"></path></g></g></g><path class="foreground" aria-hidden="true" d="" pointer-events="none" display="none"></path></g></g><g class="mark-text role-legend-title" pointer-events="none"><text text-anchor="start" transform="translate(0,9)" font-family="sans-serif" font-size="11px" font-weight="bold" fill="#000" opacity="1">Condition</text></g></g><path class="foreground" aria-hidden="true" d="" pointer-events="none" display="none"></path></g></g></g><path class="foreground" aria-hidden="true" d="" display="none"></path></g></g></g></svg>
