<?xml version="1.0" encoding="utf-8"?>
<!DOCTYPE svg PUBLIC "-//W3C//DTD SVG 1.1//EN" "http://www.w3.org/Graphics/SVG/1.1/DTD/svg11.dtd">
<svg class="marks" width="267" height="177" viewBox="0 0 267 177" version="1.1" xmlns="http://www.w3.org/2000/svg" xmlns:xlink="http://www.w3.org/1999/xlink"><rect width="267" height="177" fill="white"></rect><g fill="none" stroke-miterlimit="10" transform="translate(53,10)"><g class="mark-group role-frame root" role="graphics-object" aria-roledescription="group mark container"><g transform="translate(0,0)"><path class="background" aria-hidden="true" d="M0.5,0.5h128v130h-128Z" stroke="#ddd"></path><g><g class="mark-group role-axis" aria-hidden="true"><g transform="translate(0.5,130.5)"><path class="background" aria-hidden="true" d="M0,0h0v0h0Z" pointer-events="none"></path><g><g class="mark-rule role-axis-grid" pointer-events="none"><line transform="translate(0,-130)" x2="0" y2="130" stroke="#ddd" stroke-width="1" opacity="1"></line><line transform="translate(43,-130)" x2="0" y2="130" stroke="#ddd" stroke-width="1" opacity="1"></line><line transform="translate(85,-130)" x2="0" y2="130" stroke="#ddd" stroke-width="1" opacity="1"></line><line transform="translate(128,-130)" x2="0" y2="130" stroke="#ddd" stroke-width="1" opacity="1"></line></g></g><path class="foreground" aria-hidden="true" d="" pointer-events="none" display="none"></path></g></g><g class="mark-group role-axis" aria-hidden="true"><g transform="translate(0.5,0.5)"><path class="background" aria-hidden="true" d="M0,0h0v0h0Z" pointer-events="none"></path><g><g class="mark-rule role-axis-grid" pointer-events="none"><line transform="translate(0,130)" x2="128" y2="0" stroke="#ddd" stroke-width="1" opacity="1"></line><line transform="translate(0,104)" x2="128" y2="0" stroke="#ddd" stroke-width="1" opacity="1"></line><line transform="translate(0,78)" x2="128" y2="0" stroke="#ddd" stroke-width="1" opacity="1"></line><line transform="translate(0,52)" x2="128" y2="0" stroke="#ddd" stroke-width="1" opacity="1"></line><line transform="translate(0,26)" x2="128" y2="0" stroke="#ddd" stroke-width="1" opacity="1"></line><line transform="translate(0,0)" x2="128" y2="0" stroke="#ddd" stroke-width="1" opacity="1"></line></g></g><path class="foreground" aria-hidden="true" d="" pointer-events="none" display="none"></path></g></g><g class="mark-group role-axis" role="graphics-symbol" aria-roledescription="axis" aria-label="X-axis titled 'Time (s)' for a linear scale with values from -2 to 4"><g transform="translate(0.5,130.5)"><path class="background" aria-hidden="true" d="M0,0h0v0h0Z" pointer-events="none"></path><g><g class="mark-rule role-axis-tick" pointer-events="none"><line transform="translate(0,0)" x2="0" y2="5" stroke="#888" stroke-width="1" opacity="1"></line><line transform="translate(43,0)" x2="0" y2="5" stroke="#888" stroke-width="1" opacity="1"></line><line transform="translate(85,0)" x2="0" y2="5" stroke="#888" stroke-width="1" opacity="1"></line><line transform="translate(128,0)" x2="0" y2="5" stroke="#888" stroke-width="1" opacity="1"></line></g><g class="mark-text role-axis-label" pointer-events="none"><text text-anchor="start" transform="translate(0,15)" font-family="sans-serif" font-size="10px" fill="#000" opacity="1">-2</text><text text-anchor="middle" transform="translate(42.666666666666664,15)" font-family="sans-serif" font-size="10px" fill="#000" opacity="1">0</text><text text-anchor="middle" transform="translate(85.33333333333333,15)" font-family="sans-serif" font-size="10px" fill="#000" opacity="1">2</text><text text-anchor="end" transform="translate(128,15)" font-family="sans-serif" font-size="10px" fill="#000" opacity="1">4</text></g><g class="mark-rule role-axis-domain" pointer-events="none"><line transform="translate(0,0)" x2="128" y2="0" stroke="#888" stroke-width="1" opacity="1"></line></g><g class="mark-text role-axis-title" pointer-events="none"><text text-anchor="middle" transform="translate(64,30)" font-family="sans-serif" font-size="11px" font-weight="bold" fill="#000" opacity="1">Time (s)</text></g></g><path class="foreground" aria-hidden="true" d="" pointer-events="none" display="none"></path></g></g><g class="mark-group role-axis" role="graphics-symbol" aria-roledescription="axis" aria-label="Y-axis titled 'Decoding Correlation' for a linear scale with values from -0.02 to 0.08"><g transform="translate(0.5,0.5)"><path class="background" aria-hidden="true" d="M0,0h0v0h0Z" pointer-events="none"></path><g><g class="mark-rule role-axis-tick" pointer-events="none"><line transform="translate(0,130)" x2="-5" y2="0" stroke="#888" stroke-width="1" opacity="1"></line><line transform="translate(0,104)" x2="-5" y2="0" stroke="#888" stroke-width="1" opacity="1"></line><line transform="translate(0,78)" x2="-5" y2="0" stroke="#888" stroke-width="1" opacity="1"></line><line transform="translate(0,52)" x2="-5" y2="0" stroke="#888" stroke-width="1" opacity="1"></line><line transform="translate(0,26)" x2="-5" y2="0" stroke="#888" stroke-width="1" opacity="1"></line><line transform="translate(0,0)" x2="-5" y2="0" stroke="#888" stroke-width="1" opacity="1"></line></g><g class="mark-text role-axis-label" pointer-events="none"><text text-anchor="end" transform="translate(-7,133)" font-family="sans-serif" font-size="10px" fill="#000" opacity="1">-0.02</text><text text-anchor="end" transform="translate(-7,107)" font-family="sans-serif" font-size="10px" fill="#000" opacity="1">0.00</text><text text-anchor="end" transform="translate(-7,81.00000000000001)" font-family="sans-serif" font-size="10px" fill="#000" opacity="1">0.02</text><text text-anchor="end" transform="translate(-7,55)" font-family="sans-serif" font-size="10px" fill="#000" opacity="1">0.04</text><text text-anchor="end" transform="translate(-7,29.000000000000007)" font-family="sans-serif" font-size="10px" fill="#000" opacity="1">0.06</text><text text-anchor="end" transform="translate(-7,3)" font-family="sans-serif" font-size="10px" fill="#000" opacity="1">0.08</text></g><g class="mark-rule role-axis-domain" pointer-events="none"><line transform="translate(0,130)" x2="0" y2="-130" stroke="#888" stroke-width="1" opacity="1"></line></g><g class="mark-text role-axis-title" pointer-events="none"><text text-anchor="middle" transform="translate(-36,65) rotate(-90) translate(0,-2)" font-family="sans-serif" font-size="11px" font-weight="bold" fill="#000" opacity="1">Decoding Correlation</text></g></g><path class="foreground" aria-hidden="true" d="" pointer-events="none" display="none"></path></g></g><g class="mark-group role-scope layer_0_layer_0_layer_0_pathgroup" role="graphics-object" aria-roledescription="group mark container"><g transform="translate(0,0)"><path class="background" aria-hidden="true" d="M0,0h128v130h-128Z"></path><g><g class="mark-line role-mark layer_0_layer_0_layer_0_marks" role="graphics-object" aria-roledescription="line mark container"><path aria-label="Time (s): -2; Condition: global; Decoding Correlation: -0.00127877218977" role="graphics-symbol" aria-roledescription="line mark" d="M0,105.66240384669767L2,100.00332017989875L4,96.77640039132085L6,100.44402120448709L8,93.41282490796401L10,90.29741233153351L12,86.99986937675614L14,87.4365449995536L16,89.3539877454848L18,94.41153873266725L20,84.62538891783414L22,86.35774674580512L24,88.22735171848406L26,95.14726656573207L28,98.05157508806796L30,98.87108879139669L32,95.43925414185448L34,91.93504908669577L36,85.7416241246717L38,85.04048453065937L40,86.29527951606137L42,81.6883585235908L44,70.92924145456473L46,66.53521328136058L48,72.17743319940375L50,83.11896684876021L52,87.76088639872972L54,99.6810587466064L56,94.68077125000947L58,84.49513909315004L60,90.85555554943653L62,95.56815258606105L64,90.46312514505794L66,93.23514331822895L68,93.73405295253578L70,99.87956136638559L72,105.73759160760493L74,107.20152631779078L76,99.11204943615184L78,87.36910913165535L80,89.01958852989277L82,84.30877019676647L84,84.52940555726063L86,86.35307084927895L88,101.06861600916871L90,93.0530816209494L92,91.96474477437694L94,93.15478803225088L96,96.37244795005395L98,115.31571942102958L100,101.46024559063193L102,99.80299634254601L104,102.45140340362782L106,103.35706797393324L108,75.04740504171531L110,80.79570456343325L112,80.22021054964468L114,80.94377944407967L116,80.77209052112427L118,91.62442233678985L120,86.32178686126136L122,84.34424787792605L124,86.40939130732689L126,82.18621760956785L128,101.49058861103262" stroke="#0F3C5F" stroke-width="2" stroke-linejoin="round"></path></g></g><path class="foreground" aria-hidden="true" d="" display="none"></path></g><g transform="translate(0,0)"><path class="background" aria-hidden="true" d="M0,0h128v130h-128Z"></path><g><g class="mark-line role-mark layer_0_layer_0_layer_0_marks" role="graphics-object" aria-roledescription="line mark container"><path aria-label="Time (s): -2; Condition: object; Decoding Correlation: 0.0118671807048" role="graphics-symbol" aria-roledescription="line mark" d="M0,88.57266508374813L2,87.64317499080424L4,87.31065216991652L6,92.8656548655086L8,93.99556687890592L10,96.17381660348408L12,93.21723953698412L14,93.05194804658217L16,89.49809401036036L18,80.55992893517609L20,80.78946407458061L22,70.88541601604969L24,67.87047640869264L26,76.35896069217068L28,68.12709714075513L30,57.80994395430862L32,53.11458106877991L34,51.21958636046084L36,45.16156730216893L38,52.84284555477258L40,49.228943610522606L42,46.956055081224406L44,44.25676041875302L46,61.05727417368229L48,71.64011031001296L50,82.4146103038264L52,89.69993924656127L54,80.06391811957127L56,96.6442578866586L58,74.2756148254976L60,81.42884488407749L62,85.11650174544506L64,86.7429323579151L66,92.88034153754187L68,82.13007513430917L70,75.74229032416274L72,84.26150904653038L74,77.21156609231129L76,74.84824539029759L78,71.24394969940032L80,73.40693662935585L82,67.40365152385941L84,69.11134281435433L86,69.49832049910725L88,74.6200973389188L90,68.16385012792404L92,72.50937554978493L94,76.72684340254281L96,88.77956624671248L98,72.32445694544083L100,78.66739854660113L102,58.25725316402176L104,54.577230857661625L106,57.49620893914336L108,46.332272696434224L110,50.72014664899959L112,45.122054327257594L114,45.83088455652361L116,34.7764791702386L118,51.93547108004489L120,66.3558464576203L122,68.27103618231138L124,45.339140584450575L126,51.15888054845307L128,84.42119162911706" stroke="#687B3E" stroke-width="2" stroke-linejoin="round"></path></g></g><path class="foreground" aria-hidden="true" d="" display="none"></path></g></g><g class="mark-group role-scope layer_0_layer_0_layer_1_layer_0_pathgroup" role="graphics-object" aria-roledescription="group mark container"><g transform="translate(0,0)"><path class="background" aria-hidden="true" d="M0,0h128v130h-128Z"></path><g><g class="mark-area role-mark layer_0_layer_0_layer_1_layer_0_marks" role="graphics-object" aria-roledescription="area mark container"><path aria-label=": -0.00718038145916; upper_lower: 0.00457843025788; Time (s): -2; Condition: global; upper: 0.00457843025788; lower: -0.00718038145916" role="graphics-symbol" aria-roledescription="errorband" d="M0,113.33449589690535L2,107.22439277384981L4,103.82515238281513L6,106.77200448180284L8,99.40201384501127L10,95.92072587555569L12,92.94295556195111L14,94.13874369799663L16,95.39467348490969L18,101.05312566949273L20,92.3069423578317L22,93.10413097738005L24,95.36077631038087L26,101.98032835093674L28,104.13561350791134L30,105.98044345864815L32,104.89370078309064L34,100.53904630669507L36,94.4948185246238L38,93.96889468624023L40,92.28583651468176L42,88.61961273806799L44,77.33255398248083L46,73.82231906300304L48,79.09847803093325L50,89.0560405971643L52,95.013890580864L54,107.2900802140124L56,101.7205997061273L58,90.79884988946824L60,97.3620923579305L62,102.63300364752888L64,96.38367940410582L66,98.76664669196853L68,99.27892868146758L70,106.56099152476962L72,111.3204294442973L74,113.53164828989446L76,106.50144092740517L78,95.60414923184497L80,96.80342103105862L82,91.23958338832227L84,90.3153002318192L86,93.2312063715843L88,106.92439669716894L90,98.94844002908091L92,98.3168042135569L94,99.74143460740176L96,103.03524999384422L98,122.42941384149142L100,108.59341787763623L102,107.12227810016795L104,110.34150150827644L106,113.0039639264204L108,86.69515224100816L110,90.67891557502541L112,89.83601727717338L114,88.88824657720703L116,88.0559235376441L118,98.99598741735427L120,92.45105073143003L122,91.32003332097793L124,95.1011362134586L126,93.20301840142443L128,109.43204038322351L128,93.57819125701174L126,71.25413874198992L124,77.4974179564709L122,77.37947353842466L120,80.129393297106L118,84.06121514315956L116,73.47536773154118L114,73.22142746588526L112,70.7677239111225L110,71.17547391422737L108,63.45450030547175L106,93.73289817515213L104,94.59995558706359L102,92.40923808599356L100,94.22333287098573L98,108.19113448778091L96,89.44947337704909L94,86.6336726585426L92,85.59966012324017L90,87.20862581409312L88,95.30775756828506L86,79.6297559703012L84,78.69912983381904L82,77.37913201068066L80,81.20604792819647L78,79.3380352071049L76,91.6276041419092L74,100.75558344790575L72,100.1510939792842L70,93.61414953645611L68,88.22753983285173L66,87.98867419910914L64,84.56330506636624L62,88.59765201993558L60,84.22995544417768L58,77.97871709408805L56,87.69228591029872L54,92.04059221593165L52,80.42725497163772L50,77.05045553104992L48,65.34373452334135L46,59.410736810345256L44,64.72443093404904L42,74.91164710139668L40,80.25964369831388L38,75.9527378597071L36,77.09854476419278L34,83.48634413887801L32,86.1881682707493L30,91.6620150220793L28,91.81161796971573L26,88.58884036645603L24,81.01259953840731L22,79.51891010122384L20,77.00494763140323L18,88.07016488909433L16,83.54380829900771L14,80.96275285394857L12,81.05584679204671L10,84.6475278410634L8,87.4688134468649L6,94.21897638242214L4,89.79274276775118L2,92.6167120869244L0,98.04804066475623Z" fill="#0F3C5F" opacity="0.3"></path></g></g><path class="foreground" aria-hidden="true" d="" display="none"></path></g><g transform="translate(0,0)"><path class="background" aria-hidden="true" d="M0,0h128v130h-128Z"></path><g><g class="mark-area role-mark layer_0_layer_0_layer_1_layer_0_marks" role="graphics-object" aria-roledescription="area mark container"><path aria-label=": 0.00461345386839; upper_lower: 0.019050558508; Time (s): -2; Condition: object; upper: 0.019050558508; lower: 0.00461345386839" role="graphics-symbol" aria-roledescription="errorband" d="M0,98.00250997109308L2,96.73451406793906L4,96.68172588048927L6,102.1317002372895L8,104.29999495124116L10,105.34005324107233L12,103.08533984150583L14,104.47682057636096L16,100.073275100129L18,93.62259203643822L20,91.56794507707954L22,80.85829258790815L24,77.39425922965584L26,84.93317654375937L28,77.26580088443202L30,66.41406943435443L32,61.057105588342345L34,58.68806705020193L36,54.90996386780284L38,63.089479723872024L40,56.22622656312908L42,55.86466707462379L44,53.66286418270134L46,70.65145613406959L48,81.51473991398615L50,92.92923608758136L52,98.14494042092876L54,89.15855316992844L56,105.03489194129423L58,84.97811133174072L60,91.85303978662762L62,94.81541646543458L64,97.05678292635352L66,102.94001618782077L68,91.04816964834566L70,86.35143784397684L72,93.4201529519669L74,87.33103304589804L76,85.51055957794536L78,80.25183528268381L80,82.77584552961929L82,76.53777466847784L84,78.82319642906124L86,77.88669607325579L88,83.4317498144266L90,77.44385999947812L92,82.74249302884485L94,88.72228939331043L96,98.41693224804435L98,82.51553097899553L100,88.33182027159023L102,69.69447051544853L104,62.94312648060609L106,66.06766648968068L108,55.72398315713798L110,60.017421648740694L112,55.639022363369826L114,57.283698861865716L116,46.538466847590655L118,63.9122459292643L120,77.43836659186941L122,77.74856090554626L124,55.372482944766055L126,60.108284953483754L128,96.1813105110204L128,72.62569352222526L126,42.22371894629359L124,35.14822498126054L122,58.887191517227386L120,54.98793859442192L118,39.959698602642035L116,22.892986241990734L114,34.57623397202418L112,35.01806750398202L110,41.40468777957833L108,36.96256372665747L106,48.89783381213103L104,45.93794112071952L102,46.880571369229585L100,69.04172614446702L98,61.82792355468383L96,78.82595731235405L94,64.52859854817801L92,62.35185446640857L90,58.65993655600869L88,65.47281375500027L86,61.011471693384976L84,58.865029004489166L82,58.22195311346256L80,63.83488229592839L78,62.3715139101506L76,64.18524115330973L74,67.31016374096795L72,75.00245188516858L70,65.43568974686794L68,72.91285234549277L66,82.59698320074015L64,76.33075320768486L62,75.20671591042654L60,70.68300980844803L58,63.61342677827634L56,88.23871893292747L54,71.17346589810481L52,81.08350692779298L50,71.8990575717652L48,62.12460084926253L46,51.72517520017508L44,35.00632365511784L42,38.24602710804203L40,41.83027829283911L38,42.44590903656197L36,35.56106667423576L34,43.83061741291021L32,45.10901248955251L30,48.782610249027286L28,58.92440495891104L26,67.86935216029039L24,58.433102793839154L22,61.23143246020709L20,70.272810553482L18,68.16216618069977L16,79.11634310692239L14,81.8023030006718L12,83.7364329591559L10,86.8387762354145L8,83.88813996672306L6,83.31047525732639L4,77.67822576072317L2,78.23478833269101L0,79.23427393962137Z" fill="#687B3E" opacity="0.3"></path></g></g><path class="foreground" aria-hidden="true" d="" display="none"></path></g></g><g class="mark-group role-legend" role="graphics-symbol" aria-roledescription="legend" aria-label="Symbol legend titled 'Condition' for fill color and stroke color with 2 values: global, object"><g transform="translate(148,0)"><path class="background" aria-hidden="true" d="M0,0h61v45h-61Z" pointer-events="none"></path><g><g class="mark-group role-legend-entry"><g transform="translate(0,16)"><path class="background" aria-hidden="true" d="M0,0h0v0h0Z" pointer-events="none"></path><g><g class="mark-group role-scope" role="graphics-object" aria-roledescription="group mark container"><g transform="translate(0,0)"><path class="background" aria-hidden="true" d="M0,0h47v12.5h-47Z" pointer-events="none" opacity="1"></path><g><g class="mark-symbol role-legend-symbol" pointer-events="none"><path transform="translate(6,6)" d="M5,0A5,5,0,1,1,-5,0A5,5,0,1,1,5,0" fill="#0F3C5F" stroke="#0F3C5F" stroke-width="1.5" opacity="0.3"></path></g><g class="mark-text role-legend-label" pointer-events="none"><text text-anchor="start" transform="translate(16,9)" font-family="sans-serif" font-size="10px" fill="#000" opacity="1">global</text></g></g><path class="foreground" aria-hidden="true" d="" pointer-events="none" display="none"></path></g><g transform="translate(0,16)"><path class="background" aria-hidden="true" d="M0,0h47v12.5h-47Z" pointer-events="none" opacity="1"></path><g><g class="mark-symbol role-legend-symbol" pointer-events="none"><path transform="translate(6,6)" d="M5,0A5,5,0,1,1,-5,0A5,5,0,1,1,5,0" fill="#687B3E" stroke="#687B3E" stroke-width="1.5" opacity="0.3"></path></g><g class="mark-text role-legend-label" pointer-events="none"><text text-anchor="start" transform="translate(16,9)" font-family="sans-serif" font-size="10px" fill="#000" opacity="1">object</text></g></g><path class="foreground" aria-hidden="true" d="" pointer-events="none" display="none"></path></g></g></g><path class="foreground" aria-hidden="true" d="" pointer-events="none" display="none"></path></g></g><g class="mark-text role-legend-title" pointer-events="none"><text text-anchor="start" transform="translate(0,9)" font-family="sans-serif" font-size="11px" font-weight="bold" fill="#000" opacity="1">Condition</text></g></g><path class="foreground" aria-hidden="true" d="" pointer-events="none" display="none"></path></g></g></g><path class="foreground" aria-hidden="true" d="" display="none"></path></g></g></g></svg>
