<?xml version="1.0" encoding="utf-8"?>
<!DOCTYPE svg PUBLIC "-//W3C//DTD SVG 1.1//EN" "http://www.w3.org/Graphics/SVG/1.1/DTD/svg11.dtd">
<svg class="marks" width="1002" height="295" viewBox="0 0 1002 295" version="1.1" xmlns="http://www.w3.org/2000/svg" xmlns:xlink="http://www.w3.org/1999/xlink"><rect width="1002" height="295" fill="white"></rect><g fill="none" stroke-miterlimit="10" transform="translate(46,57)"><g class="mark-group role-frame root" role="graphics-object" aria-roledescription="group mark container"><g transform="translate(0,0)"><path class="background" aria-hidden="true" d="M0,0h0v0h0Z"></path><g><g class="mark-group role-column-title column-title" role="graphics-object" aria-roledescription="group mark container"><g transform="translate(435,-31)"><path class="background" aria-hidden="true" d="M0,0h0v0h0Z"></path><g><g class="mark-group role-title"><g transform="translate(0,-21)"><path class="background" aria-hidden="true" d="M0,0h0v0h0Z" pointer-events="none"></path><g><g class="mark-text role-title-text" role="graphics-symbol" aria-roledescription="title" aria-label="Title text 'Window Width (s)'" pointer-events="none"><text text-anchor="middle" transform="translate(0,9)" font-family="sans-serif" font-size="11px" font-weight="bold" fill="#000" opacity="1">Window Width (s)</text></g></g><path class="foreground" aria-hidden="true" d="" pointer-events="none" display="none"></path></g></g></g><path class="foreground" aria-hidden="true" d="" display="none"></path></g></g><g class="mark-group role-row-header row_header" role="graphics-object" aria-roledescription="group mark container"><g transform="translate(-3,0)"><path class="background" aria-hidden="true" d="M0,0h0v200h0Z"></path><g><g class="mark-group role-axis" role="graphics-symbol" aria-roledescription="axis" aria-label="Y-axis titled 'Prop. Winning Source > Lossing Sources' for a linear scale with values from 0.0 to 0.7"><g transform="translate(0.5,0.5)"><path class="background" aria-hidden="true" d="M0,0h0v0h0Z" pointer-events="none"></path><g><g class="mark-rule role-axis-tick" pointer-events="none"><line transform="translate(0,200)" x2="-5" y2="0" stroke="#888" stroke-width="1" opacity="1"></line><line transform="translate(0,169)" x2="-5" y2="0" stroke="#888" stroke-width="1" opacity="1"></line><line transform="translate(0,138)" x2="-5" y2="0" stroke="#888" stroke-width="1" opacity="1"></line><line transform="translate(0,108)" x2="-5" y2="0" stroke="#888" stroke-width="1" opacity="1"></line><line transform="translate(0,77)" x2="-5" y2="0" stroke="#888" stroke-width="1" opacity="1"></line><line transform="translate(0,46)" x2="-5" y2="0" stroke="#888" stroke-width="1" opacity="1"></line><line transform="translate(0,15)" x2="-5" y2="0" stroke="#888" stroke-width="1" opacity="1"></line></g><g class="mark-text role-axis-label" pointer-events="none"><text text-anchor="end" transform="translate(-7,203)" font-family="sans-serif" font-size="10px" fill="#000" opacity="1">0.0</text><text text-anchor="end" transform="translate(-7,172.23076923076923)" font-family="sans-serif" font-size="10px" fill="#000" opacity="1">0.1</text><text text-anchor="end" transform="translate(-7,141.46153846153845)" font-family="sans-serif" font-size="10px" fill="#000" opacity="1">0.2</text><text text-anchor="end" transform="translate(-7,110.69230769230771)" font-family="sans-serif" font-size="10px" fill="#000" opacity="1">0.3</text><text text-anchor="end" transform="translate(-7,79.92307692307692)" font-family="sans-serif" font-size="10px" fill="#000" opacity="1">0.4</text><text text-anchor="end" transform="translate(-7,49.15384615384617)" font-family="sans-serif" font-size="10px" fill="#000" opacity="1">0.5</text><text text-anchor="end" transform="translate(-7,18.384615384615397)" font-family="sans-serif" font-size="10px" fill="#000" opacity="1">0.6</text></g><g class="mark-rule role-axis-domain" pointer-events="none"><line transform="translate(0,200)" x2="0" y2="-200" stroke="#888" stroke-width="1" opacity="1"></line></g><g class="mark-text role-axis-title" pointer-events="none"><text text-anchor="middle" transform="translate(-26,100) rotate(-90) translate(0,-2)" font-family="sans-serif" font-size="11px" font-weight="bold" fill="#000" opacity="1">Prop. Winning Source &gt; Lossing Sources</text></g></g><path class="foreground" aria-hidden="true" d="" pointer-events="none" display="none"></path></g></g></g><path class="foreground" aria-hidden="true" d="" display="none"></path></g></g><g class="mark-group role-column-header column_header" role="graphics-object" aria-roledescription="group mark container"><g transform="translate(0,-1)"><path class="background" aria-hidden="true" d="M0,0h200v0h-200Z"></path><g><g class="mark-group role-title"><g transform="translate(100,-20)"><path class="background" aria-hidden="true" d="M0,0h0v0h0Z" pointer-events="none"></path><g><g class="mark-text role-title-text" role="graphics-symbol" aria-roledescription="title" aria-label="Title text '0.5'" pointer-events="none"><text text-anchor="middle" transform="translate(0,8)" font-family="sans-serif" font-size="10px" fill="#000" opacity="1">0.5</text></g></g><path class="foreground" aria-hidden="true" d="" pointer-events="none" display="none"></path></g></g></g><path class="foreground" aria-hidden="true" d="" display="none"></path></g><g transform="translate(224,-1)"><path class="background" aria-hidden="true" d="M0,0h200v0h-200Z"></path><g><g class="mark-group role-title"><g transform="translate(100,-20)"><path class="background" aria-hidden="true" d="M0,0h0v0h0Z" pointer-events="none"></path><g><g class="mark-text role-title-text" role="graphics-symbol" aria-roledescription="title" aria-label="Title text '1'" pointer-events="none"><text text-anchor="middle" transform="translate(0,8)" font-family="sans-serif" font-size="10px" fill="#000" opacity="1">1</text></g></g><path class="foreground" aria-hidden="true" d="" pointer-events="none" display="none"></path></g></g></g><path class="foreground" aria-hidden="true" d="" display="none"></path></g><g transform="translate(448,-1)"><path class="background" aria-hidden="true" d="M0,0h200v0h-200Z"></path><g><g class="mark-group role-title"><g transform="translate(100,-20)"><path class="background" aria-hidden="true" d="M0,0h0v0h0Z" pointer-events="none"></path><g><g class="mark-text role-title-text" role="graphics-symbol" aria-roledescription="title" aria-label="Title text '2'" pointer-events="none"><text text-anchor="middle" transform="translate(0,8)" font-family="sans-serif" font-size="10px" fill="#000" opacity="1">2</text></g></g><path class="foreground" aria-hidden="true" d="" pointer-events="none" display="none"></path></g></g></g><path class="foreground" aria-hidden="true" d="" display="none"></path></g><g transform="translate(672,-1)"><path class="background" aria-hidden="true" d="M0,0h200v0h-200Z"></path><g><g class="mark-group role-title"><g transform="translate(100,-20)"><path class="background" aria-hidden="true" d="M0,0h0v0h0Z" pointer-events="none"></path><g><g class="mark-text role-title-text" role="graphics-symbol" aria-roledescription="title" aria-label="Title text '3'" pointer-events="none"><text text-anchor="middle" transform="translate(0,8)" font-family="sans-serif" font-size="10px" fill="#000" opacity="1">3</text></g></g><path class="foreground" aria-hidden="true" d="" pointer-events="none" display="none"></path></g></g></g><path class="foreground" aria-hidden="true" d="" display="none"></path></g></g><g class="mark-group role-column-footer column_footer" role="graphics-object" aria-roledescription="group mark container"><g transform="translate(0,201)"><path class="background" aria-hidden="true" d="M0,0h200v0h-200Z"></path><g><g class="mark-group role-axis" role="graphics-symbol" aria-roledescription="axis" aria-label="X-axis titled 'Window Center (s)' for a linear scale with values from 0 to 7"><g transform="translate(0.5,0.5)"><path class="background" aria-hidden="true" d="M0,0h0v0h0Z" pointer-events="none"></path><g><g class="mark-rule role-axis-tick" pointer-events="none"><line transform="translate(0,0)" x2="0" y2="5" stroke="#888" stroke-width="1" opacity="1"></line><line transform="translate(31,0)" x2="0" y2="5" stroke="#888" stroke-width="1" opacity="1"></line><line transform="translate(62,0)" x2="0" y2="5" stroke="#888" stroke-width="1" opacity="1"></line><line transform="translate(92,0)" x2="0" y2="5" stroke="#888" stroke-width="1" opacity="1"></line><line transform="translate(123,0)" x2="0" y2="5" stroke="#888" stroke-width="1" opacity="1"></line><line transform="translate(154,0)" x2="0" y2="5" stroke="#888" stroke-width="1" opacity="1"></line><line transform="translate(185,0)" x2="0" y2="5" stroke="#888" stroke-width="1" opacity="1"></line></g><g class="mark-text role-axis-label" pointer-events="none"><text text-anchor="start" transform="translate(0,15)" font-family="sans-serif" font-size="10px" fill="#000" opacity="1">0</text><text text-anchor="middle" transform="translate(30.76923076923077,15)" font-family="sans-serif" font-size="10px" fill="#000" opacity="1">1</text><text text-anchor="middle" transform="translate(61.53846153846154,15)" font-family="sans-serif" font-size="10px" fill="#000" opacity="1">2</text><text text-anchor="middle" transform="translate(92.3076923076923,15)" font-family="sans-serif" font-size="10px" fill="#000" opacity="1">3</text><text text-anchor="middle" transform="translate(123.07692307692308,15)" font-family="sans-serif" font-size="10px" fill="#000" opacity="1">4</text><text text-anchor="middle" transform="translate(153.84615384615387,15)" font-family="sans-serif" font-size="10px" fill="#000" opacity="1">5</text><text text-anchor="middle" transform="translate(184.6153846153846,15)" font-family="sans-serif" font-size="10px" fill="#000" opacity="1">6</text></g><g class="mark-rule role-axis-domain" pointer-events="none"><line transform="translate(0,0)" x2="200" y2="0" stroke="#888" stroke-width="1" opacity="1"></line></g><g class="mark-text role-axis-title" pointer-events="none"><text text-anchor="middle" transform="translate(100,30)" font-family="sans-serif" font-size="11px" font-weight="bold" fill="#000" opacity="1">Window Center (s)</text></g></g><path class="foreground" aria-hidden="true" d="" pointer-events="none" display="none"></path></g></g></g><path class="foreground" aria-hidden="true" d="" display="none"></path></g><g transform="translate(224,201)"><path class="background" aria-hidden="true" d="M0,0h200v0h-200Z"></path><g><g class="mark-group role-axis" role="graphics-symbol" aria-roledescription="axis" aria-label="X-axis titled 'Window Center (s)' for a linear scale with values from 0 to 7"><g transform="translate(0.5,0.5)"><path class="background" aria-hidden="true" d="M0,0h0v0h0Z" pointer-events="none"></path><g><g class="mark-rule role-axis-tick" pointer-events="none"><line transform="translate(0,0)" x2="0" y2="5" stroke="#888" stroke-width="1" opacity="1"></line><line transform="translate(31,0)" x2="0" y2="5" stroke="#888" stroke-width="1" opacity="1"></line><line transform="translate(62,0)" x2="0" y2="5" stroke="#888" stroke-width="1" opacity="1"></line><line transform="translate(92,0)" x2="0" y2="5" stroke="#888" stroke-width="1" opacity="1"></line><line transform="translate(123,0)" x2="0" y2="5" stroke="#888" stroke-width="1" opacity="1"></line><line transform="translate(154,0)" x2="0" y2="5" stroke="#888" stroke-width="1" opacity="1"></line><line transform="translate(185,0)" x2="0" y2="5" stroke="#888" stroke-width="1" opacity="1"></line></g><g class="mark-text role-axis-label" pointer-events="none"><text text-anchor="start" transform="translate(0,15)" font-family="sans-serif" font-size="10px" fill="#000" opacity="1">0</text><text text-anchor="middle" transform="translate(30.76923076923077,15)" font-family="sans-serif" font-size="10px" fill="#000" opacity="1">1</text><text text-anchor="middle" transform="translate(61.53846153846154,15)" font-family="sans-serif" font-size="10px" fill="#000" opacity="1">2</text><text text-anchor="middle" transform="translate(92.3076923076923,15)" font-family="sans-serif" font-size="10px" fill="#000" opacity="1">3</text><text text-anchor="middle" transform="translate(123.07692307692308,15)" font-family="sans-serif" font-size="10px" fill="#000" opacity="1">4</text><text text-anchor="middle" transform="translate(153.84615384615387,15)" font-family="sans-serif" font-size="10px" fill="#000" opacity="1">5</text><text text-anchor="middle" transform="translate(184.6153846153846,15)" font-family="sans-serif" font-size="10px" fill="#000" opacity="1">6</text></g><g class="mark-rule role-axis-domain" pointer-events="none"><line transform="translate(0,0)" x2="200" y2="0" stroke="#888" stroke-width="1" opacity="1"></line></g><g class="mark-text role-axis-title" pointer-events="none"><text text-anchor="middle" transform="translate(100,30)" font-family="sans-serif" font-size="11px" font-weight="bold" fill="#000" opacity="1">Window Center (s)</text></g></g><path class="foreground" aria-hidden="true" d="" pointer-events="none" display="none"></path></g></g></g><path class="foreground" aria-hidden="true" d="" display="none"></path></g><g transform="translate(448,201)"><path class="background" aria-hidden="true" d="M0,0h200v0h-200Z"></path><g><g class="mark-group role-axis" role="graphics-symbol" aria-roledescription="axis" aria-label="X-axis titled 'Window Center (s)' for a linear scale with values from 0 to 7"><g transform="translate(0.5,0.5)"><path class="background" aria-hidden="true" d="M0,0h0v0h0Z" pointer-events="none"></path><g><g class="mark-rule role-axis-tick" pointer-events="none"><line transform="translate(0,0)" x2="0" y2="5" stroke="#888" stroke-width="1" opacity="1"></line><line transform="translate(31,0)" x2="0" y2="5" stroke="#888" stroke-width="1" opacity="1"></line><line transform="translate(62,0)" x2="0" y2="5" stroke="#888" stroke-width="1" opacity="1"></line><line transform="translate(92,0)" x2="0" y2="5" stroke="#888" stroke-width="1" opacity="1"></line><line transform="translate(123,0)" x2="0" y2="5" stroke="#888" stroke-width="1" opacity="1"></line><line transform="translate(154,0)" x2="0" y2="5" stroke="#888" stroke-width="1" opacity="1"></line><line transform="translate(185,0)" x2="0" y2="5" stroke="#888" stroke-width="1" opacity="1"></line></g><g class="mark-text role-axis-label" pointer-events="none"><text text-anchor="start" transform="translate(0,15)" font-family="sans-serif" font-size="10px" fill="#000" opacity="1">0</text><text text-anchor="middle" transform="translate(30.76923076923077,15)" font-family="sans-serif" font-size="10px" fill="#000" opacity="1">1</text><text text-anchor="middle" transform="translate(61.53846153846154,15)" font-family="sans-serif" font-size="10px" fill="#000" opacity="1">2</text><text text-anchor="middle" transform="translate(92.3076923076923,15)" font-family="sans-serif" font-size="10px" fill="#000" opacity="1">3</text><text text-anchor="middle" transform="translate(123.07692307692308,15)" font-family="sans-serif" font-size="10px" fill="#000" opacity="1">4</text><text text-anchor="middle" transform="translate(153.84615384615387,15)" font-family="sans-serif" font-size="10px" fill="#000" opacity="1">5</text><text text-anchor="middle" transform="translate(184.6153846153846,15)" font-family="sans-serif" font-size="10px" fill="#000" opacity="1">6</text></g><g class="mark-rule role-axis-domain" pointer-events="none"><line transform="translate(0,0)" x2="200" y2="0" stroke="#888" stroke-width="1" opacity="1"></line></g><g class="mark-text role-axis-title" pointer-events="none"><text text-anchor="middle" transform="translate(100,30)" font-family="sans-serif" font-size="11px" font-weight="bold" fill="#000" opacity="1">Window Center (s)</text></g></g><path class="foreground" aria-hidden="true" d="" pointer-events="none" display="none"></path></g></g></g><path class="foreground" aria-hidden="true" d="" display="none"></path></g><g transform="translate(672,201)"><path class="background" aria-hidden="true" d="M0,0h200v0h-200Z"></path><g><g class="mark-group role-axis" role="graphics-symbol" aria-roledescription="axis" aria-label="X-axis titled 'Window Center (s)' for a linear scale with values from 0 to 7"><g transform="translate(0.5,0.5)"><path class="background" aria-hidden="true" d="M0,0h0v0h0Z" pointer-events="none"></path><g><g class="mark-rule role-axis-tick" pointer-events="none"><line transform="translate(0,0)" x2="0" y2="5" stroke="#888" stroke-width="1" opacity="1"></line><line transform="translate(31,0)" x2="0" y2="5" stroke="#888" stroke-width="1" opacity="1"></line><line transform="translate(62,0)" x2="0" y2="5" stroke="#888" stroke-width="1" opacity="1"></line><line transform="translate(92,0)" x2="0" y2="5" stroke="#888" stroke-width="1" opacity="1"></line><line transform="translate(123,0)" x2="0" y2="5" stroke="#888" stroke-width="1" opacity="1"></line><line transform="translate(154,0)" x2="0" y2="5" stroke="#888" stroke-width="1" opacity="1"></line><line transform="translate(185,0)" x2="0" y2="5" stroke="#888" stroke-width="1" opacity="1"></line></g><g class="mark-text role-axis-label" pointer-events="none"><text text-anchor="start" transform="translate(0,15)" font-family="sans-serif" font-size="10px" fill="#000" opacity="1">0</text><text text-anchor="middle" transform="translate(30.76923076923077,15)" font-family="sans-serif" font-size="10px" fill="#000" opacity="1">1</text><text text-anchor="middle" transform="translate(61.53846153846154,15)" font-family="sans-serif" font-size="10px" fill="#000" opacity="1">2</text><text text-anchor="middle" transform="translate(92.3076923076923,15)" font-family="sans-serif" font-size="10px" fill="#000" opacity="1">3</text><text text-anchor="middle" transform="translate(123.07692307692308,15)" font-family="sans-serif" font-size="10px" fill="#000" opacity="1">4</text><text text-anchor="middle" transform="translate(153.84615384615387,15)" font-family="sans-serif" font-size="10px" fill="#000" opacity="1">5</text><text text-anchor="middle" transform="translate(184.6153846153846,15)" font-family="sans-serif" font-size="10px" fill="#000" opacity="1">6</text></g><g class="mark-rule role-axis-domain" pointer-events="none"><line transform="translate(0,0)" x2="200" y2="0" stroke="#888" stroke-width="1" opacity="1"></line></g><g class="mark-text role-axis-title" pointer-events="none"><text text-anchor="middle" transform="translate(100,30)" font-family="sans-serif" font-size="11px" font-weight="bold" fill="#000" opacity="1">Window Center (s)</text></g></g><path class="foreground" aria-hidden="true" d="" pointer-events="none" display="none"></path></g></g></g><path class="foreground" aria-hidden="true" d="" display="none"></path></g></g><g class="mark-group role-scope cell" role="graphics-object" aria-roledescription="group mark container"><g transform="translate(0,0)"><path class="background" aria-hidden="true" d="M0.5,0.5h200v200h-200Z" stroke="#ddd"></path><g><g class="mark-group role-axis" aria-hidden="true"><g transform="translate(0.5,200.5)"><path class="background" aria-hidden="true" d="M0,0h0v0h0Z" pointer-events="none"></path><g><g class="mark-rule role-axis-grid" pointer-events="none"><line transform="translate(0,-200)" x2="0" y2="200" stroke="#ddd" stroke-width="1" opacity="1"></line><line transform="translate(31,-200)" x2="0" y2="200" stroke="#ddd" stroke-width="1" opacity="1"></line><line transform="translate(62,-200)" x2="0" y2="200" stroke="#ddd" stroke-width="1" opacity="1"></line><line transform="translate(92,-200)" x2="0" y2="200" stroke="#ddd" stroke-width="1" opacity="1"></line><line transform="translate(123,-200)" x2="0" y2="200" stroke="#ddd" stroke-width="1" opacity="1"></line><line transform="translate(154,-200)" x2="0" y2="200" stroke="#ddd" stroke-width="1" opacity="1"></line><line transform="translate(185,-200)" x2="0" y2="200" stroke="#ddd" stroke-width="1" opacity="1"></line></g></g><path class="foreground" aria-hidden="true" d="" pointer-events="none" display="none"></path></g></g><g class="mark-group role-axis" aria-hidden="true"><g transform="translate(0.5,0.5)"><path class="background" aria-hidden="true" d="M0,0h0v0h0Z" pointer-events="none"></path><g><g class="mark-rule role-axis-grid" pointer-events="none"><line transform="translate(0,200)" x2="200" y2="0" stroke="#ddd" stroke-width="1" opacity="1"></line><line transform="translate(0,169)" x2="200" y2="0" stroke="#ddd" stroke-width="1" opacity="1"></line><line transform="translate(0,138)" x2="200" y2="0" stroke="#ddd" stroke-width="1" opacity="1"></line><line transform="translate(0,108)" x2="200" y2="0" stroke="#ddd" stroke-width="1" opacity="1"></line><line transform="translate(0,77)" x2="200" y2="0" stroke="#ddd" stroke-width="1" opacity="1"></line><line transform="translate(0,46)" x2="200" y2="0" stroke="#ddd" stroke-width="1" opacity="1"></line><line transform="translate(0,15)" x2="200" y2="0" stroke="#ddd" stroke-width="1" opacity="1"></line></g></g><path class="foreground" aria-hidden="true" d="" pointer-events="none" display="none"></path></g></g><g class="mark-group role-scope child_layer_0_layer_0_pathgroup" role="graphics-object" aria-roledescription="group mark container"><g transform="translate(0,0)"><path class="background" aria-hidden="true" d="M0,0h200v200h-200Z"></path><g><g class="mark-line role-mark child_layer_0_layer_0_marks" role="graphics-object" aria-roledescription="line mark container"><path aria-label="Window Center (s): 0.03125; condition: global; Prop. Winning Source > Lossing Sources: 0.598895895376" role="graphics-symbol" aria-roledescription="line mark" d="M0.9615384615384616,15.724339884408355L8.653846153846153,24.249428207501577L16.346153846153847,22.862899589739328L24.03846153846154,19.668951053269467L31.73076923076923,19.11677148855022L39.42307692307692,19.34085758374371L47.11538461538461,22.794703733209374L54.807692307692314,23.85711344845025L62.5,22.872183376618736L70.1923076923077,21.205662341848175L77.88461538461539,21.055365447958675L85.57692307692307,23.199624434646427L93.26923076923077,25.439700496743846L100.96153846153845,26.187174959855053L108.65384615384615,23.754006086713765L116.34615384615385,23.44142803591087L124.03846153846155,18.890743482892837L131.73076923076923,19.286098022257512L139.4230769230769,22.368339730359455L147.1153846153846,24.6380378581081L154.80769230769232,20.970908936024557L162.5,17.584677986498765L170.19230769230768,15.57160253183605L177.8846153846154,21.731774204124065L185.5769230769231,21.686232324984278L193.26923076923077,18.651193914419075" stroke="#4c78a8" stroke-width="2"></path></g></g><path class="foreground" aria-hidden="true" d="" display="none"></path></g><g transform="translate(0,0)"><path class="background" aria-hidden="true" d="M0,0h200v200h-200Z"></path><g><g class="mark-line role-mark child_layer_0_layer_0_marks" role="graphics-object" aria-roledescription="line mark container"><path aria-label="Window Center (s): 0.03125; condition: object; Prop. Winning Source > Lossing Sources: 0.616898786776" role="graphics-symbol" aria-roledescription="line mark" d="M0.9615384615384616,10.184988684225926L8.653846153846153,20.042154066386875L16.346153846153847,19.540049474626684L24.03846153846154,21.490434733848485L31.73076923076923,22.176519062483948L39.42307692307692,20.588326346995633L47.11538461538461,21.354276893501243L54.807692307692314,25.292030933203314L62.5,18.91233541808557L70.1923076923077,21.375014938794813L77.88461538461539,17.863598205380725L85.57692307692307,21.439992701507716L93.26923076923077,25.01564932445648L100.96153846153845,20.444756026959876L108.65384615384615,21.796704418015246L116.34615384615385,24.953885678083275L124.03846153846155,23.164413157518872L131.73076923076923,23.439718632466388L139.4230769230769,22.890189965675557L147.1153846153846,22.291056407849254L154.80769230769232,21.61153342743052L162.5,14.580060478323343L170.19230769230768,15.693058947702943L177.8846153846154,21.547046188826013L185.5769230769231,24.43447473424851L193.26923076923077,21.361102516834073" stroke="#f58518" stroke-width="2"></path></g></g><path class="foreground" aria-hidden="true" d="" display="none"></path></g><g transform="translate(0,0)"><path class="background" aria-hidden="true" d="M0,0h200v200h-200Z"></path><g><g class="mark-line role-mark child_layer_0_layer_0_marks" role="graphics-object" aria-roledescription="line mark container"><path aria-label="Window Center (s): 0.03125; condition: spatial; Prop. Winning Source > Lossing Sources: 0.575574220019" role="graphics-symbol" aria-roledescription="line mark" d="M0.9615384615384616,22.90023999425714L8.653846153846153,28.00850147003997L16.346153846153847,26.32171721915317L24.03846153846154,23.841967624018956L31.73076923076923,19.75427943376662L39.42307692307692,21.23273924555975L47.11538461538461,22.456603225834026L54.807692307692314,19.82009680727632L62.5,16.76741112638551L70.1923076923077,13.010911216039434L77.88461538461539,17.009450663296843L85.57692307692307,22.77341841444409L93.26923076923077,20.486232665719896L100.96153846153845,18.176711702352712L108.65384615384615,19.20982151751385L116.34615384615385,25.201477060451417L124.03846153846155,20.574700702905858L131.73076923076923,22.36103639949798L139.4230769230769,16.88723195133455L147.1153846153846,14.565320719166897L154.80769230769232,20.782033730751714L162.5,20.406034690222754L170.19230769230768,14.96292287958958L177.8846153846154,22.285307285307265L185.5769230769231,24.01683964183965L193.26923076923077,16.797669922669932" stroke="#e45756" stroke-width="2"></path></g></g><path class="foreground" aria-hidden="true" d="" display="none"></path></g></g><g class="mark-group role-scope child_layer_0_layer_1_layer_0_pathgroup" role="graphics-object" aria-roledescription="group mark container"><g transform="translate(0,0)"><path class="background" aria-hidden="true" d="M0,0h200v200h-200Z"></path><g><g class="mark-area role-mark child_layer_0_layer_1_layer_0_marks" role="graphics-object" aria-roledescription="area mark container"><path aria-label=": 0.583945651503; upper_lower: 0.61374925266; Window Center (s): 0.03125; condition: global; upper: 0.61374925266; lower: 0.583945651503" role="graphics-symbol" aria-roledescription="errorband" d="M0.9615384615384616,20.324414922064026L8.653846153846153,27.21808661780447L16.346153846153847,25.785844742710395L24.03846153846154,22.762089779614957L31.73076923076923,22.940292139347118L39.42307692307692,22.869645765193525L47.11538461538461,26.561862805121073L54.807692307692314,27.648390139550116L62.5,26.52947925160245L70.1923076923077,24.805877785641826L77.88461538461539,24.74314176113055L85.57692307692307,26.379307945834984L93.26923076923077,28.07189271444013L100.96153846153845,28.913644610696675L108.65384615384615,26.137473434086324L116.34615384615385,27.460242334404693L124.03846153846155,22.36564903576945L131.73076923076923,22.086214806670547L139.4230769230769,25.451273847617053L147.1153846153846,27.86252545748791L154.80769230769232,24.37485568097881L162.5,21.60121670360318L170.19230769230768,18.976899413652948L177.8846153846154,25.405707666537868L185.5769230769231,25.584699594957595L193.26923076923077,22.557678523085144L193.26923076923077,14.673096222672477L185.5769230769231,18.108089747429347L177.8846153846154,18.274708227051818L170.19230769230768,12.289481820963966L162.5,13.779363243150966L154.80769230769232,17.527470718864492L147.1153846153846,21.561882223257612L139.4230769230769,19.076718012328485L131.73076923076923,16.295076990201075L124.03846153846155,15.470241326436085L116.34615384615385,19.838571815775975L108.65384615384615,21.27695233857527L100.96153846153845,23.33652343960719L93.26923076923077,22.995115543002996L85.57692307692307,19.880017879564036L77.88461538461539,17.45580074349975L70.1923076923077,17.69664310657937L62.5,19.169897905199342L54.807692307692314,19.970629911859117L47.11538461538461,19.25437442752489L39.42307692307692,16.194358992224387L31.73076923076923,15.184818903073637L24.03846153846154,16.511607024860275L16.346153846153847,19.854723385562846L8.653846153846153,21.377530953332812L0.9615384615384616,11.154076104696454Z" fill="#4c78a8" opacity="0.3"></path></g></g><path class="foreground" aria-hidden="true" d="" display="none"></path></g><g transform="translate(0,0)"><path class="background" aria-hidden="true" d="M0,0h200v200h-200Z"></path><g><g class="mark-area role-mark child_layer_0_layer_1_layer_0_marks" role="graphics-object" aria-roledescription="area mark container"><path aria-label=": 0.598137759597; upper_lower: 0.635248182543; Window Center (s): 0.03125; condition: object; upper: 0.635248182543; lower: 0.598137759597" role="graphics-symbol" aria-roledescription="errorband" d="M0.9615384615384616,15.957612431757484L8.653846153846153,25.9389204847017L16.346153846153847,25.565131386516924L24.03846153846154,27.09316120547274L31.73076923076923,26.37843869093861L39.42307692307692,23.776456243561526L47.11538461538461,25.322606017198446L54.807692307692314,29.63009405059669L62.5,24.349533979616723L70.1923076923077,26.141374010414854L77.88461538461539,21.960992607599717L85.57692307692307,24.634108264920783L93.26923076923077,28.90261021925784L100.96153846153845,24.392631200539896L108.65384615384615,26.42508208958516L116.34615384615385,28.823411667603537L124.03846153846155,28.635307650629183L131.73076923076923,29.694103431561647L139.4230769230769,28.114743505428173L147.1153846153846,25.1019958497956L154.80769230769232,26.53845114262645L162.5,19.460315843872866L170.19230769230768,20.39396763438952L177.8846153846154,27.241285877409638L185.5769230769231,29.348543871356814L193.26923076923077,25.87466662645781L193.26923076923077,16.948786708166462L185.5769230769231,19.07236244915358L177.8846153846154,16.06695490839538L170.19230769230768,11.002783028518358L162.5,10.31347606530364L154.80769230769232,17.105762783858935L147.1153846153846,19.384238371161146L139.4230769230769,17.782503377135427L131.73076923076923,17.068306185161376L124.03846153846155,17.20561373237699L116.34615384615385,20.983586746245876L108.65384615384615,16.980201998633326L100.96153846153845,16.348300223472624L93.26923076923077,21.175125634317162L85.57692307692307,18.45608476343972L77.88461538461539,13.667789104786653L70.1923076923077,16.634741499913417L62.5,13.82739346279729L54.807692307692314,20.903274649625892L47.11538461538461,17.160432017961604L39.42307692307692,17.413026537821242L31.73076923076923,17.977431884230043L24.03846153846154,15.589643139652765L16.346153846153847,14.168810143418442L8.653846153846153,15.162172765033887L0.9615384615384616,4.539020755967128Z" fill="#f58518" opacity="0.3"></path></g></g><path class="foreground" aria-hidden="true" d="" display="none"></path></g><g transform="translate(0,0)"><path class="background" aria-hidden="true" d="M0,0h200v200h-200Z"></path><g><g class="mark-area role-mark child_layer_0_layer_1_layer_0_marks" role="graphics-object" aria-roledescription="area mark container"><path aria-label=": 0.554974079419; upper_lower: 0.597187267465; Window Center (s): 0.03125; condition: spatial; upper: 0.597187267465; lower: 0.554974079419" role="graphics-symbol" aria-roledescription="errorband" d="M0.9615384615384616,29.2387447943004L8.653846153846153,33.60406847426083L16.346153846153847,31.65309067712925L24.03846153846154,29.638071211789207L31.73076923076923,29.166532600827487L39.42307692307692,29.46424847706901L47.11538461538461,28.806466325697166L54.807692307692314,26.42785046150431L62.5,22.617030346197065L70.1923076923077,21.311848052232698L77.88461538461539,25.2212367404675L85.57692307692307,29.577886026603963L93.26923076923077,25.796161756097735L100.96153846153845,23.734441780916104L108.65384615384615,23.96081755376627L116.34615384615385,31.849103887565345L124.03846153846155,27.89087082196058L131.73076923076923,29.194397127089555L139.4230769230769,24.118231127846546L147.1153846153846,22.621468275314484L154.80769230769232,26.65732356437487L162.5,28.63643970187779L170.19230769230768,22.781070010236704L177.8846153846154,33.545465337131915L185.5769230769231,31.536511328177987L193.26923076923077,27.885092338217344L193.26923076923077,6.372418091168107L185.5769230769231,16.664896638854998L177.8846153846154,12.029456654456606L170.19230769230768,7.724124640791352L162.5,11.950931487790474L154.80769230769232,15.429973753691728L147.1153846153846,7.4189645824261685L139.4230769230769,9.80095770800904L131.73076923076923,15.65008134078656L124.03846153846155,13.786829386188382L116.34615384615385,18.466755763230115L108.65384615384615,14.431186335032553L100.96153846153845,12.821102982961907L93.26923076923077,15.23951926516036L85.57692307692307,15.921838251966536L77.88461538461539,9.239356204099813L70.1923076923077,5.765142976681471L62.5,10.525878264660381L54.807692307692314,13.363588275447281L47.11538461538461,16.29502525015354L39.42307692307692,13.645172194851728L31.73076923076923,10.911818416626097L24.03846153846154,18.139910006897274L16.346153846153847,21.040726189764758L8.653846153846153,22.493679338230677L0.9615384615384616,16.250071549216962Z" fill="#e45756" opacity="0.3"></path></g></g><path class="foreground" aria-hidden="true" d="" display="none"></path></g></g></g><path class="foreground" aria-hidden="true" d="" display="none"></path></g><g transform="translate(224,0)"><path class="background" aria-hidden="true" d="M0.5,0.5h200v200h-200Z" stroke="#ddd"></path><g><g class="mark-group role-axis" aria-hidden="true"><g transform="translate(0.5,200.5)"><path class="background" aria-hidden="true" d="M0,0h0v0h0Z" pointer-events="none"></path><g><g class="mark-rule role-axis-grid" pointer-events="none"><line transform="translate(0,-200)" x2="0" y2="200" stroke="#ddd" stroke-width="1" opacity="1"></line><line transform="translate(31,-200)" x2="0" y2="200" stroke="#ddd" stroke-width="1" opacity="1"></line><line transform="translate(62,-200)" x2="0" y2="200" stroke="#ddd" stroke-width="1" opacity="1"></line><line transform="translate(92,-200)" x2="0" y2="200" stroke="#ddd" stroke-width="1" opacity="1"></line><line transform="translate(123,-200)" x2="0" y2="200" stroke="#ddd" stroke-width="1" opacity="1"></line><line transform="translate(154,-200)" x2="0" y2="200" stroke="#ddd" stroke-width="1" opacity="1"></line><line transform="translate(185,-200)" x2="0" y2="200" stroke="#ddd" stroke-width="1" opacity="1"></line></g></g><path class="foreground" aria-hidden="true" d="" pointer-events="none" display="none"></path></g></g><g class="mark-group role-axis" aria-hidden="true"><g transform="translate(0.5,0.5)"><path class="background" aria-hidden="true" d="M0,0h0v0h0Z" pointer-events="none"></path><g><g class="mark-rule role-axis-grid" pointer-events="none"><line transform="translate(0,200)" x2="200" y2="0" stroke="#ddd" stroke-width="1" opacity="1"></line><line transform="translate(0,169)" x2="200" y2="0" stroke="#ddd" stroke-width="1" opacity="1"></line><line transform="translate(0,138)" x2="200" y2="0" stroke="#ddd" stroke-width="1" opacity="1"></line><line transform="translate(0,108)" x2="200" y2="0" stroke="#ddd" stroke-width="1" opacity="1"></line><line transform="translate(0,77)" x2="200" y2="0" stroke="#ddd" stroke-width="1" opacity="1"></line><line transform="translate(0,46)" x2="200" y2="0" stroke="#ddd" stroke-width="1" opacity="1"></line><line transform="translate(0,15)" x2="200" y2="0" stroke="#ddd" stroke-width="1" opacity="1"></line></g></g><path class="foreground" aria-hidden="true" d="" pointer-events="none" display="none"></path></g></g><g class="mark-group role-scope child_layer_0_layer_0_pathgroup" role="graphics-object" aria-roledescription="group mark container"><g transform="translate(0,0)"><path class="background" aria-hidden="true" d="M0,0h200v200h-200Z"></path><g><g class="mark-line role-mark child_layer_0_layer_0_marks" role="graphics-object" aria-roledescription="line mark container"><path aria-label="Window Center (s): 0.03125; condition: global; Prop. Winning Source > Lossing Sources: 0.560842226911" role="graphics-symbol" aria-roledescription="line mark" d="M0.9615384615384616,27.433160950535406L8.653846153846153,32.0020709114055L16.346153846153847,34.238673418398726L24.03846153846154,35.36410628344897L31.73076923076923,31.62011878860309L39.42307692307692,31.41512022930959L47.11538461538461,35.82617589245851L54.807692307692314,35.4107615269843L62.5,35.31716295517548L70.1923076923077,35.408906719757695L77.88461538461539,33.49546396250742L85.57692307692307,34.44052009701362L93.26923076923077,38.182743042057844L100.96153846153845,37.8689823364329L108.65384615384615,36.78391130405893L116.34615384615385,37.026970987385546L124.03846153846155,33.79328459498447L131.73076923076923,32.15627197475239L139.4230769230769,35.349479110417306L147.1153846153846,34.71016056424758L154.80769230769232,32.63513655030819L162.5,29.877048198996924L170.19230769230768,27.320276420029742L177.8846153846154,28.43529601329653L185.5769230769231,32.04795588327916L193.26923076923077,25.245710747840544" stroke="#4c78a8" stroke-width="2"></path></g></g><path class="foreground" aria-hidden="true" d="" display="none"></path></g><g transform="translate(0,0)"><path class="background" aria-hidden="true" d="M0,0h200v200h-200Z"></path><g><g class="mark-line role-mark child_layer_0_layer_0_marks" role="graphics-object" aria-roledescription="line mark container"><path aria-label="Window Center (s): 0.03125; condition: object; Prop. Winning Source > Lossing Sources: 0.580471279355" role="graphics-symbol" aria-roledescription="line mark" d="M0.9615384615384616,21.393452506299425L8.653846153846153,26.6715904003757L16.346153846153847,32.239288304755064L24.03846153846154,34.95105749563723L31.73076923076923,33.76904035407531L39.42307692307692,33.28603974785693L47.11538461538461,37.488007000083435L54.807692307692314,35.28525495542745L62.5,34.35542907298175L70.1923076923077,33.58755332306191L77.88461538461539,32.798890697294716L85.57692307692307,34.16745516170503L93.26923076923077,35.432930185707946L100.96153846153845,32.79414903498106L108.65384615384615,34.09039894011734L116.34615384615385,36.62194522425069L124.03846153846155,35.166827034896066L131.73076923076923,35.88270811661645L139.4230769230769,37.61980170156283L147.1153846153846,35.4560600384032L154.80769230769232,30.56744688155757L162.5,27.14983758646263L170.19230769230768,26.26844290750714L177.8846153846154,29.7791652171167L185.5769230769231,33.411023505292015L193.26923076923077,28.454808048376258" stroke="#f58518" stroke-width="2"></path></g></g><path class="foreground" aria-hidden="true" d="" display="none"></path></g><g transform="translate(0,0)"><path class="background" aria-hidden="true" d="M0,0h200v200h-200Z"></path><g><g class="mark-line role-mark child_layer_0_layer_0_marks" role="graphics-object" aria-roledescription="line mark container"><path aria-label="Window Center (s): 0.03125; condition: spatial; Prop. Winning Source > Lossing Sources: 0.549211224732" role="graphics-symbol" aria-roledescription="line mark" d="M0.9615384615384616,31.011930851674443L8.653846153846153,35.112832027896125L16.346153846153847,36.063247056836744L24.03846153846154,35.84856717141103L31.73076923076923,34.162020315866506L39.42307692307692,30.86424971040358L47.11538461538461,34.555287585590676L54.807692307692314,33.68886455424918L62.5,26.93422081242598L70.1923076923077,26.917501043375182L77.88461538461539,27.33791611996743L85.57692307692307,29.593422958807558L93.26923076923077,32.19609428816892L100.96153846153845,30.14866069353246L108.65384615384615,33.05746959593117L116.34615384615385,37.6075383651141L124.03846153846155,35.70287025415231L131.73076923076923,31.86191538755645L139.4230769230769,30.88428880969678L147.1153846153846,30.057308550898277L154.80769230769232,29.561244587953993L162.5,31.262256441937918L170.19230769230768,27.498087343172827L177.8846153846154,24.354643325441018L185.5769230769231,31.263808942380365L193.26923076923077,28.25327780684921" stroke="#e45756" stroke-width="2"></path></g></g><path class="foreground" aria-hidden="true" d="" display="none"></path></g></g><g class="mark-group role-scope child_layer_0_layer_1_layer_0_pathgroup" role="graphics-object" aria-roledescription="group mark container"><g transform="translate(0,0)"><path class="background" aria-hidden="true" d="M0,0h200v200h-200Z"></path><g><g class="mark-area role-mark child_layer_0_layer_1_layer_0_marks" role="graphics-object" aria-roledescription="area mark container"><path aria-label=": 0.55135222966; upper_lower: 0.569942376433; Window Center (s): 0.03125; condition: global; upper: 0.569942376433; lower: 0.55135222966" role="graphics-symbol" aria-roledescription="errorband" d="M0.9615384615384616,30.35316010453437L8.653846153846153,34.69419085172143L16.346153846153847,36.85219018576211L24.03846153846154,38.22653736030976L31.73076923076923,34.40044594693672L39.42307692307692,34.46263918783574L47.11538461538461,38.70366484196441L54.807692307692314,38.593395349647366L62.5,38.482754438215004L70.1923076923077,38.32213501341375L77.88461538461539,36.24250542017802L85.57692307692307,36.90206242716172L93.26923076923077,40.19926115166352L100.96153846153845,39.55068270569515L108.65384615384615,38.95513685178245L116.34615384615385,39.91729154957044L124.03846153846155,36.327314742107816L131.73076923076923,34.53325348831111L139.4230769230769,37.33984932915564L147.1153846153846,37.075030470189404L154.80769230769232,35.61919115873737L162.5,33.11127573812473L170.19230769230768,30.721106108226003L177.8846153846154,32.1321927467578L185.5769230769231,35.95383130063479L193.26923076923077,29.09033452793741L193.26923076923077,21.570816310774042L185.5769230769231,28.353125733939642L177.8846153846154,25.0020751847569L170.19230769230768,24.185039072378967L162.5,27.054806638015428L154.80769230769232,29.767797025489262L147.1153846153846,32.33847439554462L139.4230769230769,33.26069167536914L131.73076923076923,29.65404075819489L124.03846153846155,31.153561483427474L116.34615384615385,34.480735313533906L108.65384615384615,34.804390512490244L100.96153846153845,36.18286537646029L93.26923076923077,36.25042944946022L85.57692307692307,31.992432425719986L77.88461538461539,30.579295276523478L70.1923076923077,32.433672995655186L62.5,32.09415474796833L54.807692307692314,32.22929388167537L47.11538461538461,33.122588705286795L39.42307692307692,28.515432412879306L31.73076923076923,28.796635799057334L24.03846153846154,32.663144714530915L16.346153846153847,31.55325612615354L8.653846153846153,29.496485672879345L0.9615384615384616,24.633114943562397Z" fill="#4c78a8" opacity="0.3"></path></g></g><path class="foreground" aria-hidden="true" d="" display="none"></path></g><g transform="translate(0,0)"><path class="background" aria-hidden="true" d="M0,0h200v200h-200Z"></path><g><g class="mark-area role-mark child_layer_0_layer_1_layer_0_marks" role="graphics-object" aria-roledescription="area mark container"><path aria-label=": 0.562370748251; upper_lower: 0.595653428676; Window Center (s): 0.03125; condition: object; upper: 0.595653428676; lower: 0.562370748251" role="graphics-symbol" aria-roledescription="errorband" d="M0.9615384615384616,26.962846692115995L8.653846153846153,32.12755888391143L16.346153846153847,38.12142733738846L24.03846153846154,39.52728721296393L31.73076923076923,37.75430847369661L39.42307692307692,36.575593827242244L47.11538461538461,40.44003479530862L54.807692307692314,38.816609182144134L62.5,38.708294171270154L70.1923076923077,37.85514634432712L77.88461538461539,36.097754242463594L85.57692307692307,36.43767172314083L93.26923076923077,38.375264838287194L100.96153846153845,36.45049764061965L108.65384615384615,37.80916841002182L116.34615384615385,40.232697446346364L124.03846153846155,39.39715548845037L131.73076923076923,40.38045174801466L139.4230769230769,41.733831089086614L147.1153846153846,38.39678074027945L154.80769230769232,34.94366862157556L162.5,31.76953453459388L170.19230769230768,30.631834495655873L177.8846153846154,34.1431540500168L185.5769230769231,38.06104588250145L193.26923076923077,33.132541010995276L193.26923076923077,23.788148020499623L185.5769230769231,28.409276402819074L177.8846153846154,25.172331920864565L170.19230769230768,21.872681267512874L162.5,22.89006348581697L154.80769230769232,26.54179148356699L147.1153846153846,32.461024736344356L139.4230769230769,33.73250940214918L131.73076923076923,31.454179495389578L124.03846153846155,30.98430705659121L116.34615384615385,32.750662117224394L108.65384615384615,30.20435356237636L100.96153846153845,29.074338306398428L93.26923076923077,32.1722013390064L85.57692307692307,31.84935171337586L77.88461538461539,29.567702544648668L70.1923076923077,29.58824764091219L62.5,30.182801922784996L54.807692307692314,31.910628238864124L47.11538461538461,34.349563802561775L39.42307692307692,29.82119999428612L31.73076923076923,29.79698924881522L24.03846153846154,30.135971064027988L16.346153846153847,27.212651022778324L8.653846153846153,22.085366311267364L0.9615384615384616,16.72202194574528Z" fill="#f58518" opacity="0.3"></path></g></g><path class="foreground" aria-hidden="true" d="" display="none"></path></g><g transform="translate(0,0)"><path class="background" aria-hidden="true" d="M0,0h200v200h-200Z"></path><g><g class="mark-area role-mark child_layer_0_layer_1_layer_0_marks" role="graphics-object" aria-roledescription="area mark container"><path aria-label=": 0.530785452491; upper_lower: 0.567630842505; Window Center (s): 0.03125; condition: spatial; upper: 0.567630842505; lower: 0.530785452491" role="graphics-symbol" aria-roledescription="errorband" d="M0.9615384615384616,36.68139923348257L8.653846153846153,39.80211917711918L16.346153846153847,41.10371169666032L24.03846153846154,41.715322335223284L31.73076923076923,41.480619392478424L39.42307692307692,37.20025528839641L47.11538461538461,39.57863615060595L54.807692307692314,39.029507499860074L62.5,33.15704004566189L70.1923076923077,33.58927623787766L77.88461538461539,34.57367614579159L85.57692307692307,35.84106580741191L93.26923076923077,36.45209976503685L100.96153846153845,34.49454646730281L108.65384615384615,37.83911734632892L116.34615384615385,43.31316971468486L124.03846153846155,43.046429947070955L131.73076923076923,39.867597383623135L139.4230769230769,37.75812107688572L147.1153846153846,36.0474411035308L154.80769230769232,35.39253682669814L162.5,38.55286887617413L170.19230769230768,34.38295643597464L177.8846153846154,31.593139967160578L185.5769230769231,39.46247601604742L193.26923076923077,36.28539449968014L193.26923076923077,19.73487890526573L185.5769230769231,22.726985701688097L177.8846153846154,17.233433118137476L170.19230769230768,21.10957725500999L162.5,24.29526092876635L154.80769230769232,24.041465869323787L147.1153846153846,24.378217313313442L139.4230769230769,24.429493982232977L131.73076923076923,24.75202154208571L124.03846153846155,28.815443163199618L116.34615384615385,31.893912765124877L108.65384615384615,27.880400908445814L100.96153846153845,25.808762936967987L93.26923076923077,27.97444612712685L85.57692307692307,23.466682533990202L77.88461538461539,20.502102479666682L70.1923076923077,20.4534194438041L62.5,20.24834347751021L54.807692307692314,28.215955222365487L47.11538461538461,29.865823602711792L39.42307692307692,24.836226036546627L31.73076923076923,27.59062133260859L24.03846153846154,30.396715108253613L16.346153846153847,31.028035592138004L8.653846153846153,30.539616114535995L0.9615384615384616,25.344356152315562Z" fill="#e45756" opacity="0.3"></path></g></g><path class="foreground" aria-hidden="true" d="" display="none"></path></g></g></g><path class="foreground" aria-hidden="true" d="" display="none"></path></g><g transform="translate(448,0)"><path class="background" aria-hidden="true" d="M0.5,0.5h200v200h-200Z" stroke="#ddd"></path><g><g class="mark-group role-axis" aria-hidden="true"><g transform="translate(0.5,200.5)"><path class="background" aria-hidden="true" d="M0,0h0v0h0Z" pointer-events="none"></path><g><g class="mark-rule role-axis-grid" pointer-events="none"><line transform="translate(0,-200)" x2="0" y2="200" stroke="#ddd" stroke-width="1" opacity="1"></line><line transform="translate(31,-200)" x2="0" y2="200" stroke="#ddd" stroke-width="1" opacity="1"></line><line transform="translate(62,-200)" x2="0" y2="200" stroke="#ddd" stroke-width="1" opacity="1"></line><line transform="translate(92,-200)" x2="0" y2="200" stroke="#ddd" stroke-width="1" opacity="1"></line><line transform="translate(123,-200)" x2="0" y2="200" stroke="#ddd" stroke-width="1" opacity="1"></line><line transform="translate(154,-200)" x2="0" y2="200" stroke="#ddd" stroke-width="1" opacity="1"></line><line transform="translate(185,-200)" x2="0" y2="200" stroke="#ddd" stroke-width="1" opacity="1"></line></g></g><path class="foreground" aria-hidden="true" d="" pointer-events="none" display="none"></path></g></g><g class="mark-group role-axis" aria-hidden="true"><g transform="translate(0.5,0.5)"><path class="background" aria-hidden="true" d="M0,0h0v0h0Z" pointer-events="none"></path><g><g class="mark-rule role-axis-grid" pointer-events="none"><line transform="translate(0,200)" x2="200" y2="0" stroke="#ddd" stroke-width="1" opacity="1"></line><line transform="translate(0,169)" x2="200" y2="0" stroke="#ddd" stroke-width="1" opacity="1"></line><line transform="translate(0,138)" x2="200" y2="0" stroke="#ddd" stroke-width="1" opacity="1"></line><line transform="translate(0,108)" x2="200" y2="0" stroke="#ddd" stroke-width="1" opacity="1"></line><line transform="translate(0,77)" x2="200" y2="0" stroke="#ddd" stroke-width="1" opacity="1"></line><line transform="translate(0,46)" x2="200" y2="0" stroke="#ddd" stroke-width="1" opacity="1"></line><line transform="translate(0,15)" x2="200" y2="0" stroke="#ddd" stroke-width="1" opacity="1"></line></g></g><path class="foreground" aria-hidden="true" d="" pointer-events="none" display="none"></path></g></g><g class="mark-group role-scope child_layer_0_layer_0_pathgroup" role="graphics-object" aria-roledescription="group mark container"><g transform="translate(0,0)"><path class="background" aria-hidden="true" d="M0,0h200v200h-200Z"></path><g><g class="mark-line role-mark child_layer_0_layer_0_marks" role="graphics-object" aria-roledescription="line mark container"><path aria-label="Window Center (s): 0.03125; condition: global; Prop. Winning Source > Lossing Sources: 0.530298679152" role="graphics-symbol" aria-roledescription="line mark" d="M0.9615384615384616,36.8311756456043L8.653846153846153,41.39733433560762L16.346153846153847,44.73260218571102L24.03846153846154,47.85319914412241L31.73076923076923,49.49096861130382L39.42307692307692,49.37854652224733L47.11538461538461,49.26709030936567L54.807692307692314,49.78707056474691L62.5,50.53790149991495L70.1923076923077,50.76083130067155L77.88461538461539,50.41721971667042L85.57692307692307,50.86946536386123L93.26923076923077,51.905015426723565L100.96153846153845,52.163570331297436L108.65384615384615,52.11080575934957L116.34615384615385,51.86940806613735L124.03846153846155,51.274673150549965L131.73076923076923,50.53499476215675L139.4230769230769,49.35190316916784L147.1153846153846,47.784463431677196L154.80769230769232,47.27818795256267L162.5,46.427427516611665L170.19230769230768,43.48520671583251L177.8846153846154,38.80871604758873L185.5769230769231,35.09701336550437L193.26923076923077,31.061452618312344" stroke="#4c78a8" stroke-width="2"></path></g></g><path class="foreground" aria-hidden="true" d="" display="none"></path></g><g transform="translate(0,0)"><path class="background" aria-hidden="true" d="M0,0h200v200h-200Z"></path><g><g class="mark-line role-mark child_layer_0_layer_0_marks" role="graphics-object" aria-roledescription="line mark container"><path aria-label="Window Center (s): 0.03125; condition: object; Prop. Winning Source > Lossing Sources: 0.539070791522" role="graphics-symbol" aria-roledescription="line mark" d="M0.9615384615384616,34.132064147119664L8.653846153846153,40.38017031558581L16.346153846153847,43.53978388910254L24.03846153846154,47.93565090044274L31.73076923076923,51.42790851369712L39.42307692307692,51.623613757872235L47.11538461538461,51.250030093809016L54.807692307692314,50.26682815521553L62.5,50.09084524120722L70.1923076923077,49.35916304310815L77.88461538461539,48.33832165144698L85.57692307692307,47.83980212930232L93.26923076923077,48.81359597242814L100.96153846153845,49.550211510086115L108.65384615384615,50.08884030493939L116.34615384615385,50.4895886510458L124.03846153846155,50.84837775489994L131.73076923076923,51.45741482518342L139.4230769230769,51.66346471595746L147.1153846153846,49.78721067253118L154.80769230769232,48.109604203447006L162.5,45.57970486780019L170.19230769230768,40.78799100729742L177.8846153846154,36.17087143127484L185.5769230769231,34.84903249499982L193.26923076923077,32.53689238273865" stroke="#f58518" stroke-width="2"></path></g></g><path class="foreground" aria-hidden="true" d="" display="none"></path></g><g transform="translate(0,0)"><path class="background" aria-hidden="true" d="M0,0h200v200h-200Z"></path><g><g class="mark-line role-mark child_layer_0_layer_0_marks" role="graphics-object" aria-roledescription="line mark container"><path aria-label="Window Center (s): 0.03125; condition: spatial; Prop. Winning Source > Lossing Sources: 0.52250788283" role="graphics-symbol" aria-roledescription="line mark" d="M0.9615384615384616,39.228343744660776L8.653846153846153,43.63500849306712L16.346153846153847,46.239499164178646L24.03846153846154,49.64664652586384L31.73076923076923,51.422969356424765L39.42307692307692,51.15059159625701L47.11538461538461,50.745466603219946L54.807692307692314,48.312841231034184L62.5,47.65630968317171L70.1923076923077,45.694668466341206L77.88461538461539,43.24250004958186L85.57692307692307,41.91012826543965L93.26923076923077,42.65140525824287L100.96153846153845,44.65859627642288L108.65384615384615,46.351981577866795L116.34615384615385,47.88787728348163L124.03846153846155,49.334850922152526L131.73076923076923,49.5032976565333L139.4230769230769,47.92885001250469L147.1153846153846,45.573194253173696L154.80769230769232,43.35862027007957L162.5,40.576364116758L170.19230769230768,38.49557923698872L177.8846153846154,36.0341945171005L185.5769230769231,32.36591755822531L193.26923076923077,25.857442322898216" stroke="#e45756" stroke-width="2"></path></g></g><path class="foreground" aria-hidden="true" d="" display="none"></path></g></g><g class="mark-group role-scope child_layer_0_layer_1_layer_0_pathgroup" role="graphics-object" aria-roledescription="group mark container"><g transform="translate(0,0)"><path class="background" aria-hidden="true" d="M0,0h200v200h-200Z"></path><g><g class="mark-area role-mark child_layer_0_layer_1_layer_0_marks" role="graphics-object" aria-roledescription="area mark container"><path aria-label=": 0.521728428982; upper_lower: 0.538751867259; Window Center (s): 0.03125; condition: global; upper: 0.538751867259; lower: 0.521728428982" role="graphics-symbol" aria-roledescription="errorband" d="M0.9615384615384616,39.4681756977548L8.653846153846153,44.22545971022374L16.346153846153847,47.428965146653866L24.03846153846154,50.131218191545L31.73076923076923,51.62371272671218L39.42307692307692,51.32302156193474L47.11538461538461,51.09861886570142L54.807692307692314,51.72176935579902L62.5,52.60023978019155L70.1923076923077,52.71662330481437L77.88461538461539,52.49521944691649L85.57692307692307,52.87225298521954L93.26923076923077,53.899749636665376L100.96153846153845,53.980164937423595L108.65384615384615,53.893969044827685L116.34615384615385,53.75573535932894L124.03846153846155,53.220869420172455L131.73076923076923,52.530147607425825L139.4230769230769,51.50312854159935L147.1153846153846,49.86645983198634L154.80769230769232,49.36597439354884L162.5,48.68862095664505L170.19230769230768,45.77981039484407L177.8846153846154,41.607758626307124L185.5769230769231,38.45559728945835L193.26923076923077,34.82148162871246L193.26923076923077,27.59040103405106L185.5769230769231,31.893725569803276L177.8846153846154,36.077397657037615L170.19230769230768,41.21408795971371L162.5,44.321959851961346L154.80769230769232,45.21950731396065L147.1153846153846,45.79069536568892L139.4230769230769,47.317712458286245L131.73076923076923,48.73149763350615L124.03846153846155,49.51217706316928L116.34615384615385,50.014342244955486L108.65384615384615,50.38577226009318L100.96153846153845,50.42040236899983L93.26923076923077,49.894102356970805L85.57692307692307,48.743688005568096L77.88461538461539,48.275825661887595L70.1923076923077,48.730441229469676L62.5,48.41469340066538L54.807692307692314,47.746272400843324L47.11538461538461,47.39371652980964L39.42307692307692,47.48352041864605L31.73076923076923,47.5118315450731L24.03846153846154,45.7154898167881L16.346153846153847,42.12925827302663L8.653846153846153,38.67621691555938L0.9615384615384616,34.23019468965056Z" fill="#4c78a8" opacity="0.3"></path></g></g><path class="foreground" aria-hidden="true" d="" display="none"></path></g><g transform="translate(0,0)"><path class="background" aria-hidden="true" d="M0,0h200v200h-200Z"></path><g><g class="mark-area role-mark child_layer_0_layer_1_layer_0_marks" role="graphics-object" aria-roledescription="area mark container"><path aria-label=": 0.521698059965; upper_lower: 0.55403711899; Window Center (s): 0.03125; condition: object; upper: 0.55403711899; lower: 0.521698059965" role="graphics-symbol" aria-roledescription="errorband" d="M0.9615384615384616,39.47752001078182L8.653846153846153,44.61565361709352L16.346153846153847,46.75838520333997L24.03846153846154,50.40503381823282L31.73076923076923,53.673502316342514L39.42307692307692,54.2579589073996L47.11538461538461,53.955599264478415L54.807692307692314,53.07730306067413L62.5,52.79556443548328L70.1923076923077,51.87502329750633L77.88461538461539,50.92848293415293L85.57692307692307,50.55287891936888L93.26923076923077,51.525164483561284L100.96153846153845,52.3735643539456L108.65384615384615,53.21448505432021L116.34615384615385,53.536870183129714L124.03846153846155,53.62370090528719L131.73076923076923,54.33970774738626L139.4230769230769,54.57363475156709L147.1153846153846,52.644212184614105L154.80769230769232,50.813797618020494L162.5,48.61254629103462L170.19230769230768,44.568981202395854L177.8846153846154,40.63700356321818L185.5769230769231,39.702405232768044L193.26923076923077,36.90412458544883L193.26923076923077,27.895401826726072L185.5769230769231,29.784855714846614L177.8846153846154,31.715311023746807L170.19230769230768,36.87196637556862L162.5,42.60101187578906L154.80769230769232,45.36053673099234L147.1153846153846,46.994213614429995L139.4230769230769,48.77719197758634L131.73076923076923,48.94037625823549L124.03846153846155,48.333576307736756L116.34615384615385,47.664271795340404L108.65384615384615,46.728488737284636L100.96153846153845,46.59349583932067L93.26923076923077,46.16192809265816L85.57692307692307,45.12110698337126L77.88461538461539,45.88402478760165L70.1923076923077,46.815265959351414L62.5,47.32754696958159L54.807692307692314,47.32757875481779L47.11538461538461,48.45333822979132L39.42307692307692,48.96186078154734L31.73076923076923,49.095227814632935L24.03846153846154,45.4258424672356L16.346153846153847,40.44601377421311L8.653846153846153,36.50286531787164L0.9615384615384616,29.52704031069655Z" fill="#f58518" opacity="0.3"></path></g></g><path class="foreground" aria-hidden="true" d="" display="none"></path></g><g transform="translate(0,0)"><path class="background" aria-hidden="true" d="M0,0h200v200h-200Z"></path><g><g class="mark-area role-mark child_layer_0_layer_1_layer_0_marks" role="graphics-object" aria-roledescription="area mark container"><path aria-label=": 0.506859535316; upper_lower: 0.538102833439; Window Center (s): 0.03125; condition: spatial; upper: 0.538102833439; lower: 0.506859535316" role="graphics-symbol" aria-roledescription="errorband" d="M0.9615384615384616,44.04321990277704L8.653846153846153,48.30837262384888L16.346153846153847,50.22682308639836L24.03846153846154,53.54667855511319L31.73076923076923,55.17440511259186L39.42307692307692,55.21897555932962L47.11538461538461,54.75159964170948L54.807692307692314,52.51136977480084L62.5,51.95019969516306L70.1923076923077,50.847705309320055L77.88461538461539,48.6114175811978L85.57692307692307,47.10201665787752L93.26923076923077,48.32456492598436L100.96153846153845,50.187664390961075L108.65384615384615,51.62412673249057L116.34615384615385,53.65929671332592L124.03846153846155,55.43396198158108L131.73076923076923,55.552926008893635L139.4230769230769,53.43033127730858L147.1153846153846,50.430950099570126L154.80769230769232,48.19315669534481L162.5,45.79567281699928L170.19230769230768,43.944529970630256L177.8846153846154,41.450071948940014L185.5769230769231,38.48023780489067L193.26923076923077,32.72919401810081L193.26923076923077,18.885551674636503L185.5769230769231,26.36316276513937L177.8846153846154,30.50964127579414L170.19230769230768,32.810315534046076L162.5,34.98240632685352L154.80769230769232,38.49656662810634L147.1153846153846,40.92157275340369L139.4230769230769,42.94313608365974L131.73076923076923,44.304439921427004L124.03846153846155,43.98305906547666L116.34615384615385,42.51424809193423L108.65384615384615,41.488058842301776L100.96153846153845,39.672395929264034L93.26923076923077,37.53218928394446L85.57692307692307,36.98298115193723L77.88461538461539,38.09638124503814L70.1923076923077,40.52229714164994L62.5,43.38439993507155L54.807692307692314,44.08324935759313L47.11538461538461,46.77707073654871L39.42307692307692,47.21496443794977L31.73076923076923,47.90862330926424L24.03846153846154,45.92854545115011L16.346153846153847,42.47525622525616L8.653846153846153,39.05377966389878L0.9615384615384616,34.42989740338227Z" fill="#e45756" opacity="0.3"></path></g></g><path class="foreground" aria-hidden="true" d="" display="none"></path></g></g></g><path class="foreground" aria-hidden="true" d="" display="none"></path></g><g transform="translate(672,0)"><path class="background" aria-hidden="true" d="M0.5,0.5h200v200h-200Z" stroke="#ddd"></path><g><g class="mark-group role-axis" aria-hidden="true"><g transform="translate(0.5,200.5)"><path class="background" aria-hidden="true" d="M0,0h0v0h0Z" pointer-events="none"></path><g><g class="mark-rule role-axis-grid" pointer-events="none"><line transform="translate(0,-200)" x2="0" y2="200" stroke="#ddd" stroke-width="1" opacity="1"></line><line transform="translate(31,-200)" x2="0" y2="200" stroke="#ddd" stroke-width="1" opacity="1"></line><line transform="translate(62,-200)" x2="0" y2="200" stroke="#ddd" stroke-width="1" opacity="1"></line><line transform="translate(92,-200)" x2="0" y2="200" stroke="#ddd" stroke-width="1" opacity="1"></line><line transform="translate(123,-200)" x2="0" y2="200" stroke="#ddd" stroke-width="1" opacity="1"></line><line transform="translate(154,-200)" x2="0" y2="200" stroke="#ddd" stroke-width="1" opacity="1"></line><line transform="translate(185,-200)" x2="0" y2="200" stroke="#ddd" stroke-width="1" opacity="1"></line></g></g><path class="foreground" aria-hidden="true" d="" pointer-events="none" display="none"></path></g></g><g class="mark-group role-axis" aria-hidden="true"><g transform="translate(0.5,0.5)"><path class="background" aria-hidden="true" d="M0,0h0v0h0Z" pointer-events="none"></path><g><g class="mark-rule role-axis-grid" pointer-events="none"><line transform="translate(0,200)" x2="200" y2="0" stroke="#ddd" stroke-width="1" opacity="1"></line><line transform="translate(0,169)" x2="200" y2="0" stroke="#ddd" stroke-width="1" opacity="1"></line><line transform="translate(0,138)" x2="200" y2="0" stroke="#ddd" stroke-width="1" opacity="1"></line><line transform="translate(0,108)" x2="200" y2="0" stroke="#ddd" stroke-width="1" opacity="1"></line><line transform="translate(0,77)" x2="200" y2="0" stroke="#ddd" stroke-width="1" opacity="1"></line><line transform="translate(0,46)" x2="200" y2="0" stroke="#ddd" stroke-width="1" opacity="1"></line><line transform="translate(0,15)" x2="200" y2="0" stroke="#ddd" stroke-width="1" opacity="1"></line></g></g><path class="foreground" aria-hidden="true" d="" pointer-events="none" display="none"></path></g></g><g class="mark-group role-scope child_layer_0_layer_0_pathgroup" role="graphics-object" aria-roledescription="group mark container"><g transform="translate(0,0)"><path class="background" aria-hidden="true" d="M0,0h200v200h-200Z"></path><g><g class="mark-line role-mark child_layer_0_layer_0_marks" role="graphics-object" aria-roledescription="line mark container"><path aria-label="Window Center (s): 0.03125; condition: global; Prop. Winning Source > Lossing Sources: 0.504619042896" role="graphics-symbol" aria-roledescription="line mark" d="M0.9615384615384616,44.73260218571102L8.653846153846153,47.85319914412241L16.346153846153847,50.70867050766805L24.03846153846154,52.427183215515605L31.73076923076923,54.3798892937968L39.42307692307692,56.45412417912803L47.11538461538461,57.1816621918684L54.807692307692314,57.57873523954737L62.5,58.190487296257196L70.1923076923077,58.141902881682924L77.88461538461539,59.227415600123614L85.57692307692307,59.73508129598195L93.26923076923077,59.24470189589655L100.96153846153845,59.705622566788286L108.65384615384615,59.541579882438576L116.34615384615385,59.26419551539019L124.03846153846155,59.17953378319378L131.73076923076923,58.434731921032835L139.4230769230769,57.09849471360285L147.1153846153846,56.571209275297086L154.80769230769232,54.99985451545075L162.5,52.24089759430568L170.19230769230768,50.5493629906634L177.8846153846154,47.857365751007585L185.5769230769231,43.48520671583251L193.26923076923077,38.80871604758873" stroke="#4c78a8" stroke-width="2"></path></g></g><path class="foreground" aria-hidden="true" d="" display="none"></path></g><g transform="translate(0,0)"><path class="background" aria-hidden="true" d="M0,0h200v200h-200Z"></path><g><g class="mark-line role-mark child_layer_0_layer_0_marks" role="graphics-object" aria-roledescription="line mark container"><path aria-label="Window Center (s): 0.03125; condition: object; Prop. Winning Source > Lossing Sources: 0.50849570236" role="graphics-symbol" aria-roledescription="line mark" d="M0.9615384615384616,43.53978388910254L8.653846153846153,47.93565090044274L16.346153846153847,52.15553393384336L24.03846153846154,54.40165215971267L31.73076923076923,56.54935518852711L39.42307692307692,57.98261039853383L47.11538461538461,58.55110516626076L54.807692307692314,58.4567075993633L62.5,58.02261649252989L70.1923076923077,57.49812926562725L77.88461538461539,58.30881685101985L85.57692307692307,58.110501920552295L93.26923076923077,57.311847020657595L100.96153846153845,57.748905725920686L108.65384615384615,58.352398247145196L116.34615384615385,58.105419701085445L124.03846153846155,59.4143272364311L131.73076923076923,59.351675026277874L139.4230769230769,58.272473422811146L147.1153846153846,57.70162806308032L154.80769230769232,56.11314943314445L162.5,53.20292363041585L170.19230769230768,51.21592378665123L177.8846153846154,46.72608660041735L185.5769230769231,40.78799100729742L193.26923076923077,36.17087143127484" stroke="#f58518" stroke-width="2"></path></g></g><path class="foreground" aria-hidden="true" d="" display="none"></path></g><g transform="translate(0,0)"><path class="background" aria-hidden="true" d="M0,0h200v200h-200Z"></path><g><g class="mark-line role-mark child_layer_0_layer_0_marks" role="graphics-object" aria-roledescription="line mark container"><path aria-label="Window Center (s): 0.03125; condition: spatial; Prop. Winning Source > Lossing Sources: 0.499721627716" role="graphics-symbol" aria-roledescription="line mark" d="M0.9615384615384616,46.239499164178646L8.653846153846153,49.64664652586384L16.346153846153847,52.973463987449975L24.03846153846154,54.91816222318357L31.73076923076923,57.00297600819921L39.42307692307692,58.20040556151669L47.11538461538461,58.36880470875507L54.807692307692314,57.736789267237995L62.5,56.175003400564314L70.1923076923077,53.43407243738098L77.88461538461539,53.23076066265167L85.57692307692307,52.435547818159975L93.26923076923077,51.70931295827905L100.96153846153845,52.491205005227435L108.65384615384615,53.62593136030635L116.34615384615385,55.108040261059266L124.03846153846155,56.64997494671209L131.73076923076923,57.07266172301235L139.4230769230769,55.605339689260845L147.1153846153846,54.518630091910666L154.80769230769232,51.72351399631305L162.5,47.49189525551334L170.19230769230768,44.446911563307154L177.8846153846154,40.92266441328929L185.5769230769231,38.49557923698872L193.26923076923077,36.0341945171005" stroke="#e45756" stroke-width="2"></path></g></g><path class="foreground" aria-hidden="true" d="" display="none"></path></g></g><g class="mark-group role-scope child_layer_0_layer_1_layer_0_pathgroup" role="graphics-object" aria-roledescription="group mark container"><g transform="translate(0,0)"><path class="background" aria-hidden="true" d="M0,0h200v200h-200Z"></path><g><g class="mark-area role-mark child_layer_0_layer_1_layer_0_marks" role="graphics-object" aria-roledescription="area mark container"><path aria-label=": 0.496019676252; upper_lower: 0.51302388863; Window Center (s): 0.03125; condition: global; upper: 0.51302388863; lower: 0.496019676252" role="graphics-symbol" aria-roledescription="errorband" d="M0.9615384615384616,47.37856115324108L8.653846153846153,50.05394856459348L16.346153846153847,52.85916579100947L24.03846153846154,54.39196114550353L31.73076923076923,56.190620935877966L39.42307692307692,58.18724652274159L47.11538461538461,58.75473520795644L54.807692307692314,59.05047653575814L62.5,59.71003522509712L70.1923076923077,59.65839961193866L77.88461538461539,60.901758444909525L85.57692307692307,61.5531256907212L93.26923076923077,61.030066684906046L100.96153846153845,61.479744766455056L108.65384615384615,61.0846472455665L116.34615384615385,60.59001901668009L124.03846153846155,60.60783925312552L131.73076923076923,60.23239296098415L139.4230769230769,59.06509354933034L147.1153846153846,58.557689636271704L154.80769230769232,57.01960576747813L162.5,54.31559054183861L170.19230769230768,52.59949169375393L177.8846153846154,49.86004557646038L185.5769230769231,45.786489193659975L193.26923076923077,41.57380652439093L193.26923076923077,36.05168711758573L185.5769230769231,41.195182441086885L177.8846153846154,45.89764992276475L170.19230769230768,48.54399398968441L162.5,50.198427719569594L154.80769230769232,53.00961399267725L147.1153846153846,54.72221887284094L139.4230769230769,55.270538591106046L131.73076923076923,56.774927711968395L124.03846153846155,57.79764144792563L116.34615384615385,57.96499670931878L108.65384615384615,57.980736683104396L100.96153846153845,57.913320351549835L93.26923076923077,57.53638169672983L85.57692307692307,58.0218344169839L77.88461538461539,57.549481080200884L70.1923076923077,56.633289607579854L62.5,56.71498718186723L54.807692307692314,56.14659034361424L47.11538461538461,55.67189832784478L39.42307692307692,54.875866661195595L31.73076923076923,52.72702995552727L24.03846153846154,50.62961309733045L16.346153846153847,48.71616339235825L8.653846153846153,45.68245164307003L0.9615384615384616,42.14649580616583Z" fill="#4c78a8" opacity="0.3"></path></g></g><path class="foreground" aria-hidden="true" d="" display="none"></path></g><g transform="translate(0,0)"><path class="background" aria-hidden="true" d="M0,0h200v200h-200Z"></path><g><g class="mark-area role-mark child_layer_0_layer_1_layer_0_marks" role="graphics-object" aria-roledescription="area mark container"><path aria-label=": 0.497802347713; upper_lower: 0.518795823382; Window Center (s): 0.03125; condition: object; upper: 0.518795823382; lower: 0.497802347713" role="graphics-symbol" aria-roledescription="errorband" d="M0.9615384615384616,46.8300468574947L8.653846153846153,50.40818789350947L16.346153846153847,54.24215574135833L24.03846153846154,56.58109011451322L31.73076923076923,58.71918522021349L39.42307692307692,60.25477562089605L47.11538461538461,60.86326494025802L54.807692307692314,60.58222530740516L62.5,60.10228436169378L70.1923076923077,59.66194602836945L77.88461538461539,60.546312869891025L85.57692307692307,60.36385401259252L93.26923076923077,59.46625637768766L100.96153846153845,60.07666306977817L108.65384615384615,60.77653692134981L116.34615384615385,60.69285537910532L124.03846153846155,62.02353548131816L131.73076923076923,62.22627545984787L139.4230769230769,60.99858737315633L147.1153846153846,60.19486838486854L154.80769230769232,58.3515641579331L162.5,55.2308457101456L170.19230769230768,53.42108287250509L177.8846153846154,49.61487006633649L185.5769230769231,44.522543401007944L193.26923076923077,40.51834699548485L193.26923076923077,31.771217123656935L185.5769230769231,36.887778060544505L177.8846153846154,43.8783522314393L170.19230769230768,48.87794996074697L162.5,51.103987242245964L154.80769230769232,53.983676131476855L147.1153846153846,55.37172324101118L139.4230769230769,55.54312098808587L131.73076923076923,56.36573541739449L124.03846153846155,56.637058582113944L116.34615384615385,55.406445017372775L108.65384615384615,55.89357880429493L100.96153846153845,55.25859519501122L93.26923076923077,55.13011184799623L85.57692307692307,55.83568271409103L77.88461538461539,56.08790834944388L70.1923076923077,55.18440310800139L62.5,55.81524176640145L54.807692307692314,56.288684644768885L47.11538461538461,56.16875335682885L39.42307692307692,55.68106467811622L31.73076923076923,54.235394900056264L24.03846153846154,52.12654779079444L16.346153846153847,49.98706166020761L8.653846153846153,45.4550700682872L0.9615384615384616,40.37051588256517Z" fill="#f58518" opacity="0.3"></path></g></g><path class="foreground" aria-hidden="true" d="" display="none"></path></g><g transform="translate(0,0)"><path class="background" aria-hidden="true" d="M0,0h200v200h-200Z"></path><g><g class="mark-area role-mark child_layer_0_layer_1_layer_0_marks" role="graphics-object" aria-roledescription="area mark container"><path aria-label=": 0.486437150692; upper_lower: 0.51222186523; Window Center (s): 0.03125; condition: spatial; upper: 0.51222186523; lower: 0.486437150692" role="graphics-symbol" aria-roledescription="errorband" d="M0.9615384615384616,50.32703055639753L8.653846153846153,53.39496367330383L16.346153846153847,56.459294396357286L24.03846153846154,58.537178756863554L31.73076923076923,60.84443489268991L39.42307692307692,62.32683533030754L47.11538461538461,62.48276575613217L54.807692307692314,61.62601752695902L62.5,59.728628854229825L70.1923076923077,57.563230852105995L77.88461538461539,57.42318465826075L85.57692307692307,57.600236042744L93.26923076923077,57.667070717629066L100.96153846153845,58.982982375159864L108.65384615384615,60.41595942637608L116.34615384615385,61.37776959737258L124.03846153846155,61.48581047730277L131.73076923076923,61.15437098886225L139.4230769230769,59.58423322452744L147.1153846153846,58.522351420799204L154.80769230769232,56.044892553606985L162.5,52.03471842313348L170.19230769230768,49.34236128196363L177.8846153846154,46.09233839703717L185.5769230769231,44.07686928477179L193.26923076923077,41.46698352635474L193.26923076923077,30.501044950805877L185.5769230769231,32.848214783259564L177.8846153846154,35.26768836443539L170.19230769230768,39.42641687602817L162.5,42.934705803908415L154.80769230769232,47.254274969819846L147.1153846153846,50.41871614985338L139.4230769230769,51.65356544813893L131.73076923076923,53.17633664389439L124.03846153846155,52.477620234142485L116.34615384615385,50.29128659763482L108.65384615384615,48.4533678609199L100.96153846153845,46.802674785447195L93.26923076923077,46.351552802648776L85.57692307692307,47.340245780750536L77.88461538461539,48.854458212430885L70.1923076923077,49.21467895826872L62.5,52.48620603488394L54.807692307692314,54.08499508860085L47.11538461538461,54.551652166416396L39.42307692307692,54.46951351118017L31.73076923076923,53.34586079303563L24.03846153846154,51.517028014423815L16.346153846153847,49.59818318282767L8.653846153846153,46.095757188031186L0.9615384615384616,42.39327223702225Z" fill="#e45756" opacity="0.3"></path></g></g><path class="foreground" aria-hidden="true" d="" display="none"></path></g></g></g><path class="foreground" aria-hidden="true" d="" display="none"></path></g></g><g class="mark-group role-legend" role="graphics-symbol" aria-roledescription="legend" aria-label="Symbol legend titled 'condition' for fill color and stroke color with 3 values: global, object, spatial"><g transform="translate(891,0)"><path class="background" aria-hidden="true" d="M0,0h60v61h-60Z" pointer-events="none"></path><g><g class="mark-group role-legend-entry"><g transform="translate(0,16)"><path class="background" aria-hidden="true" d="M0,0h0v0h0Z" pointer-events="none"></path><g><g class="mark-group role-scope" role="graphics-object" aria-roledescription="group mark container"><g transform="translate(0,0)"><path class="background" aria-hidden="true" d="M0,0h49v12.5h-49Z" pointer-events="none" opacity="1"></path><g><g class="mark-symbol role-legend-symbol" pointer-events="none"><path transform="translate(6,6)" d="M5,0A5,5,0,1,1,-5,0A5,5,0,1,1,5,0" fill="#4c78a8" stroke="#4c78a8" stroke-width="1.5" opacity="0.3"></path></g><g class="mark-text role-legend-label" pointer-events="none"><text text-anchor="start" transform="translate(16,9)" font-family="sans-serif" font-size="10px" fill="#000" opacity="1">global</text></g></g><path class="foreground" aria-hidden="true" d="" pointer-events="none" display="none"></path></g><g transform="translate(0,16)"><path class="background" aria-hidden="true" d="M0,0h49v12.5h-49Z" pointer-events="none" opacity="1"></path><g><g class="mark-symbol role-legend-symbol" pointer-events="none"><path transform="translate(6,6)" d="M5,0A5,5,0,1,1,-5,0A5,5,0,1,1,5,0" fill="#f58518" stroke="#f58518" stroke-width="1.5" opacity="0.3"></path></g><g class="mark-text role-legend-label" pointer-events="none"><text text-anchor="start" transform="translate(16,9)" font-family="sans-serif" font-size="10px" fill="#000" opacity="1">object</text></g></g><path class="foreground" aria-hidden="true" d="" pointer-events="none" display="none"></path></g><g transform="translate(0,32)"><path class="background" aria-hidden="true" d="M0,0h49v12.5h-49Z" pointer-events="none" opacity="1"></path><g><g class="mark-symbol role-legend-symbol" pointer-events="none"><path transform="translate(6,6)" d="M5,0A5,5,0,1,1,-5,0A5,5,0,1,1,5,0" fill="#e45756" stroke="#e45756" stroke-width="1.5" opacity="0.3"></path></g><g class="mark-text role-legend-label" pointer-events="none"><text text-anchor="start" transform="translate(16,9)" font-family="sans-serif" font-size="10px" fill="#000" opacity="1">spatial</text></g></g><path class="foreground" aria-hidden="true" d="" pointer-events="none" display="none"></path></g></g></g><path class="foreground" aria-hidden="true" d="" pointer-events="none" display="none"></path></g></g><g class="mark-text role-legend-title" pointer-events="none"><text text-anchor="start" transform="translate(0,9)" font-family="sans-serif" font-size="11px" font-weight="bold" fill="#000" opacity="1">condition</text></g></g><path class="foreground" aria-hidden="true" d="" pointer-events="none" display="none"></path></g></g></g><path class="foreground" aria-hidden="true" d="" display="none"></path></g></g></g></svg>
