<?xml version="1.0" encoding="utf-8"?>
<!DOCTYPE svg PUBLIC "-//W3C//DTD SVG 1.1//EN" "http://www.w3.org/Graphics/SVG/1.1/DTD/svg11.dtd">
<svg class="marks" width="388" height="194" viewBox="0 0 388 194" version="1.1" xmlns="http://www.w3.org/2000/svg" xmlns:xlink="http://www.w3.org/1999/xlink"><rect width="388" height="194" fill="white"></rect><g fill="none" stroke-miterlimit="10" transform="translate(56,26)"><g class="mark-group role-frame root" role="graphics-object" aria-roledescription="group mark container"><g transform="translate(0,0)"><path class="background" aria-hidden="true" d="M0,0h0v0h0Z"></path><g><g class="mark-group role-row-header row_header" role="graphics-object" aria-roledescription="group mark container"><g transform="translate(-3,0)"><path class="background" aria-hidden="true" d="M0,0h0v130h0Z"></path><g><g class="mark-group role-axis" role="graphics-symbol" aria-roledescription="axis" aria-label="Y-axis titled 'Decoding Correlation' for a linear scale with values from -0.06 to 0.10"><g transform="translate(0.5,0.5)"><path class="background" aria-hidden="true" d="M0,0h0v0h0Z" pointer-events="none"></path><g><g class="mark-rule role-axis-tick" pointer-events="none"><line transform="translate(0,122)" x2="-5" y2="0" stroke="#888" stroke-width="1" opacity="1"></line><line transform="translate(0,81)" x2="-5" y2="0" stroke="#888" stroke-width="1" opacity="1"></line><line transform="translate(0,41)" x2="-5" y2="0" stroke="#888" stroke-width="1" opacity="1"></line><line transform="translate(0,0)" x2="-5" y2="0" stroke="#888" stroke-width="1" opacity="1"></line></g><g class="mark-text role-axis-label" pointer-events="none"><text text-anchor="end" transform="translate(-7,124.875)" font-family="sans-serif" font-size="10px" fill="#000" opacity="1">-0.05</text><text text-anchor="end" transform="translate(-7,84.25)" font-family="sans-serif" font-size="10px" fill="#000" opacity="1">0.00</text><text text-anchor="end" transform="translate(-7,43.625)" font-family="sans-serif" font-size="10px" fill="#000" opacity="1">0.05</text><text text-anchor="end" transform="translate(-7,3)" font-family="sans-serif" font-size="10px" fill="#000" opacity="1">0.10</text></g><g class="mark-rule role-axis-domain" pointer-events="none"><line transform="translate(0,130)" x2="0" y2="-130" stroke="#888" stroke-width="1" opacity="1"></line></g><g class="mark-text role-axis-title" pointer-events="none"><text text-anchor="middle" transform="translate(-36,65) rotate(-90) translate(0,-2)" font-family="sans-serif" font-size="11px" font-weight="bold" fill="#000" opacity="1">Decoding Correlation</text></g></g><path class="foreground" aria-hidden="true" d="" pointer-events="none" display="none"></path></g></g></g><path class="foreground" aria-hidden="true" d="" display="none"></path></g></g><g class="mark-group role-column-header column_header" role="graphics-object" aria-roledescription="group mark container"><g transform="translate(0,-1)"><path class="background" aria-hidden="true" d="M0,0h128v0h-128Z"></path><g><g class="mark-group role-title"><g transform="translate(64,-20)"><path class="background" aria-hidden="true" d="M0,0h0v0h0Z" pointer-events="none"></path><g><g class="mark-text role-title-text" role="graphics-symbol" aria-roledescription="title" aria-label="Title text 'Global'" pointer-events="none"><text text-anchor="middle" transform="translate(0,8)" font-family="sans-serif" font-size="10px" font-weight="bold" fill="#000" opacity="1">Global</text></g></g><path class="foreground" aria-hidden="true" d="" pointer-events="none" display="none"></path></g></g></g><path class="foreground" aria-hidden="true" d="" display="none"></path></g><g transform="translate(138,-1)"><path class="background" aria-hidden="true" d="M0,0h128v0h-128Z"></path><g><g class="mark-group role-title"><g transform="translate(64,-20)"><path class="background" aria-hidden="true" d="M0,0h0v0h0Z" pointer-events="none"></path><g><g class="mark-text role-title-text" role="graphics-symbol" aria-roledescription="title" aria-label="Title text 'Object'" pointer-events="none"><text text-anchor="middle" transform="translate(0,8)" font-family="sans-serif" font-size="10px" font-weight="bold" fill="#000" opacity="1">Object</text></g></g><path class="foreground" aria-hidden="true" d="" pointer-events="none" display="none"></path></g></g></g><path class="foreground" aria-hidden="true" d="" display="none"></path></g></g><g class="mark-group role-column-footer column_footer" role="graphics-object" aria-roledescription="group mark container"><g transform="translate(0,131)"><path class="background" aria-hidden="true" d="M0,0h128v0h-128Z"></path><g><g class="mark-group role-axis" role="graphics-symbol" aria-roledescription="axis" aria-label="X-axis titled 'Time (s)' for a linear scale with values from 0 to 8"><g transform="translate(0.5,0.5)"><path class="background" aria-hidden="true" d="M0,0h0v0h0Z" pointer-events="none"></path><g><g class="mark-rule role-axis-tick" pointer-events="none"><line transform="translate(0,0)" x2="0" y2="5" stroke="#888" stroke-width="1" opacity="1"></line><line transform="translate(32,0)" x2="0" y2="5" stroke="#888" stroke-width="1" opacity="1"></line><line transform="translate(64,0)" x2="0" y2="5" stroke="#888" stroke-width="1" opacity="1"></line><line transform="translate(96,0)" x2="0" y2="5" stroke="#888" stroke-width="1" opacity="1"></line><line transform="translate(128,0)" x2="0" y2="5" stroke="#888" stroke-width="1" opacity="1"></line></g><g class="mark-text role-axis-label" pointer-events="none"><text text-anchor="start" transform="translate(0,15)" font-family="sans-serif" font-size="10px" fill="#000" opacity="1">0</text><text text-anchor="middle" transform="translate(32,15)" font-family="sans-serif" font-size="10px" fill="#000" opacity="1">2</text><text text-anchor="middle" transform="translate(64,15)" font-family="sans-serif" font-size="10px" fill="#000" opacity="1">4</text><text text-anchor="middle" transform="translate(96,15)" font-family="sans-serif" font-size="10px" fill="#000" opacity="1">6</text><text text-anchor="end" transform="translate(128,15)" font-family="sans-serif" font-size="10px" fill="#000" opacity="1">8</text></g><g class="mark-rule role-axis-domain" pointer-events="none"><line transform="translate(0,0)" x2="128" y2="0" stroke="#888" stroke-width="1" opacity="1"></line></g><g class="mark-text role-axis-title" pointer-events="none"><text text-anchor="middle" transform="translate(64,30)" font-family="sans-serif" font-size="11px" font-weight="bold" fill="#000" opacity="1">Time (s)</text></g></g><path class="foreground" aria-hidden="true" d="" pointer-events="none" display="none"></path></g></g></g><path class="foreground" aria-hidden="true" d="" display="none"></path></g><g transform="translate(138,131)"><path class="background" aria-hidden="true" d="M0,0h128v0h-128Z"></path><g><g class="mark-group role-axis" role="graphics-symbol" aria-roledescription="axis" aria-label="X-axis titled 'Time (s)' for a linear scale with values from 0 to 8"><g transform="translate(0.5,0.5)"><path class="background" aria-hidden="true" d="M0,0h0v0h0Z" pointer-events="none"></path><g><g class="mark-rule role-axis-tick" pointer-events="none"><line transform="translate(0,0)" x2="0" y2="5" stroke="#888" stroke-width="1" opacity="1"></line><line transform="translate(32,0)" x2="0" y2="5" stroke="#888" stroke-width="1" opacity="1"></line><line transform="translate(64,0)" x2="0" y2="5" stroke="#888" stroke-width="1" opacity="1"></line><line transform="translate(96,0)" x2="0" y2="5" stroke="#888" stroke-width="1" opacity="1"></line><line transform="translate(128,0)" x2="0" y2="5" stroke="#888" stroke-width="1" opacity="1"></line></g><g class="mark-text role-axis-label" pointer-events="none"><text text-anchor="start" transform="translate(0,15)" font-family="sans-serif" font-size="10px" fill="#000" opacity="1">0</text><text text-anchor="middle" transform="translate(32,15)" font-family="sans-serif" font-size="10px" fill="#000" opacity="1">2</text><text text-anchor="middle" transform="translate(64,15)" font-family="sans-serif" font-size="10px" fill="#000" opacity="1">4</text><text text-anchor="middle" transform="translate(96,15)" font-family="sans-serif" font-size="10px" fill="#000" opacity="1">6</text><text text-anchor="end" transform="translate(128,15)" font-family="sans-serif" font-size="10px" fill="#000" opacity="1">8</text></g><g class="mark-rule role-axis-domain" pointer-events="none"><line transform="translate(0,0)" x2="128" y2="0" stroke="#888" stroke-width="1" opacity="1"></line></g><g class="mark-text role-axis-title" pointer-events="none"><text text-anchor="middle" transform="translate(64,30)" font-family="sans-serif" font-size="11px" font-weight="bold" fill="#000" opacity="1">Time (s)</text></g></g><path class="foreground" aria-hidden="true" d="" pointer-events="none" display="none"></path></g></g></g><path class="foreground" aria-hidden="true" d="" display="none"></path></g></g><g class="mark-group role-scope cell" role="graphics-object" aria-roledescription="group mark container"><g transform="translate(0,0)"><path class="background" aria-hidden="true" d="M0.5,0.5h128v130h-128Z" stroke="#ddd"></path><g><g class="mark-group role-axis" aria-hidden="true"><g transform="translate(0.5,130.5)"><path class="background" aria-hidden="true" d="M0,0h0v0h0Z" pointer-events="none"></path><g><g class="mark-rule role-axis-grid" pointer-events="none"><line transform="translate(0,-130)" x2="0" y2="130" stroke="#ddd" stroke-width="1" opacity="1"></line><line transform="translate(32,-130)" x2="0" y2="130" stroke="#ddd" stroke-width="1" opacity="1"></line><line transform="translate(64,-130)" x2="0" y2="130" stroke="#ddd" stroke-width="1" opacity="1"></line><line transform="translate(96,-130)" x2="0" y2="130" stroke="#ddd" stroke-width="1" opacity="1"></line><line transform="translate(128,-130)" x2="0" y2="130" stroke="#ddd" stroke-width="1" opacity="1"></line></g></g><path class="foreground" aria-hidden="true" d="" pointer-events="none" display="none"></path></g></g><g class="mark-group role-axis" aria-hidden="true"><g transform="translate(0.5,0.5)"><path class="background" aria-hidden="true" d="M0,0h0v0h0Z" pointer-events="none"></path><g><g class="mark-rule role-axis-grid" pointer-events="none"><line transform="translate(0,122)" x2="128" y2="0" stroke="#ddd" stroke-width="1" opacity="1"></line><line transform="translate(0,81)" x2="128" y2="0" stroke="#ddd" stroke-width="1" opacity="1"></line><line transform="translate(0,41)" x2="128" y2="0" stroke="#ddd" stroke-width="1" opacity="1"></line><line transform="translate(0,0)" x2="128" y2="0" stroke="#ddd" stroke-width="1" opacity="1"></line></g></g><path class="foreground" aria-hidden="true" d="" pointer-events="none" display="none"></path></g></g><g class="mark-group role-scope child_layer_0_layer_0_pathgroup" role="graphics-object" aria-roledescription="group mark container"><g transform="translate(0,0)"><path class="background" aria-hidden="true" d="M0,0h128v130h-128Z"></path><g><g class="mark-line role-mark child_layer_0_layer_0_marks" role="graphics-object" aria-roledescription="line mark container"><path aria-label="Time (s): 0.03125; Lags: 3 sec; Decoding Correlation: 0.0109696685148" role="graphics-symbol" aria-roledescription="line mark" d="M0.5,72.33714433168528L2,77.99845189865925L3.5,81.37511506235305L5,77.67631108000708L6.5,75.30514841770987L8,74.35071171778237L9.5,73.89213529964823L11,73.39283715821736L12.5,73.09641742643163L14,75.30335075283651L15.5,78.45503830056025L17,78.72610985673583L18.5,78.91032964654065L20,81.20101524287742L21.5,80.84659591289406L23,77.94299423053383L24.5,75.5487457393866L26,74.2222608405712L27.5,71.96784907682705L29,70.00723580121029L30.5,75.01574290335382L32,79.17880481316604L33.5,76.83475867212785L35,70.41890408496859L36.5,70.53566553231843L38,75.72554861630654L39.5,77.03210226403412L41,75.23667115758298L42.5,72.92823115796234L44,76.47034990534638L45.5,79.82442307792645L47,76.5643465319916L48.5,72.85379589570954L50,81.04829383455952L51.5,82.97793947201535L53,86.79091451831346L54.5,84.28884930054299L56,82.13067699685266L57.5,82.15834220009444L59,83.39983619658986L60.5,81.3703343483631L62,84.31283831242095L63.5,87.23218246933328L65,90.04302553826807L66.5,91.03832547662608L68,84.47625269447082L69.5,81.1399455036876L71,79.26164502321026L72.5,78.64438865396427L74,74.76855545648274L75.5,68.04900747093546L77,71.38720355505642L78.5,75.16635660596964L80,75.73818278742716L81.5,76.00474298958741L83,75.50504780374604L84.5,68.49164982808065L86,73.61249164875893L87.5,82.95488504331541L89,84.9828637039048L90.5,81.5119294993167L92,81.11659799284668L93.5,89.4633456374749L95,83.92328307588937L96.5,74.07713293131914L98,69.19379323877024L99.5,65.08801109777148L101,63.92004719882992L102.5,62.890980023811274L104,48.725052404062566L105.5,34.81633969205319L107,43.53465838569567L108.5,66.66734293209736L110,62.22813003570918L111.5,43.11516630046256L113,38.42763065068314L114.5,25.236043406651994L116,26.0619331041294L117.5,24.47748445959471L119,26.644046143685152L120.5,54.7665820618861L122,52.36826659883701L123.5,41.81664172796361L125,99.59607804657497L126.5,109.39792442315209" stroke="#2C55A1" stroke-width="2" stroke-linejoin="round"></path></g></g><path class="foreground" aria-hidden="true" d="" display="none"></path></g></g><g class="mark-group role-scope child_layer_0_layer_1_layer_0_pathgroup" role="graphics-object" aria-roledescription="group mark container"><g transform="translate(0,0)"><path class="background" aria-hidden="true" d="M0,0h128v130h-128Z"></path><g><g class="mark-area role-mark child_layer_0_layer_1_layer_0_marks" role="graphics-object" aria-roledescription="area mark container"><path aria-label=": 0.000688199487847; upper_lower: 0.0212287558803; Time (s): 0.03125; Lags: 3 sec; upper: 0.0212287558803; lower: 0.000688199487847" role="graphics-symbol" aria-roledescription="errorband" d="M0.5,80.69083791612428L2,86.27958919671123L3.5,87.94569435371065L5,84.58986024185931L6.5,81.61322374803922L8,81.727598107669L9.5,80.5540128033354L11,80.8627545237462L12.5,79.85020898043157L14,82.5129802452181L15.5,85.38594964624079L17,86.02533719729206L18.5,85.37389825242974L20,87.67856102466763L21.5,88.15856076516516L23,85.56380060873909L24.5,83.3430150524532L26,82.31124308164493L27.5,79.00195954697665L29,77.58700593396742L30.5,81.72040997194759L32,86.39597152423268L33.5,82.9360258230104L35,76.29849275449166L36.5,75.85554018853249L38,81.71659205056807L39.5,82.60282032117996L41,80.72190537537581L42.5,78.61786914208955L44,81.99347928157285L45.5,86.27997236801879L47,84.03021821715632L48.5,81.01479496817693L50,89.26355374316005L51.5,91.26070976664258L53,94.62786961979043L54.5,92.06143181342102L56,89.53511043176178L57.5,88.9295540069532L59,89.3395370559659L60.5,86.54543621139383L62,90.19428979406064L63.5,92.72580019393627L65,95.49765593168306L66.5,96.08128700742176L68,89.53188639090367L69.5,86.54970226866142L71,84.75644188587638L72.5,83.53983734356443L74,80.0240558710709L75.5,73.91889691556175L77,77.40038221173495L78.5,81.77898358521851L80,81.47774847509042L81.5,82.34501924686883L83,81.82543931307804L84.5,73.88735132678944L86,79.9874261355675L87.5,91.45797793954902L89,92.1323091021844L90.5,86.73259870281429L92,86.4782288167358L93.5,95.82427462655899L95,90.33612374711038L96.5,80.1623298395489L98,75.50652344672767L99.5,72.21718720767026L101,70.67612783623221L102.5,69.27979300255345L104,54.17675538514941L105.5,40.818896735274684L107,49.726535651518255L108.5,75.49579696025461L110,70.18710999895157L111.5,50.32459275327827L113,46.019898617931354L114.5,33.4967920678144L116,35.05537998865151L117.5,37.20927014034064L119,44.72676867373492L120.5,73.30150356264072L122,71.84240007077108L123.5,59.46025084944156L125,116.60821870398524L126.5,126.5966457419331L126.5,91.71099165912779L125,82.36443534541945L123.5,24.844128821298874L122,33.4824085418776L120.5,35.55433515001639L119,8.447997399657268L117.5,11.388457412787908L116,17.228652744522748L114.5,17.212891215721715L113,30.748773305638114L111.5,36.09670894002292L110,54.30671039582814L108.5,57.91710092499655L107,37.15550538052108L105.5,28.938650877247202L104,43.07982332975322L102.5,56.63131036429853L101,57.05195901459731L99.5,58.09588571075829L98,63.196533945426985L96.5,68.08958415555335L95,77.35729222172583L93.5,82.89634315057809L92,75.51784515775302L90.5,76.48682596714288L89,77.91954126449018L87.5,74.37610773523153L86,67.42539539426286L84.5,63.04865157552844L83,69.20237748625846L81.5,69.90146279823288L80,70.03288582304474L78.5,68.64354440244978L77,65.6502378681215L75.5,62.4831835172778L74,69.93168329292396L72.5,74.02960244560167L71,73.82047574876475L69.5,75.72105675063679L68,79.05706678679923L66.5,85.61174102176895L65,84.4155293026421L63.5,81.64567898982202L62,78.30010796638497L60.5,76.25368878260967L59,77.4082707457782L57.5,75.63090751433548L56,74.88898794749747L54.5,76.87238876787185L53,79.11470643367645L51.5,74.9577102903868L50,72.5905540457876L48.5,64.56295310762366L47,69.22255817344927L45.5,73.40348065144994L44,70.94484987608016L42.5,67.50450782012231L41,69.9073281768104L39.5,71.25200013775233L38,69.74335120384076L36.5,65.17204951542953L35,64.53970702403234L33.5,70.51922574441494L32,72.19267083333469L30.5,68.44374912099664L29,62.60658831571342L27.5,64.97626842619641L26,66.31050324536648L24.5,67.63911861208972L23,70.16193828273192L21.5,73.37697155498294L20,74.62469437392987L18.5,72.34927231178945L17,71.36929910428657L15.5,71.58910469522696L14,67.98516977726209L12.5,66.51924239186083L11,66.04440367485437L9.5,67.02869197042797L8,66.95730807049034L6.5,68.99304165100686L5,70.79884490175438L3.5,74.78500220125545L2,70.07551545365398L0.5,64.00163584728323Z" fill="#2C55A1" opacity="0.3"></path></g></g><path class="foreground" aria-hidden="true" d="" display="none"></path></g></g></g><path class="foreground" aria-hidden="true" d="" display="none"></path></g><g transform="translate(138,0)"><path class="background" aria-hidden="true" d="M0.5,0.5h128v130h-128Z" stroke="#ddd"></path><g><g class="mark-group role-axis" aria-hidden="true"><g transform="translate(0.5,130.5)"><path class="background" aria-hidden="true" d="M0,0h0v0h0Z" pointer-events="none"></path><g><g class="mark-rule role-axis-grid" pointer-events="none"><line transform="translate(0,-130)" x2="0" y2="130" stroke="#ddd" stroke-width="1" opacity="1"></line><line transform="translate(32,-130)" x2="0" y2="130" stroke="#ddd" stroke-width="1" opacity="1"></line><line transform="translate(64,-130)" x2="0" y2="130" stroke="#ddd" stroke-width="1" opacity="1"></line><line transform="translate(96,-130)" x2="0" y2="130" stroke="#ddd" stroke-width="1" opacity="1"></line><line transform="translate(128,-130)" x2="0" y2="130" stroke="#ddd" stroke-width="1" opacity="1"></line></g></g><path class="foreground" aria-hidden="true" d="" pointer-events="none" display="none"></path></g></g><g class="mark-group role-axis" aria-hidden="true"><g transform="translate(0.5,0.5)"><path class="background" aria-hidden="true" d="M0,0h0v0h0Z" pointer-events="none"></path><g><g class="mark-rule role-axis-grid" pointer-events="none"><line transform="translate(0,122)" x2="128" y2="0" stroke="#ddd" stroke-width="1" opacity="1"></line><line transform="translate(0,81)" x2="128" y2="0" stroke="#ddd" stroke-width="1" opacity="1"></line><line transform="translate(0,41)" x2="128" y2="0" stroke="#ddd" stroke-width="1" opacity="1"></line><line transform="translate(0,0)" x2="128" y2="0" stroke="#ddd" stroke-width="1" opacity="1"></line></g></g><path class="foreground" aria-hidden="true" d="" pointer-events="none" display="none"></path></g></g><g class="mark-group role-scope child_layer_0_layer_0_pathgroup" role="graphics-object" aria-roledescription="group mark container"><g transform="translate(0,0)"><path class="background" aria-hidden="true" d="M0,0h128v130h-128Z"></path><g><g class="mark-line role-mark child_layer_0_layer_0_marks" role="graphics-object" aria-roledescription="line mark container"><path aria-label="Time (s): 0.03125; Lags: 3 sec; Decoding Correlation: -0.00773204301265" role="graphics-symbol" aria-roledescription="line mark" d="M0.5,87.53228494777589L2,89.48963468228445L3.5,86.64882417554553L5,89.7920607744707L6.5,90.67107378643647L8,94.24537900916931L9.5,101.76307903645134L11,89.29181024781745L12.5,90.20797249277268L14,90.84967346552168L15.5,84.17734697466074L17,81.8275592315463L18.5,80.67476760300174L20,83.81389523933264L21.5,78.28011248495564L23,74.37016817771696L24.5,70.62072532546557L26,66.79306005172418L27.5,69.67364091676043L29,71.33159988314077L30.5,68.95616569491382L32,67.80032808572133L33.5,64.97882902363406L35,66.39464656225923L36.5,69.84122552437134L38,70.14105374518252L39.5,73.64105242696073L41,75.09530393496694L42.5,67.48260566769187L44,64.45514534023968L45.5,67.60962361207298L47,66.22188637496545L48.5,59.31665201344603L50,58.737777762660485L51.5,52.258469081766066L53,49.73730230578963L54.5,55.07627466872274L56,63.64981948925512L57.5,64.5802205198694L59,67.18547465043977L60.5,65.91972637672231L62,68.81359952713368L63.5,76.61875042788483L65,74.85683036905006L66.5,74.53133017957467L68,72.83830381238255L69.5,69.88202856641037L71,62.73578789393149L72.5,64.96375966481442L74,62.353113461320916L75.5,62.17000311223412L77,58.16079234224795L78.5,57.579226307816135L80,52.0962786163534L81.5,66.1306329702137L83,61.50660597764267L84.5,65.192399068439L86,63.3286983363883L87.5,63.486504672962276L89,70.35249943724631L90.5,71.41398369524727L92,75.71126174985736L93.5,80.82981110634809L95,83.06907025949786L96.5,84.30525237494649L98,81.40087995225397L99.5,84.47273930837275L101,80.30587472516834L102.5,79.92732145670004L104,73.07903466660635L105.5,82.5194517116874L107,84.18964123308324L108.5,77.61186534322266L110,85.1881749306597L111.5,70.1672927941867L113,79.2265419120889L114.5,68.42559672300044L116,68.24438496581415L117.5,58.1132555960695L119,65.59021885130214L120.5,61.850329399278934L122,91.95437259710052L123.5,67.27115743734214" stroke="#2C55A1" stroke-width="2" stroke-linejoin="round"></path></g></g><path class="foreground" aria-hidden="true" d="" display="none"></path></g></g><g class="mark-group role-scope child_layer_0_layer_1_layer_0_pathgroup" role="graphics-object" aria-roledescription="group mark container"><g transform="translate(0,0)"><path class="background" aria-hidden="true" d="M0,0h128v130h-128Z"></path><g><g class="mark-area role-mark child_layer_0_layer_1_layer_0_marks" role="graphics-object" aria-roledescription="area mark container"><path aria-label=": -0.0205893448781; upper_lower: 0.00577317955282; Time (s): 0.03125; Lags: 3 sec; upper: 0.00577317955282; lower: -0.0205893448781" role="graphics-symbol" aria-roledescription="errorband" d="M0.5,97.97884271341708L2,100.15986008095113L3.5,97.45592410380291L5,100.44172264792194L6.5,99.91567950404405L8,103.90134192575707L9.5,110.8383313281975L11,97.68009255690285L12.5,97.83014274561216L14,97.64363462509515L15.5,93.13788030411382L17,91.90470288156494L18.5,90.43479193712038L20,94.63748080355802L21.5,88.71647306131881L23,84.5579072930792L24.5,78.85075393428467L26,75.53394565145149L27.5,79.07962059237524L29,81.26440603057874L30.5,78.7004270906824L32,78.84347178538007L33.5,77.33205088060546L35,80.11262980921978L36.5,86.03653731610959L38,84.41102386361479L39.5,87.5199913948996L41,86.59838050136592L42.5,79.12712896486119L44,74.7222327612213L45.5,78.43657338262621L47,78.36592132010166L48.5,70.63203069640136L50,70.50872806459621L51.5,62.86549518023167L53,60.37257877279418L54.5,64.78496234070465L56,73.5421563187266L57.5,74.60531495786257L59,76.47484970160274L60.5,75.2141231643913L62,77.43919453425262L63.5,84.43996091966578L65,83.06392883408952L66.5,81.8087413459605L68,80.44810691020902L69.5,78.02507931087024L71,72.07311467691672L72.5,73.13085828839519L74,70.60128655721068L75.5,68.21440583349128L77,64.16299762830633L78.5,63.904865711429515L80,57.46071405602988L81.5,73.98141168933677L83,69.13251790207798L84.5,72.96903720618496L86,73.49154657153088L87.5,73.13252844955326L89,79.38010580690542L90.5,79.68011743506662L92,83.687188218779L93.5,88.22057353275828L95,90.94692413175846L96.5,91.49600836493656L98,88.30898204058225L99.5,91.56778180132095L101,88.92234801643819L102.5,88.14895792907731L104,83.10505126599351L105.5,93.17991528196646L107,95.3569541937193L108.5,88.3526267874006L110,95.87190132569941L111.5,80.63138201502989L113,88.80948766503565L114.5,77.00166333932943L116,79.1169495427053L117.5,69.36631289316327L119,79.15304841057569L120.5,76.1806895327494L122,104.79776635496044L123.5,81.15497148518963L123.5,52.98341200010035L122,78.6842320491069L120.5,47.804713846582004L119,52.449501852171004L117.5,46.578522529633524L116,57.374388651674145L114.5,59.71720597613182L113,69.4670609985789L111.5,59.96154023434867L110,74.49838765027593L108.5,66.97249639749047L107,73.33665516488644L105.5,72.09988829559173L104,62.85902893340888L102.5,71.38734773441143L101,71.8757964133538L99.5,76.95846456058683L98,74.51988231412223L96.5,77.31968479465256L95,75.27870008337007L93.5,73.31409050085645L92,67.5695449455287L90.5,63.260056277531696L89,61.08287724032657L87.5,53.565072411017205L86,53.17537832559203L84.5,57.075218945989675L83,53.98999686400401L81.5,58.10840163091673L80,46.80774775033925L78.5,51.381387785203096L77,52.14256153975535L75.5,56.428444314736645L74,54.487823675531395L72.5,56.88371114833645L71,53.66368233756422L69.5,61.82212063534139L68,65.37887886693227L66.5,67.60740586154193L65,66.81765499810935L63.5,68.71147044814899L62,60.27568074767854L60.5,56.7500024554139L59,58.18702665451952L57.5,54.84301957648441L56,54.225964846502755L54.5,45.65302216209984L53,39.02270042731379L51.5,42.11072685620539L50,47.44180365425707L48.5,48.335564445794446L47,55.00997945100095L45.5,56.982012300573814L44,54.33498363853425L42.5,56.34750367612917L41,63.947167817077464L39.5,60.74477394621375L38,56.31779580742751L36.5,54.537563996174256L35,52.855772295999834L33.5,53.025902967578915L32,57.0103122981308L30.5,59.30016948369644L29,61.28422915647688L27.5,60.24537902797681L26,57.98902285832439L24.5,62.228007851871666L23,64.15110446761774L21.5,67.64037650376638L20,73.58818032339455L18.5,70.63185105242091L17,71.67226191825614L15.5,75.1070675402698L14,84.16844446038981L12.5,82.43957247281375L11,80.75484542010052L9.5,92.60950915422698L8,84.78765623711142L6.5,81.44274021430071L5,78.92885297933614L3.5,75.34510404632864L2,78.06878648970931L0.5,76.55929161333492Z" fill="#2C55A1" opacity="0.3"></path></g></g><path class="foreground" aria-hidden="true" d="" display="none"></path></g></g></g><path class="foreground" aria-hidden="true" d="" display="none"></path></g></g><g class="mark-group role-legend" role="graphics-symbol" aria-roledescription="legend" aria-label="Symbol legend titled 'Lags' for fill color and stroke color with 1 value: 3 sec"><g transform="translate(285,0)"><path class="background" aria-hidden="true" d="M0,0h42v29h-42Z" pointer-events="none"></path><g><g class="mark-group role-legend-entry"><g transform="translate(0,16)"><path class="background" aria-hidden="true" d="M0,0h0v0h0Z" pointer-events="none"></path><g><g class="mark-group role-scope" role="graphics-object" aria-roledescription="group mark container"><g transform="translate(0,0)"><path class="background" aria-hidden="true" d="M0,0h42v12.5h-42Z" pointer-events="none" opacity="1"></path><g><g class="mark-symbol role-legend-symbol" pointer-events="none"><path transform="translate(6,6)" d="M5,0A5,5,0,1,1,-5,0A5,5,0,1,1,5,0" fill="#2C55A1" stroke="#2C55A1" stroke-width="1.5" opacity="0.3"></path></g><g class="mark-text role-legend-label" pointer-events="none"><text text-anchor="start" transform="translate(16,9)" font-family="sans-serif" font-size="10px" fill="#000" opacity="1">3 sec</text></g></g><path class="foreground" aria-hidden="true" d="" pointer-events="none" display="none"></path></g></g></g><path class="foreground" aria-hidden="true" d="" pointer-events="none" display="none"></path></g></g><g class="mark-text role-legend-title" pointer-events="none"><text text-anchor="start" transform="translate(0,9)" font-family="sans-serif" font-size="11px" font-weight="bold" fill="#000" opacity="1">Lags</text></g></g><path class="foreground" aria-hidden="true" d="" pointer-events="none" display="none"></path></g></g></g><path class="foreground" aria-hidden="true" d="" display="none"></path></g></g></g></svg>
