<?xml version="1.0" encoding="utf-8"?>
<!DOCTYPE svg PUBLIC "-//W3C//DTD SVG 1.1//EN" "http://www.w3.org/Graphics/SVG/1.1/DTD/svg11.dtd">
<svg class="marks" width="445" height="204" viewBox="0 0 445 204" version="1.1" xmlns="http://www.w3.org/2000/svg" xmlns:xlink="http://www.w3.org/1999/xlink"><defs><clipPath id="clip1"><rect x="0" y="0" width="128" height="130"></rect></clipPath><clipPath id="clip2"><rect x="0" y="0" width="128" height="130"></rect></clipPath><clipPath id="clip3"><rect x="0" y="0" width="128" height="130"></rect></clipPath><clipPath id="clip4"><rect x="0" y="0" width="128" height="130"></rect></clipPath><clipPath id="clip5"><rect x="0" y="0" width="128" height="130"></rect></clipPath><clipPath id="clip6"><rect x="0" y="0" width="128" height="130"></rect></clipPath></defs><rect width="445" height="204" fill="white"></rect><g fill="none" stroke-miterlimit="10" transform="translate(54,31)"><g class="mark-group role-frame root" role="graphics-object" aria-roledescription="group mark container"><g transform="translate(0,0)"><path class="background" aria-hidden="true" d="M0,0h0v0h0Z"></path><g><g class="mark-group role-column-header column_header" role="graphics-object" aria-roledescription="group mark container"><g transform="translate(0,-6)"><path class="background" aria-hidden="true" d="M0,0h128v0h-128Z"></path><g><g class="mark-group role-title"><g transform="translate(64,-20)"><path class="background" aria-hidden="true" d="M0,0h0v0h0Z" pointer-events="none"></path><g><g class="mark-text role-title-text" role="graphics-symbol" aria-roledescription="title" aria-label="Title text 'Global'" pointer-events="none"><text text-anchor="middle" transform="translate(0,8)" font-family="sans-serif" font-size="10px" font-weight="bold" fill="#000" opacity="1">Global</text></g></g><path class="foreground" aria-hidden="true" d="" pointer-events="none" display="none"></path></g></g></g><path class="foreground" aria-hidden="true" d="" display="none"></path></g><g transform="translate(220,-6)"><path class="background" aria-hidden="true" d="M0,0h128v0h-128Z"></path><g><g class="mark-group role-title"><g transform="translate(64,-20)"><path class="background" aria-hidden="true" d="M0,0h0v0h0Z" pointer-events="none"></path><g><g class="mark-text role-title-text" role="graphics-symbol" aria-roledescription="title" aria-label="Title text 'Object'" pointer-events="none"><text text-anchor="middle" transform="translate(0,8)" font-family="sans-serif" font-size="10px" font-weight="bold" fill="#000" opacity="1">Object</text></g></g><path class="foreground" aria-hidden="true" d="" pointer-events="none" display="none"></path></g></g></g><path class="foreground" aria-hidden="true" d="" display="none"></path></g></g><g class="mark-group role-column-footer column_footer" role="graphics-object" aria-roledescription="group mark container"><g transform="translate(0,136)"><path class="background" aria-hidden="true" d="M0,0h128v0h-128Z"></path><g><g class="mark-group role-axis" role="graphics-symbol" aria-roledescription="axis" aria-label="X-axis titled 'Time (s)' for a linear scale with values from 0 to 9"><g transform="translate(0.5,0.5)"><path class="background" aria-hidden="true" d="M0,0h0v0h0Z" pointer-events="none"></path><g><g class="mark-rule role-axis-tick" pointer-events="none"><line transform="translate(0,0)" x2="0" y2="5" stroke="#888" stroke-width="1" opacity="1"></line><line transform="translate(28,0)" x2="0" y2="5" stroke="#888" stroke-width="1" opacity="1"></line><line transform="translate(57,0)" x2="0" y2="5" stroke="#888" stroke-width="1" opacity="1"></line><line transform="translate(85,0)" x2="0" y2="5" stroke="#888" stroke-width="1" opacity="1"></line><line transform="translate(114,0)" x2="0" y2="5" stroke="#888" stroke-width="1" opacity="1"></line></g><g class="mark-text role-axis-label" pointer-events="none"><text text-anchor="start" transform="translate(0,15)" font-family="sans-serif" font-size="10px" fill="#000" opacity="1">0</text><text text-anchor="middle" transform="translate(28.444444444444443,15)" font-family="sans-serif" font-size="10px" fill="#000" opacity="1">2</text><text text-anchor="middle" transform="translate(56.888888888888886,15)" font-family="sans-serif" font-size="10px" fill="#000" opacity="1">4</text><text text-anchor="middle" transform="translate(85.33333333333333,15)" font-family="sans-serif" font-size="10px" fill="#000" opacity="1">6</text><text text-anchor="middle" transform="translate(113.77777777777777,15)" font-family="sans-serif" font-size="10px" fill="#000" opacity="1">8</text></g><g class="mark-rule role-axis-domain" pointer-events="none"><line transform="translate(0,0)" x2="128" y2="0" stroke="#888" stroke-width="1" opacity="1"></line></g><g class="mark-text role-axis-title" pointer-events="none"><text text-anchor="middle" transform="translate(64,30)" font-family="sans-serif" font-size="11px" font-weight="bold" fill="#000" opacity="1">Time (s)</text></g></g><path class="foreground" aria-hidden="true" d="" pointer-events="none" display="none"></path></g></g></g><path class="foreground" aria-hidden="true" d="" display="none"></path></g><g transform="translate(220,136)"><path class="background" aria-hidden="true" d="M0,0h128v0h-128Z"></path><g><g class="mark-group role-axis" role="graphics-symbol" aria-roledescription="axis" aria-label="X-axis titled 'Time (s)' for a linear scale with values from 0 to 9"><g transform="translate(0.5,0.5)"><path class="background" aria-hidden="true" d="M0,0h0v0h0Z" pointer-events="none"></path><g><g class="mark-rule role-axis-tick" pointer-events="none"><line transform="translate(0,0)" x2="0" y2="5" stroke="#888" stroke-width="1" opacity="1"></line><line transform="translate(28,0)" x2="0" y2="5" stroke="#888" stroke-width="1" opacity="1"></line><line transform="translate(57,0)" x2="0" y2="5" stroke="#888" stroke-width="1" opacity="1"></line><line transform="translate(85,0)" x2="0" y2="5" stroke="#888" stroke-width="1" opacity="1"></line><line transform="translate(114,0)" x2="0" y2="5" stroke="#888" stroke-width="1" opacity="1"></line></g><g class="mark-text role-axis-label" pointer-events="none"><text text-anchor="start" transform="translate(0,15)" font-family="sans-serif" font-size="10px" fill="#000" opacity="1">0</text><text text-anchor="middle" transform="translate(28.444444444444443,15)" font-family="sans-serif" font-size="10px" fill="#000" opacity="1">2</text><text text-anchor="middle" transform="translate(56.888888888888886,15)" font-family="sans-serif" font-size="10px" fill="#000" opacity="1">4</text><text text-anchor="middle" transform="translate(85.33333333333333,15)" font-family="sans-serif" font-size="10px" fill="#000" opacity="1">6</text><text text-anchor="middle" transform="translate(113.77777777777777,15)" font-family="sans-serif" font-size="10px" fill="#000" opacity="1">8</text></g><g class="mark-rule role-axis-domain" pointer-events="none"><line transform="translate(0,0)" x2="128" y2="0" stroke="#888" stroke-width="1" opacity="1"></line></g><g class="mark-text role-axis-title" pointer-events="none"><text text-anchor="middle" transform="translate(64,30)" font-family="sans-serif" font-size="11px" font-weight="bold" fill="#000" opacity="1">Time (s)</text></g></g><path class="foreground" aria-hidden="true" d="" pointer-events="none" display="none"></path></g></g></g><path class="foreground" aria-hidden="true" d="" display="none"></path></g></g><g class="mark-group role-scope cell" role="graphics-object" aria-roledescription="group mark container"><g transform="translate(0,0)"><path class="background" aria-hidden="true" d="M0.5,0.5h128v130h-128Z" stroke="#ddd"></path><g><g class="mark-group role-axis" aria-hidden="true"><g transform="translate(0.5,130.5)"><path class="background" aria-hidden="true" d="M0,0h0v0h0Z" pointer-events="none"></path><g><g class="mark-rule role-axis-grid" pointer-events="none"><line transform="translate(0,-130)" x2="0" y2="130" stroke="#ddd" stroke-width="1" opacity="1"></line><line transform="translate(28,-130)" x2="0" y2="130" stroke="#ddd" stroke-width="1" opacity="1"></line><line transform="translate(57,-130)" x2="0" y2="130" stroke="#ddd" stroke-width="1" opacity="1"></line><line transform="translate(85,-130)" x2="0" y2="130" stroke="#ddd" stroke-width="1" opacity="1"></line><line transform="translate(114,-130)" x2="0" y2="130" stroke="#ddd" stroke-width="1" opacity="1"></line></g></g><path class="foreground" aria-hidden="true" d="" pointer-events="none" display="none"></path></g></g><g class="mark-group role-axis" role="graphics-symbol" aria-roledescription="axis" aria-label="Y-axis titled 'Target - Non-target' for a linear scale with values from -0.10 to 0.16"><g transform="translate(0.5,0.5)"><path class="background" aria-hidden="true" d="M0,0h0v0h0Z" pointer-events="none"></path><g><g class="mark-rule role-axis-tick" pointer-events="none"><line transform="translate(0,130)" x2="-5" y2="0" stroke="#888" stroke-width="1" opacity="1"></line><line transform="translate(0,105)" x2="-5" y2="0" stroke="#888" stroke-width="1" opacity="1"></line><line transform="translate(0,80)" x2="-5" y2="0" stroke="#888" stroke-width="1" opacity="1"></line><line transform="translate(0,55)" x2="-5" y2="0" stroke="#888" stroke-width="1" opacity="1"></line><line transform="translate(0,30)" x2="-5" y2="0" stroke="#888" stroke-width="1" opacity="1"></line><line transform="translate(0,5)" x2="-5" y2="0" stroke="#888" stroke-width="1" opacity="1"></line></g><g class="mark-text role-axis-label" pointer-events="none"><text text-anchor="end" transform="translate(-7,133)" font-family="sans-serif" font-size="10px" fill="#000" opacity="1">-0.10</text><text text-anchor="end" transform="translate(-7,108)" font-family="sans-serif" font-size="10px" fill="#000" opacity="1">-0.05</text><text text-anchor="end" transform="translate(-7,83)" font-family="sans-serif" font-size="10px" fill="#000" opacity="1">0.00</text><text text-anchor="end" transform="translate(-7,57.99999999999999)" font-family="sans-serif" font-size="10px" fill="#000" opacity="1">0.05</text><text text-anchor="end" transform="translate(-7,32.99999999999999)" font-family="sans-serif" font-size="10px" fill="#000" opacity="1">0.10</text><text text-anchor="end" transform="translate(-7,8.00000000000001)" font-family="sans-serif" font-size="10px" fill="#000" opacity="1">0.15</text></g><g class="mark-rule role-axis-domain" pointer-events="none"><line transform="translate(0,130)" x2="0" y2="-130" stroke="#888" stroke-width="1" opacity="1"></line></g><g class="mark-text role-axis-title" pointer-events="none"><text text-anchor="middle" transform="translate(-36,65) rotate(-90) translate(0,-2)" font-family="sans-serif" font-size="11px" font-weight="bold" fill="#000" opacity="1">Target - Non-target</text></g></g><path class="foreground" aria-hidden="true" d="" pointer-events="none" display="none"></path></g></g><g class="mark-group role-axis" role="graphics-symbol" aria-roledescription="axis" aria-label="Y-axis titled 'P(switch)' for a linear scale with values from 0.0 to 1.0"><g transform="translate(128.5,0.5)"><path class="background" aria-hidden="true" d="M0,0h0v0h0Z" pointer-events="none"></path><g><g class="mark-rule role-axis-tick" pointer-events="none"><line transform="translate(0,130)" x2="5" y2="0" stroke="#888" stroke-width="1" opacity="1"></line><line transform="translate(0,104)" x2="5" y2="0" stroke="#888" stroke-width="1" opacity="1"></line><line transform="translate(0,78)" x2="5" y2="0" stroke="#888" stroke-width="1" opacity="1"></line><line transform="translate(0,52)" x2="5" y2="0" stroke="#888" stroke-width="1" opacity="1"></line><line transform="translate(0,26)" x2="5" y2="0" stroke="#888" stroke-width="1" opacity="1"></line><line transform="translate(0,0)" x2="5" y2="0" stroke="#888" stroke-width="1" opacity="1"></line></g><g class="mark-text role-axis-label" pointer-events="none"><text text-anchor="start" transform="translate(7,133)" font-family="sans-serif" font-size="10px" fill="#000" opacity="1">0.0</text><text text-anchor="start" transform="translate(7,107)" font-family="sans-serif" font-size="10px" fill="#000" opacity="1">0.2</text><text text-anchor="start" transform="translate(7,81)" font-family="sans-serif" font-size="10px" fill="#000" opacity="1">0.4</text><text text-anchor="start" transform="translate(7,55)" font-family="sans-serif" font-size="10px" fill="#000" opacity="1">0.6</text><text text-anchor="start" transform="translate(7,28.999999999999993)" font-family="sans-serif" font-size="10px" fill="#000" opacity="1">0.8</text><text text-anchor="start" transform="translate(7,3)" font-family="sans-serif" font-size="10px" fill="#000" opacity="1">1.0</text></g><g class="mark-rule role-axis-domain" pointer-events="none"><line transform="translate(0,130)" x2="0" y2="-130" stroke="#888" stroke-width="1" opacity="1"></line></g><g class="mark-text role-axis-title" pointer-events="none"><text text-anchor="middle" transform="translate(26,65) rotate(90) translate(0,-2)" font-family="sans-serif" font-size="11px" font-weight="bold" fill="#000" opacity="1">P(switch)</text></g></g><path class="foreground" aria-hidden="true" d="" pointer-events="none" display="none"></path></g></g><g class="mark-group role-scope child_layer_0_layer_0_layer_0_layer_0_pathgroup" role="graphics-object" aria-roledescription="group mark container"><g transform="translate(0,0)"><path class="background" aria-hidden="true" d="M0,0h128v130h-128Z"></path><g><g class="mark-line role-mark child_layer_0_layer_0_layer_0_layer_0_marks" clip-path="url(#clip1)" role="graphics-object" aria-roledescription="line mark container"><path aria-label="Source: global; Target - Non-target: -0.00124770191946; Time (s): 0.03125" role="graphics-symbol" aria-roledescription="line mark" d="M0.4444444444444444,80.62385095973103L1.7777777777777777,82.18949740088891L3.111111111111111,81.64081617673614L4.444444444444445,81.45020479770884L5.777777777777778,80.36819125082795L7.111111111111111,81.91276778439565L8.444444444444445,81.04202223578771L9.777777777777779,83.03802257914751L11.11111111111111,82.20223004448376L12.444444444444445,85.29769497631415L13.777777777777779,84.5654963867688L15.11111111111111,85.95438836438505L16.444444444444443,86.95784127800506L17.77777777777778,86.23596336548508L19.11111111111111,84.98793034142298L20.444444444444443,82.64099107957995L21.77777777777778,81.95203244911691L23.11111111111111,80.72056178296172L24.444444444444443,80.56113180738737L25.77777777777778,83.88847129009596L27.11111111111111,82.24300219971524L28.444444444444443,82.90573619873248L29.77777777777778,79.97489543051726L31.11111111111111,76.94931056950301L32.44444444444444,75.23826287179155L33.77777777777778,73.08273499031164L35.111111111111114,74.58666834486863L36.44444444444444,72.98237180254826L37.77777777777778,76.06869690109805L39.111111111111114,76.35995369317928L40.44444444444444,76.79769905650949L41.77777777777778,78.52243158484478L43.111111111111114,77.36812759243799L44.44444444444444,80.50025419589306L45.77777777777778,83.15517441119921L47.111111111111114,86.19415654061991L48.44444444444444,87.49400934453655L49.77777777777778,77.65740692410965L51.111111111111114,77.64560968304319L52.44444444444444,79.46127541925424L53.77777777777778,78.97687285413716L55.111111111111114,79.78677121201639L56.44444444444444,80.58731952594829L57.77777777777778,76.91987319588979L59.111111111111114,76.20788787291328L60.44444444444444,72.97934175021625L61.77777777777778,70.92014278194856L63.111111111111114,71.47001531480669L64.44444444444444,77.77689350673144L65.77777777777777,80.7282134689736L67.11111111111111,84.93593401568755L68.44444444444444,88.8701657969812L69.77777777777777,88.40770577413981L71.11111111111111,90.05000141799378L72.44444444444444,80.03467174771457L73.77777777777777,75.1791348100587L75.11111111111111,73.01257042008207L76.44444444444444,78.44665489964214L77.77777777777777,76.37874340530824L79.11111111111111,69.42016945335028L80.44444444444444,68.24720465710601L81.77777777777777,70.13553781371274L83.11111111111111,75.80845777911021L84.44444444444444,74.24319648457168L85.77777777777777,71.48733139676553L87.11111111111111,68.80891976136323L88.44444444444444,64.77225334212186L89.77777777777777,67.93513872263497L91.11111111111111,69.52516478411971L92.44444444444444,58.70164996424168L93.77777777777777,48.85040422930604L95.11111111111111,50.41308507652019L96.44444444444444,82.15368867825653L97.77777777777777,99.0597537952109L99.11111111111111,101.17459085798977L100.44444444444444,92.6127346547723L101.77777777777777,105.42003335146309L103.11111111111111,95.58023718793393L104.44444444444444,89.46074953744164L105.77777777777777,86.94931918544317L107.11111111111111,109.01168842463198L108.44444444444444,101.02287505344648L109.77777777777777,94.39094412751817L111.11111111111111,67.10678405940644L112.44444444444444,89.61065820922177L113.77777777777777,83.46819369156947L115.11111111111111,100.71751444812875L116.44444444444444,160.35235567860946" stroke="#0F3C5F" stroke-width="2" stroke-linejoin="round"></path></g></g><path class="foreground" aria-hidden="true" d="" display="none"></path></g></g><g class="mark-group role-scope child_layer_0_layer_0_layer_0_layer_1_layer_0_pathgroup" role="graphics-object" aria-roledescription="group mark container"><g transform="translate(0,0)"><path class="background" aria-hidden="true" d="M0,0h128v130h-128Z"></path><g><g class="mark-area role-mark child_layer_0_layer_0_layer_0_layer_1_layer_0_marks" clip-path="url(#clip2)" role="graphics-object" aria-roledescription="area mark container"><path aria-label="Target - Non-target: -0.0144693159105; upper_lower: 0.0115498172291; Source: global; Time (s): 0.03125; upper: 0.0115498172291; lower: -0.0144693159105" role="graphics-symbol" aria-roledescription="errorband" d="M0.4444444444444444,87.23465795523879L1.7777777777777777,88.39457765931257L3.111111111111111,87.29938987406989L4.444444444444445,88.03391142667415L5.777777777777778,86.65878322425988L7.111111111111111,88.2359005778677L8.444444444444445,86.08100400854211L9.777777777777779,89.11101932145556L11.11111111111111,89.48310176828164L12.444444444444445,91.89761701882348L13.777777777777779,90.56728126153999L15.11111111111111,94.02697557715841L16.444444444444443,95.5703633852409L17.77777777777778,94.51421092466663L19.11111111111111,94.11514525363386L20.444444444444443,91.02225710220394L21.77777777777778,90.88333334892762L23.11111111111111,89.62123287919258L24.444444444444443,89.03202525356008L25.77777777777778,92.25918599606901L27.11111111111111,91.64068226592093L28.444444444444443,92.51272679543268L29.77777777777778,88.8119512095301L31.11111111111111,84.64476413454756L32.44444444444444,83.28447210611314L33.77777777777778,80.60924576026684L35.111111111111114,81.33288466447941L36.44444444444444,79.90414777195129L37.77777777777778,83.58982091915348L39.111111111111114,82.77456775320573L40.44444444444444,83.25209244733436L41.77777777777778,85.54386987415691L43.111111111111114,84.6909116164533L44.44444444444444,87.34572871889593L45.77777777777778,89.65509425664159L47.111111111111114,93.32666224715902L48.44444444444444,95.7375650877456L49.77777777777778,86.45572872749382L51.111111111111114,86.08064570153026L52.44444444444444,86.68380538947613L53.77777777777778,86.50417455565582L55.111111111111114,87.44521943681649L56.44444444444444,88.75766221752717L57.77777777777778,84.10601267383498L59.111111111111114,84.46874073562905L60.44444444444444,81.14863845124219L61.77777777777778,78.91642190522272L63.111111111111114,79.55717354122442L64.44444444444444,86.5422817452071L65.77777777777777,88.64442622030985L67.11111111111111,93.02644787817124L68.44444444444444,96.40586697109671L69.77777777777777,94.95993502177993L71.11111111111111,97.38312981147563L72.44444444444444,87.88261110325702L73.77777777777777,82.60691947928174L75.11111111111111,80.74966278579113L76.44444444444444,86.171619304572L77.77777777777777,84.19404249149122L79.11111111111111,77.10032560447864L80.44444444444444,75.53831631918247L81.77777777777777,77.5221239468202L83.11111111111111,84.28157130842591L84.44444444444444,82.56067852739716L85.77777777777777,80.83376848037202L87.11111111111111,80.44266455738907L88.44444444444444,75.5616732102676L89.77777777777777,78.6857881399648L91.11111111111111,79.50874846857187L92.44444444444444,68.72238305676134L93.77777777777777,57.66850882363344L95.11111111111111,60.121372102380086L96.44444444444444,92.7345510761365L97.77777777777777,108.9606362646945L99.11111111111111,107.82758987420709L100.44444444444444,99.60788953165921L101.77777777777777,115.07908353009793L103.11111111111111,108.44575846864159L104.44444444444444,104.29829539928313L105.77777777777777,100.49420912702749L107.11111111111111,124.69390166828983L108.44444444444444,116.1676702671609L109.77777777777777,116.66622872708385L111.11111111111111,91.61234670121347L112.44444444444444,117.21568737079697L113.77777777777777,116.05609160812699L115.11111111111111,147.52512669051978L116.44444444444444,215.075486150519L116.44444444444444,110.61369314009806L115.11111111111111,51.6988305987403L113.77777777777777,50.820438494871695L112.44444444444444,61.27741403138449L111.11111111111111,44.4410181145182L109.77777777777777,73.75418068426724L108.44444444444444,86.47157568915755L107.11111111111111,93.10030310589974L105.77777777777777,73.27254163482765L104.44444444444444,74.39288116908722L103.11111111111111,82.50656078432208L101.77777777777777,95.53987758924202L100.44444444444444,86.15854046045791L99.11111111111111,95.23061478246741L97.77777777777777,88.08459224389406L96.44444444444444,70.84268808230917L95.11111111111111,40.42965891570754L93.77777777777777,40.24236279719081L92.44444444444444,49.08829723938978L91.11111111111111,59.56131802517446L89.77777777777777,57.03923224603823L88.44444444444444,53.75093871911598L87.11111111111111,57.62738768487394L85.77777777777777,62.38532580675226L84.44444444444444,65.10362269506248L83.11111111111111,66.62415547648011L81.77777777777777,62.5381647304593L80.44444444444444,60.53979261281323L79.11111111111111,61.53345120125844L77.77777777777777,68.5736870327851L76.44444444444444,70.71258031863L75.11111111111111,64.75307338775046L73.77777777777777,67.7517268509812L72.44444444444444,72.10462181433088L71.11111111111111,82.58256802675385L69.77777777777777,81.39009307865715L68.44444444444444,81.01836950571683L67.11111111111111,76.50722574381545L65.77777777777777,72.85454871197685L64.44444444444444,68.89696823328285L63.111111111111114,63.64654728625275L61.77777777777778,63.32826639632333L60.44444444444444,64.9254101337846L59.111111111111114,68.61920274338871L57.77777777777778,69.69384183084331L56.44444444444444,72.55181620906468L55.111111111111114,72.59243782993198L53.77777777777778,72.1987765963025L52.44444444444444,72.86572266073925L51.111111111111114,70.13555319029523L49.77777777777778,69.15717751595665L48.44444444444444,79.96548649693428L47.111111111111114,79.35293405997623L45.77777777777778,76.4497804415236L44.44444444444444,73.41944618401442L43.111111111111114,70.25859826707061L41.77777777777778,71.61191913409449L40.44444444444444,70.58543743302852L39.111111111111114,70.72218178828223L37.77777777777778,68.9052763820921L36.44444444444444,66.60657030330896L35.111111111111114,67.57753711601171L33.77777777777778,65.60323529231154L32.44444444444444,67.12688591442841L31.11111111111111,69.4731371147333L29.77777777777778,70.99219003543584L28.444444444444443,73.20488191733277L27.11111111111111,72.57968167554965L25.77777777777778,75.21161149603074L24.444444444444443,71.17192731377591L23.11111111111111,71.55558705587298L21.77777777777778,72.93932963735051L20.444444444444443,74.4941431799789L19.11111111111111,76.47860851157728L17.77777777777778,78.29796974717253L16.444444444444443,78.93043180883228L15.11111111111111,78.14873712336988L13.777777777777779,78.41973601698774L12.444444444444445,78.67707841483549L11.11111111111111,75.17070765539921L9.777777777777779,76.9935231694163L8.444444444444445,76.04281206519917L7.111111111111111,75.64990639882805L5.777777777777778,74.16317454995898L4.444444444444445,74.88273972140472L3.111111111111111,75.78199675797411L1.7777777777777777,75.83832032267559L0.4444444444444444,74.22509138543197Z" fill="#0F3C5F" opacity="0.3"></path></g></g><path class="foreground" aria-hidden="true" d="" display="none"></path></g></g><g class="mark-rule role-mark child_layer_0_layer_0_layer_1_marks" clip-path="url(#clip3)" role="graphics-symbol" aria-roledescription="rule mark container"><line transform="translate(128,80)" x2="-128" y2="0" stroke="black" stroke-width="1" stroke-dasharray="4,4"></line><line transform="translate(128,80)" x2="-128" y2="0" stroke="black" stroke-width="1" stroke-dasharray="4,4"></line><line transform="translate(128,80)" x2="-128" y2="0" stroke="black" stroke-width="1" stroke-dasharray="4,4"></line><line transform="translate(128,80)" x2="-128" y2="0" stroke="black" stroke-width="1" stroke-dasharray="4,4"></line><line transform="translate(128,80)" x2="-128" y2="0" stroke="black" stroke-width="1" stroke-dasharray="4,4"></line><line transform="translate(128,80)" x2="-128" y2="0" stroke="black" stroke-width="1" stroke-dasharray="4,4"></line><line transform="translate(128,80)" x2="-128" y2="0" stroke="black" stroke-width="1" stroke-dasharray="4,4"></line><line transform="translate(128,80)" x2="-128" y2="0" stroke="black" stroke-width="1" stroke-dasharray="4,4"></line><line transform="translate(128,80)" x2="-128" y2="0" stroke="black" stroke-width="1" stroke-dasharray="4,4"></line><line transform="translate(128,80)" x2="-128" y2="0" stroke="black" stroke-width="1" stroke-dasharray="4,4"></line><line transform="translate(128,80)" x2="-128" y2="0" stroke="black" stroke-width="1" stroke-dasharray="4,4"></line><line transform="translate(128,80)" x2="-128" y2="0" stroke="black" stroke-width="1" stroke-dasharray="4,4"></line><line transform="translate(128,80)" x2="-128" y2="0" stroke="black" stroke-width="1" stroke-dasharray="4,4"></line><line transform="translate(128,80)" x2="-128" y2="0" stroke="black" stroke-width="1" stroke-dasharray="4,4"></line><line transform="translate(128,80)" x2="-128" y2="0" stroke="black" stroke-width="1" stroke-dasharray="4,4"></line><line transform="translate(128,80)" x2="-128" y2="0" stroke="black" stroke-width="1" stroke-dasharray="4,4"></line><line transform="translate(128,80)" x2="-128" y2="0" stroke="black" stroke-width="1" stroke-dasharray="4,4"></line><line transform="translate(128,80)" x2="-128" y2="0" stroke="black" stroke-width="1" stroke-dasharray="4,4"></line><line transform="translate(128,80)" x2="-128" y2="0" stroke="black" stroke-width="1" stroke-dasharray="4,4"></line><line transform="translate(128,80)" x2="-128" y2="0" stroke="black" stroke-width="1" stroke-dasharray="4,4"></line><line transform="translate(128,80)" x2="-128" y2="0" stroke="black" stroke-width="1" stroke-dasharray="4,4"></line><line transform="translate(128,80)" x2="-128" y2="0" stroke="black" stroke-width="1" stroke-dasharray="4,4"></line><line transform="translate(128,80)" x2="-128" y2="0" stroke="black" stroke-width="1" stroke-dasharray="4,4"></line><line transform="translate(128,80)" x2="-128" y2="0" stroke="black" stroke-width="1" stroke-dasharray="4,4"></line><line transform="translate(128,80)" x2="-128" y2="0" stroke="black" stroke-width="1" stroke-dasharray="4,4"></line><line transform="translate(128,80)" x2="-128" y2="0" stroke="black" stroke-width="1" stroke-dasharray="4,4"></line><line transform="translate(128,80)" x2="-128" y2="0" stroke="black" stroke-width="1" stroke-dasharray="4,4"></line><line transform="translate(128,80)" x2="-128" y2="0" stroke="black" stroke-width="1" stroke-dasharray="4,4"></line><line transform="translate(128,80)" x2="-128" y2="0" stroke="black" stroke-width="1" stroke-dasharray="4,4"></line><line transform="translate(128,80)" x2="-128" y2="0" stroke="black" stroke-width="1" stroke-dasharray="4,4"></line><line transform="translate(128,80)" x2="-128" y2="0" stroke="black" stroke-width="1" stroke-dasharray="4,4"></line><line transform="translate(128,80)" x2="-128" y2="0" stroke="black" stroke-width="1" stroke-dasharray="4,4"></line><line transform="translate(128,80)" x2="-128" y2="0" stroke="black" stroke-width="1" stroke-dasharray="4,4"></line><line transform="translate(128,80)" x2="-128" y2="0" stroke="black" stroke-width="1" stroke-dasharray="4,4"></line><line transform="translate(128,80)" x2="-128" y2="0" stroke="black" stroke-width="1" stroke-dasharray="4,4"></line><line transform="translate(128,80)" x2="-128" y2="0" stroke="black" stroke-width="1" stroke-dasharray="4,4"></line><line transform="translate(128,80)" x2="-128" y2="0" stroke="black" stroke-width="1" stroke-dasharray="4,4"></line><line transform="translate(128,80)" x2="-128" y2="0" stroke="black" stroke-width="1" stroke-dasharray="4,4"></line><line transform="translate(128,80)" x2="-128" y2="0" stroke="black" stroke-width="1" stroke-dasharray="4,4"></line><line transform="translate(128,80)" x2="-128" y2="0" stroke="black" stroke-width="1" stroke-dasharray="4,4"></line><line transform="translate(128,80)" x2="-128" y2="0" stroke="black" stroke-width="1" stroke-dasharray="4,4"></line><line transform="translate(128,80)" x2="-128" y2="0" stroke="black" stroke-width="1" stroke-dasharray="4,4"></line><line transform="translate(128,80)" x2="-128" y2="0" stroke="black" stroke-width="1" stroke-dasharray="4,4"></line><line transform="translate(128,80)" x2="-128" y2="0" stroke="black" stroke-width="1" stroke-dasharray="4,4"></line><line transform="translate(128,80)" x2="-128" y2="0" stroke="black" stroke-width="1" stroke-dasharray="4,4"></line><line transform="translate(128,80)" x2="-128" y2="0" stroke="black" stroke-width="1" stroke-dasharray="4,4"></line><line transform="translate(128,80)" x2="-128" y2="0" stroke="black" stroke-width="1" stroke-dasharray="4,4"></line><line transform="translate(128,80)" x2="-128" y2="0" stroke="black" stroke-width="1" stroke-dasharray="4,4"></line><line transform="translate(128,80)" x2="-128" y2="0" stroke="black" stroke-width="1" stroke-dasharray="4,4"></line><line transform="translate(128,80)" x2="-128" y2="0" stroke="black" stroke-width="1" stroke-dasharray="4,4"></line><line transform="translate(128,80)" x2="-128" y2="0" stroke="black" stroke-width="1" stroke-dasharray="4,4"></line><line transform="translate(128,80)" x2="-128" y2="0" stroke="black" stroke-width="1" stroke-dasharray="4,4"></line><line transform="translate(128,80)" x2="-128" y2="0" stroke="black" stroke-width="1" stroke-dasharray="4,4"></line><line transform="translate(128,80)" x2="-128" y2="0" stroke="black" stroke-width="1" stroke-dasharray="4,4"></line><line transform="translate(128,80)" x2="-128" y2="0" stroke="black" stroke-width="1" stroke-dasharray="4,4"></line><line transform="translate(128,80)" x2="-128" y2="0" stroke="black" stroke-width="1" stroke-dasharray="4,4"></line><line transform="translate(128,80)" x2="-128" y2="0" stroke="black" stroke-width="1" stroke-dasharray="4,4"></line><line transform="translate(128,80)" x2="-128" y2="0" stroke="black" stroke-width="1" stroke-dasharray="4,4"></line><line transform="translate(128,80)" x2="-128" y2="0" stroke="black" stroke-width="1" stroke-dasharray="4,4"></line><line transform="translate(128,80)" x2="-128" y2="0" stroke="black" stroke-width="1" stroke-dasharray="4,4"></line><line transform="translate(128,80)" x2="-128" y2="0" stroke="black" stroke-width="1" stroke-dasharray="4,4"></line><line transform="translate(128,80)" x2="-128" y2="0" stroke="black" stroke-width="1" stroke-dasharray="4,4"></line><line transform="translate(128,80)" x2="-128" y2="0" stroke="black" stroke-width="1" stroke-dasharray="4,4"></line><line transform="translate(128,80)" x2="-128" y2="0" stroke="black" stroke-width="1" stroke-dasharray="4,4"></line><line transform="translate(128,80)" x2="-128" y2="0" stroke="black" stroke-width="1" stroke-dasharray="4,4"></line><line transform="translate(128,80)" x2="-128" y2="0" stroke="black" stroke-width="1" stroke-dasharray="4,4"></line><line transform="translate(128,80)" x2="-128" y2="0" stroke="black" stroke-width="1" stroke-dasharray="4,4"></line><line transform="translate(128,80)" x2="-128" y2="0" stroke="black" stroke-width="1" stroke-dasharray="4,4"></line><line transform="translate(128,80)" x2="-128" y2="0" stroke="black" stroke-width="1" stroke-dasharray="4,4"></line><line transform="translate(128,80)" x2="-128" y2="0" stroke="black" stroke-width="1" stroke-dasharray="4,4"></line><line transform="translate(128,80)" x2="-128" y2="0" stroke="black" stroke-width="1" stroke-dasharray="4,4"></line><line transform="translate(128,80)" x2="-128" y2="0" stroke="black" stroke-width="1" stroke-dasharray="4,4"></line><line transform="translate(128,80)" x2="-128" y2="0" stroke="black" stroke-width="1" stroke-dasharray="4,4"></line><line transform="translate(128,80)" x2="-128" y2="0" stroke="black" stroke-width="1" stroke-dasharray="4,4"></line><line transform="translate(128,80)" x2="-128" y2="0" stroke="black" stroke-width="1" stroke-dasharray="4,4"></line><line transform="translate(128,80)" x2="-128" y2="0" stroke="black" stroke-width="1" stroke-dasharray="4,4"></line><line transform="translate(128,80)" x2="-128" y2="0" stroke="black" stroke-width="1" stroke-dasharray="4,4"></line><line transform="translate(128,80)" x2="-128" y2="0" stroke="black" stroke-width="1" stroke-dasharray="4,4"></line><line transform="translate(128,80)" x2="-128" y2="0" stroke="black" stroke-width="1" stroke-dasharray="4,4"></line><line transform="translate(128,80)" x2="-128" y2="0" stroke="black" stroke-width="1" stroke-dasharray="4,4"></line><line transform="translate(128,80)" x2="-128" y2="0" stroke="black" stroke-width="1" stroke-dasharray="4,4"></line><line transform="translate(128,80)" x2="-128" y2="0" stroke="black" stroke-width="1" stroke-dasharray="4,4"></line><line transform="translate(128,80)" x2="-128" y2="0" stroke="black" stroke-width="1" stroke-dasharray="4,4"></line><line transform="translate(128,80)" x2="-128" y2="0" stroke="black" stroke-width="1" stroke-dasharray="4,4"></line><line transform="translate(128,80)" x2="-128" y2="0" stroke="black" stroke-width="1" stroke-dasharray="4,4"></line><line transform="translate(128,80)" x2="-128" y2="0" stroke="black" stroke-width="1" stroke-dasharray="4,4"></line><line transform="translate(128,80)" x2="-128" y2="0" stroke="black" stroke-width="1" stroke-dasharray="4,4"></line><line transform="translate(128,80)" x2="-128" y2="0" stroke="black" stroke-width="1" stroke-dasharray="4,4"></line></g><g class="mark-area role-mark child_layer_0_layer_1_marks" role="graphics-object" aria-roledescription="area mark container"><path aria-label="P(switch): 1; time: 0.03125" role="graphics-symbol" aria-roledescription="area mark" d="M0.4444444444444444,0L1.7777777777777777,0L3.111111111111111,0L4.444444444444445,53.8362760834671L5.777777777777778,78.87640449438202L7.111111111111111,98.2825040128411L8.444444444444445,106.0032102728732L9.777777777777779,109.75922953451042L11.11111111111111,109.75922953451042L12.444444444444445,109.75922953451042L13.777777777777779,109.75922953451042L15.11111111111111,112.8892455858748L16.444444444444443,117.68860353130016L17.77777777777778,123.11396468699839L19.11111111111111,123.11396468699839L20.444444444444443,130L21.77777777777778,130L23.11111111111111,130L24.444444444444443,123.53130016051365L25.77777777777778,79.71107544141252L27.11111111111111,63.64365971107544L28.444444444444443,51.12359550561797L29.77777777777778,38.81219903691814L31.11111111111111,35.47351524879615L32.44444444444444,28.378812199036922L33.77777777777778,23.9967897271268L35.111111111111114,20.24077046548956L36.44444444444444,20.24077046548956L37.77777777777778,20.24077046548956L39.111111111111114,20.24077046548956L40.44444444444444,20.24077046548956L41.77777777777778,36.725521669341894L43.111111111111114,64.47833065810593L44.44444444444444,69.2776886035313L45.77777777777778,59.26163723916534L47.111111111111114,50.706260032102726L48.44444444444444,52.1669341894061L49.77777777777778,45.07223113964687L51.111111111111114,32.55216693418941L52.44444444444444,30.256821829855543L53.77777777777778,22.53611556982344L55.111111111111114,20.449438202247197L56.44444444444444,13.354735152487963L57.77777777777778,8.972712680577855L59.111111111111114,8.972712680577855L60.44444444444444,18.571428571428577L61.77777777777778,39.855537720706266L63.111111111111114,51.95826645264848L64.44444444444444,69.69502407704655L65.77777777777777,75.32905296950241L67.11111111111111,88.47512038523276L68.44444444444444,91.39646869983949L69.77777777777777,95.15248796147672L71.11111111111111,99.74317817014447L72.44444444444444,101.8298555377207L73.77777777777777,105.79454253611557L75.11111111111111,107.25521669341893L76.44444444444444,101.20385232744783L77.77777777777777,86.80577849117174L79.11111111111111,57.80096308186196L80.44444444444444,49.45425361155698L81.77777777777777,43.19422150882825L83.11111111111111,36.099518459069024L84.44444444444444,30.67415730337079L85.77777777777777,39.02086677367576L87.11111111111111,39.39393939393939L88.44444444444444,38.956228956228955L89.77777777777777,36.390845070422536L91.11111111111111,50.58098591549295L92.44444444444444,62.70871985157699L93.77777777777777,91.5909090909091L95.11111111111111,91.5909090909091L96.44444444444444,92.33400402414487L97.77777777777777,97.04225352112677L99.11111111111111,109.07444668008048L100.44444444444444,109.07444668008048L101.77777777777777,105.41247484909456L103.11111111111111,113.99568034557237L104.44444444444444,113.99568034557237L105.77777777777777,115.96112311015119L107.11111111111111,115.96112311015119L108.44444444444444,120.3030303030303L109.77777777777777,130L111.11111111111111,130L112.44444444444444,130L113.77777777777777,130L115.11111111111111,130L116.44444444444444,130L116.44444444444444,130L115.11111111111111,130L113.77777777777777,130L112.44444444444444,130L111.11111111111111,130L109.77777777777777,130L108.44444444444444,130L107.11111111111111,130L105.77777777777777,130L104.44444444444444,130L103.11111111111111,130L101.77777777777777,130L100.44444444444444,130L99.11111111111111,130L97.77777777777777,130L96.44444444444444,130L95.11111111111111,130L93.77777777777777,130L92.44444444444444,130L91.11111111111111,130L89.77777777777777,130L88.44444444444444,130L87.11111111111111,130L85.77777777777777,130L84.44444444444444,130L83.11111111111111,130L81.77777777777777,130L80.44444444444444,130L79.11111111111111,130L77.77777777777777,130L76.44444444444444,130L75.11111111111111,130L73.77777777777777,130L72.44444444444444,130L71.11111111111111,130L69.77777777777777,130L68.44444444444444,130L67.11111111111111,130L65.77777777777777,130L64.44444444444444,130L63.111111111111114,130L61.77777777777778,130L60.44444444444444,130L59.111111111111114,130L57.77777777777778,130L56.44444444444444,130L55.111111111111114,130L53.77777777777778,130L52.44444444444444,130L51.111111111111114,130L49.77777777777778,130L48.44444444444444,130L47.111111111111114,130L45.77777777777778,130L44.44444444444444,130L43.111111111111114,130L41.77777777777778,130L40.44444444444444,130L39.111111111111114,130L37.77777777777778,130L36.44444444444444,130L35.111111111111114,130L33.77777777777778,130L32.44444444444444,130L31.11111111111111,130L29.77777777777778,130L28.444444444444443,130L27.11111111111111,130L25.77777777777778,130L24.444444444444443,130L23.11111111111111,130L21.77777777777778,130L20.444444444444443,130L19.11111111111111,130L17.77777777777778,130L16.444444444444443,130L15.11111111111111,130L13.777777777777779,130L12.444444444444445,130L11.11111111111111,130L9.777777777777779,130L8.444444444444445,130L7.111111111111111,130L5.777777777777778,130L4.444444444444445,130L3.111111111111111,130L1.7777777777777777,130L0.4444444444444444,130Z" fill="black" opacity="0.3"></path></g></g><path class="foreground" aria-hidden="true" d="" display="none"></path></g><g transform="translate(220,0)"><path class="background" aria-hidden="true" d="M0.5,0.5h128v130h-128Z" stroke="#ddd"></path><g><g class="mark-group role-axis" aria-hidden="true"><g transform="translate(0.5,130.5)"><path class="background" aria-hidden="true" d="M0,0h0v0h0Z" pointer-events="none"></path><g><g class="mark-rule role-axis-grid" pointer-events="none"><line transform="translate(0,-130)" x2="0" y2="130" stroke="#ddd" stroke-width="1" opacity="1"></line><line transform="translate(28,-130)" x2="0" y2="130" stroke="#ddd" stroke-width="1" opacity="1"></line><line transform="translate(57,-130)" x2="0" y2="130" stroke="#ddd" stroke-width="1" opacity="1"></line><line transform="translate(85,-130)" x2="0" y2="130" stroke="#ddd" stroke-width="1" opacity="1"></line><line transform="translate(114,-130)" x2="0" y2="130" stroke="#ddd" stroke-width="1" opacity="1"></line></g></g><path class="foreground" aria-hidden="true" d="" pointer-events="none" display="none"></path></g></g><g class="mark-group role-axis" role="graphics-symbol" aria-roledescription="axis" aria-label="Y-axis titled 'Target - Non-target' for a linear scale with values from -0.10 to 0.16"><g transform="translate(0.5,0.5)"><path class="background" aria-hidden="true" d="M0,0h0v0h0Z" pointer-events="none"></path><g><g class="mark-rule role-axis-tick" pointer-events="none"><line transform="translate(0,130)" x2="-5" y2="0" stroke="#888" stroke-width="1" opacity="1"></line><line transform="translate(0,105)" x2="-5" y2="0" stroke="#888" stroke-width="1" opacity="1"></line><line transform="translate(0,80)" x2="-5" y2="0" stroke="#888" stroke-width="1" opacity="1"></line><line transform="translate(0,55)" x2="-5" y2="0" stroke="#888" stroke-width="1" opacity="1"></line><line transform="translate(0,30)" x2="-5" y2="0" stroke="#888" stroke-width="1" opacity="1"></line><line transform="translate(0,5)" x2="-5" y2="0" stroke="#888" stroke-width="1" opacity="1"></line></g><g class="mark-text role-axis-label" pointer-events="none"><text text-anchor="end" transform="translate(-7,133)" font-family="sans-serif" font-size="10px" fill="#000" opacity="1">-0.10</text><text text-anchor="end" transform="translate(-7,108)" font-family="sans-serif" font-size="10px" fill="#000" opacity="1">-0.05</text><text text-anchor="end" transform="translate(-7,83)" font-family="sans-serif" font-size="10px" fill="#000" opacity="1">0.00</text><text text-anchor="end" transform="translate(-7,57.99999999999999)" font-family="sans-serif" font-size="10px" fill="#000" opacity="1">0.05</text><text text-anchor="end" transform="translate(-7,32.99999999999999)" font-family="sans-serif" font-size="10px" fill="#000" opacity="1">0.10</text><text text-anchor="end" transform="translate(-7,8.00000000000001)" font-family="sans-serif" font-size="10px" fill="#000" opacity="1">0.15</text></g><g class="mark-rule role-axis-domain" pointer-events="none"><line transform="translate(0,130)" x2="0" y2="-130" stroke="#888" stroke-width="1" opacity="1"></line></g><g class="mark-text role-axis-title" pointer-events="none"><text text-anchor="middle" transform="translate(-36,65) rotate(-90) translate(0,-2)" font-family="sans-serif" font-size="11px" font-weight="bold" fill="#000" opacity="1">Target - Non-target</text></g></g><path class="foreground" aria-hidden="true" d="" pointer-events="none" display="none"></path></g></g><g class="mark-group role-axis" role="graphics-symbol" aria-roledescription="axis" aria-label="Y-axis titled 'P(switch)' for a linear scale with values from 0.0 to 1.0"><g transform="translate(128.5,0.5)"><path class="background" aria-hidden="true" d="M0,0h0v0h0Z" pointer-events="none"></path><g><g class="mark-rule role-axis-tick" pointer-events="none"><line transform="translate(0,130)" x2="5" y2="0" stroke="#888" stroke-width="1" opacity="1"></line><line transform="translate(0,104)" x2="5" y2="0" stroke="#888" stroke-width="1" opacity="1"></line><line transform="translate(0,78)" x2="5" y2="0" stroke="#888" stroke-width="1" opacity="1"></line><line transform="translate(0,52)" x2="5" y2="0" stroke="#888" stroke-width="1" opacity="1"></line><line transform="translate(0,26)" x2="5" y2="0" stroke="#888" stroke-width="1" opacity="1"></line><line transform="translate(0,0)" x2="5" y2="0" stroke="#888" stroke-width="1" opacity="1"></line></g><g class="mark-text role-axis-label" pointer-events="none"><text text-anchor="start" transform="translate(7,133)" font-family="sans-serif" font-size="10px" fill="#000" opacity="1">0.0</text><text text-anchor="start" transform="translate(7,107)" font-family="sans-serif" font-size="10px" fill="#000" opacity="1">0.2</text><text text-anchor="start" transform="translate(7,81)" font-family="sans-serif" font-size="10px" fill="#000" opacity="1">0.4</text><text text-anchor="start" transform="translate(7,55)" font-family="sans-serif" font-size="10px" fill="#000" opacity="1">0.6</text><text text-anchor="start" transform="translate(7,28.999999999999993)" font-family="sans-serif" font-size="10px" fill="#000" opacity="1">0.8</text><text text-anchor="start" transform="translate(7,3)" font-family="sans-serif" font-size="10px" fill="#000" opacity="1">1.0</text></g><g class="mark-rule role-axis-domain" pointer-events="none"><line transform="translate(0,130)" x2="0" y2="-130" stroke="#888" stroke-width="1" opacity="1"></line></g><g class="mark-text role-axis-title" pointer-events="none"><text text-anchor="middle" transform="translate(26,65) rotate(90) translate(0,-2)" font-family="sans-serif" font-size="11px" font-weight="bold" fill="#000" opacity="1">P(switch)</text></g></g><path class="foreground" aria-hidden="true" d="" pointer-events="none" display="none"></path></g></g><g class="mark-group role-scope child_layer_0_layer_0_layer_0_layer_0_pathgroup" role="graphics-object" aria-roledescription="group mark container"><g transform="translate(0,0)"><path class="background" aria-hidden="true" d="M0,0h128v130h-128Z"></path><g><g class="mark-line role-mark child_layer_0_layer_0_layer_0_layer_0_marks" clip-path="url(#clip4)" role="graphics-object" aria-roledescription="line mark container"><path aria-label="Source: object; Target - Non-target: -0.0257862423967; Time (s): 0.03125" role="graphics-symbol" aria-roledescription="line mark" d="M0.4444444444444444,92.89312119834841L1.7777777777777777,85.7558651192708L3.111111111111111,86.20720432834649L4.444444444444445,87.18600846420298L5.777777777777778,86.72518573474125L7.111111111111111,88.43396933736094L8.444444444444445,87.14245213933656L9.777777777777779,82.15008078746216L11.11111111111111,80.4808660187518L12.444444444444445,78.82538565102297L13.777777777777779,70.9249032911118L15.11111111111111,70.97828275895172L16.444444444444443,70.8472928627132L17.77777777777778,69.80323182442766L19.11111111111111,68.02141419979213L20.444444444444443,65.88698398078876L21.77777777777778,66.35907975443119L23.11111111111111,67.57028662822972L24.444444444444443,71.5292191806086L25.77777777777778,73.0061151208692L27.11111111111111,72.7880098182274L28.444444444444443,72.1470081829769L29.77777777777778,69.78486338589855L31.11111111111111,68.0119391850338L32.44444444444444,72.11277827898739L33.77777777777778,73.76682626532808L35.111111111111114,75.18469362241461L36.44444444444444,79.10290166536596L37.77777777777778,78.4449478858811L39.111111111111114,75.53840847292608L40.44444444444444,76.41652497549715L41.77777777777778,77.06739558970838L43.111111111111114,79.13047919803257L44.44444444444444,77.44424725926136L45.77777777777778,78.37973492719442L47.111111111111114,80.66962266474714L48.44444444444444,74.69800531111889L49.77777777777778,74.35680063305963L51.111111111111114,74.16149822616482L52.44444444444444,75.85027965699162L53.77777777777778,79.32896164309358L55.111111111111114,78.16215687669487L56.44444444444444,77.27961503025995L57.77777777777778,78.20174236492895L59.111111111111114,83.13231684012365L60.44444444444444,78.99892530548225L61.77777777777778,77.52293210998654L63.111111111111114,75.34586811061442L64.44444444444444,76.17891216442578L65.77777777777777,73.6446985429155L67.11111111111111,73.88682396182882L68.44444444444444,70.16208724840808L69.77777777777777,78.95497647728094L71.11111111111111,80.54787269384006L72.44444444444444,82.85969623041623L73.77777777777777,76.77565961543097L75.11111111111111,75.59747988427434L76.44444444444444,65.2022758774766L77.77777777777777,64.6403672464792L79.11111111111111,58.372382035995344L80.44444444444444,63.842297358730356L81.77777777777777,62.808009100118234L83.11111111111111,59.51041643726986L84.44444444444444,54.60666313715421L85.77777777777777,63.70482442137497L87.11111111111111,66.04476854659156L88.44444444444444,68.0713584726405L89.77777777777777,66.96998814970419L91.11111111111111,76.28337487469894L92.44444444444444,64.90833234529657L93.77777777777777,76.56247854461682L95.11111111111111,91.4101878126993L96.44444444444444,100.31534218626471L97.77777777777777,104.373053439509L99.11111111111111,80.49364491303311L100.44444444444444,74.6316274432142L101.77777777777777,62.045071741611395L103.11111111111111,63.92379989677128L104.44444444444444,56.58329555306547L105.77777777777777,50.34524607261816L107.11111111111111,58.66273337172147L108.44444444444444,56.533893001997654L109.77777777777777,32.6052645705148L111.11111111111111,21.82848016339626L112.44444444444444,37.62725799871847L113.77777777777777,43.29938135515126L115.11111111111111,71.16710931953774L116.44444444444444,45.06495056816651" stroke="#687B3E" stroke-width="2" stroke-linejoin="round"></path></g></g><path class="foreground" aria-hidden="true" d="" display="none"></path></g></g><g class="mark-group role-scope child_layer_0_layer_0_layer_0_layer_1_layer_0_pathgroup" role="graphics-object" aria-roledescription="group mark container"><g transform="translate(0,0)"><path class="background" aria-hidden="true" d="M0,0h128v130h-128Z"></path><g><g class="mark-area role-mark child_layer_0_layer_0_layer_0_layer_1_layer_0_marks" clip-path="url(#clip5)" role="graphics-object" aria-roledescription="area mark container"><path aria-label="Target - Non-target: -0.0457638114378; upper_lower: -0.0054224003684; Source: object; Time (s): 0.03125; upper: -0.0054224003684; lower: -0.0457638114378" role="graphics-symbol" aria-roledescription="errorband" d="M0.4444444444444444,102.88190571890512L1.7777777777777777,97.44632238200656L3.111111111111111,99.30362630771609L4.444444444444445,101.21601331031727L5.777777777777778,100.93383913812659L7.111111111111111,100.26762717586236L8.444444444444445,98.97927129817938L9.777777777777779,92.58966304721855L11.11111111111111,91.00229874455545L12.444444444444445,87.84906967913071L13.777777777777779,80.98641346763186L15.11111111111111,80.51560721330686L16.444444444444443,81.00395943141338L17.77777777777778,80.28539127748122L19.11111111111111,77.71181507343383L20.444444444444443,74.9381962748888L21.77777777777778,75.20482579988716L23.11111111111111,74.65965782363016L24.444444444444443,80.8947914460826L25.77777777777778,83.45069386049641L27.11111111111111,82.46347466124703L28.444444444444443,83.48818750220885L29.77777777777778,82.04308403959638L31.11111111111111,77.50270879450913L32.44444444444444,82.78002522517423L33.77777777777778,81.36072651904995L35.111111111111114,84.56045368749842L36.44444444444444,89.52002368784257L37.77777777777778,89.0810469238733L39.111111111111114,85.72403815619654L40.44444444444444,85.55496403694438L41.77777777777778,86.66431084453369L43.111111111111114,87.82727734448554L44.44444444444444,84.89704295020236L45.77777777777778,86.6353845865227L47.111111111111114,90.91108525355406L48.44444444444444,84.81987792914533L49.77777777777778,85.2478344348982L51.111111111111114,85.75002769282794L52.44444444444444,87.79561268498004L53.77777777777778,91.38739217679408L55.111111111111114,91.24587536634013L56.44444444444444,90.20745242656261L57.77777777777778,90.9759409752993L59.111111111111114,97.20728031919316L60.44444444444444,93.11339392802125L61.77777777777778,90.78683952149238L63.111111111111114,90.76663573080654L64.44444444444444,89.42694374336591L65.77777777777777,85.17593294424961L67.11111111111111,88.14750117261218L68.44444444444444,83.56344748906938L69.77777777777777,89.8678276980589L71.11111111111111,91.52016415647329L72.44444444444444,95.52310422574728L73.77777777777777,89.35241002150799L75.11111111111111,87.60375225536156L76.44444444444444,76.50117331721714L77.77777777777777,76.2848867555487L79.11111111111111,70.909459306612L80.44444444444444,74.37119419279604L81.77777777777777,72.90428479568558L83.11111111111111,68.11267555059581L84.44444444444444,64.63062381535299L85.77777777777777,75.44043392077945L87.11111111111111,79.55022157054024L88.44444444444444,80.33746810453061L89.77777777777777,81.13930493988897L91.11111111111111,89.43163887769607L92.44444444444444,79.32286956785882L93.77777777777777,87.30445232146856L95.11111111111111,102.2082429615774L96.44444444444444,112.2055038469415L97.77777777777777,114.70667301117858L99.11111111111111,91.04195732771323L100.44444444444444,84.60528589955392L101.77777777777777,74.97058123651705L103.11111111111111,77.10102171179201L104.44444444444444,69.24967573374464L105.77777777777777,64.05587403905636L107.11111111111111,76.72373916103626L108.44444444444444,74.00533093051641L109.77777777777777,51.72954039324676L111.11111111111111,43.33379351857471L112.44444444444444,57.4700414706647L113.77777777777777,68.68720129725621L115.11111111111111,106.87699758844454L116.44444444444444,100.51783263008426L116.44444444444444,-11.062174361100503L115.11111111111111,34.822351128665815L113.77777777777777,18.773053248724743L112.44444444444444,17.364932810621852L111.11111111111111,0.6222836604123927L109.77777777777777,13.366004761707345L108.44444444444444,38.57651056612209L107.11111111111111,39.80139996171248L105.77777777777777,36.00284164428035L104.44444444444444,43.30835876036771L103.11111111111111,52.185783855314384L101.77777777777777,50.7466590681927L100.44444444444444,65.89994576143742L99.11111111111111,70.22980999169486L97.77777777777777,93.40127648024304L96.44444444444444,88.44277857696882L95.11111111111111,81.33757574766095L93.77777777777777,66.17403337231133L92.44444444444444,51.37137843112524L91.11111111111111,64.70128409028442L89.77777777777777,54.9506457398945L88.44444444444444,57.07728039882282L87.11111111111111,51.992292123438354L85.77777777777777,51.62462427161108L84.44444444444444,44.455315245235134L83.11111111111111,50.44816195200811L81.77777777777777,52.13931951632037L80.44444444444444,52.5052540667669L79.11111111111111,44.56385105142608L77.77777777777777,52.770749697123904L76.44444444444444,54.129949423883836L75.11111111111111,63.613983256396075L73.77777777777777,63.9310156168448L72.44444444444444,69.81392277979202L71.11111111111111,69.74810973795988L69.77777777777777,68.15393619679807L68.44444444444444,57.84688925624362L67.11111111111111,60.739724942194826L65.77777777777777,62.522987716092935L64.44444444444444,63.898258999500776L63.111111111111114,61.29127833315328L61.77777777777778,64.44315868060501L60.44444444444444,65.4773825125963L59.111111111111114,70.31396989394824L57.77777777777778,66.0777901569867L56.44444444444444,64.72664649891375L55.111111111111114,66.0333460457607L53.77777777777778,68.29613147411702L52.44444444444444,65.07068316828573L51.111111111111114,63.959694700637414L49.77777777777778,63.8477183993325L48.44444444444444,65.01289834298908L47.111111111111114,70.98538638034073L45.77777777777778,69.82205196582966L44.44444444444444,70.03564304960638L43.111111111111114,69.85924382234306L41.77777777777778,67.13617679132224L40.44444444444444,66.23368923025464L39.111111111111114,64.90053533210302L37.77777777777778,67.11049938897096L36.44444444444444,68.56997324321284L35.111111111111114,65.65073298812236L33.77777777777778,66.27874044529061L32.44444444444444,61.81358087724602L31.11111111111111,58.577734231307204L29.77777777777778,58.15251227430222L28.444444444444443,61.45473545333478L27.11111111111111,63.40545540463951L25.77777777777778,62.658345619505425L24.444444444444443,61.60782117290138L23.11111111111111,59.67771875178999L21.77777777777778,57.52215507787725L20.444444444444443,57.386510391408926L19.11111111111111,58.96609936566958L17.77777777777778,59.55441768719015L16.444444444444443,61.28441450855957L15.11111111111111,61.46136327727916L13.777777777777779,61.18649332247805L12.444444444444445,70.08433556729555L11.11111111111111,70.09339342894636L9.777777777777779,72.25684241588223L8.444444444444445,75.32131753452623L7.111111111111111,77.20808654681335L5.777777777777778,73.812844201367L4.444444444444445,73.9241424253719L3.111111111111111,74.08283046415637L1.7777777777777777,74.35944612827622L0.4444444444444444,82.71120018420163Z" fill="#687B3E" opacity="0.3"></path></g></g><path class="foreground" aria-hidden="true" d="" display="none"></path></g></g><g class="mark-rule role-mark child_layer_0_layer_0_layer_1_marks" clip-path="url(#clip6)" role="graphics-symbol" aria-roledescription="rule mark container"><line transform="translate(128,80)" x2="-128" y2="0" stroke="black" stroke-width="1" stroke-dasharray="4,4"></line><line transform="translate(128,80)" x2="-128" y2="0" stroke="black" stroke-width="1" stroke-dasharray="4,4"></line><line transform="translate(128,80)" x2="-128" y2="0" stroke="black" stroke-width="1" stroke-dasharray="4,4"></line><line transform="translate(128,80)" x2="-128" y2="0" stroke="black" stroke-width="1" stroke-dasharray="4,4"></line><line transform="translate(128,80)" x2="-128" y2="0" stroke="black" stroke-width="1" stroke-dasharray="4,4"></line><line transform="translate(128,80)" x2="-128" y2="0" stroke="black" stroke-width="1" stroke-dasharray="4,4"></line><line transform="translate(128,80)" x2="-128" y2="0" stroke="black" stroke-width="1" stroke-dasharray="4,4"></line><line transform="translate(128,80)" x2="-128" y2="0" stroke="black" stroke-width="1" stroke-dasharray="4,4"></line><line transform="translate(128,80)" x2="-128" y2="0" stroke="black" stroke-width="1" stroke-dasharray="4,4"></line><line transform="translate(128,80)" x2="-128" y2="0" stroke="black" stroke-width="1" stroke-dasharray="4,4"></line><line transform="translate(128,80)" x2="-128" y2="0" stroke="black" stroke-width="1" stroke-dasharray="4,4"></line><line transform="translate(128,80)" x2="-128" y2="0" stroke="black" stroke-width="1" stroke-dasharray="4,4"></line><line transform="translate(128,80)" x2="-128" y2="0" stroke="black" stroke-width="1" stroke-dasharray="4,4"></line><line transform="translate(128,80)" x2="-128" y2="0" stroke="black" stroke-width="1" stroke-dasharray="4,4"></line><line transform="translate(128,80)" x2="-128" y2="0" stroke="black" stroke-width="1" stroke-dasharray="4,4"></line><line transform="translate(128,80)" x2="-128" y2="0" stroke="black" stroke-width="1" stroke-dasharray="4,4"></line><line transform="translate(128,80)" x2="-128" y2="0" stroke="black" stroke-width="1" stroke-dasharray="4,4"></line><line transform="translate(128,80)" x2="-128" y2="0" stroke="black" stroke-width="1" stroke-dasharray="4,4"></line><line transform="translate(128,80)" x2="-128" y2="0" stroke="black" stroke-width="1" stroke-dasharray="4,4"></line><line transform="translate(128,80)" x2="-128" y2="0" stroke="black" stroke-width="1" stroke-dasharray="4,4"></line><line transform="translate(128,80)" x2="-128" y2="0" stroke="black" stroke-width="1" stroke-dasharray="4,4"></line><line transform="translate(128,80)" x2="-128" y2="0" stroke="black" stroke-width="1" stroke-dasharray="4,4"></line><line transform="translate(128,80)" x2="-128" y2="0" stroke="black" stroke-width="1" stroke-dasharray="4,4"></line><line transform="translate(128,80)" x2="-128" y2="0" stroke="black" stroke-width="1" stroke-dasharray="4,4"></line><line transform="translate(128,80)" x2="-128" y2="0" stroke="black" stroke-width="1" stroke-dasharray="4,4"></line><line transform="translate(128,80)" x2="-128" y2="0" stroke="black" stroke-width="1" stroke-dasharray="4,4"></line><line transform="translate(128,80)" x2="-128" y2="0" stroke="black" stroke-width="1" stroke-dasharray="4,4"></line><line transform="translate(128,80)" x2="-128" y2="0" stroke="black" stroke-width="1" stroke-dasharray="4,4"></line><line transform="translate(128,80)" x2="-128" y2="0" stroke="black" stroke-width="1" stroke-dasharray="4,4"></line><line transform="translate(128,80)" x2="-128" y2="0" stroke="black" stroke-width="1" stroke-dasharray="4,4"></line><line transform="translate(128,80)" x2="-128" y2="0" stroke="black" stroke-width="1" stroke-dasharray="4,4"></line><line transform="translate(128,80)" x2="-128" y2="0" stroke="black" stroke-width="1" stroke-dasharray="4,4"></line><line transform="translate(128,80)" x2="-128" y2="0" stroke="black" stroke-width="1" stroke-dasharray="4,4"></line><line transform="translate(128,80)" x2="-128" y2="0" stroke="black" stroke-width="1" stroke-dasharray="4,4"></line><line transform="translate(128,80)" x2="-128" y2="0" stroke="black" stroke-width="1" stroke-dasharray="4,4"></line><line transform="translate(128,80)" x2="-128" y2="0" stroke="black" stroke-width="1" stroke-dasharray="4,4"></line><line transform="translate(128,80)" x2="-128" y2="0" stroke="black" stroke-width="1" stroke-dasharray="4,4"></line><line transform="translate(128,80)" x2="-128" y2="0" stroke="black" stroke-width="1" stroke-dasharray="4,4"></line><line transform="translate(128,80)" x2="-128" y2="0" stroke="black" stroke-width="1" stroke-dasharray="4,4"></line><line transform="translate(128,80)" x2="-128" y2="0" stroke="black" stroke-width="1" stroke-dasharray="4,4"></line><line transform="translate(128,80)" x2="-128" y2="0" stroke="black" stroke-width="1" stroke-dasharray="4,4"></line><line transform="translate(128,80)" x2="-128" y2="0" stroke="black" stroke-width="1" stroke-dasharray="4,4"></line><line transform="translate(128,80)" x2="-128" y2="0" stroke="black" stroke-width="1" stroke-dasharray="4,4"></line><line transform="translate(128,80)" x2="-128" y2="0" stroke="black" stroke-width="1" stroke-dasharray="4,4"></line><line transform="translate(128,80)" x2="-128" y2="0" stroke="black" stroke-width="1" stroke-dasharray="4,4"></line><line transform="translate(128,80)" x2="-128" y2="0" stroke="black" stroke-width="1" stroke-dasharray="4,4"></line><line transform="translate(128,80)" x2="-128" y2="0" stroke="black" stroke-width="1" stroke-dasharray="4,4"></line><line transform="translate(128,80)" x2="-128" y2="0" stroke="black" stroke-width="1" stroke-dasharray="4,4"></line><line transform="translate(128,80)" x2="-128" y2="0" stroke="black" stroke-width="1" stroke-dasharray="4,4"></line><line transform="translate(128,80)" x2="-128" y2="0" stroke="black" stroke-width="1" stroke-dasharray="4,4"></line><line transform="translate(128,80)" x2="-128" y2="0" stroke="black" stroke-width="1" stroke-dasharray="4,4"></line><line transform="translate(128,80)" x2="-128" y2="0" stroke="black" stroke-width="1" stroke-dasharray="4,4"></line><line transform="translate(128,80)" x2="-128" y2="0" stroke="black" stroke-width="1" stroke-dasharray="4,4"></line><line transform="translate(128,80)" x2="-128" y2="0" stroke="black" stroke-width="1" stroke-dasharray="4,4"></line><line transform="translate(128,80)" x2="-128" y2="0" stroke="black" stroke-width="1" stroke-dasharray="4,4"></line><line transform="translate(128,80)" x2="-128" y2="0" stroke="black" stroke-width="1" stroke-dasharray="4,4"></line><line transform="translate(128,80)" x2="-128" y2="0" stroke="black" stroke-width="1" stroke-dasharray="4,4"></line><line transform="translate(128,80)" x2="-128" y2="0" stroke="black" stroke-width="1" stroke-dasharray="4,4"></line><line transform="translate(128,80)" x2="-128" y2="0" stroke="black" stroke-width="1" stroke-dasharray="4,4"></line><line transform="translate(128,80)" x2="-128" y2="0" stroke="black" stroke-width="1" stroke-dasharray="4,4"></line><line transform="translate(128,80)" x2="-128" y2="0" stroke="black" stroke-width="1" stroke-dasharray="4,4"></line><line transform="translate(128,80)" x2="-128" y2="0" stroke="black" stroke-width="1" stroke-dasharray="4,4"></line><line transform="translate(128,80)" x2="-128" y2="0" stroke="black" stroke-width="1" stroke-dasharray="4,4"></line><line transform="translate(128,80)" x2="-128" y2="0" stroke="black" stroke-width="1" stroke-dasharray="4,4"></line><line transform="translate(128,80)" x2="-128" y2="0" stroke="black" stroke-width="1" stroke-dasharray="4,4"></line><line transform="translate(128,80)" x2="-128" y2="0" stroke="black" stroke-width="1" stroke-dasharray="4,4"></line><line transform="translate(128,80)" x2="-128" y2="0" stroke="black" stroke-width="1" stroke-dasharray="4,4"></line><line transform="translate(128,80)" x2="-128" y2="0" stroke="black" stroke-width="1" stroke-dasharray="4,4"></line><line transform="translate(128,80)" x2="-128" y2="0" stroke="black" stroke-width="1" stroke-dasharray="4,4"></line><line transform="translate(128,80)" x2="-128" y2="0" stroke="black" stroke-width="1" stroke-dasharray="4,4"></line><line transform="translate(128,80)" x2="-128" y2="0" stroke="black" stroke-width="1" stroke-dasharray="4,4"></line><line transform="translate(128,80)" x2="-128" y2="0" stroke="black" stroke-width="1" stroke-dasharray="4,4"></line><line transform="translate(128,80)" x2="-128" y2="0" stroke="black" stroke-width="1" stroke-dasharray="4,4"></line><line transform="translate(128,80)" x2="-128" y2="0" stroke="black" stroke-width="1" stroke-dasharray="4,4"></line><line transform="translate(128,80)" x2="-128" y2="0" stroke="black" stroke-width="1" stroke-dasharray="4,4"></line><line transform="translate(128,80)" x2="-128" y2="0" stroke="black" stroke-width="1" stroke-dasharray="4,4"></line><line transform="translate(128,80)" x2="-128" y2="0" stroke="black" stroke-width="1" stroke-dasharray="4,4"></line><line transform="translate(128,80)" x2="-128" y2="0" stroke="black" stroke-width="1" stroke-dasharray="4,4"></line><line transform="translate(128,80)" x2="-128" y2="0" stroke="black" stroke-width="1" stroke-dasharray="4,4"></line><line transform="translate(128,80)" x2="-128" y2="0" stroke="black" stroke-width="1" stroke-dasharray="4,4"></line><line transform="translate(128,80)" x2="-128" y2="0" stroke="black" stroke-width="1" stroke-dasharray="4,4"></line><line transform="translate(128,80)" x2="-128" y2="0" stroke="black" stroke-width="1" stroke-dasharray="4,4"></line><line transform="translate(128,80)" x2="-128" y2="0" stroke="black" stroke-width="1" stroke-dasharray="4,4"></line><line transform="translate(128,80)" x2="-128" y2="0" stroke="black" stroke-width="1" stroke-dasharray="4,4"></line><line transform="translate(128,80)" x2="-128" y2="0" stroke="black" stroke-width="1" stroke-dasharray="4,4"></line><line transform="translate(128,80)" x2="-128" y2="0" stroke="black" stroke-width="1" stroke-dasharray="4,4"></line><line transform="translate(128,80)" x2="-128" y2="0" stroke="black" stroke-width="1" stroke-dasharray="4,4"></line><line transform="translate(128,80)" x2="-128" y2="0" stroke="black" stroke-width="1" stroke-dasharray="4,4"></line></g><g class="mark-area role-mark child_layer_0_layer_1_marks" role="graphics-object" aria-roledescription="area mark container"><path aria-label="P(switch): 1; time: 0.03125" role="graphics-symbol" aria-roledescription="area mark" d="M0.4444444444444444,0L1.7777777777777777,0L3.111111111111111,0L4.444444444444445,39.838709677419345L5.777777777777778,71.29032258064515L7.111111111111111,95.75268817204301L8.444444444444445,102.39247311827957L9.777777777777779,107.63440860215053L11.11111111111111,107.63440860215053L12.444444444444445,107.63440860215053L13.777777777777779,107.63440860215053L15.11111111111111,111.47849462365592L16.444444444444443,115.67204301075269L17.77777777777778,124.40860215053763L19.11111111111111,124.40860215053763L20.444444444444443,130L21.77777777777778,130L23.11111111111111,130L24.444444444444443,126.85483870967742L25.77777777777778,90.16129032258065L27.11111111111111,73.38709677419354L28.444444444444443,58.70967741935485L29.77777777777778,40.88709677419356L31.11111111111111,40.88709677419356L32.44444444444444,27.607526881720435L33.77777777777778,27.607526881720435L35.111111111111114,22.365591397849457L36.44444444444444,22.365591397849457L37.77777777777778,22.365591397849457L39.111111111111114,22.365591397849457L40.44444444444444,22.365591397849457L41.77777777777778,31.102150537634408L43.111111111111114,62.204301075268816L44.44444444444444,76.88172043010752L45.77777777777778,70.24193548387096L47.111111111111114,72.33870967741935L48.44444444444444,74.78494623655914L49.77777777777778,68.84408602150538L51.111111111111114,50.32258064516129L52.44444444444444,46.12903225806452L53.77777777777778,32.8494623655914L55.111111111111114,30.403225806451616L56.44444444444444,24.811827956989255L57.77777777777778,16.0752688172043L59.111111111111114,16.0752688172043L60.44444444444444,16.0752688172043L61.77777777777778,35.295698924731184L63.111111111111114,45.08064516129033L64.44444444444444,55.21505376344086L65.77777777777777,59.40860215053764L67.11111111111111,73.73655913978494L68.44444444444444,70.24193548387096L69.77777777777777,75.48387096774192L71.11111111111111,84.91935483870968L72.44444444444444,88.41397849462366L73.77777777777777,88.41397849462366L75.11111111111111,91.55913978494624L76.44444444444444,91.55913978494624L77.77777777777777,83.87096774193549L79.11111111111111,62.553763440860216L80.44444444444444,56.26344086021505L81.77777777777777,56.26344086021505L83.11111111111111,49.623655913978496L84.44444444444444,35.64516129032258L85.77777777777777,49.97311827956989L87.11111111111111,52.30320699708455L88.44444444444444,37.900874635568506L89.77777777777777,26.57232704402515L91.11111111111111,38.42767295597485L92.44444444444444,39.312714776632305L93.77777777777777,57.77777777777777L95.11111111111111,57.77777777777777L96.44444444444444,61.97132616487455L97.77777777777777,70.82437275985663L99.11111111111111,90.39426523297492L100.44444444444444,90.39426523297492L101.77777777777777,82.47311827956989L103.11111111111111,101.57706093189965L104.44444444444444,101.57706093189965L105.77777777777777,105.77060931899642L107.11111111111111,105.77060931899642L108.44444444444444,114.15770609318996L109.77777777777777,130L111.11111111111111,130L112.44444444444444,130L113.77777777777777,130L115.11111111111111,130L116.44444444444444,130L116.44444444444444,130L115.11111111111111,130L113.77777777777777,130L112.44444444444444,130L111.11111111111111,130L109.77777777777777,130L108.44444444444444,130L107.11111111111111,130L105.77777777777777,130L104.44444444444444,130L103.11111111111111,130L101.77777777777777,130L100.44444444444444,130L99.11111111111111,130L97.77777777777777,130L96.44444444444444,130L95.11111111111111,130L93.77777777777777,130L92.44444444444444,130L91.11111111111111,130L89.77777777777777,130L88.44444444444444,130L87.11111111111111,130L85.77777777777777,130L84.44444444444444,130L83.11111111111111,130L81.77777777777777,130L80.44444444444444,130L79.11111111111111,130L77.77777777777777,130L76.44444444444444,130L75.11111111111111,130L73.77777777777777,130L72.44444444444444,130L71.11111111111111,130L69.77777777777777,130L68.44444444444444,130L67.11111111111111,130L65.77777777777777,130L64.44444444444444,130L63.111111111111114,130L61.77777777777778,130L60.44444444444444,130L59.111111111111114,130L57.77777777777778,130L56.44444444444444,130L55.111111111111114,130L53.77777777777778,130L52.44444444444444,130L51.111111111111114,130L49.77777777777778,130L48.44444444444444,130L47.111111111111114,130L45.77777777777778,130L44.44444444444444,130L43.111111111111114,130L41.77777777777778,130L40.44444444444444,130L39.111111111111114,130L37.77777777777778,130L36.44444444444444,130L35.111111111111114,130L33.77777777777778,130L32.44444444444444,130L31.11111111111111,130L29.77777777777778,130L28.444444444444443,130L27.11111111111111,130L25.77777777777778,130L24.444444444444443,130L23.11111111111111,130L21.77777777777778,130L20.444444444444443,130L19.11111111111111,130L17.77777777777778,130L16.444444444444443,130L15.11111111111111,130L13.777777777777779,130L12.444444444444445,130L11.11111111111111,130L9.777777777777779,130L8.444444444444445,130L7.111111111111111,130L5.777777777777778,130L4.444444444444445,130L3.111111111111111,130L1.7777777777777777,130L0.4444444444444444,130Z" fill="black" opacity="0.3"></path></g></g><path class="foreground" aria-hidden="true" d="" display="none"></path></g></g></g><path class="foreground" aria-hidden="true" d="" display="none"></path></g></g></g></svg>
