<?xml version="1.0" encoding="utf-8"?>
<!DOCTYPE svg PUBLIC "-//W3C//DTD SVG 1.1//EN" "http://www.w3.org/Graphics/SVG/1.1/DTD/svg11.dtd">
<svg class="marks" width="381" height="362" viewBox="0 0 381 362" version="1.1" xmlns="http://www.w3.org/2000/svg" xmlns:xlink="http://www.w3.org/1999/xlink"><rect width="381" height="362" fill="white"></rect><g fill="none" stroke-miterlimit="10" transform="translate(101,57)"><g class="mark-group role-frame root" role="graphics-object" aria-roledescription="group mark container"><g transform="translate(0,0)"><path class="background" aria-hidden="true" d="M0,0h0v0h0Z"></path><g><g class="mark-group role-row-title row-title" role="graphics-object" aria-roledescription="group mark container"><g transform="translate(-74,134)"><path class="background" aria-hidden="true" d="M0,0h0v0h0Z"></path><g><g class="mark-group role-title"><g transform="translate(-21.000000000000007,0)"><path class="background" aria-hidden="true" d="M0,0h0v0h0Z" pointer-events="none"></path><g><g class="mark-text role-title-text" role="graphics-symbol" aria-roledescription="title" aria-label="Title text 'target_time_label'" pointer-events="none"><text text-anchor="middle" transform="translate(0,0) rotate(-90) translate(0,9)" font-family="sans-serif" font-size="11px" font-weight="bold" fill="#000" opacity="1">target_time_label</text></g></g><path class="foreground" aria-hidden="true" d="" pointer-events="none" display="none"></path></g></g></g><path class="foreground" aria-hidden="true" d="" display="none"></path></g></g><g class="mark-group role-column-title column-title" role="graphics-object" aria-roledescription="group mark container"><g transform="translate(136,-31)"><path class="background" aria-hidden="true" d="M0,0h0v0h0Z"></path><g><g class="mark-group role-title"><g transform="translate(0,-21)"><path class="background" aria-hidden="true" d="M0,0h0v0h0Z" pointer-events="none"></path><g><g class="mark-text role-title-text" role="graphics-symbol" aria-roledescription="title" aria-label="Title text 'target_switch_label'" pointer-events="none"><text text-anchor="middle" transform="translate(0,9)" font-family="sans-serif" font-size="11px" font-weight="bold" fill="#000" opacity="1">target_switch_label</text></g></g><path class="foreground" aria-hidden="true" d="" pointer-events="none" display="none"></path></g></g></g><path class="foreground" aria-hidden="true" d="" display="none"></path></g></g><g class="mark-group role-row-header row_header" role="graphics-object" aria-roledescription="group mark container"><g transform="translate(-2,0)"><path class="background" aria-hidden="true" d="M0,0h0v130h0Z"></path><g><g class="mark-group role-axis" role="graphics-symbol" aria-roledescription="axis" aria-label="Y-axis titled 'Decoding Correlation' for a linear scale with values from -0.1 to 0.3"><g transform="translate(0.5,0.5)"><path class="background" aria-hidden="true" d="M0,0h0v0h0Z" pointer-events="none"></path><g><g class="mark-rule role-axis-tick" pointer-events="none"><line transform="translate(0,114)" x2="-5" y2="0" stroke="#888" stroke-width="1" opacity="1"></line><line transform="translate(0,81)" x2="-5" y2="0" stroke="#888" stroke-width="1" opacity="1"></line><line transform="translate(0,49)" x2="-5" y2="0" stroke="#888" stroke-width="1" opacity="1"></line><line transform="translate(0,16)" x2="-5" y2="0" stroke="#888" stroke-width="1" opacity="1"></line></g><g class="mark-text role-axis-label" pointer-events="none"><text text-anchor="end" transform="translate(-7,116.75)" font-family="sans-serif" font-size="10px" fill="#000" opacity="1">-0.1</text><text text-anchor="end" transform="translate(-7,84.25)" font-family="sans-serif" font-size="10px" fill="#000" opacity="1">0.0</text><text text-anchor="end" transform="translate(-7,51.75)" font-family="sans-serif" font-size="10px" fill="#000" opacity="1">0.1</text><text text-anchor="end" transform="translate(-7,19.250000000000014)" font-family="sans-serif" font-size="10px" fill="#000" opacity="1">0.2</text></g><g class="mark-rule role-axis-domain" pointer-events="none"><line transform="translate(0,130)" x2="0" y2="-130" stroke="#888" stroke-width="1" opacity="1"></line></g><g class="mark-text role-axis-title" pointer-events="none"><text text-anchor="middle" transform="translate(-30,65) rotate(-90) translate(0,-2)" font-family="sans-serif" font-size="11px" font-weight="bold" fill="#000" opacity="1">Decoding Correlation</text></g></g><path class="foreground" aria-hidden="true" d="" pointer-events="none" display="none"></path></g></g><g class="mark-group role-title"><g transform="translate(-61.00000000000001,65)"><path class="background" aria-hidden="true" d="M0,0h0v0h0Z" pointer-events="none"></path><g><g class="mark-text role-title-text" role="graphics-symbol" aria-roledescription="title" aria-label="Title text 'early'" pointer-events="none"><text text-anchor="middle" transform="translate(0,0) rotate(-90) translate(0,8)" font-family="sans-serif" font-size="10px" fill="#000" opacity="1">early</text></g></g><path class="foreground" aria-hidden="true" d="" pointer-events="none" display="none"></path></g></g></g><path class="foreground" aria-hidden="true" d="" display="none"></path></g><g transform="translate(-2,137)"><path class="background" aria-hidden="true" d="M0,0h0v130h0Z"></path><g><g class="mark-group role-axis" role="graphics-symbol" aria-roledescription="axis" aria-label="Y-axis titled 'Decoding Correlation' for a linear scale with values from -0.1 to 0.3"><g transform="translate(0.5,0.5)"><path class="background" aria-hidden="true" d="M0,0h0v0h0Z" pointer-events="none"></path><g><g class="mark-rule role-axis-tick" pointer-events="none"><line transform="translate(0,114)" x2="-5" y2="0" stroke="#888" stroke-width="1" opacity="1"></line><line transform="translate(0,81)" x2="-5" y2="0" stroke="#888" stroke-width="1" opacity="1"></line><line transform="translate(0,49)" x2="-5" y2="0" stroke="#888" stroke-width="1" opacity="1"></line><line transform="translate(0,16)" x2="-5" y2="0" stroke="#888" stroke-width="1" opacity="1"></line></g><g class="mark-text role-axis-label" pointer-events="none"><text text-anchor="end" transform="translate(-7,116.75)" font-family="sans-serif" font-size="10px" fill="#000" opacity="1">-0.1</text><text text-anchor="end" transform="translate(-7,84.25)" font-family="sans-serif" font-size="10px" fill="#000" opacity="1">0.0</text><text text-anchor="end" transform="translate(-7,51.75)" font-family="sans-serif" font-size="10px" fill="#000" opacity="1">0.1</text><text text-anchor="end" transform="translate(-7,19.250000000000014)" font-family="sans-serif" font-size="10px" fill="#000" opacity="1">0.2</text></g><g class="mark-rule role-axis-domain" pointer-events="none"><line transform="translate(0,130)" x2="0" y2="-130" stroke="#888" stroke-width="1" opacity="1"></line></g><g class="mark-text role-axis-title" pointer-events="none"><text text-anchor="middle" transform="translate(-30,65) rotate(-90) translate(0,-2)" font-family="sans-serif" font-size="11px" font-weight="bold" fill="#000" opacity="1">Decoding Correlation</text></g></g><path class="foreground" aria-hidden="true" d="" pointer-events="none" display="none"></path></g></g><g class="mark-group role-title"><g transform="translate(-61.00000000000001,65)"><path class="background" aria-hidden="true" d="M0,0h0v0h0Z" pointer-events="none"></path><g><g class="mark-text role-title-text" role="graphics-symbol" aria-roledescription="title" aria-label="Title text 'late'" pointer-events="none"><text text-anchor="middle" transform="translate(0,0) rotate(-90) translate(0,8)" font-family="sans-serif" font-size="10px" fill="#000" opacity="1">late</text></g></g><path class="foreground" aria-hidden="true" d="" pointer-events="none" display="none"></path></g></g></g><path class="foreground" aria-hidden="true" d="" display="none"></path></g></g><g class="mark-group role-column-header column_header" role="graphics-object" aria-roledescription="group mark container"><g transform="translate(0,-1)"><path class="background" aria-hidden="true" d="M0,0h128v0h-128Z"></path><g><g class="mark-group role-title"><g transform="translate(64,-20)"><path class="background" aria-hidden="true" d="M0,0h0v0h0Z" pointer-events="none"></path><g><g class="mark-text role-title-text" role="graphics-symbol" aria-roledescription="title" aria-label="Title text 'near'" pointer-events="none"><text text-anchor="middle" transform="translate(0,8)" font-family="sans-serif" font-size="10px" fill="#000" opacity="1">near</text></g></g><path class="foreground" aria-hidden="true" d="" pointer-events="none" display="none"></path></g></g></g><path class="foreground" aria-hidden="true" d="" display="none"></path></g><g transform="translate(141,-1)"><path class="background" aria-hidden="true" d="M0,0h128v0h-128Z"></path><g><g class="mark-group role-title"><g transform="translate(64,-20)"><path class="background" aria-hidden="true" d="M0,0h0v0h0Z" pointer-events="none"></path><g><g class="mark-text role-title-text" role="graphics-symbol" aria-roledescription="title" aria-label="Title text 'far'" pointer-events="none"><text text-anchor="middle" transform="translate(0,8)" font-family="sans-serif" font-size="10px" fill="#000" opacity="1">far</text></g></g><path class="foreground" aria-hidden="true" d="" pointer-events="none" display="none"></path></g></g></g><path class="foreground" aria-hidden="true" d="" display="none"></path></g></g><g class="mark-group role-column-footer column_footer" role="graphics-object" aria-roledescription="group mark container"><g transform="translate(0,268)"><path class="background" aria-hidden="true" d="M0,0h128v0h-128Z"></path><g><g class="mark-group role-axis" role="graphics-symbol" aria-roledescription="axis" aria-label="X-axis titled 'Time (s)' for a linear scale with values from -1.0 to 2.5"><g transform="translate(0.5,0.5)"><path class="background" aria-hidden="true" d="M0,0h0v0h0Z" pointer-events="none"></path><g><g class="mark-rule role-axis-tick" pointer-events="none"><line transform="translate(0,0)" x2="0" y2="5" stroke="#888" stroke-width="1" opacity="1"></line><line transform="translate(37,0)" x2="0" y2="5" stroke="#888" stroke-width="1" opacity="1"></line><line transform="translate(73,0)" x2="0" y2="5" stroke="#888" stroke-width="1" opacity="1"></line><line transform="translate(110,0)" x2="0" y2="5" stroke="#888" stroke-width="1" opacity="1"></line></g><g class="mark-text role-axis-label" pointer-events="none"><text text-anchor="start" transform="translate(0,15)" font-family="sans-serif" font-size="10px" fill="#000" opacity="1">-1</text><text text-anchor="middle" transform="translate(36.57142857142857,15)" font-family="sans-serif" font-size="10px" fill="#000" opacity="1">0</text><text text-anchor="middle" transform="translate(73.14285714285714,15)" font-family="sans-serif" font-size="10px" fill="#000" opacity="1">1</text><text text-anchor="middle" transform="translate(109.71428571428571,15)" font-family="sans-serif" font-size="10px" fill="#000" opacity="1">2</text></g><g class="mark-rule role-axis-domain" pointer-events="none"><line transform="translate(0,0)" x2="128" y2="0" stroke="#888" stroke-width="1" opacity="1"></line></g><g class="mark-text role-axis-title" pointer-events="none"><text text-anchor="middle" transform="translate(64,30)" font-family="sans-serif" font-size="11px" font-weight="bold" fill="#000" opacity="1">Time (s)</text></g></g><path class="foreground" aria-hidden="true" d="" pointer-events="none" display="none"></path></g></g></g><path class="foreground" aria-hidden="true" d="" display="none"></path></g><g transform="translate(141,268)"><path class="background" aria-hidden="true" d="M0,0h128v0h-128Z"></path><g><g class="mark-group role-axis" role="graphics-symbol" aria-roledescription="axis" aria-label="X-axis titled 'Time (s)' for a linear scale with values from -1.0 to 2.5"><g transform="translate(0.5,0.5)"><path class="background" aria-hidden="true" d="M0,0h0v0h0Z" pointer-events="none"></path><g><g class="mark-rule role-axis-tick" pointer-events="none"><line transform="translate(0,0)" x2="0" y2="5" stroke="#888" stroke-width="1" opacity="1"></line><line transform="translate(37,0)" x2="0" y2="5" stroke="#888" stroke-width="1" opacity="1"></line><line transform="translate(73,0)" x2="0" y2="5" stroke="#888" stroke-width="1" opacity="1"></line><line transform="translate(110,0)" x2="0" y2="5" stroke="#888" stroke-width="1" opacity="1"></line></g><g class="mark-text role-axis-label" pointer-events="none"><text text-anchor="start" transform="translate(0,15)" font-family="sans-serif" font-size="10px" fill="#000" opacity="1">-1</text><text text-anchor="middle" transform="translate(36.57142857142857,15)" font-family="sans-serif" font-size="10px" fill="#000" opacity="1">0</text><text text-anchor="middle" transform="translate(73.14285714285714,15)" font-family="sans-serif" font-size="10px" fill="#000" opacity="1">1</text><text text-anchor="middle" transform="translate(109.71428571428571,15)" font-family="sans-serif" font-size="10px" fill="#000" opacity="1">2</text></g><g class="mark-rule role-axis-domain" pointer-events="none"><line transform="translate(0,0)" x2="128" y2="0" stroke="#888" stroke-width="1" opacity="1"></line></g><g class="mark-text role-axis-title" pointer-events="none"><text text-anchor="middle" transform="translate(64,30)" font-family="sans-serif" font-size="11px" font-weight="bold" fill="#000" opacity="1">Time (s)</text></g></g><path class="foreground" aria-hidden="true" d="" pointer-events="none" display="none"></path></g></g></g><path class="foreground" aria-hidden="true" d="" display="none"></path></g></g><g class="mark-group role-scope cell" role="graphics-object" aria-roledescription="group mark container"><g transform="translate(0,0)"><path class="background" aria-hidden="true" d="M0.5,0.5h128v130h-128Z" stroke="#ddd"></path><g><g class="mark-group role-axis" aria-hidden="true"><g transform="translate(0.5,130.5)"><path class="background" aria-hidden="true" d="M0,0h0v0h0Z" pointer-events="none"></path><g><g class="mark-rule role-axis-grid" pointer-events="none"><line transform="translate(0,-130)" x2="0" y2="130" stroke="#ddd" stroke-width="1" opacity="1"></line><line transform="translate(37,-130)" x2="0" y2="130" stroke="#ddd" stroke-width="1" opacity="1"></line><line transform="translate(73,-130)" x2="0" y2="130" stroke="#ddd" stroke-width="1" opacity="1"></line><line transform="translate(110,-130)" x2="0" y2="130" stroke="#ddd" stroke-width="1" opacity="1"></line></g></g><path class="foreground" aria-hidden="true" d="" pointer-events="none" display="none"></path></g></g><g class="mark-group role-axis" aria-hidden="true"><g transform="translate(0.5,0.5)"><path class="background" aria-hidden="true" d="M0,0h0v0h0Z" pointer-events="none"></path><g><g class="mark-rule role-axis-grid" pointer-events="none"><line transform="translate(0,114)" x2="128" y2="0" stroke="#ddd" stroke-width="1" opacity="1"></line><line transform="translate(0,81)" x2="128" y2="0" stroke="#ddd" stroke-width="1" opacity="1"></line><line transform="translate(0,49)" x2="128" y2="0" stroke="#ddd" stroke-width="1" opacity="1"></line><line transform="translate(0,16)" x2="128" y2="0" stroke="#ddd" stroke-width="1" opacity="1"></line></g></g><path class="foreground" aria-hidden="true" d="" pointer-events="none" display="none"></path></g></g><g class="mark-group role-scope child_layer_0_layer_0_pathgroup" role="graphics-object" aria-roledescription="group mark container"><g transform="translate(0,0)"><path class="background" aria-hidden="true" d="M0,0h128v130h-128Z"></path><g><g class="mark-line role-mark child_layer_0_layer_0_marks" role="graphics-object" aria-roledescription="line mark container"><path aria-label="Time (s): -0.96875; Source: other; Decoding Correlation: 0.0193284879592" role="graphics-symbol" aria-roledescription="line mark" d="M1.1428571428571428,74.96824141326424L4.571428571428571,77.52406461988623L8,80.7267206093591L11.428571428571429,76.74264022309066L14.857142857142858,75.743796500697L18.285714285714285,77.44134883736348L21.714285714285715,77.86646630662162L25.142857142857142,79.97760709761864L28.571428571428573,79.69913866790617L32,80.11690652250797L35.42857142857143,76.96376219986878L38.857142857142854,72.55307808106315L42.285714285714285,66.7687816724939L45.714285714285715,65.39929433181825L49.142857142857146,69.17849912891666L52.57142857142857,70.48058239237875L56,72.55615043088083L59.42857142857143,72.69561028385232L62.857142857142854,70.85476958296844L66.28571428571429,69.51779017305061L69.71428571428571,70.44400361508956L73.14285714285714,72.00596221905923L76.57142857142857,77.8318097188204L80,78.15166031418067L83.42857142857143,79.17424095832098L86.85714285714286,84.43713155994797L90.28571428571429,84.72830969444546L93.71428571428571,86.06218509726726L97.14285714285714,92.77760430000743L100.57142857142857,96.98976383552619L104,93.72738838047614L107.42857142857143,90.16012255036749L110.85714285714286,91.70625079457176L114.28571428571429,89.79396150311395L117.71428571428571,89.57004135167655L121.14285714285714,92.5148522067817L124.57142857142857,93.26834760382044" stroke="#2C2C2C" stroke-width="2" stroke-linejoin="round"></path></g></g><path class="foreground" aria-hidden="true" d="" display="none"></path></g><g transform="translate(0,0)"><path class="background" aria-hidden="true" d="M0,0h128v130h-128Z"></path><g><g class="mark-line role-mark child_layer_0_layer_0_marks" role="graphics-object" aria-roledescription="line mark container"><path aria-label="Time (s): -0.96875; Source: object; Decoding Correlation: 0.0486023786953" role="graphics-symbol" aria-roledescription="line mark" d="M1.1428571428571428,65.45422692401749L4.571428571428571,68.04890824107484L8,69.81566758060625L11.428571428571429,81.72580869469725L14.857142857142858,85.28489185834842L18.285714285714285,83.52366957961881L21.714285714285715,80.54263128122898L25.142857142857142,78.9964949626181L28.571428571428573,82.72615298640443L32,82.72407933919598L35.42857142857143,78.98544622893408L38.857142857142854,75.26035202354998L42.285714285714285,78.20637565828719L45.714285714285715,74.77287864697959L49.142857142857146,67.66701657806769L52.57142857142857,68.11758966414097L56,68.0193296288675L59.42857142857143,73.21617531300659L62.857142857142854,73.84486757527549L66.28571428571429,69.25950955328861L69.71428571428571,67.77051696271641L73.14285714285714,69.82878260486657L76.57142857142857,70.19551213254732L80,66.76160580894962L83.42857142857143,63.77445594273791L86.85714285714286,66.9791855703402L90.28571428571429,68.00186539806002L93.71428571428571,73.90475341986824L97.14285714285714,75.01979452023446L100.57142857142857,73.82908961487436L104,76.3464534201757L107.42857142857143,71.88545638674057L110.85714285714286,72.67592735825657L114.28571428571429,73.20134378178925L117.71428571428571,74.71639073937367L121.14285714285714,71.1930381087793L124.57142857142857,73.92505660472595" stroke="#0F3C5F" stroke-width="2" stroke-linejoin="round"></path></g></g><path class="foreground" aria-hidden="true" d="" display="none"></path></g></g><g class="mark-group role-scope child_layer_0_layer_1_layer_0_pathgroup" role="graphics-object" aria-roledescription="group mark container"><g transform="translate(0,0)"><path class="background" aria-hidden="true" d="M0,0h128v130h-128Z"></path><g><g class="mark-area role-mark child_layer_0_layer_1_layer_0_marks" role="graphics-object" aria-roledescription="area mark container"><path aria-label=": -0.0135498524621; upper_lower: 0.056464358962; Time (s): -0.96875; Source: other; upper: 0.056464358962; lower: -0.0135498524621" role="graphics-symbol" aria-roledescription="errorband" d="M1.1428571428571428,85.65370205018664L4.571428571428571,88.01262681396972L8,90.11657146886725L11.428571428571429,87.14332787350332L14.857142857142858,85.06853763880865L18.285714285714285,86.76902388921525L21.714285714285715,87.48623009507548L25.142857142857142,90.36186733635253L28.571428571428573,91.86320192061788L32,91.00529146313784L35.42857142857143,86.8440034890503L38.857142857142854,81.67972960624465L42.285714285714285,77.22251570274364L45.714285714285715,75.14594423178549L49.142857142857146,79.07899656768717L52.57142857142857,81.00652727987199L56,83.66117900533317L59.42857142857143,83.325818954239L62.857142857142854,81.55172469588237L66.28571428571429,79.86480369954053L69.71428571428571,81.87070289179304L73.14285714285714,84.71758259711997L76.57142857142857,88.21269989669204L80,87.27770132638517L83.42857142857143,88.90717838608576L86.85714285714286,95.29736374572497L90.28571428571429,95.86452281415845L93.71428571428571,95.13486493592877L97.14285714285714,101.41111616328531L100.57142857142857,105.31417500235148L104,102.40829470578122L107.42857142857143,101.45921146676396L110.85714285714286,102.47861043483698L114.28571428571429,100.85257123407926L117.71428571428571,99.2296956933809L121.14285714285714,103.60748468342379L124.57142857142857,105.2453609259901L124.57142857142857,80.83691311471847L121.14285714285714,80.92196875300577L117.71428571428571,79.27270945195424L114.28571428571429,78.12005742677458L110.85714285714286,80.46830228819883L107.42857142857143,79.0019650551982L104,85.27423264430428L100.57142857142857,88.80868189413624L97.14285714285714,84.34187854635657L93.71428571428571,77.3929611677461L90.28571428571429,74.54948144639002L86.85714285714286,74.69033798800959L83.42857142857143,69.69688304358816L80,69.81040123489419L76.57142857142857,68.82409986515984L73.14285714285714,62.2244120317418L69.71428571428571,61.71019000586231L66.28571428571429,61.132885346258995L62.857142857142854,61.603062144659944L59.42857142857143,63.35743858285183L56,62.15153971325949L52.57142857142857,60.52551191904777L49.142857142857146,59.56426526070295L45.714285714285715,55.252880462332904L42.285714285714285,56.92837321995228L38.857142857142854,63.869854926295666L35.42857142857143,67.28289895653742L32,68.76534427763282L28.571428571428573,67.27238499190001L25.142857142857142,70.11376232956161L21.714285714285715,68.53331701876623L18.285714285714285,67.97607095266707L14.857142857142858,66.80013261783498L11.428571428571429,66.0578225796146L8,70.81308977269151L4.571428571428571,65.52819334743856L1.1428571428571428,62.899083337341665Z" fill="#2C2C2C" opacity="0.3"></path></g></g><path class="foreground" aria-hidden="true" d="" display="none"></path></g><g transform="translate(0,0)"><path class="background" aria-hidden="true" d="M0,0h128v130h-128Z"></path><g><g class="mark-area role-mark child_layer_0_layer_1_layer_0_marks" role="graphics-object" aria-roledescription="area mark container"><path aria-label=": 0.00681397402129; upper_lower: 0.0901455033042; Time (s): -0.96875; Source: object; upper: 0.0901455033042; lower: 0.00681397402129" role="graphics-symbol" aria-roledescription="errorband" d="M1.1428571428571428,79.03545844308186L4.571428571428571,83.43919159603988L8,82.9814585386967L11.428571428571429,96.10164431130123L14.857142857142858,99.89294835685126L18.285714285714285,99.22174195675251L21.714285714285715,91.12506876487828L25.142857142857142,89.26946573816237L28.571428571428573,95.4443127032898L32,94.7395169650627L35.42857142857143,92.14660980002778L38.857142857142854,89.16121270264138L42.285714285714285,93.0738276995965L45.714285714285715,86.78083751844817L49.142857142857146,80.64769151026607L52.57142857142857,81.45314185730679L56,81.77421968083416L59.42857142857143,83.65581152097025L62.857142857142854,83.8183634818417L66.28571428571429,80.1113430082234L69.71428571428571,79.69138532978752L73.14285714285714,81.58108276275449L76.57142857142857,82.57645491406434L80,79.05976479942075L83.42857142857143,77.10929198888999L86.85714285714286,81.34944091342116L90.28571428571429,80.55207607017866L93.71428571428571,85.57279033528492L97.14285714285714,85.65380650490434L100.57142857142857,84.71757094095969L104,89.25630019334366L107.42857142857143,83.13911170585347L110.85714285714286,85.22311195981459L114.28571428571429,88.78112073287839L117.71428571428571,89.7582979419706L121.14285714285714,86.50443940167926L124.57142857142857,89.73109997067832L124.57142857142857,57.735317768679415L121.14285714285714,54.378574260131195L117.71428571428571,60.03710236856496L114.28571428571429,58.67919487402318L110.85714285714286,60.38560504946652L107.42857142857143,60.818376811432536L104,62.464619579985175L100.57142857142857,62.98183201958557L97.14285714285714,63.47936895888931L93.71428571428571,62.305280950338606L90.28571428571429,55.763617530440506L86.85714285714286,52.86985920854128L83.42857142857143,49.95333225280862L80,54.02456014854296L76.57142857142857,57.865957265253655L73.14285714285714,57.86056756646896L69.71428571428571,55.92419589346013L66.28571428571429,58.91505915551606L62.857142857142854,64.8177021039197L59.42857142857143,62.81993087112998L56,53.620472288833376L52.57142857142857,54.55383710411361L49.142857142857146,54.04341600487006L45.714285714285715,62.480151114237515L42.285714285714285,63.49005435295902L38.857142857142854,60.75452946331989L35.42857142857143,65.85495948554554L32,70.32061700980366L28.571428571428573,70.12222255479011L25.142857142857142,68.97938477695752L21.714285714285715,70.74320664193833L18.285714285714285,69.71228200970661L14.857142857142858,70.7533481757664L11.428571428571429,67.8171658071138L8,57.30138260367948L4.571428571428571,53.052140327919425L1.1428571428571428,51.95271142612808Z" fill="#0F3C5F" opacity="0.3"></path></g></g><path class="foreground" aria-hidden="true" d="" display="none"></path></g></g><g class="mark-text role-mark child_layer_0_layer_2_marks" role="graphics-object" aria-roledescription="text mark container"><text aria-label=": 1.46875; Source: object; Mean of upper: 0.0873468625725; train_type_lbl: Target,Source" role="graphics-symbol" aria-roledescription="text mark" text-anchor="start" transform="translate(93.28571428571429,46.862269663930135)" font-family="sans-serif" font-size="11px" fill="#0F3C5F"><tspan>Target</tspan><tspan x="0" dy="13">Source</tspan></text></g><g class="mark-text role-mark child_layer_0_layer_3_marks" role="graphics-object" aria-roledescription="text mark container"><text aria-label=": 1.375; Source: other; Mean of lower: -0.0432226576792; train_type_lbl: Other,Sources" role="graphics-symbol" aria-roledescription="text mark" text-anchor="end" transform="translate(89.85714285714286,107.29736374572497)" font-family="sans-serif" font-size="11px" fill="#2C2C2C"><tspan>Other</tspan><tspan x="0" dy="13">Sources</tspan></text></g><g class="mark-text role-mark child_layer_1_layer_0_marks" role="graphics-object" aria-roledescription="text mark container"><text text-anchor="middle" transform="translate(54.857142857142854,14.250000000000014)" font-family="sans-serif" font-size="11px" fill="black"><tspan>Target</tspan><tspan x="0" dy="13">Extent</tspan></text></g><g class="mark-rect role-mark child_layer_1_layer_1_marks" role="graphics-symbol" aria-roledescription="rect mark container"><path d="M36.57142857142857,0h36.57142857142857v130h-36.57142857142857Z" fill="gray" opacity="0.25"></path></g></g><path class="foreground" aria-hidden="true" d="" display="none"></path></g><g transform="translate(141,0)"><path class="background" aria-hidden="true" d="M0.5,0.5h128v130h-128Z" stroke="#ddd"></path><g><g class="mark-group role-axis" aria-hidden="true"><g transform="translate(0.5,130.5)"><path class="background" aria-hidden="true" d="M0,0h0v0h0Z" pointer-events="none"></path><g><g class="mark-rule role-axis-grid" pointer-events="none"><line transform="translate(0,-130)" x2="0" y2="130" stroke="#ddd" stroke-width="1" opacity="1"></line><line transform="translate(37,-130)" x2="0" y2="130" stroke="#ddd" stroke-width="1" opacity="1"></line><line transform="translate(73,-130)" x2="0" y2="130" stroke="#ddd" stroke-width="1" opacity="1"></line><line transform="translate(110,-130)" x2="0" y2="130" stroke="#ddd" stroke-width="1" opacity="1"></line></g></g><path class="foreground" aria-hidden="true" d="" pointer-events="none" display="none"></path></g></g><g class="mark-group role-axis" aria-hidden="true"><g transform="translate(0.5,0.5)"><path class="background" aria-hidden="true" d="M0,0h0v0h0Z" pointer-events="none"></path><g><g class="mark-rule role-axis-grid" pointer-events="none"><line transform="translate(0,114)" x2="128" y2="0" stroke="#ddd" stroke-width="1" opacity="1"></line><line transform="translate(0,81)" x2="128" y2="0" stroke="#ddd" stroke-width="1" opacity="1"></line><line transform="translate(0,49)" x2="128" y2="0" stroke="#ddd" stroke-width="1" opacity="1"></line><line transform="translate(0,16)" x2="128" y2="0" stroke="#ddd" stroke-width="1" opacity="1"></line></g></g><path class="foreground" aria-hidden="true" d="" pointer-events="none" display="none"></path></g></g><g class="mark-group role-scope child_layer_0_layer_0_pathgroup" role="graphics-object" aria-roledescription="group mark container"><g transform="translate(0,0)"><path class="background" aria-hidden="true" d="M0,0h128v130h-128Z"></path><g><g class="mark-line role-mark child_layer_0_layer_0_marks" role="graphics-object" aria-roledescription="line mark container"><path aria-label="Time (s): -0.96875; Source: other; Decoding Correlation: 0.0147607685396" role="graphics-symbol" aria-roledescription="line mark" d="M1.1428571428571428,76.45275022463956L4.571428571428571,75.8881379882857L8,76.16209863327869L11.428571428571429,76.89495804266312L14.857142857142858,78.12144899479182L18.285714285714285,78.3283594304249L21.714285714285715,78.17374496465295L25.142857142857142,79.7719744664035L28.571428571428573,80.54878192223327L32,79.92339519573662L35.42857142857143,76.75698351385829L38.857142857142854,77.75700422808899L42.285714285714285,73.86639012188462L45.714285714285715,69.93661091815612L49.142857142857146,69.25100615732806L52.57142857142857,69.94615968314368L56,68.02732349506554L59.42857142857143,71.23800602276684L62.857142857142854,65.82023839189216L66.28571428571429,65.91229038905584L69.71428571428571,66.74614434716173L73.14285714285714,67.97705944113659L76.57142857142857,69.21987517904338L80,69.85778444373442L83.42857142857143,73.25623898492788L86.85714285714286,75.9075204088069L90.28571428571429,78.2326608518331L93.71428571428571,78.41541867401223L97.14285714285714,78.92019361070204L100.57142857142857,82.63815919241011L104,86.06075746934602L107.42857142857143,85.64312219980992L110.85714285714286,86.17309858099185L114.28571428571429,84.63107389486058L117.71428571428571,87.58187766826408L121.14285714285714,84.45047684720338L124.57142857142857,85.1984223189533" stroke="#2C2C2C" stroke-width="2" stroke-linejoin="round"></path></g></g><path class="foreground" aria-hidden="true" d="" display="none"></path></g><g transform="translate(0,0)"><path class="background" aria-hidden="true" d="M0,0h128v130h-128Z"></path><g><g class="mark-line role-mark child_layer_0_layer_0_marks" role="graphics-object" aria-roledescription="line mark container"><path aria-label="Time (s): -0.96875; Source: object; Decoding Correlation: 0.0168577581549" role="graphics-symbol" aria-roledescription="line mark" d="M1.1428571428571428,75.7712285996443L4.571428571428571,78.02041090233747L8,78.4114663550908L11.428571428571429,80.04294860675382L14.857142857142858,80.51053366868614L18.285714285714285,81.20694024872988L21.714285714285715,81.46360991645884L25.142857142857142,86.99462769601797L28.571428571428573,84.75796701402425L32,87.19245295175283L35.42857142857143,84.82571224047395L38.857142857142854,86.53666339205537L42.285714285714285,85.60721866970009L45.714285714285715,84.7348922227603L49.142857142857146,82.99348309800992L52.57142857142857,82.93076970364226L56,81.43440607978567L59.42857142857143,75.58105753610978L62.857142857142854,70.34437933131933L66.28571428571429,62.636149809669334L69.71428571428571,56.147397970043905L73.14285714285714,58.63307418273432L76.57142857142857,59.12732542433022L80,63.783928715556115L83.42857142857143,65.27314519134531L86.85714285714286,64.31685013973778L90.28571428571429,65.4371510513371L93.71428571428571,65.1327748413286L97.14285714285714,68.02977806580299L100.57142857142857,70.22666332159507L104,71.39003152275026L107.42857142857143,79.0244538289528L110.85714285714286,79.72275298623354L114.28571428571429,78.72012136278623L117.71428571428571,78.49092293173933L121.14285714285714,81.61462981715485L124.57142857142857,80.63458243703916" stroke="#0F3C5F" stroke-width="2" stroke-linejoin="round"></path></g></g><path class="foreground" aria-hidden="true" d="" display="none"></path></g></g><g class="mark-group role-scope child_layer_0_layer_1_layer_0_pathgroup" role="graphics-object" aria-roledescription="group mark container"><g transform="translate(0,0)"><path class="background" aria-hidden="true" d="M0,0h128v130h-128Z"></path><g><g class="mark-area role-mark child_layer_0_layer_1_layer_0_marks" role="graphics-object" aria-roledescription="area mark container"><path aria-label=": -0.00620103364648; upper_lower: 0.0374762822203; Time (s): -0.96875; Source: other; upper: 0.0374762822203; lower: -0.00620103364648" role="graphics-symbol" aria-roledescription="errorband" d="M1.1428571428571428,83.26533593510467L4.571428571428571,81.9605121941266L8,81.95884344790306L11.428571428571429,83.05714629669329L14.857142857142858,85.28732885741566L18.285714285714285,85.1328819191195L21.714285714285715,85.05641644086731L25.142857142857142,87.6700880111639L28.571428571428573,87.6661856146319L32,86.0797126609148L35.42857142857143,83.9306446628072L38.857142857142854,85.5107910768944L42.285714285714285,80.05667134261505L45.714285714285715,75.29950355527211L49.142857142857146,74.26552505221949L52.57142857142857,75.41441117169973L56,73.32641147617821L59.42857142857143,75.43668312909399L62.857142857142854,71.05564573500149L66.28571428571429,70.77213556546435L69.71428571428571,72.72490684524638L73.14285714285714,73.64476826503801L76.57142857142857,76.12092807642767L80,75.98017089840923L83.42857142857143,78.91392514958169L86.85714285714286,81.97728405665298L90.28571428571429,83.95634247221102L93.71428571428571,83.77058931511206L97.14285714285714,85.25622178359244L100.57142857142857,88.52358424899182L104,92.62461004721237L107.42857142857143,92.96168844491339L110.85714285714286,93.9637583372396L114.28571428571429,91.65865338297077L117.71428571428571,94.54655610824368L121.14285714285714,92.34147398111516L124.57142857142857,93.43270739119063L124.57142857142857,75.16577695073143L121.14285714285714,74.75211690530156L117.71428571428571,79.62255826464774L114.28571428571429,75.95153183405513L110.85714285714286,77.51910105264145L107.42857142857143,77.98341700434591L104,78.99369372278004L100.57142857142857,76.43173052938799L97.14285714285714,72.32411669538246L93.71428571428571,72.34994477784694L90.28571428571429,72.0947429980618L86.85714285714286,69.29007906315135L83.42857142857143,67.19470748876695L80,63.644664157445824L76.57142857142857,62.614707215985966L73.14285714285714,62.35629863163496L69.71428571428571,61.11733350667483L66.28571428571429,61.1777933803039L62.857142857142854,60.793039915701414L59.42857142857143,66.86557229523596L56,62.915161099813496L52.57142857142857,64.13220135674872L49.142857142857146,64.3308682238336L45.714285714285715,64.54803305045509L42.285714285714285,67.9611467531821L38.857142857142854,69.12858120743103L35.42857142857143,68.2379136320006L32,72.0519055222149L28.571428571428573,71.74690260391199L25.142857142857142,70.77824988754588L21.714285714285715,70.63072493642593L18.285714285714285,71.22038942850075L14.857142857142858,70.62424324241087L11.428571428571429,70.01159338698457L8,69.2230370756838L4.571428571428571,69.04158387520893L1.1428571428571428,69.07020827839773Z" fill="#2C2C2C" opacity="0.3"></path></g></g><path class="foreground" aria-hidden="true" d="" display="none"></path></g><g transform="translate(0,0)"><path class="background" aria-hidden="true" d="M0,0h128v130h-128Z"></path><g><g class="mark-area role-mark child_layer_0_layer_1_layer_0_marks" role="graphics-object" aria-roledescription="area mark container"><path aria-label=": -0.00213971144652; upper_lower: 0.0364601396383; Time (s): -0.96875; Source: object; upper: 0.0364601396383; lower: -0.00213971144652" role="graphics-symbol" aria-roledescription="errorband" d="M1.1428571428571428,81.94540622011846L4.571428571428571,84.65518856090699L8,86.55548241986963L11.428571428571429,89.59534635144861L14.857142857142858,90.93709760949687L18.285714285714285,90.55620180621204L21.714285714285715,91.4322989934738L25.142857142857142,97.1498363514013L28.571428571428573,94.72357439422608L32,95.1934911286021L35.42857142857143,92.29999053249938L38.857142857142854,94.79377245212268L42.285714285714285,93.29940288403455L45.714285714285715,92.76903909959294L49.142857142857146,90.24875630735167L52.57142857142857,89.93850712252895L56,89.91746302672937L59.42857142857143,84.45850274288826L62.857142857142854,78.84244520364557L66.28571428571429,74.35929569594742L69.71428571428571,68.43431004490672L73.14285714285714,68.45940000801232L76.57142857142857,70.2674547967628L80,72.80751486790707L83.42857142857143,73.27283133201871L86.85714285714286,72.07188987939298L90.28571428571429,75.90270254753345L93.71428571428571,77.14407933155596L97.14285714285714,80.0756418818774L100.57142857142857,82.47849706179055L104,85.28214725337511L107.42857142857143,90.7080501714315L110.85714285714286,90.87571595946659L114.28571428571429,89.0209989490193L117.71428571428571,89.35650497338202L121.14285714285714,90.90252453309117L124.57142857142857,90.46896336988368L124.57142857142857,71.73086053576988L121.14285714285714,72.46675526064075L117.71428571428571,68.63722761498718L114.28571428571429,69.9704282244396L110.85714285714286,70.13102885396023L107.42857142857143,68.78625832549255L104,60.05107498051926L100.57142857142857,59.18869801061295L97.14285714285714,56.3245822214127L93.71428571428571,53.432148172168766L90.28571428571429,55.2707730718961L86.85714285714286,56.49414588606295L83.42857142857143,56.36135189230042L80,54.232496584178705L76.57142857142857,47.56751377489245L73.14285714285714,48.643949217084824L69.71428571428571,43.73806204249568L66.28571428571429,51.600388790898L62.857142857142854,61.708760885637375L59.42857142857143,66.55147528209747L56,72.37046761292324L52.57142857142857,76.12961678171149L49.142857142857146,75.79301889003143L45.714285714285715,76.41910925316762L42.285714285714285,77.25803910347918L38.857142857142854,77.77554690438903L35.42857142857143,76.90973987860141L32,78.87458357565272L28.571428571428573,74.72547920839791L25.142857142857142,76.80304292453248L21.714285714285715,71.51261836059412L18.285714285714285,71.99713478203003L14.857142857142858,69.4171241454583L11.428571428571429,70.43907542047789L8,70.1193194170949L4.571428571428571,71.28106526383525L1.1428571428571428,69.40045461753704Z" fill="#0F3C5F" opacity="0.3"></path></g></g><path class="foreground" aria-hidden="true" d="" display="none"></path></g></g><g class="mark-text role-mark child_layer_0_layer_2_marks" role="graphics-object" aria-roledescription="text mark container"><text aria-label=": 1.46875; Source: object; Mean of upper: 0.0775627991279; train_type_lbl: Target,Source" role="graphics-symbol" aria-roledescription="text mark" text-anchor="start" transform="translate(93.28571428571429,50.04209028341982)" font-family="sans-serif" font-size="11px" fill="#0F3C5F"><tspan>Target</tspan><tspan x="0" dy="13">Source</tspan></text></g><g class="mark-text role-mark child_layer_0_layer_3_marks" role="graphics-object" aria-roledescription="text mark container"><text aria-label=": 1.375; Source: other; Mean of lower: -0.00223779709739; train_type_lbl: Other,Sources" role="graphics-symbol" aria-roledescription="text mark" text-anchor="end" transform="translate(89.85714285714286,93.97728405665298)" font-family="sans-serif" font-size="11px" fill="#2C2C2C"><tspan>Other</tspan><tspan x="0" dy="13">Sources</tspan></text></g><g class="mark-text role-mark child_layer_1_layer_0_marks" role="graphics-object" aria-roledescription="text mark container"><text text-anchor="middle" transform="translate(54.857142857142854,14.250000000000014)" font-family="sans-serif" font-size="11px" fill="black"><tspan>Target</tspan><tspan x="0" dy="13">Extent</tspan></text></g><g class="mark-rect role-mark child_layer_1_layer_1_marks" role="graphics-symbol" aria-roledescription="rect mark container"><path d="M36.57142857142857,0h36.57142857142857v130h-36.57142857142857Z" fill="gray" opacity="0.25"></path></g></g><path class="foreground" aria-hidden="true" d="" display="none"></path></g><g transform="translate(0,137)"><path class="background" aria-hidden="true" d="M0.5,0.5h128v130h-128Z" stroke="#ddd"></path><g><g class="mark-group role-axis" aria-hidden="true"><g transform="translate(0.5,130.5)"><path class="background" aria-hidden="true" d="M0,0h0v0h0Z" pointer-events="none"></path><g><g class="mark-rule role-axis-grid" pointer-events="none"><line transform="translate(0,-130)" x2="0" y2="130" stroke="#ddd" stroke-width="1" opacity="1"></line><line transform="translate(37,-130)" x2="0" y2="130" stroke="#ddd" stroke-width="1" opacity="1"></line><line transform="translate(73,-130)" x2="0" y2="130" stroke="#ddd" stroke-width="1" opacity="1"></line><line transform="translate(110,-130)" x2="0" y2="130" stroke="#ddd" stroke-width="1" opacity="1"></line></g></g><path class="foreground" aria-hidden="true" d="" pointer-events="none" display="none"></path></g></g><g class="mark-group role-axis" aria-hidden="true"><g transform="translate(0.5,0.5)"><path class="background" aria-hidden="true" d="M0,0h0v0h0Z" pointer-events="none"></path><g><g class="mark-rule role-axis-grid" pointer-events="none"><line transform="translate(0,114)" x2="128" y2="0" stroke="#ddd" stroke-width="1" opacity="1"></line><line transform="translate(0,81)" x2="128" y2="0" stroke="#ddd" stroke-width="1" opacity="1"></line><line transform="translate(0,49)" x2="128" y2="0" stroke="#ddd" stroke-width="1" opacity="1"></line><line transform="translate(0,16)" x2="128" y2="0" stroke="#ddd" stroke-width="1" opacity="1"></line></g></g><path class="foreground" aria-hidden="true" d="" pointer-events="none" display="none"></path></g></g><g class="mark-group role-scope child_layer_0_layer_0_pathgroup" role="graphics-object" aria-roledescription="group mark container"><g transform="translate(0,0)"><path class="background" aria-hidden="true" d="M0,0h128v130h-128Z"></path><g><g class="mark-line role-mark child_layer_0_layer_0_marks" role="graphics-object" aria-roledescription="line mark container"><path aria-label="Time (s): -0.96875; Source: other; Decoding Correlation: -0.0141571532149" role="graphics-symbol" aria-roledescription="line mark" d="M1.1428571428571428,85.85107479484697L4.571428571428571,88.22026899673857L8,85.1181719672878L11.428571428571429,87.16752814425654L14.857142857142858,87.69050355729756L18.285714285714285,86.63737121784051L21.714285714285715,89.1281648279239L25.142857142857142,89.79184152641373L28.571428571428573,87.18775996551415L32,84.820383624043L35.42857142857143,82.89736212748122L38.857142857142854,74.69082344762609L42.285714285714285,77.04364963721741L45.714285714285715,77.52996484949858L49.142857142857146,75.61618901365678L52.57142857142857,73.54373489701028L56,72.36491109155334L59.42857142857143,76.81905936282834L62.857142857142854,75.79334762668931L66.28571428571429,72.43550151491871L69.71428571428571,71.42128377821943L73.14285714285714,69.35887996869208L76.57142857142857,71.72356032197457L80,68.84523265316136L83.42857142857143,67.47502681184898L86.85714285714286,68.66052171597146L90.28571428571429,66.22130372136662L93.71428571428571,64.17061818613641L97.14285714285714,61.23196787124588L100.57142857142857,55.18485514584322L104,64.67430249885128L107.42857142857143,68.88675841522628L110.85714285714286,69.18740595565578L114.28571428571429,68.519456712687L117.71428571428571,69.78712909034788L121.14285714285714,70.62661077668245L124.57142857142857,64.867660233436" stroke="#2C2C2C" stroke-width="2" stroke-linejoin="round"></path></g></g><path class="foreground" aria-hidden="true" d="" display="none"></path></g><g transform="translate(0,0)"><path class="background" aria-hidden="true" d="M0,0h128v130h-128Z"></path><g><g class="mark-line role-mark child_layer_0_layer_0_marks" role="graphics-object" aria-roledescription="line mark container"><path aria-label="Time (s): -0.96875; Source: object; Decoding Correlation: 0.0054466761465" role="graphics-symbol" aria-roledescription="line mark" d="M1.1428571428571428,79.47983025238676L4.571428571428571,77.48078050632014L8,81.3566997197365L11.428571428571429,84.75769713203272L14.857142857142858,86.39143703066787L18.285714285714285,91.95320179241575L21.714285714285715,80.30038102900241L25.142857142857142,81.4964511267091L28.571428571428573,81.1343378949856L32,80.55957592873705L35.42857142857143,84.70919402535537L38.857142857142854,90.97051846828141L42.285714285714285,94.9769968885329L45.714285714285715,98.07227124087585L49.142857142857146,99.39656029624894L52.57142857142857,99.1885399188243L56,86.78353530996485L59.42857142857143,71.6699054396503L62.857142857142854,62.538352807457066L66.28571428571429,51.576741828971244L69.71428571428571,51.451631861571954L73.14285714285714,42.18858665212851L76.57142857142857,43.882100804375675L80,42.13494031130069L83.42857142857143,43.957992916877416L86.85714285714286,45.2405988241696L90.28571428571429,38.402649705850614L93.71428571428571,50.057506885006205L97.14285714285714,52.97790471758888L100.57142857142857,72.01209311295696L104,81.85673003926645L107.42857142857143,81.56570178933295L110.85714285714286,75.88347733473822L114.28571428571429,74.09260468350094L117.71428571428571,72.36260757636116L121.14285714285714,66.77899740597611L124.57142857142857,64.70696455418668" stroke="#0F3C5F" stroke-width="2" stroke-linejoin="round"></path></g></g><path class="foreground" aria-hidden="true" d="" display="none"></path></g></g><g class="mark-group role-scope child_layer_0_layer_1_layer_0_pathgroup" role="graphics-object" aria-roledescription="group mark container"><g transform="translate(0,0)"><path class="background" aria-hidden="true" d="M0,0h128v130h-128Z"></path><g><g class="mark-area role-mark child_layer_0_layer_1_layer_0_marks" role="graphics-object" aria-roledescription="area mark container"><path aria-label=": -0.0531388842068; upper_lower: 0.0272015037452; Time (s): -0.96875; Source: other; upper: 0.0272015037452; lower: -0.0531388842068" role="graphics-symbol" aria-roledescription="errorband" d="M1.1428571428571428,98.52013736721217L4.571428571428571,101.12974647291415L8,98.29563747459169L11.428571428571429,99.02134969174375L14.857142857142858,98.07010527777643L18.285714285714285,96.16666013226295L21.714285714285715,101.60036592384343L25.142857142857142,101.92397020389554L28.571428571428573,102.27909427857391L32,97.53712810435479L35.42857142857143,93.76171214755348L38.857142857142854,84.37950532276021L42.285714285714285,87.15218107458077L45.714285714285715,90.10355941260035L49.142857142857146,88.90587456853781L52.57142857142857,87.84149004358713L56,87.07912862306344L59.42857142857143,87.48682343486017L62.857142857142854,86.31411337997972L66.28571428571429,83.62607312637853L69.71428571428571,82.48965907505801L73.14285714285714,79.82340313284034L76.57142857142857,80.97303065410658L80,79.79619677411854L83.42857142857143,79.74409427684246L86.85714285714286,81.17592907597887L90.28571428571429,77.26716716516219L93.71428571428571,75.352354301991L97.14285714285714,72.31787889601782L100.57142857142857,64.6852085948637L104,72.45322593486272L107.42857142857143,75.29559353582378L110.85714285714286,77.09118672107124L114.28571428571429,77.94688458563613L117.71428571428571,80.40565457362044L121.14285714285714,79.38026728851334L124.57142857142857,74.73902382012892L124.57142857142857,54.71920357717275L121.14285714285714,62.000349356869734L117.71428571428571,59.647443329332475L114.28571428571429,59.526048935482585L110.85714285714286,61.52902704789329L107.42857142857143,62.40210528262112L104,57.23165053717616L100.57142857142857,46.504230040099806L97.14285714285714,51.06091943515865L93.71428571428571,53.68240307495316L90.28571428571429,55.67825662117343L86.85714285714286,56.32938039481983L83.42857142857143,55.99084931180837L80,57.99958719859109L76.57142857142857,62.81128113639524L73.14285714285714,58.41750223609425L69.71428571428571,59.72652285373143L66.28571428571429,60.63713224712607L62.857142857142854,65.32771107445578L59.42857142857143,65.66948737146232L56,58.732589202325414L52.57142857142857,59.882726688647494L49.142857142857146,62.69244948964589L45.714285714285715,65.33799896051865L42.285714285714285,67.26682296923359L38.857142857142854,65.2881475292934L35.42857142857143,72.66409435741016L32,73.51449982783704L28.571428571428573,73.51709649566388L25.142857142857142,78.04719911775959L21.714285714285715,76.22474165746588L18.285714285714285,76.51102804117161L14.857142857142858,76.35118076138923L11.428571428571429,74.61533361029362L8,71.30533296868165L4.571428571428571,74.94737892470097L1.1428571428571428,72.40951128281544Z" fill="#2C2C2C" opacity="0.3"></path></g></g><path class="foreground" aria-hidden="true" d="" display="none"></path></g><g transform="translate(0,0)"><path class="background" aria-hidden="true" d="M0,0h128v130h-128Z"></path><g><g class="mark-area role-mark child_layer_0_layer_1_layer_0_marks" role="graphics-object" aria-roledescription="area mark container"><path aria-label=": -0.0337522863397; upper_lower: 0.0460609486125; Time (s): -0.96875; Source: object; upper: 0.0460609486125; lower: -0.0337522863397" role="graphics-symbol" aria-roledescription="errorband" d="M1.1428571428571428,92.21949306039542L4.571428571428571,92.5463621514251L8,97.85007538905228L11.428571428571429,98.24266348080468L14.857142857142858,100.88465594119884L18.285714285714285,109.31134196541123L21.714285714285715,97.93689603907733L25.142857142857142,98.67743529127615L28.571428571428573,98.12166361087338L32,99.00330503353318L35.42857142857143,103.35221192958188L38.857142857142854,108.69842772506878L42.285714285714285,114.99014180170377L45.714285714285715,119.00295749677035L49.142857142857146,118.69519955550616L52.57142857142857,116.55453042352376L56,102.41214707405682L59.42857142857143,86.17350443025437L62.857142857142854,75.73087244728013L66.28571428571429,65.80736594496987L69.71428571428571,64.45927378440035L73.14285714285714,57.961140815070294L76.57142857142857,58.247238590726056L80,55.54208962023736L83.42857142857143,56.07217919040514L86.85714285714286,57.26509198640761L90.28571428571429,52.075660561859245L93.71428571428571,64.61247137563974L97.14285714285714,66.01076068968493L100.57142857142857,83.52581214641202L104,95.80423595371354L107.42857142857143,95.92449296422424L110.85714285714286,92.95566397288991L114.28571428571429,88.4527463081215L117.71428571428571,87.48508025380822L121.14285714285714,82.39285055149266L124.57142857142857,78.61515370852395L124.57142857142857,51.079584733689785L121.14285714285714,51.92510805287756L117.71428571428571,57.93443817622251L114.28571428571429,60.12189612725649L110.85714285714286,59.936847895217994L107.42857142857143,67.46882493381676L104,67.8813649123425L100.57142857142857,60.41429079364923L97.14285714285714,38.712756856771044L93.71428571428571,34.700235394315804L90.28571428571429,24.034446337961768L86.85714285714286,32.90399326716628L83.42857142857143,31.939308684082786L80,28.451973750516867L76.57142857142857,29.803511710007648L73.14285714285714,26.875634589940695L69.71428571428571,38.27193551849052L66.28571428571429,36.8051984287337L62.857142857142854,49.053090943377946L59.42857142857143,57.18633527528735L56,70.17617715888004L52.57142857142857,79.92423284206836L49.142857142857146,78.53890005401671L45.714285714285715,75.5902756225342L42.285714285714285,74.190357630539L38.857142857142854,71.3748957145944L35.42857142857143,64.6600378063465L32,61.088434764902104L28.571428571428573,64.27913295047102L25.142857142857142,64.95887197761142L21.714285714285715,62.461999558360475L18.285714285714285,74.13340423451338L14.857142857142858,71.31200389034385L11.428571428571429,70.37251974055403L8,65.00215763555502L4.571428571428571,62.27883314414496L1.1428571428571428,66.28019170093653Z" fill="#0F3C5F" opacity="0.3"></path></g></g><path class="foreground" aria-hidden="true" d="" display="none"></path></g></g><g class="mark-text role-mark child_layer_0_layer_2_marks" role="graphics-object" aria-roledescription="text mark container"><text aria-label=": 1.46875; Source: object; Mean of upper: 0.158843335088; train_type_lbl: Target,Source" role="graphics-symbol" aria-roledescription="text mark" text-anchor="start" transform="translate(93.28571428571429,23.62591609640361)" font-family="sans-serif" font-size="11px" fill="#0F3C5F"><tspan>Target</tspan><tspan x="0" dy="13">Source</tspan></text></g><g class="mark-text role-mark child_layer_0_layer_3_marks" role="graphics-object" aria-roledescription="text mark container"><text aria-label=": 1.375; Source: other; Mean of lower: 0.00022791053545; train_type_lbl: Other,Sources" role="graphics-symbol" aria-roledescription="text mark" text-anchor="end" transform="translate(89.85714285714286,93.17592907597887)" font-family="sans-serif" font-size="11px" fill="#2C2C2C"><tspan>Other</tspan><tspan x="0" dy="13">Sources</tspan></text></g><g class="mark-text role-mark child_layer_1_layer_0_marks" role="graphics-object" aria-roledescription="text mark container"><text text-anchor="middle" transform="translate(54.857142857142854,14.250000000000014)" font-family="sans-serif" font-size="11px" fill="black"><tspan>Target</tspan><tspan x="0" dy="13">Extent</tspan></text></g><g class="mark-rect role-mark child_layer_1_layer_1_marks" role="graphics-symbol" aria-roledescription="rect mark container"><path d="M36.57142857142857,0h36.57142857142857v130h-36.57142857142857Z" fill="gray" opacity="0.25"></path></g></g><path class="foreground" aria-hidden="true" d="" display="none"></path></g><g transform="translate(141,137)"><path class="background" aria-hidden="true" d="M0.5,0.5h128v130h-128Z" stroke="#ddd"></path><g><g class="mark-group role-axis" aria-hidden="true"><g transform="translate(0.5,130.5)"><path class="background" aria-hidden="true" d="M0,0h0v0h0Z" pointer-events="none"></path><g><g class="mark-rule role-axis-grid" pointer-events="none"><line transform="translate(0,-130)" x2="0" y2="130" stroke="#ddd" stroke-width="1" opacity="1"></line><line transform="translate(37,-130)" x2="0" y2="130" stroke="#ddd" stroke-width="1" opacity="1"></line><line transform="translate(73,-130)" x2="0" y2="130" stroke="#ddd" stroke-width="1" opacity="1"></line><line transform="translate(110,-130)" x2="0" y2="130" stroke="#ddd" stroke-width="1" opacity="1"></line></g></g><path class="foreground" aria-hidden="true" d="" pointer-events="none" display="none"></path></g></g><g class="mark-group role-axis" aria-hidden="true"><g transform="translate(0.5,0.5)"><path class="background" aria-hidden="true" d="M0,0h0v0h0Z" pointer-events="none"></path><g><g class="mark-rule role-axis-grid" pointer-events="none"><line transform="translate(0,114)" x2="128" y2="0" stroke="#ddd" stroke-width="1" opacity="1"></line><line transform="translate(0,81)" x2="128" y2="0" stroke="#ddd" stroke-width="1" opacity="1"></line><line transform="translate(0,49)" x2="128" y2="0" stroke="#ddd" stroke-width="1" opacity="1"></line><line transform="translate(0,16)" x2="128" y2="0" stroke="#ddd" stroke-width="1" opacity="1"></line></g></g><path class="foreground" aria-hidden="true" d="" pointer-events="none" display="none"></path></g></g><g class="mark-group role-scope child_layer_0_layer_0_pathgroup" role="graphics-object" aria-roledescription="group mark container"><g transform="translate(0,0)"><path class="background" aria-hidden="true" d="M0,0h128v130h-128Z"></path><g><g class="mark-line role-mark child_layer_0_layer_0_marks" role="graphics-object" aria-roledescription="line mark container"><path aria-label="Time (s): -0.96875; Source: other; Decoding Correlation: 0.0500669823183" role="graphics-symbol" aria-roledescription="line mark" d="M1.1428571428571428,64.97823074655139L4.571428571428571,65.94719598488949L8,65.68397727356614L11.428571428571429,70.12727821637198L14.857142857142858,75.247314597999L18.285714285714285,74.00346999898511L21.714285714285715,69.94787490085247L25.142857142857142,69.88500144571182L28.571428571428573,73.03710358698507L32,73.14578513609885L35.42857142857143,68.99142680825119L38.857142857142854,69.83059970970314L42.285714285714285,64.36672674125046L45.714285714285715,61.03056747528991L49.142857142857146,54.79083853837273L52.57142857142857,49.14673153174628L56,51.26467168160305L59.42857142857143,48.59578284129004L62.857142857142854,48.458610756346644L66.28571428571429,50.05366726586215L69.71428571428571,46.32449215750396L73.14285714285714,55.75911341768878L76.57142857142857,59.93186179604119L80,66.3865603714389L83.42857142857143,65.57618316663572L86.85714285714286,65.15816693496525L90.28571428571429,64.27653879577845L93.71428571428571,64.43207723111348L97.14285714285714,68.80199799589417L100.57142857142857,70.71142764123319L104,73.84380674071124L107.42857142857143,82.23134064680757L110.85714285714286,81.78183060529453L114.28571428571429,71.44509803247885L117.71428571428571,53.502024586702944L121.14285714285714,44.398874012053L124.57142857142857,41.56915107256067" stroke="#2C2C2C" stroke-width="2" stroke-linejoin="round"></path></g></g><path class="foreground" aria-hidden="true" d="" display="none"></path></g><g transform="translate(0,0)"><path class="background" aria-hidden="true" d="M0,0h128v130h-128Z"></path><g><g class="mark-line role-mark child_layer_0_layer_0_marks" role="graphics-object" aria-roledescription="line mark container"><path aria-label="Time (s): -0.96875; Source: object; Decoding Correlation: 0.0156805006363" role="graphics-symbol" aria-roledescription="line mark" d="M1.1428571428571428,76.15383729321516L4.571428571428571,77.2381935849924L8,77.50925307986523L11.428571428571429,74.21481648996448L14.857142857142858,68.77633241501837L18.285714285714285,63.32839104437389L21.714285714285715,72.5129564154093L25.142857142857142,74.06304678322603L28.571428571428573,76.1863736145143L32,79.31773037805857L35.42857142857143,75.6128465664272L38.857142857142854,75.99049669176043L42.285714285714285,75.69557934023588L45.714285714285715,70.90197298682952L49.142857142857146,68.29861498023988L52.57142857142857,73.04972557944215L56,62.65146230180193L59.42857142857143,51.32464884359023L62.857142857142854,50.22238752959965L66.28571428571429,51.01759017754925L69.71428571428571,38.94215363823158L73.14285714285714,24.966097604691708L76.57142857142857,26.87246870633799L80,33.98356359102344L83.42857142857143,42.27859115456788L86.85714285714286,46.95150012328806L90.28571428571429,60.159355409182375L93.71428571428571,58.833714032336374L97.14285714285714,57.60985621655731L100.57142857142857,54.33945167051409L104,61.76960768617573L107.42857142857143,75.05394758336945L110.85714285714286,87.19090198290193L114.28571428571429,79.76780189908817L117.71428571428571,67.25131113618134L121.14285714285714,74.0993183582689L124.57142857142857,56.056913616075406" stroke="#0F3C5F" stroke-width="2" stroke-linejoin="round"></path></g></g><path class="foreground" aria-hidden="true" d="" display="none"></path></g></g><g class="mark-group role-scope child_layer_0_layer_1_layer_0_pathgroup" role="graphics-object" aria-roledescription="group mark container"><g transform="translate(0,0)"><path class="background" aria-hidden="true" d="M0,0h128v130h-128Z"></path><g><g class="mark-area role-mark child_layer_0_layer_1_layer_0_marks" role="graphics-object" aria-roledescription="area mark container"><path aria-label=": 0.0198018200231; upper_lower: 0.0792106658442; Time (s): -0.96875; Source: other; upper: 0.0792106658442; lower: 0.0198018200231" role="graphics-symbol" aria-roledescription="errorband" d="M1.1428571428571428,74.81440849248992L4.571428571428571,78.19369504532054L8,75.95351206747145L11.428571428571429,79.43932164891315L14.857142857142858,84.72932638670221L18.285714285714285,81.48739174841894L21.714285714285715,77.75271280328901L25.142857142857142,77.12055576108501L28.571428571428573,80.69072989170964L32,82.55122827406437L35.42857142857143,78.36606527894577L38.857142857142854,79.15127849163942L42.285714285714285,72.74334931985383L45.714285714285715,70.46488579701955L49.142857142857146,63.75527620565978L52.57142857142857,58.483105997348034L56,60.350491154966605L59.42857142857143,57.556304550009784L62.857142857142854,55.9625996916025L66.28571428571429,58.11380755295369L69.71428571428571,55.80455792530307L73.14285714285714,67.30023800149522L76.57142857142857,70.42948576471568L80,75.82603756487588L83.42857142857143,74.67873166756452L86.85714285714286,75.09134610439729L90.28571428571429,73.9783860270922L93.71428571428571,74.28128310024195L97.14285714285714,79.04020370541642L100.57142857142857,80.54491955739003L104,82.99910053168861L107.42857142857143,92.60704081589962L110.85714285714286,92.485615972746L114.28571428571429,82.6945052438164L117.71428571428571,66.03668233514267L121.14285714285714,56.81969850447518L124.57142857142857,52.3540867245757L124.57142857142857,30.311649690917744L121.14285714285714,32.626482747167444L117.71428571428571,42.93684794053811L114.28571428571429,61.445054044776114L110.85714285714286,71.88731763614005L107.42857142857143,72.51844566169576L104,64.52767986170458L100.57142857142857,61.395338845923774L97.14285714285714,58.994260244250555L93.71428571428571,54.844658765169555L90.28571428571429,54.86640383889253L86.85714285714286,54.47520005184271L83.42857142857143,55.92514208655942L80,56.08736449921579L76.57142857142857,48.76833259214034L73.14285714285714,43.153121570678536L69.71428571428571,35.59748060284771L66.28571428571429,41.12252463267754L62.857142857142854,40.584265336253736L59.42857142857143,40.044501999413995L56,42.30233171423715L52.57142857142857,39.90609329136937L49.142857142857146,45.76706182562177L45.714285714285715,51.21004580648283L42.285714285714285,55.881615471966605L38.857142857142854,60.080764157033194L35.42857142857143,60.18540492824557L32,63.958231293852236L28.571428571428573,65.25929897549159L25.142857142857142,62.63350051468596L21.714285714285715,62.29018458759667L18.285714285714285,65.93546287817695L14.857142857142858,66.1168697574755L11.428571428571429,61.513744039708506L8,55.44066037035136L4.571428571428571,55.027702611412735L1.1428571428571428,55.5065336006283Z" fill="#2C2C2C" opacity="0.3"></path></g></g><path class="foreground" aria-hidden="true" d="" display="none"></path></g><g transform="translate(0,0)"><path class="background" aria-hidden="true" d="M0,0h128v130h-128Z"></path><g><g class="mark-area role-mark child_layer_0_layer_1_layer_0_marks" role="graphics-object" aria-roledescription="area mark container"><path aria-label=": -0.0358757528529; upper_lower: 0.0698982512613; Time (s): -0.96875; Source: object; upper: 0.0698982512613; lower: -0.0358757528529" role="graphics-symbol" aria-roledescription="errorband" d="M1.1428571428571428,92.90961967718415L4.571428571428571,92.24194639959033L8,91.26802483388695L11.428571428571429,86.98909793523535L14.857142857142858,85.84460188868667L18.285714285714285,80.40964347400178L21.714285714285715,90.27794029287513L25.142857142857142,93.1706702080308L28.571428571428573,94.71853046089596L32,97.73307334588934L35.42857142857143,94.26628343574166L38.857142857142854,92.31514953894438L42.285714285714285,90.80503601400726L45.714285714285715,86.3690903255245L49.142857142857146,82.551175167496L52.57142857142857,87.32957706877224L56,75.36588944078254L59.42857142857143,62.88869485280942L62.857142857142854,64.35216614517816L66.28571428571429,65.33072777030134L69.71428571428571,56.101859231471465L73.14285714285714,41.876667564700604L76.57142857142857,45.42881179049766L80,54.394562625269934L83.42857142857143,61.2165504290035L86.85714285714286,62.78360074973994L90.28571428571429,76.10530616234074L93.71428571428571,74.41617123106704L97.14285714285714,74.1340054918833L100.57142857142857,71.63737547132203L104,75.98728359828856L107.42857142857143,89.53822945173505L110.85714285714286,104.1056576314995L114.28571428571429,95.36677883680234L117.71428571428571,84.44556857383212L121.14285714285714,91.54541640567352L124.57142857142857,70.21678683554966L124.57142857142857,40.51861262322562L121.14285714285714,53.52972288684511L117.71428571428571,47.62217638801891L114.28571428571429,62.45516429469205L110.85714285714286,69.73893451849919L107.42857142857143,61.16893484674078L104,47.80959052739803L100.57142857142857,39.37630043862815L97.14285714285714,41.90600039182371L93.71428571428571,44.15666792858644L90.28571428571429,45.98320395986852L86.85714285714286,32.426018877220635L83.42857142857143,25.65758253182632L80,16.46663592098914L76.57142857142857,10.385061637088334L73.14285714285714,10.06008806471835L69.71428571428571,22.00617824709886L66.28571428571429,37.45107052946657L62.857142857142854,36.90143207747606L59.42857142857143,39.65101969635486L56,49.99278285341682L52.57142857142857,58.876383098093875L49.142857142857146,54.15185843972311L45.714285714285715,55.81062758037027L42.285714285714285,60.76290429976002L38.857142857142854,59.279916524029076L35.42857142857143,58.917874463776L32,63.89961835575093L28.571428571428573,60.613271567302355L25.142857142857142,58.44320728883514L21.714285714285715,58.69371952772822L18.285714285714285,50.22627440469593L14.857142857142858,53.638633808295346L11.428571428571429,60.79021336350148L8,64.35595917575858L4.571428571428571,62.6025254672597L1.1428571428571428,58.533068340080085Z" fill="#0F3C5F" opacity="0.3"></path></g></g><path class="foreground" aria-hidden="true" d="" display="none"></path></g></g><g class="mark-text role-mark child_layer_0_layer_2_marks" role="graphics-object" aria-roledescription="text mark container"><text aria-label=": 1.46875; Source: object; Mean of upper: 0.143264815006; train_type_lbl: Target,Source" role="graphics-symbol" aria-roledescription="text mark" text-anchor="start" transform="translate(93.28571428571429,28.68893512297182)" font-family="sans-serif" font-size="11px" fill="#0F3C5F"><tspan>Target</tspan><tspan x="0" dy="13">Source</tspan></text></g><g class="mark-text role-mark child_layer_0_layer_3_marks" role="graphics-object" aria-roledescription="text mark container"><text aria-label=": 1.375; Source: other; Mean of lower: 0.0189497042942; train_type_lbl: Other,Sources" role="graphics-symbol" aria-roledescription="text mark" text-anchor="end" transform="translate(89.85714285714286,87.09134610439729)" font-family="sans-serif" font-size="11px" fill="#2C2C2C"><tspan>Other</tspan><tspan x="0" dy="13">Sources</tspan></text></g><g class="mark-text role-mark child_layer_1_layer_0_marks" role="graphics-object" aria-roledescription="text mark container"><text text-anchor="middle" transform="translate(54.857142857142854,14.250000000000014)" font-family="sans-serif" font-size="11px" fill="black"><tspan>Target</tspan><tspan x="0" dy="13">Extent</tspan></text></g><g class="mark-rect role-mark child_layer_1_layer_1_marks" role="graphics-symbol" aria-roledescription="rect mark container"><path d="M36.57142857142857,0h36.57142857142857v130h-36.57142857142857Z" fill="gray" opacity="0.25"></path></g></g><path class="foreground" aria-hidden="true" d="" display="none"></path></g></g></g><path class="foreground" aria-hidden="true" d="" display="none"></path></g></g></g></svg>
