<?xml version="1.0" encoding="utf-8"?>
<!DOCTYPE svg PUBLIC "-//W3C//DTD SVG 1.1//EN" "http://www.w3.org/Graphics/SVG/1.1/DTD/svg11.dtd">
<svg class="marks" width="423" height="204" viewBox="0 0 423 204" version="1.1" xmlns="http://www.w3.org/2000/svg" xmlns:xlink="http://www.w3.org/1999/xlink"><defs><clipPath id="clip1"><rect x="0" y="0" width="128" height="130"></rect></clipPath><clipPath id="clip2"><rect x="0" y="0" width="128" height="130"></rect></clipPath><clipPath id="clip3"><rect x="0" y="0" width="128" height="130"></rect></clipPath><clipPath id="clip4"><rect x="0" y="0" width="128" height="130"></rect></clipPath><clipPath id="clip5"><rect x="0" y="0" width="128" height="130"></rect></clipPath><clipPath id="clip6"><rect x="0" y="0" width="128" height="130"></rect></clipPath></defs><rect width="423" height="204" fill="white"></rect><g fill="none" stroke-miterlimit="10" transform="translate(43,31)"><g class="mark-group role-frame root" role="graphics-object" aria-roledescription="group mark container"><g transform="translate(0,0)"><path class="background" aria-hidden="true" d="M0,0h0v0h0Z"></path><g><g class="mark-group role-column-header column_header" role="graphics-object" aria-roledescription="group mark container"><g transform="translate(0,-6)"><path class="background" aria-hidden="true" d="M0,0h128v0h-128Z"></path><g><g class="mark-group role-title"><g transform="translate(64,-20)"><path class="background" aria-hidden="true" d="M0,0h0v0h0Z" pointer-events="none"></path><g><g class="mark-text role-title-text" role="graphics-symbol" aria-roledescription="title" aria-label="Title text 'Global'" pointer-events="none"><text text-anchor="middle" transform="translate(0,8)" font-family="sans-serif" font-size="10px" font-weight="bold" fill="#000" opacity="1">Global</text></g></g><path class="foreground" aria-hidden="true" d="" pointer-events="none" display="none"></path></g></g></g><path class="foreground" aria-hidden="true" d="" display="none"></path></g><g transform="translate(209,-6)"><path class="background" aria-hidden="true" d="M0,0h128v0h-128Z"></path><g><g class="mark-group role-title"><g transform="translate(64,-20)"><path class="background" aria-hidden="true" d="M0,0h0v0h0Z" pointer-events="none"></path><g><g class="mark-text role-title-text" role="graphics-symbol" aria-roledescription="title" aria-label="Title text 'Object'" pointer-events="none"><text text-anchor="middle" transform="translate(0,8)" font-family="sans-serif" font-size="10px" font-weight="bold" fill="#000" opacity="1">Object</text></g></g><path class="foreground" aria-hidden="true" d="" pointer-events="none" display="none"></path></g></g></g><path class="foreground" aria-hidden="true" d="" display="none"></path></g></g><g class="mark-group role-column-footer column_footer" role="graphics-object" aria-roledescription="group mark container"><g transform="translate(0,136)"><path class="background" aria-hidden="true" d="M0,0h128v0h-128Z"></path><g><g class="mark-group role-axis" role="graphics-symbol" aria-roledescription="axis" aria-label="X-axis titled 'Time (s)' for a linear scale with values from 0 to 7"><g transform="translate(0.5,0.5)"><path class="background" aria-hidden="true" d="M0,0h0v0h0Z" pointer-events="none"></path><g><g class="mark-rule role-axis-tick" pointer-events="none"><line transform="translate(0,0)" x2="0" y2="5" stroke="#888" stroke-width="1" opacity="1"></line><line transform="translate(39,0)" x2="0" y2="5" stroke="#888" stroke-width="1" opacity="1"></line><line transform="translate(79,0)" x2="0" y2="5" stroke="#888" stroke-width="1" opacity="1"></line><line transform="translate(118,0)" x2="0" y2="5" stroke="#888" stroke-width="1" opacity="1"></line></g><g class="mark-text role-axis-label" pointer-events="none"><text text-anchor="start" transform="translate(0,15)" font-family="sans-serif" font-size="10px" fill="#000" opacity="1">0</text><text text-anchor="middle" transform="translate(39.38461538461539,15)" font-family="sans-serif" font-size="10px" fill="#000" opacity="1">2</text><text text-anchor="middle" transform="translate(78.76923076923077,15)" font-family="sans-serif" font-size="10px" fill="#000" opacity="1">4</text><text text-anchor="middle" transform="translate(118.15384615384616,15)" font-family="sans-serif" font-size="10px" fill="#000" opacity="1">6</text></g><g class="mark-rule role-axis-domain" pointer-events="none"><line transform="translate(0,0)" x2="128" y2="0" stroke="#888" stroke-width="1" opacity="1"></line></g><g class="mark-text role-axis-title" pointer-events="none"><text text-anchor="middle" transform="translate(64,30)" font-family="sans-serif" font-size="11px" font-weight="bold" fill="#000" opacity="1">Time (s)</text></g></g><path class="foreground" aria-hidden="true" d="" pointer-events="none" display="none"></path></g></g></g><path class="foreground" aria-hidden="true" d="" display="none"></path></g><g transform="translate(209,136)"><path class="background" aria-hidden="true" d="M0,0h128v0h-128Z"></path><g><g class="mark-group role-axis" role="graphics-symbol" aria-roledescription="axis" aria-label="X-axis titled 'Time (s)' for a linear scale with values from 0 to 7"><g transform="translate(0.5,0.5)"><path class="background" aria-hidden="true" d="M0,0h0v0h0Z" pointer-events="none"></path><g><g class="mark-rule role-axis-tick" pointer-events="none"><line transform="translate(0,0)" x2="0" y2="5" stroke="#888" stroke-width="1" opacity="1"></line><line transform="translate(39,0)" x2="0" y2="5" stroke="#888" stroke-width="1" opacity="1"></line><line transform="translate(79,0)" x2="0" y2="5" stroke="#888" stroke-width="1" opacity="1"></line><line transform="translate(118,0)" x2="0" y2="5" stroke="#888" stroke-width="1" opacity="1"></line></g><g class="mark-text role-axis-label" pointer-events="none"><text text-anchor="start" transform="translate(0,15)" font-family="sans-serif" font-size="10px" fill="#000" opacity="1">0</text><text text-anchor="middle" transform="translate(39.38461538461539,15)" font-family="sans-serif" font-size="10px" fill="#000" opacity="1">2</text><text text-anchor="middle" transform="translate(78.76923076923077,15)" font-family="sans-serif" font-size="10px" fill="#000" opacity="1">4</text><text text-anchor="middle" transform="translate(118.15384615384616,15)" font-family="sans-serif" font-size="10px" fill="#000" opacity="1">6</text></g><g class="mark-rule role-axis-domain" pointer-events="none"><line transform="translate(0,0)" x2="128" y2="0" stroke="#888" stroke-width="1" opacity="1"></line></g><g class="mark-text role-axis-title" pointer-events="none"><text text-anchor="middle" transform="translate(64,30)" font-family="sans-serif" font-size="11px" font-weight="bold" fill="#000" opacity="1">Time (s)</text></g></g><path class="foreground" aria-hidden="true" d="" pointer-events="none" display="none"></path></g></g></g><path class="foreground" aria-hidden="true" d="" display="none"></path></g></g><g class="mark-group role-scope cell" role="graphics-object" aria-roledescription="group mark container"><g transform="translate(0,0)"><path class="background" aria-hidden="true" d="M0.5,0.5h128v130h-128Z" stroke="#ddd"></path><g><g class="mark-group role-axis" aria-hidden="true"><g transform="translate(0.5,130.5)"><path class="background" aria-hidden="true" d="M0,0h0v0h0Z" pointer-events="none"></path><g><g class="mark-rule role-axis-grid" pointer-events="none"><line transform="translate(0,-130)" x2="0" y2="130" stroke="#ddd" stroke-width="1" opacity="1"></line><line transform="translate(39,-130)" x2="0" y2="130" stroke="#ddd" stroke-width="1" opacity="1"></line><line transform="translate(79,-130)" x2="0" y2="130" stroke="#ddd" stroke-width="1" opacity="1"></line><line transform="translate(118,-130)" x2="0" y2="130" stroke="#ddd" stroke-width="1" opacity="1"></line></g></g><path class="foreground" aria-hidden="true" d="" pointer-events="none" display="none"></path></g></g><g class="mark-group role-axis" role="graphics-symbol" aria-roledescription="axis" aria-label="Y-axis titled 'P(Correct)' for a linear scale with values from 0.20 to 0.50"><g transform="translate(0.5,0.5)"><path class="background" aria-hidden="true" d="M0,0h0v0h0Z" pointer-events="none"></path><g><g class="mark-rule role-axis-tick" pointer-events="none"><line transform="translate(0,130)" x2="-5" y2="0" stroke="#888" stroke-width="1" opacity="1"></line><line transform="translate(0,87)" x2="-5" y2="0" stroke="#888" stroke-width="1" opacity="1"></line><line transform="translate(0,43)" x2="-5" y2="0" stroke="#888" stroke-width="1" opacity="1"></line><line transform="translate(0,0)" x2="-5" y2="0" stroke="#888" stroke-width="1" opacity="1"></line></g><g class="mark-text role-axis-label" pointer-events="none"><text text-anchor="end" transform="translate(-7,133)" font-family="sans-serif" font-size="10px" fill="#000" opacity="1">0.2</text><text text-anchor="end" transform="translate(-7,89.66666666666667)" font-family="sans-serif" font-size="10px" fill="#000" opacity="1">0.3</text><text text-anchor="end" transform="translate(-7,46.33333333333332)" font-family="sans-serif" font-size="10px" fill="#000" opacity="1">0.4</text><text text-anchor="end" transform="translate(-7,3)" font-family="sans-serif" font-size="10px" fill="#000" opacity="1">0.5</text></g><g class="mark-rule role-axis-domain" pointer-events="none"><line transform="translate(0,130)" x2="0" y2="-130" stroke="#888" stroke-width="1" opacity="1"></line></g><g class="mark-text role-axis-title" pointer-events="none"><text text-anchor="middle" transform="translate(-26,65) rotate(-90) translate(0,-2)" font-family="sans-serif" font-size="11px" font-weight="bold" fill="#000" opacity="1">P(Correct)</text></g></g><path class="foreground" aria-hidden="true" d="" pointer-events="none" display="none"></path></g></g><g class="mark-group role-axis" role="graphics-symbol" aria-roledescription="axis" aria-label="Y-axis titled 'P(switch)' for a linear scale with values from 0.0 to 1.0"><g transform="translate(128.5,0.5)"><path class="background" aria-hidden="true" d="M0,0h0v0h0Z" pointer-events="none"></path><g><g class="mark-rule role-axis-tick" pointer-events="none"><line transform="translate(0,130)" x2="5" y2="0" stroke="#888" stroke-width="1" opacity="1"></line><line transform="translate(0,104)" x2="5" y2="0" stroke="#888" stroke-width="1" opacity="1"></line><line transform="translate(0,78)" x2="5" y2="0" stroke="#888" stroke-width="1" opacity="1"></line><line transform="translate(0,52)" x2="5" y2="0" stroke="#888" stroke-width="1" opacity="1"></line><line transform="translate(0,26)" x2="5" y2="0" stroke="#888" stroke-width="1" opacity="1"></line><line transform="translate(0,0)" x2="5" y2="0" stroke="#888" stroke-width="1" opacity="1"></line></g><g class="mark-text role-axis-label" pointer-events="none"><text text-anchor="start" transform="translate(7,133)" font-family="sans-serif" font-size="10px" fill="#000" opacity="1">0.0</text><text text-anchor="start" transform="translate(7,107)" font-family="sans-serif" font-size="10px" fill="#000" opacity="1">0.2</text><text text-anchor="start" transform="translate(7,81)" font-family="sans-serif" font-size="10px" fill="#000" opacity="1">0.4</text><text text-anchor="start" transform="translate(7,55)" font-family="sans-serif" font-size="10px" fill="#000" opacity="1">0.6</text><text text-anchor="start" transform="translate(7,28.999999999999993)" font-family="sans-serif" font-size="10px" fill="#000" opacity="1">0.8</text><text text-anchor="start" transform="translate(7,3)" font-family="sans-serif" font-size="10px" fill="#000" opacity="1">1.0</text></g><g class="mark-rule role-axis-domain" pointer-events="none"><line transform="translate(0,130)" x2="0" y2="-130" stroke="#888" stroke-width="1" opacity="1"></line></g><g class="mark-text role-axis-title" pointer-events="none"><text text-anchor="middle" transform="translate(26,65) rotate(90) translate(0,-2)" font-family="sans-serif" font-size="11px" font-weight="bold" fill="#000" opacity="1">P(switch)</text></g></g><path class="foreground" aria-hidden="true" d="" pointer-events="none" display="none"></path></g></g><g class="mark-group role-scope child_layer_0_layer_0_layer_0_layer_0_pathgroup" role="graphics-object" aria-roledescription="group mark container"><g transform="translate(0,0)"><path class="background" aria-hidden="true" d="M0,0h128v130h-128Z"></path><g><g class="mark-line role-mark child_layer_0_layer_0_layer_0_layer_0_marks" clip-path="url(#clip1)" role="graphics-object" aria-roledescription="line mark container"><path aria-label="Source: global; P(Correct): 0.329196799862; Time (s): 0.03125" role="graphics-symbol" aria-roledescription="line mark" d="M0.6153846153846154,74.01472006001632L2.4615384615384617,72.33165529904755L4.3076923076923075,68.68662464806387L6.153846153846154,73.29173980518786L8,67.84397645354923L9.846153846153847,71.17874165329492L11.692307692307692,65.66642808601321L13.538461538461538,66.2515829979621L15.384615384615385,60.189016445094325L17.23076923076923,60.269463119070096L19.076923076923077,62.23514140960983L20.923076923076923,68.69829352185741L22.76923076923077,71.85980286205843L24.615384615384617,72.40770016318623L26.46153846153846,72.3442033580747L28.307692307692307,73.07000634133398L30.153846153846153,69.26668253708273L32,67.50689092599619L33.84615384615385,69.46521994384426L35.69230769230769,69.94388980299466L37.53846153846154,69.86594331930587L39.38461538461539,68.37547925250657L41.23076923076923,63.854026998332024L43.07692307692308,66.18190486045296L44.92307692307692,70.86451662944155L46.76923076923077,68.50611647773826L48.61538461538461,71.00688796204223L50.46153846153846,69.76751886562847L52.30769230769231,72.19896650892225L54.15384615384615,72.73102630257104L56,72.18690526695781L57.84615384615385,70.3525566674003L59.69230769230769,66.19027936027513L61.53846153846154,68.28256683679126L63.38461538461539,75.19285780957783L65.23076923076923,78.82105374869222L67.07692307692308,76.6870024283639L68.92307692307692,70.9229775610369L70.76923076923077,74.29210963556378L72.61538461538461,78.93660889942454L74.46153846153847,82.02780408114575L76.3076923076923,85.2080387561434L78.15384615384616,82.4171991974831L80,82.04652100651484L81.84615384615384,80.71921808480548L83.6923076923077,77.41617490608498L85.53846153846153,78.60974904314429L87.38461538461539,79.30549812303772L89.23076923076923,85.45009258203368L91.07692307692308,87.35444231872016L92.92307692307692,79.55304062154508L94.76923076923077,76.16411470126215L96.61538461538461,76.0677981236585L98.46153846153847,75.22886206725673L100.3076923076923,62.51626599697684L102.15384615384616,57.119166510296175L104,58.16009581645502L105.84615384615384,60.597561917715474L107.6923076923077,62.475490855728175L109.53846153846153,62.845491258331904L111.38461538461539,70.63264380401958L113.23076923076923,79.84493929677316L115.07692307692308,91.12688777477905L116.92307692307692,93.6153603538075L118.76923076923077,90.84737669812145L120.61538461538461,89.18790021714528L122.46153846153847,73.51846133042385L124.3076923076923,78.05582473774555L126.15384615384616,74.92819515055713" stroke="#0F3C5F" stroke-width="2" stroke-linejoin="round"></path></g></g><path class="foreground" aria-hidden="true" d="" display="none"></path></g></g><g class="mark-group role-scope child_layer_0_layer_0_layer_0_layer_1_layer_0_pathgroup" role="graphics-object" aria-roledescription="group mark container"><g transform="translate(0,0)"><path class="background" aria-hidden="true" d="M0,0h128v130h-128Z"></path><g><g class="mark-area role-mark child_layer_0_layer_0_layer_0_layer_1_layer_0_marks" clip-path="url(#clip2)" role="graphics-object" aria-roledescription="area mark container"><path aria-label="P(Correct): 0.311603658319; upper_lower: 0.346115676885; Source: global; Time (s): 0.03125; upper: 0.346115676885; lower: 0.311603658319" role="graphics-symbol" aria-roledescription="errorband" d="M0.6153846153846154,81.6384147283904L2.4615384615384617,81.08908304498294L4.3076923076923075,77.80208595586005L6.153846153846154,80.74145144015561L8,77.52783387915571L9.846153846153847,80.54024556522475L11.692307692307692,74.2720677202236L13.538461538461538,76.39456741000355L15.384615384615385,71.1215777387848L17.23076923076923,69.53561548811203L19.076923076923077,70.74545917657596L20.923076923076923,78.24312884103242L22.76923076923077,78.53891003420352L24.615384615384617,79.11110009420591L26.46153846153846,81.8590764963504L28.307692307692307,82.27656117363792L30.153846153846153,78.92670413120082L32,77.77335083456805L33.84615384615385,77.41969528698546L35.69230769230769,76.81615443148385L37.53846153846154,78.1627561748915L39.38461538461539,76.6647898554146L41.23076923076923,71.84761656078646L43.07692307692308,75.61442930594666L44.92307692307692,79.63060338602268L46.76923076923077,77.22080608349083L48.61538461538461,79.45960862180398L50.46153846153846,78.79528079145777L52.30769230769231,80.81207343754161L54.15384615384615,81.8372963792275L56,82.01062755541751L57.84615384615385,79.20146053902336L59.69230769230769,74.28718515060062L61.53846153846154,78.1181335350269L63.38461538461539,83.97130121149075L65.23076923076923,87.81967948511681L67.07692307692308,87.19817141585759L68.92307692307692,80.99939250719139L70.76923076923077,83.7916402332414L72.61538461538461,88.67529734645908L74.46153846153847,91.41900345053554L76.3076923076923,91.64033890117435L78.15384615384616,89.46879260663012L80,89.76975481463724L81.84615384615384,91.33880023764848L83.6923076923077,87.93700056965089L85.53846153846153,88.04125798414871L87.38461538461539,89.16607030900077L89.23076923076923,93.74931480774016L91.07692307692308,94.56973744515133L92.92307692307692,86.81996629722472L94.76923076923077,83.44018423959989L96.61538461538461,83.93299513979457L98.46153846153847,83.6021761154625L100.3076923076923,70.61762812321422L102.15384615384616,66.44930983726712L104,68.01276453557603L105.84615384615384,69.74891753424947L107.6923076923077,71.84646928273786L109.53846153846153,71.37599706739412L111.38461538461539,78.50315273363312L113.23076923076923,88.44599908764977L115.07692307692308,100.93206108102262L116.92307692307692,100.38427675254853L118.76923076923077,100.48349324457821L120.61538461538461,98.85106011700623L122.46153846153847,84.01225585789646L124.3076923076923,88.54928993444138L126.15384615384616,86.8390144692395L126.15384615384616,62.58432526484292L124.3076923076923,67.13980507461201L122.46153846153847,63.44393511039082L120.61538461538461,79.35268555550797L118.76923076923077,81.36257501319751L116.92307692307692,86.78824966227246L115.07692307692308,81.28666895926904L113.23076923076923,71.6125629645539L111.38461538461539,62.77681199670552L109.53846153846153,54.3844983840337L107.6923076923077,52.85153656558332L105.84615384615384,51.304594114234995L104,48.58388899579461L102.15384615384616,48.0120202030615L100.3076923076923,54.47775849069412L98.46153846153847,66.42330241622663L96.61538461538461,68.16429465067247L94.76923076923077,69.04586504874821L92.92307692307692,71.96407757559984L91.07692307692308,80.05069148664039L89.23076923076923,76.98135204595803L87.38461538461539,69.24793936777316L85.53846153846153,69.6452673511289L83.6923076923077,66.44963595382087L81.84615384615384,71.08770671248313L80,74.28303596526962L78.15384615384616,75.66552380056957L76.3076923076923,78.74974537910755L74.46153846153847,72.6068033958922L72.61538461538461,68.699761545279L70.76923076923077,65.46490341139076L68.92307692307692,61.14084486191654L67.07692307692308,67.25276324783687L65.23076923076923,70.4620821507848L63.38461538461539,65.83237257020318L61.53846153846154,57.271255696767L59.69230769230769,57.72393423933357L57.84615384615385,61.47261612909664L56,62.30527045380171L54.15384615384615,63.661225020493646L52.30769230769231,63.36027685959485L50.46153846153846,60.36554559416855L48.61538461538461,62.55110518938268L46.76923076923077,60.11313932251582L44.92307692307692,61.87335826228911L43.07692307692308,56.791653068675934L41.23076923076923,56.57304603970527L39.38461538461539,60.09281213960864L37.53846153846154,61.3124770434761L35.69230769230769,62.94759066153557L33.84615384615385,61.40522840658917L32,57.187343579294314L30.153846153846153,59.52372200517511L28.307692307692307,63.71163691220494L26.46153846153846,63.03723474947318L24.615384615384617,65.64519582618367L22.76923076923077,65.13387981897935L20.923076923076923,59.27548003989438L19.076923076923077,53.342731734899445L17.23076923076923,51.00897532952358L15.384615384615385,49.090900402791995L13.538461538461538,55.85817162503382L11.692307692307692,56.98458437451689L9.846153846153847,61.65401630783175L8,58.167733007033604L6.153846153846154,66.65757911699068L4.3076923076923075,59.582299152749854L2.4615384615384617,64.54471485618795L0.6153846153846154,66.6832066830619Z" fill="#0F3C5F" opacity="0.3"></path></g></g><path class="foreground" aria-hidden="true" d="" display="none"></path></g></g><g class="mark-rule role-mark child_layer_0_layer_0_layer_1_marks" clip-path="url(#clip3)" role="graphics-symbol" aria-roledescription="rule mark container"><line transform="translate(128,72.22222222222223)" x2="-128" y2="0" stroke="black" stroke-width="1" stroke-dasharray="4,4"></line><line transform="translate(128,72.22222222222223)" x2="-128" y2="0" stroke="black" stroke-width="1" stroke-dasharray="4,4"></line><line transform="translate(128,72.22222222222223)" x2="-128" y2="0" stroke="black" stroke-width="1" stroke-dasharray="4,4"></line><line transform="translate(128,72.22222222222223)" x2="-128" y2="0" stroke="black" stroke-width="1" stroke-dasharray="4,4"></line><line transform="translate(128,72.22222222222223)" x2="-128" y2="0" stroke="black" stroke-width="1" stroke-dasharray="4,4"></line><line transform="translate(128,72.22222222222223)" x2="-128" y2="0" stroke="black" stroke-width="1" stroke-dasharray="4,4"></line><line transform="translate(128,72.22222222222223)" x2="-128" y2="0" stroke="black" stroke-width="1" stroke-dasharray="4,4"></line><line transform="translate(128,72.22222222222223)" x2="-128" y2="0" stroke="black" stroke-width="1" stroke-dasharray="4,4"></line><line transform="translate(128,72.22222222222223)" x2="-128" y2="0" stroke="black" stroke-width="1" stroke-dasharray="4,4"></line><line transform="translate(128,72.22222222222223)" x2="-128" y2="0" stroke="black" stroke-width="1" stroke-dasharray="4,4"></line><line transform="translate(128,72.22222222222223)" x2="-128" y2="0" stroke="black" stroke-width="1" stroke-dasharray="4,4"></line><line transform="translate(128,72.22222222222223)" x2="-128" y2="0" stroke="black" stroke-width="1" stroke-dasharray="4,4"></line><line transform="translate(128,72.22222222222223)" x2="-128" y2="0" stroke="black" stroke-width="1" stroke-dasharray="4,4"></line><line transform="translate(128,72.22222222222223)" x2="-128" y2="0" stroke="black" stroke-width="1" stroke-dasharray="4,4"></line><line transform="translate(128,72.22222222222223)" x2="-128" y2="0" stroke="black" stroke-width="1" stroke-dasharray="4,4"></line><line transform="translate(128,72.22222222222223)" x2="-128" y2="0" stroke="black" stroke-width="1" stroke-dasharray="4,4"></line><line transform="translate(128,72.22222222222223)" x2="-128" y2="0" stroke="black" stroke-width="1" stroke-dasharray="4,4"></line><line transform="translate(128,72.22222222222223)" x2="-128" y2="0" stroke="black" stroke-width="1" stroke-dasharray="4,4"></line><line transform="translate(128,72.22222222222223)" x2="-128" y2="0" stroke="black" stroke-width="1" stroke-dasharray="4,4"></line><line transform="translate(128,72.22222222222223)" x2="-128" y2="0" stroke="black" stroke-width="1" stroke-dasharray="4,4"></line><line transform="translate(128,72.22222222222223)" x2="-128" y2="0" stroke="black" stroke-width="1" stroke-dasharray="4,4"></line><line transform="translate(128,72.22222222222223)" x2="-128" y2="0" stroke="black" stroke-width="1" stroke-dasharray="4,4"></line><line transform="translate(128,72.22222222222223)" x2="-128" y2="0" stroke="black" stroke-width="1" stroke-dasharray="4,4"></line><line transform="translate(128,72.22222222222223)" x2="-128" y2="0" stroke="black" stroke-width="1" stroke-dasharray="4,4"></line><line transform="translate(128,72.22222222222223)" x2="-128" y2="0" stroke="black" stroke-width="1" stroke-dasharray="4,4"></line><line transform="translate(128,72.22222222222223)" x2="-128" y2="0" stroke="black" stroke-width="1" stroke-dasharray="4,4"></line><line transform="translate(128,72.22222222222223)" x2="-128" y2="0" stroke="black" stroke-width="1" stroke-dasharray="4,4"></line><line transform="translate(128,72.22222222222223)" x2="-128" y2="0" stroke="black" stroke-width="1" stroke-dasharray="4,4"></line><line transform="translate(128,72.22222222222223)" x2="-128" y2="0" stroke="black" stroke-width="1" stroke-dasharray="4,4"></line><line transform="translate(128,72.22222222222223)" x2="-128" y2="0" stroke="black" stroke-width="1" stroke-dasharray="4,4"></line><line transform="translate(128,72.22222222222223)" x2="-128" y2="0" stroke="black" stroke-width="1" stroke-dasharray="4,4"></line><line transform="translate(128,72.22222222222223)" x2="-128" y2="0" stroke="black" stroke-width="1" stroke-dasharray="4,4"></line><line transform="translate(128,72.22222222222223)" x2="-128" y2="0" stroke="black" stroke-width="1" stroke-dasharray="4,4"></line><line transform="translate(128,72.22222222222223)" x2="-128" y2="0" stroke="black" stroke-width="1" stroke-dasharray="4,4"></line><line transform="translate(128,72.22222222222223)" x2="-128" y2="0" stroke="black" stroke-width="1" stroke-dasharray="4,4"></line><line transform="translate(128,72.22222222222223)" x2="-128" y2="0" stroke="black" stroke-width="1" stroke-dasharray="4,4"></line><line transform="translate(128,72.22222222222223)" x2="-128" y2="0" stroke="black" stroke-width="1" stroke-dasharray="4,4"></line><line transform="translate(128,72.22222222222223)" x2="-128" y2="0" stroke="black" stroke-width="1" stroke-dasharray="4,4"></line><line transform="translate(128,72.22222222222223)" x2="-128" y2="0" stroke="black" stroke-width="1" stroke-dasharray="4,4"></line><line transform="translate(128,72.22222222222223)" x2="-128" y2="0" stroke="black" stroke-width="1" stroke-dasharray="4,4"></line><line transform="translate(128,72.22222222222223)" x2="-128" y2="0" stroke="black" stroke-width="1" stroke-dasharray="4,4"></line><line transform="translate(128,72.22222222222223)" x2="-128" y2="0" stroke="black" stroke-width="1" stroke-dasharray="4,4"></line><line transform="translate(128,72.22222222222223)" x2="-128" y2="0" stroke="black" stroke-width="1" stroke-dasharray="4,4"></line><line transform="translate(128,72.22222222222223)" x2="-128" y2="0" stroke="black" stroke-width="1" stroke-dasharray="4,4"></line><line transform="translate(128,72.22222222222223)" x2="-128" y2="0" stroke="black" stroke-width="1" stroke-dasharray="4,4"></line><line transform="translate(128,72.22222222222223)" x2="-128" y2="0" stroke="black" stroke-width="1" stroke-dasharray="4,4"></line><line transform="translate(128,72.22222222222223)" x2="-128" y2="0" stroke="black" stroke-width="1" stroke-dasharray="4,4"></line><line transform="translate(128,72.22222222222223)" x2="-128" y2="0" stroke="black" stroke-width="1" stroke-dasharray="4,4"></line><line transform="translate(128,72.22222222222223)" x2="-128" y2="0" stroke="black" stroke-width="1" stroke-dasharray="4,4"></line><line transform="translate(128,72.22222222222223)" x2="-128" y2="0" stroke="black" stroke-width="1" stroke-dasharray="4,4"></line><line transform="translate(128,72.22222222222223)" x2="-128" y2="0" stroke="black" stroke-width="1" stroke-dasharray="4,4"></line><line transform="translate(128,72.22222222222223)" x2="-128" y2="0" stroke="black" stroke-width="1" stroke-dasharray="4,4"></line><line transform="translate(128,72.22222222222223)" x2="-128" y2="0" stroke="black" stroke-width="1" stroke-dasharray="4,4"></line><line transform="translate(128,72.22222222222223)" x2="-128" y2="0" stroke="black" stroke-width="1" stroke-dasharray="4,4"></line><line transform="translate(128,72.22222222222223)" x2="-128" y2="0" stroke="black" stroke-width="1" stroke-dasharray="4,4"></line><line transform="translate(128,72.22222222222223)" x2="-128" y2="0" stroke="black" stroke-width="1" stroke-dasharray="4,4"></line><line transform="translate(128,72.22222222222223)" x2="-128" y2="0" stroke="black" stroke-width="1" stroke-dasharray="4,4"></line><line transform="translate(128,72.22222222222223)" x2="-128" y2="0" stroke="black" stroke-width="1" stroke-dasharray="4,4"></line><line transform="translate(128,72.22222222222223)" x2="-128" y2="0" stroke="black" stroke-width="1" stroke-dasharray="4,4"></line><line transform="translate(128,72.22222222222223)" x2="-128" y2="0" stroke="black" stroke-width="1" stroke-dasharray="4,4"></line><line transform="translate(128,72.22222222222223)" x2="-128" y2="0" stroke="black" stroke-width="1" stroke-dasharray="4,4"></line><line transform="translate(128,72.22222222222223)" x2="-128" y2="0" stroke="black" stroke-width="1" stroke-dasharray="4,4"></line><line transform="translate(128,72.22222222222223)" x2="-128" y2="0" stroke="black" stroke-width="1" stroke-dasharray="4,4"></line><line transform="translate(128,72.22222222222223)" x2="-128" y2="0" stroke="black" stroke-width="1" stroke-dasharray="4,4"></line><line transform="translate(128,72.22222222222223)" x2="-128" y2="0" stroke="black" stroke-width="1" stroke-dasharray="4,4"></line><line transform="translate(128,72.22222222222223)" x2="-128" y2="0" stroke="black" stroke-width="1" stroke-dasharray="4,4"></line><line transform="translate(128,72.22222222222223)" x2="-128" y2="0" stroke="black" stroke-width="1" stroke-dasharray="4,4"></line><line transform="translate(128,72.22222222222223)" x2="-128" y2="0" stroke="black" stroke-width="1" stroke-dasharray="4,4"></line><line transform="translate(128,72.22222222222223)" x2="-128" y2="0" stroke="black" stroke-width="1" stroke-dasharray="4,4"></line></g><g class="mark-area role-mark child_layer_0_layer_1_marks" role="graphics-object" aria-roledescription="area mark container"><path aria-label="P(switch): 1; time: 0.03125" role="graphics-symbol" aria-roledescription="area mark" d="M0.6153846153846154,0L2.4615384615384617,0L4.3076923076923075,0L6.153846153846154,51.918665276329506L8,77.94577685088635L9.846153846153847,97.46611053180396L11.692307692307692,103.97288842544317L13.538461538461538,107.22627737226277L15.384615384615385,107.22627737226277L17.23076923076923,107.22627737226277L19.076923076923077,107.22627737226277L20.923076923076923,110.47966631908237L22.76923076923077,116.98644421272158L24.615384615384617,123.49322210636079L26.46153846153846,123.49322210636079L28.307692307692307,130L30.153846153846153,130L32,130L33.84615384615385,123.49322210636079L35.69230769230769,81.33472367049009L37.53846153846154,65.06777893639209L39.38461538461539,52.05422314911365L41.23076923076923,39.04066736183524L43.07692307692308,35.78727841501564L44.92307692307692,29.28050052137643L46.76923076923077,26.027111574556827L48.61538461538461,22.77372262773723L50.46153846153846,22.77372262773723L52.30769230769231,22.77372262773723L54.15384615384615,22.77372262773723L56,22.77372262773723L57.84615384615385,39.04066736183524L59.69230769230769,64.93222106360791L61.53846153846154,71.43899895724714L63.38461538461539,61.67883211678832L65.23076923076923,55.17205422314912L67.07692307692308,55.17205422314912L68.92307692307692,48.66527632950991L70.76923076923077,35.78727841501564L72.61538461538461,32.533889468196044L74.46153846153847,26.027111574556827L76.3076923076923,22.77372262773723L78.15384615384616,16.266944734098015L80,9.760166840458814L81.84615384615384,9.760166840458814L83.6923076923077,19.520333680917627L85.53846153846153,39.04066736183524L87.38461538461539,52.05422314911365L89.23076923076923,68.32116788321169L91.07692307692308,74.82794577685088L92.92307692307692,87.84150156412932L94.76923076923077,87.70594369134514L96.61538461538461,90.95933263816474L98.46153846153847,94.21272158498437L100.3076923076923,97.46611053180396L102.15384615384616,100.71949947862358L104,103.97288842544317L105.84615384615384,97.46611053180396L107.6923076923077,84.45255474452554L109.53846153846153,55.17205422314912L111.38461538461539,48.66527632950991L113.23076923076923,42.158498435870705L115.07692307692308,35.65172054223149L116.92307692307692,32.533889468196044L118.76923076923077,42.29405630865485L120.61538461538461,44.52250274423711L122.46153846153847,44.52250274423711L124.3076923076923,39.76825028968714L126.15384615384616,53.52046783625731L126.15384615384616,130L124.3076923076923,130L122.46153846153847,130L120.61538461538461,130L118.76923076923077,130L116.92307692307692,130L115.07692307692308,130L113.23076923076923,130L111.38461538461539,130L109.53846153846153,130L107.6923076923077,130L105.84615384615384,130L104,130L102.15384615384616,130L100.3076923076923,130L98.46153846153847,130L96.61538461538461,130L94.76923076923077,130L92.92307692307692,130L91.07692307692308,130L89.23076923076923,130L87.38461538461539,130L85.53846153846153,130L83.6923076923077,130L81.84615384615384,130L80,130L78.15384615384616,130L76.3076923076923,130L74.46153846153847,130L72.61538461538461,130L70.76923076923077,130L68.92307692307692,130L67.07692307692308,130L65.23076923076923,130L63.38461538461539,130L61.53846153846154,130L59.69230769230769,130L57.84615384615385,130L56,130L54.15384615384615,130L52.30769230769231,130L50.46153846153846,130L48.61538461538461,130L46.76923076923077,130L44.92307692307692,130L43.07692307692308,130L41.23076923076923,130L39.38461538461539,130L37.53846153846154,130L35.69230769230769,130L33.84615384615385,130L32,130L30.153846153846153,130L28.307692307692307,130L26.46153846153846,130L24.615384615384617,130L22.76923076923077,130L20.923076923076923,130L19.076923076923077,130L17.23076923076923,130L15.384615384615385,130L13.538461538461538,130L11.692307692307692,130L9.846153846153847,130L8,130L6.153846153846154,130L4.3076923076923075,130L2.4615384615384617,130L0.6153846153846154,130Z" fill="black" opacity="0.3"></path></g></g><path class="foreground" aria-hidden="true" d="" display="none"></path></g><g transform="translate(209,0)"><path class="background" aria-hidden="true" d="M0.5,0.5h128v130h-128Z" stroke="#ddd"></path><g><g class="mark-group role-axis" aria-hidden="true"><g transform="translate(0.5,130.5)"><path class="background" aria-hidden="true" d="M0,0h0v0h0Z" pointer-events="none"></path><g><g class="mark-rule role-axis-grid" pointer-events="none"><line transform="translate(0,-130)" x2="0" y2="130" stroke="#ddd" stroke-width="1" opacity="1"></line><line transform="translate(39,-130)" x2="0" y2="130" stroke="#ddd" stroke-width="1" opacity="1"></line><line transform="translate(79,-130)" x2="0" y2="130" stroke="#ddd" stroke-width="1" opacity="1"></line><line transform="translate(118,-130)" x2="0" y2="130" stroke="#ddd" stroke-width="1" opacity="1"></line></g></g><path class="foreground" aria-hidden="true" d="" pointer-events="none" display="none"></path></g></g><g class="mark-group role-axis" role="graphics-symbol" aria-roledescription="axis" aria-label="Y-axis titled 'P(Correct)' for a linear scale with values from 0.20 to 0.50"><g transform="translate(0.5,0.5)"><path class="background" aria-hidden="true" d="M0,0h0v0h0Z" pointer-events="none"></path><g><g class="mark-rule role-axis-tick" pointer-events="none"><line transform="translate(0,130)" x2="-5" y2="0" stroke="#888" stroke-width="1" opacity="1"></line><line transform="translate(0,87)" x2="-5" y2="0" stroke="#888" stroke-width="1" opacity="1"></line><line transform="translate(0,43)" x2="-5" y2="0" stroke="#888" stroke-width="1" opacity="1"></line><line transform="translate(0,0)" x2="-5" y2="0" stroke="#888" stroke-width="1" opacity="1"></line></g><g class="mark-text role-axis-label" pointer-events="none"><text text-anchor="end" transform="translate(-7,133)" font-family="sans-serif" font-size="10px" fill="#000" opacity="1">0.2</text><text text-anchor="end" transform="translate(-7,89.66666666666667)" font-family="sans-serif" font-size="10px" fill="#000" opacity="1">0.3</text><text text-anchor="end" transform="translate(-7,46.33333333333332)" font-family="sans-serif" font-size="10px" fill="#000" opacity="1">0.4</text><text text-anchor="end" transform="translate(-7,3)" font-family="sans-serif" font-size="10px" fill="#000" opacity="1">0.5</text></g><g class="mark-rule role-axis-domain" pointer-events="none"><line transform="translate(0,130)" x2="0" y2="-130" stroke="#888" stroke-width="1" opacity="1"></line></g><g class="mark-text role-axis-title" pointer-events="none"><text text-anchor="middle" transform="translate(-26,65) rotate(-90) translate(0,-2)" font-family="sans-serif" font-size="11px" font-weight="bold" fill="#000" opacity="1">P(Correct)</text></g></g><path class="foreground" aria-hidden="true" d="" pointer-events="none" display="none"></path></g></g><g class="mark-group role-axis" role="graphics-symbol" aria-roledescription="axis" aria-label="Y-axis titled 'P(switch)' for a linear scale with values from 0.0 to 1.0"><g transform="translate(128.5,0.5)"><path class="background" aria-hidden="true" d="M0,0h0v0h0Z" pointer-events="none"></path><g><g class="mark-rule role-axis-tick" pointer-events="none"><line transform="translate(0,130)" x2="5" y2="0" stroke="#888" stroke-width="1" opacity="1"></line><line transform="translate(0,104)" x2="5" y2="0" stroke="#888" stroke-width="1" opacity="1"></line><line transform="translate(0,78)" x2="5" y2="0" stroke="#888" stroke-width="1" opacity="1"></line><line transform="translate(0,52)" x2="5" y2="0" stroke="#888" stroke-width="1" opacity="1"></line><line transform="translate(0,26)" x2="5" y2="0" stroke="#888" stroke-width="1" opacity="1"></line><line transform="translate(0,0)" x2="5" y2="0" stroke="#888" stroke-width="1" opacity="1"></line></g><g class="mark-text role-axis-label" pointer-events="none"><text text-anchor="start" transform="translate(7,133)" font-family="sans-serif" font-size="10px" fill="#000" opacity="1">0.0</text><text text-anchor="start" transform="translate(7,107)" font-family="sans-serif" font-size="10px" fill="#000" opacity="1">0.2</text><text text-anchor="start" transform="translate(7,81)" font-family="sans-serif" font-size="10px" fill="#000" opacity="1">0.4</text><text text-anchor="start" transform="translate(7,55)" font-family="sans-serif" font-size="10px" fill="#000" opacity="1">0.6</text><text text-anchor="start" transform="translate(7,28.999999999999993)" font-family="sans-serif" font-size="10px" fill="#000" opacity="1">0.8</text><text text-anchor="start" transform="translate(7,3)" font-family="sans-serif" font-size="10px" fill="#000" opacity="1">1.0</text></g><g class="mark-rule role-axis-domain" pointer-events="none"><line transform="translate(0,130)" x2="0" y2="-130" stroke="#888" stroke-width="1" opacity="1"></line></g><g class="mark-text role-axis-title" pointer-events="none"><text text-anchor="middle" transform="translate(26,65) rotate(90) translate(0,-2)" font-family="sans-serif" font-size="11px" font-weight="bold" fill="#000" opacity="1">P(switch)</text></g></g><path class="foreground" aria-hidden="true" d="" pointer-events="none" display="none"></path></g></g><g class="mark-group role-scope child_layer_0_layer_0_layer_0_layer_0_pathgroup" role="graphics-object" aria-roledescription="group mark container"><g transform="translate(0,0)"><path class="background" aria-hidden="true" d="M0,0h128v130h-128Z"></path><g><g class="mark-line role-mark child_layer_0_layer_0_layer_0_layer_0_marks" clip-path="url(#clip4)" role="graphics-object" aria-roledescription="line mark container"><path aria-label="Source: object; P(Correct): 0.345106629834; Time (s): 0.03125" role="graphics-symbol" aria-roledescription="line mark" d="M0.6153846153846154,67.1204604050873L2.4615384615384617,79.48027801717733L4.3076923076923075,60.83740885848055L6.153846153846154,64.86965065062257L8,57.49658389373618L9.846153846153847,56.75407490601047L11.692307692307692,49.350200744015915L13.538461538461538,51.919790226982606L15.384615384615385,49.35748106633878L17.23076923076923,50.20896030486354L19.076923076923077,51.065006479686765L20.923076923076923,55.202565501001864L22.76923076923077,54.377969907384475L24.615384615384617,54.468677419589575L26.46153846153846,57.729351192356546L28.307692307692307,61.1064363991519L30.153846153846153,61.36810737195306L32,70.8489153243476L33.84615384615385,64.87394421128211L35.69230769230769,77.29398930859332L37.53846153846154,76.51378624212656L39.38461538461539,80.72328200093268L41.23076923076923,78.39906788729255L43.07692307692308,69.79726542115303L44.92307692307692,74.13268037640333L46.76923076923077,70.26548053666349L48.61538461538461,74.79494006572574L50.46153846153846,77.65709754856083L52.30769230769231,73.87125071407108L54.15384615384615,76.12710307003788L56,73.63234406283607L57.84615384615385,80.08313653956297L59.69230769230769,82.36809520324017L61.53846153846154,93.83503950612392L63.38461538461539,94.49611920483395L65.23076923076923,97.48773597060529L67.07692307692308,94.65684386300009L68.92307692307692,93.23333899881702L70.76923076923077,94.5360840632421L72.61538461538461,90.48748639733577L74.46153846153847,86.82750135537451L76.3076923076923,79.77816092407373L78.15384615384616,82.26700404117454L80,67.98110489344917L81.84615384615384,76.72498109569047L83.6923076923077,64.61906784418224L85.53846153846153,68.23017199955922L87.38461538461539,67.50779393831775L89.23076923076923,68.52480898636824L91.07692307692308,63.68812289745735L92.92307692307692,58.82638768118998L94.76923076923077,56.42983741040254L96.61538461538461,57.955084332849374L98.46153846153847,57.92272304730991L100.3076923076923,57.23700555152651L102.15384615384616,59.54574656151669L104,52.93054124301973L105.84615384615384,48.553912623292575L107.6923076923077,50.0912938385526L109.53846153846153,52.728101411720694L111.38461538461539,61.21590015074497L113.23076923076923,60.906567523193374L115.07692307692308,67.77595339482596L116.92307692307692,51.23124383030428L118.76923076923077,65.47597188426438L120.61538461538461,58.12178792673075L122.46153846153847,44.735922778202195L124.3076923076923,39.25651236925746L126.15384615384616,39.3953894689189" stroke="#687B3E" stroke-width="2" stroke-linejoin="round"></path></g></g><path class="foreground" aria-hidden="true" d="" display="none"></path></g></g><g class="mark-group role-scope child_layer_0_layer_0_layer_0_layer_1_layer_0_pathgroup" role="graphics-object" aria-roledescription="group mark container"><g transform="translate(0,0)"><path class="background" aria-hidden="true" d="M0,0h128v130h-128Z"></path><g><g class="mark-area role-mark child_layer_0_layer_0_layer_0_layer_1_layer_0_marks" clip-path="url(#clip5)" role="graphics-object" aria-roledescription="area mark container"><path aria-label="P(Correct): 0.310956745587; upper_lower: 0.380269206616; Source: object; Time (s): 0.03125; upper: 0.380269206616; lower: 0.310956745587" role="graphics-symbol" aria-roledescription="errorband" d="M0.6153846153846154,81.91874357913134L2.4615384615384617,90.14252426702767L4.3076923076923075,74.21166217379744L6.153846153846154,76.46163713984285L8,69.31844136738819L9.846153846153847,67.60929940034242L11.692307692307692,60.10083124882978L13.538461538461538,63.04752008510277L15.384615384615385,61.486272197505606L17.23076923076923,63.75302560580766L19.076923076923077,64.27846064551107L20.923076923076923,68.52417261313153L22.76923076923077,66.84427140679918L24.615384615384617,66.37862857909973L26.46153846153846,72.83397771617447L28.307692307692307,74.82623586464887L30.153846153846153,74.64242360284068L32,81.97228585285775L33.84615384615385,75.73483493358786L35.69230769230769,90.70740834776922L37.53846153846154,92.20707774401876L39.38461538461539,97.14447967198933L41.23076923076923,92.04314496463857L43.07692307692308,81.8499970394179L44.92307692307692,84.11799119017284L46.76923076923077,79.29004063482559L48.61538461538461,87.8163340283641L50.46153846153846,88.44501720519945L52.30769230769231,87.08238376383515L54.15384615384615,90.24623736727852L56,86.73741964330817L57.84615384615385,95.13741488856712L59.69230769230769,96.51819713016046L61.53846153846154,107.21022122085638L63.38461538461539,109.1399118270503L65.23076923076923,111.7532613430902L67.07692307692308,106.66393868028868L68.92307692307692,103.1469973248017L70.76923076923077,104.59572545906929L72.61538461538461,102.4210484600494L74.46153846153847,99.91094132355177L76.3076923076923,95.08679369545558L78.15384615384616,94.35660173542361L80,85.87721973336885L81.84615384615384,90.53068636577963L83.6923076923077,83.74915017744922L85.53846153846153,82.5681701644607L87.38461538461539,83.84555456967588L89.23076923076923,84.03889702232057L91.07692307692308,74.26233185735708L92.92307692307692,67.77546366713548L94.76923076923077,67.83343738748533L96.61538461538461,67.6811922909109L98.46153846153847,69.5549689502144L100.3076923076923,67.66208131773735L102.15384615384616,70.75016449591828L104,65.76866821456117L105.84615384615384,64.3491184309132L107.6923076923077,68.26757880785738L109.53846153846153,71.82658276027861L111.38461538461539,77.18150713041965L113.23076923076923,76.48421507176107L115.07692307692308,80.56370402397775L116.92307692307692,66.95866944912086L118.76923076923077,78.00006367410882L120.61538461538461,71.11664732005319L122.46153846153847,61.41488940378342L124.3076923076923,56.377685094801095L126.15384615384616,57.471969736267184L126.15384615384616,22.46719421494754L124.3076923076923,23.71434701826857L122.46153846153847,29.493449033303015L120.61538461538461,45.49598085586646L118.76923076923077,53.0869869500129L116.92307692307692,36.635904900329926L115.07692307692308,54.978793562177955L113.23076923076923,45.510064696824344L111.38461538461539,45.47093093340038L109.53846153846153,34.32815043280218L107.6923076923077,33.08322182689009L105.84615384615384,33.97125367772189L104,39.70919554986027L102.15384615384616,48.58561987920941L100.3076923076923,47.049465729274104L98.46153846153847,47.0527604654524L96.61538461538461,47.79390736851635L94.76923076923077,44.83069479024388L92.92307692307692,49.362279138434026L91.07692307692308,53.72690608842438L89.23076923076923,53.916126501360836L87.38461538461539,52.480116781731375L85.53846153846153,53.713480614812255L83.6923076923077,47.86101778388592L81.84615384615384,63.37741209954688L80,50.93599301153573L78.15384615384616,70.14648567418404L76.3076923076923,65.70069737330537L74.46153846153847,73.91267926340949L72.61538461538461,78.87807403606216L70.76923076923077,84.37622566150412L68.92307692307692,83.22879639230074L67.07692307692308,82.73093285177332L65.23076923076923,83.6224290135228L63.38461538461539,80.19300072067522L61.53846153846154,79.93330903832985L59.69230769230769,66.78341802207179L57.84615384615385,64.31064142783896L56,60.046382088779794L54.15384615384615,62.19428723434296L52.30769230769231,60.630258680236444L50.46153846153846,66.22925537138607L48.61538461538461,60.64404712660459L46.76923076923077,61.66742610098117L44.92307692307692,63.75816812432862L43.07692307692308,58.30701361406092L41.23076923076923,65.46483936014832L39.38461538461539,64.83328293961286L37.53846153846154,61.09890005995081L35.69230769230769,64.17970569000916L33.84615384615385,54.680622098426994L32,59.32983551439173L30.153846153846153,48.76829533117678L28.307692307692307,48.00846427521962L26.46153846153846,43.182691695905255L24.615384615384617,42.542209949631896L22.76923076923077,42.502269012069846L20.923076923076923,42.08886096734915L19.076923076923077,38.40762800832447L17.23076923076923,37.33548988990916L15.384615384615385,37.77404634362583L13.538461538461538,39.99622821876829L11.692307692307692,38.98817888844193L9.846153846153847,45.80078546595842L8,46.30706661809269L6.153846153846154,53.10322088555942L4.3076923076923075,47.550225684144586L2.4615384615384617,69.24144732103026L0.6153846153846154,51.88334379961126Z" fill="#687B3E" opacity="0.3"></path></g></g><path class="foreground" aria-hidden="true" d="" display="none"></path></g></g><g class="mark-rule role-mark child_layer_0_layer_0_layer_1_marks" clip-path="url(#clip6)" role="graphics-symbol" aria-roledescription="rule mark container"><line transform="translate(128,72.22222222222223)" x2="-128" y2="0" stroke="black" stroke-width="1" stroke-dasharray="4,4"></line><line transform="translate(128,72.22222222222223)" x2="-128" y2="0" stroke="black" stroke-width="1" stroke-dasharray="4,4"></line><line transform="translate(128,72.22222222222223)" x2="-128" y2="0" stroke="black" stroke-width="1" stroke-dasharray="4,4"></line><line transform="translate(128,72.22222222222223)" x2="-128" y2="0" stroke="black" stroke-width="1" stroke-dasharray="4,4"></line><line transform="translate(128,72.22222222222223)" x2="-128" y2="0" stroke="black" stroke-width="1" stroke-dasharray="4,4"></line><line transform="translate(128,72.22222222222223)" x2="-128" y2="0" stroke="black" stroke-width="1" stroke-dasharray="4,4"></line><line transform="translate(128,72.22222222222223)" x2="-128" y2="0" stroke="black" stroke-width="1" stroke-dasharray="4,4"></line><line transform="translate(128,72.22222222222223)" x2="-128" y2="0" stroke="black" stroke-width="1" stroke-dasharray="4,4"></line><line transform="translate(128,72.22222222222223)" x2="-128" y2="0" stroke="black" stroke-width="1" stroke-dasharray="4,4"></line><line transform="translate(128,72.22222222222223)" x2="-128" y2="0" stroke="black" stroke-width="1" stroke-dasharray="4,4"></line><line transform="translate(128,72.22222222222223)" x2="-128" y2="0" stroke="black" stroke-width="1" stroke-dasharray="4,4"></line><line transform="translate(128,72.22222222222223)" x2="-128" y2="0" stroke="black" stroke-width="1" stroke-dasharray="4,4"></line><line transform="translate(128,72.22222222222223)" x2="-128" y2="0" stroke="black" stroke-width="1" stroke-dasharray="4,4"></line><line transform="translate(128,72.22222222222223)" x2="-128" y2="0" stroke="black" stroke-width="1" stroke-dasharray="4,4"></line><line transform="translate(128,72.22222222222223)" x2="-128" y2="0" stroke="black" stroke-width="1" stroke-dasharray="4,4"></line><line transform="translate(128,72.22222222222223)" x2="-128" y2="0" stroke="black" stroke-width="1" stroke-dasharray="4,4"></line><line transform="translate(128,72.22222222222223)" x2="-128" y2="0" stroke="black" stroke-width="1" stroke-dasharray="4,4"></line><line transform="translate(128,72.22222222222223)" x2="-128" y2="0" stroke="black" stroke-width="1" stroke-dasharray="4,4"></line><line transform="translate(128,72.22222222222223)" x2="-128" y2="0" stroke="black" stroke-width="1" stroke-dasharray="4,4"></line><line transform="translate(128,72.22222222222223)" x2="-128" y2="0" stroke="black" stroke-width="1" stroke-dasharray="4,4"></line><line transform="translate(128,72.22222222222223)" x2="-128" y2="0" stroke="black" stroke-width="1" stroke-dasharray="4,4"></line><line transform="translate(128,72.22222222222223)" x2="-128" y2="0" stroke="black" stroke-width="1" stroke-dasharray="4,4"></line><line transform="translate(128,72.22222222222223)" x2="-128" y2="0" stroke="black" stroke-width="1" stroke-dasharray="4,4"></line><line transform="translate(128,72.22222222222223)" x2="-128" y2="0" stroke="black" stroke-width="1" stroke-dasharray="4,4"></line><line transform="translate(128,72.22222222222223)" x2="-128" y2="0" stroke="black" stroke-width="1" stroke-dasharray="4,4"></line><line transform="translate(128,72.22222222222223)" x2="-128" y2="0" stroke="black" stroke-width="1" stroke-dasharray="4,4"></line><line transform="translate(128,72.22222222222223)" x2="-128" y2="0" stroke="black" stroke-width="1" stroke-dasharray="4,4"></line><line transform="translate(128,72.22222222222223)" x2="-128" y2="0" stroke="black" stroke-width="1" stroke-dasharray="4,4"></line><line transform="translate(128,72.22222222222223)" x2="-128" y2="0" stroke="black" stroke-width="1" stroke-dasharray="4,4"></line><line transform="translate(128,72.22222222222223)" x2="-128" y2="0" stroke="black" stroke-width="1" stroke-dasharray="4,4"></line><line transform="translate(128,72.22222222222223)" x2="-128" y2="0" stroke="black" stroke-width="1" stroke-dasharray="4,4"></line><line transform="translate(128,72.22222222222223)" x2="-128" y2="0" stroke="black" stroke-width="1" stroke-dasharray="4,4"></line><line transform="translate(128,72.22222222222223)" x2="-128" y2="0" stroke="black" stroke-width="1" stroke-dasharray="4,4"></line><line transform="translate(128,72.22222222222223)" x2="-128" y2="0" stroke="black" stroke-width="1" stroke-dasharray="4,4"></line><line transform="translate(128,72.22222222222223)" x2="-128" y2="0" stroke="black" stroke-width="1" stroke-dasharray="4,4"></line><line transform="translate(128,72.22222222222223)" x2="-128" y2="0" stroke="black" stroke-width="1" stroke-dasharray="4,4"></line><line transform="translate(128,72.22222222222223)" x2="-128" y2="0" stroke="black" stroke-width="1" stroke-dasharray="4,4"></line><line transform="translate(128,72.22222222222223)" x2="-128" y2="0" stroke="black" stroke-width="1" stroke-dasharray="4,4"></line><line transform="translate(128,72.22222222222223)" x2="-128" y2="0" stroke="black" stroke-width="1" stroke-dasharray="4,4"></line><line transform="translate(128,72.22222222222223)" x2="-128" y2="0" stroke="black" stroke-width="1" stroke-dasharray="4,4"></line><line transform="translate(128,72.22222222222223)" x2="-128" y2="0" stroke="black" stroke-width="1" stroke-dasharray="4,4"></line><line transform="translate(128,72.22222222222223)" x2="-128" y2="0" stroke="black" stroke-width="1" stroke-dasharray="4,4"></line><line transform="translate(128,72.22222222222223)" x2="-128" y2="0" stroke="black" stroke-width="1" stroke-dasharray="4,4"></line><line transform="translate(128,72.22222222222223)" x2="-128" y2="0" stroke="black" stroke-width="1" stroke-dasharray="4,4"></line><line transform="translate(128,72.22222222222223)" x2="-128" y2="0" stroke="black" stroke-width="1" stroke-dasharray="4,4"></line><line transform="translate(128,72.22222222222223)" x2="-128" y2="0" stroke="black" stroke-width="1" stroke-dasharray="4,4"></line><line transform="translate(128,72.22222222222223)" x2="-128" y2="0" stroke="black" stroke-width="1" stroke-dasharray="4,4"></line><line transform="translate(128,72.22222222222223)" x2="-128" y2="0" stroke="black" stroke-width="1" stroke-dasharray="4,4"></line><line transform="translate(128,72.22222222222223)" x2="-128" y2="0" stroke="black" stroke-width="1" stroke-dasharray="4,4"></line><line transform="translate(128,72.22222222222223)" x2="-128" y2="0" stroke="black" stroke-width="1" stroke-dasharray="4,4"></line><line transform="translate(128,72.22222222222223)" x2="-128" y2="0" stroke="black" stroke-width="1" stroke-dasharray="4,4"></line><line transform="translate(128,72.22222222222223)" x2="-128" y2="0" stroke="black" stroke-width="1" stroke-dasharray="4,4"></line><line transform="translate(128,72.22222222222223)" x2="-128" y2="0" stroke="black" stroke-width="1" stroke-dasharray="4,4"></line><line transform="translate(128,72.22222222222223)" x2="-128" y2="0" stroke="black" stroke-width="1" stroke-dasharray="4,4"></line><line transform="translate(128,72.22222222222223)" x2="-128" y2="0" stroke="black" stroke-width="1" stroke-dasharray="4,4"></line><line transform="translate(128,72.22222222222223)" x2="-128" y2="0" stroke="black" stroke-width="1" stroke-dasharray="4,4"></line><line transform="translate(128,72.22222222222223)" x2="-128" y2="0" stroke="black" stroke-width="1" stroke-dasharray="4,4"></line><line transform="translate(128,72.22222222222223)" x2="-128" y2="0" stroke="black" stroke-width="1" stroke-dasharray="4,4"></line><line transform="translate(128,72.22222222222223)" x2="-128" y2="0" stroke="black" stroke-width="1" stroke-dasharray="4,4"></line><line transform="translate(128,72.22222222222223)" x2="-128" y2="0" stroke="black" stroke-width="1" stroke-dasharray="4,4"></line><line transform="translate(128,72.22222222222223)" x2="-128" y2="0" stroke="black" stroke-width="1" stroke-dasharray="4,4"></line><line transform="translate(128,72.22222222222223)" x2="-128" y2="0" stroke="black" stroke-width="1" stroke-dasharray="4,4"></line><line transform="translate(128,72.22222222222223)" x2="-128" y2="0" stroke="black" stroke-width="1" stroke-dasharray="4,4"></line><line transform="translate(128,72.22222222222223)" x2="-128" y2="0" stroke="black" stroke-width="1" stroke-dasharray="4,4"></line><line transform="translate(128,72.22222222222223)" x2="-128" y2="0" stroke="black" stroke-width="1" stroke-dasharray="4,4"></line><line transform="translate(128,72.22222222222223)" x2="-128" y2="0" stroke="black" stroke-width="1" stroke-dasharray="4,4"></line><line transform="translate(128,72.22222222222223)" x2="-128" y2="0" stroke="black" stroke-width="1" stroke-dasharray="4,4"></line><line transform="translate(128,72.22222222222223)" x2="-128" y2="0" stroke="black" stroke-width="1" stroke-dasharray="4,4"></line><line transform="translate(128,72.22222222222223)" x2="-128" y2="0" stroke="black" stroke-width="1" stroke-dasharray="4,4"></line></g><g class="mark-area role-mark child_layer_0_layer_1_marks" role="graphics-object" aria-roledescription="area mark container"><path aria-label="P(switch): 1; time: 0.03125" role="graphics-symbol" aria-roledescription="area mark" d="M0.6153846153846154,0L2.4615384615384617,0L4.3076923076923075,0L6.153846153846154,41.599999999999994L8,72.80000000000001L9.846153846153847,93.6L11.692307692307692,98.8L13.538461538461538,104L15.384615384615385,104L17.23076923076923,104L19.076923076923077,104L20.923076923076923,109.2L22.76923076923077,114.4L24.615384615384617,124.8L26.46153846153846,124.8L28.307692307692307,130L30.153846153846153,130L32,130L33.84615384615385,124.8L35.69230769230769,88.39999999999999L37.53846153846154,72.80000000000001L39.38461538461539,57.199999999999996L41.23076923076923,41.599999999999994L43.07692307692308,41.599999999999994L44.92307692307692,31.2L46.76923076923077,31.2L48.61538461538461,25.999999999999993L50.46153846153846,25.999999999999993L52.30769230769231,25.999999999999993L54.15384615384615,25.999999999999993L56,25.999999999999993L57.84615384615385,36.400000000000006L59.69230769230769,67.60000000000001L61.53846153846154,83.2L63.38461538461539,78L65.23076923076923,78L67.07692307692308,78L68.92307692307692,72.80000000000001L70.76923076923077,52L72.61538461538461,46.8L74.46153846153847,36.400000000000006L76.3076923076923,31.2L78.15384615384616,25.999999999999993L80,15.6L81.84615384615384,15.6L83.6923076923077,15.6L85.53846153846153,31.2L87.38461538461539,41.599999999999994L89.23076923076923,52L91.07692307692308,57.199999999999996L92.92307692307692,72.80000000000001L94.76923076923077,67.60000000000001L96.61538461538461,72.80000000000001L98.46153846153847,78L100.3076923076923,83.2L102.15384615384616,83.2L104,88.39999999999999L105.84615384615384,88.39999999999999L107.6923076923077,83.2L109.53846153846153,62.4L111.38461538461539,57.199999999999996L113.23076923076923,57.199999999999996L115.07692307692308,52L116.92307692307692,36.400000000000006L118.76923076923077,52L120.61538461538461,56.52173913043479L122.46153846153847,45.21739130434783L124.3076923076923,30.952380952380956L126.15384615384616,41.93548387096775L126.15384615384616,130L124.3076923076923,130L122.46153846153847,130L120.61538461538461,130L118.76923076923077,130L116.92307692307692,130L115.07692307692308,130L113.23076923076923,130L111.38461538461539,130L109.53846153846153,130L107.6923076923077,130L105.84615384615384,130L104,130L102.15384615384616,130L100.3076923076923,130L98.46153846153847,130L96.61538461538461,130L94.76923076923077,130L92.92307692307692,130L91.07692307692308,130L89.23076923076923,130L87.38461538461539,130L85.53846153846153,130L83.6923076923077,130L81.84615384615384,130L80,130L78.15384615384616,130L76.3076923076923,130L74.46153846153847,130L72.61538461538461,130L70.76923076923077,130L68.92307692307692,130L67.07692307692308,130L65.23076923076923,130L63.38461538461539,130L61.53846153846154,130L59.69230769230769,130L57.84615384615385,130L56,130L54.15384615384615,130L52.30769230769231,130L50.46153846153846,130L48.61538461538461,130L46.76923076923077,130L44.92307692307692,130L43.07692307692308,130L41.23076923076923,130L39.38461538461539,130L37.53846153846154,130L35.69230769230769,130L33.84615384615385,130L32,130L30.153846153846153,130L28.307692307692307,130L26.46153846153846,130L24.615384615384617,130L22.76923076923077,130L20.923076923076923,130L19.076923076923077,130L17.23076923076923,130L15.384615384615385,130L13.538461538461538,130L11.692307692307692,130L9.846153846153847,130L8,130L6.153846153846154,130L4.3076923076923075,130L2.4615384615384617,130L0.6153846153846154,130Z" fill="black" opacity="0.3"></path></g></g><path class="foreground" aria-hidden="true" d="" display="none"></path></g></g></g><path class="foreground" aria-hidden="true" d="" display="none"></path></g></g></g></svg>
