<?xml version="1.0" encoding="utf-8"?>
<!DOCTYPE svg PUBLIC "-//W3C//DTD SVG 1.1//EN" "http://www.w3.org/Graphics/SVG/1.1/DTD/svg11.dtd">
<svg class="marks" width="388" height="194" viewBox="0 0 388 194" version="1.1" xmlns="http://www.w3.org/2000/svg" xmlns:xlink="http://www.w3.org/1999/xlink"><rect width="388" height="194" fill="white"></rect><g fill="none" stroke-miterlimit="10" transform="translate(56,26)"><g class="mark-group role-frame root" role="graphics-object" aria-roledescription="group mark container"><g transform="translate(0,0)"><path class="background" aria-hidden="true" d="M0,0h0v0h0Z"></path><g><g class="mark-group role-row-header row_header" role="graphics-object" aria-roledescription="group mark container"><g transform="translate(-3,0)"><path class="background" aria-hidden="true" d="M0,0h0v130h0Z"></path><g><g class="mark-group role-axis" role="graphics-symbol" aria-roledescription="axis" aria-label="Y-axis titled 'Decoding Correlation' for a linear scale with values from -0.06 to 0.12"><g transform="translate(0.5,0.5)"><path class="background" aria-hidden="true" d="M0,0h0v0h0Z" pointer-events="none"></path><g><g class="mark-rule role-axis-tick" pointer-events="none"><line transform="translate(0,123)" x2="-5" y2="0" stroke="#888" stroke-width="1" opacity="1"></line><line transform="translate(0,87)" x2="-5" y2="0" stroke="#888" stroke-width="1" opacity="1"></line><line transform="translate(0,51)" x2="-5" y2="0" stroke="#888" stroke-width="1" opacity="1"></line><line transform="translate(0,14)" x2="-5" y2="0" stroke="#888" stroke-width="1" opacity="1"></line></g><g class="mark-text role-axis-label" pointer-events="none"><text text-anchor="end" transform="translate(-7,125.77777777777777)" font-family="sans-serif" font-size="10px" fill="#000" opacity="1">-0.05</text><text text-anchor="end" transform="translate(-7,89.66666666666667)" font-family="sans-serif" font-size="10px" fill="#000" opacity="1">0.00</text><text text-anchor="end" transform="translate(-7,53.55555555555555)" font-family="sans-serif" font-size="10px" fill="#000" opacity="1">0.05</text><text text-anchor="end" transform="translate(-7,17.444444444444436)" font-family="sans-serif" font-size="10px" fill="#000" opacity="1">0.10</text></g><g class="mark-rule role-axis-domain" pointer-events="none"><line transform="translate(0,130)" x2="0" y2="-130" stroke="#888" stroke-width="1" opacity="1"></line></g><g class="mark-text role-axis-title" pointer-events="none"><text text-anchor="middle" transform="translate(-36,65) rotate(-90) translate(0,-2)" font-family="sans-serif" font-size="11px" font-weight="bold" fill="#000" opacity="1">Decoding Correlation</text></g></g><path class="foreground" aria-hidden="true" d="" pointer-events="none" display="none"></path></g></g></g><path class="foreground" aria-hidden="true" d="" display="none"></path></g></g><g class="mark-group role-column-header column_header" role="graphics-object" aria-roledescription="group mark container"><g transform="translate(0,-1)"><path class="background" aria-hidden="true" d="M0,0h128v0h-128Z"></path><g><g class="mark-group role-title"><g transform="translate(64,-20)"><path class="background" aria-hidden="true" d="M0,0h0v0h0Z" pointer-events="none"></path><g><g class="mark-text role-title-text" role="graphics-symbol" aria-roledescription="title" aria-label="Title text 'Global'" pointer-events="none"><text text-anchor="middle" transform="translate(0,8)" font-family="sans-serif" font-size="10px" font-weight="bold" fill="#000" opacity="1">Global</text></g></g><path class="foreground" aria-hidden="true" d="" pointer-events="none" display="none"></path></g></g></g><path class="foreground" aria-hidden="true" d="" display="none"></path></g><g transform="translate(138,-1)"><path class="background" aria-hidden="true" d="M0,0h128v0h-128Z"></path><g><g class="mark-group role-title"><g transform="translate(64,-20)"><path class="background" aria-hidden="true" d="M0,0h0v0h0Z" pointer-events="none"></path><g><g class="mark-text role-title-text" role="graphics-symbol" aria-roledescription="title" aria-label="Title text 'Object'" pointer-events="none"><text text-anchor="middle" transform="translate(0,8)" font-family="sans-serif" font-size="10px" font-weight="bold" fill="#000" opacity="1">Object</text></g></g><path class="foreground" aria-hidden="true" d="" pointer-events="none" display="none"></path></g></g></g><path class="foreground" aria-hidden="true" d="" display="none"></path></g></g><g class="mark-group role-column-footer column_footer" role="graphics-object" aria-roledescription="group mark container"><g transform="translate(0,131)"><path class="background" aria-hidden="true" d="M0,0h128v0h-128Z"></path><g><g class="mark-group role-axis" role="graphics-symbol" aria-roledescription="axis" aria-label="X-axis titled 'Time (s)' for a linear scale with values from 0 to 8"><g transform="translate(0.5,0.5)"><path class="background" aria-hidden="true" d="M0,0h0v0h0Z" pointer-events="none"></path><g><g class="mark-rule role-axis-tick" pointer-events="none"><line transform="translate(0,0)" x2="0" y2="5" stroke="#888" stroke-width="1" opacity="1"></line><line transform="translate(32,0)" x2="0" y2="5" stroke="#888" stroke-width="1" opacity="1"></line><line transform="translate(64,0)" x2="0" y2="5" stroke="#888" stroke-width="1" opacity="1"></line><line transform="translate(96,0)" x2="0" y2="5" stroke="#888" stroke-width="1" opacity="1"></line><line transform="translate(128,0)" x2="0" y2="5" stroke="#888" stroke-width="1" opacity="1"></line></g><g class="mark-text role-axis-label" pointer-events="none"><text text-anchor="start" transform="translate(0,15)" font-family="sans-serif" font-size="10px" fill="#000" opacity="1">0</text><text text-anchor="middle" transform="translate(32,15)" font-family="sans-serif" font-size="10px" fill="#000" opacity="1">2</text><text text-anchor="middle" transform="translate(64,15)" font-family="sans-serif" font-size="10px" fill="#000" opacity="1">4</text><text text-anchor="middle" transform="translate(96,15)" font-family="sans-serif" font-size="10px" fill="#000" opacity="1">6</text><text text-anchor="end" transform="translate(128,15)" font-family="sans-serif" font-size="10px" fill="#000" opacity="1">8</text></g><g class="mark-rule role-axis-domain" pointer-events="none"><line transform="translate(0,0)" x2="128" y2="0" stroke="#888" stroke-width="1" opacity="1"></line></g><g class="mark-text role-axis-title" pointer-events="none"><text text-anchor="middle" transform="translate(64,30)" font-family="sans-serif" font-size="11px" font-weight="bold" fill="#000" opacity="1">Time (s)</text></g></g><path class="foreground" aria-hidden="true" d="" pointer-events="none" display="none"></path></g></g></g><path class="foreground" aria-hidden="true" d="" display="none"></path></g><g transform="translate(138,131)"><path class="background" aria-hidden="true" d="M0,0h128v0h-128Z"></path><g><g class="mark-group role-axis" role="graphics-symbol" aria-roledescription="axis" aria-label="X-axis titled 'Time (s)' for a linear scale with values from 0 to 8"><g transform="translate(0.5,0.5)"><path class="background" aria-hidden="true" d="M0,0h0v0h0Z" pointer-events="none"></path><g><g class="mark-rule role-axis-tick" pointer-events="none"><line transform="translate(0,0)" x2="0" y2="5" stroke="#888" stroke-width="1" opacity="1"></line><line transform="translate(32,0)" x2="0" y2="5" stroke="#888" stroke-width="1" opacity="1"></line><line transform="translate(64,0)" x2="0" y2="5" stroke="#888" stroke-width="1" opacity="1"></line><line transform="translate(96,0)" x2="0" y2="5" stroke="#888" stroke-width="1" opacity="1"></line><line transform="translate(128,0)" x2="0" y2="5" stroke="#888" stroke-width="1" opacity="1"></line></g><g class="mark-text role-axis-label" pointer-events="none"><text text-anchor="start" transform="translate(0,15)" font-family="sans-serif" font-size="10px" fill="#000" opacity="1">0</text><text text-anchor="middle" transform="translate(32,15)" font-family="sans-serif" font-size="10px" fill="#000" opacity="1">2</text><text text-anchor="middle" transform="translate(64,15)" font-family="sans-serif" font-size="10px" fill="#000" opacity="1">4</text><text text-anchor="middle" transform="translate(96,15)" font-family="sans-serif" font-size="10px" fill="#000" opacity="1">6</text><text text-anchor="end" transform="translate(128,15)" font-family="sans-serif" font-size="10px" fill="#000" opacity="1">8</text></g><g class="mark-rule role-axis-domain" pointer-events="none"><line transform="translate(0,0)" x2="128" y2="0" stroke="#888" stroke-width="1" opacity="1"></line></g><g class="mark-text role-axis-title" pointer-events="none"><text text-anchor="middle" transform="translate(64,30)" font-family="sans-serif" font-size="11px" font-weight="bold" fill="#000" opacity="1">Time (s)</text></g></g><path class="foreground" aria-hidden="true" d="" pointer-events="none" display="none"></path></g></g></g><path class="foreground" aria-hidden="true" d="" display="none"></path></g></g><g class="mark-group role-scope cell" role="graphics-object" aria-roledescription="group mark container"><g transform="translate(0,0)"><path class="background" aria-hidden="true" d="M0.5,0.5h128v130h-128Z" stroke="#ddd"></path><g><g class="mark-group role-axis" aria-hidden="true"><g transform="translate(0.5,130.5)"><path class="background" aria-hidden="true" d="M0,0h0v0h0Z" pointer-events="none"></path><g><g class="mark-rule role-axis-grid" pointer-events="none"><line transform="translate(0,-130)" x2="0" y2="130" stroke="#ddd" stroke-width="1" opacity="1"></line><line transform="translate(32,-130)" x2="0" y2="130" stroke="#ddd" stroke-width="1" opacity="1"></line><line transform="translate(64,-130)" x2="0" y2="130" stroke="#ddd" stroke-width="1" opacity="1"></line><line transform="translate(96,-130)" x2="0" y2="130" stroke="#ddd" stroke-width="1" opacity="1"></line><line transform="translate(128,-130)" x2="0" y2="130" stroke="#ddd" stroke-width="1" opacity="1"></line></g></g><path class="foreground" aria-hidden="true" d="" pointer-events="none" display="none"></path></g></g><g class="mark-group role-axis" aria-hidden="true"><g transform="translate(0.5,0.5)"><path class="background" aria-hidden="true" d="M0,0h0v0h0Z" pointer-events="none"></path><g><g class="mark-rule role-axis-grid" pointer-events="none"><line transform="translate(0,123)" x2="128" y2="0" stroke="#ddd" stroke-width="1" opacity="1"></line><line transform="translate(0,87)" x2="128" y2="0" stroke="#ddd" stroke-width="1" opacity="1"></line><line transform="translate(0,51)" x2="128" y2="0" stroke="#ddd" stroke-width="1" opacity="1"></line><line transform="translate(0,14)" x2="128" y2="0" stroke="#ddd" stroke-width="1" opacity="1"></line></g></g><path class="foreground" aria-hidden="true" d="" pointer-events="none" display="none"></path></g></g><g class="mark-group role-scope child_layer_0_layer_0_pathgroup" role="graphics-object" aria-roledescription="group mark container"><g transform="translate(0,0)"><path class="background" aria-hidden="true" d="M0,0h128v130h-128Z"></path><g><g class="mark-line role-mark child_layer_0_layer_0_marks" role="graphics-object" aria-roledescription="line mark container"><path aria-label="Time (s): 0.03125; Lags: 3 sec; Decoding Correlation: 0.0148602934107" role="graphics-symbol" aria-roledescription="line mark" d="M0.5,75.93423253668487L2,77.85589404815087L3.5,81.40205813726077L5,78.51426801000596L6.5,77.59637091777492L8,76.16728612362772L9.5,74.04839495890715L11,75.1866315435182L12.5,76.38497530254503L14,80.77703047092746L15.5,83.65672757801974L17,82.73868478355527L18.5,80.49181261645656L20,78.48125228137951L21.5,78.44949099400705L23,72.75889987070178L24.5,70.1049710335168L26,75.05640735414944L27.5,77.30576158680286L29,74.33393311634461L30.5,75.96323034357623L32,80.30525334518082L33.5,80.59073347927387L35,81.24300339091162L36.5,78.96921237711742L38,79.53739161179288L39.5,81.72783696847486L41,77.77751331597038L42.5,76.7666776606122L44,80.11311915417343L45.5,83.40566988338924L47,79.82144980319995L48.5,75.82993613455393L50,75.40526968898004L51.5,76.77667356303526L53,79.34903790869834L54.5,79.75768031533843L56,76.77137145573072L57.5,77.71342157813422L59,79.17754318947124L60.5,74.15236992531136L62,76.57345333421682L63.5,81.26385989701333L65,83.38165975442523L66.5,85.21229914074831L68,83.77516030982791L69.5,82.51214157456589L71,81.57011376526482L72.5,84.77444223482551L74,83.09821922221704L75.5,79.07642823216632L77,78.43487660675272L78.5,80.53733043897861L80,77.1548957806948L81.5,76.87082941195693L83,77.72262775797324L84.5,75.06159541619925L86,78.74255215020156L87.5,91.22587728374998L89,97.41747360117252L90.5,88.53344983335793L92,94.70650712988669L93.5,99.27339086304006L95,96.2953546510643L96.5,74.61739862136871L98,63.36308755080853L99.5,60.7229611192656L101,63.80553316749822L102.5,70.51479530930872L104,59.44332816006633L105.5,52.20633955304688L107,58.11926297273027L108.5,71.05684894214002L110,75.02184781525892L111.5,58.503960502680286L113,49.125936176299305L114.5,30.217878125673142L116,33.794085546724L117.5,34.39903933639122L119,29.604292641674796L120.5,32.95542306794245L122,32.93481687343114L123.5,18.154653127457152L125,64.63168047396333L126.5,72.56571667313068" stroke="#84B672" stroke-width="2" stroke-linejoin="round"></path></g></g><path class="foreground" aria-hidden="true" d="" display="none"></path></g><g transform="translate(0,0)"><path class="background" aria-hidden="true" d="M0,0h128v130h-128Z"></path><g><g class="mark-line role-mark child_layer_0_layer_0_marks" role="graphics-object" aria-roledescription="line mark container"><path aria-label="Time (s): 0.03125; Lags: 2 sec; Decoding Correlation: 0.00775539861377" role="graphics-symbol" aria-roledescription="line mark" d="M0.5,81.06554544561413L2,83.8535643665819L3.5,85.40880202435595L5,81.99246410553705L6.5,80.20345995610741L8,80.84997885789598L9.5,78.78382074078584L11,78.81472360347846L12.5,82.88855392912751L14,86.78565244542219L15.5,83.7396475611146L17,85.31521597620967L18.5,85.45605643250713L20,85.18380000818681L21.5,86.54660551657317L23,82.62413472531135L24.5,81.88117139798767L26,80.49848119287458L27.5,80.86188290245735L29,81.26556912420187L30.5,83.38519142720291L32,87.09816179652516L33.5,82.12849688286688L35,80.25430001300067L36.5,79.20704473496205L38,79.73264521068829L39.5,80.4408988260557L41,78.5341816390925L42.5,75.25280539205352L44,76.62612076680145L45.5,79.31534229125327L47,78.75552317388572L48.5,70.60140696412466L50,78.60616352917164L51.5,80.40858677322197L53,80.94868318121114L54.5,82.12832922065637L56,82.73791609861766L57.5,84.29855357215523L59,88.48372835022991L60.5,85.71053875115666L62,86.59245995887308L63.5,89.67546737249981L65,93.3281510645388L66.5,91.14179477250337L68,85.95842026584658L69.5,83.4265205855554L71,77.89060073996744L72.5,77.08900886149402L74,74.87295971815225L75.5,71.80451441624142L77,74.52139600073247L78.5,77.71991327374195L80,75.8558488312905L81.5,77.22338180906674L83,76.73750546984574L84.5,72.6205441396666L86,80.50046795925566L87.5,92.19556355813998L89,99.0316637328603L90.5,93.64952631479515L92,92.46528695256234L93.5,98.96189919988014L95,96.54307247427558L96.5,89.96643748234412L98,84.84571976967163L99.5,80.22755490874925L101,74.07876890171657L102.5,79.8672900298956L104,66.64157168756861L105.5,51.281445970171L107,51.49370209632815L108.5,69.90728379561624L110,75.85091010722817L111.5,50.18818435130458L113,41.661304459941285L114.5,22.659059672105503L116,36.58074913458281L117.5,28.16783458835102L119,23.529673273967454L120.5,36.66273296888627L122,34.90714748455104L123.5,15.636633841702775L125,65.58015096383077L126.5,76.70526771382048" stroke="#4A7C84" stroke-width="2" stroke-linejoin="round"></path></g></g><path class="foreground" aria-hidden="true" d="" display="none"></path></g><g transform="translate(0,0)"><path class="background" aria-hidden="true" d="M0,0h128v130h-128Z"></path><g><g class="mark-line role-mark child_layer_0_layer_0_marks" role="graphics-object" aria-roledescription="line mark container"><path aria-label="Time (s): 0.03125; Lags: 1 sec; Decoding Correlation: 0.00903461987977" role="graphics-symbol" aria-roledescription="line mark" d="M0.5,80.14166342016506L2,81.1419540314182L3.5,83.71395733834373L5,82.58587406274222L6.5,81.19032779341637L8,84.21189187408037L9.5,85.19632477157211L11,81.60115227435178L12.5,81.46590476876757L14,84.62054419906491L15.5,88.14778068462898L17,86.73266276178856L18.5,84.18648720437608L20,86.55628203428272L21.5,88.16734033532018L23,89.32437749943801L24.5,87.9769813772089L26,88.11826973286767L27.5,86.47626854298811L29,82.85325557310074L30.5,83.59693283824777L32,86.4658984726108L33.5,83.55672671528137L35,78.7702578962652L36.5,77.49796950901036L38,77.62948026300903L39.5,78.11121095841992L41,79.37187278878649L42.5,75.86647870840685L44,79.3807291941685L45.5,83.89425810513555L47,81.58961204162661L48.5,78.63526197608745L50,87.93236732603101L51.5,91.9591396662438L53,94.17294668572686L54.5,94.11282796275283L56,90.01382340750546L57.5,88.97124830924291L59,89.08004362926829L60.5,83.33225092639066L62,79.32035525850765L63.5,82.57065893560097L65,85.50295538227073L66.5,83.03846222539694L68,78.92448962531155L69.5,79.29691600200526L71,76.6939036917304L72.5,73.69473586139516L74,75.60354061758922L75.5,75.01691423074055L77,77.09319279910515L78.5,78.93987328323928L80,79.69699116548927L81.5,78.39153442135611L83,75.06715482413527L84.5,72.05481081374252L86,74.31245471067773L87.5,83.3034165707479L89,88.18547754511056L90.5,83.05955928585007L92,82.75704697431657L93.5,91.59115491339801L95,91.21083096866434L96.5,91.53953230165929L98,92.1487029772036L99.5,96.39947649417948L101,91.18041560412259L102.5,88.45244388581538L104,73.30944638074028L105.5,54.524330724214785L107,54.09274858876582L108.5,82.04950781552742L110,74.9458116971129L111.5,62.0396507785635L113,56.24196276836033L114.5,57.153136206997345L116,63.555548914416896L117.5,67.81351832780146L119,65.99945309799811L120.5,86.1821655860254L122,76.32448055321598L123.5,77.42558411344044L125,84.4717587512824L126.5,83.74351201688096" stroke="#2C55A1" stroke-width="2" stroke-linejoin="round"></path></g></g><path class="foreground" aria-hidden="true" d="" display="none"></path></g></g><g class="mark-group role-scope child_layer_0_layer_1_layer_0_pathgroup" role="graphics-object" aria-roledescription="group mark container"><g transform="translate(0,0)"><path class="background" aria-hidden="true" d="M0,0h128v130h-128Z"></path><g><g class="mark-area role-mark child_layer_0_layer_1_layer_0_marks" role="graphics-object" aria-roledescription="area mark container"><path aria-label=": 0.00554375605315; upper_lower: 0.024169102897; Time (s): 0.03125; Lags: 3 sec; upper: 0.024169102897; lower: 0.00554375605315" role="graphics-symbol" aria-roledescription="errorband" d="M0.5,82.66284285049953L2,84.4044636714102L3.5,88.00340297346806L5,85.78350999500276L6.5,83.98358143714796L8,82.89014203791247L9.5,79.41354698899612L11,81.65717705365178L12.5,82.24107528179418L14,86.46144742656858L15.5,89.28351959346953L17,89.06744739724047L18.5,87.06666227696536L20,83.98508479561926L21.5,84.1480028528422L23,78.33798093001188L24.5,76.0354460815897L26,80.35339497018697L27.5,82.65266420410775L29,79.2284816482079L30.5,81.55573995334873L32,85.74997977423298L33.5,86.09873016588129L35,87.27569605826444L36.5,85.45079748376939L38,85.96477215009045L39.5,87.51590990634209L41,83.71914164092503L42.5,82.96732013120723L44,86.07483718921443L45.5,89.18533331507183L47,86.39215283053157L48.5,82.49456191997044L50,81.1300291524242L51.5,82.99805294269956L53,85.66626003967019L54.5,86.2443627876356L56,83.32663750518195L57.5,84.23506348638784L59,85.08601243818693L60.5,80.36568559626316L62,82.41306124326995L63.5,87.39694128458939L65,90.1896633299594L66.5,91.79150941280813L68,90.8091660472786L69.5,89.94400376406126L71,88.1856556199506L72.5,90.7629608886752L74,89.02257932110307L75.5,85.05066884543152L77,83.99942225965387L78.5,85.72602963254009L80,82.02663803855275L81.5,82.28274974199648L83,82.87314011846199L84.5,81.39788497227629L86,84.13719573825158L87.5,97.29605992568779L89,103.4252428780119L90.5,94.19799914487362L92,100.26166684168402L93.5,104.76296866289972L95,102.04873085830116L96.5,80.266407767431L98,68.93116432783137L99.5,67.07281647782233L101,71.6611642256805L102.5,78.62960414461307L104,66.71307614053435L105.5,60.870020699967846L107,67.31745180426316L108.5,79.67134310273534L110,83.88465095257004L111.5,67.32000958466736L113,56.61720933705256L114.5,38.729952292846136L116,43.80324886610639L117.5,44.76055486536814L119,40.12121103175213L120.5,45.039826014736526L122,44.948543974910706L123.5,30.782657030291514L125,77.04597681343056L126.5,84.65307544464255L126.5,59.9519539253019L125,51.9303895786447L123.5,5.297465312153253L122,21.62510385060494L120.5,20.659046837685814L119,19.21826431141571L117.5,23.851879552013987L116,23.610057296687955L114.5,21.56235201985972L113,41.391276041770865L111.5,49.52515489615827L110,66.14238128450353L108.5,62.02259871880332L107,48.36764059024412L105.5,43.4223337132746L104,52.02860494314948L102.5,62.248384914676606L101,55.85671062930149L99.5,54.261704007751916L98,57.672086692259604L96.5,68.81620568878816L95,90.30405643434887L93.5,93.4079005870458L92,88.85854986413806L90.5,82.57900702318834L89,91.22396915031517L87.5,84.96203894440039L86,73.25079291788732L84.5,68.34456470543697L83,72.62237137670078L81.5,71.41462241583224L80,72.2805884024618L78.5,75.23788704608275L77,72.7193739264365L75.5,73.26671601442884L74,77.11106947070931L72.5,78.89484135747591L71,75.05134642284042L69.5,75.21722870193045L68,76.74893018605665L66.5,78.88493628062359L65,76.35359341068798L63.5,75.25194866281076L62,70.45605326427147L60.5,67.93033693839027L59,73.47043432214784L57.5,71.19678145767041L56,70.43813400881338L54.5,73.43589218135145L53,73.11874774226105L51.5,70.43480914497177L50,69.57536802166523L48.5,68.98168246608958L47,73.28315146419448L45.5,77.81265574270179L44,74.08339193441029L42.5,70.40666879998994L41,71.73655065771763L39.5,75.75390525188737L38,73.07469321094514L36.5,72.45921400065065L35,75.19164121585818L33.5,74.95505352727947L32,74.84053348168369L30.5,70.40172505892448L29,69.19556737162547L27.5,71.8986192913047L26,69.67062113908852L24.5,64.24284183899381L23,67.05772520382783L21.5,72.79071050959963L20,72.88126611687098L18.5,73.95315757570964L17,76.4059633260109L15.5,77.94613214896303L14,75.21974599137704L12.5,70.69209108837923L11,68.79633259364043L9.5,68.68372496774612L8,69.36688271188794L6.5,71.19365069150896L5,70.99002899900024L3.5,74.7867916409731L2,71.27329018823545L0.5,69.21120346329666Z" fill="#84B672" opacity="0.3"></path></g></g><path class="foreground" aria-hidden="true" d="" display="none"></path></g><g transform="translate(0,0)"><path class="background" aria-hidden="true" d="M0,0h128v130h-128Z"></path><g><g class="mark-area role-mark child_layer_0_layer_1_layer_0_marks" role="graphics-object" aria-roledescription="area mark container"><path aria-label=": -0.00189821910733; upper_lower: 0.017115355402; Time (s): 0.03125; Lags: 2 sec; upper: 0.017115355402; lower: -0.00189821910733" role="graphics-symbol" aria-roledescription="errorband" d="M0.5,88.03760268862894L2,90.18126747058574L3.5,90.85736484134898L5,87.56207013027681L6.5,86.04094937921167L8,86.43458774336874L9.5,84.02806398597549L11,84.56740506328762L12.5,89.72134796975284L14,93.40139822386442L15.5,89.86220151932096L17,91.34917299832807L18.5,90.97285126351565L20,90.81366993981759L21.5,91.76313107942076L23,87.8109390663866L24.5,87.04421893781333L26,85.23191472488506L27.5,84.9176134696362L29,85.2411906523456L30.5,87.27144569920435L32,91.65959539749872L33.5,86.93696961304902L35,85.28703386046394L36.5,84.70061101084713L38,84.52497034792547L39.5,85.03757544024344L41,83.89073293756286L42.5,80.59266569030555L44,81.89828736182642L45.5,84.32114156855367L47,83.5310077082805L48.5,75.10181435617314L50,84.66072182592724L51.5,86.58399843474447L53,87.83642173874529L54.5,87.94528147632515L56,88.29797226637274L57.5,89.70204557313619L59,93.7778551212569L60.5,90.77806104407823L62,91.5683313646079L63.5,94.512850237371L65,98.12222140930702L66.5,95.70045921544312L68,91.11117302421935L69.5,89.06250300747499L71,83.18621371882658L72.5,82.67993520179513L74,80.48801816299637L75.5,76.90383989670472L77,79.65197755282114L78.5,82.30976624151383L80,80.49002289324925L81.5,82.31650386736946L83,81.72314206948597L84.5,77.14813122575076L86,85.14483234364295L87.5,97.21328518077215L89,104.12888002751025L90.5,98.57277591150181L92,96.59945629607255L93.5,103.28793735474062L95,100.82833775063324L96.5,94.00084547136427L98,89.18016592482208L99.5,85.01138281407516L101,80.06181457927416L102.5,85.96860263732282L104,73.29271866354043L105.5,59.4666556697306L107,59.59866159971495L108.5,80.40690731125771L110,85.98491195728727L111.5,58.99328635200067L113,50.753752255147624L114.5,33.23327261306079L116,47.66279203993069L117.5,41.963401059480006L119,40.27482120525415L120.5,52.25757026969152L122,47.5024407520626L123.5,29.444333413807097L125,81.28490595662383L126.5,93.74983549361714L126.5,59.124519916592995L125,49.65690646628182L123.5,1.8710959869782222L122,21.86591245842749L120.5,21.22034748555443L119,6.515013900331709L117.5,14.929231508797471L116,25.09207775849106L114.5,11.957256496166778L113,32.722826403728526L111.5,41.2477274435127L110,65.68980017585163L108.5,59.34966206392052L107,43.313534124484015L105.5,43.32466147762791L104,60.26945858089146L102.5,73.98000031846837L101,68.33227643942145L99.5,75.42661153994226L98,80.57265836774296L96.5,86.04133453692324L95,92.22446782694539L93.5,94.6420073075281L92,88.21772173512733L90.5,88.6922811972264L89,93.81602758824052L87.5,87.10292244303957L86,75.70240833499551L84.5,67.64478627146259L83,71.68369434071211L81.5,72.18541423141203L80,71.3223455951876L78.5,73.27855878018767L77,69.46554405990094L75.5,66.745218952148L74,69.41319725401202L72.5,71.52280769316943L71,72.4582141964255L69.5,77.8485584424651L68,80.9268511857254L66.5,86.69015169049543L65,88.72270017073532L63.5,84.7283222443647L62,81.67157546570158L60.5,80.5066748973827L59,83.1400582111852L57.5,78.75094645858113L56,77.14768075429535L54.5,76.37581575419145L53,74.23312282625626L51.5,74.07929811067181L50,72.58579621970729L48.5,66.20497657082346L47,74.28174410863595L45.5,74.42852334790653L44,71.295485433812L42.5,69.67535393013175L41,73.23709089106961L39.5,75.83629387676822L38,74.96792762531007L36.5,73.64531641169488L35,75.13974075493583L33.5,77.41228985841491L32,82.62941847081605L30.5,79.42765540468918L29,77.15123716304365L27.5,76.80865872912878L26,75.6932914166584L24.5,76.79642750918651L23,77.5048169689386L21.5,81.22427849380674L20,79.56356948751421L18.5,79.8260870342156L17,79.46160814120354L15.5,77.76864742576308L14,80.32358409576008L12.5,76.377566830139L11,73.09026809709862L9.5,73.32835656888285L8,75.17131724343105L6.5,74.54171582874487L5,76.27497321489071L3.5,80.05963940308567L2,77.64877158810442L0.5,74.30557665409574Z" fill="#4A7C84" opacity="0.3"></path></g></g><path class="foreground" aria-hidden="true" d="" display="none"></path></g><g transform="translate(0,0)"><path class="background" aria-hidden="true" d="M0,0h128v130h-128Z"></path><g><g class="mark-area role-mark child_layer_0_layer_1_layer_0_marks" role="graphics-object" aria-roledescription="area mark container"><path aria-label=": 0.00133196022979; upper_lower: 0.0165318602679; Time (s): 0.03125; Lags: 1 sec; upper: 0.0165318602679; lower: 0.00133196022979" role="graphics-symbol" aria-roledescription="errorband" d="M0.5,85.70469538959566L2,87.18885537501433L3.5,89.36904045569524L5,87.78154976663238L6.5,86.56269417404376L8,89.6986552277817L9.5,90.60099142420731L11,86.79770337200218L12.5,86.58925609666932L14,90.02649036295968L15.5,93.0094293030158L17,91.45019431069288L18.5,89.06428772184225L20,90.85612247066086L21.5,92.96915794998425L23,93.74601745879949L24.5,93.43662596563159L26,93.12888017927114L27.5,91.2233600955613L29,88.18142249879277L30.5,88.89228454967311L32,92.37938117949612L33.5,90.03479695418025L35,85.66152855993606L36.5,84.25888224218846L38,83.90348457446224L39.5,84.30180549072251L41,86.26853895594705L42.5,82.8972857290152L44,86.55822735549643L45.5,90.51218305041668L47,87.75357134535668L48.5,84.38829178480161L50,94.3072229782138L51.5,98.39944001034294L53,100.79903061795339L54.5,100.36520998482972L56,96.14997417282069L57.5,94.55216080702178L59,93.91567094201592L60.5,89.05186174602062L62,83.44256727002791L63.5,86.63330452344871L65,89.3699951243811L66.5,86.7797827444272L68,83.29945638548952L69.5,83.52701424684545L71,80.9564091872345L72.5,78.40061069963132L74,80.12478533400676L75.5,79.60233008760156L77,81.62195145278326L78.5,83.93548161323888L80,84.92836882716874L81.5,84.01721295646169L83,80.95403328578752L84.5,78.33419459229489L86,79.88881474755402L87.5,89.34412608046048L89,94.64074840065243L90.5,89.38480765407165L92,87.86047528922731L93.5,96.62126680431906L95,97.04707097672203L96.5,96.95787854645272L98,97.69818274545905L99.5,102.67626027017768L101,97.95558816751068L102.5,95.35999402485074L104,80.40427298761563L105.5,62.14270257032344L107,60.73773753434442L108.5,91.26180819060149L110,83.05665011036152L111.5,71.15418827483069L113,64.98825042036779L114.5,65.22504533250097L116,73.00524379144699L117.5,80.34778604860756L119,80.53798852563561L120.5,101.60580388519507L122,92.3532900400555L123.5,91.97912257850653L125,103.09259862649697L126.5,105.67304889397465L126.5,62.17254114433884L125,65.92386483627517L123.5,62.9926766231311L122,60.00014813853809L120.5,70.58716367386374L119,51.49510381981653L117.5,55.63612193633264L116,54.15530906741743L114.5,49.17136907250681L113,47.696037189972664L111.5,52.94342661030058L110,66.98267562948345L108.5,72.57841352928413L107,47.38879328560694L105.5,47.00265284341126L104,66.26741334425336L102.5,81.55337947885934L101,84.54629274969501L99.5,90.03397789590817L98,86.63666095186935L96.5,86.18224798321612L95,85.44100143163622L93.5,86.54686409676586L92,77.64789640880599L90.5,76.85673436196535L89,81.96459183620505L87.5,77.39264577500477L86,68.87367950820969L84.5,65.79743322476737L83,69.2857339753182L81.5,72.89839423570466L80,74.54824299206325L78.5,73.82469122741036L77,72.65538634227015L75.5,70.31140728954206L74,71.23281128386071L72.5,68.83493360310693L71,72.572821489889L69.5,75.25572476573821L68,74.51058945273562L66.5,79.3107753771906L65,81.60191281247597L63.5,78.504300626756L62,75.0204398391759L60.5,77.64267298545532L59,84.10353221228743L57.5,83.41744822197502L56,83.84223129448554L54.5,87.90249150326503L53,87.64289894021884L51.5,85.47863637788937L50,81.54882022879988L48.5,72.98667004645291L47,75.24817730177506L45.5,77.08856920796674L44,72.09608834999406L42.5,68.69952970282816L41,72.4608324195406L39.5,71.57791385910778L38,71.24179355472212L36.5,70.81827404689389L35,71.92018420973427L33.5,77.23256314817996L32,80.65871668922252L30.5,78.41026612049875L29,77.59433648406544L27.5,81.98238175408972L26,83.0950104247491L24.5,82.55205333609061L23,84.89952164831564L21.5,83.26321112464402L20,82.243886399101L18.5,79.56856336622694L17,82.18868232587133L15.5,83.23623477100995L14,79.34363354825453L12.5,76.1662800954288L11,76.3822309715427L9.5,79.8194964933432L8,78.70207377740454L6.5,75.738733333598L5,77.30932811662646L3.5,77.87606497282015L2,75.07918847785885L0.5,74.72698980653124Z" fill="#2C55A1" opacity="0.3"></path></g></g><path class="foreground" aria-hidden="true" d="" display="none"></path></g></g></g><path class="foreground" aria-hidden="true" d="" display="none"></path></g><g transform="translate(138,0)"><path class="background" aria-hidden="true" d="M0.5,0.5h128v130h-128Z" stroke="#ddd"></path><g><g class="mark-group role-axis" aria-hidden="true"><g transform="translate(0.5,130.5)"><path class="background" aria-hidden="true" d="M0,0h0v0h0Z" pointer-events="none"></path><g><g class="mark-rule role-axis-grid" pointer-events="none"><line transform="translate(0,-130)" x2="0" y2="130" stroke="#ddd" stroke-width="1" opacity="1"></line><line transform="translate(32,-130)" x2="0" y2="130" stroke="#ddd" stroke-width="1" opacity="1"></line><line transform="translate(64,-130)" x2="0" y2="130" stroke="#ddd" stroke-width="1" opacity="1"></line><line transform="translate(96,-130)" x2="0" y2="130" stroke="#ddd" stroke-width="1" opacity="1"></line><line transform="translate(128,-130)" x2="0" y2="130" stroke="#ddd" stroke-width="1" opacity="1"></line></g></g><path class="foreground" aria-hidden="true" d="" pointer-events="none" display="none"></path></g></g><g class="mark-group role-axis" aria-hidden="true"><g transform="translate(0.5,0.5)"><path class="background" aria-hidden="true" d="M0,0h0v0h0Z" pointer-events="none"></path><g><g class="mark-rule role-axis-grid" pointer-events="none"><line transform="translate(0,123)" x2="128" y2="0" stroke="#ddd" stroke-width="1" opacity="1"></line><line transform="translate(0,87)" x2="128" y2="0" stroke="#ddd" stroke-width="1" opacity="1"></line><line transform="translate(0,51)" x2="128" y2="0" stroke="#ddd" stroke-width="1" opacity="1"></line><line transform="translate(0,14)" x2="128" y2="0" stroke="#ddd" stroke-width="1" opacity="1"></line></g></g><path class="foreground" aria-hidden="true" d="" pointer-events="none" display="none"></path></g></g><g class="mark-group role-scope child_layer_0_layer_0_pathgroup" role="graphics-object" aria-roledescription="group mark container"><g transform="translate(0,0)"><path class="background" aria-hidden="true" d="M0,0h128v130h-128Z"></path><g><g class="mark-line role-mark child_layer_0_layer_0_marks" role="graphics-object" aria-roledescription="line mark container"><path aria-label="Time (s): 0.03125; Lags: 3 sec; Decoding Correlation: 0.0118327893044" role="graphics-symbol" aria-roledescription="line mark" d="M0.5,78.12076328016215L2,86.10059173665493L3.5,89.1391328154218L5,94.40559607363285L6.5,89.71155324187829L8,90.29099314511018L9.5,88.97856882740602L11,80.94132369347795L12.5,81.57094752581624L14,82.73165798104151L15.5,75.08048237338481L17,74.68096756834875L18.5,75.21837267928565L20,71.4072260138126L21.5,70.29974427919889L23,67.45853146559728L24.5,64.74432957319604L26,63.602828583809845L27.5,69.42610089899298L29,72.45808777918415L30.5,74.28764118195096L32,77.20877373849429L33.5,69.35272273654104L35,71.31007634547765L36.5,76.54865299592257L38,74.81018428104419L39.5,75.25884919917232L41,74.1789400890291L42.5,73.72658070934406L44,73.40745435187647L45.5,80.00615968677619L47,74.9088793579878L48.5,70.56036710246573L50,69.8199954446801L51.5,63.90765189845775L53,62.06072282076406L54.5,67.26821982172414L56,71.81918491337503L57.5,72.6399419061358L59,70.66377744709739L60.5,66.01333092303715L62,72.5205711859198L63.5,79.8133969928582L65,76.3857146039154L66.5,80.1333388631437L68,80.47931212510709L69.5,77.84321263017645L71,74.55313201532816L72.5,78.56609258883597L74,81.19298900466016L75.5,79.6556212565196L77,75.22296321001814L78.5,76.15498839451556L80,72.4565949116305L81.5,82.65143940774037L83,80.42134181897438L84.5,84.71602384693466L86,86.46190319768584L87.5,78.85426092313246L89,72.72354808367689L90.5,70.83815883206432L92,70.60982684376467L93.5,65.21898354356355L95,72.5025632191453L96.5,81.20617177304901L98,64.33047586993345L99.5,68.94877457105368L101,65.17745629923637L102.5,65.38074171733676L104,58.2544533960814L105.5,71.64064088871977L107,83.59221214002703L108.5,78.54099609410198L110,92.09101362584877L111.5,86.42274773774756L113,88.25059939819833L114.5,76.75427046620304L116,70.05730616406377L117.5,78.66817574339818L119,70.48732249874294L120.5,60.20696212540374L122,94.85273358785221L123.5,62.75724655222325" stroke="#84B672" stroke-width="2" stroke-linejoin="round"></path></g></g><path class="foreground" aria-hidden="true" d="" display="none"></path></g><g transform="translate(0,0)"><path class="background" aria-hidden="true" d="M0,0h128v130h-128Z"></path><g><g class="mark-line role-mark child_layer_0_layer_0_marks" role="graphics-object" aria-roledescription="line mark container"><path aria-label="Time (s): 0.03125; Lags: 2 sec; Decoding Correlation: 0.00466112873623" role="graphics-symbol" aria-roledescription="line mark" d="M0.5,83.30029591272503L2,82.65980610789791L3.5,82.15161634014092L5,90.87449540706811L6.5,88.67346123221428L8,92.22515069964956L9.5,89.69286647899551L11,81.37359063152762L12.5,82.47866239749283L14,86.77707501709412L15.5,80.30807799121607L17,83.07433802142197L18.5,85.40331120617452L20,81.62633550210707L21.5,79.12997681672707L23,80.5650138416981L24.5,77.0518579245722L26,74.38812039066299L27.5,76.14411587528164L29,79.41559825686691L30.5,80.87256078486156L32,76.47554454698218L33.5,71.23161846512342L35,76.09101062971004L36.5,84.02806266727282L38,82.60243148217428L39.5,83.9083137243122L41,85.71794919663974L42.5,79.15869528455457L44,81.45551909913678L45.5,84.43798585587534L47,78.87639887857175L48.5,73.80906360465201L50,74.38720070584182L51.5,70.1239809794359L53,68.379336915549L54.5,72.4190344301949L56,77.8759214352399L57.5,78.84228870466653L59,83.2063943137164L60.5,85.04752944101705L62,88.28536149875217L63.5,90.94885882832156L65,86.20438393376966L66.5,88.25341068579058L68,86.82586380405616L69.5,78.69926936726543L71,73.0629771744978L72.5,76.15053529217712L74,69.58735610033652L75.5,67.66410478078485L77,61.767277035805506L78.5,63.616891920322985L80,58.92578163957304L81.5,69.91701734582887L83,61.43501857180128L84.5,65.00017272579579L86,69.4031436991683L87.5,69.34061972122076L89,68.80414699932783L90.5,64.05661085125472L92,65.98250162582266L93.5,65.28487227420392L95,71.0727061112531L96.5,79.7712839386449L98,72.45785078527747L99.5,79.7356170482761L101,81.4520482284528L102.5,80.28615489965563L104,82.78682020363907L105.5,92.23359645822512L107,96.59231211572761L108.5,90.87236277580278L110,96.18740315892019L111.5,79.69169622917235L113,85.68047638306211L114.5,73.83586369196553L116,71.48512606664667L117.5,56.081561334963894L119,51.353106861674284L120.5,45.81125180975278L122,77.98099052182486L123.5,45.387446047469915" stroke="#4A7C84" stroke-width="2" stroke-linejoin="round"></path></g></g><path class="foreground" aria-hidden="true" d="" display="none"></path></g><g transform="translate(0,0)"><path class="background" aria-hidden="true" d="M0,0h128v130h-128Z"></path><g><g class="mark-line role-mark child_layer_0_layer_0_marks" role="graphics-object" aria-roledescription="line mark container"><path aria-label="Time (s): 0.03125; Lags: 1 sec; Decoding Correlation: -0.000404999665451" role="graphics-symbol" aria-roledescription="line mark" d="M0.5,86.95916642504771L2,93.36280939469908L3.5,90.57368693532113L5,95.41297368793535L6.5,94.23805633448298L8,97.67502417898785L9.5,95.03802744229769L11,87.67241969201952L12.5,87.67542876051614L14,87.9705902581746L15.5,85.16078721087004L17,86.17424613661179L18.5,88.79126867720773L20,86.3193698505251L21.5,88.4342058770697L23,92.7739608392673L24.5,88.14312294196252L26,87.0467074758887L27.5,86.96024041102864L29,85.99840366487267L30.5,81.48784193618582L32,80.60353492321839L33.5,79.85720991690397L35,82.1528845070593L36.5,87.62996084371387L38,86.49305137351932L39.5,85.42264064772391L41,88.04584975262706L42.5,80.47222098259935L44,78.90024428941875L45.5,82.6179475512782L47,87.26153555029356L48.5,82.79351744889146L50,80.9006837634123L51.5,76.01436065260503L53,67.70603966059649L54.5,71.26214086255446L56,77.72699613784783L57.5,76.58434030993806L59,80.53474740765635L60.5,83.81483993837101L62,82.77751765882991L63.5,85.44015608481531L65,86.1137158488031L66.5,89.66040025586724L68,93.72020419621882L69.5,95.65901704596862L71,93.48319163855633L72.5,95.42783748679281L74,93.76246910948089L75.5,92.6293396368536L77,87.89739259019895L78.5,87.24439158958997L80,88.77939058896028L81.5,91.93976621150819L83,81.23190570231537L84.5,78.57137189589767L86,81.49486780354329L87.5,77.58107390776212L89,76.32261545030694L90.5,77.31220063344504L92,79.67553628900028L93.5,81.9491201153855L95,80.58879640756253L96.5,84.50725736652146L98,83.72363057733236L99.5,89.68603369581179L101,90.383200968535L102.5,87.26711032859474L104,88.41957501181997L105.5,93.7622452616827L107,92.19858703631854L108.5,93.72505935517063L110,95.65731369342791L111.5,94.03915356135983L113,94.9221890521566L114.5,88.26656202006997L116,91.5114540616564L117.5,81.1783393599534L119,90.91216906294953L120.5,89.54126377468832L122,104.21812017292095L123.5,75.5161966402238" stroke="#2C55A1" stroke-width="2" stroke-linejoin="round"></path></g></g><path class="foreground" aria-hidden="true" d="" display="none"></path></g></g><g class="mark-group role-scope child_layer_0_layer_1_layer_0_pathgroup" role="graphics-object" aria-roledescription="group mark container"><g transform="translate(0,0)"><path class="background" aria-hidden="true" d="M0,0h128v130h-128Z"></path><g><g class="mark-area role-mark child_layer_0_layer_1_layer_0_marks" role="graphics-object" aria-roledescription="area mark container"><path aria-label=": -0.00356390390626; upper_lower: 0.0270035359159; Time (s): 0.03125; Lags: 3 sec; upper: 0.0270035359159; lower: -0.00356390390626" role="graphics-symbol" aria-roledescription="errorband" d="M0.5,89.24059726563475L2,95.71192169725839L3.5,98.60736428809787L5,102.31403210082439L6.5,97.02144050535041L8,98.01303807617245L9.5,96.45631628333689L11,88.0758815259106L12.5,88.17005336313491L14,92.43408950217228L15.5,84.79097838892945L17,82.83206604723975L18.5,82.76411598474536L20,79.12825046317201L21.5,78.44648381830257L23,74.761721621682L24.5,72.13593013141704L26,71.7105829372297L27.5,77.03312588981377L29,81.0874100055881L30.5,82.28834441136745L32,84.66078464808353L33.5,78.70783526409033L35,79.95181155321384L36.5,87.1385598466253L38,83.50175970767464L39.5,83.31170675019672L41,81.65701229653438L42.5,80.75339807870927L44,81.45639887930069L45.5,88.56111780137597L47,83.43704350962265L48.5,77.23826388365983L50,76.39532690631698L51.5,70.9108352377572L53,70.31908500940357L54.5,74.2005482457563L56,78.9106860487315L57.5,79.896934501475L59,78.41730269734634L60.5,73.78647440001788L62,80.4416333625692L63.5,86.92890021809023L65,83.7640226658618L66.5,87.4831214027647L68,89.20430423040028L69.5,86.37172556265195L71,83.1012885971028L72.5,88.0573261677872L74,91.86495905198517L75.5,89.85266101943097L77,84.94965818058338L78.5,84.22128396265423L80,80.13278308703907L81.5,90.04213206954101L83,88.99202695284393L84.5,94.54970904256137L86,98.14986997651023L87.5,90.53680492625874L89,84.08729402126895L90.5,82.44960214257414L92,82.16364127538696L93.5,75.80992167871138L95,82.1411310533445L96.5,90.19415232401049L98,73.4667587886666L99.5,77.13851152945344L101,74.51482892734435L102.5,75.3047036305086L104,68.73881763377035L105.5,83.69489210585334L107,95.7782838808517L108.5,89.99401184712139L110,103.41570330012833L111.5,98.22074641228922L113,98.69722198586348L114.5,84.94628075230149L116,79.09100243848032L117.5,88.62575452527817L119,81.39044980658734L120.5,71.60970583574853L122,107.08302122170441L123.5,72.3639130295182L123.5,53.085482062614346L122,82.14872933612077L120.5,48.655594138523675L119,59.492992083413874L117.5,68.67286549679913L116,60.94051098088965L114.5,68.34500845464316L113,77.90686641321851L111.5,74.62393762965957L110,81.04865688486417L108.5,66.81032433518153L107,71.67357830220855L105.5,59.79517264485497L104,47.73799522789426L102.5,55.64673034759269L101,55.988799824660134L99.5,60.53991403163423L98,54.9203986285329L96.5,72.10970150297614L95,62.622243234148826L93.5,54.159755369116155L92,58.87244206433694L90.5,58.88669112220619L89,61.253076076551466L87.5,66.54341793586335L86,75.2366770590984L84.5,74.71040177817223L83,71.63264101641784L81.5,75.19644028571429L80,65.0245884211359L78.5,68.02787431841467L77,65.3002598948619L75.5,69.54444974136678L74,70.84254447392321L72.5,69.5689915517728L71,66.12398268945061L69.5,69.31225590003862L68,71.72828762797998L66.5,72.80218622297716L65,69.17562918314553L63.5,72.69165898337064L62,64.81821954599829L60.5,58.44855927669261L59,62.78021074210044L57.5,65.37342285635611L56,64.86896090813035L54.5,60.623007732183325L53,54.07458547556031L51.5,57.04135413147286L50,63.40185397413404L48.5,64.1822702050724L47,66.73078163843323L45.5,71.75508837546026L44,65.4051028320015L42.5,66.55974010627136L41,66.65627570606843L39.5,67.09475220068867L38,66.18025834407337L36.5,66.12877353241836L35,63.120280416795424L33.5,60.055508953435265L32,69.67599849568855L30.5,66.65294603503887L29,63.78424427244292L27.5,62.05595470999515L26,55.491181261687736L24.5,57.17493172441724L23,60.15504608892218L21.5,62.10457427112985L20,63.55949215000611L18.5,67.40676053088545L17,66.66233239359468L15.5,65.29221112782497L14,73.03342372891315L12.5,74.7267598137515L11,73.68169476777734L9.5,81.0030252961888L8,82.14144501285286L6.5,82.13468780331165L5,86.41284789113075L3.5,80.04372883496734L2,76.87611962117779L0.5,67.16411294962255Z" fill="#84B672" opacity="0.3"></path></g></g><path class="foreground" aria-hidden="true" d="" display="none"></path></g><g transform="translate(0,0)"><path class="background" aria-hidden="true" d="M0,0h128v130h-128Z"></path><g><g class="mark-area role-mark child_layer_0_layer_1_layer_0_marks" role="graphics-object" aria-roledescription="area mark container"><path aria-label=": -0.00967463455803; upper_lower: 0.0186634073099; Time (s): 0.03125; Lags: 2 sec; upper: 0.0186634073099; lower: -0.00967463455803" role="graphics-symbol" aria-roledescription="errorband" d="M0.5,93.65390273635359L2,92.74535538149449L3.5,92.98301520399234L5,100.9205152584502L6.5,97.23195077855254L8,99.31689009782104L9.5,95.08376057224432L11,86.28852006484507L12.5,88.99246497201095L14,93.78834915696096L15.5,87.53316238359304L17,90.8947239517287L18.5,92.14567094977157L20,88.14606486939135L21.5,86.58451947807006L23,88.0926054565462L24.5,84.93621465820796L26,81.68589159436605L27.5,83.67919224836666L29,87.11315656556654L30.5,88.35684584742772L32,85.55779355172872L33.5,80.81712734171131L35,85.28566017272716L36.5,94.64385955474137L38,94.04151539759269L39.5,93.78350364386893L41,93.63052351371265L42.5,88.49026626056926L44,89.75194233145534L45.5,92.12288887374727L47,85.77769225237769L48.5,79.94066552983881L50,80.50745199097474L51.5,77.47825938501384L53,76.34128140558101L54.5,79.6305384780077L56,86.26356564899189L57.5,87.92012802733697L59,91.15012591757957L60.5,92.03000794338283L62,96.60432101586777L63.5,99.2177140968173L65,93.1993074873746L66.5,94.30853643950567L68,93.53995230516072L69.5,84.68005491691838L71,79.6929961089599L72.5,84.3728073324566L74,79.04048750335645L75.5,75.37235234120955L77,69.2783872577992L78.5,71.02395444367183L80,67.46880239073792L81.5,76.83740215883874L83,68.41229939578687L84.5,72.9595092479612L86,77.07513697163476L87.5,76.70576702994889L89,76.82126200672901L90.5,70.24853024460712L92,73.6007817740708L93.5,73.86175375306911L95,81.6342461630377L96.5,90.61820569297824L98,83.5585870741369L99.5,88.70258385733152L101,89.80960257677069L102.5,88.7554230590995L104,92.31764499883967L105.5,104.20227550327556L107,107.61426253602903L108.5,102.57694115121231L110,107.94340811400872L111.5,92.05358849500423L113,98.06430269770163L114.5,86.07210770689461L116,81.66022319235873L117.5,66.21202092580062L119,61.71323179682418L120.5,58.84860661095224L122,89.96337840723136L123.5,59.92920134069664L123.5,30.136639602598066L122,65.95784712190326L120.5,32.85969891649735L119,41.27598500319201L117.5,46.247346251961226L116,61.445503922813664L114.5,61.93414504414005L113,73.06144933361855L111.5,67.50855779769516L110,84.2467915335012L108.5,79.14319877064509L107,85.29013515705151L105.5,80.0138791582218L104,73.07222668182928L102.5,72.08656390328007L101,73.27432331238292L99.5,70.43705770092983L98,60.87270475273896L96.5,68.88714607031757L95,60.34508952615074L93.5,56.65273597314463L92,58.27444738521904L90.5,58.06454721879429L89,60.639461403544104L87.5,62.04261350251765L86,61.71027245421936L84.5,57.113599943931604L83,54.42905072318836L81.5,63.14625455641053L80,50.50532586765148L78.5,56.43107957511353L77,54.34687863198493L75.5,59.852265474551466L74,60.64595909460013L72.5,67.9881987293763L71,66.65959674951387L69.5,72.8657262926633L68,79.99201189853073L66.5,81.99643575334485L65,79.22233933517599L63.5,83.03557714701024L62,80.02692139850944L60.5,77.75614681905593L59,75.11425380619723L57.5,69.66188536094381L56,69.5953948786327L54.5,65.1780549119125L53,60.626896608680944L51.5,63.04670236317615L50,68.4917502540013L48.5,67.98302712179182L47,72.1929330934654L45.5,76.83646291844134L44,73.67832278694364L42.5,70.5511750248682L41,78.15232532601317L39.5,74.47067118852812L38,72.30149962154202L36.5,73.93638573875184L35,67.20672632565147L33.5,61.758511362998874L32,67.64714368007765L30.5,73.49723787215031L29,71.66336579130764L27.5,68.42652212288858L26,66.90889776387483L24.5,68.80109047214631L23,73.16291082538545L21.5,71.52857565135722L20,74.86533485128932L18.5,78.49600899152837L17,75.38852962098218L15.5,73.24743398925341L14,79.4942140233005L12.5,76.13257516925499L11,76.49824786949307L9.5,84.39792286559536L8,85.16325802253529L6.5,80.09594514982444L5,80.64098112384329L3.5,71.11519001197313L2,72.61038388806438L0.5,73.18753916503657Z" fill="#4A7C84" opacity="0.3"></path></g></g><path class="foreground" aria-hidden="true" d="" display="none"></path></g><g transform="translate(0,0)"><path class="background" aria-hidden="true" d="M0,0h128v130h-128Z"></path><g><g class="mark-area role-mark child_layer_0_layer_1_layer_0_marks" role="graphics-object" aria-roledescription="area mark container"><path aria-label=": -0.0139052695306; upper_lower: 0.0132336384166; Time (s): 0.03125; Lags: 1 sec; upper: 0.0132336384166; lower: -0.0139052695306" role="graphics-symbol" aria-roledescription="errorband" d="M0.5,96.70936132768816L2,103.37915614006954L3.5,100.51335741805987L5,103.78115958867893L6.5,101.35208592197432L8,104.61558812743527L9.5,103.23952918433915L11,95.68636335053088L12.5,96.36401120531954L14,95.33346746926816L15.5,93.1288287261079L17,94.03065049934014L18.5,96.052039865951L20,94.36605373511135L21.5,96.95956012042632L23,101.18610793898284L24.5,96.11690382974824L26,94.87888667872394L27.5,94.67918497505701L29,94.18578370245459L30.5,89.55615071277268L32,90.00028658471398L33.5,89.686511652429L35,93.75066276307382L36.5,101.44965516037459L38,99.92786971097112L39.5,99.508779552739L41,101.57160233058099L42.5,92.37991134385818L44,90.13533402329672L45.5,91.24543648755856L47,95.34473722231307L48.5,88.80273556936139L50,86.58715279636539L51.5,82.5732495242742L53,75.88521876359138L54.5,79.0756100543096L56,84.58744711571339L57.5,83.54938250597368L59,87.57779060138894L60.5,91.00883744704221L62,89.1858874642491L63.5,92.63836778329662L65,92.54443968014156L66.5,96.20553056846029L68,100.33858895435765L69.5,101.56210346161981L71,99.60998668116606L72.5,101.21636274854775L74,100.11555034420275L75.5,98.83663295641377L77,94.44472227116954L78.5,95.19153316613448L80,96.53412769793896L81.5,100.76737751909688L83,91.196380328292L84.5,89.63631807015571L86,92.56421751370948L87.5,87.32180301427043L89,84.80109735029126L90.5,84.40754698582353L92,87.21918046964075L93.5,90.22517296390633L95,87.89152277594997L96.5,92.05922696930133L98,91.81715343075177L99.5,98.00623199915131L101,98.9761387365434L102.5,95.46694587357041L104,97.20641686475614L105.5,103.02307328492415L107,100.85313080309797L108.5,102.96108287564492L110,104.47014842382441L111.5,102.39473466048534L113,103.8499849145508L114.5,95.7257476523929L116,100.34569952130579L117.5,92.67212784579566L119,103.80231169259237L120.5,100.74988357491573L122,116.38807916507373L123.5,88.01679832935925L123.5,62.520378777017676L122,91.93000285329363L120.5,78.31836314735992L119,77.98915299026335L117.5,69.47757627769249L116,82.53426306778475L114.5,80.89492689812329L113,86.08251376347643L111.5,85.7591604060224L110,86.72124897771702L108.5,84.05419939722455L107,83.36701806590462L105.5,84.44132498127479L104,79.75412573283226L102.5,78.88171668089083L101,81.81370819380427L99.5,81.02428332504134L98,75.52963462554011L96.5,76.9989634590442L95,73.36141109610274L93.5,73.62489775311047L92,72.21560241756497L90.5,70.24511377484144L89,67.6955109161067L87.5,68.03782286998033L86,70.31753378541944L84.5,67.01302891033907L83,70.88751752754312L81.5,82.65061899365918L80,80.66689479418801L78.5,79.4267939884629L77,81.0006494337592L75.5,86.28969694526651L74,87.39968458488602L72.5,89.5905660011353L71,87.18863549583517L69.5,89.75546106794398L68,87.1189744877463L66.5,83.21167074447663L65,79.48606289258781L63.5,78.29028299779122L62,76.25139689052064L60.5,76.65179857997241L59,73.3362033345212L57.5,69.75905003329689L56,71.04566594523175L54.5,63.40372308249111L53,59.79220974790401L51.5,69.335306764055L50,75.24082422491203L48.5,76.8507829287311L47,79.18040910424406L45.5,74.15166010208564L44,67.98865129991563L42.5,69.0776813575602L41,75.45601484674334L39.5,71.8949468299519L38,73.76071221637176L36.5,74.34097257003954L35,71.18251935219351L33.5,70.07537791456434L32,71.47349849343216L30.5,73.3309687989929L29,77.74675820970654L27.5,79.43197815171644L26,79.089220282037L24.5,80.58281810446505L23,84.64717421528593L21.5,80.17949885603544L20,78.05229444274077L18.5,81.52932349978414L17,78.61563290790194L15.5,77.15995233378537L14,80.70352746613551L12.5,79.39060299615566L11,79.82681245545449L9.5,87.05996805306255L8,90.62983406144023L6.5,87.0080611086405L5,87.00081303620087L3.5,80.38679967032249L2,83.5457660624182L0.5,77.10903892137007Z" fill="#2C55A1" opacity="0.3"></path></g></g><path class="foreground" aria-hidden="true" d="" display="none"></path></g></g></g><path class="foreground" aria-hidden="true" d="" display="none"></path></g></g><g class="mark-group role-legend" role="graphics-symbol" aria-roledescription="legend" aria-label="Symbol legend titled 'Lags' for fill color and stroke color with 3 values: 1 sec, 2 sec, 3 sec"><g transform="translate(285,0)"><path class="background" aria-hidden="true" d="M0,0h42v61h-42Z" pointer-events="none"></path><g><g class="mark-group role-legend-entry"><g transform="translate(0,16)"><path class="background" aria-hidden="true" d="M0,0h0v0h0Z" pointer-events="none"></path><g><g class="mark-group role-scope" role="graphics-object" aria-roledescription="group mark container"><g transform="translate(0,0)"><path class="background" aria-hidden="true" d="M0,0h42v12.5h-42Z" pointer-events="none" opacity="1"></path><g><g class="mark-symbol role-legend-symbol" pointer-events="none"><path transform="translate(6,6)" d="M5,0A5,5,0,1,1,-5,0A5,5,0,1,1,5,0" fill="#2C55A1" stroke="#2C55A1" stroke-width="1.5" opacity="0.3"></path></g><g class="mark-text role-legend-label" pointer-events="none"><text text-anchor="start" transform="translate(16,9)" font-family="sans-serif" font-size="10px" fill="#000" opacity="1">1 sec</text></g></g><path class="foreground" aria-hidden="true" d="" pointer-events="none" display="none"></path></g><g transform="translate(0,16)"><path class="background" aria-hidden="true" d="M0,0h42v12.5h-42Z" pointer-events="none" opacity="1"></path><g><g class="mark-symbol role-legend-symbol" pointer-events="none"><path transform="translate(6,6)" d="M5,0A5,5,0,1,1,-5,0A5,5,0,1,1,5,0" fill="#4A7C84" stroke="#4A7C84" stroke-width="1.5" opacity="0.3"></path></g><g class="mark-text role-legend-label" pointer-events="none"><text text-anchor="start" transform="translate(16,9)" font-family="sans-serif" font-size="10px" fill="#000" opacity="1">2 sec</text></g></g><path class="foreground" aria-hidden="true" d="" pointer-events="none" display="none"></path></g><g transform="translate(0,32)"><path class="background" aria-hidden="true" d="M0,0h42v12.5h-42Z" pointer-events="none" opacity="1"></path><g><g class="mark-symbol role-legend-symbol" pointer-events="none"><path transform="translate(6,6)" d="M5,0A5,5,0,1,1,-5,0A5,5,0,1,1,5,0" fill="#84B672" stroke="#84B672" stroke-width="1.5" opacity="0.3"></path></g><g class="mark-text role-legend-label" pointer-events="none"><text text-anchor="start" transform="translate(16,9)" font-family="sans-serif" font-size="10px" fill="#000" opacity="1">3 sec</text></g></g><path class="foreground" aria-hidden="true" d="" pointer-events="none" display="none"></path></g></g></g><path class="foreground" aria-hidden="true" d="" pointer-events="none" display="none"></path></g></g><g class="mark-text role-legend-title" pointer-events="none"><text text-anchor="start" transform="translate(0,9)" font-family="sans-serif" font-size="11px" font-weight="bold" fill="#000" opacity="1">Lags</text></g></g><path class="foreground" aria-hidden="true" d="" pointer-events="none" display="none"></path></g></g></g><path class="foreground" aria-hidden="true" d="" display="none"></path></g></g></g></svg>
