<?xml version="1.0" encoding="utf-8"?>
<!DOCTYPE svg PUBLIC "-//W3C//DTD SVG 1.1//EN" "http://www.w3.org/Graphics/SVG/1.1/DTD/svg11.dtd">
<svg class="marks" width="470" height="362" viewBox="0 0 470 362" version="1.1" xmlns="http://www.w3.org/2000/svg" xmlns:xlink="http://www.w3.org/1999/xlink"><defs><clipPath id="clip1"><rect x="0" y="0" width="128" height="130"></rect></clipPath><clipPath id="clip2"><rect x="0" y="0" width="128" height="130"></rect></clipPath><clipPath id="clip3"><rect x="0" y="0" width="128" height="130"></rect></clipPath><clipPath id="clip4"><rect x="0" y="0" width="128" height="130"></rect></clipPath></defs><rect width="470" height="362" fill="white"></rect><g fill="none" stroke-miterlimit="10" transform="translate(98,57)"><g class="mark-group role-frame root" role="graphics-object" aria-roledescription="group mark container"><g transform="translate(0,0)"><path class="background" aria-hidden="true" d="M0,0h0v0h0Z"></path><g><g class="mark-group role-row-title row-title" role="graphics-object" aria-roledescription="group mark container"><g transform="translate(-71,134)"><path class="background" aria-hidden="true" d="M0,0h0v0h0Z"></path><g><g class="mark-group role-title"><g transform="translate(-21.000000000000007,0)"><path class="background" aria-hidden="true" d="M0,0h0v0h0Z" pointer-events="none"></path><g><g class="mark-text role-title-text" role="graphics-symbol" aria-roledescription="title" aria-label="Title text 'spatial_source'" pointer-events="none"><text text-anchor="middle" transform="translate(0,0) rotate(-90) translate(0,9)" font-family="sans-serif" font-size="11px" font-weight="bold" fill="#000" opacity="1">spatial_source</text></g></g><path class="foreground" aria-hidden="true" d="" pointer-events="none" display="none"></path></g></g></g><path class="foreground" aria-hidden="true" d="" display="none"></path></g></g><g class="mark-group role-column-title column-title" role="graphics-object" aria-roledescription="group mark container"><g transform="translate(134,-31)"><path class="background" aria-hidden="true" d="M0,0h0v0h0Z"></path><g><g class="mark-group role-title"><g transform="translate(0,-21)"><path class="background" aria-hidden="true" d="M0,0h0v0h0Z" pointer-events="none"></path><g><g class="mark-text role-title-text" role="graphics-symbol" aria-roledescription="title" aria-label="Title text 'switch_timing'" pointer-events="none"><text text-anchor="middle" transform="translate(0,9)" font-family="sans-serif" font-size="11px" font-weight="bold" fill="#000" opacity="1">switch_timing</text></g></g><path class="foreground" aria-hidden="true" d="" pointer-events="none" display="none"></path></g></g></g><path class="foreground" aria-hidden="true" d="" display="none"></path></g></g><g class="mark-group role-row-header row_header" role="graphics-object" aria-roledescription="group mark container"><g transform="translate(-3,0)"><path class="background" aria-hidden="true" d="M0,0h0v130h0Z"></path><g><g class="mark-group role-axis" role="graphics-symbol" aria-roledescription="axis" aria-label="Y-axis titled 'P(Correct), P(target)' for a linear scale with values from 0.0 to 1.0"><g transform="translate(0.5,0.5)"><path class="background" aria-hidden="true" d="M0,0h0v0h0Z" pointer-events="none"></path><g><g class="mark-rule role-axis-tick" pointer-events="none"><line transform="translate(0,130)" x2="-5" y2="0" stroke="#888" stroke-width="1" opacity="1"></line><line transform="translate(0,104)" x2="-5" y2="0" stroke="#888" stroke-width="1" opacity="1"></line><line transform="translate(0,78)" x2="-5" y2="0" stroke="#888" stroke-width="1" opacity="1"></line><line transform="translate(0,52)" x2="-5" y2="0" stroke="#888" stroke-width="1" opacity="1"></line><line transform="translate(0,26)" x2="-5" y2="0" stroke="#888" stroke-width="1" opacity="1"></line><line transform="translate(0,0)" x2="-5" y2="0" stroke="#888" stroke-width="1" opacity="1"></line></g><g class="mark-text role-axis-label" pointer-events="none"><text text-anchor="end" transform="translate(-7,133)" font-family="sans-serif" font-size="10px" fill="#000" opacity="1">0.0</text><text text-anchor="end" transform="translate(-7,107)" font-family="sans-serif" font-size="10px" fill="#000" opacity="1">0.2</text><text text-anchor="end" transform="translate(-7,81)" font-family="sans-serif" font-size="10px" fill="#000" opacity="1">0.4</text><text text-anchor="end" transform="translate(-7,55)" font-family="sans-serif" font-size="10px" fill="#000" opacity="1">0.6</text><text text-anchor="end" transform="translate(-7,28.999999999999993)" font-family="sans-serif" font-size="10px" fill="#000" opacity="1">0.8</text><text text-anchor="end" transform="translate(-7,3)" font-family="sans-serif" font-size="10px" fill="#000" opacity="1">1.0</text></g><g class="mark-rule role-axis-domain" pointer-events="none"><line transform="translate(0,130)" x2="0" y2="-130" stroke="#888" stroke-width="1" opacity="1"></line></g><g class="mark-text role-axis-title" pointer-events="none"><text text-anchor="middle" transform="translate(-26,65) rotate(-90) translate(0,-2)" font-family="sans-serif" font-size="11px" font-weight="bold" fill="#000" opacity="1">P(Correct), P(target)</text></g></g><path class="foreground" aria-hidden="true" d="" pointer-events="none" display="none"></path></g></g><g class="mark-group role-title"><g transform="translate(-57.00000000000001,65)"><path class="background" aria-hidden="true" d="M0,0h0v0h0Z" pointer-events="none"></path><g><g class="mark-text role-title-text" role="graphics-symbol" aria-roledescription="title" aria-label="Title text 'false'" pointer-events="none"><text text-anchor="middle" transform="translate(0,0) rotate(-90) translate(0,8)" font-family="sans-serif" font-size="10px" fill="#000" opacity="1">false</text></g></g><path class="foreground" aria-hidden="true" d="" pointer-events="none" display="none"></path></g></g></g><path class="foreground" aria-hidden="true" d="" display="none"></path></g><g transform="translate(-3,137)"><path class="background" aria-hidden="true" d="M0,0h0v130h0Z"></path><g><g class="mark-group role-axis" role="graphics-symbol" aria-roledescription="axis" aria-label="Y-axis titled 'P(Correct), P(target)' for a linear scale with values from 0.0 to 1.0"><g transform="translate(0.5,0.5)"><path class="background" aria-hidden="true" d="M0,0h0v0h0Z" pointer-events="none"></path><g><g class="mark-rule role-axis-tick" pointer-events="none"><line transform="translate(0,130)" x2="-5" y2="0" stroke="#888" stroke-width="1" opacity="1"></line><line transform="translate(0,104)" x2="-5" y2="0" stroke="#888" stroke-width="1" opacity="1"></line><line transform="translate(0,78)" x2="-5" y2="0" stroke="#888" stroke-width="1" opacity="1"></line><line transform="translate(0,52)" x2="-5" y2="0" stroke="#888" stroke-width="1" opacity="1"></line><line transform="translate(0,26)" x2="-5" y2="0" stroke="#888" stroke-width="1" opacity="1"></line><line transform="translate(0,0)" x2="-5" y2="0" stroke="#888" stroke-width="1" opacity="1"></line></g><g class="mark-text role-axis-label" pointer-events="none"><text text-anchor="end" transform="translate(-7,133)" font-family="sans-serif" font-size="10px" fill="#000" opacity="1">0.0</text><text text-anchor="end" transform="translate(-7,107)" font-family="sans-serif" font-size="10px" fill="#000" opacity="1">0.2</text><text text-anchor="end" transform="translate(-7,81)" font-family="sans-serif" font-size="10px" fill="#000" opacity="1">0.4</text><text text-anchor="end" transform="translate(-7,55)" font-family="sans-serif" font-size="10px" fill="#000" opacity="1">0.6</text><text text-anchor="end" transform="translate(-7,28.999999999999993)" font-family="sans-serif" font-size="10px" fill="#000" opacity="1">0.8</text><text text-anchor="end" transform="translate(-7,3)" font-family="sans-serif" font-size="10px" fill="#000" opacity="1">1.0</text></g><g class="mark-rule role-axis-domain" pointer-events="none"><line transform="translate(0,130)" x2="0" y2="-130" stroke="#888" stroke-width="1" opacity="1"></line></g><g class="mark-text role-axis-title" pointer-events="none"><text text-anchor="middle" transform="translate(-26,65) rotate(-90) translate(0,-2)" font-family="sans-serif" font-size="11px" font-weight="bold" fill="#000" opacity="1">P(Correct), P(target)</text></g></g><path class="foreground" aria-hidden="true" d="" pointer-events="none" display="none"></path></g></g><g class="mark-group role-title"><g transform="translate(-57.00000000000001,65)"><path class="background" aria-hidden="true" d="M0,0h0v0h0Z" pointer-events="none"></path><g><g class="mark-text role-title-text" role="graphics-symbol" aria-roledescription="title" aria-label="Title text 'true'" pointer-events="none"><text text-anchor="middle" transform="translate(0,0) rotate(-90) translate(0,8)" font-family="sans-serif" font-size="10px" fill="#000" opacity="1">true</text></g></g><path class="foreground" aria-hidden="true" d="" pointer-events="none" display="none"></path></g></g></g><path class="foreground" aria-hidden="true" d="" display="none"></path></g></g><g class="mark-group role-column-header column_header" role="graphics-object" aria-roledescription="group mark container"><g transform="translate(0,-1)"><path class="background" aria-hidden="true" d="M0,0h128v0h-128Z"></path><g><g class="mark-group role-title"><g transform="translate(64,-20)"><path class="background" aria-hidden="true" d="M0,0h0v0h0Z" pointer-events="none"></path><g><g class="mark-text role-title-text" role="graphics-symbol" aria-roledescription="title" aria-label="Title text 'Q1: [0.257438, 3.38499)'" pointer-events="none"><text text-anchor="middle" transform="translate(0,8)" font-family="sans-serif" font-size="10px" fill="#000" opacity="1">Q1: [0.257438, 3.38499)</text></g></g><path class="foreground" aria-hidden="true" d="" pointer-events="none" display="none"></path></g></g></g><path class="foreground" aria-hidden="true" d="" display="none"></path></g><g transform="translate(139,-1)"><path class="background" aria-hidden="true" d="M0,0h128v0h-128Z"></path><g><g class="mark-group role-title"><g transform="translate(64,-20)"><path class="background" aria-hidden="true" d="M0,0h0v0h0Z" pointer-events="none"></path><g><g class="mark-text role-title-text" role="graphics-symbol" aria-roledescription="title" aria-label="Title text 'Q2: [3.38499, 7.70884]'" pointer-events="none"><text text-anchor="middle" transform="translate(0,8)" font-family="sans-serif" font-size="10px" fill="#000" opacity="1">Q2: [3.38499, 7.70884]</text></g></g><path class="foreground" aria-hidden="true" d="" pointer-events="none" display="none"></path></g></g></g><path class="foreground" aria-hidden="true" d="" display="none"></path></g></g><g class="mark-group role-column-footer column_footer" role="graphics-object" aria-roledescription="group mark container"><g transform="translate(0,268)"><path class="background" aria-hidden="true" d="M0,0h128v0h-128Z"></path><g><g class="mark-group role-axis" role="graphics-symbol" aria-roledescription="axis" aria-label="X-axis titled 'Time from Switch offset (s)' for a linear scale with values from -2 to 4"><g transform="translate(0.5,0.5)"><path class="background" aria-hidden="true" d="M0,0h0v0h0Z" pointer-events="none"></path><g><g class="mark-rule role-axis-tick" pointer-events="none"><line transform="translate(0,0)" x2="0" y2="5" stroke="#888" stroke-width="1" opacity="1"></line><line transform="translate(43,0)" x2="0" y2="5" stroke="#888" stroke-width="1" opacity="1"></line><line transform="translate(85,0)" x2="0" y2="5" stroke="#888" stroke-width="1" opacity="1"></line><line transform="translate(128,0)" x2="0" y2="5" stroke="#888" stroke-width="1" opacity="1"></line></g><g class="mark-text role-axis-label" pointer-events="none"><text text-anchor="start" transform="translate(0,15)" font-family="sans-serif" font-size="10px" fill="#000" opacity="1">-2</text><text text-anchor="middle" transform="translate(42.666666666666664,15)" font-family="sans-serif" font-size="10px" fill="#000" opacity="1">0</text><text text-anchor="middle" transform="translate(85.33333333333333,15)" font-family="sans-serif" font-size="10px" fill="#000" opacity="1">2</text><text text-anchor="end" transform="translate(128,15)" font-family="sans-serif" font-size="10px" fill="#000" opacity="1">4</text></g><g class="mark-rule role-axis-domain" pointer-events="none"><line transform="translate(0,0)" x2="128" y2="0" stroke="#888" stroke-width="1" opacity="1"></line></g><g class="mark-text role-axis-title" pointer-events="none"><text text-anchor="middle" transform="translate(64,30)" font-family="sans-serif" font-size="11px" font-weight="bold" fill="#000" opacity="1">Time from Switch offset (s)</text></g></g><path class="foreground" aria-hidden="true" d="" pointer-events="none" display="none"></path></g></g></g><path class="foreground" aria-hidden="true" d="" display="none"></path></g><g transform="translate(139,268)"><path class="background" aria-hidden="true" d="M0,0h128v0h-128Z"></path><g><g class="mark-group role-axis" role="graphics-symbol" aria-roledescription="axis" aria-label="X-axis titled 'Time from Switch offset (s)' for a linear scale with values from -2 to 4"><g transform="translate(0.5,0.5)"><path class="background" aria-hidden="true" d="M0,0h0v0h0Z" pointer-events="none"></path><g><g class="mark-rule role-axis-tick" pointer-events="none"><line transform="translate(0,0)" x2="0" y2="5" stroke="#888" stroke-width="1" opacity="1"></line><line transform="translate(43,0)" x2="0" y2="5" stroke="#888" stroke-width="1" opacity="1"></line><line transform="translate(85,0)" x2="0" y2="5" stroke="#888" stroke-width="1" opacity="1"></line><line transform="translate(128,0)" x2="0" y2="5" stroke="#888" stroke-width="1" opacity="1"></line></g><g class="mark-text role-axis-label" pointer-events="none"><text text-anchor="start" transform="translate(0,15)" font-family="sans-serif" font-size="10px" fill="#000" opacity="1">-2</text><text text-anchor="middle" transform="translate(42.666666666666664,15)" font-family="sans-serif" font-size="10px" fill="#000" opacity="1">0</text><text text-anchor="middle" transform="translate(85.33333333333333,15)" font-family="sans-serif" font-size="10px" fill="#000" opacity="1">2</text><text text-anchor="end" transform="translate(128,15)" font-family="sans-serif" font-size="10px" fill="#000" opacity="1">4</text></g><g class="mark-rule role-axis-domain" pointer-events="none"><line transform="translate(0,0)" x2="128" y2="0" stroke="#888" stroke-width="1" opacity="1"></line></g><g class="mark-text role-axis-title" pointer-events="none"><text text-anchor="middle" transform="translate(64,30)" font-family="sans-serif" font-size="11px" font-weight="bold" fill="#000" opacity="1">Time from Switch offset (s)</text></g></g><path class="foreground" aria-hidden="true" d="" pointer-events="none" display="none"></path></g></g></g><path class="foreground" aria-hidden="true" d="" display="none"></path></g></g><g class="mark-group role-scope cell" role="graphics-object" aria-roledescription="group mark container"><g transform="translate(0,0)"><path class="background" aria-hidden="true" d="M0.5,0.5h128v130h-128Z" stroke="#ddd"></path><g><g class="mark-group role-axis" aria-hidden="true"><g transform="translate(0.5,130.5)"><path class="background" aria-hidden="true" d="M0,0h0v0h0Z" pointer-events="none"></path><g><g class="mark-rule role-axis-grid" pointer-events="none"><line transform="translate(0,-130)" x2="0" y2="130" stroke="#ddd" stroke-width="1" opacity="1"></line><line transform="translate(43,-130)" x2="0" y2="130" stroke="#ddd" stroke-width="1" opacity="1"></line><line transform="translate(85,-130)" x2="0" y2="130" stroke="#ddd" stroke-width="1" opacity="1"></line><line transform="translate(128,-130)" x2="0" y2="130" stroke="#ddd" stroke-width="1" opacity="1"></line></g></g><path class="foreground" aria-hidden="true" d="" pointer-events="none" display="none"></path></g></g><g class="mark-group role-axis" aria-hidden="true"><g transform="translate(0.5,0.5)"><path class="background" aria-hidden="true" d="M0,0h0v0h0Z" pointer-events="none"></path><g><g class="mark-rule role-axis-grid" pointer-events="none"><line transform="translate(0,130)" x2="128" y2="0" stroke="#ddd" stroke-width="1" opacity="1"></line><line transform="translate(0,104)" x2="128" y2="0" stroke="#ddd" stroke-width="1" opacity="1"></line><line transform="translate(0,78)" x2="128" y2="0" stroke="#ddd" stroke-width="1" opacity="1"></line><line transform="translate(0,52)" x2="128" y2="0" stroke="#ddd" stroke-width="1" opacity="1"></line><line transform="translate(0,26)" x2="128" y2="0" stroke="#ddd" stroke-width="1" opacity="1"></line><line transform="translate(0,0)" x2="128" y2="0" stroke="#ddd" stroke-width="1" opacity="1"></line></g></g><path class="foreground" aria-hidden="true" d="" pointer-events="none" display="none"></path></g></g><g class="mark-group role-scope child_layer_0_layer_0_layer_0_pathgroup" role="graphics-object" aria-roledescription="group mark container"><g transform="translate(0,0)"><path class="background" aria-hidden="true" d="M0,0h128v130h-128Z"></path><g><g class="mark-line role-mark child_layer_0_layer_0_layer_0_marks" role="graphics-object" aria-roledescription="line mark container"><path aria-label="Condition: global; Time from Switch offset (s): -2; P(Correct): 0.325763588264" role="graphics-symbol" aria-roledescription="line mark" d="M0,87.65073352573351L2,89.16293151870578L4,87.22356887235935L6,86.70261292600198L8,85.98294892196606L10,84.62667046372864L12,83.63830826640073L14,83.3562065517059L16,82.9704952447274L18,83.43702228505799L20,84.32378986837513L22,83.75043781467929L24,84.55911186134031L26,85.12033065389282L28,86.86976113303962L30,87.19125108634898L32,85.86564668792957L34,85.94122637550771L36,84.70024535864319L38,85.39531106124889L40,85.91027138975207L42,84.36075188680786L44,84.89763666855742L46,85.27295487657807L48,83.96727160915758L50,87.37922469392326L52,87.18038303918573L54,87.6275932623144L56,86.79650534247526L58,86.80745790277386L60,86.25316140538594L62,86.2419880167414L64,85.7385036987216L66,85.9225161175836L68,84.81677654046891L70,85.25186901585536L72,84.31376913258117L74,84.49177019742177L76,84.80679446816924L78,83.3335368304796L80,85.68448982325684L82,85.96243028892738L84,85.89822185617685L86,86.55831248406498L88,86.94907431477344L90,86.66271414458538L92,87.2653996234707L94,88.19935122740486L96,88.16844543426062L98,89.18349804834976L100,88.69206607344336L102,88.72954210142393L104,87.47855855510964L106,87.19258887902365L108,87.44770142890712L110,85.30348900068925L112,84.89901579931801L114,84.45941655686462L116,85.14359090603179L118,85.05342642213466L120,86.61568889646462L122,87.52906361034307L124,87.12898408373516L126,88.56378581852329L128,90.16123114823019" stroke="#0F3C5F" stroke-width="2" stroke-linejoin="round"></path></g></g><path class="foreground" aria-hidden="true" d="" display="none"></path></g><g transform="translate(0,0)"><path class="background" aria-hidden="true" d="M0,0h128v130h-128Z"></path><g><g class="mark-line role-mark child_layer_0_layer_0_layer_0_marks" role="graphics-object" aria-roledescription="line mark container"><path aria-label="Condition: object; Time from Switch offset (s): -2; P(Correct): 0.311182760141" role="graphics-symbol" aria-roledescription="line mark" d="M0,89.54624118165785L2,80.84110449735451L4,79.77872474747477L6,77.7282848324515L8,81.50776364838865L10,79.45926026134359L12,77.44276094276096L14,76.8493967452301L16,78.38806717973384L18,80.97405102613438L20,78.49803340949174L22,76.74585638127304L24,76.23726851851852L26,77.19087702421037L28,82.75819203944204L30,83.36357874378706L32,87.52853685666186L34,85.07832291165624L36,87.59874539041206L38,88.84242695394657L40,91.59469556584817L42,88.63852006445853L44,89.11163657714549L46,85.39013383131031L48,88.33622659590152L50,89.05269582248104L52,91.04200752270607L54,90.70557673003327L56,91.71650238591754L58,90.16791212000554L60,86.7596532152576L62,85.16719832514788L64,85.42116082849788L66,84.69269593731369L68,87.62629190585747L70,84.9308378400758L72,86.36893599530946L74,85.5772525473675L76,86.32445458604715L78,85.04859998270088L80,84.47003746876987L82,82.38893379627085L84,81.10131752175195L86,83.74821505546419L88,84.16240579907115L90,83.87602749108345L92,83.66118063093923L94,83.46848640589849L96,83.74605110390047L98,83.09348641953848L100,85.55218429196614L102,84.81310341481243L104,84.2572941059509L106,84.95434487945452L108,86.90703708768685L110,86.92310775455095L112,87.2300318579933L114,87.11269442352373L116,87.80822466770204L118,87.51327143271668L120,88.62522689442176L122,89.81778241005524L124,90.39482035123656L126,94.91982330277192L128,93.2066674268572" stroke="#EB9A60" stroke-width="2" stroke-linejoin="round"></path></g></g><path class="foreground" aria-hidden="true" d="" display="none"></path></g></g><g class="mark-group role-scope child_layer_0_layer_0_layer_1_layer_0_pathgroup" role="graphics-object" aria-roledescription="group mark container"><g transform="translate(0,0)"><path class="background" aria-hidden="true" d="M0,0h128v130h-128Z"></path><g><g class="mark-area role-mark child_layer_0_layer_0_layer_1_layer_0_marks" role="graphics-object" aria-roledescription="area mark container"><path aria-label=": 0.292572914161; upper_lower: 0.357658103856; Condition: global; Time from Switch offset (s): -2; upper: 0.357658103856; lower: 0.292572914161" role="graphics-symbol" aria-roledescription="errorband" d="M0,91.96552115901075L2,92.16381389623369L4,90.22115637495975L6,89.81437133550612L8,90.19982546364022L10,88.17553809834675L12,87.89356246396832L14,86.93824818345945L16,86.97425298581878L18,87.89609988421734L20,88.58082130025501L22,87.54626973408092L24,87.65652727390464L26,87.4690935315887L28,89.71803390035322L30,89.76394444216685L32,88.80322592130074L34,89.64364793687076L36,87.36279367353445L38,88.37668986096345L40,89.17223972528069L42,88.05571338624617L44,87.64445003253603L46,88.2374661458878L48,87.22960950527671L50,90.06762016210347L52,89.83672166416935L54,89.9581832787584L56,89.90016374419736L58,89.87222027084388L60,88.22743824696897L62,88.49735291318115L64,88.13537811195965L66,88.15439257698317L68,86.63336014071781L70,87.08247513917607L72,86.85766716004368L74,86.58441138383989L76,87.19134775255579L78,85.88243168777254L80,87.82985486323845L82,87.47046890656587L84,88.02438432771292L86,88.74537028340856L88,88.82252087055382L90,89.03529486268499L92,89.58727494148881L94,89.89586979626662L96,90.17047736666099L98,91.36445293285333L100,90.9982823230451L102,90.6269123718423L104,89.51742732313902L106,89.2969442403828L108,89.69165309578867L110,86.899586657354L112,86.78540294284555L114,86.3911032450266L116,86.7269764338384L118,86.98114374967041L120,88.59794090221294L122,89.57364558775963L124,88.76286432587004L126,90.9085259750907L128,92.26651321290892L128,87.97160914075073L126,86.26038524570451L124,85.43359826222913L122,85.58737605635787L120,84.56554416252119L118,83.18604363193978L116,83.47739872447252L114,82.46160360174353L112,83.08499956893816L110,83.83658139545044L108,85.32426445189053L106,85.06229316550541L104,85.4829256617063L102,86.86960504839432L100,86.42862437637476L98,87.07579201121318L96,86.0464251358784L94,86.47105060698308L92,85.01463021960127L90,84.1877554090351L88,84.93422914520488L86,84.23772185048L84,83.78565295061586L82,84.48956522832827L80,83.49821331157412L78,80.8719903573418L76,82.35483137697997L74,82.38055222829801L72,81.86258497568748L70,83.46480513551133L68,83.02604329492094L66,83.73961541037345L64,83.60987303604854L62,84.18441621833703L60,84.30905136210076L58,83.83268641259717L56,84.0280635325671L54,85.2843071511735L52,84.43942850648126L50,84.72306043442025L48,80.82600811994442L46,82.34555023963576L44,82.27578819703947L42,80.81437124206909L40,82.59286895057556L38,82.36265342787614L36,82.1165795521868L34,82.50680911530876L32,82.96476279363455L30,84.71166330378952L28,84.12070766981293L26,82.56173656072038L24,81.54864156357762L22,80.21624379250635L20,80.01496899813222L18,79.05237701281976L16,78.98428423503778L14,79.68312770489257L12,79.30805585275469L10,80.98152536765639L8,81.8963383127523L6,83.68988186621468L4,84.41281365398191L2,86.17681572906537L0,83.50444649871734Z" fill="#0F3C5F" opacity="0.3"></path></g></g><path class="foreground" aria-hidden="true" d="" display="none"></path></g><g transform="translate(0,0)"><path class="background" aria-hidden="true" d="M0,0h128v130h-128Z"></path><g><g class="mark-area role-mark child_layer_0_layer_0_layer_1_layer_0_marks" role="graphics-object" aria-roledescription="area mark container"><path aria-label=": 0.266903246252; upper_lower: 0.354454365079; Condition: object; Time from Switch offset (s): -2; upper: 0.354454365079; lower: 0.266903246252" role="graphics-symbol" aria-roledescription="errorband" d="M0,95.30257798721341L2,86.06450066137567L4,84.29967945827322L6,82.15696924603172L8,86.10968464405964L10,83.73781941438192L12,82.83818742985412L14,81.70222926186467L16,83.94516757355298L18,86.76867283950621L20,83.28649484678131L22,82.13857636383679L24,81.35959683641978L26,82.22356200897869L28,88.27108059764309L30,88.45400533108865L32,91.3802886253407L34,89.25686903759821L36,91.27632801226551L38,93.35209309260323L40,95.54974817259993L42,92.31419191488732L44,93.44919456909226L46,88.90038892293029L48,92.78267716626125L50,92.50118390466568L52,94.78758103988652L54,95.03315814571658L56,95.73528477836842L58,93.09262122256068L60,89.58822860983696L62,87.10512611066544L64,88.12568728720261L66,87.78335837599604L68,89.80375860837731L70,87.94368091353701L72,89.18321821139331L74,87.63237227500805L76,89.1252362397112L78,87.46900123276153L80,87.0877092576811L82,85.61597228262464L84,84.88933721026987L86,86.82901621213777L88,87.65076994538384L90,86.8653060978905L92,86.89167411824808L94,86.72152378269396L96,86.80347144557278L98,86.00278320091132L100,89.21875723503528L102,86.98452997996948L104,86.75483192639375L106,87.19137003124393L108,89.54340139419439L110,89.96154092319703L112,90.34335590868437L114,91.164666856968L116,91.8210341198071L118,91.39651787963602L120,91.59267995318585L122,93.01926093520736L124,93.33703000365266L126,98.13136426575312L128,96.133899625877L128,90.2707320189849L126,92.08738180083803L124,87.57920081642972L122,86.83085610283104L120,85.76624435575754L118,83.8889798982716L116,83.77462224970397L114,83.08424621237462L112,84.0189831696808L110,83.95644758052946L108,84.46433929931335L106,82.70169954821819L104,81.48368188265805L102,82.26631233352168L100,82.1400665113245L98,80.40141685957927L96,81.09861436303164L94,80.27871959350357L92,80.42180644332545L90,80.95964323448172L88,80.9024304021398L86,80.78607494759699L84,77.71897464390405L82,79.41330278817507L80,81.82151260547526L78,82.85600021498666L76,83.56955597036118L74,83.70667859103834L72,83.86878489659809L70,82.22287688161111L68,85.3617764301153L66,81.74508525928124L64,82.79476810955765L62,83.27989707110527L60,83.80539173453333L58,86.91771617092873L56,87.33231855982737L54,86.03400854498182L52,86.8351954307607L50,85.3232940206419L48,83.57877869715139L46,81.78490373579986L44,84.63445306485167L42,84.73221231566457L40,87.71535882871667L38,84.1936814088009L36,83.77388587010984L34,81.00534436628188L32,83.56622825476991L30,78.38917899230397L28,77.28824104136604L26,72.27290814894982L24,71.158167989418L22,71.49756480980439L20,73.92535480048501L18,75.65044667909254L16,73.2422105479397L14,72.30775375280585L12,72.1211570065737L10,75.28159584435623L8,76.97326332521645L6,73.55599647266314L4,75.50261005391215L2,75.81294229497354L0,83.92093253968255Z" fill="#EB9A60" opacity="0.3"></path></g></g><path class="foreground" aria-hidden="true" d="" display="none"></path></g></g><g class="mark-rule role-mark child_layer_0_layer_1_marks" clip-path="url(#clip1)" role="graphics-object" aria-roledescription="rule mark container"><line aria-label="Mean of chance: 0.333333333333" role="graphics-symbol" aria-roledescription="rule mark" transform="translate(128,86.66666666666666)" x2="-128" y2="0" stroke="black" stroke-width="1" stroke-dasharray="2,2"></line></g><g class="mark-area role-mark child_layer_1_marks" role="graphics-object" aria-roledescription="area mark container"><path aria-label="P(target): 0.116873355881; time: -2" role="graphics-symbol" aria-roledescription="area mark" d="M0,114.8064637354378L0,114.70588235294117L2,111.28898910184142L2,108.97058823529412L4,111.28898910184142L4,107.05882352941175L6,112.46148064637354L6,108.97058823529412L8,114.8064637354378L8,110.88235294117646L10,115.97895527996994L10,112.79411764705883L12,117.10259301014656L12,114.70588235294117L14,118.37988826815642L14,113.04347826086956L16,118.48283499446289L16,113.04347826086956L18,119.72557628979143L18,115.14285714285714L20,122.14670981661273L20,117.1830985915493L22,123.38282078472957L22,119.31506849315069L24,123.38282078472957L24,119.31506849315069L26,118.97136797454931L26,115.75342465753425L28,113.50300459526335L28,112.1917808219178L30,112.40014139271827L30,110.41095890410959L32,113.7782412234967L32,112.43243243243244L34,115.23228212953543L34,114.60526315789473L36,115.14167462591531L36,114.14634146341463L38,116.4803012746234L38,115.39325842696628L40,115.96674182638107L40,114.11111111111111L42,115.08737316798197L42,114.11111111111111L44,113.21509648127129L44,112.47191011235955L46,115.87116912599319L46,115.39325842696628L48,117.55714285714285L48,116.70454545454545L50,120.12658227848102L50,118.04597701149426L52,116.53624856156502L52,113.56321839080461L54,112.7071178529755L54,113.17647058823529L56,112.58519388954171L56,114.52380952380952L58,107.68772348033373L58,110.97560975609755L60,107.68772348033373L60,110.97560975609755L62,106.24847746650427L62,110.5L64,109.98075072184793L64,110L66,110.10427177934746L66,108.63013698630137L68,109.44038929440389L68,108.33333333333334L70,112.44977088473739L70,111.77570093457943L72,114.2038447587958L72,114.92753623188406L74,110.64032199048664L74,110.88235294117646L76,113.63397219090567L76,107.05882352941175L78,117.03450891164202L78,110.59701492537313L80,113.4850208570345L80,106.71641791044776L82,113.4850208570345L82,106.71641791044776L84,113.4850208570345L84,108.65671641791045L86,113.43572241183162L86,108.65671641791045L88,113.43572241183162L88,110.59701492537313L90,109.70149253731344L90,104.39393939393939L92,109.51332560834298L92,104L94,109.12632821723732L94,105.625L96,112.64600715137068L96,109.36507936507937L98,113.41104294478527L98,112.66666666666667L100,114.38047559449312L100,114.3103448275862L102,116.15794143744453L102,115.28301886792453L104,114.27131072410631L104,117.5L106,113.73459715639811L106,114.70588235294117L108,113.35596508244421L108,117L110,119.98930481283422L110,121.52173913043478L112,114.38264738598444L112,121.33333333333333L114,106.82285714285715L114,109.77777777777777L116,106.82285714285715L116,109.77777777777777L118,103.25714285714285L118,106.88888888888889L120,99.69142857142857L120,101.11111111111111L122,94.41714285714286L122,95.33333333333334L124,90.85142857142857L124,92.44444444444444L126,93.92236384704519L126,94.54545454545455L128,94.7497020262217L128,93.72093023255813L128,130L128,130L126,130L126,130L124,130L124,130L122,130L122,130L120,130L120,130L118,130L118,130L116,130L116,130L114,130L114,130L112,130L112,130L110,130L110,130L108,130L108,130L106,130L106,130L104,130L104,130L102,130L102,130L100,130L100,130L98,130L98,130L96,130L96,130L94,130L94,130L92,130L92,130L90,130L90,130L88,130L88,130L86,130L86,130L84,130L84,130L82,130L82,130L80,130L80,130L78,130L78,130L76,130L76,130L74,130L74,130L72,130L72,130L70,130L70,130L68,130L68,130L66,130L66,130L64,130L64,130L62,130L62,130L60,130L60,130L58,130L58,130L56,130L56,130L54,130L54,130L52,130L52,130L50,130L50,130L48,130L48,130L46,130L46,130L44,130L44,130L42,130L42,130L40,130L40,130L38,130L38,130L36,130L36,130L34,130L34,130L32,130L32,130L30,130L30,130L28,130L28,130L26,130L26,130L24,130L24,130L22,130L22,130L20,130L20,130L18,130L18,130L16,130L16,130L14,130L14,130L12,130L12,130L10,130L10,130L8,130L8,130L6,130L6,130L4,130L4,130L2,130L2,130L0,130L0,130Z" fill="black" opacity="0.3"></path></g></g><path class="foreground" aria-hidden="true" d="" display="none"></path></g><g transform="translate(139,0)"><path class="background" aria-hidden="true" d="M0.5,0.5h128v130h-128Z" stroke="#ddd"></path><g><g class="mark-group role-axis" aria-hidden="true"><g transform="translate(0.5,130.5)"><path class="background" aria-hidden="true" d="M0,0h0v0h0Z" pointer-events="none"></path><g><g class="mark-rule role-axis-grid" pointer-events="none"><line transform="translate(0,-130)" x2="0" y2="130" stroke="#ddd" stroke-width="1" opacity="1"></line><line transform="translate(43,-130)" x2="0" y2="130" stroke="#ddd" stroke-width="1" opacity="1"></line><line transform="translate(85,-130)" x2="0" y2="130" stroke="#ddd" stroke-width="1" opacity="1"></line><line transform="translate(128,-130)" x2="0" y2="130" stroke="#ddd" stroke-width="1" opacity="1"></line></g></g><path class="foreground" aria-hidden="true" d="" pointer-events="none" display="none"></path></g></g><g class="mark-group role-axis" aria-hidden="true"><g transform="translate(0.5,0.5)"><path class="background" aria-hidden="true" d="M0,0h0v0h0Z" pointer-events="none"></path><g><g class="mark-rule role-axis-grid" pointer-events="none"><line transform="translate(0,130)" x2="128" y2="0" stroke="#ddd" stroke-width="1" opacity="1"></line><line transform="translate(0,104)" x2="128" y2="0" stroke="#ddd" stroke-width="1" opacity="1"></line><line transform="translate(0,78)" x2="128" y2="0" stroke="#ddd" stroke-width="1" opacity="1"></line><line transform="translate(0,52)" x2="128" y2="0" stroke="#ddd" stroke-width="1" opacity="1"></line><line transform="translate(0,26)" x2="128" y2="0" stroke="#ddd" stroke-width="1" opacity="1"></line><line transform="translate(0,0)" x2="128" y2="0" stroke="#ddd" stroke-width="1" opacity="1"></line></g></g><path class="foreground" aria-hidden="true" d="" pointer-events="none" display="none"></path></g></g><g class="mark-group role-scope child_layer_0_layer_0_layer_0_pathgroup" role="graphics-object" aria-roledescription="group mark container"><g transform="translate(0,0)"><path class="background" aria-hidden="true" d="M0,0h128v130h-128Z"></path><g><g class="mark-line role-mark child_layer_0_layer_0_layer_0_marks" role="graphics-object" aria-roledescription="line mark container"><path aria-label="Condition: global; Time from Switch offset (s): -2; P(Correct): 0.329477014812" role="graphics-symbol" aria-roledescription="line mark" d="M0,87.167988074383L2,86.86753681183013L4,85.21894118845913L6,86.02532275890542L8,86.23354429613055L10,85.5267024950999L12,86.70612682901258L14,86.88734708935426L16,85.62114557752845L18,86.60719872403239L20,85.76715921811534L22,85.7565323697337L24,86.44568398045773L26,86.32215649585038L28,87.49579103926274L30,87.5329317052323L32,87.2486144470546L34,87.21564352553816L36,86.61491927854269L38,88.06181544662603L40,87.94489464931135L42,88.94209223802635L44,88.5886049384187L46,86.3889366706102L48,87.74385428438835L50,87.98661393827L52,87.93569991177321L54,87.79910836840547L56,88.3410737412346L58,87.9555503616153L60,89.35008668564029L62,87.43368357149545L64,89.51806427219068L66,88.33366081701898L68,88.8624962883848L70,87.42093142660725L72,85.6038434429492L74,85.05286123894956L76,85.57924259764734L78,83.41730235137408L80,85.97810028612375L82,85.8519035401376L84,88.56518076504278L86,86.93664162445032L88,91.68639101920964L90,89.34560939263066L92,89.06388912583057L94,89.82171166445735L96,87.46638451960722L98,91.5935144682984L100,90.89980120077949L102,89.75024912499113L104,92.09914312947402L106,91.58089517372605L108,87.08268197851531L110,85.78968253968253L112,81.09953703703704L114,89.67592592592592L116,90.63888888888889L118,92.08333333333333L120,94.70138888888889L122,90.69907407407409L124,98.55324074074075L126,83.35648148148148L128,91.22807017543859" stroke="#0F3C5F" stroke-width="2" stroke-linejoin="round"></path></g></g><path class="foreground" aria-hidden="true" d="" display="none"></path></g><g transform="translate(0,0)"><path class="background" aria-hidden="true" d="M0,0h128v130h-128Z"></path><g><g class="mark-line role-mark child_layer_0_layer_0_layer_0_marks" role="graphics-object" aria-roledescription="line mark container"><path aria-label="Condition: object; Time from Switch offset (s): -2; P(Correct): 0.338977835725" role="graphics-symbol" aria-roledescription="line mark" d="M0,85.93288135576687L2,86.51332835008229L4,85.98309702341054L6,87.0685247358429L8,85.84035972527396L10,86.12631424377692L12,87.34659018950362L14,87.78563236816126L16,85.95867993871155L18,86.55434403806063L20,87.00744481556528L22,87.48141728314741L24,83.84933281919794L26,84.26137557885379L28,83.72288569158184L30,83.59790937097743L32,86.7543701834698L34,87.89202478613659L36,87.82893404675877L38,86.89072938084382L40,88.70858702093219L42,88.67128750285225L44,89.38807068675263L46,90.36119764491261L48,93.43160126270365L50,92.45595105319612L52,88.63338709427995L54,85.87706147317792L56,87.58028376468917L58,84.58445592369763L60,87.10360514104963L62,84.08036749086946L64,83.94360582406523L66,81.6477803251052L68,79.1103861863879L70,77.41975125396375L72,76.24454542760827L74,76.48522389721785L76,77.5813182552432L78,79.13907720628565L80,80.40675015797565L82,83.92969966539691L84,84.415975313792L86,90.3433509734303L88,90.85363608162564L90,90.7068630693018L92,89.92002865961199L94,91.97727817979043L96,89.08099847683181L98,89.86302008177009L100,91.35233285233285L102,86.04117063492062L104,86.6458884479718L106,86.2618496472663L108,79.41650132275133L110,75.38194444444446L112,83.38383838383838L114,77.8030303030303L116,73.53535353535355L118,76.81818181818181L120,95.53030303030303L122,82.3989898989899L124,78.45959595959596L126,81.5079365079365L128,79.82456140350878" stroke="#EB9A60" stroke-width="2" stroke-linejoin="round"></path></g></g><path class="foreground" aria-hidden="true" d="" display="none"></path></g></g><g class="mark-group role-scope child_layer_0_layer_0_layer_1_layer_0_pathgroup" role="graphics-object" aria-roledescription="group mark container"><g transform="translate(0,0)"><path class="background" aria-hidden="true" d="M0,0h128v130h-128Z"></path><g><g class="mark-area role-mark child_layer_0_layer_0_layer_1_layer_0_marks" role="graphics-object" aria-roledescription="area mark container"><path aria-label=": 0.31434872588; upper_lower: 0.343934437465; Condition: global; Time from Switch offset (s): -2; upper: 0.343934437465; lower: 0.31434872588" role="graphics-symbol" aria-roledescription="errorband" d="M0,89.13466563558947L2,88.95999397497879L4,86.99870665601371L6,87.63033028621996L8,87.75444895693919L10,87.31520935040578L12,88.58424580433399L14,88.63599036150492L16,87.23999510088163L18,88.3940175214138L20,87.9196827860443L22,87.6767198802006L24,88.02361591834845L26,88.47169688375084L28,89.39885192913974L30,89.28767126278382L32,88.85245311854051L34,88.6400711918399L36,88.12476865784062L38,89.29877723007641L40,89.44968699858883L42,90.59212793920119L44,90.61393607602011L46,88.73790218322826L48,89.66756983760227L50,90.14649932377738L52,89.8662996575906L54,89.80229809489313L56,90.21736464377452L58,89.90148788297121L60,91.49803030151688L62,89.78688300377992L64,91.90191951017597L66,90.40137721714228L68,91.21121760543846L70,89.39645329018263L72,88.27365331767328L74,87.75201510337224L76,87.98735078341181L78,85.93175405874757L80,88.10489494865568L82,88.31217590736593L84,91.46574441433681L86,89.53336004442913L88,94.01267879785894L90,91.6810800138977L92,91.62199606011929L94,92.10870900760386L96,90.11435293908399L98,94.17965069310111L100,93.77918031644231L102,93.68422185638389L104,95.87880208034723L106,94.46549606269275L108,92.34554573512908L110,91.57605820105819L112,88.32175925925925L114,97.65046296296296L116,98.16203703703704L118,98.61417824074074L120,99.33564814814815L122,96.56712962962965L124,104.4814814814815L126,91.63194444444446L128,106.05263157894736L128,76.40350877192982L126,74.7800925925926L124,92.2939814814815L122,84.40896990740742L120,90.00694444444444L118,85.04166666666666L116,82.87500000000001L114,81.82175925925925L112,73.96533564814814L110,80.04178240740738L108,81.72312084135001L106,88.57173625921328L104,88.11118056323407L102,85.80905999765892L100,88.0850980311106L98,89.11995772863904L96,84.86147646063213L94,87.34903648736972L92,86.41388320069777L90,86.99204255856439L88,89.39019059785467L86,84.37379275854069L84,85.8144956176122L82,83.52893254702785L80,83.72099891037088L78,80.89112963911911L76,83.24640415524485L74,82.36179929966595L72,82.90226958858038L70,85.56506951677869L68,86.57653584047293L66,86.30894020196754L64,87.22118756589279L62,84.97145525391707L60,87.1011487791996L58,86.16328328680378L56,86.55453651177622L54,85.83776127940067L52,86.065485999177L50,85.83422604784752L48,85.90530786303287L46,83.95823204743459L44,86.60847297477353L42,87.32568516017956L40,86.34488767114924L38,86.79029679920039L36,85.09966280872001L34,85.70844874294949L32,85.55653155663191L30,85.61984227342872L28,85.57557413643978L26,84.25460051170536L24,84.86892603457711L22,83.79293122691342L20,83.63884428151098L18,84.8337687092491L16,84.03873558920559L14,85.15957376594226L12,84.65000958378995L10,83.60712647913314L8,84.55948695186966L6,84.29790566624037L4,83.30763465011783L2,84.6863710709454L0,85.2885231296098Z" fill="#0F3C5F" opacity="0.3"></path></g></g><path class="foreground" aria-hidden="true" d="" display="none"></path></g><g transform="translate(0,0)"><path class="background" aria-hidden="true" d="M0,0h128v130h-128Z"></path><g><g class="mark-area role-mark child_layer_0_layer_0_layer_1_layer_0_marks" role="graphics-object" aria-roledescription="area mark container"><path aria-label=": 0.3199650439; upper_lower: 0.358617789197; Condition: object; Time from Switch offset (s): -2; upper: 0.358617789197; lower: 0.3199650439" role="graphics-symbol" aria-roledescription="errorband" d="M0,88.40454429301028L2,89.31262947938029L4,88.55006796920229L6,89.48065712814531L8,88.82368392528365L10,88.38441325756834L12,90.38428183548811L14,90.44319982519877L16,89.70089275132995L18,89.55640777908168L20,89.68028377940857L22,90.61787640020148L24,86.9353912128748L26,87.27909756243686L28,86.23247270740121L30,86.42168727479638L32,89.49352477424318L34,90.46248340023475L36,90.29705565869284L38,90.09273406436448L40,90.90494343601527L42,90.488681573866L44,91.25191418745422L46,92.7027905211152L48,96.30111023810784L50,95.37885861827007L52,91.73340992249862L54,89.87372790847253L56,91.10313736959671L58,88.60836672604285L60,89.53012358020015L62,87.17649240720932L64,87.35823113745163L66,85.48141164641207L68,83.74531176471102L70,81.14325413996664L72,80.29742203174679L74,80.20401295579514L76,81.2204208462125L78,83.87903436283689L80,86.10069622019682L82,89.17325483949341L84,89.4471860116488L86,94.33652615377292L88,94.81658094250128L90,93.87781238652867L92,94.07463980962756L94,95.56475495869644L96,92.60954760902679L98,93.46964060245314L100,96.2666102994228L102,91.19348820546736L104,92.64156883818343L106,92.94616677689595L108,85.013884755291L110,83.20601851851852L112,91.91919191919193L114,87.3232323232323L116,85.35353535353535L118,90.6060606060606L120,107.34848484848484L122,95.85858585858587L124,87.65151515151513L126,91.82539682539682L128,93.50877192982456L128,66.14035087719299L126,72.19642857142881L124,69.92424242424241L122,70.5808080808081L120,84.36868686868685L118,64.34343434343432L116,62.373737373737384L114,68.6111111111111L112,74.52020202020202L110,67.25694444444444L108,73.57171378968255L106,79.66870590828925L104,81.41751543209878L102,80.6007702270723L100,86.58401725589226L98,86.09239605880234L96,85.40438662417831L94,88.64845018447194L92,85.87430912179688L90,87.27363052281098L88,86.9875701239926L86,86.29858980964464L84,79.87056960191593L82,78.88083326418797L80,75.28767577738166L78,74.81189465884704L76,74.32317142138483L74,72.80220398039579L72,72.5683168395364L70,74.04599739004446L68,75.04522958495359L66,77.93567387079018L64,80.53048036459504L62,81.08011963296633L60,84.65338465075615L58,81.06056925286316L56,84.24864331052301L54,82.41206093151891L52,85.9014615148019L50,89.73203515065073L48,90.8111077155578L46,88.05066716127456L44,87.3366637439474L42,86.79203931926632L40,86.40218692833388L38,83.98887791262264L36,85.54498869558743L34,85.30546618190846L32,84.10602077199266L30,80.83761375090316L28,81.34810704683636L26,81.37547207742948L24,80.93661835685243L22,84.47888946578703L20,84.45235182330151L18,83.72372291364559L16,82.9083969625667L14,85.21646058768111L12,85.07845015246554L10,83.93550792991485L8,83.23503662630644L6,84.64766196212085L4,83.49693005067014L2,83.8404152279417L0,83.37968740433253Z" fill="#EB9A60" opacity="0.3"></path></g></g><path class="foreground" aria-hidden="true" d="" display="none"></path></g></g><g class="mark-rule role-mark child_layer_0_layer_1_marks" clip-path="url(#clip2)" role="graphics-object" aria-roledescription="rule mark container"><line aria-label="Mean of chance: 0.333333333333" role="graphics-symbol" aria-roledescription="rule mark" transform="translate(128,86.66666666666659)" x2="-128" y2="0" stroke="black" stroke-width="1" stroke-dasharray="2,2"></line></g><g class="mark-area role-mark child_layer_1_marks" role="graphics-object" aria-roledescription="area mark container"><path aria-label="P(target): 0.116873355881; time: -2" role="graphics-symbol" aria-roledescription="area mark" d="M0,114.8064637354378L0,114.70588235294117L2,111.28898910184142L2,108.97058823529412L4,111.28898910184142L4,107.05882352941175L6,112.46148064637354L6,108.97058823529412L8,114.8064637354378L8,110.88235294117646L10,115.97895527996994L10,112.79411764705883L12,117.10259301014656L12,114.70588235294117L14,118.37988826815642L14,113.04347826086956L16,118.48283499446289L16,113.04347826086956L18,119.72557628979143L18,115.14285714285714L20,122.14670981661273L20,117.1830985915493L22,123.38282078472957L22,119.31506849315069L24,123.38282078472957L24,119.31506849315069L26,118.97136797454931L26,115.75342465753425L28,113.50300459526335L28,112.1917808219178L30,112.40014139271827L30,110.41095890410959L32,113.7782412234967L32,112.43243243243244L34,115.23228212953543L34,114.60526315789473L36,115.14167462591531L36,114.14634146341463L38,116.4803012746234L38,115.39325842696628L40,115.96674182638107L40,114.11111111111111L42,115.08737316798197L42,114.11111111111111L44,113.21509648127129L44,112.47191011235955L46,115.87116912599319L46,115.39325842696628L48,117.55714285714285L48,116.70454545454545L50,120.12658227848102L50,118.04597701149426L52,116.53624856156502L52,113.56321839080461L54,112.7071178529755L54,113.17647058823529L56,112.58519388954171L56,114.52380952380952L58,107.68772348033373L58,110.97560975609755L60,107.68772348033373L60,110.97560975609755L62,106.24847746650427L62,110.5L64,109.98075072184793L64,110L66,110.10427177934746L66,108.63013698630137L68,109.44038929440389L68,108.33333333333334L70,112.44977088473739L70,111.77570093457943L72,114.2038447587958L72,114.92753623188406L74,110.64032199048664L74,110.88235294117646L76,113.63397219090567L76,107.05882352941175L78,117.03450891164202L78,110.59701492537313L80,113.4850208570345L80,106.71641791044776L82,113.4850208570345L82,106.71641791044776L84,113.4850208570345L84,108.65671641791045L86,113.43572241183162L86,108.65671641791045L88,113.43572241183162L88,110.59701492537313L90,109.70149253731344L90,104.39393939393939L92,109.51332560834298L92,104L94,109.12632821723732L94,105.625L96,112.64600715137068L96,109.36507936507937L98,113.41104294478527L98,112.66666666666667L100,114.38047559449312L100,114.3103448275862L102,116.15794143744453L102,115.28301886792453L104,114.27131072410631L104,117.5L106,113.73459715639811L106,114.70588235294117L108,113.35596508244421L108,117L110,119.98930481283422L110,121.52173913043478L112,114.38264738598444L112,121.33333333333333L114,106.82285714285715L114,109.77777777777777L116,106.82285714285715L116,109.77777777777777L118,103.25714285714285L118,106.88888888888889L120,99.69142857142857L120,101.11111111111111L122,94.41714285714286L122,95.33333333333334L124,90.85142857142857L124,92.44444444444444L126,93.92236384704519L126,94.54545454545455L128,93.72093023255813L128,94.7497020262217L128,130L128,130L126,130L126,130L124,130L124,130L122,130L122,130L120,130L120,130L118,130L118,130L116,130L116,130L114,130L114,130L112,130L112,130L110,130L110,130L108,130L108,130L106,130L106,130L104,130L104,130L102,130L102,130L100,130L100,130L98,130L98,130L96,130L96,130L94,130L94,130L92,130L92,130L90,130L90,130L88,130L88,130L86,130L86,130L84,130L84,130L82,130L82,130L80,130L80,130L78,130L78,130L76,130L76,130L74,130L74,130L72,130L72,130L70,130L70,130L68,130L68,130L66,130L66,130L64,130L64,130L62,130L62,130L60,130L60,130L58,130L58,130L56,130L56,130L54,130L54,130L52,130L52,130L50,130L50,130L48,130L48,130L46,130L46,130L44,130L44,130L42,130L42,130L40,130L40,130L38,130L38,130L36,130L36,130L34,130L34,130L32,130L32,130L30,130L30,130L28,130L28,130L26,130L26,130L24,130L24,130L22,130L22,130L20,130L20,130L18,130L18,130L16,130L16,130L14,130L14,130L12,130L12,130L10,130L10,130L8,130L8,130L6,130L6,130L4,130L4,130L2,130L2,130L0,130L0,130Z" fill="black" opacity="0.3"></path></g></g><path class="foreground" aria-hidden="true" d="" display="none"></path></g><g transform="translate(0,137)"><path class="background" aria-hidden="true" d="M0.5,0.5h128v130h-128Z" stroke="#ddd"></path><g><g class="mark-group role-axis" aria-hidden="true"><g transform="translate(0.5,130.5)"><path class="background" aria-hidden="true" d="M0,0h0v0h0Z" pointer-events="none"></path><g><g class="mark-rule role-axis-grid" pointer-events="none"><line transform="translate(0,-130)" x2="0" y2="130" stroke="#ddd" stroke-width="1" opacity="1"></line><line transform="translate(43,-130)" x2="0" y2="130" stroke="#ddd" stroke-width="1" opacity="1"></line><line transform="translate(85,-130)" x2="0" y2="130" stroke="#ddd" stroke-width="1" opacity="1"></line><line transform="translate(128,-130)" x2="0" y2="130" stroke="#ddd" stroke-width="1" opacity="1"></line></g></g><path class="foreground" aria-hidden="true" d="" pointer-events="none" display="none"></path></g></g><g class="mark-group role-axis" aria-hidden="true"><g transform="translate(0.5,0.5)"><path class="background" aria-hidden="true" d="M0,0h0v0h0Z" pointer-events="none"></path><g><g class="mark-rule role-axis-grid" pointer-events="none"><line transform="translate(0,130)" x2="128" y2="0" stroke="#ddd" stroke-width="1" opacity="1"></line><line transform="translate(0,104)" x2="128" y2="0" stroke="#ddd" stroke-width="1" opacity="1"></line><line transform="translate(0,78)" x2="128" y2="0" stroke="#ddd" stroke-width="1" opacity="1"></line><line transform="translate(0,52)" x2="128" y2="0" stroke="#ddd" stroke-width="1" opacity="1"></line><line transform="translate(0,26)" x2="128" y2="0" stroke="#ddd" stroke-width="1" opacity="1"></line><line transform="translate(0,0)" x2="128" y2="0" stroke="#ddd" stroke-width="1" opacity="1"></line></g></g><path class="foreground" aria-hidden="true" d="" pointer-events="none" display="none"></path></g></g><g class="mark-group role-scope child_layer_0_layer_0_layer_0_pathgroup" role="graphics-object" aria-roledescription="group mark container"><g transform="translate(0,0)"><path class="background" aria-hidden="true" d="M0,0h128v130h-128Z"></path><g><g class="mark-line role-mark child_layer_0_layer_0_layer_0_marks" role="graphics-object" aria-roledescription="line mark container"><path aria-label="Condition: global; Time from Switch offset (s): -2; P(Correct): 0.672642095559" role="graphics-symbol" aria-roledescription="line mark" d="M0,42.55652757736093L2,90.34456445149618L4,91.6912754684003L6,92.01293011917339L8,92.02606330070842L10,91.76325594934328L12,89.63502882637425L14,92.68711366978083L16,90.44712394127342L18,91.58461673507439L20,89.39440357420081L22,89.05560479379017L24,88.04934985155448L26,39.959654104160286L28,41.81662422821297L30,42.68246549268839L32,40.9682170773467L34,41.61485343512353L36,42.52433000579287L38,43.36142805518451L40,45.23028189408863L42,46.090964996284555L44,45.4151304117599L46,43.66496204057147L48,47.44540261478427L50,44.75553872917605L52,83.36284089034207L54,77.15658087343611L56,82.84460337101712L58,71.97404116526504L60,82.70081129542683L62,84.47466537939289L64,86.51419212354746L66,88.00939954158609L68,87.92541237891693L70,86.15454665686929L72,87.19630575025938L74,85.72701846589779L76,87.49996888870318L78,82.90771255576556L80,77.16359739530837L82,75.87734924784246L84,63.302049395937516L86,53.61315964219463L88,51.29318495250525L90,48.128953809842784L92,48.56614015987502L94,48.90642808791625L96,47.55686502150088L98,48.49359792966175L100,46.066070305358174L102,44.44086103161218L104,49.65821381850035L106,53.95527245605673L108,55.853304784231206L110,66.76725764923694L112,74.36115678776657L114,78.00858195101655L116,81.37596196515787L118,83.73814646005285L120,82.4793839782701L122,84.79351263542195L124,85.79491812288724L126,87.66274239211484L128,89.18284577413108" stroke="#0F3C5F" stroke-width="2" stroke-linejoin="round"></path></g></g><path class="foreground" aria-hidden="true" d="" display="none"></path></g><g transform="translate(0,0)"><path class="background" aria-hidden="true" d="M0,0h128v130h-128Z"></path><g><g class="mark-line role-mark child_layer_0_layer_0_layer_0_marks" role="graphics-object" aria-roledescription="line mark container"><path aria-label="Condition: spatial; Time from Switch offset (s): -2; P(Correct): 0.686868686869" role="graphics-symbol" aria-roledescription="line mark" d="M0,40.70707070707071L2,90.80262249827467L4,88.06176673567978L6,91.32298136645963L8,89.4860248447205L10,90.08712905452036L12,90.5424430641822L14,86.74741200828157L16,83.73516218081436L18,92.04520358868184L20,88.28381642512076L22,85.70893719806763L24,86.46256038647344L26,38.564872325741916L28,38.60075914423742L30,42.62456866804694L32,39.71549344375431L34,42.82643202208419L36,50.19516093474427L38,47.835041887125236L40,51.63862834696169L42,54.28202160493827L44,57.00192901234569L46,48.58741181657848L48,60.58713624338625L50,52.635471781305114L52,85.63423921757257L54,75.92274931858266L56,85.64664502164503L58,74.66522366522365L60,79.90010698224847L62,87.59953658988273L64,81.26009145934297L66,87.61894152881473L68,83.58744573151513L70,84.16888655290877L72,82.52545468487499L74,83.38622477201089L76,81.50221189479151L78,81.79762258472452L80,73.54721824828134L82,77.00885579419379L84,63.11656546532117L86,59.901242100732006L88,59.28601012990317L90,54.96842766478303L92,53.766243855870094L94,53.080728802637175L96,54.02187865978627L98,53.27346891832494L100,48.86195945461297L102,48.21280323140784L104,62.04857103920319L106,65.70499096931687L108,62.86461968468786L110,74.10498614005003L112,75.88785313612496L114,73.03380785466264L116,79.06623954599023L118,78.27775173390401L120,80.8983568774997L122,83.93814611508643L124,79.95562420865149L126,88.51637029162536L128,91.90427790032099" stroke="#687B3E" stroke-width="2" stroke-linejoin="round"></path></g></g><path class="foreground" aria-hidden="true" d="" display="none"></path></g></g><g class="mark-group role-scope child_layer_0_layer_0_layer_1_layer_0_pathgroup" role="graphics-object" aria-roledescription="group mark container"><g transform="translate(0,0)"><path class="background" aria-hidden="true" d="M0,0h128v130h-128Z"></path><g><g class="mark-area role-mark child_layer_0_layer_0_layer_1_layer_0_marks" role="graphics-object" aria-roledescription="area mark container"><path aria-label=": 0.635760080968; upper_lower: 0.708661603636; Condition: global; Time from Switch offset (s): -2; upper: 0.708661603636; lower: 0.635760080968" role="graphics-symbol" aria-roledescription="errorband" d="M0,47.351189474106185L2,93.475948643946L4,94.75042264505272L6,94.89357724146652L8,95.10947336432658L10,94.24765002038302L12,93.02770101800304L14,94.85501920844528L16,92.70235004755006L18,94.69252374640423L20,93.45555875490099L22,92.77798376967476L24,90.69537916873897L26,42.974552863400476L28,44.87476382290057L30,46.28864128531849L32,44.4986829894679L34,45.672735941341884L36,46.62422924667834L38,46.596028504769805L40,48.700538204132805L42,49.18373137698683L44,48.85278112392541L46,47.321305828193594L48,50.88450706317346L50,48.108710023255675L52,86.83817743510114L54,79.65765046747859L56,85.46560241835483L58,73.83049550685229L60,85.3179532671672L62,86.59664453479098L64,89.30211822976209L66,90.43357561884768L68,90.45844696848599L70,88.86773711332913L72,89.38556263199453L74,87.85828356942415L76,89.77235848544451L78,85.64512897402918L80,79.53409942396185L82,78.10800242024916L84,65.52830167925065L86,55.66485077130685L88,53.95893469012204L90,50.33173200191975L92,51.37018168306487L94,51.70439109768664L96,50.290355539499465L98,50.78960720189774L100,48.09955004208366L102,46.23858994215095L104,51.656025827376595L106,56.65338810784342L108,58.70390081017646L110,69.3090045622601L112,76.34555788362373L114,80.03566095456388L116,83.48422472622899L118,85.83329816140339L120,84.85496979255288L122,87.66548117177528L124,87.9834240399227L126,90.05312340381998L128,91.16254226538821L128,87.23490975274183L126,85.39009729199974L124,83.62811423404257L122,82.18616482822884L120,80.29147847633736L118,81.85224660490962L116,79.44426164976979L114,75.99376859604666L112,72.4102015834122L110,64.32264520882956L108,53.02580480129728L106,51.3027784191335L104,47.828054681882335L102,42.55831443396663L100,44.03872699636808L98,46.33173823626096L96,45.387746991375884L94,46.550413432408654L92,45.930790416690755L90,45.86362373185719L88,48.620146361647976L86,51.61361856139384L84,61.05977422643271L82,73.6873621692481L80,74.7679352742609L78,80.22719724007449L76,85.18534039378669L74,83.62824985684502L72,84.87205492752058L70,83.52736118541468L68,85.53957696517611L66,85.53628657494183L64,83.70008754077956L62,82.35964486469311L60,80.10809840445862L58,70.22421352657727L56,80.22665592141912L54,74.55356467281618L52,79.92148080574685L50,41.44073925003518L48,44.2526879734982L46,40.06144981900839L44,42.09765004366978L42,43.21175125878911L40,41.848812076304306L38,40.38768405853836L36,38.74918793427794L34,37.51660148177365L32,37.35433551084615L30,39.27070465327471L28,38.8276785139578L26,36.966318752602916L24,85.56687766772076L22,85.4834782844986L20,85.37241772518855L18,88.68857923757899L16,88.13182195077115L14,90.4690756929633L12,86.50466360517323L10,88.9537474450424L8,88.64433286403475L6,89.22360544182808L4,88.64569799674507L2,87.21029908670864L0,37.87399152737697Z" fill="#0F3C5F" opacity="0.3"></path></g></g><path class="foreground" aria-hidden="true" d="" display="none"></path></g><g transform="translate(0,0)"><path class="background" aria-hidden="true" d="M0,0h128v130h-128Z"></path><g><g class="mark-area role-mark child_layer_0_layer_0_layer_1_layer_0_marks" role="graphics-object" aria-roledescription="area mark container"><path aria-label=": 0.608585858586; upper_lower: 0.763888888889; Condition: spatial; Time from Switch offset (s): -2; upper: 0.763888888889; lower: 0.608585858586" role="graphics-symbol" aria-roledescription="errorband" d="M0,50.88383838383839L2,97.20853174603175L4,96.03548136645965L6,97.07395617667356L8,97.57233436853002L10,97.4777950310559L12,99.33549861973776L14,96.80951518288475L16,93.05906228433402L18,100.42926155969633L20,96.87893374741199L22,94.81303053830227L24,94.80433919944791L26,45.182009144237455L28,44.40096618357489L30,49.59558316080059L32,47.27421066252588L34,50.35144927536231L36,57.49349233906529L38,54.48769014550267L40,57.992408960638144L42,59.147814704585535L44,64.99103147045857L46,54.07719631834213L48,65.96889192019403L50,59.458107363315676L52,93.5941428170595L54,84.18142486371653L56,92.75720223063973L58,80.2183531746032L60,85.30157254033472L62,92.90108168440014L64,88.0102462912618L66,91.75950306256581L68,89.66096351778975L70,89.99362178737954L72,89.34525368745255L74,88.7732795933218L76,86.73529261573454L78,86.24609394720656L80,78.92052525316728L82,81.2811373140973L84,69.24774610724056L86,64.32342514678817L88,64.51484157814846L90,58.417392342835115L92,59.06274069056772L94,57.45127882113215L96,60.342108112046965L98,58.606428248330886L100,54.10181422754067L102,54.150139624801746L104,67.30025965148815L106,70.9447034462689L108,67.34597951983832L110,80.17660017733911L112,79.7039102435755L114,77.6624226197986L116,82.92060723948835L118,83.90609195845896L120,86.83314888532219L122,89.78876487464638L124,85.72735551331212L126,92.48404555459912L128,95.458855191682L128,88.4245602148235L126,84.44334892506048L124,74.29470099652245L122,78.1119492887311L120,74.99800030344579L118,73.06102022555886L116,74.87096987835959L114,68.63431879055003L112,71.95366099501835L110,68.15284621876202L108,58.140908615664316L106,60.70134708411459L104,57.11242975148033L102,42.00270888605625L100,43.44666911122504L98,48.20569909281442L96,48.157573102596864L94,48.90642615630786L92,48.561256296964956L90,51.50968890119825L88,54.12244866934783L86,55.36000220991703L84,56.96964140575439L82,72.96179842573696L80,68.09984922342704L78,77.66006634288453L76,76.67408553484037L74,78.25271744117921L72,76.54638384252289L70,78.89305600199329L68,77.99151467862077L66,83.60070112954513L64,74.69542806632188L62,82.05494271534451L60,74.88454982387395L58,69.0561011904762L56,78.86019219977554L54,67.96396404521406L52,78.106096054794L50,45.45098930776012L48,55.46181244488538L46,42.88348765432097L44,48.976523919753106L42,49.18550071649031L40,45.76004364077283L38,41.10510223765436L36,41.025983796296316L34,35.61979813664594L32,32.35196687370601L30,35.44720496894412L28,33.02473257418914L26,32.697153209109786L24,78.51559265010351L22,76.57736801242235L20,80.21343167701862L18,83.78618875086265L16,75.46100759144238L14,77.31366459627328L12,82.06418219461699L10,82.41856452726017L8,81.71406142167012L6,85.74258109040716L4,79.89521652864045L2,83.83160800552105L0,30.69444444444445Z" fill="#687B3E" opacity="0.3"></path></g></g><path class="foreground" aria-hidden="true" d="" display="none"></path></g></g><g class="mark-rule role-mark child_layer_0_layer_1_marks" clip-path="url(#clip3)" role="graphics-object" aria-roledescription="rule mark container"><line aria-label="Mean of chance: 0.5" role="graphics-symbol" aria-roledescription="rule mark" transform="translate(128,65)" x2="-128" y2="0" stroke="black" stroke-width="1" stroke-dasharray="2,2"></line></g><g class="mark-area role-mark child_layer_1_marks" role="graphics-object" aria-roledescription="area mark container"><path aria-label="P(target): 0.116873355881; time: -2" role="graphics-symbol" aria-roledescription="area mark" d="M0,114.8064637354378L0,110L2,111.28898910184142L2,103.33333333333334L4,111.28898910184142L4,103.33333333333334L6,112.46148064637354L6,103.33333333333334L8,114.8064637354378L8,110L10,115.97895527996994L10,110L12,117.10259301014656L12,110L14,118.37988826815642L14,117L16,118.48283499446289L16,117.31707317073172L18,119.72557628979143L18,120.71428571428572L20,122.14670981661273L20,120.93023255813954L22,123.38282078472957L22,124.22222222222223L24,123.38282078472957L24,130L26,118.97136797454931L26,124.22222222222223L28,113.50300459526335L28,115.55555555555554L30,112.40014139271827L30,115.55555555555554L32,113.7782412234967L32,115.8695652173913L34,115.23228212953543L34,115.8695652173913L36,115.14167462591531L36,116.45833333333334L38,116.4803012746234L38,117.96296296296296L40,115.96674182638107L40,115.55555555555554L42,115.08737316798197L42,113.14814814814815L44,113.21509648127129L44,110.74074074074075L46,115.87116912599319L46,113.14814814814815L48,117.55714285714285L48,115.55555555555554L50,120.12658227848102L50,122.77777777777777L52,116.53624856156502L52,120.37037037037037L54,112.7071178529755L54,112.83018867924528L56,112.58519388954171L56,112.5L58,107.68772348033373L58,110L60,107.68772348033373L60,110L62,106.24847746650427L62,111.8L64,109.98075072184793L64,114.08163265306122L66,110.10427177934746L66,113.40425531914894L68,109.44038929440389L68,112.27272727272728L70,112.44977088473739L70,112L72,114.2038447587958L72,111.42857142857143L74,110.64032199048664L74,104.63414634146342L76,113.63397219090567L76,113.33333333333333L78,117.03450891164202L78,116.66666666666667L80,113.4850208570345L80,106.66666666666666L82,113.4850208570345L82,106.66666666666666L84,113.4850208570345L84,106.66666666666666L86,113.43572241183162L86,106.66666666666666L88,113.43572241183162L88,110L90,109.70149253731344L90,106.66666666666666L92,109.51332560834298L92,106.05263157894737L94,109.12632821723732L94,108.33333333333334L96,112.64600715137068L96,111.42857142857143L98,113.41104294478527L98,114.70588235294117L100,114.38047559449312L100,117.8125L102,116.15794143744453L102,121.61290322580646L104,114.27131072410631L104,121.61290322580646L106,113.73459715639811L106,117L108,113.35596508244421L108,117L110,119.98930481283422L110,125.18518518518519L112,114.38264738598444L112,109.2L114,106.82285714285715L114,97.5L116,106.82285714285715L116,97.5L118,103.25714285714285L118,97.5L120,99.69142857142857L120,92.08333333333333L122,94.41714285714286L122,86.66666666666667L124,90.85142857142857L124,86.66666666666667L126,93.92236384704519L126,90.43478260869566L128,94.7497020262217L128,90.43478260869566L128,130L128,130L126,130L126,130L124,130L124,130L122,130L122,130L120,130L120,130L118,130L118,130L116,130L116,130L114,130L114,130L112,130L112,130L110,130L110,130L108,130L108,130L106,130L106,130L104,130L104,130L102,130L102,130L100,130L100,130L98,130L98,130L96,130L96,130L94,130L94,130L92,130L92,130L90,130L90,130L88,130L88,130L86,130L86,130L84,130L84,130L82,130L82,130L80,130L80,130L78,130L78,130L76,130L76,130L74,130L74,130L72,130L72,130L70,130L70,130L68,130L68,130L66,130L66,130L64,130L64,130L62,130L62,130L60,130L60,130L58,130L58,130L56,130L56,130L54,130L54,130L52,130L52,130L50,130L50,130L48,130L48,130L46,130L46,130L44,130L44,130L42,130L42,130L40,130L40,130L38,130L38,130L36,130L36,130L34,130L34,130L32,130L32,130L30,130L30,130L28,130L28,130L26,130L26,130L24,130L24,130L22,130L22,130L20,130L20,130L18,130L18,130L16,130L16,130L14,130L14,130L12,130L12,130L10,130L10,130L8,130L8,130L6,130L6,130L4,130L4,130L2,130L2,130L0,130L0,130Z" fill="black" opacity="0.3"></path></g></g><path class="foreground" aria-hidden="true" d="" display="none"></path></g><g transform="translate(139,137)"><path class="background" aria-hidden="true" d="M0.5,0.5h128v130h-128Z" stroke="#ddd"></path><g><g class="mark-group role-axis" aria-hidden="true"><g transform="translate(0.5,130.5)"><path class="background" aria-hidden="true" d="M0,0h0v0h0Z" pointer-events="none"></path><g><g class="mark-rule role-axis-grid" pointer-events="none"><line transform="translate(0,-130)" x2="0" y2="130" stroke="#ddd" stroke-width="1" opacity="1"></line><line transform="translate(43,-130)" x2="0" y2="130" stroke="#ddd" stroke-width="1" opacity="1"></line><line transform="translate(85,-130)" x2="0" y2="130" stroke="#ddd" stroke-width="1" opacity="1"></line><line transform="translate(128,-130)" x2="0" y2="130" stroke="#ddd" stroke-width="1" opacity="1"></line></g></g><path class="foreground" aria-hidden="true" d="" pointer-events="none" display="none"></path></g></g><g class="mark-group role-axis" aria-hidden="true"><g transform="translate(0.5,0.5)"><path class="background" aria-hidden="true" d="M0,0h0v0h0Z" pointer-events="none"></path><g><g class="mark-rule role-axis-grid" pointer-events="none"><line transform="translate(0,130)" x2="128" y2="0" stroke="#ddd" stroke-width="1" opacity="1"></line><line transform="translate(0,104)" x2="128" y2="0" stroke="#ddd" stroke-width="1" opacity="1"></line><line transform="translate(0,78)" x2="128" y2="0" stroke="#ddd" stroke-width="1" opacity="1"></line><line transform="translate(0,52)" x2="128" y2="0" stroke="#ddd" stroke-width="1" opacity="1"></line><line transform="translate(0,26)" x2="128" y2="0" stroke="#ddd" stroke-width="1" opacity="1"></line><line transform="translate(0,0)" x2="128" y2="0" stroke="#ddd" stroke-width="1" opacity="1"></line></g></g><path class="foreground" aria-hidden="true" d="" pointer-events="none" display="none"></path></g></g><g class="mark-group role-scope child_layer_0_layer_0_layer_0_pathgroup" role="graphics-object" aria-roledescription="group mark container"><g transform="translate(0,0)"><path class="background" aria-hidden="true" d="M0,0h128v130h-128Z"></path><g><g class="mark-line role-mark child_layer_0_layer_0_layer_0_marks" role="graphics-object" aria-roledescription="line mark container"><path aria-label="Condition: global; Time from Switch offset (s): -2; P(Correct): 0.540503874991" role="graphics-symbol" aria-roledescription="line mark" d="M0,59.734496251144506L2,65.25491398761346L4,63.95183620211409L6,63.258150235509746L8,61.623737001704626L10,59.294389627865456L12,59.67372324812995L14,58.05585416269678L16,55.257858806599906L18,56.11711612324276L20,57.676813062104834L22,58.00240045923951L24,59.736253650684304L26,63.993463921279194L28,65.81893417852369L30,68.55182095446229L32,71.37941101302826L34,73.87783961399496L36,76.11020839817766L38,77.8322027413394L40,80.08189350250908L42,83.97621437240524L44,84.05488504532192L46,82.81379910144624L48,82.10997152853173L50,80.04634605053387L52,67.80181912830838L54,67.8813859081485L56,67.29979818326339L58,66.29782434027322L60,66.57581135993286L62,64.60233118363567L64,63.38639649000392L66,61.9744581683458L68,58.25833891008783L70,56.78788367770255L72,51.53960112793625L74,50.57617768939129L76,50.04991016005054L78,86.17311195640251L80,87.02916803469142L82,85.29677626377311L84,85.90827138219937L86,81.47888846056975L88,84.07628638128463L90,81.2497692943147L92,82.67061388156996L94,83.15924701793155L96,81.57602438438217L98,81.75167631128889L100,83.19462078903092L102,79.59422265494892L104,83.62405426351827L106,83.74052632416603L108,82.34584936668269L110,84.95783730158729L112,88.83333333333333L114,92.29398148148147L116,88.68287037037037L118,90.72916666666667L120,91.30092592592592L122,87.7800925925926L124,90.72916666666666L126,77.78935185185183L128,67.28070175438597" stroke="#0F3C5F" stroke-width="2" stroke-linejoin="round"></path></g></g><path class="foreground" aria-hidden="true" d="" display="none"></path></g><g transform="translate(0,0)"><path class="background" aria-hidden="true" d="M0,0h128v130h-128Z"></path><g><g class="mark-line role-mark child_layer_0_layer_0_layer_0_marks" role="graphics-object" aria-roledescription="line mark container"><path aria-label="Condition: spatial; Time from Switch offset (s): -2; P(Correct): 0.520403405035" role="graphics-symbol" aria-roledescription="line mark" d="M0,62.34755734543054L2,71.38713216127297L4,70.82559259825874L6,71.16583653935098L8,69.57246942129906L10,65.21099862767502L12,61.91156236989623L14,60.39914935194977L16,56.313625542914735L18,56.95935363900461L20,59.22397413639349L22,63.29610268421237L24,65.71642658890815L26,68.79763062407329L28,66.98666478847886L30,66.4494395122917L32,67.0528474773427L34,67.65102670207413L36,77.05007587508298L38,77.24664548973398L40,78.15882795381049L42,86.42402702856117L44,84.75974564945983L46,82.20914292950292L48,80.70984645120674L50,76.63332829033614L52,73.34505139110401L54,76.5749659291326L56,77.43023991821146L58,75.29715778768688L60,72.4549259710838L62,68.30410714813125L64,69.44155448596236L66,66.46018771676665L68,63.59118466410134L70,61.94683942600607L72,51.14470598845599L74,47.956369248035905L76,48.73623136123137L78,93.30338103254769L80,93.99030483405483L82,90.95811788520122L84,95.56026535193203L86,87.56872795414462L88,86.41517857142857L90,84.43121693121694L92,85.31464947089947L94,87.6016865079365L96,81.2650462962963L98,84.25710978835978L100,79.48313492063494L102,90.71626984126983L104,93.5492724867725L106,88.65707671957672L108,90.18357487922705L110,100.75L112,108.33333333333334L114,89.76190476190476L116,77.38095238095237L118,99.04761904761904L120,92.85714285714286L122,77.38095238095237L124,95.95238095238096" stroke="#687B3E" stroke-width="2" stroke-linejoin="round"></path></g></g><path class="foreground" aria-hidden="true" d="" display="none"></path></g></g><g class="mark-group role-scope child_layer_0_layer_0_layer_1_layer_0_pathgroup" role="graphics-object" aria-roledescription="group mark container"><g transform="translate(0,0)"><path class="background" aria-hidden="true" d="M0,0h128v130h-128Z"></path><g><g class="mark-area role-mark child_layer_0_layer_0_layer_1_layer_0_marks" role="graphics-object" aria-roledescription="area mark container"><path aria-label=": 0.526278533393; upper_lower: 0.55544466375; Condition: global; Time from Switch offset (s): -2; upper: 0.55544466375; lower: 0.526278533393" role="graphics-symbol" aria-roledescription="errorband" d="M0,61.583790658913145L2,67.32135973606661L4,66.15316361202702L6,65.35767589859574L8,63.92530466241612L10,61.32567381406858L12,61.64516968659407L14,60.22895311645048L16,57.51191231552065L18,58.534282195474745L20,59.69831895942598L22,59.92878727297865L24,61.444332742484704L26,65.64134303570967L28,67.37594492945796L30,70.08215135941558L32,73.1895219305898L34,75.50022487920431L36,77.99268068131822L38,79.4420560044144L40,82.20707587710488L42,85.35258910387456L44,85.61657567941127L46,85.09991010914023L48,84.26946759619437L50,82.69910824514747L52,69.86661122433543L54,69.82144600211204L56,68.84818504126889L58,67.91880532840071L60,68.3395370807332L62,66.88958724144683L64,65.79932040503472L66,64.86771937391619L68,60.61610047655354L70,59.01401066412547L72,53.90273357695329L74,53.001150312009734L76,52.25177880625972L78,88.57569442118239L80,89.75953611611888L82,88.52391030291346L84,89.18895835490125L86,83.99872644474932L88,86.93093517851153L90,83.7755841279563L92,84.97603815804696L94,85.61270190352151L96,84.25327710523445L98,85.5379773408049L100,86.16177108104874L102,83.21476558490114L104,87.67942957245033L106,87.0060151143791L108,86.75416441197692L110,90.02225942460318L112,94.79166666666664L114,98.91510416666665L116,95.06250000000003L118,96.3572337962963L120,99.27546296296296L122,96.11574074074075L124,96.80787037037037L126,87.71990740740739L128,77.54385964912282L128,55.87719298245616L126,67.85879629629629L124,84.8611111111111L122,79.50387731481483L120,83.3263888888889L118,85.37268518518519L116,81.82100694444446L114,85.79398148148148L112,82.45370370370368L110,80.25904017857144L108,78.16206133758216L106,80.57407977711289L104,79.4985665629556L102,75.98439204842515L100,80.21857211425865L98,78.1316184461668L96,78.95730198309182L94,80.53814795801202L92,80.5361557982264L90,78.73325313167027L88,81.43279718393042L86,79.06049083368521L84,82.6966676444269L82,82.1922346400335L80,84.34247835141929L78,83.84576143725585L76,47.78896557862724L74,48.157196851438734L72,49.239534385974146L70,54.72922017193077L68,55.89282475420247L66,59.28827707332186L64,60.91471527844884L62,62.5365971162876L60,64.89714350597417L58,64.58091239729221L56,65.4838041362867L54,66.11449990578753L52,65.81760167669762L50,77.43985050072631L48,79.92343975299873L46,80.5228825456656L44,82.39649115633391L42,82.72880796584242L40,77.96160757515591L38,76.17409675327285L36,74.24345220087196L34,72.2200377791686L32,69.64033072740456L30,66.97318109245955L28,64.19690163156154L26,62.156955377152734L24,57.981163053011024L22,55.98769851694777L20,55.83788125751373L18,53.84416635629533L16,52.85824200630812L14,55.85087348511343L12,57.624843228761016L10,57.223910898868766L8,59.37557001072542L6,61.17715273468316L4,61.75860087466749L2,63.10077264385852L0,57.79219371244202Z" fill="#0F3C5F" opacity="0.3"></path></g></g><path class="foreground" aria-hidden="true" d="" display="none"></path></g><g transform="translate(0,0)"><path class="background" aria-hidden="true" d="M0,0h128v130h-128Z"></path><g><g class="mark-area role-mark child_layer_0_layer_0_layer_1_layer_0_marks" role="graphics-object" aria-roledescription="area mark container"><path aria-label=": 0.478767207987; upper_lower: 0.56086999789; Condition: spatial; Time from Switch offset (s): -2; upper: 0.56086999789; lower: 0.478767207987" role="graphics-symbol" aria-roledescription="errorband" d="M0,67.76026296164858L2,74.43017078471873L4,74.64406433126132L6,74.12902497873164L8,74.21978701388534L10,68.00693078985833L12,65.20761075981976L14,64.28781153420913L16,61.40123142803184L18,60.952047195515895L20,62.96831628572814L22,68.68467735486573L24,70.30298173627489L26,72.51667293568342L28,71.5202153040558L30,70.02727321050044L32,72.06920005332132L34,71.63570719756238L36,81.82868434001101L38,81.21902283581377L40,81.53215428939049L42,91.0659771374863L44,89.12772746188276L46,87.05310776659395L48,85.84175269487005L50,81.20967914946525L52,78.2678928797285L54,80.29098913239538L56,82.69989923542245L58,81.59502570605811L60,78.21591130939822L62,75.1867731361495L64,75.21247150652302L66,71.85631139085082L68,70.91575996823393L70,69.01749870981638L72,58.57437006473465L74,56.06907705527495L76,57.30550369769121L78,102.12091437690397L80,100.7440547588985L82,101.7752569093715L84,103.0691162618246L86,94.07239996693123L88,91.02584738756615L90,91.92029596560846L92,91.57466104497354L94,94.84341517857143L96,90.4605365410053L98,92.47029183201059L100,89.32341269841272L102,100.03239914021165L104,103.29164186507936L106,99.51631117724868L108,97.46859903381643L110,113.75000000000001L112,126.9047619047619L114,105.23809523809524L116,92.85714285714285L118,111.42857142857143L120,108.33333333333333L122,102.14285714285711L124,111.42857142857142L124,80.47619047619048L122,55.71428571428569L120,77.38095238095238L118,86.66666666666667L116,61.904761904761884L114,74.28571428571429L112,92.85714285714286L110,88.83333333333334L108,83.08695652173914L106,79.84424603174605L104,84.3452380952381L102,81.76576554232805L100,71.45260416666669L98,75.99857390873017L96,72.67350363756614L94,80.54260912698412L92,79.53253692680778L90,77.78215112433864L88,82.2859912367725L86,81.01497326940036L84,88.62542087542089L82,82.43374782046658L80,87.79786969396345L78,85.13872504810004L76,40.476866131553656L74,39.890030513468L72,43.66018155262947L70,54.91491458483642L68,55.862031713464035L66,60.792216309924605L64,63.922571211277344L62,61.77706170611185L60,67.01507368831005L58,69.4176463623621L56,72.61616425816594L54,72.54713184674121L52,68.68822767843179L50,72.00591702916988L48,75.47912003290374L46,77.3974595704081L44,80.44336234881949L42,82.05992064132857L40,74.9896012046313L38,73.4752621831797L36,72.73915377849438L34,63.92750131890486L32,62.329911445189424L30,62.32043164462527L28,62.225178261292264L26,65.03716070260624L24,60.9803137767242L22,57.96943771464399L20,55.28045576993522L18,53.03240697070516L16,51.38548857982087L14,56.476128998339206L12,58.510904572224554L10,62.346862637878374L8,64.57147197591507L6,68.27263061603406L4,66.80428785391658L2,68.20781398253392L0,57.086900274264806Z" fill="#687B3E" opacity="0.3"></path></g></g><path class="foreground" aria-hidden="true" d="" display="none"></path></g></g><g class="mark-rule role-mark child_layer_0_layer_1_marks" clip-path="url(#clip4)" role="graphics-object" aria-roledescription="rule mark container"><line aria-label="Mean of chance: 0.5" role="graphics-symbol" aria-roledescription="rule mark" transform="translate(128,65)" x2="-128" y2="0" stroke="black" stroke-width="1" stroke-dasharray="2,2"></line></g><g class="mark-area role-mark child_layer_1_marks" role="graphics-object" aria-roledescription="area mark container"><path aria-label="P(target): 0.116873355881; time: -2" role="graphics-symbol" aria-roledescription="area mark" d="M0,114.8064637354378L0,110L2,111.28898910184142L2,103.33333333333334L4,111.28898910184142L4,103.33333333333334L6,112.46148064637354L6,103.33333333333334L8,114.8064637354378L8,110L10,115.97895527996994L10,110L12,117.10259301014656L12,110L14,118.37988826815642L14,117L16,118.48283499446289L16,117.31707317073172L18,119.72557628979143L18,120.71428571428572L20,122.14670981661273L20,120.93023255813954L22,123.38282078472957L22,124.22222222222223L24,123.38282078472957L24,130L26,118.97136797454931L26,124.22222222222223L28,113.50300459526335L28,115.55555555555554L30,112.40014139271827L30,115.55555555555554L32,113.7782412234967L32,115.8695652173913L34,115.23228212953543L34,115.8695652173913L36,115.14167462591531L36,116.45833333333334L38,116.4803012746234L38,117.96296296296296L40,115.96674182638107L40,115.55555555555554L42,115.08737316798197L42,113.14814814814815L44,113.21509648127129L44,110.74074074074075L46,115.87116912599319L46,113.14814814814815L48,117.55714285714285L48,115.55555555555554L50,120.12658227848102L50,122.77777777777777L52,116.53624856156502L52,120.37037037037037L54,112.7071178529755L54,112.83018867924528L56,112.58519388954171L56,112.5L58,107.68772348033373L58,110L60,107.68772348033373L60,110L62,106.24847746650427L62,111.8L64,109.98075072184793L64,114.08163265306122L66,110.10427177934746L66,113.40425531914894L68,109.44038929440389L68,112.27272727272728L70,112.44977088473739L70,112L72,114.2038447587958L72,111.42857142857143L74,110.64032199048664L74,104.63414634146342L76,113.63397219090567L76,113.33333333333333L78,117.03450891164202L78,116.66666666666667L80,113.4850208570345L80,106.66666666666666L82,113.4850208570345L82,106.66666666666666L84,113.4850208570345L84,106.66666666666666L86,113.43572241183162L86,106.66666666666666L88,113.43572241183162L88,110L90,109.70149253731344L90,106.66666666666666L92,109.51332560834298L92,106.05263157894737L94,109.12632821723732L94,108.33333333333334L96,112.64600715137068L96,111.42857142857143L98,113.41104294478527L98,114.70588235294117L100,114.38047559449312L100,117.8125L102,116.15794143744453L102,121.61290322580646L104,114.27131072410631L104,121.61290322580646L106,113.73459715639811L106,117L108,113.35596508244421L108,117L110,119.98930481283422L110,125.18518518518519L112,114.38264738598444L112,109.2L114,106.82285714285715L114,97.5L116,106.82285714285715L116,97.5L118,103.25714285714285L118,97.5L120,99.69142857142857L120,92.08333333333333L122,94.41714285714286L122,86.66666666666667L124,90.85142857142857L124,86.66666666666667L126,93.92236384704519L128,94.7497020262217L128,130L126,130L124,130L124,130L122,130L122,130L120,130L120,130L118,130L118,130L116,130L116,130L114,130L114,130L112,130L112,130L110,130L110,130L108,130L108,130L106,130L106,130L104,130L104,130L102,130L102,130L100,130L100,130L98,130L98,130L96,130L96,130L94,130L94,130L92,130L92,130L90,130L90,130L88,130L88,130L86,130L86,130L84,130L84,130L82,130L82,130L80,130L80,130L78,130L78,130L76,130L76,130L74,130L74,130L72,130L72,130L70,130L70,130L68,130L68,130L66,130L66,130L64,130L64,130L62,130L62,130L60,130L60,130L58,130L58,130L56,130L56,130L54,130L54,130L52,130L52,130L50,130L50,130L48,130L48,130L46,130L46,130L44,130L44,130L42,130L42,130L40,130L40,130L38,130L38,130L36,130L36,130L34,130L34,130L32,130L32,130L30,130L30,130L28,130L28,130L26,130L26,130L24,130L24,130L22,130L22,130L20,130L20,130L18,130L18,130L16,130L16,130L14,130L14,130L12,130L12,130L10,130L10,130L8,130L8,130L6,130L6,130L4,130L4,130L2,130L2,130L0,130L0,130Z" fill="black" opacity="0.3"></path></g></g><path class="foreground" aria-hidden="true" d="" display="none"></path></g></g><g class="mark-group role-legend" role="graphics-symbol" aria-roledescription="legend" aria-label="Symbol legend titled 'Condition' for fill color and stroke color with 3 values: global, spatial, object"><g transform="translate(306,0)"><path class="background" aria-hidden="true" d="M0,0h61v61h-61Z" pointer-events="none"></path><g><g class="mark-group role-legend-entry"><g transform="translate(0,16)"><path class="background" aria-hidden="true" d="M0,0h0v0h0Z" pointer-events="none"></path><g><g class="mark-group role-scope" role="graphics-object" aria-roledescription="group mark container"><g transform="translate(0,0)"><path class="background" aria-hidden="true" d="M0,0h49v12.5h-49Z" pointer-events="none" opacity="1"></path><g><g class="mark-symbol role-legend-symbol" pointer-events="none"><path transform="translate(6,6)" d="M5,0A5,5,0,1,1,-5,0A5,5,0,1,1,5,0" fill="#0F3C5F" stroke="#0F3C5F" stroke-width="1.5" opacity="0.3"></path></g><g class="mark-text role-legend-label" pointer-events="none"><text text-anchor="start" transform="translate(16,9)" font-family="sans-serif" font-size="10px" fill="#000" opacity="1">global</text></g></g><path class="foreground" aria-hidden="true" d="" pointer-events="none" display="none"></path></g><g transform="translate(0,16)"><path class="background" aria-hidden="true" d="M0,0h49v12.5h-49Z" pointer-events="none" opacity="1"></path><g><g class="mark-symbol role-legend-symbol" pointer-events="none"><path transform="translate(6,6)" d="M5,0A5,5,0,1,1,-5,0A5,5,0,1,1,5,0" fill="#687B3E" stroke="#687B3E" stroke-width="1.5" opacity="0.3"></path></g><g class="mark-text role-legend-label" pointer-events="none"><text text-anchor="start" transform="translate(16,9)" font-family="sans-serif" font-size="10px" fill="#000" opacity="1">spatial</text></g></g><path class="foreground" aria-hidden="true" d="" pointer-events="none" display="none"></path></g><g transform="translate(0,32)"><path class="background" aria-hidden="true" d="M0,0h49v12.5h-49Z" pointer-events="none" opacity="1"></path><g><g class="mark-symbol role-legend-symbol" pointer-events="none"><path transform="translate(6,6)" d="M5,0A5,5,0,1,1,-5,0A5,5,0,1,1,5,0" fill="#EB9A60" stroke="#EB9A60" stroke-width="1.5" opacity="0.3"></path></g><g class="mark-text role-legend-label" pointer-events="none"><text text-anchor="start" transform="translate(16,9)" font-family="sans-serif" font-size="10px" fill="#000" opacity="1">object</text></g></g><path class="foreground" aria-hidden="true" d="" pointer-events="none" display="none"></path></g></g></g><path class="foreground" aria-hidden="true" d="" pointer-events="none" display="none"></path></g></g><g class="mark-text role-legend-title" pointer-events="none"><text text-anchor="start" transform="translate(0,9)" font-family="sans-serif" font-size="11px" font-weight="bold" fill="#000" opacity="1">Condition</text></g></g><path class="foreground" aria-hidden="true" d="" pointer-events="none" display="none"></path></g></g></g><path class="foreground" aria-hidden="true" d="" display="none"></path></g></g></g></svg>
