<?xml version="1.0" encoding="utf-8"?>
<!DOCTYPE svg PUBLIC "-//W3C//DTD SVG 1.1//EN" "http://www.w3.org/Graphics/SVG/1.1/DTD/svg11.dtd">
<svg class="marks" width="527" height="393" viewBox="0 0 527 393" version="1.1" xmlns="http://www.w3.org/2000/svg" xmlns:xlink="http://www.w3.org/1999/xlink"><rect width="527" height="393" fill="white"></rect><g fill="none" stroke-miterlimit="10" transform="translate(106,34)"><g class="mark-group role-frame root" role="graphics-object" aria-roledescription="group mark container"><g transform="translate(0,0)"><path class="background" aria-hidden="true" d="M0,0h0v0h0Z"></path><g><g class="mark-group role-row-title row-title" role="graphics-object" aria-roledescription="group mark container"><g transform="translate(-79,157)"><path class="background" aria-hidden="true" d="M0,0h0v0h0Z"></path><g><g class="mark-group role-title"><g transform="translate(-21.000000000000007,0)"><path class="background" aria-hidden="true" d="M0,0h0v0h0Z" pointer-events="none"></path><g><g class="mark-text role-title-text" role="graphics-symbol" aria-roledescription="title" aria-label="Title text 'target_switch_label'" pointer-events="none"><text text-anchor="middle" transform="translate(0,0) rotate(-90) translate(0,9)" font-family="sans-serif" font-size="11px" font-weight="bold" fill="#000" opacity="1">target_switch_label</text></g></g><path class="foreground" aria-hidden="true" d="" pointer-events="none" display="none"></path></g></g></g><path class="foreground" aria-hidden="true" d="" display="none"></path></g></g><g class="mark-group role-row-header row_header" role="graphics-object" aria-roledescription="group mark container"><g transform="translate(-2,0)"><path class="background" aria-hidden="true" d="M0,0h0v130h0Z"></path><g><g class="mark-group role-axis" role="graphics-symbol" aria-roledescription="axis" aria-label="Y-axis titled 'Decoding Correlation' for a linear scale with values from -0.06 to 0.16"><g transform="translate(0.5,0.5)"><path class="background" aria-hidden="true" d="M0,0h0v0h0Z" pointer-events="none"></path><g><g class="mark-rule role-axis-tick" pointer-events="none"><line transform="translate(0,124)" x2="-5" y2="0" stroke="#888" stroke-width="1" opacity="1"></line><line transform="translate(0,95)" x2="-5" y2="0" stroke="#888" stroke-width="1" opacity="1"></line><line transform="translate(0,65)" x2="-5" y2="0" stroke="#888" stroke-width="1" opacity="1"></line><line transform="translate(0,35)" x2="-5" y2="0" stroke="#888" stroke-width="1" opacity="1"></line><line transform="translate(0,6)" x2="-5" y2="0" stroke="#888" stroke-width="1" opacity="1"></line></g><g class="mark-text role-axis-label" pointer-events="none"><text text-anchor="end" transform="translate(-7,127.0909090909091)" font-family="sans-serif" font-size="10px" fill="#000" opacity="1">-0.05</text><text text-anchor="end" transform="translate(-7,97.54545454545455)" font-family="sans-serif" font-size="10px" fill="#000" opacity="1">0.00</text><text text-anchor="end" transform="translate(-7,68)" font-family="sans-serif" font-size="10px" fill="#000" opacity="1">0.05</text><text text-anchor="end" transform="translate(-7,38.45454545454545)" font-family="sans-serif" font-size="10px" fill="#000" opacity="1">0.10</text><text text-anchor="end" transform="translate(-7,8.909090909090917)" font-family="sans-serif" font-size="10px" fill="#000" opacity="1">0.15</text></g><g class="mark-rule role-axis-domain" pointer-events="none"><line transform="translate(0,130)" x2="0" y2="-130" stroke="#888" stroke-width="1" opacity="1"></line></g><g class="mark-text role-axis-title" pointer-events="none"><text text-anchor="middle" transform="translate(-36,65) rotate(-90) translate(0,-2)" font-family="sans-serif" font-size="11px" font-weight="bold" fill="#000" opacity="1">Decoding Correlation</text></g></g><path class="foreground" aria-hidden="true" d="" pointer-events="none" display="none"></path></g></g><g class="mark-group role-title"><g transform="translate(-67,65)"><path class="background" aria-hidden="true" d="M0,0h0v0h0Z" pointer-events="none"></path><g><g class="mark-text role-title-text" role="graphics-symbol" aria-roledescription="title" aria-label="Title text 'near'" pointer-events="none"><text text-anchor="middle" transform="translate(0,0) rotate(-90) translate(0,8)" font-family="sans-serif" font-size="10px" fill="#000" opacity="1">near</text></g></g><path class="foreground" aria-hidden="true" d="" pointer-events="none" display="none"></path></g></g></g><path class="foreground" aria-hidden="true" d="" display="none"></path></g><g transform="translate(-2,175)"><path class="background" aria-hidden="true" d="M0,0h0v130h0Z"></path><g><g class="mark-group role-axis" role="graphics-symbol" aria-roledescription="axis" aria-label="Y-axis titled 'Decoding Correlation' for a linear scale with values from -0.06 to 0.16"><g transform="translate(0.5,0.5)"><path class="background" aria-hidden="true" d="M0,0h0v0h0Z" pointer-events="none"></path><g><g class="mark-rule role-axis-tick" pointer-events="none"><line transform="translate(0,124)" x2="-5" y2="0" stroke="#888" stroke-width="1" opacity="1"></line><line transform="translate(0,95)" x2="-5" y2="0" stroke="#888" stroke-width="1" opacity="1"></line><line transform="translate(0,65)" x2="-5" y2="0" stroke="#888" stroke-width="1" opacity="1"></line><line transform="translate(0,35)" x2="-5" y2="0" stroke="#888" stroke-width="1" opacity="1"></line><line transform="translate(0,6)" x2="-5" y2="0" stroke="#888" stroke-width="1" opacity="1"></line></g><g class="mark-text role-axis-label" pointer-events="none"><text text-anchor="end" transform="translate(-7,127.0909090909091)" font-family="sans-serif" font-size="10px" fill="#000" opacity="1">-0.05</text><text text-anchor="end" transform="translate(-7,97.54545454545455)" font-family="sans-serif" font-size="10px" fill="#000" opacity="1">0.00</text><text text-anchor="end" transform="translate(-7,68)" font-family="sans-serif" font-size="10px" fill="#000" opacity="1">0.05</text><text text-anchor="end" transform="translate(-7,38.45454545454545)" font-family="sans-serif" font-size="10px" fill="#000" opacity="1">0.10</text><text text-anchor="end" transform="translate(-7,8.909090909090917)" font-family="sans-serif" font-size="10px" fill="#000" opacity="1">0.15</text></g><g class="mark-rule role-axis-domain" pointer-events="none"><line transform="translate(0,130)" x2="0" y2="-130" stroke="#888" stroke-width="1" opacity="1"></line></g><g class="mark-text role-axis-title" pointer-events="none"><text text-anchor="middle" transform="translate(-36,65) rotate(-90) translate(0,-2)" font-family="sans-serif" font-size="11px" font-weight="bold" fill="#000" opacity="1">Decoding Correlation</text></g></g><path class="foreground" aria-hidden="true" d="" pointer-events="none" display="none"></path></g></g><g class="mark-group role-title"><g transform="translate(-67,65)"><path class="background" aria-hidden="true" d="M0,0h0v0h0Z" pointer-events="none"></path><g><g class="mark-text role-title-text" role="graphics-symbol" aria-roledescription="title" aria-label="Title text 'far'" pointer-events="none"><text text-anchor="middle" transform="translate(0,0) rotate(-90) translate(0,8)" font-family="sans-serif" font-size="10px" fill="#000" opacity="1">far</text></g></g><path class="foreground" aria-hidden="true" d="" pointer-events="none" display="none"></path></g></g></g><path class="foreground" aria-hidden="true" d="" display="none"></path></g></g><g class="mark-group role-column-header column_header" role="graphics-object" aria-roledescription="group mark container"><g transform="translate(0,-9)"><path class="background" aria-hidden="true" d="M0,0h128v0h-128Z"></path><g><g class="mark-group role-title"><g transform="translate(64,-20)"><path class="background" aria-hidden="true" d="M0,0h0v0h0Z" pointer-events="none"></path><g><g class="mark-text role-title-text" role="graphics-symbol" aria-roledescription="title" aria-label="Title text 'Global'" pointer-events="none"><text text-anchor="middle" transform="translate(0,8)" font-family="sans-serif" font-size="10px" font-weight="bold" fill="#000" opacity="1">Global</text></g></g><path class="foreground" aria-hidden="true" d="" pointer-events="none" display="none"></path></g></g></g><path class="foreground" aria-hidden="true" d="" display="none"></path></g><g transform="translate(141,-9)"><path class="background" aria-hidden="true" d="M0,0h128v0h-128Z"></path><g><g class="mark-group role-title"><g transform="translate(64,-20)"><path class="background" aria-hidden="true" d="M0,0h0v0h0Z" pointer-events="none"></path><g><g class="mark-text role-title-text" role="graphics-symbol" aria-roledescription="title" aria-label="Title text 'Spatial'" pointer-events="none"><text text-anchor="middle" transform="translate(0,8)" font-family="sans-serif" font-size="10px" font-weight="bold" fill="#000" opacity="1">Spatial</text></g></g><path class="foreground" aria-hidden="true" d="" pointer-events="none" display="none"></path></g></g></g><path class="foreground" aria-hidden="true" d="" display="none"></path></g><g transform="translate(282,-9)"><path class="background" aria-hidden="true" d="M0,0h128v0h-128Z"></path><g><g class="mark-group role-title"><g transform="translate(64,-20)"><path class="background" aria-hidden="true" d="M0,0h0v0h0Z" pointer-events="none"></path><g><g class="mark-text role-title-text" role="graphics-symbol" aria-roledescription="title" aria-label="Title text 'Object'" pointer-events="none"><text text-anchor="middle" transform="translate(0,8)" font-family="sans-serif" font-size="10px" font-weight="bold" fill="#000" opacity="1">Object</text></g></g><path class="foreground" aria-hidden="true" d="" pointer-events="none" display="none"></path></g></g></g><path class="foreground" aria-hidden="true" d="" display="none"></path></g></g><g class="mark-group role-column-footer column_footer" role="graphics-object" aria-roledescription="group mark container"><g transform="translate(0,322)"><path class="background" aria-hidden="true" d="M0,0h128v0h-128Z"></path><g><g class="mark-group role-axis" role="graphics-symbol" aria-roledescription="axis" aria-label="X-axis titled 'Time (s)' for a linear scale with values from -1.0 to 2.5"><g transform="translate(0.5,0.5)"><path class="background" aria-hidden="true" d="M0,0h0v0h0Z" pointer-events="none"></path><g><g class="mark-rule role-axis-tick" pointer-events="none"><line transform="translate(0,0)" x2="0" y2="5" stroke="#888" stroke-width="1" opacity="1"></line><line transform="translate(37,0)" x2="0" y2="5" stroke="#888" stroke-width="1" opacity="1"></line><line transform="translate(73,0)" x2="0" y2="5" stroke="#888" stroke-width="1" opacity="1"></line><line transform="translate(110,0)" x2="0" y2="5" stroke="#888" stroke-width="1" opacity="1"></line></g><g class="mark-text role-axis-label" pointer-events="none"><text text-anchor="start" transform="translate(0,15)" font-family="sans-serif" font-size="10px" fill="#000" opacity="1">-1</text><text text-anchor="middle" transform="translate(36.57142857142857,15)" font-family="sans-serif" font-size="10px" fill="#000" opacity="1">0</text><text text-anchor="middle" transform="translate(73.14285714285714,15)" font-family="sans-serif" font-size="10px" fill="#000" opacity="1">1</text><text text-anchor="middle" transform="translate(109.71428571428571,15)" font-family="sans-serif" font-size="10px" fill="#000" opacity="1">2</text></g><g class="mark-rule role-axis-domain" pointer-events="none"><line transform="translate(0,0)" x2="128" y2="0" stroke="#888" stroke-width="1" opacity="1"></line></g><g class="mark-text role-axis-title" pointer-events="none"><text text-anchor="middle" transform="translate(64,30)" font-family="sans-serif" font-size="11px" font-weight="bold" fill="#000" opacity="1">Time (s)</text></g></g><path class="foreground" aria-hidden="true" d="" pointer-events="none" display="none"></path></g></g></g><path class="foreground" aria-hidden="true" d="" display="none"></path></g><g transform="translate(141,322)"><path class="background" aria-hidden="true" d="M0,0h128v0h-128Z"></path><g><g class="mark-group role-axis" role="graphics-symbol" aria-roledescription="axis" aria-label="X-axis titled 'Time (s)' for a linear scale with values from -1.0 to 2.5"><g transform="translate(0.5,0.5)"><path class="background" aria-hidden="true" d="M0,0h0v0h0Z" pointer-events="none"></path><g><g class="mark-rule role-axis-tick" pointer-events="none"><line transform="translate(0,0)" x2="0" y2="5" stroke="#888" stroke-width="1" opacity="1"></line><line transform="translate(37,0)" x2="0" y2="5" stroke="#888" stroke-width="1" opacity="1"></line><line transform="translate(73,0)" x2="0" y2="5" stroke="#888" stroke-width="1" opacity="1"></line><line transform="translate(110,0)" x2="0" y2="5" stroke="#888" stroke-width="1" opacity="1"></line></g><g class="mark-text role-axis-label" pointer-events="none"><text text-anchor="start" transform="translate(0,15)" font-family="sans-serif" font-size="10px" fill="#000" opacity="1">-1</text><text text-anchor="middle" transform="translate(36.57142857142857,15)" font-family="sans-serif" font-size="10px" fill="#000" opacity="1">0</text><text text-anchor="middle" transform="translate(73.14285714285714,15)" font-family="sans-serif" font-size="10px" fill="#000" opacity="1">1</text><text text-anchor="middle" transform="translate(109.71428571428571,15)" font-family="sans-serif" font-size="10px" fill="#000" opacity="1">2</text></g><g class="mark-rule role-axis-domain" pointer-events="none"><line transform="translate(0,0)" x2="128" y2="0" stroke="#888" stroke-width="1" opacity="1"></line></g><g class="mark-text role-axis-title" pointer-events="none"><text text-anchor="middle" transform="translate(64,30)" font-family="sans-serif" font-size="11px" font-weight="bold" fill="#000" opacity="1">Time (s)</text></g></g><path class="foreground" aria-hidden="true" d="" pointer-events="none" display="none"></path></g></g></g><path class="foreground" aria-hidden="true" d="" display="none"></path></g><g transform="translate(282,322)"><path class="background" aria-hidden="true" d="M0,0h128v0h-128Z"></path><g><g class="mark-group role-axis" role="graphics-symbol" aria-roledescription="axis" aria-label="X-axis titled 'Time (s)' for a linear scale with values from -1.0 to 2.5"><g transform="translate(0.5,0.5)"><path class="background" aria-hidden="true" d="M0,0h0v0h0Z" pointer-events="none"></path><g><g class="mark-rule role-axis-tick" pointer-events="none"><line transform="translate(0,0)" x2="0" y2="5" stroke="#888" stroke-width="1" opacity="1"></line><line transform="translate(37,0)" x2="0" y2="5" stroke="#888" stroke-width="1" opacity="1"></line><line transform="translate(73,0)" x2="0" y2="5" stroke="#888" stroke-width="1" opacity="1"></line><line transform="translate(110,0)" x2="0" y2="5" stroke="#888" stroke-width="1" opacity="1"></line></g><g class="mark-text role-axis-label" pointer-events="none"><text text-anchor="start" transform="translate(0,15)" font-family="sans-serif" font-size="10px" fill="#000" opacity="1">-1</text><text text-anchor="middle" transform="translate(36.57142857142857,15)" font-family="sans-serif" font-size="10px" fill="#000" opacity="1">0</text><text text-anchor="middle" transform="translate(73.14285714285714,15)" font-family="sans-serif" font-size="10px" fill="#000" opacity="1">1</text><text text-anchor="middle" transform="translate(109.71428571428571,15)" font-family="sans-serif" font-size="10px" fill="#000" opacity="1">2</text></g><g class="mark-rule role-axis-domain" pointer-events="none"><line transform="translate(0,0)" x2="128" y2="0" stroke="#888" stroke-width="1" opacity="1"></line></g><g class="mark-text role-axis-title" pointer-events="none"><text text-anchor="middle" transform="translate(64,30)" font-family="sans-serif" font-size="11px" font-weight="bold" fill="#000" opacity="1">Time (s)</text></g></g><path class="foreground" aria-hidden="true" d="" pointer-events="none" display="none"></path></g></g></g><path class="foreground" aria-hidden="true" d="" display="none"></path></g></g><g class="mark-group role-scope cell" role="graphics-object" aria-roledescription="group mark container"><g transform="translate(0,0)"><path class="background" aria-hidden="true" d="M0.5,0.5h128v130h-128Z" stroke="#ddd"></path><g><g class="mark-group role-axis" aria-hidden="true"><g transform="translate(0.5,130.5)"><path class="background" aria-hidden="true" d="M0,0h0v0h0Z" pointer-events="none"></path><g><g class="mark-rule role-axis-grid" pointer-events="none"><line transform="translate(0,-130)" x2="0" y2="130" stroke="#ddd" stroke-width="1" opacity="1"></line><line transform="translate(37,-130)" x2="0" y2="130" stroke="#ddd" stroke-width="1" opacity="1"></line><line transform="translate(73,-130)" x2="0" y2="130" stroke="#ddd" stroke-width="1" opacity="1"></line><line transform="translate(110,-130)" x2="0" y2="130" stroke="#ddd" stroke-width="1" opacity="1"></line></g></g><path class="foreground" aria-hidden="true" d="" pointer-events="none" display="none"></path></g></g><g class="mark-group role-axis" aria-hidden="true"><g transform="translate(0.5,0.5)"><path class="background" aria-hidden="true" d="M0,0h0v0h0Z" pointer-events="none"></path><g><g class="mark-rule role-axis-grid" pointer-events="none"><line transform="translate(0,124)" x2="128" y2="0" stroke="#ddd" stroke-width="1" opacity="1"></line><line transform="translate(0,95)" x2="128" y2="0" stroke="#ddd" stroke-width="1" opacity="1"></line><line transform="translate(0,65)" x2="128" y2="0" stroke="#ddd" stroke-width="1" opacity="1"></line><line transform="translate(0,35)" x2="128" y2="0" stroke="#ddd" stroke-width="1" opacity="1"></line><line transform="translate(0,6)" x2="128" y2="0" stroke="#ddd" stroke-width="1" opacity="1"></line></g></g><path class="foreground" aria-hidden="true" d="" pointer-events="none" display="none"></path></g></g><g class="mark-group role-scope child_layer_0_layer_0_pathgroup" role="graphics-object" aria-roledescription="group mark container"><g transform="translate(0,0)"><path class="background" aria-hidden="true" d="M0,0h128v130h-128Z"></path><g><g class="mark-line role-mark child_layer_0_layer_0_marks" role="graphics-object" aria-roledescription="line mark container"><path aria-label="Time (s): -0.96875; Source: other; Decoding Correlation: 0.0132530766396" role="graphics-symbol" aria-roledescription="line mark" d="M1.1428571428571428,86.71409107660476L4.571428571428571,86.98698410707173L8,90.08724312261887L11.428571428571429,89.1999675822624L14.857142857142858,90.89421738813309L18.285714285714285,94.1170577395613L21.714285714285715,96.70663382597014L25.142857142857142,92.97523405568134L28.571428571428573,96.24430663448753L32,94.56191156153304L35.42857142857143,96.73548397592612L38.857142857142854,89.18341464107077L42.285714285714285,88.35427462915615L45.714285714285715,82.90001851745559L49.142857142857146,79.64211950169377L52.57142857142857,76.24064404914624L56,77.11391249483292L59.42857142857143,71.62353040897402L62.857142857142854,68.55737999633679L66.28571428571429,65.98143674403788L69.71428571428571,60.627038455695356L73.14285714285714,58.69349673461067L76.57142857142857,63.57828458191818L80,66.37849880826307L83.42857142857143,68.98629512356783L86.85714285714286,75.25681859611211L90.28571428571429,74.69213092344599L93.71428571428571,76.66116680845995L97.14285714285714,80.05874004441178L100.57142857142857,82.7041682859727L104,86.3443013587015L107.42857142857143,93.4686502896801L110.85714285714286,96.84964566814561L114.28571428571429,97.08709752103493L117.71428571428571,99.99046597440937L121.14285714285714,99.33510659598672L124.57142857142857,95.53973898151314" stroke="#2C2C2C" stroke-width="2" stroke-linejoin="round"></path></g></g><path class="foreground" aria-hidden="true" d="" display="none"></path></g><g transform="translate(0,0)"><path class="background" aria-hidden="true" d="M0,0h128v130h-128Z"></path><g><g class="mark-line role-mark child_layer_0_layer_0_marks" role="graphics-object" aria-roledescription="line mark container"><path aria-label="Time (s): -0.96875; Source: global; Decoding Correlation: 0.00527202381185" role="graphics-symbol" aria-roledescription="line mark" d="M1.1428571428571428,91.43016774754035L4.571428571428571,91.4030588558625L8,89.49467196796161L11.428571428571429,88.12416047875884L14.857142857142858,89.80035881126804L18.285714285714285,92.53893076735557L21.714285714285715,94.18123163138881L25.142857142857142,90.5167770013746L28.571428571428573,90.25836585953961L32,91.89675756509384L35.42857142857143,86.26682937907938L38.857142857142854,82.04227076107779L42.285714285714285,83.15696179445781L45.714285714285715,76.92794795259356L49.142857142857146,70.57832016889598L52.57142857142857,70.24088446533526L56,72.43592958817518L59.42857142857143,66.42612206887546L62.857142857142854,52.73841186677601L66.28571428571429,45.400679883168706L69.71428571428571,45.788384724613614L73.14285714285714,37.764699938283115L76.57142857142857,39.662895754273876L80,39.15868007894688L83.42857142857143,45.6608124120827L86.85714285714286,53.69511760522858L90.28571428571429,52.93860885616783L93.71428571428571,54.54336860668535L97.14285714285714,63.47589777013181L100.57142857142857,77.73273700484519L104,90.86212045100854L107.42857142857143,94.02309192745128L110.85714285714286,95.45326243331357L114.28571428571429,86.97441028402592L117.71428571428571,83.43282354969L121.14285714285714,75.00357966178655L124.57142857142857,83.07736033164566" stroke="#0F3C5F" stroke-width="2" stroke-linejoin="round"></path></g></g><path class="foreground" aria-hidden="true" d="" display="none"></path></g></g><g class="mark-group role-scope child_layer_0_layer_1_layer_0_pathgroup" role="graphics-object" aria-roledescription="group mark container"><g transform="translate(0,0)"><path class="background" aria-hidden="true" d="M0,0h128v130h-128Z"></path><g><g class="mark-area role-mark child_layer_0_layer_1_layer_0_marks" role="graphics-object" aria-roledescription="area mark container"><path aria-label=": 0.00158605932801; upper_lower: 0.0251465490142; Time (s): -0.96875; Source: other; upper: 0.0251465490142; lower: 0.00158605932801" role="graphics-symbol" aria-roledescription="errorband" d="M1.1428571428571428,93.60823766981281L4.571428571428571,94.44120109782887L8,98.68615146156081L11.428571428571429,97.6513827462151L14.857142857142858,99.27453822332997L18.285714285714285,102.22744229101036L21.714285714285715,104.73789561420988L25.142857142857142,101.56502453506259L28.571428571428573,103.24634005768615L32,101.18824615675206L35.42857142857143,103.26774040231844L38.857142857142854,95.19789957205988L42.285714285714285,93.53920893548886L45.714285714285715,88.4740060050802L49.142857142857146,86.22996452493331L52.57142857142857,82.83824805927371L56,84.1539032368157L59.42857142857143,78.01573883951346L62.857142857142854,76.73621682619654L66.28571428571429,73.7816250588538L69.71428571428571,68.74938416510629L73.14285714285714,66.46455074941481L76.57142857142857,72.2914300708234L80,75.0407540329261L83.42857142857143,77.05024205529446L86.85714285714286,83.56654875008434L90.28571428571429,82.39998349220835L93.71428571428571,84.76532737110476L97.14285714285714,88.13301973575189L100.57142857142857,90.24455663887886L104,93.8940293798351L107.42857142857143,100.81641229818192L110.85714285714286,105.53289709835634L114.28571428571429,106.28540094658845L117.71428571428571,109.80333069064893L121.14285714285714,107.6260472907905L124.57142857142857,104.83616339247874L124.57142857142857,85.09842065626695L121.14285714285714,90.73576747843795L117.71428571428571,89.93725774277284L114.28571428571429,87.60755950414328L110.85714285714286,88.07676776506327L107.42857142857143,85.63780901592463L104,78.29710095752041L100.57142857142857,74.62742910334629L97.14285714285714,71.75815642085749L93.71428571428571,68.3165073650857L90.28571428571429,66.73769464288947L86.85714285714286,66.40345378903416L83.42857142857143,60.47019950868744L80,57.95658210432852L76.57142857142857,54.4906900220968L73.14285714285714,50.56119811070284L69.71428571428571,52.38005518600992L66.28571428571429,57.6614387851837L62.857142857142854,60.85884243241942L59.42857142857143,65.4169289278964L56,70.52016253795082L52.57142857142857,69.85174457511053L49.142857142857146,73.01850622968642L45.714285714285715,77.35839884291805L42.285714285714285,82.50379021732029L38.857142857142854,81.88813425724453L35.42857142857143,90.03977197171713L32,88.11141318529792L28.571428571428573,89.69607836106233L25.142857142857142,85.42002991545702L21.714285714285715,89.47023243659385L18.285714285714285,86.80049120353631L14.857142857142858,83.78699043846797L11.428571428571429,81.68097817661808L8,81.9458550912179L4.571428571428571,79.58965639704566L1.1428571428571428,79.68613012796112Z" fill="#2C2C2C" opacity="0.3"></path></g></g><path class="foreground" aria-hidden="true" d="" display="none"></path></g><g transform="translate(0,0)"><path class="background" aria-hidden="true" d="M0,0h128v130h-128Z"></path><g><g class="mark-area role-mark child_layer_0_layer_1_layer_0_marks" role="graphics-object" aria-roledescription="area mark container"><path aria-label=": -0.0139732715322; upper_lower: 0.0242227555471; Time (s): -0.96875; Source: global; upper: 0.0242227555471; lower: -0.0139732715322" role="graphics-symbol" aria-roledescription="errorband" d="M1.1428571428571428,102.80238772356981L4.571428571428571,101.7426400269561L8,100.74943196386795L11.428571428571429,99.29709944738997L14.857142857142858,100.00954996248763L18.285714285714285,102.53732344664378L21.714285714285715,104.29888548337793L25.142857142857142,101.32020857080317L28.571428571428573,100.5018010211888L32,102.1790645651563L35.42857142857143,93.99336871874256L38.857142857142854,89.11489776907283L42.285714285714285,90.61361923994477L45.714285714285715,85.659106888754L49.142857142857146,79.15450756983776L52.57142857142857,78.70546477460171L56,81.51627163739039L59.42857142857143,77.0511780773099L62.857142857142854,64.01198999754341L66.28571428571429,55.239069279591774L69.71428571428571,54.465502047513745L73.14285714285714,47.01849878087924L76.57142857142857,48.93414517267885L80,48.65337978268168L83.42857142857143,55.2410465319124L86.85714285714286,62.780791003235095L90.28571428571429,63.441201779595524L93.71428571428571,65.7225201593676L97.14285714285714,74.59436957120559L100.57142857142857,88.69812516641457L104,104.50229771853645L107.42857142857143,108.41805483597999L110.85714285714286,110.7422155265097L114.28571428571429,102.77287531419509L117.71428571428571,100.33757168352317L121.14285714285714,92.11915388294116L124.57142857142857,100.69858375046853L124.57142857142857,65.44256766162385L121.14285714285714,57.60928203713614L117.71428571428571,66.67330666886988L114.28571428571429,70.99049915661948L110.85714285714286,79.78694963030527L107.42857142857143,79.95383312285084L104,76.28244593085743L100.57142857142857,66.52028249298154L97.14285714285714,51.93633784483896L93.71428571428571,43.18660406620723L90.28571428571429,42.702803779629185L86.85714285714286,44.54891343977858L83.42857142857143,36.75612301654776L80,29.992277502170136L76.57142857142857,30.195332743063496L73.14285714285714,27.582921403088978L69.71428571428571,36.76407221549269L66.28571428571429,35.70356376979919L62.857142857142854,41.8654074892777L59.42857142857143,56.31395616510238L56,63.73652011572863L52.57142857142857,61.82595765422394L49.142857142857146,62.144650392498434L45.714285714285715,68.19109940771058L42.285714285714285,76.01283470198132L38.857142857142854,75.11497597085241L35.42857142857143,78.86111355858768L32,82.0090107622612L28.571428571428573,79.7842787049685L25.142857142857142,79.17499515214963L21.714285714285715,83.54943841456003L18.285714285714285,82.38107732095438L14.857142857142858,79.10068167075619L11.428571428571429,76.69922594783375L8,78.49467990763604L4.571428571428571,81.31451975928971L1.1428571428571428,80.23200808578844Z" fill="#0F3C5F" opacity="0.3"></path></g></g><path class="foreground" aria-hidden="true" d="" display="none"></path></g></g><g class="mark-text role-mark child_layer_0_layer_2_marks" role="graphics-object" aria-roledescription="text mark container"><text aria-label=": 1.46875; Source: global; Mean of upper: 0.0900468593541; train_type_lbl: Target,Source" role="graphics-symbol" aria-roledescription="text mark" text-anchor="start" transform="translate(93.28571428571429,35.3359467453185)" font-family="sans-serif" font-size="11px" fill="#0F3C5F"><tspan>Target</tspan><tspan x="0" dy="13">Source</tspan></text></g><g class="mark-text role-mark child_layer_0_layer_3_marks" role="graphics-object" aria-roledescription="text mark container"><text aria-label=": 1.375; Source: other; Mean of lower: 0.0185796867306; train_type_lbl: Other,Sources" role="graphics-symbol" aria-roledescription="text mark" text-anchor="end" transform="translate(89.85714285714286,95.56654875008434)" font-family="sans-serif" font-size="11px" fill="#2C2C2C"><tspan>Other</tspan><tspan x="0" dy="13">Sources</tspan></text></g><g class="mark-text role-mark child_layer_1_layer_0_marks" role="graphics-object" aria-roledescription="text mark container"><text text-anchor="middle" transform="translate(54.857142857142854,12.772727272727273)" font-family="sans-serif" font-size="11px" fill="black"><tspan>Target</tspan><tspan x="0" dy="13">Extent</tspan></text></g><g class="mark-rect role-mark child_layer_1_layer_1_marks" role="graphics-symbol" aria-roledescription="rect mark container"><path d="M36.57142857142857,0h36.57142857142857v130h-36.57142857142857Z" fill="gray" opacity="0.25"></path></g></g><path class="foreground" aria-hidden="true" d="" display="none"></path></g><g transform="translate(141,0)"><path class="background" aria-hidden="true" d="M0.5,0.5h128v130h-128Z" stroke="#ddd"></path><g><g class="mark-group role-axis" aria-hidden="true"><g transform="translate(0.5,130.5)"><path class="background" aria-hidden="true" d="M0,0h0v0h0Z" pointer-events="none"></path><g><g class="mark-rule role-axis-grid" pointer-events="none"><line transform="translate(0,-130)" x2="0" y2="130" stroke="#ddd" stroke-width="1" opacity="1"></line><line transform="translate(37,-130)" x2="0" y2="130" stroke="#ddd" stroke-width="1" opacity="1"></line><line transform="translate(73,-130)" x2="0" y2="130" stroke="#ddd" stroke-width="1" opacity="1"></line><line transform="translate(110,-130)" x2="0" y2="130" stroke="#ddd" stroke-width="1" opacity="1"></line></g></g><path class="foreground" aria-hidden="true" d="" pointer-events="none" display="none"></path></g></g><g class="mark-group role-axis" aria-hidden="true"><g transform="translate(0.5,0.5)"><path class="background" aria-hidden="true" d="M0,0h0v0h0Z" pointer-events="none"></path><g><g class="mark-rule role-axis-grid" pointer-events="none"><line transform="translate(0,124)" x2="128" y2="0" stroke="#ddd" stroke-width="1" opacity="1"></line><line transform="translate(0,95)" x2="128" y2="0" stroke="#ddd" stroke-width="1" opacity="1"></line><line transform="translate(0,65)" x2="128" y2="0" stroke="#ddd" stroke-width="1" opacity="1"></line><line transform="translate(0,35)" x2="128" y2="0" stroke="#ddd" stroke-width="1" opacity="1"></line><line transform="translate(0,6)" x2="128" y2="0" stroke="#ddd" stroke-width="1" opacity="1"></line></g></g><path class="foreground" aria-hidden="true" d="" pointer-events="none" display="none"></path></g></g><g class="mark-group role-scope child_layer_0_layer_0_pathgroup" role="graphics-object" aria-roledescription="group mark container"><g transform="translate(0,0)"><path class="background" aria-hidden="true" d="M0,0h128v130h-128Z"></path><g><g class="mark-line role-mark child_layer_0_layer_0_marks" role="graphics-object" aria-roledescription="line mark container"><path aria-label="Time (s): -0.96875; Source: other; Decoding Correlation: 0.0206097834906" role="graphics-symbol" aria-roledescription="line mark" d="M1.1428571428571428,82.36694611918341L4.571428571428571,80.90025452509934L8,84.20184139472231L11.428571428571429,92.42735618808949L14.857142857142858,87.99523384028065L18.285714285714285,91.26860312491378L21.714285714285715,92.63220273543214L25.142857142857142,100.02914776340344L28.571428571428573,100.00028541994861L32,98.65373033198537L35.42857142857143,97.19520264691735L38.857142857142854,90.36862992081196L42.285714285714285,89.66679369596513L45.714285714285715,82.42217505383539L49.142857142857146,85.93323573278717L52.57142857142857,87.96810975904417L56,93.50360896619009L59.42857142857143,88.40875687640387L62.857142857142854,76.72236692965747L66.28571428571429,72.68623761334821L69.71428571428571,72.00542606829539L73.14285714285714,70.11100704521535L76.57142857142857,70.11982290057065L80,68.80362965153286L83.42857142857143,73.04366276563377L86.85714285714286,79.52335503056845L90.28571428571429,74.7237655944106L93.71428571428571,78.20574414250468L97.14285714285714,78.5280968009691L100.57142857142857,77.39394595637734L104,86.83196710795968L107.42857142857143,87.59665526228278L110.85714285714286,86.33229122091853L114.28571428571429,83.20263981531004L117.71428571428571,81.27410775290791L121.14285714285714,85.60848390677063L124.57142857142857,90.14447925299628" stroke="#2C2C2C" stroke-width="2" stroke-linejoin="round"></path></g></g><path class="foreground" aria-hidden="true" d="" display="none"></path></g><g transform="translate(0,0)"><path class="background" aria-hidden="true" d="M0,0h128v130h-128Z"></path><g><g class="mark-line role-mark child_layer_0_layer_0_marks" role="graphics-object" aria-roledescription="line mark container"><path aria-label="Time (s): -0.96875; Source: spatial; Decoding Correlation: 0.0401001005967" role="graphics-symbol" aria-roledescription="line mark" d="M1.1428571428571428,70.84994055651894L4.571428571428571,60.6601418502136L8,62.07130230352105L11.428571428571429,77.52378158312712L14.857142857142858,73.34683505754353L18.285714285714285,83.90878423411414L21.714285714285715,80.08329865390486L25.142857142857142,86.73138715370153L28.571428571428573,77.26922557479381L32,69.02205692100932L35.42857142857143,74.52786228661465L38.857142857142854,73.22949774817091L42.285714285714285,81.4258270665504L45.714285714285715,64.47412193550953L49.142857142857146,56.414275840762926L52.57142857142857,62.78972688190472L56,56.974963049441875L59.42857142857143,52.34142435566847L62.857142857142854,39.950885833022966L66.28571428571429,18.77646808696681L69.71428571428571,13.84724502184357L73.14285714285714,16.76938576753816L76.57142857142857,30.523508596811194L80,26.76934914922822L83.42857142857143,23.700360776421498L86.85714285714286,37.38116757055971L90.28571428571429,35.26729387854443L93.71428571428571,44.68309961264296L97.14285714285714,49.118401485283556L100.57142857142857,82.93468477087781L104,134.98382258183054L107.42857142857143,134.18117718429244L110.85714285714286,132.63221739606848L114.28571428571429,138.53657325592093L117.71428571428571,140.93548573274066L121.14285714285714,136.6111855019249L124.57142857142857,117.91279861090256" stroke="#687B3E" stroke-width="2" stroke-linejoin="round"></path></g></g><path class="foreground" aria-hidden="true" d="" display="none"></path></g></g><g class="mark-group role-scope child_layer_0_layer_1_layer_0_pathgroup" role="graphics-object" aria-roledescription="group mark container"><g transform="translate(0,0)"><path class="background" aria-hidden="true" d="M0,0h128v130h-128Z"></path><g><g class="mark-area role-mark child_layer_0_layer_1_layer_0_marks" role="graphics-object" aria-roledescription="area mark container"><path aria-label=": -0.013353226833; upper_lower: 0.0540773671868; Time (s): -0.96875; Source: other; upper: 0.0540773671868; lower: -0.013353226833" role="graphics-symbol" aria-roledescription="errorband" d="M1.1428571428571428,102.43599767402665L4.571428571428571,99.10275791669996L8,98.161806109614L11.428571428571429,107.10275240468124L14.857142857142858,104.43200718557466L18.285714285714285,109.87516894866289L21.714285714285715,112.66749064591598L25.142857142857142,118.74288946632284L28.571428571428573,119.96770662288053L32,114.42788281190269L35.42857142857143,110.78033772373158L38.857142857142854,105.12421479852813L42.285714285714285,103.78180490919148L45.714285714285715,95.41534070513309L49.142857142857146,98.41326528794785L52.57142857142857,99.55208299188241L56,108.82645288191438L59.42857142857143,100.48550466431075L62.857142857142854,91.14156216291232L66.28571428571429,86.44358423259862L69.71428571428571,85.51280521559234L73.14285714285714,83.83249222116261L76.57142857142857,84.34215331543375L80,87.88970231225588L83.42857142857143,92.3689669973314L86.85714285714286,95.43025461545689L90.28571428571429,97.0540608186064L93.71428571428571,98.50907953219766L97.14285714285714,96.48856987915455L100.57142857142857,97.23916285943828L104,103.09753880200314L107.42857142857143,107.10259788101564L110.85714285714286,105.15215028533056L114.28571428571429,101.54386956298465L117.71428571428571,97.87257214889523L121.14285714285714,102.23804360035646L124.57142857142857,113.47903206970041L124.57142857142857,68.98402574519258L121.14285714285714,70.38513146042625L117.71428571428571,66.86561451391958L114.28571428571429,65.92900225146774L110.85714285714286,68.79592204104408L107.42857142857143,69.99852476765896L104,69.58378734859556L100.57142857142857,56.521224521765426L97.14285714285714,60.59965566153691L93.71428571428571,57.319849023979216L90.28571428571429,51.89190212111162L86.85714285714286,64.44497308098308L83.42857142857143,57.179535508677446L80,52.25483084988682L76.57142857142857,55.52622051990381L73.14285714285714,57.36831878329689L69.71428571428571,58.77360904524579L66.28571428571429,59.072639363911684L62.857142857142854,62.49009048593503L59.42857142857143,76.00525558472637L56,77.9344870082136L52.57142857142857,75.93294529727436L49.142857142857146,73.45991903914299L45.714285714285715,69.17845732009653L42.285714285714285,75.61253932414667L38.857142857142854,76.01526985251124L35.42857142857143,82.84940544017363L32,82.67854788999405L28.571428571428573,80.07417724102217L25.142857142857142,81.42975414051304L21.714285714285715,70.82840214328903L18.285714285714285,72.03857035726658L14.857142857142858,71.83124415953287L11.428571428571429,77.15795036718546L8,69.71090534834687L4.571428571428571,63.549342185899185L1.1428571428571428,62.5906466623222Z" fill="#2C2C2C" opacity="0.3"></path></g></g><path class="foreground" aria-hidden="true" d="" display="none"></path></g><g transform="translate(0,0)"><path class="background" aria-hidden="true" d="M0,0h128v130h-128Z"></path><g><g class="mark-area role-mark child_layer_0_layer_1_layer_0_marks" role="graphics-object" aria-roledescription="area mark container"><path aria-label=": -0.00723952766686; upper_lower: 0.0833327647621; Time (s): -0.96875; Source: spatial; upper: 0.0833327647621; lower: -0.00723952766686" role="graphics-symbol" aria-roledescription="errorband" d="M1.1428571428571428,98.82335725768839L4.571428571428571,87.84186349162246L8,89.04922769883515L11.428571428571429,115.63308018830706L14.857142857142858,107.99266449854488L18.285714285714285,107.43534423534435L21.714285714285715,106.16124485986586L25.142857142857142,114.37837238819193L28.571428571428573,104.88503077737968L32,95.45363203416683L35.42857142857143,103.01998143943466L38.857142857142854,99.545115610145L42.285714285714285,106.95053820175316L45.714285714285715,88.1920817348087L49.142857142857146,80.05230088208175L52.57142857142857,89.21328315190955L56,81.02356416063708L59.42857142857143,75.9828003641953L62.857142857142854,60.67500573766639L66.28571428571429,38.78754572152913L69.71428571428571,34.669094166240725L73.14285714285714,37.50488677034806L76.57142857142857,49.857848755124955L80,50.243904242425856L83.42857142857143,47.10204102624015L86.85714285714286,60.830355797528036L90.28571428571429,58.13707994664395L93.71428571428571,65.44091705406528L97.14285714285714,68.59362520476962L100.57142857142857,100.43628374113344L104,153.32375374822774L107.42857142857143,155.77220140950604L110.85714285714286,153.00379745766296L114.28571428571429,161.81080124790753L117.71428571428571,167.9056475078199L121.14285714285714,162.2766944278462L124.57142857142857,146.68980077070512L124.57142857142857,86.77574648360327L121.14285714285714,111.66865715818638L117.71428571428571,112.58930373619673L114.28571428571429,112.81586205361396L110.85714285714286,110.80266546276894L107.42857142857143,110.80721890469805L104,113.79805902050262L100.57142857142857,65.52639440166315L97.14285714285714,30.08915838936771L93.71428571428571,19.961205588365296L90.28571428571429,9.026748211431581L86.85714285714286,13.174804275236248L83.42857142857143,1.1436892197816988L80,5.333943014510709L76.57142857142857,10.840573360458656L73.14285714285714,-3.370685013618143L69.71428571428571,-6.028586523529221L66.28571428571429,-0.9922250739746943L62.857142857142854,19.36549265464282L59.42857142857143,29.98028368363365L56,35.09620294049901L52.57142857142857,39.29451028374943L49.142857142857146,34.822165495263285L45.714285714285715,43.79711542786769L42.285714285714285,58.13586474326455L38.857142857142854,49.54173719768643L35.42857142857143,48.530921948800916L32,43.9342087749516L28.571428571428573,52.54232956140632L25.142857142857142,61.378007360258664L21.714285714285715,54.648597831326136L18.285714285714285,61.97391713300913L14.857142857142858,41.4881160515545L11.428571428571429,45.37448045851852L8,37.64019754032287L4.571428571428571,35.446011254712616L1.1428571428571428,45.303366276912605Z" fill="#687B3E" opacity="0.3"></path></g></g><path class="foreground" aria-hidden="true" d="" display="none"></path></g></g><g class="mark-text role-mark child_layer_0_layer_2_marks" role="graphics-object" aria-roledescription="text mark container"><text aria-label=": 1.46875; Source: spatial; Mean of upper: 0.146830889294; train_type_lbl: Target,Source" role="graphics-symbol" aria-roledescription="text mark" text-anchor="start" transform="translate(93.28571428571429,1.7817472354831763)" font-family="sans-serif" font-size="11px" fill="#687B3E"><tspan>Target</tspan><tspan x="0" dy="13">Source</tspan></text></g><g class="mark-text role-mark child_layer_0_layer_3_marks" role="graphics-object" aria-roledescription="text mark container"><text aria-label=": 1.375; Source: other; Mean of lower: -0.00149735396462; train_type_lbl: Other,Sources" role="graphics-symbol" aria-roledescription="text mark" text-anchor="end" transform="translate(89.85714285714286,107.43025461545689)" font-family="sans-serif" font-size="11px" fill="#2C2C2C"><tspan>Other</tspan><tspan x="0" dy="13">Sources</tspan></text></g><g class="mark-text role-mark child_layer_1_layer_0_marks" role="graphics-object" aria-roledescription="text mark container"><text text-anchor="middle" transform="translate(54.857142857142854,12.772727272727273)" font-family="sans-serif" font-size="11px" fill="black"><tspan>Target</tspan><tspan x="0" dy="13">Extent</tspan></text></g><g class="mark-rect role-mark child_layer_1_layer_1_marks" role="graphics-symbol" aria-roledescription="rect mark container"><path d="M36.57142857142857,0h36.57142857142857v130h-36.57142857142857Z" fill="gray" opacity="0.25"></path></g></g><path class="foreground" aria-hidden="true" d="" display="none"></path></g><g transform="translate(282,0)"><path class="background" aria-hidden="true" d="M0.5,0.5h128v130h-128Z" stroke="#ddd"></path><g><g class="mark-group role-axis" aria-hidden="true"><g transform="translate(0.5,130.5)"><path class="background" aria-hidden="true" d="M0,0h0v0h0Z" pointer-events="none"></path><g><g class="mark-rule role-axis-grid" pointer-events="none"><line transform="translate(0,-130)" x2="0" y2="130" stroke="#ddd" stroke-width="1" opacity="1"></line><line transform="translate(37,-130)" x2="0" y2="130" stroke="#ddd" stroke-width="1" opacity="1"></line><line transform="translate(73,-130)" x2="0" y2="130" stroke="#ddd" stroke-width="1" opacity="1"></line><line transform="translate(110,-130)" x2="0" y2="130" stroke="#ddd" stroke-width="1" opacity="1"></line></g></g><path class="foreground" aria-hidden="true" d="" pointer-events="none" display="none"></path></g></g><g class="mark-group role-axis" aria-hidden="true"><g transform="translate(0.5,0.5)"><path class="background" aria-hidden="true" d="M0,0h0v0h0Z" pointer-events="none"></path><g><g class="mark-rule role-axis-grid" pointer-events="none"><line transform="translate(0,124)" x2="128" y2="0" stroke="#ddd" stroke-width="1" opacity="1"></line><line transform="translate(0,95)" x2="128" y2="0" stroke="#ddd" stroke-width="1" opacity="1"></line><line transform="translate(0,65)" x2="128" y2="0" stroke="#ddd" stroke-width="1" opacity="1"></line><line transform="translate(0,35)" x2="128" y2="0" stroke="#ddd" stroke-width="1" opacity="1"></line><line transform="translate(0,6)" x2="128" y2="0" stroke="#ddd" stroke-width="1" opacity="1"></line></g></g><path class="foreground" aria-hidden="true" d="" pointer-events="none" display="none"></path></g></g><g class="mark-group role-scope child_layer_0_layer_0_pathgroup" role="graphics-object" aria-roledescription="group mark container"><g transform="translate(0,0)"><path class="background" aria-hidden="true" d="M0,0h128v130h-128Z"></path><g><g class="mark-line role-mark child_layer_0_layer_0_marks" role="graphics-object" aria-roledescription="line mark container"><path aria-label="Time (s): -0.96875; Source: other; Decoding Correlation: 0.00312581878808" role="graphics-symbol" aria-roledescription="line mark" d="M1.1428571428571428,92.69837980704335L4.571428571428571,95.96778683755885L8,97.17781489090312L11.428571428571429,95.139961373191L14.857142857142858,95.18257539152019L18.285714285714285,95.31799585961515L21.714285714285715,98.62813563396972L25.142857142857142,101.49236760219046L28.571428571428573,99.55349411813131L32,97.36258339162536L35.42857142857143,92.38310505519756L38.857142857142854,83.20897772511923L42.285714285714285,78.44886709341093L45.714285714285715,76.67377654827014L49.142857142857146,79.00521994249426L52.57142857142857,79.65423943785316L56,79.7836889894273L59.42857142857143,82.33771259024898L62.857142857142854,79.8208587801668L66.28571428571429,75.91816418273594L69.71428571428571,76.02639451684091L73.14285714285714,76.00740401167401L76.57142857142857,83.15484552648662L80,84.05005201300828L83.42857142857143,84.53364146610576L86.85714285714286,91.07074404042378L90.28571428571429,89.8187847409335L93.71428571428571,88.4175796619718L97.14285714285714,93.57551827901253L100.57142857142857,92.6767845073446L104,95.06169695907778L107.42857142857143,93.92004581728955L110.85714285714286,95.09305114126872L114.28571428571429,93.28008892963796L117.71428571428571,92.99094453371698L121.14285714285714,95.17245775599817L124.57142857142857,91.44370253242735" stroke="#2C2C2C" stroke-width="2" stroke-linejoin="round"></path></g></g><path class="foreground" aria-hidden="true" d="" display="none"></path></g><g transform="translate(0,0)"><path class="background" aria-hidden="true" d="M0,0h128v130h-128Z"></path><g><g class="mark-line role-mark child_layer_0_layer_0_marks" role="graphics-object" aria-roledescription="line mark container"><path aria-label="Time (s): -0.96875; Source: object; Decoding Correlation: 0.0300883245723" role="graphics-symbol" aria-roledescription="line mark" d="M1.1428571428571428,76.76599002546612L4.571428571428571,78.04375075477488L8,83.35358440687027L11.428571428571429,98.3866725486954L14.857142857142858,102.82320021525581L18.285714285714285,106.48529145736948L21.714285714285715,91.87761349765582L25.142857142857142,91.34016542938224L28.571428571428573,94.23799238658685L32,93.0852596638763L35.42857142857143,93.46892643217855L38.857142857142854,95.06395385361384L42.285714285714285,100.95086697337138L45.714285714285715,98.44353996026048L49.142857142857146,92.42782939205425L52.57142857142857,92.73288822182057L56,84.44103615503397L59.42857142857143,79.42290567525797L62.857142857142854,72.5647053308807L66.28571428571429,59.84665158371173L69.71428571428571,57.78838641947604L73.14285714285714,50.340902787324545L76.57142857142857,53.27445616230564L80,47.91226364592876L83.42857142857143,47.023046396569576L86.85714285714286,52.04612264534184L90.28571428571429,47.924167817485866L93.71428571428571,62.38662852670013L97.14285714285714,63.832179485379136L100.57142857142857,77.5208285230771L104,85.83384528628787L107.42857142857143,82.77228834951751L110.85714285714286,79.98989940460646L114.28571428571429,78.70114841919211L117.71428571428571,80.70947582045599L121.14285714285714,75.15442058594671L124.57142857142857,75.08989130326535" stroke="#EB9A60" stroke-width="2" stroke-linejoin="round"></path></g></g><path class="foreground" aria-hidden="true" d="" display="none"></path></g></g><g class="mark-group role-scope child_layer_0_layer_1_layer_0_pathgroup" role="graphics-object" aria-roledescription="group mark container"><g transform="translate(0,0)"><path class="background" aria-hidden="true" d="M0,0h128v130h-128Z"></path><g><g class="mark-area role-mark child_layer_0_layer_1_layer_0_marks" role="graphics-object" aria-roledescription="area mark container"><path aria-label=": -0.0263836600098; upper_lower: 0.0383153006223; Time (s): -0.96875; Source: other; upper: 0.0383153006223; lower: -0.0263836600098" role="graphics-symbol" aria-roledescription="errorband" d="M1.1428571428571428,110.13579909667571L4.571428571428571,111.94225280861777L8,113.11381203841701L11.428571428571429,111.21273843568882L14.857142857142858,110.05137975257644L18.285714285714285,108.35518286712737L21.714285714285715,113.10450843192545L25.142857142857142,115.56984458062247L28.571428571428573,113.45034983896262L32,110.22751950413053L35.42857142857143,105.01682916130558L38.857142857142854,94.2622079750728L42.285714285714285,89.87529466072486L45.714285714285715,90.10460445645192L49.142857142857146,93.16615424098686L52.57142857142857,92.91978830523283L56,93.3210180372564L59.42857142857143,93.9574603247112L62.857142857142854,91.49744171732856L66.28571428571429,88.01261258753581L69.71428571428571,88.41376552770558L73.14285714285714,87.34514176589605L76.57142857142857,91.9947243861128L80,95.78375016557384L83.42857142857143,97.94407284118877L86.85714285714286,105.47765788756587L90.28571428571429,103.5391412853873L93.71428571428571,100.74429869043207L97.14285714285714,105.63178478352107L100.57142857142857,105.31430555973319L104,107.3866353219801L107.42857142857143,106.41258639870132L110.85714285714286,106.04768918014388L114.28571428571429,104.35671093986336L117.71428571428571,104.34527486861491L121.14285714285714,106.644209887821L124.57142857142857,102.76572636789096L124.57142857142857,79.95410349488803L121.14285714285714,83.56036409203425L117.71428571428571,81.40692903893455L114.28571428571429,82.3161292213567L110.85714285714286,84.40175178715874L107.42857142857143,81.95114319166964L104,83.11632346342758L100.57142857142857,80.15401953691374L97.14285714285714,81.7239612692716L93.71428571428571,76.2587529803037L90.28571428571429,75.83771781305272L86.85714285714286,76.47004765300818L83.42857142857143,70.46910819266886L80,72.88657958809124L76.57142857142857,74.44213856839144L73.14285714285714,65.31223738923495L69.71428571428571,64.14686138007566L66.28571428571429,63.99856480085667L62.857142857142854,68.37909804536352L59.42857142857143,70.72030932978879L56,66.79784038788412L52.57142857142857,66.3595212703164L49.142857142857146,65.83730318027615L45.714285714285715,63.67168858587317L42.285714285714285,67.26367512708033L38.857142857142854,72.44687104450765L35.42857142857143,80.40830161682156L32,84.97693574765549L28.571428571428573,86.0495814425957L25.142857142857142,87.30365122628513L21.714285714285715,83.63659211154388L18.285714285714285,81.10705488278045L14.857142857142858,79.09680252958378L11.428571428571429,78.12424027931897L8,79.20335741471287L4.571428571428571,76.84165199529029L1.1428571428571428,71.90459508684377Z" fill="#2C2C2C" opacity="0.3"></path></g></g><path class="foreground" aria-hidden="true" d="" display="none"></path></g><g transform="translate(0,0)"><path class="background" aria-hidden="true" d="M0,0h128v130h-128Z"></path><g><g class="mark-area role-mark child_layer_0_layer_1_layer_0_marks" role="graphics-object" aria-roledescription="area mark container"><path aria-label=": 0.00247849633087; upper_lower: 0.0577129799207; Time (s): -0.96875; Source: object; upper: 0.0577129799207; lower: 0.00247849633087" role="graphics-symbol" aria-roledescription="errorband" d="M1.1428571428571428,93.08088853176113L4.571428571428571,95.5588111325622L8,100.1328764981316L11.428571428571429,113.36576397327154L14.857142857142858,118.33741652410488L18.285714285714285,124.90960966960641L21.714285714285715,108.16033765429185L25.142857142857142,109.17410838210678L28.571428571428573,115.25530098161781L32,112.70666548422584L35.42857142857143,114.86446145229023L38.857142857142854,115.62746462886969L42.285714285714285,123.60644894214852L45.714285714285715,119.14286059616444L49.142857142857146,111.47684914693936L52.57142857142857,109.10320743051801L56,100.74498848253843L59.42857142857143,94.38604480121617L62.857142857142854,85.81817328125805L66.28571428571429,73.65978527043328L69.71428571428571,72.02149516042805L73.14285714285714,67.86609714165695L76.57142857142857,71.07792651409511L80,64.30691618700517L83.42857142857143,64.27969466631082L86.85714285714286,67.173752269935L90.28571428571429,62.44342498860879L93.71428571428571,77.7333785216936L97.14285714285714,78.98131432113074L100.57142857142857,92.07156552602025L104,105.13526834623211L107.42857142857143,101.95996019755755L110.85714285714286,99.6635946957619L114.28571428571429,100.36098630990482L117.71428571428571,101.94656116746309L121.14285714285714,93.78404523274962L124.57142857142857,95.30206200278744L124.57142857142857,54.95459281970772L121.14285714285714,56.49948426308594L117.71428571428571,61.11558474387067L114.28571428571429,60.160804438995946L110.85714285714286,61.17081992917088L107.42857142857143,64.35265917297725L104,65.99182949116167L100.57142857142857,62.14964170200378L97.14285714285714,47.770018732496766L93.71428571428571,46.127267309275204L90.28571428571429,32.82786918140625L86.85714285714286,35.44112091870015L83.42857142857143,29.54464753639955L80,31.42020413940608L76.57142857142857,35.687987097876274L73.14285714285714,32.52857297680269L69.71428571428571,43.88134926246809L66.28571428571429,46.63839961984813L62.857142857142854,59.32709343928692L59.42857142857143,65.56274805311094L56,67.91758676971443L52.57142857142857,76.49234647064746L49.142857142857146,73.82545166260805L45.714285714285715,77.32752422204257L42.285714285714285,77.60951430441314L38.857142857142854,73.21835506380268L35.42857142857143,71.86814250715265L32,73.07981436828916L28.571428571428573,74.34269636972107L25.142857142857142,73.99144888120719L21.714285714285715,75.71445299206478L18.285714285714285,87.79220026818292L14.857142857142858,86.39415522434408L11.428571428571429,82.49243869445328L8,66.97417663758083L4.571428571428571,61.0654043369068L1.1428571428571428,60.442330046877196Z" fill="#EB9A60" opacity="0.3"></path></g></g><path class="foreground" aria-hidden="true" d="" display="none"></path></g></g><g class="mark-text role-mark child_layer_0_layer_2_marks" role="graphics-object" aria-roledescription="text mark container"><text aria-label=": 1.46875; Source: object; Mean of upper: 0.104823076205; train_type_lbl: Target,Source" role="graphics-symbol" aria-roledescription="text mark" text-anchor="start" transform="translate(93.28571428571429,26.60454587883531)" font-family="sans-serif" font-size="11px" fill="#EB9A60"><tspan>Target</tspan><tspan x="0" dy="13">Source</tspan></text></g><g class="mark-text role-mark child_layer_0_layer_3_marks" role="graphics-object" aria-roledescription="text mark container"><text aria-label=": 1.375; Source: other; Mean of lower: -0.0185006518097; train_type_lbl: Other,Sources" role="graphics-symbol" aria-roledescription="text mark" text-anchor="end" transform="translate(89.85714285714286,117.47765788756587)" font-family="sans-serif" font-size="11px" fill="#2C2C2C"><tspan>Other</tspan><tspan x="0" dy="13">Sources</tspan></text></g><g class="mark-text role-mark child_layer_1_layer_0_marks" role="graphics-object" aria-roledescription="text mark container"><text text-anchor="middle" transform="translate(54.857142857142854,12.772727272727273)" font-family="sans-serif" font-size="11px" fill="black"><tspan>Target</tspan><tspan x="0" dy="13">Extent</tspan></text></g><g class="mark-rect role-mark child_layer_1_layer_1_marks" role="graphics-symbol" aria-roledescription="rect mark container"><path d="M36.57142857142857,0h36.57142857142857v130h-36.57142857142857Z" fill="gray" opacity="0.25"></path></g></g><path class="foreground" aria-hidden="true" d="" display="none"></path></g><g transform="translate(0,175)"><path class="background" aria-hidden="true" d="M0.5,0.5h128v130h-128Z" stroke="#ddd"></path><g><g class="mark-group role-axis" aria-hidden="true"><g transform="translate(0.5,130.5)"><path class="background" aria-hidden="true" d="M0,0h0v0h0Z" pointer-events="none"></path><g><g class="mark-rule role-axis-grid" pointer-events="none"><line transform="translate(0,-130)" x2="0" y2="130" stroke="#ddd" stroke-width="1" opacity="1"></line><line transform="translate(37,-130)" x2="0" y2="130" stroke="#ddd" stroke-width="1" opacity="1"></line><line transform="translate(73,-130)" x2="0" y2="130" stroke="#ddd" stroke-width="1" opacity="1"></line><line transform="translate(110,-130)" x2="0" y2="130" stroke="#ddd" stroke-width="1" opacity="1"></line></g></g><path class="foreground" aria-hidden="true" d="" pointer-events="none" display="none"></path></g></g><g class="mark-group role-axis" aria-hidden="true"><g transform="translate(0.5,0.5)"><path class="background" aria-hidden="true" d="M0,0h0v0h0Z" pointer-events="none"></path><g><g class="mark-rule role-axis-grid" pointer-events="none"><line transform="translate(0,124)" x2="128" y2="0" stroke="#ddd" stroke-width="1" opacity="1"></line><line transform="translate(0,95)" x2="128" y2="0" stroke="#ddd" stroke-width="1" opacity="1"></line><line transform="translate(0,65)" x2="128" y2="0" stroke="#ddd" stroke-width="1" opacity="1"></line><line transform="translate(0,35)" x2="128" y2="0" stroke="#ddd" stroke-width="1" opacity="1"></line><line transform="translate(0,6)" x2="128" y2="0" stroke="#ddd" stroke-width="1" opacity="1"></line></g></g><path class="foreground" aria-hidden="true" d="" pointer-events="none" display="none"></path></g></g><g class="mark-group role-scope child_layer_0_layer_0_pathgroup" role="graphics-object" aria-roledescription="group mark container"><g transform="translate(0,0)"><path class="background" aria-hidden="true" d="M0,0h128v130h-128Z"></path><g><g class="mark-line role-mark child_layer_0_layer_0_marks" role="graphics-object" aria-roledescription="line mark container"><path aria-label="Time (s): -0.96875; Source: other; Decoding Correlation: 0.00714512736149" role="graphics-symbol" aria-roledescription="line mark" d="M1.1428571428571428,90.32333383184952L4.571428571428571,89.68436512926942L8,91.29223611547694L11.428571428571429,92.16457103490515L14.857142857142858,93.01607033342594L18.285714285714285,93.10288493630156L21.714285714285715,89.25200121947778L25.142857142857142,89.5849058731553L28.571428571428573,88.90002192942532L32,89.1339014634574L35.42857142857143,90.67908467311739L38.857142857142854,86.83959380540247L42.285714285714285,79.71608373500463L45.714285714285715,75.60088804813199L49.142857142857146,71.65745140621867L52.57142857142857,72.43960906261046L56,75.66703470243954L59.42857142857143,75.59232085879358L62.857142857142854,70.38587707737341L66.28571428571429,68.35165813188934L69.71428571428571,64.3401178554714L73.14285714285714,63.371534124321656L76.57142857142857,66.00832663464561L80,71.63312163037789L83.42857142857143,76.81770057754181L86.85714285714286,75.33006183322775L90.28571428571429,77.58966801356449L93.71428571428571,80.07470408468939L97.14285714285714,81.58680316887964L100.57142857142857,84.71174441290063L104,92.27754783388296L107.42857142857143,94.49333615021577L110.85714285714286,96.23585815656246L114.28571428571429,96.98452574275373L117.71428571428571,93.01816683914123L121.14285714285714,89.49286763372726L124.57142857142857,90.31746864065309" stroke="#2C2C2C" stroke-width="2" stroke-linejoin="round"></path></g></g><path class="foreground" aria-hidden="true" d="" display="none"></path></g><g transform="translate(0,0)"><path class="background" aria-hidden="true" d="M0,0h128v130h-128Z"></path><g><g class="mark-line role-mark child_layer_0_layer_0_marks" role="graphics-object" aria-roledescription="line mark container"><path aria-label="Time (s): -0.96875; Source: global; Decoding Correlation: -0.00917017588945" role="graphics-symbol" aria-roledescription="line mark" d="M1.1428571428571428,99.96419484376418L4.571428571428571,99.72529660060655L8,104.19882014852926L11.428571428571429,105.60969898837241L14.857142857142858,105.0336849346322L18.285714285714285,105.80808150054582L21.714285714285715,105.20946621576635L25.142857142857142,101.86923881663982L28.571428571428573,102.92827443380463L32,106.24454230060482L35.42857142857143,101.73584180132038L38.857142857142854,98.77078878216174L42.285714285714285,90.07220774103064L45.714285714285715,85.15795349257321L49.142857142857146,84.36357694453795L52.57142857142857,79.77658557577084L56,73.14995487083861L59.42857142857143,69.5462717775459L62.857142857142854,65.08975390727267L66.28571428571429,57.25452891595005L69.71428571428571,50.52540946116383L73.14285714285714,44.33522011797348L76.57142857142857,42.945986439235796L80,45.78318701028961L83.42857142857143,45.557433363531L86.85714285714286,48.66022567403732L90.28571428571429,52.52579438293803L93.71428571428571,56.04935145408889L97.14285714285714,60.32573182203299L100.57142857142857,65.2995058588603L104,67.85027912555125L107.42857142857143,86.33966570881505L110.85714285714286,98.93871037394173L114.28571428571429,99.86765066887686L117.71428571428571,93.84768258091333L121.14285714285714,99.00073824954275L124.57142857142857,96.40303026267162" stroke="#0F3C5F" stroke-width="2" stroke-linejoin="round"></path></g></g><path class="foreground" aria-hidden="true" d="" display="none"></path></g></g><g class="mark-group role-scope child_layer_0_layer_1_layer_0_pathgroup" role="graphics-object" aria-roledescription="group mark container"><g transform="translate(0,0)"><path class="background" aria-hidden="true" d="M0,0h128v130h-128Z"></path><g><g class="mark-area role-mark child_layer_0_layer_1_layer_0_marks" role="graphics-object" aria-roledescription="area mark container"><path aria-label=": -0.0084215803889; upper_lower: 0.0227660678315; Time (s): -0.96875; Source: other; upper: 0.0227660678315; lower: -0.0084215803889" role="graphics-symbol" aria-roledescription="errorband" d="M1.1428571428571428,99.52184295707772L4.571428571428571,98.0014897821044L8,98.97514680963148L11.428571428571429,99.56424504336435L14.857142857142858,99.84958825523246L18.285714285714285,101.19114078963905L21.714285714285715,97.74260215311273L25.142857142857142,97.78799752800613L28.571428571428573,96.90429641230851L32,97.09026554150486L35.42857142857143,97.88080512423876L38.857142857142854,94.7042009940055L42.285714285714285,87.23890451759343L45.714285714285715,83.78273441407961L49.142857142857146,79.89222671610172L52.57142857142857,79.4181306766746L56,83.24970532890835L59.42857142857143,83.76542323379478L62.857142857142854,78.08609142474663L66.28571428571429,76.17881790981437L69.71428571428571,73.22264734666949L73.14285714285714,71.47836313629399L76.57142857142857,72.8199278362661L80,78.49796870175119L83.42857142857143,83.09590314955096L86.85714285714286,81.6884195015618L90.28571428571429,84.35063931759522L93.71428571428571,87.34433303754906L97.14285714285714,89.79619630350672L100.57142857142857,92.74941590641332L104,100.22205550512474L107.42857142857143,103.56556745813947L110.85714285714286,105.20879922468596L114.28571428571429,106.83436084052394L117.71428571428571,103.34219412130574L121.14285714285714,100.38179535437659L124.57142857142857,100.8315741037907L124.57142857142857,80.23840658861945L121.14285714285714,78.71483674650324L117.71428571428571,82.65159524373048L114.28571428571429,86.93243723475699L110.85714285714286,87.15086670407577L107.42857142857143,85.26161403007022L104,84.40918887004892L100.57142857142857,76.55544885455366L97.14285714285714,73.07866017328489L93.71428571428571,72.05047883587383L90.28571428571429,70.76719909418141L86.85714285714286,68.77333343890653L83.42857142857143,70.70257545541337L80,65.25441193898503L76.57142857142857,59.63037301889961L73.14285714285714,55.80144208825793L69.71428571428571,55.726075690802396L66.28571428571429,60.67911203597681L62.857142857142854,62.48867684398168L59.42857142857143,67.31025011953453L56,68.04838324184878L52.57142857142857,65.47036478236438L49.142857142857146,63.6156063634583L45.714285714285715,67.5903253110489L42.285714285714285,72.28307498786901L38.857142857142854,78.89013306653987L35.42857142857143,83.54760340563065L32,81.26674454324092L28.571428571428573,80.83315420423423L25.142857142857142,81.14370344549518L21.714285714285715,80.64670001623654L18.285714285714285,85.28562119779659L14.857142857142858,86.16857935903008L11.428571428571429,84.8911381284147L8,83.78102007859228L4.571428571428571,81.10183405367289L1.1428571428571428,81.0927780995576Z" fill="#2C2C2C" opacity="0.3"></path></g></g><path class="foreground" aria-hidden="true" d="" display="none"></path></g><g transform="translate(0,0)"><path class="background" aria-hidden="true" d="M0,0h128v130h-128Z"></path><g><g class="mark-area role-mark child_layer_0_layer_1_layer_0_marks" role="graphics-object" aria-roledescription="area mark container"><path aria-label=": -0.0265354214391; upper_lower: 0.00819799641589; Time (s): -0.96875; Source: global; upper: 0.00819799641589; lower: -0.0265354214391" role="graphics-symbol" aria-roledescription="errorband" d="M1.1428571428571428,110.22547630494164L4.571428571428571,110.03220372647125L8,114.33748446640108L11.428571428571429,116.16795618244628L14.857142857142858,115.12849369992372L18.285714285714285,116.12589838979727L21.714285714285715,114.49974011127235L25.142857142857142,113.50152686146544L28.571428571428573,114.04945510400255L32,116.51562218831721L35.42857142857143,112.84015528210969L38.857142857142854,109.77500236866607L42.285714285714285,100.71210879879787L45.714285714285715,95.6916238589061L49.142857142857146,94.60528772837557L52.57142857142857,89.99739298669692L56,84.85623581870185L59.42857142857143,80.6845787113275L62.857142857142854,78.20895340920002L66.28571428571429,69.91467815511305L69.71428571428571,61.49376963220415L73.14285714285714,55.362315467563455L76.57142857142857,52.821749679377895L80,54.211039365990764L83.42857142857143,54.750434890717L86.85714285714286,58.79810212465854L90.28571428571429,62.780904670803565L93.71428571428571,67.38192527788824L97.14285714285714,73.43394300998419L100.57142857142857,77.45782601583738L104,78.58307620326315L107.42857142857143,96.79402056896596L110.85714285714286,109.79069333091874L114.28571428571429,112.42764271847318L117.71428571428571,105.94855068785058L121.14285714285714,110.78700487442146L124.57142857142857,109.43278392454016L124.57142857142857,83.37993777316787L121.14285714285714,86.99031470346296L117.71428571428571,81.1178928475146L114.28571428571429,86.41420339998096L110.85714285714286,87.97355504836388L107.42857142857143,75.71883877587149L104,56.98906462984705L100.57142857142857,53.40018619684194L97.14285714285714,47.03575142071019L93.71428571428571,44.24860358602254L90.28571428571429,41.662528592959525L86.85714285714286,38.843414950592084L83.42857142857143,37.14749066219311L80,37.81814600418845L76.57142857142857,33.35816447336577L73.14285714285714,33.9467330445908L69.71428571428571,39.99805855527134L66.28571428571429,45.905134970794315L62.857142857142854,52.78994133263292L59.42857142857143,58.41765767009065L56,61.37663320894573L52.57142857142857,70.15452839874524L49.142857142857146,74.75470987814704L45.714285714285715,75.1013309980245L42.285714285714285,79.44785682242767L38.857142857142854,86.58394945760517L35.42857142857143,89.88782463659763L32,96.11717245178275L28.571428571428573,92.19629571533936L25.142857142857142,91.03246625168933L21.714285714285715,95.8368708640156L18.285714285714285,95.6497938770716L14.857142857142858,95.03918090430153L11.428571428571429,94.78179712555125L8,93.55400077104748L4.571428571428571,89.2879357229066L1.1428571428571428,89.70118393606745Z" fill="#0F3C5F" opacity="0.3"></path></g></g><path class="foreground" aria-hidden="true" d="" display="none"></path></g></g><g class="mark-text role-mark child_layer_0_layer_2_marks" role="graphics-object" aria-roledescription="text mark container"><text aria-label=": 1.46875; Source: global; Mean of upper: 0.0936313960891; train_type_lbl: Target,Source" role="graphics-symbol" aria-roledescription="text mark" text-anchor="start" transform="translate(93.28571428571429,33.217811401914915)" font-family="sans-serif" font-size="11px" fill="#0F3C5F"><tspan>Target</tspan><tspan x="0" dy="13">Source</tspan></text></g><g class="mark-text role-mark child_layer_0_layer_3_marks" role="graphics-object" aria-roledescription="text mark container"><text aria-label=": 1.375; Source: other; Mean of lower: 0.021758059305; train_type_lbl: Other,Sources" role="graphics-symbol" aria-roledescription="text mark" text-anchor="end" transform="translate(89.85714285714286,93.6884195015618)" font-family="sans-serif" font-size="11px" fill="#2C2C2C"><tspan>Other</tspan><tspan x="0" dy="13">Sources</tspan></text></g><g class="mark-text role-mark child_layer_1_layer_0_marks" role="graphics-object" aria-roledescription="text mark container"><text text-anchor="middle" transform="translate(54.857142857142854,12.772727272727273)" font-family="sans-serif" font-size="11px" fill="black"><tspan>Target</tspan><tspan x="0" dy="13">Extent</tspan></text></g><g class="mark-rect role-mark child_layer_1_layer_1_marks" role="graphics-symbol" aria-roledescription="rect mark container"><path d="M36.57142857142857,0h36.57142857142857v130h-36.57142857142857Z" fill="gray" opacity="0.25"></path></g></g><path class="foreground" aria-hidden="true" d="" display="none"></path></g><g transform="translate(141,175)"><path class="background" aria-hidden="true" d="M0.5,0.5h128v130h-128Z" stroke="#ddd"></path><g><g class="mark-group role-axis" aria-hidden="true"><g transform="translate(0.5,130.5)"><path class="background" aria-hidden="true" d="M0,0h0v0h0Z" pointer-events="none"></path><g><g class="mark-rule role-axis-grid" pointer-events="none"><line transform="translate(0,-130)" x2="0" y2="130" stroke="#ddd" stroke-width="1" opacity="1"></line><line transform="translate(37,-130)" x2="0" y2="130" stroke="#ddd" stroke-width="1" opacity="1"></line><line transform="translate(73,-130)" x2="0" y2="130" stroke="#ddd" stroke-width="1" opacity="1"></line><line transform="translate(110,-130)" x2="0" y2="130" stroke="#ddd" stroke-width="1" opacity="1"></line></g></g><path class="foreground" aria-hidden="true" d="" pointer-events="none" display="none"></path></g></g><g class="mark-group role-axis" aria-hidden="true"><g transform="translate(0.5,0.5)"><path class="background" aria-hidden="true" d="M0,0h0v0h0Z" pointer-events="none"></path><g><g class="mark-rule role-axis-grid" pointer-events="none"><line transform="translate(0,124)" x2="128" y2="0" stroke="#ddd" stroke-width="1" opacity="1"></line><line transform="translate(0,95)" x2="128" y2="0" stroke="#ddd" stroke-width="1" opacity="1"></line><line transform="translate(0,65)" x2="128" y2="0" stroke="#ddd" stroke-width="1" opacity="1"></line><line transform="translate(0,35)" x2="128" y2="0" stroke="#ddd" stroke-width="1" opacity="1"></line><line transform="translate(0,6)" x2="128" y2="0" stroke="#ddd" stroke-width="1" opacity="1"></line></g></g><path class="foreground" aria-hidden="true" d="" pointer-events="none" display="none"></path></g></g><g class="mark-group role-scope child_layer_0_layer_0_pathgroup" role="graphics-object" aria-roledescription="group mark container"><g transform="translate(0,0)"><path class="background" aria-hidden="true" d="M0,0h128v130h-128Z"></path><g><g class="mark-line role-mark child_layer_0_layer_0_marks" role="graphics-object" aria-roledescription="line mark container"><path aria-label="Time (s): -0.96875; Source: other; Decoding Correlation: 0.00339341101657" role="graphics-symbol" aria-roledescription="line mark" d="M1.1428571428571428,92.54025712657477L4.571428571428571,89.3501713644142L8,92.18267296375579L11.428571428571429,87.28900998041432L14.857142857142858,88.84604167184419L18.285714285714285,87.77937972712326L21.714285714285715,90.51959141339671L25.142857142857142,90.35573941915018L28.571428571428573,92.36012953625226L32,98.44383979973377L35.42857142857143,93.68021573879871L38.857142857142854,88.22712242797382L42.285714285714285,84.80098077573471L45.714285714285715,82.18935508037939L49.142857142857146,80.15374596706563L52.57142857142857,77.40779709507738L56,84.49758930082389L59.42857142857143,85.49253207872621L62.857142857142854,90.23241886692412L66.28571428571429,88.19452354020208L69.71428571428571,78.6960744720069L73.14285714285714,87.77955432762562L76.57142857142857,90.8023812198165L80,95.52156609500855L83.42857142857143,100.04621892996275L86.85714285714286,104.4949772930511L90.28571428571429,111.33650420673958L93.71428571428571,108.78520263869228L97.14285714285714,107.61078878147535L100.57142857142857,107.95463214962432L104,118.95271836657945L107.42857142857143,120.07483888486114L110.85714285714286,118.75769348369265L114.28571428571429,113.05528960078769L117.71428571428571,97.77192198697247L121.14285714285714,89.28129796830603L124.57142857142857,78.27583333463055" stroke="#2C2C2C" stroke-width="2" stroke-linejoin="round"></path></g></g><path class="foreground" aria-hidden="true" d="" display="none"></path></g><g transform="translate(0,0)"><path class="background" aria-hidden="true" d="M0,0h128v130h-128Z"></path><g><g class="mark-line role-mark child_layer_0_layer_0_marks" role="graphics-object" aria-roledescription="line mark container"><path aria-label="Time (s): -0.96875; Source: spatial; Decoding Correlation: -0.00652980718327" role="graphics-symbol" aria-roledescription="line mark" d="M1.1428571428571428,98.40397697193268L4.571428571428571,94.35913393012856L8,91.04073606175592L11.428571428571429,99.14968120466429L14.857142857142858,85.18296159543918L18.285714285714285,81.70316169044096L21.714285714285715,80.96259790972479L25.142857142857142,77.54904800345209L28.571428571428573,81.7396857459659L32,84.88961041834625L35.42857142857143,89.7605674919729L38.857142857142854,87.46567854424279L42.285714285714285,86.97656283678005L45.714285714285715,89.71193566392368L49.142857142857146,74.30661589879995L52.57142857142857,71.26941975627672L56,66.49561043021382L59.42857142857143,60.35718629470376L62.857142857142854,52.5693085826726L66.28571428571429,60.39913755166802L69.71428571428571,57.29674481183983L73.14285714285714,54.90883009803217L76.57142857142857,61.478293190270676L80,64.68773188298736L83.42857142857143,63.40326231554767L86.85714285714286,69.05938015969204L90.28571428571429,79.82246542828823L93.71428571428571,69.47438961243637L97.14285714285714,67.17776457480933L100.57142857142857,63.67604773493267L104,72.85843136792911L107.42857142857143,77.48239946586179L110.85714285714286,85.57271174962858L114.28571428571429,84.36273887866614L117.71428571428571,79.36131605213713L121.14285714285714,72.08389745916348L124.57142857142857,86.99953322081515" stroke="#687B3E" stroke-width="2" stroke-linejoin="round"></path></g></g><path class="foreground" aria-hidden="true" d="" display="none"></path></g></g><g class="mark-group role-scope child_layer_0_layer_1_layer_0_pathgroup" role="graphics-object" aria-roledescription="group mark container"><g transform="translate(0,0)"><path class="background" aria-hidden="true" d="M0,0h128v130h-128Z"></path><g><g class="mark-area role-mark child_layer_0_layer_1_layer_0_marks" role="graphics-object" aria-roledescription="area mark container"><path aria-label=": -0.0397185188887; upper_lower: 0.0472944339223; Time (s): -0.96875; Source: other; upper: 0.0472944339223; lower: -0.0397185188887" role="graphics-symbol" aria-roledescription="errorband" d="M1.1428571428571428,118.01548843421305L4.571428571428571,112.09485762225218L8,115.61430903485717L11.428571428571429,105.71573088304936L14.857142857142858,107.03327070013347L18.285714285714285,101.18524928582399L21.714285714285715,105.2933850835192L25.142857142857142,107.58734234682979L28.571428571428573,107.85677209882212L32,116.58407112283065L35.42857142857143,111.99215856734843L38.857142857142854,104.52198077778608L42.285714285714285,101.17670717150791L45.714285714285715,96.23079258623716L49.142857142857146,93.40000398802984L52.57142857142857,93.29879343114428L56,101.53939054083364L59.42857142857143,99.74543210502208L62.857142857142854,103.21885207459898L66.28571428571429,99.87321846543375L69.71428571428571,91.65765252317142L73.14285714285714,101.54953889326434L76.57142857142857,102.07548999678643L80,106.36203017738825L83.42857142857143,112.10523978602181L86.85714285714286,118.33170036124417L90.28571428571429,126.91431809106507L93.71428571428571,127.07182680099343L97.14285714285714,122.86178091845096L100.57142857142857,123.70646291688516L104,133.43647441827062L107.42857142857143,132.35031802685273L110.85714285714286,129.91739048444686L114.28571428571429,123.4824932082562L117.71428571428571,108.44440437982232L121.14285714285714,104.89402729583055L124.57142857142857,98.84954781456526L124.57142857142857,57.221068700197065L121.14285714285714,70.99693170285654L117.71428571428571,86.53467576729325L114.28571428571429,102.7451593105819L110.85714285714286,107.72629826323671L107.42857142857143,107.9824169064807L104,105.56116834230212L100.57142857142857,92.10650817917796L97.14285714285714,91.3963817974294L93.71428571428571,89.10602202739673L90.28571428571429,95.03582812167701L86.85714285714286,91.63227672720897L83.42857142857143,87.74160809319235L80,84.29178188880647L76.57142857142857,78.08810717119624L73.14285714285714,72.61548667738836L69.71428571428571,64.84665175440409L66.28571428571429,76.07882072075044L62.857142857142854,76.36681106536054L59.42857142857143,69.33641046209327L56,65.56835745531802L52.57142857142857,62.55141206769018L49.142857142857146,66.79128867789026L45.714285714285715,67.30603991621258L42.285714285714285,68.30510758798108L38.857142857142854,72.39644325641842L35.42857142857143,75.49000484444113L32,80.41846273056359L28.571428571428573,76.50657603241989L25.142857142857142,73.9054859290515L21.714285714285715,75.81685378449976L18.285714285714285,73.86481779092856L14.857142857142858,68.33566591766805L11.428571428571429,67.24687818280377L8,67.68017923551724L4.571428571428571,68.03397645270309L1.1428571428571428,66.59874359138772Z" fill="#2C2C2C" opacity="0.3"></path></g></g><path class="foreground" aria-hidden="true" d="" display="none"></path></g><g transform="translate(0,0)"><path class="background" aria-hidden="true" d="M0,0h128v130h-128Z"></path><g><g class="mark-area role-mark child_layer_0_layer_1_layer_0_marks" role="graphics-object" aria-roledescription="area mark container"><path aria-label=": -0.0372491767812; upper_lower: 0.0262360235232; Time (s): -0.96875; Source: spatial; upper: 0.0262360235232; lower: -0.0372491767812" role="graphics-symbol" aria-roledescription="errorband" d="M1.1428571428571428,116.55633173436826L4.571428571428571,112.50758339950005L8,107.00046691731656L11.428571428571429,113.93943083748377L14.857142857142858,102.06310478766139L18.285714285714285,97.77521711634672L21.714285714285715,101.16737355025828L25.142857142857142,92.45262043022345L28.571428571428573,97.89274481458801L32,100.83028623621165L35.42857142857143,104.14543307447593L38.857142857142854,105.94054186238277L42.285714285714285,107.422725189572L45.714285714285715,109.33823586222596L49.142857142857146,93.69522113640419L52.57142857142857,93.96777636553504L56,88.24098878152367L59.42857142857143,84.01904759169412L62.857142857142854,78.04232894865312L66.28571428571429,90.5644535764801L69.71428571428571,86.8950888181765L73.14285714285714,81.9329599665265L76.57142857142857,86.8783958548645L80,89.22607791008312L83.42857142857143,89.22615159835921L86.85714285714286,90.2640381612679L90.28571428571429,96.68891086538332L93.71428571428571,89.09455482582416L97.14285714285714,86.81627869056008L100.57142857142857,79.6083822497051L104,91.22363915361439L107.42857142857143,99.7233341404583L110.85714285714286,108.77727111587858L114.28571428571429,107.51983144961541L117.71428571428571,109.83079154439825L121.14285714285714,103.14874295081476L124.57142857142857,107.3063800193172L124.57142857142857,65.02073756592232L121.14285714285714,43.72682302718456L117.71428571428571,53.40763044007183L114.28571428571429,63.460507454688525L110.85714285714286,62.316596274706384L107.42857142857143,56.81214612445727L104,55.63593049665683L100.57142857142857,47.09341438859371L97.14285714285714,47.644646882112255L93.71428571428571,50.422826612467624L90.28571428571429,63.15730028349202L86.85714285714286,46.67440247986679L83.42857142857143,35.376020558497736L80,34.69774806172975L76.57142857142857,29.660018168696126L73.14285714285714,21.17600748669519L69.71428571428571,23.568794348719138L66.28571428571429,27.024201614465852L62.857142857142854,23.180689560008744L59.42857142857143,33.05805065066777L56,42.167788944296305L52.57142857142857,45.64858256844168L49.142857142857146,53.11728500193295L45.714285714285715,69.11002905904509L42.285714285714285,64.49980713816912L38.857142857142854,67.62282689350316L35.42857142857143,74.56086136498196L32,70.12177681327546L28.571428571428573,67.93222671946788L25.142857142857142,63.75654812571969L21.714285714285715,61.082029992455006L18.285714285714285,65.1183089545261L14.857142857142858,68.26141801385775L11.428571428571429,83.29344842697638L8,73.8177972430203L4.571428571428571,76.26558980530916L1.1428571428571428,79.04234973629309Z" fill="#687B3E" opacity="0.3"></path></g></g><path class="foreground" aria-hidden="true" d="" display="none"></path></g></g><g class="mark-text role-mark child_layer_0_layer_2_marks" role="graphics-object" aria-roledescription="text mark container"><text aria-label=": 1.46875; Source: spatial; Mean of upper: 0.0780879509466; train_type_lbl: Target,Source" role="graphics-symbol" aria-roledescription="text mark" text-anchor="start" transform="translate(93.28571428571429,42.40257444061884)" font-family="sans-serif" font-size="11px" fill="#687B3E"><tspan>Target</tspan><tspan x="0" dy="13">Source</tspan></text></g><g class="mark-text role-mark child_layer_0_layer_3_marks" role="graphics-object" aria-roledescription="text mark container"><text aria-label=": 1.375; Source: other; Mean of lower: -0.0402536467652; train_type_lbl: Other,Sources" role="graphics-symbol" aria-roledescription="text mark" text-anchor="end" transform="translate(89.85714285714286,130.33170036124417)" font-family="sans-serif" font-size="11px" fill="#2C2C2C"><tspan>Other</tspan><tspan x="0" dy="13">Sources</tspan></text></g><g class="mark-text role-mark child_layer_1_layer_0_marks" role="graphics-object" aria-roledescription="text mark container"><text text-anchor="middle" transform="translate(54.857142857142854,12.772727272727273)" font-family="sans-serif" font-size="11px" fill="black"><tspan>Target</tspan><tspan x="0" dy="13">Extent</tspan></text></g><g class="mark-rect role-mark child_layer_1_layer_1_marks" role="graphics-symbol" aria-roledescription="rect mark container"><path d="M36.57142857142857,0h36.57142857142857v130h-36.57142857142857Z" fill="gray" opacity="0.25"></path></g></g><path class="foreground" aria-hidden="true" d="" display="none"></path></g><g transform="translate(282,175)"><path class="background" aria-hidden="true" d="M0.5,0.5h128v130h-128Z" stroke="#ddd"></path><g><g class="mark-group role-axis" aria-hidden="true"><g transform="translate(0.5,130.5)"><path class="background" aria-hidden="true" d="M0,0h0v0h0Z" pointer-events="none"></path><g><g class="mark-rule role-axis-grid" pointer-events="none"><line transform="translate(0,-130)" x2="0" y2="130" stroke="#ddd" stroke-width="1" opacity="1"></line><line transform="translate(37,-130)" x2="0" y2="130" stroke="#ddd" stroke-width="1" opacity="1"></line><line transform="translate(73,-130)" x2="0" y2="130" stroke="#ddd" stroke-width="1" opacity="1"></line><line transform="translate(110,-130)" x2="0" y2="130" stroke="#ddd" stroke-width="1" opacity="1"></line></g></g><path class="foreground" aria-hidden="true" d="" pointer-events="none" display="none"></path></g></g><g class="mark-group role-axis" aria-hidden="true"><g transform="translate(0.5,0.5)"><path class="background" aria-hidden="true" d="M0,0h0v0h0Z" pointer-events="none"></path><g><g class="mark-rule role-axis-grid" pointer-events="none"><line transform="translate(0,124)" x2="128" y2="0" stroke="#ddd" stroke-width="1" opacity="1"></line><line transform="translate(0,95)" x2="128" y2="0" stroke="#ddd" stroke-width="1" opacity="1"></line><line transform="translate(0,65)" x2="128" y2="0" stroke="#ddd" stroke-width="1" opacity="1"></line><line transform="translate(0,35)" x2="128" y2="0" stroke="#ddd" stroke-width="1" opacity="1"></line><line transform="translate(0,6)" x2="128" y2="0" stroke="#ddd" stroke-width="1" opacity="1"></line></g></g><path class="foreground" aria-hidden="true" d="" pointer-events="none" display="none"></path></g></g><g class="mark-group role-scope child_layer_0_layer_0_pathgroup" role="graphics-object" aria-roledescription="group mark container"><g transform="translate(0,0)"><path class="background" aria-hidden="true" d="M0,0h128v130h-128Z"></path><g><g class="mark-line role-mark child_layer_0_layer_0_marks" role="graphics-object" aria-roledescription="line mark container"><path aria-label="Time (s): -0.96875; Source: other; Decoding Correlation: 0.0178414465516" role="graphics-symbol" aria-roledescription="line mark" d="M1.1428571428571428,84.00278158315336L4.571428571428571,83.07777250475428L8,83.58093068277239L11.428571428571429,84.91941120964928L14.857142857142858,87.97858347206363L18.285714285714285,87.29354673470216L21.714285714285715,86.44446434199641L25.142857142857142,88.02641372041533L28.571428571428573,90.12471429357373L32,88.09583039071423L35.42857142857143,82.92047079500682L38.857142857142854,84.8737056266353L42.285714285714285,77.95382364721625L45.714285714285715,70.63168469692069L49.142857142857146,67.54852776223878L52.57142857142857,67.24599246249011L56,65.11243674559103L59.42857142857143,68.9601517999062L62.857142857142854,61.75704466409605L66.28571428571429,62.549930048568164L69.71428571428571,62.63182953927193L73.14285714285714,67.41904316496745L76.57142857142857,71.59811985999944L80,74.92311374032361L83.42857142857143,80.0855863650417L86.85714285714286,84.19783318204442L90.28571428571429,86.32007081477802L93.71428571428571,87.22290586056648L97.14285714285714,89.18082581202897L100.57142857142857,94.570796395235L104,100.04951357390058L107.42857142857143,101.78522173004261L110.85714285714286,101.8392077450252L114.28571428571429,95.2578808489982L117.71428571428571,92.78625168230374L121.14285714285714,84.61982689837278L124.57142857142857,84.58860931000666" stroke="#2C2C2C" stroke-width="2" stroke-linejoin="round"></path></g></g><path class="foreground" aria-hidden="true" d="" display="none"></path></g><g transform="translate(0,0)"><path class="background" aria-hidden="true" d="M0,0h128v130h-128Z"></path><g><g class="mark-line role-mark child_layer_0_layer_0_marks" role="graphics-object" aria-roledescription="line mark container"><path aria-label="Time (s): -0.96875; Source: object; Decoding Correlation: 0.0114597169416" role="graphics-symbol" aria-roledescription="line mark" d="M1.1428571428571428,87.77380362544152L4.571428571428571,90.89205170678753L8,91.55960630923026L11.428571428571429,93.02311545085468L14.857142857142858,93.36884209299299L18.285714285714285,91.89995996702906L21.714285714285715,95.6374070978815L25.142857142857142,102.60754558430553L28.571428571428573,99.71802966607994L32,103.42615719871733L35.42857142857143,99.26000376968338L38.857142857142854,100.55935482952545L42.285714285714285,98.4279780509293L45.714285714285715,95.7373334091254L49.142857142857146,92.29345160603835L52.57142857142857,92.36875124373246L56,87.90239011304243L59.42857142857143,74.29910378537389L62.857142857142854,67.956669274762L66.28571428571429,57.910847770058986L69.71428571428571,44.06664750119843L73.14285714285714,42.708641942055344L76.57142857142857,45.26206735032087L80,54.31605373133668L83.42857142857143,58.62035505188495L86.85714285714286,58.25504385619144L90.28571428571429,64.14039707275944L93.71428571428571,64.38831813721146L97.14285714285714,68.24345749271802L100.57142857142857,68.2235490245615L104,72.00472799355393L107.42857142857143,87.05198854794828L110.85714285714286,91.88460656967843L114.28571428571429,88.93686954897947L117.71428571428571,83.98773374034567L121.14285714285714,91.02180056991712L124.57142857142857,83.57900570137123" stroke="#EB9A60" stroke-width="2" stroke-linejoin="round"></path></g></g><path class="foreground" aria-hidden="true" d="" display="none"></path></g></g><g class="mark-group role-scope child_layer_0_layer_1_layer_0_pathgroup" role="graphics-object" aria-roledescription="group mark container"><g transform="translate(0,0)"><path class="background" aria-hidden="true" d="M0,0h128v130h-128Z"></path><g><g class="mark-area role-mark child_layer_0_layer_1_layer_0_marks" role="graphics-object" aria-roledescription="area mark container"><path aria-label=": 0.00022874056851; upper_lower: 0.038830308374; Time (s): -0.96875; Source: other; upper: 0.038830308374; lower: 0.00022874056851" role="graphics-symbol" aria-roledescription="errorband" d="M1.1428571428571428,94.41028966406206L4.571428571428571,93.13607450037037L8,94.40506326278869L11.428571428571429,95.9549207575918L14.857142857142858,99.82394168823113L18.285714285714285,98.32445647819327L21.714285714285715,98.30130176152198L25.142857142857142,99.16762454546371L28.571428571428573,100.57864125932197L32,96.25951781336632L35.42857142857143,93.64087216556867L38.857142857142854,96.22952476549209L42.285714285714285,88.04766086075263L45.714285714285715,79.50574249968449L49.142857142857146,75.39533599329708L52.57142857142857,76.94473733482498L56,73.58929281312273L59.42857142857143,75.76855296047613L62.857142857142854,69.50028174994858L66.28571428571429,69.50900344870143L69.71428571428571,72.30672232957804L73.14285714285714,76.60592008846871L76.57142857142857,81.45997954728574L80,83.43793126762004L83.42857142857143,88.92300309633073L86.85714285714286,94.09590617762892L90.28571428571429,94.85850117275555L93.71428571428571,95.76272978768208L97.14285714285714,99.3340239380729L100.57142857142857,104.92700946445215L104,111.04617174666065L107.42857142857143,113.75263516604382L110.85714285714286,113.8761811221438L114.28571428571429,104.00783541374572L117.71428571428571,100.91990497156495L121.14285714285714,93.85144075907313L124.57142857142857,94.17492616897954L124.57142857142857,74.90478186158714L121.14285714285714,75.13325186820857L117.71428571428571,84.22562163063044L114.28571428571429,85.9282085265134L110.85714285714286,88.81951341994514L107.42857142857143,89.25090336736068L104,88.16376173060102L100.57142857142857,83.606579508779L97.14285714285714,77.89303640145786L93.71428571428571,77.05907380500655L90.28571428571429,76.56242244580206L86.85714285714286,72.58384484853256L83.42857142857143,70.39418823340517L80,65.61580158256685L76.57142857142857,61.268765252296475L73.14285714285714,58.326756718842475L69.71428571428571,53.439369319331895L66.28571428571429,55.670527926075636L62.857142857142854,54.05770565602796L59.42857142857143,61.735917386869936L56,56.734596031068484L52.57142857142857,57.5954162130159L49.142857142857146,59.833771954314436L45.714285714285715,61.97830511320244L42.285714285714285,68.86103188348865L38.857142857142854,72.77656379313993L35.42857142857143,71.49707639360328L32,79.51615513280821L28.571428571428573,78.0377276737929L25.142857142857142,74.93354951855595L21.714285714285715,73.8694383444168L18.285714285714285,75.84489084325199L14.857142857142858,75.12104372778701L11.428571428571429,72.53927413179908L8,70.26554100831807L4.571428571428571,71.29755651306199L1.1428571428571428,71.60027232443741Z" fill="#2C2C2C" opacity="0.3"></path></g></g><path class="foreground" aria-hidden="true" d="" display="none"></path></g><g transform="translate(0,0)"><path class="background" aria-hidden="true" d="M0,0h128v130h-128Z"></path><g><g class="mark-area role-mark child_layer_0_layer_1_layer_0_marks" role="graphics-object" aria-roledescription="area mark container"><path aria-label=": -0.00547384265371; upper_lower: 0.0296809167048; Time (s): -0.96875; Source: object; upper: 0.0296809167048; lower: -0.00547384265371" role="graphics-symbol" aria-roledescription="errorband" d="M1.1428571428571428,97.77999793173485L4.571428571428571,102.58104444769849L8,104.04461075684326L11.428571428571429,107.84186536731785L14.857142857142858,109.04507782274344L18.285714285714285,105.28156829109221L21.714285714285715,110.73411273812853L25.142857142857142,119.71080957829288L28.571428571428573,116.98162513309286L32,117.45714257300506L35.42857142857143,112.37835164160815L38.857142857142854,113.89332354763769L42.285714285714285,111.12013671173351L45.714285714285715,109.14425888915255L49.142857142857146,105.01837496192816L52.57142857142857,103.84962711523623L56,102.0012781514235L59.42857142857143,87.70854744352638L62.857142857142854,81.64271346228492L66.28571428571429,73.61453295741629L69.71428571428571,61.78005337446108L73.14285714285714,57.81107624376767L76.57142857142857,63.80696845999214L80,71.08045383926627L83.42857142857143,74.2444577270518L86.85714285714286,72.89247808571209L90.28571428571429,83.21532393164274L93.71428571428571,85.17197738066176L97.14285714285714,89.86666467656224L100.57142857142857,90.86856920741492L104,97.18812839805622L107.42857142857143,107.91951475027795L110.85714285714286,112.24453509106607L114.28571428571429,107.83394960613259L117.71428571428571,104.09592293930528L121.14285714285714,107.95155698768698L124.57142857142857,100.88804805978734L124.57142857142857,67.62535060509877L121.14285714285714,75.2797813351239L117.71428571428571,65.38286457568596L114.28571428571429,73.00895546022473L110.85714285714286,73.84446443135177L107.42857142857143,68.95674179841112L104,51.1169513640628L100.57142857142857,47.265035659765736L97.14285714285714,46.94863759338736L93.71428571428571,44.49221697463468L90.28571428571429,45.60897975246571L86.85714285714286,44.200570647646856L83.42857142857143,42.888634780228415L80,37.21868804730444L76.57142857142857,27.144834948276113L73.14285714285714,27.513427717075867L69.71428571428571,26.30360834256029L66.28571428571429,42.06956474259238L62.857142857142854,54.44194294023133L59.42857142857143,60.209582149117L56,72.73624229548743L52.57142857142857,81.18413711536424L49.142857142857146,79.83400926380853L45.714285714285715,80.81355753622611L42.285714285714285,84.32340298010207L38.857142857142854,85.90597269302378L35.42857142857143,85.18849802828163L32,89.18566083793877L28.571428571428573,83.32150693944506L25.142857142857142,85.70768299379566L21.714285714285715,80.2257926659976L18.285714285714285,78.13986754174638L14.857142857142858,75.81145278035825L11.428571428571429,77.14668162721112L8,78.14165167107889L4.571428571428571,79.16097573554802L1.1428571428571428,77.00673103806287Z" fill="#EB9A60" opacity="0.3"></path></g></g><path class="foreground" aria-hidden="true" d="" display="none"></path></g></g><g class="mark-text role-mark child_layer_0_layer_2_marks" role="graphics-object" aria-roledescription="text mark container"><text aria-label=": 1.46875; Source: object; Mean of upper: 0.085144613488; train_type_lbl: Target,Source" role="graphics-symbol" aria-roledescription="text mark" text-anchor="start" transform="translate(93.28571428571429,38.232728393446976)" font-family="sans-serif" font-size="11px" fill="#EB9A60"><tspan>Target</tspan><tspan x="0" dy="13">Source</tspan></text></g><g class="mark-text role-mark child_layer_0_layer_3_marks" role="graphics-object" aria-roledescription="text mark container"><text aria-label=": 1.375; Source: other; Mean of lower: 0.000760774160936; train_type_lbl: Other,Sources" role="graphics-symbol" aria-roledescription="text mark" text-anchor="end" transform="translate(89.85714285714286,106.09590617762892)" font-family="sans-serif" font-size="11px" fill="#2C2C2C"><tspan>Other</tspan><tspan x="0" dy="13">Sources</tspan></text></g><g class="mark-text role-mark child_layer_1_layer_0_marks" role="graphics-object" aria-roledescription="text mark container"><text text-anchor="middle" transform="translate(54.857142857142854,12.772727272727273)" font-family="sans-serif" font-size="11px" fill="black"><tspan>Target</tspan><tspan x="0" dy="13">Extent</tspan></text></g><g class="mark-rect role-mark child_layer_1_layer_1_marks" role="graphics-symbol" aria-roledescription="rect mark container"><path d="M36.57142857142857,0h36.57142857142857v130h-36.57142857142857Z" fill="gray" opacity="0.25"></path></g></g><path class="foreground" aria-hidden="true" d="" display="none"></path></g></g></g><path class="foreground" aria-hidden="true" d="" display="none"></path></g></g></g></svg>
