<?xml version="1.0" encoding="utf-8"?>
<!DOCTYPE svg PUBLIC "-//W3C//DTD SVG 1.1//EN" "http://www.w3.org/Graphics/SVG/1.1/DTD/svg11.dtd">
<svg class="marks" width="469" height="362" viewBox="0 0 469 362" version="1.1" xmlns="http://www.w3.org/2000/svg" xmlns:xlink="http://www.w3.org/1999/xlink"><defs><clipPath id="clip1"><rect x="0" y="0" width="128" height="130"></rect></clipPath><clipPath id="clip2"><rect x="0" y="0" width="128" height="130"></rect></clipPath><clipPath id="clip3"><rect x="0" y="0" width="128" height="130"></rect></clipPath><clipPath id="clip4"><rect x="0" y="0" width="128" height="130"></rect></clipPath></defs><rect width="469" height="362" fill="white"></rect><g fill="none" stroke-miterlimit="10" transform="translate(97,57)"><g class="mark-group role-frame root" role="graphics-object" aria-roledescription="group mark container"><g transform="translate(0,0)"><path class="background" aria-hidden="true" d="M0,0h0v0h0Z"></path><g><g class="mark-group role-row-title row-title" role="graphics-object" aria-roledescription="group mark container"><g transform="translate(-70,134)"><path class="background" aria-hidden="true" d="M0,0h0v0h0Z"></path><g><g class="mark-group role-title"><g transform="translate(-21.000000000000007,0)"><path class="background" aria-hidden="true" d="M0,0h0v0h0Z" pointer-events="none"></path><g><g class="mark-text role-title-text" role="graphics-symbol" aria-roledescription="title" aria-label="Title text 'spatial_source'" pointer-events="none"><text text-anchor="middle" transform="translate(0,0) rotate(-90) translate(0,9)" font-family="sans-serif" font-size="11px" font-weight="bold" fill="#000" opacity="1">spatial_source</text></g></g><path class="foreground" aria-hidden="true" d="" pointer-events="none" display="none"></path></g></g></g><path class="foreground" aria-hidden="true" d="" display="none"></path></g></g><g class="mark-group role-column-title column-title" role="graphics-object" aria-roledescription="group mark container"><g transform="translate(134,-31)"><path class="background" aria-hidden="true" d="M0,0h0v0h0Z"></path><g><g class="mark-group role-title"><g transform="translate(0,-21)"><path class="background" aria-hidden="true" d="M0,0h0v0h0Z" pointer-events="none"></path><g><g class="mark-text role-title-text" role="graphics-symbol" aria-roledescription="title" aria-label="Title text 'switch_timing'" pointer-events="none"><text text-anchor="middle" transform="translate(0,9)" font-family="sans-serif" font-size="11px" font-weight="bold" fill="#000" opacity="1">switch_timing</text></g></g><path class="foreground" aria-hidden="true" d="" pointer-events="none" display="none"></path></g></g></g><path class="foreground" aria-hidden="true" d="" display="none"></path></g></g><g class="mark-group role-row-header row_header" role="graphics-object" aria-roledescription="group mark container"><g transform="translate(-3,0)"><path class="background" aria-hidden="true" d="M0,0h0v130h0Z"></path><g><g class="mark-group role-axis" role="graphics-symbol" aria-roledescription="axis" aria-label="Y-axis titled 'P(Correct)' for a linear scale with values from 0.2 to 0.8"><g transform="translate(0.5,0.5)"><path class="background" aria-hidden="true" d="M0,0h0v0h0Z" pointer-events="none"></path><g><g class="mark-rule role-axis-tick" pointer-events="none"><line transform="translate(0,130)" x2="-5" y2="0" stroke="#888" stroke-width="1" opacity="1"></line><line transform="translate(0,106)" x2="-5" y2="0" stroke="#888" stroke-width="1" opacity="1"></line><line transform="translate(0,83)" x2="-5" y2="0" stroke="#888" stroke-width="1" opacity="1"></line><line transform="translate(0,59)" x2="-5" y2="0" stroke="#888" stroke-width="1" opacity="1"></line><line transform="translate(0,35)" x2="-5" y2="0" stroke="#888" stroke-width="1" opacity="1"></line><line transform="translate(0,12)" x2="-5" y2="0" stroke="#888" stroke-width="1" opacity="1"></line></g><g class="mark-text role-axis-label" pointer-events="none"><text text-anchor="end" transform="translate(-7,133)" font-family="sans-serif" font-size="10px" fill="#000" opacity="1">0.2</text><text text-anchor="end" transform="translate(-7,109.36363636363637)" font-family="sans-serif" font-size="10px" fill="#000" opacity="1">0.3</text><text text-anchor="end" transform="translate(-7,85.72727272727272)" font-family="sans-serif" font-size="10px" fill="#000" opacity="1">0.4</text><text text-anchor="end" transform="translate(-7,62.09090909090909)" font-family="sans-serif" font-size="10px" fill="#000" opacity="1">0.5</text><text text-anchor="end" transform="translate(-7,38.45454545454547)" font-family="sans-serif" font-size="10px" fill="#000" opacity="1">0.6</text><text text-anchor="end" transform="translate(-7,14.818181818181836)" font-family="sans-serif" font-size="10px" fill="#000" opacity="1">0.7</text></g><g class="mark-rule role-axis-domain" pointer-events="none"><line transform="translate(0,130)" x2="0" y2="-130" stroke="#888" stroke-width="1" opacity="1"></line></g><g class="mark-text role-axis-title" pointer-events="none"><text text-anchor="middle" transform="translate(-26,65) rotate(-90) translate(0,-2)" font-family="sans-serif" font-size="11px" font-weight="bold" fill="#000" opacity="1">P(Correct)</text></g></g><path class="foreground" aria-hidden="true" d="" pointer-events="none" display="none"></path></g></g><g class="mark-group role-title"><g transform="translate(-57,65)"><path class="background" aria-hidden="true" d="M0,0h0v0h0Z" pointer-events="none"></path><g><g class="mark-text role-title-text" role="graphics-symbol" aria-roledescription="title" aria-label="Title text 'false'" pointer-events="none"><text text-anchor="middle" transform="translate(0,0) rotate(-90) translate(0,8)" font-family="sans-serif" font-size="10px" fill="#000" opacity="1">false</text></g></g><path class="foreground" aria-hidden="true" d="" pointer-events="none" display="none"></path></g></g></g><path class="foreground" aria-hidden="true" d="" display="none"></path></g><g transform="translate(-3,137)"><path class="background" aria-hidden="true" d="M0,0h0v130h0Z"></path><g><g class="mark-group role-axis" role="graphics-symbol" aria-roledescription="axis" aria-label="Y-axis titled 'P(Correct)' for a linear scale with values from 0.2 to 0.8"><g transform="translate(0.5,0.5)"><path class="background" aria-hidden="true" d="M0,0h0v0h0Z" pointer-events="none"></path><g><g class="mark-rule role-axis-tick" pointer-events="none"><line transform="translate(0,130)" x2="-5" y2="0" stroke="#888" stroke-width="1" opacity="1"></line><line transform="translate(0,106)" x2="-5" y2="0" stroke="#888" stroke-width="1" opacity="1"></line><line transform="translate(0,83)" x2="-5" y2="0" stroke="#888" stroke-width="1" opacity="1"></line><line transform="translate(0,59)" x2="-5" y2="0" stroke="#888" stroke-width="1" opacity="1"></line><line transform="translate(0,35)" x2="-5" y2="0" stroke="#888" stroke-width="1" opacity="1"></line><line transform="translate(0,12)" x2="-5" y2="0" stroke="#888" stroke-width="1" opacity="1"></line></g><g class="mark-text role-axis-label" pointer-events="none"><text text-anchor="end" transform="translate(-7,133)" font-family="sans-serif" font-size="10px" fill="#000" opacity="1">0.2</text><text text-anchor="end" transform="translate(-7,109.36363636363637)" font-family="sans-serif" font-size="10px" fill="#000" opacity="1">0.3</text><text text-anchor="end" transform="translate(-7,85.72727272727272)" font-family="sans-serif" font-size="10px" fill="#000" opacity="1">0.4</text><text text-anchor="end" transform="translate(-7,62.09090909090909)" font-family="sans-serif" font-size="10px" fill="#000" opacity="1">0.5</text><text text-anchor="end" transform="translate(-7,38.45454545454547)" font-family="sans-serif" font-size="10px" fill="#000" opacity="1">0.6</text><text text-anchor="end" transform="translate(-7,14.818181818181836)" font-family="sans-serif" font-size="10px" fill="#000" opacity="1">0.7</text></g><g class="mark-rule role-axis-domain" pointer-events="none"><line transform="translate(0,130)" x2="0" y2="-130" stroke="#888" stroke-width="1" opacity="1"></line></g><g class="mark-text role-axis-title" pointer-events="none"><text text-anchor="middle" transform="translate(-26,65) rotate(-90) translate(0,-2)" font-family="sans-serif" font-size="11px" font-weight="bold" fill="#000" opacity="1">P(Correct)</text></g></g><path class="foreground" aria-hidden="true" d="" pointer-events="none" display="none"></path></g></g><g class="mark-group role-title"><g transform="translate(-57,65)"><path class="background" aria-hidden="true" d="M0,0h0v0h0Z" pointer-events="none"></path><g><g class="mark-text role-title-text" role="graphics-symbol" aria-roledescription="title" aria-label="Title text 'true'" pointer-events="none"><text text-anchor="middle" transform="translate(0,0) rotate(-90) translate(0,8)" font-family="sans-serif" font-size="10px" fill="#000" opacity="1">true</text></g></g><path class="foreground" aria-hidden="true" d="" pointer-events="none" display="none"></path></g></g></g><path class="foreground" aria-hidden="true" d="" display="none"></path></g></g><g class="mark-group role-column-header column_header" role="graphics-object" aria-roledescription="group mark container"><g transform="translate(0,-1)"><path class="background" aria-hidden="true" d="M0,0h128v0h-128Z"></path><g><g class="mark-group role-title"><g transform="translate(64,-20)"><path class="background" aria-hidden="true" d="M0,0h0v0h0Z" pointer-events="none"></path><g><g class="mark-text role-title-text" role="graphics-symbol" aria-roledescription="title" aria-label="Title text 'Q1: [0.257438, 3.2171)'" pointer-events="none"><text text-anchor="middle" transform="translate(0,8)" font-family="sans-serif" font-size="10px" fill="#000" opacity="1">Q1: [0.257438, 3.2171)</text></g></g><path class="foreground" aria-hidden="true" d="" pointer-events="none" display="none"></path></g></g></g><path class="foreground" aria-hidden="true" d="" display="none"></path></g><g transform="translate(139,-1)"><path class="background" aria-hidden="true" d="M0,0h128v0h-128Z"></path><g><g class="mark-group role-title"><g transform="translate(64,-20)"><path class="background" aria-hidden="true" d="M0,0h0v0h0Z" pointer-events="none"></path><g><g class="mark-text role-title-text" role="graphics-symbol" aria-roledescription="title" aria-label="Title text 'Q2: [3.2171, 7.70884]'" pointer-events="none"><text text-anchor="middle" transform="translate(0,8)" font-family="sans-serif" font-size="10px" fill="#000" opacity="1">Q2: [3.2171, 7.70884]</text></g></g><path class="foreground" aria-hidden="true" d="" pointer-events="none" display="none"></path></g></g></g><path class="foreground" aria-hidden="true" d="" display="none"></path></g></g><g class="mark-group role-column-footer column_footer" role="graphics-object" aria-roledescription="group mark container"><g transform="translate(0,268)"><path class="background" aria-hidden="true" d="M0,0h128v0h-128Z"></path><g><g class="mark-group role-axis" role="graphics-symbol" aria-roledescription="axis" aria-label="X-axis titled 'Time from Switch offset (s)' for a linear scale with values from -2 to 4"><g transform="translate(0.5,0.5)"><path class="background" aria-hidden="true" d="M0,0h0v0h0Z" pointer-events="none"></path><g><g class="mark-rule role-axis-tick" pointer-events="none"><line transform="translate(0,0)" x2="0" y2="5" stroke="#888" stroke-width="1" opacity="1"></line><line transform="translate(43,0)" x2="0" y2="5" stroke="#888" stroke-width="1" opacity="1"></line><line transform="translate(85,0)" x2="0" y2="5" stroke="#888" stroke-width="1" opacity="1"></line><line transform="translate(128,0)" x2="0" y2="5" stroke="#888" stroke-width="1" opacity="1"></line></g><g class="mark-text role-axis-label" pointer-events="none"><text text-anchor="start" transform="translate(0,15)" font-family="sans-serif" font-size="10px" fill="#000" opacity="1">-2</text><text text-anchor="middle" transform="translate(42.666666666666664,15)" font-family="sans-serif" font-size="10px" fill="#000" opacity="1">0</text><text text-anchor="middle" transform="translate(85.33333333333333,15)" font-family="sans-serif" font-size="10px" fill="#000" opacity="1">2</text><text text-anchor="end" transform="translate(128,15)" font-family="sans-serif" font-size="10px" fill="#000" opacity="1">4</text></g><g class="mark-rule role-axis-domain" pointer-events="none"><line transform="translate(0,0)" x2="128" y2="0" stroke="#888" stroke-width="1" opacity="1"></line></g><g class="mark-text role-axis-title" pointer-events="none"><text text-anchor="middle" transform="translate(64,30)" font-family="sans-serif" font-size="11px" font-weight="bold" fill="#000" opacity="1">Time from Switch offset (s)</text></g></g><path class="foreground" aria-hidden="true" d="" pointer-events="none" display="none"></path></g></g></g><path class="foreground" aria-hidden="true" d="" display="none"></path></g><g transform="translate(139,268)"><path class="background" aria-hidden="true" d="M0,0h128v0h-128Z"></path><g><g class="mark-group role-axis" role="graphics-symbol" aria-roledescription="axis" aria-label="X-axis titled 'Time from Switch offset (s)' for a linear scale with values from -2 to 4"><g transform="translate(0.5,0.5)"><path class="background" aria-hidden="true" d="M0,0h0v0h0Z" pointer-events="none"></path><g><g class="mark-rule role-axis-tick" pointer-events="none"><line transform="translate(0,0)" x2="0" y2="5" stroke="#888" stroke-width="1" opacity="1"></line><line transform="translate(43,0)" x2="0" y2="5" stroke="#888" stroke-width="1" opacity="1"></line><line transform="translate(85,0)" x2="0" y2="5" stroke="#888" stroke-width="1" opacity="1"></line><line transform="translate(128,0)" x2="0" y2="5" stroke="#888" stroke-width="1" opacity="1"></line></g><g class="mark-text role-axis-label" pointer-events="none"><text text-anchor="start" transform="translate(0,15)" font-family="sans-serif" font-size="10px" fill="#000" opacity="1">-2</text><text text-anchor="middle" transform="translate(42.666666666666664,15)" font-family="sans-serif" font-size="10px" fill="#000" opacity="1">0</text><text text-anchor="middle" transform="translate(85.33333333333333,15)" font-family="sans-serif" font-size="10px" fill="#000" opacity="1">2</text><text text-anchor="end" transform="translate(128,15)" font-family="sans-serif" font-size="10px" fill="#000" opacity="1">4</text></g><g class="mark-rule role-axis-domain" pointer-events="none"><line transform="translate(0,0)" x2="128" y2="0" stroke="#888" stroke-width="1" opacity="1"></line></g><g class="mark-text role-axis-title" pointer-events="none"><text text-anchor="middle" transform="translate(64,30)" font-family="sans-serif" font-size="11px" font-weight="bold" fill="#000" opacity="1">Time from Switch offset (s)</text></g></g><path class="foreground" aria-hidden="true" d="" pointer-events="none" display="none"></path></g></g></g><path class="foreground" aria-hidden="true" d="" display="none"></path></g></g><g class="mark-group role-scope cell" role="graphics-object" aria-roledescription="group mark container"><g transform="translate(0,0)"><path class="background" aria-hidden="true" d="M0.5,0.5h128v130h-128Z" stroke="#ddd"></path><g><g class="mark-group role-axis" aria-hidden="true"><g transform="translate(0.5,130.5)"><path class="background" aria-hidden="true" d="M0,0h0v0h0Z" pointer-events="none"></path><g><g class="mark-rule role-axis-grid" pointer-events="none"><line transform="translate(0,-130)" x2="0" y2="130" stroke="#ddd" stroke-width="1" opacity="1"></line><line transform="translate(43,-130)" x2="0" y2="130" stroke="#ddd" stroke-width="1" opacity="1"></line><line transform="translate(85,-130)" x2="0" y2="130" stroke="#ddd" stroke-width="1" opacity="1"></line><line transform="translate(128,-130)" x2="0" y2="130" stroke="#ddd" stroke-width="1" opacity="1"></line></g></g><path class="foreground" aria-hidden="true" d="" pointer-events="none" display="none"></path></g></g><g class="mark-group role-axis" aria-hidden="true"><g transform="translate(0.5,0.5)"><path class="background" aria-hidden="true" d="M0,0h0v0h0Z" pointer-events="none"></path><g><g class="mark-rule role-axis-grid" pointer-events="none"><line transform="translate(0,130)" x2="128" y2="0" stroke="#ddd" stroke-width="1" opacity="1"></line><line transform="translate(0,106)" x2="128" y2="0" stroke="#ddd" stroke-width="1" opacity="1"></line><line transform="translate(0,83)" x2="128" y2="0" stroke="#ddd" stroke-width="1" opacity="1"></line><line transform="translate(0,59)" x2="128" y2="0" stroke="#ddd" stroke-width="1" opacity="1"></line><line transform="translate(0,35)" x2="128" y2="0" stroke="#ddd" stroke-width="1" opacity="1"></line><line transform="translate(0,12)" x2="128" y2="0" stroke="#ddd" stroke-width="1" opacity="1"></line></g></g><path class="foreground" aria-hidden="true" d="" pointer-events="none" display="none"></path></g></g><g class="mark-group role-scope child_layer_0_layer_0_layer_0_pathgroup" role="graphics-object" aria-roledescription="group mark container"><g transform="translate(0,0)"><path class="background" aria-hidden="true" d="M0,0h128v130h-128Z"></path><g><g class="mark-line role-mark child_layer_0_layer_0_layer_0_marks" role="graphics-object" aria-roledescription="line mark container"><path aria-label="Condition: global; Time from Switch offset (s): -2; P(Correct): 0.33763821676" role="graphics-symbol" aria-roledescription="line mark" d="M0,97.46733058406292L2,98.48057068750852L4,90.2575363792997L6,88.94119464517722L8,87.20323476884833L10,91.96800651293336L12,90.42758478868808L14,94.84185526948684L16,102.31752784604248L18,107.38202902228022L20,109.33310496052177L22,102.42911894119082L24,106.00339704088144L26,103.03206261480959L28,100.6264584588934L30,100.87947916247104L32,94.66229965109206L34,94.47979861428831L36,95.73712811191409L38,86.06729404263406L40,101.11734524167605L42,98.43126395989982L44,99.83112998939544L46,101.10071972637604L48,97.52919873210699L50,101.02187779977106L52,98.48272330255911L54,96.79691662245602L56,97.31479483603789L58,99.76841813593052L60,99.63138035091377L62,96.07830490714997L64,92.86341665621204L66,97.72075588541803L68,96.21969141547848L70,98.53055502026682L72,101.10446044225665L74,100.15610863998596L76,101.60407463363562L78,99.94169058070075L80,98.95647217579686L82,95.6524193800848L84,93.69936315949657L86,93.95483363182618L88,95.85197475314605L90,95.1522504273574L92,94.55158639152543L94,99.0850963013922L96,99.84571120083196L98,98.29314362885592L100,99.7179241101678L102,103.5999359932135L104,103.18074170880836L106,98.25062071231775L108,98.97807363477045L110,96.91887494679354L112,92.93483922413091L114,95.36135095693815L116,91.91820943907919L118,93.68160931351453L120,92.32723372703785L122,90.19375620461007L124,92.11723492759981L126,91.84981833300675L128,90.9344598888718" stroke="#0F3C5F" stroke-width="2" stroke-linejoin="round"></path></g></g><path class="foreground" aria-hidden="true" d="" display="none"></path></g><g transform="translate(0,0)"><path class="background" aria-hidden="true" d="M0,0h128v130h-128Z"></path><g><g class="mark-line role-mark child_layer_0_layer_0_layer_0_marks" role="graphics-object" aria-roledescription="line mark container"><path aria-label="Condition: object; Time from Switch offset (s): -2; P(Correct): 0.349573516761" role="graphics-symbol" aria-roledescription="line mark" d="M0,94.64625967466878L2,96.1827419213783L4,95.00758395644758L6,102.17890484935938L8,104.63576511871966L10,99.92951703178976L12,101.5874518999519L14,92.88982902619266L16,93.15146869124143L18,98.94256416983691L20,100.62889446412174L22,92.21958732988146L24,103.05350422997482L26,101.93775111054524L28,97.50300625300628L30,91.85698900772431L32,91.14258399096916L34,99.67770355387336L36,94.49494200325965L38,86.89330312600048L40,95.56728961552284L42,94.36434155945683L44,93.27891276986165L46,94.17322802505879L48,93.73794878491226L50,93.68235628336485L52,95.9957489053557L54,98.23885456969441L56,91.93634011925487L58,97.07858104657909L60,96.26064629799475L62,98.94374427593571L64,97.802820017187L66,103.4668000703666L68,99.43705472465992L70,98.96428994157662L72,93.45809107020666L74,94.31636536464595L76,95.11633486859235L78,92.18559567512891L80,95.08458939569671L82,96.41209407991961L84,92.29318004400967L86,92.50078173433091L88,86.32678088925441L90,88.22104766016083L92,96.25104788189859L94,89.85947852662183L96,94.22960277303451L98,90.77346444219951L100,93.09237115308264L102,94.96578894032365L104,90.2073522232886L106,90.72507386220309L108,91.54187952463991L110,95.18959424352781L112,91.82430727528183L114,101.62838920978488L116,98.18722311403575L118,97.2891125954768L120,102.63158460962944L122,98.4022167020032L124,101.33002284857672L126,99.83558340406597L128,97.09323650853804" stroke="#EB9A60" stroke-width="2" stroke-linejoin="round"></path></g></g><path class="foreground" aria-hidden="true" d="" display="none"></path></g></g><g class="mark-group role-scope child_layer_0_layer_0_layer_1_layer_0_pathgroup" role="graphics-object" aria-roledescription="group mark container"><g transform="translate(0,0)"><path class="background" aria-hidden="true" d="M0,0h128v130h-128Z"></path><g><g class="mark-area role-mark child_layer_0_layer_0_layer_1_layer_0_marks" role="graphics-object" aria-roledescription="area mark container"><path aria-label=": 0.30684298149; upper_lower: 0.368588189309; Condition: global; Time from Switch offset (s): -2; upper: 0.368588189309; lower: 0.30684298149" role="graphics-symbol" aria-roledescription="errorband" d="M0,104.7462043750128L2,106.8998780339549L4,97.82635920076555L6,95.25165972157073L8,94.9499179232855L10,99.74331199029082L12,96.65323982524235L14,101.41601201551856L16,108.76642834559999L18,113.82859846263791L20,115.77558429091646L22,108.43032608637897L24,112.90981839753731L26,109.75256535947344L28,107.90920312080263L30,106.9292869500522L32,101.61163429825866L34,101.61737168951626L36,101.69621487344222L38,91.1286590631354L40,105.27494745385059L42,102.84278818343365L44,104.83746493164874L46,105.57025705743612L48,101.89958232530522L50,105.07450702730719L52,103.72753760370782L54,102.11770145546794L56,102.8022409352787L58,104.74630017441622L60,104.80258955639923L62,100.34544648045527L64,97.90765839174927L66,102.55925616260478L68,100.64154789862867L70,103.47132347784608L72,105.2303334056412L74,104.43740796177232L76,106.72392774571745L78,105.45004279234185L80,103.48267833718747L82,100.22874672819187L84,98.5299954783402L86,98.57104497689662L88,100.91908707211348L90,101.24816501474682L92,99.29264916756557L94,103.01318579843281L96,103.54332671168845L98,102.37918566029522L100,104.5801877474574L102,108.96029556039174L104,108.3682385669451L106,102.70092105057817L108,102.89149319140081L110,102.05036697792778L112,99.44613346593142L114,100.90626488574138L116,96.61933062278115L118,98.45881906409178L120,96.91330524458344L122,94.90900148013262L124,96.84301452355766L126,97.17433604860861L128,95.57050504270357L128,85.74302718885093L126,86.01182198072924L124,87.10157178995958L122,85.44269737895615L120,87.3750232333744L118,88.78711091881249L116,86.7865503337158L114,89.43646333190185L112,85.75908760805791L110,91.48812442227155L108,95.0711553290064L106,93.81475692089909L104,97.7689376277997L102,97.93548229657999L100,94.54472903450137L98,94.02789174066598L96,96.12371306820599L94,95.19915508820009L92,89.95126898766517L90,88.96698080986658L88,91.19581018704686L86,89.32445123865142L84,88.54242551317564L82,90.97206284508155L80,94.06606267519568L78,94.71457423095592L76,96.45458565073535L74,95.95852011282255L72,96.64888971095793L70,93.49180375617381L68,92.16912980096852L66,93.19292891391342L64,88.07380933618532L62,91.53796431682957L60,94.44860215657185L58,94.97675629306089L56,91.54651667075495L54,91.03836430973084L52,93.1288212751537L50,96.54759167305762L48,93.14833098384491L46,96.52811221014059L44,94.64461086646767L42,93.78668252129744L40,96.93271858242616L38,80.91331745070292L36,89.38317629429909L34,87.49928613209818L32,87.5480920931306L30,94.87229152529527L28,93.77829021184297L26,96.22477652908799L24,99.3442177492342L22,96.3443498728564L20,103.24979951740558L18,101.22096624432238L16,96.33728263322752L14,88.4699596212754L12,83.81675699978892L10,83.83625088368441L8,79.9842216413292L6,82.36354956897458L4,82.69157633904419L2,90.3669203375614L0,90.1518825269705Z" fill="#0F3C5F" opacity="0.3"></path></g></g><path class="foreground" aria-hidden="true" d="" display="none"></path></g><g transform="translate(0,0)"><path class="background" aria-hidden="true" d="M0,0h128v130h-128Z"></path><g><g class="mark-area role-mark child_layer_0_layer_0_layer_1_layer_0_marks" role="graphics-object" aria-roledescription="area mark container"><path aria-label=": 0.294259139298; upper_lower: 0.401260683761; Condition: object; Time from Switch offset (s): -2; upper: 0.401260683761; lower: 0.294259139298" role="graphics-symbol" aria-roledescription="errorband" d="M0,107.7205670749705L2,109.75001639774366L4,104.48345126043986L6,114.82758592417683L8,118.08710003170226L10,111.23529224878656L12,111.00884282489399L14,105.26030017436267L16,104.11737129137703L18,111.30551524443572L20,110.83588830676898L22,102.94657048425432L24,112.73220740316332L26,111.22598269105623L28,106.46082808123253L30,99.3503933770478L32,100.18742547297421L34,107.4677834374108L36,102.59049162688406L38,92.8938240034741L40,101.13767225831336L42,102.51901065069407L44,99.79194769181612L46,100.44922555405795L48,100.88335515449542L50,100.27773664950533L52,102.56597835349592L54,104.00937559243829L56,97.34446372563396L58,103.87294192474832L60,103.12953519566321L62,105.7735493391044L64,104.52673951536642L66,111.58216113022972L68,104.94266823919692L70,105.56475490772449L72,100.12991517663515L74,100.51363561137572L76,101.11069114704948L78,101.48232647630905L80,102.65657500594395L82,105.4000358600569L84,100.9413961274612L86,100.19916266267381L88,92.89897271746659L90,94.61084769756036L92,103.442851838057L94,94.72660172879124L96,99.32388101149905L98,96.67407591425291L100,99.36086761659308L102,100.90404070549201L104,95.7056756225033L106,97.81392172971584L108,99.81533558381298L110,105.53151996034453L112,97.50716859482122L114,109.18621250437712L116,104.26591648250974L118,103.24167952499253L120,107.5453383384669L122,104.44248659874083L124,106.87334644976002L126,106.15954406532133L128,105.30659298365579L128,90.25687440164755L126,93.63425019550832L124,95.70797689660161L122,92.76345624529144L120,97.69973163428591L118,91.08968994869983L116,91.77485005777334L114,93.28910383217885L112,86.03898166914048L110,84.04210459292396L108,82.4699723544489L106,83.58456030965363L104,84.76495787860227L102,88.54908666144443L100,86.97859058484106L98,84.8476355807543L96,89.32858326877911L94,85.0110710972627L92,89.39415960506378L90,81.63404579685462L88,79.83218221729965L86,84.69981608391068L84,83.25038267006437L82,87.33854898020377L80,87.93538849733295L78,83.2118342716477L76,88.42255408594289L74,88.0199580028894L72,87.02431552659219L70,92.3472823291203L68,93.91561893362353L66,95.70170567086481L64,90.968881503439L62,91.94830013268731L60,89.06149870252658L58,90.10562729445488L56,86.67686023321387L54,92.5796193284465L52,89.38902620275033L50,86.83432065293039L48,86.66479729690018L46,87.93551677451107L44,87.09602670565461L42,86.54519385350073L40,90.05176551538125L38,80.8679876373514L36,86.32855970190758L34,92.24108104416014L32,81.56879524123094L30,84.49988063407179L28,88.46740514387577L26,93.00159640876555L24,93.21657488753078L22,82.49266032170445L20,90.72210128886266L18,86.79014680080022L16,82.10178386953959L14,79.96717445012897L12,92.1235293273646L10,89.21528221883335L8,91.87410768944856L6,88.95539164644278L4,85.49909539114081L2,82.84737116839389L0,82.42929292929296Z" fill="#EB9A60" opacity="0.3"></path></g></g><path class="foreground" aria-hidden="true" d="" display="none"></path></g></g><g class="mark-rule role-mark child_layer_0_layer_1_marks" clip-path="url(#clip1)" role="graphics-object" aria-roledescription="rule mark container"><line aria-label="Mean of chance: 0.333333333333" role="graphics-symbol" aria-roledescription="rule mark" transform="translate(128,98.4848484848485)" x2="-128" y2="0" stroke="black" stroke-width="1" stroke-dasharray="2,2"></line></g></g><path class="foreground" aria-hidden="true" d="" display="none"></path></g><g transform="translate(139,0)"><path class="background" aria-hidden="true" d="M0.5,0.5h128v130h-128Z" stroke="#ddd"></path><g><g class="mark-group role-axis" aria-hidden="true"><g transform="translate(0.5,130.5)"><path class="background" aria-hidden="true" d="M0,0h0v0h0Z" pointer-events="none"></path><g><g class="mark-rule role-axis-grid" pointer-events="none"><line transform="translate(0,-130)" x2="0" y2="130" stroke="#ddd" stroke-width="1" opacity="1"></line><line transform="translate(43,-130)" x2="0" y2="130" stroke="#ddd" stroke-width="1" opacity="1"></line><line transform="translate(85,-130)" x2="0" y2="130" stroke="#ddd" stroke-width="1" opacity="1"></line><line transform="translate(128,-130)" x2="0" y2="130" stroke="#ddd" stroke-width="1" opacity="1"></line></g></g><path class="foreground" aria-hidden="true" d="" pointer-events="none" display="none"></path></g></g><g class="mark-group role-axis" aria-hidden="true"><g transform="translate(0.5,0.5)"><path class="background" aria-hidden="true" d="M0,0h0v0h0Z" pointer-events="none"></path><g><g class="mark-rule role-axis-grid" pointer-events="none"><line transform="translate(0,130)" x2="128" y2="0" stroke="#ddd" stroke-width="1" opacity="1"></line><line transform="translate(0,106)" x2="128" y2="0" stroke="#ddd" stroke-width="1" opacity="1"></line><line transform="translate(0,83)" x2="128" y2="0" stroke="#ddd" stroke-width="1" opacity="1"></line><line transform="translate(0,59)" x2="128" y2="0" stroke="#ddd" stroke-width="1" opacity="1"></line><line transform="translate(0,35)" x2="128" y2="0" stroke="#ddd" stroke-width="1" opacity="1"></line><line transform="translate(0,12)" x2="128" y2="0" stroke="#ddd" stroke-width="1" opacity="1"></line></g></g><path class="foreground" aria-hidden="true" d="" pointer-events="none" display="none"></path></g></g><g class="mark-group role-scope child_layer_0_layer_0_layer_0_pathgroup" role="graphics-object" aria-roledescription="group mark container"><g transform="translate(0,0)"><path class="background" aria-hidden="true" d="M0,0h128v130h-128Z"></path><g><g class="mark-line role-mark child_layer_0_layer_0_layer_0_marks" role="graphics-object" aria-roledescription="line mark container"><path aria-label="Condition: global; Time from Switch offset (s): -2; P(Correct): 0.32924777889" role="graphics-symbol" aria-roledescription="line mark" d="M0,99.45052498962363L2,98.74841135719844L4,97.38625032725999L6,99.97041593012119L8,96.08670915180963L10,96.7467667981558L12,93.08958548451626L14,95.89275945594167L16,94.85948834083028L18,97.75467525995825L20,92.30742760220143L22,93.89986467513515L24,94.2983338329249L26,95.85215964479171L28,93.99179704098022L30,92.50865357867073L32,92.87580263494391L34,90.32145640623152L36,90.55685971091954L38,92.38723535303762L40,93.14503597402413L42,91.03180086701497L44,89.597756274565L46,86.51166243692629L48,92.25571457809701L50,90.77764515869185L52,93.27464578314988L54,93.50050880626695L56,90.09805114699398L58,91.48385299210452L60,89.41666613649363L62,91.99126855877594L64,90.03373672867299L66,92.22757067897267L68,93.92479988653255L70,93.08891872133376L72,93.99956286458567L74,88.93623953136861L76,86.2729583604428L78,86.24254923721976L80,87.85152034042044L82,85.30628685143044L84,84.72613984794678L86,86.5424944276494L88,83.4948590676262L90,86.70478136024907L92,89.62773311571074L94,88.79074033765826L96,89.68153981581598L98,94.30215739471994L100,92.33907258789854L102,98.98347226151886L104,102.62816476857503L106,97.45723962582954L108,85.92637324672752L110,87.0496632996633L112,76.95496632996633L114,71.18070586820589L116,75.76884920634922L118,73.06051587301587L120,62.930645743145725L122,60.73232323232324L124,80.73998917748918L126,72.2515331890332L128,112.61528326745719" stroke="#0F3C5F" stroke-width="2" stroke-linejoin="round"></path></g></g><path class="foreground" aria-hidden="true" d="" display="none"></path></g><g transform="translate(0,0)"><path class="background" aria-hidden="true" d="M0,0h128v130h-128Z"></path><g><g class="mark-line role-mark child_layer_0_layer_0_layer_0_marks" role="graphics-object" aria-roledescription="line mark container"><path aria-label="Condition: object; Time from Switch offset (s): -2; P(Correct): 0.375399036322" role="graphics-symbol" aria-roledescription="line mark" d="M0,88.54204596023214L2,91.03490257067077L4,94.64160130138922L6,96.35350206533522L8,93.20006185129577L10,92.29049013129557L12,90.94929132265196L14,93.74030222516804L16,92.26410774665437L18,91.55761426759162L20,91.18750032709832L22,91.17573109736728L24,90.84787921771672L26,91.82281401971503L28,87.46144777535615L30,84.88447919608655L32,88.58598836056791L34,85.01489698111577L36,84.82786250605628L38,80.50868699921126L40,78.1266602551907L42,77.75874914696175L44,79.4148250162572L46,85.47255894538866L48,91.96160860740798L50,92.15579942829105L52,90.5890815465761L54,92.76975649903875L56,89.89748614826239L58,87.25834537153244L60,84.8424698749414L62,84.71684663950879L64,83.41811881983006L66,90.86049017420912L68,86.6257564651665L70,80.63531715060068L72,80.6095013388197L74,86.06606782673805L76,82.14945106416312L78,80.3837307526306L80,79.51044357667588L82,78.13093472396618L84,78.51320534092059L86,78.35839846486657L88,79.8126557997178L90,80.05714539633941L92,84.48662315561769L94,93.90717421338555L96,88.06248575985418L98,89.2671727782022L100,95.18676346801348L102,91.46248742839653L104,82.86139260571079L106,78.70722921859287L108,67.0718412479776L110,57.46121933621936L112,35.372474747474755L114,45.71338383838383L116,46.2058080808081L118,41.7739898989899L120,49.07828282828285L122,54.57702020202021L124,44.31818181818182L126,62.37373737373737L128,97.66414141414143" stroke="#EB9A60" stroke-width="2" stroke-linejoin="round"></path></g></g><path class="foreground" aria-hidden="true" d="" display="none"></path></g></g><g class="mark-group role-scope child_layer_0_layer_0_layer_1_layer_0_pathgroup" role="graphics-object" aria-roledescription="group mark container"><g transform="translate(0,0)"><path class="background" aria-hidden="true" d="M0,0h128v130h-128Z"></path><g><g class="mark-area role-mark child_layer_0_layer_0_layer_1_layer_0_marks" role="graphics-object" aria-roledescription="area mark container"><path aria-label=": 0.311627466993; upper_lower: 0.346915311658; Condition: global; Time from Switch offset (s): -2; upper: 0.346915311658; lower: 0.311627466993" role="graphics-symbol" aria-roledescription="errorband" d="M0,103.61532598359088L2,103.45648386070928L4,101.30165815759848L6,103.80941286777757L8,99.00492601387629L10,99.98854783743352L12,97.5446475118228L14,99.56512606652701L16,98.07029585547329L18,101.4435436621266L20,95.33860516497276L22,97.08981256078042L24,98.94116059817252L26,100.37552808819521L28,98.4586633733812L30,97.44182790554456L32,97.65724227490144L34,95.40710203072047L36,95.14276443837683L38,97.5949911785067L40,97.72245832188037L42,95.52392961728545L44,94.13834165728885L46,91.29626923315736L48,97.63914837132876L50,95.42091919554717L52,98.33444025675789L54,97.23054971801682L56,93.98321638993956L58,95.58340089216325L60,94.26576472661975L62,96.97186438800489L64,95.08859082413048L66,97.14971666040925L68,99.99184828537639L70,97.73757674894449L72,99.51802192843259L74,95.63185968679683L76,92.20705838255142L78,92.23646242494125L80,94.04694250203002L82,91.91079718637027L84,92.46399421341677L86,92.23056468563351L88,89.51063849169905L90,94.57571669626181L92,96.00500265849409L94,96.12985464520308L96,95.0266735977016L98,101.1019710310845L100,98.89837704137122L102,106.0801009758903L104,110.27145306507991L106,105.70687951851758L108,94.36013454107537L110,99.80087536621627L112,87.91345749158246L114,83.27245670995673L116,88.0053473725349L118,82.97753953222706L120,71.68890918109662L122,70.93659436628188L124,95.22971906565654L126,86.55000901875901L128,128.1159420289855L128,97.28590250329381L126,58.31094426406928L124,66.09227317821063L122,49.64496151996153L120,53.72040719696965L118,63.578906625781634L116,62.58853790885041L114,58.008064273689314L112,66.78581950456952L110,74.2176018163234L108,77.70003065935971L106,89.4562398034464L104,94.69970046310449L102,91.70505696781024L100,85.70572179210649L98,87.51717414036935L96,84.52734072350512L94,81.19001512296053L92,83.35880070863605L90,79.87750745463607L88,77.31618315977613L86,80.73636652596849L84,76.99679230232456L82,79.02005718616088L80,81.57113068874169L78,80.32354781373813L76,80.34732282185058L74,82.34422513390066L72,87.99174836707776L70,87.90079339898342L68,87.8129273765579L66,87.4539121918471L64,85.0476204623716L62,86.99580597191834L60,84.44600928626102L58,87.40152328168355L56,86.14329215874972L54,89.8630139180859L52,88.07007519403163L50,85.89344237558063L48,86.74847393486849L46,81.38919465918755L44,84.98237243631571L42,86.53292188489243L40,88.53371397555253L38,86.97529044309064L36,86.11974628025946L34,85.60103222749572L32,88.08866469443838L30,87.35205641382022L28,89.52582557300728L26,91.4953800575095L24,89.66145862446571L22,90.84587464722082L20,89.57702718184915L18,94.05471274010628L16,91.69465530962948L14,92.23755759247433L12,88.72299551189009L10,93.46806134731933L8,93.19840551143609L6,96.20913043259401L4,93.80522197967804L2,94.09431609218588L0,95.2745626991181Z" fill="#0F3C5F" opacity="0.3"></path></g></g><path class="foreground" aria-hidden="true" d="" display="none"></path></g><g transform="translate(0,0)"><path class="background" aria-hidden="true" d="M0,0h128v130h-128Z"></path><g><g class="mark-area role-mark child_layer_0_layer_0_layer_1_layer_0_marks" role="graphics-object" aria-roledescription="area mark container"><path aria-label=": 0.349082254759; upper_lower: 0.401700302069; Condition: object; Time from Switch offset (s): -2; upper: 0.401700302069; lower: 0.349082254759" role="graphics-symbol" aria-roledescription="errorband" d="M0,94.76237614785522L2,97.45893549686812L4,101.50220701924565L6,103.2176640371788L8,100.12965088801447L10,99.1361558886993L12,98.46403974081129L14,98.98578790713539L16,96.16236779313019L18,97.94847492107618L20,97.69216857068712L22,95.50508581272842L24,96.1722789379169L26,97.70987748051547L28,93.19425728078559L30,89.31269322879555L32,94.59054606600634L34,91.0025466975065L36,91.00135047080428L38,86.10619323472004L40,83.04174725537604L42,84.33418016911577L44,87.34806271240024L46,92.95553040368472L48,98.784966713049L50,101.9645577849272L52,96.90302695463977L54,99.32720809290802L56,97.27566424485988L58,93.58305405100158L60,92.32658935724349L62,92.34159968933201L64,90.26797590892589L66,97.02468676136215L68,94.90195189242137L70,90.84087981840287L72,88.25931616876898L74,94.33256967711068L76,91.02804761535572L78,88.92838428112736L80,86.47389660203079L82,85.36029724593404L84,85.25426676455166L86,85.57365534514574L88,87.00307605605614L90,88.55851220020475L92,93.06800625211784L94,101.77668588202165L96,97.77115729665071L98,98.56448545327224L100,106.46693873256372L102,101.12360619178799L104,93.79040848145964L106,91.41995509751193L108,81.46855322707594L110,71.08495670995676L112,55.81013257575755L114,64.50757575757575L116,65.6565656565657L118,59.25710227272726L120,64.01515151515153L122,67.79040404040403L124,57.61568813131313L126,78.7078598484848L128,117.36111111111113L128,77.55681818181819L126,47.108585858585826L124,32.746212121212125L122,41.607796717171745L120,35.454545454545496L118,25.688131313131322L116,28.314393939393966L114,27.904040404040416L112,15.263099747474776L110,43.47402597402604L108,51.379833234946894L106,65.49974310201587L104,72.14233207344002L102,81.76230240718877L100,84.24693362193362L98,79.41609569964352L96,78.32070825738589L94,86.1155415415768L92,75.76330908576217L90,71.6833078756882L88,72.15060177953L86,71.31691991058962L84,72.03366338834223L82,70.80029334132017L80,72.63616940399727L78,72.09199609321313L76,73.11375471204778L74,77.76579447566316L72,72.99420228650172L70,70.03838159807654L68,78.20924527819962L66,84.3091701446269L64,76.80244650048192L62,77.21473822559877L60,76.90976657289741L58,80.41412337628492L56,82.67800831837101L54,86.32124186562307L52,84.80400305113605L50,83.73943323328749L48,85.94542268756946L46,78.41625309715306L44,72.37456120850752L42,71.51531842583391L40,73.00527394333722L38,74.74445132359106L36,78.28143054384911L34,78.9052725221853L32,82.71265155495682L30,80.43979571010432L28,81.68192729645381L26,86.28131617650824L24,85.32204372594234L22,86.7371781830106L20,85.19277362014017L18,85.54878349142282L16,88.35725186232669L14,88.5689823436549L12,83.91497159447032L10,85.78941541415759L8,86.46411580022601L6,90.15115921908139L4,88.22219627848553L2,85.11271095454211L0,82.3253831473777Z" fill="#EB9A60" opacity="0.3"></path></g></g><path class="foreground" aria-hidden="true" d="" display="none"></path></g></g><g class="mark-rule role-mark child_layer_0_layer_1_marks" clip-path="url(#clip2)" role="graphics-object" aria-roledescription="rule mark container"><line aria-label="Mean of chance: 0.333333333333" role="graphics-symbol" aria-roledescription="rule mark" transform="translate(128,98.4848484848485)" x2="-128" y2="0" stroke="black" stroke-width="1" stroke-dasharray="2,2"></line></g></g><path class="foreground" aria-hidden="true" d="" display="none"></path></g><g transform="translate(0,137)"><path class="background" aria-hidden="true" d="M0.5,0.5h128v130h-128Z" stroke="#ddd"></path><g><g class="mark-group role-axis" aria-hidden="true"><g transform="translate(0.5,130.5)"><path class="background" aria-hidden="true" d="M0,0h0v0h0Z" pointer-events="none"></path><g><g class="mark-rule role-axis-grid" pointer-events="none"><line transform="translate(0,-130)" x2="0" y2="130" stroke="#ddd" stroke-width="1" opacity="1"></line><line transform="translate(43,-130)" x2="0" y2="130" stroke="#ddd" stroke-width="1" opacity="1"></line><line transform="translate(85,-130)" x2="0" y2="130" stroke="#ddd" stroke-width="1" opacity="1"></line><line transform="translate(128,-130)" x2="0" y2="130" stroke="#ddd" stroke-width="1" opacity="1"></line></g></g><path class="foreground" aria-hidden="true" d="" pointer-events="none" display="none"></path></g></g><g class="mark-group role-axis" aria-hidden="true"><g transform="translate(0.5,0.5)"><path class="background" aria-hidden="true" d="M0,0h0v0h0Z" pointer-events="none"></path><g><g class="mark-rule role-axis-grid" pointer-events="none"><line transform="translate(0,130)" x2="128" y2="0" stroke="#ddd" stroke-width="1" opacity="1"></line><line transform="translate(0,106)" x2="128" y2="0" stroke="#ddd" stroke-width="1" opacity="1"></line><line transform="translate(0,83)" x2="128" y2="0" stroke="#ddd" stroke-width="1" opacity="1"></line><line transform="translate(0,59)" x2="128" y2="0" stroke="#ddd" stroke-width="1" opacity="1"></line><line transform="translate(0,35)" x2="128" y2="0" stroke="#ddd" stroke-width="1" opacity="1"></line><line transform="translate(0,12)" x2="128" y2="0" stroke="#ddd" stroke-width="1" opacity="1"></line></g></g><path class="foreground" aria-hidden="true" d="" pointer-events="none" display="none"></path></g></g><g class="mark-group role-scope child_layer_0_layer_0_layer_0_pathgroup" role="graphics-object" aria-roledescription="group mark container"><g transform="translate(0,0)"><path class="background" aria-hidden="true" d="M0,0h128v130h-128Z"></path><g><g class="mark-line role-mark child_layer_0_layer_0_layer_0_marks" role="graphics-object" aria-roledescription="line mark container"><path aria-label="Condition: global; Time from Switch offset (s): -2; P(Correct): 0.514158911837" role="graphics-symbol" aria-roledescription="line mark" d="M0,55.74425720218009L2,61.95493705432491L4,57.40591443430592L6,60.542369248216424L8,56.72899721485425L10,59.135573481724634L12,58.379746309136934L14,55.120277344058294L16,61.45482385235763L18,59.24259452343115L20,60.362434139629094L22,64.22360043631758L24,61.32001208029657L26,55.37651015810166L28,59.17962547986814L30,59.72003977244879L32,56.27941021005821L34,57.24693198990074L36,55.62043449807119L38,49.737397257293836L40,55.39798566482155L42,55.1622392104799L44,57.077622481998425L46,51.48484886805281L48,54.01130691866589L50,53.48215469244453L52,55.50612298416731L54,56.90320411249667L56,59.364753355615356L58,61.151415548461685L60,60.05902809716044L62,59.64473643632025L64,59.42787678830082L66,56.519507817704735L68,57.04229637602626L70,56.14858766899631L72,57.28789146169545L74,56.26642367690913L76,57.169909551101924L78,56.76245787613464L80,60.91476595630127L82,58.69771272851887L84,58.51890378686261L86,57.83362020849804L88,63.3424282643397L90,60.99544192920706L92,58.650957908719334L94,55.716441814159296L96,56.77067760303032L98,52.923814576217104L100,54.23019384331054L102,50.821899691003125L104,49.95508223551944L106,49.940563603829894L108,47.650641935152386L110,50.26663234534803L112,55.89824699345718L114,56.90431206233278L116,59.525473505667236L118,59.57400445699839L120,56.19018475381222L122,55.661857518071564L124,53.90245131385683L126,56.51742008666648L128,58.02400129272706" stroke="#0F3C5F" stroke-width="2" stroke-linejoin="round"></path></g></g><path class="foreground" aria-hidden="true" d="" display="none"></path></g><g transform="translate(0,0)"><path class="background" aria-hidden="true" d="M0,0h128v130h-128Z"></path><g><g class="mark-line role-mark child_layer_0_layer_0_layer_0_marks" role="graphics-object" aria-roledescription="line mark container"><path aria-label="Condition: spatial; Time from Switch offset (s): -2; P(Correct): 0.550569358178" role="graphics-symbol" aria-roledescription="line mark" d="M0,47.13815170336909L2,37.15509128552609L4,46.88123470732168L6,49.96423865989083L8,60.559006211180154L10,54.74778844344063L12,62.308488612836456L14,47.729978354978364L16,43.128156565656596L18,46.70604858104861L20,60.53300865800867L22,56.36889730639731L24,64.4717056932966L26,46.809381695745316L28,52.259144475053574L30,61.85395622895624L32,68.83252164502166L34,51.71521765271764L36,48.72016977130614L38,42.49749251169707L40,51.87382482837029L42,50.38017485460669L44,57.89811671913945L46,47.58129181424637L48,52.581032183304934L50,47.09096511653332L52,44.06674974856793L54,44.86978141807688L56,52.7602048624776L58,49.163318794000624L60,46.25465969215973L62,50.92677314268227L64,52.372282073986625L66,61.6043484083257L68,59.13132269666363L70,57.10581190694828L72,55.9275110411474L74,51.12502186365825L76,54.91249754033848L78,47.792310278105745L80,51.25745414097688L82,56.0882362586908L84,53.06717062398883L86,64.1600597424461L88,64.11385226726135L90,63.21974479644939L92,53.36936054265596L94,51.29865347194893L96,54.73992495299317L98,51.97370758450306L100,53.903646858192324L102,52.13971424198698L104,47.312730934890034L106,52.39377678298134L108,50.013405155450606L110,50.18589575407758L112,61.740565831474925L114,52.287389588525954L116,50.18765851152215L118,54.43496108268838L120,52.53172280160916L122,54.11147459442917L124,50.846055249464364L126,57.443598594166794L128,57.73622999475272" stroke="#687B3E" stroke-width="2" stroke-linejoin="round"></path></g></g><path class="foreground" aria-hidden="true" d="" display="none"></path></g></g><g class="mark-group role-scope child_layer_0_layer_0_layer_1_layer_0_pathgroup" role="graphics-object" aria-roledescription="group mark container"><g transform="translate(0,0)"><path class="background" aria-hidden="true" d="M0,0h128v130h-128Z"></path><g><g class="mark-area role-mark child_layer_0_layer_0_layer_1_layer_0_marks" role="graphics-object" aria-roledescription="area mark container"><path aria-label=": 0.483288860603; upper_lower: 0.541642186449; Condition: global; Time from Switch offset (s): -2; upper: 0.541642186449; lower: 0.483288860603" role="graphics-symbol" aria-roledescription="errorband" d="M0,63.04081476665385L2,71.6322322722284L4,66.02481519709036L6,69.87454284309055L8,67.48965172495464L10,68.29529715926775L12,66.12253437332589L14,63.46701049754696L16,70.86496213348083L18,67.56206158933713L20,68.00715074004528L22,69.68517776023434L24,70.25156691947959L26,63.7078420987937L28,67.23617492503354L30,67.75465392769007L32,65.30706221426522L34,63.328764268243695L36,62.30287989968679L38,54.78494952720096L40,61.123726017812025L42,60.672928868576086L44,62.796371620061045L46,56.06518640162485L48,59.641860361599356L50,57.2766836034984L52,59.840764357371455L54,61.01234536023342L56,63.418644849294026L58,65.74441050352529L60,64.88480402794528L62,63.06198451559824L64,64.61904997668L66,62.2783094995701L68,62.65583789014371L70,61.86148475778605L72,62.87367534834115L74,61.01173456535304L76,60.35414705753794L78,60.99826172809187L80,66.19555966604783L82,63.212290685390066L84,63.85424101321259L86,62.33538240063935L88,68.46047151402198L90,66.19895054751765L92,63.82833437212354L94,61.23545732376158L96,62.07102003874461L98,58.05870094648111L100,58.84850906485966L102,55.91907352242771L104,54.465086147139104L106,53.94804283936156L108,52.476901775437206L110,54.856743046148026L112,59.80460582345667L114,61.38960507885833L116,63.66101105091741L118,63.10366871608243L120,62.123485349242586L122,60.767112961514584L124,58.9606756649859L126,60.56289413176792L128,61.920996654552205L128,54.1256394188767L126,52.503988507526536L124,48.38880308949402L122,50.39133944746803L120,50.00696413682847L118,55.89238302960071L116,55.309133048270894L114,52.387598113680234L112,52.13784764497901L110,45.86188121908629L108,43.0781632099198L106,45.94615690063762L104,45.72941493371105L102,46.03040048522535L100,49.83584306887164L98,47.547477326345096L96,51.31081492872159L94,50.24319572699463L92,53.373527576370186L90,55.85241243874811L88,57.93656317744892L86,53.335843593875346L84,53.01101130535868L82,54.20398887682822L80,55.861794705142415L78,52.680251084255126L76,53.96357243693187L74,51.92908011259201L72,51.54316398791345L70,50.48968204941193L68,51.43093180601674L66,50.51479361205116L64,54.37000576682949L62,56.18327775731918L60,54.92280440517636L58,56.17933109630897L56,55.232778603173756L54,52.70973497959524L52,50.865892941679284L50,49.69632168627754L48,48.3147384007878L46,47.01886359805408L44,51.611401341054716L42,49.81913774024495L40,49.94466326991591L38,44.63789861262096L36,48.95151637331258L34,51.361975749147405L32,47.65821601629538L30,51.81367187384349L28,50.92662090327677L26,46.85752348655811L24,52.62132553503051L22,59.110595985405865L20,52.887926094945314L18,50.85777276677793L16,51.614388767716505L14,46.49911739017771L12,50.599945315893926L10,49.79374980623929L8,46.33083909521958L6,50.95087323992474L4,48.462944191861666L2,52.61616497524537L0,49.24821047565035Z" fill="#0F3C5F" opacity="0.3"></path></g></g><path class="foreground" aria-hidden="true" d="" display="none"></path></g><g transform="translate(0,0)"><path class="background" aria-hidden="true" d="M0,0h128v130h-128Z"></path><g><g class="mark-area role-mark child_layer_0_layer_0_layer_1_layer_0_marks" role="graphics-object" aria-roledescription="area mark container"><path aria-label=": 0.470336438923; upper_lower: 0.623914337474; Condition: spatial; Time from Switch offset (s): -2; upper: 0.623914337474; lower: 0.470336438923" role="graphics-symbol" aria-roledescription="errorband" d="M0,66.10229625447015L2,57.62281197063807L4,64.45068699416528L6,69.85787220026347L8,80.95332204027856L10,77.382481648786L12,87.9151609260305L14,68.28913014069265L16,60.65904581529586L18,65.92427248677255L20,77.49526515151516L22,70.53629093970001L24,80.47217200413219L26,62.815718740434605L28,68.86851469237835L30,79.33511009718401L32,80.70196383477632L34,64.64553270803265L36,62.04337681468364L38,53.303388149624006L40,64.6525803216144L42,64.89314359094189L44,71.87238182692727L46,59.86451432616204L48,64.95827184179456L50,59.07664886145001L52,59.258337911036776L54,57.649682703659956L56,65.17537386855565L58,60.51584397820193L60,55.84940927128436L62,59.72016088919502L64,63.32606622912023L66,72.66624664529498L68,70.22260142004458L70,66.26005454982727L72,66.58394073308841L74,63.2956267217631L76,65.34564291453499L78,59.32397022169747L80,61.112990019240016L82,63.063029852092335L84,64.29355787310335L86,74.96465602999689L88,77.35717599424981L90,79.6687373942346L92,65.59814681583143L94,63.64976691290608L96,68.80401741303736L98,65.33218292912899L100,67.71389968407017L102,66.99595863942454L104,58.748209229743345L106,59.43988894628099L108,59.152826971008736L110,60.74713039485769L112,70.92921504001048L114,61.295120441427294L116,58.82910442356467L118,63.80872817733617L120,62.79018625787092L122,62.78323651832177L124,59.20940533582581L126,68.44261131334997L128,67.67789092220907L128,48.62242452938475L126,45.74121063858284L124,42.788750259630994L122,44.984159437994705L120,41.76856292907429L118,44.984800658096184L116,40.13150990423716L114,42.122634967095195L112,51.385921922143496L110,39.735950208251374L108,41.00908093379683L106,44.84477229683201L104,36.09434031877214L102,37.83661834798199L100,40.67840198522021L98,38.675985880176285L96,40.439437325090786L94,39.35672556872838L92,41.16124174646897L90,47.923305703135334L88,50.61606322969958L86,52.88030262035941L84,42.070031688639666L82,49.30946197636534L80,42.22962529105998L78,37.421461298592L76,44.60495632051037L74,39.18595314618043L72,44.88557996086407L70,47.820670517403464L68,48.56788119288125L66,50.85535909008926L64,41.50550759215534L62,42.75413701408028L60,36.898452531265086L58,39.01284216625129L56,40.762980180593836L54,32.294593493102006L52,30.314953512396652L50,36.232285824970525L48,40.41000849949718L46,35.5835803243474L44,45.15284268551312L42,36.45517625524732L40,39.6563784489921L38,31.888909898497992L36,34.80223057140671L34,39.198093284030726L32,56.47630321067823L30,45.949212771655965L28,37.73262932353844L26,31.434659090909058L24,47.74787649219469L22,40.88091138659321L20,42.8713924963925L18,25.320376382876425L16,27.008590367965446L14,28.695289953102453L12,38.6959815546772L10,32.07761622435538L8,40.67699510634299L6,31.110507246376805L4,29.973037831733507L2,17.358719179371377L0,29.80206568793524Z" fill="#687B3E" opacity="0.3"></path></g></g><path class="foreground" aria-hidden="true" d="" display="none"></path></g></g><g class="mark-rule role-mark child_layer_0_layer_1_marks" clip-path="url(#clip3)" role="graphics-object" aria-roledescription="rule mark container"><line aria-label="Mean of chance: 0.5" role="graphics-symbol" aria-roledescription="rule mark" transform="translate(128,59.09090909090909)" x2="-128" y2="0" stroke="black" stroke-width="1" stroke-dasharray="2,2"></line></g></g><path class="foreground" aria-hidden="true" d="" display="none"></path></g><g transform="translate(139,137)"><path class="background" aria-hidden="true" d="M0.5,0.5h128v130h-128Z" stroke="#ddd"></path><g><g class="mark-group role-axis" aria-hidden="true"><g transform="translate(0.5,130.5)"><path class="background" aria-hidden="true" d="M0,0h0v0h0Z" pointer-events="none"></path><g><g class="mark-rule role-axis-grid" pointer-events="none"><line transform="translate(0,-130)" x2="0" y2="130" stroke="#ddd" stroke-width="1" opacity="1"></line><line transform="translate(43,-130)" x2="0" y2="130" stroke="#ddd" stroke-width="1" opacity="1"></line><line transform="translate(85,-130)" x2="0" y2="130" stroke="#ddd" stroke-width="1" opacity="1"></line><line transform="translate(128,-130)" x2="0" y2="130" stroke="#ddd" stroke-width="1" opacity="1"></line></g></g><path class="foreground" aria-hidden="true" d="" pointer-events="none" display="none"></path></g></g><g class="mark-group role-axis" aria-hidden="true"><g transform="translate(0.5,0.5)"><path class="background" aria-hidden="true" d="M0,0h0v0h0Z" pointer-events="none"></path><g><g class="mark-rule role-axis-grid" pointer-events="none"><line transform="translate(0,130)" x2="128" y2="0" stroke="#ddd" stroke-width="1" opacity="1"></line><line transform="translate(0,106)" x2="128" y2="0" stroke="#ddd" stroke-width="1" opacity="1"></line><line transform="translate(0,83)" x2="128" y2="0" stroke="#ddd" stroke-width="1" opacity="1"></line><line transform="translate(0,59)" x2="128" y2="0" stroke="#ddd" stroke-width="1" opacity="1"></line><line transform="translate(0,35)" x2="128" y2="0" stroke="#ddd" stroke-width="1" opacity="1"></line><line transform="translate(0,12)" x2="128" y2="0" stroke="#ddd" stroke-width="1" opacity="1"></line></g></g><path class="foreground" aria-hidden="true" d="" pointer-events="none" display="none"></path></g></g><g class="mark-group role-scope child_layer_0_layer_0_layer_0_pathgroup" role="graphics-object" aria-roledescription="group mark container"><g transform="translate(0,0)"><path class="background" aria-hidden="true" d="M0,0h128v130h-128Z"></path><g><g class="mark-line role-mark child_layer_0_layer_0_layer_0_marks" role="graphics-object" aria-roledescription="line mark container"><path aria-label="Condition: global; Time from Switch offset (s): -2; P(Correct): 0.527583980921" role="graphics-symbol" aria-roledescription="line mark" d="M0,52.57105905496437L2,53.248309304396194L4,55.0634406049189L6,54.381819307731284L8,55.47472244914114L10,58.22022268979698L12,58.77208123346594L14,58.91260696047961L16,57.068293914765015L18,58.05896494359009L20,55.68840835585503L22,52.069361663276595L24,52.81365088266595L26,52.69793172318375L28,51.591294570961L30,50.36294829255954L32,49.29395857403798L34,47.13385573834548L36,47.211779862432316L38,47.210204640705236L40,50.769448604609686L42,51.39391021178939L44,53.40912149027338L46,54.4077392030369L48,54.54142899579331L50,54.41072009218782L52,57.90197304480033L54,55.31260086471789L56,51.524571151816524L58,55.936445707747914L60,54.71117944671093L62,50.75265518610393L64,50.88961991501409L66,45.9146406027152L68,45.69974222061357L70,43.35456940057906L72,42.32643480847816L74,43.336800604138965L76,43.7572680234145L78,45.99369041231002L80,44.191637317737175L82,49.29347536302548L84,55.75679845306045L86,50.34080173178778L88,53.60317714434542L90,53.76268583317332L92,53.969816665304144L94,61.816126241963566L96,56.65293002606909L98,53.943847545656226L100,56.791562624156924L102,59.53696981305689L104,62.599702215039926L106,69.21853396522688L108,65.54088560355272L110,56.69966712580351L112,44.86727392977393L114,44.67186748436749L116,44.4608285233285L118,50.84475709475711L120,58.3327320827321L122,57.16029341029341L124,61.68199855699856L126,67.3917748917749L128,53.438735177865624" stroke="#0F3C5F" stroke-width="2" stroke-linejoin="round"></path></g></g><path class="foreground" aria-hidden="true" d="" display="none"></path></g><g transform="translate(0,0)"><path class="background" aria-hidden="true" d="M0,0h128v130h-128Z"></path><g><g class="mark-line role-mark child_layer_0_layer_0_layer_0_marks" role="graphics-object" aria-roledescription="line mark container"><path aria-label="Condition: spatial; Time from Switch offset (s): -2; P(Correct): 0.529027320906" role="graphics-symbol" aria-roledescription="line mark" d="M0,52.22990596757044L2,54.255197581304046L4,56.88412573991224L6,57.74619863622555L8,51.289342897820774L10,54.390796672869094L12,54.11609670842627L14,56.476778097965315L16,59.44672035057801L18,53.6971769702033L20,53.22248512552043L22,55.17979298855496L24,60.902347696606064L26,55.15529040835562L28,55.1947158342942L30,55.57069649847759L32,50.504878436621865L34,49.46869836149145L36,48.316977483021155L38,51.29039976116831L40,50.100693293725605L42,53.95231489392673L44,60.94317628034732L46,67.78358091923796L48,62.14285955054574L50,57.17254937584757L52,56.4156950677358L54,54.27473867851719L56,62.527309075604535L58,51.16620069745069L60,54.494771852726416L62,59.56941545133244L64,53.68024126546852L66,44.989375628580184L68,54.02463555380106L70,57.947512700890115L72,56.29144529712713L74,51.585702807293735L76,54.20219511128602L78,54.361171236171245L80,61.002558048012595L82,55.68852759193667L84,58.142477261795456L86,65.97205824478553L88,48.8830540250995L90,53.14682266386813L92,50.87389041934495L94,46.82720057720061L96,47.456409331409304L98,47.70457551707553L100,49.2013888888889L102,66.17243867243866L104,66.72348484848486L106,65.00586219336222L108,53.59217171717171L110,36.580086580086615L112,52.52525252525253L114,42.67676767676769L116,45.959595959595966L118,39.393939393939405L120,45.959595959595966L122,42.67676767676769L124,59.09090909090909L126,84.41558441558442L128,75.97402597402599" stroke="#687B3E" stroke-width="2" stroke-linejoin="round"></path></g></g><path class="foreground" aria-hidden="true" d="" display="none"></path></g></g><g class="mark-group role-scope child_layer_0_layer_0_layer_1_layer_0_pathgroup" role="graphics-object" aria-roledescription="group mark container"><g transform="translate(0,0)"><path class="background" aria-hidden="true" d="M0,0h128v130h-128Z"></path><g><g class="mark-area role-mark child_layer_0_layer_0_layer_1_layer_0_marks" role="graphics-object" aria-roledescription="area mark container"><path aria-label=": 0.510118388811; upper_lower: 0.546331810759; Condition: global; Time from Switch offset (s): -2; upper: 0.546331810759; lower: 0.510118388811" role="graphics-symbol" aria-roledescription="errorband" d="M0,56.69928991743543L2,56.76734351856568L4,58.33255839416569L6,56.99155458428104L8,58.6457763551259L10,62.12703969858855L12,62.74574464676346L14,64.0397603933064L16,60.95036636487645L18,62.72235195954327L20,59.74566487367258L22,55.80804662381365L24,57.11106745537889L26,56.23816625622966L28,55.3467793347019L30,53.37740191772457L32,51.91924144425107L34,50.266932073868325L36,50.62381191192914L38,50.825966782089665L40,54.591061866027L42,54.89363894302252L44,56.71750605934287L46,58.87850986431566L48,59.75109149225702L50,59.50103014376312L52,62.85034387853838L54,59.478127497811286L56,56.52930372581819L58,61.81168798884992L60,58.9300429282387L62,55.410702284829476L64,57.00623326944926L66,51.87585034416925L68,51.58032177991636L70,48.57608247292104L72,46.611907824140374L74,48.33614978350553L76,49.542403427869715L78,52.09889307625167L80,50.422457031382784L82,55.503825783572765L84,62.67508033766922L86,57.59743495592518L88,60.272593011406336L90,61.026969558143435L92,60.59973040069587L94,68.81445903586273L96,63.760016665574504L98,59.47906593942282L100,62.803429919490014L102,65.38165917267352L104,71.32801597881543L106,76.5436899688588L108,72.69798632693436L110,69.76308539944904L112,59.503216690716684L114,61.70212542087542L116,60.171702140452076L118,66.40917358104859L120,73.19544402356905L122,72.14445045695041L124,74.40916230759981L126,80.44131042568539L128,70.30961791831359L128,37.85243741765484L126,54.01424963924962L124,48.22811823593073L122,42.756591209716206L120,44.163761874699425L118,35.2096034752285L116,30.127472643097597L114,28.177511724386733L112,30.547840758778243L110,43.357070775394675L108,58.52432892635933L106,61.9719859864104L104,54.021056294906046L102,53.51192281772003L100,50.81304219521973L98,48.654863038299325L96,49.83814963598065L94,54.933939694841186L92,47.25670160732738L90,45.82485303027139L88,47.09477678044018L86,43.32677966936798L84,49.07984836132659L82,43.31397501243377L80,38.20340126133435L78,39.83936551749956L76,38.45612395096741L74,38.37242426446903L72,38.0016962465561L70,37.53695037740297L68,40.1579348542546L66,40.037655610995785L64,44.84388546392729L62,45.927358263177986L60,50.148061143649414L58,49.93012945600012L56,46.45557210033308L54,51.19001318402624L52,52.609067201156336L50,49.357445001151056L48,49.38066907155784L46,49.920232763741154L44,50.11601397528744L42,47.96938745973617L40,47.14385991124386L38,43.58458056189681L36,43.737565929640944L34,44.11320461570275L32,46.7377899532401L30,47.395340865972386L28,47.549699832846066L26,49.22437046007502L24,48.59399610724801L22,48.28048069489113L20,51.879895451588034L18,53.38381965783132L16,53.13784842312533L14,53.91495026958401L12,55.02243548389614L10,54.503086723745454L8,52.2614544616965L6,51.59697608246444L4,51.877821017688575L2,49.382929816680594L0,48.13975382057968Z" fill="#0F3C5F" opacity="0.3"></path></g></g><path class="foreground" aria-hidden="true" d="" display="none"></path></g><g transform="translate(0,0)"><path class="background" aria-hidden="true" d="M0,0h128v130h-128Z"></path><g><g class="mark-area role-mark child_layer_0_layer_0_layer_1_layer_0_marks" role="graphics-object" aria-roledescription="area mark container"><path aria-label=": 0.503914709537; upper_lower: 0.553182542056; Condition: spatial; Time from Switch offset (s): -2; upper: 0.553182542056; lower: 0.503914709537" role="graphics-symbol" aria-roledescription="errorband" d="M0,58.165614109524824L2,60.678068834131935L4,64.97653493668743L6,64.44937155287782L8,61.09450948792866L10,65.79829614227982L12,64.87385730021794L14,68.96102610085678L16,70.46174276046807L18,66.6285276005671L20,66.24409015968527L22,65.4498158202554L24,70.56074443454825L26,65.29874725553553L28,62.026002883845315L30,63.59359284596648L32,58.53963338241152L34,58.15476636379747L36,57.89884464770456L38,61.050030657667506L40,57.13194989237902L42,63.39107640992544L44,72.10559867335061L46,78.15030453252696L48,71.12799627318013L50,65.96031478083114L52,64.47245799171485L54,63.69951444675302L56,72.20004359066859L58,62.7442035684223L60,68.16259780570861L62,70.14393989894229L64,62.672599233678746L66,53.74399586366915L68,66.38024268356031L70,70.7724158805903L72,68.92862437961871L74,67.38529095063187L76,68.45186374021597L78,66.67494137806635L80,76.36347306943897L82,72.16786370195459L84,72.40088144704619L86,84.45944428046698L88,68.05807534216626L90,69.30529694947309L92,66.93527878897189L94,62.53475228475233L96,64.79340653559397L98,65.91645622895622L100,64.90664457070707L102,85.33037968975468L104,81.27960407647912L106,86.23301091269843L108,81.66035353535351L110,71.28427128427133L112,91.9191919191919L114,78.78787878787881L116,78.78787878787878L118,72.22222222222221L120,82.07070707070706L122,75.50505050505053L124,95.20202020202021L126,109.74025974025975L128,118.18181818181819L128,33.766233766233796L126,59.09090909090909L124,22.97979797979798L122,9.848484848484873L120,9.848484848484873L118,6.565656565656539L116,16.41414141414142L114,9.848484848484873L112,13.13131313131315L110,1.8759018759019739L108,26.344696969696955L106,44.22380050505056L104,52.56599476911975L102,46.61498917748918L100,34.49314574314577L98,29.437981000480995L96,29.08624939874933L94,29.353858525733585L92,33.10115904718172L90,35.0752171334558L88,29.640670777034444L86,46.883424340810706L84,42.80067756843326L82,38.555548039923025L80,45.49623296001134L78,42.56875676406925L76,40.20880203550656L74,35.79168818870528L72,43.91339736652242L70,45.3966647192442L68,42.01213794746553L66,36.54775432900435L64,44.04359920908213L62,49.20862819565881L60,42.04025338613408L58,40.09095418470416L56,54.16079559119332L54,45.17890133006534L52,48.6375089364267L50,48.75322728404239L48,52.95984326293776L46,57.63361103172415L44,50.21765728456817L42,45.070676518222484L40,43.53176811116404L38,41.73501826981944L36,38.76681633563366L34,41.59446396710903L32,42.54525142559684L30,47.711269779059066L28,48.49753604123376L26,45.567209406810214L24,50.84757769545826L22,45.59391862526211L20,39.759366276112694L18,40.74009311077565L16,48.44115606753913L14,43.56878093366022L12,43.003035416537244L10,43.05786414480164L8,41.874994457670546L6,50.86132095997716L4,49.21656932034665L2,47.61982356315491L0,46.52049005951516Z" fill="#687B3E" opacity="0.3"></path></g></g><path class="foreground" aria-hidden="true" d="" display="none"></path></g></g><g class="mark-rule role-mark child_layer_0_layer_1_marks" clip-path="url(#clip4)" role="graphics-object" aria-roledescription="rule mark container"><line aria-label="Mean of chance: 0.5" role="graphics-symbol" aria-roledescription="rule mark" transform="translate(128,59.09090909090909)" x2="-128" y2="0" stroke="black" stroke-width="1" stroke-dasharray="2,2"></line></g></g><path class="foreground" aria-hidden="true" d="" display="none"></path></g></g><g class="mark-group role-legend" role="graphics-symbol" aria-roledescription="legend" aria-label="Symbol legend titled 'Condition' for fill color and stroke color with 3 values: global, spatial, object"><g transform="translate(306,0)"><path class="background" aria-hidden="true" d="M0,0h61v61h-61Z" pointer-events="none"></path><g><g class="mark-group role-legend-entry"><g transform="translate(0,16)"><path class="background" aria-hidden="true" d="M0,0h0v0h0Z" pointer-events="none"></path><g><g class="mark-group role-scope" role="graphics-object" aria-roledescription="group mark container"><g transform="translate(0,0)"><path class="background" aria-hidden="true" d="M0,0h49v12.5h-49Z" pointer-events="none" opacity="1"></path><g><g class="mark-symbol role-legend-symbol" pointer-events="none"><path transform="translate(6,6)" d="M5,0A5,5,0,1,1,-5,0A5,5,0,1,1,5,0" fill="#0F3C5F" stroke="#0F3C5F" stroke-width="1.5" opacity="0.3"></path></g><g class="mark-text role-legend-label" pointer-events="none"><text text-anchor="start" transform="translate(16,9)" font-family="sans-serif" font-size="10px" fill="#000" opacity="1">global</text></g></g><path class="foreground" aria-hidden="true" d="" pointer-events="none" display="none"></path></g><g transform="translate(0,16)"><path class="background" aria-hidden="true" d="M0,0h49v12.5h-49Z" pointer-events="none" opacity="1"></path><g><g class="mark-symbol role-legend-symbol" pointer-events="none"><path transform="translate(6,6)" d="M5,0A5,5,0,1,1,-5,0A5,5,0,1,1,5,0" fill="#687B3E" stroke="#687B3E" stroke-width="1.5" opacity="0.3"></path></g><g class="mark-text role-legend-label" pointer-events="none"><text text-anchor="start" transform="translate(16,9)" font-family="sans-serif" font-size="10px" fill="#000" opacity="1">spatial</text></g></g><path class="foreground" aria-hidden="true" d="" pointer-events="none" display="none"></path></g><g transform="translate(0,32)"><path class="background" aria-hidden="true" d="M0,0h49v12.5h-49Z" pointer-events="none" opacity="1"></path><g><g class="mark-symbol role-legend-symbol" pointer-events="none"><path transform="translate(6,6)" d="M5,0A5,5,0,1,1,-5,0A5,5,0,1,1,5,0" fill="#EB9A60" stroke="#EB9A60" stroke-width="1.5" opacity="0.3"></path></g><g class="mark-text role-legend-label" pointer-events="none"><text text-anchor="start" transform="translate(16,9)" font-family="sans-serif" font-size="10px" fill="#000" opacity="1">object</text></g></g><path class="foreground" aria-hidden="true" d="" pointer-events="none" display="none"></path></g></g></g><path class="foreground" aria-hidden="true" d="" pointer-events="none" display="none"></path></g></g><g class="mark-text role-legend-title" pointer-events="none"><text text-anchor="start" transform="translate(0,9)" font-family="sans-serif" font-size="11px" font-weight="bold" fill="#000" opacity="1">Condition</text></g></g><path class="foreground" aria-hidden="true" d="" pointer-events="none" display="none"></path></g></g></g><path class="foreground" aria-hidden="true" d="" display="none"></path></g></g></g></svg>
