<?xml version="1.0" encoding="utf-8"?>
<!DOCTYPE svg PUBLIC "-//W3C//DTD SVG 1.1//EN" "http://www.w3.org/Graphics/SVG/1.1/DTD/svg11.dtd">
<svg class="marks" width="445" height="204" viewBox="0 0 445 204" version="1.1" xmlns="http://www.w3.org/2000/svg" xmlns:xlink="http://www.w3.org/1999/xlink"><rect width="445" height="204" fill="white"></rect><g fill="none" stroke-miterlimit="10" transform="translate(54,31)"><g class="mark-group role-frame root" role="graphics-object" aria-roledescription="group mark container"><g transform="translate(0,0)"><path class="background" aria-hidden="true" d="M0,0h0v0h0Z"></path><g><g class="mark-group role-column-header column_header" role="graphics-object" aria-roledescription="group mark container"><g transform="translate(0,-6)"><path class="background" aria-hidden="true" d="M0,0h128v0h-128Z"></path><g><g class="mark-group role-title"><g transform="translate(64,-20)"><path class="background" aria-hidden="true" d="M0,0h0v0h0Z" pointer-events="none"></path><g><g class="mark-text role-title-text" role="graphics-symbol" aria-roledescription="title" aria-label="Title text 'Global'" pointer-events="none"><text text-anchor="middle" transform="translate(0,8)" font-family="sans-serif" font-size="10px" font-weight="bold" fill="#000" opacity="1">Global</text></g></g><path class="foreground" aria-hidden="true" d="" pointer-events="none" display="none"></path></g></g></g><path class="foreground" aria-hidden="true" d="" display="none"></path></g><g transform="translate(220,-6)"><path class="background" aria-hidden="true" d="M0,0h128v0h-128Z"></path><g><g class="mark-group role-title"><g transform="translate(64,-20)"><path class="background" aria-hidden="true" d="M0,0h0v0h0Z" pointer-events="none"></path><g><g class="mark-text role-title-text" role="graphics-symbol" aria-roledescription="title" aria-label="Title text 'Object'" pointer-events="none"><text text-anchor="middle" transform="translate(0,8)" font-family="sans-serif" font-size="10px" font-weight="bold" fill="#000" opacity="1">Object</text></g></g><path class="foreground" aria-hidden="true" d="" pointer-events="none" display="none"></path></g></g></g><path class="foreground" aria-hidden="true" d="" display="none"></path></g></g><g class="mark-group role-column-footer column_footer" role="graphics-object" aria-roledescription="group mark container"><g transform="translate(0,136)"><path class="background" aria-hidden="true" d="M0,0h128v0h-128Z"></path><g><g class="mark-group role-axis" role="graphics-symbol" aria-roledescription="axis" aria-label="X-axis titled 'Time (s)' for a linear scale with values from 0 to 9"><g transform="translate(0.5,0.5)"><path class="background" aria-hidden="true" d="M0,0h0v0h0Z" pointer-events="none"></path><g><g class="mark-rule role-axis-tick" pointer-events="none"><line transform="translate(0,0)" x2="0" y2="5" stroke="#888" stroke-width="1" opacity="1"></line><line transform="translate(28,0)" x2="0" y2="5" stroke="#888" stroke-width="1" opacity="1"></line><line transform="translate(57,0)" x2="0" y2="5" stroke="#888" stroke-width="1" opacity="1"></line><line transform="translate(85,0)" x2="0" y2="5" stroke="#888" stroke-width="1" opacity="1"></line><line transform="translate(114,0)" x2="0" y2="5" stroke="#888" stroke-width="1" opacity="1"></line></g><g class="mark-text role-axis-label" pointer-events="none"><text text-anchor="start" transform="translate(0,15)" font-family="sans-serif" font-size="10px" fill="#000" opacity="1">0</text><text text-anchor="middle" transform="translate(28.444444444444443,15)" font-family="sans-serif" font-size="10px" fill="#000" opacity="1">2</text><text text-anchor="middle" transform="translate(56.888888888888886,15)" font-family="sans-serif" font-size="10px" fill="#000" opacity="1">4</text><text text-anchor="middle" transform="translate(85.33333333333333,15)" font-family="sans-serif" font-size="10px" fill="#000" opacity="1">6</text><text text-anchor="middle" transform="translate(113.77777777777777,15)" font-family="sans-serif" font-size="10px" fill="#000" opacity="1">8</text></g><g class="mark-rule role-axis-domain" pointer-events="none"><line transform="translate(0,0)" x2="128" y2="0" stroke="#888" stroke-width="1" opacity="1"></line></g><g class="mark-text role-axis-title" pointer-events="none"><text text-anchor="middle" transform="translate(64,30)" font-family="sans-serif" font-size="11px" font-weight="bold" fill="#000" opacity="1">Time (s)</text></g></g><path class="foreground" aria-hidden="true" d="" pointer-events="none" display="none"></path></g></g></g><path class="foreground" aria-hidden="true" d="" display="none"></path></g><g transform="translate(220,136)"><path class="background" aria-hidden="true" d="M0,0h128v0h-128Z"></path><g><g class="mark-group role-axis" role="graphics-symbol" aria-roledescription="axis" aria-label="X-axis titled 'Time (s)' for a linear scale with values from 0 to 9"><g transform="translate(0.5,0.5)"><path class="background" aria-hidden="true" d="M0,0h0v0h0Z" pointer-events="none"></path><g><g class="mark-rule role-axis-tick" pointer-events="none"><line transform="translate(0,0)" x2="0" y2="5" stroke="#888" stroke-width="1" opacity="1"></line><line transform="translate(28,0)" x2="0" y2="5" stroke="#888" stroke-width="1" opacity="1"></line><line transform="translate(57,0)" x2="0" y2="5" stroke="#888" stroke-width="1" opacity="1"></line><line transform="translate(85,0)" x2="0" y2="5" stroke="#888" stroke-width="1" opacity="1"></line><line transform="translate(114,0)" x2="0" y2="5" stroke="#888" stroke-width="1" opacity="1"></line></g><g class="mark-text role-axis-label" pointer-events="none"><text text-anchor="start" transform="translate(0,15)" font-family="sans-serif" font-size="10px" fill="#000" opacity="1">0</text><text text-anchor="middle" transform="translate(28.444444444444443,15)" font-family="sans-serif" font-size="10px" fill="#000" opacity="1">2</text><text text-anchor="middle" transform="translate(56.888888888888886,15)" font-family="sans-serif" font-size="10px" fill="#000" opacity="1">4</text><text text-anchor="middle" transform="translate(85.33333333333333,15)" font-family="sans-serif" font-size="10px" fill="#000" opacity="1">6</text><text text-anchor="middle" transform="translate(113.77777777777777,15)" font-family="sans-serif" font-size="10px" fill="#000" opacity="1">8</text></g><g class="mark-rule role-axis-domain" pointer-events="none"><line transform="translate(0,0)" x2="128" y2="0" stroke="#888" stroke-width="1" opacity="1"></line></g><g class="mark-text role-axis-title" pointer-events="none"><text text-anchor="middle" transform="translate(64,30)" font-family="sans-serif" font-size="11px" font-weight="bold" fill="#000" opacity="1">Time (s)</text></g></g><path class="foreground" aria-hidden="true" d="" pointer-events="none" display="none"></path></g></g></g><path class="foreground" aria-hidden="true" d="" display="none"></path></g></g><g class="mark-group role-scope cell" role="graphics-object" aria-roledescription="group mark container"><g transform="translate(0,0)"><path class="background" aria-hidden="true" d="M0.5,0.5h128v130h-128Z" stroke="#ddd"></path><g><g class="mark-group role-axis" aria-hidden="true"><g transform="translate(0.5,130.5)"><path class="background" aria-hidden="true" d="M0,0h0v0h0Z" pointer-events="none"></path><g><g class="mark-rule role-axis-grid" pointer-events="none"><line transform="translate(0,-130)" x2="0" y2="130" stroke="#ddd" stroke-width="1" opacity="1"></line><line transform="translate(28,-130)" x2="0" y2="130" stroke="#ddd" stroke-width="1" opacity="1"></line><line transform="translate(57,-130)" x2="0" y2="130" stroke="#ddd" stroke-width="1" opacity="1"></line><line transform="translate(85,-130)" x2="0" y2="130" stroke="#ddd" stroke-width="1" opacity="1"></line><line transform="translate(114,-130)" x2="0" y2="130" stroke="#ddd" stroke-width="1" opacity="1"></line></g></g><path class="foreground" aria-hidden="true" d="" pointer-events="none" display="none"></path></g></g><g class="mark-group role-axis" role="graphics-symbol" aria-roledescription="axis" aria-label="Y-axis titled 'Target - Non-target' for a linear scale with values from -0.10 to 0.16"><g transform="translate(0.5,0.5)"><path class="background" aria-hidden="true" d="M0,0h0v0h0Z" pointer-events="none"></path><g><g class="mark-rule role-axis-tick" pointer-events="none"><line transform="translate(0,130)" x2="-5" y2="0" stroke="#888" stroke-width="1" opacity="1"></line><line transform="translate(0,105)" x2="-5" y2="0" stroke="#888" stroke-width="1" opacity="1"></line><line transform="translate(0,80)" x2="-5" y2="0" stroke="#888" stroke-width="1" opacity="1"></line><line transform="translate(0,55)" x2="-5" y2="0" stroke="#888" stroke-width="1" opacity="1"></line><line transform="translate(0,30)" x2="-5" y2="0" stroke="#888" stroke-width="1" opacity="1"></line><line transform="translate(0,5)" x2="-5" y2="0" stroke="#888" stroke-width="1" opacity="1"></line></g><g class="mark-text role-axis-label" pointer-events="none"><text text-anchor="end" transform="translate(-7,133)" font-family="sans-serif" font-size="10px" fill="#000" opacity="1">-0.10</text><text text-anchor="end" transform="translate(-7,108)" font-family="sans-serif" font-size="10px" fill="#000" opacity="1">-0.05</text><text text-anchor="end" transform="translate(-7,83)" font-family="sans-serif" font-size="10px" fill="#000" opacity="1">0.00</text><text text-anchor="end" transform="translate(-7,57.99999999999999)" font-family="sans-serif" font-size="10px" fill="#000" opacity="1">0.05</text><text text-anchor="end" transform="translate(-7,32.99999999999999)" font-family="sans-serif" font-size="10px" fill="#000" opacity="1">0.10</text><text text-anchor="end" transform="translate(-7,8.00000000000001)" font-family="sans-serif" font-size="10px" fill="#000" opacity="1">0.15</text></g><g class="mark-rule role-axis-domain" pointer-events="none"><line transform="translate(0,130)" x2="0" y2="-130" stroke="#888" stroke-width="1" opacity="1"></line></g><g class="mark-text role-axis-title" pointer-events="none"><text text-anchor="middle" transform="translate(-36,65) rotate(-90) translate(0,-2)" font-family="sans-serif" font-size="11px" font-weight="bold" fill="#000" opacity="1">Target - Non-target</text></g></g><path class="foreground" aria-hidden="true" d="" pointer-events="none" display="none"></path></g></g><g class="mark-group role-axis" role="graphics-symbol" aria-roledescription="axis" aria-label="Y-axis titled 'P(switch)' for a linear scale with values from 0.0 to 1.0"><g transform="translate(128.5,0.5)"><path class="background" aria-hidden="true" d="M0,0h0v0h0Z" pointer-events="none"></path><g><g class="mark-rule role-axis-tick" pointer-events="none"><line transform="translate(0,130)" x2="5" y2="0" stroke="#888" stroke-width="1" opacity="1"></line><line transform="translate(0,104)" x2="5" y2="0" stroke="#888" stroke-width="1" opacity="1"></line><line transform="translate(0,78)" x2="5" y2="0" stroke="#888" stroke-width="1" opacity="1"></line><line transform="translate(0,52)" x2="5" y2="0" stroke="#888" stroke-width="1" opacity="1"></line><line transform="translate(0,26)" x2="5" y2="0" stroke="#888" stroke-width="1" opacity="1"></line><line transform="translate(0,0)" x2="5" y2="0" stroke="#888" stroke-width="1" opacity="1"></line></g><g class="mark-text role-axis-label" pointer-events="none"><text text-anchor="start" transform="translate(7,133)" font-family="sans-serif" font-size="10px" fill="#000" opacity="1">0.0</text><text text-anchor="start" transform="translate(7,107)" font-family="sans-serif" font-size="10px" fill="#000" opacity="1">0.2</text><text text-anchor="start" transform="translate(7,81)" font-family="sans-serif" font-size="10px" fill="#000" opacity="1">0.4</text><text text-anchor="start" transform="translate(7,55)" font-family="sans-serif" font-size="10px" fill="#000" opacity="1">0.6</text><text text-anchor="start" transform="translate(7,28.999999999999993)" font-family="sans-serif" font-size="10px" fill="#000" opacity="1">0.8</text><text text-anchor="start" transform="translate(7,3)" font-family="sans-serif" font-size="10px" fill="#000" opacity="1">1.0</text></g><g class="mark-rule role-axis-domain" pointer-events="none"><line transform="translate(0,130)" x2="0" y2="-130" stroke="#888" stroke-width="1" opacity="1"></line></g><g class="mark-text role-axis-title" pointer-events="none"><text text-anchor="middle" transform="translate(26,65) rotate(90) translate(0,-2)" font-family="sans-serif" font-size="11px" font-weight="bold" fill="#000" opacity="1">P(switch)</text></g></g><path class="foreground" aria-hidden="true" d="" pointer-events="none" display="none"></path></g></g><g class="mark-group role-scope child_layer_0_layer_0_layer_0_layer_0_pathgroup" role="graphics-object" aria-roledescription="group mark container"><g transform="translate(0,0)"><path class="background" aria-hidden="true" d="M0,0h128v130h-128Z"></path><g><g class="mark-line role-mark child_layer_0_layer_0_layer_0_layer_0_marks" role="graphics-object" aria-roledescription="line mark container"><path aria-label="Source: global; Target - Non-target: 0.00425778093135; Time (s): 0.03125" role="graphics-symbol" aria-roledescription="line mark" d="M0.4444444444444444,77.87110953432605L1.7777777777777777,81.05700571288116L3.111111111111111,82.8135216034111L4.444444444444445,81.9769196429573L5.777777777777778,81.40551308932703L7.111111111111111,80.91383823862293L8.444444444444445,80.85844223021189L9.777777777777779,81.00444278651582L11.11111111111111,78.78280889574133L12.444444444444445,80.75234732764144L13.777777777777779,83.6418863313126L15.11111111111111,84.35081373533346L16.444444444444443,85.31387022919694L17.77777777777778,88.31154494336344L19.11111111111111,87.86999567045692L20.444444444444443,86.86325864021003L21.77777777777778,85.7742674313731L23.11111111111111,83.7478082272993L24.444444444444443,81.3196363343297L25.77777777777778,79.81198021141428L27.11111111111111,82.22245899946897L28.444444444444443,84.02125215783616L29.77777777777778,79.61124253405222L31.11111111111111,75.13320801339233L32.44444444444444,75.33208684957847L33.77777777777778,77.50685365810435L35.111111111111114,78.07426992351203L36.44444444444444,76.11699810102006L37.77777777777778,77.73707754866584L39.111111111111114,80.29690476191803L40.44444444444444,83.48258335118499L41.77777777777778,82.82065058194163L43.111111111111114,80.27585156713981L44.44444444444444,84.0548886517843L45.77777777777778,83.80790122794369L47.111111111111114,85.02055848009458L48.44444444444444,82.09099879432691L49.77777777777778,79.00987745757611L51.111111111111114,82.42753189302536L52.44444444444444,83.4737105730071L53.77777777777778,81.7177051716766L55.111111111111114,83.4933302304073L56.44444444444444,84.65086991660758L57.77777777777778,87.77577229713341L59.111111111111114,88.81055267150317L60.44444444444444,85.69493979453738L61.77777777777778,82.84917525262948L63.111111111111114,80.40712754489755L64.44444444444444,78.4288091003469L65.77777777777777,74.43231379219887L67.11111111111111,70.64227373710447L68.44444444444444,74.51205258916829L69.77777777777777,77.5317845784849L71.11111111111111,77.70689724076664L72.44444444444444,77.9469618188365L73.77777777777777,81.55406653052603L75.11111111111111,80.43410441696447L76.44444444444444,81.40032848323796L77.77777777777777,86.42636569666499L79.11111111111111,86.64526946192572L80.44444444444444,84.65529969971907L81.77777777777777,84.10730124849916L83.11111111111111,86.91434587790725L84.44444444444444,85.87432140514434L85.77777777777777,83.6857576163038L87.11111111111111,85.67485069345518L88.44444444444444,81.77672814749721L89.77777777777777,82.5173255217369L91.11111111111111,81.95288883377795L92.44444444444444,70.45846325213523L93.77777777777777,58.41561895869109L95.11111111111111,60.09389961954116L96.44444444444444,73.17077902524093L97.77777777777777,74.68705474011485L99.11111111111111,58.67557734420551L100.44444444444444,59.15853022985277L101.77777777777777,56.94017049024346L103.11111111111111,59.1740347101268L104.44444444444444,53.000647535967225L105.77777777777777,49.57554323765424L107.11111111111111,64.87264580332557L108.44444444444444,71.50363734301676L109.77777777777777,70.10540465572682L111.11111111111111,89.53494940172574L112.44444444444444,88.33931097788687L113.77777777777777,77.17210032833977L115.11111111111111,67.50725443261037L116.44444444444444,38.34274407690543" stroke="#0F3C5F" stroke-width="2" stroke-linejoin="round"></path></g></g><path class="foreground" aria-hidden="true" d="" display="none"></path></g></g><g class="mark-group role-scope child_layer_0_layer_0_layer_0_layer_1_layer_0_pathgroup" role="graphics-object" aria-roledescription="group mark container"><g transform="translate(0,0)"><path class="background" aria-hidden="true" d="M0,0h128v130h-128Z"></path><g><g class="mark-area role-mark child_layer_0_layer_0_layer_0_layer_1_layer_0_marks" role="graphics-object" aria-roledescription="area mark container"><path aria-label="Target - Non-target: -0.014082538444; upper_lower: 0.0213551262087; Source: global; Time (s): 0.03125; upper: 0.0213551262087; lower: -0.014082538444" role="graphics-symbol" aria-roledescription="errorband" d="M0.4444444444444444,87.04126922198832L1.7777777777777777,89.28056972159638L3.111111111111111,89.6248139451847L4.444444444444445,89.18753132421563L5.777777777777778,89.0784584155366L7.111111111111111,89.25450368648201L8.444444444444445,88.24888422413076L9.777777777777779,89.10098779935807L11.11111111111111,85.60009921639454L12.444444444444445,88.20532662722484L13.777777777777779,90.9875444592087L15.11111111111111,92.7937766732662L16.444444444444443,93.59542081027998L17.77777777777778,96.02206541949184L19.11111111111111,95.88966902418561L20.444444444444443,95.79329811668337L21.77777777777778,95.67480786782869L23.11111111111111,93.89546579275257L24.444444444444443,90.58021269346266L25.77777777777778,89.10098749981898L27.11111111111111,90.10350528081456L28.444444444444443,91.74245129482424L29.77777777777778,86.9985573706922L31.11111111111111,82.70514630246605L32.44444444444444,83.16284216383859L33.77777777777778,86.18188730230149L35.111111111111114,86.14368340117693L36.44444444444444,84.22758983211625L37.77777777777778,86.39394491728709L39.111111111111114,88.32608902561648L40.44444444444444,90.24936044000877L41.77777777777778,91.48782086261728L43.111111111111114,89.83215216962988L44.44444444444444,93.55662069627974L45.77777777777778,92.40455549509923L47.111111111111114,93.36403939805305L48.44444444444444,91.21456660264842L49.77777777777778,87.5615908690784L51.111111111111114,89.17534476328788L52.44444444444444,89.67391913371262L53.77777777777778,88.31656488212195L55.111111111111114,90.42422857328764L56.44444444444444,91.34782750304689L57.77777777777778,94.12672296158857L59.111111111111114,94.61150658365469L60.44444444444444,91.26706471089219L61.77777777777778,88.39365536254418L63.111111111111114,86.44254921927738L64.44444444444444,84.65873863391599L65.77777777777777,80.44729734190653L67.11111111111111,76.88462473269115L68.44444444444444,81.31858188002268L69.77777777777777,84.07778854835631L71.11111111111111,84.37735625445451L72.44444444444444,84.56226397484807L73.77777777777777,89.13568717777358L75.11111111111111,87.9939532307284L76.44444444444444,89.93878986382119L77.77777777777777,96.05617070339629L79.11111111111111,95.31291092347595L80.44444444444444,90.62860574131837L81.77777777777777,89.8775050059138L83.11111111111111,93.56586756985735L84.44444444444444,93.97566109152525L85.77777777777777,90.96703987386253L87.11111111111111,92.8350335674325L88.44444444444444,90.03624239012346L89.77777777777777,92.31353358277924L91.11111111111111,91.73620369202675L92.44444444444444,79.3257308540298L93.77777777777777,67.26269818019293L95.11111111111111,69.07710328541579L96.44444444444444,84.79472724915468L97.77777777777777,84.78817080119163L99.11111111111111,69.09003300259157L100.44444444444444,69.76720013269498L101.77777777777777,66.95598002377366L103.11111111111111,68.80241953895536L104.44444444444444,66.84541167275151L105.77777777777777,69.37202641270288L107.11111111111111,84.07719870229894L108.44444444444444,89.87062670947647L109.77777777777777,87.72533707281958L111.11111111111111,107.6332881046429L112.44444444444444,109.41866024786331L113.77777777777777,99.04444944638838L115.11111111111111,88.63100583225787L116.44444444444444,73.0780103278757L116.44444444444444,0.47091569621146334L115.11111111111111,47.30104871393417L113.77777777777777,57.69012004250135L112.44444444444444,67.85024419665879L111.11111111111111,70.41346613762119L109.77777777777777,51.81285109120653L108.44444444444444,52.935487272289535L107.11111111111111,44.98183413707809L105.77777777777777,31.00938049645147L104.44444444444444,39.77550163505435L103.11111111111111,49.81009114547292L101.77777777777777,46.60815868128848L100.44444444444444,47.70255797552223L99.11111111111111,48.96112408928593L97.77777777777777,64.62028801227363L96.44444444444444,61.585597026119345L95.11111111111111,51.27779343300854L93.77777777777777,49.91271796277488L92.44444444444444,61.66051762691426L91.11111111111111,72.54397702973431L89.77777777777777,72.9045961841713L88.44444444444444,73.74033750482936L87.11111111111111,78.43503046697L85.77777777777777,76.09675685768745L84.44444444444444,77.89554441791901L83.11111111111111,80.38699203946244L81.77777777777777,78.61074436737594L80.44444444444444,78.81369903845042L79.11111111111111,78.17226546381778L77.77777777777777,76.53567442690233L76.44444444444444,72.6383740771807L75.11111111111111,72.6583459646448L73.77777777777777,74.49133594433889L72.44444444444444,71.66239868692769L71.11111111111111,71.05097523867332L69.77777777777777,71.12368242154379L68.44444444444444,68.1158876338902L67.11111111111111,64.63043592367781L65.77777777777777,68.97540178209327L64.44444444444444,72.53825362250643L63.111111111111114,73.82862296035258L61.77777777777778,76.70771865737588L60.44444444444444,79.24748573884266L59.111111111111114,82.35983609011626L57.77777777777778,80.60715295919704L56.44444444444444,77.76166483234952L55.111111111111114,76.31171075347248L53.77777777777778,74.82912109352533L52.44444444444444,76.70622144608105L51.111111111111114,75.12360712161859L49.77777777777778,70.72911596091498L48.44444444444444,73.33860542795932L47.111111111111114,76.74449847758055L45.77777777777778,75.3531645128223L44.44444444444444,74.25926595304497L43.111111111111114,70.20137542744905L41.77777777777778,73.87148096989415L40.44444444444444,76.34247304431636L39.111111111111114,72.55901573759584L37.77777777777778,69.8912924140155L36.44444444444444,68.55446045048794L35.111111111111114,70.16000309496857L33.77777777777778,69.36825304000887L32.44444444444444,68.28332947444302L31.11111111111111,67.60504351471694L29.77777777777778,72.24252388552286L28.444444444444443,77.29304141940607L27.11111111111111,75.20123634234295L25.77777777777778,71.65843103504322L24.444444444444443,72.37737314455558L23.11111111111111,73.3667372873441L21.77777777777778,75.72334248320121L20.444444444444443,77.75672682808668L19.11111111111111,79.48606459940684L17.77777777777778,80.66164997031636L16.444444444444443,77.37750051495672L15.11111111111111,75.94409931979824L13.777777777777779,76.53434283765289L12.444444444444445,73.20641727198633L11.11111111111111,71.75414917174102L9.777777777777779,73.65343538808882L8.444444444444445,73.84334744741304L7.111111111111111,72.61969338371313L5.777777777777778,74.0888062045832L4.444444444444445,74.93901378140261L3.111111111111111,76.65222137918407L1.7777777777777777,73.24908797015506L0.4444444444444444,69.32243689566906Z" fill="#0F3C5F" opacity="0.3"></path></g></g><path class="foreground" aria-hidden="true" d="" display="none"></path></g></g><g class="mark-rule role-mark child_layer_0_layer_0_layer_1_marks" role="graphics-symbol" aria-roledescription="rule mark container"><line transform="translate(128,80)" x2="-128" y2="0" stroke="black" stroke-width="1" stroke-dasharray="4,4"></line><line transform="translate(128,80)" x2="-128" y2="0" stroke="black" stroke-width="1" stroke-dasharray="4,4"></line><line transform="translate(128,80)" x2="-128" y2="0" stroke="black" stroke-width="1" stroke-dasharray="4,4"></line><line transform="translate(128,80)" x2="-128" y2="0" stroke="black" stroke-width="1" stroke-dasharray="4,4"></line><line transform="translate(128,80)" x2="-128" y2="0" stroke="black" stroke-width="1" stroke-dasharray="4,4"></line><line transform="translate(128,80)" x2="-128" y2="0" stroke="black" stroke-width="1" stroke-dasharray="4,4"></line><line transform="translate(128,80)" x2="-128" y2="0" stroke="black" stroke-width="1" stroke-dasharray="4,4"></line><line transform="translate(128,80)" x2="-128" y2="0" stroke="black" stroke-width="1" stroke-dasharray="4,4"></line><line transform="translate(128,80)" x2="-128" y2="0" stroke="black" stroke-width="1" stroke-dasharray="4,4"></line><line transform="translate(128,80)" x2="-128" y2="0" stroke="black" stroke-width="1" stroke-dasharray="4,4"></line><line transform="translate(128,80)" x2="-128" y2="0" stroke="black" stroke-width="1" stroke-dasharray="4,4"></line><line transform="translate(128,80)" x2="-128" y2="0" stroke="black" stroke-width="1" stroke-dasharray="4,4"></line><line transform="translate(128,80)" x2="-128" y2="0" stroke="black" stroke-width="1" stroke-dasharray="4,4"></line><line transform="translate(128,80)" x2="-128" y2="0" stroke="black" stroke-width="1" stroke-dasharray="4,4"></line><line transform="translate(128,80)" x2="-128" y2="0" stroke="black" stroke-width="1" stroke-dasharray="4,4"></line><line transform="translate(128,80)" x2="-128" y2="0" stroke="black" stroke-width="1" stroke-dasharray="4,4"></line><line transform="translate(128,80)" x2="-128" y2="0" stroke="black" stroke-width="1" stroke-dasharray="4,4"></line><line transform="translate(128,80)" x2="-128" y2="0" stroke="black" stroke-width="1" stroke-dasharray="4,4"></line><line transform="translate(128,80)" x2="-128" y2="0" stroke="black" stroke-width="1" stroke-dasharray="4,4"></line><line transform="translate(128,80)" x2="-128" y2="0" stroke="black" stroke-width="1" stroke-dasharray="4,4"></line><line transform="translate(128,80)" x2="-128" y2="0" stroke="black" stroke-width="1" stroke-dasharray="4,4"></line><line transform="translate(128,80)" x2="-128" y2="0" stroke="black" stroke-width="1" stroke-dasharray="4,4"></line><line transform="translate(128,80)" x2="-128" y2="0" stroke="black" stroke-width="1" stroke-dasharray="4,4"></line><line transform="translate(128,80)" x2="-128" y2="0" stroke="black" stroke-width="1" stroke-dasharray="4,4"></line><line transform="translate(128,80)" x2="-128" y2="0" stroke="black" stroke-width="1" stroke-dasharray="4,4"></line><line transform="translate(128,80)" x2="-128" y2="0" stroke="black" stroke-width="1" stroke-dasharray="4,4"></line><line transform="translate(128,80)" x2="-128" y2="0" stroke="black" stroke-width="1" stroke-dasharray="4,4"></line><line transform="translate(128,80)" x2="-128" y2="0" stroke="black" stroke-width="1" stroke-dasharray="4,4"></line><line transform="translate(128,80)" x2="-128" y2="0" stroke="black" stroke-width="1" stroke-dasharray="4,4"></line><line transform="translate(128,80)" x2="-128" y2="0" stroke="black" stroke-width="1" stroke-dasharray="4,4"></line><line transform="translate(128,80)" x2="-128" y2="0" stroke="black" stroke-width="1" stroke-dasharray="4,4"></line><line transform="translate(128,80)" x2="-128" y2="0" stroke="black" stroke-width="1" stroke-dasharray="4,4"></line><line transform="translate(128,80)" x2="-128" y2="0" stroke="black" stroke-width="1" stroke-dasharray="4,4"></line><line transform="translate(128,80)" x2="-128" y2="0" stroke="black" stroke-width="1" stroke-dasharray="4,4"></line><line transform="translate(128,80)" x2="-128" y2="0" stroke="black" stroke-width="1" stroke-dasharray="4,4"></line><line transform="translate(128,80)" x2="-128" y2="0" stroke="black" stroke-width="1" stroke-dasharray="4,4"></line><line transform="translate(128,80)" x2="-128" y2="0" stroke="black" stroke-width="1" stroke-dasharray="4,4"></line><line transform="translate(128,80)" x2="-128" y2="0" stroke="black" stroke-width="1" stroke-dasharray="4,4"></line><line transform="translate(128,80)" x2="-128" y2="0" stroke="black" stroke-width="1" stroke-dasharray="4,4"></line><line transform="translate(128,80)" x2="-128" y2="0" stroke="black" stroke-width="1" stroke-dasharray="4,4"></line><line transform="translate(128,80)" x2="-128" y2="0" stroke="black" stroke-width="1" stroke-dasharray="4,4"></line><line transform="translate(128,80)" x2="-128" y2="0" stroke="black" stroke-width="1" stroke-dasharray="4,4"></line><line transform="translate(128,80)" x2="-128" y2="0" stroke="black" stroke-width="1" stroke-dasharray="4,4"></line><line transform="translate(128,80)" x2="-128" y2="0" stroke="black" stroke-width="1" stroke-dasharray="4,4"></line><line transform="translate(128,80)" x2="-128" y2="0" stroke="black" stroke-width="1" stroke-dasharray="4,4"></line><line transform="translate(128,80)" x2="-128" y2="0" stroke="black" stroke-width="1" stroke-dasharray="4,4"></line><line transform="translate(128,80)" x2="-128" y2="0" stroke="black" stroke-width="1" stroke-dasharray="4,4"></line><line transform="translate(128,80)" x2="-128" y2="0" stroke="black" stroke-width="1" stroke-dasharray="4,4"></line><line transform="translate(128,80)" x2="-128" y2="0" stroke="black" stroke-width="1" stroke-dasharray="4,4"></line><line transform="translate(128,80)" x2="-128" y2="0" stroke="black" stroke-width="1" stroke-dasharray="4,4"></line><line transform="translate(128,80)" x2="-128" y2="0" stroke="black" stroke-width="1" stroke-dasharray="4,4"></line><line transform="translate(128,80)" x2="-128" y2="0" stroke="black" stroke-width="1" stroke-dasharray="4,4"></line><line transform="translate(128,80)" x2="-128" y2="0" stroke="black" stroke-width="1" stroke-dasharray="4,4"></line><line transform="translate(128,80)" x2="-128" y2="0" stroke="black" stroke-width="1" stroke-dasharray="4,4"></line><line transform="translate(128,80)" x2="-128" y2="0" stroke="black" stroke-width="1" stroke-dasharray="4,4"></line><line transform="translate(128,80)" x2="-128" y2="0" stroke="black" stroke-width="1" stroke-dasharray="4,4"></line><line transform="translate(128,80)" x2="-128" y2="0" stroke="black" stroke-width="1" stroke-dasharray="4,4"></line><line transform="translate(128,80)" x2="-128" y2="0" stroke="black" stroke-width="1" stroke-dasharray="4,4"></line><line transform="translate(128,80)" x2="-128" y2="0" stroke="black" stroke-width="1" stroke-dasharray="4,4"></line><line transform="translate(128,80)" x2="-128" y2="0" stroke="black" stroke-width="1" stroke-dasharray="4,4"></line><line transform="translate(128,80)" x2="-128" y2="0" stroke="black" stroke-width="1" stroke-dasharray="4,4"></line><line transform="translate(128,80)" x2="-128" y2="0" stroke="black" stroke-width="1" stroke-dasharray="4,4"></line><line transform="translate(128,80)" x2="-128" y2="0" stroke="black" stroke-width="1" stroke-dasharray="4,4"></line><line transform="translate(128,80)" x2="-128" y2="0" stroke="black" stroke-width="1" stroke-dasharray="4,4"></line><line transform="translate(128,80)" x2="-128" y2="0" stroke="black" stroke-width="1" stroke-dasharray="4,4"></line><line transform="translate(128,80)" x2="-128" y2="0" stroke="black" stroke-width="1" stroke-dasharray="4,4"></line><line transform="translate(128,80)" x2="-128" y2="0" stroke="black" stroke-width="1" stroke-dasharray="4,4"></line><line transform="translate(128,80)" x2="-128" y2="0" stroke="black" stroke-width="1" stroke-dasharray="4,4"></line><line transform="translate(128,80)" x2="-128" y2="0" stroke="black" stroke-width="1" stroke-dasharray="4,4"></line><line transform="translate(128,80)" x2="-128" y2="0" stroke="black" stroke-width="1" stroke-dasharray="4,4"></line><line transform="translate(128,80)" x2="-128" y2="0" stroke="black" stroke-width="1" stroke-dasharray="4,4"></line><line transform="translate(128,80)" x2="-128" y2="0" stroke="black" stroke-width="1" stroke-dasharray="4,4"></line><line transform="translate(128,80)" x2="-128" y2="0" stroke="black" stroke-width="1" stroke-dasharray="4,4"></line><line transform="translate(128,80)" x2="-128" y2="0" stroke="black" stroke-width="1" stroke-dasharray="4,4"></line><line transform="translate(128,80)" x2="-128" y2="0" stroke="black" stroke-width="1" stroke-dasharray="4,4"></line><line transform="translate(128,80)" x2="-128" y2="0" stroke="black" stroke-width="1" stroke-dasharray="4,4"></line><line transform="translate(128,80)" x2="-128" y2="0" stroke="black" stroke-width="1" stroke-dasharray="4,4"></line><line transform="translate(128,80)" x2="-128" y2="0" stroke="black" stroke-width="1" stroke-dasharray="4,4"></line><line transform="translate(128,80)" x2="-128" y2="0" stroke="black" stroke-width="1" stroke-dasharray="4,4"></line><line transform="translate(128,80)" x2="-128" y2="0" stroke="black" stroke-width="1" stroke-dasharray="4,4"></line><line transform="translate(128,80)" x2="-128" y2="0" stroke="black" stroke-width="1" stroke-dasharray="4,4"></line><line transform="translate(128,80)" x2="-128" y2="0" stroke="black" stroke-width="1" stroke-dasharray="4,4"></line><line transform="translate(128,80)" x2="-128" y2="0" stroke="black" stroke-width="1" stroke-dasharray="4,4"></line><line transform="translate(128,80)" x2="-128" y2="0" stroke="black" stroke-width="1" stroke-dasharray="4,4"></line><line transform="translate(128,80)" x2="-128" y2="0" stroke="black" stroke-width="1" stroke-dasharray="4,4"></line><line transform="translate(128,80)" x2="-128" y2="0" stroke="black" stroke-width="1" stroke-dasharray="4,4"></line><line transform="translate(128,80)" x2="-128" y2="0" stroke="black" stroke-width="1" stroke-dasharray="4,4"></line><line transform="translate(128,80)" x2="-128" y2="0" stroke="black" stroke-width="1" stroke-dasharray="4,4"></line></g><g class="mark-area role-mark child_layer_0_layer_1_marks" role="graphics-object" aria-roledescription="area mark container"><path aria-label="P(switch): 1; time: 0.03125" role="graphics-symbol" aria-roledescription="area mark" d="M0.4444444444444444,0L1.7777777777777777,0L3.111111111111111,0L4.444444444444445,53.8362760834671L5.777777777777778,78.87640449438202L7.111111111111111,98.2825040128411L8.444444444444445,106.0032102728732L9.777777777777779,109.75922953451042L11.11111111111111,109.75922953451042L12.444444444444445,109.75922953451042L13.777777777777779,109.75922953451042L15.11111111111111,112.8892455858748L16.444444444444443,117.68860353130016L17.77777777777778,123.11396468699839L19.11111111111111,123.11396468699839L20.444444444444443,130L21.77777777777778,130L23.11111111111111,130L24.444444444444443,123.53130016051365L25.77777777777778,79.71107544141252L27.11111111111111,63.64365971107544L28.444444444444443,51.12359550561797L29.77777777777778,38.81219903691814L31.11111111111111,35.47351524879615L32.44444444444444,28.378812199036922L33.77777777777778,23.9967897271268L35.111111111111114,20.24077046548956L36.44444444444444,20.24077046548956L37.77777777777778,20.24077046548956L39.111111111111114,20.24077046548956L40.44444444444444,20.24077046548956L41.77777777777778,36.725521669341894L43.111111111111114,64.47833065810593L44.44444444444444,69.2776886035313L45.77777777777778,59.26163723916534L47.111111111111114,50.706260032102726L48.44444444444444,52.1669341894061L49.77777777777778,45.07223113964687L51.111111111111114,32.55216693418941L52.44444444444444,30.256821829855543L53.77777777777778,22.53611556982344L55.111111111111114,20.449438202247197L56.44444444444444,13.354735152487963L57.77777777777778,8.972712680577855L59.111111111111114,8.972712680577855L60.44444444444444,18.571428571428577L61.77777777777778,39.855537720706266L63.111111111111114,51.95826645264848L64.44444444444444,69.69502407704655L65.77777777777777,75.32905296950241L67.11111111111111,88.47512038523276L68.44444444444444,91.39646869983949L69.77777777777777,95.15248796147672L71.11111111111111,99.74317817014447L72.44444444444444,101.8298555377207L73.77777777777777,105.79454253611557L75.11111111111111,107.25521669341893L76.44444444444444,101.20385232744783L77.77777777777777,86.80577849117174L79.11111111111111,57.80096308186196L80.44444444444444,49.45425361155698L81.77777777777777,43.19422150882825L83.11111111111111,36.099518459069024L84.44444444444444,30.67415730337079L85.77777777777777,39.02086677367576L87.11111111111111,39.39393939393939L88.44444444444444,38.956228956228955L89.77777777777777,36.390845070422536L91.11111111111111,50.58098591549295L92.44444444444444,62.70871985157699L93.77777777777777,91.5909090909091L95.11111111111111,91.5909090909091L96.44444444444444,92.33400402414487L97.77777777777777,97.04225352112677L99.11111111111111,109.07444668008048L100.44444444444444,109.07444668008048L101.77777777777777,105.41247484909456L103.11111111111111,113.99568034557237L104.44444444444444,113.99568034557237L105.77777777777777,115.96112311015119L107.11111111111111,115.96112311015119L108.44444444444444,120.3030303030303L109.77777777777777,130L111.11111111111111,130L112.44444444444444,130L113.77777777777777,130L115.11111111111111,130L116.44444444444444,130L116.44444444444444,130L115.11111111111111,130L113.77777777777777,130L112.44444444444444,130L111.11111111111111,130L109.77777777777777,130L108.44444444444444,130L107.11111111111111,130L105.77777777777777,130L104.44444444444444,130L103.11111111111111,130L101.77777777777777,130L100.44444444444444,130L99.11111111111111,130L97.77777777777777,130L96.44444444444444,130L95.11111111111111,130L93.77777777777777,130L92.44444444444444,130L91.11111111111111,130L89.77777777777777,130L88.44444444444444,130L87.11111111111111,130L85.77777777777777,130L84.44444444444444,130L83.11111111111111,130L81.77777777777777,130L80.44444444444444,130L79.11111111111111,130L77.77777777777777,130L76.44444444444444,130L75.11111111111111,130L73.77777777777777,130L72.44444444444444,130L71.11111111111111,130L69.77777777777777,130L68.44444444444444,130L67.11111111111111,130L65.77777777777777,130L64.44444444444444,130L63.111111111111114,130L61.77777777777778,130L60.44444444444444,130L59.111111111111114,130L57.77777777777778,130L56.44444444444444,130L55.111111111111114,130L53.77777777777778,130L52.44444444444444,130L51.111111111111114,130L49.77777777777778,130L48.44444444444444,130L47.111111111111114,130L45.77777777777778,130L44.44444444444444,130L43.111111111111114,130L41.77777777777778,130L40.44444444444444,130L39.111111111111114,130L37.77777777777778,130L36.44444444444444,130L35.111111111111114,130L33.77777777777778,130L32.44444444444444,130L31.11111111111111,130L29.77777777777778,130L28.444444444444443,130L27.11111111111111,130L25.77777777777778,130L24.444444444444443,130L23.11111111111111,130L21.77777777777778,130L20.444444444444443,130L19.11111111111111,130L17.77777777777778,130L16.444444444444443,130L15.11111111111111,130L13.777777777777779,130L12.444444444444445,130L11.11111111111111,130L9.777777777777779,130L8.444444444444445,130L7.111111111111111,130L5.777777777777778,130L4.444444444444445,130L3.111111111111111,130L1.7777777777777777,130L0.4444444444444444,130Z" fill="black" opacity="0.3"></path></g></g><path class="foreground" aria-hidden="true" d="" display="none"></path></g><g transform="translate(220,0)"><path class="background" aria-hidden="true" d="M0.5,0.5h128v130h-128Z" stroke="#ddd"></path><g><g class="mark-group role-axis" aria-hidden="true"><g transform="translate(0.5,130.5)"><path class="background" aria-hidden="true" d="M0,0h0v0h0Z" pointer-events="none"></path><g><g class="mark-rule role-axis-grid" pointer-events="none"><line transform="translate(0,-130)" x2="0" y2="130" stroke="#ddd" stroke-width="1" opacity="1"></line><line transform="translate(28,-130)" x2="0" y2="130" stroke="#ddd" stroke-width="1" opacity="1"></line><line transform="translate(57,-130)" x2="0" y2="130" stroke="#ddd" stroke-width="1" opacity="1"></line><line transform="translate(85,-130)" x2="0" y2="130" stroke="#ddd" stroke-width="1" opacity="1"></line><line transform="translate(114,-130)" x2="0" y2="130" stroke="#ddd" stroke-width="1" opacity="1"></line></g></g><path class="foreground" aria-hidden="true" d="" pointer-events="none" display="none"></path></g></g><g class="mark-group role-axis" role="graphics-symbol" aria-roledescription="axis" aria-label="Y-axis titled 'Target - Non-target' for a linear scale with values from -0.10 to 0.16"><g transform="translate(0.5,0.5)"><path class="background" aria-hidden="true" d="M0,0h0v0h0Z" pointer-events="none"></path><g><g class="mark-rule role-axis-tick" pointer-events="none"><line transform="translate(0,130)" x2="-5" y2="0" stroke="#888" stroke-width="1" opacity="1"></line><line transform="translate(0,105)" x2="-5" y2="0" stroke="#888" stroke-width="1" opacity="1"></line><line transform="translate(0,80)" x2="-5" y2="0" stroke="#888" stroke-width="1" opacity="1"></line><line transform="translate(0,55)" x2="-5" y2="0" stroke="#888" stroke-width="1" opacity="1"></line><line transform="translate(0,30)" x2="-5" y2="0" stroke="#888" stroke-width="1" opacity="1"></line><line transform="translate(0,5)" x2="-5" y2="0" stroke="#888" stroke-width="1" opacity="1"></line></g><g class="mark-text role-axis-label" pointer-events="none"><text text-anchor="end" transform="translate(-7,133)" font-family="sans-serif" font-size="10px" fill="#000" opacity="1">-0.10</text><text text-anchor="end" transform="translate(-7,108)" font-family="sans-serif" font-size="10px" fill="#000" opacity="1">-0.05</text><text text-anchor="end" transform="translate(-7,83)" font-family="sans-serif" font-size="10px" fill="#000" opacity="1">0.00</text><text text-anchor="end" transform="translate(-7,57.99999999999999)" font-family="sans-serif" font-size="10px" fill="#000" opacity="1">0.05</text><text text-anchor="end" transform="translate(-7,32.99999999999999)" font-family="sans-serif" font-size="10px" fill="#000" opacity="1">0.10</text><text text-anchor="end" transform="translate(-7,8.00000000000001)" font-family="sans-serif" font-size="10px" fill="#000" opacity="1">0.15</text></g><g class="mark-rule role-axis-domain" pointer-events="none"><line transform="translate(0,130)" x2="0" y2="-130" stroke="#888" stroke-width="1" opacity="1"></line></g><g class="mark-text role-axis-title" pointer-events="none"><text text-anchor="middle" transform="translate(-36,65) rotate(-90) translate(0,-2)" font-family="sans-serif" font-size="11px" font-weight="bold" fill="#000" opacity="1">Target - Non-target</text></g></g><path class="foreground" aria-hidden="true" d="" pointer-events="none" display="none"></path></g></g><g class="mark-group role-axis" role="graphics-symbol" aria-roledescription="axis" aria-label="Y-axis titled 'P(switch)' for a linear scale with values from 0.0 to 1.0"><g transform="translate(128.5,0.5)"><path class="background" aria-hidden="true" d="M0,0h0v0h0Z" pointer-events="none"></path><g><g class="mark-rule role-axis-tick" pointer-events="none"><line transform="translate(0,130)" x2="5" y2="0" stroke="#888" stroke-width="1" opacity="1"></line><line transform="translate(0,104)" x2="5" y2="0" stroke="#888" stroke-width="1" opacity="1"></line><line transform="translate(0,78)" x2="5" y2="0" stroke="#888" stroke-width="1" opacity="1"></line><line transform="translate(0,52)" x2="5" y2="0" stroke="#888" stroke-width="1" opacity="1"></line><line transform="translate(0,26)" x2="5" y2="0" stroke="#888" stroke-width="1" opacity="1"></line><line transform="translate(0,0)" x2="5" y2="0" stroke="#888" stroke-width="1" opacity="1"></line></g><g class="mark-text role-axis-label" pointer-events="none"><text text-anchor="start" transform="translate(7,133)" font-family="sans-serif" font-size="10px" fill="#000" opacity="1">0.0</text><text text-anchor="start" transform="translate(7,107)" font-family="sans-serif" font-size="10px" fill="#000" opacity="1">0.2</text><text text-anchor="start" transform="translate(7,81)" font-family="sans-serif" font-size="10px" fill="#000" opacity="1">0.4</text><text text-anchor="start" transform="translate(7,55)" font-family="sans-serif" font-size="10px" fill="#000" opacity="1">0.6</text><text text-anchor="start" transform="translate(7,28.999999999999993)" font-family="sans-serif" font-size="10px" fill="#000" opacity="1">0.8</text><text text-anchor="start" transform="translate(7,3)" font-family="sans-serif" font-size="10px" fill="#000" opacity="1">1.0</text></g><g class="mark-rule role-axis-domain" pointer-events="none"><line transform="translate(0,130)" x2="0" y2="-130" stroke="#888" stroke-width="1" opacity="1"></line></g><g class="mark-text role-axis-title" pointer-events="none"><text text-anchor="middle" transform="translate(26,65) rotate(90) translate(0,-2)" font-family="sans-serif" font-size="11px" font-weight="bold" fill="#000" opacity="1">P(switch)</text></g></g><path class="foreground" aria-hidden="true" d="" pointer-events="none" display="none"></path></g></g><g class="mark-group role-scope child_layer_0_layer_0_layer_0_layer_0_pathgroup" role="graphics-object" aria-roledescription="group mark container"><g transform="translate(0,0)"><path class="background" aria-hidden="true" d="M0,0h128v130h-128Z"></path><g><g class="mark-line role-mark child_layer_0_layer_0_layer_0_layer_0_marks" role="graphics-object" aria-roledescription="line mark container"><path aria-label="Source: object; Target - Non-target: -0.0219442978151; Time (s): 0.03125" role="graphics-symbol" aria-roledescription="line mark" d="M0.4444444444444444,90.97214890756169L1.7777777777777777,90.42021138254474L3.111111111111111,89.87049431124095L4.444444444444445,87.97466032759563L5.777777777777778,89.08990675522004L7.111111111111111,93.20323599247853L8.444444444444445,96.76025609397927L9.777777777777779,89.73278169364406L11.11111111111111,88.3367327533644L12.444444444444445,86.41312506834733L13.777777777777779,82.45074200237013L15.11111111111111,80.58830325346705L16.444444444444443,81.06391304887606L17.77777777777778,83.94637871534985L19.11111111111111,80.1802489911136L20.444444444444443,79.52230183419924L21.77777777777778,80.3972187230766L23.11111111111111,78.79080642921471L24.444444444444443,79.30517263381985L25.77777777777778,80.41740930163506L27.11111111111111,81.41234119393904L28.444444444444443,81.1341867761751L29.77777777777778,78.93925280353763L31.11111111111111,77.68930564261218L32.44444444444444,79.01612405070195L33.77777777777778,78.20505569371635L35.111111111111114,83.2229418675515L36.44444444444444,85.26326081061654L37.77777777777778,79.06224704691007L39.111111111111114,81.39039366014185L40.44444444444444,83.64360913071212L41.77777777777778,84.70993769979275L43.111111111111114,79.13510881831895L44.44444444444444,79.83770182226712L45.77777777777778,74.99500937640465L47.111111111111114,72.11293335902978L48.44444444444444,74.53242430201452L49.77777777777778,80.56022445220133L51.111111111111114,81.82463307637816L52.44444444444444,84.57806664904923L53.77777777777778,81.05437133346238L55.111111111111114,79.61530899896802L56.44444444444444,84.28459949347027L57.77777777777778,79.27190723855456L59.111111111111114,77.34701858486245L60.44444444444444,73.10724255563935L61.77777777777778,70.65205382388936L63.111111111111114,69.18899508365624L64.44444444444444,69.84866691798061L65.77777777777777,72.342247618058L67.11111111111111,71.94938555696734L68.44444444444444,72.73090890668405L69.77777777777777,75.88264887909867L71.11111111111111,74.32261078597189L72.44444444444444,76.66245177284227L73.77777777777777,73.87726654881499L75.11111111111111,77.99232448739343L76.44444444444444,75.23637400043917L77.77777777777777,76.04555864451784L79.11111111111111,77.6208312629594L80.44444444444444,75.03850876462583L81.77777777777777,76.65327067060512L83.11111111111111,79.60915950185844L84.44444444444444,79.60547013421636L85.77777777777777,80.07318730815771L87.11111111111111,79.7700819862466L88.44444444444444,80.99100449650983L89.77777777777777,77.81899298752991L91.11111111111111,76.72621869510205L92.44444444444444,73.36811883421925L93.77777777777777,82.77521191477199L95.11111111111111,88.62934856133427L96.44444444444444,89.17888919440685L97.77777777777777,93.19563103334433L99.11111111111111,80.35868879552207L100.44444444444444,92.53551383117001L101.77777777777777,87.56716154972843L103.11111111111111,91.7784638945657L104.44444444444444,71.19225135693681L105.77777777777777,80.94087933156534L107.11111111111111,77.35120163687665L108.44444444444444,107.38757096414696L109.77777777777777,95.43326655511832L111.11111111111111,70.1250090795186L112.44444444444444,66.90995636153325L113.77777777777777,60.55574095619548L115.11111111111111,44.14479405784521L116.44444444444444,36.04423701458369" stroke="#687B3E" stroke-width="2" stroke-linejoin="round"></path></g></g><path class="foreground" aria-hidden="true" d="" display="none"></path></g></g><g class="mark-group role-scope child_layer_0_layer_0_layer_0_layer_1_layer_0_pathgroup" role="graphics-object" aria-roledescription="group mark container"><g transform="translate(0,0)"><path class="background" aria-hidden="true" d="M0,0h128v130h-128Z"></path><g><g class="mark-area role-mark child_layer_0_layer_0_layer_0_layer_1_layer_0_marks" role="graphics-object" aria-roledescription="area mark container"><path aria-label="Target - Non-target: -0.0415422632712; upper_lower: -0.00325739424466; Source: object; Time (s): 0.03125; upper: -0.00325739424466; lower: -0.0415422632712" role="graphics-symbol" aria-roledescription="errorband" d="M0.4444444444444444,100.77113163559949L1.7777777777777777,100.27380298353724L3.111111111111111,100.73208836923104L4.444444444444445,99.3028341551578L5.777777777777778,100.6967651251895L7.111111111111111,105.43643210663353L8.444444444444445,108.42583391103568L9.777777777777779,99.05613551459032L11.11111111111111,96.64309253828333L12.444444444444445,95.08042409644659L13.777777777777779,92.82234517470863L15.11111111111111,91.36057359627135L16.444444444444443,92.75965413924321L17.77777777777778,96.12288149643852L19.11111111111111,92.2444266977631L20.444444444444443,91.82325207701936L21.77777777777778,92.6727408544426L23.11111111111111,90.13153144067003L24.444444444444443,91.81209951877483L25.77777777777778,93.53343813451403L27.11111111111111,92.7169745718675L28.444444444444443,94.87034322193239L29.77777777777778,92.93062000600939L31.11111111111111,92.19082679519343L32.44444444444444,96.0110494148973L33.77777777777778,94.03235237287484L35.111111111111114,97.26394434554842L36.44444444444444,100.1666449066605L37.77777777777778,93.3819868573478L39.111111111111114,94.27956311325543L40.44444444444444,97.35345631855694L41.77777777777778,98.01100710872286L43.111111111111114,91.42644625270707L44.44444444444444,93.53508260618764L45.77777777777778,85.51095104128264L47.111111111111114,83.14494092905399L48.44444444444444,84.92677504859677L49.77777777777778,91.05763687761652L51.111111111111114,92.25320362311153L52.44444444444444,95.40277671818814L53.77777777777778,92.2945686813125L55.111111111111114,91.36276196295223L56.44444444444444,95.2484134048528L57.77777777777778,92.340179402801L59.111111111111114,86.50406968263823L60.44444444444444,83.33098932598476L61.77777777777778,83.26177947933921L63.111111111111114,81.56763010352425L64.44444444444444,81.32363735026873L65.77777777777777,81.34879710634107L67.11111111111111,78.74920011644642L68.44444444444444,80.71044684920405L69.77777777777777,84.8504318020978L71.11111111111111,82.20108844842291L72.44444444444444,87.14151553422089L73.77777777777777,83.18287826856863L75.11111111111111,86.74276846096045L76.44444444444444,86.22631017815758L77.77777777777777,87.99116483227161L79.11111111111111,88.67465561599461L80.44444444444444,84.72108817108116L81.77777777777777,85.43726087769679L83.11111111111111,88.93452690446273L84.44444444444444,88.48334657816949L85.77777777777777,89.66078879098275L87.11111111111111,88.0142616220671L88.44444444444444,89.0572385450859L89.77777777777777,87.6953342680723L91.11111111111111,87.74155659016238L92.44444444444444,85.42955389216401L93.77777777777777,95.38346043171924L95.11111111111111,102.10230494902353L96.44444444444444,101.3883914908841L97.77777777777777,104.56644377850195L99.11111111111111,93.86343384557861L100.44444444444444,105.7149446893804L101.77777777777777,100.11618397923563L103.11111111111111,105.41371847399515L104.44444444444444,87.16851195533498L105.77777777777777,98.18568587951168L107.11111111111111,93.67657670487836L108.44444444444444,123.2396896441754L109.77777777777777,110.53690175069212L111.11111111111111,93.86012649027316L112.44444444444444,89.68166484853377L113.77777777777777,80.61188622038235L115.11111111111111,72.65869882076042L116.44444444444444,61.799216877233945L116.44444444444444,4.92454555085498L115.11111111111111,18.761605790545858L113.77777777777777,39.591816912360315L112.44444444444444,43.79403505658329L111.11111111111111,44.42799149387979L109.77777777777777,80.69596443064668L108.44444444444444,90.37758842063086L107.11111111111111,60.668574018684225L105.77777777777777,63.87792925816907L104.44444444444444,55.60409844099045L103.11111111111111,79.02950357394174L101.77777777777777,75.66219832414069L100.44444444444444,79.63870647373398L99.11111111111111,66.84909406135277L97.77777777777777,79.56759279488288L96.44444444444444,75.90284446053228L95.11111111111111,74.42527707722806L93.77777777777777,69.50020562187592L92.44444444444444,60.30495158028856L91.11111111111111,65.59580636591186L89.77777777777777,67.80576892631225L88.44444444444444,72.23380095368377L87.11111111111111,71.52768793354228L85.77777777777777,69.74823620196968L84.44444444444444,70.5748008937238L83.11111111111111,70.34887545730764L81.77777777777777,68.33664412418737L80.44444444444444,65.47374344502069L79.11111111111111,66.10469912720242L77.77777777777777,64.3032948036383L76.44444444444444,64.52958402869126L75.11111111111111,69.3577962598244L73.77777777777777,64.59773510745536L72.44444444444444,65.71617953622504L71.11111111111111,66.06382786292669L69.77777777777777,67.21267169618405L68.44444444444444,64.72117602944321L67.11111111111111,65.32708275576678L65.77777777777777,64.25355614639679L64.44444444444444,59.65870526479833L63.111111111111114,57.182129058170815L61.77777777777778,59.03116892761217L60.44444444444444,63.19394102512593L59.111111111111114,67.81595752282959L57.77777777777778,67.06749305636215L56.44444444444444,73.35146182906556L55.111111111111114,68.60212643001847L53.77777777777778,70.23754283472756L52.44444444444444,74.55251958362345L51.111111111111114,72.35231900525397L49.77777777777778,70.34773145709752L48.44444444444444,64.56004208719449L47.111111111111114,61.235253575522286L45.77777777777778,64.90279901373286L44.44444444444444,67.39388838648304L43.111111111111114,67.14156399475563L41.77777777777778,72.00820547733154L40.44444444444444,70.25152885574417L39.111111111111114,69.29467508977744L37.77777777777778,66.20298323749911L36.44444444444444,72.27270652217439L35.111111111111114,69.94538212859335L33.77777777777778,63.529311605587004L32.44444444444444,63.26348036653447L31.11111111111111,64.20794717748122L29.77777777777778,65.08739029315484L28.444444444444443,68.38525541683106L27.11111111111111,70.3427500008175L25.77777777777778,67.45873272548256L24.444444444444443,66.93754557657391L23.11111111111111,67.02233670319063L21.77777777777778,67.41779113068147L20.444444444444443,66.81255687042031L19.11111111111111,67.07658923120393L17.77777777777778,71.08052805816085L16.444444444444443,68.7716674072847L15.11111111111111,69.34104810491255L13.777777777777779,72.13687527164882L12.444444444444445,77.71449379711764L11.11111111111111,80.39934635679388L9.777777777777779,80.31949861697362L8.444444444444445,84.70080959957008L7.111111111111111,81.13629300928847L5.777777777777778,76.89904758405409L4.444444444444445,76.1329903810373L3.111111111111111,78.7547748039105L1.7777777777777777,80.15495791508671L0.4444444444444444,81.6286971223296Z" fill="#687B3E" opacity="0.3"></path></g></g><path class="foreground" aria-hidden="true" d="" display="none"></path></g></g><g class="mark-rule role-mark child_layer_0_layer_0_layer_1_marks" role="graphics-symbol" aria-roledescription="rule mark container"><line transform="translate(128,80)" x2="-128" y2="0" stroke="black" stroke-width="1" stroke-dasharray="4,4"></line><line transform="translate(128,80)" x2="-128" y2="0" stroke="black" stroke-width="1" stroke-dasharray="4,4"></line><line transform="translate(128,80)" x2="-128" y2="0" stroke="black" stroke-width="1" stroke-dasharray="4,4"></line><line transform="translate(128,80)" x2="-128" y2="0" stroke="black" stroke-width="1" stroke-dasharray="4,4"></line><line transform="translate(128,80)" x2="-128" y2="0" stroke="black" stroke-width="1" stroke-dasharray="4,4"></line><line transform="translate(128,80)" x2="-128" y2="0" stroke="black" stroke-width="1" stroke-dasharray="4,4"></line><line transform="translate(128,80)" x2="-128" y2="0" stroke="black" stroke-width="1" stroke-dasharray="4,4"></line><line transform="translate(128,80)" x2="-128" y2="0" stroke="black" stroke-width="1" stroke-dasharray="4,4"></line><line transform="translate(128,80)" x2="-128" y2="0" stroke="black" stroke-width="1" stroke-dasharray="4,4"></line><line transform="translate(128,80)" x2="-128" y2="0" stroke="black" stroke-width="1" stroke-dasharray="4,4"></line><line transform="translate(128,80)" x2="-128" y2="0" stroke="black" stroke-width="1" stroke-dasharray="4,4"></line><line transform="translate(128,80)" x2="-128" y2="0" stroke="black" stroke-width="1" stroke-dasharray="4,4"></line><line transform="translate(128,80)" x2="-128" y2="0" stroke="black" stroke-width="1" stroke-dasharray="4,4"></line><line transform="translate(128,80)" x2="-128" y2="0" stroke="black" stroke-width="1" stroke-dasharray="4,4"></line><line transform="translate(128,80)" x2="-128" y2="0" stroke="black" stroke-width="1" stroke-dasharray="4,4"></line><line transform="translate(128,80)" x2="-128" y2="0" stroke="black" stroke-width="1" stroke-dasharray="4,4"></line><line transform="translate(128,80)" x2="-128" y2="0" stroke="black" stroke-width="1" stroke-dasharray="4,4"></line><line transform="translate(128,80)" x2="-128" y2="0" stroke="black" stroke-width="1" stroke-dasharray="4,4"></line><line transform="translate(128,80)" x2="-128" y2="0" stroke="black" stroke-width="1" stroke-dasharray="4,4"></line><line transform="translate(128,80)" x2="-128" y2="0" stroke="black" stroke-width="1" stroke-dasharray="4,4"></line><line transform="translate(128,80)" x2="-128" y2="0" stroke="black" stroke-width="1" stroke-dasharray="4,4"></line><line transform="translate(128,80)" x2="-128" y2="0" stroke="black" stroke-width="1" stroke-dasharray="4,4"></line><line transform="translate(128,80)" x2="-128" y2="0" stroke="black" stroke-width="1" stroke-dasharray="4,4"></line><line transform="translate(128,80)" x2="-128" y2="0" stroke="black" stroke-width="1" stroke-dasharray="4,4"></line><line transform="translate(128,80)" x2="-128" y2="0" stroke="black" stroke-width="1" stroke-dasharray="4,4"></line><line transform="translate(128,80)" x2="-128" y2="0" stroke="black" stroke-width="1" stroke-dasharray="4,4"></line><line transform="translate(128,80)" x2="-128" y2="0" stroke="black" stroke-width="1" stroke-dasharray="4,4"></line><line transform="translate(128,80)" x2="-128" y2="0" stroke="black" stroke-width="1" stroke-dasharray="4,4"></line><line transform="translate(128,80)" x2="-128" y2="0" stroke="black" stroke-width="1" stroke-dasharray="4,4"></line><line transform="translate(128,80)" x2="-128" y2="0" stroke="black" stroke-width="1" stroke-dasharray="4,4"></line><line transform="translate(128,80)" x2="-128" y2="0" stroke="black" stroke-width="1" stroke-dasharray="4,4"></line><line transform="translate(128,80)" x2="-128" y2="0" stroke="black" stroke-width="1" stroke-dasharray="4,4"></line><line transform="translate(128,80)" x2="-128" y2="0" stroke="black" stroke-width="1" stroke-dasharray="4,4"></line><line transform="translate(128,80)" x2="-128" y2="0" stroke="black" stroke-width="1" stroke-dasharray="4,4"></line><line transform="translate(128,80)" x2="-128" y2="0" stroke="black" stroke-width="1" stroke-dasharray="4,4"></line><line transform="translate(128,80)" x2="-128" y2="0" stroke="black" stroke-width="1" stroke-dasharray="4,4"></line><line transform="translate(128,80)" x2="-128" y2="0" stroke="black" stroke-width="1" stroke-dasharray="4,4"></line><line transform="translate(128,80)" x2="-128" y2="0" stroke="black" stroke-width="1" stroke-dasharray="4,4"></line><line transform="translate(128,80)" x2="-128" y2="0" stroke="black" stroke-width="1" stroke-dasharray="4,4"></line><line transform="translate(128,80)" x2="-128" y2="0" stroke="black" stroke-width="1" stroke-dasharray="4,4"></line><line transform="translate(128,80)" x2="-128" y2="0" stroke="black" stroke-width="1" stroke-dasharray="4,4"></line><line transform="translate(128,80)" x2="-128" y2="0" stroke="black" stroke-width="1" stroke-dasharray="4,4"></line><line transform="translate(128,80)" x2="-128" y2="0" stroke="black" stroke-width="1" stroke-dasharray="4,4"></line><line transform="translate(128,80)" x2="-128" y2="0" stroke="black" stroke-width="1" stroke-dasharray="4,4"></line><line transform="translate(128,80)" x2="-128" y2="0" stroke="black" stroke-width="1" stroke-dasharray="4,4"></line><line transform="translate(128,80)" x2="-128" y2="0" stroke="black" stroke-width="1" stroke-dasharray="4,4"></line><line transform="translate(128,80)" x2="-128" y2="0" stroke="black" stroke-width="1" stroke-dasharray="4,4"></line><line transform="translate(128,80)" x2="-128" y2="0" stroke="black" stroke-width="1" stroke-dasharray="4,4"></line><line transform="translate(128,80)" x2="-128" y2="0" stroke="black" stroke-width="1" stroke-dasharray="4,4"></line><line transform="translate(128,80)" x2="-128" y2="0" stroke="black" stroke-width="1" stroke-dasharray="4,4"></line><line transform="translate(128,80)" x2="-128" y2="0" stroke="black" stroke-width="1" stroke-dasharray="4,4"></line><line transform="translate(128,80)" x2="-128" y2="0" stroke="black" stroke-width="1" stroke-dasharray="4,4"></line><line transform="translate(128,80)" x2="-128" y2="0" stroke="black" stroke-width="1" stroke-dasharray="4,4"></line><line transform="translate(128,80)" x2="-128" y2="0" stroke="black" stroke-width="1" stroke-dasharray="4,4"></line><line transform="translate(128,80)" x2="-128" y2="0" stroke="black" stroke-width="1" stroke-dasharray="4,4"></line><line transform="translate(128,80)" x2="-128" y2="0" stroke="black" stroke-width="1" stroke-dasharray="4,4"></line><line transform="translate(128,80)" x2="-128" y2="0" stroke="black" stroke-width="1" stroke-dasharray="4,4"></line><line transform="translate(128,80)" x2="-128" y2="0" stroke="black" stroke-width="1" stroke-dasharray="4,4"></line><line transform="translate(128,80)" x2="-128" y2="0" stroke="black" stroke-width="1" stroke-dasharray="4,4"></line><line transform="translate(128,80)" x2="-128" y2="0" stroke="black" stroke-width="1" stroke-dasharray="4,4"></line><line transform="translate(128,80)" x2="-128" y2="0" stroke="black" stroke-width="1" stroke-dasharray="4,4"></line><line transform="translate(128,80)" x2="-128" y2="0" stroke="black" stroke-width="1" stroke-dasharray="4,4"></line><line transform="translate(128,80)" x2="-128" y2="0" stroke="black" stroke-width="1" stroke-dasharray="4,4"></line><line transform="translate(128,80)" x2="-128" y2="0" stroke="black" stroke-width="1" stroke-dasharray="4,4"></line><line transform="translate(128,80)" x2="-128" y2="0" stroke="black" stroke-width="1" stroke-dasharray="4,4"></line><line transform="translate(128,80)" x2="-128" y2="0" stroke="black" stroke-width="1" stroke-dasharray="4,4"></line><line transform="translate(128,80)" x2="-128" y2="0" stroke="black" stroke-width="1" stroke-dasharray="4,4"></line><line transform="translate(128,80)" x2="-128" y2="0" stroke="black" stroke-width="1" stroke-dasharray="4,4"></line><line transform="translate(128,80)" x2="-128" y2="0" stroke="black" stroke-width="1" stroke-dasharray="4,4"></line><line transform="translate(128,80)" x2="-128" y2="0" stroke="black" stroke-width="1" stroke-dasharray="4,4"></line><line transform="translate(128,80)" x2="-128" y2="0" stroke="black" stroke-width="1" stroke-dasharray="4,4"></line><line transform="translate(128,80)" x2="-128" y2="0" stroke="black" stroke-width="1" stroke-dasharray="4,4"></line><line transform="translate(128,80)" x2="-128" y2="0" stroke="black" stroke-width="1" stroke-dasharray="4,4"></line><line transform="translate(128,80)" x2="-128" y2="0" stroke="black" stroke-width="1" stroke-dasharray="4,4"></line><line transform="translate(128,80)" x2="-128" y2="0" stroke="black" stroke-width="1" stroke-dasharray="4,4"></line><line transform="translate(128,80)" x2="-128" y2="0" stroke="black" stroke-width="1" stroke-dasharray="4,4"></line><line transform="translate(128,80)" x2="-128" y2="0" stroke="black" stroke-width="1" stroke-dasharray="4,4"></line><line transform="translate(128,80)" x2="-128" y2="0" stroke="black" stroke-width="1" stroke-dasharray="4,4"></line><line transform="translate(128,80)" x2="-128" y2="0" stroke="black" stroke-width="1" stroke-dasharray="4,4"></line><line transform="translate(128,80)" x2="-128" y2="0" stroke="black" stroke-width="1" stroke-dasharray="4,4"></line><line transform="translate(128,80)" x2="-128" y2="0" stroke="black" stroke-width="1" stroke-dasharray="4,4"></line><line transform="translate(128,80)" x2="-128" y2="0" stroke="black" stroke-width="1" stroke-dasharray="4,4"></line><line transform="translate(128,80)" x2="-128" y2="0" stroke="black" stroke-width="1" stroke-dasharray="4,4"></line><line transform="translate(128,80)" x2="-128" y2="0" stroke="black" stroke-width="1" stroke-dasharray="4,4"></line><line transform="translate(128,80)" x2="-128" y2="0" stroke="black" stroke-width="1" stroke-dasharray="4,4"></line><line transform="translate(128,80)" x2="-128" y2="0" stroke="black" stroke-width="1" stroke-dasharray="4,4"></line><line transform="translate(128,80)" x2="-128" y2="0" stroke="black" stroke-width="1" stroke-dasharray="4,4"></line><line transform="translate(128,80)" x2="-128" y2="0" stroke="black" stroke-width="1" stroke-dasharray="4,4"></line></g><g class="mark-area role-mark child_layer_0_layer_1_marks" role="graphics-object" aria-roledescription="area mark container"><path aria-label="P(switch): 1; time: 0.03125" role="graphics-symbol" aria-roledescription="area mark" d="M0.4444444444444444,0L1.7777777777777777,0L3.111111111111111,0L4.444444444444445,39.838709677419345L5.777777777777778,71.29032258064515L7.111111111111111,95.75268817204301L8.444444444444445,102.39247311827957L9.777777777777779,107.63440860215053L11.11111111111111,107.63440860215053L12.444444444444445,107.63440860215053L13.777777777777779,107.63440860215053L15.11111111111111,111.47849462365592L16.444444444444443,115.67204301075269L17.77777777777778,124.40860215053763L19.11111111111111,124.40860215053763L20.444444444444443,130L21.77777777777778,130L23.11111111111111,130L24.444444444444443,126.85483870967742L25.77777777777778,90.16129032258065L27.11111111111111,73.38709677419354L28.444444444444443,58.70967741935485L29.77777777777778,40.88709677419356L31.11111111111111,40.88709677419356L32.44444444444444,27.607526881720435L33.77777777777778,27.607526881720435L35.111111111111114,22.365591397849457L36.44444444444444,22.365591397849457L37.77777777777778,22.365591397849457L39.111111111111114,22.365591397849457L40.44444444444444,22.365591397849457L41.77777777777778,31.102150537634408L43.111111111111114,62.204301075268816L44.44444444444444,76.88172043010752L45.77777777777778,70.24193548387096L47.111111111111114,72.33870967741935L48.44444444444444,74.78494623655914L49.77777777777778,68.84408602150538L51.111111111111114,50.32258064516129L52.44444444444444,46.12903225806452L53.77777777777778,32.8494623655914L55.111111111111114,30.403225806451616L56.44444444444444,24.811827956989255L57.77777777777778,16.0752688172043L59.111111111111114,16.0752688172043L60.44444444444444,16.0752688172043L61.77777777777778,35.295698924731184L63.111111111111114,45.08064516129033L64.44444444444444,55.21505376344086L65.77777777777777,59.40860215053764L67.11111111111111,73.73655913978494L68.44444444444444,70.24193548387096L69.77777777777777,75.48387096774192L71.11111111111111,84.91935483870968L72.44444444444444,88.41397849462366L73.77777777777777,88.41397849462366L75.11111111111111,91.55913978494624L76.44444444444444,91.55913978494624L77.77777777777777,83.87096774193549L79.11111111111111,62.553763440860216L80.44444444444444,56.26344086021505L81.77777777777777,56.26344086021505L83.11111111111111,49.623655913978496L84.44444444444444,35.64516129032258L85.77777777777777,49.97311827956989L87.11111111111111,52.30320699708455L88.44444444444444,37.900874635568506L89.77777777777777,26.57232704402515L91.11111111111111,38.42767295597485L92.44444444444444,39.312714776632305L93.77777777777777,57.77777777777777L95.11111111111111,57.77777777777777L96.44444444444444,61.97132616487455L97.77777777777777,70.82437275985663L99.11111111111111,90.39426523297492L100.44444444444444,90.39426523297492L101.77777777777777,82.47311827956989L103.11111111111111,101.57706093189965L104.44444444444444,101.57706093189965L105.77777777777777,105.77060931899642L107.11111111111111,105.77060931899642L108.44444444444444,114.15770609318996L109.77777777777777,130L111.11111111111111,130L112.44444444444444,130L113.77777777777777,130L115.11111111111111,130L116.44444444444444,130L116.44444444444444,130L115.11111111111111,130L113.77777777777777,130L112.44444444444444,130L111.11111111111111,130L109.77777777777777,130L108.44444444444444,130L107.11111111111111,130L105.77777777777777,130L104.44444444444444,130L103.11111111111111,130L101.77777777777777,130L100.44444444444444,130L99.11111111111111,130L97.77777777777777,130L96.44444444444444,130L95.11111111111111,130L93.77777777777777,130L92.44444444444444,130L91.11111111111111,130L89.77777777777777,130L88.44444444444444,130L87.11111111111111,130L85.77777777777777,130L84.44444444444444,130L83.11111111111111,130L81.77777777777777,130L80.44444444444444,130L79.11111111111111,130L77.77777777777777,130L76.44444444444444,130L75.11111111111111,130L73.77777777777777,130L72.44444444444444,130L71.11111111111111,130L69.77777777777777,130L68.44444444444444,130L67.11111111111111,130L65.77777777777777,130L64.44444444444444,130L63.111111111111114,130L61.77777777777778,130L60.44444444444444,130L59.111111111111114,130L57.77777777777778,130L56.44444444444444,130L55.111111111111114,130L53.77777777777778,130L52.44444444444444,130L51.111111111111114,130L49.77777777777778,130L48.44444444444444,130L47.111111111111114,130L45.77777777777778,130L44.44444444444444,130L43.111111111111114,130L41.77777777777778,130L40.44444444444444,130L39.111111111111114,130L37.77777777777778,130L36.44444444444444,130L35.111111111111114,130L33.77777777777778,130L32.44444444444444,130L31.11111111111111,130L29.77777777777778,130L28.444444444444443,130L27.11111111111111,130L25.77777777777778,130L24.444444444444443,130L23.11111111111111,130L21.77777777777778,130L20.444444444444443,130L19.11111111111111,130L17.77777777777778,130L16.444444444444443,130L15.11111111111111,130L13.777777777777779,130L12.444444444444445,130L11.11111111111111,130L9.777777777777779,130L8.444444444444445,130L7.111111111111111,130L5.777777777777778,130L4.444444444444445,130L3.111111111111111,130L1.7777777777777777,130L0.4444444444444444,130Z" fill="black" opacity="0.3"></path></g></g><path class="foreground" aria-hidden="true" d="" display="none"></path></g></g></g><path class="foreground" aria-hidden="true" d="" display="none"></path></g></g></g></svg>
