<?xml version="1.0" encoding="utf-8"?>
<!DOCTYPE svg PUBLIC "-//W3C//DTD SVG 1.1//EN" "http://www.w3.org/Graphics/SVG/1.1/DTD/svg11.dtd">
<svg class="marks" width="400" height="339" viewBox="0 0 400 339" version="1.1" xmlns="http://www.w3.org/2000/svg" xmlns:xlink="http://www.w3.org/1999/xlink"><rect width="400" height="339" fill="white"></rect><g fill="none" stroke-miterlimit="10" transform="translate(50,69)"><g class="mark-group role-frame root" role="graphics-object" aria-roledescription="group mark container"><g transform="translate(0,0)"><path class="background" aria-hidden="true" d="M0,0h0v0h0Z"></path><g><g class="mark-group role-column-title column-title" role="graphics-object" aria-roledescription="group mark container"><g transform="translate(172,-43)"><path class="background" aria-hidden="true" d="M0,0h0v0h0Z"></path><g><g class="mark-group role-title"><g transform="translate(0,-21)"><path class="background" aria-hidden="true" d="M0,0h0v0h0Z" pointer-events="none"></path><g><g class="mark-text role-title-text" role="graphics-symbol" aria-roledescription="title" aria-label="Title text 'comparison'" pointer-events="none"><text text-anchor="middle" transform="translate(0,9)" font-family="sans-serif" font-size="11px" font-weight="bold" fill="#000" opacity="1">comparison</text></g></g><path class="foreground" aria-hidden="true" d="" pointer-events="none" display="none"></path></g></g></g><path class="foreground" aria-hidden="true" d="" display="none"></path></g></g><g class="mark-group role-row-header row_header" role="graphics-object" aria-roledescription="group mark container"><g transform="translate(-1,0)"><path class="background" aria-hidden="true" d="M0,0h0v200h0Z"></path><g><g class="mark-group role-axis" role="graphics-symbol" aria-roledescription="axis" aria-label="Y-axis titled 'lower2, upper2, lower1, upper1, value' for a linear scale with values from 0.00 to 0.04"><g transform="translate(0.5,0.5)"><path class="background" aria-hidden="true" d="M0,0h0v0h0Z" pointer-events="none"></path><g><g class="mark-rule role-axis-tick" pointer-events="none"><line transform="translate(0,200)" x2="-5" y2="0" stroke="#888" stroke-width="1" opacity="1"></line><line transform="translate(0,150)" x2="-5" y2="0" stroke="#888" stroke-width="1" opacity="1"></line><line transform="translate(0,100)" x2="-5" y2="0" stroke="#888" stroke-width="1" opacity="1"></line><line transform="translate(0,50)" x2="-5" y2="0" stroke="#888" stroke-width="1" opacity="1"></line><line transform="translate(0,0)" x2="-5" y2="0" stroke="#888" stroke-width="1" opacity="1"></line></g><g class="mark-text role-axis-label" pointer-events="none"><text text-anchor="end" transform="translate(-7,203)" font-family="sans-serif" font-size="10px" fill="#000" opacity="1">0.00</text><text text-anchor="end" transform="translate(-7,153)" font-family="sans-serif" font-size="10px" fill="#000" opacity="1">0.01</text><text text-anchor="end" transform="translate(-7,103)" font-family="sans-serif" font-size="10px" fill="#000" opacity="1">0.02</text><text text-anchor="end" transform="translate(-7,53)" font-family="sans-serif" font-size="10px" fill="#000" opacity="1">0.03</text><text text-anchor="end" transform="translate(-7,3)" font-family="sans-serif" font-size="10px" fill="#000" opacity="1">0.04</text></g><g class="mark-rule role-axis-domain" pointer-events="none"><line transform="translate(0,200)" x2="0" y2="-200" stroke="#888" stroke-width="1" opacity="1"></line></g><g class="mark-text role-axis-title" pointer-events="none"><text text-anchor="middle" transform="translate(-32,100) rotate(-90) translate(0,-2)" font-family="sans-serif" font-size="11px" font-weight="bold" fill="#000" opacity="1">lower2, upper2, lower1, upper1, value</text></g></g><path class="foreground" aria-hidden="true" d="" pointer-events="none" display="none"></path></g></g></g><path class="foreground" aria-hidden="true" d="" display="none"></path></g></g><g class="mark-group role-column-header column_header" role="graphics-object" aria-roledescription="group mark container"><g transform="translate(0,-1)"><path class="background" aria-hidden="true" d="M0,0h100v0h-100Z"></path><g><g class="mark-group role-title"><g transform="translate(50,-32)"><path class="background" aria-hidden="true" d="M0,0h0v0h0Z" pointer-events="none"></path><g><g class="mark-text role-title-text" role="graphics-symbol" aria-roledescription="title" aria-label="Title text 'global object'" pointer-events="none"><text text-anchor="middle" transform="translate(0,8)" font-family="sans-serif" font-size="10px" fill="#000" opacity="1"><tspan>global</tspan><tspan x="0" dy="12">object</tspan></text></g></g><path class="foreground" aria-hidden="true" d="" pointer-events="none" display="none"></path></g></g></g><path class="foreground" aria-hidden="true" d="" display="none"></path></g><g transform="translate(122,-1)"><path class="background" aria-hidden="true" d="M0,0h100v0h-100Z"></path><g><g class="mark-group role-title"><g transform="translate(50,-32)"><path class="background" aria-hidden="true" d="M0,0h0v0h0Z" pointer-events="none"></path><g><g class="mark-text role-title-text" role="graphics-symbol" aria-roledescription="title" aria-label="Title text 'global spatial'" pointer-events="none"><text text-anchor="middle" transform="translate(0,8)" font-family="sans-serif" font-size="10px" fill="#000" opacity="1"><tspan>global</tspan><tspan x="0" dy="12">spatial</tspan></text></g></g><path class="foreground" aria-hidden="true" d="" pointer-events="none" display="none"></path></g></g></g><path class="foreground" aria-hidden="true" d="" display="none"></path></g><g transform="translate(244,-1)"><path class="background" aria-hidden="true" d="M0,0h100v0h-100Z"></path><g><g class="mark-group role-title"><g transform="translate(50,-32)"><path class="background" aria-hidden="true" d="M0,0h0v0h0Z" pointer-events="none"></path><g><g class="mark-text role-title-text" role="graphics-symbol" aria-roledescription="title" aria-label="Title text 'object spatial'" pointer-events="none"><text text-anchor="middle" transform="translate(0,8)" font-family="sans-serif" font-size="10px" fill="#000" opacity="1"><tspan>object</tspan><tspan x="0" dy="12">spatial</tspan></text></g></g><path class="foreground" aria-hidden="true" d="" pointer-events="none" display="none"></path></g></g></g><path class="foreground" aria-hidden="true" d="" display="none"></path></g></g><g class="mark-group role-column-footer column_footer" role="graphics-object" aria-roledescription="group mark container"><g transform="translate(0,205)"><path class="background" aria-hidden="true" d="M0,0h100v0h-100Z"></path><g><g class="mark-group role-axis" role="graphics-symbol" aria-roledescription="axis" aria-label="X-axis titled 'freqbin' for a discrete scale with 5 values: delta, theta, alpha, beta, gamma"><g transform="translate(0.5,0.5)"><path class="background" aria-hidden="true" d="M0,0h0v0h0Z" pointer-events="none"></path><g><g class="mark-rule role-axis-tick" pointer-events="none"><line transform="translate(10,0)" x2="0" y2="5" stroke="#888" stroke-width="1" opacity="1"></line><line transform="translate(30,0)" x2="0" y2="5" stroke="#888" stroke-width="1" opacity="1"></line><line transform="translate(50,0)" x2="0" y2="5" stroke="#888" stroke-width="1" opacity="1"></line><line transform="translate(70,0)" x2="0" y2="5" stroke="#888" stroke-width="1" opacity="1"></line><line transform="translate(90,0)" x2="0" y2="5" stroke="#888" stroke-width="1" opacity="1"></line></g><g class="mark-text role-axis-label" pointer-events="none"><text text-anchor="end" transform="translate(9.5,7) rotate(270) translate(0,3)" font-family="sans-serif" font-size="10px" fill="#000" opacity="1">delta</text><text text-anchor="end" transform="translate(29.5,7) rotate(270) translate(0,3)" font-family="sans-serif" font-size="10px" fill="#000" opacity="1">theta</text><text text-anchor="end" transform="translate(49.5,7) rotate(270) translate(0,3)" font-family="sans-serif" font-size="10px" fill="#000" opacity="1">alpha</text><text text-anchor="end" transform="translate(69.5,7) rotate(270) translate(0,3)" font-family="sans-serif" font-size="10px" fill="#000" opacity="1">beta</text><text text-anchor="end" transform="translate(89.5,7) rotate(270) translate(0,3)" font-family="sans-serif" font-size="10px" fill="#000" opacity="1">gamma</text></g><g class="mark-rule role-axis-domain" pointer-events="none"><line transform="translate(0,0)" x2="100" y2="0" stroke="#888" stroke-width="1" opacity="1"></line></g><g class="mark-text role-axis-title" pointer-events="none"><text text-anchor="middle" transform="translate(50,58)" font-family="sans-serif" font-size="11px" font-weight="bold" fill="#000" opacity="1">freqbin</text></g></g><path class="foreground" aria-hidden="true" d="" pointer-events="none" display="none"></path></g></g></g><path class="foreground" aria-hidden="true" d="" display="none"></path></g><g transform="translate(122,205)"><path class="background" aria-hidden="true" d="M0,0h100v0h-100Z"></path><g><g class="mark-group role-axis" role="graphics-symbol" aria-roledescription="axis" aria-label="X-axis titled 'freqbin' for a discrete scale with 5 values: delta, theta, alpha, beta, gamma"><g transform="translate(0.5,0.5)"><path class="background" aria-hidden="true" d="M0,0h0v0h0Z" pointer-events="none"></path><g><g class="mark-rule role-axis-tick" pointer-events="none"><line transform="translate(10,0)" x2="0" y2="5" stroke="#888" stroke-width="1" opacity="1"></line><line transform="translate(30,0)" x2="0" y2="5" stroke="#888" stroke-width="1" opacity="1"></line><line transform="translate(50,0)" x2="0" y2="5" stroke="#888" stroke-width="1" opacity="1"></line><line transform="translate(70,0)" x2="0" y2="5" stroke="#888" stroke-width="1" opacity="1"></line><line transform="translate(90,0)" x2="0" y2="5" stroke="#888" stroke-width="1" opacity="1"></line></g><g class="mark-text role-axis-label" pointer-events="none"><text text-anchor="end" transform="translate(9.5,7) rotate(270) translate(0,3)" font-family="sans-serif" font-size="10px" fill="#000" opacity="1">delta</text><text text-anchor="end" transform="translate(29.5,7) rotate(270) translate(0,3)" font-family="sans-serif" font-size="10px" fill="#000" opacity="1">theta</text><text text-anchor="end" transform="translate(49.5,7) rotate(270) translate(0,3)" font-family="sans-serif" font-size="10px" fill="#000" opacity="1">alpha</text><text text-anchor="end" transform="translate(69.5,7) rotate(270) translate(0,3)" font-family="sans-serif" font-size="10px" fill="#000" opacity="1">beta</text><text text-anchor="end" transform="translate(89.5,7) rotate(270) translate(0,3)" font-family="sans-serif" font-size="10px" fill="#000" opacity="1">gamma</text></g><g class="mark-rule role-axis-domain" pointer-events="none"><line transform="translate(0,0)" x2="100" y2="0" stroke="#888" stroke-width="1" opacity="1"></line></g><g class="mark-text role-axis-title" pointer-events="none"><text text-anchor="middle" transform="translate(50,58)" font-family="sans-serif" font-size="11px" font-weight="bold" fill="#000" opacity="1">freqbin</text></g></g><path class="foreground" aria-hidden="true" d="" pointer-events="none" display="none"></path></g></g></g><path class="foreground" aria-hidden="true" d="" display="none"></path></g><g transform="translate(244,205)"><path class="background" aria-hidden="true" d="M0,0h100v0h-100Z"></path><g><g class="mark-group role-axis" role="graphics-symbol" aria-roledescription="axis" aria-label="X-axis titled 'freqbin' for a discrete scale with 5 values: delta, theta, alpha, beta, gamma"><g transform="translate(0.5,0.5)"><path class="background" aria-hidden="true" d="M0,0h0v0h0Z" pointer-events="none"></path><g><g class="mark-rule role-axis-tick" pointer-events="none"><line transform="translate(10,0)" x2="0" y2="5" stroke="#888" stroke-width="1" opacity="1"></line><line transform="translate(30,0)" x2="0" y2="5" stroke="#888" stroke-width="1" opacity="1"></line><line transform="translate(50,0)" x2="0" y2="5" stroke="#888" stroke-width="1" opacity="1"></line><line transform="translate(70,0)" x2="0" y2="5" stroke="#888" stroke-width="1" opacity="1"></line><line transform="translate(90,0)" x2="0" y2="5" stroke="#888" stroke-width="1" opacity="1"></line></g><g class="mark-text role-axis-label" pointer-events="none"><text text-anchor="end" transform="translate(9.5,7) rotate(270) translate(0,3)" font-family="sans-serif" font-size="10px" fill="#000" opacity="1">delta</text><text text-anchor="end" transform="translate(29.5,7) rotate(270) translate(0,3)" font-family="sans-serif" font-size="10px" fill="#000" opacity="1">theta</text><text text-anchor="end" transform="translate(49.5,7) rotate(270) translate(0,3)" font-family="sans-serif" font-size="10px" fill="#000" opacity="1">alpha</text><text text-anchor="end" transform="translate(69.5,7) rotate(270) translate(0,3)" font-family="sans-serif" font-size="10px" fill="#000" opacity="1">beta</text><text text-anchor="end" transform="translate(89.5,7) rotate(270) translate(0,3)" font-family="sans-serif" font-size="10px" fill="#000" opacity="1">gamma</text></g><g class="mark-rule role-axis-domain" pointer-events="none"><line transform="translate(0,0)" x2="100" y2="0" stroke="#888" stroke-width="1" opacity="1"></line></g><g class="mark-text role-axis-title" pointer-events="none"><text text-anchor="middle" transform="translate(50,58)" font-family="sans-serif" font-size="11px" font-weight="bold" fill="#000" opacity="1">freqbin</text></g></g><path class="foreground" aria-hidden="true" d="" pointer-events="none" display="none"></path></g></g></g><path class="foreground" aria-hidden="true" d="" display="none"></path></g></g><g class="mark-group role-scope cell" role="graphics-object" aria-roledescription="group mark container"><g transform="translate(0,0)"><path class="background" aria-hidden="true" d="M0.5,0.5h100v200h-100Z" stroke="#ddd"></path><g><g class="mark-group role-axis" aria-hidden="true"><g transform="translate(0.5,0.5)"><path class="background" aria-hidden="true" d="M0,0h0v0h0Z" pointer-events="none"></path><g><g class="mark-rule role-axis-grid" pointer-events="none"><line transform="translate(0,200)" x2="100" y2="0" stroke="#ddd" stroke-width="1" opacity="1"></line><line transform="translate(0,150)" x2="100" y2="0" stroke="#ddd" stroke-width="1" opacity="1"></line><line transform="translate(0,100)" x2="100" y2="0" stroke="#ddd" stroke-width="1" opacity="1"></line><line transform="translate(0,50)" x2="100" y2="0" stroke="#ddd" stroke-width="1" opacity="1"></line><line transform="translate(0,0)" x2="100" y2="0" stroke="#ddd" stroke-width="1" opacity="1"></line></g></g><path class="foreground" aria-hidden="true" d="" pointer-events="none" display="none"></path></g></g><g class="mark-rule role-mark child_layer_0_layer_0_marks" role="graphics-object" aria-roledescription="rule mark container"><line aria-label="freqbin: delta; lower2: 0; upper2: 0.0138545765597" role="graphics-symbol" aria-roledescription="rule mark" transform="translate(10,200)" x2="0" y2="-69.272882798376" stroke="black"></line><line aria-label="freqbin: theta; lower2: 0.000493895876718; upper2: 0.0316330454044" role="graphics-symbol" aria-roledescription="rule mark" transform="translate(30,197.53052061640955)" x2="0" y2="-155.69574763831335" stroke="black"></line><line aria-label="freqbin: alpha; lower2: 0.00151732833128; upper2: 0.0111525052434" role="graphics-symbol" aria-roledescription="rule mark" transform="translate(50,192.41335834358725)" x2="0" y2="-48.1758845608293" stroke="black"></line><line aria-label="freqbin: beta; lower2: 0; upper2: 0.00469968159177" role="graphics-symbol" aria-roledescription="rule mark" transform="translate(70,200)" x2="0" y2="-23.498407958842847" stroke="black"></line><line aria-label="freqbin: gamma; lower2: 0.00091697657002; upper2: 0.00487527368407" role="graphics-symbol" aria-roledescription="rule mark" transform="translate(90,195.41511714990185)" x2="0" y2="-19.79148557026906" stroke="black"></line></g><g class="mark-rule role-mark child_layer_0_layer_1_marks" role="graphics-object" aria-roledescription="rule mark container"><line aria-label="freqbin: delta; lower1: 0.00147055825078; upper1: 0.00708926590683" role="graphics-symbol" aria-roledescription="rule mark" transform="translate(10,192.64720874609213)" x2="0" y2="-28.093538280248794" stroke="black" stroke-width="4"></line><line aria-label="freqbin: theta; lower1: 0.005975533357; upper1: 0.0219369793359" role="graphics-symbol" aria-roledescription="rule mark" transform="translate(30,170.12233321499713)" x2="0" y2="-79.80722989452005" stroke="black" stroke-width="4"></line><line aria-label="freqbin: alpha; lower1: 0.00385500399667; upper1: 0.00505781640835" role="graphics-symbol" aria-roledescription="rule mark" transform="translate(50,180.72498001667384)" x2="0" y2="-6.0140620584296585" stroke="black" stroke-width="4"></line><line aria-label="freqbin: beta; lower1: 0.000244448416935; upper1: 0.00186453556332" role="graphics-symbol" aria-roledescription="rule mark" transform="translate(70,198.77775791532562)" x2="0" y2="-8.100435731920783" stroke="black" stroke-width="4"></line><line aria-label="freqbin: gamma; lower1: 0.00153077998252; upper1: 0.00354961022493" role="graphics-symbol" aria-roledescription="rule mark" transform="translate(90,192.34610008741666)" x2="0" y2="-10.094151212075559" stroke="black" stroke-width="4"></line></g><g class="mark-symbol role-mark child_layer_0_layer_2_marks" role="graphics-object" aria-roledescription="symbol mark container"><path aria-label="freqbin: delta; value: 0.00538355992071" role="graphics-symbol" aria-roledescription="point" transform="translate(10,173.08220039645892)" d="M3.5355339059327378,0A3.5355339059327378,3.5355339059327378,0,1,1,-3.5355339059327378,0A3.5355339059327378,3.5355339059327378,0,1,1,3.5355339059327378,0" fill="black" stroke-width="2" opacity="0.7"></path><path aria-label="freqbin: theta; value: 0.0202607914671" role="graphics-symbol" aria-roledescription="point" transform="translate(30,98.6960426647471)" d="M3.5355339059327378,0A3.5355339059327378,3.5355339059327378,0,1,1,-3.5355339059327378,0A3.5355339059327378,3.5355339059327378,0,1,1,3.5355339059327378,0" fill="black" stroke-width="2" opacity="0.7"></path><path aria-label="freqbin: alpha; value: 0.00402729915943" role="graphics-symbol" aria-roledescription="point" transform="translate(50,179.86350420283514)" d="M3.5355339059327378,0A3.5355339059327378,3.5355339059327378,0,1,1,-3.5355339059327378,0A3.5355339059327378,3.5355339059327378,0,1,1,3.5355339059327378,0" fill="black" stroke-width="2" opacity="0.7"></path><path aria-label="freqbin: beta; value: 0.00131800408619" role="graphics-symbol" aria-roledescription="point" transform="translate(70,193.40997956905457)" d="M3.5355339059327378,0A3.5355339059327378,3.5355339059327378,0,1,1,-3.5355339059327378,0A3.5355339059327378,3.5355339059327378,0,1,1,3.5355339059327378,0" fill="black" stroke-width="2" opacity="0.7"></path><path aria-label="freqbin: gamma; value: 0.00242722348806" role="graphics-symbol" aria-roledescription="point" transform="translate(90,187.8638825597107)" d="M3.5355339059327378,0A3.5355339059327378,3.5355339059327378,0,1,1,-3.5355339059327378,0A3.5355339059327378,3.5355339059327378,0,1,1,3.5355339059327378,0" fill="black" stroke-width="2" opacity="0.7"></path></g></g><path class="foreground" aria-hidden="true" d="" display="none"></path></g><g transform="translate(122,0)"><path class="background" aria-hidden="true" d="M0.5,0.5h100v200h-100Z" stroke="#ddd"></path><g><g class="mark-group role-axis" aria-hidden="true"><g transform="translate(0.5,0.5)"><path class="background" aria-hidden="true" d="M0,0h0v0h0Z" pointer-events="none"></path><g><g class="mark-rule role-axis-grid" pointer-events="none"><line transform="translate(0,200)" x2="100" y2="0" stroke="#ddd" stroke-width="1" opacity="1"></line><line transform="translate(0,150)" x2="100" y2="0" stroke="#ddd" stroke-width="1" opacity="1"></line><line transform="translate(0,100)" x2="100" y2="0" stroke="#ddd" stroke-width="1" opacity="1"></line><line transform="translate(0,50)" x2="100" y2="0" stroke="#ddd" stroke-width="1" opacity="1"></line><line transform="translate(0,0)" x2="100" y2="0" stroke="#ddd" stroke-width="1" opacity="1"></line></g></g><path class="foreground" aria-hidden="true" d="" pointer-events="none" display="none"></path></g></g><g class="mark-rule role-mark child_layer_0_layer_0_marks" role="graphics-object" aria-roledescription="rule mark container"><line aria-label="freqbin: delta; lower2: 0; upper2: 0.00542688775678" role="graphics-symbol" aria-roledescription="rule mark" transform="translate(10,200)" x2="0" y2="-27.134438783886168" stroke="black"></line><line aria-label="freqbin: theta; lower2: 0.000260359664501; upper2: 0.00717607502467" role="graphics-symbol" aria-roledescription="rule mark" transform="translate(30,198.69820167749643)" x2="0" y2="-34.57857680083143" stroke="black"></line><line aria-label="freqbin: alpha; lower2: 0.0034991664947; upper2: 0.00799842363723" role="graphics-symbol" aria-roledescription="rule mark" transform="translate(50,182.5041675265217)" x2="0" y2="-22.496285712650348" stroke="black"></line><line aria-label="freqbin: beta; lower2: 0; upper2: 0.00326876313182" role="graphics-symbol" aria-roledescription="rule mark" transform="translate(70,200)" x2="0" y2="-16.34381565909007" stroke="black"></line><line aria-label="freqbin: gamma; lower2: 0.00261195748698; upper2: 0.00707180453384" role="graphics-symbol" aria-roledescription="rule mark" transform="translate(90,186.94021256509316)" x2="0" y2="-22.299235234270697" stroke="black"></line></g><g class="mark-rule role-mark child_layer_0_layer_1_marks" role="graphics-object" aria-roledescription="rule mark container"><line aria-label="freqbin: delta; lower1: 0.000334579787107; upper1: 0.00130048380506" role="graphics-symbol" aria-roledescription="rule mark" transform="translate(10,198.32710106446513)" x2="0" y2="-4.829520089758233" stroke="black" stroke-width="4"></line><line aria-label="freqbin: theta; lower1: 0.000843343732252; upper1: 0.00359753799451" role="graphics-symbol" aria-roledescription="rule mark" transform="translate(30,195.78328133873808)" x2="0" y2="-13.770971311306795" stroke="black" stroke-width="4"></line><line aria-label="freqbin: alpha; lower1: 0.00509070810291; upper1: 0.00644896598802" role="graphics-symbol" aria-roledescription="rule mark" transform="translate(50,174.5464594854699)" x2="0" y2="-6.791289425553231" stroke="black" stroke-width="4"></line><line aria-label="freqbin: beta; lower1: 0.000151937534745; upper1: 0.00178306276622" role="graphics-symbol" aria-roledescription="rule mark" transform="translate(70,199.24031232627715)" x2="0" y2="-8.155626157378464" stroke="black" stroke-width="4"></line><line aria-label="freqbin: gamma; lower1: 0.00529589759675; upper1: 0.00697162668231" role="graphics-symbol" aria-roledescription="rule mark" transform="translate(90,173.52051201625244)" x2="0" y2="-8.378645427779531" stroke="black" stroke-width="4"></line></g><g class="mark-symbol role-mark child_layer_0_layer_2_marks" role="graphics-object" aria-roledescription="symbol mark container"><path aria-label="freqbin: delta; value: 0.000950874508852" role="graphics-symbol" aria-roledescription="point" transform="translate(10,195.24562745574144)" d="M3.5355339059327378,0A3.5355339059327378,3.5355339059327378,0,1,1,-3.5355339059327378,0A3.5355339059327378,3.5355339059327378,0,1,1,3.5355339059327378,0" fill="black" stroke-width="2" opacity="0.7"></path><path aria-label="freqbin: theta; value: 0.00243019802111" role="graphics-symbol" aria-roledescription="point" transform="translate(30,187.84900989445194)" d="M3.5355339059327378,0A3.5355339059327378,3.5355339059327378,0,1,1,-3.5355339059327378,0A3.5355339059327378,3.5355339059327378,0,1,1,3.5355339059327378,0" fill="black" stroke-width="2" opacity="0.7"></path><path aria-label="freqbin: alpha; value: 0.00599271123219" role="graphics-symbol" aria-roledescription="point" transform="translate(50,170.0364438390588)" d="M3.5355339059327378,0A3.5355339059327378,3.5355339059327378,0,1,1,-3.5355339059327378,0A3.5355339059327378,3.5355339059327378,0,1,1,3.5355339059327378,0" fill="black" stroke-width="2" opacity="0.7"></path><path aria-label="freqbin: beta; value: 0.000901078525217" role="graphics-symbol" aria-roledescription="point" transform="translate(70,195.49460737391513)" d="M3.5355339059327378,0A3.5355339059327378,3.5355339059327378,0,1,1,-3.5355339059327378,0A3.5355339059327378,3.5355339059327378,0,1,1,3.5355339059327378,0" fill="black" stroke-width="2" opacity="0.7"></path><path aria-label="freqbin: gamma; value: 0.00665696912077" role="graphics-symbol" aria-roledescription="point" transform="translate(90,166.71515439614723)" d="M3.5355339059327378,0A3.5355339059327378,3.5355339059327378,0,1,1,-3.5355339059327378,0A3.5355339059327378,3.5355339059327378,0,1,1,3.5355339059327378,0" fill="black" stroke-width="2" opacity="0.7"></path></g></g><path class="foreground" aria-hidden="true" d="" display="none"></path></g><g transform="translate(244,0)"><path class="background" aria-hidden="true" d="M0.5,0.5h100v200h-100Z" stroke="#ddd"></path><g><g class="mark-group role-axis" aria-hidden="true"><g transform="translate(0.5,0.5)"><path class="background" aria-hidden="true" d="M0,0h0v0h0Z" pointer-events="none"></path><g><g class="mark-rule role-axis-grid" pointer-events="none"><line transform="translate(0,200)" x2="100" y2="0" stroke="#ddd" stroke-width="1" opacity="1"></line><line transform="translate(0,150)" x2="100" y2="0" stroke="#ddd" stroke-width="1" opacity="1"></line><line transform="translate(0,100)" x2="100" y2="0" stroke="#ddd" stroke-width="1" opacity="1"></line><line transform="translate(0,50)" x2="100" y2="0" stroke="#ddd" stroke-width="1" opacity="1"></line><line transform="translate(0,0)" x2="100" y2="0" stroke="#ddd" stroke-width="1" opacity="1"></line></g></g><path class="foreground" aria-hidden="true" d="" pointer-events="none" display="none"></path></g></g><g class="mark-rule role-mark child_layer_0_layer_0_marks" role="graphics-object" aria-roledescription="rule mark container"><line aria-label="freqbin: delta; lower2: 0.00119949350334; upper2: 0.0154342817536" role="graphics-symbol" aria-roledescription="rule mark" transform="translate(10,194.00253248330216)" x2="0" y2="-71.17394125152771" stroke="black"></line><line aria-label="freqbin: theta; lower2: 0; upper2: 0.020075045891" role="graphics-symbol" aria-roledescription="rule mark" transform="translate(30,200)" x2="0" y2="-100.37522945510527" stroke="black"></line><line aria-label="freqbin: alpha; lower2: 0.00300567714701; upper2: 0.0161342173567" role="graphics-symbol" aria-roledescription="rule mark" transform="translate(50,184.97161426493133)" x2="0" y2="-65.6427010486315" stroke="black"></line><line aria-label="freqbin: beta; lower2: 0; upper2: 0.00108297480026" role="graphics-symbol" aria-roledescription="rule mark" transform="translate(70,200)" x2="0" y2="-5.4148740012958285" stroke="black"></line><line aria-label="freqbin: gamma; lower2: 0; upper2: 0.00437130988118" role="graphics-symbol" aria-roledescription="rule mark" transform="translate(90,200)" x2="0" y2="-21.85654940591425" stroke="black"></line></g><g class="mark-rule role-mark child_layer_0_layer_1_marks" role="graphics-object" aria-roledescription="rule mark container"><line aria-label="freqbin: delta; lower1: 0.00400956322794; upper1: 0.0110611533232" role="graphics-symbol" aria-roledescription="rule mark" transform="translate(10,179.95218386029697)" x2="0" y2="-35.25795047610913" stroke="black" stroke-width="4"></line><line aria-label="freqbin: theta; lower1: 0.00457338314081; upper1: 0.016208842655" role="graphics-symbol" aria-roledescription="rule mark" transform="translate(30,177.13308429593818)" x2="0" y2="-58.17729757104482" stroke="black" stroke-width="4"></line><line aria-label="freqbin: alpha; lower1: 0.00550656556702; upper1: 0.0119432899017" role="graphics-symbol" aria-roledescription="rule mark" transform="translate(50,172.46717216488344)" x2="0" y2="-32.183621673524385" stroke="black" stroke-width="4"></line><line aria-label="freqbin: beta; lower1: 0; upper1: 0.0005679579244" role="graphics-symbol" aria-roledescription="rule mark" transform="translate(70,200)" x2="0" y2="-2.839789621998051" stroke="black" stroke-width="4"></line><line aria-label="freqbin: gamma; lower1: 0; upper1: 0.00105914186207" role="graphics-symbol" aria-roledescription="rule mark" transform="translate(90,200)" x2="0" y2="-5.295709310336065" stroke="black" stroke-width="4"></line></g><g class="mark-symbol role-mark child_layer_0_layer_2_marks" role="graphics-object" aria-roledescription="symbol mark container"><path aria-label="freqbin: delta; value: 0.00967668095534" role="graphics-symbol" aria-roledescription="point" transform="translate(10,151.61659522331675)" d="M3.5355339059327378,0A3.5355339059327378,3.5355339059327378,0,1,1,-3.5355339059327378,0A3.5355339059327378,3.5355339059327378,0,1,1,3.5355339059327378,0" fill="black" stroke-width="2" opacity="0.7"></path><path aria-label="freqbin: theta; value: 0.0140562667759" role="graphics-symbol" aria-roledescription="point" transform="translate(30,129.71866612049405)" d="M3.5355339059327378,0A3.5355339059327378,3.5355339059327378,0,1,1,-3.5355339059327378,0A3.5355339059327378,3.5355339059327378,0,1,1,3.5355339059327378,0" fill="black" stroke-width="2" opacity="0.7"></path><path aria-label="freqbin: alpha; value: 0.0107298005277" role="graphics-symbol" aria-roledescription="point" transform="translate(50,146.35099736165714)" d="M3.5355339059327378,0A3.5355339059327378,3.5355339059327378,0,1,1,-3.5355339059327378,0A3.5355339059327378,3.5355339059327378,0,1,1,3.5355339059327378,0" fill="black" stroke-width="2" opacity="0.7"></path><path aria-label="freqbin: beta; value: 0" role="graphics-symbol" aria-roledescription="point" transform="translate(70,200)" d="M3.5355339059327378,0A3.5355339059327378,3.5355339059327378,0,1,1,-3.5355339059327378,0A3.5355339059327378,3.5355339059327378,0,1,1,3.5355339059327378,0" fill="black" stroke-width="2" opacity="0.7"></path><path aria-label="freqbin: gamma; value: 0.000489068346835" role="graphics-symbol" aria-roledescription="point" transform="translate(90,197.55465826582437)" d="M3.5355339059327378,0A3.5355339059327378,3.5355339059327378,0,1,1,-3.5355339059327378,0A3.5355339059327378,3.5355339059327378,0,1,1,3.5355339059327378,0" fill="black" stroke-width="2" opacity="0.7"></path></g></g><path class="foreground" aria-hidden="true" d="" display="none"></path></g></g></g><path class="foreground" aria-hidden="true" d="" display="none"></path></g></g></g></svg>
