<?xml version="1.0" encoding="utf-8"?>
<!DOCTYPE svg PUBLIC "-//W3C//DTD SVG 1.1//EN" "http://www.w3.org/Graphics/SVG/1.1/DTD/svg11.dtd">
<svg class="marks" width="333" height="195" viewBox="0 0 333 195" version="1.1" xmlns="http://www.w3.org/2000/svg" xmlns:xlink="http://www.w3.org/1999/xlink"><rect width="333" height="195" fill="white"></rect><g fill="none" stroke-miterlimit="10" transform="translate(56,26)"><g class="mark-group role-frame root" role="graphics-object" aria-roledescription="group mark container"><g transform="translate(0,0)"><path class="background" aria-hidden="true" d="M0,0h0v0h0Z"></path><g><g class="mark-group role-row-header row_header" role="graphics-object" aria-roledescription="group mark container"><g transform="translate(-3,0)"><path class="background" aria-hidden="true" d="M0,0h0v130h0Z"></path><g><g class="mark-group role-axis" role="graphics-symbol" aria-roledescription="axis" aria-label="Y-axis titled 'Decoding Correlation' for a linear scale with values from -0.10 to 0.16"><g transform="translate(0.5,0.5)"><path class="background" aria-hidden="true" d="M0,0h0v0h0Z" pointer-events="none"></path><g><g class="mark-rule role-axis-tick" pointer-events="none"><line transform="translate(0,130)" x2="-5" y2="0" stroke="#888" stroke-width="1" opacity="1"></line><line transform="translate(0,105)" x2="-5" y2="0" stroke="#888" stroke-width="1" opacity="1"></line><line transform="translate(0,80)" x2="-5" y2="0" stroke="#888" stroke-width="1" opacity="1"></line><line transform="translate(0,55)" x2="-5" y2="0" stroke="#888" stroke-width="1" opacity="1"></line><line transform="translate(0,30)" x2="-5" y2="0" stroke="#888" stroke-width="1" opacity="1"></line><line transform="translate(0,5)" x2="-5" y2="0" stroke="#888" stroke-width="1" opacity="1"></line></g><g class="mark-text role-axis-label" pointer-events="none"><text text-anchor="end" transform="translate(-7,133)" font-family="sans-serif" font-size="10px" fill="#000" opacity="1">-0.10</text><text text-anchor="end" transform="translate(-7,108)" font-family="sans-serif" font-size="10px" fill="#000" opacity="1">-0.05</text><text text-anchor="end" transform="translate(-7,83)" font-family="sans-serif" font-size="10px" fill="#000" opacity="1">0.00</text><text text-anchor="end" transform="translate(-7,57.99999999999999)" font-family="sans-serif" font-size="10px" fill="#000" opacity="1">0.05</text><text text-anchor="end" transform="translate(-7,32.99999999999999)" font-family="sans-serif" font-size="10px" fill="#000" opacity="1">0.10</text><text text-anchor="end" transform="translate(-7,8.00000000000001)" font-family="sans-serif" font-size="10px" fill="#000" opacity="1">0.15</text></g><g class="mark-rule role-axis-domain" pointer-events="none"><line transform="translate(0,130)" x2="0" y2="-130" stroke="#888" stroke-width="1" opacity="1"></line></g><g class="mark-text role-axis-title" pointer-events="none"><text text-anchor="middle" transform="translate(-36,65) rotate(-90) translate(0,-2)" font-family="sans-serif" font-size="11px" font-weight="bold" fill="#000" opacity="1">Decoding Correlation</text></g></g><path class="foreground" aria-hidden="true" d="" pointer-events="none" display="none"></path></g></g></g><path class="foreground" aria-hidden="true" d="" display="none"></path></g></g><g class="mark-group role-column-header column_header" role="graphics-object" aria-roledescription="group mark container"><g transform="translate(0,-1)"><path class="background" aria-hidden="true" d="M0,0h128v0h-128Z"></path><g><g class="mark-group role-title"><g transform="translate(64,-20)"><path class="background" aria-hidden="true" d="M0,0h0v0h0Z" pointer-events="none"></path><g><g class="mark-text role-title-text" role="graphics-symbol" aria-roledescription="title" aria-label="Title text 'Global'" pointer-events="none"><text text-anchor="middle" transform="translate(0,8)" font-family="sans-serif" font-size="10px" font-weight="bold" fill="#000" opacity="1">Global</text></g></g><path class="foreground" aria-hidden="true" d="" pointer-events="none" display="none"></path></g></g></g><path class="foreground" aria-hidden="true" d="" display="none"></path></g><g transform="translate(140,-1)"><path class="background" aria-hidden="true" d="M0,0h128v0h-128Z"></path><g><g class="mark-group role-title"><g transform="translate(64,-20)"><path class="background" aria-hidden="true" d="M0,0h0v0h0Z" pointer-events="none"></path><g><g class="mark-text role-title-text" role="graphics-symbol" aria-roledescription="title" aria-label="Title text 'Object'" pointer-events="none"><text text-anchor="middle" transform="translate(0,8)" font-family="sans-serif" font-size="10px" font-weight="bold" fill="#000" opacity="1">Object</text></g></g><path class="foreground" aria-hidden="true" d="" pointer-events="none" display="none"></path></g></g></g><path class="foreground" aria-hidden="true" d="" display="none"></path></g></g><g class="mark-group role-column-footer column_footer" role="graphics-object" aria-roledescription="group mark container"><g transform="translate(0,132)"><path class="background" aria-hidden="true" d="M0,0h128v0h-128Z"></path><g><g class="mark-group role-axis" role="graphics-symbol" aria-roledescription="axis" aria-label="X-axis titled 'Time (s)' for a linear scale with values from -2 to 4"><g transform="translate(0.5,0.5)"><path class="background" aria-hidden="true" d="M0,0h0v0h0Z" pointer-events="none"></path><g><g class="mark-rule role-axis-tick" pointer-events="none"><line transform="translate(0,0)" x2="0" y2="5" stroke="#888" stroke-width="1" opacity="1"></line><line transform="translate(43,0)" x2="0" y2="5" stroke="#888" stroke-width="1" opacity="1"></line><line transform="translate(85,0)" x2="0" y2="5" stroke="#888" stroke-width="1" opacity="1"></line><line transform="translate(128,0)" x2="0" y2="5" stroke="#888" stroke-width="1" opacity="1"></line></g><g class="mark-text role-axis-label" pointer-events="none"><text text-anchor="start" transform="translate(0,15)" font-family="sans-serif" font-size="10px" fill="#000" opacity="1">-2</text><text text-anchor="middle" transform="translate(42.666666666666664,15)" font-family="sans-serif" font-size="10px" fill="#000" opacity="1">0</text><text text-anchor="middle" transform="translate(85.33333333333333,15)" font-family="sans-serif" font-size="10px" fill="#000" opacity="1">2</text><text text-anchor="end" transform="translate(128,15)" font-family="sans-serif" font-size="10px" fill="#000" opacity="1">4</text></g><g class="mark-rule role-axis-domain" pointer-events="none"><line transform="translate(0,0)" x2="128" y2="0" stroke="#888" stroke-width="1" opacity="1"></line></g><g class="mark-text role-axis-title" pointer-events="none"><text text-anchor="middle" transform="translate(64,30)" font-family="sans-serif" font-size="11px" font-weight="bold" fill="#000" opacity="1">Time (s)</text></g></g><path class="foreground" aria-hidden="true" d="" pointer-events="none" display="none"></path></g></g></g><path class="foreground" aria-hidden="true" d="" display="none"></path></g><g transform="translate(140,132)"><path class="background" aria-hidden="true" d="M0,0h128v0h-128Z"></path><g><g class="mark-group role-axis" role="graphics-symbol" aria-roledescription="axis" aria-label="X-axis titled 'Time (s)' for a linear scale with values from -2 to 4"><g transform="translate(0.5,0.5)"><path class="background" aria-hidden="true" d="M0,0h0v0h0Z" pointer-events="none"></path><g><g class="mark-rule role-axis-tick" pointer-events="none"><line transform="translate(0,0)" x2="0" y2="5" stroke="#888" stroke-width="1" opacity="1"></line><line transform="translate(43,0)" x2="0" y2="5" stroke="#888" stroke-width="1" opacity="1"></line><line transform="translate(85,0)" x2="0" y2="5" stroke="#888" stroke-width="1" opacity="1"></line><line transform="translate(128,0)" x2="0" y2="5" stroke="#888" stroke-width="1" opacity="1"></line></g><g class="mark-text role-axis-label" pointer-events="none"><text text-anchor="start" transform="translate(0,15)" font-family="sans-serif" font-size="10px" fill="#000" opacity="1">-2</text><text text-anchor="middle" transform="translate(42.666666666666664,15)" font-family="sans-serif" font-size="10px" fill="#000" opacity="1">0</text><text text-anchor="middle" transform="translate(85.33333333333333,15)" font-family="sans-serif" font-size="10px" fill="#000" opacity="1">2</text><text text-anchor="end" transform="translate(128,15)" font-family="sans-serif" font-size="10px" fill="#000" opacity="1">4</text></g><g class="mark-rule role-axis-domain" pointer-events="none"><line transform="translate(0,0)" x2="128" y2="0" stroke="#888" stroke-width="1" opacity="1"></line></g><g class="mark-text role-axis-title" pointer-events="none"><text text-anchor="middle" transform="translate(64,30)" font-family="sans-serif" font-size="11px" font-weight="bold" fill="#000" opacity="1">Time (s)</text></g></g><path class="foreground" aria-hidden="true" d="" pointer-events="none" display="none"></path></g></g></g><path class="foreground" aria-hidden="true" d="" display="none"></path></g></g><g class="mark-group role-scope cell" role="graphics-object" aria-roledescription="group mark container"><g transform="translate(0,0)"><path class="background" aria-hidden="true" d="M0.5,0.5h128v130h-128Z" stroke="#ddd"></path><g><g class="mark-group role-axis" aria-hidden="true"><g transform="translate(0.5,130.5)"><path class="background" aria-hidden="true" d="M0,0h0v0h0Z" pointer-events="none"></path><g><g class="mark-rule role-axis-grid" pointer-events="none"><line transform="translate(0,-130)" x2="0" y2="130" stroke="#ddd" stroke-width="1" opacity="1"></line><line transform="translate(43,-130)" x2="0" y2="130" stroke="#ddd" stroke-width="1" opacity="1"></line><line transform="translate(85,-130)" x2="0" y2="130" stroke="#ddd" stroke-width="1" opacity="1"></line><line transform="translate(128,-130)" x2="0" y2="130" stroke="#ddd" stroke-width="1" opacity="1"></line></g></g><path class="foreground" aria-hidden="true" d="" pointer-events="none" display="none"></path></g></g><g class="mark-group role-axis" aria-hidden="true"><g transform="translate(0.5,0.5)"><path class="background" aria-hidden="true" d="M0,0h0v0h0Z" pointer-events="none"></path><g><g class="mark-rule role-axis-grid" pointer-events="none"><line transform="translate(0,130)" x2="128" y2="0" stroke="#ddd" stroke-width="1" opacity="1"></line><line transform="translate(0,105)" x2="128" y2="0" stroke="#ddd" stroke-width="1" opacity="1"></line><line transform="translate(0,80)" x2="128" y2="0" stroke="#ddd" stroke-width="1" opacity="1"></line><line transform="translate(0,55)" x2="128" y2="0" stroke="#ddd" stroke-width="1" opacity="1"></line><line transform="translate(0,30)" x2="128" y2="0" stroke="#ddd" stroke-width="1" opacity="1"></line><line transform="translate(0,5)" x2="128" y2="0" stroke="#ddd" stroke-width="1" opacity="1"></line></g></g><path class="foreground" aria-hidden="true" d="" pointer-events="none" display="none"></path></g></g><g class="mark-group role-scope child_layer_0_layer_0_pathgroup" role="graphics-object" aria-roledescription="group mark container"><g transform="translate(0,0)"><path class="background" aria-hidden="true" d="M0,0h128v130h-128Z"></path><g><g class="mark-line role-mark child_layer_0_layer_0_marks" role="graphics-object" aria-roledescription="line mark container"><path aria-label="Time (s): -2; Source: global; train_type: Target Source; Decoding Correlation: 0.0159735846703" role="graphics-symbol" aria-roledescription="line mark" d="M0,72.01320766484778L2,71.86454576733398L4,75.87203481893717L6,66.72666086276094L8,66.86385740870809L10,72.05566760487159L12,69.07832698867219L14,70.44065403621384L16,72.14195059027304L18,73.02521247629478L20,73.08055930912548L22,73.28233799107991L24,73.32001031293314L26,75.16257466229828L28,76.99064801369046L30,80.5814407035037L32,82.29979362799865L34,81.96210830703282L36,78.7395605869239L38,80.52434681523998L40,77.81494933469678L42,78.35353304166244L44,75.07670972812016L46,73.83993111151545L48,75.61596849772337L50,73.0177354145515L52,70.04158883040992L54,69.95453493629547L56,74.49766580974287L58,75.10645492333724L60,76.96561589377069L62,84.17429765725772L64,80.0686671335324L66,78.56940080331611L68,80.4274591026322L70,78.9651288377188L72,81.95743880423714L74,77.31826927890761L76,69.7350266562862L78,65.94344007422987L80,61.8931020078581L82,59.7535859976594L84,57.20682235406197L86,52.206958600555375L88,43.706801749261594L90,33.73562651972356L92,35.50891026722014L94,33.407929471412075L96,26.57505634058367L98,40.096095567921104L100,43.555959947241284L102,52.95336421006694L104,50.84287253081315L106,45.191237404176604L108,42.58242675543605L110,63.68937717193723L112,65.31680732070276L114,63.62407496665806L116,58.211211358964164L118,67.12258182769801L120,73.47430729523182L122,72.389011462712L124,63.231074713899716L126,60.52923838398751L128,61.73234247662103" stroke="#0F3C5F" stroke-width="2" stroke-linejoin="round" stroke-dasharray="1,0"></path></g></g><path class="foreground" aria-hidden="true" d="" display="none"></path></g><g transform="translate(0,0)"><path class="background" aria-hidden="true" d="M0,0h128v130h-128Z"></path><g><g class="mark-line role-mark child_layer_0_layer_0_marks" role="graphics-object" aria-roledescription="line mark container"><path aria-label="Time (s): -2; Source: other; train_type: Other Sources; Decoding Correlation: -0.00381004419801" role="graphics-symbol" aria-roledescription="line mark" d="M0,81.90502209900345L2,81.00861721592167L4,77.98017583545231L6,80.98929205119194L8,81.24656505776893L10,78.94184439589554L12,71.43357469639965L14,75.32933506741612L16,76.02068315455881L18,74.38587316520989L20,75.55268058562055L22,77.30251972961184L24,77.51778411745569L26,75.84999609732046L28,75.5608914545135L30,73.78542426801725L32,76.24723577374468L34,76.18592808747988L36,78.5663485749936L38,78.49810234640523L40,79.95828140380266L42,78.60848517443142L44,75.6188800373659L46,74.65651376616252L48,73.12828266067665L50,71.79916117686557L52,73.68165282674768L54,71.9382294267413L56,73.00528448410509L58,71.86034130705244L60,74.12079326066089L62,73.05215234518066L64,73.35417381690573L66,71.23331427364224L68,68.96877897083141L70,71.20498174342126L72,71.75040015027366L74,70.36612547638491L76,69.4822364361405L78,66.30028923103107L80,63.9848546480089L82,62.59763208250199L84,63.40086198911732L86,62.31903560816745L88,61.06585808672973L90,56.41200710862105L92,48.1628824359494L94,40.93203892978698L96,47.898893445621816L98,24.476737474297686L100,27.036869744065402L102,33.79100427598862L104,42.53381906139334L106,34.866871605335156L108,34.401603488556816L110,39.923328662683254L112,53.58297364157898L114,63.12719645342573L116,79.36153489256763L118,78.20554336518407L120,78.67935725170405L122,80.2791677325051L124,81.94286333618663L126,80.71285281993784L128,80.4968376667253" stroke="#2C2C2C" stroke-width="2" stroke-linejoin="round" stroke-dasharray="4,2"></path></g></g><path class="foreground" aria-hidden="true" d="" display="none"></path></g></g><g class="mark-group role-scope child_layer_0_layer_1_layer_0_pathgroup" role="graphics-object" aria-roledescription="group mark container"><g transform="translate(0,0)"><path class="background" aria-hidden="true" d="M0,0h128v130h-128Z"></path><g><g class="mark-area role-mark child_layer_0_layer_1_layer_0_marks" role="graphics-object" aria-roledescription="area mark container"><path aria-label=": 0.00624990912688; upper_lower: 0.0259355672535; Time (s): -2; Source: global; upper: 0.0259355672535; lower: 0.00624990912688" role="graphics-symbol" aria-roledescription="errorband" d="M0,76.87504543655845L2,75.44067472292558L4,80.22988558042307L6,71.17895124338848L8,71.61613173390994L10,78.9349296415135L12,76.45070818445197L14,76.31997197119591L16,76.49732419841565L18,77.10185392594707L20,76.79778168353651L22,76.99397963950356L24,77.48642166421718L26,79.57600311745864L28,80.86951408299635L30,84.39424186183284L32,85.6857379657369L34,85.46989497048406L36,82.23613297443468L38,84.16254657516588L40,81.20518875175011L42,82.96901604926845L44,79.22359831459129L46,77.31672608828855L48,78.90524246129289L50,76.85298299860084L52,73.6281190706813L54,73.45380669478638L56,77.8358208921352L58,79.17574986659292L60,80.94412160597236L62,88.11010220045533L64,84.17267226673715L66,82.4113538361131L68,84.7131400614826L70,82.67981810452103L72,85.04062639376001L74,81.53991207344461L76,75.01631828250996L78,71.0441725223778L80,67.13962541162702L82,64.84565009726975L84,62.61630679621054L86,57.082303731249304L88,48.52560989443896L90,38.47481828874084L92,39.770624969219526L94,38.326943573099555L96,31.9298690645421L98,44.910939052037556L100,47.8944903442402L102,59.924473325024096L104,55.630680291403145L106,51.92975043557177L108,48.655636722600946L110,71.31602618786488L112,71.24225195611547L114,70.0077265872791L116,63.922001986702924L118,72.06108774872618L120,78.86927715009557L122,77.42835650613725L124,69.20629007482017L126,65.85493356849351L128,67.14190955960873L128,56.412701662572815L126,55.261276411944586L124,57.2437361735428L122,67.10579691307869L120,68.08443277161858L118,62.1129849377065L116,52.35185572639034L114,57.203711322264816L112,59.24446238018389L110,56.28565796123372L108,36.453111794965885L106,38.22406795452098L104,45.842113275692896L102,46.01018806741433L100,39.305269772108936L98,35.322823165096025L96,21.423937516156904L94,28.585106174454864L92,31.33317405924513L90,28.87401541914718L88,39.11267982162058L86,47.42185482848982L84,51.70847619086816L82,54.77605401121236L80,56.68725480088017L78,61.02500145478344L76,64.57137794950067L74,73.05262440556766L72,78.99882940106528L70,75.1855679880849L68,76.02344940367774L66,74.5418449963915L64,76.02954773146057L62,80.07174688123965L60,72.9053458599123L58,70.91680928851675L56,71.13833290483453L54,66.49165060683616L52,66.40123934699685L50,69.26859363644758L48,72.23245735180342L46,70.18002682839582L44,70.79128876843791L42,73.68820795101175L40,74.37131293948002L38,76.91264232709682L36,75.32603420095344L34,78.43097714320974L32,79.01224266391304L30,76.78438290909261L28,73.05497333253196L26,70.94628989109498L24,69.014624843146L22,69.53656988436155L20,69.2536202001971L18,69.04382246371136L16,67.82944066700215L14,64.78584151156059L12,61.87351963659168L10,65.13543501362459L8,62.13119490343776L6,62.303825567533906L4,71.56976434264666L2,68.32963417513719L0,67.03221637324148Z" fill="#0F3C5F" opacity="0.3"></path></g></g><path class="foreground" aria-hidden="true" d="" display="none"></path></g><g transform="translate(0,0)"><path class="background" aria-hidden="true" d="M0,0h128v130h-128Z"></path><g><g class="mark-area role-mark child_layer_0_layer_1_layer_0_marks" role="graphics-object" aria-roledescription="area mark container"><path aria-label=": -0.0101351881669; upper_lower: 0.00254948372063; Time (s): -2; Source: other; upper: 0.00254948372063; lower: -0.0101351881669" role="graphics-symbol" aria-roledescription="errorband" d="M0,85.06759408345106L2,84.05260550255748L4,81.2795256126821L6,83.99710063551925L8,84.62112048472608L10,82.9968596986705L12,75.97049501217543L14,79.79790168180539L16,80.08986726131393L18,78.0551588313669L20,79.3162589455132L22,80.60222565979188L24,80.83121010215238L26,79.26838525716977L28,78.78112086267076L30,76.82818812071704L32,78.82814955752615L34,79.25929857285176L36,81.79862175143529L38,81.97641065107663L40,83.45098220224945L42,82.3693732780147L44,79.54855145631267L46,78.44454243761618L48,76.98464207590268L50,75.50279685329755L52,77.19199313368574L54,75.08367285082814L56,76.1758217873136L58,75.00639161067116L60,77.2597853889831L62,76.61909990454268L64,76.56639078688126L66,74.45829952630288L68,72.21498468110296L70,73.9226355152612L72,74.46547082638375L74,73.01277586360297L76,72.03077349177283L78,69.31930610280372L80,67.24512754596581L82,65.91550542540027L84,66.89069548591131L86,66.07653671383176L88,64.74661527368606L90,60.06181683535717L92,52.11640623949751L94,45.52623250783974L96,52.10275138960397L98,29.30264477245191L100,32.211023977950234L102,38.71512649962086L104,46.21258931956479L106,40.15139238258486L108,38.19656810576846L110,43.699808122586084L112,58.361853056006225L114,67.05380283735303L116,83.16909335382184L118,80.88853548249334L120,82.89287343695564L122,84.4142630640014L124,85.96609552381084L126,84.48468961719931L128,84.18203965591174L128,76.70451023654222L126,76.93321666205935L124,78.0103201973041L122,76.33598124853836L120,74.56491523196517L118,75.5637166180742L116,75.57724573882136L114,59.28527384854467L112,48.83172001744881L110,36.170740750022894L108,30.551489640076973L106,29.58904305735113L104,38.89247617682332L102,28.78583274199798L100,22.003235576935662L98,19.780755510422903L96,43.581269383188726L94,36.30371480128499L92,44.22340193000113L90,52.71451274907129L88,57.388699954064705L86,58.45396359213394L84,59.80402391023088L82,59.34104613279499L80,60.72236619649842L78,63.33190246502052L76,66.85638938995673L74,67.71705450375597L72,68.96748636876958L70,68.389968565042L68,65.74317903114384L66,68.03648240857808L64,70.2540642833351L62,69.59851484910271L60,70.98395385179087L58,68.64933970298506L56,69.92710592918768L54,68.7916190975617L52,70.26827521993609L50,67.95493847730795L48,69.35846621250111L46,70.89405112771881L44,71.72206545875153L42,74.80546042143773L40,76.50482053679279L38,74.94351718196535L36,75.44949266353805L34,73.10879845742934L32,73.66073366592191L30,70.69762021552098L28,72.3530337746124L26,72.30926419917466L24,74.16798800314704L22,73.94766464904644L20,71.80171723068896L18,70.77604595950308L16,71.95496156079025L14,70.89643251118677L12,67.05993928243318L10,74.9035686205781L8,77.81183199612661L6,77.95905409635793L4,74.75410681098063L2,78.01648802671824L0,78.72525813968389Z" fill="#2C2C2C" opacity="0.3"></path></g></g><path class="foreground" aria-hidden="true" d="" display="none"></path></g></g><g class="mark-text role-mark child_layer_0_layer_2_marks" role="graphics-object" aria-roledescription="text mark container"><text aria-label=": 2.125; Source: global; Mean of upper: 0.0817746403568; train_type_lbl: Target,Source" role="graphics-symbol" aria-roledescription="text mark" text-anchor="end" transform="translate(85,22.11267982162058)" font-family="sans-serif" font-size="11px" fill="#0F3C5F"><tspan>Target</tspan><tspan x="0" dy="13">Source</tspan></text></g><g class="mark-text role-mark child_layer_0_layer_3_marks" role="graphics-object" aria-roledescription="text mark container"><text aria-label=": 2.03125; Source: other; Mean of lower: 0.0278469265723; train_type_lbl: Other,Sources" role="graphics-symbol" aria-roledescription="text mark" text-anchor="start" transform="translate(86,84.07653671383176)" font-family="sans-serif" font-size="11px" fill="#2C2C2C"><tspan>Other</tspan><tspan x="0" dy="13">Sources</tspan></text></g><g class="mark-text role-mark child_layer_0_layer_4_marks" role="graphics-object" aria-roledescription="text mark container"></g><g class="mark-text role-mark child_layer_1_layer_0_marks" role="graphics-object" aria-roledescription="text mark container"><text text-anchor="middle" transform="translate(53.333333333333336,115.5)" font-family="sans-serif" font-size="11px" fill="black"><tspan>Target</tspan><tspan x="0" dy="13">Extent</tspan></text></g><g class="mark-rect role-mark child_layer_1_layer_1_marks" role="graphics-symbol" aria-roledescription="rect mark container"><path d="M42.666666666666664,0h21.333333333333336v130h-21.333333333333336Z" fill="gray" opacity="0.25"></path></g></g><path class="foreground" aria-hidden="true" d="" display="none"></path></g><g transform="translate(140,0)"><path class="background" aria-hidden="true" d="M0.5,0.5h128v130h-128Z" stroke="#ddd"></path><g><g class="mark-group role-axis" aria-hidden="true"><g transform="translate(0.5,130.5)"><path class="background" aria-hidden="true" d="M0,0h0v0h0Z" pointer-events="none"></path><g><g class="mark-rule role-axis-grid" pointer-events="none"><line transform="translate(0,-130)" x2="0" y2="130" stroke="#ddd" stroke-width="1" opacity="1"></line><line transform="translate(43,-130)" x2="0" y2="130" stroke="#ddd" stroke-width="1" opacity="1"></line><line transform="translate(85,-130)" x2="0" y2="130" stroke="#ddd" stroke-width="1" opacity="1"></line><line transform="translate(128,-130)" x2="0" y2="130" stroke="#ddd" stroke-width="1" opacity="1"></line></g></g><path class="foreground" aria-hidden="true" d="" pointer-events="none" display="none"></path></g></g><g class="mark-group role-axis" aria-hidden="true"><g transform="translate(0.5,0.5)"><path class="background" aria-hidden="true" d="M0,0h0v0h0Z" pointer-events="none"></path><g><g class="mark-rule role-axis-grid" pointer-events="none"><line transform="translate(0,130)" x2="128" y2="0" stroke="#ddd" stroke-width="1" opacity="1"></line><line transform="translate(0,105)" x2="128" y2="0" stroke="#ddd" stroke-width="1" opacity="1"></line><line transform="translate(0,80)" x2="128" y2="0" stroke="#ddd" stroke-width="1" opacity="1"></line><line transform="translate(0,55)" x2="128" y2="0" stroke="#ddd" stroke-width="1" opacity="1"></line><line transform="translate(0,30)" x2="128" y2="0" stroke="#ddd" stroke-width="1" opacity="1"></line><line transform="translate(0,5)" x2="128" y2="0" stroke="#ddd" stroke-width="1" opacity="1"></line></g></g><path class="foreground" aria-hidden="true" d="" pointer-events="none" display="none"></path></g></g><g class="mark-group role-scope child_layer_0_layer_0_pathgroup" role="graphics-object" aria-roledescription="group mark container"><g transform="translate(0,0)"><path class="background" aria-hidden="true" d="M0,0h128v130h-128Z"></path><g><g class="mark-line role-mark child_layer_0_layer_0_marks" role="graphics-object" aria-roledescription="line mark container"><path aria-label="Time (s): -2; Source: object; train_type: Target Source; Decoding Correlation: 0.0183354074872" role="graphics-symbol" aria-roledescription="line mark" d="M0,70.83229625639989L2,75.26738523021024L4,71.93257794056346L6,71.53998949112218L8,71.25270346773681L10,66.6527542628518L12,79.85208234505677L14,79.09733974940434L16,74.61666695983605L18,73.60152604218644L20,76.1456075487301L22,74.20366939842788L24,71.0056065513626L26,70.54929774263633L28,67.99785949147513L30,67.62143881856595L32,69.46193771806023L34,74.307132417519L36,75.87634256186988L38,73.96506240575518L40,74.1093721114543L42,73.06873029556522L44,74.13100009446522L46,76.188422015253L48,76.13430939435398L50,79.89707588588837L52,82.54287431747086L54,83.68791714009677L56,84.63652076413842L58,81.10414385986681L60,79.45955487426882L62,77.39484154727562L64,72.1015210972283L66,69.96337110806583L68,69.97579533879461L70,70.59900150388854L72,69.45651623217255L74,68.07250716420009L76,60.38723351789488L78,55.52746581926761L80,60.17464757169243L82,61.14729992583407L84,59.28005727765312L86,57.943375377155455L88,55.1857811762333L90,52.57158142732188L92,52.888834092079996L94,46.56664944662366L96,42.576998073953725L98,41.84163077262235L100,42.097729083994004L102,40.31000903184172L104,43.57614280007183L106,39.56499969586635L108,40.45910927826374L110,43.208611190198894L112,26.55510186167738L114,48.24617451210708L116,68.2213155987403L118,59.11319031875312L120,71.43804415633491L122,76.92955127213915L124,76.19314527724087L126,75.79298207029055L128,81.72919991991526" stroke="#687B3E" stroke-width="2" stroke-linejoin="round" stroke-dasharray="1,0"></path></g></g><path class="foreground" aria-hidden="true" d="" display="none"></path></g><g transform="translate(0,0)"><path class="background" aria-hidden="true" d="M0,0h128v130h-128Z"></path><g><g class="mark-line role-mark child_layer_0_layer_0_marks" role="graphics-object" aria-roledescription="line mark container"><path aria-label="Time (s): -2; Source: other; train_type: Other Sources; Decoding Correlation: 0.0267709665962" role="graphics-symbol" aria-roledescription="line mark" d="M0,66.61451670188946L2,64.93112638427928L4,66.64562819822537L6,66.05355440414739L8,64.98697575526485L10,65.24384850762458L12,70.01074723711142L14,66.61068201594571L16,67.08685898803839L18,65.5937597078354L20,67.28366319983074L22,68.55637788050647L24,68.0705064510244L26,70.73924391809503L28,73.37330854433026L30,71.89934216030474L32,70.41016094829472L34,72.93107882435815L36,77.4428523377186L38,75.51934970884112L40,77.88130077880291L42,76.20556747827008L44,74.43571170730925L46,75.47245163202537L48,76.61539830766134L50,77.11009055896861L52,78.49215237368156L54,77.50982632095037L56,76.02100507572229L58,72.72351496761807L60,72.42878193732736L62,71.51821081109856L64,72.13263327628466L66,74.42174191282635L68,73.98876570863474L70,71.14653984116723L72,71.89982979100681L74,75.09425999205246L76,74.83230252618488L78,71.97387118114794L80,71.97813676492115L82,71.56615558040052L84,68.05523467983879L86,61.03037324403833L88,54.32235115195481L90,54.18221218967585L92,47.62219899547931L94,43.71367664240627L96,48.02106547209928L98,44.306497671607715L100,46.085255820399155L102,46.91158067117783L104,44.85224049341516L106,48.940902918369574L108,54.02586867857274L110,55.233854987043344L112,47.75068684611695L114,58.27617792636845L116,62.542582087928764L118,69.9905245864407L120,74.69618788926287L122,77.78369758304652L124,73.49097997900749L126,74.70720927963993L128,70.76709231935934" stroke="#2C2C2C" stroke-width="2" stroke-linejoin="round" stroke-dasharray="4,2"></path></g></g><path class="foreground" aria-hidden="true" d="" display="none"></path></g></g><g class="mark-group role-scope child_layer_0_layer_1_layer_0_pathgroup" role="graphics-object" aria-roledescription="group mark container"><g transform="translate(0,0)"><path class="background" aria-hidden="true" d="M0,0h128v130h-128Z"></path><g><g class="mark-area role-mark child_layer_0_layer_1_layer_0_marks" role="graphics-object" aria-roledescription="area mark container"><path aria-label=": 0.00211126307051; upper_lower: 0.0336030998179; Time (s): -2; Source: object; upper: 0.0336030998179; lower: 0.00211126307051" role="graphics-symbol" aria-roledescription="errorband" d="M0,78.94436846474716L2,82.47201766049483L4,78.51422704333937L6,78.94476959804527L8,78.46849254480017L10,75.33063308071641L12,87.79638615030876L14,86.77080313414086L16,81.04306958332491L18,79.40291520116259L20,81.5020786256048L22,79.6782756225277L24,77.4625698356032L26,75.97584336405536L28,74.38083129839866L30,74.01336909796552L32,75.58616752923841L34,80.07005108518153L36,81.6994923750107L38,79.71862906397718L40,80.55249194734809L42,78.67743743320455L44,80.01335399614086L46,82.03060626084104L48,82.17717503080041L50,86.50209861408622L52,88.69832570057734L54,89.40058079503861L56,89.72215028152068L58,85.82707456098508L60,83.50309680223685L62,81.75485300998945L64,77.24488362534659L66,75.18200006327265L68,75.22071238812704L70,76.3862036361495L72,75.80930191245486L74,74.59601465832725L76,66.89847065948665L78,62.12886173369167L80,67.61112404055517L82,67.864597630226L84,65.58171141557919L86,64.77182849968538L88,62.74047373499239L90,59.819806163772L92,59.75835573702544L94,52.52651173329611L96,49.482712187599766L98,47.23698422738568L100,49.43081581232232L102,46.41619734418242L104,49.64695752946149L106,46.17758812300428L108,47.29125868426337L110,50.26319956912672L112,34.79120809920014L114,56.75844860163912L116,76.2238692822662L118,66.97118994990119L120,80.17372552396989L122,83.73181997174906L124,82.37220551554661L126,81.87867521927932L128,87.99929594831109L128,75.34926777091937L126,69.74569874613539L124,70.01710863488391L122,69.94677141232043L120,62.46532052444799L118,51.32579452858407L116,60.402454727451264L114,39.73872679309483L112,18.294113201709344L110,36.28334913422043L108,33.70344388546829L106,32.98235503810601L104,37.534191016069215L102,34.21510685147919L100,35.067106080377364L98,36.489628664642986L96,35.77557669196004L94,40.587104875408585L92,46.044619704198034L90,45.21464561278801L88,47.45523314547206L86,50.93392928363634L84,53.014831135798964L82,54.23572397695862L80,52.722925571724204L78,49.10030139089628L76,54.11641705352806L74,61.50872240745436L72,63.21373929891125L70,64.63945504493465L68,64.49596327595575L66,64.62851268162991L64,66.87638321015974L62,73.0793994893787L60,75.50252449918997L58,76.55283890570294L56,79.54517404563184L54,77.62685353658311L52,76.06376655464157L50,72.91323325359042L48,69.90305249841171L46,70.07155900796532L44,68.0350242592204L42,67.25606560968971L40,67.52104135115434L38,67.90814804239253L36,69.89758650771427L34,68.57447925437127L32,63.31991729347916L30,61.193840974617146L28,61.45687436738089L26,65.09883421745546L24,64.43812609587177L22,68.61271434575384L20,70.54477655566446L18,67.57262439694887L16,68.14382582452826L14,71.32763426596925L12,71.84209161350454L10,57.99408321151022L8,64.0465863181307L6,64.33310771679096L4,65.37856066729918L2,68.07609675444499L0,63.19845009106378Z" fill="#687B3E" opacity="0.3"></path></g></g><path class="foreground" aria-hidden="true" d="" display="none"></path></g><g transform="translate(0,0)"><path class="background" aria-hidden="true" d="M0,0h128v130h-128Z"></path><g><g class="mark-area role-mark child_layer_0_layer_1_layer_0_marks" role="graphics-object" aria-roledescription="area mark container"><path aria-label=": 0.0105529679363; upper_lower: 0.0426622460854; Time (s): -2; Source: other; upper: 0.0426622460854; lower: 0.0105529679363" role="graphics-symbol" aria-roledescription="errorband" d="M0,74.7235160318548L2,72.22113510178937L4,72.92530422993167L6,71.98621890668046L8,70.12986234416414L10,70.93956405375343L12,76.27581628058499L14,71.54778723973664L16,70.92199402670181L18,69.54817204927471L20,71.05568404231614L22,72.37194533001556L24,71.47642463512346L26,74.38515308917917L28,77.44200155836295L30,75.323911446938L32,73.54501160628496L34,76.59149674851795L36,81.18862612476462L38,79.33876543395469L40,81.48976972787501L42,80.22151957263645L44,78.85348825757085L46,80.332382771698L48,80.72018430576892L50,81.27969682437428L52,82.75370828206397L54,81.33286336520418L56,80.31113501481377L58,77.48749121208856L60,76.87970284735113L62,75.35937656131827L64,76.69786720626534L66,79.15834616076759L68,78.73230858523652L70,75.39854955428613L72,75.86667391571218L74,78.4980613310024L76,77.8771964181533L78,75.33990402129153L80,75.30668326284501L82,75.02955958906247L84,72.20006489182296L86,64.67763969670573L88,58.25986613168166L90,58.36429700276216L92,52.15626410415561L94,48.76519666110818L96,52.74740375943117L98,48.77040332442473L100,51.330889038078006L102,51.362637905473186L104,50.84538499444904L106,54.8689932125728L108,60.49524314886454L110,62.06743631456135L112,54.22078838713044L114,63.76992697863509L116,68.74447901271826L118,74.83017707105951L120,79.26158031931313L122,82.5899163836674L124,78.21971272238062L126,79.15878227907449L128,74.78148038236792L128,66.802834004997L126,70.21973938886255L124,68.87215492326145L122,73.11258166340647L120,69.88199053620343L118,65.32385009906906L116,56.392388239185564L114,52.81181983360048L112,41.31261923757605L110,48.39354918055393L108,47.07774351982533L106,42.63081587495001L104,38.767490629827556L102,42.583762261536194L100,41.09412025917884L98,40.022199097059776L96,43.43597693726654L94,38.670135625880576L92,43.33350875634828L90,50.104703068873434L88,50.49647053906423L86,57.38183511407589L84,63.94934873039576L82,68.19923132626768L80,68.80979573500622L78,68.64340194283521L76,71.65960060385443L74,71.59468633809263L72,68.06461384084938L70,66.92952703986208L68,69.59381221837008L66,69.92152135154755L64,67.79667553352634L62,67.5745041365653L60,67.91382777632447L58,67.80460604381756L56,71.7528362880839L54,73.53922109715016L52,74.10980838086643L50,72.98184564752964L48,72.57971055203704L46,70.66279315548856L44,70.11271963707256L42,72.17369505436825L40,74.27486745702171L38,71.8070061322243L36,73.54888087986666L34,69.20560671985854L32,67.19769458085439L30,68.53340304779019L28,69.27241267876349L26,67.11353490341274L24,64.65793249275478L22,64.56763807881055L20,63.46864677396698L18,61.641644452860255L16,63.2273439124868L14,61.584709631830776L12,63.81341647499823L10,59.70327875599983L8,60.10483735572781L6,60.387134605343846L4,60.33786288907077L2,57.87272084178731L0,58.66887695728223Z" fill="#2C2C2C" opacity="0.3"></path></g></g><path class="foreground" aria-hidden="true" d="" display="none"></path></g></g><g class="mark-text role-mark child_layer_0_layer_2_marks" role="graphics-object" aria-roledescription="text mark container"><text aria-label=": 2.125; Source: object; Mean of upper: 0.0650895337091; train_type_lbl: Target,Source" role="graphics-symbol" aria-roledescription="text mark" text-anchor="end" transform="translate(85,30.455233145472057)" font-family="sans-serif" font-size="11px" fill="#687B3E"><tspan>Target</tspan><tspan x="0" dy="13">Source</tspan></text></g><g class="mark-text role-mark child_layer_0_layer_3_marks" role="graphics-object" aria-roledescription="text mark container"><text aria-label=": 2.03125; Source: other; Mean of lower: 0.0306447206066; train_type_lbl: Other,Sources" role="graphics-symbol" aria-roledescription="text mark" text-anchor="start" transform="translate(86,82.67763969670573)" font-family="sans-serif" font-size="11px" fill="#2C2C2C"><tspan>Other</tspan><tspan x="0" dy="13">Sources</tspan></text></g><g class="mark-text role-mark child_layer_0_layer_4_marks" role="graphics-object" aria-roledescription="text mark container"></g><g class="mark-text role-mark child_layer_1_layer_0_marks" role="graphics-object" aria-roledescription="text mark container"><text text-anchor="middle" transform="translate(53.333333333333336,115.5)" font-family="sans-serif" font-size="11px" fill="black"><tspan>Target</tspan><tspan x="0" dy="13">Extent</tspan></text></g><g class="mark-rect role-mark child_layer_1_layer_1_marks" role="graphics-symbol" aria-roledescription="rect mark container"><path d="M42.666666666666664,0h21.333333333333336v130h-21.333333333333336Z" fill="gray" opacity="0.25"></path></g></g><path class="foreground" aria-hidden="true" d="" display="none"></path></g></g></g><path class="foreground" aria-hidden="true" d="" display="none"></path></g></g></g></svg>
