<?xml version="1.0" encoding="utf-8"?>
<!DOCTYPE svg PUBLIC "-//W3C//DTD SVG 1.1//EN" "http://www.w3.org/Graphics/SVG/1.1/DTD/svg11.dtd">
<svg class="marks" width="549" height="295" viewBox="0 0 549 295" version="1.1" xmlns="http://www.w3.org/2000/svg" xmlns:xlink="http://www.w3.org/1999/xlink"><defs><clipPath id="clip1"><rect x="0" y="0" width="200" height="200"></rect></clipPath><clipPath id="clip2"><rect x="0" y="0" width="200" height="200"></rect></clipPath><clipPath id="clip3"><rect x="0" y="0" width="200" height="200"></rect></clipPath><clipPath id="clip4"><rect x="0" y="0" width="200" height="200"></rect></clipPath><clipPath id="clip5"><rect x="0" y="0" width="200" height="200"></rect></clipPath><clipPath id="clip6"><rect x="0" y="0" width="200" height="200"></rect></clipPath><clipPath id="clip7"><rect x="0" y="0" width="200" height="200"></rect></clipPath><clipPath id="clip8"><rect x="0" y="0" width="200" height="200"></rect></clipPath><clipPath id="clip9"><rect x="0" y="0" width="200" height="200"></rect></clipPath><clipPath id="clip10"><rect x="0" y="0" width="200" height="200"></rect></clipPath><clipPath id="clip11"><rect x="0" y="0" width="200" height="200"></rect></clipPath><clipPath id="clip12"><rect x="0" y="0" width="200" height="200"></rect></clipPath></defs><rect width="549" height="295" fill="white"></rect><g fill="none" stroke-miterlimit="10" transform="translate(45,57)"><g class="mark-group role-frame root" role="graphics-object" aria-roledescription="group mark container"><g transform="translate(0,0)"><path class="background" aria-hidden="true" d="M0,0h0v0h0Z"></path><g><g class="mark-group role-column-title column-title" role="graphics-object" aria-roledescription="group mark container"><g transform="translate(248,-31)"><path class="background" aria-hidden="true" d="M0,0h0v0h0Z"></path><g><g class="mark-group role-title"><g transform="translate(0,-21)"><path class="background" aria-hidden="true" d="M0,0h0v0h0Z" pointer-events="none"></path><g><g class="mark-text role-title-text" role="graphics-symbol" aria-roledescription="title" aria-label="Title text 'train_split'" pointer-events="none"><text text-anchor="middle" transform="translate(0,9)" font-family="Helvetica" font-size="11px" font-weight="bold" fill="#000" opacity="1">train_split</text></g></g><path class="foreground" aria-hidden="true" d="" pointer-events="none" display="none"></path></g></g></g><path class="foreground" aria-hidden="true" d="" display="none"></path></g></g><g class="mark-group role-row-header row_header" role="graphics-object" aria-roledescription="group mark container"><g transform="translate(-3,0)"><path class="background" aria-hidden="true" d="M0,0h0v200h0Z"></path><g><g class="mark-group role-axis" role="graphics-symbol" aria-roledescription="axis" aria-label="Y-axis titled 'Target Classification' for a linear scale with values from 0.0 to 1.0"><g transform="translate(0.5,0.5)"><path class="background" aria-hidden="true" d="M0,0h0v0h0Z" pointer-events="none"></path><g><g class="mark-rule role-axis-tick" pointer-events="none"><line transform="translate(0,200)" x2="-5" y2="0" stroke="#888" stroke-width="1" opacity="1"></line><line transform="translate(0,160)" x2="-5" y2="0" stroke="#888" stroke-width="1" opacity="1"></line><line transform="translate(0,120)" x2="-5" y2="0" stroke="#888" stroke-width="1" opacity="1"></line><line transform="translate(0,80)" x2="-5" y2="0" stroke="#888" stroke-width="1" opacity="1"></line><line transform="translate(0,40)" x2="-5" y2="0" stroke="#888" stroke-width="1" opacity="1"></line><line transform="translate(0,0)" x2="-5" y2="0" stroke="#888" stroke-width="1" opacity="1"></line></g><g class="mark-text role-axis-label" pointer-events="none"><text text-anchor="end" transform="translate(-7,203)" font-family="Helvetica" font-size="10px" fill="#000" opacity="1">0.0</text><text text-anchor="end" transform="translate(-7,163)" font-family="Helvetica" font-size="10px" fill="#000" opacity="1">0.2</text><text text-anchor="end" transform="translate(-7,123)" font-family="Helvetica" font-size="10px" fill="#000" opacity="1">0.4</text><text text-anchor="end" transform="translate(-7,83)" font-family="Helvetica" font-size="10px" fill="#000" opacity="1">0.6</text><text text-anchor="end" transform="translate(-7,42.99999999999999)" font-family="Helvetica" font-size="10px" fill="#000" opacity="1">0.8</text><text text-anchor="end" transform="translate(-7,3)" font-family="Helvetica" font-size="10px" fill="#000" opacity="1">1.0</text></g><g class="mark-rule role-axis-domain" pointer-events="none"><line transform="translate(0,200)" x2="0" y2="-200" stroke="#888" stroke-width="1" opacity="1"></line></g><g class="mark-text role-axis-title" pointer-events="none"><text text-anchor="middle" transform="translate(-26,100) rotate(-90) translate(0,-2)" font-family="Helvetica" font-size="11px" font-weight="bold" fill="#000" opacity="1">Target Classification</text></g></g><path class="foreground" aria-hidden="true" d="" pointer-events="none" display="none"></path></g></g></g><path class="foreground" aria-hidden="true" d="" display="none"></path></g></g><g class="mark-group role-column-header column_header" role="graphics-object" aria-roledescription="group mark container"><g transform="translate(0,-1)"><path class="background" aria-hidden="true" d="M0,0h200v0h-200Z"></path><g><g class="mark-group role-title"><g transform="translate(100,-20)"><path class="background" aria-hidden="true" d="M0,0h0v0h0Z" pointer-events="none"></path><g><g class="mark-text role-title-text" role="graphics-symbol" aria-roledescription="title" aria-label="Title text 'combine'" pointer-events="none"><text text-anchor="middle" transform="translate(0,8)" font-family="Helvetica" font-size="10px" fill="#000" opacity="1">combine</text></g></g><path class="foreground" aria-hidden="true" d="" pointer-events="none" display="none"></path></g></g></g><path class="foreground" aria-hidden="true" d="" display="none"></path></g><g transform="translate(261,-1)"><path class="background" aria-hidden="true" d="M0,0h200v0h-200Z"></path><g><g class="mark-group role-title"><g transform="translate(100,-20)"><path class="background" aria-hidden="true" d="M0,0h0v0h0Z" pointer-events="none"></path><g><g class="mark-text role-title-text" role="graphics-symbol" aria-roledescription="title" aria-label="Title text 'divide'" pointer-events="none"><text text-anchor="middle" transform="translate(0,8)" font-family="Helvetica" font-size="10px" fill="#000" opacity="1">divide</text></g></g><path class="foreground" aria-hidden="true" d="" pointer-events="none" display="none"></path></g></g></g><path class="foreground" aria-hidden="true" d="" display="none"></path></g></g><g class="mark-group role-column-footer column_footer" role="graphics-object" aria-roledescription="group mark container"><g transform="translate(0,201)"><path class="background" aria-hidden="true" d="M0,0h200v0h-200Z"></path><g><g class="mark-group role-axis" role="graphics-symbol" aria-roledescription="axis" aria-label="X-axis titled 'Time relative to target onset (s)' for a linear scale with values from -1 to 4"><g transform="translate(0.5,0.5)"><path class="background" aria-hidden="true" d="M0,0h0v0h0Z" pointer-events="none"></path><g><g class="mark-rule role-axis-tick" pointer-events="none"><line transform="translate(22,0)" x2="0" y2="5" stroke="#888" stroke-width="1" opacity="1"></line><line transform="translate(67,0)" x2="0" y2="5" stroke="#888" stroke-width="1" opacity="1"></line><line transform="translate(111,0)" x2="0" y2="5" stroke="#888" stroke-width="1" opacity="1"></line><line transform="translate(156,0)" x2="0" y2="5" stroke="#888" stroke-width="1" opacity="1"></line><line transform="translate(200,0)" x2="0" y2="5" stroke="#888" stroke-width="1" opacity="1"></line></g><g class="mark-text role-axis-label" pointer-events="none"><text text-anchor="middle" transform="translate(22.22222222222222,15)" font-family="Helvetica" font-size="10px" fill="#000" opacity="1">0</text><text text-anchor="middle" transform="translate(66.66666666666666,15)" font-family="Helvetica" font-size="10px" fill="#000" opacity="1">1</text><text text-anchor="middle" transform="translate(111.11111111111111,15)" font-family="Helvetica" font-size="10px" fill="#000" opacity="1">2</text><text text-anchor="middle" transform="translate(155.55555555555557,15)" font-family="Helvetica" font-size="10px" fill="#000" opacity="1">3</text><text text-anchor="end" transform="translate(200,15)" font-family="Helvetica" font-size="10px" fill="#000" opacity="1">4</text></g><g class="mark-rule role-axis-domain" pointer-events="none"><line transform="translate(0,0)" x2="200" y2="0" stroke="#888" stroke-width="1" opacity="1"></line></g><g class="mark-text role-axis-title" pointer-events="none"><text text-anchor="middle" transform="translate(100,30)" font-family="Helvetica" font-size="11px" font-weight="bold" fill="#000" opacity="1">Time relative to target onset (s)</text></g></g><path class="foreground" aria-hidden="true" d="" pointer-events="none" display="none"></path></g></g></g><path class="foreground" aria-hidden="true" d="" display="none"></path></g><g transform="translate(261,201)"><path class="background" aria-hidden="true" d="M0,0h200v0h-200Z"></path><g><g class="mark-group role-axis" role="graphics-symbol" aria-roledescription="axis" aria-label="X-axis titled 'Time relative to target onset (s)' for a linear scale with values from -1 to 4"><g transform="translate(0.5,0.5)"><path class="background" aria-hidden="true" d="M0,0h0v0h0Z" pointer-events="none"></path><g><g class="mark-rule role-axis-tick" pointer-events="none"><line transform="translate(22,0)" x2="0" y2="5" stroke="#888" stroke-width="1" opacity="1"></line><line transform="translate(67,0)" x2="0" y2="5" stroke="#888" stroke-width="1" opacity="1"></line><line transform="translate(111,0)" x2="0" y2="5" stroke="#888" stroke-width="1" opacity="1"></line><line transform="translate(156,0)" x2="0" y2="5" stroke="#888" stroke-width="1" opacity="1"></line><line transform="translate(200,0)" x2="0" y2="5" stroke="#888" stroke-width="1" opacity="1"></line></g><g class="mark-text role-axis-label" pointer-events="none"><text text-anchor="middle" transform="translate(22.22222222222222,15)" font-family="Helvetica" font-size="10px" fill="#000" opacity="1">0</text><text text-anchor="middle" transform="translate(66.66666666666666,15)" font-family="Helvetica" font-size="10px" fill="#000" opacity="1">1</text><text text-anchor="middle" transform="translate(111.11111111111111,15)" font-family="Helvetica" font-size="10px" fill="#000" opacity="1">2</text><text text-anchor="middle" transform="translate(155.55555555555557,15)" font-family="Helvetica" font-size="10px" fill="#000" opacity="1">3</text><text text-anchor="end" transform="translate(200,15)" font-family="Helvetica" font-size="10px" fill="#000" opacity="1">4</text></g><g class="mark-rule role-axis-domain" pointer-events="none"><line transform="translate(0,0)" x2="200" y2="0" stroke="#888" stroke-width="1" opacity="1"></line></g><g class="mark-text role-axis-title" pointer-events="none"><text text-anchor="middle" transform="translate(100,30)" font-family="Helvetica" font-size="11px" font-weight="bold" fill="#000" opacity="1">Time relative to target onset (s)</text></g></g><path class="foreground" aria-hidden="true" d="" pointer-events="none" display="none"></path></g></g></g><path class="foreground" aria-hidden="true" d="" display="none"></path></g></g><g class="mark-group role-scope cell" role="graphics-object" aria-roledescription="group mark container"><g transform="translate(0,0)"><path class="background" aria-hidden="true" d="M0.5,0.5h200v200h-200Z" stroke="#ddd"></path><g><g class="mark-group role-axis" aria-hidden="true"><g transform="translate(0.5,200.5)"><path class="background" aria-hidden="true" d="M0,0h0v0h0Z" pointer-events="none"></path><g><g class="mark-rule role-axis-grid" pointer-events="none"><line transform="translate(22,-200)" x2="0" y2="200" stroke="#ddd" stroke-width="1" opacity="1"></line><line transform="translate(67,-200)" x2="0" y2="200" stroke="#ddd" stroke-width="1" opacity="1"></line><line transform="translate(111,-200)" x2="0" y2="200" stroke="#ddd" stroke-width="1" opacity="1"></line><line transform="translate(156,-200)" x2="0" y2="200" stroke="#ddd" stroke-width="1" opacity="1"></line><line transform="translate(200,-200)" x2="0" y2="200" stroke="#ddd" stroke-width="1" opacity="1"></line></g></g><path class="foreground" aria-hidden="true" d="" pointer-events="none" display="none"></path></g></g><g class="mark-group role-axis" aria-hidden="true"><g transform="translate(0.5,0.5)"><path class="background" aria-hidden="true" d="M0,0h0v0h0Z" pointer-events="none"></path><g><g class="mark-rule role-axis-grid" pointer-events="none"><line transform="translate(0,200)" x2="200" y2="0" stroke="#ddd" stroke-width="1" opacity="1"></line><line transform="translate(0,160)" x2="200" y2="0" stroke="#ddd" stroke-width="1" opacity="1"></line><line transform="translate(0,120)" x2="200" y2="0" stroke="#ddd" stroke-width="1" opacity="1"></line><line transform="translate(0,80)" x2="200" y2="0" stroke="#ddd" stroke-width="1" opacity="1"></line><line transform="translate(0,40)" x2="200" y2="0" stroke="#ddd" stroke-width="1" opacity="1"></line><line transform="translate(0,0)" x2="200" y2="0" stroke="#ddd" stroke-width="1" opacity="1"></line></g></g><path class="foreground" aria-hidden="true" d="" pointer-events="none" display="none"></path></g></g><g class="mark-group role-scope child_layer_0_pathgroup" role="graphics-object" aria-roledescription="group mark container"><g transform="translate(0,0)"><path class="background" aria-hidden="true" d="M0,0h200v200h-200Z"></path><g><g class="mark-line role-mark child_layer_0_marks" clip-path="url(#clip1)" role="graphics-object" aria-roledescription="line mark container"><path aria-label="condition: global; Time relative to target onset (s): -0.129032258065; Target Classification: 0.543745037623" role="graphics-symbol" aria-roledescription="line mark" d="M16.48745519713262,91.25099247539656L27.956989247311824,90.30825925319448L39.42652329749104,100.89587689034599L50.896057347670244,94.28582869271213L62.365591397849464,85.92603558650713L73.83512544802868,80.27423102204914L85.3046594982079,84.6146437592364L96.77419354838712,79.18092602042455L108.24372759856631,70.13771625514924L119.71326164874552,56.80889222020367L131.18279569892474,58.591375357347L142.65232974910393,55.76650571364195L154.12186379928318,50.58402108423543L165.59139784946234,72.84974269412159L177.0609318996416,76.46660394862657L188.53046594982078,59.94648617691911L200,51.608411711375865" stroke="#0F3C5F" stroke-width="2" stroke-linecap="round" stroke-dasharray="1,0"></path></g></g><path class="foreground" aria-hidden="true" d="" display="none"></path></g><g transform="translate(0,0)"><path class="background" aria-hidden="true" d="M0,0h200v200h-200Z"></path><g><g class="mark-line role-mark child_layer_0_marks" clip-path="url(#clip2)" role="graphics-object" aria-roledescription="line mark container"><path aria-label="condition: object; Time relative to target onset (s): -0.129032258065; Target Classification: 0.610371896699" role="graphics-symbol" aria-roledescription="line mark" d="M16.48745519713262,77.92562066013869L27.956989247311824,69.252854975271L39.42652329749104,86.51040496153348L50.896057347670244,85.6134174603142L62.365591397849464,86.72249281242745L73.83512544802868,77.68459681627371L85.3046594982079,79.28919128328434L96.77419354838712,69.1473435228551L108.24372759856631,64.80206286752568L119.71326164874552,55.602574298729415L131.18279569892474,65.09984566532918L142.65232974910393,54.57851637257234L154.12186379928318,65.49072571258606L165.59139784946234,69.19240353909338L177.0609318996416,68.7859547329283L188.53046594982078,73.1013064449683L200,69.37820119732517" stroke="#687B3E" stroke-width="2" stroke-linecap="round" stroke-dasharray="6,4"></path></g></g><path class="foreground" aria-hidden="true" d="" display="none"></path></g><g transform="translate(0,0)"><path class="background" aria-hidden="true" d="M0,0h200v200h-200Z"></path><g><g class="mark-line role-mark child_layer_0_marks" clip-path="url(#clip3)" role="graphics-object" aria-roledescription="line mark container"><path aria-label="condition: spatial; Time relative to target onset (s): -0.129032258065; Target Classification: 0.633811565946" role="graphics-symbol" aria-roledescription="line mark" d="M16.48745519713262,73.23768681088983L27.956989247311824,66.9876146125375L39.42652329749104,60.16795542655504L50.896057347670244,59.69945446724729L62.365591397849464,56.47661202776799L73.83512544802868,57.75607932055464L85.3046594982079,66.34134734979192L96.77419354838712,50.11610406423739L108.24372759856631,56.70462868073889L119.71326164874552,44.870339593382155L131.18279569892474,47.70718583956901L142.65232974910393,49.019306833412024L154.12186379928318,51.02226934687353L165.59139784946234,56.04594415546016L177.0609318996416,64.30758665429666L188.53046594982078,66.7307659130786L200,55.33746431975845" stroke="#EB9A60" stroke-width="2" stroke-linecap="round" stroke-dasharray="2,4"></path></g></g><path class="foreground" aria-hidden="true" d="" display="none"></path></g></g><g class="mark-group role-scope child_layer_1_layer_0_pathgroup" role="graphics-object" aria-roledescription="group mark container"><g transform="translate(0,0)"><path class="background" aria-hidden="true" d="M0,0h200v200h-200Z"></path><g><g class="mark-area role-mark child_layer_1_layer_0_marks" clip-path="url(#clip4)" role="graphics-object" aria-roledescription="area mark container"><path aria-label="Target Classification: 0.458617382754; upper_lower: 0.629744784106; condition: global; winstart: -0.129032258065; upper: 0.629744784106; lower: 0.458617382754" role="graphics-symbol" aria-roledescription="errorband" d="M16.48745519713262,108.27652344917725L27.956989247311824,107.74986996780214L39.42652329749104,117.14268953087847L50.896057347670244,111.02356618354693L62.365591397849464,102.23029100344985L73.83512544802868,96.9647323807506L85.3046594982079,100.05981334008942L96.77419354838712,94.57033183106185L108.24372759856631,84.11079732601637L119.71326164874552,68.9901419296377L131.18279569892474,71.44167864708255L142.65232974910393,69.22081956993169L154.12186379928318,63.3205113992459L165.59139784946234,88.10117820072563L177.0609318996416,91.61097945580914L188.53046594982078,73.99589252939242L200,61.56178749526553L200,41.831204541197465L188.53046594982078,45.9755458423357L177.0609318996416,61.70186527914152L165.59139784946234,57.90740252578372L154.12186379928318,37.68279987625025L142.65232974910393,42.294902373144815L131.18279569892474,45.89117768129758L119.71326164874552,45.06797440269417L108.24372759856631,55.87008139784777L96.77419354838712,64.41983350058511L85.3046594982079,69.36677033124381L73.83512544802868,63.74295303184114L62.365591397849464,69.5633995274894L50.896057347670244,77.6479501819915L39.42652329749104,84.20345376405542L27.956989247311824,72.81563992390892L16.48745519713262,74.05104317875832Z" fill="#0F3C5F" opacity="0.3"></path></g></g><path class="foreground" aria-hidden="true" d="" display="none"></path></g><g transform="translate(0,0)"><path class="background" aria-hidden="true" d="M0,0h200v200h-200Z"></path><g><g class="mark-area role-mark child_layer_1_layer_0_marks" clip-path="url(#clip5)" role="graphics-object" aria-roledescription="area mark container"><path aria-label="Target Classification: 0.528662493078; upper_lower: 0.692335559993; condition: object; winstart: -0.129032258065; upper: 0.692335559993; lower: 0.528662493078" role="graphics-symbol" aria-roledescription="errorband" d="M16.48745519713262,94.26750138449825L27.956989247311824,84.19632359689622L39.42652329749104,102.68989466980783L50.896057347670244,102.18978713320821L62.365591397849464,103.00716208783065L73.83512544802868,92.75344885121899L85.3046594982079,96.04413528739413L96.77419354838712,83.80224598471881L108.24372759856631,79.82374993653323L119.71326164874552,70.06071833077414L131.18279569892474,80.70947845443952L142.65232974910393,66.55140040932753L154.12186379928318,79.92662868597901L165.59139784946234,84.0395147640191L177.0609318996416,84.28560721404462L188.53046594982078,89.57208004670764L200,85.81558812778482L200,52.77326465477656L188.53046594982078,56.45881767575504L177.0609318996416,52.98331538800909L165.59139784946234,53.976237130473436L154.12186379928318,51.50179276774685L142.65232974910393,42.34204992032227L131.18279569892474,49.10211213311126L119.71326164874552,40.60726476817269L108.24372759856631,50.05801095653055L96.77419354838712,54.1538807518944L85.3046594982079,62.76959235793888L73.83512544802868,62.50690249420465L62.365591397849464,70.24327487968405L50.896057347670244,68.87952392625769L39.42652329749104,70.34945693796897L27.956989247311824,54.25258748448192L16.48745519713262,61.5328880014413Z" fill="#687B3E" opacity="0.3"></path></g></g><path class="foreground" aria-hidden="true" d="" display="none"></path></g><g transform="translate(0,0)"><path class="background" aria-hidden="true" d="M0,0h200v200h-200Z"></path><g><g class="mark-area role-mark child_layer_1_layer_0_marks" clip-path="url(#clip6)" role="graphics-object" aria-roledescription="area mark container"><path aria-label="Target Classification: 0.56223828105; upper_lower: 0.704672690894; condition: spatial; winstart: -0.129032258065; upper: 0.704672690894; lower: 0.56223828105" role="graphics-symbol" aria-roledescription="errorband" d="M16.48745519713262,87.55234379005805L27.956989247311824,81.28644772627993L39.42652329749104,74.7383973636228L50.896057347670244,73.89296915047272L62.365591397849464,70.79608931823881L73.83512544802868,72.23101524632716L85.3046594982079,80.66993504227662L96.77419354838712,64.07436013758017L108.24372759856631,70.89506961077356L119.71326164874552,57.902956626018124L131.18279569892474,60.54935744585883L142.65232974910393,60.92580058064356L154.12186379928318,64.68179510818824L165.59139784946234,69.70560008401883L177.0609318996416,78.56266513244093L188.53046594982078,81.45420545913433L200,69.0625231824673L200,41.50851331869849L188.53046594982078,52.31483241477497L177.0609318996416,50.323470758576526L165.59139784946234,42.482510460850186L154.12186379928318,37.398842931541346L142.65232974910393,36.95341710242835L131.18279569892474,33.93714303483997L119.71326164874552,31.554708365305473L108.24372759856631,42.04450333038563L96.77419354838712,36.27714119130929L85.3046594982079,51.78238133890596L73.83512544802868,43.603053980384885L62.365591397849464,42.455324595212865L50.896057347670244,45.786542989448684L39.42652329749104,45.489949011466855L27.956989247311824,53.12640324129245L16.48745519713262,59.06546182122297Z" fill="#EB9A60" opacity="0.3"></path></g></g><path class="foreground" aria-hidden="true" d="" display="none"></path></g></g><g class="mark-text role-mark child_layer_2_marks" role="graphics-object" aria-roledescription="text mark container"><text aria-label="condition: object; Mean of corrected_mean: 0.654037982305; condition_label: Object" role="graphics-symbol" aria-roledescription="text mark" text-anchor="start" transform="translate(205,72.19240353909338)" font-family="Helvetica" font-size="11px" fill="#687B3E">Object</text><text aria-label="condition: global; Mean of corrected_mean: 0.700267569115; condition_label: Global" role="graphics-symbol" aria-roledescription="text mark" text-anchor="start" transform="translate(205,62.94648617691911)" font-family="Helvetica" font-size="11px" fill="#0F3C5F">Global</text><text aria-label="condition: spatial; Mean of corrected_mean: 0.666346170435; condition_label: Spatial" role="graphics-symbol" aria-roledescription="text mark" text-anchor="start" transform="translate(205,69.7307659130786)" font-family="Helvetica" font-size="11px" fill="#EB9A60">Spatial</text></g><g class="mark-text role-mark child_layer_3_marks" role="graphics-object" aria-roledescription="text mark container"><text aria-label="Mean of winstart: 1.93548387097; basemean: 0.699018343651" role="graphics-symbol" aria-roledescription="text mark" text-anchor="middle" transform="translate(108.24372759856631,71.19633126987534)" font-family="Helvetica" font-size="11px" fill="black"><tspan>Baseline</tspan><tspan x="0" dy="13">Accuracy</tspan></text></g><g class="mark-rule role-mark child_layer_4_marks" role="graphics-object" aria-roledescription="rule mark container"><line aria-label="Mean of basemean: 0.699018343651" role="graphics-symbol" aria-roledescription="rule mark" transform="translate(200,60.19633126987534)" x2="-200" y2="0" stroke="black" stroke-width="2" stroke-dasharray="4,4"></line></g><g class="mark-line role-mark child_layer_5_layer_0_marks" role="graphics-object" aria-roledescription="line mark container"><path aria-label="x: 0.05; y: 0.8" role="graphics-symbol" aria-roledescription="line mark" d="M24.444444444444446,39.99999999999999L64.44444444444444,39.99999999999999" stroke="black" stroke-width="1.5"></path></g><g class="mark-symbol role-mark child_layer_5_layer_1_marks" role="graphics-object" aria-roledescription="symbol mark container"><path aria-label="x: 0.05; y: 0.8; dir: 270" role="graphics-symbol" aria-roledescription="point" transform="translate(24.444444444444446,39.99999999999999) rotate(270)" d="M0,-1.8257418583505536L-1.5811388300841898,0.9128709291752769L1.5811388300841898,0.9128709291752769Z" stroke="black" stroke-width="2" opacity="1"></path><path aria-label="x: 0.95; y: 0.8; dir: 90" role="graphics-symbol" aria-roledescription="point" transform="translate(64.44444444444444,39.99999999999999) rotate(90)" d="M0,-1.8257418583505536L-1.5811388300841898,0.9128709291752769L1.5811388300841898,0.9128709291752769Z" stroke="black" stroke-width="2" opacity="1"></path></g><g class="mark-text role-mark child_layer_6_layer_0_marks" role="graphics-object" aria-roledescription="text mark container"><text text-anchor="start" transform="translate(22.22222222222222,34.99999999999999)" font-family="Helvetica" font-size="11px" fill="black">Target Length</text></g></g><path class="foreground" aria-hidden="true" d="" display="none"></path></g><g transform="translate(261,0)"><path class="background" aria-hidden="true" d="M0.5,0.5h200v200h-200Z" stroke="#ddd"></path><g><g class="mark-group role-axis" aria-hidden="true"><g transform="translate(0.5,200.5)"><path class="background" aria-hidden="true" d="M0,0h0v0h0Z" pointer-events="none"></path><g><g class="mark-rule role-axis-grid" pointer-events="none"><line transform="translate(22,-200)" x2="0" y2="200" stroke="#ddd" stroke-width="1" opacity="1"></line><line transform="translate(67,-200)" x2="0" y2="200" stroke="#ddd" stroke-width="1" opacity="1"></line><line transform="translate(111,-200)" x2="0" y2="200" stroke="#ddd" stroke-width="1" opacity="1"></line><line transform="translate(156,-200)" x2="0" y2="200" stroke="#ddd" stroke-width="1" opacity="1"></line><line transform="translate(200,-200)" x2="0" y2="200" stroke="#ddd" stroke-width="1" opacity="1"></line></g></g><path class="foreground" aria-hidden="true" d="" pointer-events="none" display="none"></path></g></g><g class="mark-group role-axis" aria-hidden="true"><g transform="translate(0.5,0.5)"><path class="background" aria-hidden="true" d="M0,0h0v0h0Z" pointer-events="none"></path><g><g class="mark-rule role-axis-grid" pointer-events="none"><line transform="translate(0,200)" x2="200" y2="0" stroke="#ddd" stroke-width="1" opacity="1"></line><line transform="translate(0,160)" x2="200" y2="0" stroke="#ddd" stroke-width="1" opacity="1"></line><line transform="translate(0,120)" x2="200" y2="0" stroke="#ddd" stroke-width="1" opacity="1"></line><line transform="translate(0,80)" x2="200" y2="0" stroke="#ddd" stroke-width="1" opacity="1"></line><line transform="translate(0,40)" x2="200" y2="0" stroke="#ddd" stroke-width="1" opacity="1"></line><line transform="translate(0,0)" x2="200" y2="0" stroke="#ddd" stroke-width="1" opacity="1"></line></g></g><path class="foreground" aria-hidden="true" d="" pointer-events="none" display="none"></path></g></g><g class="mark-group role-scope child_layer_0_pathgroup" role="graphics-object" aria-roledescription="group mark container"><g transform="translate(0,0)"><path class="background" aria-hidden="true" d="M0,0h200v200h-200Z"></path><g><g class="mark-line role-mark child_layer_0_marks" clip-path="url(#clip7)" role="graphics-object" aria-roledescription="line mark container"><path aria-label="condition: global; Time relative to target onset (s): -0.129032258065; Target Classification: 0.560893848691" role="graphics-symbol" aria-roledescription="line mark" d="M16.48745519713262,87.82123026174806L27.956989247311824,95.41084065806771L39.42652329749104,91.9980308749339L50.896057347670244,94.04436823710883L62.365591397849464,88.03233965182902L73.83512544802868,76.50652613154183L85.3046594982079,82.98747888704992L96.77419354838712,72.90840716081209L108.24372759856631,62.83489097267869L119.71326164874552,68.24518912356147L131.18279569892474,49.205374580658635L142.65232974910393,44.165834826006666L154.12186379928318,45.35321426628318L165.59139784946234,46.43256808890934L177.0609318996416,39.67055481591206L188.53046594982078,41.37938738290738L200,38.720617455518955" stroke="#0F3C5F" stroke-width="2" stroke-linecap="round" stroke-dasharray="1,0"></path></g></g><path class="foreground" aria-hidden="true" d="" display="none"></path></g><g transform="translate(0,0)"><path class="background" aria-hidden="true" d="M0,0h200v200h-200Z"></path><g><g class="mark-line role-mark child_layer_0_marks" clip-path="url(#clip8)" role="graphics-object" aria-roledescription="line mark container"><path aria-label="condition: object; Time relative to target onset (s): -0.129032258065; Target Classification: 0.517302291769" role="graphics-symbol" aria-roledescription="line mark" d="M16.48745519713262,96.53954164615601L27.956989247311824,81.927172859754L39.42652329749104,74.03167062433809L50.896057347670244,82.20781424120712L62.365591397849464,83.08372363310428L73.83512544802868,82.22406096267537L85.3046594982079,89.65811112052835L96.77419354838712,88.67202711920707L108.24372759856631,86.93729491123887L119.71326164874552,77.86124229014834L131.18279569892474,91.8129195500378L142.65232974910393,95.12223749616801L154.12186379928318,108.12867046841363L165.59139784946234,98.40672888953075L177.0609318996416,100.9251449311861L188.53046594982078,106.68648331752428L200,105.75194062009396" stroke="#687B3E" stroke-width="2" stroke-linecap="round" stroke-dasharray="6,4"></path></g></g><path class="foreground" aria-hidden="true" d="" display="none"></path></g><g transform="translate(0,0)"><path class="background" aria-hidden="true" d="M0,0h200v200h-200Z"></path><g><g class="mark-line role-mark child_layer_0_marks" clip-path="url(#clip9)" role="graphics-object" aria-roledescription="line mark container"><path aria-label="condition: spatial; Time relative to target onset (s): -0.129032258065; Target Classification: 0.542749199147" role="graphics-symbol" aria-roledescription="line mark" d="M16.48745519713262,91.45016017050584L27.956989247311824,88.71536228215533L39.42652329749104,108.28457886368885L50.896057347670244,107.44605698055372L62.365591397849464,101.9889815060008L73.83512544802868,100.16626098273834L85.3046594982079,98.33465125879263L96.77419354838712,92.24418073743648L108.24372759856631,104.14942132462816L119.71326164874552,85.58456811901512L131.18279569892474,95.94125865596024L142.65232974910393,102.53737878816862L154.12186379928318,107.85998839634559L165.59139784946234,109.22309111059137L177.0609318996416,110.73619836809905L188.53046594982078,115.13358758415335L200,110.10770836884514" stroke="#EB9A60" stroke-width="2" stroke-linecap="round" stroke-dasharray="2,4"></path></g></g><path class="foreground" aria-hidden="true" d="" display="none"></path></g></g><g class="mark-group role-scope child_layer_1_layer_0_pathgroup" role="graphics-object" aria-roledescription="group mark container"><g transform="translate(0,0)"><path class="background" aria-hidden="true" d="M0,0h200v200h-200Z"></path><g><g class="mark-area role-mark child_layer_1_layer_0_marks" clip-path="url(#clip10)" role="graphics-object" aria-roledescription="area mark container"><path aria-label="Target Classification: 0.482431421978; upper_lower: 0.640790440745; condition: global; winstart: -0.129032258065; upper: 0.640790440745; lower: 0.482431421978" role="graphics-symbol" aria-roledescription="errorband" d="M16.48745519713262,103.51371560442566L27.956989247311824,112.55994503129496L39.42652329749104,108.02236315086814L50.896057347670244,110.44350426077764L62.365591397849464,103.76481312282448L73.83512544802868,91.2513616676165L85.3046594982079,98.83636708301947L96.77419354838712,89.12928207154711L108.24372759856631,77.00036368094783L119.71326164874552,83.66781102894778L131.18279569892474,62.73518952060617L142.65232974910393,57.723887150023856L154.12186379928318,58.20817918260348L165.59139784946234,59.565515038421644L177.0609318996416,50.39849848436191L188.53046594982078,53.64178770654229L200,50.27771837370909L200,27.47535425574126L188.53046594982078,29.284763327769014L177.0609318996416,28.924080058970603L165.59139784946234,33.692256422259305L154.12186379928318,32.42930860566542L142.65232974910393,31.157968413680415L131.18279569892474,35.54029078073793L119.71326164874552,52.800690522164494L108.24372759856631,48.812203483792295L96.77419354838712,57.21936560688625L85.3046594982079,67.5409737678499L73.83512544802868,61.3935520100724L62.365591397849464,71.37212421387638L50.896057347670244,78.06462281341928L39.42652329749104,75.89613840321343L27.956989247311824,78.24401791451274L16.48745519713262,71.84191185105824Z" fill="#0F3C5F" opacity="0.3"></path></g></g><path class="foreground" aria-hidden="true" d="" display="none"></path></g><g transform="translate(0,0)"><path class="background" aria-hidden="true" d="M0,0h200v200h-200Z"></path><g><g class="mark-area role-mark child_layer_1_layer_0_marks" clip-path="url(#clip11)" role="graphics-object" aria-roledescription="area mark container"><path aria-label="Target Classification: 0.444411124363; upper_lower: 0.590336807237; condition: object; winstart: -0.129032258065; upper: 0.590336807237; lower: 0.444411124363" role="graphics-symbol" aria-roledescription="errorband" d="M16.48745519713262,111.1177751274105L27.956989247311824,97.35940974096087L39.42652329749104,88.91742617740641L50.896057347670244,96.67138829487936L62.365591397849464,97.08010691497395L73.83512544802868,97.07442303438202L85.3046594982079,104.59535722977817L96.77419354838712,104.34330567505114L108.24372759856631,101.0350663279429L119.71326164874552,89.4147569226468L131.18279569892474,105.06637860664993L142.65232974910393,109.68015758719818L154.12186379928318,123.09815468407011L165.59139784946234,112.99072358344998L177.0609318996416,116.24895025551882L188.53046594982078,122.0443220687975L200,120.37549238287532L200,90.90071603141257L188.53046594982078,91.9599522175704L177.0609318996416,86.0605715555725L165.59139784946234,83.77120043265647L154.12186379928318,93.27028522417706L142.65232974910393,80.07249864840063L131.18279569892474,78.27186595334116L119.71326164874552,66.07085739901741L108.24372759856631,72.60786231785006L96.77419354838712,73.54735406686146L85.3046594982079,74.7314927240645L73.83512544802868,67.78821175059954L62.365591397849464,68.84228916769848L50.896057347670244,67.97271227299875L39.42652329749104,58.92295875226654L27.956989247311824,66.47545402206765L16.48745519713262,81.9326385526586Z" fill="#687B3E" opacity="0.3"></path></g></g><path class="foreground" aria-hidden="true" d="" display="none"></path></g><g transform="translate(0,0)"><path class="background" aria-hidden="true" d="M0,0h200v200h-200Z"></path><g><g class="mark-area role-mark child_layer_1_layer_0_marks" clip-path="url(#clip12)" role="graphics-object" aria-roledescription="area mark container"><path aria-label="Target Classification: 0.464328781796; upper_lower: 0.622876221266; condition: spatial; winstart: -0.129032258065; upper: 0.622876221266; lower: 0.464328781796" role="graphics-symbol" aria-roledescription="errorband" d="M16.48745519713262,107.13424364079633L27.956989247311824,101.02846907337208L39.42652329749104,123.97196435917574L50.896057347670244,121.22214957164653L62.365591397849464,117.0202119633295L73.83512544802868,114.58488461557465L85.3046594982079,112.17386344988046L96.77419354838712,105.49933570096553L108.24372759856631,116.81290681758027L119.71326164874552,99.09288410429313L131.18279569892474,108.00903066709562L142.65232974910393,116.56034650655438L154.12186379928318,121.66086156757086L165.59139784946234,123.79235246798595L177.0609318996416,123.0531275396485L188.53046594982078,129.46876493309293L200,125.17274417235045L200,95.17582012617014L188.53046594982078,100.58297604888877L177.0609318996416,98.16028224634555L165.59139784946234,94.25535564871606L154.12186379928318,94.27038791512538L142.65232974910393,88.2850686046424L131.18279569892474,84.01549970201312L119.71326164874552,72.10951108704806L108.24372759856631,91.82841298422L96.77419354838712,78.61743121368157L85.3046594982079,84.81492906687026L73.83512544802868,85.49717906038366L62.365591397849464,87.1838214165384L50.896057347670244,93.69587834568438L39.42652329749104,92.74571644779677L27.956989247311824,76.38504696756134L16.48745519713262,75.42475574686085Z" fill="#EB9A60" opacity="0.3"></path></g></g><path class="foreground" aria-hidden="true" d="" display="none"></path></g></g><g class="mark-text role-mark child_layer_2_marks" role="graphics-object" aria-roledescription="text mark container"><text aria-label="condition: object; Mean of corrected_mean: 0.507966355552; condition_label: Object" role="graphics-symbol" aria-roledescription="text mark" text-anchor="start" transform="translate(205,101.40672888953075)" font-family="Helvetica" font-size="11px" fill="#687B3E">Object</text><text aria-label="condition: global; Mean of corrected_mean: 0.793103063085; condition_label: Global" role="graphics-symbol" aria-roledescription="text mark" text-anchor="start" transform="translate(205,44.37938738290738)" font-family="Helvetica" font-size="11px" fill="#0F3C5F">Global</text><text aria-label="condition: spatial; Mean of corrected_mean: 0.424332062079; condition_label: Spatial" role="graphics-symbol" aria-roledescription="text mark" text-anchor="start" transform="translate(205,118.13358758415335)" font-family="Helvetica" font-size="11px" fill="#EB9A60">Spatial</text></g><g class="mark-text role-mark child_layer_3_marks" role="graphics-object" aria-roledescription="text mark container"><text aria-label="Mean of winstart: 1.93548387097; basemean: 0.61425164603" role="graphics-symbol" aria-roledescription="text mark" text-anchor="middle" transform="translate(108.24372759856631,88.1496707940149)" font-family="Helvetica" font-size="11px" fill="black"><tspan>Baseline</tspan><tspan x="0" dy="13">Accuracy</tspan></text></g><g class="mark-rule role-mark child_layer_4_marks" role="graphics-object" aria-roledescription="rule mark container"><line aria-label="Mean of basemean: 0.61425164603" role="graphics-symbol" aria-roledescription="rule mark" transform="translate(200,77.1496707940149)" x2="-200" y2="0" stroke="black" stroke-width="2" stroke-dasharray="4,4"></line></g><g class="mark-line role-mark child_layer_5_layer_0_marks" role="graphics-object" aria-roledescription="line mark container"><path aria-label="x: 0.05; y: 0.8" role="graphics-symbol" aria-roledescription="line mark" d="M24.444444444444446,39.99999999999999L64.44444444444444,39.99999999999999" stroke="black" stroke-width="1.5"></path></g><g class="mark-symbol role-mark child_layer_5_layer_1_marks" role="graphics-object" aria-roledescription="symbol mark container"><path aria-label="x: 0.05; y: 0.8; dir: 270" role="graphics-symbol" aria-roledescription="point" transform="translate(24.444444444444446,39.99999999999999) rotate(270)" d="M0,-1.8257418583505536L-1.5811388300841898,0.9128709291752769L1.5811388300841898,0.9128709291752769Z" stroke="black" stroke-width="2" opacity="1"></path><path aria-label="x: 0.95; y: 0.8; dir: 90" role="graphics-symbol" aria-roledescription="point" transform="translate(64.44444444444444,39.99999999999999) rotate(90)" d="M0,-1.8257418583505536L-1.5811388300841898,0.9128709291752769L1.5811388300841898,0.9128709291752769Z" stroke="black" stroke-width="2" opacity="1"></path></g><g class="mark-text role-mark child_layer_6_layer_0_marks" role="graphics-object" aria-roledescription="text mark container"><text text-anchor="start" transform="translate(22.22222222222222,34.99999999999999)" font-family="Helvetica" font-size="11px" fill="black">Target Length</text></g></g><path class="foreground" aria-hidden="true" d="" display="none"></path></g></g></g><path class="foreground" aria-hidden="true" d="" display="none"></path></g></g></g></svg>
