<?xml version="1.0" encoding="utf-8"?>
<!DOCTYPE svg PUBLIC "-//W3C//DTD SVG 1.1//EN" "http://www.w3.org/Graphics/SVG/1.1/DTD/svg11.dtd">
<svg class="marks" width="476" height="194" viewBox="0 0 476 194" version="1.1" xmlns="http://www.w3.org/2000/svg" xmlns:xlink="http://www.w3.org/1999/xlink"><rect width="476" height="194" fill="white"></rect><g fill="none" stroke-miterlimit="10" transform="translate(55,26)"><g class="mark-group role-frame root" role="graphics-object" aria-roledescription="group mark container"><g transform="translate(0,0)"><path class="background" aria-hidden="true" d="M0,0h0v0h0Z"></path><g><g class="mark-group role-row-header row_header" role="graphics-object" aria-roledescription="group mark container"><g transform="translate(-2,0)"><path class="background" aria-hidden="true" d="M0,0h0v130h0Z"></path><g><g class="mark-group role-axis" role="graphics-symbol" aria-roledescription="axis" aria-label="Y-axis titled 'Decoding Correlation' for a linear scale with values from -0.06 to 0.16"><g transform="translate(0.5,0.5)"><path class="background" aria-hidden="true" d="M0,0h0v0h0Z" pointer-events="none"></path><g><g class="mark-rule role-axis-tick" pointer-events="none"><line transform="translate(0,124)" x2="-5" y2="0" stroke="#888" stroke-width="1" opacity="1"></line><line transform="translate(0,95)" x2="-5" y2="0" stroke="#888" stroke-width="1" opacity="1"></line><line transform="translate(0,65)" x2="-5" y2="0" stroke="#888" stroke-width="1" opacity="1"></line><line transform="translate(0,35)" x2="-5" y2="0" stroke="#888" stroke-width="1" opacity="1"></line><line transform="translate(0,6)" x2="-5" y2="0" stroke="#888" stroke-width="1" opacity="1"></line></g><g class="mark-text role-axis-label" pointer-events="none"><text text-anchor="end" transform="translate(-7,127.0909090909091)" font-family="sans-serif" font-size="10px" fill="#000" opacity="1">-0.05</text><text text-anchor="end" transform="translate(-7,97.54545454545455)" font-family="sans-serif" font-size="10px" fill="#000" opacity="1">0.00</text><text text-anchor="end" transform="translate(-7,68)" font-family="sans-serif" font-size="10px" fill="#000" opacity="1">0.05</text><text text-anchor="end" transform="translate(-7,38.45454545454545)" font-family="sans-serif" font-size="10px" fill="#000" opacity="1">0.10</text><text text-anchor="end" transform="translate(-7,8.909090909090917)" font-family="sans-serif" font-size="10px" fill="#000" opacity="1">0.15</text></g><g class="mark-rule role-axis-domain" pointer-events="none"><line transform="translate(0,130)" x2="0" y2="-130" stroke="#888" stroke-width="1" opacity="1"></line></g><g class="mark-text role-axis-title" pointer-events="none"><text text-anchor="middle" transform="translate(-36,65) rotate(-90) translate(0,-2)" font-family="sans-serif" font-size="11px" font-weight="bold" fill="#000" opacity="1">Decoding Correlation</text></g></g><path class="foreground" aria-hidden="true" d="" pointer-events="none" display="none"></path></g></g></g><path class="foreground" aria-hidden="true" d="" display="none"></path></g></g><g class="mark-group role-column-header column_header" role="graphics-object" aria-roledescription="group mark container"><g transform="translate(0,-1)"><path class="background" aria-hidden="true" d="M0,0h128v0h-128Z"></path><g><g class="mark-group role-title"><g transform="translate(64,-20)"><path class="background" aria-hidden="true" d="M0,0h0v0h0Z" pointer-events="none"></path><g><g class="mark-text role-title-text" role="graphics-symbol" aria-roledescription="title" aria-label="Title text 'Global'" pointer-events="none"><text text-anchor="middle" transform="translate(0,8)" font-family="sans-serif" font-size="10px" font-weight="bold" fill="#000" opacity="1">Global</text></g></g><path class="foreground" aria-hidden="true" d="" pointer-events="none" display="none"></path></g></g></g><path class="foreground" aria-hidden="true" d="" display="none"></path></g><g transform="translate(141,-1)"><path class="background" aria-hidden="true" d="M0,0h128v0h-128Z"></path><g><g class="mark-group role-title"><g transform="translate(64,-20)"><path class="background" aria-hidden="true" d="M0,0h0v0h0Z" pointer-events="none"></path><g><g class="mark-text role-title-text" role="graphics-symbol" aria-roledescription="title" aria-label="Title text 'Spatial'" pointer-events="none"><text text-anchor="middle" transform="translate(0,8)" font-family="sans-serif" font-size="10px" font-weight="bold" fill="#000" opacity="1">Spatial</text></g></g><path class="foreground" aria-hidden="true" d="" pointer-events="none" display="none"></path></g></g></g><path class="foreground" aria-hidden="true" d="" display="none"></path></g><g transform="translate(282,-1)"><path class="background" aria-hidden="true" d="M0,0h128v0h-128Z"></path><g><g class="mark-group role-title"><g transform="translate(64,-20)"><path class="background" aria-hidden="true" d="M0,0h0v0h0Z" pointer-events="none"></path><g><g class="mark-text role-title-text" role="graphics-symbol" aria-roledescription="title" aria-label="Title text 'Object'" pointer-events="none"><text text-anchor="middle" transform="translate(0,8)" font-family="sans-serif" font-size="10px" font-weight="bold" fill="#000" opacity="1">Object</text></g></g><path class="foreground" aria-hidden="true" d="" pointer-events="none" display="none"></path></g></g></g><path class="foreground" aria-hidden="true" d="" display="none"></path></g></g><g class="mark-group role-column-footer column_footer" role="graphics-object" aria-roledescription="group mark container"><g transform="translate(0,131)"><path class="background" aria-hidden="true" d="M0,0h128v0h-128Z"></path><g><g class="mark-group role-axis" role="graphics-symbol" aria-roledescription="axis" aria-label="X-axis titled 'Time (s)' for a linear scale with values from -1.0 to 2.5"><g transform="translate(0.5,0.5)"><path class="background" aria-hidden="true" d="M0,0h0v0h0Z" pointer-events="none"></path><g><g class="mark-rule role-axis-tick" pointer-events="none"><line transform="translate(0,0)" x2="0" y2="5" stroke="#888" stroke-width="1" opacity="1"></line><line transform="translate(37,0)" x2="0" y2="5" stroke="#888" stroke-width="1" opacity="1"></line><line transform="translate(73,0)" x2="0" y2="5" stroke="#888" stroke-width="1" opacity="1"></line><line transform="translate(110,0)" x2="0" y2="5" stroke="#888" stroke-width="1" opacity="1"></line></g><g class="mark-text role-axis-label" pointer-events="none"><text text-anchor="start" transform="translate(0,15)" font-family="sans-serif" font-size="10px" fill="#000" opacity="1">-1</text><text text-anchor="middle" transform="translate(36.57142857142857,15)" font-family="sans-serif" font-size="10px" fill="#000" opacity="1">0</text><text text-anchor="middle" transform="translate(73.14285714285714,15)" font-family="sans-serif" font-size="10px" fill="#000" opacity="1">1</text><text text-anchor="middle" transform="translate(109.71428571428571,15)" font-family="sans-serif" font-size="10px" fill="#000" opacity="1">2</text></g><g class="mark-rule role-axis-domain" pointer-events="none"><line transform="translate(0,0)" x2="128" y2="0" stroke="#888" stroke-width="1" opacity="1"></line></g><g class="mark-text role-axis-title" pointer-events="none"><text text-anchor="middle" transform="translate(64,30)" font-family="sans-serif" font-size="11px" font-weight="bold" fill="#000" opacity="1">Time (s)</text></g></g><path class="foreground" aria-hidden="true" d="" pointer-events="none" display="none"></path></g></g></g><path class="foreground" aria-hidden="true" d="" display="none"></path></g><g transform="translate(141,131)"><path class="background" aria-hidden="true" d="M0,0h128v0h-128Z"></path><g><g class="mark-group role-axis" role="graphics-symbol" aria-roledescription="axis" aria-label="X-axis titled 'Time (s)' for a linear scale with values from -1.0 to 2.5"><g transform="translate(0.5,0.5)"><path class="background" aria-hidden="true" d="M0,0h0v0h0Z" pointer-events="none"></path><g><g class="mark-rule role-axis-tick" pointer-events="none"><line transform="translate(0,0)" x2="0" y2="5" stroke="#888" stroke-width="1" opacity="1"></line><line transform="translate(37,0)" x2="0" y2="5" stroke="#888" stroke-width="1" opacity="1"></line><line transform="translate(73,0)" x2="0" y2="5" stroke="#888" stroke-width="1" opacity="1"></line><line transform="translate(110,0)" x2="0" y2="5" stroke="#888" stroke-width="1" opacity="1"></line></g><g class="mark-text role-axis-label" pointer-events="none"><text text-anchor="start" transform="translate(0,15)" font-family="sans-serif" font-size="10px" fill="#000" opacity="1">-1</text><text text-anchor="middle" transform="translate(36.57142857142857,15)" font-family="sans-serif" font-size="10px" fill="#000" opacity="1">0</text><text text-anchor="middle" transform="translate(73.14285714285714,15)" font-family="sans-serif" font-size="10px" fill="#000" opacity="1">1</text><text text-anchor="middle" transform="translate(109.71428571428571,15)" font-family="sans-serif" font-size="10px" fill="#000" opacity="1">2</text></g><g class="mark-rule role-axis-domain" pointer-events="none"><line transform="translate(0,0)" x2="128" y2="0" stroke="#888" stroke-width="1" opacity="1"></line></g><g class="mark-text role-axis-title" pointer-events="none"><text text-anchor="middle" transform="translate(64,30)" font-family="sans-serif" font-size="11px" font-weight="bold" fill="#000" opacity="1">Time (s)</text></g></g><path class="foreground" aria-hidden="true" d="" pointer-events="none" display="none"></path></g></g></g><path class="foreground" aria-hidden="true" d="" display="none"></path></g><g transform="translate(282,131)"><path class="background" aria-hidden="true" d="M0,0h128v0h-128Z"></path><g><g class="mark-group role-axis" role="graphics-symbol" aria-roledescription="axis" aria-label="X-axis titled 'Time (s)' for a linear scale with values from -1.0 to 2.5"><g transform="translate(0.5,0.5)"><path class="background" aria-hidden="true" d="M0,0h0v0h0Z" pointer-events="none"></path><g><g class="mark-rule role-axis-tick" pointer-events="none"><line transform="translate(0,0)" x2="0" y2="5" stroke="#888" stroke-width="1" opacity="1"></line><line transform="translate(37,0)" x2="0" y2="5" stroke="#888" stroke-width="1" opacity="1"></line><line transform="translate(73,0)" x2="0" y2="5" stroke="#888" stroke-width="1" opacity="1"></line><line transform="translate(110,0)" x2="0" y2="5" stroke="#888" stroke-width="1" opacity="1"></line></g><g class="mark-text role-axis-label" pointer-events="none"><text text-anchor="start" transform="translate(0,15)" font-family="sans-serif" font-size="10px" fill="#000" opacity="1">-1</text><text text-anchor="middle" transform="translate(36.57142857142857,15)" font-family="sans-serif" font-size="10px" fill="#000" opacity="1">0</text><text text-anchor="middle" transform="translate(73.14285714285714,15)" font-family="sans-serif" font-size="10px" fill="#000" opacity="1">1</text><text text-anchor="middle" transform="translate(109.71428571428571,15)" font-family="sans-serif" font-size="10px" fill="#000" opacity="1">2</text></g><g class="mark-rule role-axis-domain" pointer-events="none"><line transform="translate(0,0)" x2="128" y2="0" stroke="#888" stroke-width="1" opacity="1"></line></g><g class="mark-text role-axis-title" pointer-events="none"><text text-anchor="middle" transform="translate(64,30)" font-family="sans-serif" font-size="11px" font-weight="bold" fill="#000" opacity="1">Time (s)</text></g></g><path class="foreground" aria-hidden="true" d="" pointer-events="none" display="none"></path></g></g></g><path class="foreground" aria-hidden="true" d="" display="none"></path></g></g><g class="mark-group role-scope cell" role="graphics-object" aria-roledescription="group mark container"><g transform="translate(0,0)"><path class="background" aria-hidden="true" d="M0.5,0.5h128v130h-128Z" stroke="#ddd"></path><g><g class="mark-group role-axis" aria-hidden="true"><g transform="translate(0.5,130.5)"><path class="background" aria-hidden="true" d="M0,0h0v0h0Z" pointer-events="none"></path><g><g class="mark-rule role-axis-grid" pointer-events="none"><line transform="translate(0,-130)" x2="0" y2="130" stroke="#ddd" stroke-width="1" opacity="1"></line><line transform="translate(37,-130)" x2="0" y2="130" stroke="#ddd" stroke-width="1" opacity="1"></line><line transform="translate(73,-130)" x2="0" y2="130" stroke="#ddd" stroke-width="1" opacity="1"></line><line transform="translate(110,-130)" x2="0" y2="130" stroke="#ddd" stroke-width="1" opacity="1"></line></g></g><path class="foreground" aria-hidden="true" d="" pointer-events="none" display="none"></path></g></g><g class="mark-group role-axis" aria-hidden="true"><g transform="translate(0.5,0.5)"><path class="background" aria-hidden="true" d="M0,0h0v0h0Z" pointer-events="none"></path><g><g class="mark-rule role-axis-grid" pointer-events="none"><line transform="translate(0,124)" x2="128" y2="0" stroke="#ddd" stroke-width="1" opacity="1"></line><line transform="translate(0,95)" x2="128" y2="0" stroke="#ddd" stroke-width="1" opacity="1"></line><line transform="translate(0,65)" x2="128" y2="0" stroke="#ddd" stroke-width="1" opacity="1"></line><line transform="translate(0,35)" x2="128" y2="0" stroke="#ddd" stroke-width="1" opacity="1"></line><line transform="translate(0,6)" x2="128" y2="0" stroke="#ddd" stroke-width="1" opacity="1"></line></g></g><path class="foreground" aria-hidden="true" d="" pointer-events="none" display="none"></path></g></g><g class="mark-group role-scope child_layer_0_layer_0_pathgroup" role="graphics-object" aria-roledescription="group mark container"><g transform="translate(0,0)"><path class="background" aria-hidden="true" d="M0,0h128v130h-128Z"></path><g><g class="mark-line role-mark child_layer_0_layer_0_marks" role="graphics-object" aria-roledescription="line mark container"><path aria-label="Time (s): -0.96875; Source: Target Source; Decoding Correlation: 0.0141598649761" role="graphics-symbol" aria-roledescription="line mark" d="M1.1428571428571428,86.178261605045L4.571428571428571,87.61371353343128L8,86.79415237880671L11.428571428571429,88.06067731149452L14.857142857142858,90.4722542278894L18.285714285714285,93.32466313868345L21.714285714285715,91.88747480600935L25.142857142857142,89.27426638131372L28.571428571428573,87.8798665696318L32,87.78067799227816L35.42857142857143,84.17355131498607L38.857142857142854,84.01077913455167L42.285714285714285,86.44935934154789L45.714285714285715,86.96015634791918L49.142857142857146,82.49598958937527L52.57142857142857,79.33384955809021L56,74.45299091280425L59.42857142857143,68.71292554753991L62.857142857142854,58.510792436628165L66.28571428571429,49.56068969121062L69.71428571428571,44.27640596410352L73.14285714285714,35.3959451880244L76.57142857142857,34.568428379297565L80,41.13664539561093L83.42857142857143,50.88498994819331L86.85714285714286,54.92703676555366L90.28571428571429,53.79845323225634L93.71428571428571,56.05408885494616L97.14285714285714,60.07705247677217L100.57142857142857,67.13137128692831L104,69.8281472030973L107.42857142857143,74.81353185755063L110.85714285714286,80.81317639681052L114.28571428571429,76.63805531178207L117.71428571428571,68.52281874676979L121.14285714285714,69.73140276669334L124.57142857142857,78.76374513392842" stroke="#356698" stroke-width="2" stroke-linejoin="round"></path></g></g><path class="foreground" aria-hidden="true" d="" display="none"></path></g><g transform="translate(0,0)"><path class="background" aria-hidden="true" d="M0,0h128v130h-128Z"></path><g><g class="mark-line role-mark child_layer_0_layer_0_marks" role="graphics-object" aria-roledescription="line mark container"><path aria-label="Time (s): -0.96875; Source: Other Sources; Decoding Correlation: 0.0116730498812" role="graphics-symbol" aria-roledescription="line mark" d="M1.1428571428571428,87.64774325199369L4.571428571428571,88.84997384480462L8,89.43478230266778L11.428571428571429,89.79790834393513L14.857142857142858,88.6670842346536L18.285714285714285,91.51741614636948L21.714285714285715,92.26696917346668L25.142857142857142,94.1434951623407L28.571428571428573,94.481711178159L32,95.20967915315215L35.42857142857143,96.71765107129394L38.857142857142854,93.61363941038529L42.285714285714285,90.7121294763168L45.714285714285715,83.82452926609213L49.142857142857146,82.16342893344702L52.57142857142857,80.94001546093675L56,80.60801668261702L59.42857142857143,77.74911385405353L62.857142857142854,72.48894988553431L66.28571428571429,70.84124173889566L69.71428571428571,69.63511079689054L73.14285714285714,67.24504832142061L76.57142857142857,68.59437751993907L80,70.16505769607232L83.42857142857143,76.09578193218807L86.85714285714286,78.64789116292685L90.28571428571429,81.12451126458073L93.71428571428571,74.42437863297937L97.14285714285714,68.87260318296414L100.57142857142857,69.37794252007146L104,77.59390274071231L107.42857142857143,78.58559624043849L110.85714285714286,76.85569766205407L114.28571428571429,70.52364596991335L117.71428571428571,70.40956072695299L121.14285714285714,62.87936041793181L124.57142857142857,53.62521965755972" stroke="#9FD26B" stroke-width="2" stroke-linejoin="round"></path></g></g><path class="foreground" aria-hidden="true" d="" display="none"></path></g></g><g class="mark-group role-scope child_layer_0_layer_1_layer_0_pathgroup" role="graphics-object" aria-roledescription="group mark container"><g transform="translate(0,0)"><path class="background" aria-hidden="true" d="M0,0h128v130h-128Z"></path><g><g class="mark-area role-mark child_layer_0_layer_1_layer_0_marks" role="graphics-object" aria-roledescription="area mark container"><path aria-label=": 0.00135603751259; upper_lower: 0.0269862427021; Time (s): -0.96875; Source: Target Source; upper: 0.0269862427021; lower: 0.00135603751259" role="graphics-symbol" aria-roledescription="errorband" d="M1.1428571428571428,93.74415965165325L4.571428571428571,95.2717319249778L8,93.97592897455965L11.428571428571429,94.75826079930955L14.857142857142858,97.45213618225102L18.285714285714285,99.45594035177079L21.714285714285715,98.42139778001192L25.142857142857142,95.36027922687045L28.571428571428573,95.18276334762665L32,95.12621729280555L35.42857142857143,91.46222201134367L38.857142857142854,90.58951490282917L42.285714285714285,93.10102560628319L45.714285714285715,94.2131824009624L49.142857142857146,90.2480738114469L52.57142857142857,86.77436788202662L56,81.93851767871632L59.42857142857143,75.54277562982315L62.857142857142854,65.46954995707937L66.28571428571429,56.63550822765183L69.71428571428571,51.12468349740481L73.14285714285714,42.02514995970216L76.57142857142857,40.00128992132257L80,46.24205301508775L83.42857142857143,56.57671476897735L86.85714285714286,61.5326463203592L90.28571428571429,60.998275648455035L93.71428571428571,62.041861228031955L97.14285714285714,66.22389515863148L100.57142857142857,73.66169887219928L104,76.26959911616937L107.42857142857143,81.82076397933676L110.85714285714286,88.48877766796106L114.28571428571429,85.7132361622194L117.71428571428571,79.27959795040401L121.14285714285714,80.48683057228597L124.57142857142857,89.36828290449348L124.57142857142857,67.69759126383181L121.14285714285714,58.62127010928071L117.71428571428571,56.99755359254598L114.28571428571429,66.8495437637453L110.85714285714286,72.23338677349686L107.42857142857143,66.62026569418698L104,62.80244362736583L100.57142857142857,60.025274436937416L97.14285714285714,53.4842860942543L93.71428571428571,49.1837194423933L90.28571428571429,46.06320297864365L86.85714285714286,48.03292160140252L83.42857142857143,44.70976019359513L80,35.77625010455433L76.57142857142857,28.539579068747766L73.14285714285714,28.311652616418137L69.71428571428571,37.08661771750909L66.28571428571429,42.05617324546648L62.857142857142854,50.9326334384224L59.42857142857143,61.688873233559484L56,66.64256854787857L52.57142857142857,72.1616970604187L49.142857142857146,75.37739587242794L45.714285714285715,80.42165010638955L42.285714285714285,80.39624864231527L38.857142857142854,77.6482499815749L35.42857142857143,77.24384649988058L32,80.43445562288382L28.571428571428573,81.08772252305153L25.142857142857142,82.95928137833059L21.714285714285715,85.46698848227453L18.285714285714285,86.88440791034843L14.857142857142858,83.46289859551148L11.428571428571429,80.9635009725118L8,79.45888798604393L4.571428571428571,79.77232132916738L1.1428571428571428,78.59903840328317Z" fill="#356698" opacity="0.3"></path></g></g><path class="foreground" aria-hidden="true" d="" display="none"></path></g><g transform="translate(0,0)"><path class="background" aria-hidden="true" d="M0,0h128v130h-128Z"></path><g><g class="mark-area role-mark child_layer_0_layer_1_layer_0_marks" role="graphics-object" aria-roledescription="area mark container"><path aria-label=": 0.0025917198545; upper_lower: 0.0206339890275; Time (s): -0.96875; Source: Other Sources; upper: 0.0206339890275; lower: 0.0025917198545" role="graphics-symbol" aria-roledescription="errorband" d="M1.1428571428571428,93.01398372234256L4.571428571428571,93.22108634842327L8,93.74041729583298L11.428571428571429,94.50498479211635L14.857142857142858,93.49605967426811L18.285714285714285,96.53720987274572L21.714285714285715,96.63548393925493L25.142857142857142,98.47749062304918L28.571428571428573,99.49451635778496L32,99.67678130891709L35.42857142857143,101.51343151640886L38.857142857142854,98.31758017906184L42.285714285714285,95.3422668945105L45.714285714285715,88.58282941277989L49.142857142857146,87.34221588371412L52.57142857142857,86.58530004262292L56,85.46712084081318L59.42857142857143,81.8455338636625L62.857142857142854,76.60783883146749L66.28571428571429,74.88112662937519L69.71428571428571,73.54582912610661L73.14285714285714,70.54215977565096L76.57142857142857,72.06369976726278L80,73.65954287286796L83.42857142857143,80.39057970015027L86.85714285714286,83.14253405506449L90.28571428571429,85.63763583595838L93.71428571428571,78.74946039306955L97.14285714285714,72.79602195733264L100.57142857142857,73.39111852404255L104,81.43549180166048L107.42857142857143,82.45839767956186L110.85714285714286,80.50708271557129L114.28571428571429,74.23514105677289L117.71428571428571,75.15302442091986L121.14285714285714,68.39923695978298L124.57142857142857,60.98593283194006L124.57142857142857,46.331190341978534L121.14285714285714,57.234747042744324L117.71428571428571,65.6941572047463L114.28571428571429,66.60615487679468L110.85714285714286,73.28961952222802L107.42857142857143,75.02574131181642L104,73.99357324199573L100.57142857142857,65.55177203296256L97.14285714285714,65.31208651542201L93.71428571428571,70.27130208613026L90.28571428571429,76.93707380082786L86.85714285714286,74.48900394777311L83.42857142857143,71.9799486102958L80,66.73837397990106L76.57142857142857,65.12801221309726L73.14285714285714,63.85828030955499L69.71428571428571,65.70204750497501L66.28571428571429,66.70113540342217L62.857142857142854,67.99956097767895L59.42857142857143,73.5646173460542L56,75.49944279800039L52.57142857142857,74.95935756092277L49.142857142857146,77.06357396754225L45.714285714285715,78.96245493470262L42.285714285714285,85.68808297500293L38.857142857142854,88.72489158323131L35.42857142857143,91.77468202807803L32,90.24492489831586L28.571428571428573,89.48731974640876L25.142857142857142,89.67704598895953L21.714285714285715,87.95507474590012L18.285714285714285,86.44485815553372L14.857142857142858,83.57140113071151L11.428571428571429,85.15724124203791L8,85.16528563056325L4.571428571428571,84.3423356435488L1.1428571428571428,82.35264284739146Z" fill="#9FD26B" opacity="0.3"></path></g></g><path class="foreground" aria-hidden="true" d="" display="none"></path></g></g><g class="mark-text role-mark child_layer_0_layer_2_marks" role="graphics-object" aria-roledescription="text mark container"><text aria-label=": 1.46875; Source: Target Source; Mean of upper: 0.0816992444867; train_type_lbl: Target,Source" role="graphics-symbol" aria-roledescription="text mark" text-anchor="start" transform="translate(93.28571428571429,40.26862825788044)" font-family="sans-serif" font-size="11px" fill="#356698"><tspan>Target</tspan><tspan x="0" dy="13">Source</tspan></text></g><g class="mark-text role-mark child_layer_0_layer_3_marks" role="graphics-object" aria-roledescription="text mark container"><text aria-label=": 1.28125; Source: Other Sources; Mean of lower: 0.0239544035844; train_type_lbl: Other,Sources" role="graphics-symbol" aria-roledescription="text mark" text-anchor="end" transform="translate(86.42857142857143,98.39057970015027)" font-family="sans-serif" font-size="11px" fill="#9FD26B"><tspan>Other</tspan><tspan x="0" dy="13">Sources</tspan></text></g><g class="mark-text role-mark child_layer_1_layer_0_marks" role="graphics-object" aria-roledescription="text mark container"><text text-anchor="start" transform="translate(36.57142857142857,12.772727272727273)" font-family="sans-serif" font-size="11px" fill="black"><tspan>Target</tspan><tspan x="0" dy="13">Extent</tspan></text></g><g class="mark-rect role-mark child_layer_1_layer_1_marks" role="graphics-symbol" aria-roledescription="rect mark container"><path d="M36.57142857142857,0h36.57142857142857v130h-36.57142857142857Z" fill="gray" opacity="0.25"></path></g></g><path class="foreground" aria-hidden="true" d="" display="none"></path></g><g transform="translate(141,0)"><path class="background" aria-hidden="true" d="M0.5,0.5h128v130h-128Z" stroke="#ddd"></path><g><g class="mark-group role-axis" aria-hidden="true"><g transform="translate(0.5,130.5)"><path class="background" aria-hidden="true" d="M0,0h0v0h0Z" pointer-events="none"></path><g><g class="mark-rule role-axis-grid" pointer-events="none"><line transform="translate(0,-130)" x2="0" y2="130" stroke="#ddd" stroke-width="1" opacity="1"></line><line transform="translate(37,-130)" x2="0" y2="130" stroke="#ddd" stroke-width="1" opacity="1"></line><line transform="translate(73,-130)" x2="0" y2="130" stroke="#ddd" stroke-width="1" opacity="1"></line><line transform="translate(110,-130)" x2="0" y2="130" stroke="#ddd" stroke-width="1" opacity="1"></line></g></g><path class="foreground" aria-hidden="true" d="" pointer-events="none" display="none"></path></g></g><g class="mark-group role-axis" aria-hidden="true"><g transform="translate(0.5,0.5)"><path class="background" aria-hidden="true" d="M0,0h0v0h0Z" pointer-events="none"></path><g><g class="mark-rule role-axis-grid" pointer-events="none"><line transform="translate(0,124)" x2="128" y2="0" stroke="#ddd" stroke-width="1" opacity="1"></line><line transform="translate(0,95)" x2="128" y2="0" stroke="#ddd" stroke-width="1" opacity="1"></line><line transform="translate(0,65)" x2="128" y2="0" stroke="#ddd" stroke-width="1" opacity="1"></line><line transform="translate(0,35)" x2="128" y2="0" stroke="#ddd" stroke-width="1" opacity="1"></line><line transform="translate(0,6)" x2="128" y2="0" stroke="#ddd" stroke-width="1" opacity="1"></line></g></g><path class="foreground" aria-hidden="true" d="" pointer-events="none" display="none"></path></g></g><g class="mark-group role-scope child_layer_0_layer_0_pathgroup" role="graphics-object" aria-roledescription="group mark container"><g transform="translate(0,0)"><path class="background" aria-hidden="true" d="M0,0h128v130h-128Z"></path><g><g class="mark-line role-mark child_layer_0_layer_0_marks" role="graphics-object" aria-roledescription="line mark container"><path aria-label="Time (s): -0.96875; Source: Other Sources; Decoding Correlation: 0.00933884707839" role="graphics-symbol" aria-roledescription="line mark" d="M1.1428571428571428,89.0270449082237L4.571428571428571,87.53108866419429L8,86.3066268972526L11.428571428571429,90.18491186843839L14.857142857142858,90.32809007106434L18.285714285714285,89.29480737883738L21.714285714285715,87.66285144367312L25.142857142857142,90.9872474512575L28.571428571428573,91.09675297575674L32,94.59698659086153L35.42857142857143,95.58703689192211L38.857142857142854,93.5109155853477L42.285714285714285,90.06439647106001L45.714285714285715,88.15573879770172L49.142857142857146,85.02179887287149L52.57142857142857,81.06752532922351L56,80.7615349379685L59.42857142857143,77.06478719482513L62.857142857142854,76.33553642808664L66.28571428571429,75.35466776611433L69.71428571428571,75.7947397906892L73.14285714285714,83.91428041832395L76.57142857142857,88.41566522101886L80,86.34943712977366L83.42857142857143,83.03167210365542L86.85714285714286,85.35154103951487L90.28571428571429,87.04494180395764L93.71428571428571,80.29716502351619L97.14285714285714,78.66730191728277L100.57142857142857,70.94114839024239L104,77.70138904619533L107.42857142857143,86.50896406354384L110.85714285714286,83.11549754700552L114.28571428571429,76.60947092445475L117.71428571428571,66.25887831983843L121.14285714285714,58.10451681711013L124.57142857142857,47.72228960104745" stroke="#9FD26B" stroke-width="2" stroke-linejoin="round"></path></g></g><path class="foreground" aria-hidden="true" d="" display="none"></path></g><g transform="translate(0,0)"><path class="background" aria-hidden="true" d="M0,0h128v130h-128Z"></path><g><g class="mark-line role-mark child_layer_0_layer_0_marks" role="graphics-object" aria-roledescription="line mark container"><path aria-label="Time (s): -0.96875; Source: Target Source; Decoding Correlation: 0.0401701227211" role="graphics-symbol" aria-roledescription="line mark" d="M1.1428571428571428,70.80856384662836L4.571428571428571,69.86700765599004L8,68.80430428629214L11.428571428571429,72.01817274174086L14.857142857142858,76.74440260093381L18.285714285714285,78.40168680950462L21.714285714285715,82.04008114053008L25.142857142857142,80.8790238777333L28.571428571428573,79.72575922726212L32,77.03602037882217L35.42857142857143,79.20068861148874L38.857142857142854,82.29140535770613L42.285714285714285,90.89611015034174L45.714285714285715,85.72111897091465L49.142857142857146,78.86086689025038L52.57142857142857,77.44095681823444L56,69.13868761811538L59.42857142857143,68.01470112889105L62.857142857142854,61.846485563967335L66.28571428571429,57.317418232596694L69.71428571428571,47.898355379867574L73.14285714285714,27.37667938042747L76.57142857142857,30.08729353899943L80,34.495184221022846L83.42857142857143,41.57154842007173L86.85714285714286,43.707450538222155L90.28571428571429,43.63501911668337L93.71428571428571,52.42342857689613L97.14285714285714,55.93055984404596L100.57142857142857,68.14352581218861L104,85.29926503376107L107.42857142857143,83.86468553439018L110.85714285714286,89.41060884812721L114.28571428571429,91.22578736228833L117.71428571428571,88.91243348481572L121.14285714285714,90.68591055775155L124.57142857142857,80.72032658593736" stroke="#356698" stroke-width="2" stroke-linejoin="round"></path></g></g><path class="foreground" aria-hidden="true" d="" display="none"></path></g></g><g class="mark-group role-scope child_layer_0_layer_1_layer_0_pathgroup" role="graphics-object" aria-roledescription="group mark container"><g transform="translate(0,0)"><path class="background" aria-hidden="true" d="M0,0h128v130h-128Z"></path><g><g class="mark-area role-mark child_layer_0_layer_1_layer_0_marks" role="graphics-object" aria-roledescription="area mark container"><path aria-label=": -0.00419160160417; upper_lower: 0.0233340031613; Time (s): -0.96875; Source: Other Sources; upper: 0.0233340031613; lower: -0.00419160160417" role="graphics-symbol" aria-roledescription="errorband" d="M1.1428571428571428,97.02231003882697L4.571428571428571,94.75153929054056L8,93.18025122072224L11.428571428571429,97.06825992656039L14.857142857142858,96.95934432341267L18.285714285714285,95.7358562147043L21.714285714285715,94.46997764802032L25.142857142857142,98.5020662078732L28.571428571428573,99.6921231031267L32,102.93185505720078L35.42857142857143,104.10402669404687L38.857142857142854,101.87767010082521L42.285714285714285,98.48029536947018L45.714285714285715,97.37371635196747L49.142857142857146,94.23409947150041L52.57142857142857,89.5525685545597L56,88.85357049292375L59.42857142857143,85.07759190453699L62.857142857142854,83.9413801741715L66.28571428571429,81.63993905966278L69.71428571428571,82.1430712879144L73.14285714285714,90.49493770869198L76.57142857142857,95.4519939074082L80,92.03009488901196L83.42857142857143,88.71004920796679L86.85714285714286,90.1973710138326L90.28571428571429,92.36298743101662L93.71428571428571,86.4765904552974L97.14285714285714,84.83593805819294L100.57142857142857,76.94268894104657L104,84.97844700095357L107.42857142857143,93.74421391735902L110.85714285714286,89.66313525392368L114.28571428571429,84.51435349104467L117.71428571428571,74.69103682279645L121.14285714285714,65.19174356157433L124.57142857142857,54.94495180328956L124.57142857142857,39.86065556600961L121.14285714285714,50.32038880914358L117.71428571428571,57.70376314183048L114.28571428571429,68.90446638943894L110.85714285714286,76.66656228926097L107.42857142857143,79.59084849973812L104,70.53758075948903L100.57142857142857,65.16484868333917L97.14285714285714,72.33021572737994L93.71428571428571,73.83072977222635L90.28571428571429,81.96723595897176L86.85714285714286,80.53266471985667L83.42857142857143,77.26732088949011L80,80.73627682178586L76.57142857142857,81.47056737454668L73.14285714285714,76.84753420488022L69.71428571428571,69.28397373715114L66.28571428571429,69.22875099739022L62.857142857142854,69.13665938918722L59.42857142857143,69.15699504971393L56,73.29937820455619L52.57142857142857,72.68618709369682L49.142857142857146,76.67409081332238L45.714285714285715,79.55304578823342L42.285714285714285,81.98469179456188L38.857142857142854,85.37113846448172L35.42857142857143,86.72048521719269L32,85.29605931390817L28.571428571428573,81.60353966209385L25.142857142857142,83.31139349614246L21.714285714285715,80.60046874761662L18.285714285714285,82.69697275214031L14.857142857142858,83.73890995528322L11.428571428571429,83.58938911638981L8,80.12044924927044L4.571428571428571,80.00490836601307L1.1428571428571428,80.7571799501199Z" fill="#9FD26B" opacity="0.3"></path></g></g><path class="foreground" aria-hidden="true" d="" display="none"></path></g><g transform="translate(0,0)"><path class="background" aria-hidden="true" d="M0,0h128v130h-128Z"></path><g><g class="mark-area role-mark child_layer_0_layer_1_layer_0_marks" role="graphics-object" aria-roledescription="area mark container"><path aria-label=": 0.0207854112957; upper_lower: 0.0586487080746; Time (s): -0.96875; Source: Target Source; upper: 0.0586487080746; lower: 0.0207854112957" role="graphics-symbol" aria-roledescription="errorband" d="M1.1428571428571428,82.26316605253326L4.571428571428571,79.4510166155888L8,77.42754303067372L11.428571428571429,81.66207029691974L14.857142857142858,86.23517994277813L18.285714285714285,88.84096718756108L21.714285714285715,90.94740676048212L25.142857142857142,88.83537437835079L28.571428571428573,88.79871190094684L32,87.38567245134792L35.42857142857143,89.55378681307822L38.857142857142854,94.1095487639519L42.285714285714285,101.61108158708019L45.714285714285715,95.79321506606559L49.142857142857146,89.3569849243486L52.57142857142857,88.23838401418486L56,80.1063623942802L59.42857142857143,78.77690494019673L62.857142857142854,74.66609022758595L66.28571428571429,70.28404642895224L69.71428571428571,61.451463868147535L73.14285714285714,39.59605738304414L76.57142857142857,43.30918806756346L80,48.59879631958579L83.42857142857143,53.750478311911934L86.85714285714286,54.373686350443926L90.28571428571429,53.641402552392705L93.71428571428571,62.97163626837726L97.14285714285714,66.22314897761848L100.57142857142857,78.87931113423974L104,94.30973546057047L107.42857142857143,92.24606621471732L110.85714285714286,98.33701168234634L114.28571428571429,100.52509571453291L117.71428571428571,97.29792304059946L121.14285714285714,99.934855535274L124.57142857142857,91.52097290481288L124.57142857142857,69.69885451456753L121.14285714285714,81.14346063101927L117.71428571428571,80.8840081730603L114.28571428571429,81.92911353130046L110.85714285714286,81.19436543481014L107.42857142857143,76.01270107129245L104,77.01408279706553L100.57142857142857,58.007516002756574L97.14285714285714,45.71906050239932L93.71428571428571,42.14165672016527L90.28571428571429,33.39919084720103L86.85714285714286,32.703304219048846L83.42857142857143,28.21543725929144L80,20.026194810300233L76.57142857142857,15.754677906225005L73.14285714285714,14.926030429722257L69.71428571428571,33.98176088030187L66.28571428571429,43.47146179230891L62.857142857142854,49.0494273711727L59.42857142857143,57.93083242322185L56,58.320488499230116L52.57142857142857,66.96262237655495L49.142857142857146,68.34171956112301L45.714285714285715,75.8438376714764L42.285714285714285,80.32621361286374L38.857142857142854,70.66879764211785L35.42857142857143,68.66863199344358L32,66.66326362236747L28.571428571428573,70.07438273129682L25.142857142857142,72.7481222900043L21.714285714285715,72.95857125687814L18.285714285714285,67.32857905461896L14.857142857142858,66.36779646410088L11.428571428571429,62.03973929206495L8,60.125876158828845L4.571428571428571,59.77230680088102L1.1428571428571428,59.88939977411191Z" fill="#356698" opacity="0.3"></path></g></g><path class="foreground" aria-hidden="true" d="" display="none"></path></g></g><g class="mark-text role-mark child_layer_0_layer_2_marks" role="graphics-object" aria-roledescription="text mark container"><text aria-label=": 1.46875; Source: Target Source; Mean of upper: 0.106795012534; train_type_lbl: Target,Source" role="graphics-symbol" aria-roledescription="text mark" text-anchor="start" transform="translate(93.28571428571429,25.43931077518046)" font-family="sans-serif" font-size="11px" fill="#356698"><tspan>Target</tspan><tspan x="0" dy="13">Source</tspan></text></g><g class="mark-text role-mark child_layer_0_layer_3_marks" role="graphics-object" aria-roledescription="text mark container"><text aria-label=": 1.28125; Source: Other Sources; Mean of lower: 0.00987530134036; train_type_lbl: Other,Sources" role="graphics-symbol" aria-roledescription="text mark" text-anchor="end" transform="translate(86.42857142857143,106.71004920796679)" font-family="sans-serif" font-size="11px" fill="#9FD26B"><tspan>Other</tspan><tspan x="0" dy="13">Sources</tspan></text></g><g class="mark-text role-mark child_layer_1_layer_0_marks" role="graphics-object" aria-roledescription="text mark container"><text text-anchor="start" transform="translate(36.57142857142857,12.772727272727273)" font-family="sans-serif" font-size="11px" fill="black"><tspan>Target</tspan><tspan x="0" dy="13">Extent</tspan></text></g><g class="mark-rect role-mark child_layer_1_layer_1_marks" role="graphics-symbol" aria-roledescription="rect mark container"><path d="M36.57142857142857,0h36.57142857142857v130h-36.57142857142857Z" fill="gray" opacity="0.25"></path></g></g><path class="foreground" aria-hidden="true" d="" display="none"></path></g><g transform="translate(282,0)"><path class="background" aria-hidden="true" d="M0.5,0.5h128v130h-128Z" stroke="#ddd"></path><g><g class="mark-group role-axis" aria-hidden="true"><g transform="translate(0.5,130.5)"><path class="background" aria-hidden="true" d="M0,0h0v0h0Z" pointer-events="none"></path><g><g class="mark-rule role-axis-grid" pointer-events="none"><line transform="translate(0,-130)" x2="0" y2="130" stroke="#ddd" stroke-width="1" opacity="1"></line><line transform="translate(37,-130)" x2="0" y2="130" stroke="#ddd" stroke-width="1" opacity="1"></line><line transform="translate(73,-130)" x2="0" y2="130" stroke="#ddd" stroke-width="1" opacity="1"></line><line transform="translate(110,-130)" x2="0" y2="130" stroke="#ddd" stroke-width="1" opacity="1"></line></g></g><path class="foreground" aria-hidden="true" d="" pointer-events="none" display="none"></path></g></g><g class="mark-group role-axis" aria-hidden="true"><g transform="translate(0.5,0.5)"><path class="background" aria-hidden="true" d="M0,0h0v0h0Z" pointer-events="none"></path><g><g class="mark-rule role-axis-grid" pointer-events="none"><line transform="translate(0,124)" x2="128" y2="0" stroke="#ddd" stroke-width="1" opacity="1"></line><line transform="translate(0,95)" x2="128" y2="0" stroke="#ddd" stroke-width="1" opacity="1"></line><line transform="translate(0,65)" x2="128" y2="0" stroke="#ddd" stroke-width="1" opacity="1"></line><line transform="translate(0,35)" x2="128" y2="0" stroke="#ddd" stroke-width="1" opacity="1"></line><line transform="translate(0,6)" x2="128" y2="0" stroke="#ddd" stroke-width="1" opacity="1"></line></g></g><path class="foreground" aria-hidden="true" d="" pointer-events="none" display="none"></path></g></g><g class="mark-group role-scope child_layer_0_layer_0_pathgroup" role="graphics-object" aria-roledescription="group mark container"><g transform="translate(0,0)"><path class="background" aria-hidden="true" d="M0,0h128v130h-128Z"></path><g><g class="mark-line role-mark child_layer_0_layer_0_marks" role="graphics-object" aria-roledescription="line mark container"><path aria-label="Time (s): -0.96875; Source: Target Source; Decoding Correlation: 0.0247459617046" role="graphics-symbol" aria-roledescription="line mark" d="M1.1428571428571428,79.92284081089774L4.571428571428571,81.86150669513844L8,81.78632168605625L11.428571428571429,83.25841610277966L14.857142857142858,84.37741826014162L18.285714285714285,85.73741804410987L21.714285714285715,86.51068506664659L25.142857142857142,85.13249412203824L28.571428571428573,84.97687923459219L32,80.17441508008359L35.42857142857143,81.15393755245L38.857142857142854,86.09789858004548L42.285714285714285,89.30079227831922L45.714285714285715,87.9984219410645L49.142857142857146,85.83651052481915L52.57142857142857,88.89939006958049L56,85.83292576866728L59.42857142857143,78.42468232886503L62.857142857142854,72.13116940346598L66.28571428571429,69.26459053052145L69.71428571428571,60.972796314226514L73.14285714285714,48.54801426887674L76.57142857142857,47.955432570406295L80,51.022942952752516L83.42857142857143,58.59046982996902L86.85714285714286,61.98756195133924L90.28571428571429,67.57436974838211L93.71428571428571,73.58052947060656L97.14285714285714,76.03520734434021L100.57142857142857,82.96274609599436L104,83.59212667485525L107.42857142857143,85.50451341808729L110.85714285714286,92.94489855464023L114.28571428571429,95.52990984834494L117.71428571428571,88.6978165379198L121.14285714285714,90.16475041657968L124.57142857142857,83.60355387678523" stroke="#356698" stroke-width="2" stroke-linejoin="round"></path></g></g><path class="foreground" aria-hidden="true" d="" display="none"></path></g><g transform="translate(0,0)"><path class="background" aria-hidden="true" d="M0,0h128v130h-128Z"></path><g><g class="mark-line role-mark child_layer_0_layer_0_marks" role="graphics-object" aria-roledescription="line mark container"><path aria-label="Time (s): -0.96875; Source: Other Sources; Decoding Correlation: 0.0104822018018" role="graphics-symbol" aria-roledescription="line mark" d="M1.1428571428571428,88.35142620804142L4.571428571428571,88.43964786275966L8,88.7844269009041L11.428571428571429,90.8201457267254L14.857142857142858,93.73657591769346L18.285714285714285,92.71435336045677L21.714285714285715,90.76398467076334L25.142857142857142,94.69702444666657L28.571428571428573,95.89908810261358L32,96.1667743212701L35.42857142857143,92.62850177381877L38.857142857142854,89.91348506895196L42.285714285714285,84.85638858530258L45.714285714285715,79.9648390701225L49.142857142857146,77.98933986690362L52.57142857142857,73.89993270779817L56,74.42563482756219L59.42857142857143,75.26625783590625L62.857142857142854,70.0973693403708L66.28571428571429,71.82399370873296L69.71428571428571,73.92940195868425L73.14285714285714,77.823934314626L76.57142857142857,78.95535687118239L80,81.00502337417964L83.42857142857143,83.96325517121056L86.85714285714286,86.05811150089033L90.28571428571429,88.81929501722539L93.71428571428571,85.70133562340347L97.14285714285714,83.58244734723267L100.57142857142857,83.79357817983589L104,89.27932012318621L107.42857142857143,90.78129574715493L110.85714285714286,91.26650980871035L114.28571428571429,85.73432146675671L117.71428571428571,83.48289883703686L121.14285714285714,72.97727863682597L124.57142857142857,65.95728112521951" stroke="#9FD26B" stroke-width="2" stroke-linejoin="round"></path></g></g><path class="foreground" aria-hidden="true" d="" display="none"></path></g></g><g class="mark-group role-scope child_layer_0_layer_1_layer_0_pathgroup" role="graphics-object" aria-roledescription="group mark container"><g transform="translate(0,0)"><path class="background" aria-hidden="true" d="M0,0h128v130h-128Z"></path><g><g class="mark-area role-mark child_layer_0_layer_1_layer_0_marks" role="graphics-object" aria-roledescription="area mark container"><path aria-label=": 0.0124025417927; upper_lower: 0.037602332013; Time (s): -0.96875; Source: Target Source; upper: 0.037602332013; lower: 0.0124025417927" role="graphics-symbol" aria-roledescription="errorband" d="M1.1428571428571428,87.21667984977769L4.571428571428571,89.26936919580417L8,89.65111840662226L11.428571428571429,91.90714666208392L14.857142857142858,92.59623975479761L18.285714285714285,93.98361689673322L21.714285714285715,94.45426931025203L25.142857142857142,94.09935673656645L28.571428571428573,94.24903932721678L32,89.03571042912986L35.42857142857143,90.06085478469844L38.857142857142854,95.00639985814392L42.285714285714285,98.46297923802437L45.714285714285715,96.39562174536552L49.142857142857146,93.80958828920093L52.57142857142857,95.75957422929652L56,92.36316336954786L59.42857142857143,86.05694883988598L62.857142857142854,80.78032625773601L66.28571428571429,77.90251516200819L69.71428571428571,69.34991904638409L73.14285714285714,55.35145746896049L76.57142857142857,56.21932928153297L80,58.75355176715562L83.42857142857143,64.79406095548494L86.85714285714286,68.16550478154477L90.28571428571429,73.70394497287764L93.71428571428571,80.23991858348522L97.14285714285714,82.78455808567726L100.57142857142857,90.88788265326491L104,92.99992612294488L107.42857142857143,95.17502527184472L110.85714285714286,101.70402897703384L114.28571428571429,104.23397228662029L117.71428571428571,97.86572984471098L121.14285714285714,98.01988556747615L124.57142857142857,92.03220722553925L124.57142857142857,74.91289000377768L121.14285714285714,82.27777794841663L117.71428571428571,80.20882431660858L114.28571428571429,87.1428837632543L110.85714285714286,84.20810059837467L107.42857142857143,75.43328488809105L104,74.69948890132272L100.57142857142857,75.74723535457186L97.14285714285714,69.95758906463152L93.71428571428571,67.23950308915288L90.28571428571429,61.10698511135211L86.85714285714286,55.55990307039833L83.42857142857143,52.27006648636293L80,43.16383526435693L76.57142857142857,39.73698661416486L73.14285714285714,41.617288518419166L69.71428571428571,52.58481822142565L66.28571428571429,60.35158978693418L62.857142857142854,63.68277587914652L59.42857142857143,71.0677713276388L56,79.51142293658229L52.57142857142857,81.95666898368064L49.142857142857146,77.8974966159833L45.714285714285715,79.9003452966268L42.285714285714285,80.28230638910227L38.857142857142854,77.03042600806332L35.42857142857143,72.50322177352325L32,71.19446486780826L28.571428571428573,75.57501857302798L25.142857142857142,76.00266907792253L21.714285714285715,78.3690051245363L18.285714285714285,77.46071986494857L14.857142857142858,76.3887288770021L11.428571428571429,74.62161906305772L8,74.03092392035082L4.571428571428571,74.285451222887L1.1428571428571428,72.32589471959183Z" fill="#356698" opacity="0.3"></path></g></g><path class="foreground" aria-hidden="true" d="" display="none"></path></g><g transform="translate(0,0)"><path class="background" aria-hidden="true" d="M0,0h128v130h-128Z"></path><g><g class="mark-area role-mark child_layer_0_layer_1_layer_0_marks" role="graphics-object" aria-roledescription="area mark container"><path aria-label=": -0.000703737336449; upper_lower: 0.0214462621067; Time (s): -0.96875; Source: Other Sources; upper: 0.0214462621067; lower: -0.000703737336449" role="graphics-symbol" aria-roledescription="errorband" d="M1.1428571428571428,94.96129933517423L4.571428571428571,94.47009027369542L8,94.82773945580183L11.428571428571429,96.44185465971954L14.857142857142858,98.61204993536036L18.285714285714285,96.86327270497947L21.714285714285715,94.78987002623312L25.142857142857142,99.27273218368286L28.571428571428573,100.91565508554143L32,101.7570834243751L35.42857142857143,98.78167233639229L38.857142857142854,96.09357647889253L42.285714285714285,90.45776477588586L45.714285714285715,85.19267571583227L49.142857142857146,82.83397295253721L52.57142857142857,79.38163669897088L56,79.60398736300426L59.42857142857143,80.3319662588525L62.857142857142854,75.25454748716707L66.28571428571429,76.8135873920404L69.71428571428571,78.69398880328009L73.14285714285714,82.92198768168737L76.57142857142857,84.05316884772205L80,85.77929357769803L83.42857142857143,88.65058345693785L86.85714285714286,91.87633045513785L90.28571428571429,94.79889221746157L93.71428571428571,91.35013606310426L97.14285714285714,89.3175733161569L100.57142857142857,89.4426931191569L104,94.01927558765166L107.42857142857143,96.40053613113842L110.85714285714286,96.97818349253473L114.28571428571429,91.96753359043858L117.71428571428571,89.50298924181256L121.14285714285714,79.15659024568123L124.57142857142857,72.05931009652981L124.57142857142857,59.59279683269801L121.14285714285714,66.58081276364946L117.71428571428571,77.25825594225823L114.28571428571429,79.25194729170168L110.85714285714286,85.44313072955465L107.42857142857143,85.21959446225219L104,84.41204812444184L100.57142857142857,78.29552520195172L97.14285714285714,78.40769245944887L93.71428571428571,80.78449864959104L90.28571428571429,83.50208310784376L86.85714285714286,80.65985963919928L83.42857142857143,79.29746499578688L80,76.27334649554108L76.57142857142857,73.55514263443214L73.14285714285714,72.93233987329468L69.71428571428571,69.17340440180809L66.28571428571429,66.96753668995399L62.857142857142854,64.83445941602935L59.42857142857143,69.92161915086774L56,69.30074454784034L52.57142857142857,68.39638466192713L49.142857142857146,72.97428287119482L45.714285714285715,74.35364379442501L42.285714285714285,79.15993348157428L38.857142857142854,83.9497229760805L35.42857142857143,86.81111259108533L32,90.57828749659954L28.571428571428573,90.96831740847189L25.142857142857142,90.01494250610416L21.714285714285715,86.66825739040141L18.285714285714285,88.6443583379295L14.857142857142858,89.22394104920294L11.428571428571429,85.36115998433215L8,82.51418922991054L4.571428571428571,82.12419302215334L1.1428571428571428,81.87266330056134Z" fill="#9FD26B" opacity="0.3"></path></g></g><path class="foreground" aria-hidden="true" d="" display="none"></path></g></g><g class="mark-text role-mark child_layer_0_layer_2_marks" role="graphics-object" aria-roledescription="text mark container"><text aria-label=": 1.46875; Source: Target Source; Mean of upper: 0.0647022307; train_type_lbl: Target,Source" role="graphics-symbol" aria-roledescription="text mark" text-anchor="start" transform="translate(93.28571428571429,50.312318222704455)" font-family="sans-serif" font-size="11px" fill="#356698"><tspan>Target</tspan><tspan x="0" dy="13">Source</tspan></text></g><g class="mark-text role-mark child_layer_0_layer_3_marks" role="graphics-object" aria-roledescription="text mark container"><text aria-label=": 1.28125; Source: Other Sources; Mean of lower: 0.00997593568826; train_type_lbl: Other,Sources" role="graphics-symbol" aria-roledescription="text mark" text-anchor="end" transform="translate(86.42857142857143,106.65058345693785)" font-family="sans-serif" font-size="11px" fill="#9FD26B"><tspan>Other</tspan><tspan x="0" dy="13">Sources</tspan></text></g><g class="mark-text role-mark child_layer_1_layer_0_marks" role="graphics-object" aria-roledescription="text mark container"><text text-anchor="start" transform="translate(36.57142857142857,12.772727272727273)" font-family="sans-serif" font-size="11px" fill="black"><tspan>Target</tspan><tspan x="0" dy="13">Extent</tspan></text></g><g class="mark-rect role-mark child_layer_1_layer_1_marks" role="graphics-symbol" aria-roledescription="rect mark container"><path d="M36.57142857142857,0h36.57142857142857v130h-36.57142857142857Z" fill="gray" opacity="0.25"></path></g></g><path class="foreground" aria-hidden="true" d="" display="none"></path></g></g></g><path class="foreground" aria-hidden="true" d="" display="none"></path></g></g></g></svg>
