<?xml version="1.0" encoding="utf-8"?>
<!DOCTYPE svg PUBLIC "-//W3C//DTD SVG 1.1//EN" "http://www.w3.org/Graphics/SVG/1.1/DTD/svg11.dtd">
<svg class="marks" width="476" height="194" viewBox="0 0 476 194" version="1.1" xmlns="http://www.w3.org/2000/svg" xmlns:xlink="http://www.w3.org/1999/xlink"><rect width="476" height="194" fill="white"></rect><g fill="none" stroke-miterlimit="10" transform="translate(55,26)"><g class="mark-group role-frame root" role="graphics-object" aria-roledescription="group mark container"><g transform="translate(0,0)"><path class="background" aria-hidden="true" d="M0,0h0v0h0Z"></path><g><g class="mark-group role-row-header row_header" role="graphics-object" aria-roledescription="group mark container"><g transform="translate(-2,0)"><path class="background" aria-hidden="true" d="M0,0h0v130h0Z"></path><g><g class="mark-group role-axis" role="graphics-symbol" aria-roledescription="axis" aria-label="Y-axis titled 'Decoding Correlation' for a linear scale with values from -0.06 to 0.16"><g transform="translate(0.5,0.5)"><path class="background" aria-hidden="true" d="M0,0h0v0h0Z" pointer-events="none"></path><g><g class="mark-rule role-axis-tick" pointer-events="none"><line transform="translate(0,124)" x2="-5" y2="0" stroke="#888" stroke-width="1" opacity="1"></line><line transform="translate(0,95)" x2="-5" y2="0" stroke="#888" stroke-width="1" opacity="1"></line><line transform="translate(0,65)" x2="-5" y2="0" stroke="#888" stroke-width="1" opacity="1"></line><line transform="translate(0,35)" x2="-5" y2="0" stroke="#888" stroke-width="1" opacity="1"></line><line transform="translate(0,6)" x2="-5" y2="0" stroke="#888" stroke-width="1" opacity="1"></line></g><g class="mark-text role-axis-label" pointer-events="none"><text text-anchor="end" transform="translate(-7,127.0909090909091)" font-family="sans-serif" font-size="10px" fill="#000" opacity="1">-0.05</text><text text-anchor="end" transform="translate(-7,97.54545454545455)" font-family="sans-serif" font-size="10px" fill="#000" opacity="1">0.00</text><text text-anchor="end" transform="translate(-7,68)" font-family="sans-serif" font-size="10px" fill="#000" opacity="1">0.05</text><text text-anchor="end" transform="translate(-7,38.45454545454545)" font-family="sans-serif" font-size="10px" fill="#000" opacity="1">0.10</text><text text-anchor="end" transform="translate(-7,8.909090909090917)" font-family="sans-serif" font-size="10px" fill="#000" opacity="1">0.15</text></g><g class="mark-rule role-axis-domain" pointer-events="none"><line transform="translate(0,130)" x2="0" y2="-130" stroke="#888" stroke-width="1" opacity="1"></line></g><g class="mark-text role-axis-title" pointer-events="none"><text text-anchor="middle" transform="translate(-36,65) rotate(-90) translate(0,-2)" font-family="sans-serif" font-size="11px" font-weight="bold" fill="#000" opacity="1">Decoding Correlation</text></g></g><path class="foreground" aria-hidden="true" d="" pointer-events="none" display="none"></path></g></g></g><path class="foreground" aria-hidden="true" d="" display="none"></path></g></g><g class="mark-group role-column-header column_header" role="graphics-object" aria-roledescription="group mark container"><g transform="translate(0,-1)"><path class="background" aria-hidden="true" d="M0,0h128v0h-128Z"></path><g><g class="mark-group role-title"><g transform="translate(64,-20)"><path class="background" aria-hidden="true" d="M0,0h0v0h0Z" pointer-events="none"></path><g><g class="mark-text role-title-text" role="graphics-symbol" aria-roledescription="title" aria-label="Title text 'Global'" pointer-events="none"><text text-anchor="middle" transform="translate(0,8)" font-family="sans-serif" font-size="10px" font-weight="bold" fill="#000" opacity="1">Global</text></g></g><path class="foreground" aria-hidden="true" d="" pointer-events="none" display="none"></path></g></g></g><path class="foreground" aria-hidden="true" d="" display="none"></path></g><g transform="translate(141,-1)"><path class="background" aria-hidden="true" d="M0,0h128v0h-128Z"></path><g><g class="mark-group role-title"><g transform="translate(64,-20)"><path class="background" aria-hidden="true" d="M0,0h0v0h0Z" pointer-events="none"></path><g><g class="mark-text role-title-text" role="graphics-symbol" aria-roledescription="title" aria-label="Title text 'Spatial'" pointer-events="none"><text text-anchor="middle" transform="translate(0,8)" font-family="sans-serif" font-size="10px" font-weight="bold" fill="#000" opacity="1">Spatial</text></g></g><path class="foreground" aria-hidden="true" d="" pointer-events="none" display="none"></path></g></g></g><path class="foreground" aria-hidden="true" d="" display="none"></path></g><g transform="translate(282,-1)"><path class="background" aria-hidden="true" d="M0,0h128v0h-128Z"></path><g><g class="mark-group role-title"><g transform="translate(64,-20)"><path class="background" aria-hidden="true" d="M0,0h0v0h0Z" pointer-events="none"></path><g><g class="mark-text role-title-text" role="graphics-symbol" aria-roledescription="title" aria-label="Title text 'Object'" pointer-events="none"><text text-anchor="middle" transform="translate(0,8)" font-family="sans-serif" font-size="10px" font-weight="bold" fill="#000" opacity="1">Object</text></g></g><path class="foreground" aria-hidden="true" d="" pointer-events="none" display="none"></path></g></g></g><path class="foreground" aria-hidden="true" d="" display="none"></path></g></g><g class="mark-group role-column-footer column_footer" role="graphics-object" aria-roledescription="group mark container"><g transform="translate(0,131)"><path class="background" aria-hidden="true" d="M0,0h128v0h-128Z"></path><g><g class="mark-group role-axis" role="graphics-symbol" aria-roledescription="axis" aria-label="X-axis titled 'Time (s)' for a linear scale with values from -1.0 to 2.5"><g transform="translate(0.5,0.5)"><path class="background" aria-hidden="true" d="M0,0h0v0h0Z" pointer-events="none"></path><g><g class="mark-rule role-axis-tick" pointer-events="none"><line transform="translate(0,0)" x2="0" y2="5" stroke="#888" stroke-width="1" opacity="1"></line><line transform="translate(37,0)" x2="0" y2="5" stroke="#888" stroke-width="1" opacity="1"></line><line transform="translate(73,0)" x2="0" y2="5" stroke="#888" stroke-width="1" opacity="1"></line><line transform="translate(110,0)" x2="0" y2="5" stroke="#888" stroke-width="1" opacity="1"></line></g><g class="mark-text role-axis-label" pointer-events="none"><text text-anchor="start" transform="translate(0,15)" font-family="sans-serif" font-size="10px" fill="#000" opacity="1">-1</text><text text-anchor="middle" transform="translate(36.57142857142857,15)" font-family="sans-serif" font-size="10px" fill="#000" opacity="1">0</text><text text-anchor="middle" transform="translate(73.14285714285714,15)" font-family="sans-serif" font-size="10px" fill="#000" opacity="1">1</text><text text-anchor="middle" transform="translate(109.71428571428571,15)" font-family="sans-serif" font-size="10px" fill="#000" opacity="1">2</text></g><g class="mark-rule role-axis-domain" pointer-events="none"><line transform="translate(0,0)" x2="128" y2="0" stroke="#888" stroke-width="1" opacity="1"></line></g><g class="mark-text role-axis-title" pointer-events="none"><text text-anchor="middle" transform="translate(64,30)" font-family="sans-serif" font-size="11px" font-weight="bold" fill="#000" opacity="1">Time (s)</text></g></g><path class="foreground" aria-hidden="true" d="" pointer-events="none" display="none"></path></g></g></g><path class="foreground" aria-hidden="true" d="" display="none"></path></g><g transform="translate(141,131)"><path class="background" aria-hidden="true" d="M0,0h128v0h-128Z"></path><g><g class="mark-group role-axis" role="graphics-symbol" aria-roledescription="axis" aria-label="X-axis titled 'Time (s)' for a linear scale with values from -1.0 to 2.5"><g transform="translate(0.5,0.5)"><path class="background" aria-hidden="true" d="M0,0h0v0h0Z" pointer-events="none"></path><g><g class="mark-rule role-axis-tick" pointer-events="none"><line transform="translate(0,0)" x2="0" y2="5" stroke="#888" stroke-width="1" opacity="1"></line><line transform="translate(37,0)" x2="0" y2="5" stroke="#888" stroke-width="1" opacity="1"></line><line transform="translate(73,0)" x2="0" y2="5" stroke="#888" stroke-width="1" opacity="1"></line><line transform="translate(110,0)" x2="0" y2="5" stroke="#888" stroke-width="1" opacity="1"></line></g><g class="mark-text role-axis-label" pointer-events="none"><text text-anchor="start" transform="translate(0,15)" font-family="sans-serif" font-size="10px" fill="#000" opacity="1">-1</text><text text-anchor="middle" transform="translate(36.57142857142857,15)" font-family="sans-serif" font-size="10px" fill="#000" opacity="1">0</text><text text-anchor="middle" transform="translate(73.14285714285714,15)" font-family="sans-serif" font-size="10px" fill="#000" opacity="1">1</text><text text-anchor="middle" transform="translate(109.71428571428571,15)" font-family="sans-serif" font-size="10px" fill="#000" opacity="1">2</text></g><g class="mark-rule role-axis-domain" pointer-events="none"><line transform="translate(0,0)" x2="128" y2="0" stroke="#888" stroke-width="1" opacity="1"></line></g><g class="mark-text role-axis-title" pointer-events="none"><text text-anchor="middle" transform="translate(64,30)" font-family="sans-serif" font-size="11px" font-weight="bold" fill="#000" opacity="1">Time (s)</text></g></g><path class="foreground" aria-hidden="true" d="" pointer-events="none" display="none"></path></g></g></g><path class="foreground" aria-hidden="true" d="" display="none"></path></g><g transform="translate(282,131)"><path class="background" aria-hidden="true" d="M0,0h128v0h-128Z"></path><g><g class="mark-group role-axis" role="graphics-symbol" aria-roledescription="axis" aria-label="X-axis titled 'Time (s)' for a linear scale with values from -1.0 to 2.5"><g transform="translate(0.5,0.5)"><path class="background" aria-hidden="true" d="M0,0h0v0h0Z" pointer-events="none"></path><g><g class="mark-rule role-axis-tick" pointer-events="none"><line transform="translate(0,0)" x2="0" y2="5" stroke="#888" stroke-width="1" opacity="1"></line><line transform="translate(37,0)" x2="0" y2="5" stroke="#888" stroke-width="1" opacity="1"></line><line transform="translate(73,0)" x2="0" y2="5" stroke="#888" stroke-width="1" opacity="1"></line><line transform="translate(110,0)" x2="0" y2="5" stroke="#888" stroke-width="1" opacity="1"></line></g><g class="mark-text role-axis-label" pointer-events="none"><text text-anchor="start" transform="translate(0,15)" font-family="sans-serif" font-size="10px" fill="#000" opacity="1">-1</text><text text-anchor="middle" transform="translate(36.57142857142857,15)" font-family="sans-serif" font-size="10px" fill="#000" opacity="1">0</text><text text-anchor="middle" transform="translate(73.14285714285714,15)" font-family="sans-serif" font-size="10px" fill="#000" opacity="1">1</text><text text-anchor="middle" transform="translate(109.71428571428571,15)" font-family="sans-serif" font-size="10px" fill="#000" opacity="1">2</text></g><g class="mark-rule role-axis-domain" pointer-events="none"><line transform="translate(0,0)" x2="128" y2="0" stroke="#888" stroke-width="1" opacity="1"></line></g><g class="mark-text role-axis-title" pointer-events="none"><text text-anchor="middle" transform="translate(64,30)" font-family="sans-serif" font-size="11px" font-weight="bold" fill="#000" opacity="1">Time (s)</text></g></g><path class="foreground" aria-hidden="true" d="" pointer-events="none" display="none"></path></g></g></g><path class="foreground" aria-hidden="true" d="" display="none"></path></g></g><g class="mark-group role-scope cell" role="graphics-object" aria-roledescription="group mark container"><g transform="translate(0,0)"><path class="background" aria-hidden="true" d="M0.5,0.5h128v130h-128Z" stroke="#ddd"></path><g><g class="mark-group role-axis" aria-hidden="true"><g transform="translate(0.5,130.5)"><path class="background" aria-hidden="true" d="M0,0h0v0h0Z" pointer-events="none"></path><g><g class="mark-rule role-axis-grid" pointer-events="none"><line transform="translate(0,-130)" x2="0" y2="130" stroke="#ddd" stroke-width="1" opacity="1"></line><line transform="translate(37,-130)" x2="0" y2="130" stroke="#ddd" stroke-width="1" opacity="1"></line><line transform="translate(73,-130)" x2="0" y2="130" stroke="#ddd" stroke-width="1" opacity="1"></line><line transform="translate(110,-130)" x2="0" y2="130" stroke="#ddd" stroke-width="1" opacity="1"></line></g></g><path class="foreground" aria-hidden="true" d="" pointer-events="none" display="none"></path></g></g><g class="mark-group role-axis" aria-hidden="true"><g transform="translate(0.5,0.5)"><path class="background" aria-hidden="true" d="M0,0h0v0h0Z" pointer-events="none"></path><g><g class="mark-rule role-axis-grid" pointer-events="none"><line transform="translate(0,124)" x2="128" y2="0" stroke="#ddd" stroke-width="1" opacity="1"></line><line transform="translate(0,95)" x2="128" y2="0" stroke="#ddd" stroke-width="1" opacity="1"></line><line transform="translate(0,65)" x2="128" y2="0" stroke="#ddd" stroke-width="1" opacity="1"></line><line transform="translate(0,35)" x2="128" y2="0" stroke="#ddd" stroke-width="1" opacity="1"></line><line transform="translate(0,6)" x2="128" y2="0" stroke="#ddd" stroke-width="1" opacity="1"></line></g></g><path class="foreground" aria-hidden="true" d="" pointer-events="none" display="none"></path></g></g><g class="mark-group role-scope child_layer_0_layer_0_pathgroup" role="graphics-object" aria-roledescription="group mark container"><g transform="translate(0,0)"><path class="background" aria-hidden="true" d="M0,0h128v130h-128Z"></path><g><g class="mark-line role-mark child_layer_0_layer_0_marks" role="graphics-object" aria-roledescription="line mark container"><path aria-label="Time (s): -0.96875; Source: global; Decoding Correlation: 0.0141598649761" role="graphics-symbol" aria-roledescription="line mark" d="M1.1428571428571428,86.178261605045L4.571428571428571,87.61371353343128L8,86.79415237880671L11.428571428571429,88.06067731149452L14.857142857142858,90.4722542278894L18.285714285714285,93.32466313868345L21.714285714285715,91.88747480600935L25.142857142857142,89.27426638131372L28.571428571428573,87.8798665696318L32,87.78067799227816L35.42857142857143,84.17355131498607L38.857142857142854,84.01077913455167L42.285714285714285,86.44935934154789L45.714285714285715,86.96015634791918L49.142857142857146,82.49598958937527L52.57142857142857,79.33384955809021L56,74.45299091280425L59.42857142857143,68.71292554753991L62.857142857142854,58.510792436628165L66.28571428571429,49.56068969121062L69.71428571428571,44.27640596410352L73.14285714285714,35.3959451880244L76.57142857142857,34.568428379297565L80,41.13664539561093L83.42857142857143,50.88498994819331L86.85714285714286,54.92703676555366L90.28571428571429,53.79845323225634L93.71428571428571,56.05408885494616L97.14285714285714,60.07705247677217L100.57142857142857,67.13137128692831L104,69.8281472030973L107.42857142857143,74.81353185755063L110.85714285714286,80.81317639681052L114.28571428571429,76.63805531178207L117.71428571428571,68.52281874676979L121.14285714285714,69.73140276669334L124.57142857142857,78.76374513392842" stroke="#0F3C5F" stroke-width="2" stroke-linejoin="round"></path></g></g><path class="foreground" aria-hidden="true" d="" display="none"></path></g><g transform="translate(0,0)"><path class="background" aria-hidden="true" d="M0,0h128v130h-128Z"></path><g><g class="mark-line role-mark child_layer_0_layer_0_marks" role="graphics-object" aria-roledescription="line mark container"><path aria-label="Time (s): -0.96875; Source: other; Decoding Correlation: 0.0116730498812" role="graphics-symbol" aria-roledescription="line mark" d="M1.1428571428571428,87.64774325199369L4.571428571428571,88.84997384480462L8,89.43478230266778L11.428571428571429,89.79790834393513L14.857142857142858,88.6670842346536L18.285714285714285,91.51741614636948L21.714285714285715,92.26696917346668L25.142857142857142,94.1434951623407L28.571428571428573,94.481711178159L32,95.20967915315215L35.42857142857143,96.71765107129394L38.857142857142854,93.61363941038529L42.285714285714285,90.7121294763168L45.714285714285715,83.82452926609213L49.142857142857146,82.16342893344702L52.57142857142857,80.94001546093675L56,80.60801668261702L59.42857142857143,77.74911385405353L62.857142857142854,72.48894988553431L66.28571428571429,70.84124173889566L69.71428571428571,69.63511079689054L73.14285714285714,67.24504832142061L76.57142857142857,68.59437751993907L80,70.16505769607232L83.42857142857143,76.09578193218807L86.85714285714286,78.64789116292685L90.28571428571429,81.12451126458073L93.71428571428571,74.42437863297937L97.14285714285714,68.87260318296414L100.57142857142857,69.37794252007146L104,77.59390274071231L107.42857142857143,78.58559624043849L110.85714285714286,76.85569766205407L114.28571428571429,70.52364596991335L117.71428571428571,70.40956072695299L121.14285714285714,62.87936041793181L124.57142857142857,53.62521965755972" stroke="#2C2C2C" stroke-width="2" stroke-linejoin="round"></path></g></g><path class="foreground" aria-hidden="true" d="" display="none"></path></g></g><g class="mark-group role-scope child_layer_0_layer_1_layer_0_pathgroup" role="graphics-object" aria-roledescription="group mark container"><g transform="translate(0,0)"><path class="background" aria-hidden="true" d="M0,0h128v130h-128Z"></path><g><g class="mark-area role-mark child_layer_0_layer_1_layer_0_marks" role="graphics-object" aria-roledescription="area mark container"><path aria-label=": 0.00133449246013; upper_lower: 0.0267513520402; Time (s): -0.96875; Source: global; upper: 0.0267513520402; lower: 0.00133449246013" role="graphics-symbol" aria-roledescription="errorband" d="M1.1428571428571428,93.75689081901683L4.571428571428571,95.01193210389603L8,93.91950426337732L11.428571428571429,94.7911162228487L14.857142857142858,97.43078667358711L18.285714285714285,99.43579691750305L21.714285714285715,98.32002007679833L25.142857142857142,95.41216182327595L28.571428571428573,94.96665764929367L32,95.11532982393028L35.42857142857143,91.26611719907399L38.857142857142854,90.86358456027776L42.285714285714285,93.00892693854611L45.714285714285715,94.16242976234295L49.142857142857146,90.29349405300695L52.57142857142857,86.53757017834714L56,81.92620251716072L59.42857142857143,75.41403238247466L62.857142857142854,65.58859891057087L66.28571428571429,56.72811612952418L69.71428571428571,50.978803015811096L73.14285714285714,41.85196457345104L76.57142857142857,40.020986174666625L80,46.37561793635929L83.42857142857143,56.610930592390076L86.85714285714286,61.42642176669793L90.28571428571429,60.87936959448591L93.71428571428571,62.10818541481417L97.14285714285714,66.12612828657595L100.57142857142857,73.7455346295982L104,76.22418787003896L107.42857142857143,82.36212935889179L110.85714285714286,88.52540006877145L114.28571428571429,85.78268828463332L117.71428571428571,79.31326902844437L121.14285714285714,80.49548091565507L124.57142857142857,89.64682378749721L124.57142857142857,67.59008111058075L121.14285714285714,58.50600220084088L117.71428571428571,56.844820416725724L114.28571428571429,66.67891948458495L110.85714285714286,72.51613776329474L107.42857142857143,66.98803568710727L104,62.819655330444796L100.57142857142857,59.96446786646988L97.14285714285714,53.3163821889805L93.71428571428571,49.29258464992206L90.28571428571429,45.84364144228128L86.85714285714286,47.84545145705105L83.42857142857143,44.71290003550139L80,35.60195378937619L76.57142857142857,28.67903248114743L73.14285714285714,28.272434742501115L69.71428571428571,37.30952280910954L66.28571428571429,41.77486783774738L62.857142857142854,50.90982815273885L59.42857142857143,61.687010878666484L56,66.38964949844525L52.57142857142857,72.19508638665474L49.142857142857146,75.26621773773215L45.714285714285715,80.1372386038855L42.285714285714285,80.44992020758097L38.857142857142854,77.90868079976765L35.42857142857143,77.0924410758046L32,80.5127215992767L28.571428571428573,81.1907377671152L25.142857142857142,83.11882956359608L21.714285714285715,85.4585306092615L18.285714285714285,86.94332984690291L14.857142857142858,83.5955847448176L11.428571428571429,81.02301354626412L8,79.54285029094167L4.571428571428571,79.8109152057589L1.1428571428571428,78.73783743077972Z" fill="#0F3C5F" opacity="0.3"></path></g></g><path class="foreground" aria-hidden="true" d="" display="none"></path></g><g transform="translate(0,0)"><path class="background" aria-hidden="true" d="M0,0h128v130h-128Z"></path><g><g class="mark-area role-mark child_layer_0_layer_1_layer_0_marks" role="graphics-object" aria-roledescription="area mark container"><path aria-label=": 0.0024637862556; upper_lower: 0.0207419033865; Time (s): -0.96875; Source: other; upper: 0.0207419033865; lower: 0.0024637862556" role="graphics-symbol" aria-roledescription="errorband" d="M1.1428571428571428,93.08958084896362L4.571428571428571,93.17352591427213L8,93.60033434668064L11.428571428571429,94.51654616557076L14.857142857142858,93.40100228389676L18.285714285714285,96.4278805856726L21.714285714285715,96.74433822491018L25.142857142857142,98.35659199552833L28.571428571428573,99.35353251001094L32,99.82384053291862L35.42857142857143,101.47225157493602L38.857142857142854,98.27568922886913L42.285714285714285,95.39459818492057L45.714285714285715,88.44407483028407L49.142857142857146,87.30835208508462L52.57142857142857,86.59821154059323L56,85.53072930445828L59.42857142857143,81.75376223406825L62.857142857142854,76.59264980920246L66.28571428571429,74.99517386957213L69.71428571428571,73.43829534769958L73.14285714285714,70.52699935378742L76.57142857142857,72.04831175615962L80,73.62840675599516L83.42857142857143,80.36785019820826L86.85714285714286,83.23943020071071L90.28571428571429,85.64042839883871L93.71428571428571,78.76291714985504L97.14285714285714,72.6605485600532L100.57142857142857,73.3413932714452L104,81.43398156459756L107.42857142857143,82.40810329124072L110.85714285714286,80.54090205277909L114.28571428571429,74.33348796957588L117.71428571428571,75.07836441916282L121.14285714285714,68.4446698061409L124.57142857142857,60.79932936029289L124.57142857142857,46.45335914193435L121.14285714285714,57.27011075790055L117.71428571428571,65.65252366612185L114.28571428571429,66.65315810994571L110.85714285714286,73.15805932702902L107.42857142857143,75.00704064967553L104,74.00188142953382L100.57142857142857,65.5052938939355L97.14285714285714,65.35238136340796L93.71428571428571,70.32605629948323L90.28571428571429,76.88086505847353L86.85714285714286,74.4087804554652L83.42857142857143,71.95894654949562L80,66.75276497511427L76.57142857142857,65.18592143923917L73.14285714285714,63.8854480540271L69.71428571428571,65.8065012658524L66.28571428571429,66.55921656501303L62.857142857142854,68.01871251053683L59.42857142857143,73.51593364179921L56,75.73473358733729L52.57142857142857,75.0177167013929L49.142857142857146,76.97452357171449L45.714285714285715,79.01878741601494L42.285714285714285,85.72161951436254L38.857142857142854,88.72342032273629L35.42857142857143,91.83963730261328L32,90.1092948572273L28.571428571428573,89.45632558948233L25.142857142857142,89.81371663346906L21.714285714285715,87.7951469409252L18.285714285714285,86.27366619513226L14.857142857142858,83.56693451871102L11.428571428571429,85.05838468451209L8,85.23404143492166L4.571428571428571,84.46598498165582L1.1428571428571428,82.28887527159878Z" fill="#2C2C2C" opacity="0.3"></path></g></g><path class="foreground" aria-hidden="true" d="" display="none"></path></g></g><g class="mark-text role-mark child_layer_0_layer_2_marks" role="graphics-object" aria-roledescription="text mark container"><text aria-label=": 1.46875; Source: global; Mean of upper: 0.0819270809086; train_type_lbl: Target,Source" role="graphics-symbol" aria-roledescription="text mark" text-anchor="start" transform="translate(93.28571428571429,40.13399764494458)" font-family="sans-serif" font-size="11px" fill="#0F3C5F"><tspan>Target</tspan><tspan x="0" dy="13">Source</tspan></text></g><g class="mark-text role-mark child_layer_0_layer_3_marks" role="graphics-object" aria-roledescription="text mark container"><text aria-label=": 1.28125; Source: other; Mean of lower: 0.0239928688953; train_type_lbl: Other,Sources" role="graphics-symbol" aria-roledescription="text mark" text-anchor="end" transform="translate(86.42857142857143,98.36785019820826)" font-family="sans-serif" font-size="11px" fill="#2C2C2C"><tspan>Other</tspan><tspan x="0" dy="13">Sources</tspan></text></g><g class="mark-text role-mark child_layer_1_layer_0_marks" role="graphics-object" aria-roledescription="text mark container"><text text-anchor="start" transform="translate(36.57142857142857,12.772727272727273)" font-family="sans-serif" font-size="11px" fill="black"><tspan>Target</tspan><tspan x="0" dy="13">Extent</tspan></text></g><g class="mark-rect role-mark child_layer_1_layer_1_marks" role="graphics-symbol" aria-roledescription="rect mark container"><path d="M36.57142857142857,0h36.57142857142857v130h-36.57142857142857Z" fill="gray" opacity="0.25"></path></g></g><path class="foreground" aria-hidden="true" d="" display="none"></path></g><g transform="translate(141,0)"><path class="background" aria-hidden="true" d="M0.5,0.5h128v130h-128Z" stroke="#ddd"></path><g><g class="mark-group role-axis" aria-hidden="true"><g transform="translate(0.5,130.5)"><path class="background" aria-hidden="true" d="M0,0h0v0h0Z" pointer-events="none"></path><g><g class="mark-rule role-axis-grid" pointer-events="none"><line transform="translate(0,-130)" x2="0" y2="130" stroke="#ddd" stroke-width="1" opacity="1"></line><line transform="translate(37,-130)" x2="0" y2="130" stroke="#ddd" stroke-width="1" opacity="1"></line><line transform="translate(73,-130)" x2="0" y2="130" stroke="#ddd" stroke-width="1" opacity="1"></line><line transform="translate(110,-130)" x2="0" y2="130" stroke="#ddd" stroke-width="1" opacity="1"></line></g></g><path class="foreground" aria-hidden="true" d="" pointer-events="none" display="none"></path></g></g><g class="mark-group role-axis" aria-hidden="true"><g transform="translate(0.5,0.5)"><path class="background" aria-hidden="true" d="M0,0h0v0h0Z" pointer-events="none"></path><g><g class="mark-rule role-axis-grid" pointer-events="none"><line transform="translate(0,124)" x2="128" y2="0" stroke="#ddd" stroke-width="1" opacity="1"></line><line transform="translate(0,95)" x2="128" y2="0" stroke="#ddd" stroke-width="1" opacity="1"></line><line transform="translate(0,65)" x2="128" y2="0" stroke="#ddd" stroke-width="1" opacity="1"></line><line transform="translate(0,35)" x2="128" y2="0" stroke="#ddd" stroke-width="1" opacity="1"></line><line transform="translate(0,6)" x2="128" y2="0" stroke="#ddd" stroke-width="1" opacity="1"></line></g></g><path class="foreground" aria-hidden="true" d="" pointer-events="none" display="none"></path></g></g><g class="mark-group role-scope child_layer_0_layer_0_pathgroup" role="graphics-object" aria-roledescription="group mark container"><g transform="translate(0,0)"><path class="background" aria-hidden="true" d="M0,0h128v130h-128Z"></path><g><g class="mark-line role-mark child_layer_0_layer_0_marks" role="graphics-object" aria-roledescription="line mark container"><path aria-label="Time (s): -0.96875; Source: other; Decoding Correlation: 0.00933884707839" role="graphics-symbol" aria-roledescription="line mark" d="M1.1428571428571428,89.0270449082237L4.571428571428571,87.53108866419429L8,86.3066268972526L11.428571428571429,90.18491186843839L14.857142857142858,90.32809007106434L18.285714285714285,89.29480737883738L21.714285714285715,87.66285144367312L25.142857142857142,90.9872474512575L28.571428571428573,91.09675297575674L32,94.59698659086153L35.42857142857143,95.58703689192211L38.857142857142854,93.5109155853477L42.285714285714285,90.06439647106001L45.714285714285715,88.15573879770172L49.142857142857146,85.02179887287149L52.57142857142857,81.06752532922351L56,80.7615349379685L59.42857142857143,77.06478719482513L62.857142857142854,76.33553642808664L66.28571428571429,75.35466776611433L69.71428571428571,75.7947397906892L73.14285714285714,83.91428041832395L76.57142857142857,88.41566522101886L80,86.34943712977366L83.42857142857143,83.03167210365542L86.85714285714286,85.35154103951487L90.28571428571429,87.04494180395764L93.71428571428571,80.29716502351619L97.14285714285714,78.66730191728277L100.57142857142857,70.94114839024239L104,77.70138904619533L107.42857142857143,86.50896406354384L110.85714285714286,83.11549754700552L114.28571428571429,76.60947092445475L117.71428571428571,66.25887831983843L121.14285714285714,58.10451681711013L124.57142857142857,47.72228960104745" stroke="#2C2C2C" stroke-width="2" stroke-linejoin="round"></path></g></g><path class="foreground" aria-hidden="true" d="" display="none"></path></g><g transform="translate(0,0)"><path class="background" aria-hidden="true" d="M0,0h128v130h-128Z"></path><g><g class="mark-line role-mark child_layer_0_layer_0_marks" role="graphics-object" aria-roledescription="line mark container"><path aria-label="Time (s): -0.96875; Source: spatial; Decoding Correlation: 0.0401701227211" role="graphics-symbol" aria-roledescription="line mark" d="M1.1428571428571428,70.80856384662836L4.571428571428571,69.86700765599004L8,68.80430428629214L11.428571428571429,72.01817274174086L14.857142857142858,76.74440260093381L18.285714285714285,78.40168680950462L21.714285714285715,82.04008114053008L25.142857142857142,80.8790238777333L28.571428571428573,79.72575922726212L32,77.03602037882217L35.42857142857143,79.20068861148874L38.857142857142854,82.29140535770613L42.285714285714285,90.89611015034174L45.714285714285715,85.72111897091465L49.142857142857146,78.86086689025038L52.57142857142857,77.44095681823444L56,69.13868761811538L59.42857142857143,68.01470112889105L62.857142857142854,61.846485563967335L66.28571428571429,57.317418232596694L69.71428571428571,47.898355379867574L73.14285714285714,27.37667938042747L76.57142857142857,30.08729353899943L80,34.495184221022846L83.42857142857143,41.57154842007173L86.85714285714286,43.707450538222155L90.28571428571429,43.63501911668337L93.71428571428571,52.42342857689613L97.14285714285714,55.93055984404596L100.57142857142857,68.14352581218861L104,85.29926503376107L107.42857142857143,83.86468553439018L110.85714285714286,89.41060884812721L114.28571428571429,91.22578736228833L117.71428571428571,88.91243348481572L121.14285714285714,90.68591055775155L124.57142857142857,80.72032658593736" stroke="#687B3E" stroke-width="2" stroke-linejoin="round"></path></g></g><path class="foreground" aria-hidden="true" d="" display="none"></path></g></g><g class="mark-group role-scope child_layer_0_layer_1_layer_0_pathgroup" role="graphics-object" aria-roledescription="group mark container"><g transform="translate(0,0)"><path class="background" aria-hidden="true" d="M0,0h128v130h-128Z"></path><g><g class="mark-area role-mark child_layer_0_layer_1_layer_0_marks" role="graphics-object" aria-roledescription="area mark container"><path aria-label=": -0.00408520835977; upper_lower: 0.0234639275422; Time (s): -0.96875; Source: other; upper: 0.0234639275422; lower: -0.00408520835977" role="graphics-symbol" aria-roledescription="errorband" d="M1.1428571428571428,96.95944130350053L4.571428571428571,94.78541403635265L8,93.02222444432289L11.428571428571429,97.0326018635904L14.857142857142858,97.03239630427704L18.285714285714285,95.75509352340767L21.714285714285715,94.67198741079427L25.142857142857142,98.48691247397237L28.571428571428573,99.86925685039256L32,102.97265455313249L35.42857142857143,104.46433743887252L38.857142857142854,101.62313381548319L42.285714285714285,98.47238798179143L45.714285714285715,97.26523254287696L49.142857142857146,94.10542032330872L52.57142857142857,89.76845292282563L56,88.85578101778766L59.42857142857143,85.10517737116737L62.857142857142854,83.71680744857696L66.28571428571429,81.68784191673669L69.71428571428571,82.30827430138959L73.14285714285714,90.75504790290142L76.57142857142857,95.25845238906277L80,92.0941640353519L83.42857142857143,88.7609817022323L86.85714285714286,90.19541249615126L90.28571428571429,92.25816715242551L93.71428571428571,86.48980319291964L97.14285714285714,84.90427891593889L100.57142857142857,77.06565724764214L104,84.92780239469216L107.42857142857143,93.48177956200101L110.85714285714286,89.98333675992937L114.28571428571429,84.46772255379305L117.71428571428571,74.61911390444827L121.14285714285714,65.10762561720433L124.57142857142857,55.125524999991136L124.57142857142857,39.951673296959044L121.14285714285714,50.280429408712216L117.71428571428571,57.789143829613074L114.28571428571429,68.91012868842746L110.85714285714286,76.62545189118246L107.42857142857143,79.73213328674237L104,70.67645501705128L100.57142857142857,65.20898176972703L97.14285714285714,72.39535536433903L93.71428571428571,73.99874171027365L90.28571428571429,81.97582747017125L86.85714285714286,80.63400165445239L83.42857142857143,77.10239113917142L80,80.68848413969013L76.57142857142857,81.27790444221148L73.14285714285714,76.92947312571165L69.71428571428571,69.14984957867094L66.28571428571429,69.16360629762507L62.857142857142854,69.11931481530843L59.42857142857143,69.30430310761126L56,73.20021471093135L52.57142857142857,72.49357450020858L49.142857142857146,76.60748432405377L45.714285714285715,79.52765963463241L42.285714285714285,81.82199763959667L38.857142857142854,85.15946050655867L35.42857142857143,86.58575123818397L32,85.35417959199941L28.571428571428573,81.69036184360154L25.142857142857142,83.51661069474282L21.714285714285715,80.48216509446124L18.285714285714285,82.63590820750876L14.857142857142858,83.58887734552157L11.428571428571429,83.48286524789859L8,80.03982806645072L4.571428571428571,80.1064087333732L1.1428571428571428,80.68040645235304Z" fill="#2C2C2C" opacity="0.3"></path></g></g><path class="foreground" aria-hidden="true" d="" display="none"></path></g><g transform="translate(0,0)"><path class="background" aria-hidden="true" d="M0,0h128v130h-128Z"></path><g><g class="mark-area role-mark child_layer_0_layer_1_layer_0_marks" role="graphics-object" aria-roledescription="area mark container"><path aria-label=": 0.0212202851834; upper_lower: 0.0590126225975; Time (s): -0.96875; Source: spatial; upper: 0.0590126225975; lower: 0.0212202851834" role="graphics-symbol" aria-roledescription="errorband" d="M1.1428571428571428,82.00619511888803L4.571428571428571,79.7307515089711L8,77.26765774383341L11.428571428571429,81.5527656000625L14.857142857142858,86.0385577989091L18.285714285714285,88.94298201733693L21.714285714285715,91.04421232055967L25.142857142857142,88.81504491006186L28.571428571428573,89.06741998169869L32,87.03142136896099L35.42857142857143,89.81993234057506L38.857142857142854,93.95908854805784L42.285714285714285,101.28534946382014L45.714285714285715,95.87597964079309L49.142857142857146,89.83045656538698L52.57142857142857,87.80009424897221L56,80.51079814912276L59.42857142857143,78.8531539223756L62.857142857142854,74.82662757340078L66.28571428571429,70.47873858306153L69.71428571428571,61.25586608745143L73.14285714285714,39.835872676038925L76.57142857142857,44.25465936158184L80,48.67939465615983L83.42857142857143,54.08963221010461L86.85714285714286,54.03987836931656L90.28571428571429,54.06825769902772L93.71428571428571,62.4505844004526L97.14285714285714,66.12016320354496L100.57142857142857,78.77806826776778L104,94.26608035388675L107.42857142857143,92.50585435805982L110.85714285714286,98.21850475615373L114.28571428571429,100.62819613757955L117.71428571428571,97.18858367527199L121.14285714285714,99.8666855949501L124.57142857142857,91.19215081105634L124.57142857142857,70.01468290108234L121.14285714285714,81.4185928075442L117.71428571428571,80.75686946404582L114.28571428571429,81.95184487741115L110.85714285714286,81.40787729704559L107.42857142857143,75.84711705227004L104,77.0665021328615L100.57142857142857,58.03075297450097L97.14285714285714,45.702321649987546L93.71428571428571,42.1619902971033L90.28571428571429,33.44686873863105L86.85714285714286,33.085948206747645L83.42857142857143,28.59558900476033L80,20.369645280033886L76.57142857142857,15.92151044100013L73.14285714285714,14.645251994275235L69.71428571428571,33.9475902537506L66.28571428571429,44.0068330322777L62.857142857142854,48.56968566277081L59.42857142857143,57.90441510611127L56,58.32763037006512L52.57142857142857,67.05505058201467L49.142857142857146,68.53890540736518L45.714285714285715,75.35173282604751L42.285714285714285,80.1659495380209L38.857142857142854,70.63833361806985L35.42857142857143,68.64466107850694L32,66.66610907918167L28.571428571428573,70.17126967470674L25.142857142857142,72.82055769738214L21.714285714285715,72.89631862648183L18.285714285714285,67.45903844453488L14.857142857142858,66.43258768787061L11.428571428571429,61.83490258431582L8,59.89462180962562L4.571428571428571,59.90052833435423L1.1428571428571428,59.6743593741753Z" fill="#687B3E" opacity="0.3"></path></g></g><path class="foreground" aria-hidden="true" d="" display="none"></path></g></g><g class="mark-text role-mark child_layer_0_layer_2_marks" role="graphics-object" aria-roledescription="text mark container"><text aria-label=": 1.46875; Source: spatial; Mean of upper: 0.106337822285; train_type_lbl: Target,Source" role="graphics-symbol" aria-roledescription="text mark" text-anchor="start" transform="translate(93.28571428571429,25.70946865004633)" font-family="sans-serif" font-size="11px" fill="#687B3E"><tspan>Target</tspan><tspan x="0" dy="13">Source</tspan></text></g><g class="mark-text role-mark child_layer_0_layer_3_marks" role="graphics-object" aria-roledescription="text mark container"><text aria-label=": 1.28125; Source: other; Mean of lower: 0.00978910788853; train_type_lbl: Other,Sources" role="graphics-symbol" aria-roledescription="text mark" text-anchor="end" transform="translate(86.42857142857143,106.7609817022323)" font-family="sans-serif" font-size="11px" fill="#2C2C2C"><tspan>Other</tspan><tspan x="0" dy="13">Sources</tspan></text></g><g class="mark-text role-mark child_layer_1_layer_0_marks" role="graphics-object" aria-roledescription="text mark container"><text text-anchor="start" transform="translate(36.57142857142857,12.772727272727273)" font-family="sans-serif" font-size="11px" fill="black"><tspan>Target</tspan><tspan x="0" dy="13">Extent</tspan></text></g><g class="mark-rect role-mark child_layer_1_layer_1_marks" role="graphics-symbol" aria-roledescription="rect mark container"><path d="M36.57142857142857,0h36.57142857142857v130h-36.57142857142857Z" fill="gray" opacity="0.25"></path></g></g><path class="foreground" aria-hidden="true" d="" display="none"></path></g><g transform="translate(282,0)"><path class="background" aria-hidden="true" d="M0.5,0.5h128v130h-128Z" stroke="#ddd"></path><g><g class="mark-group role-axis" aria-hidden="true"><g transform="translate(0.5,130.5)"><path class="background" aria-hidden="true" d="M0,0h0v0h0Z" pointer-events="none"></path><g><g class="mark-rule role-axis-grid" pointer-events="none"><line transform="translate(0,-130)" x2="0" y2="130" stroke="#ddd" stroke-width="1" opacity="1"></line><line transform="translate(37,-130)" x2="0" y2="130" stroke="#ddd" stroke-width="1" opacity="1"></line><line transform="translate(73,-130)" x2="0" y2="130" stroke="#ddd" stroke-width="1" opacity="1"></line><line transform="translate(110,-130)" x2="0" y2="130" stroke="#ddd" stroke-width="1" opacity="1"></line></g></g><path class="foreground" aria-hidden="true" d="" pointer-events="none" display="none"></path></g></g><g class="mark-group role-axis" aria-hidden="true"><g transform="translate(0.5,0.5)"><path class="background" aria-hidden="true" d="M0,0h0v0h0Z" pointer-events="none"></path><g><g class="mark-rule role-axis-grid" pointer-events="none"><line transform="translate(0,124)" x2="128" y2="0" stroke="#ddd" stroke-width="1" opacity="1"></line><line transform="translate(0,95)" x2="128" y2="0" stroke="#ddd" stroke-width="1" opacity="1"></line><line transform="translate(0,65)" x2="128" y2="0" stroke="#ddd" stroke-width="1" opacity="1"></line><line transform="translate(0,35)" x2="128" y2="0" stroke="#ddd" stroke-width="1" opacity="1"></line><line transform="translate(0,6)" x2="128" y2="0" stroke="#ddd" stroke-width="1" opacity="1"></line></g></g><path class="foreground" aria-hidden="true" d="" pointer-events="none" display="none"></path></g></g><g class="mark-group role-scope child_layer_0_layer_0_pathgroup" role="graphics-object" aria-roledescription="group mark container"><g transform="translate(0,0)"><path class="background" aria-hidden="true" d="M0,0h128v130h-128Z"></path><g><g class="mark-line role-mark child_layer_0_layer_0_marks" role="graphics-object" aria-roledescription="line mark container"><path aria-label="Time (s): -0.96875; Source: object; Decoding Correlation: 0.0247459617046" role="graphics-symbol" aria-roledescription="line mark" d="M1.1428571428571428,79.92284081089774L4.571428571428571,81.86150669513844L8,81.78632168605625L11.428571428571429,83.25841610277966L14.857142857142858,84.37741826014162L18.285714285714285,85.73741804410987L21.714285714285715,86.51068506664659L25.142857142857142,85.13249412203824L28.571428571428573,84.97687923459219L32,80.17441508008359L35.42857142857143,81.15393755245L38.857142857142854,86.09789858004548L42.285714285714285,89.30079227831922L45.714285714285715,87.9984219410645L49.142857142857146,85.83651052481915L52.57142857142857,88.89939006958049L56,85.83292576866728L59.42857142857143,78.42468232886503L62.857142857142854,72.13116940346598L66.28571428571429,69.26459053052145L69.71428571428571,60.972796314226514L73.14285714285714,48.54801426887674L76.57142857142857,47.955432570406295L80,51.022942952752516L83.42857142857143,58.59046982996902L86.85714285714286,61.98756195133924L90.28571428571429,67.57436974838211L93.71428571428571,73.58052947060656L97.14285714285714,76.03520734434021L100.57142857142857,82.96274609599436L104,83.59212667485525L107.42857142857143,85.50451341808729L110.85714285714286,92.94489855464023L114.28571428571429,95.52990984834494L117.71428571428571,88.6978165379198L121.14285714285714,90.16475041657968L124.57142857142857,83.60355387678523" stroke="#EB9A60" stroke-width="2" stroke-linejoin="round"></path></g></g><path class="foreground" aria-hidden="true" d="" display="none"></path></g><g transform="translate(0,0)"><path class="background" aria-hidden="true" d="M0,0h128v130h-128Z"></path><g><g class="mark-line role-mark child_layer_0_layer_0_marks" role="graphics-object" aria-roledescription="line mark container"><path aria-label="Time (s): -0.96875; Source: other; Decoding Correlation: 0.0104822018018" role="graphics-symbol" aria-roledescription="line mark" d="M1.1428571428571428,88.35142620804142L4.571428571428571,88.43964786275966L8,88.7844269009041L11.428571428571429,90.8201457267254L14.857142857142858,93.73657591769346L18.285714285714285,92.71435336045677L21.714285714285715,90.76398467076334L25.142857142857142,94.69702444666657L28.571428571428573,95.89908810261358L32,96.1667743212701L35.42857142857143,92.62850177381877L38.857142857142854,89.91348506895196L42.285714285714285,84.85638858530258L45.714285714285715,79.9648390701225L49.142857142857146,77.98933986690362L52.57142857142857,73.89993270779817L56,74.42563482756219L59.42857142857143,75.26625783590625L62.857142857142854,70.0973693403708L66.28571428571429,71.82399370873296L69.71428571428571,73.92940195868425L73.14285714285714,77.823934314626L76.57142857142857,78.95535687118239L80,81.00502337417964L83.42857142857143,83.96325517121056L86.85714285714286,86.05811150089033L90.28571428571429,88.81929501722539L93.71428571428571,85.70133562340347L97.14285714285714,83.58244734723267L100.57142857142857,83.79357817983589L104,89.27932012318621L107.42857142857143,90.78129574715493L110.85714285714286,91.26650980871035L114.28571428571429,85.73432146675671L117.71428571428571,83.48289883703686L121.14285714285714,72.97727863682597L124.57142857142857,65.95728112521951" stroke="#2C2C2C" stroke-width="2" stroke-linejoin="round"></path></g></g><path class="foreground" aria-hidden="true" d="" display="none"></path></g></g><g class="mark-group role-scope child_layer_0_layer_1_layer_0_pathgroup" role="graphics-object" aria-roledescription="group mark container"><g transform="translate(0,0)"><path class="background" aria-hidden="true" d="M0,0h128v130h-128Z"></path><g><g class="mark-area role-mark child_layer_0_layer_1_layer_0_marks" role="graphics-object" aria-roledescription="area mark container"><path aria-label=": 0.0124907758542; upper_lower: 0.0377262385523; Time (s): -0.96875; Source: object; upper: 0.0377262385523; lower: 0.0124907758542" role="graphics-symbol" aria-roledescription="errorband" d="M1.1428571428571428,87.1645415407171L4.571428571428571,89.03428713252569L8,89.61615333725898L11.428571428571429,91.94957480656349L14.857142857142858,92.54756236421868L18.285714285714285,93.9880374989784L21.714285714285715,94.51761009541283L25.142857142857142,93.9513584330946L28.571428571428573,94.16075539258739L32,88.86947132656631L35.42857142857143,90.16994273493216L38.857142857142854,95.10297675636318L42.285714285714285,98.45888044445361L45.714285714285715,96.35447376113731L49.142857142857146,94.07144597871476L52.57142857142857,95.70232742568221L56,92.21173065710809L59.42857142857143,85.87633379922656L62.857142857142854,80.74927858937048L66.28571428571429,78.00765291189975L69.71428571428571,68.93109504589016L73.14285714285714,55.465709487123554L76.57142857142857,56.135811316651164L80,58.90910220392813L83.42857142857143,64.98200018004874L86.85714285714286,68.17272882189394L90.28571428571429,73.78020646656358L93.71428571428571,80.39269191621099L97.14285714285714,82.71114124168919L100.57142857142857,90.51938315979805L104,93.22282360025068L107.42857142857143,95.09698683003302L110.85714285714286,101.78664788495172L114.28571428571429,104.337737212137L117.71428571428571,97.70547751007432L121.14285714285714,98.06033337552482L124.57142857142857,92.08836454811365L124.57142857142857,75.218088555993L121.14285714285714,82.069305071585L117.71428571428571,80.21407504085228L114.28571428571429,86.96121656223622L110.85714285714286,84.01556755746208L107.42857142857143,75.44860905930061L104,74.78508034426285L100.57142857142857,75.84707405796925L97.14285714285714,70.0481412524746L93.71428571428571,67.1465084659717L90.28571428571429,61.05080846809711L86.85714285714286,55.57767044322111L83.42857142857143,52.159022996461474L80,43.23776857455191L76.57142857142857,39.60764473723819L73.14285714285714,41.742765637317966L69.71428571428571,52.72543558506133L66.28571428571429,60.530999172963604L62.857142857142854,63.612578450454954L59.42857142857143,70.89036284551017L56,79.50998668690451L52.57142857142857,81.67684097866854L49.142857142857146,77.93209128321924L45.714285714285715,79.88189346634789L42.285714285714285,80.22753138657545L38.857142857142854,77.1338817157142L35.42857142857143,72.38988042233785L32,71.02749901016134L28.571428571428573,75.59051270858843L25.142857142857142,75.70694091285631L21.714285714285715,78.11765754200349L18.285714285714285,77.52473409925874L14.857142857142858,76.37252472042516L11.428571428571429,74.56197914429666L8,74.01643298731923L4.571428571428571,74.26869434686633L1.1428571428571428,72.25267721909667Z" fill="#EB9A60" opacity="0.3"></path></g></g><path class="foreground" aria-hidden="true" d="" display="none"></path></g><g transform="translate(0,0)"><path class="background" aria-hidden="true" d="M0,0h128v130h-128Z"></path><g><g class="mark-area role-mark child_layer_0_layer_1_layer_0_marks" role="graphics-object" aria-roledescription="area mark container"><path aria-label=": -0.000664403173118; upper_lower: 0.0214100739851; Time (s): -0.96875; Source: other; upper: 0.0214100739851; lower: -0.000664403173118" role="graphics-symbol" aria-roledescription="errorband" d="M1.1428571428571428,94.93805642047894L4.571428571428571,94.80550485514722L8,94.95448789577047L11.428571428571429,96.52226654286186L14.857142857142858,98.49985102607293L18.285714285714285,97.06013631047195L21.714285714285715,94.77951041632629L25.142857142857142,99.25731043257854L28.571428571428573,100.87174099968863L32,101.87866962483031L35.42857142857143,98.82566746959156L38.857142857142854,96.17399372308758L42.285714285714285,90.44584324586252L45.714285714285715,85.33079563711767L49.142857142857146,82.7374315842428L52.57142857142857,79.53263939035888L56,79.53408794534471L59.42857142857143,80.23263155378667L62.857142857142854,75.25847747686588L66.28571428571429,76.74065957507955L69.71428571428571,78.81611920768583L73.14285714285714,82.75487069835899L76.57142857142857,84.12832449170536L80,85.85451993497215L83.42857142857143,88.58553573732007L86.85714285714286,91.8897343722179L90.28571428571429,94.71609973184779L93.71428571428571,91.40581235242634L97.14285714285714,89.29767479353578L100.57142857142857,89.42934529793932L104,94.10786471075245L107.42857142857143,96.555479230709L110.85714285714286,96.94778638272918L114.28571428571429,91.90966201130502L117.71428571428571,89.4385370707691L121.14285714285714,79.17153127596596L124.57142857142857,71.89513410892847L124.57142857142857,59.55952315851968L121.14285714285714,66.55709602302967L117.71428571428571,77.2750375804781L114.28571428571429,79.36738010612113L110.85714285714286,85.55358039153037L107.42857142857143,85.31491550362561L104,84.46482963130826L100.57142857142857,78.27557537081222L97.14285714285714,78.32739918267895L93.71428571428571,80.80560664232574L90.28571428571429,83.48592535447402L86.85714285714286,80.5633208786313L83.42857142857143,79.2326802767393L80,76.11834390861075L76.57142857142857,73.62600700754687L73.14285714285714,73.05604390880877L69.71428571428571,69.18364920290342L66.28571428571429,67.07411402790592L62.857142857142854,64.94173765642815L59.42857142857143,70.00097620270502L56,69.35826742353274L52.57142857142857,68.35314667115755L49.142857142857146,72.90652906515537L45.714285714285715,74.414900932405L42.285714285714285,79.27593799187957L38.857142857142854,83.9519671806546L35.42857142857143,86.755824747773L32,90.609667972793L28.571428571428573,91.07582782444643L25.142857142857142,90.06125313262659L21.714285714285715,86.63951471155433L18.285714285714285,88.53653883668287L14.857142857142858,89.3251649716223L11.428571428571429,85.33109872520184L8,82.55419866306916L4.571428571428571,81.98362797567782L1.1428571428571428,81.89404719059472Z" fill="#2C2C2C" opacity="0.3"></path></g></g><path class="foreground" aria-hidden="true" d="" display="none"></path></g></g><g class="mark-text role-mark child_layer_0_layer_2_marks" role="graphics-object" aria-roledescription="text mark container"><text aria-label=": 1.46875; Source: object; Mean of upper: 0.0647865373854; train_type_lbl: Target,Source" role="graphics-symbol" aria-roledescription="text mark" text-anchor="start" transform="translate(93.28571428571429,50.26250063592657)" font-family="sans-serif" font-size="11px" fill="#EB9A60"><tspan>Target</tspan><tspan x="0" dy="13">Source</tspan></text></g><g class="mark-text role-mark child_layer_0_layer_3_marks" role="graphics-object" aria-roledescription="text mark container"><text aria-label=": 1.28125; Source: other; Mean of lower: 0.0100860164445; train_type_lbl: Other,Sources" role="graphics-symbol" aria-roledescription="text mark" text-anchor="end" transform="translate(86.42857142857143,106.58553573732007)" font-family="sans-serif" font-size="11px" fill="#2C2C2C"><tspan>Other</tspan><tspan x="0" dy="13">Sources</tspan></text></g><g class="mark-text role-mark child_layer_1_layer_0_marks" role="graphics-object" aria-roledescription="text mark container"><text text-anchor="start" transform="translate(36.57142857142857,12.772727272727273)" font-family="sans-serif" font-size="11px" fill="black"><tspan>Target</tspan><tspan x="0" dy="13">Extent</tspan></text></g><g class="mark-rect role-mark child_layer_1_layer_1_marks" role="graphics-symbol" aria-roledescription="rect mark container"><path d="M36.57142857142857,0h36.57142857142857v130h-36.57142857142857Z" fill="gray" opacity="0.25"></path></g></g><path class="foreground" aria-hidden="true" d="" display="none"></path></g></g></g><path class="foreground" aria-hidden="true" d="" display="none"></path></g></g></g></svg>
