<?xml version="1.0" encoding="utf-8"?>
<!DOCTYPE svg PUBLIC "-//W3C//DTD SVG 1.1//EN" "http://www.w3.org/Graphics/SVG/1.1/DTD/svg11.dtd">
<svg class="marks" width="476" height="195" viewBox="0 0 476 195" version="1.1" xmlns="http://www.w3.org/2000/svg" xmlns:xlink="http://www.w3.org/1999/xlink"><rect width="476" height="195" fill="white"></rect><g fill="none" stroke-miterlimit="10" transform="translate(55,26)"><g class="mark-group role-frame root" role="graphics-object" aria-roledescription="group mark container"><g transform="translate(0,0)"><path class="background" aria-hidden="true" d="M0,0h0v0h0Z"></path><g><g class="mark-group role-row-header row_header" role="graphics-object" aria-roledescription="group mark container"><g transform="translate(-2,0)"><path class="background" aria-hidden="true" d="M0,0h0v130h0Z"></path><g><g class="mark-group role-axis" role="graphics-symbol" aria-roledescription="axis" aria-label="Y-axis titled 'Decoding Correlation' for a linear scale with values from -0.06 to 0.16"><g transform="translate(0.5,0.5)"><path class="background" aria-hidden="true" d="M0,0h0v0h0Z" pointer-events="none"></path><g><g class="mark-rule role-axis-tick" pointer-events="none"><line transform="translate(0,124)" x2="-5" y2="0" stroke="#888" stroke-width="1" opacity="1"></line><line transform="translate(0,95)" x2="-5" y2="0" stroke="#888" stroke-width="1" opacity="1"></line><line transform="translate(0,65)" x2="-5" y2="0" stroke="#888" stroke-width="1" opacity="1"></line><line transform="translate(0,35)" x2="-5" y2="0" stroke="#888" stroke-width="1" opacity="1"></line><line transform="translate(0,6)" x2="-5" y2="0" stroke="#888" stroke-width="1" opacity="1"></line></g><g class="mark-text role-axis-label" pointer-events="none"><text text-anchor="end" transform="translate(-7,127.0909090909091)" font-family="sans-serif" font-size="10px" fill="#000" opacity="1">-0.05</text><text text-anchor="end" transform="translate(-7,97.54545454545455)" font-family="sans-serif" font-size="10px" fill="#000" opacity="1">0.00</text><text text-anchor="end" transform="translate(-7,68)" font-family="sans-serif" font-size="10px" fill="#000" opacity="1">0.05</text><text text-anchor="end" transform="translate(-7,38.45454545454545)" font-family="sans-serif" font-size="10px" fill="#000" opacity="1">0.10</text><text text-anchor="end" transform="translate(-7,8.909090909090917)" font-family="sans-serif" font-size="10px" fill="#000" opacity="1">0.15</text></g><g class="mark-rule role-axis-domain" pointer-events="none"><line transform="translate(0,130)" x2="0" y2="-130" stroke="#888" stroke-width="1" opacity="1"></line></g><g class="mark-text role-axis-title" pointer-events="none"><text text-anchor="middle" transform="translate(-36,65) rotate(-90) translate(0,-2)" font-family="sans-serif" font-size="11px" font-weight="bold" fill="#000" opacity="1">Decoding Correlation</text></g></g><path class="foreground" aria-hidden="true" d="" pointer-events="none" display="none"></path></g></g></g><path class="foreground" aria-hidden="true" d="" display="none"></path></g></g><g class="mark-group role-column-header column_header" role="graphics-object" aria-roledescription="group mark container"><g transform="translate(0,-1)"><path class="background" aria-hidden="true" d="M0,0h128v0h-128Z"></path><g><g class="mark-group role-title"><g transform="translate(64,-20)"><path class="background" aria-hidden="true" d="M0,0h0v0h0Z" pointer-events="none"></path><g><g class="mark-text role-title-text" role="graphics-symbol" aria-roledescription="title" aria-label="Title text 'Global'" pointer-events="none"><text text-anchor="middle" transform="translate(0,8)" font-family="sans-serif" font-size="10px" font-weight="bold" fill="#000" opacity="1">Global</text></g></g><path class="foreground" aria-hidden="true" d="" pointer-events="none" display="none"></path></g></g></g><path class="foreground" aria-hidden="true" d="" display="none"></path></g><g transform="translate(141,-1)"><path class="background" aria-hidden="true" d="M0,0h128v0h-128Z"></path><g><g class="mark-group role-title"><g transform="translate(64,-20)"><path class="background" aria-hidden="true" d="M0,0h0v0h0Z" pointer-events="none"></path><g><g class="mark-text role-title-text" role="graphics-symbol" aria-roledescription="title" aria-label="Title text 'Spatial'" pointer-events="none"><text text-anchor="middle" transform="translate(0,8)" font-family="sans-serif" font-size="10px" font-weight="bold" fill="#000" opacity="1">Spatial</text></g></g><path class="foreground" aria-hidden="true" d="" pointer-events="none" display="none"></path></g></g></g><path class="foreground" aria-hidden="true" d="" display="none"></path></g><g transform="translate(282,-1)"><path class="background" aria-hidden="true" d="M0,0h128v0h-128Z"></path><g><g class="mark-group role-title"><g transform="translate(64,-20)"><path class="background" aria-hidden="true" d="M0,0h0v0h0Z" pointer-events="none"></path><g><g class="mark-text role-title-text" role="graphics-symbol" aria-roledescription="title" aria-label="Title text 'Object'" pointer-events="none"><text text-anchor="middle" transform="translate(0,8)" font-family="sans-serif" font-size="10px" font-weight="bold" fill="#000" opacity="1">Object</text></g></g><path class="foreground" aria-hidden="true" d="" pointer-events="none" display="none"></path></g></g></g><path class="foreground" aria-hidden="true" d="" display="none"></path></g></g><g class="mark-group role-column-footer column_footer" role="graphics-object" aria-roledescription="group mark container"><g transform="translate(0,132)"><path class="background" aria-hidden="true" d="M0,0h128v0h-128Z"></path><g><g class="mark-group role-axis" role="graphics-symbol" aria-roledescription="axis" aria-label="X-axis titled 'Time (s)' for a linear scale with values from -1.0 to 2.5"><g transform="translate(0.5,0.5)"><path class="background" aria-hidden="true" d="M0,0h0v0h0Z" pointer-events="none"></path><g><g class="mark-rule role-axis-tick" pointer-events="none"><line transform="translate(0,0)" x2="0" y2="5" stroke="#888" stroke-width="1" opacity="1"></line><line transform="translate(37,0)" x2="0" y2="5" stroke="#888" stroke-width="1" opacity="1"></line><line transform="translate(73,0)" x2="0" y2="5" stroke="#888" stroke-width="1" opacity="1"></line><line transform="translate(110,0)" x2="0" y2="5" stroke="#888" stroke-width="1" opacity="1"></line></g><g class="mark-text role-axis-label" pointer-events="none"><text text-anchor="start" transform="translate(0,15)" font-family="sans-serif" font-size="10px" fill="#000" opacity="1">-1</text><text text-anchor="middle" transform="translate(36.57142857142857,15)" font-family="sans-serif" font-size="10px" fill="#000" opacity="1">0</text><text text-anchor="middle" transform="translate(73.14285714285714,15)" font-family="sans-serif" font-size="10px" fill="#000" opacity="1">1</text><text text-anchor="middle" transform="translate(109.71428571428571,15)" font-family="sans-serif" font-size="10px" fill="#000" opacity="1">2</text></g><g class="mark-rule role-axis-domain" pointer-events="none"><line transform="translate(0,0)" x2="128" y2="0" stroke="#888" stroke-width="1" opacity="1"></line></g><g class="mark-text role-axis-title" pointer-events="none"><text text-anchor="middle" transform="translate(64,30)" font-family="sans-serif" font-size="11px" font-weight="bold" fill="#000" opacity="1">Time (s)</text></g></g><path class="foreground" aria-hidden="true" d="" pointer-events="none" display="none"></path></g></g></g><path class="foreground" aria-hidden="true" d="" display="none"></path></g><g transform="translate(141,132)"><path class="background" aria-hidden="true" d="M0,0h128v0h-128Z"></path><g><g class="mark-group role-axis" role="graphics-symbol" aria-roledescription="axis" aria-label="X-axis titled 'Time (s)' for a linear scale with values from -1.0 to 2.5"><g transform="translate(0.5,0.5)"><path class="background" aria-hidden="true" d="M0,0h0v0h0Z" pointer-events="none"></path><g><g class="mark-rule role-axis-tick" pointer-events="none"><line transform="translate(0,0)" x2="0" y2="5" stroke="#888" stroke-width="1" opacity="1"></line><line transform="translate(37,0)" x2="0" y2="5" stroke="#888" stroke-width="1" opacity="1"></line><line transform="translate(73,0)" x2="0" y2="5" stroke="#888" stroke-width="1" opacity="1"></line><line transform="translate(110,0)" x2="0" y2="5" stroke="#888" stroke-width="1" opacity="1"></line></g><g class="mark-text role-axis-label" pointer-events="none"><text text-anchor="start" transform="translate(0,15)" font-family="sans-serif" font-size="10px" fill="#000" opacity="1">-1</text><text text-anchor="middle" transform="translate(36.57142857142857,15)" font-family="sans-serif" font-size="10px" fill="#000" opacity="1">0</text><text text-anchor="middle" transform="translate(73.14285714285714,15)" font-family="sans-serif" font-size="10px" fill="#000" opacity="1">1</text><text text-anchor="middle" transform="translate(109.71428571428571,15)" font-family="sans-serif" font-size="10px" fill="#000" opacity="1">2</text></g><g class="mark-rule role-axis-domain" pointer-events="none"><line transform="translate(0,0)" x2="128" y2="0" stroke="#888" stroke-width="1" opacity="1"></line></g><g class="mark-text role-axis-title" pointer-events="none"><text text-anchor="middle" transform="translate(64,30)" font-family="sans-serif" font-size="11px" font-weight="bold" fill="#000" opacity="1">Time (s)</text></g></g><path class="foreground" aria-hidden="true" d="" pointer-events="none" display="none"></path></g></g></g><path class="foreground" aria-hidden="true" d="" display="none"></path></g><g transform="translate(282,132)"><path class="background" aria-hidden="true" d="M0,0h128v0h-128Z"></path><g><g class="mark-group role-axis" role="graphics-symbol" aria-roledescription="axis" aria-label="X-axis titled 'Time (s)' for a linear scale with values from -1.0 to 2.5"><g transform="translate(0.5,0.5)"><path class="background" aria-hidden="true" d="M0,0h0v0h0Z" pointer-events="none"></path><g><g class="mark-rule role-axis-tick" pointer-events="none"><line transform="translate(0,0)" x2="0" y2="5" stroke="#888" stroke-width="1" opacity="1"></line><line transform="translate(37,0)" x2="0" y2="5" stroke="#888" stroke-width="1" opacity="1"></line><line transform="translate(73,0)" x2="0" y2="5" stroke="#888" stroke-width="1" opacity="1"></line><line transform="translate(110,0)" x2="0" y2="5" stroke="#888" stroke-width="1" opacity="1"></line></g><g class="mark-text role-axis-label" pointer-events="none"><text text-anchor="start" transform="translate(0,15)" font-family="sans-serif" font-size="10px" fill="#000" opacity="1">-1</text><text text-anchor="middle" transform="translate(36.57142857142857,15)" font-family="sans-serif" font-size="10px" fill="#000" opacity="1">0</text><text text-anchor="middle" transform="translate(73.14285714285714,15)" font-family="sans-serif" font-size="10px" fill="#000" opacity="1">1</text><text text-anchor="middle" transform="translate(109.71428571428571,15)" font-family="sans-serif" font-size="10px" fill="#000" opacity="1">2</text></g><g class="mark-rule role-axis-domain" pointer-events="none"><line transform="translate(0,0)" x2="128" y2="0" stroke="#888" stroke-width="1" opacity="1"></line></g><g class="mark-text role-axis-title" pointer-events="none"><text text-anchor="middle" transform="translate(64,30)" font-family="sans-serif" font-size="11px" font-weight="bold" fill="#000" opacity="1">Time (s)</text></g></g><path class="foreground" aria-hidden="true" d="" pointer-events="none" display="none"></path></g></g></g><path class="foreground" aria-hidden="true" d="" display="none"></path></g></g><g class="mark-group role-scope cell" role="graphics-object" aria-roledescription="group mark container"><g transform="translate(0,0)"><path class="background" aria-hidden="true" d="M0.5,0.5h128v130h-128Z" stroke="#ddd"></path><g><g class="mark-group role-axis" aria-hidden="true"><g transform="translate(0.5,130.5)"><path class="background" aria-hidden="true" d="M0,0h0v0h0Z" pointer-events="none"></path><g><g class="mark-rule role-axis-grid" pointer-events="none"><line transform="translate(0,-130)" x2="0" y2="130" stroke="#ddd" stroke-width="1" opacity="1"></line><line transform="translate(37,-130)" x2="0" y2="130" stroke="#ddd" stroke-width="1" opacity="1"></line><line transform="translate(73,-130)" x2="0" y2="130" stroke="#ddd" stroke-width="1" opacity="1"></line><line transform="translate(110,-130)" x2="0" y2="130" stroke="#ddd" stroke-width="1" opacity="1"></line></g></g><path class="foreground" aria-hidden="true" d="" pointer-events="none" display="none"></path></g></g><g class="mark-group role-axis" aria-hidden="true"><g transform="translate(0.5,0.5)"><path class="background" aria-hidden="true" d="M0,0h0v0h0Z" pointer-events="none"></path><g><g class="mark-rule role-axis-grid" pointer-events="none"><line transform="translate(0,124)" x2="128" y2="0" stroke="#ddd" stroke-width="1" opacity="1"></line><line transform="translate(0,95)" x2="128" y2="0" stroke="#ddd" stroke-width="1" opacity="1"></line><line transform="translate(0,65)" x2="128" y2="0" stroke="#ddd" stroke-width="1" opacity="1"></line><line transform="translate(0,35)" x2="128" y2="0" stroke="#ddd" stroke-width="1" opacity="1"></line><line transform="translate(0,6)" x2="128" y2="0" stroke="#ddd" stroke-width="1" opacity="1"></line></g></g><path class="foreground" aria-hidden="true" d="" pointer-events="none" display="none"></path></g></g><g class="mark-group role-scope child_layer_0_layer_0_pathgroup" role="graphics-object" aria-roledescription="group mark container"><g transform="translate(0,0)"><path class="background" aria-hidden="true" d="M0,0h128v130h-128Z"></path><g><g class="mark-line role-mark child_layer_0_layer_0_marks" role="graphics-object" aria-roledescription="line mark container"><path aria-label="Time (s): -0.96875; Source: other; Decoding Correlation: 0.0111420227193" role="graphics-symbol" aria-roledescription="line mark" d="M1.1428571428571428,87.96153202952931L4.571428571428571,87.63635286319489L8,90.10513063085318L11.428571428571429,90.1362283091941L14.857142857142858,91.65027133952333L18.285714285714285,93.26029505075273L21.714285714285715,92.41545945855343L25.142857142857142,91.25801232983633L28.571428571428573,92.27958887724395L32,91.4796486239731L35.42857142857143,93.24510565985268L38.857142857142854,87.34619241412084L42.285714285714285,83.59361056825752L45.714285714285715,78.71007059500087L49.142857142857146,75.17151078238317L52.57142857142857,74.08154236195786L56,76.34106624442943L59.42857142857143,73.58716168862045L62.857142857142854,69.33428077035964L66.28571428571429,67.03897251422735L69.71428571428571,62.502924195704836L73.14285714285714,60.82747223719482L76.57142857142857,64.77297583756695L80,69.18311092226676L83.42857142857143,72.98643885584444L86.85714285714286,74.98265855014672L90.28571428571429,75.74338308737143L93.71428571428571,77.86108388938183L97.14285714285714,80.36867704986274L100.57142857142857,83.19417428877594L104,88.83525706838823L107.42857142857143,93.75974384565527L110.85714285714286,96.38862579335661L114.28571428571429,97.06242211805585L117.71428571428571,96.66680613761507L121.14285714285714,94.7291444459537L124.57142857142857,93.12436839267247" stroke="#2C2C2C" stroke-width="2" stroke-linejoin="round"></path></g></g><path class="foreground" aria-hidden="true" d="" display="none"></path></g><g transform="translate(0,0)"><path class="background" aria-hidden="true" d="M0,0h128v130h-128Z"></path><g><g class="mark-line role-mark child_layer_0_layer_0_marks" role="graphics-object" aria-roledescription="line mark container"><path aria-label="Time (s): -0.96875; Source: global; Decoding Correlation: -0.00351686068289" role="graphics-symbol" aria-roledescription="line mark" d="M1.1428571428571428,96.62359949443776L4.571428571428571,96.61473585952218L8,97.28235976997163L11.428571428571429,97.5989366631505L14.857142857142858,97.7843420591825L18.285714285714285,98.97877383825364L21.714285714285715,99.5962539140025L25.142857142857142,96.29834940682616L28.571428571428573,97.1427772278517L32,99.56886909045176L35.42857142857143,94.42732001775741L38.857142857142854,90.68146069295484L42.285714285714285,86.89660454744268L45.714285714285715,81.31424110502668L49.142857142857146,77.88679666052748L52.57142857142857,75.30298337708236L56,73.39013672144509L59.42857142857143,68.78896202332596L62.857142857142854,59.36870943308223L66.28571428571429,51.791038991936496L69.71428571428571,48.642991218322685L73.14285714285714,41.43694677720957L76.57142857142857,41.45166586558017L80,42.96296727941689L83.42857142857143,46.11941226344431L86.85714285714286,51.59358371570292L90.28571428571429,53.28698879527477L93.71428571428571,55.764671338756266L97.14285714285714,62.26266039697046L100.57142857142857,72.1667155631457L104,80.0773573947144L107.42857142857143,90.06821453238702L110.85714285714286,96.96708561220079L114.28571428571429,93.02251000708789L117.71428571428571,88.04680254970941L121.14285714285714,86.52952623085613L124.57142857142857,89.28065497429797" stroke="#0F3C5F" stroke-width="2" stroke-linejoin="round"></path></g></g><path class="foreground" aria-hidden="true" d="" display="none"></path></g></g><g class="mark-group role-scope child_layer_0_layer_1_layer_0_pathgroup" role="graphics-object" aria-roledescription="group mark container"><g transform="translate(0,0)"><path class="background" aria-hidden="true" d="M0,0h128v130h-128Z"></path><g><g class="mark-area role-mark child_layer_0_layer_1_layer_0_marks" role="graphics-object" aria-roledescription="area mark container"><path aria-label=": 0.00117696359946; upper_lower: 0.0216143621675; Time (s): -0.96875; Source: other; upper: 0.0216143621675; lower: 0.00117696359946" role="graphics-symbol" aria-roledescription="errorband" d="M1.1428571428571428,93.84997605486348L4.571428571428571,93.50978695129461L8,95.95188592507208L11.428571428571429,94.8555879181988L14.857142857142858,96.41135266804436L18.285714285714285,98.88942378366376L21.714285714285715,98.36096093600914L25.142857142857142,97.27193368758037L28.571428571428573,97.82895483339422L32,96.9785941923622L35.42857142857143,98.37413698126439L38.857142857142854,92.34365916042206L42.285714285714285,88.11728858766895L45.714285714285715,83.50580065305198L49.142857142857146,79.80602196667539L52.57142857142857,77.91817345420259L56,80.25801729322062L59.42857142857143,77.70329078341916L62.857142857142854,74.47424428250524L66.28571428571429,72.33668184367448L69.71428571428571,68.28946372019458L73.14285714285714,66.08311625441283L76.57142857142857,69.24907278098378L80,73.75712128253622L83.42857142857143,78.07774837198502L86.85714285714286,79.99792524318494L90.28571428571429,80.66608242264446L93.71428571428571,83.51862386130459L97.14285714285714,86.21298192910707L100.57142857142857,87.9033129088707L104,92.97819259599096L107.42857142857143,98.37644424415686L110.85714285714286,100.8232385930137L114.28571428571429,102.24802493739276L117.71428571428571,102.56770425874143L121.14285714285714,100.63593412286352L124.57142857142857,99.63617003532566L124.57142857142857,86.5168782356328L121.14285714285714,88.66613426603114L117.71428571428571,90.90472454135555L114.28571428571429,92.04566561048459L110.85714285714286,91.96769598679339L107.42857142857143,89.03490782348085L104,84.51348277266686L100.57142857142857,78.14199192460467L97.14285714285714,74.29865799340631L93.71428571428571,71.93469164007281L90.28571428571429,70.65299052456356L86.85714285714286,69.7228262632241L83.42857142857143,67.97915821146103L80,65.14951075809472L76.57142857142857,60.68391340147073L73.14285714285714,55.83483507144846L69.71428571428571,56.78843276224559L66.28571428571429,61.90461710689858L62.857142857142854,64.4085472832321L59.42857142857143,69.57919819274255L56,72.56115131956278L52.57142857142857,70.23665102021221L49.142857142857146,70.31922438388841L45.714285714285715,73.935804756578L42.285714285714285,78.84613589740977L38.857142857142854,81.75057065066142L35.42857142857143,88.12585763823658L32,86.31100605380526L28.571428571428573,86.92802353722736L25.142857142857142,85.35850425826284L21.714285714285715,86.57058491724877L18.285714285714285,87.702329129063L14.857142857142858,86.88403801811646L11.428571428571429,85.40783366074928L8,84.39167888375684L4.571428571428571,81.75540265105423L1.1428571428571428,81.77333144648836Z" fill="#2C2C2C" opacity="0.3"></path></g></g><path class="foreground" aria-hidden="true" d="" display="none"></path></g><g transform="translate(0,0)"><path class="background" aria-hidden="true" d="M0,0h128v130h-128Z"></path><g><g class="mark-area role-mark child_layer_0_layer_1_layer_0_marks" role="graphics-object" aria-roledescription="area mark container"><path aria-label=": -0.015552362823; upper_lower: 0.00825850610806; Time (s): -0.96875; Source: global; upper: 0.00825850610806; lower: -0.015552362823" role="graphics-symbol" aria-roledescription="errorband" d="M1.1428571428571428,103.73548712269186L4.571428571428571,103.23417891412376L8,104.16027522264207L11.428571428571429,104.64348270053058L14.857142857142858,104.00712993413902L18.285714285714285,104.36688949265724L21.714285714285715,105.64381996593954L25.142857142857142,102.98509123935244L28.571428571428573,105.05761182312148L32,106.78914601157196L35.42857142857143,100.7126741562985L38.857142857142854,97.53037919606192L42.285714285714285,93.83359743218918L45.714285714285715,89.82643108828198L49.142857142857146,85.89713970581681L52.57142857142857,82.4966905031075L56,81.79527811635342L59.42857142857143,77.3316075744747L62.857142857142854,68.60157326437339L66.28571428571429,60.43524582064607L69.71428571428571,56.54892814988188L73.14285714285714,49.187418678424265L76.57142857142857,48.92736437969453L80,49.94376566547206L83.42857142857143,52.836147702304835L86.85714285714286,58.62414061169491L90.28571428571429,60.28105929291418L93.71428571428571,63.69347170421351L97.14285714285714,70.29294307050414L100.57142857142857,79.66849708924491L104,87.67835662656164L107.42857142857143,98.21828043772709L110.85714285714286,105.54507083575345L114.28571428571429,102.95987522380446L117.71428571428571,98.57632635345061L121.14285714285714,97.48581937985584L124.57142857142857,101.28133496718986L124.57142857142857,78.38840079361167L121.14285714285714,76.02554129967636L117.71428571428571,77.47468430871734L114.28571428571429,83.07564992325348L110.85714285714286,88.71664771747203L107.42857142857143,82.34627116295201L104,71.90899122654135L100.57142857142857,64.62597245430055L97.14285714285714,54.12764077191926L93.71428571428571,47.902682924861494L90.28571428571429,46.016056544360104L86.85714285714286,44.20654053393307L83.42857142857143,39.30713870473374L80,36.21363208460235L76.57142857142857,34.47517984721582L73.14285714285714,33.84148145810986L69.71428571428571,40.898739209243125L66.28571428571429,43.33852694796481L62.857142857142854,50.17865713167416L59.42857142857143,59.97605428628552L56,64.56684293102643L52.57142857142857,67.93611894716278L49.142857142857146,69.78279274776654L45.714285714285715,72.7749464949378L42.285714285714285,79.94935224782743L38.857142857142854,83.56568275562778L35.42857142857143,87.72871638642299L32,92.05556673737722L28.571428571428573,89.08919789114256L25.142857142857142,89.14408372362747L21.714285714285715,93.16646492065325L18.285714285714285,93.47780845060429L14.857142857142858,91.86088910035521L11.428571428571429,90.16526639629215L8,90.2401362995841L4.571428571428571,89.96511228318785L1.1428571428571428,89.6654282088761Z" fill="#0F3C5F" opacity="0.3"></path></g></g><path class="foreground" aria-hidden="true" d="" display="none"></path></g></g><g class="mark-text role-mark child_layer_0_layer_2_marks" role="graphics-object" aria-roledescription="text mark container"><text aria-label=": 1.46875; Source: global; Mean of upper: 0.0869319439173; train_type_lbl: Target,Source" role="graphics-symbol" aria-roledescription="text mark" text-anchor="start" transform="translate(93.28571428571429,37.1765785943423)" font-family="sans-serif" font-size="11px" fill="#0F3C5F"><tspan>Target</tspan><tspan x="0" dy="13">Source</tspan></text></g><g class="mark-text role-mark child_layer_0_layer_3_marks" role="graphics-object" aria-roledescription="text mark container"><text aria-label=": 1.375; Source: other; Mean of lower: 0.0246188957423; train_type_lbl: Other,Sources" role="graphics-symbol" aria-roledescription="text mark" text-anchor="end" transform="translate(89.85714285714286,91.99792524318494)" font-family="sans-serif" font-size="11px" fill="#2C2C2C"><tspan>Other</tspan><tspan x="0" dy="13">Sources</tspan></text></g><g class="mark-text role-mark child_layer_1_layer_0_marks" role="graphics-object" aria-roledescription="text mark container"><text text-anchor="middle" transform="translate(54.857142857142854,12.772727272727273)" font-family="sans-serif" font-size="11px" fill="black"><tspan>Target</tspan><tspan x="0" dy="13">Extent</tspan></text></g><g class="mark-rect role-mark child_layer_1_layer_1_marks" role="graphics-symbol" aria-roledescription="rect mark container"><path d="M36.57142857142857,0h36.57142857142857v130h-36.57142857142857Z" fill="gray" opacity="0.25"></path></g></g><path class="foreground" aria-hidden="true" d="" display="none"></path></g><g transform="translate(141,0)"><path class="background" aria-hidden="true" d="M0.5,0.5h128v130h-128Z" stroke="#ddd"></path><g><g class="mark-group role-axis" aria-hidden="true"><g transform="translate(0.5,130.5)"><path class="background" aria-hidden="true" d="M0,0h0v0h0Z" pointer-events="none"></path><g><g class="mark-rule role-axis-grid" pointer-events="none"><line transform="translate(0,-130)" x2="0" y2="130" stroke="#ddd" stroke-width="1" opacity="1"></line><line transform="translate(37,-130)" x2="0" y2="130" stroke="#ddd" stroke-width="1" opacity="1"></line><line transform="translate(73,-130)" x2="0" y2="130" stroke="#ddd" stroke-width="1" opacity="1"></line><line transform="translate(110,-130)" x2="0" y2="130" stroke="#ddd" stroke-width="1" opacity="1"></line></g></g><path class="foreground" aria-hidden="true" d="" pointer-events="none" display="none"></path></g></g><g class="mark-group role-axis" aria-hidden="true"><g transform="translate(0.5,0.5)"><path class="background" aria-hidden="true" d="M0,0h0v0h0Z" pointer-events="none"></path><g><g class="mark-rule role-axis-grid" pointer-events="none"><line transform="translate(0,124)" x2="128" y2="0" stroke="#ddd" stroke-width="1" opacity="1"></line><line transform="translate(0,95)" x2="128" y2="0" stroke="#ddd" stroke-width="1" opacity="1"></line><line transform="translate(0,65)" x2="128" y2="0" stroke="#ddd" stroke-width="1" opacity="1"></line><line transform="translate(0,35)" x2="128" y2="0" stroke="#ddd" stroke-width="1" opacity="1"></line><line transform="translate(0,6)" x2="128" y2="0" stroke="#ddd" stroke-width="1" opacity="1"></line></g></g><path class="foreground" aria-hidden="true" d="" pointer-events="none" display="none"></path></g></g><g class="mark-group role-scope child_layer_0_layer_0_pathgroup" role="graphics-object" aria-roledescription="group mark container"><g transform="translate(0,0)"><path class="background" aria-hidden="true" d="M0,0h128v130h-128Z"></path><g><g class="mark-line role-mark child_layer_0_layer_0_marks" role="graphics-object" aria-roledescription="line mark container"><path aria-label="Time (s): -0.96875; Source: other; Decoding Correlation: 0.0188261943445" role="graphics-symbol" aria-roledescription="line mark" d="M1.1428571428571428,83.42088516008927L4.571428571428571,82.74340093171186L8,87.6128293674655L11.428571428571429,89.28370180103092L14.857142857142858,88.71469312645837L18.285714285714285,89.5495463572075L21.714285714285715,91.6774933958042L25.142857142857142,96.835208444929L28.571428571428573,97.8607737104127L32,98.17167796984607L35.42857142857143,94.69678064784564L38.857142857142854,90.25286127298564L42.285714285714285,87.44719488312832L45.714285714285715,82.72095770149515L49.142857142857146,82.69105913735258L52.57142857142857,82.60420310289182L56,87.80675830356901L59.42857142857143,85.24427383641412L62.857142857142854,83.12414894749291L66.28571428571429,79.69935428992119L69.71428571428571,75.71053663001172L73.14285714285714,78.16644693920938L76.57142857142857,82.0224808654274L80,84.8120245378956L83.42857142857143,88.83128268627503L86.85714285714286,93.93817142026012L90.28571428571429,93.04278601514251L93.71428571428571,94.21571537708894L97.14285714285714,94.75871696423852L100.57142857142857,94.62289125818883L104,104.85270393896593L107.42857142857143,104.02981147510029L110.85714285714286,103.52297228719978L114.28571428571429,97.39020411571983L117.71428571428571,88.81297371895121L121.14285714285714,86.2141506311276L124.57142857142857,82.54607111633663" stroke="#2C2C2C" stroke-width="2" stroke-linejoin="round"></path></g></g><path class="foreground" aria-hidden="true" d="" display="none"></path></g><g transform="translate(0,0)"><path class="background" aria-hidden="true" d="M0,0h128v130h-128Z"></path><g><g class="mark-line role-mark child_layer_0_layer_0_marks" role="graphics-object" aria-roledescription="line mark container"><path aria-label="Time (s): -0.96875; Source: spatial; Decoding Correlation: 0.0175561532557" role="graphics-symbol" aria-roledescription="line mark" d="M1.1428571428571428,84.17136398528089L4.571428571428571,77.8319840758929L8,76.60547185976974L11.428571428571429,91.16841201711478L14.857142857142858,83.71722925526005L18.285714285714285,86.23610766350191L21.714285714285715,84.68821631202026L25.142857142857142,85.9338802348171L28.571428571428573,82.76267889878758L32,80.00058922449617L35.42857142857143,85.14531566817635L38.857142857142854,85.89035903115689L42.285714285714285,89.52649155252482L45.714285714285715,80.56658481407625L49.142857142857146,69.52078449157456L52.57142857142857,69.1340731929933L56,63.74246994767566L59.42857142857143,59.34851084910707L62.857142857142854,47.791727370360896L66.28571428571429,42.83465157709517L69.71428571428571,38.28439740701771L73.14285714285714,36.911121129993504L76.57142857142857,46.810359802962566L80,45.97864372481412L83.42857142857143,46.990619392064616L86.85714285714286,56.27721367552397L90.28571428571429,61.20789063174724L93.71428571428571,59.18285988852783L97.14285714285714,62.78710556120356L100.57142857142857,77.4200448463782L104,105.76894013413603L107.42857142857143,107.34796938646211L110.85714285714286,108.58067164517803L114.28571428571429,111.09593630972165L117.71428571428571,110.02243789606652L121.14285714285714,103.50033708165175L124.57142857142857,100.58399897747763" stroke="#687B3E" stroke-width="2" stroke-linejoin="round"></path></g></g><path class="foreground" aria-hidden="true" d="" display="none"></path></g></g><g class="mark-group role-scope child_layer_0_layer_1_layer_0_pathgroup" role="graphics-object" aria-roledescription="group mark container"><g transform="translate(0,0)"><path class="background" aria-hidden="true" d="M0,0h128v130h-128Z"></path><g><g class="mark-area role-mark child_layer_0_layer_1_layer_0_marks" role="graphics-object" aria-roledescription="area mark container"><path aria-label=": -0.00734778783777; upper_lower: 0.0431205171975; Time (s): -0.96875; Source: other; upper: 0.0431205171975; lower: -0.00734778783777" role="graphics-symbol" aria-roledescription="errorband" d="M1.1428571428571428,98.88732917686201L4.571428571428571,97.4896231152661L8,102.0737568851733L11.428571428571429,100.40350151159628L14.857142857142858,99.24423209656466L18.285714285714285,97.48402573071664L21.714285714285715,100.4020526086984L25.142857142857142,107.06775758068662L28.571428571428573,107.94327898336076L32,107.94529470213983L35.42857142857143,103.59610076431136L38.857142857142854,99.35316388260995L42.285714285714285,97.4748166835622L45.714285714285715,91.5902498863076L49.142857142857146,92.61219332967579L52.57142857142857,93.45921040823367L56,101.25224526571505L59.42857142857143,96.25025350342477L62.857142857142854,95.24123771957919L66.28571428571429,90.50122136048887L69.71428571428571,85.94260710881893L73.14285714285714,88.24444452915688L76.57142857142857,90.7980627856654L80,95.04688204603414L83.42857142857143,99.0046966915451L86.85714285714286,103.72434349113173L90.28571428571429,106.03411935427782L93.71428571428571,107.39501609394209L97.14285714285714,106.18609102740231L100.57142857142857,107.30968495665819L104,114.74964908784848L107.42857142857143,116.07111324617541L110.85714285714286,115.20576432405029L114.28571428571429,109.66692373325986L117.71428571428571,99.82569247785989L121.14285714285714,97.03658111666236L124.57142857142857,97.67529226142251L124.57142857142857,69.36576264803502L121.14285714285714,76.73402397405323L117.71428571428571,78.81086414060013L114.28571428571429,85.65314542188989L110.85714285714286,92.34582282547592L107.42857142857143,92.70586400393096L104,94.19039076397969L100.57142857142857,81.19301600374888L97.14285714285714,82.69674944641709L93.71428571428571,79.77129189687768L90.28571428571429,79.65552228207845L86.85714285714286,84.012051658381L83.42857142857143,79.20438225966369L80,75.16952507325237L76.57142857142857,73.60620558877447L73.14285714285714,68.98191249915504L69.71428571428571,65.11718063277232L66.28571428571429,69.15002227365903L62.857142857142854,70.41448779952432L59.42857142857143,72.85300203527379L56,72.97866037209417L52.57142857142857,71.25986341794315L49.142857142857146,72.90539602006461L45.714285714285715,74.06808075632019L42.285714285714285,77.44905103585698L38.857142857142854,80.81921387555266L35.42857142857143,85.10822682201797L32,87.65821053174376L28.571428571428573,87.81948146348516L25.142857142857142,87.0748878659629L21.714285714285715,83.13413527835912L18.285714285714285,82.42429368828765L14.857142857142858,78.70500024379837L11.428571428571429,79.05349475589165L8,74.63631916499338L4.571428571428571,69.76026300296095L1.1428571428571428,69.06514892876227Z" fill="#2C2C2C" opacity="0.3"></path></g></g><path class="foreground" aria-hidden="true" d="" display="none"></path></g><g transform="translate(0,0)"><path class="background" aria-hidden="true" d="M0,0h128v130h-128Z"></path><g><g class="mark-area role-mark child_layer_0_layer_1_layer_0_marks" role="graphics-object" aria-roledescription="area mark container"><path aria-label=": -0.0062357473911; upper_lower: 0.0418744383241; Time (s): -0.96875; Source: spatial; upper: 0.0418744383241; lower: -0.0062357473911" role="graphics-symbol" aria-roledescription="errorband" d="M1.1428571428571428,98.2302143674709L4.571428571428571,92.71862689842033L8,90.27525622280571L11.428571428571429,105.91979180602594L14.857142857142858,100.41024058775766L18.285714285714285,99.87899293494212L21.714285714285715,99.33438205934507L25.142857142857142,99.90486340978981L28.571428571428573,96.94552309761085L32,95.0298933936024L35.42857142857143,100.84294322910306L38.857142857142854,102.07013437699013L42.285714285714285,105.46278723043226L45.714285714285715,95.50636230857586L49.142857142857146,87.38560437827803L52.57142857142857,85.70599004623362L56,81.32537139956061L59.42857142857143,76.75788699767733L62.857142857142854,63.77960444818554L66.28571428571429,59.58383256021614L69.71428571428571,54.899521998649035L73.14285714285714,50.933610745623675L76.57142857142857,59.896077243934954L80,59.61496376920999L83.42857142857143,60.49072116698322L86.85714285714286,68.84731151479104L90.28571428571429,74.08665412839643L93.71428571428571,73.79623791007396L97.14285714285714,77.21043237176937L100.57142857142857,89.43076510877411L104,117.35403376507371L107.42857142857143,119.2137121393194L110.85714285714286,118.91201095741758L114.28571428571429,124.5292830803368L117.71428571428571,124.9075623714405L121.14285714285714,119.30678349984123L124.57142857142857,116.59799989412937L124.57142857142857,83.9582116124837L121.14285714285714,87.38234399991215L117.71428571428571,94.88627794385752L114.28571428571429,98.18118572076254L110.85714285714286,98.70126368544057L107.42857142857143,96.17635156130662L104,94.6705526696635L100.57142857142857,64.27383034378856L97.14285714285714,48.18391551498595L93.71428571428571,44.321730736819795L90.28571428571429,47.51278130141227L86.85714285714286,43.607334479491925L83.42857142857143,32.849678681605695L80,31.16442848155707L76.57142857142857,30.654051624519308L73.14285714285714,20.817703315678234L69.71428571428571,20.654337496941835L66.28571428571429,25.321788014075437L62.857142857142854,30.729233021396865L59.42857142857143,42.418040227737805L56,45.79207725461653L52.57142857142857,52.08701719044687L49.142857142857146,49.66327122790652L45.714285714285715,64.81014447024073L42.285714285714285,73.82288243330963L38.857142857142854,69.49704060661604L35.42857142857143,69.64545576453177L32,65.53792255876704L28.571428571428573,69.26575454925248L25.142857142857142,71.83011634414342L21.714285714285715,69.59673017788495L18.285714285714285,73.16889387098733L14.857142857142858,68.26734988438295L11.428571428571429,76.92268047509292L8,62.93482766538139L4.571428571428571,63.794316193536176L1.1428571428571428,69.80146826304869Z" fill="#687B3E" opacity="0.3"></path></g></g><path class="foreground" aria-hidden="true" d="" display="none"></path></g></g><g class="mark-text role-mark child_layer_0_layer_2_marks" role="graphics-object" aria-roledescription="text mark container"><text aria-label=": 1.46875; Source: spatial; Mean of upper: 0.0900683210724; train_type_lbl: Target,Source" role="graphics-symbol" aria-roledescription="text mark" text-anchor="start" transform="translate(93.28571428571429,35.32326482083661)" font-family="sans-serif" font-size="11px" fill="#687B3E"><tspan>Target</tspan><tspan x="0" dy="13">Source</tspan></text></g><g class="mark-text role-mark child_layer_0_layer_3_marks" role="graphics-object" aria-roledescription="text mark container"><text aria-label=": 1.375; Source: other; Mean of lower: -0.0155335043696; train_type_lbl: Other,Sources" role="graphics-symbol" aria-roledescription="text mark" text-anchor="end" transform="translate(89.85714285714286,115.72434349113173)" font-family="sans-serif" font-size="11px" fill="#2C2C2C"><tspan>Other</tspan><tspan x="0" dy="13">Sources</tspan></text></g><g class="mark-text role-mark child_layer_1_layer_0_marks" role="graphics-object" aria-roledescription="text mark container"><text text-anchor="middle" transform="translate(54.857142857142854,12.772727272727273)" font-family="sans-serif" font-size="11px" fill="black"><tspan>Target</tspan><tspan x="0" dy="13">Extent</tspan></text></g><g class="mark-rect role-mark child_layer_1_layer_1_marks" role="graphics-symbol" aria-roledescription="rect mark container"><path d="M36.57142857142857,0h36.57142857142857v130h-36.57142857142857Z" fill="gray" opacity="0.25"></path></g></g><path class="foreground" aria-hidden="true" d="" display="none"></path></g><g transform="translate(282,0)"><path class="background" aria-hidden="true" d="M0.5,0.5h128v130h-128Z" stroke="#ddd"></path><g><g class="mark-group role-axis" aria-hidden="true"><g transform="translate(0.5,130.5)"><path class="background" aria-hidden="true" d="M0,0h0v0h0Z" pointer-events="none"></path><g><g class="mark-rule role-axis-grid" pointer-events="none"><line transform="translate(0,-130)" x2="0" y2="130" stroke="#ddd" stroke-width="1" opacity="1"></line><line transform="translate(37,-130)" x2="0" y2="130" stroke="#ddd" stroke-width="1" opacity="1"></line><line transform="translate(73,-130)" x2="0" y2="130" stroke="#ddd" stroke-width="1" opacity="1"></line><line transform="translate(110,-130)" x2="0" y2="130" stroke="#ddd" stroke-width="1" opacity="1"></line></g></g><path class="foreground" aria-hidden="true" d="" pointer-events="none" display="none"></path></g></g><g class="mark-group role-axis" aria-hidden="true"><g transform="translate(0.5,0.5)"><path class="background" aria-hidden="true" d="M0,0h0v0h0Z" pointer-events="none"></path><g><g class="mark-rule role-axis-grid" pointer-events="none"><line transform="translate(0,124)" x2="128" y2="0" stroke="#ddd" stroke-width="1" opacity="1"></line><line transform="translate(0,95)" x2="128" y2="0" stroke="#ddd" stroke-width="1" opacity="1"></line><line transform="translate(0,65)" x2="128" y2="0" stroke="#ddd" stroke-width="1" opacity="1"></line><line transform="translate(0,35)" x2="128" y2="0" stroke="#ddd" stroke-width="1" opacity="1"></line><line transform="translate(0,6)" x2="128" y2="0" stroke="#ddd" stroke-width="1" opacity="1"></line></g></g><path class="foreground" aria-hidden="true" d="" pointer-events="none" display="none"></path></g></g><g class="mark-group role-scope child_layer_0_layer_0_pathgroup" role="graphics-object" aria-roledescription="group mark container"><g transform="translate(0,0)"><path class="background" aria-hidden="true" d="M0,0h128v130h-128Z"></path><g><g class="mark-line role-mark child_layer_0_layer_0_marks" role="graphics-object" aria-roledescription="line mark container"><path aria-label="Time (s): -0.96875; Source: other; Decoding Correlation: 0.010740635607" role="graphics-symbol" aria-roledescription="line mark" d="M1.1428571428571428,88.19871532316436L4.571428571428571,88.42620474165197L8,88.61582759860843L11.428571428571429,89.19975393545158L14.857142857142858,90.78590429441029L18.285714285714285,90.28235051585425L21.714285714285715,90.26565361720594L25.142857142857142,91.88216931179531L28.571428571428573,91.84371964539851L32,90.01863889238697L35.42857142857143,85.40160545117183L38.857142857142854,83.68778717608832L42.285714285714285,78.55503167499445L45.714285714285715,73.03493685409661L49.142857142857146,72.00059426553224L52.57142857142857,72.25973681949093L56,71.2293855603359L59.42857142857143,74.89801834595434L62.857142857142854,69.57828978638804L66.28571428571429,68.72733238076066L69.71428571428571,68.57648368355783L73.14285714285714,71.58591010429303L76.57142857142857,76.16470247655553L80,78.34473852038947L83.42857142857143,81.68042838648391L86.85714285714286,86.56792110806983L90.28571428571429,87.74684403159443L93.71428571428571,87.14801331605621L97.14285714285714,90.80342943970375L100.57142857142857,94.17288705257528L104,98.07657614164846L107.42857142857143,98.62780894880089L110.85714285714286,98.57977871031838L114.28571428571429,94.20694282804322L117.71428571428571,92.99264553071193L121.14285714285714,88.54015108443147L124.57142857142857,86.40956274183576" stroke="#2C2C2C" stroke-width="2" stroke-linejoin="round"></path></g></g><path class="foreground" aria-hidden="true" d="" display="none"></path></g><g transform="translate(0,0)"><path class="background" aria-hidden="true" d="M0,0h128v130h-128Z"></path><g><g class="mark-line role-mark child_layer_0_layer_0_marks" role="graphics-object" aria-roledescription="line mark container"><path aria-label="Time (s): -0.96875; Source: object; Decoding Correlation: 0.0184538774465" role="graphics-symbol" aria-roledescription="line mark" d="M1.1428571428571428,83.64089059979584L4.571428571428571,85.54182327635216L8,87.45791224441334L11.428571428571429,93.437138609251L14.857142857142858,95.01563549069604L18.285714285714285,95.98110897932403L21.714285714285715,94.0840707540584L25.142857142857142,98.8680772427664L28.571428571428573,98.76943187677321L32,100.86524483953829L35.42857142857143,98.45113304874563L38.857142857142854,100.35322734186703L42.285714285714285,101.78612068673516L45.714285714285715,98.58291598811643L49.142857142857146,94.07760107186847L52.57142857142857,93.26563139032888L56,86.75332978617095L59.42857142857143,75.89842996218842L62.857142857142854,68.83795581679688L66.28571428571429,57.82983640880594L69.71428571428571,47.48251393542821L73.14285714285714,43.30678344280531L76.57142857142857,45.64487515237822L80,50.17969050328835L83.42857142857143,52.47774360181138L86.85714285714286,54.65843650935431L90.28571428571429,57.36459205517621L93.71428571428571,62.56055547981969L97.14285714285714,65.3746409930939L100.57142857142857,70.77725251316846L104,77.0609897688637L107.42857142857143,84.97229336676706L110.85714285714286,86.79267101652783L114.28571428571429,84.8156463334332L117.71428571428571,82.17681607601612L121.14285714285714,84.5357555784845L124.57142857142857,79.55433408299716" stroke="#EB9A60" stroke-width="2" stroke-linejoin="round"></path></g></g><path class="foreground" aria-hidden="true" d="" display="none"></path></g></g><g class="mark-group role-scope child_layer_0_layer_1_layer_0_pathgroup" role="graphics-object" aria-roledescription="group mark container"><g transform="translate(0,0)"><path class="background" aria-hidden="true" d="M0,0h128v130h-128Z"></path><g><g class="mark-area role-mark child_layer_0_layer_1_layer_0_marks" role="graphics-object" aria-roledescription="area mark container"><path aria-label=": -0.00376898399615; upper_lower: 0.0271911740794; Time (s): -0.96875; Source: other; upper: 0.0271911740794; lower: -0.00376898399615" role="graphics-symbol" aria-roledescription="errorband" d="M1.1428571428571428,96.7725814522702L4.571428571428571,97.21523751664462L8,97.5857571753974L11.428571428571429,97.98603841915693L14.857142857142858,100.28556568328494L18.285714285714285,99.42980545089101L21.714285714285715,99.54528153432194L25.142857142857142,101.01485824444127L28.571428571428573,99.90504669987133L32,97.16464105619096L35.42857142857143,94.10198331449986L38.857142857142854,92.53022212192795L42.285714285714285,86.38235162602547L45.714285714285715,80.7743002799909L49.142857142857146,80.05934985740896L52.57142857142857,81.26132998629787L56,79.64269988882369L59.42857142857143,81.47357771360777L62.857142857142854,76.84763124742086L66.28571428571429,76.0757224516961L69.71428571428571,77.05404826745405L73.14285714285714,79.36356959057503L76.57142857142857,83.69149332743794L80,85.81531190906628L83.42857142857143,89.85800757526005L86.85714285714286,94.6527305121693L90.28571428571429,94.11548540305206L93.71428571428571,92.80987331808699L97.14285714285714,97.39724387230847L100.57142857142857,101.61810586042924L104,105.366354048548L107.42857142857143,106.57103888918195L110.85714285714286,106.5851846189726L114.28571428571429,101.69616882695175L117.71428571428571,101.37585780665661L121.14285714285714,96.83102982741971L124.57142857142857,93.93583093349831L124.57142857142857,78.71762401586983L121.14285714285714,79.7275259046122L117.71428571428571,83.91458939844718L114.28571428571429,86.06707481620369L110.85714285714286,89.88057831838606L107.42857142857143,90.5698719650526L104,90.61413751538976L100.57142857142857,86.84341037535795L97.14285714285714,84.24623872787598L93.71428571428571,81.69777865387373L90.28571428571429,81.40922747030577L86.85714285714286,78.3850163458128L83.42857142857143,72.65620407841276L80,70.5288527566103L76.57142857142857,68.70718434013078L73.14285714285714,63.861226584770364L69.71428571428571,60.227686271550084L66.28571428571429,61.474995578489526L62.857142857142854,62.344642392190416L59.42857142857143,68.18472847030665L56,63.49572383339662L52.57142857142857,63.72085810833328L49.142857142857146,64.58383612102283L45.714285714285715,65.41670783871432L42.285714285714285,71.27493379674554L38.857142857142854,74.53002120532902L35.42857142857143,76.75229986713151L32,82.87283494167816L28.571428571428573,83.27710610980434L25.142857142857142,81.86147787321416L21.714285714285715,79.63936408645289L18.285714285714285,80.95681353325058L14.857142857142858,80.90802731430055L11.428571428571429,79.92405768309442L8,79.12969533372056L4.571428571428571,78.71643680173278L1.1428571428571428,78.47794258945136Z" fill="#2C2C2C" opacity="0.3"></path></g></g><path class="foreground" aria-hidden="true" d="" display="none"></path></g><g transform="translate(0,0)"><path class="background" aria-hidden="true" d="M0,0h128v130h-128Z"></path><g><g class="mark-area role-mark child_layer_0_layer_1_layer_0_marks" role="graphics-object" aria-roledescription="area mark container"><path aria-label=": 0.00310607122921; upper_lower: 0.0341201051448; Time (s): -0.96875; Source: object; upper: 0.0341201051448; lower: 0.00310607122921" role="graphics-symbol" aria-roledescription="errorband" d="M1.1428571428571428,92.71004881910545L4.571428571428571,95.13636465073496L8,96.67602238982126L11.428571428571429,103.55383709726189L14.857142857142858,105.53476837447154L18.285714285714285,107.3181762062908L21.714285714285715,104.75056798661727L25.142857142857142,110.241020494793L28.571428571428573,111.60173215205484L32,113.32245831591237L35.42857142857143,110.28818272903891L38.857142857142854,113.4769934926203L42.285714285714285,115.894583535319L45.714285714285715,111.79308933855233L49.142857142857146,104.90507043249525L52.57142857142857,102.85268221621777L56,97.97478603422591L59.42857142857143,86.48281129970584L62.857142857142854,79.68862810390266L66.28571428571429,69.63063436887245L69.71428571428571,60.34105835125664L73.14285714285714,55.51811351937928L76.57142857142857,59.805309647843686L80,62.78903580387369L83.42857142857143,65.1370010082377L86.85714285714286,66.28146959219072L90.28571428571429,71.40559901720452L93.71428571428571,77.3789817309837L97.14285714285714,80.43183968518763L100.57142857142857,85.81175631941508L104,91.26508544515258L107.42857142857143,97.66356941744927L110.85714285714286,101.45135788884744L114.28571428571429,99.2251065161714L117.71428571428571,96.2466334642841L121.14285714285714,98.37871403186652L124.57142857142857,94.00547472325857L124.57142857142857,65.89465171928417L121.14285714285714,71.28549811526517L117.71428571428571,69.39629827837992L114.28571428571429,72.1952944804443L110.85714285714286,73.445559523057L107.42857142857143,73.32584540105829L104,63.99179185932018L100.57142857142857,57.35258794883076L97.14285714285714,51.51087260828952L93.71428571428571,48.82295935509249L90.28571428571429,44.32319448309302L86.85714285714286,43.16844010788219L83.42857142857143,40.1643826329701L80,37.54805975890512L76.57142857142857,32.67058329295285L73.14285714285714,31.690485579725152L69.71428571428571,34.78132344595167L66.28571428571429,45.851763755509594L62.857142857142854,58.36938200934564L59.42857142857143,65.35130345026106L56,75.00903807899864L52.57142857142857,83.44360823465189L49.142857142857146,82.1889210689646L45.714285714285715,84.30995591098242L42.285714285714285,85.74527495181577L38.857142857142854,85.66611557695784L35.42857142857143,85.1083105724493L32,87.41689572955892L28.571428571428573,84.99448588315633L25.142857142857142,86.6662531663998L21.714285714285715,82.85860116382918L18.285714285714285,84.2240467938598L14.857142857142858,83.9437182035883L11.428571428571429,83.13772042127839L8,78.42525718759326L4.571428571428571,75.97288515171307L1.1428571428571428,74.38357423262464Z" fill="#EB9A60" opacity="0.3"></path></g></g><path class="foreground" aria-hidden="true" d="" display="none"></path></g></g><g class="mark-text role-mark child_layer_0_layer_2_marks" role="graphics-object" aria-roledescription="text mark container"><text aria-label=": 1.46875; Source: object; Mean of upper: 0.0879889133609; train_type_lbl: Target,Source" role="graphics-symbol" aria-roledescription="text mark" text-anchor="start" transform="translate(93.28571428571429,36.552005741315114)" font-family="sans-serif" font-size="11px" fill="#EB9A60"><tspan>Target</tspan><tspan x="0" dy="13">Source</tspan></text></g><g class="mark-text role-mark child_layer_0_layer_3_marks" role="graphics-object" aria-roledescription="text mark container"><text aria-label=": 1.375; Source: other; Mean of lower: -0.000181543943671; train_type_lbl: Other,Sources" role="graphics-symbol" aria-roledescription="text mark" text-anchor="end" transform="translate(89.85714285714286,106.6527305121693)" font-family="sans-serif" font-size="11px" fill="#2C2C2C"><tspan>Other</tspan><tspan x="0" dy="13">Sources</tspan></text></g><g class="mark-text role-mark child_layer_1_layer_0_marks" role="graphics-object" aria-roledescription="text mark container"><text text-anchor="middle" transform="translate(54.857142857142854,12.772727272727273)" font-family="sans-serif" font-size="11px" fill="black"><tspan>Target</tspan><tspan x="0" dy="13">Extent</tspan></text></g><g class="mark-rect role-mark child_layer_1_layer_1_marks" role="graphics-symbol" aria-roledescription="rect mark container"><path d="M36.57142857142857,0h36.57142857142857v130h-36.57142857142857Z" fill="gray" opacity="0.25"></path></g></g><path class="foreground" aria-hidden="true" d="" display="none"></path></g></g></g><path class="foreground" aria-hidden="true" d="" display="none"></path></g></g></g></svg>
