<?xml version="1.0" encoding="utf-8"?>
<!DOCTYPE svg PUBLIC "-//W3C//DTD SVG 1.1//EN" "http://www.w3.org/Graphics/SVG/1.1/DTD/svg11.dtd">
<svg class="marks" width="171" height="185" viewBox="0 0 171 185" version="1.1" xmlns="http://www.w3.org/2000/svg" xmlns:xlink="http://www.w3.org/1999/xlink"><rect width="171" height="185" fill="white"></rect><g fill="none" stroke-miterlimit="10" transform="translate(42,10)"><g class="mark-group role-frame root" role="graphics-object" aria-roledescription="group mark container"><g transform="translate(0,0)"><path class="background" aria-hidden="true" d="M0.5,0.5h81v138h-81Z" stroke="#ddd"></path><g><g class="mark-group role-axis" aria-hidden="true"><g transform="translate(0.5,138.5)"><path class="background" aria-hidden="true" d="M0,0h0v0h0Z" pointer-events="none"></path><g><g class="mark-rule role-axis-grid" pointer-events="none"><line transform="translate(0,-138)" x2="0" y2="138" stroke="#ddd" stroke-width="1" opacity="1"></line><line transform="translate(27,-138)" x2="0" y2="138" stroke="#ddd" stroke-width="1" opacity="1"></line><line transform="translate(54,-138)" x2="0" y2="138" stroke="#ddd" stroke-width="1" opacity="1"></line><line transform="translate(81,-138)" x2="0" y2="138" stroke="#ddd" stroke-width="1" opacity="1"></line></g></g><path class="foreground" aria-hidden="true" d="" pointer-events="none" display="none"></path></g></g><g class="mark-group role-axis" aria-hidden="true"><g transform="translate(0.5,0.5)"><path class="background" aria-hidden="true" d="M0,0h0v0h0Z" pointer-events="none"></path><g><g class="mark-rule role-axis-grid" pointer-events="none"><line transform="translate(0,138)" x2="81" y2="0" stroke="#ddd" stroke-width="1" opacity="1"></line><line transform="translate(0,110)" x2="81" y2="0" stroke="#ddd" stroke-width="1" opacity="1"></line><line transform="translate(0,83)" x2="81" y2="0" stroke="#ddd" stroke-width="1" opacity="1"></line><line transform="translate(0,55)" x2="81" y2="0" stroke="#ddd" stroke-width="1" opacity="1"></line><line transform="translate(0,28)" x2="81" y2="0" stroke="#ddd" stroke-width="1" opacity="1"></line><line transform="translate(0,0)" x2="81" y2="0" stroke="#ddd" stroke-width="1" opacity="1"></line></g></g><path class="foreground" aria-hidden="true" d="" pointer-events="none" display="none"></path></g></g><g class="mark-group role-axis" role="graphics-symbol" aria-roledescription="axis" aria-label="X-axis titled 'Time from onset (s)' for a linear scale with values from 0.0 to 3.0"><g transform="translate(0.5,138.5)"><path class="background" aria-hidden="true" d="M0,0h0v0h0Z" pointer-events="none"></path><g><g class="mark-rule role-axis-tick" pointer-events="none"><line transform="translate(0,0)" x2="0" y2="5" stroke="#888" stroke-width="1" opacity="1"></line><line transform="translate(27,0)" x2="0" y2="5" stroke="#888" stroke-width="1" opacity="1"></line><line transform="translate(54,0)" x2="0" y2="5" stroke="#888" stroke-width="1" opacity="1"></line><line transform="translate(81,0)" x2="0" y2="5" stroke="#888" stroke-width="1" opacity="1"></line></g><g class="mark-text role-axis-label" pointer-events="none"><text text-anchor="start" transform="translate(0,15)" font-family="sans-serif" font-size="10px" fill="#000" opacity="1">0</text><text text-anchor="middle" transform="translate(27,15)" font-family="sans-serif" font-size="10px" fill="#000" opacity="1">1</text><text text-anchor="middle" transform="translate(54,15)" font-family="sans-serif" font-size="10px" fill="#000" opacity="1">2</text><text text-anchor="end" transform="translate(81,15)" font-family="sans-serif" font-size="10px" fill="#000" opacity="1">3</text></g><g class="mark-rule role-axis-domain" pointer-events="none"><line transform="translate(0,0)" x2="81" y2="0" stroke="#888" stroke-width="1" opacity="1"></line></g><g class="mark-text role-axis-title" pointer-events="none"><text text-anchor="middle" transform="translate(40.5,30)" font-family="sans-serif" font-size="11px" font-weight="normal" fill="#000" opacity="1">Time from onset (s)</text></g></g><path class="foreground" aria-hidden="true" d="" pointer-events="none" display="none"></path></g></g><g class="mark-group role-axis" role="graphics-symbol" aria-roledescription="axis" aria-label="Y-axis titled 'Salience Decoding' for a linear scale with values from 0.5 to 1.0"><g transform="translate(0.5,0.5)"><path class="background" aria-hidden="true" d="M0,0h0v0h0Z" pointer-events="none"></path><g><g class="mark-rule role-axis-tick" pointer-events="none"><line transform="translate(0,138)" x2="-5" y2="0" stroke="#888" stroke-width="1" opacity="1"></line><line transform="translate(0,110)" x2="-5" y2="0" stroke="#888" stroke-width="1" opacity="1"></line><line transform="translate(0,83)" x2="-5" y2="0" stroke="#888" stroke-width="1" opacity="1"></line><line transform="translate(0,55)" x2="-5" y2="0" stroke="#888" stroke-width="1" opacity="1"></line><line transform="translate(0,28)" x2="-5" y2="0" stroke="#888" stroke-width="1" opacity="1"></line><line transform="translate(0,0)" x2="-5" y2="0" stroke="#888" stroke-width="1" opacity="1"></line></g><g class="mark-text role-axis-label" pointer-events="none"><text text-anchor="end" transform="translate(-7,141)" font-family="sans-serif" font-size="10px" fill="#000" opacity="1">0.5</text><text text-anchor="end" transform="translate(-7,113.4)" font-family="sans-serif" font-size="10px" fill="#000" opacity="1">0.6</text><text text-anchor="end" transform="translate(-7,85.80000000000001)" font-family="sans-serif" font-size="10px" fill="#000" opacity="1">0.7</text><text text-anchor="end" transform="translate(-7,58.19999999999999)" font-family="sans-serif" font-size="10px" fill="#000" opacity="1">0.8</text><text text-anchor="end" transform="translate(-7,30.599999999999994)" font-family="sans-serif" font-size="10px" fill="#000" opacity="1">0.9</text><text text-anchor="end" transform="translate(-7,3)" font-family="sans-serif" font-size="10px" fill="#000" opacity="1">1.0</text></g><g class="mark-rule role-axis-domain" pointer-events="none"><line transform="translate(0,138)" x2="0" y2="-138" stroke="#888" stroke-width="1" opacity="1"></line></g><g class="mark-text role-axis-title" pointer-events="none"><text text-anchor="middle" transform="translate(-26,69) rotate(-90) translate(0,-2)" font-family="sans-serif" font-size="11px" font-weight="normal" fill="#000" opacity="1">Salience Decoding</text></g></g><path class="foreground" aria-hidden="true" d="" pointer-events="none" display="none"></path></g></g><g class="mark-group role-scope layer_0_layer_0_pathgroup" role="graphics-object" aria-roledescription="group mark container"><g transform="translate(0,0)"><path class="background" aria-hidden="true" d="M0,0h81v138h-81Z"></path><g><g class="mark-line role-mark layer_0_layer_0_marks" role="graphics-object" aria-roledescription="line mark container"><path aria-label="condition: global; Time from onset (s): 0; Salience Decoding: 0.617280911241" role="graphics-symbol" aria-roledescription="line mark" d="M0,105.63046849747697L2.6129032258064515,106.69418718259759L5.225806451612903,106.42973233731858L7.838709677419356,105.79052170455292L10.451612903225806,102.04331015342406L13.064516129032258,97.66248413572043L15.677419354838712,97.7866628803258L18.29032258064516,94.29725363923849L20.903225806451612,93.14405922298663L23.516129032258068,92.69560562849922L26.129032258064516,92.20043115294887L28.741935483870964,90.0228216936696L31.354838709677423,86.34686350234945L33.96774193548387,83.66924749690055L36.58064516129032,81.66912220468575L39.193548387096776,78.81026513785692L41.806451612903224,77.47197097832178L44.41935483870968,81.55025554349825L47.032258064516135,79.00835420204291L49.645161290322584,78.76568213118888L52.25806451612903,70.41624161128902L54.87096774193548,63.53392872587648L57.48387096774193,63.68396790557227L60.09677419354838,64.7792259262412L62.70967741935485,61.202773878624164L65.3225806451613,59.824966366942355L67.93548387096774,63.398334779744005L70.54838709677419,62.38600219680559L73.16129032258064,64.2959881975062L75.7741935483871,60.87837804525761L78.38709677419355,63.910592255048506L81,63.2765439155565" stroke="#226061" stroke-width="2" stroke-linecap="round" stroke-dasharray="1,0"></path></g></g><path class="foreground" aria-hidden="true" d="" display="none"></path></g><g transform="translate(0,0)"><path class="background" aria-hidden="true" d="M0,0h81v138h-81Z"></path><g><g class="mark-line role-mark layer_0_layer_0_marks" role="graphics-object" aria-roledescription="line mark container"><path aria-label="condition: object; Time from onset (s): 0; Salience Decoding: 0.597097764015" role="graphics-symbol" aria-roledescription="line mark" d="M0,111.20101713199479L2.6129032258064515,110.93194989952616L5.225806451612903,111.67556120952135L7.838709677419356,110.32242020247111L10.451612903225806,110.40718966747731L13.064516129032258,115.24979303523573L15.677419354838712,113.11974273245289L18.29032258064516,114.67702215716253L20.903225806451612,117.62845216237316L23.516129032258068,121.26362194051299L26.129032258064516,117.65019815274547L28.741935483870964,117.87334640617736L31.354838709677423,117.08173189613485L33.96774193548387,115.61778872194458L36.58064516129032,111.15058766788113L39.193548387096776,110.35731300402796L41.806451612903224,109.6635185282406L44.41935483870968,112.61968604164115L47.032258064516135,115.14786825372809L49.645161290322584,111.98094629958908L52.25806451612903,111.62913721570428L54.87096774193548,110.24691500656064L57.48387096774193,106.9929459539327L60.09677419354838,103.86903326177077L62.70967741935485,99.62024569643546L65.3225806451613,96.0780156143074L67.93548387096774,93.94337263547258L70.54838709677419,87.4725353857973L73.16129032258064,82.94705009802445L75.7741935483871,83.70018416239905L78.38709677419355,84.54868771088688L81,89.10472952462979" stroke="#767F37" stroke-width="2" stroke-linecap="round" stroke-dasharray="6,4"></path></g></g><path class="foreground" aria-hidden="true" d="" display="none"></path></g><g transform="translate(0,0)"><path class="background" aria-hidden="true" d="M0,0h81v138h-81Z"></path><g><g class="mark-line role-mark layer_0_layer_0_marks" role="graphics-object" aria-roledescription="line mark container"><path aria-label="condition: spatial; Time from onset (s): 0; Salience Decoding: 0.609337428694" role="graphics-symbol" aria-roledescription="line mark" d="M0,107.8228696805184L2.6129032258064515,111.68848434094659L5.225806451612903,112.57724706512494L7.838709677419356,113.99670409107222L10.451612903225806,115.53089970129425L13.064516129032258,115.53089970129425L15.677419354838712,116.29661722462258L18.29032258064516,116.29661722462258L20.903225806451612,115.76651543811475L23.516129032258068,115.76651543811475L26.129032258064516,115.30741391827026L28.741935483870964,113.95140520945091L31.354838709677423,112.22818030548004L33.96774193548387,112.22818030548004L36.58064516129032,111.39057823422668L39.193548387096776,110.97363475160029L41.806451612903224,108.91760387733274L44.41935483870968,107.3566994549003L47.032258064516135,105.00711284119596L49.645161290322584,105.41647520286692L52.25806451612903,105.43444758263651L54.87096774193548,106.30085915028168L57.48387096774193,105.03574556321344L60.09677419354838,107.51018961562407L62.70967741935485,107.54519020773841L65.3225806451613,109.31162886621412L67.93548387096774,112.47494348806008L70.54838709677419,113.77478932618646L73.16129032258064,106.19887402747477L75.7741935483871,100.27043156605156L78.38709677419355,96.73056675399233L81,96.6859911294433" stroke="#E19652" stroke-width="2" stroke-linecap="round" stroke-dasharray="2,4"></path></g></g><path class="foreground" aria-hidden="true" d="" display="none"></path></g></g><g class="mark-group role-scope layer_0_layer_1_layer_0_pathgroup" role="graphics-object" aria-roledescription="group mark container"><g transform="translate(0,0)"><path class="background" aria-hidden="true" d="M0,0h81v138h-81Z"></path><g><g class="mark-area role-mark layer_0_layer_1_layer_0_marks" role="graphics-object" aria-roledescription="area mark container"><path aria-label=": 0.570798584084; upper_corrected_mean: 0.663763238398; condition: global; winstart: 0; Mean of corrected_mean: 0.617280911241; Mean + stderr of corrected_mean: 0.663763238398; Mean - stderr of corrected_mean: 0.570798584084" role="graphics-symbol" aria-roledescription="errorband" d="M0,118.45959079283384L2.6129032258064515,119.59314372161022L5.225806451612903,119.66604560770305L7.838709677419356,119.4061915449176L10.451612903225806,114.93465869763246L13.064516129032258,109.63762833564937L15.677419354838712,110.26250708164946L18.29032258064516,105.14405636369594L20.903225806451612,104.22873426979243L23.516129032258068,103.76475193553563L26.129032258064516,103.25512143910764L28.741935483870964,101.14816508592895L31.354838709677423,97.46982811576244L33.96774193548387,95.06560578226046L36.58064516129032,92.85989759554832L39.193548387096776,90.59054938909694L41.806451612903224,89.20165101273747L44.41935483870968,92.64929618117937L47.032258064516135,89.86456236207464L49.645161290322584,89.93615907272498L52.25806451612903,80.78411883413122L54.87096774193548,74.55033494566203L57.48387096774193,75.2951432849642L60.09677419354838,76.69846797942644L62.70967741935485,72.59537322926751L65.3225806451613,70.39871885209911L67.93548387096774,74.20918451530916L70.54838709677419,73.40985929789689L73.16129032258064,75.08346136232824L75.7741935483871,71.74018660888576L78.38709677419355,74.83944189975502L81,74.2850106466222L81,52.26807718449079L78.38709677419355,52.981742610341996L75.7741935483871,50.01656948162947L73.16129032258064,53.50851503268418L70.54838709677419,51.362145095714304L67.93548387096774,52.58748504417885L65.3225806451613,49.25121388178559L62.70967741935485,49.81017452798081L60.09677419354838,52.859983873055945L57.48387096774193,52.07279252618033L54.87096774193548,52.517522506090934L52.25806451612903,60.048364388446835L49.645161290322584,67.59520518965279L47.032258064516135,68.1521460420112L44.41935483870968,70.45121490581715L41.806451612903224,65.74229094390608L39.193548387096776,67.0299808866169L36.58064516129032,70.47834681382318L33.96774193548387,72.27288921154066L31.354838709677423,75.22389888893646L28.741935483870964,78.89747830141025L26.129032258064516,81.14574086679008L23.516129032258068,81.62645932146282L20.903225806451612,82.05938417618083L18.29032258064516,83.45045091478106L15.677419354838712,85.31081867900215L13.064516129032258,85.68733993579148L10.451612903225806,89.15196160921566L7.838709677419356,92.17485186418823L5.225806451612903,93.19341906693411L2.6129032258064515,93.79523064358496L0,92.8013462021201Z" fill="#226061" opacity="0.3"></path></g></g><path class="foreground" aria-hidden="true" d="" display="none"></path></g><g transform="translate(0,0)"><path class="background" aria-hidden="true" d="M0,0h81v138h-81Z"></path><g><g class="mark-area role-mark layer_0_layer_1_layer_0_marks" role="graphics-object" aria-roledescription="area mark container"><path aria-label=": 0.564557370976; upper_corrected_mean: 0.629638157053; condition: object; winstart: 0; Mean of corrected_mean: 0.597097764015; Mean + stderr of corrected_mean: 0.629638157053; Mean - stderr of corrected_mean: 0.564557370976" role="graphics-symbol" aria-roledescription="errorband" d="M0,120.18216561059259L2.6129032258064515,120.16599707139028L5.225806451612903,121.0243088460951L7.838709677419356,119.12620838262568L10.451612903225806,118.58020856001387L13.064516129032258,124.17306087947776L15.677419354838712,121.17321596048522L18.29032258064516,123.37867287722544L20.903225806451612,126.100645280759L23.516129032258068,129.14634222935385L26.129032258064516,126.5436021644485L28.741935483870964,127.00913885317311L31.354838709677423,126.39431961867191L33.96774193548387,124.9397807663331L36.58064516129032,121.52617477522276L39.193548387096776,120.10144352860412L41.806451612903224,118.95293370742804L44.41935483870968,121.6017087313176L47.032258064516135,123.58397518966342L49.645161290322584,120.84338352342692L52.25806451612903,120.31726726234304L54.87096774193548,119.01851517945077L57.48387096774193,116.42463761961092L60.09677419354838,113.33858879984585L62.70967741935485,110.41874930789119L65.3225806451613,107.05168552555705L67.93548387096774,104.8450982257724L70.54838709677419,98.45088598986317L73.16129032258064,94.3945810314818L75.7741935483871,95.19551074278027L78.38709677419355,96.30679839677015L81,101.03875377437288L81,77.1707052748867L78.38709677419355,72.79057702500361L75.7741935483871,72.20485758201785L73.16129032258064,71.49951916456708L70.54838709677419,76.49418478173145L67.93548387096774,83.04164704517277L65.3225806451613,85.10434570305775L62.70967741935485,88.82174208497973L60.09677419354838,94.39947772369567L57.48387096774193,97.56125428825449L54.87096774193548,101.47531483367051L52.25806451612903,102.94100716906551L49.645161290322584,103.11850907575123L47.032258064516135,106.71176131779275L44.41935483870968,103.6376633519647L41.806451612903224,100.37410334905314L39.193548387096776,100.6131824794518L36.58064516129032,100.7750005605395L33.96774193548387,106.29579667755607L31.354838709677423,107.76914417359781L28.741935483870964,108.73755395918162L26.129032258064516,108.75679414104245L23.516129032258068,113.38090165167213L20.903225806451612,109.15625904398735L18.29032258064516,105.9753714370996L15.677419354838712,105.06626950442056L13.064516129032258,106.32652519099369L10.451612903225806,102.23417077494074L7.838709677419356,101.51863202231655L5.225806451612903,102.32681357294761L2.6129032258064515,101.69790272766204L0,102.21986865339699Z" fill="#767F37" opacity="0.3"></path></g></g><path class="foreground" aria-hidden="true" d="" display="none"></path></g><g transform="translate(0,0)"><path class="background" aria-hidden="true" d="M0,0h81v138h-81Z"></path><g><g class="mark-area role-mark layer_0_layer_1_layer_0_marks" role="graphics-object" aria-roledescription="area mark container"><path aria-label=": 0.570856981121; upper_corrected_mean: 0.647817876267; condition: spatial; winstart: 0; Mean of corrected_mean: 0.609337428694; Mean + stderr of corrected_mean: 0.647817876267; Mean - stderr of corrected_mean: 0.570856981121" role="graphics-symbol" aria-roledescription="errorband" d="M0,118.44347321065844L2.6129032258064515,122.10529199731768L5.225806451612903,123.14841880722845L7.838709677419356,124.96029889731709L10.451612903225806,127.10093545556198L13.064516129032258,127.10093545556198L15.677419354838712,128.23174080593247L18.29032258064516,128.23174080593247L20.903225806451612,127.90395337049925L23.516129032258068,127.90395337049925L26.129032258064516,127.44962759553542L28.741935483870964,126.13820975631593L31.354838709677423,124.59541689165529L33.96774193548387,124.59541689165529L36.58064516129032,123.87774951783588L39.193548387096776,123.45796577497302L41.806451612903224,121.64357792703329L44.41935483870968,120.41129806727021L47.032258064516135,118.54163254020209L49.645161290322584,118.89221003229491L52.25806451612903,118.95446973217022L54.87096774193548,119.76530903570071L57.48387096774193,118.65816415239665L60.09677419354838,121.06741857626807L62.70967741935485,121.30429625626608L65.3225806451613,123.05241248559777L67.93548387096774,126.24291966669507L70.54838709677419,127.48230321161928L73.16129032258064,118.69062825721528L75.7741935483871,113.35242901892099L78.38709677419355,110.69768223477625L81,110.55805318159858L81,82.81392907728801L78.38709677419355,82.76345127320842L75.7741935483871,87.18843411318213L73.16129032258064,93.70711979773425L70.54838709677419,100.06727544075365L67.93548387096774,98.70696730942508L65.3225806451613,95.57084524683049L62.70967741935485,93.78608415921074L60.09677419354838,93.95296065498007L57.48387096774193,91.41332697403023L54.87096774193548,92.83640926486264L52.25806451612903,91.91442543310278L49.645161290322584,91.94074037343891L47.032258064516135,91.47259314218984L44.41935483870968,94.30210084253036L41.806451612903224,96.1916298276322L39.193548387096776,98.48930372822757L36.58064516129032,98.90340695061748L33.96774193548387,99.86094371930479L31.354838709677423,99.86094371930479L28.741935483870964,101.76460066258588L26.129032258064516,103.16520024100508L23.516129032258068,103.62907750573027L20.903225806451612,103.62907750573027L18.29032258064516,104.3614936433127L15.677419354838712,104.3614936433127L13.064516129032258,103.96086394702652L10.451612903225806,103.96086394702652L7.838709677419356,103.03310928482735L5.225806451612903,102.00607532302142L2.6129032258064515,101.27167668457551L0,97.20226615037834Z" fill="#E19652" opacity="0.3"></path></g></g><path class="foreground" aria-hidden="true" d="" display="none"></path></g></g><g class="mark-text role-mark layer_0_layer_2_marks" role="graphics-object" aria-roledescription="text mark container"><text aria-label="condition: global; Mean of corrected_mean: 0.770737159726; condition_label: Global" role="graphics-symbol" aria-roledescription="text mark" text-anchor="start" transform="translate(86,66.2765439155565)" font-family="sans-serif" font-size="11px" fill="#226061">Global</text><text aria-label="condition: object; Mean of corrected_mean: 0.693664174961; condition_label: Object" role="graphics-symbol" aria-roledescription="text mark" text-anchor="start" transform="translate(86,87.54868771088688)" font-family="sans-serif" font-size="11px" fill="#767F37">Object</text><text aria-label="condition: spatial; Mean of corrected_mean: 0.649688437937; condition_label: Spatial" role="graphics-symbol" aria-roledescription="text mark" text-anchor="start" transform="translate(86,99.6859911294433)" font-family="sans-serif" font-size="11px" fill="#E19652">Spatial</text></g><g class="mark-rule role-mark layer_0_layer_3_layer_0_marks" role="graphics-object" aria-roledescription="rule mark container"><line aria-label="Mean of best: 2.46774193548" role="graphics-symbol" aria-roledescription="rule mark" transform="translate(66.62903225806453,0)" x2="0" y2="138" stroke="black" stroke-dasharray="2,2"></line></g><g class="mark-text role-mark layer_0_layer_3_layer_1_marks" role="graphics-object" aria-roledescription="text mark container"><text aria-label="Mean of best: 2.46774193548" role="graphics-symbol" aria-roledescription="text mark" text-anchor="start" transform="translate(66.62903225806453,0) rotate(90) translate(0,-2)" font-family="sans-serif" font-size="9px" fill="#636363">Panel C</text></g><g class="mark-line role-mark layer_0_layer_4_layer_0_marks" role="graphics-object" aria-roledescription="line mark container"><path aria-label="x: 0.1; y: 0.83" role="graphics-symbol" aria-roledescription="line mark" d="M2.7,46.92000000000001L24.3,46.92000000000001" stroke="black" stroke-width="1.5"></path></g><g class="mark-symbol role-mark layer_0_layer_4_layer_1_marks" role="graphics-object" aria-roledescription="symbol mark container"><path aria-label="x: 0.1; y: 0.83; dir: 270" role="graphics-symbol" aria-roledescription="point" transform="translate(2.7,46.92000000000001) rotate(270)" d="M0,-1.8257418583505536L-1.5811388300841898,0.9128709291752769L1.5811388300841898,0.9128709291752769Z" stroke="black" stroke-width="2" opacity="1"></path><path aria-label="x: 0.9; y: 0.83; dir: 90" role="graphics-symbol" aria-roledescription="point" transform="translate(24.3,46.92000000000001) rotate(90)" d="M0,-1.8257418583505536L-1.5811388300841898,0.9128709291752769L1.5811388300841898,0.9128709291752769Z" stroke="black" stroke-width="2" opacity="1"></path></g><g class="mark-text role-mark layer_0_layer_5_layer_0_marks" role="graphics-object" aria-roledescription="text mark container"><text text-anchor="start" transform="translate(0,41.92000000000001)" font-family="sans-serif" font-size="11px" fill="black">Target Length</text></g></g><path class="foreground" aria-hidden="true" d="" display="none"></path></g></g></g></svg>
