<?xml version="1.0" encoding="UTF-8" standalone="no"?>
<!DOCTYPE svg PUBLIC "-//W3C//DTD SVG 1.1//EN" "http://www.w3.org/Graphics/SVG/1.1/DTD/svg11.dtd">
<svg width="100%" height="100%" viewBox="0 0 1350 1019" version="1.1" xmlns="http://www.w3.org/2000/svg" xmlns:xlink="http://www.w3.org/1999/xlink" xml:space="preserve" xmlns:serif="http://www.serif.com/" style="fill-rule:evenodd;clip-rule:evenodd;stroke-linecap:round;stroke-linejoin:round;stroke-miterlimit:1.5;">
    <g id="Artboard1" transform="matrix(1,0,0,1.69695,0,0)">
        <rect x="0" y="0" width="1350" height="600" style="fill:none;"/>
        <clipPath id="_clip1">
            <rect x="0" y="0" width="1350" height="600"/>
        </clipPath>
        <g clip-path="url(#_clip1)">
            <g transform="matrix(2.1783,-8.93012e-33,1.51539e-32,1.28366,303.992,38.075)">
                <path d="M76.725,105.522L109.725,105.522L155.066,242.004L277.404,242.004L322.347,105.522L396.643,105.522" style="fill:none;stroke:white;stroke-width:11.48px;"/>
            </g>
            <g transform="matrix(0.955306,0,0,1.32591,172.9,-126.052)">
                <rect x="525.591" y="342.989" width="51.536" height="30.301" style="fill:none;stroke:white;stroke-width:12.05px;stroke-linecap:butt;"/>
                <rect x="525.591" y="342.989" width="51.536" height="30.301" style="fill:rgb(0,104,97);"/>
            </g>
            <g transform="matrix(2.1783,-8.93012e-33,1.51539e-32,1.28366,303.992,38.075)">
                <path d="M76.725,105.522L109.725,105.522L155.066,242.004L277.404,242.004L322.347,105.522L396.643,105.522" style="fill:none;stroke:rgb(0,104,97);stroke-width:5.74px;"/>
            </g>
            <g transform="matrix(4.67213e-17,-0.449641,0.708566,2.55678e-17,-55.3924,369.497)">
                <path d="M237.1,228.4C235.3,226.9 233.4,224.7 233,223.4C232.5,222.2 229.5,219.6 226.3,217.8C211.4,209 201.1,192.6 198.5,173.7C198.2,171.1 197.5,169.2 196.9,169.5C196.4,169.9 196,169.5 196,168.7C196,168 194.7,166.4 193.1,165.2C191,163.7 190.1,162 189.6,158.8C189.2,156.4 188.7,152.9 188.4,150.8C187.9,147.7 188.1,147.1 190,146.5C191.7,146 192.8,146.5 195.1,149.2L197.9,152.5L198,149.5C198.1,142.2 201.1,132.4 204.7,127.1C214.4,113 223.9,108 241,108C255.4,108 262.9,111 272.2,120.6C278.9,127.6 282.3,135.1 284.6,147.5C285.3,151.1 286,152.1 286,149.3C286,146.4 289.4,143.7 291.9,144.5C294.5,145.3 294.5,147.5 292,154.7C290.9,157.9 290,161.2 290,162.2C290,163.2 289.6,164 289.1,164C287.9,164 283,173.6 283,175.9C283,179.2 280,189.2 277.1,195.4C273,204.1 266,212.3 258.8,216.9C255.5,219 251.2,222.9 249.1,225.6C244.6,231.6 241.7,232.3 237.1,228.4Z" style="fill-rule:nonzero;"/>
            </g>
            <g transform="matrix(2.1783,-8.93012e-33,-1.51539e-32,-1.28366,303.992,447.954)">
                <path d="M76.725,77.302L109.725,77.302L155.066,213.783L277.404,213.783L322.347,77.302L396.643,77.302" style="fill:none;stroke:white;stroke-width:11.48px;"/>
            </g>
            <g transform="matrix(2.1783,-8.93012e-33,-1.51539e-32,-1.28366,303.992,447.954)">
                <path d="M76.725,77.302L109.725,77.302L155.066,213.783L277.404,213.783L322.347,77.302L396.643,77.302" style="fill:none;stroke:rgb(255,134,68);stroke-width:5.74px;"/>
            </g>
            <g transform="matrix(7.63643e-16,2.44974,4.15708,-4.5001e-16,-589.585,-877.966)">
                <g transform="matrix(4.4189e-17,0.240553,0.240553,-4.4189e-17,358.391,141.827)">
                    <path d="M171.581,193.615L152.701,156.181L134.081,193.746C143.424,184.339 162.174,184.273 171.581,193.615Z"/>
                    <path d="M173.32,692.492L154.701,730.057L135.82,692.622C145.228,701.965 163.977,701.899 173.32,692.492Z"/>
                    <path d="M152.805,186.181C153.15,285.213 154.251,601.025 154.596,700.057" style="fill:none;stroke:black;stroke-width:6.25px;"/>
                </g>
            </g>
            <g transform="matrix(2.1783,-8.93012e-33,1.51539e-32,1.28366,303.992,38.075)">
                <path d="M76.725,172.634L109.529,172.634L132.298,105.522L155.066,172.634L277.404,172.634L299.876,242.004L322.347,172.634L396.643,172.634" style="fill:none;stroke:white;stroke-width:11.48px;"/>
            </g>
            <g transform="matrix(2.1783,-8.93012e-33,1.51539e-32,1.28366,303.992,38.075)">
                <path d="M76.725,172.634L109.529,172.634L132.298,105.522L155.066,172.634L277.404,172.634L299.876,242.004L322.347,172.634L396.643,172.634" style="fill:none;stroke:rgb(107,134,36);stroke-width:5.74px;"/>
            </g>
            <g transform="matrix(1.83008,0,0,0.693692,-48.8177,68.6433)">
                <rect x="663.13" y="139.202" width="31.535" height="278.371" style="fill:white;"/>
            </g>
            <g transform="matrix(1.03605,0,0,0.724498,457.935,-211.695)">
                <rect x="397.696" y="415.028" width="127.894" height="44.703" style="fill:white;"/>
            </g>
            <g transform="matrix(2,0,0,1.17859,-531.203,-415.902)">
                <text x="507.704px" y="468.827px" style="font-family:'ArialMT', 'Arial', sans-serif;font-size:37.5px;fill:rgb(129,129,129);">Switch</text>
            </g>
            <g transform="matrix(2,0,0,1.17859,-155.688,-415.902)">
                <text x="507.704px" y="468.827px" style="font-family:'ArialMT', 'Arial', sans-serif;font-size:37.5px;fill:rgb(129,129,129);">Switch</text>
            </g>
            <g transform="matrix(6.10875e-17,-0.938742,1.9689,4.44933e-17,-192.504,368.23)">
                <g transform="matrix(1.2555,0,0,1.01579,-8.11132,-2.49608)">
                    <text x="44.17px" y="184.905px" style="font-family:'ArialMT', 'Arial', sans-serif;font-size:37.5px;fill:none;stroke:white;stroke-width:10.42px;stroke-linecap:butt;stroke-miterlimit:2;">Space</text>
                </g>
                <g transform="matrix(1.2555,0,0,1.01579,-8.11132,-2.49608)">
                    <text x="44.17px" y="184.905px" style="font-family:'ArialMT', 'Arial', sans-serif;font-size:37.5px;">Space</text>
                </g>
            </g>
            <g transform="matrix(2.51055,0,0,0.693692,-855.263,70.3471)">
                <rect x="663.13" y="139.202" width="31.535" height="278.371" style="fill:white;"/>
            </g>
            <g transform="matrix(2,0,0,1.17859,-523.218,-51.3147)">
                <text x="665.713px" y="265.612px" style="font-family:'ArialMT', 'Arial', sans-serif;font-size:41.667px;">…</text>
            </g>
            <g transform="matrix(2,0,0,1.17859,-523.218,-136.185)">
                <text x="665.713px" y="265.612px" style="font-family:'ArialMT', 'Arial', sans-serif;font-size:41.667px;">…</text>
            </g>
            <g transform="matrix(2,0,0,1.17859,-523.218,39.0107)">
                <text x="665.713px" y="265.612px" style="font-family:'ArialMT', 'Arial', sans-serif;font-size:41.667px;">…</text>
            </g>
            <g transform="matrix(2,0,0,1.17859,-755.148,51.9864)">
                <text x="507.547px" y="329.088px" style="font-family:'ArialMT', 'Arial', sans-serif;font-size:37.5px;fill:rgb(129,129,129);">T<tspan x="526.297px 547.153px " y="329.088px 329.088px ">ar</tspan>get</text>
            </g>
            <g transform="matrix(1.53224,0,0,0.680672,-152.263,68.6467)">
                <g transform="matrix(0.652638,-0,-0,0.865752,99.3726,-100.851)">
                    <path d="M618.764,621.785L660.479,625.997L632.081,656.841C637.516,644.748 630.857,627.22 618.764,621.785Z"/>
                    <path d="M484.954,692.671C484.954,692.671 582.866,655.479 632.434,636.65" style="fill:none;stroke:black;stroke-width:8.33px;stroke-linecap:butt;"/>
                </g>
            </g>
            <g transform="matrix(2,0,1.93245e-32,1.17859,-450.254,78.3659)">
                <text x="350.111px" y="242.823px" style="font-family:'ArialMT', 'Arial', sans-serif;font-size:37.5px;">Fem 2</text>
            </g>
            <g transform="matrix(2,-1.77641e-32,-3.61069e-32,1.17859,-645.757,-9.23173)">
                <text x="447.862px" y="242.823px" style="font-family:'ArialMT', 'Arial', sans-serif;font-size:37.5px;">Fem 1</text>
            </g>
            <g transform="matrix(2,-2.48542e-32,-1.42703e-32,1.17859,-578.59,-94.7278)">
                <text x="439.273px" y="241.04px" style="font-family:'ArialMT', 'Arial', sans-serif;font-size:37.5px;">Male</text>
            </g>
            <g transform="matrix(2,0,0,1.17859,-172.219,-50.6175)">
                <text x="665.713px" y="265.612px" style="font-family:'ArialMT', 'Arial', sans-serif;font-size:41.667px;">…</text>
            </g>
            <g transform="matrix(2,0,0,1.17859,-172.219,-136.212)">
                <text x="665.713px" y="265.612px" style="font-family:'ArialMT', 'Arial', sans-serif;font-size:41.667px;">…</text>
            </g>
            <g transform="matrix(2,0,0,1.17859,-172.219,38.9834)">
                <text x="665.713px" y="265.612px" style="font-family:'ArialMT', 'Arial', sans-serif;font-size:41.667px;">…</text>
            </g>
            <g transform="matrix(2,0,0,1.17859,-871.946,-68.0111)">
                <text x="719.8px" y="440.883px" style="font-family:'ArialMT', 'Arial', sans-serif;font-size:37.5px;fill:rgb(129,129,129);">near</text>
            </g>
            <g transform="matrix(2,0,0,1.17859,-687.957,-68.0111)">
                <text x="719.06px" y="440.883px" style="font-family:'ArialMT', 'Arial', sans-serif;font-size:37.5px;fill:rgb(129,129,129);">far</text>
            </g>
            <g transform="matrix(1.22943,0,0,0.724498,123.769,94.3385)">
                <path d="M507.547,425.648L507.547,439.968L587.778,439.968L587.778,425.648" style="fill:none;stroke:black;stroke-width:5.08px;stroke-linecap:butt;"/>
            </g>
            <g transform="matrix(1.22943,0,0,0.724498,-5.47148,94.27)">
                <path d="M507.547,425.648L507.547,439.968L587.778,439.968L587.778,425.648" style="fill:none;stroke:black;stroke-width:5.08px;stroke-linecap:butt;"/>
            </g>
            <g transform="matrix(2,0,0,1.17859,-1081.96,276.526)">
                <text x="855.225px" y="250.982px" style="font-family:'ArialMT', 'Arial', sans-serif;font-size:37.5px;fill:rgb(129,129,129);">early</text>
            </g>
            <g transform="matrix(2,0,0,1.17859,-868.372,281.739)">
                <text x="839.228px" y="246.559px" style="font-family:'ArialMT', 'Arial', sans-serif;font-size:37.5px;fill:rgb(129,129,129);">late</text>
            </g>
            <g transform="matrix(4.96948,0,0,1.17859,-1714.62,-2.45387)">
                <path d="M507.547,425.648L507.547,439.968L572.586,439.968L572.586,425.648" style="fill:none;stroke:black;stroke-width:1.65px;stroke-linecap:butt;"/>
            </g>
            <g transform="matrix(4.96948,0,0,1.17859,-2009.1,-2.45387)">
                <path d="M489.317,425.648L489.317,439.968L563.471,439.968L563.471,425.648" style="fill:none;stroke:black;stroke-width:1.65px;stroke-linecap:butt;"/>
            </g>
            <g transform="matrix(2,0,0,1.17859,-232.252,47.9857)">
                <text x="694.665px" y="444.893px" style="font-family:'ArialMT', 'Arial', sans-serif;font-size:37.5px;fill:rgb(129,129,129);">in trial</text>
            </g>
            <g transform="matrix(2,0,0,1.17859,-451.043,-72.7372)">
                <text x="694.665px" y="444.893px" style="font-family:'ArialMT', 'Arial', sans-serif;font-size:37.5px;fill:rgb(129,129,129);">from switch</text>
            </g>
            <g transform="matrix(1.01311e-16,-0.975008,1.65454,5.9702e-17,-238.016,250.363)">
                <g transform="matrix(3.70087e-17,0.604398,-0.604398,3.70087e-17,256.781,143.856)">
                    <path d="M1251.94,68.94L1289.44,87.69L1251.94,106.44C1261.32,97.065 1261.32,78.315 1251.94,68.94Z"/>
                    <path d="M242.253,87.69L1259.44,87.69" style="fill:none;stroke:black;stroke-width:6.25px;"/>
                </g>
            </g>
            <g transform="matrix(2,0,-2.46519e-32,0.917482,532.209,-332.65)">
                <g transform="matrix(1,0,0,1.28459,0,-104.894)">
                    <text x="75.849px" y="395.443px" style="font-family:'ArialMT', 'Arial', sans-serif;font-size:37.5px;fill:none;stroke:white;stroke-width:10.42px;stroke-linecap:butt;stroke-miterlimit:2;">T<tspan x="97.364px 105.695px " y="395.443px 395.443px ">im</tspan>e</text>
                </g>
                <g transform="matrix(1,0,0,1.28459,0,-104.894)">
                    <text x="75.849px" y="395.443px" style="font-family:'ArialMT', 'Arial', sans-serif;font-size:37.5px;">T<tspan x="97.364px 105.695px " y="395.443px 395.443px ">im</tspan>e</text>
                </g>
            </g>
        </g>
    </g>
</svg>
