<?xml version="1.0" encoding="UTF-8" standalone="no"?>
<!DOCTYPE svg PUBLIC "-//W3C//DTD SVG 1.1//EN" "http://www.w3.org/Graphics/SVG/1.1/DTD/svg11.dtd">
<svg width="100%" height="100%" viewBox="0 0 1350 784" version="1.1" xmlns="http://www.w3.org/2000/svg" xmlns:xlink="http://www.w3.org/1999/xlink" xml:space="preserve" xmlns:serif="http://www.serif.com/" style="fill-rule:evenodd;clip-rule:evenodd;stroke-linecap:round;stroke-linejoin:round;stroke-miterlimit:1.5;">
    <g id="Artboard1" transform="matrix(1,0,0,1.30524,0,0)">
        <rect x="0" y="0" width="1350" height="600" style="fill:none;"/>
        <clipPath id="_clip1">
            <rect x="0" y="0" width="1350" height="600"/>
        </clipPath>
        <g clip-path="url(#_clip1)">
            <g transform="matrix(2.1783,-1.16101e-32,1.51539e-32,1.66889,303.992,49.5014)">
                <path d="M76.725,105.522L109.725,105.522L155.066,242.004L277.404,242.004L322.347,105.522L396.643,105.522" style="fill:none;stroke:white;stroke-width:11.48px;"/>
            </g>
            <g transform="matrix(0.955306,0,0,1.72381,172.9,-163.88)">
                <rect x="525.591" y="342.989" width="51.536" height="30.301" style="fill:none;stroke:white;stroke-width:12.05px;stroke-linecap:butt;"/>
                <rect x="525.591" y="342.989" width="51.536" height="30.301" style="fill:rgb(129,129,129);"/>
            </g>
            <g transform="matrix(2.1783,-1.16101e-32,1.51539e-32,1.66889,303.992,49.5014)">
                <path d="M76.725,105.522L109.725,105.522L155.066,242.004L277.404,242.004L322.347,105.522L396.643,105.522" style="fill:none;stroke:rgb(129,129,129);stroke-width:5.74px;"/>
            </g>
            <g transform="matrix(4.67213e-17,-0.584579,0.708566,3.32407e-17,-55.3924,480.384)">
                <path d="M237.1,228.4C235.3,226.9 233.4,224.7 233,223.4C232.5,222.2 229.5,219.6 226.3,217.8C211.4,209 201.1,192.6 198.5,173.7C198.2,171.1 197.5,169.2 196.9,169.5C196.4,169.9 196,169.5 196,168.7C196,168 194.7,166.4 193.1,165.2C191,163.7 190.1,162 189.6,158.8C189.2,156.4 188.7,152.9 188.4,150.8C187.9,147.7 188.1,147.1 190,146.5C191.7,146 192.8,146.5 195.1,149.2L197.9,152.5L198,149.5C198.1,142.2 201.1,132.4 204.7,127.1C214.4,113 223.9,108 241,108C255.4,108 262.9,111 272.2,120.6C278.9,127.6 282.3,135.1 284.6,147.5C285.3,151.1 286,152.1 286,149.3C286,146.4 289.4,143.7 291.9,144.5C294.5,145.3 294.5,147.5 292,154.7C290.9,157.9 290,161.2 290,162.2C290,163.2 289.6,164 289.1,164C287.9,164 283,173.6 283,175.9C283,179.2 280,189.2 277.1,195.4C273,204.1 266,212.3 258.8,216.9C255.5,219 251.2,222.9 249.1,225.6C244.6,231.6 241.7,232.3 237.1,228.4Z" style="fill-rule:nonzero;"/>
            </g>
            <g transform="matrix(2.1783,-1.16101e-32,-1.51539e-32,-1.66889,303.992,582.386)">
                <path d="M76.725,77.302L109.725,77.302L155.066,213.783L277.404,213.783L322.347,77.302L396.643,77.302" style="fill:none;stroke:white;stroke-width:11.48px;"/>
            </g>
            <g transform="matrix(2.1783,-1.16101e-32,-1.51539e-32,-1.66889,303.992,582.386)">
                <path d="M76.725,77.302L109.725,77.302L155.066,213.783L277.404,213.783L322.347,77.302L396.643,77.302" style="fill:none;stroke:rgb(129,129,129);stroke-width:5.74px;"/>
            </g>
            <g transform="matrix(7.63643e-16,3.18491,4.15708,-5.85059e-16,-589.585,-1141.44)">
                <g transform="matrix(4.4189e-17,0.240553,0.240553,-4.4189e-17,358.391,141.827)">
                    <path d="M171.581,193.615L152.701,156.181L134.081,193.746C143.424,184.339 162.174,184.273 171.581,193.615Z"/>
                    <path d="M173.32,692.492L154.701,730.057L135.82,692.622C145.228,701.965 163.977,701.899 173.32,692.492Z"/>
                    <path d="M152.805,186.181C153.15,285.213 154.251,601.025 154.596,700.057" style="fill:none;stroke:black;stroke-width:6.25px;"/>
                </g>
            </g>
            <g transform="matrix(2.1783,-1.16101e-32,1.51539e-32,1.66889,303.992,49.5014)">
                <path d="M76.725,172.634L109.529,172.634L132.298,105.522L155.066,172.634L277.404,172.634L299.876,242.004L322.347,172.634L396.643,172.634" style="fill:none;stroke:white;stroke-width:11.48px;"/>
            </g>
            <g transform="matrix(2.1783,-1.16101e-32,1.51539e-32,1.66889,303.992,49.5014)">
                <path d="M76.725,172.634L109.529,172.634L132.298,105.522L155.066,172.634L277.404,172.634L299.876,242.004L322.347,172.634L396.643,172.634" style="fill:none;stroke:rgb(129,129,129);stroke-width:5.74px;"/>
            </g>
            <g transform="matrix(1.83008,0,0,0.90187,-48.8177,89.2432)">
                <rect x="663.13" y="139.202" width="31.535" height="278.371" style="fill:white;"/>
            </g>
            <g transform="matrix(1.03605,0,0,0.94192,457.935,-275.225)">
                <rect x="397.696" y="415.028" width="127.894" height="44.703" style="fill:white;"/>
            </g>
            <g transform="matrix(2,0,0,1.53228,-531.203,-540.714)">
                <text x="507.704px" y="468.827px" style="font-family:'ArialMT', 'Arial', sans-serif;font-size:37.5px;fill:rgb(129,129,129);">Switch</text>
            </g>
            <g transform="matrix(2,0,0,1.53228,-155.688,-540.714)">
                <text x="507.704px" y="468.827px" style="font-family:'ArialMT', 'Arial', sans-serif;font-size:37.5px;fill:rgb(129,129,129);">Switch</text>
            </g>
            <g transform="matrix(6.10875e-17,-1.22046,1.9689,5.78458e-17,-192.504,478.736)">
                <g transform="matrix(1.2555,0,0,1.01579,-8.11132,-2.49608)">
                    <text x="44.17px" y="184.905px" style="font-family:'ArialMT', 'Arial', sans-serif;font-size:37.5px;fill:none;stroke:white;stroke-width:10.42px;stroke-linecap:butt;stroke-miterlimit:2;">Space</text>
                </g>
                <g transform="matrix(1.2555,0,0,1.01579,-8.11132,-2.49608)">
                    <text x="44.17px" y="184.905px" style="font-family:'ArialMT', 'Arial', sans-serif;font-size:37.5px;">Space</text>
                </g>
            </g>
            <g transform="matrix(2.51055,0,0,0.90187,-855.263,91.4584)">
                <rect x="663.13" y="139.202" width="31.535" height="278.371" style="fill:white;"/>
            </g>
            <g transform="matrix(2,0,0,1.53228,-523.218,-66.7144)">
                <text x="665.713px" y="265.612px" style="font-family:'ArialMT', 'Arial', sans-serif;font-size:41.667px;">…</text>
            </g>
            <g transform="matrix(2,0,0,1.53228,-523.218,-177.054)">
                <text x="665.713px" y="265.612px" style="font-family:'ArialMT', 'Arial', sans-serif;font-size:41.667px;">…</text>
            </g>
            <g transform="matrix(2,0,0,1.53228,-523.218,50.7178)">
                <text x="665.713px" y="265.612px" style="font-family:'ArialMT', 'Arial', sans-serif;font-size:41.667px;">…</text>
            </g>
            <g transform="matrix(2,0,0,1.53228,-755.148,59.9262)">
                <text x="507.547px" y="329.088px" style="font-family:'ArialMT', 'Arial', sans-serif;font-size:37.5px;fill:rgb(129,129,129);">T<tspan x="526.297px 547.153px " y="329.088px 329.088px ">ar</tspan>get</text>
            </g>
            <g transform="matrix(1.53224,0,0,0.884943,-152.263,89.2477)">
                <g transform="matrix(0.652638,-0,-0,0.865752,99.3726,-100.851)">
                    <path d="M618.764,621.785L660.479,625.997L632.081,656.841C637.516,644.748 630.857,627.22 618.764,621.785Z"/>
                    <path d="M484.954,692.671C484.954,692.671 582.866,655.479 632.434,636.65" style="fill:none;stroke:black;stroke-width:8.33px;stroke-linecap:butt;"/>
                </g>
            </g>
            <g transform="matrix(2,0,1.93245e-32,1.53228,-450.254,101.884)">
                <text x="350.111px" y="242.823px" style="font-family:'ArialMT', 'Arial', sans-serif;font-size:37.5px;">Fem 2</text>
            </g>
            <g transform="matrix(2,-2.30951e-32,-3.61069e-32,1.53228,-645.757,-12.0022)">
                <text x="447.862px" y="242.823px" style="font-family:'ArialMT', 'Arial', sans-serif;font-size:37.5px;">Fem 1</text>
            </g>
            <g transform="matrix(2,-3.2313e-32,-1.42703e-32,1.53228,-578.59,-123.156)">
                <text x="439.273px" y="241.04px" style="font-family:'ArialMT', 'Arial', sans-serif;font-size:37.5px;">Male</text>
            </g>
            <g transform="matrix(2,0,0,1.53228,-172.219,-65.8079)">
                <text x="665.713px" y="265.612px" style="font-family:'ArialMT', 'Arial', sans-serif;font-size:41.667px;">…</text>
            </g>
            <g transform="matrix(2,0,0,1.53228,-172.219,-177.089)">
                <text x="665.713px" y="265.612px" style="font-family:'ArialMT', 'Arial', sans-serif;font-size:41.667px;">…</text>
            </g>
            <g transform="matrix(2,0,0,1.53228,-172.219,50.6823)">
                <text x="665.713px" y="265.612px" style="font-family:'ArialMT', 'Arial', sans-serif;font-size:41.667px;">…</text>
            </g>
            <g transform="matrix(1.01311e-16,-1.26761,1.65454,7.76187e-17,-238.016,325.498)">
                <g transform="matrix(3.70087e-17,0.604398,-0.604398,3.70087e-17,256.781,143.856)">
                    <path d="M1251.94,68.94L1289.44,87.69L1251.94,106.44C1261.32,97.065 1261.32,78.315 1251.94,68.94Z"/>
                    <path d="M242.253,87.69L1259.44,87.69" style="fill:none;stroke:black;stroke-width:6.25px;"/>
                </g>
            </g>
            <g transform="matrix(2,0,-2.46519e-32,1.19282,532.209,-432.479)">
                <g transform="matrix(1,0,0,1.28459,0,-104.894)">
                    <text x="75.849px" y="395.443px" style="font-family:'ArialMT', 'Arial', sans-serif;font-size:37.5px;fill:none;stroke:white;stroke-width:10.42px;stroke-linecap:butt;stroke-miterlimit:2;">T<tspan x="97.364px 105.695px " y="395.443px 395.443px ">im</tspan>e</text>
                </g>
                <g transform="matrix(1,0,0,1.28459,0,-104.894)">
                    <text x="75.849px" y="395.443px" style="font-family:'ArialMT', 'Arial', sans-serif;font-size:37.5px;">T<tspan x="97.364px 105.695px " y="395.443px 395.443px ">im</tspan>e</text>
                </g>
            </g>
        </g>
    </g>
</svg>
