<?xml version="1.0" encoding="utf-8"?>
<!DOCTYPE svg PUBLIC "-//W3C//DTD SVG 1.1//EN" "http://www.w3.org/Graphics/SVG/1.1/DTD/svg11.dtd">
<svg class="marks" width="241" height="271" viewBox="0 0 241 271" version="1.1" xmlns="http://www.w3.org/2000/svg" xmlns:xlink="http://www.w3.org/1999/xlink"><rect width="241" height="271" fill="white"></rect><g fill="none" stroke-miterlimit="10" transform="translate(34,34)"><g class="mark-group role-frame root" role="graphics-object" aria-roledescription="group mark container"><g transform="translate(0,0)"><path class="background" aria-hidden="true" d="M0.5,0.5h200v200h-200Z" stroke="#ddd"></path><g><g class="mark-group role-axis" aria-hidden="true"><g transform="translate(0.5,200.5)"><path class="background" aria-hidden="true" d="M0,0h0v0h0Z" pointer-events="none"></path><g><g class="mark-rule role-axis-grid" pointer-events="none"><line transform="translate(0,-200)" x2="0" y2="200" stroke="#ddd" stroke-width="1" opacity="1"></line><line transform="translate(30,-200)" x2="0" y2="200" stroke="#ddd" stroke-width="1" opacity="1"></line><line transform="translate(48,-200)" x2="0" y2="200" stroke="#ddd" stroke-width="1" opacity="1"></line><line transform="translate(60,-200)" x2="0" y2="200" stroke="#ddd" stroke-width="1" opacity="1"></line><line transform="translate(70,-200)" x2="0" y2="200" stroke="#ddd" stroke-width="1" opacity="1"></line><line transform="translate(78,-200)" x2="0" y2="200" stroke="#ddd" stroke-width="1" opacity="1"></line><line transform="translate(85,-200)" x2="0" y2="200" stroke="#ddd" stroke-width="1" opacity="1"></line><line transform="translate(90,-200)" x2="0" y2="200" stroke="#ddd" stroke-width="1" opacity="1"></line><line transform="translate(95,-200)" x2="0" y2="200" stroke="#ddd" stroke-width="1" opacity="1"></line><line transform="translate(100,-200)" x2="0" y2="200" stroke="#ddd" stroke-width="1" opacity="1"></line><line transform="translate(130,-200)" x2="0" y2="200" stroke="#ddd" stroke-width="1" opacity="1"></line><line transform="translate(148,-200)" x2="0" y2="200" stroke="#ddd" stroke-width="1" opacity="1"></line><line transform="translate(160,-200)" x2="0" y2="200" stroke="#ddd" stroke-width="1" opacity="1"></line><line transform="translate(170,-200)" x2="0" y2="200" stroke="#ddd" stroke-width="1" opacity="1"></line><line transform="translate(178,-200)" x2="0" y2="200" stroke="#ddd" stroke-width="1" opacity="1"></line><line transform="translate(185,-200)" x2="0" y2="200" stroke="#ddd" stroke-width="1" opacity="1"></line><line transform="translate(190,-200)" x2="0" y2="200" stroke="#ddd" stroke-width="1" opacity="1"></line><line transform="translate(195,-200)" x2="0" y2="200" stroke="#ddd" stroke-width="1" opacity="1"></line><line transform="translate(200,-200)" x2="0" y2="200" stroke="#ddd" stroke-width="1" opacity="1"></line></g></g><path class="foreground" aria-hidden="true" d="" pointer-events="none" display="none"></path></g></g><g class="mark-group role-axis" aria-hidden="true"><g transform="translate(0.5,0.5)"><path class="background" aria-hidden="true" d="M0,0h0v0h0Z" pointer-events="none"></path><g><g class="mark-rule role-axis-grid" pointer-events="none"><line transform="translate(0,175)" x2="200" y2="0" stroke="#ddd" stroke-width="1" opacity="1"></line><line transform="translate(0,125)" x2="200" y2="0" stroke="#ddd" stroke-width="1" opacity="1"></line><line transform="translate(0,75)" x2="200" y2="0" stroke="#ddd" stroke-width="1" opacity="1"></line><line transform="translate(0,25)" x2="200" y2="0" stroke="#ddd" stroke-width="1" opacity="1"></line></g></g><path class="foreground" aria-hidden="true" d="" pointer-events="none" display="none"></path></g></g><g class="mark-group role-axis" role="graphics-symbol" aria-roledescription="axis" aria-label="X-axis titled 'Regularization Parameter (位)' for a log scale with values from 0.01 to 1"><g transform="translate(0.5,200.5)"><path class="background" aria-hidden="true" d="M0,0h0v0h0Z" pointer-events="none"></path><g><g class="mark-rule role-axis-tick" pointer-events="none"><line transform="translate(0,0)" x2="0" y2="5" stroke="#888" stroke-width="1" opacity="1"></line><line transform="translate(30,0)" x2="0" y2="5" stroke="#888" stroke-width="1" opacity="1"></line><line transform="translate(48,0)" x2="0" y2="5" stroke="#888" stroke-width="1" opacity="1"></line><line transform="translate(60,0)" x2="0" y2="5" stroke="#888" stroke-width="1" opacity="1"></line><line transform="translate(70,0)" x2="0" y2="5" stroke="#888" stroke-width="1" opacity="1"></line><line transform="translate(78,0)" x2="0" y2="5" stroke="#888" stroke-width="1" opacity="1"></line><line transform="translate(85,0)" x2="0" y2="5" stroke="#888" stroke-width="1" opacity="1"></line><line transform="translate(90,0)" x2="0" y2="5" stroke="#888" stroke-width="1" opacity="1"></line><line transform="translate(95,0)" x2="0" y2="5" stroke="#888" stroke-width="1" opacity="1"></line><line transform="translate(100,0)" x2="0" y2="5" stroke="#888" stroke-width="1" opacity="1"></line><line transform="translate(130,0)" x2="0" y2="5" stroke="#888" stroke-width="1" opacity="1"></line><line transform="translate(148,0)" x2="0" y2="5" stroke="#888" stroke-width="1" opacity="1"></line><line transform="translate(160,0)" x2="0" y2="5" stroke="#888" stroke-width="1" opacity="1"></line><line transform="translate(170,0)" x2="0" y2="5" stroke="#888" stroke-width="1" opacity="1"></line><line transform="translate(178,0)" x2="0" y2="5" stroke="#888" stroke-width="1" opacity="1"></line><line transform="translate(185,0)" x2="0" y2="5" stroke="#888" stroke-width="1" opacity="1"></line><line transform="translate(190,0)" x2="0" y2="5" stroke="#888" stroke-width="1" opacity="1"></line><line transform="translate(195,0)" x2="0" y2="5" stroke="#888" stroke-width="1" opacity="1"></line><line transform="translate(200,0)" x2="0" y2="5" stroke="#888" stroke-width="1" opacity="1"></line></g><g class="mark-text role-axis-label" pointer-events="none"><text text-anchor="start" transform="translate(0,15)" font-family="sans-serif" font-size="10px" fill="#000" opacity="1">0.01</text><text text-anchor="middle" transform="translate(30.102999566398108,15)" font-family="sans-serif" font-size="10px" fill="#000" opacity="0">0.02</text><text text-anchor="middle" transform="translate(47.712125471966225,15)" font-family="sans-serif" font-size="10px" fill="#000" opacity="1">0.03</text><text text-anchor="middle" transform="translate(60.20599913279623,15)" font-family="sans-serif" font-size="10px" fill="#000" opacity="0">0.04</text><text text-anchor="middle" transform="translate(69.89700043360187,15)" font-family="sans-serif" font-size="10px" fill="#000" opacity="1">0.05</text><text text-anchor="middle" transform="translate(77.81512503836436,15)" font-family="sans-serif" font-size="10px" fill="#000" opacity="1"></text><text text-anchor="middle" transform="translate(84.50980400142568,15)" font-family="sans-serif" font-size="10px" fill="#000" opacity="1"></text><text text-anchor="middle" transform="translate(90.30899869919435,15)" font-family="sans-serif" font-size="10px" fill="#000" opacity="1"></text><text text-anchor="middle" transform="translate(95.42425094393249,15)" font-family="sans-serif" font-size="10px" fill="#000" opacity="1"></text><text text-anchor="middle" transform="translate(100,15)" font-family="sans-serif" font-size="10px" fill="#000" opacity="1">0.1</text><text text-anchor="middle" transform="translate(130.1029995663981,15)" font-family="sans-serif" font-size="10px" fill="#000" opacity="1">0.2</text><text text-anchor="middle" transform="translate(147.71212547196623,15)" font-family="sans-serif" font-size="10px" fill="#000" opacity="1">0.3</text><text text-anchor="middle" transform="translate(160.20599913279622,15)" font-family="sans-serif" font-size="10px" fill="#000" opacity="0">0.4</text><text text-anchor="middle" transform="translate(169.89700043360187,15)" font-family="sans-serif" font-size="10px" fill="#000" opacity="1">0.5</text><text text-anchor="middle" transform="translate(177.81512503836436,15)" font-family="sans-serif" font-size="10px" fill="#000" opacity="1"></text><text text-anchor="middle" transform="translate(184.50980400142566,15)" font-family="sans-serif" font-size="10px" fill="#000" opacity="1"></text><text text-anchor="middle" transform="translate(190.30899869919435,15)" font-family="sans-serif" font-size="10px" fill="#000" opacity="1"></text><text text-anchor="middle" transform="translate(195.4242509439325,15)" font-family="sans-serif" font-size="10px" fill="#000" opacity="1"></text><text text-anchor="end" transform="translate(200,15)" font-family="sans-serif" font-size="10px" fill="#000" opacity="1">1</text></g><g class="mark-rule role-axis-domain" pointer-events="none"><line transform="translate(0,0)" x2="200" y2="0" stroke="#888" stroke-width="1" opacity="1"></line></g><g class="mark-text role-axis-title" pointer-events="none"><text text-anchor="middle" transform="translate(100,30)" font-family="sans-serif" font-size="11px" font-weight="bold" fill="#000" opacity="1">Regularization Parameter (位)</text></g></g><path class="foreground" aria-hidden="true" d="" pointer-events="none" display="none"></path></g></g><g class="mark-group role-axis" role="graphics-symbol" aria-roledescription="axis" aria-label="Y-axis titled 'Model - Null Model Accuracy (logit scale)' for a linear scale with values from -1 to 4"><g transform="translate(0.5,0.5)"><path class="background" aria-hidden="true" d="M0,0h0v0h0Z" pointer-events="none"></path><g><g class="mark-rule role-axis-tick" pointer-events="none"><line transform="translate(0,175)" x2="-5" y2="0" stroke="#888" stroke-width="1" opacity="1"></line><line transform="translate(0,125)" x2="-5" y2="0" stroke="#888" stroke-width="1" opacity="1"></line><line transform="translate(0,75)" x2="-5" y2="0" stroke="#888" stroke-width="1" opacity="1"></line><line transform="translate(0,25)" x2="-5" y2="0" stroke="#888" stroke-width="1" opacity="1"></line></g><g class="mark-text role-axis-label" pointer-events="none"><text text-anchor="end" transform="translate(-7,178)" font-family="sans-serif" font-size="10px" fill="#000" opacity="1">0</text><text text-anchor="end" transform="translate(-7,128)" font-family="sans-serif" font-size="10px" fill="#000" opacity="1">1</text><text text-anchor="end" transform="translate(-7,78)" font-family="sans-serif" font-size="10px" fill="#000" opacity="1">2</text><text text-anchor="end" transform="translate(-7,28)" font-family="sans-serif" font-size="10px" fill="#000" opacity="1">3</text></g><g class="mark-rule role-axis-domain" pointer-events="none"><line transform="translate(0,200)" x2="0" y2="-200" stroke="#888" stroke-width="1" opacity="1"></line></g><g class="mark-text role-axis-title" pointer-events="none"><text text-anchor="middle" transform="translate(-17,100) rotate(-90) translate(0,-2)" font-family="sans-serif" font-size="11px" font-weight="bold" fill="#000" opacity="1">Model - Null Model Accuracy (logit scale)</text></g></g><path class="foreground" aria-hidden="true" d="" pointer-events="none" display="none"></path></g></g><g class="mark-group role-scope layer_0_pathgroup" role="graphics-object" aria-roledescription="group mark container"><g transform="translate(0,0)"><path class="background" aria-hidden="true" d="M0,0h200v200h-200Z"></path><g><g class="mark-line role-mark layer_0_marks" role="graphics-object" aria-roledescription="line mark container"><path aria-label="fold: 2; Regularization Parameter (位): 0.01; Model - Null Model Accuracy (logit scale): 3.24986872727" role="graphics-symbol" aria-roledescription="line mark" d="M0,12.50656363648317L2.0202020202019937,12.093687203334724L4.0404040404040265,11.317245855548341L6.06060606060602,10.08600476593784L8.080808080808053,8.644922751562234L10.101010101010084,7.404531550629234L12.121212121212078,6.676127164919565L14.14141414141411,6.515475815991234L16.161616161616145,6.763044602249901L18.181818181818173,7.197954773840198L20.20202020202017,7.657214387864175L22.2222222222222,8.048280120060314L24.24242424242423,8.300741755573672L26.262626262626227,8.348681236177423L28.28282828282826,8.184103390989028L30.303030303030294,7.931624118523661L32.323232323232325,7.845039453929092L34.34343434343432,8.16787040272937L36.36363636363633,8.920281669494724L38.383838383838366,9.784515668312931L40.40404040404037,10.238896573249567L42.42424242424241,9.903738835747045L44.44444444444442,8.853117158101508L46.46464646464648,7.628799150617116L48.48484848484846,6.916309811741805L50.50505050505048,7.111886788394761L52.52525252525251,8.086908888647159L54.54545454545452,9.300510318543953L56.56565656565655,10.166989584739582L58.585858585858574,10.425639451614565L60.60606060606059,10.275184212904364L62.626262626262616,10.19970718193286L64.64646464646464,10.616476192089298L66.66666666666666,11.587711385221876L68.68686868686868,12.787941405561742L70.70707070707068,13.739216872475613L72.72727272727272,14.140952146706699L74.74747474747473,14.064415608961255L76.76767676767676,13.892028570066039L78.78787878787877,14.06475620871146L80.8080808080808,14.817821107103146L82.82828282828282,16.065677840141102L84.84848484848484,17.477784712269195L86.86868686868686,18.6671220434619L88.88888888888889,19.376804159988524L90.90909090909092,19.594996094804152L92.9292929292929,19.582616539696907L94.94949494949492,19.810550219718802L96.96969696969697,20.796284490677962L98.98989898989896,22.85675177722455L101.010101010101,25.867367720967273L103.030303030303,29.18587050952337L105.05050505050504,31.875290906094133L107.07070707070704,33.19532592517045L109.09090909090908,33.10792181950244L111.1111111111111,32.449932720405684L113.1313131313131,32.58661994602075L115.15151515151514,34.69165106248313L117.17171717171715,39.07209429910785L119.19191919191918,44.975634862536154L121.21212121212119,51.047966420939474L123.23232323232322,56.19400120121716L125.25252525252523,60.29855409770959L127.27272727272727,64.32309088329491L129.2929292929293,69.7293855099109L131.31313131313132,77.66794467779215L133.33333333333331,88.48274565467054L135.35353535353536,101.73408809705L137.37373737373736,116.50495048908351L139.39393939393938,131.65710358626754L141.41414141414143,145.94405526102955L143.43434343434342,158.1258215404457L145.45454545454547,167.22086891615072L147.47474747474746,172.83532293272953L149.49494949494948,175.3474357657343L151.5151515151515,175.76153309946108L153.53535353535352,175.268758800569L155.55555555555557,174.77140811928626L157.57575757575756,174.6446876692195L159.59595959595958,174.81917634175576L161.6161616161616,175.04902383110155L163.63636363636363,175.15500798805158L165.65656565656565,175.11529393395134L167.67676767676767,175.01453618890577L169.6969696969697,174.94407310085563L171.7171717171717,174.93856316029033L173.73737373737373,174.9757798988829L175.75757575757575,175.01411011372224L177.77777777777777,175.02781980140762L179.7979797979798,175.01770443328934L181.81818181818184,174.99995975767789L183.83838383838383,174.9893389650506L185.85858585858585,174.98999720092218L187.87878787878788,174.99698899025913L189.89898989898987,175.00316979129073L191.91919191919192,175.00478769552242L193.93939393939394,175.00260091489528L195.959595959596,174.99957360369098L197.97979797979798,174.99803844622937L200,174.9984108117919" stroke="#f58518" stroke-width="2"></path></g></g><path class="foreground" aria-hidden="true" d="" display="none"></path></g><g transform="translate(0,0)"><path class="background" aria-hidden="true" d="M0,0h200v200h-200Z"></path><g><g class="mark-line role-mark layer_0_marks" role="graphics-object" aria-roledescription="line mark container"><path aria-label="fold: 1; Regularization Parameter (位): 0.01; Model - Null Model Accuracy (logit scale): 3.12393544982" role="graphics-symbol" aria-roledescription="line mark" d="M0,18.803227508962948L2.0202020202019937,18.97005533435372L4.0404040404040265,18.967867734932486L6.06060606060602,18.7125677852084L8.080808080808053,18.25823953215604L10.101010101010084,17.776069966331363L12.121212121212078,17.455796339034933L14.14141414141411,17.378070889136854L16.161616161616145,17.443448110433437L18.181818181818173,17.42155373662677L20.20202020202017,17.10673174726731L22.2222222222222,16.485862479613232L24.24242424242423,15.79810483255486L26.262626262626227,15.4217306611796L28.28282828282826,15.637958556971165L30.303030303030294,16.423549995609086L32.323232323232325,17.424795839163878L34.34343434343432,18.14296230399637L36.36363636363633,18.208096428076416L38.383838383838366,17.56366180212392L40.40404040404037,16.46182345463929L42.42424242424241,15.299121141998606L44.44444444444442,14.41113856551397L46.46464646464648,13.949562089864532L48.48484848484846,13.891492691681862L50.50505050505048,14.130784463794988L52.52525252525251,14.555144901701533L54.54545454545452,15.059297945241546L56.56565656565655,15.52803683984254L58.585858585858574,15.850304938683335L60.60606060606059,15.973976837113923L62.626262626262616,15.94901943990623L64.64646464646464,15.90431724729875L66.66666666666666,15.95817778212496L68.68686868686868,16.121953313772085L70.70707070707068,16.276208385686086L72.72727272727272,16.26167562598344L74.74747474747473,16.04178402817473L76.76767676767676,15.81150760495631L78.78787878787877,15.931012106283472L80.8080808080808,16.687850152433835L82.82828282828282,18.05553447137229L84.84848484848484,19.65980504315219L86.86868686868686,21.006267656069276L88.88888888888889,21.784434571910282L90.90909090909092,21.98396778959413L92.9292929292929,21.74585964378013L94.94949494949492,21.146473738830696L96.96969696969697,20.1799803660637L98.98989898989896,18.975690252156063L101.010101010101,17.993806356894915L103.030303030303,17.9063782983367L105.05050505050504,19.15865014179554L107.07070707070704,21.553288548389247L109.09090909090908,24.259690499140717L111.1111111111111,26.327792534680384L113.1313131313131,27.343589619413567L115.15151515151514,27.70935339342435L117.17171717171715,28.334325228900937L119.19191919191918,30.014984236684427L121.21212121212119,33.010786418452874L123.23232323232322,37.091711552276216L125.25252525252523,41.90130360548729L127.27272727272727,47.268485918170256L129.2929292929293,53.28076954110299L131.31313131313132,60.24167836276757L133.33333333333331,68.68575130131937L135.35353535353536,79.37035629429366L137.37373737373736,92.98487297332225L139.39393939393938,109.54064485120844L141.41414141414143,127.84436579899344L143.43434343434342,145.5929911935949L145.45454545454547,160.22222324175496L147.47474747474746,170.03651746844383L149.49494949494948,174.90262778646243L151.5151515151515,176.1023866029753L153.53535353535352,175.5193102924103L155.55555555555557,174.71959399386225L157.57575757575756,174.44530153810985L159.59595959595958,174.67601883649715L161.6161616161616,175.04227680510854L163.63636363636363,175.23724865278513L165.65656565656565,175.19674353962128L167.67676767676767,175.041227961438L169.6969696969697,174.91987944846704L171.7171717171717,174.899605297609L173.73737373737373,174.95361067654505L175.75757575757575,175.01664121792396L177.77777777777777,175.0435154043984L179.7979797979798,175.03095531756276L181.81818181818184,175.003007465445L183.83838383838383,174.98425515065614L185.85858585858585,174.98338711874544L187.87878787878788,174.99382240110882L189.89898989898987,175.0041575916555L191.91919191919192,175.00761660158895L193.93939393939394,175.00466879745701L195.959595959596,174.99982114880763L197.97979797979798,174.99703055841195L200,174.99731425005203" stroke="#4c78a8" stroke-width="2"></path></g></g><path class="foreground" aria-hidden="true" d="" display="none"></path></g></g><g class="mark-group role-legend" role="graphics-symbol" aria-roledescription="legend" aria-label="Symbol legend titled 'fold' for stroke color with 2 values: 1, 2"><g transform="translate(175,0.5)"><path class="background" aria-hidden="true" d="M0,0h25v40h-25Z" pointer-events="none"></path><g><g class="mark-group role-legend-entry"><g transform="translate(0,16)"><path class="background" aria-hidden="true" d="M0,0h0v0h0Z" pointer-events="none"></path><g><g class="mark-group role-scope" role="graphics-object" aria-roledescription="group mark container"><g transform="translate(0,0)"><path class="background" aria-hidden="true" d="M0,0h22v11h-22Z" pointer-events="none" opacity="1"></path><g><g class="mark-symbol role-legend-symbol" pointer-events="none"><path transform="translate(6,6)" d="M-5,0L5,0" stroke="#4c78a8" stroke-width="1.5" opacity="1"></path></g><g class="mark-text role-legend-label" pointer-events="none"><text text-anchor="start" transform="translate(16,9)" font-family="sans-serif" font-size="10px" fill="#000" opacity="1">1</text></g></g><path class="foreground" aria-hidden="true" d="" pointer-events="none" display="none"></path></g><g transform="translate(0,13)"><path class="background" aria-hidden="true" d="M0,0h22v11h-22Z" pointer-events="none" opacity="1"></path><g><g class="mark-symbol role-legend-symbol" pointer-events="none"><path transform="translate(6,6)" d="M-5,0L5,0" stroke="#f58518" stroke-width="1.5" opacity="1"></path></g><g class="mark-text role-legend-label" pointer-events="none"><text text-anchor="start" transform="translate(16,9)" font-family="sans-serif" font-size="10px" fill="#000" opacity="1">2</text></g></g><path class="foreground" aria-hidden="true" d="" pointer-events="none" display="none"></path></g></g></g><path class="foreground" aria-hidden="true" d="" pointer-events="none" display="none"></path></g></g><g class="mark-text role-legend-title" pointer-events="none"><text text-anchor="start" transform="translate(0,9)" font-family="sans-serif" font-size="11px" font-weight="bold" fill="#000" opacity="1">fold</text></g></g><path class="foreground" aria-hidden="true" d="" pointer-events="none" display="none"></path></g></g></g><path class="foreground" aria-hidden="true" d="" display="none"></path></g></g></g></svg>
