<?xml version="1.0" encoding="utf-8"?>
<!DOCTYPE svg PUBLIC "-//W3C//DTD SVG 1.1//EN" "http://www.w3.org/Graphics/SVG/1.1/DTD/svg11.dtd">
<svg class="marks" width="250" height="271" viewBox="0 0 250 271" version="1.1" xmlns="http://www.w3.org/2000/svg" xmlns:xlink="http://www.w3.org/1999/xlink"><rect width="250" height="271" fill="white"></rect><g fill="none" stroke-miterlimit="10" transform="translate(43,34)"><g class="mark-group role-frame root" role="graphics-object" aria-roledescription="group mark container"><g transform="translate(0,0)"><path class="background" aria-hidden="true" d="M0.5,0.5h200v200h-200Z" stroke="#ddd"></path><g><g class="mark-group role-axis" aria-hidden="true"><g transform="translate(0.5,200.5)"><path class="background" aria-hidden="true" d="M0,0h0v0h0Z" pointer-events="none"></path><g><g class="mark-rule role-axis-grid" pointer-events="none"><line transform="translate(0,-200)" x2="0" y2="200" stroke="#ddd" stroke-width="1" opacity="1"></line><line transform="translate(30,-200)" x2="0" y2="200" stroke="#ddd" stroke-width="1" opacity="1"></line><line transform="translate(48,-200)" x2="0" y2="200" stroke="#ddd" stroke-width="1" opacity="1"></line><line transform="translate(60,-200)" x2="0" y2="200" stroke="#ddd" stroke-width="1" opacity="1"></line><line transform="translate(70,-200)" x2="0" y2="200" stroke="#ddd" stroke-width="1" opacity="1"></line><line transform="translate(78,-200)" x2="0" y2="200" stroke="#ddd" stroke-width="1" opacity="1"></line><line transform="translate(85,-200)" x2="0" y2="200" stroke="#ddd" stroke-width="1" opacity="1"></line><line transform="translate(90,-200)" x2="0" y2="200" stroke="#ddd" stroke-width="1" opacity="1"></line><line transform="translate(95,-200)" x2="0" y2="200" stroke="#ddd" stroke-width="1" opacity="1"></line><line transform="translate(100,-200)" x2="0" y2="200" stroke="#ddd" stroke-width="1" opacity="1"></line><line transform="translate(130,-200)" x2="0" y2="200" stroke="#ddd" stroke-width="1" opacity="1"></line><line transform="translate(148,-200)" x2="0" y2="200" stroke="#ddd" stroke-width="1" opacity="1"></line><line transform="translate(160,-200)" x2="0" y2="200" stroke="#ddd" stroke-width="1" opacity="1"></line><line transform="translate(170,-200)" x2="0" y2="200" stroke="#ddd" stroke-width="1" opacity="1"></line><line transform="translate(178,-200)" x2="0" y2="200" stroke="#ddd" stroke-width="1" opacity="1"></line><line transform="translate(185,-200)" x2="0" y2="200" stroke="#ddd" stroke-width="1" opacity="1"></line><line transform="translate(190,-200)" x2="0" y2="200" stroke="#ddd" stroke-width="1" opacity="1"></line><line transform="translate(195,-200)" x2="0" y2="200" stroke="#ddd" stroke-width="1" opacity="1"></line><line transform="translate(200,-200)" x2="0" y2="200" stroke="#ddd" stroke-width="1" opacity="1"></line></g></g><path class="foreground" aria-hidden="true" d="" pointer-events="none" display="none"></path></g></g><g class="mark-group role-axis" aria-hidden="true"><g transform="translate(0.5,0.5)"><path class="background" aria-hidden="true" d="M0,0h0v0h0Z" pointer-events="none"></path><g><g class="mark-rule role-axis-grid" pointer-events="none"><line transform="translate(0,185)" x2="200" y2="0" stroke="#ddd" stroke-width="1" opacity="1"></line><line transform="translate(0,146)" x2="200" y2="0" stroke="#ddd" stroke-width="1" opacity="1"></line><line transform="translate(0,108)" x2="200" y2="0" stroke="#ddd" stroke-width="1" opacity="1"></line><line transform="translate(0,69)" x2="200" y2="0" stroke="#ddd" stroke-width="1" opacity="1"></line><line transform="translate(0,31)" x2="200" y2="0" stroke="#ddd" stroke-width="1" opacity="1"></line></g></g><path class="foreground" aria-hidden="true" d="" pointer-events="none" display="none"></path></g></g><g class="mark-group role-axis" role="graphics-symbol" aria-roledescription="axis" aria-label="X-axis titled 'Regularization Parameter (位)' for a log scale with values from 0.01 to 1"><g transform="translate(0.5,200.5)"><path class="background" aria-hidden="true" d="M0,0h0v0h0Z" pointer-events="none"></path><g><g class="mark-rule role-axis-tick" pointer-events="none"><line transform="translate(0,0)" x2="0" y2="5" stroke="#888" stroke-width="1" opacity="1"></line><line transform="translate(30,0)" x2="0" y2="5" stroke="#888" stroke-width="1" opacity="1"></line><line transform="translate(48,0)" x2="0" y2="5" stroke="#888" stroke-width="1" opacity="1"></line><line transform="translate(60,0)" x2="0" y2="5" stroke="#888" stroke-width="1" opacity="1"></line><line transform="translate(70,0)" x2="0" y2="5" stroke="#888" stroke-width="1" opacity="1"></line><line transform="translate(78,0)" x2="0" y2="5" stroke="#888" stroke-width="1" opacity="1"></line><line transform="translate(85,0)" x2="0" y2="5" stroke="#888" stroke-width="1" opacity="1"></line><line transform="translate(90,0)" x2="0" y2="5" stroke="#888" stroke-width="1" opacity="1"></line><line transform="translate(95,0)" x2="0" y2="5" stroke="#888" stroke-width="1" opacity="1"></line><line transform="translate(100,0)" x2="0" y2="5" stroke="#888" stroke-width="1" opacity="1"></line><line transform="translate(130,0)" x2="0" y2="5" stroke="#888" stroke-width="1" opacity="1"></line><line transform="translate(148,0)" x2="0" y2="5" stroke="#888" stroke-width="1" opacity="1"></line><line transform="translate(160,0)" x2="0" y2="5" stroke="#888" stroke-width="1" opacity="1"></line><line transform="translate(170,0)" x2="0" y2="5" stroke="#888" stroke-width="1" opacity="1"></line><line transform="translate(178,0)" x2="0" y2="5" stroke="#888" stroke-width="1" opacity="1"></line><line transform="translate(185,0)" x2="0" y2="5" stroke="#888" stroke-width="1" opacity="1"></line><line transform="translate(190,0)" x2="0" y2="5" stroke="#888" stroke-width="1" opacity="1"></line><line transform="translate(195,0)" x2="0" y2="5" stroke="#888" stroke-width="1" opacity="1"></line><line transform="translate(200,0)" x2="0" y2="5" stroke="#888" stroke-width="1" opacity="1"></line></g><g class="mark-text role-axis-label" pointer-events="none"><text text-anchor="start" transform="translate(0,15)" font-family="sans-serif" font-size="10px" fill="#000" opacity="1">0.01</text><text text-anchor="middle" transform="translate(30.102999566398108,15)" font-family="sans-serif" font-size="10px" fill="#000" opacity="0">0.02</text><text text-anchor="middle" transform="translate(47.712125471966225,15)" font-family="sans-serif" font-size="10px" fill="#000" opacity="1">0.03</text><text text-anchor="middle" transform="translate(60.20599913279623,15)" font-family="sans-serif" font-size="10px" fill="#000" opacity="0">0.04</text><text text-anchor="middle" transform="translate(69.89700043360187,15)" font-family="sans-serif" font-size="10px" fill="#000" opacity="1">0.05</text><text text-anchor="middle" transform="translate(77.81512503836436,15)" font-family="sans-serif" font-size="10px" fill="#000" opacity="1"></text><text text-anchor="middle" transform="translate(84.50980400142568,15)" font-family="sans-serif" font-size="10px" fill="#000" opacity="1"></text><text text-anchor="middle" transform="translate(90.30899869919435,15)" font-family="sans-serif" font-size="10px" fill="#000" opacity="1"></text><text text-anchor="middle" transform="translate(95.42425094393249,15)" font-family="sans-serif" font-size="10px" fill="#000" opacity="1"></text><text text-anchor="middle" transform="translate(100,15)" font-family="sans-serif" font-size="10px" fill="#000" opacity="1">0.1</text><text text-anchor="middle" transform="translate(130.1029995663981,15)" font-family="sans-serif" font-size="10px" fill="#000" opacity="1">0.2</text><text text-anchor="middle" transform="translate(147.71212547196623,15)" font-family="sans-serif" font-size="10px" fill="#000" opacity="1">0.3</text><text text-anchor="middle" transform="translate(160.20599913279622,15)" font-family="sans-serif" font-size="10px" fill="#000" opacity="0">0.4</text><text text-anchor="middle" transform="translate(169.89700043360187,15)" font-family="sans-serif" font-size="10px" fill="#000" opacity="1">0.5</text><text text-anchor="middle" transform="translate(177.81512503836436,15)" font-family="sans-serif" font-size="10px" fill="#000" opacity="1"></text><text text-anchor="middle" transform="translate(184.50980400142566,15)" font-family="sans-serif" font-size="10px" fill="#000" opacity="1"></text><text text-anchor="middle" transform="translate(190.30899869919435,15)" font-family="sans-serif" font-size="10px" fill="#000" opacity="1"></text><text text-anchor="middle" transform="translate(195.4242509439325,15)" font-family="sans-serif" font-size="10px" fill="#000" opacity="1"></text><text text-anchor="end" transform="translate(200,15)" font-family="sans-serif" font-size="10px" fill="#000" opacity="1">1</text></g><g class="mark-rule role-axis-domain" pointer-events="none"><line transform="translate(0,0)" x2="200" y2="0" stroke="#888" stroke-width="1" opacity="1"></line></g><g class="mark-text role-axis-title" pointer-events="none"><text text-anchor="middle" transform="translate(100,30)" font-family="sans-serif" font-size="11px" font-weight="bold" fill="#000" opacity="1">Regularization Parameter (位)</text></g></g><path class="foreground" aria-hidden="true" d="" pointer-events="none" display="none"></path></g></g><g class="mark-group role-axis" role="graphics-symbol" aria-roledescription="axis" aria-label="Y-axis titled 'Model - Null Model Accuracy (logit scale)' for a linear scale with values from -0.2 to 2.4"><g transform="translate(0.5,0.5)"><path class="background" aria-hidden="true" d="M0,0h0v0h0Z" pointer-events="none"></path><g><g class="mark-rule role-axis-tick" pointer-events="none"><line transform="translate(0,185)" x2="-5" y2="0" stroke="#888" stroke-width="1" opacity="1"></line><line transform="translate(0,146)" x2="-5" y2="0" stroke="#888" stroke-width="1" opacity="1"></line><line transform="translate(0,108)" x2="-5" y2="0" stroke="#888" stroke-width="1" opacity="1"></line><line transform="translate(0,69)" x2="-5" y2="0" stroke="#888" stroke-width="1" opacity="1"></line><line transform="translate(0,31)" x2="-5" y2="0" stroke="#888" stroke-width="1" opacity="1"></line></g><g class="mark-text role-axis-label" pointer-events="none"><text text-anchor="end" transform="translate(-7,187.6153846153846)" font-family="sans-serif" font-size="10px" fill="#000" opacity="1">0.0</text><text text-anchor="end" transform="translate(-7,149.15384615384616)" font-family="sans-serif" font-size="10px" fill="#000" opacity="1">0.5</text><text text-anchor="end" transform="translate(-7,110.69230769230771)" font-family="sans-serif" font-size="10px" fill="#000" opacity="1">1.0</text><text text-anchor="end" transform="translate(-7,72.23076923076923)" font-family="sans-serif" font-size="10px" fill="#000" opacity="1">1.5</text><text text-anchor="end" transform="translate(-7,33.769230769230774)" font-family="sans-serif" font-size="10px" fill="#000" opacity="1">2.0</text></g><g class="mark-rule role-axis-domain" pointer-events="none"><line transform="translate(0,200)" x2="0" y2="-200" stroke="#888" stroke-width="1" opacity="1"></line></g><g class="mark-text role-axis-title" pointer-events="none"><text text-anchor="middle" transform="translate(-26,100) rotate(-90) translate(0,-2)" font-family="sans-serif" font-size="11px" font-weight="bold" fill="#000" opacity="1">Model - Null Model Accuracy (logit scale)</text></g></g><path class="foreground" aria-hidden="true" d="" pointer-events="none" display="none"></path></g></g><g class="mark-group role-scope layer_0_pathgroup" role="graphics-object" aria-roledescription="group mark container"><g transform="translate(0,0)"><path class="background" aria-hidden="true" d="M0,0h200v200h-200Z"></path><g><g class="mark-line role-mark layer_0_marks" role="graphics-object" aria-roledescription="line mark container"><path aria-label="fold: 2; Regularization Parameter (位): 0.01; Model - Null Model Accuracy (logit scale): 1.66581370139" role="graphics-symbol" aria-roledescription="line mark" d="M0,56.475869124028975L2.0202020202019937,55.60016348180281L4.0404040404040265,54.62739464166128L6.06060606060602,53.582013232751976L8.080808080808053,52.61856320446236L10.101010101010084,51.95836170952954L12.121212121212078,51.793603123849465L14.14141414141411,52.11053984704519L16.161616161616145,52.47969936349482L18.181818181818173,52.05783051414849L20.20202020202017,49.96842999043174L22.2222222222222,45.90074174325893L24.24242424242423,40.5435213715146L26.262626262626227,35.43822368791305L28.28282828282826,32.08560587653895L30.303030303030294,30.888821306008452L32.323232323232325,31.04474148501586L34.34343434343432,31.591444999556085L36.36363636363633,32.32037804128392L38.383838383838366,33.48184834537082L40.40404040404037,34.943394927440075L42.42424242424241,36.011232729571276L44.44444444444442,35.94119963364235L46.46464646464648,34.44528500320234L48.48484848484846,31.94891019129504L50.50505050505048,29.52375656843367L52.52525252525251,28.2140418968758L54.54545454545452,28.075978937224843L56.56565656565655,27.993758871911332L58.585858585858574,26.65714097920877L60.60606060606059,23.734116088903654L62.626262626262616,20.12297579060247L64.64646464646464,17.17268735169788L66.66666666666666,15.618939848393065L68.68686868686868,15.13824311702745L70.70707070707068,14.875259481153801L72.72727272727272,14.345927279381376L74.74747474747473,13.755422072246336L76.76767676767676,13.538849973915124L78.78787878787877,13.78718005111741L80.8080808080808,14.09445531610276L82.82828282828282,13.810563533153486L84.84848484848484,12.542686124553516L86.86868686868686,10.622176445854903L88.88888888888889,8.922390620243025L90.90909090909092,7.913992452912755L92.9292929292929,7.109521323858692L94.94949494949492,5.880883137224768L96.96969696969697,4.631739622072617L98.98989898989896,4.5728232732855645L101.010101010101,6.321261944516299L103.030303030303,9.177111851814757L105.05050505050504,11.851195033119488L107.07070707070704,13.575448565860837L109.09090909090908,14.429320467961482L111.1111111111111,14.909670504186302L113.1313131313131,15.501281535181954L115.15151515151514,16.673202921778984L117.17171717171715,18.972651342489556L119.19191919191918,22.681211644332166L121.21212121212119,27.27690445229738L123.23232323232322,31.800259688749357L125.25252525252523,36.44570431939764L127.27272727272727,43.541561902843014L129.2929292929293,55.79192036781002L131.31313131313132,72.95698590725826L133.33333333333331,91.08213666243572L135.35353535353536,106.04758673932113L137.37373737373736,117.76513866384097L139.39393939393938,130.0089541637641L141.41414141414143,145.80005692645787L143.43434343434342,163.48329432492977L145.45454545454547,177.87991769040104L147.47474747474746,185.16172930549527L149.49494949494948,186.10038522837223L151.5151515151515,184.59967687299718L153.53535353535352,183.83693075754934L155.55555555555557,184.29731200329732L157.57575757575756,184.89493952674147L159.59595959595958,184.9183036284358L161.6161616161616,184.6050835572119L163.63636363636363,184.4448351661457L165.65656565656565,184.53974535194507L167.67676767676767,184.67244005519865L169.6969696969697,184.6839281657534L171.7171717171717,184.61697808406197L173.73737373737373,184.57873471773632L175.75757575757575,184.59700853159418L177.77777777777777,184.62660840194297L179.7979797979798,184.6307742107048L181.81818181818184,184.61661046738732L183.83838383838383,184.60757166265836L185.85858585858585,184.61098372939404L187.87878787878788,184.61754621821567L189.89898989898987,184.6188187887257L191.91919191919192,184.6158453386265L193.93939393939394,184.61373057161026L195.959595959596,184.6143431050159L197.97979797979798,184.61578976848273L200,184.61614654075416" stroke="#f58518" stroke-width="2"></path></g></g><path class="foreground" aria-hidden="true" d="" display="none"></path></g><g transform="translate(0,0)"><path class="background" aria-hidden="true" d="M0,0h200v200h-200Z"></path><g><g class="mark-line role-mark layer_0_marks" role="graphics-object" aria-roledescription="line mark container"><path aria-label="fold: 1; Regularization Parameter (位): 0.01; Model - Null Model Accuracy (logit scale): 1.52326863266" role="graphics-symbol" aria-roledescription="line mark" d="M0,67.44087441101992L2.0202020202019937,67.61775200462262L4.0404040404040265,68.83474562277279L6.06060606060602,70.91060816073397L8.080808080808053,72.72469674421704L10.101010101010084,73.50209905463944L12.121212121212078,73.45610118960812L14.14141414141411,73.24070023696032L16.161616161616145,73.16660186609856L18.181818181818173,73.06424404803555L20.20202020202017,72.63741849076317L22.2222222222222,71.78222131414012L24.24242424242423,70.74271448650723L26.262626262626227,70.09213835640293L28.28282828282826,70.28829189547739L30.303030303030294,70.8968466108232L32.323232323232325,70.42480901583232L34.34343434343432,67.51548469603588L36.36363636363633,62.57195542901612L38.383838383838366,57.84669448841206L40.40404040404037,55.540789969851744L42.42424242424241,55.84219826007608L44.44444444444442,56.97801710305941L46.46464646464648,57.14434956794043L48.48484848484846,56.29762497018156L50.50505050505048,56.023616909967046L52.52525252525251,57.60364996493155L54.54545454545452,60.32365626923142L56.56565656565655,62.02516744362057L58.585858585858574,61.40382901563293L60.60606060606059,59.35772762316629L62.626262626262616,57.82884033233846L64.64646464646464,57.733082928468036L66.66666666666666,58.47176983098103L68.68686868686868,59.148360235853524L70.70707070707068,59.51757647723566L72.72727272727272,59.58748360418631L74.74747474747473,58.94414496450236L76.76767676767676,57.087082808817804L78.78787878787877,54.32571751831363L80.8080808080808,51.851709480244224L82.82828282828282,50.737184936621404L84.84848484848484,51.002957033125654L86.86868686868686,51.71647015220506L88.88888888888889,51.86642266256529L90.90909090909092,51.073197888378274L92.9292929292929,49.607942227962475L94.94949494949492,48.109385581736476L96.96969696969697,47.61705481461378L98.98989898989896,49.60230166066544L101.010101010101,55.053070898021936L103.030303030303,62.95889091515694L105.05050505050504,70.2226805448175L107.07070707070704,74.02256404039768L109.09090909090908,74.50619487727694L111.1111111111111,74.62711860047311L113.1313131313131,76.89967328229066L115.15151515151514,80.57691878292752L117.17171717171715,82.60257944658159L119.19191919191918,81.33597432049446L121.21212121212119,78.54727487223221L123.23232323232322,77.26460634942988L125.25252525252523,78.43303431347921L127.27272727272727,80.84268089144267L129.2929292929293,84.24408504800182L131.31313131313132,91.16230476480693L133.33333333333331,104.49901866179651L135.35353535353536,123.42888994474417L137.37373737373736,142.6095585582118L139.39393939393938,156.2821046886201L141.41414141414143,163.20908776342705L143.43434343434342,167.08555549510154L145.45454545454547,172.0538613753255L147.47474747474746,178.53677955812142L149.49494949494948,183.81423260894272L151.5151515151515,185.80450196622897L153.53535353535352,185.22559924090254L155.55555555555557,184.25412851223672L157.57575757575756,184.14309144561682L159.59595959595958,184.59638103502084L161.6161616161616,184.86258846778327L163.63636363636363,184.7420256467044L165.65656565656565,184.54051866555662L167.67676767676767,184.51058968224635L169.6969696969697,184.60627009411564L171.7171717171717,184.66823985272L173.73737373737373,184.64560098533858L175.75757575757575,184.60096922874877L177.77777777777777,184.59200839253407L179.7979797979798,184.61208588644908L181.81818181818184,184.62656610232503L183.83838383838383,184.62252573914512L185.85858585858585,184.61269360038816L187.87878787878788,184.61020215098736L189.89898989898987,184.61437772758978L191.91919191919192,184.61773185952336L193.93939393939394,184.61705528011524L195.959595959596,184.61490168532237L197.97979797979798,184.6142422157622L200,184.61510245749992" stroke="#4c78a8" stroke-width="2"></path></g></g><path class="foreground" aria-hidden="true" d="" display="none"></path></g></g><g class="mark-group role-legend" role="graphics-symbol" aria-roledescription="legend" aria-label="Symbol legend titled 'fold' for stroke color with 2 values: 1, 2"><g transform="translate(175,0.5)"><path class="background" aria-hidden="true" d="M0,0h25v40h-25Z" pointer-events="none"></path><g><g class="mark-group role-legend-entry"><g transform="translate(0,16)"><path class="background" aria-hidden="true" d="M0,0h0v0h0Z" pointer-events="none"></path><g><g class="mark-group role-scope" role="graphics-object" aria-roledescription="group mark container"><g transform="translate(0,0)"><path class="background" aria-hidden="true" d="M0,0h22v11h-22Z" pointer-events="none" opacity="1"></path><g><g class="mark-symbol role-legend-symbol" pointer-events="none"><path transform="translate(6,6)" d="M-5,0L5,0" stroke="#4c78a8" stroke-width="1.5" opacity="1"></path></g><g class="mark-text role-legend-label" pointer-events="none"><text text-anchor="start" transform="translate(16,9)" font-family="sans-serif" font-size="10px" fill="#000" opacity="1">1</text></g></g><path class="foreground" aria-hidden="true" d="" pointer-events="none" display="none"></path></g><g transform="translate(0,13)"><path class="background" aria-hidden="true" d="M0,0h22v11h-22Z" pointer-events="none" opacity="1"></path><g><g class="mark-symbol role-legend-symbol" pointer-events="none"><path transform="translate(6,6)" d="M-5,0L5,0" stroke="#f58518" stroke-width="1.5" opacity="1"></path></g><g class="mark-text role-legend-label" pointer-events="none"><text text-anchor="start" transform="translate(16,9)" font-family="sans-serif" font-size="10px" fill="#000" opacity="1">2</text></g></g><path class="foreground" aria-hidden="true" d="" pointer-events="none" display="none"></path></g></g></g><path class="foreground" aria-hidden="true" d="" pointer-events="none" display="none"></path></g></g><g class="mark-text role-legend-title" pointer-events="none"><text text-anchor="start" transform="translate(0,9)" font-family="sans-serif" font-size="11px" font-weight="bold" fill="#000" opacity="1">fold</text></g></g><path class="foreground" aria-hidden="true" d="" pointer-events="none" display="none"></path></g></g></g><path class="foreground" aria-hidden="true" d="" display="none"></path></g></g></g></svg>
