<?xml version="1.0" encoding="utf-8"?>
<!DOCTYPE svg PUBLIC "-//W3C//DTD SVG 1.1//EN" "http://www.w3.org/Graphics/SVG/1.1/DTD/svg11.dtd">
<svg class="marks" width="889" height="671" viewBox="0 0 889 671" version="1.1" xmlns="http://www.w3.org/2000/svg" xmlns:xlink="http://www.w3.org/1999/xlink"><rect width="889" height="671" fill="white"></rect><g fill="none" stroke-miterlimit="10" transform="translate(53,56)"><g class="mark-group role-frame root" role="graphics-object" aria-roledescription="group mark container"><g transform="translate(0,0)"><path class="background" aria-hidden="true" d="M0,0h750v0h-750Z"></path><g><g class="mark-group role-scope concat_0_group" role="graphics-object" aria-roledescription="group mark container"><g transform="translate(0,0)"><path class="background" aria-hidden="true" d="M0.5,0.5h750v100h-750Z" stroke="#ddd"></path><g><g class="mark-group role-axis" aria-hidden="true"><g transform="translate(0.5,100.5)"><path class="background" aria-hidden="true" d="M0,0h0v0h0Z" pointer-events="none"></path><g><g class="mark-rule role-axis-grid" pointer-events="none"><line transform="translate(0,-100)" x2="0" y2="100" stroke="#ddd" stroke-width="1" opacity="1"></line><line transform="translate(113,-100)" x2="0" y2="100" stroke="#ddd" stroke-width="1" opacity="1"></line><line transform="translate(179,-100)" x2="0" y2="100" stroke="#ddd" stroke-width="1" opacity="1"></line><line transform="translate(226,-100)" x2="0" y2="100" stroke="#ddd" stroke-width="1" opacity="1"></line><line transform="translate(262,-100)" x2="0" y2="100" stroke="#ddd" stroke-width="1" opacity="1"></line><line transform="translate(292,-100)" x2="0" y2="100" stroke="#ddd" stroke-width="1" opacity="1"></line><line transform="translate(317,-100)" x2="0" y2="100" stroke="#ddd" stroke-width="1" opacity="1"></line><line transform="translate(339,-100)" x2="0" y2="100" stroke="#ddd" stroke-width="1" opacity="1"></line><line transform="translate(358,-100)" x2="0" y2="100" stroke="#ddd" stroke-width="1" opacity="1"></line><line transform="translate(375,-100)" x2="0" y2="100" stroke="#ddd" stroke-width="1" opacity="1"></line><line transform="translate(488,-100)" x2="0" y2="100" stroke="#ddd" stroke-width="1" opacity="1"></line><line transform="translate(554,-100)" x2="0" y2="100" stroke="#ddd" stroke-width="1" opacity="1"></line><line transform="translate(601,-100)" x2="0" y2="100" stroke="#ddd" stroke-width="1" opacity="1"></line><line transform="translate(637,-100)" x2="0" y2="100" stroke="#ddd" stroke-width="1" opacity="1"></line><line transform="translate(667,-100)" x2="0" y2="100" stroke="#ddd" stroke-width="1" opacity="1"></line><line transform="translate(692,-100)" x2="0" y2="100" stroke="#ddd" stroke-width="1" opacity="1"></line><line transform="translate(714,-100)" x2="0" y2="100" stroke="#ddd" stroke-width="1" opacity="1"></line><line transform="translate(733,-100)" x2="0" y2="100" stroke="#ddd" stroke-width="1" opacity="1"></line><line transform="translate(750,-100)" x2="0" y2="100" stroke="#ddd" stroke-width="1" opacity="1"></line></g></g><path class="foreground" aria-hidden="true" d="" pointer-events="none" display="none"></path></g></g><g class="mark-group role-axis" aria-hidden="true"><g transform="translate(0.5,0.5)"><path class="background" aria-hidden="true" d="M0,0h0v0h0Z" pointer-events="none"></path><g><g class="mark-rule role-axis-grid" pointer-events="none"><line transform="translate(0,100)" x2="750" y2="0" stroke="#ddd" stroke-width="1" opacity="1"></line><line transform="translate(0,69)" x2="750" y2="0" stroke="#ddd" stroke-width="1" opacity="1"></line><line transform="translate(0,38)" x2="750" y2="0" stroke="#ddd" stroke-width="1" opacity="1"></line><line transform="translate(0,6)" x2="750" y2="0" stroke="#ddd" stroke-width="1" opacity="1"></line></g></g><path class="foreground" aria-hidden="true" d="" pointer-events="none" display="none"></path></g></g><g class="mark-group role-axis" role="graphics-symbol" aria-roledescription="axis" aria-label="X-axis titled 'Regularization Parameter (λ)' for a log scale with values from 0.01 to 1"><g transform="translate(0.5,100.5)"><path class="background" aria-hidden="true" d="M0,0h0v0h0Z" pointer-events="none"></path><g><g class="mark-rule role-axis-tick" pointer-events="none"><line transform="translate(0,0)" x2="0" y2="5" stroke="#888" stroke-width="1" opacity="1"></line><line transform="translate(113,0)" x2="0" y2="5" stroke="#888" stroke-width="1" opacity="1"></line><line transform="translate(179,0)" x2="0" y2="5" stroke="#888" stroke-width="1" opacity="1"></line><line transform="translate(226,0)" x2="0" y2="5" stroke="#888" stroke-width="1" opacity="1"></line><line transform="translate(262,0)" x2="0" y2="5" stroke="#888" stroke-width="1" opacity="1"></line><line transform="translate(292,0)" x2="0" y2="5" stroke="#888" stroke-width="1" opacity="1"></line><line transform="translate(317,0)" x2="0" y2="5" stroke="#888" stroke-width="1" opacity="1"></line><line transform="translate(339,0)" x2="0" y2="5" stroke="#888" stroke-width="1" opacity="1"></line><line transform="translate(358,0)" x2="0" y2="5" stroke="#888" stroke-width="1" opacity="1"></line><line transform="translate(375,0)" x2="0" y2="5" stroke="#888" stroke-width="1" opacity="1"></line><line transform="translate(488,0)" x2="0" y2="5" stroke="#888" stroke-width="1" opacity="1"></line><line transform="translate(554,0)" x2="0" y2="5" stroke="#888" stroke-width="1" opacity="1"></line><line transform="translate(601,0)" x2="0" y2="5" stroke="#888" stroke-width="1" opacity="1"></line><line transform="translate(637,0)" x2="0" y2="5" stroke="#888" stroke-width="1" opacity="1"></line><line transform="translate(667,0)" x2="0" y2="5" stroke="#888" stroke-width="1" opacity="1"></line><line transform="translate(692,0)" x2="0" y2="5" stroke="#888" stroke-width="1" opacity="1"></line><line transform="translate(714,0)" x2="0" y2="5" stroke="#888" stroke-width="1" opacity="1"></line><line transform="translate(733,0)" x2="0" y2="5" stroke="#888" stroke-width="1" opacity="1"></line><line transform="translate(750,0)" x2="0" y2="5" stroke="#888" stroke-width="1" opacity="1"></line></g><g class="mark-text role-axis-label" pointer-events="none"><text text-anchor="start" transform="translate(0,15)" font-family="sans-serif" font-size="10px" fill="#000" opacity="1">0.01</text><text text-anchor="middle" transform="translate(112.88624837399291,15)" font-family="sans-serif" font-size="10px" fill="#000" opacity="1">0.02</text><text text-anchor="middle" transform="translate(178.92047051987333,15)" font-family="sans-serif" font-size="10px" fill="#000" opacity="1">0.03</text><text text-anchor="middle" transform="translate(225.77249674798585,15)" font-family="sans-serif" font-size="10px" fill="#000" opacity="1">0.04</text><text text-anchor="middle" transform="translate(262.113751626007,15)" font-family="sans-serif" font-size="10px" fill="#000" opacity="1">0.05</text><text text-anchor="middle" transform="translate(291.80671889386633,15)" font-family="sans-serif" font-size="10px" fill="#000" opacity="1"></text><text text-anchor="middle" transform="translate(316.9117650053463,15)" font-family="sans-serif" font-size="10px" fill="#000" opacity="1"></text><text text-anchor="middle" transform="translate(338.65874512197877,15)" font-family="sans-serif" font-size="10px" fill="#000" opacity="1"></text><text text-anchor="middle" transform="translate(357.84094103974684,15)" font-family="sans-serif" font-size="10px" fill="#000" opacity="1"></text><text text-anchor="middle" transform="translate(375,15)" font-family="sans-serif" font-size="10px" fill="#000" opacity="1">0.1</text><text text-anchor="middle" transform="translate(487.8862483739929,15)" font-family="sans-serif" font-size="10px" fill="#000" opacity="1">0.2</text><text text-anchor="middle" transform="translate(553.9204705198734,15)" font-family="sans-serif" font-size="10px" fill="#000" opacity="1">0.3</text><text text-anchor="middle" transform="translate(600.7724967479859,15)" font-family="sans-serif" font-size="10px" fill="#000" opacity="1">0.4</text><text text-anchor="middle" transform="translate(637.113751626007,15)" font-family="sans-serif" font-size="10px" fill="#000" opacity="1">0.5</text><text text-anchor="middle" transform="translate(666.8067188938663,15)" font-family="sans-serif" font-size="10px" fill="#000" opacity="1"></text><text text-anchor="middle" transform="translate(691.9117650053463,15)" font-family="sans-serif" font-size="10px" fill="#000" opacity="1"></text><text text-anchor="middle" transform="translate(713.6587451219789,15)" font-family="sans-serif" font-size="10px" fill="#000" opacity="1"></text><text text-anchor="middle" transform="translate(732.8409410397469,15)" font-family="sans-serif" font-size="10px" fill="#000" opacity="1"></text><text text-anchor="end" transform="translate(750,15)" font-family="sans-serif" font-size="10px" fill="#000" opacity="1">1</text></g><g class="mark-rule role-axis-domain" pointer-events="none"><line transform="translate(0,0)" x2="750" y2="0" stroke="#888" stroke-width="1" opacity="1"></line></g><g class="mark-text role-axis-title" pointer-events="none"><text text-anchor="middle" transform="translate(375,30)" font-family="sans-serif" font-size="11px" font-weight="bold" fill="#000" opacity="1">Regularization Parameter (λ)</text></g></g><path class="foreground" aria-hidden="true" d="" pointer-events="none" display="none"></path></g></g><g class="mark-group role-axis" role="graphics-symbol" aria-roledescription="axis" aria-label="Y-axis titled '# of non-zero coefficients (max)' for a linear scale with values from 0 to 16"><g transform="translate(0.5,0.5)"><path class="background" aria-hidden="true" d="M0,0h0v0h0Z" pointer-events="none"></path><g><g class="mark-rule role-axis-tick" pointer-events="none"><line transform="translate(0,100)" x2="-5" y2="0" stroke="#888" stroke-width="1" opacity="1"></line><line transform="translate(0,69)" x2="-5" y2="0" stroke="#888" stroke-width="1" opacity="1"></line><line transform="translate(0,38)" x2="-5" y2="0" stroke="#888" stroke-width="1" opacity="1"></line><line transform="translate(0,6)" x2="-5" y2="0" stroke="#888" stroke-width="1" opacity="1"></line></g><g class="mark-text role-axis-label" pointer-events="none"><text text-anchor="end" transform="translate(-7,103)" font-family="sans-serif" font-size="10px" fill="#000" opacity="1">0</text><text text-anchor="end" transform="translate(-7,71.75)" font-family="sans-serif" font-size="10px" fill="#000" opacity="1">5</text><text text-anchor="end" transform="translate(-7,40.5)" font-family="sans-serif" font-size="10px" fill="#000" opacity="1">10</text><text text-anchor="end" transform="translate(-7,9.25)" font-family="sans-serif" font-size="10px" fill="#000" opacity="1">15</text></g><g class="mark-rule role-axis-domain" pointer-events="none"><line transform="translate(0,100)" x2="0" y2="-100" stroke="#888" stroke-width="1" opacity="1"></line></g><g class="mark-text role-axis-title" pointer-events="none"><text text-anchor="middle" transform="translate(-23,50) rotate(-90) translate(0,-2)" font-family="sans-serif" font-size="11px" font-weight="bold" fill="#000" opacity="1"># of non-zero coefficients (max)</text></g></g><path class="foreground" aria-hidden="true" d="" pointer-events="none" display="none"></path></g></g><g class="mark-group role-scope concat_0_pathgroup" role="graphics-object" aria-roledescription="group mark container"><g transform="translate(0,0)"><path class="background" aria-hidden="true" d="M0,0h750v100h-750Z"></path><g><g class="mark-line role-mark concat_0_marks" role="graphics-object" aria-roledescription="line mark container"><path aria-label="condition: global; Regularization Parameter (λ): 0.01; # of non-zero coefficients (max): 14" role="graphics-symbol" aria-roledescription="line mark" d="M0,12.5L7.575757575757477,18.75L15.151515151515099,18.75L22.727272727272574,18.75L30.303030303030198,18.75L37.87878787878782,18.75L45.4545454545453,18.75L53.03030303030291,18.75L60.60606060606054,18.75L68.18181818181816,18.75L75.75757575757564,18.75L83.33333333333326,18.75L90.90909090909086,18.75L98.48484848484834,12.5L106.06060606060598,12.5L113.6363636363636,18.75L121.21212121212122,12.5L128.78787878787867,12.5L136.36363636363623,12.5L143.93939393939388,12.5L151.51515151515142,12.5L159.09090909090904,12.5L166.66666666666657,12.5L174.24242424242428,6.25L181.81818181818173,12.5L189.3939393939393,18.75L196.9696969696969,18.75L204.54545454545445,25L212.12121212121207,25L219.69696969696966,25L227.2727272727272,25L234.84848484848482,25L242.42424242424235,25L250,25L257.5757575757575,25L265.15151515151507,25L272.7272727272727,25L280.30303030303025,31.25L287.8787878787879,31.25L295.4545454545454,31.25L303.030303030303,25L310.60606060606057,31.25L318.18181818181813,31.25L325.75757575757575,31.25L333.3333333333333,37.5L340.90909090909093,37.5L348.4848484848484,37.5L356.06060606060595,37.5L363.6363636363636,37.5L371.21212121212113,37.5L378.78787878787875,31.25L386.36363636363626,37.5L393.9393939393939,37.5L401.51515151515144,37.5L409.09090909090907,37.5L416.66666666666663,31.25L424.24242424242414,31.25L431.81818181818176,37.5L439.3939393939393,43.75L446.96969696969694,43.75L454.54545454545445,43.75L462.1212121212121,50L469.69696969696963,50L477.27272727272725,37.5L484.8484848484849,37.5L492.42424242424244,56.25L500,56.25L507.5757575757576,56.25L515.1515151515151,62.5L522.7272727272726,62.5L530.3030303030303,62.5L537.8787878787879,56.25L545.4545454545455,62.5L553.030303030303,62.5L560.6060606060605,62.5L568.1818181818181,56.25L575.7575757575758,68.75L583.3333333333334,75L590.9090909090909,81.25L598.4848484848484,81.25L606.060606060606,87.5L613.6363636363636,100L621.2121212121211,100L628.7878787878788,100L636.3636363636363,100L643.9393939393939,100L651.5151515151515,100L659.0909090909091,100L666.6666666666666,100L674.2424242424242,100L681.8181818181819,100L689.3939393939394,100L696.969696969697,100L704.5454545454546,100L712.121212121212,100L719.6969696969696,100L727.2727272727273,100L734.8484848484849,100L742.4242424242424,100L750,100" stroke="#4c78a8" stroke-width="2"></path></g></g><path class="foreground" aria-hidden="true" d="" display="none"></path></g><g transform="translate(0,0)"><path class="background" aria-hidden="true" d="M0,0h750v100h-750Z"></path><g><g class="mark-line role-mark concat_0_marks" role="graphics-object" aria-roledescription="line mark container"><path aria-label="condition: object; Regularization Parameter (λ): 0.01; # of non-zero coefficients (max): 12" role="graphics-symbol" aria-roledescription="line mark" d="M0,25L7.575757575757477,25L15.151515151515099,25L22.727272727272574,25L30.303030303030198,25L37.87878787878782,25L45.4545454545453,31.25L53.03030303030291,25L60.60606060606054,31.25L68.18181818181816,31.25L75.75757575757564,31.25L83.33333333333326,31.25L90.90909090909086,31.25L98.48484848484834,31.25L106.06060606060598,25L113.6363636363636,31.25L121.21212121212122,25L128.78787878787867,25L136.36363636363623,25L143.93939393939388,25L151.51515151515142,25L159.09090909090904,31.25L166.66666666666657,31.25L174.24242424242428,31.25L181.81818181818173,31.25L189.3939393939393,31.25L196.9696969696969,31.25L204.54545454545445,31.25L212.12121212121207,31.25L219.69696969696966,37.5L227.2727272727272,37.5L234.84848484848482,37.5L242.42424242424235,37.5L250,37.5L257.5757575757575,37.5L265.15151515151507,43.75L272.7272727272727,43.75L280.30303030303025,43.75L287.8787878787879,43.75L295.4545454545454,43.75L303.030303030303,43.75L310.60606060606057,43.75L318.18181818181813,43.75L325.75757575757575,43.75L333.3333333333333,43.75L340.90909090909093,37.5L348.4848484848484,37.5L356.06060606060595,37.5L363.6363636363636,43.75L371.21212121212113,43.75L378.78787878787875,43.75L386.36363636363626,43.75L393.9393939393939,43.75L401.51515151515144,43.75L409.09090909090907,43.75L416.66666666666663,43.75L424.24242424242414,43.75L431.81818181818176,43.75L439.3939393939393,43.75L446.96969696969694,43.75L454.54545454545445,50L462.1212121212121,50L469.69696969696963,50L477.27272727272725,50L484.8484848484849,43.75L492.42424242424244,50L500,56.25L507.5757575757576,56.25L515.1515151515151,62.5L522.7272727272726,62.5L530.3030303030303,56.25L537.8787878787879,62.5L545.4545454545455,62.5L553.030303030303,62.5L560.6060606060605,75L568.1818181818181,81.25L575.7575757575758,87.5L583.3333333333334,100L590.9090909090909,100L598.4848484848484,100L606.060606060606,100L613.6363636363636,100L621.2121212121211,100L628.7878787878788,100L636.3636363636363,100L643.9393939393939,100L651.5151515151515,100L659.0909090909091,100L666.6666666666666,100L674.2424242424242,100L681.8181818181819,100L689.3939393939394,100L696.969696969697,100L704.5454545454546,100L712.121212121212,100L719.6969696969696,100L727.2727272727273,100L734.8484848484849,100L742.4242424242424,100L750,100" stroke="#f58518" stroke-width="2"></path></g></g><path class="foreground" aria-hidden="true" d="" display="none"></path></g><g transform="translate(0,0)"><path class="background" aria-hidden="true" d="M0,0h750v100h-750Z"></path><g><g class="mark-line role-mark concat_0_marks" role="graphics-object" aria-roledescription="line mark container"><path aria-label="condition: spatial; Regularization Parameter (λ): 0.01; # of non-zero coefficients (max): 12" role="graphics-symbol" aria-roledescription="line mark" d="M0,25L7.575757575757477,25L15.151515151515099,25L22.727272727272574,25L30.303030303030198,25L37.87878787878782,25L45.4545454545453,25L53.03030303030291,25L60.60606060606054,25L68.18181818181816,25L75.75757575757564,31.25L83.33333333333326,31.25L90.90909090909086,31.25L98.48484848484834,31.25L106.06060606060598,31.25L113.6363636363636,31.25L121.21212121212122,31.25L128.78787878787867,31.25L136.36363636363623,31.25L143.93939393939388,25L151.51515151515142,25L159.09090909090904,25L166.66666666666657,31.25L174.24242424242428,31.25L181.81818181818173,31.25L189.3939393939393,31.25L196.9696969696969,37.5L204.54545454545445,37.5L212.12121212121207,37.5L219.69696969696966,37.5L227.2727272727272,37.5L234.84848484848482,37.5L242.42424242424235,37.5L250,37.5L257.5757575757575,37.5L265.15151515151507,37.5L272.7272727272727,37.5L280.30303030303025,43.75L287.8787878787879,43.75L295.4545454545454,37.5L303.030303030303,37.5L310.60606060606057,37.5L318.18181818181813,37.5L325.75757575757575,37.5L333.3333333333333,43.75L340.90909090909093,43.75L348.4848484848484,43.75L356.06060606060595,43.75L363.6363636363636,43.75L371.21212121212113,43.75L378.78787878787875,43.75L386.36363636363626,43.75L393.9393939393939,43.75L401.51515151515144,43.75L409.09090909090907,43.75L416.66666666666663,43.75L424.24242424242414,37.5L431.81818181818176,37.5L439.3939393939393,37.5L446.96969696969694,43.75L454.54545454545445,43.75L462.1212121212121,43.75L469.69696969696963,50L477.27272727272725,50L484.8484848484849,50L492.42424242424244,56.25L500,62.5L507.5757575757576,62.5L515.1515151515151,68.75L522.7272727272726,68.75L530.3030303030303,68.75L537.8787878787879,68.75L545.4545454545455,68.75L553.030303030303,68.75L560.6060606060605,68.75L568.1818181818181,75L575.7575757575758,81.25L583.3333333333334,81.25L590.9090909090909,87.5L598.4848484848484,87.5L606.060606060606,93.75L613.6363636363636,100L621.2121212121211,100L628.7878787878788,100L636.3636363636363,100L643.9393939393939,100L651.5151515151515,100L659.0909090909091,100L666.6666666666666,100L674.2424242424242,100L681.8181818181819,100L689.3939393939394,100L696.969696969697,100L704.5454545454546,100L712.121212121212,100L719.6969696969696,100L727.2727272727273,100L734.8484848484849,100L742.4242424242424,100L750,100" stroke="#e45756" stroke-width="2"></path></g></g><path class="foreground" aria-hidden="true" d="" display="none"></path></g></g></g><path class="foreground" aria-hidden="true" d="" display="none"></path></g></g><g class="mark-group role-scope concat_1_group" role="graphics-object" aria-roledescription="group mark container"><g transform="translate(0,177)"><path class="background" aria-hidden="true" d="M0.5,0.5h750v400h-750Z" stroke="#ddd"></path><g><g class="mark-group role-axis" aria-hidden="true"><g transform="translate(0.5,400.5)"><path class="background" aria-hidden="true" d="M0,0h0v0h0Z" pointer-events="none"></path><g><g class="mark-rule role-axis-grid" pointer-events="none"><line transform="translate(0,-400)" x2="0" y2="400" stroke="#ddd" stroke-width="1" opacity="1"></line><line transform="translate(113,-400)" x2="0" y2="400" stroke="#ddd" stroke-width="1" opacity="1"></line><line transform="translate(179,-400)" x2="0" y2="400" stroke="#ddd" stroke-width="1" opacity="1"></line><line transform="translate(226,-400)" x2="0" y2="400" stroke="#ddd" stroke-width="1" opacity="1"></line><line transform="translate(262,-400)" x2="0" y2="400" stroke="#ddd" stroke-width="1" opacity="1"></line><line transform="translate(292,-400)" x2="0" y2="400" stroke="#ddd" stroke-width="1" opacity="1"></line><line transform="translate(317,-400)" x2="0" y2="400" stroke="#ddd" stroke-width="1" opacity="1"></line><line transform="translate(339,-400)" x2="0" y2="400" stroke="#ddd" stroke-width="1" opacity="1"></line><line transform="translate(358,-400)" x2="0" y2="400" stroke="#ddd" stroke-width="1" opacity="1"></line><line transform="translate(375,-400)" x2="0" y2="400" stroke="#ddd" stroke-width="1" opacity="1"></line><line transform="translate(488,-400)" x2="0" y2="400" stroke="#ddd" stroke-width="1" opacity="1"></line><line transform="translate(554,-400)" x2="0" y2="400" stroke="#ddd" stroke-width="1" opacity="1"></line><line transform="translate(601,-400)" x2="0" y2="400" stroke="#ddd" stroke-width="1" opacity="1"></line><line transform="translate(637,-400)" x2="0" y2="400" stroke="#ddd" stroke-width="1" opacity="1"></line><line transform="translate(667,-400)" x2="0" y2="400" stroke="#ddd" stroke-width="1" opacity="1"></line><line transform="translate(692,-400)" x2="0" y2="400" stroke="#ddd" stroke-width="1" opacity="1"></line><line transform="translate(714,-400)" x2="0" y2="400" stroke="#ddd" stroke-width="1" opacity="1"></line><line transform="translate(733,-400)" x2="0" y2="400" stroke="#ddd" stroke-width="1" opacity="1"></line><line transform="translate(750,-400)" x2="0" y2="400" stroke="#ddd" stroke-width="1" opacity="1"></line></g></g><path class="foreground" aria-hidden="true" d="" pointer-events="none" display="none"></path></g></g><g class="mark-group role-axis" aria-hidden="true"><g transform="translate(0.5,0.5)"><path class="background" aria-hidden="true" d="M0,0h0v0h0Z" pointer-events="none"></path><g><g class="mark-rule role-axis-grid" pointer-events="none"><line transform="translate(0,400)" x2="750" y2="0" stroke="#ddd" stroke-width="1" opacity="1"></line><line transform="translate(0,350)" x2="750" y2="0" stroke="#ddd" stroke-width="1" opacity="1"></line><line transform="translate(0,300)" x2="750" y2="0" stroke="#ddd" stroke-width="1" opacity="1"></line><line transform="translate(0,250)" x2="750" y2="0" stroke="#ddd" stroke-width="1" opacity="1"></line><line transform="translate(0,200)" x2="750" y2="0" stroke="#ddd" stroke-width="1" opacity="1"></line><line transform="translate(0,150)" x2="750" y2="0" stroke="#ddd" stroke-width="1" opacity="1"></line><line transform="translate(0,100)" x2="750" y2="0" stroke="#ddd" stroke-width="1" opacity="1"></line><line transform="translate(0,50)" x2="750" y2="0" stroke="#ddd" stroke-width="1" opacity="1"></line><line transform="translate(0,0)" x2="750" y2="0" stroke="#ddd" stroke-width="1" opacity="1"></line></g></g><path class="foreground" aria-hidden="true" d="" pointer-events="none" display="none"></path></g></g><g class="mark-group role-axis" role="graphics-symbol" aria-roledescription="axis" aria-label="X-axis titled 'Regularization Parameter (λ)' for a log scale with values from 0.01 to 1"><g transform="translate(0.5,400.5)"><path class="background" aria-hidden="true" d="M0,0h0v0h0Z" pointer-events="none"></path><g><g class="mark-rule role-axis-tick" pointer-events="none"><line transform="translate(0,0)" x2="0" y2="5" stroke="#888" stroke-width="1" opacity="1"></line><line transform="translate(113,0)" x2="0" y2="5" stroke="#888" stroke-width="1" opacity="1"></line><line transform="translate(179,0)" x2="0" y2="5" stroke="#888" stroke-width="1" opacity="1"></line><line transform="translate(226,0)" x2="0" y2="5" stroke="#888" stroke-width="1" opacity="1"></line><line transform="translate(262,0)" x2="0" y2="5" stroke="#888" stroke-width="1" opacity="1"></line><line transform="translate(292,0)" x2="0" y2="5" stroke="#888" stroke-width="1" opacity="1"></line><line transform="translate(317,0)" x2="0" y2="5" stroke="#888" stroke-width="1" opacity="1"></line><line transform="translate(339,0)" x2="0" y2="5" stroke="#888" stroke-width="1" opacity="1"></line><line transform="translate(358,0)" x2="0" y2="5" stroke="#888" stroke-width="1" opacity="1"></line><line transform="translate(375,0)" x2="0" y2="5" stroke="#888" stroke-width="1" opacity="1"></line><line transform="translate(488,0)" x2="0" y2="5" stroke="#888" stroke-width="1" opacity="1"></line><line transform="translate(554,0)" x2="0" y2="5" stroke="#888" stroke-width="1" opacity="1"></line><line transform="translate(601,0)" x2="0" y2="5" stroke="#888" stroke-width="1" opacity="1"></line><line transform="translate(637,0)" x2="0" y2="5" stroke="#888" stroke-width="1" opacity="1"></line><line transform="translate(667,0)" x2="0" y2="5" stroke="#888" stroke-width="1" opacity="1"></line><line transform="translate(692,0)" x2="0" y2="5" stroke="#888" stroke-width="1" opacity="1"></line><line transform="translate(714,0)" x2="0" y2="5" stroke="#888" stroke-width="1" opacity="1"></line><line transform="translate(733,0)" x2="0" y2="5" stroke="#888" stroke-width="1" opacity="1"></line><line transform="translate(750,0)" x2="0" y2="5" stroke="#888" stroke-width="1" opacity="1"></line></g><g class="mark-text role-axis-label" pointer-events="none"><text text-anchor="start" transform="translate(0,15)" font-family="sans-serif" font-size="10px" fill="#000" opacity="1">0.01</text><text text-anchor="middle" transform="translate(112.88624837399291,15)" font-family="sans-serif" font-size="10px" fill="#000" opacity="1">0.02</text><text text-anchor="middle" transform="translate(178.92047051987333,15)" font-family="sans-serif" font-size="10px" fill="#000" opacity="1">0.03</text><text text-anchor="middle" transform="translate(225.77249674798585,15)" font-family="sans-serif" font-size="10px" fill="#000" opacity="1">0.04</text><text text-anchor="middle" transform="translate(262.113751626007,15)" font-family="sans-serif" font-size="10px" fill="#000" opacity="1">0.05</text><text text-anchor="middle" transform="translate(291.80671889386633,15)" font-family="sans-serif" font-size="10px" fill="#000" opacity="1"></text><text text-anchor="middle" transform="translate(316.9117650053463,15)" font-family="sans-serif" font-size="10px" fill="#000" opacity="1"></text><text text-anchor="middle" transform="translate(338.65874512197877,15)" font-family="sans-serif" font-size="10px" fill="#000" opacity="1"></text><text text-anchor="middle" transform="translate(357.84094103974684,15)" font-family="sans-serif" font-size="10px" fill="#000" opacity="1"></text><text text-anchor="middle" transform="translate(375,15)" font-family="sans-serif" font-size="10px" fill="#000" opacity="1">0.1</text><text text-anchor="middle" transform="translate(487.8862483739929,15)" font-family="sans-serif" font-size="10px" fill="#000" opacity="1">0.2</text><text text-anchor="middle" transform="translate(553.9204705198734,15)" font-family="sans-serif" font-size="10px" fill="#000" opacity="1">0.3</text><text text-anchor="middle" transform="translate(600.7724967479859,15)" font-family="sans-serif" font-size="10px" fill="#000" opacity="1">0.4</text><text text-anchor="middle" transform="translate(637.113751626007,15)" font-family="sans-serif" font-size="10px" fill="#000" opacity="1">0.5</text><text text-anchor="middle" transform="translate(666.8067188938663,15)" font-family="sans-serif" font-size="10px" fill="#000" opacity="1"></text><text text-anchor="middle" transform="translate(691.9117650053463,15)" font-family="sans-serif" font-size="10px" fill="#000" opacity="1"></text><text text-anchor="middle" transform="translate(713.6587451219789,15)" font-family="sans-serif" font-size="10px" fill="#000" opacity="1"></text><text text-anchor="middle" transform="translate(732.8409410397469,15)" font-family="sans-serif" font-size="10px" fill="#000" opacity="1"></text><text text-anchor="end" transform="translate(750,15)" font-family="sans-serif" font-size="10px" fill="#000" opacity="1">1</text></g><g class="mark-rule role-axis-domain" pointer-events="none"><line transform="translate(0,0)" x2="750" y2="0" stroke="#888" stroke-width="1" opacity="1"></line></g><g class="mark-text role-axis-title" pointer-events="none"><text text-anchor="middle" transform="translate(375,30)" font-family="sans-serif" font-size="11px" font-weight="bold" fill="#000" opacity="1">Regularization Parameter (λ)</text></g></g><path class="foreground" aria-hidden="true" d="" pointer-events="none" display="none"></path></g></g><g class="mark-group role-axis" role="graphics-symbol" aria-roledescription="axis" aria-label="Y-axis titled '% Correct - % Correct of Null Model (Intercept Only)' for a linear scale with values from -0.2 to 0.2"><g transform="translate(0.5,0.5)"><path class="background" aria-hidden="true" d="M0,0h0v0h0Z" pointer-events="none"></path><g><g class="mark-rule role-axis-tick" pointer-events="none"><line transform="translate(0,400)" x2="-5" y2="0" stroke="#888" stroke-width="1" opacity="1"></line><line transform="translate(0,350)" x2="-5" y2="0" stroke="#888" stroke-width="1" opacity="1"></line><line transform="translate(0,300)" x2="-5" y2="0" stroke="#888" stroke-width="1" opacity="1"></line><line transform="translate(0,250)" x2="-5" y2="0" stroke="#888" stroke-width="1" opacity="1"></line><line transform="translate(0,200)" x2="-5" y2="0" stroke="#888" stroke-width="1" opacity="1"></line><line transform="translate(0,150)" x2="-5" y2="0" stroke="#888" stroke-width="1" opacity="1"></line><line transform="translate(0,100)" x2="-5" y2="0" stroke="#888" stroke-width="1" opacity="1"></line><line transform="translate(0,50)" x2="-5" y2="0" stroke="#888" stroke-width="1" opacity="1"></line><line transform="translate(0,0)" x2="-5" y2="0" stroke="#888" stroke-width="1" opacity="1"></line></g><g class="mark-text role-axis-label" pointer-events="none"><text text-anchor="end" transform="translate(-7,403)" font-family="sans-serif" font-size="10px" fill="#000" opacity="1">-0.20</text><text text-anchor="end" transform="translate(-7,353)" font-family="sans-serif" font-size="10px" fill="#000" opacity="1">-0.15</text><text text-anchor="end" transform="translate(-7,303)" font-family="sans-serif" font-size="10px" fill="#000" opacity="1">-0.10</text><text text-anchor="end" transform="translate(-7,253)" font-family="sans-serif" font-size="10px" fill="#000" opacity="1">-0.05</text><text text-anchor="end" transform="translate(-7,203)" font-family="sans-serif" font-size="10px" fill="#000" opacity="1">0.00</text><text text-anchor="end" transform="translate(-7,153)" font-family="sans-serif" font-size="10px" fill="#000" opacity="1">0.05</text><text text-anchor="end" transform="translate(-7,102.99999999999996)" font-family="sans-serif" font-size="10px" fill="#000" opacity="1">0.10</text><text text-anchor="end" transform="translate(-7,53.00000000000004)" font-family="sans-serif" font-size="10px" fill="#000" opacity="1">0.15</text><text text-anchor="end" transform="translate(-7,3)" font-family="sans-serif" font-size="10px" fill="#000" opacity="1">0.20</text></g><g class="mark-rule role-axis-domain" pointer-events="none"><line transform="translate(0,400)" x2="0" y2="-400" stroke="#888" stroke-width="1" opacity="1"></line></g><g class="mark-text role-axis-title" pointer-events="none"><text text-anchor="middle" transform="translate(-36,200) rotate(-90) translate(0,-2)" font-family="sans-serif" font-size="11px" font-weight="bold" fill="#000" opacity="1">% Correct - % Correct of Null Model (Intercept Only)</text></g></g><path class="foreground" aria-hidden="true" d="" pointer-events="none" display="none"></path></g></g><g class="mark-group role-scope concat_1_layer_0_layer_0_layer_0_pathgroup" role="graphics-object" aria-roledescription="group mark container"><g transform="translate(0,0)"><path class="background" aria-hidden="true" d="M0,0h750v400h-750Z"></path><g><g class="mark-area role-mark concat_1_layer_0_layer_0_layer_0_marks" role="graphics-object" aria-roledescription="area mark container"><path aria-label="% Correct - % Correct of Null Model (Intercept Only): 0.100238130544; upper_meandiff: 0.12779817998; Regularization Parameter (λ): 0.01; condition: global; Mean of meandiff: 0.114018155262; Mean + stderr of meandiff: 0.12779817998; Mean - stderr of meandiff: 0.100238130544" role="graphics-symbol" aria-roledescription="errorband" d="M0,99.76186945559706L7.575757575757477,100.9921217871888L15.151515151515099,96.00771439768269L22.727272727272574,97.68377589604799L30.303030303030198,84.56330972160981L37.87878787878782,85.30687963574333L45.4545454545453,67.66846327976172L53.03030303030291,62.526130012274315L60.60606060606054,65.87375135372042L68.18181818181816,69.12694109384887L75.75757575757564,67.20186949508053L83.33333333333326,65.11625954026665L90.90909090909086,66.54643741037569L98.48484848484834,66.63592672690383L106.06060606060598,60.61786691465399L113.6363636363636,71.04798700846202L121.21212121212122,73.64706128001761L128.78787878787867,76.11190494416702L136.36363636363623,80.55517177486723L143.93939393939388,65.85411308889361L151.51515151515142,66.16329221664773L159.09090909090904,64.32499055964391L166.66666666666657,67.22286452861646L174.24242424242428,63.10828306608447L181.81818181818173,66.28959856520575L189.3939393939393,73.26931668420764L196.9696969696969,80.50630380567934L204.54545454545445,81.92457666852926L212.12121212121207,61.34493374421219L219.69696969696966,64.52277721205336L227.2727272727272,72.34225175062181L234.84848484848482,70.03611285789022L242.42424242424235,62.998079987462404L250,76.99693778852091L257.5757575757575,73.56350885800738L265.15151515151507,62.55628015187153L272.7272727272727,70.4788824952026L280.30303030303025,74.71937201539535L287.8787878787879,63.4185216957742L295.4545454545454,61.21591292242967L303.030303030303,79.1914277022295L310.60606060606057,79.38655745816322L318.18181818181813,79.19665904495852L325.75757575757575,82.42818519448724L333.3333333333333,85.56209638204804L340.90909090909093,82.4036284402454L348.4848484848484,85.37977763504743L356.06060606060595,79.51638103805357L363.6363636363636,87.74220150809553L371.21212121212113,94.34460973953533L378.78787878787875,79.78057286085236L386.36363636363626,84.90689488002339L393.9393939393939,78.5081401492929L401.51515151515144,78.39572624066813L409.09090909090907,73.36206194180588L416.66666666666663,77.48493185968792L424.24242424242414,71.85842042926494L431.81818181818176,75.54347381555053L439.3939393939393,83.47322945159652L446.96969696969694,87.91628307050479L454.54545454545445,90.7265607776171L462.1212121212121,95.96266785326466L469.69696969696963,125.69211224918595L477.27272727272725,129.9951850902988L484.8484848484849,126.85251962091937L492.42424242424244,137.3908059398111L500,148.3179965648924L507.5757575757576,134.32119452374863L515.1515151515151,127.89158066639166L522.7272727272726,139.05283523032813L530.3030303030303,148.4159963229833L537.8787878787879,184.67436013292308L545.4545454545455,208.564836231674L553.030303030303,251.43094948344734L560.6060606060605,277.903288444043L568.1818181818181,299.96077413491884L575.7575757575758,320.83231094084255L583.3333333333334,313.3898170670016L590.9090909090909,314.64434459722895L598.4848484848484,297.1289841716674L606.060606060606,256.13312244064565L613.6363636363636,200L621.2121212121211,200L628.7878787878788,200L636.3636363636363,200L643.9393939393939,200L651.5151515151515,200L659.0909090909091,200L666.6666666666666,200L674.2424242424242,200L681.8181818181819,200L689.3939393939394,200L696.969696969697,200L704.5454545454546,200L712.121212121212,200L719.6969696969696,200L727.2727272727273,200L734.8484848484849,200L742.4242424242424,200L750,200L750,200L742.4242424242424,200L734.8484848484849,200L727.2727272727273,200L719.6969696969696,200L712.121212121212,200L704.5454545454546,200L696.969696969697,200L689.3939393939394,200L681.8181818181819,200L674.2424242424242,200L666.6666666666666,200L659.0909090909091,200L651.5151515151515,200L643.9393939393939,200L636.3636363636363,200L628.7878787878788,200L621.2121212121211,200L613.6363636363636,200L606.060606060606,231.95542607808727L598.4848484848484,275.55766925448575L590.9090909090909,294.9922844431508L583.3333333333334,294.38782756812867L575.7575757575758,302.70126919359257L568.1818181818181,273.97875466513227L560.6060606060605,248.32617776240338L553.030303030303,221.4776749554719L545.4545454545455,177.54495660547028L537.8787878787879,157.01699191539115L530.3030303030303,123.85686726009509L522.7272727272726,114.72315403794164L515.1515151515151,106.72809095484274L507.5757575757576,112.0262122238425L500,123.029684772624L492.42424242424244,113.06715100147491L484.8484848484849,103.94060528644977L477.27272727272725,106.48460025613846L469.69696969696963,100.17125529087072L462.1212121212121,74.174771078751L454.54545454545445,68.46605503865094L446.96969696969694,66.05436507370075L439.3939393939393,62.59549564499323L431.81818181818176,55.55816708418293L424.24242424242414,51.16941953665628L416.66666666666663,54.363758724497615L409.09090909090907,50.9650790210419L401.51515151515144,54.35386631355752L393.9393939393939,55.50586812763862L386.36363636363626,59.34039883014526L378.78787878787875,55.03773388891258L371.21212121212113,67.3036479823283L363.6363636363636,62.64068887888578L356.06060606060595,56.037558709443715L348.4848484848484,59.83718663977964L340.90909090909093,57.415543542693115L333.3333333333333,59.14215529073283L325.75757575757575,57.297515317048166L318.18181818181813,55.448462890765526L310.60606060606057,55.51049516123952L303.030303030303,54.50457349887849L295.4545454545454,43.54762637574105L287.8787878787879,44.64881048731159L280.30303030303025,52.29878590730075L272.7272727272727,49.95324842675441L265.15151515151507,43.77089660439015L257.5757575757575,50.643544979500454L250,53.477210872902916L242.42424242424235,43.31621217760855L234.84848484848482,47.65608090549009L227.2727272727272,49.61696974336447L219.69696969696966,44.32072521703532L212.12121212121207,43.32112379787687L204.54545454545445,57.40320283193845L196.9696969696969,56.35058158771686L189.3939393939393,51.21517339691572L181.81818181818173,46.279065914551424L174.24242424242428,44.99718610814982L166.66666666666657,48.44348930009832L159.09090909090904,46.7316313661128L151.51515151515142,48.39789419192848L143.93939393939388,48.093520206129625L136.36363636363623,57.48597435386036L128.78787878787867,53.54280146350185L121.21212121212122,52.68257774731655L113.6363636363636,50.202849619176206L106.06060606060598,43.44048516239085L98.48484848484834,47.42948253936285L90.90909090909086,47.953893816127916L83.33333333333326,46.85308220762412L75.75757575757564,48.19070609635223L68.18181818181816,49.339199502986375L60.60606060606054,47.24429447943712L53.03030303030291,44.86240591665913L45.4545454545453,48.60685316783076L37.87878787878782,61.72828338131446L30.303030303030198,60.863590339889704L22.727272727272574,70.74955852057005L15.151515151515099,68.96932210908142L7.575757575757477,72.85932812949642L0,72.20182001990145Z" fill="#4c78a8" opacity="0.3"></path></g></g><path class="foreground" aria-hidden="true" d="" display="none"></path></g><g transform="translate(0,0)"><path class="background" aria-hidden="true" d="M0,0h750v400h-750Z"></path><g><g class="mark-area role-mark concat_1_layer_0_layer_0_layer_0_marks" role="graphics-object" aria-roledescription="area mark container"><path aria-label="% Correct - % Correct of Null Model (Intercept Only): 0.0666953864781; upper_meandiff: 0.0887352677043; Regularization Parameter (λ): 0.01; condition: object; Mean of meandiff: 0.0777153270912; Mean + stderr of meandiff: 0.0887352677043; Mean - stderr of meandiff: 0.0666953864781" role="graphics-symbol" aria-roledescription="errorband" d="M0,133.30461352194888L7.575757575757477,142.57730092268983L15.151515151515099,148.94315074847268L22.727272727272574,148.66818412421813L30.303030303030198,145.51869502963663L37.87878787878782,161.40767446355858L45.4545454545453,154.89831962774582L53.03030303030291,156.51144740036713L60.60606060606054,155.205713165341L68.18181818181816,153.18594225858928L75.75757575757564,147.30413049213746L83.33333333333326,136.73008222360124L90.90909090909086,137.96496621167728L98.48484848484834,143.41397846571255L106.06060606060598,132.64091950720243L113.6363636363636,143.545852072132L121.21212121212122,138.68491946220445L128.78787878787867,145.27121387726714L136.36363636363623,142.7175175940985L143.93939393939388,147.72541207517395L151.51515151515142,148.07302248265745L159.09090909090904,156.9321199958834L166.66666666666657,153.53738759658856L174.24242424242428,150.3207282950357L181.81818181818173,151.7438872614706L189.3939393939393,157.46037532296134L196.9696969696969,153.1708746067559L204.54545454545445,157.24778252545372L212.12121212121207,146.0726433016919L219.69696969696966,147.7126643111018L227.2727272727272,146.9798939523753L234.84848484848482,147.20749520532976L242.42424242424235,149.99612692054103L250,154.2352843534891L257.5757575757575,151.19193578399845L265.15151515151507,147.44370079677003L272.7272727272727,148.7019179123259L280.30303030303025,153.16666756937897L287.8787878787879,149.90794038418863L295.4545454545454,156.19696123302566L303.030303030303,158.09543027008823L310.60606060606057,155.0759371764838L318.18181818181813,154.1762805951437L325.75757575757575,170.70012586892568L333.3333333333333,162.19710010841294L340.90909090909093,171.0463197470398L348.4848484848484,177.63550978390174L356.06060606060595,176.9944332739869L363.6363636363636,178.16004309186084L371.21212121212113,170.24689695210813L378.78787878787875,179.99299167499868L386.36363636363626,173.38053276380592L393.9393939393939,190.1797466146482L401.51515151515144,187.33053209737957L409.09090909090907,187.1624279187499L416.66666666666663,191.77649026173995L424.24242424242414,191.86405167836708L431.81818181818176,197.22995394045162L439.3939393939393,190.54567370214258L446.96969696969694,193.75423639333428L454.54545454545445,195.00737455779475L462.1212121212121,203.3530431226513L469.69696969696963,203.6213140395387L477.27272727272725,216.30279765095545L484.8484848484849,217.95940709407398L492.42424242424244,218.57874252603943L500,231.01712093357168L507.5757575757576,256.2786656598173L515.1515151515151,268.721667355643L522.7272727272726,298.04328581203026L530.3030303030303,310.32235670413814L537.8787878787879,318.6128308128291L545.4545454545455,328.03767554285747L553.030303030303,322.8931785599669L560.6060606060605,311.67920816828183L568.1818181818181,293.27253499940014L575.7575757575758,283.35420845469145L583.3333333333334,200L590.9090909090909,200L598.4848484848484,200L606.060606060606,200L613.6363636363636,200L621.2121212121211,200L628.7878787878788,200L636.3636363636363,200L643.9393939393939,200L651.5151515151515,200L659.0909090909091,200L666.6666666666666,200L674.2424242424242,200L681.8181818181819,200L689.3939393939394,200L696.969696969697,200L704.5454545454546,200L712.121212121212,200L719.6969696969696,200L727.2727272727273,200L734.8484848484849,200L742.4242424242424,200L750,200L750,200L742.4242424242424,200L734.8484848484849,200L727.2727272727273,200L719.6969696969696,200L712.121212121212,200L704.5454545454546,200L696.969696969697,200L689.3939393939394,200L681.8181818181819,200L674.2424242424242,200L666.6666666666666,200L659.0909090909091,200L651.5151515151515,200L643.9393939393939,200L636.3636363636363,200L628.7878787878788,200L621.2121212121211,200L613.6363636363636,200L606.060606060606,200L598.4848484848484,200L590.9090909090909,200L583.3333333333334,200L575.7575757575758,257.86281651271133L568.1818181818181,269.31302823164833L560.6060606060605,290.58010433970674L553.030303030303,303.7981514358779L545.4545454545455,308.69678991249083L537.8787878787879,298.6459487458312L530.3030303030303,289.39156310944344L522.7272727272726,274.7747454627091L515.1515151515151,243.84406506177606L507.5757575757576,232.02309914113303L500,207.93680300838614L492.42424242424244,197.51632843929508L484.8484848484849,195.14489889122183L477.27272727272725,192.21118339398066L469.69696969696963,180.92943525030842L462.1212121212121,179.34873306746368L454.54545454545445,171.36638319817092L446.96969696969694,171.450992611036L439.3939393939393,168.09507780279148L431.81818181818176,172.86108384787187L424.24242424242414,167.7346742146482L416.66666666666663,167.53224382183524L409.09090909090907,163.99460191658784L401.51515151515144,161.6436417532829L393.9393939393939,162.71083915887533L386.36363636363626,148.87314565695448L378.78787878787875,154.17900190155302L371.21212121212113,144.7565715464326L363.6363636363636,152.35854376494427L356.06060606060595,151.01797580383936L348.4848484848484,152.59570896519043L340.90909090909093,145.94905190783845L333.3333333333333,139.32721243316468L325.75757575757575,145.21230660446568L318.18181818181813,131.69134983859573L310.60606060606057,132.4485652504511L303.030303030303,133.38309834034013L295.4545454545454,130.32908480081718L287.8787878787879,125.48986564295967L280.30303030303025,128.6514783516481L272.7272727272727,124.00767485980495L265.15151515151507,123.44365961768892L257.5757575757575,127.00417214722921L250,129.20817752596378L242.42424242424235,126.02309172313886L234.84848484848482,123.47501462159545L227.2727272727272,123.27998252768823L219.69696969696966,123.85090508648359L212.12121212121207,122.04063211830527L204.54545454545445,128.80397059792267L196.9696969696969,123.77712991705181L189.3939393939393,127.45143357177535L181.81818181818173,122.77621086972701L174.24242424242428,122.17517725203618L166.66666666666657,125.38239881203359L159.09090909090904,128.64341998042366L151.51515151515142,122.32283779881752L143.93939393939388,121.41244772306155L136.36363636363623,117.2155136723096L128.78787878787867,118.10518477430895L121.21212121212122,114.03081361090757L113.6363636363636,116.68703824113322L106.06060606060598,112.51559787963505L98.48484848484834,119.28538843040046L90.90909090909086,117.54075752436664L83.33333333333326,116.68259080121506L75.75757575757564,123.69631914560904L68.18181818181816,127.49485010448258L60.60606060606054,128.72973938749897L53.03030303030291,129.4967237407963L45.4545454545453,128.26202826340355L37.87878787878782,130.43807793120465L30.303030303030198,119.28438196986968L22.727272727272574,121.62238100829069L15.151515151515099,122.05258998970119L7.575757575757477,118.45826897656676L0,111.26473229572231Z" fill="#f58518" opacity="0.3"></path></g></g><path class="foreground" aria-hidden="true" d="" display="none"></path></g><g transform="translate(0,0)"><path class="background" aria-hidden="true" d="M0,0h750v400h-750Z"></path><g><g class="mark-area role-mark concat_1_layer_0_layer_0_layer_0_marks" role="graphics-object" aria-roledescription="area mark container"><path aria-label="% Correct - % Correct of Null Model (Intercept Only): 0.0518469764428; upper_meandiff: 0.0768972958172; Regularization Parameter (λ): 0.01; condition: spatial; Mean of meandiff: 0.06437213613; Mean + stderr of meandiff: 0.0768972958172; Mean - stderr of meandiff: 0.0518469764428" role="graphics-symbol" aria-roledescription="errorband" d="M0,148.1530235572349L7.575757575757477,148.57326860555472L15.151515151515099,148.90957321761863L22.727272727272574,149.1401677967214L30.303030303030198,148.47257868893666L37.87878787878782,145.15740846274147L45.4545454545453,147.51893667628994L53.03030303030291,140.56649468194112L60.60606060606054,132.95906921861248L68.18181818181816,128.92173741187304L75.75757575757564,138.46202196470395L83.33333333333326,138.7851490620027L90.90909090909086,145.7595615830086L98.48484848484834,144.02559428891215L106.06060606060598,153.02986382651414L113.6363636363636,149.79246306731036L121.21212121212122,143.8846924137596L128.78787878787867,147.57745827305624L136.36363636363623,157.51476072178227L143.93939393939388,151.19387457576005L151.51515151515142,142.78041397950864L159.09090909090904,151.4807666103588L166.66666666666657,159.75771018537782L174.24242424242428,157.41148714183092L181.81818181818173,131.60103072583223L189.3939393939393,131.89833856516248L196.9696969696969,136.6786707274352L204.54545454545445,144.9077075586161L212.12121212121207,138.46233988773614L219.69696969696966,132.62613649718878L227.2727272727272,131.63783988227547L234.84848484848482,123.52267874923304L242.42424242424235,124.22384339570401L250,124.66130438327339L257.5757575757575,128.30309649245407L265.15151515151507,127.10533430423774L272.7272727272727,144.13670263705058L280.30303030303025,140.01021279250443L287.8787878787879,138.25962997984672L295.4545454545454,139.264797815694L303.030303030303,136.92417179592377L310.60606060606057,134.73276708916183L318.18181818181813,137.7792984348288L325.75757575757575,143.11700300365135L333.3333333333333,131.67493184313784L340.90909090909093,150.9078764660547L348.4848484848484,152.6935021418122L356.06060606060595,159.78900194962682L363.6363636363636,165.7717002516335L371.21212121212113,150.9422799815988L378.78787878787875,169.99490937893884L386.36363636363626,174.67337571431037L393.9393939393939,171.9330002629333L401.51515151515144,175.2737471736858L409.09090909090907,170.4586818933202L416.66666666666663,178.30694884246498L424.24242424242414,181.61457959138593L431.81818181818176,189.83541501560933L439.3939393939393,197.85979313094074L446.96969696969694,194.79654586745937L454.54545454545445,179.24369796331501L462.1212121212121,191.6315895342291L469.69696969696963,188.68730235389754L477.27272727272725,190.61264478029352L484.8484848484849,214.8425532481654L492.42424242424244,234.94982312773988L500,226.429888544679L507.5757575757576,226.08149809596546L515.1515151515151,231.3485315521148L522.7272727272726,221.04052628422934L530.3030303030303,252.77388703691193L537.8787878787879,281.5242611073329L545.4545454545455,296.3073380689055L553.030303030303,319.7797061725363L560.6060606060605,338.61768735102726L568.1818181818181,356.3883063799838L575.7575757575758,348.9424783371631L583.3333333333334,322.3942181885014L590.9090909090909,319.7737615114369L598.4848484848484,306.4710050615589L606.060606060606,292.33495987315183L613.6363636363636,200L621.2121212121211,200L628.7878787878788,200L636.3636363636363,200L643.9393939393939,200L651.5151515151515,200L659.0909090909091,200L666.6666666666666,200L674.2424242424242,200L681.8181818181819,200L689.3939393939394,200L696.969696969697,200L704.5454545454546,200L712.121212121212,200L719.6969696969696,200L727.2727272727273,200L734.8484848484849,200L742.4242424242424,200L750,200L750,200L742.4242424242424,200L734.8484848484849,200L727.2727272727273,200L719.6969696969696,200L712.121212121212,200L704.5454545454546,200L696.969696969697,200L689.3939393939394,200L681.8181818181819,200L674.2424242424242,200L666.6666666666666,200L659.0909090909091,200L651.5151515151515,200L643.9393939393939,200L636.3636363636363,200L628.7878787878788,200L621.2121212121211,200L613.6363636363636,200L606.060606060606,254.05046705887005L598.4848484848484,271.591402454536L590.9090909090909,286.11835784393537L583.3333333333334,289.6782911330156L575.7575757575758,320.3221909946156L568.1818181818181,329.5776395290071L560.6060606060605,309.2976381419083L553.030303030303,288.528814906618L545.4545454545455,263.98441627679745L537.8787878787879,248.6056949712811L530.3030303030303,221.12444487619837L522.7272727272726,192.04535170472246L515.1515151515151,200.2329007298199L507.5757575757576,197.72515401690205L500,199.33802168188853L492.42424242424244,206.74725533466867L484.8484848484849,188.70229554867547L477.27272727272725,169.55904726043096L469.69696969696963,167.95584549657062L462.1212121212121,168.0977433873452L454.54545454545445,159.72479479135222L446.96969696969694,172.3311480378403L439.3939393939393,172.04577105222918L431.81818181818176,165.58214252527122L424.24242424242414,159.4543384735207L416.66666666666663,156.20311408299918L409.09090909090907,148.99148942126067L401.51515151515144,150.2573777876383L393.9393939393939,147.18472093046353L386.36363636363626,148.78973732735057L378.78787878787875,144.9463458615376L371.21212121212113,130.40839937900103L363.6363636363636,139.90259414484308L356.06060606060595,134.6819547386253L348.4848484848484,129.18067798145083L340.90909090909093,126.82770776204752L333.3333333333333,114.44156119735412L325.75757575757575,121.94999814590517L318.18181818181813,117.08538552815226L310.60606060606057,116.05117960860932L303.030303030303,116.355271170369L295.4545454545454,117.3898460154204L287.8787878787879,116.51872149253117L280.30303030303025,116.51117096869834L272.7272727272727,120.23545722940182L265.15151515151507,106.38724401998184L257.5757575757575,107.5746935193028L250,105.72625615883612L242.42424242424235,105.0173004460082L234.84848484848482,104.26709075499629L227.2727272727272,109.62900536151352L219.69696969696966,110.78930118570116L212.12121212121207,115.81568539938351L204.54545454545445,120.91127057026463L196.9696969696969,114.7401466481384L189.3939393939393,110.97356048640137L181.81818181818173,111.00345702426307L174.24242424242428,127.01388071884088L166.66666666666657,129.1745999616188L159.09090909090904,122.28474489321437L151.51515151515142,115.86052469953434L143.93939393939388,123.11257805886595L136.36363636363623,127.18609898315107L128.78787878787867,120.82093701593277L121.21212121212122,119.0048519710261L113.6363636363636,123.30432548675594L106.06060606060598,126.58759524037806L98.48484848484834,119.25153094114135L90.90909090909086,119.60330577436152L83.33333333333326,114.58039579698709L75.75757575757564,114.73826950623712L68.18181818181816,109.0862483842121L60.60606060606054,111.92038753940214L53.03030303030291,115.02213376377166L45.4545454545453,121.10618339723499L37.87878787878782,120.64948985364454L30.303030303030198,124.24526741520867L22.727272727272574,122.59697246457489L15.151515151515099,122.76639118783291L7.575757575757477,123.53119268993105L0,123.10270418275033Z" fill="#e45756" opacity="0.3"></path></g></g><path class="foreground" aria-hidden="true" d="" display="none"></path></g></g><g class="mark-group role-scope concat_1_layer_0_layer_1_pathgroup" role="graphics-object" aria-roledescription="group mark container"><g transform="translate(0,0)"><path class="background" aria-hidden="true" d="M0,0h750v400h-750Z"></path><g><g class="mark-line role-mark concat_1_layer_0_layer_1_marks" role="graphics-object" aria-roledescription="line mark container"><path aria-label="Regularization Parameter (λ): 0.01; condition: global; Mean of meandiff: 0.114018155262" role="graphics-symbol" aria-roledescription="line mark" d="M0,85.98184473774926L7.575757575757477,86.92572495834261L15.151515151515099,82.48851825338205L22.727272727272574,84.21666720830898L30.303030303030198,72.71345003074975L37.87878787878782,73.51758150852893L45.4545454545453,58.13765822379624L53.03030303030291,53.694267964466746L60.60606060606054,56.55902291657875L68.18181818181816,59.23307029841762L75.75757575757564,57.69628779571634L83.33333333333326,55.984670873945404L90.90909090909086,57.2501656132518L98.48484848484834,57.03270463313337L106.06060606060598,52.029176038522394L113.6363636363636,60.625418313819154L121.21212121212122,63.164819513667105L128.78787878787867,64.82735320383446L136.36363636363623,69.02057306436382L143.93939393939388,56.9738166475116L151.51515151515142,57.28059320428813L159.09090909090904,55.52831096287836L166.66666666666657,57.83317691435741L174.24242424242428,54.05273458711712L181.81818181818173,56.28433223987859L189.3939393939393,62.242245040561706L196.9696969696969,68.42844269669813L204.54545454545445,69.66388975023384L212.12121212121207,52.33302877104449L219.69696969696966,54.421751214544265L227.2727272727272,60.97961074699319L234.84848484848482,58.84609688169018L242.42424242424235,53.15714608253552L250,65.23707433071189L257.5757575757575,62.103526918753936L265.15151515151507,53.163588378130825L272.7272727272727,60.21606546097846L280.30303030303025,63.50907896134803L287.8787878787879,54.0336660915429L295.4545454545454,52.38176964908536L303.030303030303,66.84800060055407L310.60606060606057,67.44852630970138L318.18181818181813,67.32256096786205L325.75757575757575,69.86285025576771L333.3333333333333,72.35212583639048L340.90909090909093,69.90958599146921L348.4848484848484,72.60848213741356L356.06060606060595,67.77696987374866L363.6363636363636,75.19144519349061L371.21212121212113,80.8241288609318L378.78787878787875,67.4091533748825L386.36363636363626,72.12364685508432L393.9393939393939,67.00700413846579L401.51515151515144,66.37479627711285L409.09090909090907,62.16357048142389L416.66666666666663,65.9243452920928L424.24242424242414,61.51391998296063L431.81818181818176,65.5508204498667L439.3939393939393,73.03436254829485L446.96969696969694,76.98532407210278L454.54545454545445,79.59630790813397L462.1212121212121,85.0687194660078L469.69696969696963,112.93168377002831L477.27272727272725,118.23989267321866L484.8484848484849,115.39656245368457L492.42424242424244,125.22897847064303L500,135.67384066875817L507.5757575757576,123.17370337379559L515.1515151515151,117.30983581061723L522.7272727272726,126.8879946341349L530.3030303030303,136.13643179153922L537.8787878787879,170.84567602415711L545.4545454545455,193.05489641857213L553.030303030303,236.4543122194596L560.6060606060605,263.11473310322316L568.1818181818181,286.96976440002555L575.7575757575758,311.7667900672176L583.3333333333334,303.88882231756514L590.9090909090909,304.81831452018986L598.4848484848484,286.34332671307664L606.060606060606,244.0442742593665L613.6363636363636,200L621.2121212121211,200L628.7878787878788,200L636.3636363636363,200L643.9393939393939,200L651.5151515151515,200L659.0909090909091,200L666.6666666666666,200L674.2424242424242,200L681.8181818181819,200L689.3939393939394,200L696.969696969697,200L704.5454545454546,200L712.121212121212,200L719.6969696969696,200L727.2727272727273,200L734.8484848484849,200L742.4242424242424,200L750,200" stroke="#4c78a8" stroke-width="2"></path></g></g><path class="foreground" aria-hidden="true" d="" display="none"></path></g><g transform="translate(0,0)"><path class="background" aria-hidden="true" d="M0,0h750v400h-750Z"></path><g><g class="mark-line role-mark concat_1_layer_0_layer_1_marks" role="graphics-object" aria-roledescription="line mark container"><path aria-label="Regularization Parameter (λ): 0.01; condition: object; Mean of meandiff: 0.0777153270912" role="graphics-symbol" aria-roledescription="line mark" d="M0,122.2846729088356L7.575757575757477,130.51778494962826L15.151515151515099,135.49787036908697L22.727272727272574,135.14528256625448L30.303030303030198,132.40153849975317L37.87878787878782,145.92287619738164L45.4545454545453,141.58017394557464L53.03030303030291,143.00408557058174L60.60606060606054,141.96772627641994L68.18181818181816,140.34039618153594L75.75757575757564,135.50022481887325L83.33333333333326,126.70633651240814L90.90909090909086,127.75286186802197L98.48484848484834,131.34968344805654L106.06060606060598,122.57825869341876L113.6363636363636,130.1164451566326L121.21212121212122,126.35786653655599L128.78787878787867,131.68819932578808L136.36363636363623,129.96651563320404L143.93939393939388,134.56892989911773L151.51515151515142,135.1979301407375L159.09090909090904,142.78776998815354L166.66666666666657,139.45989320431104L174.24242424242428,136.24795277353593L181.81818181818173,137.26004906559882L189.3939393939393,142.45590444736834L196.9696969696969,138.47400226190385L204.54545454545445,143.02587656168816L212.12121212121207,134.0566377099986L219.69696969696966,135.7817846987927L227.2727272727272,135.12993824003178L234.84848484848482,135.3412549134626L242.42424242424235,138.00960932183992L250,141.72173093972646L257.5757575757575,139.0980539656138L265.15151515151507,135.4436802072295L272.7272727272727,136.3547963860654L280.30303030303025,140.90907296051353L287.8787878787879,137.69890301357418L295.4545454545454,143.2630230169214L303.030303030303,145.7392643052142L310.60606060606057,143.7622512134675L318.18181818181813,142.93381521686976L325.75757575757575,157.95621623669564L333.3333333333333,150.7621562707888L340.90909090909093,158.4976858274391L348.4848484848484,165.1156093745461L356.06060606060595,164.00620453891315L363.6363636363636,165.25929342840254L371.21212121212113,157.50173424927038L378.78787878787875,167.08599678827585L386.36363636363626,161.1268392103802L393.9393939393939,176.4452928867618L401.51515151515144,174.48708692533123L409.09090909090907,175.57851491766888L416.66666666666663,179.65436704178757L424.24242424242414,179.79936294650764L431.81818181818176,185.04551889416172L439.3939393939393,179.32037575246702L446.96969696969694,182.6026145021851L454.54545454545445,183.18687887798285L462.1212121212121,191.35088809505748L469.69696969696963,192.2753746449235L477.27272727272725,204.25699052246804L484.8484848484849,206.5521529926479L492.42424242424244,208.04753548266723L500,219.47696197097892L507.5757575757576,244.15088240047513L515.1515151515151,256.2828662087095L522.7272727272726,286.4090156373697L530.3030303030303,299.8569599067908L537.8787878787879,308.62938977933015L545.4545454545455,318.36723272767415L553.030303030303,313.3456649979224L560.6060606060605,301.12965625399426L568.1818181818181,281.29278161552423L575.7575757575758,270.6085124837014L583.3333333333334,200L590.9090909090909,200L598.4848484848484,200L606.060606060606,200L613.6363636363636,200L621.2121212121211,200L628.7878787878788,200L636.3636363636363,200L643.9393939393939,200L651.5151515151515,200L659.0909090909091,200L666.6666666666666,200L674.2424242424242,200L681.8181818181819,200L689.3939393939394,200L696.969696969697,200L704.5454545454546,200L712.121212121212,200L719.6969696969696,200L727.2727272727273,200L734.8484848484849,200L742.4242424242424,200L750,200" stroke="#f58518" stroke-width="2"></path></g></g><path class="foreground" aria-hidden="true" d="" display="none"></path></g><g transform="translate(0,0)"><path class="background" aria-hidden="true" d="M0,0h750v400h-750Z"></path><g><g class="mark-line role-mark concat_1_layer_0_layer_1_marks" role="graphics-object" aria-roledescription="line mark container"><path aria-label="Regularization Parameter (λ): 0.01; condition: spatial; Mean of meandiff: 0.06437213613" role="graphics-symbol" aria-roledescription="line mark" d="M0,135.62786386999258L7.575757575757477,136.05223064774293L15.151515151515099,135.83798220272575L22.727272727272574,135.86857013064812L30.303030303030198,136.3589230520726L37.87878787878782,132.90344915819304L45.4545454545453,134.3125600367625L53.03030303030291,127.79431422285637L60.60606060606054,122.43972837900729L68.18181818181816,119.0039928980426L75.75757575757564,126.60014573547049L83.33333333333326,126.68277242949486L90.90909090909086,132.68143367868507L98.48484848484834,131.63856261502676L106.06060606060598,139.80872953344607L113.6363636363636,136.54839427703317L121.21212121212122,131.44477219239286L128.78787878787867,134.19919764449452L136.36363636363623,142.35042985246668L143.93939393939388,137.15322631731297L151.51515151515142,129.32046933952154L159.09090909090904,136.88275575178665L166.66666666666657,144.46615507349833L174.24242424242428,142.2126839303359L181.81818181818173,121.3022438750476L189.3939393939393,121.43594952578196L196.9696969696969,125.70940868778679L204.54545454545445,132.90948906444032L212.12121212121207,127.13901264355987L219.69696969696966,121.707718841445L227.2727272727272,120.63342262189445L234.84848484848482,113.89488475211462L242.42424242424235,114.62057192085618L250,115.19378027105476L257.5757575757575,117.93889500587844L265.15151515151507,116.74628916210983L272.7272727272727,132.1860799332262L280.30303030303025,128.26069188060137L287.8787878787879,127.38917573618895L295.4545454545454,128.32732191555718L303.030303030303,126.63972148314633L310.60606060606057,125.39197334888557L318.18181818181813,127.43234198149054L325.75757575757575,132.53350057477832L333.3333333333333,123.05824652024593L340.90909090909093,138.86779211405113L348.4848484848484,140.93709006163152L356.06060606060595,147.23547834412608L363.6363636363636,152.83714719823828L371.21212121212113,140.67533968029986L378.78787878787875,157.47062762023822L386.36363636363626,161.73155652083045L393.9393939393939,159.5588605966984L401.51515151515144,162.765562480662L409.09090909090907,159.72508565729044L416.66666666666663,167.2550314627321L424.24242424242414,170.5344590324533L431.81818181818176,177.7087787704403L439.3939393939393,184.95278209158502L446.96969696969694,183.56384695264984L454.54545454545445,169.48424637733362L462.1212121212121,179.86466646078716L469.69696969696963,178.32157392523408L477.27272727272725,180.08584602036225L484.8484848484849,201.7724243984204L492.42424242424244,220.84853923120428L500,212.88395511328372L507.5757575757576,211.90332605643377L515.1515151515151,215.7907161409673L522.7272727272726,206.54293899447592L530.3030303030303,236.94916595655516L537.8787878787879,265.06497803930705L545.4545454545455,280.14587717285144L553.030303030303,304.15426053957714L560.6060606060605,323.9576627464678L568.1818181818181,342.98297295449544L575.7575757575758,334.63233466588935L583.3333333333334,306.03625466075846L590.9090909090909,302.94605967768615L598.4848484848484,289.03120375804747L606.060606060606,273.19271346601096L613.6363636363636,200L621.2121212121211,200L628.7878787878788,200L636.3636363636363,200L643.9393939393939,200L651.5151515151515,200L659.0909090909091,200L666.6666666666666,200L674.2424242424242,200L681.8181818181819,200L689.3939393939394,200L696.969696969697,200L704.5454545454546,200L712.121212121212,200L719.6969696969696,200L727.2727272727273,200L734.8484848484849,200L742.4242424242424,200L750,200" stroke="#e45756" stroke-width="2"></path></g></g><path class="foreground" aria-hidden="true" d="" display="none"></path></g></g><g class="mark-rule role-mark concat_1_layer_1_layer_0_marks" role="graphics-symbol" aria-roledescription="rule mark container"><line transform="translate(750,200)" x2="-750" y2="0" stroke="black" stroke-width="2" stroke-dasharray="2,2"></line></g><g class="mark-rule role-mark concat_1_layer_2_layer_0_marks" role="graphics-object" aria-roledescription="rule mark container"><line aria-label="λ: 0.162975083462" role="graphics-symbol" aria-roledescription="rule mark" transform="translate(454.54545454545445,0)" x2="0" y2="400" stroke="green" stroke-width="3" stroke-dasharray="4,4"></line><line aria-label="λ: 0.155567614393" role="graphics-symbol" aria-roledescription="rule mark" transform="translate(446.96969696969694,0)" x2="0" y2="400" stroke="green" stroke-width="3" stroke-dasharray="4,4"></line></g><g class="mark-text role-mark concat_1_layer_2_layer_1_marks" role="graphics-object" aria-roledescription="text mark container"><text aria-label="fold_text: Fold: 1; λ: 0.162975083462; yoff: 0.1" role="graphics-symbol" aria-roledescription="text mark" text-anchor="start" transform="translate(454.54545454545445,99.99999999999996) rotate(90) translate(0,-4)" font-family="sans-serif" font-size="12px" fill="black">Fold: 1</text><text aria-label="fold_text: Fold: 2; λ: 0.155567614393; yoff: 0.15" role="graphics-symbol" aria-roledescription="text mark" text-anchor="start" transform="translate(446.96969696969694,50.00000000000004) rotate(90) translate(0,-4)" font-family="sans-serif" font-size="12px" fill="black">Fold: 2</text></g></g><path class="foreground" aria-hidden="true" d="" display="none"></path></g></g><g class="mark-group role-legend" role="graphics-symbol" aria-roledescription="legend" aria-label="Symbol legend titled 'condition' for fill color and stroke color with 3 values: global, object, spatial"><g transform="translate(771,0)"><path class="background" aria-hidden="true" d="M0,0h60v61h-60Z" pointer-events="none"></path><g><g class="mark-group role-legend-entry"><g transform="translate(0,16)"><path class="background" aria-hidden="true" d="M0,0h0v0h0Z" pointer-events="none"></path><g><g class="mark-group role-scope" role="graphics-object" aria-roledescription="group mark container"><g transform="translate(0,0)"><path class="background" aria-hidden="true" d="M0,0h49v12.5h-49Z" pointer-events="none" opacity="1"></path><g><g class="mark-symbol role-legend-symbol" pointer-events="none"><path transform="translate(6,6)" d="M5,0A5,5,0,1,1,-5,0A5,5,0,1,1,5,0" fill="#4c78a8" stroke="#4c78a8" stroke-width="1.5" opacity="0.3"></path></g><g class="mark-text role-legend-label" pointer-events="none"><text text-anchor="start" transform="translate(16,9)" font-family="sans-serif" font-size="10px" fill="#000" opacity="1">global</text></g></g><path class="foreground" aria-hidden="true" d="" pointer-events="none" display="none"></path></g><g transform="translate(0,16)"><path class="background" aria-hidden="true" d="M0,0h49v12.5h-49Z" pointer-events="none" opacity="1"></path><g><g class="mark-symbol role-legend-symbol" pointer-events="none"><path transform="translate(6,6)" d="M5,0A5,5,0,1,1,-5,0A5,5,0,1,1,5,0" fill="#f58518" stroke="#f58518" stroke-width="1.5" opacity="0.3"></path></g><g class="mark-text role-legend-label" pointer-events="none"><text text-anchor="start" transform="translate(16,9)" font-family="sans-serif" font-size="10px" fill="#000" opacity="1">object</text></g></g><path class="foreground" aria-hidden="true" d="" pointer-events="none" display="none"></path></g><g transform="translate(0,32)"><path class="background" aria-hidden="true" d="M0,0h49v12.5h-49Z" pointer-events="none" opacity="1"></path><g><g class="mark-symbol role-legend-symbol" pointer-events="none"><path transform="translate(6,6)" d="M5,0A5,5,0,1,1,-5,0A5,5,0,1,1,5,0" fill="#e45756" stroke="#e45756" stroke-width="1.5" opacity="0.3"></path></g><g class="mark-text role-legend-label" pointer-events="none"><text text-anchor="start" transform="translate(16,9)" font-family="sans-serif" font-size="10px" fill="#000" opacity="1">spatial</text></g></g><path class="foreground" aria-hidden="true" d="" pointer-events="none" display="none"></path></g></g></g><path class="foreground" aria-hidden="true" d="" pointer-events="none" display="none"></path></g></g><g class="mark-text role-legend-title" pointer-events="none"><text text-anchor="start" transform="translate(0,9)" font-family="sans-serif" font-size="11px" font-weight="bold" fill="#000" opacity="1">condition</text></g></g><path class="foreground" aria-hidden="true" d="" pointer-events="none" display="none"></path></g></g></g><path class="foreground" aria-hidden="true" d="" display="none"></path></g></g></g></svg>
