<?xml version="1.0" encoding="utf-8"?>
<!DOCTYPE svg PUBLIC "-//W3C//DTD SVG 1.1//EN" "http://www.w3.org/Graphics/SVG/1.1/DTD/svg11.dtd">
<svg class="marks" width="241" height="271" viewBox="0 0 241 271" version="1.1" xmlns="http://www.w3.org/2000/svg" xmlns:xlink="http://www.w3.org/1999/xlink"><rect width="241" height="271" fill="white"></rect><g fill="none" stroke-miterlimit="10" transform="translate(34,34)"><g class="mark-group role-frame root" role="graphics-object" aria-roledescription="group mark container"><g transform="translate(0,0)"><path class="background" aria-hidden="true" d="M0.5,0.5h200v200h-200Z" stroke="#ddd"></path><g><g class="mark-group role-axis" aria-hidden="true"><g transform="translate(0.5,200.5)"><path class="background" aria-hidden="true" d="M0,0h0v0h0Z" pointer-events="none"></path><g><g class="mark-rule role-axis-grid" pointer-events="none"><line transform="translate(0,-200)" x2="0" y2="200" stroke="#ddd" stroke-width="1" opacity="1"></line><line transform="translate(30,-200)" x2="0" y2="200" stroke="#ddd" stroke-width="1" opacity="1"></line><line transform="translate(48,-200)" x2="0" y2="200" stroke="#ddd" stroke-width="1" opacity="1"></line><line transform="translate(60,-200)" x2="0" y2="200" stroke="#ddd" stroke-width="1" opacity="1"></line><line transform="translate(70,-200)" x2="0" y2="200" stroke="#ddd" stroke-width="1" opacity="1"></line><line transform="translate(78,-200)" x2="0" y2="200" stroke="#ddd" stroke-width="1" opacity="1"></line><line transform="translate(85,-200)" x2="0" y2="200" stroke="#ddd" stroke-width="1" opacity="1"></line><line transform="translate(90,-200)" x2="0" y2="200" stroke="#ddd" stroke-width="1" opacity="1"></line><line transform="translate(95,-200)" x2="0" y2="200" stroke="#ddd" stroke-width="1" opacity="1"></line><line transform="translate(100,-200)" x2="0" y2="200" stroke="#ddd" stroke-width="1" opacity="1"></line><line transform="translate(130,-200)" x2="0" y2="200" stroke="#ddd" stroke-width="1" opacity="1"></line><line transform="translate(148,-200)" x2="0" y2="200" stroke="#ddd" stroke-width="1" opacity="1"></line><line transform="translate(160,-200)" x2="0" y2="200" stroke="#ddd" stroke-width="1" opacity="1"></line><line transform="translate(170,-200)" x2="0" y2="200" stroke="#ddd" stroke-width="1" opacity="1"></line><line transform="translate(178,-200)" x2="0" y2="200" stroke="#ddd" stroke-width="1" opacity="1"></line><line transform="translate(185,-200)" x2="0" y2="200" stroke="#ddd" stroke-width="1" opacity="1"></line><line transform="translate(190,-200)" x2="0" y2="200" stroke="#ddd" stroke-width="1" opacity="1"></line><line transform="translate(195,-200)" x2="0" y2="200" stroke="#ddd" stroke-width="1" opacity="1"></line><line transform="translate(200,-200)" x2="0" y2="200" stroke="#ddd" stroke-width="1" opacity="1"></line></g></g><path class="foreground" aria-hidden="true" d="" pointer-events="none" display="none"></path></g></g><g class="mark-group role-axis" aria-hidden="true"><g transform="translate(0.5,0.5)"><path class="background" aria-hidden="true" d="M0,0h0v0h0Z" pointer-events="none"></path><g><g class="mark-rule role-axis-grid" pointer-events="none"><line transform="translate(0,183)" x2="200" y2="0" stroke="#ddd" stroke-width="1" opacity="1"></line><line transform="translate(0,150)" x2="200" y2="0" stroke="#ddd" stroke-width="1" opacity="1"></line><line transform="translate(0,117)" x2="200" y2="0" stroke="#ddd" stroke-width="1" opacity="1"></line><line transform="translate(0,83)" x2="200" y2="0" stroke="#ddd" stroke-width="1" opacity="1"></line><line transform="translate(0,50)" x2="200" y2="0" stroke="#ddd" stroke-width="1" opacity="1"></line><line transform="translate(0,17)" x2="200" y2="0" stroke="#ddd" stroke-width="1" opacity="1"></line></g></g><path class="foreground" aria-hidden="true" d="" pointer-events="none" display="none"></path></g></g><g class="mark-group role-axis" role="graphics-symbol" aria-roledescription="axis" aria-label="X-axis titled 'Regularization Parameter (位)' for a log scale with values from 0.01 to 1"><g transform="translate(0.5,200.5)"><path class="background" aria-hidden="true" d="M0,0h0v0h0Z" pointer-events="none"></path><g><g class="mark-rule role-axis-tick" pointer-events="none"><line transform="translate(0,0)" x2="0" y2="5" stroke="#888" stroke-width="1" opacity="1"></line><line transform="translate(30,0)" x2="0" y2="5" stroke="#888" stroke-width="1" opacity="1"></line><line transform="translate(48,0)" x2="0" y2="5" stroke="#888" stroke-width="1" opacity="1"></line><line transform="translate(60,0)" x2="0" y2="5" stroke="#888" stroke-width="1" opacity="1"></line><line transform="translate(70,0)" x2="0" y2="5" stroke="#888" stroke-width="1" opacity="1"></line><line transform="translate(78,0)" x2="0" y2="5" stroke="#888" stroke-width="1" opacity="1"></line><line transform="translate(85,0)" x2="0" y2="5" stroke="#888" stroke-width="1" opacity="1"></line><line transform="translate(90,0)" x2="0" y2="5" stroke="#888" stroke-width="1" opacity="1"></line><line transform="translate(95,0)" x2="0" y2="5" stroke="#888" stroke-width="1" opacity="1"></line><line transform="translate(100,0)" x2="0" y2="5" stroke="#888" stroke-width="1" opacity="1"></line><line transform="translate(130,0)" x2="0" y2="5" stroke="#888" stroke-width="1" opacity="1"></line><line transform="translate(148,0)" x2="0" y2="5" stroke="#888" stroke-width="1" opacity="1"></line><line transform="translate(160,0)" x2="0" y2="5" stroke="#888" stroke-width="1" opacity="1"></line><line transform="translate(170,0)" x2="0" y2="5" stroke="#888" stroke-width="1" opacity="1"></line><line transform="translate(178,0)" x2="0" y2="5" stroke="#888" stroke-width="1" opacity="1"></line><line transform="translate(185,0)" x2="0" y2="5" stroke="#888" stroke-width="1" opacity="1"></line><line transform="translate(190,0)" x2="0" y2="5" stroke="#888" stroke-width="1" opacity="1"></line><line transform="translate(195,0)" x2="0" y2="5" stroke="#888" stroke-width="1" opacity="1"></line><line transform="translate(200,0)" x2="0" y2="5" stroke="#888" stroke-width="1" opacity="1"></line></g><g class="mark-text role-axis-label" pointer-events="none"><text text-anchor="start" transform="translate(0,15)" font-family="sans-serif" font-size="10px" fill="#000" opacity="1">0.01</text><text text-anchor="middle" transform="translate(30.102999566398108,15)" font-family="sans-serif" font-size="10px" fill="#000" opacity="0">0.02</text><text text-anchor="middle" transform="translate(47.712125471966225,15)" font-family="sans-serif" font-size="10px" fill="#000" opacity="1">0.03</text><text text-anchor="middle" transform="translate(60.20599913279623,15)" font-family="sans-serif" font-size="10px" fill="#000" opacity="0">0.04</text><text text-anchor="middle" transform="translate(69.89700043360187,15)" font-family="sans-serif" font-size="10px" fill="#000" opacity="1">0.05</text><text text-anchor="middle" transform="translate(77.81512503836436,15)" font-family="sans-serif" font-size="10px" fill="#000" opacity="1"></text><text text-anchor="middle" transform="translate(84.50980400142568,15)" font-family="sans-serif" font-size="10px" fill="#000" opacity="1"></text><text text-anchor="middle" transform="translate(90.30899869919435,15)" font-family="sans-serif" font-size="10px" fill="#000" opacity="1"></text><text text-anchor="middle" transform="translate(95.42425094393249,15)" font-family="sans-serif" font-size="10px" fill="#000" opacity="1"></text><text text-anchor="middle" transform="translate(100,15)" font-family="sans-serif" font-size="10px" fill="#000" opacity="1">0.1</text><text text-anchor="middle" transform="translate(130.1029995663981,15)" font-family="sans-serif" font-size="10px" fill="#000" opacity="1">0.2</text><text text-anchor="middle" transform="translate(147.71212547196623,15)" font-family="sans-serif" font-size="10px" fill="#000" opacity="1">0.3</text><text text-anchor="middle" transform="translate(160.20599913279622,15)" font-family="sans-serif" font-size="10px" fill="#000" opacity="0">0.4</text><text text-anchor="middle" transform="translate(169.89700043360187,15)" font-family="sans-serif" font-size="10px" fill="#000" opacity="1">0.5</text><text text-anchor="middle" transform="translate(177.81512503836436,15)" font-family="sans-serif" font-size="10px" fill="#000" opacity="1"></text><text text-anchor="middle" transform="translate(184.50980400142566,15)" font-family="sans-serif" font-size="10px" fill="#000" opacity="1"></text><text text-anchor="middle" transform="translate(190.30899869919435,15)" font-family="sans-serif" font-size="10px" fill="#000" opacity="1"></text><text text-anchor="middle" transform="translate(195.4242509439325,15)" font-family="sans-serif" font-size="10px" fill="#000" opacity="1"></text><text text-anchor="end" transform="translate(200,15)" font-family="sans-serif" font-size="10px" fill="#000" opacity="1">1</text></g><g class="mark-rule role-axis-domain" pointer-events="none"><line transform="translate(0,0)" x2="200" y2="0" stroke="#888" stroke-width="1" opacity="1"></line></g><g class="mark-text role-axis-title" pointer-events="none"><text text-anchor="middle" transform="translate(100,30)" font-family="sans-serif" font-size="11px" font-weight="bold" fill="#000" opacity="1">Regularization Parameter (位)</text></g></g><path class="foreground" aria-hidden="true" d="" pointer-events="none" display="none"></path></g></g><g class="mark-group role-axis" role="graphics-symbol" aria-roledescription="axis" aria-label="Y-axis titled 'Model - Null Model Accuracy (logit scale)' for a linear scale with values from -1 to 6"><g transform="translate(0.5,0.5)"><path class="background" aria-hidden="true" d="M0,0h0v0h0Z" pointer-events="none"></path><g><g class="mark-rule role-axis-tick" pointer-events="none"><line transform="translate(0,183)" x2="-5" y2="0" stroke="#888" stroke-width="1" opacity="1"></line><line transform="translate(0,150)" x2="-5" y2="0" stroke="#888" stroke-width="1" opacity="1"></line><line transform="translate(0,117)" x2="-5" y2="0" stroke="#888" stroke-width="1" opacity="1"></line><line transform="translate(0,83)" x2="-5" y2="0" stroke="#888" stroke-width="1" opacity="1"></line><line transform="translate(0,50)" x2="-5" y2="0" stroke="#888" stroke-width="1" opacity="1"></line><line transform="translate(0,17)" x2="-5" y2="0" stroke="#888" stroke-width="1" opacity="1"></line></g><g class="mark-text role-axis-label" pointer-events="none"><text text-anchor="end" transform="translate(-7,186.33333333333331)" font-family="sans-serif" font-size="10px" fill="#000" opacity="1">0</text><text text-anchor="end" transform="translate(-7,153)" font-family="sans-serif" font-size="10px" fill="#000" opacity="1">1</text><text text-anchor="end" transform="translate(-7,119.66666666666666)" font-family="sans-serif" font-size="10px" fill="#000" opacity="1">2</text><text text-anchor="end" transform="translate(-7,86.33333333333333)" font-family="sans-serif" font-size="10px" fill="#000" opacity="1">3</text><text text-anchor="end" transform="translate(-7,53)" font-family="sans-serif" font-size="10px" fill="#000" opacity="1">4</text><text text-anchor="end" transform="translate(-7,19.666666666666675)" font-family="sans-serif" font-size="10px" fill="#000" opacity="1">5</text></g><g class="mark-rule role-axis-domain" pointer-events="none"><line transform="translate(0,200)" x2="0" y2="-200" stroke="#888" stroke-width="1" opacity="1"></line></g><g class="mark-text role-axis-title" pointer-events="none"><text text-anchor="middle" transform="translate(-17,100) rotate(-90) translate(0,-2)" font-family="sans-serif" font-size="11px" font-weight="bold" fill="#000" opacity="1">Model - Null Model Accuracy (logit scale)</text></g></g><path class="foreground" aria-hidden="true" d="" pointer-events="none" display="none"></path></g></g><g class="mark-group role-scope layer_0_pathgroup" role="graphics-object" aria-roledescription="group mark container"><g transform="translate(0,0)"><path class="background" aria-hidden="true" d="M0,0h200v200h-200Z"></path><g><g class="mark-line role-mark layer_0_marks" role="graphics-object" aria-roledescription="line mark container"><path aria-label="fold: 2; Regularization Parameter (位): 0.01; Model - Null Model Accuracy (logit scale): 5.07978501959" role="graphics-symbol" aria-roledescription="line mark" d="M0,14.007166013554961L2.0202020202019937,13.808646479750642L4.0404040404040265,13.675377449257287L6.06060606060602,13.663568077898635L8.080808080808053,13.829745866006714L10.101010101010084,14.221850684883485L12.121212121212078,14.86626132147537L14.14141414141411,15.757269086868874L16.161616161616145,16.854898116284467L18.181818181818173,18.092558191438467L20.20202020202017,19.39062275018639L22.2222222222222,20.669301210082725L24.24242424242423,21.85556343475932L26.262626262626227,22.882749450789387L28.28282828282826,23.685444246695276L30.303030303030294,24.195106764404994L32.323232323232325,24.343285510235635L34.34343434343432,24.077669183454464L36.36363636363633,23.390481997980995L38.383838383838366,22.350150158387972L40.40404040404037,21.120203637717605L42.42424242424241,19.949298293963924L44.44444444444442,19.125380681247673L46.46464646464648,18.90242537240525L48.48484848484846,19.422711738724697L50.50505050505048,20.663897836833844L52.52525252525251,22.434327502739816L54.54545454545452,24.423163045489105L56.56565656565655,26.290048305202074L58.585858585858574,27.761746322755364L60.60606060606059,28.699826668817607L62.626262626262616,29.116595567880555L64.64646464646464,29.13923063621302L66.66666666666666,28.94269846196924L68.68686868686868,28.681426006721033L70.70707070707068,28.445772613052945L72.72727272727272,28.25600648710529L74.74747474747473,28.090222259654784L76.76767676767676,27.92955253857581L78.78787878787877,27.79818503648057L80.8080808080808,27.778533464687772L82.82828282828282,27.992278847144526L84.84848484848484,28.55250560865663L86.86868686868686,29.505768354395624L88.88888888888889,30.790076166020164L90.90909090909092,32.231265865664646L92.9292929292929,33.585623249193745L94.94949494949492,34.61588963346243L96.96969696969697,35.17037721107379L98.98989898989896,35.2304228086479L101.010101010101,34.904021116707455L103.030303030303,34.36838498998471L105.05050505050504,33.78903357012604L107.07070707070704,33.254606931873965L109.09090909090908,32.75880009791472L111.1111111111111,32.237853081270785L113.1313131313131,31.64532743716306L115.15151515151514,31.02758449036658L117.17171717171715,30.5613028745092L119.19191919191918,30.529808800997937L121.21212121212119,31.242178828883805L123.23232323232322,32.92642531064898L125.25252525252523,35.642611410160455L127.27272727272727,39.25643636674116L129.2929292929293,43.492125813815385L131.31313131313132,48.05528643598633L133.33333333333331,52.79005207130585L135.35353535353536,57.81517057302299L137.37373737373736,63.57685881650106L139.39393939393938,70.77135078468031L141.41414141414143,80.1316832625377L143.43434343434342,92.13195251645028L145.45454545454547,106.71297378876568L147.47474747474746,123.14637060032831L149.49494949494948,140.1139978266168L151.5151515151515,155.9980376430569L153.53535353535352,169.29019956286186L155.55555555555557,178.97752554785677L157.57575757575756,184.77145499297836L159.59595959595958,187.11086592274916L161.6161616161616,186.9579180377681L163.63636363636363,185.4776135918343L165.65656565656565,183.71948780108332L167.67676767676767,182.39850518499446L169.6969696969697,181.8199334655705L171.7171717171717,181.93640408208782L173.73737373737373,182.4862369655249L175.75757575757575,183.1497595683316L177.77777777777777,183.6719021570656L179.7979797979798,183.9243882625451L181.81818181818184,183.9073245559804L183.83838383838383,183.7088830010814L185.85858585858585,183.44916325724304L187.87878787878788,183.2312366904665L189.89898989898987,183.11292288398374L191.91919191919192,183.10197952190137L193.93939393939394,183.16900950449457L195.959595959596,183.26842939973199L197.97979797979798,183.35821786817036L200,183.41241906637552" stroke="#f58518" stroke-width="2"></path></g></g><path class="foreground" aria-hidden="true" d="" display="none"></path></g><g transform="translate(0,0)"><path class="background" aria-hidden="true" d="M0,0h200v200h-200Z"></path><g><g class="mark-line role-mark layer_0_marks" role="graphics-object" aria-roledescription="line mark container"><path aria-label="fold: 1; Regularization Parameter (位): 0.01; Model - Null Model Accuracy (logit scale): 4.77768618709" role="graphics-symbol" aria-roledescription="line mark" d="M0,24.077127097045015L2.0202020202019937,23.8223369194124L4.0404040404040265,23.89620800860719L6.06060606060602,24.526679111565052L8.080808080808053,25.771745424250557L10.101010101010084,27.504238537759008L12.121212121212078,29.45581752148827L14.14141414141411,31.304527813390926L16.161616161616145,32.77382266090936L18.181818181818173,33.70743532619371L20.20202020202017,34.096483751128325L22.2222222222222,34.05628356017898L24.24242424242423,33.7694832894371L26.262626262626227,33.42106328870251L28.28282828282826,33.14798115495285L30.303030303030294,33.01584930731123L32.323232323232325,33.02294730507944L34.34343434343432,33.122912181829435L36.36363636363633,33.2538495061512L38.383838383838366,33.363052122041715L40.40404040404037,33.42105129179656L42.42424242424241,33.42394447464334L44.44444444444442,33.38693139580749L46.46464646464648,33.33382061110044L48.48484848484846,33.28701465607571L50.50505050505048,33.26088388025197L52.52525252525251,33.25945304386237L54.54545454545452,33.27773108229828L56.56565656565655,33.305202744472396L58.585858585858574,33.32995273785608L60.60606060606059,33.34231510633954L62.626262626262616,33.33746258883441L64.64646464646464,33.316703684864166L66.66666666666666,33.2873683878409L68.68686868686868,33.26115764180566L70.70707070707068,33.25092273056052L72.72727272727272,33.266200819092774L74.74747474747473,33.308463945173884L76.76767676767676,33.367719297548426L78.78787878787877,33.422435292562454L80.8080808080808,33.44435356830242L82.82828282828282,33.4083796510311L84.84848484848484,33.305625043192386L86.86868686868686,33.15547609054115L88.88888888888889,33.011304859106815L90.90909090909092,32.955103193907156L92.9292929292929,33.07936011954391L94.94949494949492,33.45934589017461L96.96969696969697,34.1238758328054L98.98989898989896,35.03516095691144L101.010101010101,36.08658814239114L103.030303030303,37.121388411784004L105.05050505050504,37.968023410471055L107.07070707070704,38.48360262601629L109.09090909090908,38.59641671565856L111.1111111111111,38.340856892729015L113.1313131313131,37.8792993230471L115.15151515151514,37.504695040362094L117.17171717171715,37.616612637076784L119.19191919191918,38.66592965668432L121.21212121212119,41.071590704990804L123.23232323232322,45.1254689172969L125.25252525252523,50.912476748537536L127.27272727272727,58.27466423471917L129.2929292929293,66.83569235988458L131.31313131313132,76.07966775726274L133.33333333333331,85.4570215134868L135.35353535353536,94.48170602253086L137.37373737373736,102.79332143672102L139.39393939393938,110.17920095467883L141.41414141414143,116.57201440226297L143.43434343434342,122.04553593775178L145.45454545454547,126.81959799880897L147.47474747474746,131.2608474513214L149.49494949494948,135.84597765418934L151.5151515151515,141.05900408575252L153.53535353535352,147.23061615880889L155.55555555555557,154.37694790815513L157.57575757575756,162.12154239844008L159.59595959595958,169.76113331630705L161.6161616161616,176.46885859176655L163.63636363636363,181.55647843633355L165.65656565656565,184.6857194441738L167.67676767676767,185.94639232942265L169.6969696969697,185.78466525233927L171.7171717171717,184.8285227206012L173.73737373737373,183.68873444449818L175.75757575757575,182.8065243876642L177.77777777777777,182.38663315807617L179.7979797979798,182.41613649360283L181.81818181818184,182.74096200509015L183.83838383838383,183.16082002856987L185.85858585858585,183.50820967030606L187.87878787878788,183.69196325292322L189.89898989898987,183.70267386309578L191.91919191919192,183.59015674883602L193.93939393939394,183.42885666394088L195.959595959596,183.2860605576388L197.97979797979798,183.20229117031693L200,183.18644479035171" stroke="#4c78a8" stroke-width="2"></path></g></g><path class="foreground" aria-hidden="true" d="" display="none"></path></g></g><g class="mark-group role-legend" role="graphics-symbol" aria-roledescription="legend" aria-label="Symbol legend titled 'fold' for stroke color with 2 values: 1, 2"><g transform="translate(175,0.5)"><path class="background" aria-hidden="true" d="M0,0h25v40h-25Z" pointer-events="none"></path><g><g class="mark-group role-legend-entry"><g transform="translate(0,16)"><path class="background" aria-hidden="true" d="M0,0h0v0h0Z" pointer-events="none"></path><g><g class="mark-group role-scope" role="graphics-object" aria-roledescription="group mark container"><g transform="translate(0,0)"><path class="background" aria-hidden="true" d="M0,0h22v11h-22Z" pointer-events="none" opacity="1"></path><g><g class="mark-symbol role-legend-symbol" pointer-events="none"><path transform="translate(6,6)" d="M-5,0L5,0" stroke="#4c78a8" stroke-width="1.5" opacity="1"></path></g><g class="mark-text role-legend-label" pointer-events="none"><text text-anchor="start" transform="translate(16,9)" font-family="sans-serif" font-size="10px" fill="#000" opacity="1">1</text></g></g><path class="foreground" aria-hidden="true" d="" pointer-events="none" display="none"></path></g><g transform="translate(0,13)"><path class="background" aria-hidden="true" d="M0,0h22v11h-22Z" pointer-events="none" opacity="1"></path><g><g class="mark-symbol role-legend-symbol" pointer-events="none"><path transform="translate(6,6)" d="M-5,0L5,0" stroke="#f58518" stroke-width="1.5" opacity="1"></path></g><g class="mark-text role-legend-label" pointer-events="none"><text text-anchor="start" transform="translate(16,9)" font-family="sans-serif" font-size="10px" fill="#000" opacity="1">2</text></g></g><path class="foreground" aria-hidden="true" d="" pointer-events="none" display="none"></path></g></g></g><path class="foreground" aria-hidden="true" d="" pointer-events="none" display="none"></path></g></g><g class="mark-text role-legend-title" pointer-events="none"><text text-anchor="start" transform="translate(0,9)" font-family="sans-serif" font-size="11px" font-weight="bold" fill="#000" opacity="1">fold</text></g></g><path class="foreground" aria-hidden="true" d="" pointer-events="none" display="none"></path></g></g></g><path class="foreground" aria-hidden="true" d="" display="none"></path></g></g></g></svg>
