<?xml version="1.0" encoding="utf-8"?>
<!DOCTYPE svg PUBLIC "-//W3C//DTD SVG 1.1//EN" "http://www.w3.org/Graphics/SVG/1.1/DTD/svg11.dtd">
<svg class="marks" width="426" height="692" viewBox="0 0 426 692" version="1.1" xmlns="http://www.w3.org/2000/svg" xmlns:xlink="http://www.w3.org/1999/xlink"><rect width="426" height="692" fill="white"></rect><g fill="none" stroke-miterlimit="10" transform="translate(94,10)"><g class="mark-group role-frame root" role="graphics-object" aria-roledescription="group mark container"><g transform="translate(0,0)"><path class="background" aria-hidden="true" d="M0,0h0v0h0Z"></path><g><g class="mark-group role-row-title row-title" role="graphics-object" aria-roledescription="group mark container"><g transform="translate(-68,322)"><path class="background" aria-hidden="true" d="M0,0h0v0h0Z"></path><g><g class="mark-group role-title"><g transform="translate(-21.000000000000004,0)"><path class="background" aria-hidden="true" d="M0,0h0v0h0Z" pointer-events="none"></path><g><g class="mark-text role-title-text" role="graphics-symbol" aria-roledescription="title" aria-label="Title text 'condition'" pointer-events="none"><text text-anchor="middle" transform="translate(0,0) rotate(-90) translate(0,9)" font-family="sans-serif" font-size="11px" font-weight="bold" fill="#000" opacity="1">condition</text></g></g><path class="foreground" aria-hidden="true" d="" pointer-events="none" display="none"></path></g></g></g><path class="foreground" aria-hidden="true" d="" display="none"></path></g></g><g class="mark-group role-row-header row_header" role="graphics-object" aria-roledescription="group mark container"><g transform="translate(-1,0)"><path class="background" aria-hidden="true" d="M0,0h0v200h0Z"></path><g><g class="mark-group role-axis" role="graphics-symbol" aria-roledescription="axis" aria-label="Y-axis titled 'lower' for a linear scale with values from 0.0 to 1.0"><g transform="translate(0.5,0.5)"><path class="background" aria-hidden="true" d="M0,0h0v0h0Z" pointer-events="none"></path><g><g class="mark-rule role-axis-tick" pointer-events="none"><line transform="translate(0,200)" x2="-5" y2="0" stroke="#888" stroke-width="1" opacity="1"></line><line transform="translate(0,160)" x2="-5" y2="0" stroke="#888" stroke-width="1" opacity="1"></line><line transform="translate(0,120)" x2="-5" y2="0" stroke="#888" stroke-width="1" opacity="1"></line><line transform="translate(0,80)" x2="-5" y2="0" stroke="#888" stroke-width="1" opacity="1"></line><line transform="translate(0,40)" x2="-5" y2="0" stroke="#888" stroke-width="1" opacity="1"></line><line transform="translate(0,0)" x2="-5" y2="0" stroke="#888" stroke-width="1" opacity="1"></line></g><g class="mark-text role-axis-label" pointer-events="none"><text text-anchor="end" transform="translate(-7,203)" font-family="sans-serif" font-size="10px" fill="#000" opacity="1">0.0</text><text text-anchor="end" transform="translate(-7,163)" font-family="sans-serif" font-size="10px" fill="#000" opacity="1">0.2</text><text text-anchor="end" transform="translate(-7,123)" font-family="sans-serif" font-size="10px" fill="#000" opacity="1">0.4</text><text text-anchor="end" transform="translate(-7,83)" font-family="sans-serif" font-size="10px" fill="#000" opacity="1">0.6</text><text text-anchor="end" transform="translate(-7,42.99999999999999)" font-family="sans-serif" font-size="10px" fill="#000" opacity="1">0.8</text><text text-anchor="end" transform="translate(-7,3)" font-family="sans-serif" font-size="10px" fill="#000" opacity="1">1.0</text></g><g class="mark-rule role-axis-domain" pointer-events="none"><line transform="translate(0,200)" x2="0" y2="-200" stroke="#888" stroke-width="1" opacity="1"></line></g><g class="mark-text role-axis-title" pointer-events="none"><text text-anchor="middle" transform="translate(-26,100) rotate(-90) translate(0,-2)" font-family="sans-serif" font-size="11px" font-weight="bold" fill="#000" opacity="1">lower</text></g></g><path class="foreground" aria-hidden="true" d="" pointer-events="none" display="none"></path></g></g><g class="mark-group role-title"><g transform="translate(-57,100)"><path class="background" aria-hidden="true" d="M0,0h0v0h0Z" pointer-events="none"></path><g><g class="mark-text role-title-text" role="graphics-symbol" aria-roledescription="title" aria-label="Title text 'global'" pointer-events="none"><text text-anchor="middle" transform="translate(0,0) rotate(-90) translate(0,8)" font-family="sans-serif" font-size="10px" fill="#000" opacity="1">global</text></g></g><path class="foreground" aria-hidden="true" d="" pointer-events="none" display="none"></path></g></g></g><path class="foreground" aria-hidden="true" d="" display="none"></path></g><g transform="translate(-1,222)"><path class="background" aria-hidden="true" d="M0,0h0v200h0Z"></path><g><g class="mark-group role-axis" role="graphics-symbol" aria-roledescription="axis" aria-label="Y-axis titled 'lower' for a linear scale with values from 0.0 to 1.0"><g transform="translate(0.5,0.5)"><path class="background" aria-hidden="true" d="M0,0h0v0h0Z" pointer-events="none"></path><g><g class="mark-rule role-axis-tick" pointer-events="none"><line transform="translate(0,200)" x2="-5" y2="0" stroke="#888" stroke-width="1" opacity="1"></line><line transform="translate(0,160)" x2="-5" y2="0" stroke="#888" stroke-width="1" opacity="1"></line><line transform="translate(0,120)" x2="-5" y2="0" stroke="#888" stroke-width="1" opacity="1"></line><line transform="translate(0,80)" x2="-5" y2="0" stroke="#888" stroke-width="1" opacity="1"></line><line transform="translate(0,40)" x2="-5" y2="0" stroke="#888" stroke-width="1" opacity="1"></line><line transform="translate(0,0)" x2="-5" y2="0" stroke="#888" stroke-width="1" opacity="1"></line></g><g class="mark-text role-axis-label" pointer-events="none"><text text-anchor="end" transform="translate(-7,203)" font-family="sans-serif" font-size="10px" fill="#000" opacity="1">0.0</text><text text-anchor="end" transform="translate(-7,163)" font-family="sans-serif" font-size="10px" fill="#000" opacity="1">0.2</text><text text-anchor="end" transform="translate(-7,123)" font-family="sans-serif" font-size="10px" fill="#000" opacity="1">0.4</text><text text-anchor="end" transform="translate(-7,83)" font-family="sans-serif" font-size="10px" fill="#000" opacity="1">0.6</text><text text-anchor="end" transform="translate(-7,42.99999999999999)" font-family="sans-serif" font-size="10px" fill="#000" opacity="1">0.8</text><text text-anchor="end" transform="translate(-7,3)" font-family="sans-serif" font-size="10px" fill="#000" opacity="1">1.0</text></g><g class="mark-rule role-axis-domain" pointer-events="none"><line transform="translate(0,200)" x2="0" y2="-200" stroke="#888" stroke-width="1" opacity="1"></line></g><g class="mark-text role-axis-title" pointer-events="none"><text text-anchor="middle" transform="translate(-26,100) rotate(-90) translate(0,-2)" font-family="sans-serif" font-size="11px" font-weight="bold" fill="#000" opacity="1">lower</text></g></g><path class="foreground" aria-hidden="true" d="" pointer-events="none" display="none"></path></g></g><g class="mark-group role-title"><g transform="translate(-57,100)"><path class="background" aria-hidden="true" d="M0,0h0v0h0Z" pointer-events="none"></path><g><g class="mark-text role-title-text" role="graphics-symbol" aria-roledescription="title" aria-label="Title text 'object'" pointer-events="none"><text text-anchor="middle" transform="translate(0,0) rotate(-90) translate(0,8)" font-family="sans-serif" font-size="10px" fill="#000" opacity="1">object</text></g></g><path class="foreground" aria-hidden="true" d="" pointer-events="none" display="none"></path></g></g></g><path class="foreground" aria-hidden="true" d="" display="none"></path></g><g transform="translate(-1,444)"><path class="background" aria-hidden="true" d="M0,0h0v200h0Z"></path><g><g class="mark-group role-axis" role="graphics-symbol" aria-roledescription="axis" aria-label="Y-axis titled 'lower' for a linear scale with values from 0.0 to 1.0"><g transform="translate(0.5,0.5)"><path class="background" aria-hidden="true" d="M0,0h0v0h0Z" pointer-events="none"></path><g><g class="mark-rule role-axis-tick" pointer-events="none"><line transform="translate(0,200)" x2="-5" y2="0" stroke="#888" stroke-width="1" opacity="1"></line><line transform="translate(0,160)" x2="-5" y2="0" stroke="#888" stroke-width="1" opacity="1"></line><line transform="translate(0,120)" x2="-5" y2="0" stroke="#888" stroke-width="1" opacity="1"></line><line transform="translate(0,80)" x2="-5" y2="0" stroke="#888" stroke-width="1" opacity="1"></line><line transform="translate(0,40)" x2="-5" y2="0" stroke="#888" stroke-width="1" opacity="1"></line><line transform="translate(0,0)" x2="-5" y2="0" stroke="#888" stroke-width="1" opacity="1"></line></g><g class="mark-text role-axis-label" pointer-events="none"><text text-anchor="end" transform="translate(-7,203)" font-family="sans-serif" font-size="10px" fill="#000" opacity="1">0.0</text><text text-anchor="end" transform="translate(-7,163)" font-family="sans-serif" font-size="10px" fill="#000" opacity="1">0.2</text><text text-anchor="end" transform="translate(-7,123)" font-family="sans-serif" font-size="10px" fill="#000" opacity="1">0.4</text><text text-anchor="end" transform="translate(-7,83)" font-family="sans-serif" font-size="10px" fill="#000" opacity="1">0.6</text><text text-anchor="end" transform="translate(-7,42.99999999999999)" font-family="sans-serif" font-size="10px" fill="#000" opacity="1">0.8</text><text text-anchor="end" transform="translate(-7,3)" font-family="sans-serif" font-size="10px" fill="#000" opacity="1">1.0</text></g><g class="mark-rule role-axis-domain" pointer-events="none"><line transform="translate(0,200)" x2="0" y2="-200" stroke="#888" stroke-width="1" opacity="1"></line></g><g class="mark-text role-axis-title" pointer-events="none"><text text-anchor="middle" transform="translate(-26,100) rotate(-90) translate(0,-2)" font-family="sans-serif" font-size="11px" font-weight="bold" fill="#000" opacity="1">lower</text></g></g><path class="foreground" aria-hidden="true" d="" pointer-events="none" display="none"></path></g></g><g class="mark-group role-title"><g transform="translate(-57,100)"><path class="background" aria-hidden="true" d="M0,0h0v0h0Z" pointer-events="none"></path><g><g class="mark-text role-title-text" role="graphics-symbol" aria-roledescription="title" aria-label="Title text 'spatial'" pointer-events="none"><text text-anchor="middle" transform="translate(0,0) rotate(-90) translate(0,8)" font-family="sans-serif" font-size="10px" fill="#000" opacity="1">spatial</text></g></g><path class="foreground" aria-hidden="true" d="" pointer-events="none" display="none"></path></g></g></g><path class="foreground" aria-hidden="true" d="" display="none"></path></g></g><g class="mark-group role-column-footer column_footer" role="graphics-object" aria-roledescription="group mark container"><g transform="translate(0,645)"><path class="background" aria-hidden="true" d="M0,0h200v0h-200Z"></path><g><g class="mark-group role-axis" role="graphics-symbol" aria-roledescription="axis" aria-label="X-axis titled 'switch_break' for a linear scale with values from 0 to 28"><g transform="translate(0.5,0.5)"><path class="background" aria-hidden="true" d="M0,0h0v0h0Z" pointer-events="none"></path><g><g class="mark-rule role-axis-tick" pointer-events="none"><line transform="translate(0,0)" x2="0" y2="5" stroke="#888" stroke-width="1" opacity="1"></line><line transform="translate(36,0)" x2="0" y2="5" stroke="#888" stroke-width="1" opacity="1"></line><line transform="translate(71,0)" x2="0" y2="5" stroke="#888" stroke-width="1" opacity="1"></line><line transform="translate(107,0)" x2="0" y2="5" stroke="#888" stroke-width="1" opacity="1"></line><line transform="translate(143,0)" x2="0" y2="5" stroke="#888" stroke-width="1" opacity="1"></line><line transform="translate(179,0)" x2="0" y2="5" stroke="#888" stroke-width="1" opacity="1"></line></g><g class="mark-text role-axis-label" pointer-events="none"><text text-anchor="start" transform="translate(0,15)" font-family="sans-serif" font-size="10px" fill="#000" opacity="1">0</text><text text-anchor="middle" transform="translate(35.714285714285715,15)" font-family="sans-serif" font-size="10px" fill="#000" opacity="1">5</text><text text-anchor="middle" transform="translate(71.42857142857143,15)" font-family="sans-serif" font-size="10px" fill="#000" opacity="1">10</text><text text-anchor="middle" transform="translate(107.14285714285714,15)" font-family="sans-serif" font-size="10px" fill="#000" opacity="1">15</text><text text-anchor="middle" transform="translate(142.85714285714286,15)" font-family="sans-serif" font-size="10px" fill="#000" opacity="1">20</text><text text-anchor="middle" transform="translate(178.57142857142858,15)" font-family="sans-serif" font-size="10px" fill="#000" opacity="1">25</text></g><g class="mark-rule role-axis-domain" pointer-events="none"><line transform="translate(0,0)" x2="200" y2="0" stroke="#888" stroke-width="1" opacity="1"></line></g><g class="mark-text role-axis-title" pointer-events="none"><text text-anchor="middle" transform="translate(100,30)" font-family="sans-serif" font-size="11px" font-weight="bold" fill="#000" opacity="1">switch_break</text></g></g><path class="foreground" aria-hidden="true" d="" pointer-events="none" display="none"></path></g></g></g><path class="foreground" aria-hidden="true" d="" display="none"></path></g></g><g class="mark-group role-scope cell" role="graphics-object" aria-roledescription="group mark container"><g transform="translate(0,0)"><path class="background" aria-hidden="true" d="M0.5,0.5h200v200h-200Z" stroke="#ddd"></path><g><g class="mark-group role-axis" aria-hidden="true"><g transform="translate(0.5,200.5)"><path class="background" aria-hidden="true" d="M0,0h0v0h0Z" pointer-events="none"></path><g><g class="mark-rule role-axis-grid" pointer-events="none"><line transform="translate(0,-200)" x2="0" y2="200" stroke="#ddd" stroke-width="1" opacity="1"></line><line transform="translate(36,-200)" x2="0" y2="200" stroke="#ddd" stroke-width="1" opacity="1"></line><line transform="translate(71,-200)" x2="0" y2="200" stroke="#ddd" stroke-width="1" opacity="1"></line><line transform="translate(107,-200)" x2="0" y2="200" stroke="#ddd" stroke-width="1" opacity="1"></line><line transform="translate(143,-200)" x2="0" y2="200" stroke="#ddd" stroke-width="1" opacity="1"></line><line transform="translate(179,-200)" x2="0" y2="200" stroke="#ddd" stroke-width="1" opacity="1"></line></g></g><path class="foreground" aria-hidden="true" d="" pointer-events="none" display="none"></path></g></g><g class="mark-group role-axis" aria-hidden="true"><g transform="translate(0.5,0.5)"><path class="background" aria-hidden="true" d="M0,0h0v0h0Z" pointer-events="none"></path><g><g class="mark-rule role-axis-grid" pointer-events="none"><line transform="translate(0,200)" x2="200" y2="0" stroke="#ddd" stroke-width="1" opacity="1"></line><line transform="translate(0,160)" x2="200" y2="0" stroke="#ddd" stroke-width="1" opacity="1"></line><line transform="translate(0,120)" x2="200" y2="0" stroke="#ddd" stroke-width="1" opacity="1"></line><line transform="translate(0,80)" x2="200" y2="0" stroke="#ddd" stroke-width="1" opacity="1"></line><line transform="translate(0,40)" x2="200" y2="0" stroke="#ddd" stroke-width="1" opacity="1"></line><line transform="translate(0,0)" x2="200" y2="0" stroke="#ddd" stroke-width="1" opacity="1"></line></g></g><path class="foreground" aria-hidden="true" d="" pointer-events="none" display="none"></path></g></g><g class="mark-group role-scope child_layer_0_pathgroup" role="graphics-object" aria-roledescription="group mark container"><g transform="translate(0,0)"><path class="background" aria-hidden="true" d="M0,0h200v200h-200Z"></path><g><g class="mark-line role-mark child_layer_0_marks" role="graphics-object" aria-roledescription="line mark container"><path aria-label="target_time_label: late; switch_break: 1; mean: 0.824609221489" role="graphics-symbol" aria-roledescription="line mark" d="M7.142857142857142,35.07815570226083L14.285714285714285,26.385723302104758L21.428571428571427,10.736275782350436L28.57142857142857,20.502395782517823L35.714285714285715,39.396769405560896L42.857142857142854,39.396769405560896L50,44.8131633890291L57.14285714285714,36.965902330960596L64.28571428571429,36.965902330960596L71.42857142857143,36.965902330960596L78.57142857142857,36.965902330960596L85.71428571428571,36.965902330960596L92.85714285714286,33.842287188801336L100,33.842287188801336L107.14285714285714,33.842287188801336L114.28571428571428,33.842287188801336L121.42857142857142,33.842287188801336L128.57142857142858,33.842287188801336L135.71428571428572,33.842287188801336L142.85714285714286,33.842287188801336L150,33.842287188801336L157.14285714285714,33.842287188801336L164.28571428571428,29.551519413168602L171.42857142857142,16.615552689719195L178.57142857142858,16.615552689719195L185.71428571428572,39.43211635273087L192.85714285714286,39.43211635273087L200,44.70281481123208" stroke="#f58518" stroke-width="2"></path></g></g><path class="foreground" aria-hidden="true" d="" display="none"></path></g><g transform="translate(0,0)"><path class="background" aria-hidden="true" d="M0,0h200v200h-200Z"></path><g><g class="mark-line role-mark child_layer_0_marks" role="graphics-object" aria-roledescription="line mark container"><path aria-label="target_time_label: early; switch_break: 6; mean: 0.776485925944" role="graphics-symbol" aria-roledescription="line mark" d="M42.857142857142854,44.70281481123208L50,44.70281481123208L57.14285714285714,44.70281481123208L64.28571428571429,35.35435007269838L71.42857142857143,7.337424807910309L78.57142857142857,13.590241246155488L85.71428571428571,17.18351721599913L92.85714285714286,21.191878412935772L100,29.840838787878376L107.14285714285714,34.128908766209534L114.28571428571428,25.651505723344382L121.42857142857142,14.663935970795517L128.57142857142858,8.361788719774555L135.71428571428572,5.381593235544879L142.85714285714286,9.29493505930914L150,16.847952575334446L157.14285714285714,34.24986065781148L164.28571428571428,44.525102017345475L171.42857142857142,44.525102017345475L178.57142857142858,44.70281481123208L185.71428571428572,44.70281481123208L192.85714285714286,44.70281481123208L200,44.70281481123208" stroke="#4c78a8" stroke-width="2"></path></g></g><path class="foreground" aria-hidden="true" d="" display="none"></path></g></g><g class="mark-group role-scope child_layer_1_layer_0_pathgroup" role="graphics-object" aria-roledescription="group mark container"><g transform="translate(0,0)"><path class="background" aria-hidden="true" d="M0,0h200v200h-200Z"></path><g><g class="mark-area role-mark child_layer_1_layer_0_marks" role="graphics-object" aria-roledescription="area mark container"><path aria-label="lower: 0.803881772601; upper_lower: 0.842997238317; target_time_label: late; switch_break: 1; upper: 0.842997238317" role="graphics-symbol" aria-roledescription="errorband" d="M7.142857142857142,39.22364547972958L14.285714285714285,31.869865457699163L21.428571428571427,13.699709060426724L28.57142857142857,24.710218647743034L35.714285714285715,42.97271474893816L42.857142857142854,42.99609119147539L50,47.24807906945452L57.14285714285714,38.34003438334952L64.28571428571429,38.314716819830096L71.42857142857143,38.31599922899134L78.57142857142857,38.29655190256125L85.71428571428571,38.32275418805799L92.85714285714286,36.14605721857327L100,36.11555894633054L107.14285714285714,36.18825596847264L114.28571428571428,36.116136796753054L121.42857142857142,36.199827967763355L128.57142857142858,36.16448353715058L135.71428571428572,36.21250752453462L142.85714285714286,36.11463146315226L150,36.19195530301813L157.14285714285714,36.16566320161996L164.28571428571428,33.52821543681117L171.42857142857142,20.717936482499976L178.57142857142858,20.50827659489245L185.71428571428572,41.7060824261686L192.85714285714286,41.74184694640888L200,44.70281481123208L200,44.70281481123208L192.85714285714286,37.2592852208355L185.71428571428572,37.248526356437004L178.57142857142858,13.298266821338323L171.42857142857142,13.272443210750318L164.28571428571428,25.98465304129869L157.14285714285714,31.612972876938894L150,31.649862992067867L142.85714285714286,31.60083391952877L135.71428571428572,31.60291190626008L128.57142857142858,31.55551938443013L121.42857142857142,31.606563814674548L114.28571428571428,31.646529212783015L107.14285714285714,31.623431828599013L100,31.618985104394536L92.85714285714286,31.640782844315506L85.71428571428571,35.666313254750534L78.57142857142857,35.632623711912295L71.42857142857143,35.62588962959512L64.28571428571429,35.64158561220536L57.14285714285714,35.64374082233244L50,42.51506140752064L42.857142857142854,35.998764761096716L35.714285714285715,36.01297715764651L28.57142857142857,16.894781363699106L21.428571428571427,8.332177283522535L14.285714285714285,21.690983262426332L7.142857142857142,31.400552336505072Z" fill="#f58518" opacity="0.3"></path></g></g><path class="foreground" aria-hidden="true" d="" display="none"></path></g><g transform="translate(0,0)"><path class="background" aria-hidden="true" d="M0,0h200v200h-200Z"></path><g><g class="mark-area role-mark child_layer_1_layer_0_marks" role="graphics-object" aria-roledescription="area mark container"><path aria-label="lower: 0.776485925944; upper_lower: 0.776485925944; target_time_label: early; switch_break: 6; upper: 0.776485925944" role="graphics-symbol" aria-roledescription="errorband" d="M42.857142857142854,44.70281481123208L50,44.70281481123208L57.14285714285714,44.70281481123208L64.28571428571429,38.25443840768268L71.42857142857143,9.29384272581968L78.57142857142857,17.03900337155595L85.71428571428571,22.03035135454927L92.85714285714286,27.235607485380363L100,38.106283497704396L107.14285714285714,37.28094312389505L114.28571428571428,32.20298108322368L121.42857142857142,19.400055126441185L128.57142857142858,11.280283860178674L135.71428571428572,7.035190881191955L142.85714285714286,12.6541242671105L150,21.86291690478772L157.14285714285714,38.65549350999182L164.28571428571428,44.70281481123208L171.42857142857142,44.70281481123208L178.57142857142858,44.70281481123208L185.71428571428572,44.70281481123208L192.85714285714286,44.70281481123208L200,44.70281481123208L200,44.70281481123208L192.85714285714286,44.70281481123208L185.71428571428572,44.70281481123208L178.57142857142858,44.70281481123208L171.42857142857142,44.347893958512245L164.28571428571428,44.347893958512245L157.14285714285714,30.209208580416757L150,12.936317810041409L142.85714285714286,6.750769838415449L135.71428571428572,4.117111681071539L128.57142857142858,6.178006137173742L121.42857142857142,11.012527281591478L114.28571428571428,20.062452033068446L107.14285714285714,31.26561214660992L100,23.24589051310324L92.85714285714286,16.293286301215847L85.71428571428571,13.29505554914492L78.57142857142857,10.744983534698038L71.42857142857143,5.725098803399931L64.28571428571429,32.58535902347588L57.14285714285714,44.70281481123208L50,44.70281481123208L42.857142857142854,44.70281481123208Z" fill="#4c78a8" opacity="0.3"></path></g></g><path class="foreground" aria-hidden="true" d="" display="none"></path></g></g></g><path class="foreground" aria-hidden="true" d="" display="none"></path></g><g transform="translate(0,222)"><path class="background" aria-hidden="true" d="M0.5,0.5h200v200h-200Z" stroke="#ddd"></path><g><g class="mark-group role-axis" aria-hidden="true"><g transform="translate(0.5,200.5)"><path class="background" aria-hidden="true" d="M0,0h0v0h0Z" pointer-events="none"></path><g><g class="mark-rule role-axis-grid" pointer-events="none"><line transform="translate(0,-200)" x2="0" y2="200" stroke="#ddd" stroke-width="1" opacity="1"></line><line transform="translate(36,-200)" x2="0" y2="200" stroke="#ddd" stroke-width="1" opacity="1"></line><line transform="translate(71,-200)" x2="0" y2="200" stroke="#ddd" stroke-width="1" opacity="1"></line><line transform="translate(107,-200)" x2="0" y2="200" stroke="#ddd" stroke-width="1" opacity="1"></line><line transform="translate(143,-200)" x2="0" y2="200" stroke="#ddd" stroke-width="1" opacity="1"></line><line transform="translate(179,-200)" x2="0" y2="200" stroke="#ddd" stroke-width="1" opacity="1"></line></g></g><path class="foreground" aria-hidden="true" d="" pointer-events="none" display="none"></path></g></g><g class="mark-group role-axis" aria-hidden="true"><g transform="translate(0.5,0.5)"><path class="background" aria-hidden="true" d="M0,0h0v0h0Z" pointer-events="none"></path><g><g class="mark-rule role-axis-grid" pointer-events="none"><line transform="translate(0,200)" x2="200" y2="0" stroke="#ddd" stroke-width="1" opacity="1"></line><line transform="translate(0,160)" x2="200" y2="0" stroke="#ddd" stroke-width="1" opacity="1"></line><line transform="translate(0,120)" x2="200" y2="0" stroke="#ddd" stroke-width="1" opacity="1"></line><line transform="translate(0,80)" x2="200" y2="0" stroke="#ddd" stroke-width="1" opacity="1"></line><line transform="translate(0,40)" x2="200" y2="0" stroke="#ddd" stroke-width="1" opacity="1"></line><line transform="translate(0,0)" x2="200" y2="0" stroke="#ddd" stroke-width="1" opacity="1"></line></g></g><path class="foreground" aria-hidden="true" d="" pointer-events="none" display="none"></path></g></g><g class="mark-group role-scope child_layer_0_pathgroup" role="graphics-object" aria-roledescription="group mark container"><g transform="translate(0,0)"><path class="background" aria-hidden="true" d="M0,0h200v200h-200Z"></path><g><g class="mark-line role-mark child_layer_0_marks" role="graphics-object" aria-roledescription="line mark container"><path aria-label="target_time_label: late; switch_break: 1; mean: 0.860948577745" role="graphics-symbol" aria-roledescription="line mark" d="M7.142857142857142,27.810284450946064L14.285714285714285,28.04805450632579L21.428571428571427,28.04805450632579L28.57142857142857,24.09946999946748L35.714285714285715,32.54776531745116L42.857142857142854,32.54776531745116L50,32.54776531745116L57.14285714285714,32.54776531745116L64.28571428571429,32.54776531745116L71.42857142857143,32.54776531745116L78.57142857142857,32.54776531745116L85.71428571428571,32.54776531745116L92.85714285714286,32.54776531745116L100,32.54776531745116L107.14285714285714,32.54776531745116L114.28571428571428,32.54776531745116L121.42857142857142,32.54776531745116L128.57142857142858,32.54776531745116L135.71428571428572,32.54776531745116L142.85714285714286,32.54776531745116L150,32.54776531745116L157.14285714285714,32.54776531745116L164.28571428571428,32.54776531745116L171.42857142857142,29.928353892669723L178.57142857142858,29.928353892669723L185.71428571428572,45.328611232694314L192.85714285714286,45.328611232694314L200,45.328611232694314" stroke="#f58518" stroke-width="2"></path></g></g><path class="foreground" aria-hidden="true" d="" display="none"></path></g><g transform="translate(0,0)"><path class="background" aria-hidden="true" d="M0,0h200v200h-200Z"></path><g><g class="mark-line role-mark child_layer_0_marks" role="graphics-object" aria-roledescription="line mark container"><path aria-label="target_time_label: early; switch_break: 6; mean: 0.777820470356" role="graphics-symbol" aria-roledescription="line mark" d="M42.857142857142854,44.435905928726235L50,44.435905928726235L57.14285714285714,44.435905928726235L64.28571428571429,25.331746188356608L71.42857142857143,25.331746188356608L78.57142857142857,25.331746188356608L85.71428571428571,25.331746188356608L92.85714285714286,20.262973275527173L100,20.262973275527173L107.14285714285714,30.222296167866848L114.28571428571428,44.85787676634905L121.42857142857142,49.786077160388075L128.57142857142858,43.419221969673316L135.71428571428572,36.76369833193567L142.85714285714286,28.81309131282437L150,28.81309131282437L157.14285714285714,26.246925889619767L164.28571428571428,33.51115806970233L171.42857142857142,33.51115806970233L178.57142857142858,40.98592353424642L185.71428571428572,40.98592353424642L192.85714285714286,44.70281481123208L200,44.70281481123208" stroke="#4c78a8" stroke-width="2"></path></g></g><path class="foreground" aria-hidden="true" d="" display="none"></path></g></g><g class="mark-group role-scope child_layer_1_layer_0_pathgroup" role="graphics-object" aria-roledescription="group mark container"><g transform="translate(0,0)"><path class="background" aria-hidden="true" d="M0,0h200v200h-200Z"></path><g><g class="mark-area role-mark child_layer_1_layer_0_marks" role="graphics-object" aria-roledescription="area mark container"><path aria-label="lower: 0.817755463025; upper_lower: 0.895184540468; target_time_label: late; switch_break: 1; upper: 0.895184540468" role="graphics-symbol" aria-roledescription="errorband" d="M7.142857142857142,36.44890739509516L14.285714285714285,43.450726595281644L21.428571428571427,43.74691645304696L28.57142857142857,36.47440521012189L35.714285714285715,46.87665087974493L42.857142857142854,46.639975086010985L50,46.995935498254404L57.14285714285714,47.19477884516128L64.28571428571429,46.87331734861051L71.42857142857143,46.969762387576154L78.57142857142857,46.68898264742858L85.71428571428571,46.97570522824619L92.85714285714286,46.769056237289554L100,46.90703739283941L107.14285714285714,47.06252537690312L114.28571428571428,47.13845138022439L121.42857142857142,47.15191249907373L128.57142857142858,46.73127536062183L135.71428571428572,47.024399691666474L142.85714285714286,46.39638507498294L150,46.59645057093091L157.14285714285714,46.916471124772244L164.28571428571428,46.76106081285436L171.42857142857142,45.58967882971729L178.57142857142858,45.81631630954779L185.71428571428572,47.806135443095265L192.85714285714286,47.855295663528395L200,47.8723434701118L200,42.84468278422069L192.85714285714286,42.926336523688626L185.71428571428572,42.89153369039356L178.57142857142858,18.84156806821038L171.42857142857142,18.787151956400017L164.28571428571428,22.001291737241036L157.14285714285714,22.04307038108533L150,21.964611948737755L142.85714285714286,21.930764275054692L135.71428571428572,21.87389555420822L128.57142857142858,21.887358215450625L121.42857142857142,22.1487923188058L114.28571428571428,21.875740072436002L107.14285714285714,22.007840522868104L100,21.933751252433197L92.85714285714286,22.022164702879564L85.71428571428571,21.958333494316264L78.57142857142857,21.92338429055416L71.42857142857143,21.948419423412457L64.28571428571429,22.000535107354402L57.14285714285714,22.086127151948975L50,21.657176978737546L42.857142857142854,21.83048152174254L35.714285714285715,22.10860269181869L28.57142857142857,15.265502098071025L21.428571428571427,17.548805896421715L14.285714285714285,17.251090261831003L7.142857142857142,20.96309190636876Z" fill="#f58518" opacity="0.3"></path></g></g><path class="foreground" aria-hidden="true" d="" display="none"></path></g><g transform="translate(0,0)"><path class="background" aria-hidden="true" d="M0,0h200v200h-200Z"></path><g><g class="mark-area role-mark child_layer_1_layer_0_marks" role="graphics-object" aria-roledescription="area mark container"><path aria-label="lower: 0.777112006607; upper_lower: 0.778527323987; target_time_label: early; switch_break: 6; upper: 0.778527323987" role="graphics-symbol" aria-roledescription="errorband" d="M42.857142857142854,44.57759867864819L50,44.57759867864819L57.14285714285714,44.57759867864819L64.28571428571429,31.532135245221895L71.42857142857143,31.872944929624847L78.57142857142857,31.796252603291975L85.71428571428571,31.71391342477561L92.85714285714286,25.190085399179353L100,25.331352481663274L107.14285714285714,33.93864155001922L114.28571428571428,45.99677973964873L121.42857142857142,57.67611826692403L128.57142857142858,50.132948540308234L135.71428571428572,51.16235930016124L142.85714285714286,42.328931343070295L150,42.60787223507734L157.14285714285714,35.96127643621725L164.28571428571428,38.65278325813553L171.42857142857142,38.61251199618862L178.57142857142858,44.01498570010758L185.71428571428572,44.01498570010758L192.85714285714286,44.70281481123208L200,44.70281481123208L200,44.70281481123208L192.85714285714286,44.70281481123208L185.71428571428572,38.1020355987929L178.57142857142858,38.1020355987929L171.42857142857142,28.899135981100255L164.28571428571428,28.887090856377128L157.14285714285714,18.90389262478953L150,19.076750079203354L142.85714285714286,19.149875580249297L135.71428571428572,25.665192926761193L128.57142857142858,37.418443563863015L121.42857142857142,42.515552066858305L114.28571428571428,43.782949719640825L107.14285714285714,26.712308178377597L100,16.172280381350966L92.85714285714286,16.10899805080248L85.71428571428571,20.20306546482413L78.57142857142857,20.178509422415857L71.42857142857143,20.086526073516197L64.28571428571429,20.118890316279025L57.14285714285714,44.29453520258788L50,44.29453520258788L42.857142857142854,44.29453520258788Z" fill="#4c78a8" opacity="0.3"></path></g></g><path class="foreground" aria-hidden="true" d="" display="none"></path></g></g></g><path class="foreground" aria-hidden="true" d="" display="none"></path></g><g transform="translate(0,444)"><path class="background" aria-hidden="true" d="M0.5,0.5h200v200h-200Z" stroke="#ddd"></path><g><g class="mark-group role-axis" aria-hidden="true"><g transform="translate(0.5,200.5)"><path class="background" aria-hidden="true" d="M0,0h0v0h0Z" pointer-events="none"></path><g><g class="mark-rule role-axis-grid" pointer-events="none"><line transform="translate(0,-200)" x2="0" y2="200" stroke="#ddd" stroke-width="1" opacity="1"></line><line transform="translate(36,-200)" x2="0" y2="200" stroke="#ddd" stroke-width="1" opacity="1"></line><line transform="translate(71,-200)" x2="0" y2="200" stroke="#ddd" stroke-width="1" opacity="1"></line><line transform="translate(107,-200)" x2="0" y2="200" stroke="#ddd" stroke-width="1" opacity="1"></line><line transform="translate(143,-200)" x2="0" y2="200" stroke="#ddd" stroke-width="1" opacity="1"></line><line transform="translate(179,-200)" x2="0" y2="200" stroke="#ddd" stroke-width="1" opacity="1"></line></g></g><path class="foreground" aria-hidden="true" d="" pointer-events="none" display="none"></path></g></g><g class="mark-group role-axis" aria-hidden="true"><g transform="translate(0.5,0.5)"><path class="background" aria-hidden="true" d="M0,0h0v0h0Z" pointer-events="none"></path><g><g class="mark-rule role-axis-grid" pointer-events="none"><line transform="translate(0,200)" x2="200" y2="0" stroke="#ddd" stroke-width="1" opacity="1"></line><line transform="translate(0,160)" x2="200" y2="0" stroke="#ddd" stroke-width="1" opacity="1"></line><line transform="translate(0,120)" x2="200" y2="0" stroke="#ddd" stroke-width="1" opacity="1"></line><line transform="translate(0,80)" x2="200" y2="0" stroke="#ddd" stroke-width="1" opacity="1"></line><line transform="translate(0,40)" x2="200" y2="0" stroke="#ddd" stroke-width="1" opacity="1"></line><line transform="translate(0,0)" x2="200" y2="0" stroke="#ddd" stroke-width="1" opacity="1"></line></g></g><path class="foreground" aria-hidden="true" d="" pointer-events="none" display="none"></path></g></g><g class="mark-group role-scope child_layer_0_pathgroup" role="graphics-object" aria-roledescription="group mark container"><g transform="translate(0,0)"><path class="background" aria-hidden="true" d="M0,0h200v200h-200Z"></path><g><g class="mark-line role-mark child_layer_0_marks" role="graphics-object" aria-roledescription="line mark container"><path aria-label="target_time_label: late; switch_break: 1; mean: 0.513354114701" role="graphics-symbol" aria-roledescription="line mark" d="M7.142857142857142,97.32917705989348L14.285714285714285,97.32917705989348L21.428571428571427,97.32917705989348L28.57142857142857,97.32917705989348L35.714285714285715,97.32917705989348L42.857142857142854,97.32917705989348L50,97.32917705989348L57.14285714285714,97.32917705989348L64.28571428571429,97.32917705989348L71.42857142857143,97.32917705989348L78.57142857142857,97.32917705989348L85.71428571428571,97.32917705989348L92.85714285714286,97.32917705989348L100,97.32917705989348L107.14285714285714,97.32917705989348L114.28571428571428,97.32917705989348L121.42857142857142,97.32917705989348L128.57142857142858,97.32917705989348L135.71428571428572,97.32917705989348L142.85714285714286,97.32917705989348L150,97.32917705989348L157.14285714285714,97.32917705989348L164.28571428571428,97.32917705989348L171.42857142857142,62.56736053721441L178.57142857142858,62.56736053721441L185.71428571428572,76.08262322606696L192.85714285714286,76.08262322606696L200,76.08262322606696" stroke="#f58518" stroke-width="2"></path></g></g><path class="foreground" aria-hidden="true" d="" display="none"></path></g><g transform="translate(0,0)"><path class="background" aria-hidden="true" d="M0,0h200v200h-200Z"></path><g><g class="mark-line role-mark child_layer_0_marks" role="graphics-object" aria-roledescription="line mark container"><path aria-label="target_time_label: early; switch_break: 10; mean: 0.785525533961" role="graphics-symbol" aria-roledescription="line mark" d="M71.42857142857143,42.894893207734455L78.57142857142857,38.47599464319411L85.71428571428571,29.892026745197686L92.85714285714286,29.892026745197686L100,73.21816535070498L107.14285714285714,73.21816535070498L114.28571428571428,73.21816535070498L121.42857142857142,73.21816535070498L128.57142857142858,73.21816535070498L135.71428571428572,39.875319489341265L142.85714285714286,29.109772461463624L150,29.109772461463624L157.14285714285714,44.70281481123208L164.28571428571428,44.70281481123208L171.42857142857142,44.70281481123208" stroke="#4c78a8" stroke-width="2"></path></g></g><path class="foreground" aria-hidden="true" d="" display="none"></path></g></g><g class="mark-group role-scope child_layer_1_layer_0_pathgroup" role="graphics-object" aria-roledescription="group mark container"><g transform="translate(0,0)"><path class="background" aria-hidden="true" d="M0,0h200v200h-200Z"></path><g><g class="mark-area role-mark child_layer_1_layer_0_marks" role="graphics-object" aria-roledescription="area mark container"><path aria-label="lower: 0.35450258019; upper_lower: 0.671809321331; target_time_label: late; switch_break: 1; upper: 0.671809321331" role="graphics-symbol" aria-roledescription="errorband" d="M7.142857142857142,129.0994839620159L14.285714285714285,130.2889171408376L21.428571428571427,129.35406628099065L28.57142857142857,129.66814151760863L35.714285714285715,129.2622182102797L42.857142857142854,129.64110709970308L50,130.05421945521283L57.14285714285714,130.05239271859242L64.28571428571429,129.58198390366067L71.42857142857143,130.06983158621344L78.57142857142857,129.60907452683583L85.71428571428571,129.6696829511747L92.85714285714286,130.32980307700538L100,130.24617547723L107.14285714285714,129.92737283066555L114.28571428571428,130.04267866603016L121.42857142857142,129.81760529494517L128.57142857142858,129.8592277364779L135.71428571428572,129.8256758335198L142.85714285714286,130.38227782957085L150,129.59683499528248L157.14285714285714,129.51104004568492L164.28571428571428,129.82495903176212L171.42857142857142,93.49690624748665L178.57142857142858,93.66686348978273L185.71428571428572,92.64034582325536L192.85714285714286,92.89725025955644L200,92.87434707418663L200,60.855982687820244L192.85714285714286,60.69859109958171L185.71428571428572,60.463931385987514L178.57142857142858,38.48722403586899L171.42857142857142,38.145448199171696L164.28571428571428,65.81995350747816L157.14285714285714,65.42372021208776L150,64.88862663125614L142.85714285714286,63.80689038561809L135.71428571428572,65.19944864077296L128.57142857142858,65.89478839490684L121.42857142857142,65.41480598352973L114.28571428571428,65.13772652596647L107.14285714285714,65.16523907764937L100,65.24641538132418L92.85714285714286,65.42975920260632L85.71428571428571,64.94450934484087L78.57142857142857,65.02076526025111L71.42857142857143,65.06944024616539L64.28571428571429,65.14206454039038L57.14285714285714,64.32773300004055L50,64.74171539956248L42.857142857142854,65.21414121007216L35.714285714285715,66.2283229841537L28.57142857142857,65.50153513884914L21.428571428571427,64.47908495407113L14.285714285714285,65.42264217681881L7.142857142857142,65.63813573378474Z" fill="#f58518" opacity="0.3"></path></g></g><path class="foreground" aria-hidden="true" d="" display="none"></path></g><g transform="translate(0,0)"><path class="background" aria-hidden="true" d="M0,0h200v200h-200Z"></path><g><g class="mark-area role-mark child_layer_1_layer_0_marks" role="graphics-object" aria-roledescription="area mark container"><path aria-label="lower: 0.7386184644; upper_lower: 0.826042323967; target_time_label: early; switch_break: 10; upper: 0.826042323967" role="graphics-symbol" aria-roledescription="errorband" d="M71.42857142857143,52.27630711997215L78.57142857142857,49.499464231640175L85.71428571428571,43.30614634240651L92.85714285714286,43.901834383866166L100,85.69546535771795L107.14285714285714,85.88041693749085L114.28571428571428,86.00760009732423L121.42857142857142,85.81286777960602L128.57142857142858,85.86876512349151L135.71428571428572,50.0743148814047L142.85714285714286,34.16926776874527L150,34.32349252042264L157.14285714285714,44.70281481123208L164.28571428571428,44.70281481123208L171.42857142857142,44.70281481123208L171.42857142857142,44.70281481123208L164.28571428571428,44.70281481123208L157.14285714285714,44.70281481123208L150,24.559161227145143L142.85714285714286,24.521595260555618L135.71428571428572,31.39900364189101L128.57142857142858,61.44556035753177L121.42857142857142,61.64576641682971L114.28571428571428,62.12428442301348L107.14285714285714,61.698474420701885L100,61.344777672124074L92.85714285714286,19.833509110847736L85.71428571428571,20.088912204513655L78.57142857142857,29.43228026546194L71.42857142857143,34.791535206533176Z" fill="#4c78a8" opacity="0.3"></path></g></g><path class="foreground" aria-hidden="true" d="" display="none"></path></g></g></g><path class="foreground" aria-hidden="true" d="" display="none"></path></g></g><g class="mark-group role-legend" role="graphics-symbol" aria-roledescription="legend" aria-label="Symbol legend titled 'target_time_label' for fill color and stroke color with 2 values: early, late"><g transform="translate(221,0)"><path class="background" aria-hidden="true" d="M0,0h106v45h-106Z" pointer-events="none"></path><g><g class="mark-group role-legend-entry"><g transform="translate(0,16)"><path class="background" aria-hidden="true" d="M0,0h0v0h0Z" pointer-events="none"></path><g><g class="mark-group role-scope" role="graphics-object" aria-roledescription="group mark container"><g transform="translate(0,0)"><path class="background" aria-hidden="true" d="M0,0h41v12.5h-41Z" pointer-events="none" opacity="1"></path><g><g class="mark-symbol role-legend-symbol" pointer-events="none"><path transform="translate(6,6)" d="M5,0A5,5,0,1,1,-5,0A5,5,0,1,1,5,0" fill="#4c78a8" stroke="#4c78a8" stroke-width="1.5" opacity="0.3"></path></g><g class="mark-text role-legend-label" pointer-events="none"><text text-anchor="start" transform="translate(16,9)" font-family="sans-serif" font-size="10px" fill="#000" opacity="1">early</text></g></g><path class="foreground" aria-hidden="true" d="" pointer-events="none" display="none"></path></g><g transform="translate(0,16)"><path class="background" aria-hidden="true" d="M0,0h41v12.5h-41Z" pointer-events="none" opacity="1"></path><g><g class="mark-symbol role-legend-symbol" pointer-events="none"><path transform="translate(6,6)" d="M5,0A5,5,0,1,1,-5,0A5,5,0,1,1,5,0" fill="#f58518" stroke="#f58518" stroke-width="1.5" opacity="0.3"></path></g><g class="mark-text role-legend-label" pointer-events="none"><text text-anchor="start" transform="translate(16,9)" font-family="sans-serif" font-size="10px" fill="#000" opacity="1">late</text></g></g><path class="foreground" aria-hidden="true" d="" pointer-events="none" display="none"></path></g></g></g><path class="foreground" aria-hidden="true" d="" pointer-events="none" display="none"></path></g></g><g class="mark-text role-legend-title" pointer-events="none"><text text-anchor="start" transform="translate(0,9)" font-family="sans-serif" font-size="11px" font-weight="bold" fill="#000" opacity="1">target_time_label</text></g></g><path class="foreground" aria-hidden="true" d="" pointer-events="none" display="none"></path></g></g></g><path class="foreground" aria-hidden="true" d="" display="none"></path></g></g></g></svg>
