<?xml version="1.0" encoding="utf-8"?>
<!DOCTYPE svg PUBLIC "-//W3C//DTD SVG 1.1//EN" "http://www.w3.org/Graphics/SVG/1.1/DTD/svg11.dtd">
<svg class="marks" width="252" height="210" viewBox="0 0 252 210" version="1.1" xmlns="http://www.w3.org/2000/svg" xmlns:xlink="http://www.w3.org/1999/xlink"><rect width="252" height="210" fill="white"></rect><g fill="none" stroke-miterlimit="10" transform="translate(55,11)"><g class="mark-group role-frame root" role="graphics-object" aria-roledescription="group mark container"><g transform="translate(0,0)"><path class="background" aria-hidden="true" d="M0.5,0.5h149v162h-149Z" stroke="#ddd"></path><g><g class="mark-group role-axis" aria-hidden="true"><g transform="translate(0.5,162.5)"><path class="background" aria-hidden="true" d="M0,0h0v0h0Z" pointer-events="none"></path><g><g class="mark-rule role-axis-grid" pointer-events="none"><line transform="translate(0,-162)" x2="0" y2="162" stroke="#ddd" stroke-width="1" opacity="1"></line><line transform="translate(50,-162)" x2="0" y2="162" stroke="#ddd" stroke-width="1" opacity="1"></line><line transform="translate(99,-162)" x2="0" y2="162" stroke="#ddd" stroke-width="1" opacity="1"></line><line transform="translate(149,-162)" x2="0" y2="162" stroke="#ddd" stroke-width="1" opacity="1"></line></g></g><path class="foreground" aria-hidden="true" d="" pointer-events="none" display="none"></path></g></g><g class="mark-group role-axis" aria-hidden="true"><g transform="translate(0.5,0.5)"><path class="background" aria-hidden="true" d="M0,0h0v0h0Z" pointer-events="none"></path><g><g class="mark-rule role-axis-grid" pointer-events="none"><line transform="translate(0,162)" x2="149" y2="0" stroke="#ddd" stroke-width="1" opacity="1"></line><line transform="translate(0,130)" x2="149" y2="0" stroke="#ddd" stroke-width="1" opacity="1"></line><line transform="translate(0,97)" x2="149" y2="0" stroke="#ddd" stroke-width="1" opacity="1"></line><line transform="translate(0,65)" x2="149" y2="0" stroke="#ddd" stroke-width="1" opacity="1"></line><line transform="translate(0,32)" x2="149" y2="0" stroke="#ddd" stroke-width="1" opacity="1"></line><line transform="translate(0,0)" x2="149" y2="0" stroke="#ddd" stroke-width="1" opacity="1"></line></g></g><path class="foreground" aria-hidden="true" d="" pointer-events="none" display="none"></path></g></g><g class="mark-group role-axis" role="graphics-symbol" aria-roledescription="axis" aria-label="X-axis titled 'Time relative to target onset (s)' for a linear scale with values from 0.0 to 3.0"><g transform="translate(0.5,162.5)"><path class="background" aria-hidden="true" d="M0,0h0v0h0Z" pointer-events="none"></path><g><g class="mark-rule role-axis-tick" pointer-events="none"><line transform="translate(0,0)" x2="0" y2="5" stroke="#888" stroke-width="1" opacity="1"></line><line transform="translate(50,0)" x2="0" y2="5" stroke="#888" stroke-width="1" opacity="1"></line><line transform="translate(99,0)" x2="0" y2="5" stroke="#888" stroke-width="1" opacity="1"></line><line transform="translate(149,0)" x2="0" y2="5" stroke="#888" stroke-width="1" opacity="1"></line></g><g class="mark-text role-axis-label" pointer-events="none"><text text-anchor="start" transform="translate(0,15)" font-family="sans-serif" font-size="10px" fill="#000" opacity="1">0</text><text text-anchor="middle" transform="translate(49.666666666666664,15)" font-family="sans-serif" font-size="10px" fill="#000" opacity="1">1</text><text text-anchor="middle" transform="translate(99.33333333333333,15)" font-family="sans-serif" font-size="10px" fill="#000" opacity="1">2</text><text text-anchor="end" transform="translate(149,15)" font-family="sans-serif" font-size="10px" fill="#000" opacity="1">3</text></g><g class="mark-rule role-axis-domain" pointer-events="none"><line transform="translate(0,0)" x2="149" y2="0" stroke="#888" stroke-width="1" opacity="1"></line></g><g class="mark-text role-axis-title" pointer-events="none"><text text-anchor="middle" transform="translate(74.5,30)" font-family="sans-serif" font-size="11px" font-weight="bold" fill="#000" opacity="1">Time relative to target onset (s)</text></g></g><path class="foreground" aria-hidden="true" d="" pointer-events="none" display="none"></path></g></g><g class="mark-group role-axis" role="graphics-symbol" aria-roledescription="axis" aria-label="Y-axis titled 'Salience Classification (High/Low) Accuracy (Null Model Corrected)' for a linear scale with values from 0.5 to 1.0"><g transform="translate(0.5,0.5)"><path class="background" aria-hidden="true" d="M0,0h0v0h0Z" pointer-events="none"></path><g><g class="mark-rule role-axis-tick" pointer-events="none"><line transform="translate(0,162)" x2="-5" y2="0" stroke="#888" stroke-width="1" opacity="1"></line><line transform="translate(0,130)" x2="-5" y2="0" stroke="#888" stroke-width="1" opacity="1"></line><line transform="translate(0,97)" x2="-5" y2="0" stroke="#888" stroke-width="1" opacity="1"></line><line transform="translate(0,65)" x2="-5" y2="0" stroke="#888" stroke-width="1" opacity="1"></line><line transform="translate(0,32)" x2="-5" y2="0" stroke="#888" stroke-width="1" opacity="1"></line><line transform="translate(0,0)" x2="-5" y2="0" stroke="#888" stroke-width="1" opacity="1"></line></g><g class="mark-text role-axis-label" pointer-events="none"><text text-anchor="end" transform="translate(-7,165)" font-family="sans-serif" font-size="10px" fill="#000" opacity="1">0.5</text><text text-anchor="end" transform="translate(-7,132.6)" font-family="sans-serif" font-size="10px" fill="#000" opacity="1">0.6</text><text text-anchor="end" transform="translate(-7,100.20000000000002)" font-family="sans-serif" font-size="10px" fill="#000" opacity="1">0.7</text><text text-anchor="end" transform="translate(-7,67.79999999999998)" font-family="sans-serif" font-size="10px" fill="#000" opacity="1">0.8</text><text text-anchor="end" transform="translate(-7,35.39999999999999)" font-family="sans-serif" font-size="10px" fill="#000" opacity="1">0.9</text><text text-anchor="end" transform="translate(-7,3)" font-family="sans-serif" font-size="10px" fill="#000" opacity="1">1.0</text></g><g class="mark-rule role-axis-domain" pointer-events="none"><line transform="translate(0,162)" x2="0" y2="-162" stroke="#888" stroke-width="1" opacity="1"></line></g><g class="mark-text role-axis-title" pointer-events="none"><text text-anchor="middle" transform="translate(-39,81) rotate(-90) translate(0,-2)" font-family="sans-serif" font-size="11px" font-weight="bold" fill="#000" opacity="1"><tspan>Salience Classification (High/Low)</tspan><tspan x="0" dy="13">Accuracy (Null Model Corrected)</tspan></text></g></g><path class="foreground" aria-hidden="true" d="" pointer-events="none" display="none"></path></g></g><g class="mark-group role-scope layer_0_layer_0_pathgroup" role="graphics-object" aria-roledescription="group mark container"><g transform="translate(0,0)"><path class="background" aria-hidden="true" d="M0,0h149v162h-149Z"></path><g><g class="mark-line role-mark layer_0_layer_0_marks" role="graphics-object" aria-roledescription="line mark container"><path aria-label="condition: global; Time relative to target onset (s): 0; Salience Classification (High/Low), Accuracy (Null Model Corrected): 0.602179145075" role="graphics-symbol" aria-roledescription="line mark" d="M0,128.8939569957579L2.365079365079365,132.11755706601673L4.73015873015873,131.98180185330926L7.095238095238095,133.60164674423L9.46031746031746,130.55693512396397L11.825396825396824,131.6566428125888L14.19047619047619,129.49349907675477L16.555555555555554,129.15676887663867L18.92063492063492,127.40105980092908L21.285714285714285,126.57454628445707L23.65079365079365,129.26094508582526L26.01587301587302,124.567902748256L28.38095238095238,127.6343420141506L30.746031746031747,126.02378769269458L33.11111111111111,124.41548299772104L35.47619047619048,126.4556813865624L37.84126984126984,122.90237198150162L40.2063492063492,114.13253570432454L42.57142857142857,114.84401041477783L44.93650793650794,113.71799584257144L47.3015873015873,106.20656423477168L49.666666666666664,103.96941701603095L52.03174603174604,102.42724696314009L54.3968253968254,98.52253812955799L56.76190476190476,91.73609548236453L59.12698412698413,91.24684739740127L61.492063492063494,87.71745882571017L63.85714285714286,91.06498644484485L66.22222222222221,84.45466532126468L68.58730158730158,86.99661444526015L70.95238095238096,85.24930073931851L73.31746031746032,83.40637746376372L75.68253968253968,85.98909497834097L78.04761904761905,86.31629553070665L80.4126984126984,85.10033425142545L82.77777777777779,85.36076984232928L85.14285714285714,85.4911485787551L87.5079365079365,78.44359353217887L89.87301587301587,78.8629657689854L92.23809523809524,77.8359413382873L94.6031746031746,76.89905159571744L96.96825396825398,72.39160578265732L99.33333333333333,66.32382751204987L101.69841269841268,62.67451866488178L104.06349206349208,62.73484918818369L106.42857142857143,60.04197591939078L108.7936507936508,55.56095159591236L111.15873015873017,53.38077425633092L113.52380952380952,49.91448756836522L115.88888888888889,50.85038011649764L118.25396825396825,52.0524964659146L120.6190476190476,52.0524964659146L122.98412698412699,53.71093778176582L125.34920634920636,55.591757225733566L127.71428571428572,55.628361351816814L130.0793650793651,57.169510072005146L132.44444444444443,57.75362146801862L134.80952380952382,55.98336121997082L137.17460317460316,57.033263172487494L139.53968253968253,56.15449600066075L141.90476190476193,53.18572113573129L144.26984126984127,54.18437037222644L146.63492063492063,57.45097111107032L149,56.72940419123466" stroke="#0F3C5F" stroke-width="2" stroke-linecap="round" stroke-dasharray="1,0"></path></g></g><path class="foreground" aria-hidden="true" d="" display="none"></path></g><g transform="translate(0,0)"><path class="background" aria-hidden="true" d="M0,0h149v162h-149Z"></path><g><g class="mark-line role-mark layer_0_layer_0_marks" role="graphics-object" aria-roledescription="line mark container"><path aria-label="condition: object; Time relative to target onset (s): 0; Salience Classification (High/Low), Accuracy (Null Model Corrected): 0.565217245749" role="graphics-symbol" aria-roledescription="line mark" d="M0,140.8696123773971L2.365079365079365,137.67187775645147L4.73015873015873,136.019958876056L7.095238095238095,134.59110292239163L9.46031746031746,130.75972485815876L11.825396825396824,133.62222669829768L14.19047619047619,135.57756944404542L16.555555555555554,134.48292714646348L18.92063492063492,136.26066957979754L21.285714285714285,136.63436027169024L23.65079365079365,134.79144017360494L26.01587301587302,133.0137031859969L28.38095238095238,133.9703064039121L30.746031746031747,137.82353974800677L33.11111111111111,142.5923854438952L35.47619047619048,141.47578888608757L37.84126984126984,147.6074915737157L40.2063492063492,150.02264541122997L42.57142857142857,147.92113434010702L44.93650793650794,143.93166617948998L47.3015873015873,146.0404861195542L49.666666666666664,144.82848984730404L52.03174603174604,146.45637915730254L54.3968253968254,144.3488618950788L56.76190476190476,140.35832587029435L59.12698412698413,143.0103465658188L61.492063492063494,144.26677881624389L63.85714285714286,145.06972805739835L66.22222222222221,143.13243445662295L68.58730158730158,141.48974733168558L70.95238095238096,143.48980115301208L73.31746031746032,144.99433261891215L75.68253968253968,142.3837896708056L78.04761904761905,144.9396236581239L80.4126984126984,144.45865895233737L82.77777777777779,143.20364852542764L85.14285714285714,137.30956835751064L87.5079365079365,137.73563182800422L89.87301587301587,134.1441893354599L92.23809523809524,135.2232303656262L94.6031746031746,137.93667626795542L96.96825396825398,138.60067171727954L99.33333333333333,138.06228503842067L101.69841269841268,137.26262606237287L104.06349206349208,134.73810730436543L106.42857142857143,135.63004337275598L108.7936507936508,134.074423300025L111.15873015873017,127.35940459448452L113.52380952380952,124.85144896073975L115.88888888888889,126.79290019057048L118.25396825396825,126.88831155583327L120.6190476190476,126.68978662021642L122.98412698412699,122.45152702671538L125.34920634920636,120.1792922493833L127.71428571428572,118.07226615987913L130.0793650793651,117.0096337584692L132.44444444444443,114.33667258466929L134.80952380952382,114.8473489649835L137.17460317460316,112.90544937326072L139.53968253968253,112.10573287541384L141.90476190476193,112.81144301273228L144.26984126984127,112.6152750560726L146.63492063492063,112.24469883995855L149,107.89780509161506" stroke="#687B3E" stroke-width="2" stroke-linecap="round" stroke-dasharray="6,4"></path></g></g><path class="foreground" aria-hidden="true" d="" display="none"></path></g><g transform="translate(0,0)"><path class="background" aria-hidden="true" d="M0,0h149v162h-149Z"></path><g><g class="mark-line role-mark layer_0_layer_0_marks" role="graphics-object" aria-roledescription="line mark container"><path aria-label="condition: spatial; Time relative to target onset (s): 0; Salience Classification (High/Low), Accuracy (Null Model Corrected): 0.549018897808" role="graphics-symbol" aria-roledescription="line mark" d="M0,146.11787711019767L2.365079365079365,146.11787711019767L4.73015873015873,149.5249410748064L7.095238095238095,151.7694304636901L9.46031746031746,151.7694304636901L11.825396825396824,151.52874869196688L14.19047619047619,152.0936692137727L16.555555555555554,150.86903473973794L18.92063492063492,148.34038681858684L21.285714285714285,148.34038681858684L23.65079365079365,150.2344857125359L26.01587301587302,148.01815626338035L28.38095238095238,151.61656826280552L30.746031746031747,153.2106288366916L33.11111111111111,155.68908133354316L35.47619047619048,153.50122526702074L37.84126984126984,153.2906273458049L40.2063492063492,152.81352639483777L42.57142857142857,154.20822632883414L44.93650793650794,151.4350449071381L47.3015873015873,150.96441782760627L49.666666666666664,153.73532922541526L52.03174603174604,152.33493605738565L54.3968253968254,152.20444635413747L56.76190476190476,151.1603504229898L59.12698412698413,151.1603504229898L61.492063492063494,152.21657560995706L63.85714285714286,153.16915286083986L66.22222222222221,154.84975477388082L68.58730158730158,153.90205161894104L70.95238095238096,151.32644106994064L73.31746031746032,151.7986742078726L75.68253968253968,152.27414422488044L78.04761904761905,149.02540984060383L80.4126984126984,147.6182897429341L82.77777777777779,144.52777395397493L85.14285714285714,144.99680315447733L87.5079365079365,145.4690362924093L89.87301587301587,141.5027379668789L92.23809523809524,140.91465270101835L94.6031746031746,136.44075076997635L96.96825396825398,137.9598438666868L99.33333333333333,135.0532795871443L101.69841269841268,132.47761796379046L104.06349206349208,132.01227868317304L106.42857142857143,132.44515274047154L108.7936507936508,132.47751064398838L111.15873015873017,133.94675155365974L113.52380952380952,127.99479745109112L115.88888888888889,128.47026746809894L118.25396825396825,128.64278768477786L120.6190476190476,129.02075197638968L122.98412698412699,125.85440426966143L125.34920634920636,122.73825833575312L127.71428571428572,120.7596895263177L130.0793650793651,118.60210023079344L132.44444444444443,118.01429685916892L134.80952380952382,117.88060246528146L137.17460317460316,118.83954809954429L139.53968253968253,118.18210829001403L141.90476190476193,117.89599185246874L144.26984126984127,116.95776242343419L146.63492063492063,115.47421211331476L149,115.52195697315184" stroke="#EB9A60" stroke-width="2" stroke-linecap="round" stroke-dasharray="2,4"></path></g></g><path class="foreground" aria-hidden="true" d="" display="none"></path></g></g><g class="mark-group role-scope layer_0_layer_1_layer_0_pathgroup" role="graphics-object" aria-roledescription="group mark container"><g transform="translate(0,0)"><path class="background" aria-hidden="true" d="M0,0h149v162h-149Z"></path><g><g class="mark-area role-mark layer_0_layer_1_layer_0_marks" role="graphics-object" aria-roledescription="area mark container"><path aria-label="Salience Classification (High/Low), Accuracy (Null Model Corrected): 0.563544589184; upper_meancor: 0.640813700966; condition: global; winstart: 0; Mean of meancor: 0.602179145075; Mean + stderr of meancor: 0.640813700966; Mean - stderr of meancor: 0.563544589184" role="graphics-symbol" aria-roledescription="errorband" d="M0,141.4115531045016L2.365079365079365,144.47555566071267L4.73015873015873,143.47170030637L7.095238095238095,146.4480876704111L9.46031746031746,142.71354200729044L11.825396825396824,144.78286955966178L14.19047619047619,142.22143162409807L16.555555555555554,141.52916062479605L18.92063492063492,139.0893589165653L21.285714285714285,138.71145919490218L23.65079365079365,142.1898206617617L26.01587301587302,136.71475737959324L28.38095238095238,140.76602833915118L30.746031746031747,139.25836699353331L33.11111111111111,138.37921830909383L35.47619047619048,140.9116588631999L37.84126984126984,136.21946395751465L40.2063492063492,128.11530835502492L42.57142857142857,128.78257178825834L44.93650793650794,128.6171873271544L47.3015873015873,120.81425887284146L49.666666666666664,119.13459628053894L52.03174603174604,117.22406672547639L54.3968253968254,112.51524765753443L56.76190476190476,105.43193081917923L59.12698412698413,104.92368918197987L61.492063492063494,101.63486318881772L63.85714285714286,104.50760447784074L66.22222222222221,98.06292148131014L68.58730158730158,100.25751063845144L70.95238095238096,98.9691746345326L73.31746031746032,97.58570374924234L75.68253968253968,100.2072064683097L78.04761904761905,100.60971175969149L80.4126984126984,99.59792692187719L82.77777777777779,99.99470600682443L85.14285714285714,100.28000044648242L87.5079365079365,92.84121912763797L89.87301587301587,93.19297261092895L92.23809523809524,92.38383709296991L94.6031746031746,91.11861352516198L96.96825396825398,85.52048967758753L99.33333333333333,79.15528836809393L101.69841269841268,75.47891981232458L104.06349206349208,75.54358871189267L106.42857142857143,72.44185885429833L108.7936507936508,66.61147257397585L111.15873015873017,64.65644872003969L113.52380952380952,61.32501682859023L115.88888888888889,62.4563630305947L118.25396825396825,63.772608124981694L120.6190476190476,63.772608124981694L122.98412698412699,65.59721381206326L125.34920634920636,67.58264962005319L127.71428571428572,67.5596124471193L130.0793650793651,69.30543453116232L132.44444444444443,70.1209230109983L134.80952380952382,68.0913695218114L137.17460317460316,69.33279217507342L139.53968253968253,68.38008225857914L141.90476190476193,65.30340738278156L144.26984126984127,66.33326328535664L146.63492063492063,69.78806512432453L149,69.05115714892307L149,44.40765123354624L146.63492063492063,45.1138770978161L144.26984126984127,42.03547745909625L141.90476190476193,41.068034888681034L139.53968253968253,43.92890974274237L137.17460317460316,44.73373416990157L134.80952380952382,43.87535291813023L132.44444444444443,45.38631992503895L130.0793650793651,45.03358561284797L127.71428571428572,43.697110256514314L125.34920634920636,43.60086483141395L122.98412698412699,41.82466175146839L120.6190476190476,40.3323848068475L118.25396825396825,40.3323848068475L115.88888888888889,39.24439720240057L113.52380952380952,38.5039583081402L111.15873015873017,42.105099792622156L108.7936507936508,44.510430617848876L106.42857142857143,47.64209298448322L104.06349206349208,49.92610966447471L101.69841269841268,49.870117517438985L99.33333333333333,53.492366656005814L96.96825396825398,59.2627218877271L94.6031746031746,62.6794896662729L92.23809523809524,63.28804558360468L89.87301587301587,64.53295892704185L87.5079365079365,64.04596793671976L85.14285714285714,70.70229671102777L82.77777777777779,70.72683367783412L80.4126984126984,70.60274158097371L78.04761904761905,72.02287930172182L75.68253968253968,71.77098348837224L73.31746031746032,69.2270511782851L70.95238095238096,71.52942684410442L68.58730158730158,73.73571825206888L66.22222222222221,70.84640916121924L63.85714285714286,77.62236841184897L61.492063492063494,73.80005446260263L59.12698412698413,77.57000561282267L56.76190476190476,78.04026014554984L54.3968253968254,84.52982860158153L52.03174603174604,87.63042720080378L49.666666666666664,88.80423775152296L47.3015873015873,91.59886959670189L44.93650793650794,98.8188043579885L42.57142857142857,100.90544904129735L40.2063492063492,100.14976305362416L37.84126984126984,109.5852800054886L35.47619047619048,111.99970390992489L33.11111111111111,110.45174768634826L30.746031746031747,112.78920839185585L28.38095238095238,114.50265568915003L26.01587301587302,112.42104811691878L23.65079365079365,116.3320695098888L21.285714285714285,114.43763337401197L18.92063492063492,115.71276068529286L16.555555555555554,116.78437712848128L14.19047619047619,116.76556652941147L11.825396825396824,118.53041606551587L9.46031746031746,118.40032824063749L7.095238095238095,120.75520581804895L4.73015873015873,120.4919034002485L2.365079365079365,119.75955847132077L0,116.3763608870142Z" fill="#0F3C5F" opacity="0.3"></path></g></g><path class="foreground" aria-hidden="true" d="" display="none"></path></g><g transform="translate(0,0)"><path class="background" aria-hidden="true" d="M0,0h149v162h-149Z"></path><g><g class="mark-area role-mark layer_0_layer_1_layer_0_marks" role="graphics-object" aria-roledescription="area mark container"><path aria-label="Salience Classification (High/Low), Accuracy (Null Model Corrected): 0.533969387615; upper_meancor: 0.596465103882; condition: object; winstart: 0; Mean of meancor: 0.565217245749; Mean + stderr of meancor: 0.596465103882; Mean - stderr of meancor: 0.533969387615" role="graphics-symbol" aria-roledescription="errorband" d="M0,150.99391841263218L2.365079365079365,148.33584593425155L4.73015873015873,146.25395693741297L7.095238095238095,144.4658698815476L9.46031746031746,140.74526816453815L11.825396825396824,143.5380892665404L14.19047619047619,144.9379286119472L16.555555555555554,144.23942234859626L18.92063492063492,146.11330430829423L21.285714285714285,146.6421726072751L23.65079365079365,145.79335694420587L26.01587301587302,142.89990222175368L28.38095238095238,141.8897368321772L30.746031746031747,145.40449833419768L33.11111111111111,151.49453408449745L35.47619047619048,150.34700101501537L37.84126984126984,154.08604661084397L40.2063492063492,157.84492059507625L42.57142857142857,154.69378836635568L44.93650793650794,149.58254365912623L47.3015873015873,151.14574443393846L49.666666666666664,150.96981199674306L52.03174603174604,153.52697645071154L54.3968253968254,150.5981575344642L56.76190476190476,147.07217507514747L59.12698412698413,150.838020443148L61.492063492063494,152.86594959853048L63.85714285714286,154.04785394095683L66.22222222222221,151.05718106878055L68.58730158730158,149.57989138367083L70.95238095238096,151.53897240966413L73.31746031746032,153.62933101383481L75.68253968253968,151.45338781905915L78.04761904761905,154.06220229913978L80.4126984126984,154.24592515699513L82.77777777777779,152.80752409235552L85.14285714285714,148.11598243975882L87.5079365079365,148.5151354257228L89.87301587301587,145.15948913598328L92.23809523809524,146.3981427195035L94.6031746031746,150.7904348075143L96.96825396825398,151.9424077572921L99.33333333333333,151.50956089345718L101.69841269841268,151.05793101740906L104.06349206349208,148.52171232575606L106.42857142857143,149.29382450141912L108.7936507936508,147.53647383800902L111.15873015873017,142.13316540008591L113.52380952380952,139.1158861333902L115.88888888888889,141.29118941685755L118.25396825396825,140.808050267975L120.6190476190476,141.02239159326922L122.98412698412699,136.9800408750637L125.34920634920636,134.88974414042897L127.71428571428572,132.68765272435212L130.0793650793651,131.63226296180764L132.44444444444443,128.89621238002044L134.80952380952382,130.0662193322348L137.17460317460316,128.36246972981152L139.53968253968253,127.28058468014012L141.90476190476193,127.7396987429602L144.26984126984127,127.5104859977743L146.63492063492063,127.38589109791376L149,123.37180646929295L149,92.42380371393716L146.63492063492063,97.10350658200335L144.26984126984127,97.72006411437091L141.90476190476193,97.88318728250437L139.53968253968253,96.93088107068755L137.17460317460316,97.44842901670994L134.80952380952382,99.62847859773217L132.44444444444443,99.77713278931813L130.0793650793651,102.38700455513077L127.71428571428572,103.45687959540615L125.34920634920636,105.46884035833763L122.98412698412699,107.92301317836704L120.6190476190476,112.35718164716363L118.25396825396825,112.96857284369153L115.88888888888889,112.29461096428341L113.52380952380952,110.5870117880893L111.15873015873017,112.58564378888313L108.7936507936508,120.61237276204096L106.42857142857143,121.96626224409285L104.06349206349208,120.95450228297479L101.69841269841268,123.46732110733669L99.33333333333333,124.61500918338419L96.96825396825398,125.258935677267L94.6031746031746,125.08291772839655L92.23809523809524,124.04831801174886L89.87301587301587,123.12888953493653L87.5079365079365,126.95612823028563L85.14285714285714,126.50315427526245L82.77777777777779,133.59977295849976L80.4126984126984,134.67139274767962L78.04761904761905,135.81704501710803L75.68253968253968,133.31419152255205L73.31746031746032,136.3593342239895L70.95238095238096,135.44062989636004L68.58730158730158,133.39960327970036L66.22222222222221,135.20768784446534L63.85714285714286,136.09160217383987L61.492063492063494,135.66760803395726L59.12698412698413,135.18267268848962L56.76190476190476,133.64447666544123L54.3968253968254,138.0995662556934L52.03174603174604,139.38578186389353L49.666666666666664,138.68716769786502L47.3015873015873,140.93522780516992L44.93650793650794,138.28078869985376L42.57142857142857,141.14848031385836L40.2063492063492,142.2003702273837L37.84126984126984,141.12893653658745L35.47619047619048,132.60457675715978L33.11111111111111,133.69023680329298L30.746031746031747,130.24258116181585L28.38095238095238,126.05087597564703L26.01587301587302,123.12750415024007L23.65079365079365,123.78952340300398L21.285714285714285,126.6265479361054L18.92063492063492,126.40803485130083L16.555555555555554,124.72643194433073L14.19047619047619,126.21721027614362L11.825396825396824,123.70636413005494L9.46031746031746,120.77418155177936L7.095238095238095,124.71633596323562L4.73015873015873,125.78596081469904L2.365079365079365,127.00790957865141L0,130.745306342162Z" fill="#687B3E" opacity="0.3"></path></g></g><path class="foreground" aria-hidden="true" d="" display="none"></path></g><g transform="translate(0,0)"><path class="background" aria-hidden="true" d="M0,0h149v162h-149Z"></path><g><g class="mark-area role-mark layer_0_layer_1_layer_0_marks" role="graphics-object" aria-roledescription="area mark container"><path aria-label="Salience Classification (High/Low), Accuracy (Null Model Corrected): 0.506612589937; upper_meancor: 0.591425205679; condition: spatial; winstart: 0; Mean of meancor: 0.549018897808; Mean + stderr of meancor: 0.591425205679; Mean - stderr of meancor: 0.506612589937" role="graphics-symbol" aria-roledescription="errorband" d="M0,159.85752086025065L2.365079365079365,159.85752086025065L4.73015873015873,162.5339843574324L7.095238095238095,164.94651980986268L9.46031746031746,164.94651980986268L11.825396825396824,164.52263580821085L14.19047619047619,165.09659826067337L16.555555555555554,163.9042299669033L18.92063492063492,161.39063139630483L21.285714285714285,161.39063139630483L23.65079365079365,163.13832845464407L26.01587301587302,161.23814678628227L28.38095238095238,164.70820970466949L30.746031746031747,166.1726207117687L33.11111111111111,168.5038158466803L35.47619047619048,166.72348131780274L37.84126984126984,165.8919896571246L40.2063492063492,165.5083640146621L42.57142857142857,166.21944895905565L44.93650793650794,164.85901789037064L47.3015873015873,164.50659459015785L49.666666666666664,166.71329307134772L52.03174603174604,165.86115343890475L54.3968253968254,165.57723189185694L56.76190476190476,164.98977107337492L59.12698412698413,164.98977107337492L61.492063492063494,165.76904187606527L63.85714285714286,166.53865262454113L66.22222222222221,167.41401980609834L68.58730158730158,166.69286011389786L70.95238095238096,164.9997871089354L73.31746031746032,165.36257555352552L75.68253968253968,165.7436883582091L78.04761904761905,161.342308855522L80.4126984126984,160.32909675368361L82.77777777777779,156.3046562974887L85.14285714285714,156.6394354212891L87.5079365079365,156.99421883277654L89.87301587301587,152.15112500670446L92.23809523809524,150.52428341315013L94.6031746031746,145.15788971723282L96.96825396825398,146.81377237379667L99.33333333333333,143.76960478009897L101.69841269841268,141.4880891661291L104.06349206349208,140.99038503538458L106.42857142857143,141.5568021092853L108.7936507936508,141.73791907645546L111.15873015873017,143.9064590970644L113.52380952380952,137.8006968446514L115.88888888888889,138.19595710206224L118.25396825396825,138.3217913923998L120.6190476190476,138.6185594986099L122.98412698412699,135.76834520134153L125.34920634920636,133.12329922307384L127.71428571428572,131.31107604507926L130.0793650793651,129.7871842256105L132.44444444444443,129.13610517705413L134.80952380952382,129.33709360886212L137.17460317460316,130.4754613418275L139.53968253968253,129.99790732224983L141.90476190476193,130.15645891021407L144.26984126984127,129.22183751025196L146.63492063492063,127.8187617675519L149,128.0150934890563L149,103.02882045724738L146.63492063492063,103.12966245907762L144.26984126984127,104.6936873366164L141.90476190476193,105.63552479472341L139.53968253968253,106.3663092577782L137.17460317460316,107.20363485726106L134.80952380952382,106.4241113217008L132.44444444444443,106.89248854128371L130.0793650793651,107.41701623597639L127.71428571428572,110.20830300755613L125.34920634920636,112.35321744843239L122.98412698412699,115.94046333798134L120.6190476190476,119.42294445416945L118.25396825396825,118.96378397715591L115.88888888888889,118.74457783413565L113.52380952380952,118.1888980575308L111.15873015873017,123.98704401025505L108.7936507936508,123.2171022115213L106.42857142857143,123.3335033716578L104.06349206349208,123.0341723309615L101.69841269841268,123.46714676145179L99.33333333333333,126.3369543941896L96.96825396825398,129.10591535957695L94.6031746031746,127.72361182271992L92.23809523809524,131.30502198888655L89.87301587301587,130.85435092705333L87.5079365079365,133.9438537520421L85.14285714285714,133.35417088766553L82.77777777777779,132.75089161046117L80.4126984126984,134.9074827321846L78.04761904761905,136.70851082568566L75.68253968253968,138.80460009155178L73.31746031746032,138.23477286221973L70.95238095238096,137.65309503094585L68.58730158730158,141.1112431239842L66.22222222222221,142.2854897416633L63.85714285714286,139.7996530971386L61.492063492063494,138.66410934384888L59.12698412698413,137.3309297726047L56.76190476190476,137.3309297726047L54.3968253968254,138.831660816418L52.03174603174604,138.80871867586652L49.666666666666664,140.7573653794828L47.3015873015873,137.4222410650547L44.93650793650794,138.01107192390552L42.57142857142857,142.19700369861266L40.2063492063492,140.1186887750134L37.84126984126984,140.68926503448515L35.47619047619048,140.27896921623872L33.11111111111111,142.87434682040595L30.746031746031747,140.2486369616145L28.38095238095238,138.5249268209415L26.01587301587302,134.79816574047845L23.65079365079365,137.33064297042776L21.285714285714285,135.29014224086885L18.92063492063492,135.29014224086885L16.555555555555554,137.8338395125726L14.19047619047619,139.09074016687197L11.825396825396824,138.53486157572289L9.46031746031746,138.59234111751758L7.095238095238095,138.59234111751758L4.73015873015873,136.51589779218045L2.365079365079365,132.37823336014466L0,132.37823336014466Z" fill="#EB9A60" opacity="0.3"></path></g></g><path class="foreground" aria-hidden="true" d="" display="none"></path></g></g><g class="mark-text role-mark layer_0_layer_2_marks" role="graphics-object" aria-roledescription="text mark container"><text aria-label="condition: global; Mean of meancor: 0.823795717126; condition_label: Global" role="graphics-symbol" aria-roledescription="text mark" text-anchor="start" transform="translate(154,60.09018765115248)" font-family="sans-serif" font-size="11px" fill="#0F3C5F">Global</text><text aria-label="condition: object; Mean of meancor: 0.660273913686; condition_label: Object" role="graphics-symbol" aria-roledescription="text mark" text-anchor="start" transform="translate(154,113.07125196578684)" font-family="sans-serif" font-size="11px" fill="#687B3E">Object</text><text aria-label="condition: spatial; Mean of meancor: 0.616369347831; condition_label: Spatial" role="graphics-symbol" aria-roledescription="text mark" text-anchor="start" transform="translate(154,127.29633130270727)" font-family="sans-serif" font-size="11px" fill="#EB9A60">Spatial</text></g><g class="mark-rule role-mark layer_0_layer_3_layer_0_marks" role="graphics-symbol" aria-roledescription="rule mark container"><line transform="translate(139.06666666666666,0)" x2="0" y2="162" stroke="black" stroke-dasharray="2,2"></line></g><g class="mark-text role-mark layer_0_layer_3_layer_1_marks" role="graphics-object" aria-roledescription="text mark container"><text text-anchor="end" transform="translate(137.06666666666666,9.480000000000006)" font-family="sans-serif" font-size="11px" fill="black"><tspan>panel C</tspan><tspan x="0" dy="13">time slice</tspan></text></g><g class="mark-rect role-mark layer_0_layer_4_layer_0_marks" role="graphics-symbol" aria-roledescription="rect mark container"><path d="M124.16666666666667,136.60979663706647h24.83333333333333v25.390203362933534h-24.83333333333333Z" fill="white" opacity="1"></path></g><g class="mark-text role-mark layer_0_layer_4_layer_1_marks" role="graphics-object" aria-roledescription="text mark container"><text text-anchor="middle" transform="translate(149,148.60979663706647)" font-family="sans-serif" font-size="11px" fill="black"><tspan>Null Model</tspan><tspan x="0" dy="13">Accuracy</tspan></text></g><g class="mark-rule role-mark layer_0_layer_5_layer_0_marks" role="graphics-symbol" aria-roledescription="rule mark container"><line transform="translate(149,136.60979663706647)" x2="-149" y2="0" stroke="black" stroke-width="2" stroke-dasharray="4,4"></line></g><g class="mark-line role-mark layer_0_layer_6_layer_0_marks" role="graphics-object" aria-roledescription="line mark container"><path aria-label="x: 0.05; y: 0.8" role="graphics-symbol" aria-roledescription="line mark" d="M2.4833333333333334,64.79999999999998L47.18333333333333,64.79999999999998" stroke="black" stroke-width="1.5"></path></g><g class="mark-symbol role-mark layer_0_layer_6_layer_1_marks" role="graphics-object" aria-roledescription="symbol mark container"><path aria-label="x: 0.05; y: 0.8; dir: 270" role="graphics-symbol" aria-roledescription="point" transform="translate(2.4833333333333334,64.79999999999998) rotate(270)" d="M0,-1.8257418583505536L-1.5811388300841898,0.9128709291752769L1.5811388300841898,0.9128709291752769Z" stroke="black" stroke-width="2" opacity="1"></path><path aria-label="x: 0.95; y: 0.8; dir: 90" role="graphics-symbol" aria-roledescription="point" transform="translate(47.18333333333333,64.79999999999998) rotate(90)" d="M0,-1.8257418583505536L-1.5811388300841898,0.9128709291752769L1.5811388300841898,0.9128709291752769Z" stroke="black" stroke-width="2" opacity="1"></path></g><g class="mark-text role-mark layer_0_layer_7_layer_0_marks" role="graphics-object" aria-roledescription="text mark container"><text text-anchor="start" transform="translate(0,59.79999999999998)" font-family="sans-serif" font-size="11px" fill="black">Target Length</text></g></g><path class="foreground" aria-hidden="true" d="" display="none"></path></g></g></g></svg>
