<?xml version="1.0" encoding="utf-8"?>
<!DOCTYPE svg PUBLIC "-//W3C//DTD SVG 1.1//EN" "http://www.w3.org/Graphics/SVG/1.1/DTD/svg11.dtd">
<svg class="marks" width="252" height="180" viewBox="0 0 252 180" version="1.1" xmlns="http://www.w3.org/2000/svg" xmlns:xlink="http://www.w3.org/1999/xlink"><rect width="252" height="180" fill="white"></rect><g fill="none" stroke-miterlimit="10" transform="translate(55,10)"><g class="mark-group role-frame root" role="graphics-object" aria-roledescription="group mark container"><g transform="translate(0,0)"><path class="background" aria-hidden="true" d="M0.5,0.5h137v133h-137Z" stroke="#ddd"></path><g><g class="mark-group role-axis" aria-hidden="true"><g transform="translate(0.5,133.5)"><path class="background" aria-hidden="true" d="M0,0h0v0h0Z" pointer-events="none"></path><g><g class="mark-rule role-axis-grid" pointer-events="none"><line transform="translate(0,-133)" x2="0" y2="133" stroke="#ddd" stroke-width="1" opacity="1"></line><line transform="translate(46,-133)" x2="0" y2="133" stroke="#ddd" stroke-width="1" opacity="1"></line><line transform="translate(91,-133)" x2="0" y2="133" stroke="#ddd" stroke-width="1" opacity="1"></line><line transform="translate(137,-133)" x2="0" y2="133" stroke="#ddd" stroke-width="1" opacity="1"></line></g></g><path class="foreground" aria-hidden="true" d="" pointer-events="none" display="none"></path></g></g><g class="mark-group role-axis" aria-hidden="true"><g transform="translate(0.5,0.5)"><path class="background" aria-hidden="true" d="M0,0h0v0h0Z" pointer-events="none"></path><g><g class="mark-rule role-axis-grid" pointer-events="none"><line transform="translate(0,133)" x2="137" y2="0" stroke="#ddd" stroke-width="1" opacity="1"></line><line transform="translate(0,106)" x2="137" y2="0" stroke="#ddd" stroke-width="1" opacity="1"></line><line transform="translate(0,80)" x2="137" y2="0" stroke="#ddd" stroke-width="1" opacity="1"></line><line transform="translate(0,53)" x2="137" y2="0" stroke="#ddd" stroke-width="1" opacity="1"></line><line transform="translate(0,27)" x2="137" y2="0" stroke="#ddd" stroke-width="1" opacity="1"></line><line transform="translate(0,0)" x2="137" y2="0" stroke="#ddd" stroke-width="1" opacity="1"></line></g></g><path class="foreground" aria-hidden="true" d="" pointer-events="none" display="none"></path></g></g><g class="mark-group role-axis" role="graphics-symbol" aria-roledescription="axis" aria-label="X-axis titled 'Time relative to target onset (s)' for a linear scale with values from 0.0 to 3.0"><g transform="translate(0.5,133.5)"><path class="background" aria-hidden="true" d="M0,0h0v0h0Z" pointer-events="none"></path><g><g class="mark-rule role-axis-tick" pointer-events="none"><line transform="translate(0,0)" x2="0" y2="5" stroke="#888" stroke-width="1" opacity="1"></line><line transform="translate(46,0)" x2="0" y2="5" stroke="#888" stroke-width="1" opacity="1"></line><line transform="translate(91,0)" x2="0" y2="5" stroke="#888" stroke-width="1" opacity="1"></line><line transform="translate(137,0)" x2="0" y2="5" stroke="#888" stroke-width="1" opacity="1"></line></g><g class="mark-text role-axis-label" pointer-events="none"><text text-anchor="start" transform="translate(0,15)" font-family="Helvetica" font-size="10px" fill="#000" opacity="1">0</text><text text-anchor="middle" transform="translate(45.666666666666664,15)" font-family="Helvetica" font-size="10px" fill="#000" opacity="1">1</text><text text-anchor="middle" transform="translate(91.33333333333333,15)" font-family="Helvetica" font-size="10px" fill="#000" opacity="1">2</text><text text-anchor="end" transform="translate(137,15)" font-family="Helvetica" font-size="10px" fill="#000" opacity="1">3</text></g><g class="mark-rule role-axis-domain" pointer-events="none"><line transform="translate(0,0)" x2="137" y2="0" stroke="#888" stroke-width="1" opacity="1"></line></g><g class="mark-text role-axis-title" pointer-events="none"><text text-anchor="middle" transform="translate(68.5,30)" font-family="Helvetica" font-size="11px" font-weight="bold" fill="#000" opacity="1">Time relative to target onset (s)</text></g></g><path class="foreground" aria-hidden="true" d="" pointer-events="none" display="none"></path></g></g><g class="mark-group role-axis" role="graphics-symbol" aria-roledescription="axis" aria-label="Y-axis titled 'High/Low Salience Classification' for a linear scale with values from 0.5 to 1.0"><g transform="translate(0.5,0.5)"><path class="background" aria-hidden="true" d="M0,0h0v0h0Z" pointer-events="none"></path><g><g class="mark-rule role-axis-tick" pointer-events="none"><line transform="translate(0,133)" x2="-5" y2="0" stroke="#888" stroke-width="1" opacity="1"></line><line transform="translate(0,106)" x2="-5" y2="0" stroke="#888" stroke-width="1" opacity="1"></line><line transform="translate(0,80)" x2="-5" y2="0" stroke="#888" stroke-width="1" opacity="1"></line><line transform="translate(0,53)" x2="-5" y2="0" stroke="#888" stroke-width="1" opacity="1"></line><line transform="translate(0,27)" x2="-5" y2="0" stroke="#888" stroke-width="1" opacity="1"></line><line transform="translate(0,0)" x2="-5" y2="0" stroke="#888" stroke-width="1" opacity="1"></line></g><g class="mark-text role-axis-label" pointer-events="none"><text text-anchor="end" transform="translate(-7,136)" font-family="Helvetica" font-size="10px" fill="#000" opacity="1">0.5</text><text text-anchor="end" transform="translate(-7,109.4)" font-family="Helvetica" font-size="10px" fill="#000" opacity="1">0.6</text><text text-anchor="end" transform="translate(-7,82.80000000000001)" font-family="Helvetica" font-size="10px" fill="#000" opacity="1">0.7</text><text text-anchor="end" transform="translate(-7,56.19999999999999)" font-family="Helvetica" font-size="10px" fill="#000" opacity="1">0.8</text><text text-anchor="end" transform="translate(-7,29.599999999999994)" font-family="Helvetica" font-size="10px" fill="#000" opacity="1">0.9</text><text text-anchor="end" transform="translate(-7,3)" font-family="Helvetica" font-size="10px" fill="#000" opacity="1">1.0</text></g><g class="mark-rule role-axis-domain" pointer-events="none"><line transform="translate(0,133)" x2="0" y2="-133" stroke="#888" stroke-width="1" opacity="1"></line></g><g class="mark-text role-axis-title" pointer-events="none"><text text-anchor="middle" transform="translate(-39,66.5) rotate(-90) translate(0,-2)" font-family="Helvetica" font-size="11px" font-weight="bold" fill="#000" opacity="1"><tspan>High/Low Salience</tspan><tspan x="0" dy="13">Classification</tspan></text></g></g><path class="foreground" aria-hidden="true" d="" pointer-events="none" display="none"></path></g></g><g class="mark-group role-scope layer_0_layer_0_pathgroup" role="graphics-object" aria-roledescription="group mark container"><g transform="translate(0,0)"><path class="background" aria-hidden="true" d="M0,0h137v133h-137Z"></path><g><g class="mark-line role-mark layer_0_layer_0_marks" role="graphics-object" aria-roledescription="line mark container"><path aria-label="condition: global; Time relative to target onset (s): 0; High/Low Salience, Classification: 0.577647755074" role="graphics-symbol" aria-roledescription="line mark" d="M0,112.345697150339L4.419354838709677,109.89942822609888L8.838709677419354,109.6935417012537L13.258064516129034,110.07488430193126L17.677419354838708,111.64194740850323L22.096774193548388,111.32931033825248L26.516129032258068,111.47563560506168L30.93548387096774,109.73516196161084L35.354838709677416,108.82720958951019L39.774193548387096,107.75617964412427L44.193548387096776,106.18595295331507L48.61290322580645,103.87852032963333L53.032258064516135,104.02990559884437L57.45161290322581,103.70591392311458L61.87096774193548,97.76474092727743L66.29032258064517,92.25389719443031L70.70967741935483,90.00249661240417L75.12903225806453,87.44517547227152L79.54838709677419,87.49199191048548L83.96774193548387,86.62685302046374L88.38709677419355,87.9709870799161L92.80645161290322,88.24919963887008L97.2258064516129,85.71634393473964L101.64516129032256,86.41236534053913L106.06451612903227,86.01600013105787L110.48387096774195,86.20530528293833L114.90322580645162,85.1434319865722L119.3225806451613,83.60621214484343L123.74193548387096,83.33416193224677L128.16129032258064,83.06819836835268L132.58064516129033,85.25770710347176L137,85.80349995917412" stroke="#0F3C5F" stroke-width="2" stroke-linecap="round" stroke-dasharray="1,0"></path></g></g><path class="foreground" aria-hidden="true" d="" display="none"></path></g><g transform="translate(0,0)"><path class="background" aria-hidden="true" d="M0,0h137v133h-137Z"></path><g><g class="mark-line role-mark layer_0_layer_0_marks" role="graphics-object" aria-roledescription="line mark container"><path aria-label="condition: object; Time relative to target onset (s): 0; High/Low Salience, Classification: 0.585340665492" role="graphics-symbol" aria-roledescription="line mark" d="M0,110.29938297904013L4.419354838709677,107.28093717660882L8.838709677419354,108.9067693201792L13.258064516129034,109.4730269904531L17.677419354838708,110.49054342701848L22.096774193548388,109.28924575149968L26.516129032258068,108.14764595189936L30.93548387096774,108.95897041282483L35.354838709677416,109.16091548560466L39.774193548387096,109.62997296992432L44.193548387096776,110.44115215570486L48.61290322580645,109.26134007665925L53.032258064516135,108.21924795970187L57.45161290322581,109.69484034298985L61.87096774193548,110.00454100516582L66.29032258064517,109.12421057927523L70.70967741935483,107.98545161105545L75.12903225806453,107.37668300898743L79.54838709677419,108.2308566313049L83.96774193548387,106.39202047023295L88.38709677419355,106.72850855386193L92.80645161290322,103.9722713933106L97.2258064516129,101.30992019356046L101.64516129032256,100.95235850646104L106.06451612903227,98.91449996307679L110.48387096774195,97.33545077957382L114.90322580645162,97.78446701764722L119.3225806451613,94.80118920409936L123.74193548387096,95.89267914099248L128.16129032258064,96.8684769480424L132.58064516129033,93.71253843858075L137,92.74809470356885" stroke="#687B3E" stroke-width="2" stroke-linecap="round" stroke-dasharray="6,4"></path></g></g><path class="foreground" aria-hidden="true" d="" display="none"></path></g><g transform="translate(0,0)"><path class="background" aria-hidden="true" d="M0,0h137v133h-137Z"></path><g><g class="mark-line role-mark layer_0_layer_0_marks" role="graphics-object" aria-roledescription="line mark container"><path aria-label="condition: spatial; Time relative to target onset (s): 0; High/Low Salience, Classification: 0.568987180322" role="graphics-symbol" aria-roledescription="line mark" d="M0,114.64941003439324L4.419354838709677,114.7181795346499L8.838709677419354,114.69511317433447L13.258064516129034,115.15447020838081L17.677419354838708,115.66357166009695L22.096774193548388,115.65890206457173L26.516129032258068,115.62979476919418L30.93548387096774,114.78758787716458L35.354838709677416,114.78758787716458L39.774193548387096,116.09502938140254L44.193548387096776,116.9078326604927L48.61290322580645,117.42171326843048L53.032258064516135,119.31520348709286L57.45161290322581,119.31520348709286L61.87096774193548,119.31520348709286L66.29032258064517,118.63316962687642L70.70967741935483,118.96575061585682L75.12903225806453,118.23743304674528L79.54838709677419,115.97313639981573L83.96774193548387,115.00193235827834L88.38709677419355,116.30571738879615L92.80645161290322,115.97313639981573L97.2258064516129,115.56698693066672L101.64516129032256,114.92836387810964L106.06451612903227,115.11621147621821L110.48387096774195,115.08944114561773L114.90322580645162,114.94615357962041L119.3225806451613,113.76315251663074L123.74193548387096,113.39002842508023L128.16129032258064,111.67621516791814L132.58064516129033,111.33124250764001L137,111.02600926474342" stroke="#EB9A60" stroke-width="2" stroke-linecap="round" stroke-dasharray="2,4"></path></g></g><path class="foreground" aria-hidden="true" d="" display="none"></path></g></g><g class="mark-group role-scope layer_0_layer_1_layer_0_pathgroup" role="graphics-object" aria-roledescription="group mark container"><g transform="translate(0,0)"><path class="background" aria-hidden="true" d="M0,0h137v133h-137Z"></path><g><g class="mark-area role-mark layer_0_layer_1_layer_0_marks" role="graphics-object" aria-roledescription="area mark container"><path aria-label="High/Low Salience, Classification: 0.560705491752; upper_corrected_mean: 0.594590018396; condition: global; winstart: 0; Mean of corrected_mean: 0.577647755074; Mean + stderr of corrected_mean: 0.594590018396; Mean - stderr of corrected_mean: 0.560705491752" role="graphics-symbol" aria-roledescription="errorband" d="M0,116.85233919406672L4.419354838709677,114.49966868679641L8.838709677419354,114.67131851706507L13.258064516129034,115.38724709070281L17.677419354838708,116.77883604636482L22.096774193548388,116.79955283305758L26.516129032258068,116.70133452815543L30.93548387096774,115.11297955729785L35.354838709677416,114.1341339279357L39.774193548387096,113.32053222156263L44.193548387096776,111.69084712649094L48.61290322580645,109.6739174147238L53.032258064516135,110.24746462823585L57.45161290322581,110.38131262692568L61.87096774193548,103.4345090746488L66.29032258064517,98.29333966580467L70.70967741935483,96.39973234887132L75.12903225806453,93.70935578527732L79.54838709677419,93.13606380775569L83.96774193548387,92.4282933682621L88.38709677419355,93.61161400657161L92.80645161290322,93.53772091119805L97.2258064516129,91.17461451576625L101.64516129032256,91.90447772051444L106.06451612903227,91.45479405212255L110.48387096774195,91.43166316269837L114.90322580645162,90.51002375061759L119.3225806451613,89.24395639279908L123.74193548387096,88.94027190748358L128.16129032258064,88.68188593938889L132.58064516129033,90.70758061765424L137,91.27113810019524L137,80.33586181815299L132.58064516129033,79.80783358928929L128.16129032258064,77.45451079731646L123.74193548387096,77.72805195700997L119.3225806451613,77.96846789688777L114.90322580645162,79.7768402225268L110.48387096774195,80.9789474031783L106.06451612903227,80.57720620999318L101.64516129032256,80.92025296056381L97.2258064516129,80.25807335371303L92.80645161290322,82.9606783665421L88.38709677419355,82.33036015326057L83.96774193548387,80.8254126726654L79.54838709677419,81.84792001321527L75.12903225806453,81.1809951592657L70.70967741935483,83.60526087593702L66.29032258064517,86.21445472305595L61.87096774193548,92.09497277990606L57.45161290322581,97.03051521930348L53.032258064516135,97.81234656945288L48.61290322580645,98.08312324454288L44.193548387096776,100.68105878013918L39.774193548387096,102.19182706668592L35.354838709677416,103.52028525108467L30.93548387096774,104.35734436592384L26.516129032258068,106.24993668196794L22.096774193548388,105.85906784344739L17.677419354838708,106.50505877064164L13.258064516129034,104.76252151315971L8.838709677419354,104.71576488544231L4.419354838709677,105.29918776540134L0,107.83905510661128Z" fill="#0F3C5F" opacity="0.3"></path></g></g><path class="foreground" aria-hidden="true" d="" display="none"></path></g><g transform="translate(0,0)"><path class="background" aria-hidden="true" d="M0,0h137v133h-137Z"></path><g><g class="mark-area role-mark layer_0_layer_1_layer_0_marks" role="graphics-object" aria-roledescription="area mark container"><path aria-label="High/Low Salience, Classification: 0.568646918604; upper_corrected_mean: 0.60203441238; condition: object; winstart: 0; Mean of corrected_mean: 0.585340665492; Mean + stderr of corrected_mean: 0.60203441238; Mean - stderr of corrected_mean: 0.568646918604" role="graphics-symbol" aria-roledescription="errorband" d="M0,114.73991965126537L4.419354838709677,111.99281603398752L8.838709677419354,113.53648775120507L13.258064516129034,114.07625285057455L17.677419354838708,115.22689907588169L22.096774193548388,114.05470528725014L26.516129032258068,112.61873840570685L30.93548387096774,113.33450757650347L35.354838709677416,113.58788271685266L39.774193548387096,114.03269955291721L44.193548387096776,114.77949992710991L48.61290322580645,113.90713738828599L53.032258064516135,112.56779589184532L57.45161290322581,114.38169833879964L61.87096774193548,114.76656354862249L66.29032258064517,113.90436551679034L70.70967741935483,112.95192867042003L75.12903225806453,112.14319866138538L79.54838709677419,112.8771179892326L83.96774193548387,111.51684789468923L88.38709677419355,112.13862680783326L92.80645161290322,109.62040567876123L97.2258064516129,106.40147174122193L101.64516129032256,106.03913956055946L106.06451612903227,104.23742469436603L110.48387096774195,102.7637300952023L114.90322580645162,103.49002686288894L119.3225806451613,101.1252945367453L123.74193548387096,101.86297618166475L128.16129032258064,103.46411813113158L132.58064516129033,100.56552033145198L137,99.37463887208762L137,86.12155053505009L132.58064516129033,86.85955654570952L128.16129032258064,90.27283576495321L123.74193548387096,89.92238210032023L119.3225806451613,88.47708387145342L114.90322580645162,92.07890717240548L110.48387096774195,91.90717146394532L106.06451612903227,93.59157523178757L101.64516129032256,95.86557745236261L97.2258064516129,96.21836864589899L92.80645161290322,98.32413710785998L88.38709677419355,101.31839029989061L83.96774193548387,101.26719304577668L79.54838709677419,103.58459527337719L75.12903225806453,102.61016735658949L70.70967741935483,103.01897455169086L66.29032258064517,104.34405564176012L61.87096774193548,105.24251846170917L57.45161290322581,105.00798234718006L53.032258064516135,103.87070002755843L48.61290322580645,104.61554276503252L44.193548387096776,106.10280438429979L39.774193548387096,105.22724638693145L35.354838709677416,104.73394825435666L30.93548387096774,104.58343324914618L26.516129032258068,103.67655349809189L22.096774193548388,104.52378621574923L17.677419354838708,105.75418777815527L13.258064516129034,104.86980113033165L8.838709677419354,104.27705088915332L4.419354838709677,102.56905831923012L0,105.8588463068149Z" fill="#687B3E" opacity="0.3"></path></g></g><path class="foreground" aria-hidden="true" d="" display="none"></path></g><g transform="translate(0,0)"><path class="background" aria-hidden="true" d="M0,0h137v133h-137Z"></path><g><g class="mark-area role-mark layer_0_layer_1_layer_0_marks" role="graphics-object" aria-roledescription="area mark container"><path aria-label="High/Low Salience, Classification: 0.555250801934; upper_corrected_mean: 0.58272355871; condition: spatial; winstart: 0; Mean of corrected_mean: 0.568987180322; Mean + stderr of corrected_mean: 0.58272355871; Mean - stderr of corrected_mean: 0.555250801934" role="graphics-symbol" aria-roledescription="errorband" d="M0,118.30328668564533L4.419354838709677,118.49545457042488L8.838709677419354,118.42764476778405L13.258064516129034,118.76019379037449L17.677419354838708,119.40301409908604L22.096774193548388,119.52849150758416L26.516129032258068,119.58797596465571L30.93548387096774,118.69723202813717L35.354838709677416,118.69723202813717L39.774193548387096,120.15669962576698L44.193548387096776,121.56750676286586L48.61290322580645,122.19856987908454L53.032258064516135,124.89819794824551L57.45161290322581,124.89819794824551L61.87096774193548,124.89819794824551L66.29032258064517,124.47443251234445L70.70967741935483,124.67235754990406L75.12903225806453,124.10413621024425L79.54838709677419,122.32256854940621L83.96774193548387,121.18843324058246L88.38709677419355,122.53451703499937L92.80645161290322,122.32256854940621L97.2258064516129,121.93717027335056L101.64516129032256,121.01294310194086L106.06451612903227,121.45640221136L110.48387096774195,121.46389098874619L114.90322580645162,121.68879859870982L119.3225806451613,120.12543777958754L123.74193548387096,119.83801080405274L128.16129032258064,117.2777018809002L132.58064516129033,116.6852546194366L137,116.58785362488096L137,105.46416490460588L132.58064516129033,105.97723039584342L128.16129032258064,106.07472845493608L123.74193548387096,106.94204604610772L119.3225806451613,107.40086725367394L114.90322580645162,108.20350856053102L110.48387096774195,108.71499130248928L106.06451612903227,108.77602074107642L101.64516129032256,108.84378465427842L97.2258064516129,109.19680358798287L92.80645161290322,109.62370425022526L88.38709677419355,110.07691774259293L83.96774193548387,108.81543147597421L79.54838709677419,109.62370425022526L75.12903225806453,112.37072988324631L70.70967741935483,113.25914368180956L66.29032258064517,112.7919067414084L61.87096774193548,113.73220902594022L57.45161290322581,113.73220902594022L53.032258064516135,113.73220902594022L48.61290322580645,112.64485665777642L44.193548387096776,112.24815855811954L39.774193548387096,112.03335913703812L35.354838709677416,110.877943726192L30.93548387096774,110.877943726192L26.516129032258068,111.67161357373264L22.096774193548388,111.78931262155929L17.677419354838708,111.92412922110786L13.258064516129034,111.54874662638714L8.838709677419354,110.96258158088487L4.419354838709677,110.94090449887493L0,110.99553338314114Z" fill="#EB9A60" opacity="0.3"></path></g></g><path class="foreground" aria-hidden="true" d="" display="none"></path></g></g><g class="mark-text role-mark layer_0_layer_2_marks" role="graphics-object" aria-roledescription="text mark container"><text aria-label="condition: global; Mean of corrected_mean: 0.677430451281; condition_label: Global" role="graphics-symbol" aria-roledescription="text mark" text-anchor="start" transform="translate(142,88.80349995917412)" font-family="Helvetica" font-size="11px" fill="#0F3C5F">Global</text><text aria-label="condition: object; Mean of corrected_mean: 0.647697223915; condition_label: Object" role="graphics-symbol" aria-roledescription="text mark" text-anchor="start" transform="translate(142,96.71253843858075)" font-family="Helvetica" font-size="11px" fill="#687B3E">Object</text><text aria-label="condition: spatial; Mean of corrected_mean: 0.582608987727; condition_label: Spatial" role="graphics-symbol" aria-roledescription="text mark" text-anchor="start" transform="translate(142,114.02600926474342)" font-family="Helvetica" font-size="11px" fill="#EB9A60">Spatial</text></g><g class="mark-rule role-mark layer_0_layer_3_layer_0_marks" role="graphics-object" aria-roledescription="rule mark container"><line aria-label="best: 2.70967741935" role="graphics-symbol" aria-roledescription="rule mark" transform="translate(123.74193548387096,0)" x2="0" y2="133" stroke="black" stroke-dasharray="2,2"></line><line aria-label="best: 2.70967741935" role="graphics-symbol" aria-roledescription="rule mark" transform="translate(123.74193548387096,0)" x2="0" y2="133" stroke="black" stroke-dasharray="2,2"></line><line aria-label="best: 2.8064516129" role="graphics-symbol" aria-roledescription="rule mark" transform="translate(128.16129032258064,0)" x2="0" y2="133" stroke="black" stroke-dasharray="2,2"></line><line aria-label="best: 2.70967741935" role="graphics-symbol" aria-roledescription="rule mark" transform="translate(123.74193548387096,0)" x2="0" y2="133" stroke="black" stroke-dasharray="2,2"></line><line aria-label="best: 2.8064516129" role="graphics-symbol" aria-roledescription="rule mark" transform="translate(128.16129032258064,0)" x2="0" y2="133" stroke="black" stroke-dasharray="2,2"></line><line aria-label="best: 2.70967741935" role="graphics-symbol" aria-roledescription="rule mark" transform="translate(123.74193548387096,0)" x2="0" y2="133" stroke="black" stroke-dasharray="2,2"></line><line aria-label="best: 2.8064516129" role="graphics-symbol" aria-roledescription="rule mark" transform="translate(128.16129032258064,0)" x2="0" y2="133" stroke="black" stroke-dasharray="2,2"></line><line aria-label="best: 2.70967741935" role="graphics-symbol" aria-roledescription="rule mark" transform="translate(123.74193548387096,0)" x2="0" y2="133" stroke="black" stroke-dasharray="2,2"></line><line aria-label="best: 2.70967741935" role="graphics-symbol" aria-roledescription="rule mark" transform="translate(123.74193548387096,0)" x2="0" y2="133" stroke="black" stroke-dasharray="2,2"></line><line aria-label="best: 3" role="graphics-symbol" aria-roledescription="rule mark" transform="translate(137,0)" x2="0" y2="133" stroke="black" stroke-dasharray="2,2"></line></g><g class="mark-text role-mark layer_0_layer_3_layer_1_marks" role="graphics-object" aria-roledescription="text mark container"><text aria-label="best: 2.70967741935; fold_label: fold 1" role="graphics-symbol" aria-roledescription="text mark" text-anchor="middle" transform="translate(123.74193548387096,13.300000000000011) rotate(90) translate(0,-2)" font-family="Helvetica" font-size="11px" fill="#636363">fold 1</text><text aria-label="best: 2.70967741935; fold_label: fold 2" role="graphics-symbol" aria-roledescription="text mark" text-anchor="middle" transform="translate(123.74193548387096,13.300000000000011) rotate(90) translate(0,-2)" font-family="Helvetica" font-size="11px" fill="#636363">fold 2</text><text aria-label="best: 2.8064516129; fold_label: fold 3" role="graphics-symbol" aria-roledescription="text mark" text-anchor="middle" transform="translate(128.16129032258064,13.300000000000011) rotate(90) translate(0,-2)" font-family="Helvetica" font-size="11px" fill="#636363">fold 3</text><text aria-label="best: 2.70967741935; fold_label: fold 4" role="graphics-symbol" aria-roledescription="text mark" text-anchor="middle" transform="translate(123.74193548387096,13.300000000000011) rotate(90) translate(0,-2)" font-family="Helvetica" font-size="11px" fill="#636363">fold 4</text><text aria-label="best: 2.8064516129; fold_label: fold 5" role="graphics-symbol" aria-roledescription="text mark" text-anchor="middle" transform="translate(128.16129032258064,13.300000000000011) rotate(90) translate(0,-2)" font-family="Helvetica" font-size="11px" fill="#636363">fold 5</text><text aria-label="best: 2.70967741935; fold_label: fold 6" role="graphics-symbol" aria-roledescription="text mark" text-anchor="middle" transform="translate(123.74193548387096,13.300000000000011) rotate(90) translate(0,-2)" font-family="Helvetica" font-size="11px" fill="#636363">fold 6</text><text aria-label="best: 2.8064516129; fold_label: fold 7" role="graphics-symbol" aria-roledescription="text mark" text-anchor="middle" transform="translate(128.16129032258064,13.300000000000011) rotate(90) translate(0,-2)" font-family="Helvetica" font-size="11px" fill="#636363">fold 7</text><text aria-label="best: 2.70967741935; fold_label: fold 8" role="graphics-symbol" aria-roledescription="text mark" text-anchor="middle" transform="translate(123.74193548387096,13.300000000000011) rotate(90) translate(0,-2)" font-family="Helvetica" font-size="11px" fill="#636363">fold 8</text><text aria-label="best: 2.70967741935; fold_label: fold 9" role="graphics-symbol" aria-roledescription="text mark" text-anchor="middle" transform="translate(123.74193548387096,13.300000000000011) rotate(90) translate(0,-2)" font-family="Helvetica" font-size="11px" fill="#636363">fold 9</text><text aria-label="best: 3; fold_label: fold 10" role="graphics-symbol" aria-roledescription="text mark" text-anchor="middle" transform="translate(137,13.300000000000011) rotate(90) translate(0,-2)" font-family="Helvetica" font-size="11px" fill="#636363">fold 10</text></g><g class="mark-text role-mark layer_0_layer_4_layer_0_marks" role="graphics-object" aria-roledescription="text mark container"><text text-anchor="end" transform="translate(121.74193548387096,16.30000000000001)" font-family="Helvetica" font-size="11px" fill="black">Panel C slice →</text></g><g class="mark-text role-mark layer_0_layer_5_layer_0_marks" role="graphics-object" aria-roledescription="text mark container"><text text-anchor="start" transform="translate(142,108.24553950633013)" font-family="Helvetica" font-size="11px" fill="black"><tspan>Null Model</tspan><tspan x="0" dy="13">Accuracy</tspan></text></g><g class="mark-rule role-mark layer_0_layer_6_layer_0_marks" role="graphics-symbol" aria-roledescription="rule mark container"><line transform="translate(137,110.24553950633013)" x2="-137" y2="0" stroke="black" stroke-width="2" stroke-dasharray="4,4"></line></g><g class="mark-line role-mark layer_0_layer_7_layer_0_marks" role="graphics-object" aria-roledescription="line mark container"><path aria-label="x: 0.05; y: 0.8" role="graphics-symbol" aria-roledescription="line mark" d="M2.283333333333333,53.19999999999999L43.38333333333333,53.19999999999999" stroke="black" stroke-width="1.5"></path></g><g class="mark-symbol role-mark layer_0_layer_7_layer_1_marks" role="graphics-object" aria-roledescription="symbol mark container"><path aria-label="x: 0.05; y: 0.8; dir: 270" role="graphics-symbol" aria-roledescription="point" transform="translate(2.283333333333333,53.19999999999999) rotate(270)" d="M0,-1.8257418583505536L-1.5811388300841898,0.9128709291752769L1.5811388300841898,0.9128709291752769Z" stroke="black" stroke-width="2" opacity="1"></path><path aria-label="x: 0.95; y: 0.8; dir: 90" role="graphics-symbol" aria-roledescription="point" transform="translate(43.38333333333333,53.19999999999999) rotate(90)" d="M0,-1.8257418583505536L-1.5811388300841898,0.9128709291752769L1.5811388300841898,0.9128709291752769Z" stroke="black" stroke-width="2" opacity="1"></path></g><g class="mark-text role-mark layer_0_layer_8_layer_0_marks" role="graphics-object" aria-roledescription="text mark container"><text text-anchor="start" transform="translate(0,48.19999999999999)" font-family="Helvetica" font-size="11px" fill="black">Target Length</text></g></g><path class="foreground" aria-hidden="true" d="" display="none"></path></g></g></g></svg>
