<?xml version="1.0" encoding="utf-8"?>
<!DOCTYPE svg PUBLIC "-//W3C//DTD SVG 1.1//EN" "http://www.w3.org/Graphics/SVG/1.1/DTD/svg11.dtd">
<svg class="marks" width="245" height="187" viewBox="0 0 245 187" version="1.1" xmlns="http://www.w3.org/2000/svg" xmlns:xlink="http://www.w3.org/1999/xlink"><defs><clipPath id="clip1"><rect x="0" y="0" width="130" height="140"></rect></clipPath><clipPath id="clip2"><rect x="0" y="0" width="130" height="140"></rect></clipPath><clipPath id="clip3"><rect x="0" y="0" width="130" height="140"></rect></clipPath><clipPath id="clip4"><rect x="0" y="0" width="130" height="140"></rect></clipPath><clipPath id="clip5"><rect x="0" y="0" width="130" height="140"></rect></clipPath><clipPath id="clip6"><rect x="0" y="0" width="130" height="140"></rect></clipPath></defs><rect width="245" height="187" fill="white"></rect><g fill="none" stroke-miterlimit="10" transform="translate(55,10)"><g class="mark-group role-frame root" role="graphics-object" aria-roledescription="group mark container"><g transform="translate(0,0)"><path class="background" aria-hidden="true" d="M0.5,0.5h130v140h-130Z" stroke="#ddd"></path><g><g class="mark-group role-axis" aria-hidden="true"><g transform="translate(0.5,140.5)"><path class="background" aria-hidden="true" d="M0,0h0v0h0Z" pointer-events="none"></path><g><g class="mark-rule role-axis-grid" pointer-events="none"><line transform="translate(0,-140)" x2="0" y2="140" stroke="#ddd" stroke-width="1" opacity="1"></line><line transform="translate(33,-140)" x2="0" y2="140" stroke="#ddd" stroke-width="1" opacity="1"></line><line transform="translate(65,-140)" x2="0" y2="140" stroke="#ddd" stroke-width="1" opacity="1"></line><line transform="translate(98,-140)" x2="0" y2="140" stroke="#ddd" stroke-width="1" opacity="1"></line><line transform="translate(130,-140)" x2="0" y2="140" stroke="#ddd" stroke-width="1" opacity="1"></line></g></g><path class="foreground" aria-hidden="true" d="" pointer-events="none" display="none"></path></g></g><g class="mark-group role-axis" aria-hidden="true"><g transform="translate(0.5,0.5)"><path class="background" aria-hidden="true" d="M0,0h0v0h0Z" pointer-events="none"></path><g><g class="mark-rule role-axis-grid" pointer-events="none"><line transform="translate(0,140)" x2="130" y2="0" stroke="#ddd" stroke-width="1" opacity="1"></line><line transform="translate(0,112)" x2="130" y2="0" stroke="#ddd" stroke-width="1" opacity="1"></line><line transform="translate(0,84)" x2="130" y2="0" stroke="#ddd" stroke-width="1" opacity="1"></line><line transform="translate(0,56)" x2="130" y2="0" stroke="#ddd" stroke-width="1" opacity="1"></line><line transform="translate(0,28)" x2="130" y2="0" stroke="#ddd" stroke-width="1" opacity="1"></line><line transform="translate(0,0)" x2="130" y2="0" stroke="#ddd" stroke-width="1" opacity="1"></line></g></g><path class="foreground" aria-hidden="true" d="" pointer-events="none" display="none"></path></g></g><g class="mark-group role-axis" role="graphics-symbol" aria-roledescription="axis" aria-label="X-axis titled 'Time relative to target onset (s)' for a linear scale with values from 0 to 4"><g transform="translate(0.5,140.5)"><path class="background" aria-hidden="true" d="M0,0h0v0h0Z" pointer-events="none"></path><g><g class="mark-rule role-axis-tick" pointer-events="none"><line transform="translate(0,0)" x2="0" y2="5" stroke="#888" stroke-width="1" opacity="1"></line><line transform="translate(33,0)" x2="0" y2="5" stroke="#888" stroke-width="1" opacity="1"></line><line transform="translate(65,0)" x2="0" y2="5" stroke="#888" stroke-width="1" opacity="1"></line><line transform="translate(98,0)" x2="0" y2="5" stroke="#888" stroke-width="1" opacity="1"></line><line transform="translate(130,0)" x2="0" y2="5" stroke="#888" stroke-width="1" opacity="1"></line></g><g class="mark-text role-axis-label" pointer-events="none"><text text-anchor="start" transform="translate(0,15)" font-family="Helvetica" font-size="10px" fill="#000" opacity="1">0</text><text text-anchor="middle" transform="translate(32.5,15)" font-family="Helvetica" font-size="10px" fill="#000" opacity="1">1</text><text text-anchor="middle" transform="translate(65,15)" font-family="Helvetica" font-size="10px" fill="#000" opacity="1">2</text><text text-anchor="middle" transform="translate(97.5,15)" font-family="Helvetica" font-size="10px" fill="#000" opacity="1">3</text><text text-anchor="end" transform="translate(130,15)" font-family="Helvetica" font-size="10px" fill="#000" opacity="1">4</text></g><g class="mark-rule role-axis-domain" pointer-events="none"><line transform="translate(0,0)" x2="130" y2="0" stroke="#888" stroke-width="1" opacity="1"></line></g><g class="mark-text role-axis-title" pointer-events="none"><text text-anchor="middle" transform="translate(65,30)" font-family="Helvetica" font-size="11px" font-weight="bold" fill="#000" opacity="1">Time relative to target onset (s)</text></g></g><path class="foreground" aria-hidden="true" d="" pointer-events="none" display="none"></path></g></g><g class="mark-group role-axis" role="graphics-symbol" aria-roledescription="axis" aria-label="Y-axis titled 'High/Low Salience Classification' for a linear scale with values from 0.5 to 1.0"><g transform="translate(0.5,0.5)"><path class="background" aria-hidden="true" d="M0,0h0v0h0Z" pointer-events="none"></path><g><g class="mark-rule role-axis-tick" pointer-events="none"><line transform="translate(0,140)" x2="-5" y2="0" stroke="#888" stroke-width="1" opacity="1"></line><line transform="translate(0,112)" x2="-5" y2="0" stroke="#888" stroke-width="1" opacity="1"></line><line transform="translate(0,84)" x2="-5" y2="0" stroke="#888" stroke-width="1" opacity="1"></line><line transform="translate(0,56)" x2="-5" y2="0" stroke="#888" stroke-width="1" opacity="1"></line><line transform="translate(0,28)" x2="-5" y2="0" stroke="#888" stroke-width="1" opacity="1"></line><line transform="translate(0,0)" x2="-5" y2="0" stroke="#888" stroke-width="1" opacity="1"></line></g><g class="mark-text role-axis-label" pointer-events="none"><text text-anchor="end" transform="translate(-7,143)" font-family="Helvetica" font-size="10px" fill="#000" opacity="1">0.5</text><text text-anchor="end" transform="translate(-7,115)" font-family="Helvetica" font-size="10px" fill="#000" opacity="1">0.6</text><text text-anchor="end" transform="translate(-7,87.00000000000001)" font-family="Helvetica" font-size="10px" fill="#000" opacity="1">0.7</text><text text-anchor="end" transform="translate(-7,58.999999999999986)" font-family="Helvetica" font-size="10px" fill="#000" opacity="1">0.8</text><text text-anchor="end" transform="translate(-7,30.999999999999993)" font-family="Helvetica" font-size="10px" fill="#000" opacity="1">0.9</text><text text-anchor="end" transform="translate(-7,3)" font-family="Helvetica" font-size="10px" fill="#000" opacity="1">1.0</text></g><g class="mark-rule role-axis-domain" pointer-events="none"><line transform="translate(0,140)" x2="0" y2="-140" stroke="#888" stroke-width="1" opacity="1"></line></g><g class="mark-text role-axis-title" pointer-events="none"><text text-anchor="middle" transform="translate(-39,70) rotate(-90) translate(0,-2)" font-family="Helvetica" font-size="11px" font-weight="bold" fill="#000" opacity="1"><tspan>High/Low Salience</tspan><tspan x="0" dy="13">Classification</tspan></text></g></g><path class="foreground" aria-hidden="true" d="" pointer-events="none" display="none"></path></g></g><g class="mark-group role-scope layer_0_layer_0_pathgroup" role="graphics-object" aria-roledescription="group mark container"><g transform="translate(0,0)"><path class="background" aria-hidden="true" d="M0,0h130v140h-130Z"></path><g><g class="mark-line role-mark layer_0_layer_0_marks" clip-path="url(#clip1)" role="graphics-object" aria-roledescription="line mark container"><path aria-label="condition: global; Time relative to target onset (s): 0; High/Low Salience, Classification: 0.548062899508" role="graphics-symbol" aria-roledescription="line mark" d="M0,126.54238813766749L2.7659574468085104,130.08691793427158L5.531914893617021,133.7510429805956L8.297872340425531,124.24862101611957L11.063829787234042,127.7660925273046L13.829787234042554,115.64851566897487L16.595744680851062,114.90112833009691L19.361702127659573,120.32792668245524L22.127659574468083,115.4740530518874L24.893617021276597,110.48359151820219L27.659574468085108,102.62686827165629L30.425531914893618,103.13208256403912L33.191489361702125,109.08038384071133L35.95744680851064,108.4762311537737L38.723404255319146,92.0726170507017L41.48936170212766,89.75266939740092L44.25531914893617,89.78187197965853L47.02127659574468,92.65566837401607L49.787234042553195,85.28631930482885L52.5531914893617,82.17669506944762L55.319148936170215,69.64835691470076L58.08510638297872,70.57915628625953L60.851063829787236,59.676673752882984L63.61702127659574,47.00026267389161L66.38297872340425,42.64698560284711L69.14893617021276,38.40456691518352L71.91489361702128,41.11299030081399L74.68085106382979,35.20179496676227L77.44680851063829,31.459831912362205L80.2127659574468,23.74450304685279L82.97872340425532,13.642758327421646L85.74468085106382,12.257685090194649L88.51063829787233,11.351482255428426L91.27659574468085,11.441619026911951L94.04255319148936,10.37123490303205L96.80851063829786,11.287048390949952L99.57446808510639,8.11871798296609L102.3404255319149,8.248042641167622L105.1063829787234,10.1683487421966L107.87234042553192,10.391126220033282L110.63829787234043,10.24850305413377L113.40425531914894,9.42033974173432L116.17021276595744,8.339904160872678L118.93617021276596,9.47395325938615L121.70212765957447,8.785522104799256L124.46808510638299,9.062685456990671L127.23404255319149,10.413560097084314L130,7.5528085556392055" stroke="#0F3C5F" stroke-width="2" stroke-linecap="round" stroke-dasharray="1,0"></path></g></g><path class="foreground" aria-hidden="true" d="" display="none"></path></g><g transform="translate(0,0)"><path class="background" aria-hidden="true" d="M0,0h130v140h-130Z"></path><g><g class="mark-line role-mark layer_0_layer_0_marks" clip-path="url(#clip2)" role="graphics-object" aria-roledescription="line mark container"><path aria-label="condition: object; Time relative to target onset (s): 0; High/Low Salience, Classification: 0.656671161179" role="graphics-symbol" aria-roledescription="line mark" d="M0,96.13207486997592L2.7659574468085104,95.35326717167871L5.531914893617021,88.35954657218764L8.297872340425531,102.21160196204112L11.063829787234042,104.39583025360231L13.829787234042554,106.3478940814501L16.595744680851062,102.96105909682157L19.361702127659573,104.43541457845714L22.127659574468083,108.58036362919621L24.893617021276597,108.13565753461091L27.659574468085108,114.58526378969995L30.425531914893618,114.51340106604849L33.191489361702125,106.02209236340858L35.95744680851064,112.7953934060497L38.723404255319146,102.8467970195942L41.48936170212766,98.05860196569577L44.25531914893617,99.99633891168575L47.02127659574468,99.64019711663451L49.787234042553195,105.68955333314055L52.5531914893617,101.73963824416651L55.319148936170215,104.39614060482344L58.08510638297872,103.87015845590972L60.851063829787236,103.16214113440188L63.61702127659574,109.64246151940472L66.38297872340425,108.58621945507392L69.14893617021276,107.63227556812542L71.91489361702128,105.15737172373434L74.68085106382979,97.73255034289645L77.44680851063829,102.39654821336L80.2127659574468,97.95364566025893L82.97872340425532,96.89457097683095L85.74468085106382,94.82114180364312L88.51063829787233,92.6331066792336L91.27659574468085,88.48684001522025L94.04255319148936,94.30564547449131L96.80851063829786,85.58513527982008L99.57446808510639,87.77895467640516L102.3404255319149,86.76939358706143L105.1063829787234,85.09083531743921L107.87234042553192,87.7363080921012L110.63829787234043,79.83465270719782L113.40425531914894,80.93755486362014L116.17021276595744,90.33209336853875L118.93617021276596,90.69026529821318L121.70212765957447,94.89478943204467L124.46808510638299,77.1529793753128L127.23404255319149,81.56873974193698L130,83.73011452001765" stroke="#687B3E" stroke-width="2" stroke-linecap="round" stroke-dasharray="6,4"></path></g></g><path class="foreground" aria-hidden="true" d="" display="none"></path></g><g transform="translate(0,0)"><path class="background" aria-hidden="true" d="M0,0h130v140h-130Z"></path><g><g class="mark-line role-mark layer_0_layer_0_marks" clip-path="url(#clip3)" role="graphics-object" aria-roledescription="line mark container"><path aria-label="condition: spatial; Time relative to target onset (s): 0; High/Low Salience, Classification: 0.509820726404" role="graphics-symbol" aria-roledescription="line mark" d="M0,137.2501966069435L2.7659574468085104,132.91228335229076L5.531914893617021,131.3578210589842L8.297872340425531,129.21634712886936L11.063829787234042,139.19436972799033L13.829787234042554,139.03421779386358L16.595744680851062,139.1676700939665L19.361702127659573,134.53646559183932L22.127659574468083,144.28952788290013L24.893617021276597,130.3130911579172L27.659574468085108,120.7910385731079L30.425531914893618,117.30702084789672L33.191489361702125,113.05785428285961L35.95744680851064,110.93780904328345L38.723404255319146,113.25367212968696L41.48936170212766,118.96414160782452L44.25531914893617,127.73329918410965L47.02127659574468,124.02012696970775L49.787234042553195,111.56263450665972L52.5531914893617,108.81469593560584L55.319148936170215,104.16810199575698L58.08510638297872,113.08588241939673L60.851063829787236,107.06517483358688L63.61702127659574,93.04154306871446L66.38297872340425,114.28997179995517L69.14893617021276,89.22804490361305L71.91489361702128,85.29260881090511L74.68085106382979,89.13675584616942L77.44680851063829,88.90068702050871L80.2127659574468,96.84614894485105L82.97872340425532,101.19766828847784L85.74468085106382,97.28063012834976L88.51063829787233,63.11794117748496L91.27659574468085,64.13841766236217L94.04255319148936,59.72170850439705L96.80851063829786,54.919943058980586L99.57446808510639,59.8365400976261L102.3404255319149,56.911012134106066L105.1063829787234,61.68268767408378L107.87234042553192,61.358872724144604L110.63829787234043,73.46282525284956L113.40425531914894,75.51808456644933L116.17021276595744,80.75805427411773L118.93617021276596,71.34164050705297L121.70212765957447,75.28303035869608L124.46808510638299,81.12034264132365L127.23404255319149,82.54980418065004L130,86.45444031839833" stroke="#EB9A60" stroke-width="2" stroke-linecap="round" stroke-dasharray="2,4"></path></g></g><path class="foreground" aria-hidden="true" d="" display="none"></path></g></g><g class="mark-group role-scope layer_0_layer_1_layer_0_pathgroup" role="graphics-object" aria-roledescription="group mark container"><g transform="translate(0,0)"><path class="background" aria-hidden="true" d="M0,0h130v140h-130Z"></path><g><g class="mark-area role-mark layer_0_layer_1_layer_0_marks" clip-path="url(#clip4)" role="graphics-object" aria-roledescription="area mark container"><path aria-label="High/Low Salience, Classification: 0.508712867392; upper_lower: 0.590026072712; condition: global; winstart: 0; upper: 0.590026072712; lower: 0.508712867392" role="graphics-symbol" aria-roledescription="errorband" d="M0,137.56039713024597L2.7659574468085104,141.09244958432058L5.531914893617021,145.17682881186724L8.297872340425531,134.404179178562L11.063829787234042,139.81219820506678L13.829787234042554,127.30080870106433L16.595744680851062,126.78346068227324L19.361702127659573,131.41236747184547L22.127659574468083,126.43689942051516L24.893617021276597,123.04757105973138L27.659574468085108,114.80823562945271L30.425531914893618,113.00785438998025L33.191489361702125,119.69810583752795L35.95744680851064,121.40232417300786L38.723404255319146,105.4458313362228L41.48936170212766,102.44166571973436L44.25531914893617,102.2200582827277L47.02127659574468,107.59557035876327L49.787234042553195,99.82291253427331L52.5531914893617,96.94214472051786L55.319148936170215,83.50299216486984L58.08510638297872,85.5374068361149L60.851063829787236,72.99700099682101L63.61702127659574,60.2179757613589L66.38297872340425,56.11895934012878L69.14893617021276,51.625767803250795L71.91489361702128,53.870908089589705L74.68085106382979,47.099364050717526L77.44680851063829,42.706617602703126L80.2127659574468,33.252739776260015L82.97872340425532,21.656168968414526L85.74468085106382,20.41743241656832L88.51063829787233,19.537227201045194L91.27659574468085,19.17253829620845L94.04255319148936,17.97728195286819L96.80851063829786,19.337085874803904L99.57446808510639,15.156276208447949L102.3404255319149,15.135582040457942L105.1063829787234,17.980967541959238L107.87234042553192,17.92327003916825L110.63829787234043,18.097782798879397L113.40425531914894,16.785329623605026L116.17021276595744,15.601994746139468L118.93617021276596,16.821544377406553L121.70212765957447,15.882149445569276L124.46808510638299,15.314749352411487L127.23404255319149,16.990731448579975L130,11.411301104124739L130,3.3854820753851733L127.23404255319149,3.7612817247121235L124.46808510638299,2.6216899687430537L121.70212765957447,1.4316595225395279L118.93617021276596,2.056638036363081L116.17021276595744,1.0312713732387735L113.40425531914894,1.7190598338629126L110.63829787234043,2.0080898379442154L107.87234042553192,2.1872032751453077L105.1063829787234,2.1509191252857462L102.3404255319149,1.2418815666748717L99.57446808510639,1.032413936710256L96.80851063829786,2.4801348876696636L94.04255319148936,2.4888451963749745L91.27659574468085,3.262669992536832L88.51063829787233,2.5346590900123545L85.74468085106382,3.2446231488604127L82.97872340425532,5.002659327323677L80.2127659574468,13.577002338263298L77.44680851063829,20.02887766688332L74.68085106382979,23.37211577078028L71.91489361702128,28.050823762380233L69.14893617021276,24.798744049681037L66.38297872340425,28.787083861231775L63.61702127659574,33.370843591129436L60.851063829787236,45.981040937136775L58.08510638297872,55.53153339315156L55.319148936170215,56.22244840261527L52.5531914893617,67.16721193130226L49.787234042553195,70.98205513048856L47.02127659574468,77.63984038977023L44.25531914893617,77.68905990498818L41.48936170212766,76.94432688390953L38.723404255319146,79.01651461935391L35.95744680851064,95.8231250070494L33.191489361702125,98.81167553366724L30.425531914893618,93.34592535233008L27.659574468085108,90.71426999588371L24.893617021276597,97.90694158882339L22.127659574468083,104.20270787458789L19.361702127659573,108.95893724664262L16.595744680851062,103.25141491794597L13.829787234042554,104.4617635067727L11.063829787234042,115.37581249150544L8.297872340425531,114.1095939437567L5.531914893617021,122.39825304673472L2.7659574468085104,118.76609346991896L0,114.79269964071374Z" fill="#0F3C5F" opacity="0.3"></path></g></g><path class="foreground" aria-hidden="true" d="" display="none"></path></g><g transform="translate(0,0)"><path class="background" aria-hidden="true" d="M0,0h130v140h-130Z"></path><g><g class="mark-area role-mark layer_0_layer_1_layer_0_marks" clip-path="url(#clip5)" role="graphics-object" aria-roledescription="area mark container"><path aria-label="High/Low Salience, Classification: 0.607504874483; upper_lower: 0.706547599226; condition: object; winstart: 0; upper: 0.706547599226; lower: 0.607504874483" role="graphics-symbol" aria-roledescription="errorband" d="M0,109.89863514486416L2.7659574468085104,108.28382283563317L5.531914893617021,102.18207039801702L8.297872340425531,115.56210549186986L11.063829787234042,117.48856439140906L13.829787234042554,118.31590849654816L16.595744680851062,115.54065116275683L19.361702127659573,118.36716644771113L22.127659574468083,121.94133019558517L24.893617021276597,120.38914679664632L27.659574468085108,125.33169674340638L30.425531914893618,126.84234921689666L33.191489361702125,118.95642859622868L35.95744680851064,125.20510610462273L38.723404255319146,116.33850809730919L41.48936170212766,110.80090032084811L44.25531914893617,112.32916280743177L47.02127659574468,113.12079802762493L49.787234042553195,118.51343193186104L52.5531914893617,114.348175737677L55.319148936170215,117.36790470808846L58.08510638297872,116.91456529898916L60.851063829787236,115.83328555144952L63.61702127659574,123.5099361212691L66.38297872340425,123.23706157499255L69.14893617021276,122.70367973092223L71.91489361702128,120.09966595782001L74.68085106382979,112.74059331040812L77.44680851063829,116.41738936059346L80.2127659574468,113.42392262610817L82.97872340425532,111.43451783988316L85.74468085106382,109.39416849937561L88.51063829787233,107.31127803789266L91.27659574468085,103.7440957913086L94.04255319148936,109.71134755156494L96.80851063829786,100.79981112687723L99.57446808510639,102.49403536950537L102.3404255319149,101.98392779612976L105.1063829787234,99.92896432523835L107.87234042553192,102.30708021023553L110.63829787234043,95.31968165835647L113.40425531914894,96.40603822459562L116.17021276595744,106.92754571056076L118.93617021276596,106.37370801309434L121.70212765957447,111.04812487475016L124.46808510638299,94.20545407618918L127.23404255319149,97.53901247145701L130,100.43357647694043L130,66.75619424324128L127.23404255319149,65.57420348333223L124.46808510638299,59.56012972488899L121.70212765957447,78.72566733339916L118.93617021276596,74.75753988092593L116.17021276595744,73.22531483279518L113.40425531914894,64.88297244896204L110.63829787234043,64.65133536491213L107.87234042553192,73.24017472414744L105.1063829787234,69.99953792901024L102.3404255319149,71.99472377968084L99.57446808510639,72.68706314715094L96.80851063829786,69.89225247594571L94.04255319148936,79.40943040610267L91.27659574468085,73.41163870915285L88.51063829787233,78.04341044583748L85.74468085106382,80.23813398935481L82.97872340425532,82.30565358966436L80.2127659574468,83.50489268401425L77.44680851063829,88.35631118077563L74.68085106382979,82.76656099447571L71.91489361702128,90.26365598125165L69.14893617021276,92.9581192257818L66.38297872340425,93.8833759792892L63.61702127659574,95.72275583959906L60.851063829787236,90.46078872032413L58.08510638297872,90.38226024796789L55.319148936170215,91.36008358811316L52.5531914893617,88.99921514932629L49.787234042553195,92.73898378812156L47.02127659574468,86.14870851944006L44.25531914893617,87.17799270671519L41.48936170212766,85.20324216845793L38.723404255319146,89.4793450482226L35.95744680851064,100.14454707879378L33.191489361702125,92.66783484767272L30.425531914893618,101.9454214093874L27.659574468085108,103.49625571354575L24.893617021276597,95.3418709698605L22.127659574468083,95.28177557936189L19.361702127659573,90.31288638009227L16.595744680851062,90.24163909102954L13.829787234042554,93.9674524192767L11.063829787234042,91.24818645025024L8.297872340425531,88.44257038469775L5.531914893617021,74.19559933835868L2.7659574468085104,81.70201686501692L0,82.16667221674552Z" fill="#687B3E" opacity="0.3"></path></g></g><path class="foreground" aria-hidden="true" d="" display="none"></path></g><g transform="translate(0,0)"><path class="background" aria-hidden="true" d="M0,0h130v140h-130Z"></path><g><g class="mark-area role-mark layer_0_layer_1_layer_0_marks" clip-path="url(#clip6)" role="graphics-object" aria-roledescription="area mark container"><path aria-label="High/Low Salience, Classification: 0.462266283438; upper_lower: 0.557922796045; condition: spatial; winstart: 0; upper: 0.557922796045; lower: 0.462266283438" role="graphics-symbol" aria-roledescription="errorband" d="M0,150.56544063727898L2.7659574468085104,146.74851039461086L5.531914893617021,144.16165871074347L8.297872340425531,141.4522866237695L11.063829787234042,153.9769609891905L13.829787234042554,151.64549455698378L16.595744680851062,152.4340149637931L19.361702127659573,148.35956682320605L22.127659574468083,158.6221286132621L24.893617021276597,143.40542244648415L27.659574468085108,135.1118409117087L30.425531914893618,131.6331372416562L33.191489361702125,128.3863446373601L35.95744680851064,126.06368699245456L38.723404255319146,128.45239926354108L41.48936170212766,133.73660232143294L44.25531914893617,143.14247306026297L47.02127659574468,138.37233715972388L49.787234042553195,123.62124664148848L52.5531914893617,121.69129639840865L55.319148936170215,118.84286411940543L58.08510638297872,128.09415541508002L60.851063829787236,121.62716384822383L63.61702127659574,107.3515624050287L66.38297872340425,129.32971640384807L69.14893617021276,103.10237272747439L71.91489361702128,100.43402606745443L74.68085106382979,106.4305466552771L77.44680851063829,102.53484147847381L80.2127659574468,113.39151075302615L82.97872340425532,117.45793149646059L85.74468085106382,114.25826828630036L88.51063829787233,76.99683794667932L91.27659574468085,76.77144683951461L94.04255319148936,72.66929519422017L96.80851063829786,68.73944250278691L99.57446808510639,73.54329906624541L102.3404255319149,70.54173421585855L105.1063829787234,76.34170865738562L107.87234042553192,75.34422442429118L110.63829787234043,87.4108265591214L113.40425531914894,88.93025768315411L116.17021276595744,94.63850503484207L118.93617021276596,86.19527874838425L121.70212765957447,91.33690116228772L124.46808510638299,96.0597636294957L127.23404255319149,99.6130960473001L130,107.3610619295927L130,65.42966812192434L127.23404255319149,65.12483519078228L124.46808510638299,66.10404295910311L121.70212765957447,58.427552716962204L118.93617021276596,56.21994427017495L116.17021276595744,66.90310328114934L113.40425531914894,61.943175274892674L110.63829787234043,59.118152853952125L107.87234042553192,46.95750315991227L105.1063829787234,46.05898859171464L102.3404255319149,42.728620934904356L99.57446808510639,45.43894485084169L96.80851063829786,40.77968231862615L94.04255319148936,45.23302549532441L91.27659574468085,50.243812810933434L88.51063829787233,48.90604740093015L85.74468085106382,79.61267191730882L82.97872340425532,84.27607947063402L80.2127659574468,80.10122993131625L77.44680851063829,75.19102700135637L74.68085106382979,71.44094110153483L71.91489361702128,69.66037238000088L69.14893617021276,75.18989097275804L66.38297872340425,98.69791446521069L63.61702127659574,78.26347359174682L60.851063829787236,92.15050086559782L58.08510638297872,98.00044401802649L55.319148936170215,89.21352709928836L52.5531914893617,95.7819984487839L49.787234042553195,99.06425644527874L47.02127659574468,109.1167545574198L44.25531914893617,112.60206159817064L41.48936170212766,104.15326999416466L38.723404255319146,97.73636104875342L35.95744680851064,95.11164763352232L33.191489361702125,97.12247482198534L30.425531914893618,102.63259285278085L27.659574468085108,106.10918665795093L24.893617021276597,116.92984044451681L22.127659574468083,129.74564091873378L19.361702127659573,120.16623881685558L16.595744680851062,125.9167550274641L13.829787234042554,126.54364573740405L11.063829787234042,124.41981807441056L8.297872340425531,116.6373493656781L5.531914893617021,118.41683816570361L2.7659574468085104,118.96024260518546L0,123.7816171073947Z" fill="#EB9A60" opacity="0.3"></path></g></g><path class="foreground" aria-hidden="true" d="" display="none"></path></g></g><g class="mark-text role-mark layer_0_layer_2_marks" role="graphics-object" aria-roledescription="text mark container"><text aria-label="condition: global; Mean of value: 0.971004578632; condition_label: Global" role="graphics-symbol" aria-roledescription="text mark" text-anchor="start" transform="translate(135,11.11871798296609)" font-family="Helvetica" font-size="11px" fill="#0F3C5F">Global</text><text aria-label="condition: object; Mean of value: 0.686503733299; condition_label: Object" role="graphics-symbol" aria-roledescription="text mark" text-anchor="start" transform="translate(135,90.77895467640516)" font-family="Helvetica" font-size="11px" fill="#687B3E">Object</text><text aria-label="condition: spatial; Mean of value: 0.78629807108; condition_label: Spatial" role="graphics-symbol" aria-roledescription="text mark" text-anchor="start" transform="translate(135,62.8365400976261)" font-family="Helvetica" font-size="11px" fill="#EB9A60">Spatial</text></g><g class="mark-rule role-mark layer_0_layer_3_layer_0_marks" role="graphics-object" aria-roledescription="rule mark container"><line aria-label="Mean of best: 3.38723404255" role="graphics-symbol" aria-roledescription="rule mark" transform="translate(110.08510638297872,0)" x2="0" y2="140" stroke="black" stroke-dasharray="2,2"></line></g><g class="mark-text role-mark layer_0_layer_4_layer_0_marks" role="graphics-object" aria-roledescription="text mark container"><text text-anchor="end" transform="translate(109.08510638297872,8.600000000000005)" font-family="Helvetica" font-size="11px" fill="black">Panel B slice →</text></g><g class="mark-text role-mark layer_0_layer_5_layer_0_marks" role="graphics-object" aria-roledescription="text mark container"><text text-anchor="start" transform="translate(135,113.43184744610734)" font-family="Helvetica" font-size="11px" fill="black"><tspan>Null Model</tspan><tspan x="0" dy="13">Accuracy</tspan></text></g><g class="mark-rule role-mark layer_0_layer_6_layer_0_marks" role="graphics-symbol" aria-roledescription="rule mark container"><line transform="translate(130,115.43184744610734)" x2="-130" y2="0" stroke="black" stroke-width="2" stroke-dasharray="4,4"></line></g><g class="mark-line role-mark layer_0_layer_7_layer_0_marks" role="graphics-object" aria-roledescription="line mark container"><path aria-label="x: 0.05; y: 0.8" role="graphics-symbol" aria-roledescription="line mark" d="M1.625,55.999999999999986L30.875,55.999999999999986" stroke="black" stroke-width="1.5"></path></g><g class="mark-symbol role-mark layer_0_layer_7_layer_1_marks" role="graphics-object" aria-roledescription="symbol mark container"><path aria-label="x: 0.05; y: 0.8; dir: 270" role="graphics-symbol" aria-roledescription="point" transform="translate(1.625,55.999999999999986) rotate(270)" d="M0,-1.8257418583505536L-1.5811388300841898,0.9128709291752769L1.5811388300841898,0.9128709291752769Z" stroke="black" stroke-width="2" opacity="1"></path><path aria-label="x: 0.95; y: 0.8; dir: 90" role="graphics-symbol" aria-roledescription="point" transform="translate(30.875,55.999999999999986) rotate(90)" d="M0,-1.8257418583505536L-1.5811388300841898,0.9128709291752769L1.5811388300841898,0.9128709291752769Z" stroke="black" stroke-width="2" opacity="1"></path></g><g class="mark-text role-mark layer_0_layer_8_layer_0_marks" role="graphics-object" aria-roledescription="text mark container"><text text-anchor="start" transform="translate(0,50.999999999999986)" font-family="Helvetica" font-size="11px" fill="black">Target Length</text></g></g><path class="foreground" aria-hidden="true" d="" display="none"></path></g></g></g></svg>
