<?xml version="1.0" encoding="utf-8"?>
<!DOCTYPE svg PUBLIC "-//W3C//DTD SVG 1.1//EN" "http://www.w3.org/Graphics/SVG/1.1/DTD/svg11.dtd">
<svg class="marks" width="252" height="210" viewBox="0 0 252 210" version="1.1" xmlns="http://www.w3.org/2000/svg" xmlns:xlink="http://www.w3.org/1999/xlink"><rect width="252" height="210" fill="white"></rect><g fill="none" stroke-miterlimit="10" transform="translate(55,10)"><g class="mark-group role-frame root" role="graphics-object" aria-roledescription="group mark container"><g transform="translate(0,0)"><path class="background" aria-hidden="true" d="M0.5,0.5h131v163h-131Z" stroke="#ddd"></path><g><g class="mark-group role-axis" aria-hidden="true"><g transform="translate(0.5,163.5)"><path class="background" aria-hidden="true" d="M0,0h0v0h0Z" pointer-events="none"></path><g><g class="mark-rule role-axis-grid" pointer-events="none"><line transform="translate(0,-163)" x2="0" y2="163" stroke="#ddd" stroke-width="1" opacity="1"></line><line transform="translate(44,-163)" x2="0" y2="163" stroke="#ddd" stroke-width="1" opacity="1"></line><line transform="translate(87,-163)" x2="0" y2="163" stroke="#ddd" stroke-width="1" opacity="1"></line><line transform="translate(131,-163)" x2="0" y2="163" stroke="#ddd" stroke-width="1" opacity="1"></line></g></g><path class="foreground" aria-hidden="true" d="" pointer-events="none" display="none"></path></g></g><g class="mark-group role-axis" aria-hidden="true"><g transform="translate(0.5,0.5)"><path class="background" aria-hidden="true" d="M0,0h0v0h0Z" pointer-events="none"></path><g><g class="mark-rule role-axis-grid" pointer-events="none"><line transform="translate(0,163)" x2="131" y2="0" stroke="#ddd" stroke-width="1" opacity="1"></line><line transform="translate(0,130)" x2="131" y2="0" stroke="#ddd" stroke-width="1" opacity="1"></line><line transform="translate(0,98)" x2="131" y2="0" stroke="#ddd" stroke-width="1" opacity="1"></line><line transform="translate(0,65)" x2="131" y2="0" stroke="#ddd" stroke-width="1" opacity="1"></line><line transform="translate(0,33)" x2="131" y2="0" stroke="#ddd" stroke-width="1" opacity="1"></line><line transform="translate(0,0)" x2="131" y2="0" stroke="#ddd" stroke-width="1" opacity="1"></line></g></g><path class="foreground" aria-hidden="true" d="" pointer-events="none" display="none"></path></g></g><g class="mark-group role-axis" role="graphics-symbol" aria-roledescription="axis" aria-label="X-axis titled 'Time relative to target onset (s)' for a linear scale with values from 0.0 to 3.0"><g transform="translate(0.5,163.5)"><path class="background" aria-hidden="true" d="M0,0h0v0h0Z" pointer-events="none"></path><g><g class="mark-rule role-axis-tick" pointer-events="none"><line transform="translate(0,0)" x2="0" y2="5" stroke="#888" stroke-width="1" opacity="1"></line><line transform="translate(44,0)" x2="0" y2="5" stroke="#888" stroke-width="1" opacity="1"></line><line transform="translate(87,0)" x2="0" y2="5" stroke="#888" stroke-width="1" opacity="1"></line><line transform="translate(131,0)" x2="0" y2="5" stroke="#888" stroke-width="1" opacity="1"></line></g><g class="mark-text role-axis-label" pointer-events="none"><text text-anchor="start" transform="translate(0,15)" font-family="sans-serif" font-size="10px" fill="#000" opacity="1">0</text><text text-anchor="middle" transform="translate(43.666666666666664,15)" font-family="sans-serif" font-size="10px" fill="#000" opacity="1">1</text><text text-anchor="middle" transform="translate(87.33333333333333,15)" font-family="sans-serif" font-size="10px" fill="#000" opacity="1">2</text><text text-anchor="end" transform="translate(131,15)" font-family="sans-serif" font-size="10px" fill="#000" opacity="1">3</text></g><g class="mark-rule role-axis-domain" pointer-events="none"><line transform="translate(0,0)" x2="131" y2="0" stroke="#888" stroke-width="1" opacity="1"></line></g><g class="mark-text role-axis-title" pointer-events="none"><text text-anchor="middle" transform="translate(65.5,30)" font-family="sans-serif" font-size="11px" font-weight="bold" fill="#000" opacity="1">Time relative to target onset (s)</text></g></g><path class="foreground" aria-hidden="true" d="" pointer-events="none" display="none"></path></g></g><g class="mark-group role-axis" role="graphics-symbol" aria-roledescription="axis" aria-label="Y-axis titled 'High/Low Salience Classification Accuracy (Null Model Corrected)' for a linear scale with values from 0.5 to 1.0"><g transform="translate(0.5,0.5)"><path class="background" aria-hidden="true" d="M0,0h0v0h0Z" pointer-events="none"></path><g><g class="mark-rule role-axis-tick" pointer-events="none"><line transform="translate(0,163)" x2="-5" y2="0" stroke="#888" stroke-width="1" opacity="1"></line><line transform="translate(0,130)" x2="-5" y2="0" stroke="#888" stroke-width="1" opacity="1"></line><line transform="translate(0,98)" x2="-5" y2="0" stroke="#888" stroke-width="1" opacity="1"></line><line transform="translate(0,65)" x2="-5" y2="0" stroke="#888" stroke-width="1" opacity="1"></line><line transform="translate(0,33)" x2="-5" y2="0" stroke="#888" stroke-width="1" opacity="1"></line><line transform="translate(0,0)" x2="-5" y2="0" stroke="#888" stroke-width="1" opacity="1"></line></g><g class="mark-text role-axis-label" pointer-events="none"><text text-anchor="end" transform="translate(-7,166)" font-family="sans-serif" font-size="10px" fill="#000" opacity="1">0.5</text><text text-anchor="end" transform="translate(-7,133.4)" font-family="sans-serif" font-size="10px" fill="#000" opacity="1">0.6</text><text text-anchor="end" transform="translate(-7,100.80000000000001)" font-family="sans-serif" font-size="10px" fill="#000" opacity="1">0.7</text><text text-anchor="end" transform="translate(-7,68.19999999999999)" font-family="sans-serif" font-size="10px" fill="#000" opacity="1">0.8</text><text text-anchor="end" transform="translate(-7,35.599999999999994)" font-family="sans-serif" font-size="10px" fill="#000" opacity="1">0.9</text><text text-anchor="end" transform="translate(-7,3)" font-family="sans-serif" font-size="10px" fill="#000" opacity="1">1.0</text></g><g class="mark-rule role-axis-domain" pointer-events="none"><line transform="translate(0,163)" x2="0" y2="-163" stroke="#888" stroke-width="1" opacity="1"></line></g><g class="mark-text role-axis-title" pointer-events="none"><text text-anchor="middle" transform="translate(-39,81.5) rotate(-90) translate(0,-2)" font-family="sans-serif" font-size="11px" font-weight="bold" fill="#000" opacity="1"><tspan>High/Low Salience Classification</tspan><tspan x="0" dy="13">Accuracy (Null Model Corrected)</tspan></text></g></g><path class="foreground" aria-hidden="true" d="" pointer-events="none" display="none"></path></g></g><g class="mark-group role-scope layer_0_layer_0_pathgroup" role="graphics-object" aria-roledescription="group mark container"><g transform="translate(0,0)"><path class="background" aria-hidden="true" d="M0,0h131v163h-131Z"></path><g><g class="mark-line role-mark layer_0_layer_0_marks" role="graphics-object" aria-roledescription="line mark container"><path aria-label="condition: global; Time relative to target onset (s): 0; High/Low Salience Classification, Accuracy (Null Model Corrected): 0.583231548896" role="graphics-symbol" aria-roledescription="line mark" d="M0,135.86651505987663L2.0793650793650786,137.66057185228996L4.158730158730157,138.36346601603606L6.238095238095244,134.30592508392687L8.317460317460297,134.98031171402545L10.396825396825392,137.28300277804496L12.476190476190489,135.14835717825736L14.55555555555554,134.04731427930767L16.634920634920636,131.03076871701472L18.714285714285733,129.5777322030046L20.793650793650784,127.95195179533809L22.87301587301588,124.70692746073081L24.95238095238093,123.62942868306375L27.031746031746028,124.42703682391961L29.111111111111125,121.45329205960161L31.19047619047618,118.74015713700885L33.26984126984127,119.32531627597983L35.34920634920637,121.45065013139282L37.428571428571416,119.7869545350621L39.50793650793652,120.349445906642L41.58730158730157,119.82887725310825L43.666666666666664,120.18878061794885L45.746031746031846,118.22215214536328L47.825396825397036,115.10555076860705L49.90476190476178,110.98961428933849L51.984126984126966,111.16937680527991L54.06349206349214,112.09228539472925L56.14285714285733,105.36144528249564L58.22222222222207,102.62944996343302L60.30158730158726,102.3840605934693L62.38095238095244,104.96577954200711L64.46031746031763,101.67550127378726L66.53968253968237,103.36888378240829L68.61904761904756,109.07878496212975L70.69841269841274,103.82312694732666L72.77777777777793,108.84404323762868L74.85714285714266,108.37986957106045L76.93650793650785,106.97404150919073L79.01587301587304,102.1031770865181L81.09523809523823,101.85452354936061L83.17460317460296,98.87318353643339L85.25396825396815,90.41856386310444L87.33333333333333,89.6826083922755L89.41269841269852,89.59326743085708L91.49206349206369,82.91300118579943L93.57142857142846,84.69171109892659L95.65079365079362,84.73015354086156L97.7301587301588,86.02395234191616L99.809523809524,75.19701994986326L101.88888888888874,77.87287308980811L103.96825396825393,79.8044167590043L106.04761904761912,80.57175867705331L108.12698412698428,78.70213795914489L110.20634920634905,83.2424042305672L112.28571428571422,86.46318678972773L114.36507936507941,84.37807911870064L116.4444444444446,84.5088332609572L118.52380952380933,85.95710293052197L120.60317460317452,84.05960881069004L122.68253968253971,82.77995441346116L124.76190476190489,83.85315634612864L126.84126984126964,84.6658062064978L128.92063492063482,87.0024482314024L131,83.74872256235263" stroke="#0F3C5F" stroke-width="2" stroke-linecap="round" stroke-dasharray="1,0"></path></g></g><path class="foreground" aria-hidden="true" d="" display="none"></path></g><g transform="translate(0,0)"><path class="background" aria-hidden="true" d="M0,0h131v163h-131Z"></path><g><g class="mark-line role-mark layer_0_layer_0_marks" role="graphics-object" aria-roledescription="line mark container"><path aria-label="condition: object; Time relative to target onset (s): 0; High/Low Salience Classification, Accuracy (Null Model Corrected): 0.573182779536" role="graphics-symbol" aria-roledescription="line mark" d="M0,139.14241387135573L2.0793650793650786,139.8711924334396L4.158730158730157,139.4758224318521L6.238095238095244,140.24460040519213L8.317460317460297,140.42847702989107L10.396825396825392,139.49459676905485L12.476190476190489,138.31004545340252L14.55555555555554,137.79844687113606L16.634920634920636,138.50511010031198L18.714285714285733,139.97022367419572L20.793650793650784,142.84571754876612L22.87301587301588,142.26819055030046L24.95238095238093,141.1739883018608L27.031746031746028,141.93783407688457L29.111111111111125,145.30283545678515L31.19047619047618,145.79924464299387L33.26984126984127,148.17852586593946L35.34920634920637,149.0192364817884L37.428571428571416,151.08275551079794L39.50793650793652,150.10232829393377L41.58730158730157,147.0340800753396L43.666666666666664,147.64067561158095L45.746031746031846,147.6028168980446L47.825396825397036,148.0731117634482L49.90476190476178,147.13104440040456L51.984126984126966,146.5090605212974L54.06349206349214,148.07922336223822L56.14285714285733,144.62937381327598L58.22222222222207,140.17554219040227L60.30158730158726,139.27298303954444L62.38095238095244,138.14727963099773L64.46031746031763,138.66803561495846L66.53968253968237,138.12888318553848L68.61904761904756,137.25232422518695L70.69841269841274,139.7793523654967L72.77777777777793,141.41184337276854L74.85714285714266,144.25225494907386L76.93650793650785,142.97995073788974L79.01587301587304,141.63715142499566L81.09523809523823,136.43983850761302L83.17460317460296,136.53224853160964L85.25396825396815,140.01982333999788L87.33333333333333,140.10799016442957L89.41269841269852,136.6687977787046L91.49206349206369,136.59893454296068L93.57142857142846,130.57768516947888L95.65079365079362,129.44066403862232L97.7301587301588,128.3161730885234L99.809523809524,121.72704826004097L101.88888888888874,125.65169725664748L103.96825396825393,120.77610290137233L106.04761904761912,120.19087074511133L108.12698412698428,119.38167855014788L110.20634920634905,117.40306271751085L112.28571428571422,112.20769467143009L114.36507936507941,109.50652951524981L116.4444444444446,107.38940516398063L118.52380952380933,106.63674355244642L120.60317460317452,103.91843527189997L122.68253968253971,103.71256660552262L124.76190476190489,102.82145615637185L126.84126984126964,104.28256314459978L128.92063492063482,106.01807097169565L131,110.10207859739182" stroke="#687B3E" stroke-width="2" stroke-linecap="round" stroke-dasharray="6,4"></path></g></g><path class="foreground" aria-hidden="true" d="" display="none"></path></g><g transform="translate(0,0)"><path class="background" aria-hidden="true" d="M0,0h131v163h-131Z"></path><g><g class="mark-line role-mark layer_0_layer_0_marks" role="graphics-object" aria-roledescription="line mark container"><path aria-label="condition: spatial; Time relative to target onset (s): 0; High/Low Salience Classification, Accuracy (Null Model Corrected): 0.584160798084" role="graphics-symbol" aria-roledescription="line mark" d="M0,135.56357982471147L2.0793650793650786,137.1530522422643L4.158730158730157,139.75462088484772L6.238095238095244,139.75462088484772L8.317460317460297,139.75462088484772L10.396825396825392,141.79422101411566L12.476190476190489,142.65726975900844L14.55555555555554,143.43619060806734L16.634920634920636,145.37550299314134L18.714285714285733,144.78648187925876L20.793650793650784,144.78648187925876L22.87301587301588,145.37550299314134L24.95238095238093,145.91647515042956L27.031746031746028,145.91647515042956L29.111111111111125,145.91647515042956L31.19047619047618,145.91647515042956L33.26984126984127,145.91647515042956L35.34920634920637,145.91647515042956L37.428571428571416,145.91647515042956L39.50793650793652,145.91647515042956L41.58730158730157,145.3553245255638L43.666666666666664,144.79971251769382L45.746031746031846,144.23856189282796L47.825396825397036,142.04853752527865L49.90476190476178,142.04853752527865L51.984126984126966,142.04853752527865L54.06349206349214,142.03786193718886L56.14285714285733,141.4983825369744L58.22222222222207,142.03786193718884L60.30158730158726,141.5499319806366L62.38095238095244,139.42119594113282L64.46031746031763,137.84667513962202L66.53968253968237,138.35268042733767L68.61904761904756,137.33966082293736L70.69841269841274,136.81054926372644L72.77777777777793,134.74533244029007L74.85714285714266,133.7270381832859L76.93650793650785,131.24319646660877L79.01587301587304,131.7476592820688L81.09523809523823,132.31693362372073L83.17460317460296,132.31693362372073L85.25396825396815,132.31693362372073L87.33333333333333,133.41186658318577L89.41269841269852,132.34857923490506L91.49206349206369,133.37664849450664L93.57142857142846,131.74223613482727L95.65079365079362,133.82177778909863L97.7301587301588,134.36223279998964L99.809523809524,133.29688147894177L101.88888888888874,135.44728197419406L103.96825396825393,136.4776263129152L106.04761904761912,137.038776937781L108.12698412698428,138.11406926271897L110.20634920634905,140.36033306427734L112.28571428571422,139.76180435500825L114.36507936507941,140.22168505917503L116.4444444444446,141.99618076697297L118.52380952380933,138.9286410711296L120.60317460317452,136.70646420125072L122.68253968253971,128.3062916141014L124.76190476190489,122.51285264253104L126.84126984126964,121.0538839109414L128.92063492063482,121.0538839109414L131,120.05157055606192" stroke="#EB9A60" stroke-width="2" stroke-linecap="round" stroke-dasharray="2,4"></path></g></g><path class="foreground" aria-hidden="true" d="" display="none"></path></g></g><g class="mark-group role-scope layer_0_layer_1_layer_0_pathgroup" role="graphics-object" aria-roledescription="group mark container"><g transform="translate(0,0)"><path class="background" aria-hidden="true" d="M0,0h131v163h-131Z"></path><g><g class="mark-area role-mark layer_0_layer_1_layer_0_marks" role="graphics-object" aria-roledescription="area mark container"><path aria-label="High/Low Salience Classification, Accuracy (Null Model Corrected): 0.532838010734; upper_corrected_mean: 0.633625087058; condition: global; winstart: 0; Mean of corrected_mean: 0.583231548896; Mean + stderr of corrected_mean: 0.633625087058; Mean - stderr of corrected_mean: 0.532838010734" role="graphics-symbol" aria-roledescription="errorband" d="M0,152.29480850060452L2.0793650793650786,153.88503641813406L4.158730158730157,154.8117107035296L6.238095238095244,151.43896371252927L8.317460317460297,151.308254796447L10.396825396825392,154.0873633637377L12.476190476190489,151.6568375049528L14.55555555555554,150.797056969805L16.634920634920636,146.82175759313833L18.714285714285733,145.00136905530684L20.793650793650784,142.72939448501418L22.87301587301588,139.9472939926979L24.95238095238093,138.71621156434819L27.031746031746028,138.61526868652476L29.111111111111125,135.14943222130123L31.19047619047618,132.899455500053L33.26984126984127,133.44028848346565L35.34920634920637,135.281912910781L37.428571428571416,133.70563984155436L39.50793650793652,134.51795147576232L41.58730158730157,133.98846700201292L43.666666666666664,134.09116917769185L45.746031746031846,131.96018308969764L47.825396825397036,129.31591341620714L49.90476190476178,124.93956322651378L51.984126984126966,125.80783482676829L54.06349206349214,126.78324972874765L56.14285714285733,119.72651114226016L58.22222222222207,116.79108995266947L60.30158730158726,116.89386421134577L62.38095238095244,119.3613779247999L64.46031746031763,116.44338450548655L66.53968253968237,118.13820542346701L68.61904761904756,123.37288243185824L70.69841269841274,118.01254431368916L72.77777777777793,122.73530660643229L74.85714285714266,121.94641109903206L76.93650793650785,120.7425435957644L79.01587301587304,116.23322247801325L81.09523809523823,115.74163738657309L83.17460317460296,113.04930537991461L85.25396825396815,104.28283207763585L87.33333333333333,103.8406108447142L89.41269841269852,104.69972225780083L91.49206349206369,98.13258678809106L93.57142857142846,99.91664822565026L95.65079365079362,99.79262845463502L97.7301587301588,101.87844580742767L99.809523809524,90.13901989670656L101.88888888888874,92.54839776375468L103.96825396825393,95.35239198091473L106.04761904761912,95.14213959734825L108.12698412698428,93.12777739845397L110.20634920634905,97.6700784377494L112.28571428571422,100.87178263999043L114.36507936507941,99.05345496953568L116.4444444444446,99.21229546180068L118.52380952380933,100.15978704601288L120.60317460317452,98.50409977180149L122.68253968253971,97.16250742067824L124.76190476190489,98.31453563425835L126.84126984126964,99.06846388029174L128.92063492063482,101.33561257609976L131,98.19798253558312L131,69.29946258912213L128.92063492063482,72.66928388670503L126.84126984126964,70.26314853270387L124.76190476190489,69.39177705799895L122.68253968253971,68.39740140624409L120.60317460317452,69.61511784957858L118.52380952380933,71.75441881503106L116.4444444444446,69.80537106011373L114.36507936507941,69.7027032678656L112.28571428571422,72.05459093946503L110.20634920634905,68.81473002338501L108.12698412698428,64.27649851983581L106.04761904761912,66.00137775675837L103.96825396825393,64.25644153709385L101.88888888888874,63.19734841586154L99.809523809524,60.25502000301997L97.7301587301588,70.16945887640465L95.65079365079362,69.6676786270881L93.57142857142846,69.4667739722029L91.49206349206369,67.6934155835078L89.41269841269852,74.48681260391334L87.33333333333333,75.52460593983679L85.25396825396815,76.55429564857303L83.17460317460296,84.69706169295216L81.09523809523823,87.96740971214813L79.01587301587304,87.97313169502297L76.93650793650785,93.20553942261706L74.85714285714266,94.81332804308884L72.77777777777793,94.95277986882509L70.69841269841274,89.63370958096414L68.61904761904756,94.78468749240125L66.53968253968237,88.59956214134957L64.46031746031763,86.90761804208796L62.38095238095244,90.57018115921433L60.30158730158726,87.87425697559283L58.22222222222207,88.46780997419657L56.14285714285733,90.99637942273112L54.06349206349214,97.40132106071084L51.984126984126966,96.53091878379153L49.90476190476178,97.0396653521632L47.825396825397036,100.89518812100694L45.746031746031846,104.48412120102893L43.666666666666664,106.28639205820586L41.58730158730157,105.66928750420357L39.50793650793652,106.18094033752169L37.428571428571416,105.86826922856983L35.34920634920637,107.61938735200465L33.26984126984127,105.21034406849401L31.19047619047618,104.5808587739647L29.111111111111125,107.75715189790202L27.031746031746028,110.23880496131446L24.95238095238093,108.54264580177933L22.87301587301588,109.46656092876373L20.793650793650784,113.174509105662L18.714285714285733,114.15409535070236L16.634920634920636,115.23977984089112L14.55555555555554,117.29757158881036L12.476190476190489,118.63987685156192L10.396825396825392,120.47864219235223L8.317460317460297,118.6523686316039L6.238095238095244,117.17288645532446L4.158730158730157,121.91522132854253L2.0793650793650786,121.43610728644586L0,119.43822161914875Z" fill="#0F3C5F" opacity="0.3"></path></g></g><path class="foreground" aria-hidden="true" d="" display="none"></path></g><g transform="translate(0,0)"><path class="background" aria-hidden="true" d="M0,0h131v163h-131Z"></path><g><g class="mark-area role-mark layer_0_layer_1_layer_0_marks" role="graphics-object" aria-roledescription="area mark container"><path aria-label="High/Low Salience Classification, Accuracy (Null Model Corrected): 0.539859405239; upper_corrected_mean: 0.606506153833; condition: object; winstart: 0; Mean of corrected_mean: 0.573182779536; Mean + stderr of corrected_mean: 0.606506153833; Mean - stderr of corrected_mean: 0.539859405239" role="graphics-symbol" aria-roledescription="errorband" d="M0,150.0058338921289L2.0793650793650786,150.8336254823566L4.158730158730157,150.24991084500033L6.238095238095244,151.08851591963887L8.317460317460297,151.17380322108733L10.396825396825392,150.07117483578006L12.476190476190489,149.1240725212245L14.55555555555554,148.2714825894213L16.634920634920636,148.693198348169L18.714285714285733,149.97443809688548L20.793650793650784,152.94249648783287L22.87301587301588,152.13599523482364L24.95238095238093,150.87983040123402L27.031746031746028,151.55067093346338L29.111111111111125,155.16618617932468L31.19047619047618,155.77069521842722L33.26984126984127,157.71343039469932L35.34920634920637,157.88308893705334L37.428571428571416,160.65797974964477L39.50793650793652,158.95108155976916L41.58730158730157,156.73428124082096L43.666666666666664,157.9869530075901L45.746031746031846,157.75989396817062L47.825396825397036,158.36995526989645L49.90476190476178,157.7778303812635L51.984126984126966,156.87647048078497L54.06349206349214,158.2916603907995L56.14285714285733,155.14061476950573L58.22222222222207,151.97426904157123L60.30158730158726,150.5715475066448L62.38095238095244,149.59107929828642L64.46031746031763,150.15166011852912L66.53968253968237,149.04740862967174L68.61904761904756,147.82957357473788L70.69841269841274,150.51311930937933L72.77777777777793,151.61607062048304L74.85714285714266,153.93109873808461L76.93650793650785,152.59142072563304L79.01587301587304,151.73245885799622L81.09523809523823,147.3239432028077L83.17460317460296,147.18530257257237L85.25396825396815,149.62511565700444L87.33333333333333,149.9605723520468L89.41269841269852,147.20954781116984L91.49206349206369,146.88178835006914L93.57142857142846,141.51565830189486L95.65079365079362,140.76718431126804L97.7301587301588,139.9235329058197L99.809523809524,134.53977324784728L101.88888888888874,138.23884444045956L103.96825396825393,134.00683258231953L106.04761904761912,133.55347099784532L108.12698412698428,132.60195259483095L110.20634920634905,130.4982879354428L112.28571428571422,125.63915947649026L114.36507936507941,123.21304376105324L116.4444444444446,121.40977594204165L118.52380952380933,120.44041248940174L120.60317460317452,117.86883706020602L122.68253968253971,117.66427463196291L124.76190476190489,117.54631922676828L126.84126984126964,118.88294325477968L128.92063492063482,120.31712065125639L131,124.52124755288988L131,95.68290964189377L128.92063492063482,91.7190212921349L126.84126984126964,89.6821830344199L124.76190476190489,88.09659308597544L122.68253968253971,89.76085857908234L120.60317460317452,89.96803348359393L118.52380952380933,92.83307461549109L116.4444444444446,93.36903438591962L114.36507936507941,95.80001526944639L112.28571428571422,98.7762298663699L110.20634920634905,104.30783749957891L108.12698412698428,106.1614045054648L106.04761904761912,106.82827049237733L103.96825396825393,107.5453732204251L101.88888888888874,113.06455007283542L99.809523809524,108.91432327223467L97.7301587301588,116.70881327122709L95.65079365079362,118.11414376597662L93.57142857142846,119.63971203706294L91.49206349206369,126.31608073585221L89.41269841269852,126.12804774623936L87.33333333333333,130.25540797681234L85.25396825396815,130.41453102299133L83.17460317460296,125.87919449064692L81.09523809523823,125.55573381241835L79.01587301587304,131.54184399199508L76.93650793650785,133.36848075014643L74.85714285714266,134.57341116006307L72.77777777777793,131.20761612505405L70.69841269841274,129.04558542161402L68.61904761904756,126.67507487563603L66.53968253968237,127.21035774140523L64.46031746031763,127.18441111138779L62.38095238095244,126.70347996370903L60.30158730158726,127.97441857244408L58.22222222222207,128.37681533923327L56.14285714285733,134.11813285704625L54.06349206349214,137.86678633367694L51.984126984126966,136.14165056180985L49.90476190476178,136.48425841954563L47.825396825397036,137.77626825699994L45.746031746031846,137.4457398279186L43.666666666666664,137.2943982155718L41.58730158730157,137.33387890985827L39.50793650793652,141.25357502809837L37.428571428571416,141.50753127195108L35.34920634920637,140.15538402652345L33.26984126984127,138.6436213371796L31.19047619047618,135.82779406756052L29.111111111111125,135.4394847342456L27.031746031746028,132.32499722030576L24.95238095238093,131.46814620248756L22.87301587301588,132.4003858657773L20.793650793650784,132.7489386096994L18.714285714285733,129.96600925150597L16.634920634920636,128.31702185245493L14.55555555555554,127.32541115285082L12.476190476190489,127.49601838558057L10.396825396825392,128.91801870232965L8.317460317460297,129.68315083869481L6.238095238095244,129.4006848907454L4.158730158730157,128.7017340187039L2.0793650793650786,128.9087593845226L0,128.27899385058257Z" fill="#687B3E" opacity="0.3"></path></g></g><path class="foreground" aria-hidden="true" d="" display="none"></path></g><g transform="translate(0,0)"><path class="background" aria-hidden="true" d="M0,0h131v163h-131Z"></path><g><g class="mark-area role-mark layer_0_layer_1_layer_0_marks" role="graphics-object" aria-roledescription="area mark container"><path aria-label="High/Low Salience Classification, Accuracy (Null Model Corrected): 0.542099005706; upper_corrected_mean: 0.626222590461; condition: spatial; winstart: 0; Mean of corrected_mean: 0.584160798084; Mean + stderr of corrected_mean: 0.626222590461; Mean - stderr of corrected_mean: 0.542099005706" role="graphics-symbol" aria-roledescription="errorband" d="M0,149.27572413973598L2.0793650793650786,150.49199382178887L4.158730158730157,152.8811882857011L6.238095238095244,152.8811882857011L8.317460317460297,152.8811882857011L10.396825396825392,155.1121195404687L12.476190476190489,156.148471310859L14.55555555555554,157.1286955451402L16.634920634920636,159.7414521324304L18.714285714285733,158.92317113313695L20.793650793650784,158.92317113313695L22.87301587301588,159.7414521324304L24.95238095238093,160.51076352935684L27.031746031746028,160.51076352935684L29.111111111111125,160.51076352935684L31.19047619047618,160.51076352935684L33.26984126984127,160.51076352935684L35.34920634920637,160.51076352935684L37.428571428571416,160.51076352935684L39.50793650793652,160.51076352935684L41.58730158730157,159.94813985690556L43.666666666666664,159.4123158581672L45.746031746031846,158.84782912878805L47.825396825397036,156.8497321494216L49.90476190476178,156.8497321494216L51.984126984126966,156.8497321494216L54.06349206349214,156.7982557348712L56.14285714285733,156.33497013376686L58.22222222222207,156.79825573487116L60.30158730158726,156.5044272201612L62.38095238095244,154.57391256929333L64.46031746031763,153.18967133137707L66.53968253968237,153.68241831642837L68.61904761904756,152.71264449284428L70.69841269841274,152.2864790078094L72.77777777777793,150.6653199472671L74.85714285714266,149.86516685901387L76.93650793650785,147.8130132780151L79.01587301587304,148.15059055351503L81.09523809523823,148.76091182583122L83.17460317460296,148.76091182583122L85.25396825396815,148.76091182583122L87.33333333333333,149.79913446104007L89.41269841269852,148.8762925609927L91.49206349206369,149.93259044496153L93.57142857142846,148.4082243959199L95.65079365079362,150.5389862708921L97.7301587301588,151.0289541534186L99.809523809524,150.1376665312946L101.88888888888874,152.4947605372012L103.96825396825393,153.21311187458124L106.04761904761912,153.7884833392034L108.12698412698428,154.93443622646964L110.20634920634905,157.5296000492877L112.28571428571422,156.72835773313275L114.36507936507941,157.25141001539495L116.4444444444446,159.23661076870732L118.52380952380933,155.15937974274124L120.60317460317452,154.70763770963106L122.68253968253971,144.26576530299286L124.76190476190489,139.40897310767227L126.84126984126964,137.89104134583337L128.92063492063482,137.89104134583337L131,136.9619145624858L131,103.14122654963808L128.92063492063482,104.21672647604943L126.84126984126964,104.21672647604943L124.76190476190489,105.61673217738982L122.68253968253971,112.34681792520996L120.60317460317452,118.7052906928704L118.52380952380933,122.69790239951794L116.4444444444446,124.75575076523863L114.36507936507941,123.19196010295506L112.28571428571422,122.79525097688374L110.20634920634905,123.191066079267L108.12698412698428,121.29370229896827L106.04761904761912,120.2890705363586L103.96825396825393,119.74214075124915L101.88888888888874,118.39980341118692L99.809523809524,116.45609642658893L97.7301587301588,117.69551144656069L95.65079365079362,117.10456930730516L93.57142857142846,115.07624787373463L91.49206349206369,116.82070654405172L89.41269841269852,115.82086590881742L87.33333333333333,117.02459870533146L85.25396825396815,115.87295542161026L83.17460317460296,115.87295542161026L81.09523809523823,115.87295542161026L79.01587301587304,115.3447280106226L76.93650793650785,114.67337965520242L74.85714285714266,117.58890950755797L72.77777777777793,118.825344933313L70.69841269841274,121.33461951964348L68.61904761904756,121.96667715303045L66.53968253968237,123.02294253824697L64.46031746031763,122.50367894786694L62.38095238095244,124.26847931297229L60.30158730158726,126.59543674111194L58.22222222222207,127.27746813950651L56.14285714285733,126.6617949401819L54.06349206349214,127.27746813950654L51.984126984126966,127.2473429011357L49.90476190476178,127.2473429011357L47.825396825397036,127.2473429011357L45.746031746031846,129.6292946568679L43.666666666666664,130.18710917722044L41.58730158730157,130.76250919422202L39.50793650793652,131.3221867715023L37.428571428571416,131.3221867715023L35.34920634920637,131.3221867715023L33.26984126984127,131.3221867715023L31.19047619047618,131.3221867715023L29.111111111111125,131.3221867715023L27.031746031746028,131.3221867715023L24.95238095238093,131.3221867715023L22.87301587301588,131.00955385385228L20.793650793650784,130.64979262538057L18.714285714285733,130.64979262538057L16.634920634920636,131.00955385385228L14.55555555555554,129.74368567099447L12.476190476190489,129.16606820715788L10.396825396825392,128.47632248776264L8.317460317460297,126.62805348399435L6.238095238095244,126.62805348399435L4.158730158730157,126.62805348399435L2.0793650793650786,123.81411066273972L0,121.85143550968695Z" fill="#EB9A60" opacity="0.3"></path></g></g><path class="foreground" aria-hidden="true" d="" display="none"></path></g></g><g class="mark-text role-mark layer_0_layer_2_marks" role="graphics-object" aria-roledescription="text mark container"><text aria-label="condition: global; Mean of corrected_mean: 0.738111701237; condition_label: undefined" role="graphics-symbol" aria-roledescription="text mark" text-anchor="start" transform="translate(136,88.37558539687753)" font-family="sans-serif" font-size="11px" fill="#0F3C5F">undefined</text><text aria-label="condition: object; Mean of corrected_mean: 0.668527377962; condition_label: undefined" role="graphics-symbol" aria-roledescription="text mark" text-anchor="start" transform="translate(136,111.0600747845437)" font-family="sans-serif" font-size="11px" fill="#687B3E">undefined</text><text aria-label="condition: spatial; Mean of corrected_mean: 0.572892020971; condition_label: undefined" role="graphics-symbol" aria-roledescription="text mark" text-anchor="start" transform="translate(136,142.23720116349813)" font-family="sans-serif" font-size="11px" fill="#EB9A60">undefined</text></g><g class="mark-rule role-mark layer_0_layer_3_layer_0_marks" role="graphics-symbol" aria-roledescription="rule mark container"><line transform="translate(122.26666666666665,0)" x2="0" y2="163" stroke="black" stroke-dasharray="2,2"></line></g><g class="mark-text role-mark layer_0_layer_3_layer_1_marks" role="graphics-object" aria-roledescription="text mark container"><text text-anchor="end" transform="translate(120.26666666666665,9.520000000000007)" font-family="sans-serif" font-size="11px" fill="black"><tspan>panel C</tspan><tspan x="0" dy="13">time slice</tspan></text></g><g class="mark-rect role-mark layer_0_layer_4_layer_0_marks" role="graphics-symbol" aria-roledescription="rect mark container"><path d="M109.16666666666667,156.48h21.83333333333333v6.52000000000001h-21.83333333333333Z" fill="white" opacity="1"></path></g><g class="mark-text role-mark layer_0_layer_4_layer_1_marks" role="graphics-object" aria-roledescription="text mark container"><text text-anchor="middle" transform="translate(131,168.48)" font-family="sans-serif" font-size="11px" fill="black"><tspan>Null Model</tspan><tspan x="0" dy="13">Accuracy</tspan></text></g><g class="mark-rule role-mark layer_0_layer_5_layer_0_marks" role="graphics-symbol" aria-roledescription="rule mark container"><line transform="translate(131,156.48)" x2="-131" y2="0" stroke="black" stroke-width="2" stroke-dasharray="4,4"></line></g><g class="mark-line role-mark layer_0_layer_6_layer_0_marks" role="graphics-object" aria-roledescription="line mark container"><path aria-label="x: 0.05; y: 0.8" role="graphics-symbol" aria-roledescription="line mark" d="M2.183333333333333,65.19999999999999L41.483333333333334,65.19999999999999" stroke="black" stroke-width="1.5"></path></g><g class="mark-symbol role-mark layer_0_layer_6_layer_1_marks" role="graphics-object" aria-roledescription="symbol mark container"><path aria-label="x: 0.05; y: 0.8; dir: 270" role="graphics-symbol" aria-roledescription="point" transform="translate(2.183333333333333,65.19999999999999) rotate(270)" d="M0,-1.8257418583505536L-1.5811388300841898,0.9128709291752769L1.5811388300841898,0.9128709291752769Z" stroke="black" stroke-width="2" opacity="1"></path><path aria-label="x: 0.95; y: 0.8; dir: 90" role="graphics-symbol" aria-roledescription="point" transform="translate(41.483333333333334,65.19999999999999) rotate(90)" d="M0,-1.8257418583505536L-1.5811388300841898,0.9128709291752769L1.5811388300841898,0.9128709291752769Z" stroke="black" stroke-width="2" opacity="1"></path></g><g class="mark-text role-mark layer_0_layer_7_layer_0_marks" role="graphics-object" aria-roledescription="text mark container"><text text-anchor="start" transform="translate(0,60.19999999999999)" font-family="sans-serif" font-size="11px" fill="black">Target Length</text></g></g><path class="foreground" aria-hidden="true" d="" display="none"></path></g></g></g></svg>
