<?xml version="1.0" encoding="utf-8"?>
<!DOCTYPE svg PUBLIC "-//W3C//DTD SVG 1.1//EN" "http://www.w3.org/Graphics/SVG/1.1/DTD/svg11.dtd">
<svg class="marks" width="226" height="158" viewBox="0 0 226 158" version="1.1" xmlns="http://www.w3.org/2000/svg" xmlns:xlink="http://www.w3.org/1999/xlink"><rect width="226" height="158" fill="white"></rect><g fill="none" stroke-miterlimit="10" transform="translate(43,21)"><g class="mark-group role-frame root" role="graphics-object" aria-roledescription="group mark container"><g transform="translate(0,0)"><path class="background" aria-hidden="true" d="M0.5,0.5h130v100h-130Z" stroke="#ddd"></path><g><g class="mark-group role-axis" aria-hidden="true"><g transform="translate(0.5,100.5)"><path class="background" aria-hidden="true" d="M0,0h0v0h0Z" pointer-events="none"></path><g><g class="mark-rule role-axis-grid" pointer-events="none"><line transform="translate(18,-100)" x2="0" y2="100" stroke="#ddd" stroke-width="1" opacity="1"></line><line transform="translate(47,-100)" x2="0" y2="100" stroke="#ddd" stroke-width="1" opacity="1"></line><line transform="translate(77,-100)" x2="0" y2="100" stroke="#ddd" stroke-width="1" opacity="1"></line><line transform="translate(106,-100)" x2="0" y2="100" stroke="#ddd" stroke-width="1" opacity="1"></line></g></g><path class="foreground" aria-hidden="true" d="" pointer-events="none" display="none"></path></g></g><g class="mark-group role-axis" aria-hidden="true"><g transform="translate(0.5,0.5)"><path class="background" aria-hidden="true" d="M0,0h0v0h0Z" pointer-events="none"></path><g><g class="mark-rule role-axis-grid" pointer-events="none"><line transform="translate(0,77)" x2="130" y2="0" stroke="#ddd" stroke-width="1" opacity="1"></line><line transform="translate(0,38)" x2="130" y2="0" stroke="#ddd" stroke-width="1" opacity="1"></line><line transform="translate(0,0)" x2="130" y2="0" stroke="#ddd" stroke-width="1" opacity="1"></line></g></g><path class="foreground" aria-hidden="true" d="" pointer-events="none" display="none"></path></g></g><g class="mark-group role-axis" role="graphics-symbol" aria-roledescription="axis" aria-label="X-axis titled 'Target Salience' for a linear scale with values from -0.8 to 1.4"><g transform="translate(0.5,100.5)"><path class="background" aria-hidden="true" d="M0,0h0v0h0Z" pointer-events="none"></path><g><g class="mark-rule role-axis-tick" pointer-events="none"><line transform="translate(18,0)" x2="0" y2="5" stroke="#888" stroke-width="1" opacity="1"></line><line transform="translate(47,0)" x2="0" y2="5" stroke="#888" stroke-width="1" opacity="1"></line><line transform="translate(77,0)" x2="0" y2="5" stroke="#888" stroke-width="1" opacity="1"></line><line transform="translate(106,0)" x2="0" y2="5" stroke="#888" stroke-width="1" opacity="1"></line></g><g class="mark-text role-axis-label" pointer-events="none"><text text-anchor="middle" transform="translate(17.72727272727273,15)" font-family="sans-serif" font-size="10px" fill="#000" opacity="1">-0.5</text><text text-anchor="middle" transform="translate(47.27272727272727,15)" font-family="sans-serif" font-size="10px" fill="#000" opacity="1">0.0</text><text text-anchor="middle" transform="translate(76.81818181818181,15)" font-family="sans-serif" font-size="10px" fill="#000" opacity="1">0.5</text><text text-anchor="middle" transform="translate(106.36363636363636,15)" font-family="sans-serif" font-size="10px" fill="#000" opacity="1">1.0</text></g><g class="mark-rule role-axis-domain" pointer-events="none"><line transform="translate(0,0)" x2="130" y2="0" stroke="#888" stroke-width="1" opacity="1"></line></g><g class="mark-text role-axis-title" pointer-events="none"><text text-anchor="middle" transform="translate(65,30)" font-family="sans-serif" font-size="11px" font-weight="bold" fill="#000" opacity="1">Target Salience</text></g></g><path class="foreground" aria-hidden="true" d="" pointer-events="none" display="none"></path></g></g><g class="mark-group role-axis" role="graphics-symbol" aria-roledescription="axis" aria-label="Y-axis titled 'Decoding Correlation' for a linear scale with values from -0.06 to 0.20"><g transform="translate(0.5,0.5)"><path class="background" aria-hidden="true" d="M0,0h0v0h0Z" pointer-events="none"></path><g><g class="mark-rule role-axis-tick" pointer-events="none"><line transform="translate(0,77)" x2="-5" y2="0" stroke="#888" stroke-width="1" opacity="1"></line><line transform="translate(0,38)" x2="-5" y2="0" stroke="#888" stroke-width="1" opacity="1"></line><line transform="translate(0,0)" x2="-5" y2="0" stroke="#888" stroke-width="1" opacity="1"></line></g><g class="mark-text role-axis-label" pointer-events="none"><text text-anchor="end" transform="translate(-7,79.92307692307693)" font-family="sans-serif" font-size="10px" fill="#000" opacity="1">0.0</text><text text-anchor="end" transform="translate(-7,41.46153846153846)" font-family="sans-serif" font-size="10px" fill="#000" opacity="1">0.1</text><text text-anchor="end" transform="translate(-7,3)" font-family="sans-serif" font-size="10px" fill="#000" opacity="1">0.2</text></g><g class="mark-rule role-axis-domain" pointer-events="none"><line transform="translate(0,100)" x2="0" y2="-100" stroke="#888" stroke-width="1" opacity="1"></line></g><g class="mark-text role-axis-title" pointer-events="none"><text text-anchor="middle" transform="translate(-26,50) rotate(-90) translate(0,-2)" font-family="sans-serif" font-size="11px" font-weight="bold" fill="#000" opacity="1">Decoding Correlation</text></g></g><path class="foreground" aria-hidden="true" d="" pointer-events="none" display="none"></path></g></g><g class="mark-symbol role-mark layer_0_marks" role="graphics-object" aria-roledescription="symbol mark container"><path aria-label="salience: -0.515058134814; Mean of score: 0.121627515167; train_type: Other Sources" role="graphics-symbol" aria-roledescription="point" transform="translate(16.83747385191938,30.143263397435906)" d="M2.7386127875258306,0A2.7386127875258306,2.7386127875258306,0,1,1,-2.7386127875258306,0A2.7386127875258306,2.7386127875258306,0,1,1,2.7386127875258306,0" fill="#EEB257" stroke-width="2" opacity="0.6"></path><path aria-label="salience: -0.53226495908; Mean of score: 0.161345276895; train_type: Other Sources" role="graphics-symbol" aria-roledescription="point" transform="translate(15.820706963432743,14.867201194331992)" d="M2.7386127875258306,0A2.7386127875258306,2.7386127875258306,0,1,1,-2.7386127875258306,0A2.7386127875258306,2.7386127875258306,0,1,1,2.7386127875258306,0" fill="#EEB257" stroke-width="2" opacity="0.6"></path><path aria-label="salience: 0.0225330540876; Mean of score: -0.0183998892333; train_type: Other Sources" role="graphics-symbol" aria-roledescription="point" transform="translate(48.604225923356175,83.99995739743589)" d="M2.7386127875258306,0A2.7386127875258306,2.7386127875258306,0,1,1,-2.7386127875258306,0A2.7386127875258306,2.7386127875258306,0,1,1,2.7386127875258306,0" fill="#EEB257" stroke-width="2" opacity="0.6"></path><path aria-label="salience: 0.556663079523; Mean of score: 0.133176510517; train_type: Other Sources" role="graphics-symbol" aria-roledescription="point" transform="translate(80.16645469910387,25.701342108974355)" d="M2.7386127875258306,0A2.7386127875258306,2.7386127875258306,0,1,1,-2.7386127875258306,0A2.7386127875258306,2.7386127875258306,0,1,1,2.7386127875258306,0" fill="#EEB257" stroke-width="2" opacity="0.6"></path><path aria-label="salience: -0.0716042882046; Mean of score: 0.0866884287065; train_type: Other Sources" role="graphics-symbol" aria-roledescription="point" transform="translate(43.04156478791055,43.5813735744417)" d="M2.7386127875258306,0A2.7386127875258306,2.7386127875258306,0,1,1,-2.7386127875258306,0A2.7386127875258306,2.7386127875258306,0,1,1,2.7386127875258306,0" fill="#EEB257" stroke-width="2" opacity="0.6"></path><path aria-label="salience: -0.487385464085; Mean of score: 0.117053012187; train_type: Other Sources" role="graphics-symbol" aria-roledescription="point" transform="translate(18.472677122239837,31.902687620192328)" d="M2.7386127875258306,0A2.7386127875258306,2.7386127875258306,0,1,1,-2.7386127875258306,0A2.7386127875258306,2.7386127875258306,0,1,1,2.7386127875258306,0" fill="#EEB257" stroke-width="2" opacity="0.6"></path><path aria-label="salience: -0.432948496997; Mean of score: 0.0169052855238; train_type: Other Sources" role="graphics-symbol" aria-roledescription="point" transform="translate(21.689406995623667,70.42104402930404)" d="M2.7386127875258306,0A2.7386127875258306,2.7386127875258306,0,1,1,-2.7386127875258306,0A2.7386127875258306,2.7386127875258306,0,1,1,2.7386127875258306,0" fill="#EEB257" stroke-width="2" opacity="0.6"></path><path aria-label="salience: 0.32841270596; Mean of score: 0.00360096018276; train_type: Other Sources" role="graphics-symbol" aria-roledescription="point" transform="translate(66.67893262492409,75.53809223740053)" d="M2.7386127875258306,0A2.7386127875258306,2.7386127875258306,0,1,1,-2.7386127875258306,0A2.7386127875258306,2.7386127875258306,0,1,1,2.7386127875258306,0" fill="#EEB257" stroke-width="2" opacity="0.6"></path><path aria-label="salience: -0.405924702799; Mean of score: 0.0446170106818; train_type: Other Sources" role="graphics-symbol" aria-roledescription="point" transform="translate(23.286267561880997,59.762688199300705)" d="M2.7386127875258306,0A2.7386127875258306,2.7386127875258306,0,1,1,-2.7386127875258306,0A2.7386127875258306,2.7386127875258306,0,1,1,2.7386127875258306,0" fill="#EEB257" stroke-width="2" opacity="0.6"></path><path aria-label="salience: -0.042612204576; Mean of score: 0.00312944033333; train_type: Other Sources" role="graphics-symbol" aria-roledescription="point" transform="translate(44.75473336596465,75.71944602564102)" d="M2.7386127875258306,0A2.7386127875258306,2.7386127875258306,0,1,1,-2.7386127875258306,0A2.7386127875258306,2.7386127875258306,0,1,1,2.7386127875258306,0" fill="#EEB257" stroke-width="2" opacity="0.6"></path><path aria-label="salience: 0.358158981311; Mean of score: 0.0310421024688; train_type: Other Sources" role="graphics-symbol" aria-roledescription="point" transform="translate(68.4366670774556,64.98380674278846)" d="M2.7386127875258306,0A2.7386127875258306,2.7386127875258306,0,1,1,-2.7386127875258306,0A2.7386127875258306,2.7386127875258306,0,1,1,2.7386127875258306,0" fill="#EEB257" stroke-width="2" opacity="0.6"></path><path aria-label="salience: 0.648401830894; Mean of score: 0.0123910060645; train_type: Other Sources" role="graphics-symbol" aria-roledescription="point" transform="translate(85.58738091647515,72.1573053598015)" d="M2.7386127875258306,0A2.7386127875258306,2.7386127875258306,0,1,1,-2.7386127875258306,0A2.7386127875258306,2.7386127875258306,0,1,1,2.7386127875258306,0" fill="#EEB257" stroke-width="2" opacity="0.6"></path><path aria-label="salience: -0.334057072347; Mean of score: 0.110815314188; train_type: Other Sources" role="graphics-symbol" aria-roledescription="point" transform="translate(27.5329911794756,34.301802235576915)" d="M2.7386127875258306,0A2.7386127875258306,2.7386127875258306,0,1,1,-2.7386127875258306,0A2.7386127875258306,2.7386127875258306,0,1,1,2.7386127875258306,0" fill="#EEB257" stroke-width="2" opacity="0.6"></path><path aria-label="salience: 0.339585810845; Mean of score: 0.00787279150968; train_type: Other Sources" role="graphics-symbol" aria-roledescription="point" transform="translate(67.33916154993052,73.89508018858561)" d="M2.7386127875258306,0A2.7386127875258306,2.7386127875258306,0,1,1,-2.7386127875258306,0A2.7386127875258306,2.7386127875258306,0,1,1,2.7386127875258306,0" fill="#EEB257" stroke-width="2" opacity="0.6"></path><path aria-label="salience: 0.0574660316153; Mean of score: 0.0285171428032; train_type: Other Sources" role="graphics-symbol" aria-roledescription="point" transform="translate(50.6684473227198,65.95494507568237)" d="M2.7386127875258306,0A2.7386127875258306,2.7386127875258306,0,1,1,-2.7386127875258306,0A2.7386127875258306,2.7386127875258306,0,1,1,2.7386127875258306,0" fill="#EEB257" stroke-width="2" opacity="0.6"></path><path aria-label="salience: 1.17427513273; Mean of score: 0.00867313425278; train_type: Other Sources" role="graphics-symbol" aria-roledescription="point" transform="translate(116.66171238831495,73.58725605662393)" d="M2.7386127875258306,0A2.7386127875258306,2.7386127875258306,0,1,1,-2.7386127875258306,0A2.7386127875258306,2.7386127875258306,0,1,1,2.7386127875258306,0" fill="#EEB257" stroke-width="2" opacity="0.6"></path><path aria-label="salience: 0.888385937445; Mean of score: 0.000331341741667; train_type: Other Sources" role="graphics-symbol" aria-roledescription="point" transform="translate(99.768259939907,76.79563779166668)" d="M2.7386127875258306,0A2.7386127875258306,2.7386127875258306,0,1,1,-2.7386127875258306,0A2.7386127875258306,2.7386127875258306,0,1,1,2.7386127875258306,0" fill="#EEB257" stroke-width="2" opacity="0.6"></path><path aria-label="salience: -0.0712275841993; Mean of score: 0.0440998349714; train_type: Other Sources" role="graphics-symbol" aria-roledescription="point" transform="translate(43.06382457004084,59.96160193406593)" d="M2.7386127875258306,0A2.7386127875258306,2.7386127875258306,0,1,1,-2.7386127875258306,0A2.7386127875258306,2.7386127875258306,0,1,1,2.7386127875258306,0" fill="#EEB257" stroke-width="2" opacity="0.6"></path><path aria-label="salience: 0.117248915128; Mean of score: 0.0553268229932; train_type: Other Sources" role="graphics-symbol" aria-roledescription="point" transform="translate(54.20107225753462,55.643529618007)" d="M2.7386127875258306,0A2.7386127875258306,2.7386127875258306,0,1,1,-2.7386127875258306,0A2.7386127875258306,2.7386127875258306,0,1,1,2.7386127875258306,0" fill="#EEB257" stroke-width="2" opacity="0.6"></path><path aria-label="salience: -0.041048597334; Mean of score: 0.0443787863156; train_type: Other Sources" role="graphics-symbol" aria-roledescription="point" transform="translate(44.84712833935522,59.85431295555556)" d="M2.7386127875258306,0A2.7386127875258306,2.7386127875258306,0,1,1,-2.7386127875258306,0A2.7386127875258306,2.7386127875258306,0,1,1,2.7386127875258306,0" fill="#EEB257" stroke-width="2" opacity="0.6"></path><path aria-label="salience: 0.167790631404; Mean of score: 0.0424184083865; train_type: Other Sources" role="graphics-symbol" aria-roledescription="point" transform="translate(57.18762821934736,60.60830446673597)" d="M2.7386127875258306,0A2.7386127875258306,2.7386127875258306,0,1,1,-2.7386127875258306,0A2.7386127875258306,2.7386127875258306,0,1,1,2.7386127875258306,0" fill="#EEB257" stroke-width="2" opacity="0.6"></path><path aria-label="salience: 0.767933412903; Mean of score: 0.0151227571108; train_type: Other Sources" role="graphics-symbol" aria-roledescription="point" transform="translate(92.65061076244473,71.10663188045739)" d="M2.7386127875258306,0A2.7386127875258306,2.7386127875258306,0,1,1,-2.7386127875258306,0A2.7386127875258306,2.7386127875258306,0,1,1,2.7386127875258306,0" fill="#EEB257" stroke-width="2" opacity="0.6"></path><path aria-label="salience: 0.652917158145; Mean of score: -0.0175766827; train_type: Other Sources" role="graphics-symbol" aria-roledescription="point" transform="translate(85.85419570857154,83.6833395)" d="M2.7386127875258306,0A2.7386127875258306,2.7386127875258306,0,1,1,-2.7386127875258306,0A2.7386127875258306,2.7386127875258306,0,1,1,2.7386127875258306,0" fill="#EEB257" stroke-width="2" opacity="0.6"></path><path aria-label="salience: -0.103189662626; Mean of score: 0.124594663795; train_type: Other Sources" role="graphics-symbol" aria-roledescription="point" transform="translate(41.17515629937143,29.002052386587764)" d="M2.7386127875258306,0A2.7386127875258306,2.7386127875258306,0,1,1,-2.7386127875258306,0A2.7386127875258306,2.7386127875258306,0,1,1,2.7386127875258306,0" fill="#EEB257" stroke-width="2" opacity="0.6"></path><path aria-label="salience: -0.367962466824; Mean of score: 0.0748603108226; train_type: Other Sources" role="graphics-symbol" aria-roledescription="point" transform="translate(25.529490596741184,48.13064968362283)" d="M2.7386127875258306,0A2.7386127875258306,2.7386127875258306,0,1,1,-2.7386127875258306,0A2.7386127875258306,2.7386127875258306,0,1,1,2.7386127875258306,0" fill="#EEB257" stroke-width="2" opacity="0.6"></path><path aria-label="salience: -0.160786338677; Mean of score: 0.0234564880465; train_type: Other Sources" role="graphics-symbol" aria-roledescription="point" transform="translate(37.77171635091246,67.90135075134168)" d="M2.7386127875258306,0A2.7386127875258306,2.7386127875258306,0,1,1,-2.7386127875258306,0A2.7386127875258306,2.7386127875258306,0,1,1,2.7386127875258306,0" fill="#EEB257" stroke-width="2" opacity="0.6"></path><path aria-label="salience: -0.758594828302; Mean of score: 0.047977834617; train_type: Other Sources" role="graphics-symbol" aria-roledescription="point" transform="translate(2.4466692366875913,58.470063608837975)" d="M2.7386127875258306,0A2.7386127875258306,2.7386127875258306,0,1,1,-2.7386127875258306,0A2.7386127875258306,2.7386127875258306,0,1,1,2.7386127875258306,0" fill="#EEB257" stroke-width="2" opacity="0.6"></path><path aria-label="salience: -0.162240446512; Mean of score: 0.018901663331; train_type: Other Sources" role="graphics-symbol" aria-roledescription="point" transform="translate(37.68579179698923,69.65320641115385)" d="M2.7386127875258306,0A2.7386127875258306,2.7386127875258306,0,1,1,-2.7386127875258306,0A2.7386127875258306,2.7386127875258306,0,1,1,2.7386127875258306,0" fill="#EEB257" stroke-width="2" opacity="0.6"></path><path aria-label="salience: 0.0922271232568; Mean of score: 0.0438860529643; train_type: Other Sources" role="graphics-symbol" aria-roledescription="point" transform="translate(52.72251182880994,60.04382578296703)" d="M2.7386127875258306,0A2.7386127875258306,2.7386127875258306,0,1,1,-2.7386127875258306,0A2.7386127875258306,2.7386127875258306,0,1,1,2.7386127875258306,0" fill="#EEB257" stroke-width="2" opacity="0.6"></path><path aria-label="salience: -0.180908908803; Mean of score: 0.0023183242875; train_type: Other Sources" role="graphics-symbol" aria-roledescription="point" transform="translate(36.58265538888586,76.03141373557692)" d="M2.7386127875258306,0A2.7386127875258306,2.7386127875258306,0,1,1,-2.7386127875258306,0A2.7386127875258306,2.7386127875258306,0,1,1,2.7386127875258306,0" fill="#EEB257" stroke-width="2" opacity="0.6"></path><path aria-label="salience: 1.31263197398; Mean of score: 0.033327502835; train_type: Other Sources" role="graphics-symbol" aria-roledescription="point" transform="translate(124.83734391715483,64.10480660192309)" d="M2.7386127875258306,0A2.7386127875258306,2.7386127875258306,0,1,1,-2.7386127875258306,0A2.7386127875258306,2.7386127875258306,0,1,1,2.7386127875258306,0" fill="#EEB257" stroke-width="2" opacity="0.6"></path><path aria-label="salience: -0.520766979882; Mean of score: 0.0315984797758; train_type: Other Sources" role="graphics-symbol" aria-roledescription="point" transform="translate(16.500133007000855,64.7698154708502)" d="M2.7386127875258306,0A2.7386127875258306,2.7386127875258306,0,1,1,-2.7386127875258306,0A2.7386127875258306,2.7386127875258306,0,1,1,2.7386127875258306,0" fill="#EEB257" stroke-width="2" opacity="0.6"></path><path aria-label="salience: -0.117637390532; Mean of score: 0.0164015670793; train_type: Other Sources" role="graphics-symbol" aria-roledescription="point" transform="translate(40.32142692309361,70.61478189257295)" d="M2.7386127875258306,0A2.7386127875258306,2.7386127875258306,0,1,1,-2.7386127875258306,0A2.7386127875258306,2.7386127875258306,0,1,1,2.7386127875258306,0" fill="#EEB257" stroke-width="2" opacity="0.6"></path><path aria-label="salience: 1.31435369736; Mean of score: 0.0194241102829; train_type: Other Sources" role="graphics-symbol" aria-roledescription="point" transform="translate(124.93908211644661,69.45226527582417)" d="M2.7386127875258306,0A2.7386127875258306,2.7386127875258306,0,1,1,-2.7386127875258306,0A2.7386127875258306,2.7386127875258306,0,1,1,2.7386127875258306,0" fill="#EEB257" stroke-width="2" opacity="0.6"></path><path aria-label="salience: -0.533639358565; Mean of score: 0.0225368235391; train_type: Other Sources" role="graphics-symbol" aria-roledescription="point" transform="translate(15.73949244841545,68.25506786956522)" d="M2.7386127875258306,0A2.7386127875258306,2.7386127875258306,0,1,1,-2.7386127875258306,0A2.7386127875258306,2.7386127875258306,0,1,1,2.7386127875258306,0" fill="#EEB257" stroke-width="2" opacity="0.6"></path><path aria-label="salience: 0.747149350025; Mean of score: 0.0231829491933; train_type: Other Sources" role="graphics-symbol" aria-roledescription="point" transform="translate(91.42246159237136,68.0065580025641)" d="M2.7386127875258306,0A2.7386127875258306,2.7386127875258306,0,1,1,-2.7386127875258306,0A2.7386127875258306,2.7386127875258306,0,1,1,2.7386127875258306,0" fill="#EEB257" stroke-width="2" opacity="0.6"></path><path aria-label="salience: 0.16807812764; Mean of score: 0.0196908373757; train_type: Other Sources" role="graphics-symbol" aria-roledescription="point" transform="translate(57.20461663326427,69.34967793243243)" d="M2.7386127875258306,0A2.7386127875258306,2.7386127875258306,0,1,1,-2.7386127875258306,0A2.7386127875258306,2.7386127875258306,0,1,1,2.7386127875258306,0" fill="#EEB257" stroke-width="2" opacity="0.6"></path><path aria-label="salience: 0.813192634432; Mean of score: -0.0183811411805; train_type: Other Sources" role="graphics-symbol" aria-roledescription="point" transform="translate(95.32501930734384,83.99274660787546)" d="M2.7386127875258306,0A2.7386127875258306,2.7386127875258306,0,1,1,-2.7386127875258306,0A2.7386127875258306,2.7386127875258306,0,1,1,2.7386127875258306,0" fill="#EEB257" stroke-width="2" opacity="0.6"></path><path aria-label="salience: 0.966783103827; Mean of score: 0.0188005841452; train_type: Other Sources" role="graphics-symbol" aria-roledescription="point" transform="translate(104.40081977161111,69.6920830210918)" d="M2.7386127875258306,0A2.7386127875258306,2.7386127875258306,0,1,1,-2.7386127875258306,0A2.7386127875258306,2.7386127875258306,0,1,1,2.7386127875258306,0" fill="#EEB257" stroke-width="2" opacity="0.6"></path><path aria-label="salience: -0.0409083360273; Mean of score: 0.02999717945; train_type: Other Sources" role="graphics-symbol" aria-roledescription="point" transform="translate(44.855416507475404,65.38570021153846)" d="M2.7386127875258306,0A2.7386127875258306,2.7386127875258306,0,1,1,-2.7386127875258306,0A2.7386127875258306,2.7386127875258306,0,1,1,2.7386127875258306,0" fill="#EEB257" stroke-width="2" opacity="0.6"></path><path aria-label="salience: 0.0574660316153; Mean of score: 0.012662875171; train_type: Target Source" role="graphics-symbol" aria-roledescription="point" transform="translate(50.6684473227198,72.05274031885855)" d="M2.7386127875258306,0A2.7386127875258306,2.7386127875258306,0,1,1,-2.7386127875258306,0A2.7386127875258306,2.7386127875258306,0,1,1,2.7386127875258306,0" fill="#3E2716" stroke-width="2" opacity="0.6"></path><path aria-label="salience: 1.17427513273; Mean of score: 0.0485331430278; train_type: Target Source" role="graphics-symbol" aria-roledescription="point" transform="translate(116.66171238831495,58.2564834508547)" d="M2.7386127875258306,0A2.7386127875258306,2.7386127875258306,0,1,1,-2.7386127875258306,0A2.7386127875258306,2.7386127875258306,0,1,1,2.7386127875258306,0" fill="#3E2716" stroke-width="2" opacity="0.6"></path><path aria-label="salience: 0.888385937445; Mean of score: 0.0158229071556; train_type: Target Source" role="graphics-symbol" aria-roledescription="point" transform="translate(99.768259939907,70.8373434017094)" d="M2.7386127875258306,0A2.7386127875258306,2.7386127875258306,0,1,1,-2.7386127875258306,0A2.7386127875258306,2.7386127875258306,0,1,1,2.7386127875258306,0" fill="#3E2716" stroke-width="2" opacity="0.6"></path><path aria-label="salience: -0.0712275841993; Mean of score: 0.0310169929114; train_type: Target Source" role="graphics-symbol" aria-roledescription="point" transform="translate(43.06382457004084,64.99346426483517)" d="M2.7386127875258306,0A2.7386127875258306,2.7386127875258306,0,1,1,-2.7386127875258306,0A2.7386127875258306,2.7386127875258306,0,1,1,2.7386127875258306,0" fill="#3E2716" stroke-width="2" opacity="0.6"></path><path aria-label="salience: 0.117248915128; Mean of score: 0.107870840114; train_type: Target Source" role="graphics-symbol" aria-roledescription="point" transform="translate(54.20107225753462,35.43429226398601)" d="M2.7386127875258306,0A2.7386127875258306,2.7386127875258306,0,1,1,-2.7386127875258306,0A2.7386127875258306,2.7386127875258306,0,1,1,2.7386127875258306,0" fill="#3E2716" stroke-width="2" opacity="0.6"></path><path aria-label="salience: -0.041048597334; Mean of score: 0.0890889927711; train_type: Target Source" role="graphics-symbol" aria-roledescription="point" transform="translate(44.84712833935522,42.65807970341881)" d="M2.7386127875258306,0A2.7386127875258306,2.7386127875258306,0,1,1,-2.7386127875258306,0A2.7386127875258306,2.7386127875258306,0,1,1,2.7386127875258306,0" fill="#3E2716" stroke-width="2" opacity="0.6"></path><path aria-label="salience: 0.167790631404; Mean of score: 0.0183921691108; train_type: Target Source" role="graphics-symbol" aria-roledescription="point" transform="translate(57.18762821934736,69.84916572661123)" d="M2.7386127875258306,0A2.7386127875258306,2.7386127875258306,0,1,1,-2.7386127875258306,0A2.7386127875258306,2.7386127875258306,0,1,1,2.7386127875258306,0" fill="#3E2716" stroke-width="2" opacity="0.6"></path><path aria-label="salience: 0.767933412903; Mean of score: 0.0842492516324; train_type: Target Source" role="graphics-symbol" aria-roledescription="point" transform="translate(92.65061076244473,44.5195186029106)" d="M2.7386127875258306,0A2.7386127875258306,2.7386127875258306,0,1,1,-2.7386127875258306,0A2.7386127875258306,2.7386127875258306,0,1,1,2.7386127875258306,0" fill="#3E2716" stroke-width="2" opacity="0.6"></path><path aria-label="salience: 0.652917158145; Mean of score: -0.0405058484125; train_type: Target Source" role="graphics-symbol" aria-roledescription="point" transform="translate(85.85419570857154,92.50224938942307)" d="M2.7386127875258306,0A2.7386127875258306,2.7386127875258306,0,1,1,-2.7386127875258306,0A2.7386127875258306,2.7386127875258306,0,1,1,2.7386127875258306,0" fill="#3E2716" stroke-width="2" opacity="0.6"></path><path aria-label="salience: -0.103189662626; Mean of score: 0.199501229128; train_type: Target Source" role="graphics-symbol" aria-roledescription="point" transform="translate(41.17515629937143,0.1918349506903394)" d="M2.7386127875258306,0A2.7386127875258306,2.7386127875258306,0,1,1,-2.7386127875258306,0A2.7386127875258306,2.7386127875258306,0,1,1,2.7386127875258306,0" fill="#3E2716" stroke-width="2" opacity="0.6"></path><path aria-label="salience: -0.367962466824; Mean of score: 0.190435464161; train_type: Target Source" role="graphics-symbol" aria-roledescription="point" transform="translate(25.529490596741184,3.678667630272958)" d="M2.7386127875258306,0A2.7386127875258306,2.7386127875258306,0,1,1,-2.7386127875258306,0A2.7386127875258306,2.7386127875258306,0,1,1,2.7386127875258306,0" fill="#3E2716" stroke-width="2" opacity="0.6"></path><path aria-label="salience: -0.160786338677; Mean of score: 0.00926272654651; train_type: Target Source" role="graphics-symbol" aria-roledescription="point" transform="translate(37.77171635091246,73.36048978980322)" d="M2.7386127875258306,0A2.7386127875258306,2.7386127875258306,0,1,1,-2.7386127875258306,0A2.7386127875258306,2.7386127875258306,0,1,1,2.7386127875258306,0" fill="#3E2716" stroke-width="2" opacity="0.6"></path><path aria-label="salience: -0.758594828302; Mean of score: 0.0797069027447; train_type: Target Source" role="graphics-symbol" aria-roledescription="point" transform="translate(2.4466692366875913,46.26657586743045)" d="M2.7386127875258306,0A2.7386127875258306,2.7386127875258306,0,1,1,-2.7386127875258306,0A2.7386127875258306,2.7386127875258306,0,1,1,2.7386127875258306,0" fill="#3E2716" stroke-width="2" opacity="0.6"></path><path aria-label="salience: -0.162240446512; Mean of score: 0.0322323288147; train_type: Target Source" role="graphics-symbol" aria-roledescription="point" transform="translate(37.68579179698923,64.52602737895927)" d="M2.7386127875258306,0A2.7386127875258306,2.7386127875258306,0,1,1,-2.7386127875258306,0A2.7386127875258306,2.7386127875258306,0,1,1,2.7386127875258306,0" fill="#3E2716" stroke-width="2" opacity="0.6"></path><path aria-label="salience: 0.0922271232568; Mean of score: 0.0980996828179; train_type: Target Source" role="graphics-symbol" aria-roledescription="point" transform="translate(52.72251182880994,39.19242968543956)" d="M2.7386127875258306,0A2.7386127875258306,2.7386127875258306,0,1,1,-2.7386127875258306,0A2.7386127875258306,2.7386127875258306,0,1,1,2.7386127875258306,0" fill="#3E2716" stroke-width="2" opacity="0.6"></path><path aria-label="salience: -0.180908908803; Mean of score: -0.0077626990425; train_type: Target Source" role="graphics-symbol" aria-roledescription="point" transform="translate(36.58265538888586,79.90873040096153)" d="M2.7386127875258306,0A2.7386127875258306,2.7386127875258306,0,1,1,-2.7386127875258306,0A2.7386127875258306,2.7386127875258306,0,1,1,2.7386127875258306,0" fill="#3E2716" stroke-width="2" opacity="0.6"></path><path aria-label="salience: 1.31263197398; Mean of score: 0.0148500921225; train_type: Target Source" role="graphics-symbol" aria-roledescription="point" transform="translate(124.83734391715483,71.2115030298077)" d="M2.7386127875258306,0A2.7386127875258306,2.7386127875258306,0,1,1,-2.7386127875258306,0A2.7386127875258306,2.7386127875258306,0,1,1,2.7386127875258306,0" fill="#3E2716" stroke-width="2" opacity="0.6"></path><path aria-label="salience: -0.520766979882; Mean of score: 0.0661777403053; train_type: Target Source" role="graphics-symbol" aria-roledescription="point" transform="translate(16.500133007000855,51.4700998825911)" d="M2.7386127875258306,0A2.7386127875258306,2.7386127875258306,0,1,1,-2.7386127875258306,0A2.7386127875258306,2.7386127875258306,0,1,1,2.7386127875258306,0" fill="#3E2716" stroke-width="2" opacity="0.6"></path><path aria-label="salience: -0.117637390532; Mean of score: 0.0300418856724; train_type: Target Source" role="graphics-symbol" aria-roledescription="point" transform="translate(40.32142692309361,65.36850551061009)" d="M2.7386127875258306,0A2.7386127875258306,2.7386127875258306,0,1,1,-2.7386127875258306,0A2.7386127875258306,2.7386127875258306,0,1,1,2.7386127875258306,0" fill="#3E2716" stroke-width="2" opacity="0.6"></path><path aria-label="salience: 1.31435369736; Mean of score: 0.0408793279857; train_type: Target Source" role="graphics-symbol" aria-roledescription="point" transform="translate(124.93908211644661,61.20025846703297)" d="M2.7386127875258306,0A2.7386127875258306,2.7386127875258306,0,1,1,-2.7386127875258306,0A2.7386127875258306,2.7386127875258306,0,1,1,2.7386127875258306,0" fill="#3E2716" stroke-width="2" opacity="0.6"></path><path aria-label="salience: -0.533639358565; Mean of score: 0.0275529034067; train_type: Target Source" role="graphics-symbol" aria-roledescription="point" transform="translate(15.73949244841545,66.32580638202342)" d="M2.7386127875258306,0A2.7386127875258306,2.7386127875258306,0,1,1,-2.7386127875258306,0A2.7386127875258306,2.7386127875258306,0,1,1,2.7386127875258306,0" fill="#3E2716" stroke-width="2" opacity="0.6"></path><path aria-label="salience: 0.747149350025; Mean of score: 0.0272860656333; train_type: Target Source" role="graphics-symbol" aria-roledescription="point" transform="translate(91.42246159237136,66.4284362948718)" d="M2.7386127875258306,0A2.7386127875258306,2.7386127875258306,0,1,1,-2.7386127875258306,0A2.7386127875258306,2.7386127875258306,0,1,1,2.7386127875258306,0" fill="#3E2716" stroke-width="2" opacity="0.6"></path><path aria-label="salience: 0.16807812764; Mean of score: 0.00496403405405; train_type: Target Source" role="graphics-symbol" aria-roledescription="point" transform="translate(57.20461663326427,75.01383305613305)" d="M2.7386127875258306,0A2.7386127875258306,2.7386127875258306,0,1,1,-2.7386127875258306,0A2.7386127875258306,2.7386127875258306,0,1,1,2.7386127875258306,0" fill="#3E2716" stroke-width="2" opacity="0.6"></path><path aria-label="salience: 0.813192634432; Mean of score: 0.012399977381; train_type: Target Source" role="graphics-symbol" aria-roledescription="point" transform="translate(95.32501930734384,72.15385485347984)" d="M2.7386127875258306,0A2.7386127875258306,2.7386127875258306,0,1,1,-2.7386127875258306,0A2.7386127875258306,2.7386127875258306,0,1,1,2.7386127875258306,0" fill="#3E2716" stroke-width="2" opacity="0.6"></path><path aria-label="salience: -0.515058134814; Mean of score: 0.00197864991667; train_type: Target Source" role="graphics-symbol" aria-roledescription="point" transform="translate(16.83747385191938,76.16205772435897)" d="M2.7386127875258306,0A2.7386127875258306,2.7386127875258306,0,1,1,-2.7386127875258306,0A2.7386127875258306,2.7386127875258306,0,1,1,2.7386127875258306,0" fill="#3E2716" stroke-width="2" opacity="0.6"></path><path aria-label="salience: -0.53226495908; Mean of score: 0.0979151882842; train_type: Target Source" role="graphics-symbol" aria-roledescription="point" transform="translate(15.820706963432743,39.26338912145749)" d="M2.7386127875258306,0A2.7386127875258306,2.7386127875258306,0,1,1,-2.7386127875258306,0A2.7386127875258306,2.7386127875258306,0,1,1,2.7386127875258306,0" fill="#3E2716" stroke-width="2" opacity="0.6"></path><path aria-label="salience: 0.0225330540876; Mean of score: -0.00791395548333; train_type: Target Source" role="graphics-symbol" aria-roledescription="point" transform="translate(48.604225923356175,79.96690595512821)" d="M2.7386127875258306,0A2.7386127875258306,2.7386127875258306,0,1,1,-2.7386127875258306,0A2.7386127875258306,2.7386127875258306,0,1,1,2.7386127875258306,0" fill="#3E2716" stroke-width="2" opacity="0.6"></path><path aria-label="salience: 0.556663079523; Mean of score: 0.172514984222; train_type: Target Source" role="graphics-symbol" aria-roledescription="point" transform="translate(80.16645469910387,10.571159914529915)" d="M2.7386127875258306,0A2.7386127875258306,2.7386127875258306,0,1,1,-2.7386127875258306,0A2.7386127875258306,2.7386127875258306,0,1,1,2.7386127875258306,0" fill="#3E2716" stroke-width="2" opacity="0.6"></path><path aria-label="salience: -0.0716042882046; Mean of score: 0.195159342645; train_type: Target Source" role="graphics-symbol" aria-roledescription="point" transform="translate(43.04156478791055,1.8617912903225897)" d="M2.7386127875258306,0A2.7386127875258306,2.7386127875258306,0,1,1,-2.7386127875258306,0A2.7386127875258306,2.7386127875258306,0,1,1,2.7386127875258306,0" fill="#3E2716" stroke-width="2" opacity="0.6"></path><path aria-label="salience: -0.487385464085; Mean of score: 0.0842674240937; train_type: Target Source" role="graphics-symbol" aria-roledescription="point" transform="translate(18.472677122239837,44.51252919471155)" d="M2.7386127875258306,0A2.7386127875258306,2.7386127875258306,0,1,1,-2.7386127875258306,0A2.7386127875258306,2.7386127875258306,0,1,1,2.7386127875258306,0" fill="#3E2716" stroke-width="2" opacity="0.6"></path><path aria-label="salience: -0.432948496997; Mean of score: -0.0031590569; train_type: Target Source" role="graphics-symbol" aria-roledescription="point" transform="translate(21.689406995623667,78.13809880769232)" d="M2.7386127875258306,0A2.7386127875258306,2.7386127875258306,0,1,1,-2.7386127875258306,0A2.7386127875258306,2.7386127875258306,0,1,1,2.7386127875258306,0" fill="#3E2716" stroke-width="2" opacity="0.6"></path><path aria-label="salience: 0.32841270596; Mean of score: 0.0212997381966; train_type: Target Source" role="graphics-symbol" aria-roledescription="point" transform="translate(66.67893262492409,68.73086992440318)" d="M2.7386127875258306,0A2.7386127875258306,2.7386127875258306,0,1,1,-2.7386127875258306,0A2.7386127875258306,2.7386127875258306,0,1,1,2.7386127875258306,0" fill="#3E2716" stroke-width="2" opacity="0.6"></path><path aria-label="salience: -0.405924702799; Mean of score: 0.188044575227; train_type: Target Source" role="graphics-symbol" aria-roledescription="point" transform="translate(23.286267561880997,4.598240297202816)" d="M2.7386127875258306,0A2.7386127875258306,2.7386127875258306,0,1,1,-2.7386127875258306,0A2.7386127875258306,2.7386127875258306,0,1,1,2.7386127875258306,0" fill="#3E2716" stroke-width="2" opacity="0.6"></path><path aria-label="salience: -0.042612204576; Mean of score: 0.1020933588; train_type: Target Source" role="graphics-symbol" aria-roledescription="point" transform="translate(44.75473336596465,37.65640046153847)" d="M2.7386127875258306,0A2.7386127875258306,2.7386127875258306,0,1,1,-2.7386127875258306,0A2.7386127875258306,2.7386127875258306,0,1,1,2.7386127875258306,0" fill="#3E2716" stroke-width="2" opacity="0.6"></path><path aria-label="salience: 0.358158981311; Mean of score: 0.07620144155; train_type: Target Source" role="graphics-symbol" aria-roledescription="point" transform="translate(68.4366670774556,47.61483017307692)" d="M2.7386127875258306,0A2.7386127875258306,2.7386127875258306,0,1,1,-2.7386127875258306,0A2.7386127875258306,2.7386127875258306,0,1,1,2.7386127875258306,0" fill="#3E2716" stroke-width="2" opacity="0.6"></path><path aria-label="salience: 0.648401830894; Mean of score: -0.0116420762419; train_type: Target Source" role="graphics-symbol" aria-roledescription="point" transform="translate(85.58738091647515,81.40079855459057)" d="M2.7386127875258306,0A2.7386127875258306,2.7386127875258306,0,1,1,-2.7386127875258306,0A2.7386127875258306,2.7386127875258306,0,1,1,2.7386127875258306,0" fill="#3E2716" stroke-width="2" opacity="0.6"></path><path aria-label="salience: -0.334057072347; Mean of score: 0.1317101265; train_type: Target Source" role="graphics-symbol" aria-roledescription="point" transform="translate(27.5329911794756,26.26533596153846)" d="M2.7386127875258306,0A2.7386127875258306,2.7386127875258306,0,1,1,-2.7386127875258306,0A2.7386127875258306,2.7386127875258306,0,1,1,2.7386127875258306,0" fill="#3E2716" stroke-width="2" opacity="0.6"></path><path aria-label="salience: 0.339585810845; Mean of score: 0.0413513709129; train_type: Target Source" role="graphics-symbol" aria-roledescription="point" transform="translate(67.33916154993052,61.018703495037215)" d="M2.7386127875258306,0A2.7386127875258306,2.7386127875258306,0,1,1,-2.7386127875258306,0A2.7386127875258306,2.7386127875258306,0,1,1,2.7386127875258306,0" fill="#3E2716" stroke-width="2" opacity="0.6"></path><path aria-label="salience: 0.966783103827; Mean of score: 0.0375650879581; train_type: Target Source" role="graphics-symbol" aria-roledescription="point" transform="translate(104.40081977161111,62.47496616997519)" d="M2.7386127875258306,0A2.7386127875258306,2.7386127875258306,0,1,1,-2.7386127875258306,0A2.7386127875258306,2.7386127875258306,0,1,1,2.7386127875258306,0" fill="#3E2716" stroke-width="2" opacity="0.6"></path><path aria-label="salience: -0.0409083360273; Mean of score: -0.054687851625; train_type: Target Source" role="graphics-symbol" aria-roledescription="point" transform="translate(44.855416507475404,97.95686600961538)" d="M2.7386127875258306,0A2.7386127875258306,2.7386127875258306,0,1,1,-2.7386127875258306,0A2.7386127875258306,2.7386127875258306,0,1,1,2.7386127875258306,0" fill="#3E2716" stroke-width="2" opacity="0.6"></path></g><g class="mark-group role-scope layer_1_pathgroup" role="graphics-object" aria-roledescription="group mark container"><g transform="translate(0,0)"><path class="background" aria-hidden="true" d="M0,0h130v100h-130Z"></path><g><g class="mark-line role-mark layer_1_marks" role="graphics-object" aria-roledescription="line mark container"><path aria-label="train_type: Other Sources; salience: -0.758594828302; score: 0.0611349730099" role="graphics-symbol" aria-roledescription="line mark" d="M2.4466692366875913,53.40962576542212L124.93908211644661,74.17023939138261" stroke="#EEB257" stroke-width="2"></path></g></g><path class="foreground" aria-hidden="true" d="" display="none"></path></g><g transform="translate(0,0)"><path class="background" aria-hidden="true" d="M0,0h130v100h-130Z"></path><g><g class="mark-line role-mark layer_1_marks" role="graphics-object" aria-roledescription="line mark container"><path aria-label="train_type: Target Source; salience: -0.758594828302; score: 0.0835343319995" role="graphics-symbol" aria-roledescription="line mark" d="M2.4466692366875913,44.79448769251354L124.93908211644661,67.46592503471433" stroke="#3E2716" stroke-width="2"></path></g></g><path class="foreground" aria-hidden="true" d="" display="none"></path></g></g><g class="mark-text role-mark layer_2_marks" role="graphics-object" aria-roledescription="text mark container"><text aria-label="Target Salience: 1.31435369736; Decoding Correlation: 0.0245885949097; train_type_label: Target,Source; train_type: Target Source" role="graphics-symbol" aria-roledescription="text mark" text-anchor="start" transform="translate(132.93908211644663,57.46592503471433)" font-family="sans-serif" font-size="11px" fill="#3E2716"><tspan>Target</tspan><tspan x="0" dy="13">Source</tspan></text></g><g class="mark-text role-mark layer_3_marks" role="graphics-object" aria-roledescription="text mark container"><text aria-label="salience: 1.31435369736; Decoding Correlation: 0.00715737758241; train_type_label: Other,Sources; train_type: Other Sources" role="graphics-symbol" aria-roledescription="text mark" text-anchor="start" transform="translate(132.93908211644663,83.17023939138261)" font-family="sans-serif" font-size="11px" fill="#EEB257"><tspan>Other</tspan><tspan x="0" dy="13">Sources</tspan></text></g></g><path class="foreground" aria-hidden="true" d="" display="none"></path></g></g></g></svg>
