<?xml version="1.0" encoding="utf-8"?>
<!DOCTYPE svg PUBLIC "-//W3C//DTD SVG 1.1//EN" "http://www.w3.org/Graphics/SVG/1.1/DTD/svg11.dtd">
<svg class="marks" width="562" height="312" viewBox="0 0 562 312" version="1.1" xmlns="http://www.w3.org/2000/svg" xmlns:xlink="http://www.w3.org/1999/xlink"><rect width="562" height="312" fill="white"></rect><g fill="none" stroke-miterlimit="10" transform="translate(44,74)"><g class="mark-group role-frame root" role="graphics-object" aria-roledescription="group mark container"><g transform="translate(0,0)"><path class="background" aria-hidden="true" d="M0,0h0v0h0Z"></path><g><g class="mark-group role-column-title column-title" role="graphics-object" aria-roledescription="group mark container"><g transform="translate(253,-31)"><path class="background" aria-hidden="true" d="M0,0h0v0h0Z"></path><g><g class="mark-group role-title"><g transform="translate(0,-21)"><path class="background" aria-hidden="true" d="M0,0h0v0h0Z" pointer-events="none"></path><g><g class="mark-text role-title-text" role="graphics-symbol" aria-roledescription="title" aria-label="Title text 'hittype'" pointer-events="none"><text text-anchor="middle" transform="translate(0,9)" font-family="sans-serif" font-size="11px" font-weight="bold" fill="#000" opacity="1">hittype</text></g></g><path class="foreground" aria-hidden="true" d="" pointer-events="none" display="none"></path></g></g></g><path class="foreground" aria-hidden="true" d="" display="none"></path></g></g><g class="mark-group role-row-header row_header" role="graphics-object" aria-roledescription="group mark container"><g transform="translate(-7,0)"><path class="background" aria-hidden="true" d="M0,0h0v200h0Z"></path><g><g class="mark-group role-axis" role="graphics-symbol" aria-roledescription="axis" aria-label="Y-axis titled 'Full - Null Model (logit scale)' for a linear scale with values from -2 to 4"><g transform="translate(0.5,0.5)"><path class="background" aria-hidden="true" d="M0,0h0v0h0Z" pointer-events="none"></path><g><g class="mark-rule role-axis-tick" pointer-events="none"><line transform="translate(0,200)" x2="-5" y2="0" stroke="#888" stroke-width="1" opacity="1"></line><line transform="translate(0,164)" x2="-5" y2="0" stroke="#888" stroke-width="1" opacity="1"></line><line transform="translate(0,127)" x2="-5" y2="0" stroke="#888" stroke-width="1" opacity="1"></line><line transform="translate(0,91)" x2="-5" y2="0" stroke="#888" stroke-width="1" opacity="1"></line><line transform="translate(0,55)" x2="-5" y2="0" stroke="#888" stroke-width="1" opacity="1"></line><line transform="translate(0,18)" x2="-5" y2="0" stroke="#888" stroke-width="1" opacity="1"></line></g><g class="mark-text role-axis-label" pointer-events="none"><text text-anchor="end" transform="translate(-7,203)" font-family="sans-serif" font-size="10px" fill="#000" opacity="1">-2</text><text text-anchor="end" transform="translate(-7,166.63636363636363)" font-family="sans-serif" font-size="10px" fill="#000" opacity="1">-1</text><text text-anchor="end" transform="translate(-7,130.27272727272725)" font-family="sans-serif" font-size="10px" fill="#000" opacity="1">0</text><text text-anchor="end" transform="translate(-7,93.90909090909092)" font-family="sans-serif" font-size="10px" fill="#000" opacity="1">1</text><text text-anchor="end" transform="translate(-7,57.54545454545454)" font-family="sans-serif" font-size="10px" fill="#000" opacity="1">2</text><text text-anchor="end" transform="translate(-7,21.181818181818187)" font-family="sans-serif" font-size="10px" fill="#000" opacity="1">3</text></g><g class="mark-rule role-axis-domain" pointer-events="none"><line transform="translate(0,200)" x2="0" y2="-200" stroke="#888" stroke-width="1" opacity="1"></line></g><g class="mark-text role-axis-title" pointer-events="none"><text text-anchor="middle" transform="translate(-21,100) rotate(-90) translate(0,-2)" font-family="sans-serif" font-size="11px" font-weight="bold" fill="#000" opacity="1">Full - Null Model (logit scale)</text></g></g><path class="foreground" aria-hidden="true" d="" pointer-events="none" display="none"></path></g></g></g><path class="foreground" aria-hidden="true" d="" display="none"></path></g></g><g class="mark-group role-column-header column_header" role="graphics-object" aria-roledescription="group mark container"><g transform="translate(0,-1)"><path class="background" aria-hidden="true" d="M0,0h200v0h-200Z"></path><g><g class="mark-group role-title"><g transform="translate(100,-20)"><path class="background" aria-hidden="true" d="M0,0h0v0h0Z" pointer-events="none"></path><g><g class="mark-text role-title-text" role="graphics-symbol" aria-roledescription="title" aria-label="Title text 'hit'" pointer-events="none"><text text-anchor="middle" transform="translate(0,8)" font-family="sans-serif" font-size="10px" fill="#000" opacity="1">hit</text></g></g><path class="foreground" aria-hidden="true" d="" pointer-events="none" display="none"></path></g></g></g><path class="foreground" aria-hidden="true" d="" display="none"></path></g><g transform="translate(270,-1)"><path class="background" aria-hidden="true" d="M0,0h200v0h-200Z"></path><g><g class="mark-group role-title"><g transform="translate(100,-20)"><path class="background" aria-hidden="true" d="M0,0h0v0h0Z" pointer-events="none"></path><g><g class="mark-text role-title-text" role="graphics-symbol" aria-roledescription="title" aria-label="Title text 'miss'" pointer-events="none"><text text-anchor="middle" transform="translate(0,8)" font-family="sans-serif" font-size="10px" fill="#000" opacity="1">miss</text></g></g><path class="foreground" aria-hidden="true" d="" pointer-events="none" display="none"></path></g></g></g><path class="foreground" aria-hidden="true" d="" display="none"></path></g></g><g class="mark-group role-column-footer column_footer" role="graphics-object" aria-roledescription="group mark container"><g transform="translate(0,201)"><path class="background" aria-hidden="true" d="M0,0h200v0h-200Z"></path><g><g class="mark-group role-axis" role="graphics-symbol" aria-roledescription="axis" aria-label="X-axis titled 'Time (s) Relative to Target Onset' for a linear scale with values from 0.0 to 3.0"><g transform="translate(0.5,0.5)"><path class="background" aria-hidden="true" d="M0,0h0v0h0Z" pointer-events="none"></path><g><g class="mark-rule role-axis-tick" pointer-events="none"><line transform="translate(0,0)" x2="0" y2="5" stroke="#888" stroke-width="1" opacity="1"></line><line transform="translate(33,0)" x2="0" y2="5" stroke="#888" stroke-width="1" opacity="1"></line><line transform="translate(67,0)" x2="0" y2="5" stroke="#888" stroke-width="1" opacity="1"></line><line transform="translate(100,0)" x2="0" y2="5" stroke="#888" stroke-width="1" opacity="1"></line><line transform="translate(133,0)" x2="0" y2="5" stroke="#888" stroke-width="1" opacity="1"></line><line transform="translate(167,0)" x2="0" y2="5" stroke="#888" stroke-width="1" opacity="1"></line><line transform="translate(200,0)" x2="0" y2="5" stroke="#888" stroke-width="1" opacity="1"></line></g><g class="mark-text role-axis-label" pointer-events="none"><text text-anchor="start" transform="translate(0,15)" font-family="sans-serif" font-size="10px" fill="#000" opacity="1">0.0</text><text text-anchor="middle" transform="translate(33.33333333333333,15)" font-family="sans-serif" font-size="10px" fill="#000" opacity="1">0.5</text><text text-anchor="middle" transform="translate(66.66666666666666,15)" font-family="sans-serif" font-size="10px" fill="#000" opacity="1">1.0</text><text text-anchor="middle" transform="translate(100,15)" font-family="sans-serif" font-size="10px" fill="#000" opacity="1">1.5</text><text text-anchor="middle" transform="translate(133.33333333333331,15)" font-family="sans-serif" font-size="10px" fill="#000" opacity="1">2.0</text><text text-anchor="middle" transform="translate(166.66666666666669,15)" font-family="sans-serif" font-size="10px" fill="#000" opacity="1">2.5</text><text text-anchor="end" transform="translate(200,15)" font-family="sans-serif" font-size="10px" fill="#000" opacity="1">3.0</text></g><g class="mark-rule role-axis-domain" pointer-events="none"><line transform="translate(0,0)" x2="200" y2="0" stroke="#888" stroke-width="1" opacity="1"></line></g><g class="mark-text role-axis-title" pointer-events="none"><text text-anchor="middle" transform="translate(100,30)" font-family="sans-serif" font-size="11px" font-weight="bold" fill="#000" opacity="1">Time (s) Relative to Target Onset</text></g></g><path class="foreground" aria-hidden="true" d="" pointer-events="none" display="none"></path></g></g></g><path class="foreground" aria-hidden="true" d="" display="none"></path></g><g transform="translate(270,201)"><path class="background" aria-hidden="true" d="M0,0h200v0h-200Z"></path><g><g class="mark-group role-axis" role="graphics-symbol" aria-roledescription="axis" aria-label="X-axis titled 'Time (s) Relative to Target Onset' for a linear scale with values from 0.0 to 3.0"><g transform="translate(0.5,0.5)"><path class="background" aria-hidden="true" d="M0,0h0v0h0Z" pointer-events="none"></path><g><g class="mark-rule role-axis-tick" pointer-events="none"><line transform="translate(0,0)" x2="0" y2="5" stroke="#888" stroke-width="1" opacity="1"></line><line transform="translate(33,0)" x2="0" y2="5" stroke="#888" stroke-width="1" opacity="1"></line><line transform="translate(67,0)" x2="0" y2="5" stroke="#888" stroke-width="1" opacity="1"></line><line transform="translate(100,0)" x2="0" y2="5" stroke="#888" stroke-width="1" opacity="1"></line><line transform="translate(133,0)" x2="0" y2="5" stroke="#888" stroke-width="1" opacity="1"></line><line transform="translate(167,0)" x2="0" y2="5" stroke="#888" stroke-width="1" opacity="1"></line><line transform="translate(200,0)" x2="0" y2="5" stroke="#888" stroke-width="1" opacity="1"></line></g><g class="mark-text role-axis-label" pointer-events="none"><text text-anchor="start" transform="translate(0,15)" font-family="sans-serif" font-size="10px" fill="#000" opacity="1">0.0</text><text text-anchor="middle" transform="translate(33.33333333333333,15)" font-family="sans-serif" font-size="10px" fill="#000" opacity="1">0.5</text><text text-anchor="middle" transform="translate(66.66666666666666,15)" font-family="sans-serif" font-size="10px" fill="#000" opacity="1">1.0</text><text text-anchor="middle" transform="translate(100,15)" font-family="sans-serif" font-size="10px" fill="#000" opacity="1">1.5</text><text text-anchor="middle" transform="translate(133.33333333333331,15)" font-family="sans-serif" font-size="10px" fill="#000" opacity="1">2.0</text><text text-anchor="middle" transform="translate(166.66666666666669,15)" font-family="sans-serif" font-size="10px" fill="#000" opacity="1">2.5</text><text text-anchor="end" transform="translate(200,15)" font-family="sans-serif" font-size="10px" fill="#000" opacity="1">3.0</text></g><g class="mark-rule role-axis-domain" pointer-events="none"><line transform="translate(0,0)" x2="200" y2="0" stroke="#888" stroke-width="1" opacity="1"></line></g><g class="mark-text role-axis-title" pointer-events="none"><text text-anchor="middle" transform="translate(100,30)" font-family="sans-serif" font-size="11px" font-weight="bold" fill="#000" opacity="1">Time (s) Relative to Target Onset</text></g></g><path class="foreground" aria-hidden="true" d="" pointer-events="none" display="none"></path></g></g></g><path class="foreground" aria-hidden="true" d="" display="none"></path></g></g><g class="mark-group role-scope cell" role="graphics-object" aria-roledescription="group mark container"><g transform="translate(0,0)"><path class="background" aria-hidden="true" d="M0.5,0.5h200v200h-200Z" stroke="#ddd"></path><g><g class="mark-group role-axis" aria-hidden="true"><g transform="translate(0.5,200.5)"><path class="background" aria-hidden="true" d="M0,0h0v0h0Z" pointer-events="none"></path><g><g class="mark-rule role-axis-grid" pointer-events="none"><line transform="translate(0,-200)" x2="0" y2="200" stroke="#ddd" stroke-width="1" opacity="1"></line><line transform="translate(33,-200)" x2="0" y2="200" stroke="#ddd" stroke-width="1" opacity="1"></line><line transform="translate(67,-200)" x2="0" y2="200" stroke="#ddd" stroke-width="1" opacity="1"></line><line transform="translate(100,-200)" x2="0" y2="200" stroke="#ddd" stroke-width="1" opacity="1"></line><line transform="translate(133,-200)" x2="0" y2="200" stroke="#ddd" stroke-width="1" opacity="1"></line><line transform="translate(167,-200)" x2="0" y2="200" stroke="#ddd" stroke-width="1" opacity="1"></line><line transform="translate(200,-200)" x2="0" y2="200" stroke="#ddd" stroke-width="1" opacity="1"></line></g></g><path class="foreground" aria-hidden="true" d="" pointer-events="none" display="none"></path></g></g><g class="mark-group role-axis" aria-hidden="true"><g transform="translate(0.5,0.5)"><path class="background" aria-hidden="true" d="M0,0h0v0h0Z" pointer-events="none"></path><g><g class="mark-rule role-axis-grid" pointer-events="none"><line transform="translate(0,200)" x2="200" y2="0" stroke="#ddd" stroke-width="1" opacity="1"></line><line transform="translate(0,164)" x2="200" y2="0" stroke="#ddd" stroke-width="1" opacity="1"></line><line transform="translate(0,127)" x2="200" y2="0" stroke="#ddd" stroke-width="1" opacity="1"></line><line transform="translate(0,91)" x2="200" y2="0" stroke="#ddd" stroke-width="1" opacity="1"></line><line transform="translate(0,55)" x2="200" y2="0" stroke="#ddd" stroke-width="1" opacity="1"></line><line transform="translate(0,18)" x2="200" y2="0" stroke="#ddd" stroke-width="1" opacity="1"></line></g></g><path class="foreground" aria-hidden="true" d="" pointer-events="none" display="none"></path></g></g><g class="mark-group role-scope child_layer_0_pathgroup" role="graphics-object" aria-roledescription="group mark container"><g transform="translate(0,0)"><path class="background" aria-hidden="true" d="M0,0h200v200h-200Z"></path><g><g class="mark-line role-mark child_layer_0_marks" role="graphics-object" aria-roledescription="line mark container"><path aria-label="condition: global; Time (s) Relative to Target Onset: 0; Full - Null Model (logit scale): 0.427618322549" role="graphics-symbol" aria-roledescription="line mark" d="M0,111.72297008914005L3.1746031746031744,113.43876875605775L6.349206349206349,112.58088477426398L9.523809523809524,113.24524619492652L12.698412698412698,111.43375521268055L15.873015873015872,112.05471945950816L19.047619047619047,114.39912662784626L22.22222222222222,110.66991170042981L25.396825396825395,113.54754595640249L28.57142857142857,109.05385116242638L31.746031746031743,110.18879628913302L34.920634920634924,110.55745677242128L38.095238095238095,109.59787398616373L41.26984126984127,108.1558827903998L44.44444444444444,107.62128640775882L47.61904761904762,108.41865613647421L50.79365079365079,106.3238948850418L53.96825396825397,100.86051324287575L57.14285714285714,101.10154530287798L60.317460317460316,98.69654576181696L63.49206349206349,92.76330373512913L66.66666666666666,82.71656927042285L69.84126984126985,81.85403926016501L73.01587301587303,83.6633573900154L76.19047619047619,78.80690386812985L79.36507936507937,78.04984694319008L82.53968253968254,70.06787963719228L85.71428571428572,76.60476217868688L88.88888888888889,68.19735570157377L92.06349206349206,74.02760929621665L95.23809523809524,69.30527012180147L98.41269841269842,65.88987520005239L101.58730158730158,64.02034680242876L104.76190476190477,61.730775163848996L107.93650793650794,59.76853396447819L111.11111111111111,59.44056842069925L114.28571428571428,58.65118478701268L117.46031746031747,53.75102381907999L120.63492063492063,54.41089238295602L123.80952380952381,47.27314795276136L126.98412698412697,47.731265326134256L130.15873015873015,48.50895481252366L133.33333333333331,41.6263026880725L136.50793650793648,38.64305876389344L139.6825396825397,38.90752302185354L142.85714285714286,37.59533337779119L146.03174603174605,40.873917212721466L149.20634920634922,31.559218277048995L152.38095238095238,27.072160365285434L155.55555555555557,23.66484879847517L158.73015873015873,21.706215718373436L161.9047619047619,21.706215718373436L165.0793650793651,22.661042686037682L168.25396825396825,24.091490562331906L171.42857142857144,24.212346919133342L174.6031746031746,28.18011001472065L177.77777777777777,25.275299532311756L180.95238095238096,24.33027660108089L184.12698412698413,24.852760748986146L187.3015873015873,27.227684648632653L190.47619047619048,24.98776510066001L193.65079365079364,22.725193758004348L196.82539682539684,31.7893187320337L200,30.75925823513814" stroke="#4c78a8" stroke-width="2"></path></g></g><path class="foreground" aria-hidden="true" d="" display="none"></path></g><g transform="translate(0,0)"><path class="background" aria-hidden="true" d="M0,0h200v200h-200Z"></path><g><g class="mark-line role-mark child_layer_0_marks" role="graphics-object" aria-roledescription="line mark container"><path aria-label="condition: object; Time (s) Relative to Target Onset: 0; Full - Null Model (logit scale): 0.0739910002116" role="graphics-symbol" aria-roledescription="line mark" d="M0,124.58214544685262L3.1746031746031744,122.18143856332935L6.349206349206349,121.40631839297527L9.523809523809524,121.48954934436227L12.698412698412698,119.2536946688924L15.873015873015872,124.21917626799099L19.047619047619047,124.99391199744979L22.22222222222222,124.00737401169368L25.396825396825395,124.81674012212562L28.57142857142857,125.23722173600889L31.746031746031743,117.72740403878466L34.920634920634924,116.38396106946023L38.095238095238095,120.81999397685219L41.26984126984127,122.64250846754177L44.44444444444444,124.90652379094928L47.61904761904762,124.4830662383145L50.79365079365079,132.39514526141795L53.96825396825397,133.72441702913835L57.14285714285714,132.53469610154565L60.317460317460316,130.54456495771714L63.49206349206349,131.52037003198035L66.66666666666666,130.99753989641405L69.84126984126985,131.98111962965837L73.01587301587303,130.90903805036734L76.19047619047619,128.9974564998404L79.36507936507937,130.00026145805893L82.53968253968254,130.21752292458663L85.71428571428572,130.78786358066824L88.88888888888889,129.9241705797273L92.06349206349206,128.98264664619353L95.23809523809524,129.90590589641172L98.41269841269842,130.72295607591013L101.58730158730158,129.2482956940109L104.76190476190477,130.38593830309262L107.93650793650794,130.01878992119043L111.11111111111111,129.561918420358L114.28571428571428,120.15403661052729L117.46031746031747,120.3690210804242L120.63492063492063,118.35404567405554L123.80952380952381,116.53305270748598L126.98412698412697,117.90370633923004L130.15873015873015,122.00431687337456L133.33333333333331,121.79984852963331L136.50793650793648,120.67286438934796L139.6825396825397,119.08120612609878L142.85714285714286,119.53527345054684L146.03174603174605,118.17098720901855L149.20634920634922,108.9784984027709L152.38095238095238,102.19780953494481L155.55555555555557,102.97894395226194L158.73015873015873,103.40277498981685L161.9047619047619,103.13930352623805L165.0793650793651,100.43848995988527L168.25396825396825,98.12017942196923L171.42857142857144,97.08912493422537L174.6031746031746,96.5787394857931L177.77777777777777,95.93078430040103L180.95238095238096,93.6530628584985L184.12698412698413,86.5205370547266L187.3015873015873,90.24984569623109L190.47619047619048,91.12644129716143L193.65079365079364,91.08976831130357L196.82539682539684,90.75466341873295L200,87.71803932041821" stroke="#f58518" stroke-width="2"></path></g></g><path class="foreground" aria-hidden="true" d="" display="none"></path></g><g transform="translate(0,0)"><path class="background" aria-hidden="true" d="M0,0h200v200h-200Z"></path><g><g class="mark-line role-mark child_layer_0_marks" role="graphics-object" aria-roledescription="line mark container"><path aria-label="condition: spatial; Time (s) Relative to Target Onset: 0; Full - Null Model (logit scale): -0.157861831936" role="graphics-symbol" aria-roledescription="line mark" d="M0,133.01315752495864L3.1746031746031744,133.01315752495864L6.349206349206349,135.19915784184252L9.523809523809524,136.22134105571263L12.698412698412698,136.22134105571263L15.873015873015872,136.1446263317399L19.047619047619047,136.3986699093172L22.22222222222222,135.80393651273636L25.396825396825395,134.66703248608383L28.57142857142857,134.66703248608383L31.746031746031743,135.57876242514206L34.920634920634924,134.4412727089436L38.095238095238095,136.1417145774826L41.26984126984127,136.95526143285042L44.44444444444444,141.51532676640767L47.61904761904762,137.0701180298708L50.79365079365079,140.32946231433897L53.96825396825397,140.07250698250436L57.14285714285714,141.58846481485838L60.317460317460316,136.03267545863596L63.49206349206349,135.73049566704188L66.66666666666666,140.57622922705013L69.84126984126985,136.52411109112822L73.01587301587303,139.59283050954207L76.19047619047619,135.74166458275033L79.36507936507937,135.74166458275033L82.53968253968254,136.45450943175393L85.71428571428572,136.97817314171076L88.88888888888889,141.71801689322336L92.06349206349206,141.16444494050344L95.23809523809524,135.9856188980372L98.41269841269842,136.2735415760556L101.58730158730158,136.5391908507571L104.76190476190477,132.24688875537802L107.93650793650794,131.2754256418939L111.11111111111111,129.83713959577713L114.28571428571428,130.15629976591862L117.46031746031747,130.444222443937L120.63492063492063,125.43956284932358L123.80952380952381,124.96955509688155L126.98412698412697,122.8040421439228L130.15873015873015,123.49749198976521L133.33333333333331,122.1578696269363L136.50793650793648,120.85770644711134L139.6825396825397,120.65599799783824L142.85714285714286,120.77706240108228L146.03174603174605,120.68457375484662L149.20634920634922,121.18959975460601L152.38095238095238,118.25832534273827L155.55555555555557,118.52397461743979L158.73015873015873,118.6309840738669L161.9047619047619,118.83927267544436L165.0793650793651,117.2067516322097L168.25396825396825,115.37221142220227L171.42857142857144,114.3049810780898L174.6031746031746,112.2704290194263L177.77777777777777,112.07269685132042L180.95238095238096,111.30342163591945L184.12698412698413,110.85225302883313L187.3015873015873,109.92747291336586L190.47619047619048,105.95269140173191L193.65079365079364,105.40672413771897L196.82539682539684,104.51920297094692L200,104.26524034713573" stroke="#e45756" stroke-width="2"></path></g></g><path class="foreground" aria-hidden="true" d="" display="none"></path></g></g><g class="mark-group role-scope child_layer_1_layer_0_pathgroup" role="graphics-object" aria-roledescription="group mark container"><g transform="translate(0,0)"><path class="background" aria-hidden="true" d="M0,0h200v200h-200Z"></path><g><g class="mark-area role-mark child_layer_1_layer_0_marks" role="graphics-object" aria-roledescription="area mark container"><path aria-label="Full - Null Model (logit scale): 0.0609154796305; upper_logitmeandiff: 0.794321165467; condition: global; Time (s) Relative to Target Onset: 0; Mean of logitmeandiff: 0.427618322549; Mean + stderr of logitmeandiff: 0.794321165467; Mean - stderr of logitmeandiff: 0.0609154796305" role="graphics-symbol" aria-roledescription="errorband" d="M0,125.0576189225277L3.1746031746031744,126.77928324583121L6.349206349206349,125.43838315064563L9.523809523809524,126.48207143409142L12.698412698412698,124.4550096244403L15.873015873015872,125.34905214710747L19.047619047619047,125.51671106051413L22.22222222222222,123.70509940543353L25.396825396825395,124.27801123677699L28.57142857142857,122.00280053859815L31.746031746031743,123.38939149595372L34.920634920634924,121.88600242586287L38.095238095238095,122.91835619108772L41.26984126984127,121.4785859253269L44.44444444444444,121.16564670347596L47.61904761904762,122.19729727739679L50.79365079365079,119.62094488233484L53.96825396825397,114.51525663253601L57.14285714285714,114.58366945600629L60.317460317460316,112.7851601946781L63.49206349206349,106.78411329298459L66.66666666666666,99.53317816686646L69.84126984126985,98.55832992837234L73.01587301587303,98.81770489344119L76.19047619047619,93.73582306332895L79.36507936507937,93.07290992785528L82.53968253968254,86.82816653216219L85.71428571428572,92.35407524192057L88.88888888888889,84.73125331356077L92.06349206349206,89.59147435866338L95.23809523809524,85.75927871915997L98.41269841269842,82.58845825948443L101.58730158730158,81.71147518207889L104.76190476190477,80.04684739646599L107.93650793650794,78.17925185036589L111.11111111111111,77.91412346288573L114.28571428571428,77.23917746554505L117.46031746031747,71.92611213125963L120.63492063492063,72.57702134524486L123.80952380952381,66.58679103385951L126.98412698412697,66.85367765718269L130.15873015873015,66.61107451488127L133.33333333333331,59.87313117564321L136.50793650793648,56.555806624045644L139.6825396825397,56.72023432675994L142.85714285714286,55.15007016066533L146.03174603174605,57.1819719549074L149.20634920634922,48.97139323932216L152.38095238095238,44.27761724118662L155.55555555555557,41.51182767528632L158.73015873015873,40.14775104836046L161.9047619047619,40.14775104836046L165.0793650793651,41.28207807667656L168.25396825396825,42.911172518740855L171.42857142857144,43.0362076869202L174.6031746031746,46.72175467921071L177.77777777777777,44.320987314564L180.95238095238096,43.19490712461827L184.12698412698413,43.82567644714166L187.3015873015873,45.612123335295585L190.47619047619048,43.06532983432854L193.65079365079364,41.40020980275223L196.82539682539684,49.762317762527616L200,48.64759727300518L200,12.870919197271128L196.82539682539684,13.816319701539804L193.65079365079364,4.050177713256467L190.47619047619048,6.9102003669915035L187.3015873015873,8.84324596196975L184.12698412698413,5.879845050830632L180.95238095238096,5.465646077543539L177.77777777777777,6.229611750059561L174.6031746031746,9.638465350230653L171.42857142857144,5.388486151346484L168.25396825396825,5.271808605922956L165.0793650793651,4.040007295398794L161.9047619047619,3.2646803883864095L158.73015873015873,3.2646803883864095L155.55555555555557,5.817869921663998L152.38095238095238,9.86670348938425L149.20634920634922,14.147043314775878L146.03174603174605,24.565862470535514L142.85714285714286,20.040596594917083L139.6825396825397,21.094811716947113L136.50793650793648,20.73031090374129L133.33333333333331,23.37947420050179L130.15873015873015,30.406835110166043L126.98412698412697,28.608852995085797L123.80952380952381,27.959504871663214L120.63492063492063,36.244763420667155L117.46031746031747,35.57593550690037L114.28571428571428,40.06319210848026L111.11111111111111,40.96701337851278L107.93650793650794,41.3578160785905L104.76190476190477,43.41470293123202L101.58730158730158,46.32921842277862L98.41269841269842,49.19129214062037L95.23809523809524,52.851261524443L92.06349206349206,58.46374423376999L88.88888888888889,51.66345808958675L85.71428571428572,60.8554491154532L82.53968253968254,53.30759274222239L79.36507936507937,63.02678395852483L76.19047619047619,63.87798467293075L73.01587301587303,68.50900988658964L69.84126984126985,65.14974859195767L66.66666666666666,65.89996037397925L63.49206349206349,78.74249417727368L60.317460317460316,84.60793132895581L57.14285714285714,87.61942114974966L53.96825396825397,87.20576985321544L50.79365079365079,93.02684488774872L47.61904761904762,94.64001499555161L44.44444444444444,94.07692611204163L41.26984126984127,94.8331796554727L38.095238095238095,96.27739178123973L34.920634920634924,99.2289111189797L31.746031746031743,96.98820108231236L28.57142857142857,96.10490178625459L25.396825396825395,102.817080676028L22.22222222222222,97.63472399542611L19.047619047619047,103.2815421951784L15.873015873015872,98.76038677190884L12.698412698412698,98.41250080092081L9.523809523809524,100.0084209557616L6.349206349206349,99.72338639788232L3.1746031746031744,100.09825426628431L0,98.38832125575239Z" fill="#4c78a8" opacity="0.3"></path></g></g><path class="foreground" aria-hidden="true" d="" display="none"></path></g><g transform="translate(0,0)"><path class="background" aria-hidden="true" d="M0,0h200v200h-200Z"></path><g><g class="mark-area role-mark child_layer_1_layer_0_marks" role="graphics-object" aria-roledescription="area mark container"><path aria-label="Full - Null Model (logit scale): -0.17155038156; upper_logitmeandiff: 0.319532381983; condition: object; Time (s) Relative to Target Onset: 0; Mean of logitmeandiff: 0.0739910002116; Mean + stderr of logitmeandiff: 0.319532381983; Mean - stderr of logitmeandiff: -0.17155038156" role="graphics-symbol" aria-roledescription="errorband" d="M0,133.510922965826L3.1746031746031744,131.29280381171554L6.349206349206349,130.38649184970242L9.523809523809524,130.31736876294718L12.698412698412698,128.00176448837482L15.873015873015872,130.288723190915L19.047619047619047,130.72991244864542L22.22222222222222,130.10127860975706L25.396825396825395,130.9551831610051L28.57142857142857,131.56156390016324L31.746031746031743,128.6373364443452L34.920634920634924,126.85560394154942L38.095238095238095,128.96371674888223L41.26984126984127,130.76008102020776L44.44444444444444,133.37739193145126L47.61904761904762,132.963088677149L50.79365079365079,135.49224859654743L53.96825396825397,137.56557769816234L57.14285714285714,135.7663444752342L60.317460317460316,133.1750811755625L63.49206349206349,133.87608145482352L66.66666666666666,133.8898113034725L69.84126984126985,135.46556967164213L73.01587301587303,133.91625196363418L76.19047619047619,132.23329700919888L79.36507936507937,133.81009841991184L82.53968253968254,134.6005984027909L85.71428571428572,135.3464021854747L88.88888888888889,133.87573841790726L92.06349206349206,133.14373558596304L95.23809523809524,134.05294439692568L98.41269841269842,135.21433093229183L101.58730158730158,134.12922105078516L104.76190476190477,135.28250965127782L107.93650793650794,135.23807006729555L111.11111111111111,134.5567217205739L114.28571428571428,129.93598540141357L117.46031746031747,130.160413740043L120.63492063492063,128.22351199106228L123.80952380952381,127.93541709512304L126.98412698412697,129.88868842177834L130.15873015873015,132.05945121517746L133.33333333333331,131.83043132032256L136.50793650793648,131.03943078877006L139.6825396825397,129.433266309989L142.85714285714286,129.86563815216817L146.03174603174605,128.55208676843552L149.20634920634922,122.13804915890472L152.38095238095238,117.40689217851785L155.55555555555557,118.2946849217919L158.73015873015873,118.59032283609699L161.9047619047619,118.40203234524776L165.0793650793651,115.70627825111117L168.25396825396825,113.61877868474744L171.42857142857144,112.5110772698144L174.6031746031746,111.9695457287309L177.77777777777777,111.06408511175533L180.95238095238096,109.38683940915487L184.12698412698413,104.10959920781467L187.3015873015873,106.69626579443054L190.47619047619048,107.50210558203675L193.65079365079364,107.44875582054061L196.82539682539684,107.14936666583613L200,104.09825374467397L200,71.33782489616247L196.82539682539684,74.35996017162975L193.65079365079364,74.73078080206655L190.47619047619048,74.75077701228612L187.3015873015873,73.80342559803161L184.12698412698413,68.93147490163854L180.95238095238096,77.91928630784216L177.77777777777777,80.79748348904667L174.6031746031746,81.1879332428553L171.42857142857144,81.66717259863634L168.25396825396825,82.62158015919098L165.0793650793651,85.17070166865935L161.9047619047619,87.87657470722836L158.73015873015873,88.21522714353671L155.55555555555557,87.66320298273197L152.38095238095238,86.9887268913718L149.20634920634922,95.81894764663706L146.03174603174605,107.7898876496016L142.85714285714286,109.20490874892552L139.6825396825397,108.72914594220858L136.50793650793648,110.30629798992587L133.33333333333331,111.76926573894406L130.15873015873015,111.94918253157171L126.98412698412697,105.91872425668171L123.80952380952381,105.13068831984889L120.63492063492063,108.48457935704883L117.46031746031747,110.57762842080538L114.28571428571428,110.37208781964098L111.11111111111111,124.56711512014216L107.93650793650794,124.79950977508534L104.76190476190477,125.48936695490742L101.58730158730158,124.36737033723666L98.41269841269842,126.23158121952844L95.23809523809524,125.75886739589777L92.06349206349206,124.821557706424L88.88888888888889,125.97260274154736L85.71428571428572,126.22932497586183L82.53968253968254,125.8344474463824L79.36507936507937,126.19042449620603L76.19047619047619,125.76161599048193L73.01587301587303,127.90182413710048L69.84126984126985,128.49666958767463L66.66666666666666,128.10526848935564L63.49206349206349,129.1646586091372L60.317460317460316,127.91404873987182L57.14285714285714,129.3030477278571L53.96825396825397,129.88325636011433L50.79365079365079,129.29804192628848L47.61904761904762,116.00304379947998L44.44444444444444,116.43565565044736L41.26984126984127,114.52493591487571L38.095238095238095,112.67627120482216L34.920634920634924,105.91231819737104L31.746031746031743,106.81747163322414L28.57142857142857,118.91287957185455L25.396825396825395,118.67829708324611L22.22222222222222,117.9134694136303L19.047619047619047,119.25791154625416L15.873015873015872,118.14962934506701L12.698412698412698,110.50562484940998L9.523809523809524,112.66172992577741L6.349206349206349,112.42614493624816L3.1746031746031744,113.07007331494312L0,115.65336792787919Z" fill="#f58518" opacity="0.3"></path></g></g><path class="foreground" aria-hidden="true" d="" display="none"></path></g><g transform="translate(0,0)"><path class="background" aria-hidden="true" d="M0,0h200v200h-200Z"></path><g><g class="mark-area role-mark child_layer_1_layer_0_marks" role="graphics-object" aria-roledescription="area mark container"><path aria-label="Full - Null Model (logit scale): -0.499769353211; upper_logitmeandiff: 0.184045689338; condition: spatial; Time (s) Relative to Target Onset: 0; Mean of logitmeandiff: -0.157861831936; Mean + stderr of logitmeandiff: 0.184045689338; Mean - stderr of logitmeandiff: -0.499769353211" role="graphics-symbol" aria-roledescription="errorband" d="M0,145.44615829858813L3.1746031746031744,145.44615829858813L6.349206349206349,147.3222684103388L9.523809523809524,148.37459697274375L12.698412698412698,148.37459697274375L15.873015873015872,148.25210848208172L19.047619047619047,148.50620977966932L22.22222222222222,147.92829009214995L25.396825396825395,146.80067347707012L28.57142857142857,146.80067347707012L31.746031746031743,147.668541956222L34.920634920634924,146.6238405188978L38.095238095238095,148.27596693208642L41.26984126984127,149.0464579824126L44.44444444444444,151.68463734641267L47.61904761904762,149.224644037902L50.79365079365079,150.4631129844693L53.96825396825397,150.24237737471628L57.14285714285714,151.24714620920915L60.317460317460316,148.25491535728136L63.49206349206349,147.99771817657282L66.66666666666666,150.81775129892756L69.84126984126985,148.76804335193552L73.01587301587303,150.0250417228947L76.19047619047619,148.10878876008212L79.36507936507937,148.10878876008212L82.53968253968254,148.70742581209214L85.71428571428572,149.17308579694586L88.88888888888889,151.59573279298758L92.06349206349206,151.14095302370276L95.23809523809524,148.2797331033106L98.41269841269842,148.52826464454614L101.58730158730158,148.76347379522335L104.76190476190477,143.01562244345317L107.93650793650794,142.20941980869958L111.11111111111111,140.4711638753003L114.28571428571428,140.7382928408127L117.46031746031747,140.98734902303354L120.63492063492063,133.94114912593795L123.80952380952381,133.00655951015642L126.98412698412697,130.5489644842031L130.15873015873015,131.29069197914208L133.33333333333331,129.8879613239696L136.50793650793648,128.64070945066817L139.6825396825397,128.42376019086976L142.85714285714286,128.5983278876035L146.03174603174605,128.5687521593351L149.20634920634922,129.30966567066494L152.38095238095238,126.29109638816578L155.55555555555557,126.53624127850476L158.73015873015873,126.6295643516693L161.9047619047619,126.81947934248056L165.0793650793651,125.2430995980299L168.25396825396825,123.55915017944994L171.42857142857144,122.52899575271567L174.6031746031746,120.93008064643129L177.77777777777777,120.68610238857136L180.95238095238096,120.2470650802424L184.12698412698413,120.28247149763675L187.3015873015873,119.58399707607002L190.47619047619048,117.86496706275402L193.65079365079364,117.31587246178661L196.82539682539684,116.44120454129916L200,116.27298659749661L200,92.25749409677488L196.82539682539684,92.59720140059467L193.65079365079364,93.49757581365135L190.47619047619048,94.04041574070983L187.3015873015873,100.27094875066169L184.12698412698413,101.42203456002949L180.95238095238096,102.35977819159649L177.77777777777777,103.45929131406947L174.6031746031746,103.61077739242131L171.42857142857144,106.08096640346389L168.25396825396825,107.18527266495461L165.0793650793651,109.1704036663895L161.9047619047619,110.85906600840818L158.73015873015873,110.63240379606452L155.55555555555557,110.51170795637482L152.38095238095238,110.22555429731082L149.20634920634922,113.06953383854714L146.03174603174605,112.80039535035809L142.85714285714286,112.9557969145611L139.6825396825397,112.88823580480671L136.50793650793648,113.0747034435545L133.33333333333331,114.427777929903L130.15873015873015,115.70429200038834L126.98412698412697,115.05911980364249L123.80952380952381,116.93255068360666L120.63492063492063,116.93797657270922L117.46031746031747,119.9010958648405L114.28571428571428,119.57430669102447L111.11111111111111,119.20311531625396L107.93650793650794,120.34143147508823L104.76190476190477,121.47815506730288L101.58730158730158,124.31490790629086L98.41269841269842,124.01881850756507L95.23809523809524,123.69150469276377L92.06349206349206,131.18793685730412L88.88888888888889,131.84030099345915L85.71428571428572,124.78326048647563L82.53968253968254,124.20159305141574L79.36507936507937,123.37454040541853L76.19047619047619,123.37454040541853L73.01587301587303,129.16061929618942L69.84126984126985,124.28017883032089L66.66666666666666,130.33470715517274L63.49206349206349,123.46327315751094L60.317460317460316,123.81043555999058L57.14285714285714,131.92978342050762L53.96825396825397,129.90263659029245L50.79365079365079,130.19581164420865L47.61904761904762,124.91559202183961L44.44444444444444,131.34601618640272L41.26984126984127,124.86406488328825L38.095238095238095,124.0074622228788L34.920634920634924,122.25870489898942L31.746031746031743,123.48898289406213L28.57142857142857,122.53339149509752L25.396825396825395,122.53339149509752L22.22222222222222,123.67958293332275L19.047619047619047,124.29113003896512L15.873015873015872,124.03714418139806L12.698412698412698,124.06808513868155L9.523809523809524,124.06808513868155L6.349206349206349,123.07604727334625L3.1746031746031744,120.58015675132914L0,120.58015675132914Z" fill="#e45756" opacity="0.3"></path></g></g><path class="foreground" aria-hidden="true" d="" display="none"></path></g></g><g class="mark-text role-mark child_layer_2_marks" role="graphics-object" aria-roledescription="text mark container"><text aria-label="condition: global; Mean of logitmeandiff: 2.79340981315" role="graphics-symbol" aria-roledescription="text mark" text-anchor="start" transform="translate(205,28.694188612742796)" font-family="sans-serif" font-size="11px" fill="#4c78a8">global</text><text aria-label="condition: object; Mean of logitmeandiff: 0.847112195424" role="graphics-symbol" aria-roledescription="text mark" text-anchor="start" transform="translate(205,99.46864743913991)" font-family="sans-serif" font-size="11px" fill="#f58518">object</text><text aria-label="condition: spatial; Mean of logitmeandiff: 0.395903152657" role="graphics-symbol" aria-roledescription="text mark" text-anchor="start" transform="translate(205,115.87624899429387)" font-family="sans-serif" font-size="11px" fill="#e45756">spatial</text></g><g class="mark-rule role-mark child_layer_3_layer_0_marks" role="graphics-symbol" aria-roledescription="rule mark container"><line transform="translate(200,127.27272727272727)" x2="-200" y2="0" stroke="black" stroke-width="2" stroke-dasharray="4,4"></line></g><g class="mark-line role-mark child_layer_4_layer_0_marks" role="graphics-object" aria-roledescription="line mark container"><path aria-label="x: 0.05; y: 0.1" role="graphics-symbol" aria-roledescription="line mark" d="M3.3333333333333335,123.63636363636363L63.33333333333333,123.63636363636363" stroke="black" stroke-width="1.5"></path></g><g class="mark-symbol role-mark child_layer_4_layer_1_marks" role="graphics-object" aria-roledescription="symbol mark container"><path aria-label="x: 0.05; y: 0.1; dir: 270" role="graphics-symbol" aria-roledescription="point" transform="translate(3.3333333333333335,123.63636363636363) rotate(270)" d="M0,-1.8257418583505536L-1.5811388300841898,0.9128709291752769L1.5811388300841898,0.9128709291752769Z" stroke="black" stroke-width="2" opacity="1"></path><path aria-label="x: 0.95; y: 0.1; dir: 90" role="graphics-symbol" aria-roledescription="point" transform="translate(63.33333333333333,123.63636363636363) rotate(90)" d="M0,-1.8257418583505536L-1.5811388300841898,0.9128709291752769L1.5811388300841898,0.9128709291752769Z" stroke="black" stroke-width="2" opacity="1"></path></g><g class="mark-text role-mark child_layer_5_layer_0_marks" role="graphics-object" aria-roledescription="text mark container"><text text-anchor="middle" transform="translate(33.33333333333333,118.63636363636363)" font-family="sans-serif" font-size="11px" fill="black">Target Length</text></g></g><path class="foreground" aria-hidden="true" d="" display="none"></path></g><g transform="translate(270,0)"><path class="background" aria-hidden="true" d="M0.5,0.5h200v200h-200Z" stroke="#ddd"></path><g><g class="mark-group role-axis" aria-hidden="true"><g transform="translate(0.5,200.5)"><path class="background" aria-hidden="true" d="M0,0h0v0h0Z" pointer-events="none"></path><g><g class="mark-rule role-axis-grid" pointer-events="none"><line transform="translate(0,-200)" x2="0" y2="200" stroke="#ddd" stroke-width="1" opacity="1"></line><line transform="translate(33,-200)" x2="0" y2="200" stroke="#ddd" stroke-width="1" opacity="1"></line><line transform="translate(67,-200)" x2="0" y2="200" stroke="#ddd" stroke-width="1" opacity="1"></line><line transform="translate(100,-200)" x2="0" y2="200" stroke="#ddd" stroke-width="1" opacity="1"></line><line transform="translate(133,-200)" x2="0" y2="200" stroke="#ddd" stroke-width="1" opacity="1"></line><line transform="translate(167,-200)" x2="0" y2="200" stroke="#ddd" stroke-width="1" opacity="1"></line><line transform="translate(200,-200)" x2="0" y2="200" stroke="#ddd" stroke-width="1" opacity="1"></line></g></g><path class="foreground" aria-hidden="true" d="" pointer-events="none" display="none"></path></g></g><g class="mark-group role-axis" aria-hidden="true"><g transform="translate(0.5,0.5)"><path class="background" aria-hidden="true" d="M0,0h0v0h0Z" pointer-events="none"></path><g><g class="mark-rule role-axis-grid" pointer-events="none"><line transform="translate(0,200)" x2="200" y2="0" stroke="#ddd" stroke-width="1" opacity="1"></line><line transform="translate(0,164)" x2="200" y2="0" stroke="#ddd" stroke-width="1" opacity="1"></line><line transform="translate(0,127)" x2="200" y2="0" stroke="#ddd" stroke-width="1" opacity="1"></line><line transform="translate(0,91)" x2="200" y2="0" stroke="#ddd" stroke-width="1" opacity="1"></line><line transform="translate(0,55)" x2="200" y2="0" stroke="#ddd" stroke-width="1" opacity="1"></line><line transform="translate(0,18)" x2="200" y2="0" stroke="#ddd" stroke-width="1" opacity="1"></line></g></g><path class="foreground" aria-hidden="true" d="" pointer-events="none" display="none"></path></g></g><g class="mark-group role-scope child_layer_0_pathgroup" role="graphics-object" aria-roledescription="group mark container"><g transform="translate(0,0)"><path class="background" aria-hidden="true" d="M0,0h200v200h-200Z"></path><g><g class="mark-line role-mark child_layer_0_marks" role="graphics-object" aria-roledescription="line mark container"><path aria-label="condition: global; Time (s) Relative to Target Onset: 0; Full - Null Model (logit scale): 1.41991036513" role="graphics-symbol" aria-roledescription="line mark" d="M0,75.63962308600607L3.1746031746031744,74.95618329779836L6.349206349206349,79.68941293365768L9.523809523809524,75.43161449916256L12.698412698412698,78.65373481886068L15.873015873015872,79.31186824808563L19.047619047619047,79.95580605186304L22.22222222222222,81.97015760752203L25.396825396825395,76.4224678677991L28.57142857142857,79.28443647388184L31.746031746031743,79.01367947960422L34.920634920634924,83.40999716414012L38.095238095238095,78.22081715073254L41.26984126984127,76.40243524113848L44.44444444444444,74.68615323187122L47.61904761904762,72.82686891453503L50.79365079365079,67.3518561880256L53.96825396825397,73.41570637184216L57.14285714285714,67.42841522579239L60.317460317460316,72.08623491768155L63.49206349206349,77.86463078397823L66.66666666666666,76.93621883223499L69.84126984126985,76.26905985749701L73.01587301587303,71.03662542382851L76.19047619047619,74.71278388101983L79.36507936507937,73.33657296348551L82.53968253968254,78.13561968903855L85.71428571428572,84.57734949982942L88.88888888888889,78.68676359273282L92.06349206349206,77.91443576511179L95.23809523809524,83.25438323737373L98.41269841269842,79.91404930611277L101.58730158730158,69.09929936034503L104.76190476190477,75.85859108295283L107.93650793650794,76.9061164162541L111.11111111111111,69.1183890087946L114.28571428571428,60.24398453411442L117.46031746031747,49.87619201703004L120.63492063492063,47.02501246446376L123.80952380952381,49.230053596884304L126.98412698412697,52.586284400088566L130.15873015873015,52.464903391313975L133.33333333333331,53.46432089277149L136.50793650793648,58.51315467581524L139.6825396825397,58.83411057623695L142.85714285714286,60.312814960329696L146.03174603174605,48.05947321125288L149.20634920634922,59.21763755453027L152.38095238095238,51.797732287891684L155.55555555555557,57.25185289796959L158.73015873015873,47.85021031950427L161.9047619047619,52.1093738564524L165.0793650793651,53.45552726852261L168.25396825396825,50.34879732610209L171.42857142857144,48.53490133328435L174.6031746031746,44.71816616902231L177.77777777777777,48.45875084838502L180.95238095238096,48.08106336348066L184.12698412698413,43.99317377958711L187.3015873015873,54.54136983866063L190.47619047619048,50.11876098583707L193.65079365079364,53.27947636604784L196.82539682539684,51.77657956994144L200,54.742401240410054" stroke="#4c78a8" stroke-width="2"></path></g></g><path class="foreground" aria-hidden="true" d="" display="none"></path></g><g transform="translate(0,0)"><path class="background" aria-hidden="true" d="M0,0h200v200h-200Z"></path><g><g class="mark-line role-mark child_layer_0_marks" role="graphics-object" aria-roledescription="line mark container"><path aria-label="condition: object; Time (s) Relative to Target Onset: 0; Full - Null Model (logit scale): -0.957093979152" role="graphics-symbol" aria-roledescription="line mark" d="M0,162.07614469643147L3.1746031746031744,163.04147522769375L6.349206349206349,163.44930878873492L9.523809523809524,162.23504852591276L12.698412698412698,162.74661756351264L15.873015873015872,160.5641142575015L19.047619047619047,161.09526282068737L22.22222222222222,158.64669406074563L25.396825396825395,156.90765355318416L28.57142857142857,158.5938490964782L31.746031746031743,162.10240929542445L34.920634920634924,159.13612230571235L38.095238095238095,157.82820616427193L41.26984126984127,158.5763794068607L44.44444444444444,158.02737354403214L47.61904761904762,158.34773924364512L50.79365079365079,160.07994998498768L53.96825396825397,163.44926828694278L57.14285714285714,160.13362437266602L60.317460317460316,158.5101548513447L63.49206349206349,156.61295934747432L66.66666666666666,147.5893912473791L69.84126984126985,148.92509354035332L73.01587301587303,148.09585733617735L76.19047619047619,148.13073182158254L79.36507936507937,144.26241361971307L82.53968253968254,143.5817339976285L85.71428571428572,141.57891566233744L88.88888888888889,139.57877303448524L92.06349206349206,133.25652563547274L95.23809523809524,135.09391984388722L98.41269841269842,134.10037799810968L101.58730158730158,140.26631105426785L104.76190476190477,135.6297594048544L107.93650793650794,133.22464976381886L111.11111111111111,127.78682541007771L114.28571428571428,126.43798413930907L117.46031746031747,129.61458449229423L120.63492063492063,127.1240329163418L123.80952380952381,133.19755285275238L126.98412698412697,126.74332932433079L130.15873015873015,125.43303597639076L133.33333333333331,134.26769383528537L136.50793650793648,128.29260784285682L139.6825396825397,129.04785540927776L142.85714285714286,128.32552208376137L146.03174603174605,127.6253260011686L149.20634920634922,123.49218372444244L152.38095238095238,119.71357504874365L155.55555555555557,118.80870919234145L158.73015873015873,117.6000493170863L161.9047619047619,114.06891520791036L165.0793650793651,114.77007536301772L168.25396825396825,119.46715187894546L171.42857142857144,124.46043504430378L174.6031746031746,124.60911095890066L177.77777777777777,132.54811297345248L180.95238095238096,133.6642866812001L184.12698412698413,125.58500977122335L187.3015873015873,125.60957430345105L190.47619047619048,127.00190530802375L193.65079365079364,126.26521071300817L196.82539682539684,126.77703245956971L200,131.2036463521425" stroke="#f58518" stroke-width="2"></path></g></g><path class="foreground" aria-hidden="true" d="" display="none"></path></g><g transform="translate(0,0)"><path class="background" aria-hidden="true" d="M0,0h200v200h-200Z"></path><g><g class="mark-line role-mark child_layer_0_marks" role="graphics-object" aria-roledescription="line mark container"><path aria-label="condition: spatial; Time (s) Relative to Target Onset: 0; Full - Null Model (logit scale): -0.87850848884" role="graphics-symbol" aria-roledescription="line mark" d="M0,159.2184905032837L3.1746031746031744,154.33156271041466L6.349206349206349,154.93030876370932L9.523809523809524,156.3432215545333L12.698412698412698,154.99984843064865L15.873015873015872,154.9190110994181L19.047619047619047,155.4657023550333L22.22222222222222,156.588029819302L25.396825396825395,152.92742096024975L28.57142857142857,148.99948534356636L31.746031746031743,152.3321530569314L34.920634920634924,146.67710444628358L38.095238095238095,144.14930940954278L41.26984126984127,140.89384809834684L44.44444444444444,142.89157856575878L47.61904761904762,142.9566552620672L50.79365079365079,143.2066499588636L53.96825396825397,142.91429736953717L57.14285714285714,139.92919889657705L60.317460317460316,139.7045706556981L63.49206349206349,140.65618868315303L66.66666666666666,140.62470359193298L69.84126984126985,142.37127771749408L73.01587301587303,141.63110798373717L76.19047619047619,138.94115331363892L79.36507936507937,137.8805500913289L82.53968253968254,137.40898058256928L85.71428571428572,138.38814837381713L88.88888888888889,139.46535304122372L92.06349206349206,141.18019454041772L95.23809523809524,140.16082512507825L98.41269841269842,138.63640736544863L101.58730158730158,137.99885367993784L104.76190476190477,135.48557932386524L107.93650793650794,134.5764930599097L111.11111111111111,135.95631561611384L114.28571428571428,138.7560609568131L117.46031746031747,138.3749462403066L120.63492063492063,133.02051503067034L123.80952380952381,134.5008962191412L126.98412698412697,131.7267873099338L130.15873015873015,132.51078631851496L133.33333333333331,133.8626034590858L136.50793650793648,129.34681505955416L139.6825396825397,126.97469563064607L142.85714285714286,122.30162437624057L146.03174603174605,122.06338636041264L149.20634920634922,119.64064120565081L152.38095238095238,121.77397732552548L155.55555555555557,118.77372517234998L158.73015873015873,115.48566572789608L161.9047619047619,119.86909702429192L165.0793650793651,118.03671300356639L168.25396825396825,119.36387503655826L171.42857142857144,121.97929116606734L174.6031746031746,115.88061457529162L177.77777777777777,113.52979357733615L180.95238095238096,113.31021009761741L184.12698412698413,112.98743198025262L187.3015873015873,118.73026875846715L190.47619047619048,128.8516938111872L193.65079365079364,129.03997061231576L196.82539682539684,128.35839598622528L200,128.85931259658454" stroke="#e45756" stroke-width="2"></path></g></g><path class="foreground" aria-hidden="true" d="" display="none"></path></g></g><g class="mark-group role-scope child_layer_1_layer_0_pathgroup" role="graphics-object" aria-roledescription="group mark container"><g transform="translate(0,0)"><path class="background" aria-hidden="true" d="M0,0h200v200h-200Z"></path><g><g class="mark-area role-mark child_layer_1_layer_0_marks" role="graphics-object" aria-roledescription="area mark container"><path aria-label="Full - Null Model (logit scale): 0.924580278206; upper_logitmeandiff: 1.91524045206; condition: global; Time (s) Relative to Target Onset: 0; Mean of logitmeandiff: 1.41991036513; Mean + stderr of logitmeandiff: 1.91524045206; Mean - stderr of logitmeandiff: 0.924580278206" role="graphics-symbol" aria-roledescription="errorband" d="M0,93.6516262470619L3.1746031746031744,92.46273530130242L6.349206349206349,96.1915969320353L9.523809523809524,93.08421667555228L12.698412698412698,96.57379115885773L15.873015873015872,97.42356752584985L19.047619047619047,97.96864137564026L22.22222222222222,98.51173272223687L25.396825396825395,94.47273123762818L28.57142857142857,96.82031855636389L31.746031746031743,96.60218610951175L34.920634920634924,99.86125928982187L38.095238095238095,96.02667289442431L41.26984126984127,94.19421938851546L44.44444444444444,91.70738435491546L47.61904761904762,90.41255101167975L50.79365079365079,86.02743352783105L53.96825396825397,91.28829675076118L57.14285714285714,86.3596387700279L60.317460317460316,92.8618127489671L63.49206349206349,97.43376547162086L66.66666666666666,96.5989782526162L69.84126984126985,95.82857306586112L73.01587301587303,89.58279225968433L76.19047619047619,94.3234266806385L79.36507936507937,91.19641302951655L82.53968253968254,94.85197655155207L85.71428571428572,103.33322554546828L88.88888888888889,95.52795008369257L92.06349206349206,96.79684956778902L95.23809523809524,101.08170568152252L98.41269841269842,98.52333667222264L101.58730158730158,89.46926290542399L104.76190476190477,95.166667381481L107.93650793650794,95.30176965344282L111.11111111111111,88.46666468914938L114.28571428571428,79.44235892614779L117.46031746031747,70.92420777524345L120.63492063492063,68.14485546287503L123.80952380952381,70.25160109238622L126.98412698412697,73.29434590910122L130.15873015873015,71.12758951481113L133.33333333333331,71.66223985649513L136.50793650793648,75.66679482173369L139.6825396825397,76.1990690841521L142.85714285714286,76.54990338743013L146.03174603174605,65.90188153326066L149.20634920634922,76.1235749543028L152.38095238095238,69.15965039144547L155.55555555555557,74.89600258306461L158.73015873015873,65.6042341539103L161.9047619047619,69.65479018691303L165.0793650793651,71.24919104814198L168.25396825396825,68.9067744396237L171.42857142857144,66.94551152735878L174.6031746031746,63.608615333845385L177.77777777777777,66.86971195710166L180.95238095238096,66.41590855871308L184.12698412698413,62.77148657392924L187.3015873015873,72.28970008637965L190.47619047619048,68.3874120177223L193.65079365079364,70.87422124081304L196.82539682539684,69.13733866488579L200,72.54312647194732L200,36.94167600887282L196.82539682539684,34.41582047499703L193.65079365079364,35.68473149128266L190.47619047619048,31.85010995395188L187.3015873015873,36.793039590941554L184.12698412698413,25.21486098524504L180.95238095238096,29.746218168248163L177.77777777777777,30.047789739668417L174.6031746031746,25.827717004199258L171.42857142857144,30.124291139209888L168.25396825396825,31.790820212580485L165.0793650793651,35.66186348890319L161.9047619047619,34.563957525991775L158.73015873015873,30.096186485098215L155.55555555555557,39.60770321287457L152.38095238095238,34.43581418433788L149.20634920634922,42.31170015475774L146.03174603174605,30.217064889245073L142.85714285714286,44.07572653322931L139.6825396825397,41.469152068321776L136.50793650793648,41.35951452989681L133.33333333333331,35.266401929047795L130.15873015873015,33.80221726781683L126.98412698412697,31.878222891075914L123.80952380952381,28.20850610138237L120.63492063492063,25.9051694660525L117.46031746031747,28.82817625881664L114.28571428571428,41.04561014208103L111.11111111111111,49.77011332843979L107.93650793650794,58.51046317906536L104.76190476190477,56.55051478442466L101.58730158730158,48.72933581526608L98.41269841269842,61.30476194000289L95.23809523809524,65.42706079322498L92.06349206349206,59.03202196243458L88.88888888888889,61.84557710177305L85.71428571428572,65.82147345419054L82.53968253968254,61.419262826525035L79.36507936507937,55.476732897454454L76.19047619047619,55.10214108140117L73.01587301587303,52.490458587972746L69.84126984126985,56.709546649132925L66.66666666666666,57.27345941185376L63.49206349206349,58.2954960963356L60.317460317460316,51.31065708639604L57.14285714285714,48.49719168155693L53.96825396825397,55.54311599292314L50.79365079365079,48.67627884822014L47.61904761904762,55.24118681739027L44.44444444444444,57.66492210882694L41.26984126984127,58.61065109376147L38.095238095238095,60.41496140704081L34.920634920634924,66.95873503845837L31.746031746031743,61.42517284969671L28.57142857142857,61.74855439139979L25.396825396825395,58.372204497970024L22.22222222222222,65.42858249280718L19.047619047619047,61.94297072808581L15.873015873015872,61.200168970321386L12.698412698412698,60.73367847886366L9.523809523809524,57.77901232277283L6.349206349206349,63.18722893528004L3.1746031746031744,57.44963129429428L0,57.6276199249502Z" fill="#4c78a8" opacity="0.3"></path></g></g><path class="foreground" aria-hidden="true" d="" display="none"></path></g><g transform="translate(0,0)"><path class="background" aria-hidden="true" d="M0,0h200v200h-200Z"></path><g><g class="mark-area role-mark child_layer_1_layer_0_marks" role="graphics-object" aria-roledescription="area mark container"><path aria-label="Full - Null Model (logit scale): -1.62559314804; upper_logitmeandiff: -0.288594810269; condition: object; Time (s) Relative to Target Onset: 0; Mean of logitmeandiff: -0.957093979152; Mean + stderr of logitmeandiff: -0.288594810269; Mean - stderr of logitmeandiff: -1.62559314804" role="graphics-symbol" aria-roledescription="errorband" d="M0,186.38520538309157L3.1746031746031744,187.27333993135176L6.349206349206349,187.01322795066716L9.523809523809524,185.5390895553942L12.698412698412698,186.02240062552647L15.873015873015872,183.44246277662222L19.047619047619047,183.9383309212796L22.22222222222222,181.08619286497412L25.396825396825395,179.74380080689414L28.57142857142857,182.36694244746144L31.746031746031743,188.64573804662308L34.920634920634924,183.82361949862448L38.095238095238095,182.12607895361333L41.26984126984127,182.44842469981484L44.44444444444444,181.3240249520333L47.61904761904762,181.3376297530635L50.79365079365079,182.84643088823208L53.96825396825397,189.096600506813L57.14285714285714,185.97643042209788L60.317460317460316,184.12177030504995L63.49206349206349,182.04304408211433L66.66666666666666,169.53353761694015L69.84126984126985,173.0826125306211L73.01587301587303,172.35463329055446L76.19047619047619,170.04331946927744L79.36507936507937,165.74355411435698L82.53968253968254,165.1700945336334L85.71428571428572,162.70691927567583L88.88888888888889,160.8618376352468L92.06349206349206,155.69962236927154L95.23809523809524,157.89861306019293L98.41269841269842,157.0251426448263L101.58730158730158,165.62101459107254L104.76190476190477,158.2530524863777L107.93650793650794,155.88778173594173L111.11111111111111,151.7468060984882L114.28571428571428,150.422258096833L117.46031746031747,156.24568346627683L120.63492063492063,153.893352852363L123.80952380952381,160.34786416010243L126.98412698412697,152.30342107010176L130.15873015873015,150.89206376770633L133.33333333333331,161.78111942078561L136.50793650793648,153.50187199832376L139.6825396825397,154.30181593893496L142.85714285714286,153.56368533136157L146.03174603174605,152.16786640086525L149.20634920634922,148.6919962256659L152.38095238095238,146.12485297890504L155.55555555555557,145.1970252829928L158.73015873015873,143.5329680770845L161.9047619047619,139.43686020841363L165.0793650793651,140.51806944385322L168.25396825396825,144.1713749481631L171.42857142857144,151.27371622447117L174.6031746031746,151.755645188729L177.77777777777777,164.62038909437555L180.95238095238096,165.569562995698L184.12698412698413,153.1911604810326L187.3015873015873,153.27227757813668L190.47619047619048,154.70436609496423L193.65079365079364,153.99976520897602L196.82539682539684,154.50297838179108L200,158.37560507762367L200,104.03168762666132L196.82539682539684,99.05108653734831L193.65079365079364,98.53065621704032L190.47619047619048,99.29944452108327L187.3015873015873,97.94687102876539L184.12698412698413,97.97885906141413L180.95238095238096,101.75901036670223L177.77777777777777,100.47583685252938L174.6031746031746,97.46257672907228L171.42857142857144,97.6471538641364L168.25396825396825,94.76292880972781L165.0793650793651,89.02208128218221L161.9047619047619,88.70097020740708L158.73015873015873,91.66713055708809L155.55555555555557,92.42039310169012L152.38095238095238,93.30229711858229L149.20634920634922,98.292371223219L146.03174603174605,103.082785601472L142.85714285714286,103.08735883616116L139.6825396825397,103.79389487962058L136.50793650793648,103.08334368738991L133.33333333333331,106.75426824978516L130.15873015873015,99.97400818507514L126.98412698412697,101.18323757855983L123.80952380952381,106.04724154540239L120.63492063492063,100.35471298032057L117.46031746031747,102.98348551831165L114.28571428571428,102.45371018178515L111.11111111111111,103.82684472166719L107.93650793650794,110.56151779169596L104.76190476190477,113.0064663233311L101.58730158730158,114.91160751746321L98.41269841269842,111.17561335139308L95.23809523809524,112.2892266275815L92.06349206349206,110.81342890167392L88.88888888888889,118.29570843372372L85.71428571428572,120.45091204899904L82.53968253968254,121.99337346162355L79.36507936507937,122.78127312506916L76.19047619047619,126.21814417388765L73.01587301587303,123.8370813818002L69.84126984126985,124.76757455008556L66.66666666666666,125.64524487781803L63.49206349206349,131.1828746128343L60.317460317460316,132.89853939763947L57.14285714285714,134.29081832323408L53.96825396825397,137.80193606707257L50.79365079365079,137.31346908174328L47.61904761904762,135.35784873422676L44.44444444444444,134.73072213603098L41.26984126984127,134.70433411390655L38.095238095238095,133.53033337493054L34.920634920634924,134.44862511280022L31.746031746031743,135.55908054422585L28.57142857142857,134.82075574549498L25.396825396825395,134.07150629947418L22.22222222222222,136.20719525651714L19.047619047619047,138.2521947200951L15.873015873015872,137.68576573838078L12.698412698412698,139.47083450149879L9.523809523809524,138.9310074964313L6.349206349206349,139.88538962680272L3.1746031746031744,138.80961052403578L0,137.76708400977134Z" fill="#f58518" opacity="0.3"></path></g></g><path class="foreground" aria-hidden="true" d="" display="none"></path></g><g transform="translate(0,0)"><path class="background" aria-hidden="true" d="M0,0h200v200h-200Z"></path><g><g class="mark-area role-mark child_layer_1_layer_0_marks" role="graphics-object" aria-roledescription="area mark container"><path aria-label="Full - Null Model (logit scale): -1.46751491375; upper_logitmeandiff: -0.289502063927; condition: spatial; Time (s) Relative to Target Onset: 0; Mean of logitmeandiff: -0.87850848884; Mean + stderr of logitmeandiff: -0.289502063927; Mean - stderr of logitmeandiff: -1.46751491375" role="graphics-symbol" aria-roledescription="errorband" d="M0,180.6369059546904L3.1746031746031744,175.2144892530861L6.349206349206349,175.83352399997528L9.523809523809524,177.00940355203184L12.698412698412698,175.8948489604777L15.873015873015872,175.3980081294795L19.047619047619047,175.85330710120576L22.22222222222222,176.8163079842585L25.396825396825395,173.17832882530652L28.57142857142857,168.23340133122838L31.746031746031743,172.73458534204326L34.920634920634924,166.10143196572534L38.095238095238095,164.67608928616139L41.26984126984127,161.24031104370232L44.44444444444444,163.27839258859797L47.61904761904762,163.40572437908494L50.79365079365079,163.68844628003941L53.96825396825397,163.38163043593065L57.14285714285714,160.1590855030732L60.317460317460316,159.94765537018813L63.49206349206349,160.92130841104648L66.66666666666666,160.8967073907228L69.84126984126985,162.99443165607056L73.01587301587303,162.17786265197506L76.19047619047619,159.3158937097114L79.36507936507937,158.22985110167244L82.53968253968254,157.8867889822709L85.71428571428572,158.89405228187775L88.88888888888889,160.09455253318617L92.06349206349206,162.09643166677137L95.23809523809524,160.9508237736942L98.41269841269842,159.39144009608603L101.58730158730158,158.9142610181645L104.76190476190477,156.3507051479773L107.93650793650794,155.4877476635945L111.11111111111111,157.46077634344527L114.28571428571428,161.1250467369315L117.46031746031747,160.65923612413528L120.63492063492063,154.12638512790335L123.80952380952381,156.94111260665574L126.98412698412697,155.0184854874434L130.15873015873015,155.76350744858146L133.33333333333331,156.31664861922584L136.50793650793648,150.75980500630664L139.6825396825397,148.01292604641148L142.85714285714286,144.21910726383595L146.03174603174605,143.9318671781542L149.20634920634922,141.61603537272322L152.38095238095238,143.65554708593635L155.55555555555557,140.88049729606678L158.73015873015873,137.8883732176036L161.9047619047619,141.43993258566957L165.0793650793651,140.8152093549827L168.25396825396825,141.92228265978102L171.42857142857144,143.678641154865L174.6031746031746,138.73628507612085L177.77777777777777,136.31100327522745L180.95238095238096,136.32147882192274L184.12698412698413,135.92145528491636L187.3015873015873,141.4004628327164L190.47619047619048,151.21760370711456L193.65079365079364,150.9311336350292L196.82539682539684,150.2934051281907L200,150.37601325090674L200,107.34261194226234L196.82539682539684,106.42338684425985L193.65079365079364,107.1488075896023L190.47619047619048,106.48578391525987L187.3015873015873,96.0600746842179L184.12698412698413,90.05340867558893L180.95238095238096,90.29894137331213L177.77777777777777,90.74858387944482L174.6031746031746,93.02494407446238L171.42857142857144,100.27994117726968L168.25396825396825,96.8054674133355L165.0793650793651,95.25821665215011L161.9047619047619,98.29826146291425L158.73015873015873,93.08295823818852L155.55555555555557,96.6669530486332L152.38095238095238,99.8924075651146L149.20634920634922,97.66524703857841L146.03174603174605,100.19490554267108L142.85714285714286,100.38414148864518L139.6825396825397,105.9364652148807L136.50793650793648,107.93382511280167L133.33333333333331,111.40855829894569L130.15873015873015,109.25806518844846L126.98412698412697,108.43508913242412L123.80952380952381,112.06067983162664L120.63492063492063,111.91464493343734L117.46031746031747,116.09065635647795L114.28571428571428,116.38707517669467L111.11111111111111,114.45185488878245L107.93650793650794,113.66523845622491L104.76190476190477,114.62045349975321L101.58730158730158,117.08344634171112L98.41269841269842,117.88137463481121L95.23809523809524,119.37082647646227L92.06349206349206,120.26395741406408L88.88888888888889,118.83615354926124L85.71428571428572,117.88224446575653L82.53968253968254,116.93117218286773L79.36507936507937,117.53124908098536L76.19047619047619,118.5664129175664L73.01587301587303,121.08435331549927L69.84126984126985,121.74812377891757L66.66666666666666,120.35269979314319L63.49206349206349,120.39106895525961L60.317460317460316,119.46148594120802L57.14285714285714,119.69931229008091L53.96825396825397,122.44696430314374L50.79365079365079,122.72485363768779L47.61904761904762,122.5075861450494L44.44444444444444,122.50476454291956L41.26984126984127,120.54738515299137L38.095238095238095,123.62252953292416L34.920634920634924,127.25277692684176L31.746031746031743,131.92972077181952L28.57142857142857,129.76556935590435L25.396825396825395,132.67651309519297L22.22222222222222,136.3597516543455L19.047619047619047,135.07809760886084L15.873015873015872,134.44001406935672L12.698412698412698,134.10484790081964L9.523809523809524,135.6770395570348L6.349206349206349,134.02709352744338L3.1746031746031744,133.44863616774325L0,137.80007505187703Z" fill="#e45756" opacity="0.3"></path></g></g><path class="foreground" aria-hidden="true" d="" display="none"></path></g></g><g class="mark-text role-mark child_layer_2_marks" role="graphics-object" aria-roledescription="text mark container"><text aria-label="condition: global; Mean of logitmeandiff: 2.0922009522" role="graphics-symbol" aria-roledescription="text mark" text-anchor="start" transform="translate(205,54.19269264738995)" font-family="sans-serif" font-size="11px" fill="#4c78a8">global</text><text aria-label="condition: object; Mean of logitmeandiff: 0.0938095842242" role="graphics-symbol" aria-roledescription="text mark" text-anchor="start" transform="translate(205,126.8614696645743)" font-family="sans-serif" font-size="11px" fill="#f58518">object</text><text aria-label="condition: spatial; Mean of logitmeandiff: 0.192768021437" role="graphics-symbol" aria-roledescription="text mark" text-anchor="start" transform="translate(205,123.26298103865787)" font-family="sans-serif" font-size="11px" fill="#e45756">spatial</text></g><g class="mark-rule role-mark child_layer_3_layer_0_marks" role="graphics-symbol" aria-roledescription="rule mark container"><line transform="translate(200,127.27272727272727)" x2="-200" y2="0" stroke="black" stroke-width="2" stroke-dasharray="4,4"></line></g><g class="mark-line role-mark child_layer_4_layer_0_marks" role="graphics-object" aria-roledescription="line mark container"><path aria-label="x: 0.05; y: 0.1" role="graphics-symbol" aria-roledescription="line mark" d="M3.3333333333333335,123.63636363636363L63.33333333333333,123.63636363636363" stroke="black" stroke-width="1.5"></path></g><g class="mark-symbol role-mark child_layer_4_layer_1_marks" role="graphics-object" aria-roledescription="symbol mark container"><path aria-label="x: 0.05; y: 0.1; dir: 270" role="graphics-symbol" aria-roledescription="point" transform="translate(3.3333333333333335,123.63636363636363) rotate(270)" d="M0,-1.8257418583505536L-1.5811388300841898,0.9128709291752769L1.5811388300841898,0.9128709291752769Z" stroke="black" stroke-width="2" opacity="1"></path><path aria-label="x: 0.95; y: 0.1; dir: 90" role="graphics-symbol" aria-roledescription="point" transform="translate(63.33333333333333,123.63636363636363) rotate(90)" d="M0,-1.8257418583505536L-1.5811388300841898,0.9128709291752769L1.5811388300841898,0.9128709291752769Z" stroke="black" stroke-width="2" opacity="1"></path></g><g class="mark-text role-mark child_layer_5_layer_0_marks" role="graphics-object" aria-roledescription="text mark container"><text text-anchor="middle" transform="translate(33.33333333333333,118.63636363636363)" font-family="sans-serif" font-size="11px" fill="black">Target Length</text></g></g><path class="foreground" aria-hidden="true" d="" display="none"></path></g></g><g class="mark-group role-title"><g transform="translate(-39,-69)"><path class="background" aria-hidden="true" d="M0,0h0v0h0Z" pointer-events="none"></path><g><g class="mark-text role-title-text" role="graphics-symbol" aria-roledescription="title" aria-label="Title text 'Salience Classification Accuracy from EEG'" pointer-events="none"><text text-anchor="start" transform="translate(0,10)" font-family="sans-serif" font-size="13px" font-weight="bold" fill="#000" opacity="1">Salience Classification Accuracy from EEG</text></g></g><path class="foreground" aria-hidden="true" d="" pointer-events="none" display="none"></path></g></g></g><path class="foreground" aria-hidden="true" d="" display="none"></path></g></g></g></svg>
