<?xml version="1.0" encoding="utf-8"?>
<!DOCTYPE svg PUBLIC "-//W3C//DTD SVG 1.1//EN" "http://www.w3.org/Graphics/SVG/1.1/DTD/svg11.dtd">
<svg class="marks" width="126" height="248" viewBox="0 0 126 248" version="1.1" xmlns="http://www.w3.org/2000/svg" xmlns:xlink="http://www.w3.org/1999/xlink"><rect width="126" height="248" fill="white"></rect><g fill="none" stroke-miterlimit="10" transform="translate(46,5)"><g class="mark-group role-frame root" role="graphics-object" aria-roledescription="group mark container"><g transform="translate(0,0)"><path class="background" aria-hidden="true" d="M0.5,0.5h75v200h-75Z" stroke="#ddd"></path><g><g class="mark-group role-axis" aria-hidden="true"><g transform="translate(0.5,0.5)"><path class="background" aria-hidden="true" d="M0,0h0v0h0Z" pointer-events="none"></path><g><g class="mark-rule role-axis-grid" pointer-events="none"><line transform="translate(0,175)" x2="75" y2="0" stroke="#ddd" stroke-width="1" opacity="1"></line><line transform="translate(0,133)" x2="75" y2="0" stroke="#ddd" stroke-width="1" opacity="1"></line><line transform="translate(0,92)" x2="75" y2="0" stroke="#ddd" stroke-width="1" opacity="1"></line><line transform="translate(0,50)" x2="75" y2="0" stroke="#ddd" stroke-width="1" opacity="1"></line><line transform="translate(0,8)" x2="75" y2="0" stroke="#ddd" stroke-width="1" opacity="1"></line></g></g><path class="foreground" aria-hidden="true" d="" pointer-events="none" display="none"></path></g></g><g class="mark-group role-axis" role="graphics-symbol" aria-roledescription="axis" aria-label="X-axis for a discrete scale with 3 values: global, object, spatial"><g transform="translate(0.5,200.5)"><path class="background" aria-hidden="true" d="M0,0h0v0h0Z" pointer-events="none"></path><g><g class="mark-rule role-axis-tick" pointer-events="none"><line transform="translate(12,0)" x2="0" y2="5" stroke="#888" stroke-width="1" opacity="1"></line><line transform="translate(37,0)" x2="0" y2="5" stroke="#888" stroke-width="1" opacity="1"></line><line transform="translate(62,0)" x2="0" y2="5" stroke="#888" stroke-width="1" opacity="1"></line></g><g class="mark-text role-axis-label" pointer-events="none"><text text-anchor="end" transform="translate(12,7) rotate(315) translate(0,8)" font-family="sans-serif" font-size="10px" fill="#000" opacity="1">global</text><text text-anchor="end" transform="translate(37,7) rotate(315) translate(0,8)" font-family="sans-serif" font-size="10px" fill="#000" opacity="1">object</text><text text-anchor="end" transform="translate(62,7) rotate(315) translate(0,8)" font-family="sans-serif" font-size="10px" fill="#000" opacity="1">spatial</text></g><g class="mark-rule role-axis-domain" pointer-events="none"><line transform="translate(0,0)" x2="75" y2="0" stroke="#888" stroke-width="1" opacity="1"></line></g></g><path class="foreground" aria-hidden="true" d="" pointer-events="none" display="none"></path></g></g><g class="mark-group role-axis" role="graphics-symbol" aria-roledescription="axis" aria-label="Y-axis titled 'Target - Non-target Score' for a linear scale with values from -1.8 to 0.6"><g transform="translate(0.5,0.5)"><path class="background" aria-hidden="true" d="M0,0h0v0h0Z" pointer-events="none"></path><g><g class="mark-rule role-axis-tick" pointer-events="none"><line transform="translate(0,175)" x2="-5" y2="0" stroke="#888" stroke-width="1" opacity="1"></line><line transform="translate(0,133)" x2="-5" y2="0" stroke="#888" stroke-width="1" opacity="1"></line><line transform="translate(0,92)" x2="-5" y2="0" stroke="#888" stroke-width="1" opacity="1"></line><line transform="translate(0,50)" x2="-5" y2="0" stroke="#888" stroke-width="1" opacity="1"></line><line transform="translate(0,8)" x2="-5" y2="0" stroke="#888" stroke-width="1" opacity="1"></line></g><g class="mark-text role-axis-label" pointer-events="none"><text text-anchor="end" transform="translate(-7,178)" font-family="sans-serif" font-size="10px" fill="#000" opacity="1">-1.5</text><text text-anchor="end" transform="translate(-7,136.33333333333331)" font-family="sans-serif" font-size="10px" fill="#000" opacity="1">-1.0</text><text text-anchor="end" transform="translate(-7,94.66666666666666)" font-family="sans-serif" font-size="10px" fill="#000" opacity="1">-0.5</text><text text-anchor="end" transform="translate(-7,53)" font-family="sans-serif" font-size="10px" fill="#000" opacity="1">0.0</text><text text-anchor="end" transform="translate(-7,11.333333333333348)" font-family="sans-serif" font-size="10px" fill="#000" opacity="1">0.5</text></g><g class="mark-rule role-axis-domain" pointer-events="none"><line transform="translate(0,200)" x2="0" y2="-200" stroke="#888" stroke-width="1" opacity="1"></line></g><g class="mark-text role-axis-title" pointer-events="none"><text text-anchor="middle" transform="translate(-30,100) rotate(-90) translate(0,-2)" font-family="sans-serif" font-size="11px" font-weight="bold" fill="#000" opacity="1">Target - Non-target Score</text></g></g><path class="foreground" aria-hidden="true" d="" pointer-events="none" display="none"></path></g></g><g class="mark-symbol role-mark layer_0_layer_0_marks" role="graphics-object" aria-roledescription="symbol mark container"><path aria-label="condition: global; : global; Mean of cordiff: -0.186872358458" role="graphics-symbol" aria-roledescription="point" transform="translate(9.5,65.57269653819444)" d="M2.7386127875258306,0A2.7386127875258306,2.7386127875258306,0,1,1,-2.7386127875258306,0A2.7386127875258306,2.7386127875258306,0,1,1,2.7386127875258306,0" stroke="#0F3C5F" stroke-width="2"></path><path aria-label="condition: object; : object; Mean of cordiff: 0.0477262864792" role="graphics-symbol" aria-roledescription="point" transform="translate(34.5,46.022809460069425)" d="M2.7386127875258306,0A2.7386127875258306,2.7386127875258306,0,1,1,-2.7386127875258306,0A2.7386127875258306,2.7386127875258306,0,1,1,2.7386127875258306,0" stroke="#687B3E" stroke-width="2"></path><path aria-label="condition: spatial; : spatial; Mean of cordiff: -0.572463800833" role="graphics-symbol" aria-roledescription="point" transform="translate(59.5,97.70531673611109)" d="M2.7386127875258306,0A2.7386127875258306,2.7386127875258306,0,1,1,-2.7386127875258306,0A2.7386127875258306,2.7386127875258306,0,1,1,2.7386127875258306,0" stroke="#EB9A60" stroke-width="2"></path></g><g class="mark-symbol role-mark layer_0_layer_1_marks" role="graphics-object" aria-roledescription="symbol mark container"><path aria-label="condition: global; : global; Target - Non-target Score: -0.26092443" role="graphics-symbol" aria-roledescription="point" transform="translate(15.5,71.7437025)" d="M2.7386127875258306,0A2.7386127875258306,2.7386127875258306,0,1,1,-2.7386127875258306,0A2.7386127875258306,2.7386127875258306,0,1,1,2.7386127875258306,0" fill="#0F3C5F" stroke-width="2" opacity="0.7"></path><path aria-label="condition: object; : object; Target - Non-target Score: 0.054079086" role="graphics-symbol" aria-roledescription="point" transform="translate(40.5,45.493409499999984)" d="M2.7386127875258306,0A2.7386127875258306,2.7386127875258306,0,1,1,-2.7386127875258306,0A2.7386127875258306,2.7386127875258306,0,1,1,2.7386127875258306,0" fill="#687B3E" stroke-width="2" opacity="0.7"></path><path aria-label="condition: spatial; : spatial; Target - Non-target Score: -0.40559286" role="graphics-symbol" aria-roledescription="point" transform="translate(65.5,83.79940500000001)" d="M2.7386127875258306,0A2.7386127875258306,2.7386127875258306,0,1,1,-2.7386127875258306,0A2.7386127875258306,2.7386127875258306,0,1,1,2.7386127875258306,0" fill="#EB9A60" stroke-width="2" opacity="0.7"></path><path aria-label="condition: global; : global; Target - Non-target Score: -0.25404832" role="graphics-symbol" aria-roledescription="point" transform="translate(15.5,71.17069333333332)" d="M2.7386127875258306,0A2.7386127875258306,2.7386127875258306,0,1,1,-2.7386127875258306,0A2.7386127875258306,2.7386127875258306,0,1,1,2.7386127875258306,0" fill="#0F3C5F" stroke-width="2" opacity="0.7"></path><path aria-label="condition: object; : object; Target - Non-target Score: 0.0031234105" role="graphics-symbol" aria-roledescription="point" transform="translate(40.5,49.73971579166665)" d="M2.7386127875258306,0A2.7386127875258306,2.7386127875258306,0,1,1,-2.7386127875258306,0A2.7386127875258306,2.7386127875258306,0,1,1,2.7386127875258306,0" fill="#687B3E" stroke-width="2" opacity="0.7"></path><path aria-label="condition: spatial; : spatial; Target - Non-target Score: -0.26607534" role="graphics-symbol" aria-roledescription="point" transform="translate(65.5,72.172945)" d="M2.7386127875258306,0A2.7386127875258306,2.7386127875258306,0,1,1,-2.7386127875258306,0A2.7386127875258306,2.7386127875258306,0,1,1,2.7386127875258306,0" fill="#EB9A60" stroke-width="2" opacity="0.7"></path><path aria-label="condition: global; : global; Target - Non-target Score: -0.19037928" role="graphics-symbol" aria-roledescription="point" transform="translate(15.5,65.86493999999999)" d="M2.7386127875258306,0A2.7386127875258306,2.7386127875258306,0,1,1,-2.7386127875258306,0A2.7386127875258306,2.7386127875258306,0,1,1,2.7386127875258306,0" fill="#0F3C5F" stroke-width="2" opacity="0.7"></path><path aria-label="condition: object; : object; Target - Non-target Score: -0.02372554" role="graphics-symbol" aria-roledescription="point" transform="translate(40.5,51.977128333333326)" d="M2.7386127875258306,0A2.7386127875258306,2.7386127875258306,0,1,1,-2.7386127875258306,0A2.7386127875258306,2.7386127875258306,0,1,1,2.7386127875258306,0" fill="#687B3E" stroke-width="2" opacity="0.7"></path><path aria-label="condition: spatial; : spatial; Target - Non-target Score: -0.45215568" role="graphics-symbol" aria-roledescription="point" transform="translate(65.5,87.67963999999999)" d="M2.7386127875258306,0A2.7386127875258306,2.7386127875258306,0,1,1,-2.7386127875258306,0A2.7386127875258306,2.7386127875258306,0,1,1,2.7386127875258306,0" fill="#EB9A60" stroke-width="2" opacity="0.7"></path><path aria-label="condition: global; : global; Target - Non-target Score: -0.103229426" role="graphics-symbol" aria-roledescription="point" transform="translate(15.5,58.602452166666666)" d="M2.7386127875258306,0A2.7386127875258306,2.7386127875258306,0,1,1,-2.7386127875258306,0A2.7386127875258306,2.7386127875258306,0,1,1,2.7386127875258306,0" fill="#0F3C5F" stroke-width="2" opacity="0.7"></path><path aria-label="condition: object; : object; Target - Non-target Score: -0.06962438" role="graphics-symbol" aria-roledescription="point" transform="translate(40.5,55.802031666666664)" d="M2.7386127875258306,0A2.7386127875258306,2.7386127875258306,0,1,1,-2.7386127875258306,0A2.7386127875258306,2.7386127875258306,0,1,1,2.7386127875258306,0" fill="#687B3E" stroke-width="2" opacity="0.7"></path><path aria-label="condition: spatial; : spatial; Target - Non-target Score: -1.6649246" role="graphics-symbol" aria-roledescription="point" transform="translate(65.5,188.74371666666664)" d="M2.7386127875258306,0A2.7386127875258306,2.7386127875258306,0,1,1,-2.7386127875258306,0A2.7386127875258306,2.7386127875258306,0,1,1,2.7386127875258306,0" fill="#EB9A60" stroke-width="2" opacity="0.7"></path><path aria-label="condition: global; : global; Target - Non-target Score: -0.31009862" role="graphics-symbol" aria-roledescription="point" transform="translate(15.5,75.84155166666666)" d="M2.7386127875258306,0A2.7386127875258306,2.7386127875258306,0,1,1,-2.7386127875258306,0A2.7386127875258306,2.7386127875258306,0,1,1,2.7386127875258306,0" fill="#0F3C5F" stroke-width="2" opacity="0.7"></path><path aria-label="condition: object; : object; Target - Non-target Score: -0.05804546" role="graphics-symbol" aria-roledescription="point" transform="translate(40.5,54.837121666666654)" d="M2.7386127875258306,0A2.7386127875258306,2.7386127875258306,0,1,1,-2.7386127875258306,0A2.7386127875258306,2.7386127875258306,0,1,1,2.7386127875258306,0" fill="#687B3E" stroke-width="2" opacity="0.7"></path><path aria-label="condition: spatial; : spatial; Target - Non-target Score: -0.4870605" role="graphics-symbol" aria-roledescription="point" transform="translate(65.5,90.58837499999998)" d="M2.7386127875258306,0A2.7386127875258306,2.7386127875258306,0,1,1,-2.7386127875258306,0A2.7386127875258306,2.7386127875258306,0,1,1,2.7386127875258306,0" fill="#EB9A60" stroke-width="2" opacity="0.7"></path><path aria-label="condition: global; : global; Target - Non-target Score: -0.2673027" role="graphics-symbol" aria-roledescription="point" transform="translate(15.5,72.27522499999999)" d="M2.7386127875258306,0A2.7386127875258306,2.7386127875258306,0,1,1,-2.7386127875258306,0A2.7386127875258306,2.7386127875258306,0,1,1,2.7386127875258306,0" fill="#0F3C5F" stroke-width="2" opacity="0.7"></path><path aria-label="condition: object; : object; Target - Non-target Score: -0.010773143" role="graphics-symbol" aria-roledescription="point" transform="translate(40.5,50.89776191666666)" d="M2.7386127875258306,0A2.7386127875258306,2.7386127875258306,0,1,1,-2.7386127875258306,0A2.7386127875258306,2.7386127875258306,0,1,1,2.7386127875258306,0" fill="#687B3E" stroke-width="2" opacity="0.7"></path><path aria-label="condition: spatial; : spatial; Target - Non-target Score: -0.14550647" role="graphics-symbol" aria-roledescription="point" transform="translate(65.5,62.125539166666655)" d="M2.7386127875258306,0A2.7386127875258306,2.7386127875258306,0,1,1,-2.7386127875258306,0A2.7386127875258306,2.7386127875258306,0,1,1,2.7386127875258306,0" fill="#EB9A60" stroke-width="2" opacity="0.7"></path><path aria-label="condition: global; : global; Target - Non-target Score: -0.23877622" role="graphics-symbol" aria-roledescription="point" transform="translate(15.5,69.89801833333334)" d="M2.7386127875258306,0A2.7386127875258306,2.7386127875258306,0,1,1,-2.7386127875258306,0A2.7386127875258306,2.7386127875258306,0,1,1,2.7386127875258306,0" fill="#0F3C5F" stroke-width="2" opacity="0.7"></path><path aria-label="condition: object; : object; Target - Non-target Score: 0.20078182" role="graphics-symbol" aria-roledescription="point" transform="translate(40.5,33.26818166666663)" d="M2.7386127875258306,0A2.7386127875258306,2.7386127875258306,0,1,1,-2.7386127875258306,0A2.7386127875258306,2.7386127875258306,0,1,1,2.7386127875258306,0" fill="#687B3E" stroke-width="2" opacity="0.7"></path><path aria-label="condition: spatial; : spatial; Target - Non-target Score: -0.53864723" role="graphics-symbol" aria-roledescription="point" transform="translate(65.5,94.88726916666666)" d="M2.7386127875258306,0A2.7386127875258306,2.7386127875258306,0,1,1,-2.7386127875258306,0A2.7386127875258306,2.7386127875258306,0,1,1,2.7386127875258306,0" fill="#EB9A60" stroke-width="2" opacity="0.7"></path><path aria-label="condition: global; : global; Target - Non-target Score: -0.12864582" role="graphics-symbol" aria-roledescription="point" transform="translate(15.5,60.720485000000004)" d="M2.7386127875258306,0A2.7386127875258306,2.7386127875258306,0,1,1,-2.7386127875258306,0A2.7386127875258306,2.7386127875258306,0,1,1,2.7386127875258306,0" fill="#0F3C5F" stroke-width="2" opacity="0.7"></path><path aria-label="condition: object; : object; Target - Non-target Score: -0.068466894" role="graphics-symbol" aria-roledescription="point" transform="translate(40.5,55.705574499999976)" d="M2.7386127875258306,0A2.7386127875258306,2.7386127875258306,0,1,1,-2.7386127875258306,0A2.7386127875258306,2.7386127875258306,0,1,1,2.7386127875258306,0" fill="#687B3E" stroke-width="2" opacity="0.7"></path><path aria-label="condition: spatial; : spatial; Target - Non-target Score: -0.5688948" role="graphics-symbol" aria-roledescription="point" transform="translate(65.5,97.4079)" d="M2.7386127875258306,0A2.7386127875258306,2.7386127875258306,0,1,1,-2.7386127875258306,0A2.7386127875258306,2.7386127875258306,0,1,1,2.7386127875258306,0" fill="#EB9A60" stroke-width="2" opacity="0.7"></path><path aria-label="condition: global; : global; Target - Non-target Score: -0.16003233" role="graphics-symbol" aria-roledescription="point" transform="translate(15.5,63.33602749999998)" d="M2.7386127875258306,0A2.7386127875258306,2.7386127875258306,0,1,1,-2.7386127875258306,0A2.7386127875258306,2.7386127875258306,0,1,1,2.7386127875258306,0" fill="#0F3C5F" stroke-width="2" opacity="0.7"></path><path aria-label="condition: object; : object; Target - Non-target Score: 0.035323147" role="graphics-symbol" aria-roledescription="point" transform="translate(40.5,47.05640441666665)" d="M2.7386127875258306,0A2.7386127875258306,2.7386127875258306,0,1,1,-2.7386127875258306,0A2.7386127875258306,2.7386127875258306,0,1,1,2.7386127875258306,0" fill="#687B3E" stroke-width="2" opacity="0.7"></path><path aria-label="condition: spatial; : spatial; Target - Non-target Score: 0.10609935" role="graphics-symbol" aria-roledescription="point" transform="translate(65.5,41.15838749999998)" d="M2.7386127875258306,0A2.7386127875258306,2.7386127875258306,0,1,1,-2.7386127875258306,0A2.7386127875258306,2.7386127875258306,0,1,1,2.7386127875258306,0" fill="#EB9A60" stroke-width="2" opacity="0.7"></path><path aria-label="condition: global; : global; Target - Non-target Score: -0.05555836" role="graphics-symbol" aria-roledescription="point" transform="translate(15.5,54.629863333333326)" d="M2.7386127875258306,0A2.7386127875258306,2.7386127875258306,0,1,1,-2.7386127875258306,0A2.7386127875258306,2.7386127875258306,0,1,1,2.7386127875258306,0" fill="#0F3C5F" stroke-width="2" opacity="0.7"></path><path aria-label="condition: object; : object; Target - Non-target Score: 0.04204128" role="graphics-symbol" aria-roledescription="point" transform="translate(40.5,46.496559999999974)" d="M2.7386127875258306,0A2.7386127875258306,2.7386127875258306,0,1,1,-2.7386127875258306,0A2.7386127875258306,2.7386127875258306,0,1,1,2.7386127875258306,0" fill="#687B3E" stroke-width="2" opacity="0.7"></path><path aria-label="condition: spatial; : spatial; Target - Non-target Score: -0.78034854" role="graphics-symbol" aria-roledescription="point" transform="translate(65.5,115.029045)" d="M2.7386127875258306,0A2.7386127875258306,2.7386127875258306,0,1,1,-2.7386127875258306,0A2.7386127875258306,2.7386127875258306,0,1,1,2.7386127875258306,0" fill="#EB9A60" stroke-width="2" opacity="0.7"></path><path aria-label="condition: global; : global; Target - Non-target Score: -0.32618538" role="graphics-symbol" aria-roledescription="point" transform="translate(15.5,77.18211500000001)" d="M2.7386127875258306,0A2.7386127875258306,2.7386127875258306,0,1,1,-2.7386127875258306,0A2.7386127875258306,2.7386127875258306,0,1,1,2.7386127875258306,0" fill="#0F3C5F" stroke-width="2" opacity="0.7"></path><path aria-label="condition: object; : object; Target - Non-target Score: 0.37407613" role="graphics-symbol" aria-roledescription="point" transform="translate(40.5,18.826989166666653)" d="M2.7386127875258306,0A2.7386127875258306,2.7386127875258306,0,1,1,-2.7386127875258306,0A2.7386127875258306,2.7386127875258306,0,1,1,2.7386127875258306,0" fill="#687B3E" stroke-width="2" opacity="0.7"></path><path aria-label="condition: spatial; : spatial; Target - Non-target Score: -0.1864531" role="graphics-symbol" aria-roledescription="point" transform="translate(65.5,65.53775833333333)" d="M2.7386127875258306,0A2.7386127875258306,2.7386127875258306,0,1,1,-2.7386127875258306,0A2.7386127875258306,2.7386127875258306,0,1,1,2.7386127875258306,0" fill="#EB9A60" stroke-width="2" opacity="0.7"></path><path aria-label="condition: global; : global; Target - Non-target Score: 0.061333966" role="graphics-symbol" aria-roledescription="point" transform="translate(15.5,44.88883616666666)" d="M2.7386127875258306,0A2.7386127875258306,2.7386127875258306,0,1,1,-2.7386127875258306,0A2.7386127875258306,2.7386127875258306,0,1,1,2.7386127875258306,0" fill="#0F3C5F" stroke-width="2" opacity="0.7"></path><path aria-label="condition: object; : object; Target - Non-target Score: 0.14463113" role="graphics-symbol" aria-roledescription="point" transform="translate(40.5,37.94740583333331)" d="M2.7386127875258306,0A2.7386127875258306,2.7386127875258306,0,1,1,-2.7386127875258306,0A2.7386127875258306,2.7386127875258306,0,1,1,2.7386127875258306,0" fill="#687B3E" stroke-width="2" opacity="0.7"></path><path aria-label="condition: spatial; : spatial; Target - Non-target Score: -0.33305678" role="graphics-symbol" aria-roledescription="point" transform="translate(65.5,77.75473166666664)" d="M2.7386127875258306,0A2.7386127875258306,2.7386127875258306,0,1,1,-2.7386127875258306,0A2.7386127875258306,2.7386127875258306,0,1,1,2.7386127875258306,0" fill="#EB9A60" stroke-width="2" opacity="0.7"></path><path aria-label="condition: global; : global; Target - Non-target Score: -0.15501012" role="graphics-symbol" aria-roledescription="point" transform="translate(15.5,62.917509999999986)" d="M2.7386127875258306,0A2.7386127875258306,2.7386127875258306,0,1,1,-2.7386127875258306,0A2.7386127875258306,2.7386127875258306,0,1,1,2.7386127875258306,0" fill="#0F3C5F" stroke-width="2" opacity="0.7"></path><path aria-label="condition: object; : object; Target - Non-target Score: 0.21877576" role="graphics-symbol" aria-roledescription="point" transform="translate(40.5,31.768686666666657)" d="M2.7386127875258306,0A2.7386127875258306,2.7386127875258306,0,1,1,-2.7386127875258306,0A2.7386127875258306,2.7386127875258306,0,1,1,2.7386127875258306,0" fill="#687B3E" stroke-width="2" opacity="0.7"></path><path aria-label="condition: spatial; : spatial; Target - Non-target Score: -1.1114428" role="graphics-symbol" aria-roledescription="point" transform="translate(65.5,142.62023333333335)" d="M2.7386127875258306,0A2.7386127875258306,2.7386127875258306,0,1,1,-2.7386127875258306,0A2.7386127875258306,2.7386127875258306,0,1,1,2.7386127875258306,0" fill="#EB9A60" stroke-width="2" opacity="0.7"></path><path aria-label="condition: global; : global; Target - Non-target Score: -0.34898162" role="graphics-symbol" aria-roledescription="point" transform="translate(15.5,79.08180166666665)" d="M2.7386127875258306,0A2.7386127875258306,2.7386127875258306,0,1,1,-2.7386127875258306,0A2.7386127875258306,2.7386127875258306,0,1,1,2.7386127875258306,0" fill="#0F3C5F" stroke-width="2" opacity="0.7"></path><path aria-label="condition: object; : object; Target - Non-target Score: 0.003963119" role="graphics-symbol" aria-roledescription="point" transform="translate(40.5,49.669740083333316)" d="M2.7386127875258306,0A2.7386127875258306,2.7386127875258306,0,1,1,-2.7386127875258306,0A2.7386127875258306,2.7386127875258306,0,1,1,2.7386127875258306,0" fill="#687B3E" stroke-width="2" opacity="0.7"></path><path aria-label="condition: spatial; : spatial; Target - Non-target Score: -0.20217206" role="graphics-symbol" aria-roledescription="point" transform="translate(65.5,66.84767166666666)" d="M2.7386127875258306,0A2.7386127875258306,2.7386127875258306,0,1,1,-2.7386127875258306,0A2.7386127875258306,2.7386127875258306,0,1,1,2.7386127875258306,0" fill="#EB9A60" stroke-width="2" opacity="0.7"></path><path aria-label="condition: global; : global; Target - Non-target Score: -0.101268746" role="graphics-symbol" aria-roledescription="point" transform="translate(15.5,58.43906216666666)" d="M2.7386127875258306,0A2.7386127875258306,2.7386127875258306,0,1,1,-2.7386127875258306,0A2.7386127875258306,2.7386127875258306,0,1,1,2.7386127875258306,0" fill="#0F3C5F" stroke-width="2" opacity="0.7"></path><path aria-label="condition: object; : object; Target - Non-target Score: -0.10542264" role="graphics-symbol" aria-roledescription="point" transform="translate(40.5,58.785219999999995)" d="M2.7386127875258306,0A2.7386127875258306,2.7386127875258306,0,1,1,-2.7386127875258306,0A2.7386127875258306,2.7386127875258306,0,1,1,2.7386127875258306,0" fill="#687B3E" stroke-width="2" opacity="0.7"></path><path aria-label="condition: spatial; : spatial; Target - Non-target Score: -0.42542467" role="graphics-symbol" aria-roledescription="point" transform="translate(65.5,85.45205583333333)" d="M2.7386127875258306,0A2.7386127875258306,2.7386127875258306,0,1,1,-2.7386127875258306,0A2.7386127875258306,2.7386127875258306,0,1,1,2.7386127875258306,0" fill="#EB9A60" stroke-width="2" opacity="0.7"></path><path aria-label="condition: global; : global; Target - Non-target Score: -0.21714918" role="graphics-symbol" aria-roledescription="point" transform="translate(15.5,68.09576499999999)" d="M2.7386127875258306,0A2.7386127875258306,2.7386127875258306,0,1,1,-2.7386127875258306,0A2.7386127875258306,2.7386127875258306,0,1,1,2.7386127875258306,0" fill="#0F3C5F" stroke-width="2" opacity="0.7"></path><path aria-label="condition: object; : object; Target - Non-target Score: -0.061082475" role="graphics-symbol" aria-roledescription="point" transform="translate(40.5,55.09020625000001)" d="M2.7386127875258306,0A2.7386127875258306,2.7386127875258306,0,1,1,-2.7386127875258306,0A2.7386127875258306,2.7386127875258306,0,1,1,2.7386127875258306,0" fill="#687B3E" stroke-width="2" opacity="0.7"></path><path aria-label="condition: spatial; : spatial; Target - Non-target Score: -0.47465336" role="graphics-symbol" aria-roledescription="point" transform="translate(65.5,89.55444666666665)" d="M2.7386127875258306,0A2.7386127875258306,2.7386127875258306,0,1,1,-2.7386127875258306,0A2.7386127875258306,2.7386127875258306,0,1,1,2.7386127875258306,0" fill="#EB9A60" stroke-width="2" opacity="0.7"></path><path aria-label="condition: global; : global; Target - Non-target Score: -0.23312987" role="graphics-symbol" aria-roledescription="point" transform="translate(15.5,69.42748916666666)" d="M2.7386127875258306,0A2.7386127875258306,2.7386127875258306,0,1,1,-2.7386127875258306,0A2.7386127875258306,2.7386127875258306,0,1,1,2.7386127875258306,0" fill="#0F3C5F" stroke-width="2" opacity="0.7"></path><path aria-label="condition: object; : object; Target - Non-target Score: 0.075968325" role="graphics-symbol" aria-roledescription="point" transform="translate(40.5,43.669306249999984)" d="M2.7386127875258306,0A2.7386127875258306,2.7386127875258306,0,1,1,-2.7386127875258306,0A2.7386127875258306,2.7386127875258306,0,1,1,2.7386127875258306,0" fill="#687B3E" stroke-width="2" opacity="0.7"></path><path aria-label="condition: spatial; : spatial; Target - Non-target Score: -0.5571585" role="graphics-symbol" aria-roledescription="point" transform="translate(65.5,96.429875)" d="M2.7386127875258306,0A2.7386127875258306,2.7386127875258306,0,1,1,-2.7386127875258306,0A2.7386127875258306,2.7386127875258306,0,1,1,2.7386127875258306,0" fill="#EB9A60" stroke-width="2" opacity="0.7"></path><path aria-label="condition: global; : global; Target - Non-target Score: -0.31715968" role="graphics-symbol" aria-roledescription="point" transform="translate(15.5,76.42997333333332)" d="M2.7386127875258306,0A2.7386127875258306,2.7386127875258306,0,1,1,-2.7386127875258306,0A2.7386127875258306,2.7386127875258306,0,1,1,2.7386127875258306,0" fill="#0F3C5F" stroke-width="2" opacity="0.7"></path><path aria-label="condition: object; : object; Target - Non-target Score: 0.13672407" role="graphics-symbol" aria-roledescription="point" transform="translate(40.5,38.60632749999999)" d="M2.7386127875258306,0A2.7386127875258306,2.7386127875258306,0,1,1,-2.7386127875258306,0A2.7386127875258306,2.7386127875258306,0,1,1,2.7386127875258306,0" fill="#687B3E" stroke-width="2" opacity="0.7"></path><path aria-label="condition: spatial; : spatial; Target - Non-target Score: -0.5916707" role="graphics-symbol" aria-roledescription="point" transform="translate(65.5,99.30589166666665)" d="M2.7386127875258306,0A2.7386127875258306,2.7386127875258306,0,1,1,-2.7386127875258306,0A2.7386127875258306,2.7386127875258306,0,1,1,2.7386127875258306,0" fill="#EB9A60" stroke-width="2" opacity="0.7"></path><path aria-label="condition: global; : global; Target - Non-target Score: -0.054610845" role="graphics-symbol" aria-roledescription="point" transform="translate(15.5,54.55090375)" d="M2.7386127875258306,0A2.7386127875258306,2.7386127875258306,0,1,1,-2.7386127875258306,0A2.7386127875258306,2.7386127875258306,0,1,1,2.7386127875258306,0" fill="#0F3C5F" stroke-width="2" opacity="0.7"></path><path aria-label="condition: object; : object; Target - Non-target Score: 0.560137" role="graphics-symbol" aria-roledescription="point" transform="translate(40.5,3.3219166666666577)" d="M2.7386127875258306,0A2.7386127875258306,2.7386127875258306,0,1,1,-2.7386127875258306,0A2.7386127875258306,2.7386127875258306,0,1,1,2.7386127875258306,0" fill="#687B3E" stroke-width="2" opacity="0.7"></path><path aria-label="condition: spatial; : spatial; Target - Non-target Score: -1.3355789" role="graphics-symbol" aria-roledescription="point" transform="translate(65.5,161.29824166666666)" d="M2.7386127875258306,0A2.7386127875258306,2.7386127875258306,0,1,1,-2.7386127875258306,0A2.7386127875258306,2.7386127875258306,0,1,1,2.7386127875258306,0" fill="#EB9A60" stroke-width="2" opacity="0.7"></path><path aria-label="condition: global; : global; Target - Non-target Score: -0.046295296" role="graphics-symbol" aria-roledescription="point" transform="translate(15.5,53.85794133333333)" d="M2.7386127875258306,0A2.7386127875258306,2.7386127875258306,0,1,1,-2.7386127875258306,0A2.7386127875258306,2.7386127875258306,0,1,1,2.7386127875258306,0" fill="#0F3C5F" stroke-width="2" opacity="0.7"></path><path aria-label="condition: object; : object; Target - Non-target Score: -0.1934092" role="graphics-symbol" aria-roledescription="point" transform="translate(40.5,66.11743333333334)" d="M2.7386127875258306,0A2.7386127875258306,2.7386127875258306,0,1,1,-2.7386127875258306,0A2.7386127875258306,2.7386127875258306,0,1,1,2.7386127875258306,0" fill="#687B3E" stroke-width="2" opacity="0.7"></path><path aria-label="condition: spatial; : spatial; Target - Non-target Score: -0.7327902" role="graphics-symbol" aria-roledescription="point" transform="translate(65.5,111.06585)" d="M2.7386127875258306,0A2.7386127875258306,2.7386127875258306,0,1,1,-2.7386127875258306,0A2.7386127875258306,2.7386127875258306,0,1,1,2.7386127875258306,0" fill="#EB9A60" stroke-width="2" opacity="0.7"></path><path aria-label="condition: global; : global; Target - Non-target Score: -0.35402083" role="graphics-symbol" aria-roledescription="point" transform="translate(15.5,79.50173583333333)" d="M2.7386127875258306,0A2.7386127875258306,2.7386127875258306,0,1,1,-2.7386127875258306,0A2.7386127875258306,2.7386127875258306,0,1,1,2.7386127875258306,0" fill="#0F3C5F" stroke-width="2" opacity="0.7"></path><path aria-label="condition: object; : object; Target - Non-target Score: 0.24286303" role="graphics-symbol" aria-roledescription="point" transform="translate(40.5,29.76141416666667)" d="M2.7386127875258306,0A2.7386127875258306,2.7386127875258306,0,1,1,-2.7386127875258306,0A2.7386127875258306,2.7386127875258306,0,1,1,2.7386127875258306,0" fill="#687B3E" stroke-width="2" opacity="0.7"></path><path aria-label="condition: spatial; : spatial; Target - Non-target Score: -1.4817841" role="graphics-symbol" aria-roledescription="point" transform="translate(65.5,173.48200833333334)" d="M2.7386127875258306,0A2.7386127875258306,2.7386127875258306,0,1,1,-2.7386127875258306,0A2.7386127875258306,2.7386127875258306,0,1,1,2.7386127875258306,0" fill="#EB9A60" stroke-width="2" opacity="0.7"></path><path aria-label="condition: global; : global; Target - Non-target Score: -0.15773752" role="graphics-symbol" aria-roledescription="point" transform="translate(15.5,63.14479333333332)" d="M2.7386127875258306,0A2.7386127875258306,2.7386127875258306,0,1,1,-2.7386127875258306,0A2.7386127875258306,2.7386127875258306,0,1,1,2.7386127875258306,0" fill="#0F3C5F" stroke-width="2" opacity="0.7"></path><path aria-label="condition: object; : object; Target - Non-target Score: -0.0794336" role="graphics-symbol" aria-roledescription="point" transform="translate(40.5,56.61946666666666)" d="M2.7386127875258306,0A2.7386127875258306,2.7386127875258306,0,1,1,-2.7386127875258306,0A2.7386127875258306,2.7386127875258306,0,1,1,2.7386127875258306,0" fill="#687B3E" stroke-width="2" opacity="0.7"></path><path aria-label="condition: spatial; : spatial; Target - Non-target Score: -0.5438627" role="graphics-symbol" aria-roledescription="point" transform="translate(65.5,95.32189166666667)" d="M2.7386127875258306,0A2.7386127875258306,2.7386127875258306,0,1,1,-2.7386127875258306,0A2.7386127875258306,2.7386127875258306,0,1,1,2.7386127875258306,0" fill="#EB9A60" stroke-width="2" opacity="0.7"></path><path aria-label="condition: global; : global; Target - Non-target Score: -0.100523226" role="graphics-symbol" aria-roledescription="point" transform="translate(15.5,58.37693549999998)" d="M2.7386127875258306,0A2.7386127875258306,2.7386127875258306,0,1,1,-2.7386127875258306,0A2.7386127875258306,2.7386127875258306,0,1,1,2.7386127875258306,0" fill="#0F3C5F" stroke-width="2" opacity="0.7"></path><path aria-label="condition: object; : object; Target - Non-target Score: 0.08600952" role="graphics-symbol" aria-roledescription="point" transform="translate(40.5,42.83253999999999)" d="M2.7386127875258306,0A2.7386127875258306,2.7386127875258306,0,1,1,-2.7386127875258306,0A2.7386127875258306,2.7386127875258306,0,1,1,2.7386127875258306,0" fill="#687B3E" stroke-width="2" opacity="0.7"></path><path aria-label="condition: spatial; : spatial; Target - Non-target Score: -0.28496918" role="graphics-symbol" aria-roledescription="point" transform="translate(65.5,73.74743166666666)" d="M2.7386127875258306,0A2.7386127875258306,2.7386127875258306,0,1,1,-2.7386127875258306,0A2.7386127875258306,2.7386127875258306,0,1,1,2.7386127875258306,0" fill="#EB9A60" stroke-width="2" opacity="0.7"></path><path aria-label="condition: global; : global; Target - Non-target Score: -0.16520275" role="graphics-symbol" aria-roledescription="point" transform="translate(15.5,63.76689583333332)" d="M2.7386127875258306,0A2.7386127875258306,2.7386127875258306,0,1,1,-2.7386127875258306,0A2.7386127875258306,2.7386127875258306,0,1,1,2.7386127875258306,0" fill="#0F3C5F" stroke-width="2" opacity="0.7"></path><path aria-label="condition: object; : object; Target - Non-target Score: -0.36308262" role="graphics-symbol" aria-roledescription="point" transform="translate(40.5,80.25688499999998)" d="M2.7386127875258306,0A2.7386127875258306,2.7386127875258306,0,1,1,-2.7386127875258306,0A2.7386127875258306,2.7386127875258306,0,1,1,2.7386127875258306,0" fill="#687B3E" stroke-width="2" opacity="0.7"></path><path aria-label="condition: spatial; : spatial; Target - Non-target Score: -0.2750075" role="graphics-symbol" aria-roledescription="point" transform="translate(65.5,72.91729166666667)" d="M2.7386127875258306,0A2.7386127875258306,2.7386127875258306,0,1,1,-2.7386127875258306,0A2.7386127875258306,2.7386127875258306,0,1,1,2.7386127875258306,0" fill="#EB9A60" stroke-width="2" opacity="0.7"></path></g><g class="mark-rule role-mark layer_0_layer_2_marks" role="graphics-object" aria-roledescription="rule mark container"><line aria-label=": global; Ci0 of cordiff: -0.228592187698; Ci1 of cordiff: -0.143608856356" role="graphics-symbol" aria-roledescription="rule mark" transform="translate(9.5,69.04934897482637)" x2="0" y2="-7.081944278472214" stroke="black"></line><line aria-label=": object; Ci0 of cordiff: -0.0214013997115; Ci1 of cordiff: 0.123504134657" role="graphics-symbol" aria-roledescription="rule mark" transform="translate(34.5,51.78344997595485)" x2="0" y2="-12.075461197352432" stroke="black"></line><line aria-label=": spatial; Ci0 of cordiff: -0.751752679969; Ci1 of cordiff: -0.396904951469" role="graphics-symbol" aria-roledescription="rule mark" transform="translate(59.5,112.64605666406248)" x2="0" y2="-29.570644041666668" stroke="black"></line></g></g><path class="foreground" aria-hidden="true" d="" display="none"></path></g></g></g></svg>
