<?xml version="1.0" encoding="utf-8"?>
<!DOCTYPE svg PUBLIC "-//W3C//DTD SVG 1.1//EN" "http://www.w3.org/Graphics/SVG/1.1/DTD/svg11.dtd">
<svg class="marks" width="322" height="308" viewBox="0 0 322 308" version="1.1" xmlns="http://www.w3.org/2000/svg" xmlns:xlink="http://www.w3.org/1999/xlink"><rect width="322" height="308" fill="white"></rect><g fill="none" stroke-miterlimit="10" transform="translate(47,57)"><g class="mark-group role-frame root" role="graphics-object" aria-roledescription="group mark container"><g transform="translate(0,0)"><path class="background" aria-hidden="true" d="M0,0h0v0h0Z"></path><g><g class="mark-group role-column-title column-title" role="graphics-object" aria-roledescription="group mark container"><g transform="translate(135,-31)"><path class="background" aria-hidden="true" d="M0,0h0v0h0Z"></path><g><g class="mark-group role-title"><g transform="translate(0,-21)"><path class="background" aria-hidden="true" d="M0,0h0v0h0Z" pointer-events="none"></path><g><g class="mark-text role-title-text" role="graphics-symbol" aria-roledescription="title" aria-label="Title text 'condition'" pointer-events="none"><text text-anchor="middle" transform="translate(0,9)" font-family="sans-serif" font-size="11px" font-weight="bold" fill="#000" opacity="1">condition</text></g></g><path class="foreground" aria-hidden="true" d="" pointer-events="none" display="none"></path></g></g></g><path class="foreground" aria-hidden="true" d="" display="none"></path></g></g><g class="mark-group role-row-header row_header" role="graphics-object" aria-roledescription="group mark container"><g transform="translate(-1,0)"><path class="background" aria-hidden="true" d="M0,0h0v200h0Z"></path><g><g class="mark-group role-axis" role="graphics-symbol" aria-roledescription="axis" aria-label="Y-axis titled 'Target - Non-target Score' for a linear scale with values from -1.2 to 1.2"><g transform="translate(0.5,0.5)"><path class="background" aria-hidden="true" d="M0,0h0v0h0Z" pointer-events="none"></path><g><g class="mark-rule role-axis-tick" pointer-events="none"><line transform="translate(0,183)" x2="-5" y2="0" stroke="#888" stroke-width="1" opacity="1"></line><line transform="translate(0,142)" x2="-5" y2="0" stroke="#888" stroke-width="1" opacity="1"></line><line transform="translate(0,100)" x2="-5" y2="0" stroke="#888" stroke-width="1" opacity="1"></line><line transform="translate(0,58)" x2="-5" y2="0" stroke="#888" stroke-width="1" opacity="1"></line><line transform="translate(0,17)" x2="-5" y2="0" stroke="#888" stroke-width="1" opacity="1"></line></g><g class="mark-text role-axis-label" pointer-events="none"><text text-anchor="end" transform="translate(-7,186.33333333333334)" font-family="sans-serif" font-size="10px" fill="#000" opacity="1">-1.0</text><text text-anchor="end" transform="translate(-7,144.66666666666666)" font-family="sans-serif" font-size="10px" fill="#000" opacity="1">-0.5</text><text text-anchor="end" transform="translate(-7,103)" font-family="sans-serif" font-size="10px" fill="#000" opacity="1">0.0</text><text text-anchor="end" transform="translate(-7,61.33333333333333)" font-family="sans-serif" font-size="10px" fill="#000" opacity="1">0.5</text><text text-anchor="end" transform="translate(-7,19.66666666666665)" font-family="sans-serif" font-size="10px" fill="#000" opacity="1">1.0</text></g><g class="mark-rule role-axis-domain" pointer-events="none"><line transform="translate(0,200)" x2="0" y2="-200" stroke="#888" stroke-width="1" opacity="1"></line></g><g class="mark-text role-axis-title" pointer-events="none"><text text-anchor="middle" transform="translate(-30,100) rotate(-90) translate(0,-2)" font-family="sans-serif" font-size="11px" font-weight="bold" fill="#000" opacity="1">Target - Non-target Score</text></g></g><path class="foreground" aria-hidden="true" d="" pointer-events="none" display="none"></path></g></g></g><path class="foreground" aria-hidden="true" d="" display="none"></path></g></g><g class="mark-group role-column-header column_header" role="graphics-object" aria-roledescription="group mark container"><g transform="translate(0,-1)"><path class="background" aria-hidden="true" d="M0,0h75v0h-75Z"></path><g><g class="mark-group role-title"><g transform="translate(37.5,-20)"><path class="background" aria-hidden="true" d="M0,0h0v0h0Z" pointer-events="none"></path><g><g class="mark-text role-title-text" role="graphics-symbol" aria-roledescription="title" aria-label="Title text 'global'" pointer-events="none"><text text-anchor="middle" transform="translate(0,8)" font-family="sans-serif" font-size="10px" fill="#000" opacity="1">global</text></g></g><path class="foreground" aria-hidden="true" d="" pointer-events="none" display="none"></path></g></g></g><path class="foreground" aria-hidden="true" d="" display="none"></path></g><g transform="translate(97,-1)"><path class="background" aria-hidden="true" d="M0,0h75v0h-75Z"></path><g><g class="mark-group role-title"><g transform="translate(37.5,-20)"><path class="background" aria-hidden="true" d="M0,0h0v0h0Z" pointer-events="none"></path><g><g class="mark-text role-title-text" role="graphics-symbol" aria-roledescription="title" aria-label="Title text 'object'" pointer-events="none"><text text-anchor="middle" transform="translate(0,8)" font-family="sans-serif" font-size="10px" fill="#000" opacity="1">object</text></g></g><path class="foreground" aria-hidden="true" d="" pointer-events="none" display="none"></path></g></g></g><path class="foreground" aria-hidden="true" d="" display="none"></path></g><g transform="translate(194,-1)"><path class="background" aria-hidden="true" d="M0,0h75v0h-75Z"></path><g><g class="mark-group role-title"><g transform="translate(37.5,-20)"><path class="background" aria-hidden="true" d="M0,0h0v0h0Z" pointer-events="none"></path><g><g class="mark-text role-title-text" role="graphics-symbol" aria-roledescription="title" aria-label="Title text 'spatial'" pointer-events="none"><text text-anchor="middle" transform="translate(0,8)" font-family="sans-serif" font-size="10px" fill="#000" opacity="1">spatial</text></g></g><path class="foreground" aria-hidden="true" d="" pointer-events="none" display="none"></path></g></g></g><path class="foreground" aria-hidden="true" d="" display="none"></path></g></g><g class="mark-group role-column-footer column_footer" role="graphics-object" aria-roledescription="group mark container"><g transform="translate(0,201)"><path class="background" aria-hidden="true" d="M0,0h75v0h-75Z"></path><g><g class="mark-group role-axis" role="graphics-symbol" aria-roledescription="axis" aria-label="X-axis titled 'Salience' for a discrete scale with 2 values: far, near"><g transform="translate(0.5,0.5)"><path class="background" aria-hidden="true" d="M0,0h0v0h0Z" pointer-events="none"></path><g><g class="mark-rule role-axis-tick" pointer-events="none"><line transform="translate(18,0)" x2="0" y2="5" stroke="#888" stroke-width="1" opacity="1"></line><line transform="translate(56,0)" x2="0" y2="5" stroke="#888" stroke-width="1" opacity="1"></line></g><g class="mark-text role-axis-label" pointer-events="none"><text text-anchor="end" transform="translate(18.25,7) rotate(315) translate(0,8)" font-family="sans-serif" font-size="10px" fill="#000" opacity="1">far</text><text text-anchor="end" transform="translate(55.75,7) rotate(315) translate(0,8)" font-family="sans-serif" font-size="10px" fill="#000" opacity="1">near</text></g><g class="mark-rule role-axis-domain" pointer-events="none"><line transform="translate(0,0)" x2="75" y2="0" stroke="#888" stroke-width="1" opacity="1"></line></g><g class="mark-text role-axis-title" pointer-events="none"><text text-anchor="middle" transform="translate(37.5,42.62741699796952)" font-family="sans-serif" font-size="11px" font-weight="bold" fill="#000" opacity="1">Salience</text></g></g><path class="foreground" aria-hidden="true" d="" pointer-events="none" display="none"></path></g></g></g><path class="foreground" aria-hidden="true" d="" display="none"></path></g><g transform="translate(97,201)"><path class="background" aria-hidden="true" d="M0,0h75v0h-75Z"></path><g><g class="mark-group role-axis" role="graphics-symbol" aria-roledescription="axis" aria-label="X-axis titled 'Salience' for a discrete scale with 2 values: far, near"><g transform="translate(0.5,0.5)"><path class="background" aria-hidden="true" d="M0,0h0v0h0Z" pointer-events="none"></path><g><g class="mark-rule role-axis-tick" pointer-events="none"><line transform="translate(18,0)" x2="0" y2="5" stroke="#888" stroke-width="1" opacity="1"></line><line transform="translate(56,0)" x2="0" y2="5" stroke="#888" stroke-width="1" opacity="1"></line></g><g class="mark-text role-axis-label" pointer-events="none"><text text-anchor="end" transform="translate(18.25,7) rotate(315) translate(0,8)" font-family="sans-serif" font-size="10px" fill="#000" opacity="1">far</text><text text-anchor="end" transform="translate(55.75,7) rotate(315) translate(0,8)" font-family="sans-serif" font-size="10px" fill="#000" opacity="1">near</text></g><g class="mark-rule role-axis-domain" pointer-events="none"><line transform="translate(0,0)" x2="75" y2="0" stroke="#888" stroke-width="1" opacity="1"></line></g><g class="mark-text role-axis-title" pointer-events="none"><text text-anchor="middle" transform="translate(37.5,42.62741699796952)" font-family="sans-serif" font-size="11px" font-weight="bold" fill="#000" opacity="1">Salience</text></g></g><path class="foreground" aria-hidden="true" d="" pointer-events="none" display="none"></path></g></g></g><path class="foreground" aria-hidden="true" d="" display="none"></path></g><g transform="translate(194,201)"><path class="background" aria-hidden="true" d="M0,0h75v0h-75Z"></path><g><g class="mark-group role-axis" role="graphics-symbol" aria-roledescription="axis" aria-label="X-axis titled 'Salience' for a discrete scale with 2 values: far, near"><g transform="translate(0.5,0.5)"><path class="background" aria-hidden="true" d="M0,0h0v0h0Z" pointer-events="none"></path><g><g class="mark-rule role-axis-tick" pointer-events="none"><line transform="translate(18,0)" x2="0" y2="5" stroke="#888" stroke-width="1" opacity="1"></line><line transform="translate(56,0)" x2="0" y2="5" stroke="#888" stroke-width="1" opacity="1"></line></g><g class="mark-text role-axis-label" pointer-events="none"><text text-anchor="end" transform="translate(18.25,7) rotate(315) translate(0,8)" font-family="sans-serif" font-size="10px" fill="#000" opacity="1">far</text><text text-anchor="end" transform="translate(55.75,7) rotate(315) translate(0,8)" font-family="sans-serif" font-size="10px" fill="#000" opacity="1">near</text></g><g class="mark-rule role-axis-domain" pointer-events="none"><line transform="translate(0,0)" x2="75" y2="0" stroke="#888" stroke-width="1" opacity="1"></line></g><g class="mark-text role-axis-title" pointer-events="none"><text text-anchor="middle" transform="translate(37.5,42.62741699796952)" font-family="sans-serif" font-size="11px" font-weight="bold" fill="#000" opacity="1">Salience</text></g></g><path class="foreground" aria-hidden="true" d="" pointer-events="none" display="none"></path></g></g></g><path class="foreground" aria-hidden="true" d="" display="none"></path></g></g><g class="mark-group role-scope cell" role="graphics-object" aria-roledescription="group mark container"><g transform="translate(0,0)"><path class="background" aria-hidden="true" d="M0.5,0.5h75v200h-75Z" stroke="#ddd"></path><g><g class="mark-group role-axis" aria-hidden="true"><g transform="translate(0.5,0.5)"><path class="background" aria-hidden="true" d="M0,0h0v0h0Z" pointer-events="none"></path><g><g class="mark-rule role-axis-grid" pointer-events="none"><line transform="translate(0,183)" x2="75" y2="0" stroke="#ddd" stroke-width="1" opacity="1"></line><line transform="translate(0,142)" x2="75" y2="0" stroke="#ddd" stroke-width="1" opacity="1"></line><line transform="translate(0,100)" x2="75" y2="0" stroke="#ddd" stroke-width="1" opacity="1"></line><line transform="translate(0,58)" x2="75" y2="0" stroke="#ddd" stroke-width="1" opacity="1"></line><line transform="translate(0,17)" x2="75" y2="0" stroke="#ddd" stroke-width="1" opacity="1"></line></g></g><path class="foreground" aria-hidden="true" d="" pointer-events="none" display="none"></path></g></g><g class="mark-symbol role-mark child_layer_0_marks" role="graphics-object" aria-roledescription="symbol mark container"><path aria-label="target_switch_label: far; Salience: far; Mean of cordiff: 0.555799185833" role="graphics-symbol" aria-roledescription="point" transform="translate(15.75,53.68340118055555)" d="M2.7386127875258306,0A2.7386127875258306,2.7386127875258306,0,1,1,-2.7386127875258306,0A2.7386127875258306,2.7386127875258306,0,1,1,2.7386127875258306,0" stroke="#2C55A1" stroke-width="2"></path><path aria-label="target_switch_label: near; Salience: near; Mean of cordiff: 0.505141453333" role="graphics-symbol" aria-roledescription="point" transform="translate(53.25,57.90487888888889)" d="M2.7386127875258306,0A2.7386127875258306,2.7386127875258306,0,1,1,-2.7386127875258306,0A2.7386127875258306,2.7386127875258306,0,1,1,2.7386127875258306,0" stroke="#84B672" stroke-width="2"></path></g><g class="mark-symbol role-mark child_layer_1_marks" role="graphics-object" aria-roledescription="symbol mark container"><path aria-label="target_switch_label: far; Salience: far; Target - Non-target Score: 0.8533289" role="graphics-symbol" aria-roledescription="point" transform="translate(21.75,28.889258333333334)" d="M2.7386127875258306,0A2.7386127875258306,2.7386127875258306,0,1,1,-2.7386127875258306,0A2.7386127875258306,2.7386127875258306,0,1,1,2.7386127875258306,0" fill="#2C55A1" stroke-width="2" opacity="0.7"></path><path aria-label="target_switch_label: near; Salience: near; Target - Non-target Score: 0.47347218" role="graphics-symbol" aria-roledescription="point" transform="translate(59.25,60.54398499999998)" d="M2.7386127875258306,0A2.7386127875258306,2.7386127875258306,0,1,1,-2.7386127875258306,0A2.7386127875258306,2.7386127875258306,0,1,1,2.7386127875258306,0" fill="#84B672" stroke-width="2" opacity="0.7"></path><path aria-label="target_switch_label: near; Salience: near; Target - Non-target Score: 0.210137" role="graphics-symbol" aria-roledescription="point" transform="translate(59.25,82.48858333333334)" d="M2.7386127875258306,0A2.7386127875258306,2.7386127875258306,0,1,1,-2.7386127875258306,0A2.7386127875258306,2.7386127875258306,0,1,1,2.7386127875258306,0" fill="#84B672" stroke-width="2" opacity="0.7"></path><path aria-label="target_switch_label: far; Salience: far; Target - Non-target Score: 0.14692777" role="graphics-symbol" aria-roledescription="point" transform="translate(21.75,87.75601916666666)" d="M2.7386127875258306,0A2.7386127875258306,2.7386127875258306,0,1,1,-2.7386127875258306,0A2.7386127875258306,2.7386127875258306,0,1,1,2.7386127875258306,0" fill="#2C55A1" stroke-width="2" opacity="0.7"></path><path aria-label="target_switch_label: near; Salience: near; Target - Non-target Score: 0.38705224" role="graphics-symbol" aria-roledescription="point" transform="translate(59.25,67.74564666666667)" d="M2.7386127875258306,0A2.7386127875258306,2.7386127875258306,0,1,1,-2.7386127875258306,0A2.7386127875258306,2.7386127875258306,0,1,1,2.7386127875258306,0" fill="#84B672" stroke-width="2" opacity="0.7"></path><path aria-label="target_switch_label: far; Salience: far; Target - Non-target Score: 0.36964446" role="graphics-symbol" aria-roledescription="point" transform="translate(21.75,69.19629499999999)" d="M2.7386127875258306,0A2.7386127875258306,2.7386127875258306,0,1,1,-2.7386127875258306,0A2.7386127875258306,2.7386127875258306,0,1,1,2.7386127875258306,0" fill="#2C55A1" stroke-width="2" opacity="0.7"></path><path aria-label="target_switch_label: far; Salience: far; Target - Non-target Score: 0.6421558" role="graphics-symbol" aria-roledescription="point" transform="translate(21.75,46.48701666666666)" d="M2.7386127875258306,0A2.7386127875258306,2.7386127875258306,0,1,1,-2.7386127875258306,0A2.7386127875258306,2.7386127875258306,0,1,1,2.7386127875258306,0" fill="#2C55A1" stroke-width="2" opacity="0.7"></path><path aria-label="target_switch_label: near; Salience: near; Target - Non-target Score: 0.68149924" role="graphics-symbol" aria-roledescription="point" transform="translate(59.25,43.20839666666667)" d="M2.7386127875258306,0A2.7386127875258306,2.7386127875258306,0,1,1,-2.7386127875258306,0A2.7386127875258306,2.7386127875258306,0,1,1,2.7386127875258306,0" fill="#84B672" stroke-width="2" opacity="0.7"></path><path aria-label="target_switch_label: near; Salience: near; Target - Non-target Score: 0.42349187" role="graphics-symbol" aria-roledescription="point" transform="translate(59.25,64.70901083333331)" d="M2.7386127875258306,0A2.7386127875258306,2.7386127875258306,0,1,1,-2.7386127875258306,0A2.7386127875258306,2.7386127875258306,0,1,1,2.7386127875258306,0" fill="#84B672" stroke-width="2" opacity="0.7"></path><path aria-label="target_switch_label: far; Salience: far; Target - Non-target Score: 0.45482773" role="graphics-symbol" aria-roledescription="point" transform="translate(21.75,62.09768916666665)" d="M2.7386127875258306,0A2.7386127875258306,2.7386127875258306,0,1,1,-2.7386127875258306,0A2.7386127875258306,2.7386127875258306,0,1,1,2.7386127875258306,0" fill="#2C55A1" stroke-width="2" opacity="0.7"></path><path aria-label="target_switch_label: near; Salience: near; Target - Non-target Score: 0.9657097" role="graphics-symbol" aria-roledescription="point" transform="translate(59.25,19.52419166666668)" d="M2.7386127875258306,0A2.7386127875258306,2.7386127875258306,0,1,1,-2.7386127875258306,0A2.7386127875258306,2.7386127875258306,0,1,1,2.7386127875258306,0" fill="#84B672" stroke-width="2" opacity="0.7"></path><path aria-label="target_switch_label: far; Salience: far; Target - Non-target Score: 0.7047221" role="graphics-symbol" aria-roledescription="point" transform="translate(21.75,41.273158333333335)" d="M2.7386127875258306,0A2.7386127875258306,2.7386127875258306,0,1,1,-2.7386127875258306,0A2.7386127875258306,2.7386127875258306,0,1,1,2.7386127875258306,0" fill="#2C55A1" stroke-width="2" opacity="0.7"></path><path aria-label="target_switch_label: far; Salience: far; Target - Non-target Score: 0.564169" role="graphics-symbol" aria-roledescription="point" transform="translate(21.75,52.985916666666675)" d="M2.7386127875258306,0A2.7386127875258306,2.7386127875258306,0,1,1,-2.7386127875258306,0A2.7386127875258306,2.7386127875258306,0,1,1,2.7386127875258306,0" fill="#2C55A1" stroke-width="2" opacity="0.7"></path><path aria-label="target_switch_label: near; Salience: near; Target - Non-target Score: 0.53196305" role="graphics-symbol" aria-roledescription="point" transform="translate(59.25,55.66974583333333)" d="M2.7386127875258306,0A2.7386127875258306,2.7386127875258306,0,1,1,-2.7386127875258306,0A2.7386127875258306,2.7386127875258306,0,1,1,2.7386127875258306,0" fill="#84B672" stroke-width="2" opacity="0.7"></path><path aria-label="target_switch_label: near; Salience: near; Target - Non-target Score: 0.38626888" role="graphics-symbol" aria-roledescription="point" transform="translate(59.25,67.81092666666666)" d="M2.7386127875258306,0A2.7386127875258306,2.7386127875258306,0,1,1,-2.7386127875258306,0A2.7386127875258306,2.7386127875258306,0,1,1,2.7386127875258306,0" fill="#84B672" stroke-width="2" opacity="0.7"></path><path aria-label="target_switch_label: far; Salience: far; Target - Non-target Score: 0.3555408" role="graphics-symbol" aria-roledescription="point" transform="translate(21.75,70.3716)" d="M2.7386127875258306,0A2.7386127875258306,2.7386127875258306,0,1,1,-2.7386127875258306,0A2.7386127875258306,2.7386127875258306,0,1,1,2.7386127875258306,0" fill="#2C55A1" stroke-width="2" opacity="0.7"></path><path aria-label="target_switch_label: near; Salience: near; Target - Non-target Score: 0.3601161" role="graphics-symbol" aria-roledescription="point" transform="translate(59.25,69.990325)" d="M2.7386127875258306,0A2.7386127875258306,2.7386127875258306,0,1,1,-2.7386127875258306,0A2.7386127875258306,2.7386127875258306,0,1,1,2.7386127875258306,0" fill="#84B672" stroke-width="2" opacity="0.7"></path><path aria-label="target_switch_label: far; Salience: far; Target - Non-target Score: 0.56334877" role="graphics-symbol" aria-roledescription="point" transform="translate(21.75,53.05426916666667)" d="M2.7386127875258306,0A2.7386127875258306,2.7386127875258306,0,1,1,-2.7386127875258306,0A2.7386127875258306,2.7386127875258306,0,1,1,2.7386127875258306,0" fill="#2C55A1" stroke-width="2" opacity="0.7"></path><path aria-label="target_switch_label: far; Salience: far; Target - Non-target Score: 0.6518383" role="graphics-symbol" aria-roledescription="point" transform="translate(21.75,45.68014166666667)" d="M2.7386127875258306,0A2.7386127875258306,2.7386127875258306,0,1,1,-2.7386127875258306,0A2.7386127875258306,2.7386127875258306,0,1,1,2.7386127875258306,0" fill="#2C55A1" stroke-width="2" opacity="0.7"></path><path aria-label="target_switch_label: near; Salience: near; Target - Non-target Score: 0.5527618" role="graphics-symbol" aria-roledescription="point" transform="translate(59.25,53.936516666666655)" d="M2.7386127875258306,0A2.7386127875258306,2.7386127875258306,0,1,1,-2.7386127875258306,0A2.7386127875258306,2.7386127875258306,0,1,1,2.7386127875258306,0" fill="#84B672" stroke-width="2" opacity="0.7"></path><path aria-label="target_switch_label: far; Salience: far; Target - Non-target Score: 0.4471957" role="graphics-symbol" aria-roledescription="point" transform="translate(21.75,62.73369166666667)" d="M2.7386127875258306,0A2.7386127875258306,2.7386127875258306,0,1,1,-2.7386127875258306,0A2.7386127875258306,2.7386127875258306,0,1,1,2.7386127875258306,0" fill="#2C55A1" stroke-width="2" opacity="0.7"></path><path aria-label="target_switch_label: near; Salience: near; Target - Non-target Score: 0.30489054" role="graphics-symbol" aria-roledescription="point" transform="translate(59.25,74.592455)" d="M2.7386127875258306,0A2.7386127875258306,2.7386127875258306,0,1,1,-2.7386127875258306,0A2.7386127875258306,2.7386127875258306,0,1,1,2.7386127875258306,0" fill="#84B672" stroke-width="2" opacity="0.7"></path><path aria-label="target_switch_label: far; Salience: far; Target - Non-target Score: 0.9158909" role="graphics-symbol" aria-roledescription="point" transform="translate(21.75,23.675758333333306)" d="M2.7386127875258306,0A2.7386127875258306,2.7386127875258306,0,1,1,-2.7386127875258306,0A2.7386127875258306,2.7386127875258306,0,1,1,2.7386127875258306,0" fill="#2C55A1" stroke-width="2" opacity="0.7"></path><path aria-label="target_switch_label: near; Salience: near; Target - Non-target Score: 0.78433484" role="graphics-symbol" aria-roledescription="point" transform="translate(59.25,34.63876333333333)" d="M2.7386127875258306,0A2.7386127875258306,2.7386127875258306,0,1,1,-2.7386127875258306,0A2.7386127875258306,2.7386127875258306,0,1,1,2.7386127875258306,0" fill="#84B672" stroke-width="2" opacity="0.7"></path></g><g class="mark-rule role-mark child_layer_2_marks" role="graphics-object" aria-roledescription="rule mark container"><line aria-label="Salience: far; Ci0 of cordiff: 0.436310765938; Ci1 of cordiff: 0.664450757979" role="graphics-symbol" aria-roledescription="rule mark" transform="translate(15.75,63.64076950520832)" x2="0" y2="-19.01166600347222" stroke="black"></line><line aria-label="Salience: near; Ci0 of cordiff: 0.394686489062; Ci1 of cordiff: 0.624319511083" role="graphics-symbol" aria-roledescription="rule mark" transform="translate(53.25,67.10945924479168)" x2="0" y2="-19.136085168402793" stroke="black"></line></g></g><path class="foreground" aria-hidden="true" d="" display="none"></path></g><g transform="translate(97,0)"><path class="background" aria-hidden="true" d="M0.5,0.5h75v200h-75Z" stroke="#ddd"></path><g><g class="mark-group role-axis" aria-hidden="true"><g transform="translate(0.5,0.5)"><path class="background" aria-hidden="true" d="M0,0h0v0h0Z" pointer-events="none"></path><g><g class="mark-rule role-axis-grid" pointer-events="none"><line transform="translate(0,183)" x2="75" y2="0" stroke="#ddd" stroke-width="1" opacity="1"></line><line transform="translate(0,142)" x2="75" y2="0" stroke="#ddd" stroke-width="1" opacity="1"></line><line transform="translate(0,100)" x2="75" y2="0" stroke="#ddd" stroke-width="1" opacity="1"></line><line transform="translate(0,58)" x2="75" y2="0" stroke="#ddd" stroke-width="1" opacity="1"></line><line transform="translate(0,17)" x2="75" y2="0" stroke="#ddd" stroke-width="1" opacity="1"></line></g></g><path class="foreground" aria-hidden="true" d="" pointer-events="none" display="none"></path></g></g><g class="mark-symbol role-mark child_layer_0_marks" role="graphics-object" aria-roledescription="symbol mark container"><path aria-label="target_switch_label: far; Salience: far; Mean of cordiff: 0.483117908333" role="graphics-symbol" aria-roledescription="point" transform="translate(15.75,59.74017430555556)" d="M2.7386127875258306,0A2.7386127875258306,2.7386127875258306,0,1,1,-2.7386127875258306,0A2.7386127875258306,2.7386127875258306,0,1,1,2.7386127875258306,0" stroke="#2C55A1" stroke-width="2"></path><path aria-label="target_switch_label: near; Salience: near; Mean of cordiff: 0.524759686667" role="graphics-symbol" aria-roledescription="point" transform="translate(53.25,56.270026111111115)" d="M2.7386127875258306,0A2.7386127875258306,2.7386127875258306,0,1,1,-2.7386127875258306,0A2.7386127875258306,2.7386127875258306,0,1,1,2.7386127875258306,0" stroke="#84B672" stroke-width="2"></path></g><g class="mark-symbol role-mark child_layer_1_marks" role="graphics-object" aria-roledescription="symbol mark container"><path aria-label="target_switch_label: far; Salience: far; Target - Non-target Score: 0.75625676" role="graphics-symbol" aria-roledescription="point" transform="translate(21.75,36.97860333333332)" d="M2.7386127875258306,0A2.7386127875258306,2.7386127875258306,0,1,1,-2.7386127875258306,0A2.7386127875258306,2.7386127875258306,0,1,1,2.7386127875258306,0" fill="#2C55A1" stroke-width="2" opacity="0.7"></path><path aria-label="target_switch_label: near; Salience: near; Target - Non-target Score: 0.8944794" role="graphics-symbol" aria-roledescription="point" transform="translate(59.25,25.460050000000003)" d="M2.7386127875258306,0A2.7386127875258306,2.7386127875258306,0,1,1,-2.7386127875258306,0A2.7386127875258306,2.7386127875258306,0,1,1,2.7386127875258306,0" fill="#84B672" stroke-width="2" opacity="0.7"></path><path aria-label="target_switch_label: near; Salience: near; Target - Non-target Score: 0.33090782" role="graphics-symbol" aria-roledescription="point" transform="translate(59.25,72.42434833333333)" d="M2.7386127875258306,0A2.7386127875258306,2.7386127875258306,0,1,1,-2.7386127875258306,0A2.7386127875258306,2.7386127875258306,0,1,1,2.7386127875258306,0" fill="#84B672" stroke-width="2" opacity="0.7"></path><path aria-label="target_switch_label: far; Salience: far; Target - Non-target Score: 0.26484147" role="graphics-symbol" aria-roledescription="point" transform="translate(21.75,77.92987749999998)" d="M2.7386127875258306,0A2.7386127875258306,2.7386127875258306,0,1,1,-2.7386127875258306,0A2.7386127875258306,2.7386127875258306,0,1,1,2.7386127875258306,0" fill="#2C55A1" stroke-width="2" opacity="0.7"></path><path aria-label="target_switch_label: near; Salience: near; Target - Non-target Score: 0.38025555" role="graphics-symbol" aria-roledescription="point" transform="translate(59.25,68.31203749999999)" d="M2.7386127875258306,0A2.7386127875258306,2.7386127875258306,0,1,1,-2.7386127875258306,0A2.7386127875258306,2.7386127875258306,0,1,1,2.7386127875258306,0" fill="#84B672" stroke-width="2" opacity="0.7"></path><path aria-label="target_switch_label: far; Salience: far; Target - Non-target Score: 0.30259228" role="graphics-symbol" aria-roledescription="point" transform="translate(21.75,74.78397666666665)" d="M2.7386127875258306,0A2.7386127875258306,2.7386127875258306,0,1,1,-2.7386127875258306,0A2.7386127875258306,2.7386127875258306,0,1,1,2.7386127875258306,0" fill="#2C55A1" stroke-width="2" opacity="0.7"></path><path aria-label="target_switch_label: far; Salience: far; Target - Non-target Score: 0.27913573" role="graphics-symbol" aria-roledescription="point" transform="translate(21.75,76.73868916666666)" d="M2.7386127875258306,0A2.7386127875258306,2.7386127875258306,0,1,1,-2.7386127875258306,0A2.7386127875258306,2.7386127875258306,0,1,1,2.7386127875258306,0" fill="#2C55A1" stroke-width="2" opacity="0.7"></path><path aria-label="target_switch_label: near; Salience: near; Target - Non-target Score: 0.9120765" role="graphics-symbol" aria-roledescription="point" transform="translate(59.25,23.99362500000002)" d="M2.7386127875258306,0A2.7386127875258306,2.7386127875258306,0,1,1,-2.7386127875258306,0A2.7386127875258306,2.7386127875258306,0,1,1,2.7386127875258306,0" fill="#84B672" stroke-width="2" opacity="0.7"></path><path aria-label="target_switch_label: far; Salience: far; Target - Non-target Score: 0.44995514" role="graphics-symbol" aria-roledescription="point" transform="translate(21.75,62.50373833333334)" d="M2.7386127875258306,0A2.7386127875258306,2.7386127875258306,0,1,1,-2.7386127875258306,0A2.7386127875258306,2.7386127875258306,0,1,1,2.7386127875258306,0" fill="#2C55A1" stroke-width="2" opacity="0.7"></path><path aria-label="target_switch_label: near; Salience: near; Target - Non-target Score: 0.3836887" role="graphics-symbol" aria-roledescription="point" transform="translate(59.25,68.02594166666667)" d="M2.7386127875258306,0A2.7386127875258306,2.7386127875258306,0,1,1,-2.7386127875258306,0A2.7386127875258306,2.7386127875258306,0,1,1,2.7386127875258306,0" fill="#84B672" stroke-width="2" opacity="0.7"></path><path aria-label="target_switch_label: far; Salience: far; Target - Non-target Score: 1.0160229" role="graphics-symbol" aria-roledescription="point" transform="translate(21.75,15.331425)" d="M2.7386127875258306,0A2.7386127875258306,2.7386127875258306,0,1,1,-2.7386127875258306,0A2.7386127875258306,2.7386127875258306,0,1,1,2.7386127875258306,0" fill="#2C55A1" stroke-width="2" opacity="0.7"></path><path aria-label="target_switch_label: near; Salience: near; Target - Non-target Score: 1.0637395" role="graphics-symbol" aria-roledescription="point" transform="translate(59.25,11.355041666666676)" d="M2.7386127875258306,0A2.7386127875258306,2.7386127875258306,0,1,1,-2.7386127875258306,0A2.7386127875258306,2.7386127875258306,0,1,1,2.7386127875258306,0" fill="#84B672" stroke-width="2" opacity="0.7"></path><path aria-label="target_switch_label: near; Salience: near; Target - Non-target Score: 0.58770925" role="graphics-symbol" aria-roledescription="point" transform="translate(59.25,51.02422916666667)" d="M2.7386127875258306,0A2.7386127875258306,2.7386127875258306,0,1,1,-2.7386127875258306,0A2.7386127875258306,2.7386127875258306,0,1,1,2.7386127875258306,0" fill="#84B672" stroke-width="2" opacity="0.7"></path><path aria-label="target_switch_label: far; Salience: far; Target - Non-target Score: 0.5231407" role="graphics-symbol" aria-roledescription="point" transform="translate(21.75,56.40494166666665)" d="M2.7386127875258306,0A2.7386127875258306,2.7386127875258306,0,1,1,-2.7386127875258306,0A2.7386127875258306,2.7386127875258306,0,1,1,2.7386127875258306,0" fill="#2C55A1" stroke-width="2" opacity="0.7"></path><path aria-label="target_switch_label: far; Salience: far; Target - Non-target Score: 0.31678227" role="graphics-symbol" aria-roledescription="point" transform="translate(21.75,73.60147749999999)" d="M2.7386127875258306,0A2.7386127875258306,2.7386127875258306,0,1,1,-2.7386127875258306,0A2.7386127875258306,2.7386127875258306,0,1,1,2.7386127875258306,0" fill="#2C55A1" stroke-width="2" opacity="0.7"></path><path aria-label="target_switch_label: near; Salience: near; Target - Non-target Score: 0.26753506" role="graphics-symbol" aria-roledescription="point" transform="translate(59.25,77.70541166666666)" d="M2.7386127875258306,0A2.7386127875258306,2.7386127875258306,0,1,1,-2.7386127875258306,0A2.7386127875258306,2.7386127875258306,0,1,1,2.7386127875258306,0" fill="#84B672" stroke-width="2" opacity="0.7"></path><path aria-label="target_switch_label: near; Salience: near; Target - Non-target Score: 0.450852" role="graphics-symbol" aria-roledescription="point" transform="translate(59.25,62.429)" d="M2.7386127875258306,0A2.7386127875258306,2.7386127875258306,0,1,1,-2.7386127875258306,0A2.7386127875258306,2.7386127875258306,0,1,1,2.7386127875258306,0" fill="#84B672" stroke-width="2" opacity="0.7"></path><path aria-label="target_switch_label: far; Salience: far; Target - Non-target Score: 0.10361059" role="graphics-symbol" aria-roledescription="point" transform="translate(21.75,91.36578416666667)" d="M2.7386127875258306,0A2.7386127875258306,2.7386127875258306,0,1,1,-2.7386127875258306,0A2.7386127875258306,2.7386127875258306,0,1,1,2.7386127875258306,0" fill="#2C55A1" stroke-width="2" opacity="0.7"></path><path aria-label="target_switch_label: far; Salience: far; Target - Non-target Score: 0.692944" role="graphics-symbol" aria-roledescription="point" transform="translate(21.75,42.254666666666665)" d="M2.7386127875258306,0A2.7386127875258306,2.7386127875258306,0,1,1,-2.7386127875258306,0A2.7386127875258306,2.7386127875258306,0,1,1,2.7386127875258306,0" fill="#2C55A1" stroke-width="2" opacity="0.7"></path><path aria-label="target_switch_label: near; Salience: near; Target - Non-target Score: 0.15489455" role="graphics-symbol" aria-roledescription="point" transform="translate(59.25,87.09212083333333)" d="M2.7386127875258306,0A2.7386127875258306,2.7386127875258306,0,1,1,-2.7386127875258306,0A2.7386127875258306,2.7386127875258306,0,1,1,2.7386127875258306,0" fill="#84B672" stroke-width="2" opacity="0.7"></path><path aria-label="target_switch_label: far; Salience: far; Target - Non-target Score: 0.3730147" role="graphics-symbol" aria-roledescription="point" transform="translate(21.75,68.91544166666668)" d="M2.7386127875258306,0A2.7386127875258306,2.7386127875258306,0,1,1,-2.7386127875258306,0A2.7386127875258306,2.7386127875258306,0,1,1,2.7386127875258306,0" fill="#2C55A1" stroke-width="2" opacity="0.7"></path><path aria-label="target_switch_label: near; Salience: near; Target - Non-target Score: 0.41115585" role="graphics-symbol" aria-roledescription="point" transform="translate(59.25,65.73701250000002)" d="M2.7386127875258306,0A2.7386127875258306,2.7386127875258306,0,1,1,-2.7386127875258306,0A2.7386127875258306,2.7386127875258306,0,1,1,2.7386127875258306,0" fill="#84B672" stroke-width="2" opacity="0.7"></path><path aria-label="target_switch_label: far; Salience: far; Target - Non-target Score: 0.71911836" role="graphics-symbol" aria-roledescription="point" transform="translate(21.75,40.073470000000015)" d="M2.7386127875258306,0A2.7386127875258306,2.7386127875258306,0,1,1,-2.7386127875258306,0A2.7386127875258306,2.7386127875258306,0,1,1,2.7386127875258306,0" fill="#2C55A1" stroke-width="2" opacity="0.7"></path><path aria-label="target_switch_label: near; Salience: near; Target - Non-target Score: 0.45982206" role="graphics-symbol" aria-roledescription="point" transform="translate(59.25,61.681495)" d="M2.7386127875258306,0A2.7386127875258306,2.7386127875258306,0,1,1,-2.7386127875258306,0A2.7386127875258306,2.7386127875258306,0,1,1,2.7386127875258306,0" fill="#84B672" stroke-width="2" opacity="0.7"></path></g><g class="mark-rule role-mark child_layer_2_marks" role="graphics-object" aria-roledescription="rule mark container"><line aria-label="Salience: far; Ci0 of cordiff: 0.344508432479; Ci1 of cordiff: 0.635462125604" role="graphics-symbol" aria-roledescription="rule mark" transform="translate(15.75,71.29096396006945)" x2="0" y2="-24.246141093750012" stroke="black"></line><line aria-label="Salience: near; Ci0 of cordiff: 0.380417756896; Ci1 of cordiff: 0.676269808354" role="graphics-symbol" aria-roledescription="rule mark" transform="translate(53.25,68.29852025868055)" x2="0" y2="-24.65433762152776" stroke="black"></line></g></g><path class="foreground" aria-hidden="true" d="" display="none"></path></g><g transform="translate(194,0)"><path class="background" aria-hidden="true" d="M0.5,0.5h75v200h-75Z" stroke="#ddd"></path><g><g class="mark-group role-axis" aria-hidden="true"><g transform="translate(0.5,0.5)"><path class="background" aria-hidden="true" d="M0,0h0v0h0Z" pointer-events="none"></path><g><g class="mark-rule role-axis-grid" pointer-events="none"><line transform="translate(0,183)" x2="75" y2="0" stroke="#ddd" stroke-width="1" opacity="1"></line><line transform="translate(0,142)" x2="75" y2="0" stroke="#ddd" stroke-width="1" opacity="1"></line><line transform="translate(0,100)" x2="75" y2="0" stroke="#ddd" stroke-width="1" opacity="1"></line><line transform="translate(0,58)" x2="75" y2="0" stroke="#ddd" stroke-width="1" opacity="1"></line><line transform="translate(0,17)" x2="75" y2="0" stroke="#ddd" stroke-width="1" opacity="1"></line></g></g><path class="foreground" aria-hidden="true" d="" pointer-events="none" display="none"></path></g></g><g class="mark-symbol role-mark child_layer_0_marks" role="graphics-object" aria-roledescription="symbol mark container"><path aria-label="target_switch_label: near; Salience: near; Mean of cordiff: 0.261092001818" role="graphics-symbol" aria-roledescription="point" transform="translate(53.25,78.24233318181817)" d="M2.7386127875258306,0A2.7386127875258306,2.7386127875258306,0,1,1,-2.7386127875258306,0A2.7386127875258306,2.7386127875258306,0,1,1,2.7386127875258306,0" stroke="#84B672" stroke-width="2"></path><path aria-label="target_switch_label: far; Salience: far; Mean of cordiff: 0.144447020333" role="graphics-symbol" aria-roledescription="point" transform="translate(15.75,87.96274830555558)" d="M2.7386127875258306,0A2.7386127875258306,2.7386127875258306,0,1,1,-2.7386127875258306,0A2.7386127875258306,2.7386127875258306,0,1,1,2.7386127875258306,0" stroke="#2C55A1" stroke-width="2"></path></g><g class="mark-symbol role-mark child_layer_1_marks" role="graphics-object" aria-roledescription="symbol mark container"><path aria-label="target_switch_label: near; Salience: near; Target - Non-target Score: 0.6404847" role="graphics-symbol" aria-roledescription="point" transform="translate(59.25,46.62627500000001)" d="M2.7386127875258306,0A2.7386127875258306,2.7386127875258306,0,1,1,-2.7386127875258306,0A2.7386127875258306,2.7386127875258306,0,1,1,2.7386127875258306,0" fill="#84B672" stroke-width="2" opacity="0.7"></path><path aria-label="target_switch_label: far; Salience: far; Target - Non-target Score: 0.23573239" role="graphics-symbol" aria-roledescription="point" transform="translate(21.75,80.35563416666665)" d="M2.7386127875258306,0A2.7386127875258306,2.7386127875258306,0,1,1,-2.7386127875258306,0A2.7386127875258306,2.7386127875258306,0,1,1,2.7386127875258306,0" fill="#2C55A1" stroke-width="2" opacity="0.7"></path><path aria-label="target_switch_label: far; Salience: far; Target - Non-target Score: 0.18095732" role="graphics-symbol" aria-roledescription="point" transform="translate(21.75,84.92022333333334)" d="M2.7386127875258306,0A2.7386127875258306,2.7386127875258306,0,1,1,-2.7386127875258306,0A2.7386127875258306,2.7386127875258306,0,1,1,2.7386127875258306,0" fill="#2C55A1" stroke-width="2" opacity="0.7"></path><path aria-label="target_switch_label: near; Salience: near; Target - Non-target Score: 0.68913543" role="graphics-symbol" aria-roledescription="point" transform="translate(59.25,42.57204749999999)" d="M2.7386127875258306,0A2.7386127875258306,2.7386127875258306,0,1,1,-2.7386127875258306,0A2.7386127875258306,2.7386127875258306,0,1,1,2.7386127875258306,0" fill="#84B672" stroke-width="2" opacity="0.7"></path><path aria-label="target_switch_label: near; Salience: near; Target - Non-target Score: 0.10186088" role="graphics-symbol" aria-roledescription="point" transform="translate(59.25,91.51159333333332)" d="M2.7386127875258306,0A2.7386127875258306,2.7386127875258306,0,1,1,-2.7386127875258306,0A2.7386127875258306,2.7386127875258306,0,1,1,2.7386127875258306,0" fill="#84B672" stroke-width="2" opacity="0.7"></path><path aria-label="target_switch_label: far; Salience: far; Target - Non-target Score: 0.047638867" role="graphics-symbol" aria-roledescription="point" transform="translate(21.75,96.03009441666666)" d="M2.7386127875258306,0A2.7386127875258306,2.7386127875258306,0,1,1,-2.7386127875258306,0A2.7386127875258306,2.7386127875258306,0,1,1,2.7386127875258306,0" fill="#2C55A1" stroke-width="2" opacity="0.7"></path><path aria-label="target_switch_label: far; Salience: far; Target - Non-target Score: -1.0459826" role="graphics-symbol" aria-roledescription="point" transform="translate(21.75,187.16521666666668)" d="M2.7386127875258306,0A2.7386127875258306,2.7386127875258306,0,1,1,-2.7386127875258306,0A2.7386127875258306,2.7386127875258306,0,1,1,2.7386127875258306,0" fill="#2C55A1" stroke-width="2" opacity="0.7"></path><path aria-label="target_switch_label: near; Salience: near; Target - Non-target Score: 0.54924774" role="graphics-symbol" aria-roledescription="point" transform="translate(59.25,54.22935499999999)" d="M2.7386127875258306,0A2.7386127875258306,2.7386127875258306,0,1,1,-2.7386127875258306,0A2.7386127875258306,2.7386127875258306,0,1,1,2.7386127875258306,0" fill="#84B672" stroke-width="2" opacity="0.7"></path><path aria-label="target_switch_label: far; Salience: far; Target - Non-target Score: 0.10281132" role="graphics-symbol" aria-roledescription="point" transform="translate(21.75,91.43238999999998)" d="M2.7386127875258306,0A2.7386127875258306,2.7386127875258306,0,1,1,-2.7386127875258306,0A2.7386127875258306,2.7386127875258306,0,1,1,2.7386127875258306,0" fill="#2C55A1" stroke-width="2" opacity="0.7"></path><path aria-label="target_switch_label: near; Salience: near; Target - Non-target Score: 0.41806552" role="graphics-symbol" aria-roledescription="point" transform="translate(59.25,65.16120666666664)" d="M2.7386127875258306,0A2.7386127875258306,2.7386127875258306,0,1,1,-2.7386127875258306,0A2.7386127875258306,2.7386127875258306,0,1,1,2.7386127875258306,0" fill="#84B672" stroke-width="2" opacity="0.7"></path><path aria-label="target_switch_label: far; Salience: far; Target - Non-target Score: 0.7535793" role="graphics-symbol" aria-roledescription="point" transform="translate(21.75,37.20172500000001)" d="M2.7386127875258306,0A2.7386127875258306,2.7386127875258306,0,1,1,-2.7386127875258306,0A2.7386127875258306,2.7386127875258306,0,1,1,2.7386127875258306,0" fill="#2C55A1" stroke-width="2" opacity="0.7"></path><path aria-label="target_switch_label: far; Salience: far; Target - Non-target Score: 0.31290665" role="graphics-symbol" aria-roledescription="point" transform="translate(21.75,73.92444583333332)" d="M2.7386127875258306,0A2.7386127875258306,2.7386127875258306,0,1,1,-2.7386127875258306,0A2.7386127875258306,2.7386127875258306,0,1,1,2.7386127875258306,0" fill="#2C55A1" stroke-width="2" opacity="0.7"></path><path aria-label="target_switch_label: near; Salience: near; Target - Non-target Score: 0.6849095" role="graphics-symbol" aria-roledescription="point" transform="translate(59.25,42.924208333333326)" d="M2.7386127875258306,0A2.7386127875258306,2.7386127875258306,0,1,1,-2.7386127875258306,0A2.7386127875258306,2.7386127875258306,0,1,1,2.7386127875258306,0" fill="#84B672" stroke-width="2" opacity="0.7"></path><path aria-label="target_switch_label: far; Salience: far; Target - Non-target Score: -0.18884882" role="graphics-symbol" aria-roledescription="point" transform="translate(21.75,115.73740166666666)" d="M2.7386127875258306,0A2.7386127875258306,2.7386127875258306,0,1,1,-2.7386127875258306,0A2.7386127875258306,2.7386127875258306,0,1,1,2.7386127875258306,0" fill="#2C55A1" stroke-width="2" opacity="0.7"></path><path aria-label="target_switch_label: near; Salience: near; Target - Non-target Score: 0.4072714" role="graphics-symbol" aria-roledescription="point" transform="translate(59.25,66.06071666666666)" d="M2.7386127875258306,0A2.7386127875258306,2.7386127875258306,0,1,1,-2.7386127875258306,0A2.7386127875258306,2.7386127875258306,0,1,1,2.7386127875258306,0" fill="#84B672" stroke-width="2" opacity="0.7"></path><path aria-label="target_switch_label: near; Salience: near; Target - Non-target Score: 0.18960893" role="graphics-symbol" aria-roledescription="point" transform="translate(59.25,84.19925583333332)" d="M2.7386127875258306,0A2.7386127875258306,2.7386127875258306,0,1,1,-2.7386127875258306,0A2.7386127875258306,2.7386127875258306,0,1,1,2.7386127875258306,0" fill="#84B672" stroke-width="2" opacity="0.7"></path><path aria-label="target_switch_label: far; Salience: far; Target - Non-target Score: 0.004268577" role="graphics-symbol" aria-roledescription="point" transform="translate(21.75,99.64428525)" d="M2.7386127875258306,0A2.7386127875258306,2.7386127875258306,0,1,1,-2.7386127875258306,0A2.7386127875258306,2.7386127875258306,0,1,1,2.7386127875258306,0" fill="#2C55A1" stroke-width="2" opacity="0.7"></path><path aria-label="target_switch_label: far; Salience: far; Target - Non-target Score: 0.16288394" role="graphics-symbol" aria-roledescription="point" transform="translate(21.75,86.42633833333333)" d="M2.7386127875258306,0A2.7386127875258306,2.7386127875258306,0,1,1,-2.7386127875258306,0A2.7386127875258306,2.7386127875258306,0,1,1,2.7386127875258306,0" fill="#2C55A1" stroke-width="2" opacity="0.7"></path><path aria-label="target_switch_label: near; Salience: near; Target - Non-target Score: 0.4702431" role="graphics-symbol" aria-roledescription="point" transform="translate(59.25,60.813075)" d="M2.7386127875258306,0A2.7386127875258306,2.7386127875258306,0,1,1,-2.7386127875258306,0A2.7386127875258306,2.7386127875258306,0,1,1,2.7386127875258306,0" fill="#84B672" stroke-width="2" opacity="0.7"></path><path aria-label="target_switch_label: near; Salience: near; Target - Non-target Score: -0.28888384" role="graphics-symbol" aria-roledescription="point" transform="translate(59.25,124.07365333333334)" d="M2.7386127875258306,0A2.7386127875258306,2.7386127875258306,0,1,1,-2.7386127875258306,0A2.7386127875258306,2.7386127875258306,0,1,1,2.7386127875258306,0" fill="#84B672" stroke-width="2" opacity="0.7"></path><path aria-label="target_switch_label: far; Salience: far; Target - Non-target Score: 0.454601" role="graphics-symbol" aria-roledescription="point" transform="translate(21.75,62.11658333333332)" d="M2.7386127875258306,0A2.7386127875258306,2.7386127875258306,0,1,1,-2.7386127875258306,0A2.7386127875258306,2.7386127875258306,0,1,1,2.7386127875258306,0" fill="#2C55A1" stroke-width="2" opacity="0.7"></path><path aria-label="target_switch_label: far; Salience: far; Target - Non-target Score: 0.7128163" role="graphics-symbol" aria-roledescription="point" transform="translate(21.75,40.598641666666666)" d="M2.7386127875258306,0A2.7386127875258306,2.7386127875258306,0,1,1,-2.7386127875258306,0A2.7386127875258306,2.7386127875258306,0,1,1,2.7386127875258306,0" fill="#2C55A1" stroke-width="2" opacity="0.7"></path><path aria-label="target_switch_label: near; Salience: near; Target - Non-target Score: -0.98993134" role="graphics-symbol" aria-roledescription="point" transform="translate(59.25,182.49427833333334)" d="M2.7386127875258306,0A2.7386127875258306,2.7386127875258306,0,1,1,-2.7386127875258306,0A2.7386127875258306,2.7386127875258306,0,1,1,2.7386127875258306,0" fill="#84B672" stroke-width="2" opacity="0.7"></path></g><g class="mark-rule role-mark child_layer_2_marks" role="graphics-object" aria-roledescription="rule mark container"><line aria-label="Salience: near; Ci0 of cordiff: -0.0777994010909; Ci1 of cordiff: 0.506852730409" role="graphics-symbol" aria-roledescription="rule mark" transform="translate(53.25,106.48328342424243)" x2="0" y2="-48.72101095833335" stroke="black"></line><line aria-label="Salience: far; Ci0 of cordiff: -0.141994875098; Ci1 of cordiff: 0.37939476909" role="graphics-symbol" aria-roledescription="rule mark" transform="translate(15.75,111.83290625815974)" x2="0" y2="-43.44913701562503" stroke="black"></line></g></g><path class="foreground" aria-hidden="true" d="" display="none"></path></g></g></g><path class="foreground" aria-hidden="true" d="" display="none"></path></g></g></g></svg>
