<?xml version="1.0" encoding="utf-8"?>
<!DOCTYPE svg PUBLIC "-//W3C//DTD SVG 1.1//EN" "http://www.w3.org/Graphics/SVG/1.1/DTD/svg11.dtd">
<svg class="marks" width="322" height="308" viewBox="0 0 322 308" version="1.1" xmlns="http://www.w3.org/2000/svg" xmlns:xlink="http://www.w3.org/1999/xlink"><rect width="322" height="308" fill="white"></rect><g fill="none" stroke-miterlimit="10" transform="translate(47,57)"><g class="mark-group role-frame root" role="graphics-object" aria-roledescription="group mark container"><g transform="translate(0,0)"><path class="background" aria-hidden="true" d="M0,0h0v0h0Z"></path><g><g class="mark-group role-column-title column-title" role="graphics-object" aria-roledescription="group mark container"><g transform="translate(135,-31)"><path class="background" aria-hidden="true" d="M0,0h0v0h0Z"></path><g><g class="mark-group role-title"><g transform="translate(0,-21)"><path class="background" aria-hidden="true" d="M0,0h0v0h0Z" pointer-events="none"></path><g><g class="mark-text role-title-text" role="graphics-symbol" aria-roledescription="title" aria-label="Title text 'condition'" pointer-events="none"><text text-anchor="middle" transform="translate(0,9)" font-family="sans-serif" font-size="11px" font-weight="bold" fill="#000" opacity="1">condition</text></g></g><path class="foreground" aria-hidden="true" d="" pointer-events="none" display="none"></path></g></g></g><path class="foreground" aria-hidden="true" d="" display="none"></path></g></g><g class="mark-group role-row-header row_header" role="graphics-object" aria-roledescription="group mark container"><g transform="translate(-1,0)"><path class="background" aria-hidden="true" d="M0,0h0v200h0Z"></path><g><g class="mark-group role-axis" role="graphics-symbol" aria-roledescription="axis" aria-label="Y-axis titled 'Target - Non-target Score' for a linear scale with values from -1.4 to 1.0"><g transform="translate(0.5,0.5)"><path class="background" aria-hidden="true" d="M0,0h0v0h0Z" pointer-events="none"></path><g><g class="mark-rule role-axis-tick" pointer-events="none"><line transform="translate(0,167)" x2="-5" y2="0" stroke="#888" stroke-width="1" opacity="1"></line><line transform="translate(0,125)" x2="-5" y2="0" stroke="#888" stroke-width="1" opacity="1"></line><line transform="translate(0,83)" x2="-5" y2="0" stroke="#888" stroke-width="1" opacity="1"></line><line transform="translate(0,42)" x2="-5" y2="0" stroke="#888" stroke-width="1" opacity="1"></line><line transform="translate(0,0)" x2="-5" y2="0" stroke="#888" stroke-width="1" opacity="1"></line></g><g class="mark-text role-axis-label" pointer-events="none"><text text-anchor="end" transform="translate(-7,169.66666666666669)" font-family="sans-serif" font-size="10px" fill="#000" opacity="1">-1.0</text><text text-anchor="end" transform="translate(-7,128)" font-family="sans-serif" font-size="10px" fill="#000" opacity="1">-0.5</text><text text-anchor="end" transform="translate(-7,86.33333333333333)" font-family="sans-serif" font-size="10px" fill="#000" opacity="1">0.0</text><text text-anchor="end" transform="translate(-7,44.66666666666667)" font-family="sans-serif" font-size="10px" fill="#000" opacity="1">0.5</text><text text-anchor="end" transform="translate(-7,3)" font-family="sans-serif" font-size="10px" fill="#000" opacity="1">1.0</text></g><g class="mark-rule role-axis-domain" pointer-events="none"><line transform="translate(0,200)" x2="0" y2="-200" stroke="#888" stroke-width="1" opacity="1"></line></g><g class="mark-text role-axis-title" pointer-events="none"><text text-anchor="middle" transform="translate(-30,100) rotate(-90) translate(0,-2)" font-family="sans-serif" font-size="11px" font-weight="bold" fill="#000" opacity="1">Target - Non-target Score</text></g></g><path class="foreground" aria-hidden="true" d="" pointer-events="none" display="none"></path></g></g></g><path class="foreground" aria-hidden="true" d="" display="none"></path></g></g><g class="mark-group role-column-header column_header" role="graphics-object" aria-roledescription="group mark container"><g transform="translate(0,-1)"><path class="background" aria-hidden="true" d="M0,0h75v0h-75Z"></path><g><g class="mark-group role-title"><g transform="translate(37.5,-20)"><path class="background" aria-hidden="true" d="M0,0h0v0h0Z" pointer-events="none"></path><g><g class="mark-text role-title-text" role="graphics-symbol" aria-roledescription="title" aria-label="Title text 'global'" pointer-events="none"><text text-anchor="middle" transform="translate(0,8)" font-family="sans-serif" font-size="10px" fill="#000" opacity="1">global</text></g></g><path class="foreground" aria-hidden="true" d="" pointer-events="none" display="none"></path></g></g></g><path class="foreground" aria-hidden="true" d="" display="none"></path></g><g transform="translate(97,-1)"><path class="background" aria-hidden="true" d="M0,0h75v0h-75Z"></path><g><g class="mark-group role-title"><g transform="translate(37.5,-20)"><path class="background" aria-hidden="true" d="M0,0h0v0h0Z" pointer-events="none"></path><g><g class="mark-text role-title-text" role="graphics-symbol" aria-roledescription="title" aria-label="Title text 'object'" pointer-events="none"><text text-anchor="middle" transform="translate(0,8)" font-family="sans-serif" font-size="10px" fill="#000" opacity="1">object</text></g></g><path class="foreground" aria-hidden="true" d="" pointer-events="none" display="none"></path></g></g></g><path class="foreground" aria-hidden="true" d="" display="none"></path></g><g transform="translate(194,-1)"><path class="background" aria-hidden="true" d="M0,0h75v0h-75Z"></path><g><g class="mark-group role-title"><g transform="translate(37.5,-20)"><path class="background" aria-hidden="true" d="M0,0h0v0h0Z" pointer-events="none"></path><g><g class="mark-text role-title-text" role="graphics-symbol" aria-roledescription="title" aria-label="Title text 'spatial'" pointer-events="none"><text text-anchor="middle" transform="translate(0,8)" font-family="sans-serif" font-size="10px" fill="#000" opacity="1">spatial</text></g></g><path class="foreground" aria-hidden="true" d="" pointer-events="none" display="none"></path></g></g></g><path class="foreground" aria-hidden="true" d="" display="none"></path></g></g><g class="mark-group role-column-footer column_footer" role="graphics-object" aria-roledescription="group mark container"><g transform="translate(0,201)"><path class="background" aria-hidden="true" d="M0,0h75v0h-75Z"></path><g><g class="mark-group role-axis" role="graphics-symbol" aria-roledescription="axis" aria-label="X-axis titled 'Salience' for a discrete scale with 2 values: far, near"><g transform="translate(0.5,0.5)"><path class="background" aria-hidden="true" d="M0,0h0v0h0Z" pointer-events="none"></path><g><g class="mark-rule role-axis-tick" pointer-events="none"><line transform="translate(18,0)" x2="0" y2="5" stroke="#888" stroke-width="1" opacity="1"></line><line transform="translate(56,0)" x2="0" y2="5" stroke="#888" stroke-width="1" opacity="1"></line></g><g class="mark-text role-axis-label" pointer-events="none"><text text-anchor="end" transform="translate(18.25,7) rotate(315) translate(0,8)" font-family="sans-serif" font-size="10px" fill="#000" opacity="1">far</text><text text-anchor="end" transform="translate(55.75,7) rotate(315) translate(0,8)" font-family="sans-serif" font-size="10px" fill="#000" opacity="1">near</text></g><g class="mark-rule role-axis-domain" pointer-events="none"><line transform="translate(0,0)" x2="75" y2="0" stroke="#888" stroke-width="1" opacity="1"></line></g><g class="mark-text role-axis-title" pointer-events="none"><text text-anchor="middle" transform="translate(37.5,42.62741699796952)" font-family="sans-serif" font-size="11px" font-weight="bold" fill="#000" opacity="1">Salience</text></g></g><path class="foreground" aria-hidden="true" d="" pointer-events="none" display="none"></path></g></g></g><path class="foreground" aria-hidden="true" d="" display="none"></path></g><g transform="translate(97,201)"><path class="background" aria-hidden="true" d="M0,0h75v0h-75Z"></path><g><g class="mark-group role-axis" role="graphics-symbol" aria-roledescription="axis" aria-label="X-axis titled 'Salience' for a discrete scale with 2 values: far, near"><g transform="translate(0.5,0.5)"><path class="background" aria-hidden="true" d="M0,0h0v0h0Z" pointer-events="none"></path><g><g class="mark-rule role-axis-tick" pointer-events="none"><line transform="translate(18,0)" x2="0" y2="5" stroke="#888" stroke-width="1" opacity="1"></line><line transform="translate(56,0)" x2="0" y2="5" stroke="#888" stroke-width="1" opacity="1"></line></g><g class="mark-text role-axis-label" pointer-events="none"><text text-anchor="end" transform="translate(18.25,7) rotate(315) translate(0,8)" font-family="sans-serif" font-size="10px" fill="#000" opacity="1">far</text><text text-anchor="end" transform="translate(55.75,7) rotate(315) translate(0,8)" font-family="sans-serif" font-size="10px" fill="#000" opacity="1">near</text></g><g class="mark-rule role-axis-domain" pointer-events="none"><line transform="translate(0,0)" x2="75" y2="0" stroke="#888" stroke-width="1" opacity="1"></line></g><g class="mark-text role-axis-title" pointer-events="none"><text text-anchor="middle" transform="translate(37.5,42.62741699796952)" font-family="sans-serif" font-size="11px" font-weight="bold" fill="#000" opacity="1">Salience</text></g></g><path class="foreground" aria-hidden="true" d="" pointer-events="none" display="none"></path></g></g></g><path class="foreground" aria-hidden="true" d="" display="none"></path></g><g transform="translate(194,201)"><path class="background" aria-hidden="true" d="M0,0h75v0h-75Z"></path><g><g class="mark-group role-axis" role="graphics-symbol" aria-roledescription="axis" aria-label="X-axis titled 'Salience' for a discrete scale with 2 values: far, near"><g transform="translate(0.5,0.5)"><path class="background" aria-hidden="true" d="M0,0h0v0h0Z" pointer-events="none"></path><g><g class="mark-rule role-axis-tick" pointer-events="none"><line transform="translate(18,0)" x2="0" y2="5" stroke="#888" stroke-width="1" opacity="1"></line><line transform="translate(56,0)" x2="0" y2="5" stroke="#888" stroke-width="1" opacity="1"></line></g><g class="mark-text role-axis-label" pointer-events="none"><text text-anchor="end" transform="translate(18.25,7) rotate(315) translate(0,8)" font-family="sans-serif" font-size="10px" fill="#000" opacity="1">far</text><text text-anchor="end" transform="translate(55.75,7) rotate(315) translate(0,8)" font-family="sans-serif" font-size="10px" fill="#000" opacity="1">near</text></g><g class="mark-rule role-axis-domain" pointer-events="none"><line transform="translate(0,0)" x2="75" y2="0" stroke="#888" stroke-width="1" opacity="1"></line></g><g class="mark-text role-axis-title" pointer-events="none"><text text-anchor="middle" transform="translate(37.5,42.62741699796952)" font-family="sans-serif" font-size="11px" font-weight="bold" fill="#000" opacity="1">Salience</text></g></g><path class="foreground" aria-hidden="true" d="" pointer-events="none" display="none"></path></g></g></g><path class="foreground" aria-hidden="true" d="" display="none"></path></g></g><g class="mark-group role-scope cell" role="graphics-object" aria-roledescription="group mark container"><g transform="translate(0,0)"><path class="background" aria-hidden="true" d="M0.5,0.5h75v200h-75Z" stroke="#ddd"></path><g><g class="mark-group role-axis" aria-hidden="true"><g transform="translate(0.5,0.5)"><path class="background" aria-hidden="true" d="M0,0h0v0h0Z" pointer-events="none"></path><g><g class="mark-rule role-axis-grid" pointer-events="none"><line transform="translate(0,167)" x2="75" y2="0" stroke="#ddd" stroke-width="1" opacity="1"></line><line transform="translate(0,125)" x2="75" y2="0" stroke="#ddd" stroke-width="1" opacity="1"></line><line transform="translate(0,83)" x2="75" y2="0" stroke="#ddd" stroke-width="1" opacity="1"></line><line transform="translate(0,42)" x2="75" y2="0" stroke="#ddd" stroke-width="1" opacity="1"></line><line transform="translate(0,0)" x2="75" y2="0" stroke="#ddd" stroke-width="1" opacity="1"></line></g></g><path class="foreground" aria-hidden="true" d="" pointer-events="none" display="none"></path></g></g><g class="mark-symbol role-mark child_layer_0_marks" role="graphics-object" aria-roledescription="symbol mark container"><path aria-label="target_switch_label: far; Salience: far; Mean of cordiff: 0.446811483333" role="graphics-symbol" aria-roledescription="point" transform="translate(15.75,46.09904305555554)" d="M2.7386127875258306,0A2.7386127875258306,2.7386127875258306,0,1,1,-2.7386127875258306,0A2.7386127875258306,2.7386127875258306,0,1,1,2.7386127875258306,0" stroke="#2C55A1" stroke-width="2"></path><path aria-label="target_switch_label: near; Salience: near; Mean of cordiff: 0.470220531667" role="graphics-symbol" aria-roledescription="point" transform="translate(53.25,44.148289027777764)" d="M2.7386127875258306,0A2.7386127875258306,2.7386127875258306,0,1,1,-2.7386127875258306,0A2.7386127875258306,2.7386127875258306,0,1,1,2.7386127875258306,0" stroke="#84B672" stroke-width="2"></path></g><g class="mark-symbol role-mark child_layer_1_marks" role="graphics-object" aria-roledescription="symbol mark container"><path aria-label="target_switch_label: far; Salience: far; Target - Non-target Score: 0.43815023" role="graphics-symbol" aria-roledescription="point" transform="translate(21.75,46.82081416666668)" d="M2.7386127875258306,0A2.7386127875258306,2.7386127875258306,0,1,1,-2.7386127875258306,0A2.7386127875258306,2.7386127875258306,0,1,1,2.7386127875258306,0" fill="#2C55A1" stroke-width="2" opacity="0.7"></path><path aria-label="target_switch_label: near; Salience: near; Target - Non-target Score: 0.16993828" role="graphics-symbol" aria-roledescription="point" transform="translate(59.25,69.17181000000001)" d="M2.7386127875258306,0A2.7386127875258306,2.7386127875258306,0,1,1,-2.7386127875258306,0A2.7386127875258306,2.7386127875258306,0,1,1,2.7386127875258306,0" fill="#84B672" stroke-width="2" opacity="0.7"></path><path aria-label="target_switch_label: near; Salience: near; Target - Non-target Score: 0.46398118" role="graphics-symbol" aria-roledescription="point" transform="translate(59.25,44.66823500000001)" d="M2.7386127875258306,0A2.7386127875258306,2.7386127875258306,0,1,1,-2.7386127875258306,0A2.7386127875258306,2.7386127875258306,0,1,1,2.7386127875258306,0" fill="#84B672" stroke-width="2" opacity="0.7"></path><path aria-label="target_switch_label: far; Salience: far; Target - Non-target Score: 0.3928806" role="graphics-symbol" aria-roledescription="point" transform="translate(21.75,50.593283333333325)" d="M2.7386127875258306,0A2.7386127875258306,2.7386127875258306,0,1,1,-2.7386127875258306,0A2.7386127875258306,2.7386127875258306,0,1,1,2.7386127875258306,0" fill="#2C55A1" stroke-width="2" opacity="0.7"></path><path aria-label="target_switch_label: near; Salience: near; Target - Non-target Score: 0.6204162" role="graphics-symbol" aria-roledescription="point" transform="translate(59.25,31.631983333333345)" d="M2.7386127875258306,0A2.7386127875258306,2.7386127875258306,0,1,1,-2.7386127875258306,0A2.7386127875258306,2.7386127875258306,0,1,1,2.7386127875258306,0" fill="#84B672" stroke-width="2" opacity="0.7"></path><path aria-label="target_switch_label: far; Salience: far; Target - Non-target Score: 0.4676854" role="graphics-symbol" aria-roledescription="point" transform="translate(21.75,44.359550000000006)" d="M2.7386127875258306,0A2.7386127875258306,2.7386127875258306,0,1,1,-2.7386127875258306,0A2.7386127875258306,2.7386127875258306,0,1,1,2.7386127875258306,0" fill="#2C55A1" stroke-width="2" opacity="0.7"></path><path aria-label="target_switch_label: far; Salience: far; Target - Non-target Score: 0.37860712" role="graphics-symbol" aria-roledescription="point" transform="translate(21.75,51.782740000000004)" d="M2.7386127875258306,0A2.7386127875258306,2.7386127875258306,0,1,1,-2.7386127875258306,0A2.7386127875258306,2.7386127875258306,0,1,1,2.7386127875258306,0" fill="#2C55A1" stroke-width="2" opacity="0.7"></path><path aria-label="target_switch_label: near; Salience: near; Target - Non-target Score: 0.49861905" role="graphics-symbol" aria-roledescription="point" transform="translate(59.25,41.78174583333334)" d="M2.7386127875258306,0A2.7386127875258306,2.7386127875258306,0,1,1,-2.7386127875258306,0A2.7386127875258306,2.7386127875258306,0,1,1,2.7386127875258306,0" fill="#84B672" stroke-width="2" opacity="0.7"></path><path aria-label="target_switch_label: near; Salience: near; Target - Non-target Score: 0.6012645" role="graphics-symbol" aria-roledescription="point" transform="translate(59.25,33.22795833333332)" d="M2.7386127875258306,0A2.7386127875258306,2.7386127875258306,0,1,1,-2.7386127875258306,0A2.7386127875258306,2.7386127875258306,0,1,1,2.7386127875258306,0" fill="#84B672" stroke-width="2" opacity="0.7"></path><path aria-label="target_switch_label: far; Salience: far; Target - Non-target Score: 0.34583864" role="graphics-symbol" aria-roledescription="point" transform="translate(21.75,54.51344666666667)" d="M2.7386127875258306,0A2.7386127875258306,2.7386127875258306,0,1,1,-2.7386127875258306,0A2.7386127875258306,2.7386127875258306,0,1,1,2.7386127875258306,0" fill="#2C55A1" stroke-width="2" opacity="0.7"></path><path aria-label="target_switch_label: near; Salience: near; Target - Non-target Score: 0.6831006" role="graphics-symbol" aria-roledescription="point" transform="translate(59.25,26.408283333333337)" d="M2.7386127875258306,0A2.7386127875258306,2.7386127875258306,0,1,1,-2.7386127875258306,0A2.7386127875258306,2.7386127875258306,0,1,1,2.7386127875258306,0" fill="#84B672" stroke-width="2" opacity="0.7"></path><path aria-label="target_switch_label: far; Salience: far; Target - Non-target Score: 0.37872463" role="graphics-symbol" aria-roledescription="point" transform="translate(21.75,51.77294750000001)" d="M2.7386127875258306,0A2.7386127875258306,2.7386127875258306,0,1,1,-2.7386127875258306,0A2.7386127875258306,2.7386127875258306,0,1,1,2.7386127875258306,0" fill="#2C55A1" stroke-width="2" opacity="0.7"></path><path aria-label="target_switch_label: far; Salience: far; Target - Non-target Score: 0.29210418" role="graphics-symbol" aria-roledescription="point" transform="translate(21.75,58.99131833333333)" d="M2.7386127875258306,0A2.7386127875258306,2.7386127875258306,0,1,1,-2.7386127875258306,0A2.7386127875258306,2.7386127875258306,0,1,1,2.7386127875258306,0" fill="#2C55A1" stroke-width="2" opacity="0.7"></path><path aria-label="target_switch_label: near; Salience: near; Target - Non-target Score: 0.13244592" role="graphics-symbol" aria-roledescription="point" transform="translate(59.25,72.29617333333334)" d="M2.7386127875258306,0A2.7386127875258306,2.7386127875258306,0,1,1,-2.7386127875258306,0A2.7386127875258306,2.7386127875258306,0,1,1,2.7386127875258306,0" fill="#84B672" stroke-width="2" opacity="0.7"></path><path aria-label="target_switch_label: near; Salience: near; Target - Non-target Score: 0.62687916" role="graphics-symbol" aria-roledescription="point" transform="translate(59.25,31.093403333333324)" d="M2.7386127875258306,0A2.7386127875258306,2.7386127875258306,0,1,1,-2.7386127875258306,0A2.7386127875258306,2.7386127875258306,0,1,1,2.7386127875258306,0" fill="#84B672" stroke-width="2" opacity="0.7"></path><path aria-label="target_switch_label: far; Salience: far; Target - Non-target Score: 0.53007805" role="graphics-symbol" aria-roledescription="point" transform="translate(21.75,39.160162500000006)" d="M2.7386127875258306,0A2.7386127875258306,2.7386127875258306,0,1,1,-2.7386127875258306,0A2.7386127875258306,2.7386127875258306,0,1,1,2.7386127875258306,0" fill="#2C55A1" stroke-width="2" opacity="0.7"></path><path aria-label="target_switch_label: near; Salience: near; Target - Non-target Score: 0.35470435" role="graphics-symbol" aria-roledescription="point" transform="translate(59.25,53.7746375)" d="M2.7386127875258306,0A2.7386127875258306,2.7386127875258306,0,1,1,-2.7386127875258306,0A2.7386127875258306,2.7386127875258306,0,1,1,2.7386127875258306,0" fill="#84B672" stroke-width="2" opacity="0.7"></path><path aria-label="target_switch_label: far; Salience: far; Target - Non-target Score: 0.55278707" role="graphics-symbol" aria-roledescription="point" transform="translate(21.75,37.267744166666674)" d="M2.7386127875258306,0A2.7386127875258306,2.7386127875258306,0,1,1,-2.7386127875258306,0A2.7386127875258306,2.7386127875258306,0,1,1,2.7386127875258306,0" fill="#2C55A1" stroke-width="2" opacity="0.7"></path><path aria-label="target_switch_label: far; Salience: far; Target - Non-target Score: 0.38260925" role="graphics-symbol" aria-roledescription="point" transform="translate(21.75,51.449229166666676)" d="M2.7386127875258306,0A2.7386127875258306,2.7386127875258306,0,1,1,-2.7386127875258306,0A2.7386127875258306,2.7386127875258306,0,1,1,2.7386127875258306,0" fill="#2C55A1" stroke-width="2" opacity="0.7"></path><path aria-label="target_switch_label: near; Salience: near; Target - Non-target Score: 0.34696934" role="graphics-symbol" aria-roledescription="point" transform="translate(59.25,54.41922166666666)" d="M2.7386127875258306,0A2.7386127875258306,2.7386127875258306,0,1,1,-2.7386127875258306,0A2.7386127875258306,2.7386127875258306,0,1,1,2.7386127875258306,0" fill="#84B672" stroke-width="2" opacity="0.7"></path><path aria-label="target_switch_label: far; Salience: far; Target - Non-target Score: 0.6778935" role="graphics-symbol" aria-roledescription="point" transform="translate(21.75,26.84220833333333)" d="M2.7386127875258306,0A2.7386127875258306,2.7386127875258306,0,1,1,-2.7386127875258306,0A2.7386127875258306,2.7386127875258306,0,1,1,2.7386127875258306,0" fill="#2C55A1" stroke-width="2" opacity="0.7"></path><path aria-label="target_switch_label: near; Salience: near; Target - Non-target Score: 0.622232" role="graphics-symbol" aria-roledescription="point" transform="translate(59.25,31.480666666666668)" d="M2.7386127875258306,0A2.7386127875258306,2.7386127875258306,0,1,1,-2.7386127875258306,0A2.7386127875258306,2.7386127875258306,0,1,1,2.7386127875258306,0" fill="#84B672" stroke-width="2" opacity="0.7"></path><path aria-label="target_switch_label: far; Salience: far; Target - Non-target Score: 0.52437913" role="graphics-symbol" aria-roledescription="point" transform="translate(21.75,39.6350725)" d="M2.7386127875258306,0A2.7386127875258306,2.7386127875258306,0,1,1,-2.7386127875258306,0A2.7386127875258306,2.7386127875258306,0,1,1,2.7386127875258306,0" fill="#2C55A1" stroke-width="2" opacity="0.7"></path><path aria-label="target_switch_label: near; Salience: near; Target - Non-target Score: 0.5220958" role="graphics-symbol" aria-roledescription="point" transform="translate(59.25,39.82535)" d="M2.7386127875258306,0A2.7386127875258306,2.7386127875258306,0,1,1,-2.7386127875258306,0A2.7386127875258306,2.7386127875258306,0,1,1,2.7386127875258306,0" fill="#84B672" stroke-width="2" opacity="0.7"></path></g><g class="mark-rule role-mark child_layer_2_marks" role="graphics-object" aria-roledescription="rule mark container"><line aria-label="Salience: far; Ci0 of cordiff: 0.391521987021; Ci1 of cordiff: 0.508639088479" role="graphics-symbol" aria-roledescription="rule mark" transform="translate(15.75,50.706501081597224)" x2="0" y2="-9.759758454861128" stroke="black"></line><line aria-label="Salience: near; Ci0 of cordiff: 0.371742150104; Ci1 of cordiff: 0.563950071854" role="graphics-symbol" aria-roledescription="rule mark" transform="translate(53.25,52.35482082465277)" x2="0" y2="-16.01732681250001" stroke="black"></line></g></g><path class="foreground" aria-hidden="true" d="" display="none"></path></g><g transform="translate(97,0)"><path class="background" aria-hidden="true" d="M0.5,0.5h75v200h-75Z" stroke="#ddd"></path><g><g class="mark-group role-axis" aria-hidden="true"><g transform="translate(0.5,0.5)"><path class="background" aria-hidden="true" d="M0,0h0v0h0Z" pointer-events="none"></path><g><g class="mark-rule role-axis-grid" pointer-events="none"><line transform="translate(0,167)" x2="75" y2="0" stroke="#ddd" stroke-width="1" opacity="1"></line><line transform="translate(0,125)" x2="75" y2="0" stroke="#ddd" stroke-width="1" opacity="1"></line><line transform="translate(0,83)" x2="75" y2="0" stroke="#ddd" stroke-width="1" opacity="1"></line><line transform="translate(0,42)" x2="75" y2="0" stroke="#ddd" stroke-width="1" opacity="1"></line><line transform="translate(0,0)" x2="75" y2="0" stroke="#ddd" stroke-width="1" opacity="1"></line></g></g><path class="foreground" aria-hidden="true" d="" pointer-events="none" display="none"></path></g></g><g class="mark-symbol role-mark child_layer_0_marks" role="graphics-object" aria-roledescription="symbol mark container"><path aria-label="target_switch_label: far; Salience: far; Mean of cordiff: 0.394802055667" role="graphics-symbol" aria-roledescription="point" transform="translate(15.75,50.43316202777777)" d="M2.7386127875258306,0A2.7386127875258306,2.7386127875258306,0,1,1,-2.7386127875258306,0A2.7386127875258306,2.7386127875258306,0,1,1,2.7386127875258306,0" stroke="#2C55A1" stroke-width="2"></path><path aria-label="target_switch_label: near; Salience: near; Mean of cordiff: 0.728932099167" role="graphics-symbol" aria-roledescription="point" transform="translate(53.25,22.588991736111108)" d="M2.7386127875258306,0A2.7386127875258306,2.7386127875258306,0,1,1,-2.7386127875258306,0A2.7386127875258306,2.7386127875258306,0,1,1,2.7386127875258306,0" stroke="#84B672" stroke-width="2"></path></g><g class="mark-symbol role-mark child_layer_1_marks" role="graphics-object" aria-roledescription="symbol mark container"><path aria-label="target_switch_label: far; Salience: far; Target - Non-target Score: 0.4708976" role="graphics-symbol" aria-roledescription="point" transform="translate(21.75,44.09186666666667)" d="M2.7386127875258306,0A2.7386127875258306,2.7386127875258306,0,1,1,-2.7386127875258306,0A2.7386127875258306,2.7386127875258306,0,1,1,2.7386127875258306,0" fill="#2C55A1" stroke-width="2" opacity="0.7"></path><path aria-label="target_switch_label: near; Salience: near; Target - Non-target Score: 0.71210325" role="graphics-symbol" aria-roledescription="point" transform="translate(59.25,23.991395833333364)" d="M2.7386127875258306,0A2.7386127875258306,2.7386127875258306,0,1,1,-2.7386127875258306,0A2.7386127875258306,2.7386127875258306,0,1,1,2.7386127875258306,0" fill="#84B672" stroke-width="2" opacity="0.7"></path><path aria-label="target_switch_label: near; Salience: near; Target - Non-target Score: 0.9316748" role="graphics-symbol" aria-roledescription="point" transform="translate(59.25,5.693766666666655)" d="M2.7386127875258306,0A2.7386127875258306,2.7386127875258306,0,1,1,-2.7386127875258306,0A2.7386127875258306,2.7386127875258306,0,1,1,2.7386127875258306,0" fill="#84B672" stroke-width="2" opacity="0.7"></path><path aria-label="target_switch_label: far; Salience: far; Target - Non-target Score: 0.53849494" role="graphics-symbol" aria-roledescription="point" transform="translate(21.75,38.458755)" d="M2.7386127875258306,0A2.7386127875258306,2.7386127875258306,0,1,1,-2.7386127875258306,0A2.7386127875258306,2.7386127875258306,0,1,1,2.7386127875258306,0" fill="#2C55A1" stroke-width="2" opacity="0.7"></path><path aria-label="target_switch_label: near; Salience: near; Target - Non-target Score: 0.70814776" role="graphics-symbol" aria-roledescription="point" transform="translate(59.25,24.321019999999983)" d="M2.7386127875258306,0A2.7386127875258306,2.7386127875258306,0,1,1,-2.7386127875258306,0A2.7386127875258306,2.7386127875258306,0,1,1,2.7386127875258306,0" fill="#84B672" stroke-width="2" opacity="0.7"></path><path aria-label="target_switch_label: far; Salience: far; Target - Non-target Score: 0.48926458" role="graphics-symbol" aria-roledescription="point" transform="translate(21.75,42.561285000000005)" d="M2.7386127875258306,0A2.7386127875258306,2.7386127875258306,0,1,1,-2.7386127875258306,0A2.7386127875258306,2.7386127875258306,0,1,1,2.7386127875258306,0" fill="#2C55A1" stroke-width="2" opacity="0.7"></path><path aria-label="target_switch_label: far; Salience: far; Target - Non-target Score: 0.2626993" role="graphics-symbol" aria-roledescription="point" transform="translate(21.75,61.441725000000005)" d="M2.7386127875258306,0A2.7386127875258306,2.7386127875258306,0,1,1,-2.7386127875258306,0A2.7386127875258306,2.7386127875258306,0,1,1,2.7386127875258306,0" fill="#2C55A1" stroke-width="2" opacity="0.7"></path><path aria-label="target_switch_label: near; Salience: near; Target - Non-target Score: 0.86785185" role="graphics-symbol" aria-roledescription="point" transform="translate(59.25,11.012345833333326)" d="M2.7386127875258306,0A2.7386127875258306,2.7386127875258306,0,1,1,-2.7386127875258306,0A2.7386127875258306,2.7386127875258306,0,1,1,2.7386127875258306,0" fill="#84B672" stroke-width="2" opacity="0.7"></path><path aria-label="target_switch_label: far; Salience: far; Target - Non-target Score: 0.4607517" role="graphics-symbol" aria-roledescription="point" transform="translate(21.75,44.93735833333334)" d="M2.7386127875258306,0A2.7386127875258306,2.7386127875258306,0,1,1,-2.7386127875258306,0A2.7386127875258306,2.7386127875258306,0,1,1,2.7386127875258306,0" fill="#2C55A1" stroke-width="2" opacity="0.7"></path><path aria-label="target_switch_label: near; Salience: near; Target - Non-target Score: 0.67428774" role="graphics-symbol" aria-roledescription="point" transform="translate(59.25,27.142688333333332)" d="M2.7386127875258306,0A2.7386127875258306,2.7386127875258306,0,1,1,-2.7386127875258306,0A2.7386127875258306,2.7386127875258306,0,1,1,2.7386127875258306,0" fill="#84B672" stroke-width="2" opacity="0.7"></path><path aria-label="target_switch_label: far; Salience: far; Target - Non-target Score: 0.584465" role="graphics-symbol" aria-roledescription="point" transform="translate(21.75,34.62791666666667)" d="M2.7386127875258306,0A2.7386127875258306,2.7386127875258306,0,1,1,-2.7386127875258306,0A2.7386127875258306,2.7386127875258306,0,1,1,2.7386127875258306,0" fill="#2C55A1" stroke-width="2" opacity="0.7"></path><path aria-label="target_switch_label: near; Salience: near; Target - Non-target Score: 0.6416844" role="graphics-symbol" aria-roledescription="point" transform="translate(59.25,29.859633333333345)" d="M2.7386127875258306,0A2.7386127875258306,2.7386127875258306,0,1,1,-2.7386127875258306,0A2.7386127875258306,2.7386127875258306,0,1,1,2.7386127875258306,0" fill="#84B672" stroke-width="2" opacity="0.7"></path><path aria-label="target_switch_label: near; Salience: near; Target - Non-target Score: 0.73530716" role="graphics-symbol" aria-roledescription="point" transform="translate(59.25,22.05773666666666)" d="M2.7386127875258306,0A2.7386127875258306,2.7386127875258306,0,1,1,-2.7386127875258306,0A2.7386127875258306,2.7386127875258306,0,1,1,2.7386127875258306,0" fill="#84B672" stroke-width="2" opacity="0.7"></path><path aria-label="target_switch_label: far; Salience: far; Target - Non-target Score: 0.25285816" role="graphics-symbol" aria-roledescription="point" transform="translate(21.75,62.26182)" d="M2.7386127875258306,0A2.7386127875258306,2.7386127875258306,0,1,1,-2.7386127875258306,0A2.7386127875258306,2.7386127875258306,0,1,1,2.7386127875258306,0" fill="#2C55A1" stroke-width="2" opacity="0.7"></path><path aria-label="target_switch_label: far; Salience: far; Target - Non-target Score: 0.37390944" role="graphics-symbol" aria-roledescription="point" transform="translate(21.75,52.17421333333334)" d="M2.7386127875258306,0A2.7386127875258306,2.7386127875258306,0,1,1,-2.7386127875258306,0A2.7386127875258306,2.7386127875258306,0,1,1,2.7386127875258306,0" fill="#2C55A1" stroke-width="2" opacity="0.7"></path><path aria-label="target_switch_label: near; Salience: near; Target - Non-target Score: 0.64651483" role="graphics-symbol" aria-roledescription="point" transform="translate(59.25,29.457097499999986)" d="M2.7386127875258306,0A2.7386127875258306,2.7386127875258306,0,1,1,-2.7386127875258306,0A2.7386127875258306,2.7386127875258306,0,1,1,2.7386127875258306,0" fill="#84B672" stroke-width="2" opacity="0.7"></path><path aria-label="target_switch_label: near; Salience: near; Target - Non-target Score: 0.6319535" role="graphics-symbol" aria-roledescription="point" transform="translate(59.25,30.670541666666672)" d="M2.7386127875258306,0A2.7386127875258306,2.7386127875258306,0,1,1,-2.7386127875258306,0A2.7386127875258306,2.7386127875258306,0,1,1,2.7386127875258306,0" fill="#84B672" stroke-width="2" opacity="0.7"></path><path aria-label="target_switch_label: far; Salience: far; Target - Non-target Score: 0.058854908" role="graphics-symbol" aria-roledescription="point" transform="translate(21.75,78.42875766666666)" d="M2.7386127875258306,0A2.7386127875258306,2.7386127875258306,0,1,1,-2.7386127875258306,0A2.7386127875258306,2.7386127875258306,0,1,1,2.7386127875258306,0" fill="#2C55A1" stroke-width="2" opacity="0.7"></path><path aria-label="target_switch_label: far; Salience: far; Target - Non-target Score: 0.35783687" role="graphics-symbol" aria-roledescription="point" transform="translate(21.75,53.51359416666668)" d="M2.7386127875258306,0A2.7386127875258306,2.7386127875258306,0,1,1,-2.7386127875258306,0A2.7386127875258306,2.7386127875258306,0,1,1,2.7386127875258306,0" fill="#2C55A1" stroke-width="2" opacity="0.7"></path><path aria-label="target_switch_label: near; Salience: near; Target - Non-target Score: 0.5553147" role="graphics-symbol" aria-roledescription="point" transform="translate(59.25,37.05710833333333)" d="M2.7386127875258306,0A2.7386127875258306,2.7386127875258306,0,1,1,-2.7386127875258306,0A2.7386127875258306,2.7386127875258306,0,1,1,2.7386127875258306,0" fill="#84B672" stroke-width="2" opacity="0.7"></path><path aria-label="target_switch_label: far; Salience: far; Target - Non-target Score: 0.41687497" role="graphics-symbol" aria-roledescription="point" transform="translate(21.75,48.5937525)" d="M2.7386127875258306,0A2.7386127875258306,2.7386127875258306,0,1,1,-2.7386127875258306,0A2.7386127875258306,2.7386127875258306,0,1,1,2.7386127875258306,0" fill="#2C55A1" stroke-width="2" opacity="0.7"></path><path aria-label="target_switch_label: near; Salience: near; Target - Non-target Score: 0.7807824" role="graphics-symbol" aria-roledescription="point" transform="translate(59.25,18.268133333333324)" d="M2.7386127875258306,0A2.7386127875258306,2.7386127875258306,0,1,1,-2.7386127875258306,0A2.7386127875258306,2.7386127875258306,0,1,1,2.7386127875258306,0" fill="#84B672" stroke-width="2" opacity="0.7"></path><path aria-label="target_switch_label: far; Salience: far; Target - Non-target Score: 0.4707172" role="graphics-symbol" aria-roledescription="point" transform="translate(21.75,44.10690000000002)" d="M2.7386127875258306,0A2.7386127875258306,2.7386127875258306,0,1,1,-2.7386127875258306,0A2.7386127875258306,2.7386127875258306,0,1,1,2.7386127875258306,0" fill="#2C55A1" stroke-width="2" opacity="0.7"></path><path aria-label="target_switch_label: near; Salience: near; Target - Non-target Score: 0.8615628" role="graphics-symbol" aria-roledescription="point" transform="translate(59.25,11.536433333333317)" d="M2.7386127875258306,0A2.7386127875258306,2.7386127875258306,0,1,1,-2.7386127875258306,0A2.7386127875258306,2.7386127875258306,0,1,1,2.7386127875258306,0" fill="#84B672" stroke-width="2" opacity="0.7"></path></g><g class="mark-rule role-mark child_layer_2_marks" role="graphics-object" aria-roledescription="rule mark container"><line aria-label="Salience: far; Ci0 of cordiff: 0.312175952317; Ci1 of cordiff: 0.467378226083" role="graphics-symbol" aria-roledescription="rule mark" transform="translate(15.75,57.31867064027778)" x2="0" y2="-12.933522813888906" stroke="black"></line><line aria-label="Salience: near; Ci0 of cordiff: 0.674425148375; Ci1 of cordiff: 0.7914179735" role="graphics-symbol" aria-roledescription="rule mark" transform="translate(53.25,27.13123763541665)" x2="0" y2="-9.749402093749971" stroke="black"></line></g></g><path class="foreground" aria-hidden="true" d="" display="none"></path></g><g transform="translate(194,0)"><path class="background" aria-hidden="true" d="M0.5,0.5h75v200h-75Z" stroke="#ddd"></path><g><g class="mark-group role-axis" aria-hidden="true"><g transform="translate(0.5,0.5)"><path class="background" aria-hidden="true" d="M0,0h0v0h0Z" pointer-events="none"></path><g><g class="mark-rule role-axis-grid" pointer-events="none"><line transform="translate(0,167)" x2="75" y2="0" stroke="#ddd" stroke-width="1" opacity="1"></line><line transform="translate(0,125)" x2="75" y2="0" stroke="#ddd" stroke-width="1" opacity="1"></line><line transform="translate(0,83)" x2="75" y2="0" stroke="#ddd" stroke-width="1" opacity="1"></line><line transform="translate(0,42)" x2="75" y2="0" stroke="#ddd" stroke-width="1" opacity="1"></line><line transform="translate(0,0)" x2="75" y2="0" stroke="#ddd" stroke-width="1" opacity="1"></line></g></g><path class="foreground" aria-hidden="true" d="" pointer-events="none" display="none"></path></g></g><g class="mark-symbol role-mark child_layer_0_marks" role="graphics-object" aria-roledescription="symbol mark container"><path aria-label="target_switch_label: near; Salience: near; Mean of cordiff: 0.0670057709091" role="graphics-symbol" aria-roledescription="point" transform="translate(53.25,77.74951909090908)" d="M2.7386127875258306,0A2.7386127875258306,2.7386127875258306,0,1,1,-2.7386127875258306,0A2.7386127875258306,2.7386127875258306,0,1,1,2.7386127875258306,0" stroke="#84B672" stroke-width="2"></path><path aria-label="target_switch_label: far; Salience: far; Mean of cordiff: 0.277314665" role="graphics-symbol" aria-roledescription="point" transform="translate(15.75,60.22377791666666)" d="M2.7386127875258306,0A2.7386127875258306,2.7386127875258306,0,1,1,-2.7386127875258306,0A2.7386127875258306,2.7386127875258306,0,1,1,2.7386127875258306,0" stroke="#2C55A1" stroke-width="2"></path></g><g class="mark-symbol role-mark child_layer_1_marks" role="graphics-object" aria-roledescription="symbol mark container"><path aria-label="target_switch_label: near; Salience: near; Target - Non-target Score: 0.293227" role="graphics-symbol" aria-roledescription="point" transform="translate(59.25,58.897750000000016)" d="M2.7386127875258306,0A2.7386127875258306,2.7386127875258306,0,1,1,-2.7386127875258306,0A2.7386127875258306,2.7386127875258306,0,1,1,2.7386127875258306,0" fill="#84B672" stroke-width="2" opacity="0.7"></path><path aria-label="target_switch_label: far; Salience: far; Target - Non-target Score: 0.20458134" role="graphics-symbol" aria-roledescription="point" transform="translate(21.75,66.28488833333333)" d="M2.7386127875258306,0A2.7386127875258306,2.7386127875258306,0,1,1,-2.7386127875258306,0A2.7386127875258306,2.7386127875258306,0,1,1,2.7386127875258306,0" fill="#2C55A1" stroke-width="2" opacity="0.7"></path><path aria-label="target_switch_label: far; Salience: far; Target - Non-target Score: 0.44299895" role="graphics-symbol" aria-roledescription="point" transform="translate(21.75,46.416754166666664)" d="M2.7386127875258306,0A2.7386127875258306,2.7386127875258306,0,1,1,-2.7386127875258306,0A2.7386127875258306,2.7386127875258306,0,1,1,2.7386127875258306,0" fill="#2C55A1" stroke-width="2" opacity="0.7"></path><path aria-label="target_switch_label: near; Salience: near; Target - Non-target Score: 0.9320658" role="graphics-symbol" aria-roledescription="point" transform="translate(59.25,5.6611833333333195)" d="M2.7386127875258306,0A2.7386127875258306,2.7386127875258306,0,1,1,-2.7386127875258306,0A2.7386127875258306,2.7386127875258306,0,1,1,2.7386127875258306,0" fill="#84B672" stroke-width="2" opacity="0.7"></path><path aria-label="target_switch_label: near; Salience: near; Target - Non-target Score: 0.21855557" role="graphics-symbol" aria-roledescription="point" transform="translate(59.25,65.12036916666668)" d="M2.7386127875258306,0A2.7386127875258306,2.7386127875258306,0,1,1,-2.7386127875258306,0A2.7386127875258306,2.7386127875258306,0,1,1,2.7386127875258306,0" fill="#84B672" stroke-width="2" opacity="0.7"></path><path aria-label="target_switch_label: far; Salience: far; Target - Non-target Score: 0.46277788" role="graphics-symbol" aria-roledescription="point" transform="translate(21.75,44.76850999999999)" d="M2.7386127875258306,0A2.7386127875258306,2.7386127875258306,0,1,1,-2.7386127875258306,0A2.7386127875258306,2.7386127875258306,0,1,1,2.7386127875258306,0" fill="#2C55A1" stroke-width="2" opacity="0.7"></path><path aria-label="target_switch_label: far; Salience: far; Target - Non-target Score: -1.1503112" role="graphics-symbol" aria-roledescription="point" transform="translate(21.75,179.19260000000003)" d="M2.7386127875258306,0A2.7386127875258306,2.7386127875258306,0,1,1,-2.7386127875258306,0A2.7386127875258306,2.7386127875258306,0,1,1,2.7386127875258306,0" fill="#2C55A1" stroke-width="2" opacity="0.7"></path><path aria-label="target_switch_label: near; Salience: near; Target - Non-target Score: -0.31213218" role="graphics-symbol" aria-roledescription="point" transform="translate(59.25,109.34434833333333)" d="M2.7386127875258306,0A2.7386127875258306,2.7386127875258306,0,1,1,-2.7386127875258306,0A2.7386127875258306,2.7386127875258306,0,1,1,2.7386127875258306,0" fill="#84B672" stroke-width="2" opacity="0.7"></path><path aria-label="target_switch_label: far; Salience: far; Target - Non-target Score: 0.571079" role="graphics-symbol" aria-roledescription="point" transform="translate(21.75,35.74341666666665)" d="M2.7386127875258306,0A2.7386127875258306,2.7386127875258306,0,1,1,-2.7386127875258306,0A2.7386127875258306,2.7386127875258306,0,1,1,2.7386127875258306,0" fill="#2C55A1" stroke-width="2" opacity="0.7"></path><path aria-label="target_switch_label: near; Salience: near; Target - Non-target Score: -0.40674612" role="graphics-symbol" aria-roledescription="point" transform="translate(59.25,117.22884333333332)" d="M2.7386127875258306,0A2.7386127875258306,2.7386127875258306,0,1,1,-2.7386127875258306,0A2.7386127875258306,2.7386127875258306,0,1,1,2.7386127875258306,0" fill="#84B672" stroke-width="2" opacity="0.7"></path><path aria-label="target_switch_label: far; Salience: far; Target - Non-target Score: 0.67853516" role="graphics-symbol" aria-roledescription="point" transform="translate(21.75,26.788736666666658)" d="M2.7386127875258306,0A2.7386127875258306,2.7386127875258306,0,1,1,-2.7386127875258306,0A2.7386127875258306,2.7386127875258306,0,1,1,2.7386127875258306,0" fill="#2C55A1" stroke-width="2" opacity="0.7"></path><path aria-label="target_switch_label: far; Salience: far; Target - Non-target Score: 0.31060237" role="graphics-symbol" aria-roledescription="point" transform="translate(21.75,57.449802500000004)" d="M2.7386127875258306,0A2.7386127875258306,2.7386127875258306,0,1,1,-2.7386127875258306,0A2.7386127875258306,2.7386127875258306,0,1,1,2.7386127875258306,0" fill="#2C55A1" stroke-width="2" opacity="0.7"></path><path aria-label="target_switch_label: near; Salience: near; Target - Non-target Score: 0.5214336" role="graphics-symbol" aria-roledescription="point" transform="translate(59.25,39.88053333333335)" d="M2.7386127875258306,0A2.7386127875258306,2.7386127875258306,0,1,1,-2.7386127875258306,0A2.7386127875258306,2.7386127875258306,0,1,1,2.7386127875258306,0" fill="#84B672" stroke-width="2" opacity="0.7"></path><path aria-label="target_switch_label: far; Salience: far; Target - Non-target Score: 0.26828742" role="graphics-symbol" aria-roledescription="point" transform="translate(21.75,60.976048333333324)" d="M2.7386127875258306,0A2.7386127875258306,2.7386127875258306,0,1,1,-2.7386127875258306,0A2.7386127875258306,2.7386127875258306,0,1,1,2.7386127875258306,0" fill="#2C55A1" stroke-width="2" opacity="0.7"></path><path aria-label="target_switch_label: near; Salience: near; Target - Non-target Score: 0.5089072" role="graphics-symbol" aria-roledescription="point" transform="translate(59.25,40.92440000000002)" d="M2.7386127875258306,0A2.7386127875258306,2.7386127875258306,0,1,1,-2.7386127875258306,0A2.7386127875258306,2.7386127875258306,0,1,1,2.7386127875258306,0" fill="#84B672" stroke-width="2" opacity="0.7"></path><path aria-label="target_switch_label: near; Salience: near; Target - Non-target Score: 0.15043691" role="graphics-symbol" aria-roledescription="point" transform="translate(59.25,70.79692416666667)" d="M2.7386127875258306,0A2.7386127875258306,2.7386127875258306,0,1,1,-2.7386127875258306,0A2.7386127875258306,2.7386127875258306,0,1,1,2.7386127875258306,0" fill="#84B672" stroke-width="2" opacity="0.7"></path><path aria-label="target_switch_label: far; Salience: far; Target - Non-target Score: 0.24151315" role="graphics-symbol" aria-roledescription="point" transform="translate(21.75,63.20723749999999)" d="M2.7386127875258306,0A2.7386127875258306,2.7386127875258306,0,1,1,-2.7386127875258306,0A2.7386127875258306,2.7386127875258306,0,1,1,2.7386127875258306,0" fill="#2C55A1" stroke-width="2" opacity="0.7"></path><path aria-label="target_switch_label: far; Salience: far; Target - Non-target Score: 0.0650695" role="graphics-symbol" aria-roledescription="point" transform="translate(21.75,77.910875)" d="M2.7386127875258306,0A2.7386127875258306,2.7386127875258306,0,1,1,-2.7386127875258306,0A2.7386127875258306,2.7386127875258306,0,1,1,2.7386127875258306,0" fill="#2C55A1" stroke-width="2" opacity="0.7"></path><path aria-label="target_switch_label: near; Salience: near; Target - Non-target Score: 0.1906083" role="graphics-symbol" aria-roledescription="point" transform="translate(59.25,67.44930833333333)" d="M2.7386127875258306,0A2.7386127875258306,2.7386127875258306,0,1,1,-2.7386127875258306,0A2.7386127875258306,2.7386127875258306,0,1,1,2.7386127875258306,0" fill="#84B672" stroke-width="2" opacity="0.7"></path><path aria-label="target_switch_label: near; Salience: near; Target - Non-target Score: -0.077169" role="graphics-symbol" aria-roledescription="point" transform="translate(59.25,89.76408333333335)" d="M2.7386127875258306,0A2.7386127875258306,2.7386127875258306,0,1,1,-2.7386127875258306,0A2.7386127875258306,2.7386127875258306,0,1,1,2.7386127875258306,0" fill="#84B672" stroke-width="2" opacity="0.7"></path><path aria-label="target_switch_label: far; Salience: far; Target - Non-target Score: 0.47651398" role="graphics-symbol" aria-roledescription="point" transform="translate(21.75,43.623835)" d="M2.7386127875258306,0A2.7386127875258306,2.7386127875258306,0,1,1,-2.7386127875258306,0A2.7386127875258306,2.7386127875258306,0,1,1,2.7386127875258306,0" fill="#2C55A1" stroke-width="2" opacity="0.7"></path><path aria-label="target_switch_label: far; Salience: far; Target - Non-target Score: 0.75612843" role="graphics-symbol" aria-roledescription="point" transform="translate(21.75,20.322630833333342)" d="M2.7386127875258306,0A2.7386127875258306,2.7386127875258306,0,1,1,-2.7386127875258306,0A2.7386127875258306,2.7386127875258306,0,1,1,2.7386127875258306,0" fill="#2C55A1" stroke-width="2" opacity="0.7"></path><path aria-label="target_switch_label: near; Salience: near; Target - Non-target Score: -1.2821236" role="graphics-symbol" aria-roledescription="point" transform="translate(59.25,190.1769666666667)" d="M2.7386127875258306,0A2.7386127875258306,2.7386127875258306,0,1,1,-2.7386127875258306,0A2.7386127875258306,2.7386127875258306,0,1,1,2.7386127875258306,0" fill="#84B672" stroke-width="2" opacity="0.7"></path></g><g class="mark-rule role-mark child_layer_2_marks" role="graphics-object" aria-roledescription="rule mark container"><line aria-label="Salience: near; Ci0 of cordiff: -0.285167649136; Ci1 of cordiff: 0.361287530659" role="graphics-symbol" aria-roledescription="rule mark" transform="translate(53.25,107.09730409469698)" x2="0" y2="-53.87126498295454" stroke="black"></line><line aria-label="Salience: far; Ci0 of cordiff: -0.0321339138125; Ci1 of cordiff: 0.490989343125" role="graphics-symbol" aria-roledescription="rule mark" transform="translate(15.75,86.01115948437499)" x2="0" y2="-43.593604744791634" stroke="black"></line></g></g><path class="foreground" aria-hidden="true" d="" display="none"></path></g></g></g><path class="foreground" aria-hidden="true" d="" display="none"></path></g></g></g></svg>
