<?xml version="1.0" encoding="utf-8"?>
<!DOCTYPE svg PUBLIC "-//W3C//DTD SVG 1.1//EN" "http://www.w3.org/Graphics/SVG/1.1/DTD/svg11.dtd">
<svg class="marks" width="723" height="295" viewBox="0 0 723 295" version="1.1" xmlns="http://www.w3.org/2000/svg" xmlns:xlink="http://www.w3.org/1999/xlink"><rect width="723" height="295" fill="white"></rect><g fill="none" stroke-miterlimit="10" transform="translate(67,57)"><g class="mark-group role-frame root" role="graphics-object" aria-roledescription="group mark container"><g transform="translate(0,0)"><path class="background" aria-hidden="true" d="M0,0h0v0h0Z"></path><g><g class="mark-group role-column-title column-title" role="graphics-object" aria-roledescription="group mark container"><g transform="translate(325,-31)"><path class="background" aria-hidden="true" d="M0,0h0v0h0Z"></path><g><g class="mark-group role-title"><g transform="translate(0,-21)"><path class="background" aria-hidden="true" d="M0,0h0v0h0Z" pointer-events="none"></path><g><g class="mark-text role-title-text" role="graphics-symbol" aria-roledescription="title" aria-label="Title text 'train_kind'" pointer-events="none"><text text-anchor="middle" transform="translate(0,9)" font-family="sans-serif" font-size="11px" font-weight="bold" fill="#000" opacity="1">train_kind</text></g></g><path class="foreground" aria-hidden="true" d="" pointer-events="none" display="none"></path></g></g></g><path class="foreground" aria-hidden="true" d="" display="none"></path></g></g><g class="mark-group role-row-header row_header" role="graphics-object" aria-roledescription="group mark container"><g transform="translate(-1,0)"><path class="background" aria-hidden="true" d="M0,0h0v200h0Z"></path><g><g class="mark-group role-axis" role="graphics-symbol" aria-roledescription="axis" aria-label="Y-axis titled 'lower' for a linear scale with values from 0.00000 to 0.00055"><g transform="translate(0.5,0.5)"><path class="background" aria-hidden="true" d="M0,0h0v0h0Z" pointer-events="none"></path><g><g class="mark-rule role-axis-tick" pointer-events="none"><line transform="translate(0,200)" x2="-5" y2="0" stroke="#888" stroke-width="1" opacity="1"></line><line transform="translate(0,164)" x2="-5" y2="0" stroke="#888" stroke-width="1" opacity="1"></line><line transform="translate(0,127)" x2="-5" y2="0" stroke="#888" stroke-width="1" opacity="1"></line><line transform="translate(0,91)" x2="-5" y2="0" stroke="#888" stroke-width="1" opacity="1"></line><line transform="translate(0,55)" x2="-5" y2="0" stroke="#888" stroke-width="1" opacity="1"></line><line transform="translate(0,18)" x2="-5" y2="0" stroke="#888" stroke-width="1" opacity="1"></line></g><g class="mark-text role-axis-label" pointer-events="none"><text text-anchor="end" transform="translate(-7,203)" font-family="sans-serif" font-size="10px" fill="#000" opacity="1">0.00000</text><text text-anchor="end" transform="translate(-7,166.63636363636363)" font-family="sans-serif" font-size="10px" fill="#000" opacity="1">0.00010</text><text text-anchor="end" transform="translate(-7,130.27272727272725)" font-family="sans-serif" font-size="10px" fill="#000" opacity="1">0.00020</text><text text-anchor="end" transform="translate(-7,93.90909090909092)" font-family="sans-serif" font-size="10px" fill="#000" opacity="1">0.00030</text><text text-anchor="end" transform="translate(-7,57.54545454545454)" font-family="sans-serif" font-size="10px" fill="#000" opacity="1">0.00040</text><text text-anchor="end" transform="translate(-7,21.181818181818187)" font-family="sans-serif" font-size="10px" fill="#000" opacity="1">0.00050</text></g><g class="mark-rule role-axis-domain" pointer-events="none"><line transform="translate(0,200)" x2="0" y2="-200" stroke="#888" stroke-width="1" opacity="1"></line></g><g class="mark-text role-axis-title" pointer-events="none"><text text-anchor="middle" transform="translate(-50,100) rotate(-90) translate(0,-2)" font-family="sans-serif" font-size="11px" font-weight="bold" fill="#000" opacity="1">lower</text></g></g><path class="foreground" aria-hidden="true" d="" pointer-events="none" display="none"></path></g></g></g><path class="foreground" aria-hidden="true" d="" display="none"></path></g></g><g class="mark-group role-column-header column_header" role="graphics-object" aria-roledescription="group mark container"><g transform="translate(0,-1)"><path class="background" aria-hidden="true" d="M0,0h200v0h-200Z"></path><g><g class="mark-group role-title"><g transform="translate(100,-20)"><path class="background" aria-hidden="true" d="M0,0h0v0h0Z" pointer-events="none"></path><g><g class="mark-text role-title-text" role="graphics-symbol" aria-roledescription="title" aria-label="Title text 'athitother'" pointer-events="none"><text text-anchor="middle" transform="translate(0,8)" font-family="sans-serif" font-size="10px" fill="#000" opacity="1">athitother</text></g></g><path class="foreground" aria-hidden="true" d="" pointer-events="none" display="none"></path></g></g></g><path class="foreground" aria-hidden="true" d="" display="none"></path></g><g transform="translate(224,-1)"><path class="background" aria-hidden="true" d="M0,0h200v0h-200Z"></path><g><g class="mark-group role-title"><g transform="translate(100,-20)"><path class="background" aria-hidden="true" d="M0,0h0v0h0Z" pointer-events="none"></path><g><g class="mark-text role-title-text" role="graphics-symbol" aria-roledescription="title" aria-label="Title text 'athittarget'" pointer-events="none"><text text-anchor="middle" transform="translate(0,8)" font-family="sans-serif" font-size="10px" fill="#000" opacity="1">athittarget</text></g></g><path class="foreground" aria-hidden="true" d="" pointer-events="none" display="none"></path></g></g></g><path class="foreground" aria-hidden="true" d="" display="none"></path></g><g transform="translate(448,-1)"><path class="background" aria-hidden="true" d="M0,0h200v0h-200Z"></path><g><g class="mark-group role-title"><g transform="translate(100,-20)"><path class="background" aria-hidden="true" d="M0,0h0v0h0Z" pointer-events="none"></path><g><g class="mark-text role-title-text" role="graphics-symbol" aria-roledescription="title" aria-label="Title text 'premiss'" pointer-events="none"><text text-anchor="middle" transform="translate(0,8)" font-family="sans-serif" font-size="10px" fill="#000" opacity="1">premiss</text></g></g><path class="foreground" aria-hidden="true" d="" pointer-events="none" display="none"></path></g></g></g><path class="foreground" aria-hidden="true" d="" display="none"></path></g></g><g class="mark-group role-column-footer column_footer" role="graphics-object" aria-roledescription="group mark container"><g transform="translate(0,201)"><path class="background" aria-hidden="true" d="M0,0h200v0h-200Z"></path><g><g class="mark-group role-axis" role="graphics-symbol" aria-roledescription="axis" aria-label="X-axis titled 'mcca' for a linear scale with values from 0 to 30"><g transform="translate(0.5,0.5)"><path class="background" aria-hidden="true" d="M0,0h0v0h0Z" pointer-events="none"></path><g><g class="mark-rule role-axis-tick" pointer-events="none"><line transform="translate(0,0)" x2="0" y2="5" stroke="#888" stroke-width="1" opacity="1"></line><line transform="translate(33,0)" x2="0" y2="5" stroke="#888" stroke-width="1" opacity="1"></line><line transform="translate(67,0)" x2="0" y2="5" stroke="#888" stroke-width="1" opacity="1"></line><line transform="translate(100,0)" x2="0" y2="5" stroke="#888" stroke-width="1" opacity="1"></line><line transform="translate(133,0)" x2="0" y2="5" stroke="#888" stroke-width="1" opacity="1"></line><line transform="translate(167,0)" x2="0" y2="5" stroke="#888" stroke-width="1" opacity="1"></line><line transform="translate(200,0)" x2="0" y2="5" stroke="#888" stroke-width="1" opacity="1"></line></g><g class="mark-text role-axis-label" pointer-events="none"><text text-anchor="start" transform="translate(0,15)" font-family="sans-serif" font-size="10px" fill="#000" opacity="1">0</text><text text-anchor="middle" transform="translate(33.33333333333333,15)" font-family="sans-serif" font-size="10px" fill="#000" opacity="1">5</text><text text-anchor="middle" transform="translate(66.66666666666666,15)" font-family="sans-serif" font-size="10px" fill="#000" opacity="1">10</text><text text-anchor="middle" transform="translate(100,15)" font-family="sans-serif" font-size="10px" fill="#000" opacity="1">15</text><text text-anchor="middle" transform="translate(133.33333333333331,15)" font-family="sans-serif" font-size="10px" fill="#000" opacity="1">20</text><text text-anchor="middle" transform="translate(166.66666666666669,15)" font-family="sans-serif" font-size="10px" fill="#000" opacity="1">25</text><text text-anchor="end" transform="translate(200,15)" font-family="sans-serif" font-size="10px" fill="#000" opacity="1">30</text></g><g class="mark-rule role-axis-domain" pointer-events="none"><line transform="translate(0,0)" x2="200" y2="0" stroke="#888" stroke-width="1" opacity="1"></line></g><g class="mark-text role-axis-title" pointer-events="none"><text text-anchor="middle" transform="translate(100,30)" font-family="sans-serif" font-size="11px" font-weight="bold" fill="#000" opacity="1">mcca</text></g></g><path class="foreground" aria-hidden="true" d="" pointer-events="none" display="none"></path></g></g></g><path class="foreground" aria-hidden="true" d="" display="none"></path></g><g transform="translate(224,201)"><path class="background" aria-hidden="true" d="M0,0h200v0h-200Z"></path><g><g class="mark-group role-axis" role="graphics-symbol" aria-roledescription="axis" aria-label="X-axis titled 'mcca' for a linear scale with values from 0 to 30"><g transform="translate(0.5,0.5)"><path class="background" aria-hidden="true" d="M0,0h0v0h0Z" pointer-events="none"></path><g><g class="mark-rule role-axis-tick" pointer-events="none"><line transform="translate(0,0)" x2="0" y2="5" stroke="#888" stroke-width="1" opacity="1"></line><line transform="translate(33,0)" x2="0" y2="5" stroke="#888" stroke-width="1" opacity="1"></line><line transform="translate(67,0)" x2="0" y2="5" stroke="#888" stroke-width="1" opacity="1"></line><line transform="translate(100,0)" x2="0" y2="5" stroke="#888" stroke-width="1" opacity="1"></line><line transform="translate(133,0)" x2="0" y2="5" stroke="#888" stroke-width="1" opacity="1"></line><line transform="translate(167,0)" x2="0" y2="5" stroke="#888" stroke-width="1" opacity="1"></line><line transform="translate(200,0)" x2="0" y2="5" stroke="#888" stroke-width="1" opacity="1"></line></g><g class="mark-text role-axis-label" pointer-events="none"><text text-anchor="start" transform="translate(0,15)" font-family="sans-serif" font-size="10px" fill="#000" opacity="1">0</text><text text-anchor="middle" transform="translate(33.33333333333333,15)" font-family="sans-serif" font-size="10px" fill="#000" opacity="1">5</text><text text-anchor="middle" transform="translate(66.66666666666666,15)" font-family="sans-serif" font-size="10px" fill="#000" opacity="1">10</text><text text-anchor="middle" transform="translate(100,15)" font-family="sans-serif" font-size="10px" fill="#000" opacity="1">15</text><text text-anchor="middle" transform="translate(133.33333333333331,15)" font-family="sans-serif" font-size="10px" fill="#000" opacity="1">20</text><text text-anchor="middle" transform="translate(166.66666666666669,15)" font-family="sans-serif" font-size="10px" fill="#000" opacity="1">25</text><text text-anchor="end" transform="translate(200,15)" font-family="sans-serif" font-size="10px" fill="#000" opacity="1">30</text></g><g class="mark-rule role-axis-domain" pointer-events="none"><line transform="translate(0,0)" x2="200" y2="0" stroke="#888" stroke-width="1" opacity="1"></line></g><g class="mark-text role-axis-title" pointer-events="none"><text text-anchor="middle" transform="translate(100,30)" font-family="sans-serif" font-size="11px" font-weight="bold" fill="#000" opacity="1">mcca</text></g></g><path class="foreground" aria-hidden="true" d="" pointer-events="none" display="none"></path></g></g></g><path class="foreground" aria-hidden="true" d="" display="none"></path></g><g transform="translate(448,201)"><path class="background" aria-hidden="true" d="M0,0h200v0h-200Z"></path><g><g class="mark-group role-axis" role="graphics-symbol" aria-roledescription="axis" aria-label="X-axis titled 'mcca' for a linear scale with values from 0 to 30"><g transform="translate(0.5,0.5)"><path class="background" aria-hidden="true" d="M0,0h0v0h0Z" pointer-events="none"></path><g><g class="mark-rule role-axis-tick" pointer-events="none"><line transform="translate(0,0)" x2="0" y2="5" stroke="#888" stroke-width="1" opacity="1"></line><line transform="translate(33,0)" x2="0" y2="5" stroke="#888" stroke-width="1" opacity="1"></line><line transform="translate(67,0)" x2="0" y2="5" stroke="#888" stroke-width="1" opacity="1"></line><line transform="translate(100,0)" x2="0" y2="5" stroke="#888" stroke-width="1" opacity="1"></line><line transform="translate(133,0)" x2="0" y2="5" stroke="#888" stroke-width="1" opacity="1"></line><line transform="translate(167,0)" x2="0" y2="5" stroke="#888" stroke-width="1" opacity="1"></line><line transform="translate(200,0)" x2="0" y2="5" stroke="#888" stroke-width="1" opacity="1"></line></g><g class="mark-text role-axis-label" pointer-events="none"><text text-anchor="start" transform="translate(0,15)" font-family="sans-serif" font-size="10px" fill="#000" opacity="1">0</text><text text-anchor="middle" transform="translate(33.33333333333333,15)" font-family="sans-serif" font-size="10px" fill="#000" opacity="1">5</text><text text-anchor="middle" transform="translate(66.66666666666666,15)" font-family="sans-serif" font-size="10px" fill="#000" opacity="1">10</text><text text-anchor="middle" transform="translate(100,15)" font-family="sans-serif" font-size="10px" fill="#000" opacity="1">15</text><text text-anchor="middle" transform="translate(133.33333333333331,15)" font-family="sans-serif" font-size="10px" fill="#000" opacity="1">20</text><text text-anchor="middle" transform="translate(166.66666666666669,15)" font-family="sans-serif" font-size="10px" fill="#000" opacity="1">25</text><text text-anchor="end" transform="translate(200,15)" font-family="sans-serif" font-size="10px" fill="#000" opacity="1">30</text></g><g class="mark-rule role-axis-domain" pointer-events="none"><line transform="translate(0,0)" x2="200" y2="0" stroke="#888" stroke-width="1" opacity="1"></line></g><g class="mark-text role-axis-title" pointer-events="none"><text text-anchor="middle" transform="translate(100,30)" font-family="sans-serif" font-size="11px" font-weight="bold" fill="#000" opacity="1">mcca</text></g></g><path class="foreground" aria-hidden="true" d="" pointer-events="none" display="none"></path></g></g></g><path class="foreground" aria-hidden="true" d="" display="none"></path></g></g><g class="mark-group role-scope cell" role="graphics-object" aria-roledescription="group mark container"><g transform="translate(0,0)"><path class="background" aria-hidden="true" d="M0.5,0.5h200v200h-200Z" stroke="#ddd"></path><g><g class="mark-group role-axis" aria-hidden="true"><g transform="translate(0.5,200.5)"><path class="background" aria-hidden="true" d="M0,0h0v0h0Z" pointer-events="none"></path><g><g class="mark-rule role-axis-grid" pointer-events="none"><line transform="translate(0,-200)" x2="0" y2="200" stroke="#ddd" stroke-width="1" opacity="1"></line><line transform="translate(33,-200)" x2="0" y2="200" stroke="#ddd" stroke-width="1" opacity="1"></line><line transform="translate(67,-200)" x2="0" y2="200" stroke="#ddd" stroke-width="1" opacity="1"></line><line transform="translate(100,-200)" x2="0" y2="200" stroke="#ddd" stroke-width="1" opacity="1"></line><line transform="translate(133,-200)" x2="0" y2="200" stroke="#ddd" stroke-width="1" opacity="1"></line><line transform="translate(167,-200)" x2="0" y2="200" stroke="#ddd" stroke-width="1" opacity="1"></line><line transform="translate(200,-200)" x2="0" y2="200" stroke="#ddd" stroke-width="1" opacity="1"></line></g></g><path class="foreground" aria-hidden="true" d="" pointer-events="none" display="none"></path></g></g><g class="mark-group role-axis" aria-hidden="true"><g transform="translate(0.5,0.5)"><path class="background" aria-hidden="true" d="M0,0h0v0h0Z" pointer-events="none"></path><g><g class="mark-rule role-axis-grid" pointer-events="none"><line transform="translate(0,200)" x2="200" y2="0" stroke="#ddd" stroke-width="1" opacity="1"></line><line transform="translate(0,164)" x2="200" y2="0" stroke="#ddd" stroke-width="1" opacity="1"></line><line transform="translate(0,127)" x2="200" y2="0" stroke="#ddd" stroke-width="1" opacity="1"></line><line transform="translate(0,91)" x2="200" y2="0" stroke="#ddd" stroke-width="1" opacity="1"></line><line transform="translate(0,55)" x2="200" y2="0" stroke="#ddd" stroke-width="1" opacity="1"></line><line transform="translate(0,18)" x2="200" y2="0" stroke="#ddd" stroke-width="1" opacity="1"></line></g></g><path class="foreground" aria-hidden="true" d="" pointer-events="none" display="none"></path></g></g><g class="mark-line role-mark child_layer_0_marks" role="graphics-object" aria-roledescription="line mark container"><path aria-label="mcca: 1; value: 0.00042098318" role="graphics-symbol" aria-roledescription="line mark" d="M6.666666666666667,46.91520727272729L13.333333333333334,34.49558545454545L20,41.19037818181819L26.666666666666668,41.58778181818184L33.33333333333333,33.592934545454554L40,47.061752727272754L46.666666666666664,28.327065454545462L53.333333333333336,46.08380000000001L60,33.31435272727275L66.66666666666666,46.9711272727273L73.33333333333333,37.15008727272728L80,46.99343636363638L86.66666666666667,33.798501818181826L93.33333333333333,46.476385454545465L100,34.683650909090936L106.66666666666667,49.46364363636364L113.33333333333333,39.11118909090909L120,44.79761090909091L126.66666666666666,48.668018181818205L133.33333333333331,41.574898181818185L140,53.56722181818181L146.66666666666666,39.8001890909091L153.33333333333334,51.379745454545464L160,42.28037454545455L166.66666666666669,46.912145454545474L173.33333333333334,42.98123636363638L180,53.61978181818181L186.66666666666666,41.293076363636395L193.33333333333334,53.1326181818182L200,41.623432727272736" stroke="#4c78a8" stroke-width="2"></path></g><g class="mark-area role-mark child_layer_1_layer_0_marks" role="graphics-object" aria-roledescription="area mark container"><path aria-label="lower: 0.000371932657436; upper_lower: 0.000434009905439; mcca: 1; upper: 0.000434009905439" role="graphics-symbol" aria-roledescription="errorband" d="M6.666666666666667,64.75176093253224L13.333333333333334,50.021368315951406L20,55.99367963996802L26.666666666666668,56.425339186733424L33.33333333333333,49.90273475308311L40,59.90206583995712L46.666666666666664,44.787663526155754L53.333333333333336,58.61227720637214L60,47.2978805445812L66.66666666666666,57.951021245257415L73.33333333333333,56.37345393611628L80,60.45350193638694L86.66666666666667,49.420483224093935L93.33333333333333,63.91144127330997L100,48.853022029454074L106.66666666666667,64.84802158718762L113.33333333333333,56.08862162652342L120,60.01275352795017L126.66666666666666,61.762086352841436L133.33333333333331,55.88894183324145L140,67.63853918422353L146.66666666666666,52.761090733110926L153.33333333333334,65.5510029162873L160,57.125234451483585L166.66666666666669,63.81557219746439L173.33333333333334,60.500034198842265L180,64.15953290733425L186.66666666666666,57.124825939536095L193.33333333333334,67.71454145623879L200,57.38894478841263L200,35.5894032019106L193.33333333333334,44.50002666562798L186.66666666666666,37.32403806326066L180,45.964990725571475L173.33333333333334,35.36822044036605L166.66666666666669,43.50750349800696L160,36.97361524470828L153.33333333333334,42.68384604630147L146.66666666666666,35.773608223958455L140,48.312736404213055L133.33333333333331,34.495672786777675L126.66666666666666,42.44928610595791L120,39.52483585612341L113.33333333333333,34.289160472425564L106.66666666666667,47.061040980572066L100,32.44294681670992L93.33333333333333,43.27256891199136L86.66666666666667,30.799145539375882L80,40.012810785662055L73.33333333333333,30.818504349074583L66.66666666666666,41.361503455449245L60,27.515403740108013L53.333333333333336,40.217712335288525L46.666666666666664,25.58851003308189L40,42.91199256073346L33.33333333333333,27.09798919544979L26.666666666666668,35.698994469236254L20,37.98611951483923L13.333333333333334,26.66415162384512L6.666666666666667,42.1782162040472Z" fill="#4c78a8" opacity="0.3"></path></g></g><path class="foreground" aria-hidden="true" d="" display="none"></path></g><g transform="translate(224,0)"><path class="background" aria-hidden="true" d="M0.5,0.5h200v200h-200Z" stroke="#ddd"></path><g><g class="mark-group role-axis" aria-hidden="true"><g transform="translate(0.5,200.5)"><path class="background" aria-hidden="true" d="M0,0h0v0h0Z" pointer-events="none"></path><g><g class="mark-rule role-axis-grid" pointer-events="none"><line transform="translate(0,-200)" x2="0" y2="200" stroke="#ddd" stroke-width="1" opacity="1"></line><line transform="translate(33,-200)" x2="0" y2="200" stroke="#ddd" stroke-width="1" opacity="1"></line><line transform="translate(67,-200)" x2="0" y2="200" stroke="#ddd" stroke-width="1" opacity="1"></line><line transform="translate(100,-200)" x2="0" y2="200" stroke="#ddd" stroke-width="1" opacity="1"></line><line transform="translate(133,-200)" x2="0" y2="200" stroke="#ddd" stroke-width="1" opacity="1"></line><line transform="translate(167,-200)" x2="0" y2="200" stroke="#ddd" stroke-width="1" opacity="1"></line><line transform="translate(200,-200)" x2="0" y2="200" stroke="#ddd" stroke-width="1" opacity="1"></line></g></g><path class="foreground" aria-hidden="true" d="" pointer-events="none" display="none"></path></g></g><g class="mark-group role-axis" aria-hidden="true"><g transform="translate(0.5,0.5)"><path class="background" aria-hidden="true" d="M0,0h0v0h0Z" pointer-events="none"></path><g><g class="mark-rule role-axis-grid" pointer-events="none"><line transform="translate(0,200)" x2="200" y2="0" stroke="#ddd" stroke-width="1" opacity="1"></line><line transform="translate(0,164)" x2="200" y2="0" stroke="#ddd" stroke-width="1" opacity="1"></line><line transform="translate(0,127)" x2="200" y2="0" stroke="#ddd" stroke-width="1" opacity="1"></line><line transform="translate(0,91)" x2="200" y2="0" stroke="#ddd" stroke-width="1" opacity="1"></line><line transform="translate(0,55)" x2="200" y2="0" stroke="#ddd" stroke-width="1" opacity="1"></line><line transform="translate(0,18)" x2="200" y2="0" stroke="#ddd" stroke-width="1" opacity="1"></line></g></g><path class="foreground" aria-hidden="true" d="" pointer-events="none" display="none"></path></g></g><g class="mark-line role-mark child_layer_0_marks" role="graphics-object" aria-roledescription="line mark container"><path aria-label="mcca: 1; value: 0.00042256736" role="graphics-symbol" aria-roledescription="line mark" d="M6.666666666666667,46.339141818181815L13.333333333333334,32.32654545454545L20,41.11978181818181L26.666666666666668,41.72296727272729L33.33333333333333,32.648425454545475L40,47.48895272727274L46.666666666666664,34.78083636363638L53.333333333333336,39.92868000000003L60,33.09040000000001L66.66666666666666,51.80875636363638L73.33333333333333,38.06516363636365L80,52.06360000000001L86.66666666666667,30.37193454545455L93.33333333333333,49.97137454545457L100,33.544865454545445L106.66666666666667,55.758632727272726L113.33333333333333,37.50120000000001L120,48.49098181818184L126.66666666666666,47.355170909090916L133.33333333333331,43.6981090909091L140,52.23397818181819L146.66666666666666,36.58728363636363L153.33333333333334,48.32442545454547L160,38.14793818181818L166.66666666666669,50.25083636363639L173.33333333333334,50.745207272727264L180,48.75335272727275L186.66666666666666,45.58824000000001L193.33333333333334,52.2437890909091L200,38.00563636363636" stroke="#4c78a8" stroke-width="2"></path></g><g class="mark-area role-mark child_layer_1_layer_0_marks" role="graphics-object" aria-roledescription="area mark container"><path aria-label="lower: 0.000363536598161; upper_lower: 0.000478053092957; mcca: 1; upper: 0.000478053092957" role="graphics-symbol" aria-roledescription="errorband" d="M6.666666666666667,67.80487339604986L13.333333333333334,55.63777048479428L20,64.31437375193295L26.666666666666668,63.718697716566666L33.33333333333333,56.318520720709465L40,65.24453217333016L46.666666666666664,52.464536458931185L53.333333333333336,66.34203444489025L60,55.03380567851393L66.66666666666666,66.69712022624235L73.33333333333333,57.01274126768114L80,66.20277843692088L86.66666666666667,57.872290621426984L93.33333333333333,70.87418028915471L100,56.42316327853638L106.66666666666667,75.61826975169508L113.33333333333333,59.0127882463011L120,70.76352858407932L126.66666666666666,69.11208834499124L133.33333333333331,63.10940743847328L140,75.35150721669197L146.66666666666666,60.20434986461294L153.33333333333334,71.37103453278542L160,61.3299061120911L166.66666666666669,68.70042471723123L173.33333333333334,68.40914088216697L180,73.53962338106199L186.66666666666666,60.83267510614612L193.33333333333334,76.39125478877263L200,60.64254983582282L200,13.27368031171234L193.33333333333334,31.95735522630541L186.66666666666666,14.230597323992058L180,27.23815324292942L173.33333333333334,15.38905677470295L166.66666666666669,20.787472311746L160,11.53402477502825L153.33333333333334,28.694887797940872L146.66666666666666,14.709673889658674L140,26.14123304797844L133.33333333333331,15.09092771871525L126.66666666666666,23.29081235961481L120,17.10749085653911L113.33333333333333,14.356888898394331L106.66666666666667,30.235600132833838L100,10.39839966053313L93.33333333333333,22.238953360779746L86.66666666666667,12.706750394268497L80,29.171557741409003L73.33333333333333,9.457785026593648L66.66666666666666,20.85411055860196L60,10.227722098881564L53.333333333333336,22.853260080922745L46.666666666666664,7.031033560633659L40,20.450009693476325L33.33333333333333,10.443289408629617L26.666666666666668,16.929426213557065L20,14.077149229970871L13.333333333333334,9.848733076995096L6.666666666666667,26.16251165216621Z" fill="#4c78a8" opacity="0.3"></path></g></g><path class="foreground" aria-hidden="true" d="" display="none"></path></g><g transform="translate(448,0)"><path class="background" aria-hidden="true" d="M0.5,0.5h200v200h-200Z" stroke="#ddd"></path><g><g class="mark-group role-axis" aria-hidden="true"><g transform="translate(0.5,200.5)"><path class="background" aria-hidden="true" d="M0,0h0v0h0Z" pointer-events="none"></path><g><g class="mark-rule role-axis-grid" pointer-events="none"><line transform="translate(0,-200)" x2="0" y2="200" stroke="#ddd" stroke-width="1" opacity="1"></line><line transform="translate(33,-200)" x2="0" y2="200" stroke="#ddd" stroke-width="1" opacity="1"></line><line transform="translate(67,-200)" x2="0" y2="200" stroke="#ddd" stroke-width="1" opacity="1"></line><line transform="translate(100,-200)" x2="0" y2="200" stroke="#ddd" stroke-width="1" opacity="1"></line><line transform="translate(133,-200)" x2="0" y2="200" stroke="#ddd" stroke-width="1" opacity="1"></line><line transform="translate(167,-200)" x2="0" y2="200" stroke="#ddd" stroke-width="1" opacity="1"></line><line transform="translate(200,-200)" x2="0" y2="200" stroke="#ddd" stroke-width="1" opacity="1"></line></g></g><path class="foreground" aria-hidden="true" d="" pointer-events="none" display="none"></path></g></g><g class="mark-group role-axis" aria-hidden="true"><g transform="translate(0.5,0.5)"><path class="background" aria-hidden="true" d="M0,0h0v0h0Z" pointer-events="none"></path><g><g class="mark-rule role-axis-grid" pointer-events="none"><line transform="translate(0,200)" x2="200" y2="0" stroke="#ddd" stroke-width="1" opacity="1"></line><line transform="translate(0,164)" x2="200" y2="0" stroke="#ddd" stroke-width="1" opacity="1"></line><line transform="translate(0,127)" x2="200" y2="0" stroke="#ddd" stroke-width="1" opacity="1"></line><line transform="translate(0,91)" x2="200" y2="0" stroke="#ddd" stroke-width="1" opacity="1"></line><line transform="translate(0,55)" x2="200" y2="0" stroke="#ddd" stroke-width="1" opacity="1"></line><line transform="translate(0,18)" x2="200" y2="0" stroke="#ddd" stroke-width="1" opacity="1"></line></g></g><path class="foreground" aria-hidden="true" d="" pointer-events="none" display="none"></path></g></g><g class="mark-line role-mark child_layer_0_marks" role="graphics-object" aria-roledescription="line mark container"><path aria-label="mcca: 1; value: 0.00045896892" role="graphics-symbol" aria-roledescription="line mark" d="M6.666666666666667,33.102210909090935L13.333333333333334,34.992327272727294L20,30.424203636363643L26.666666666666668,36.79219636363638L33.33333333333333,29.78986545454547L40,30.487512727272726L46.666666666666664,34.6021709090909L53.333333333333336,30.971334545454553L60,39.038763636363626L66.66666666666666,27.21693090909092L73.33333333333333,40.8572181818182L80,29.665461818181814L86.66666666666667,33.42589090909092L93.33333333333333,30.504087272727286L100,31.30322545454547L106.66666666666667,31.91789818181818L113.33333333333333,33.3312109090909L120,28.00743272727275L126.66666666666666,34.506181818181815L133.33333333333331,28.739185454545456L140,26.063538181818192L146.66666666666666,31.9665090909091L153.33333333333334,25.78922181818184L160,30.94698181818183L166.66666666666669,30.14352727272729L173.33333333333334,39.89967999999999L180,29.716229090909096L186.66666666666666,31.2737381818182L193.33333333333334,25.06290909090909L200,33.26146545454547" stroke="#4c78a8" stroke-width="2"></path></g><g class="mark-area role-mark child_layer_1_layer_0_marks" role="graphics-object" aria-roledescription="area mark container"><path aria-label="lower: 0.00038893687306; upper_lower: 0.000514814199414; mcca: 1; upper: 0.000514814199414" role="graphics-symbol" aria-roledescription="errorband" d="M6.666666666666667,58.56840979646554L13.333333333333334,54.70790416002276L20,52.483016862110674L26.666666666666668,55.043019422075965L33.33333333333333,55.03550322557038L40,58.98867122490299L46.666666666666664,47.974145615642726L53.333333333333336,49.975193766030415L60,57.18767751346936L66.66666666666666,46.54299279844221L73.33333333333333,53.237364864484825L80,45.737885599109276L86.66666666666667,50.71589154275982L93.33333333333333,50.80695160749285L100,52.89455984126439L106.66666666666667,52.23533374003389L113.33333333333333,48.97718849507244L120,50.41851812804288L126.66666666666666,56.37812959876929L133.33333333333331,46.08383383601904L140,55.630292387848556L146.66666666666666,43.51728026839821L153.33333333333334,49.06251457604496L160,51.72326718880371L166.66666666666669,48.611690950664624L173.33333333333334,50.198488936505534L180,49.18359497731384L186.66666666666666,46.041175028817236L193.33333333333334,46.128564835949405L200,48.42421148311009L200,4.4726100157608L193.33333333333334,10.29883704402232L186.66666666666666,8.64921076731251L180,12.161520292813123L173.33333333333334,12.476794150742627L166.66666666666669,5.638122118332191L160,14.371828159148059L153.33333333333334,8.385502547025702L146.66666666666666,8.924429287964664L140,15.352197567170322L133.33333333333331,12.446407635103583L126.66666666666666,17.658067596229657L120,11.698674139651402L113.33333333333333,11.169450086626156L106.66666666666667,11.022116971964202L100,15.900009972127997L93.33333333333333,13.085070557215019L86.66666666666667,22.880875911902308L80,12.294187193567119L73.33333333333333,21.982858702540398L66.66666666666666,9.098408811471678L60,14.968452450226664L53.333333333333336,16.403322091156802L46.666666666666664,7.196493599225164L40,18.613773889162346L33.33333333333333,14.44808654487133L26.666666666666668,17.727540027011514L20,14.238960177383646L13.333333333333334,21.02655974978751L6.666666666666667,12.794836576689384Z" fill="#4c78a8" opacity="0.3"></path></g></g><path class="foreground" aria-hidden="true" d="" display="none"></path></g></g></g><path class="foreground" aria-hidden="true" d="" display="none"></path></g></g></g></svg>
