<?xml version="1.0" encoding="utf-8"?>
<!DOCTYPE svg PUBLIC "-//W3C//DTD SVG 1.1//EN" "http://www.w3.org/Graphics/SVG/1.1/DTD/svg11.dtd">
<svg class="marks" width="205" height="137" viewBox="0 0 205 137" version="1.1" xmlns="http://www.w3.org/2000/svg" xmlns:xlink="http://www.w3.org/1999/xlink"><rect width="205" height="137" fill="white"></rect><g fill="none" stroke-miterlimit="10" transform="translate(61,10)"><g class="mark-group role-frame root" role="graphics-object" aria-roledescription="group mark container"><g transform="translate(0,0)"><path class="background" aria-hidden="true" d="M0.5,0.5h100v90h-100Z" stroke="#ddd"></path><g><g class="mark-group role-axis" aria-hidden="true"><g transform="translate(0.5,90.5)"><path class="background" aria-hidden="true" d="M0,0h0v0h0Z" pointer-events="none"></path><g><g class="mark-rule role-axis-grid" pointer-events="none"><line transform="translate(0,-90)" x2="0" y2="90" stroke="#ddd" stroke-width="1" opacity="1"></line><line transform="translate(29,-90)" x2="0" y2="90" stroke="#ddd" stroke-width="1" opacity="1"></line><line transform="translate(57,-90)" x2="0" y2="90" stroke="#ddd" stroke-width="1" opacity="1"></line><line transform="translate(86,-90)" x2="0" y2="90" stroke="#ddd" stroke-width="1" opacity="1"></line></g></g><path class="foreground" aria-hidden="true" d="" pointer-events="none" display="none"></path></g></g><g class="mark-group role-axis" aria-hidden="true"><g transform="translate(0.5,0.5)"><path class="background" aria-hidden="true" d="M0,0h0v0h0Z" pointer-events="none"></path><g><g class="mark-rule role-axis-grid" pointer-events="none"><line transform="translate(0,69)" x2="100" y2="0" stroke="#ddd" stroke-width="1" opacity="1"></line><line transform="translate(0,35)" x2="100" y2="0" stroke="#ddd" stroke-width="1" opacity="1"></line><line transform="translate(0,0)" x2="100" y2="0" stroke="#ddd" stroke-width="1" opacity="1"></line></g></g><path class="foreground" aria-hidden="true" d="" pointer-events="none" display="none"></path></g></g><g class="mark-group role-axis" role="graphics-symbol" aria-roledescription="axis" aria-label="X-axis titled 'Time' for a linear scale with values from -1.0 to 2.5"><g transform="translate(0.5,90.5)"><path class="background" aria-hidden="true" d="M0,0h0v0h0Z" pointer-events="none"></path><g><g class="mark-rule role-axis-tick" pointer-events="none"><line transform="translate(0,0)" x2="0" y2="5" stroke="#888" stroke-width="1" opacity="1"></line><line transform="translate(29,0)" x2="0" y2="5" stroke="#888" stroke-width="1" opacity="1"></line><line transform="translate(57,0)" x2="0" y2="5" stroke="#888" stroke-width="1" opacity="1"></line><line transform="translate(86,0)" x2="0" y2="5" stroke="#888" stroke-width="1" opacity="1"></line></g><g class="mark-text role-axis-label" pointer-events="none"><text text-anchor="start" transform="translate(0,15)" font-family="sans-serif" font-size="10px" fill="#000" opacity="1">-1</text><text text-anchor="middle" transform="translate(28.57142857142857,15)" font-family="sans-serif" font-size="10px" fill="#000" opacity="1">0</text><text text-anchor="middle" transform="translate(57.14285714285714,15)" font-family="sans-serif" font-size="10px" fill="#000" opacity="1">1</text><text text-anchor="middle" transform="translate(85.71428571428571,15)" font-family="sans-serif" font-size="10px" fill="#000" opacity="1">2</text></g><g class="mark-rule role-axis-domain" pointer-events="none"><line transform="translate(0,0)" x2="100" y2="0" stroke="#888" stroke-width="1" opacity="1"></line></g><g class="mark-text role-axis-title" pointer-events="none"><text text-anchor="middle" transform="translate(50,30)" font-family="sans-serif" font-size="11px" font-weight="bold" fill="#000" opacity="1">Time</text></g></g><path class="foreground" aria-hidden="true" d="" pointer-events="none" display="none"></path></g></g><g class="mark-group role-axis" role="graphics-symbol" aria-roledescription="axis" aria-label="Y-axis titled 'Target - Other Correlation' for a linear scale with values from -0.03 to 0.10"><g transform="translate(0.5,0.5)"><path class="background" aria-hidden="true" d="M0,0h0v0h0Z" pointer-events="none"></path><g><g class="mark-rule role-axis-tick" pointer-events="none"><line transform="translate(0,69)" x2="-5" y2="0" stroke="#888" stroke-width="1" opacity="1"></line><line transform="translate(0,35)" x2="-5" y2="0" stroke="#888" stroke-width="1" opacity="1"></line><line transform="translate(0,0)" x2="-5" y2="0" stroke="#888" stroke-width="1" opacity="1"></line></g><g class="mark-text role-axis-label" pointer-events="none"><text text-anchor="end" transform="translate(-7,72.23076923076924)" font-family="sans-serif" font-size="10px" fill="#000" opacity="1">0.00</text><text text-anchor="end" transform="translate(-7,37.61538461538461)" font-family="sans-serif" font-size="10px" fill="#000" opacity="1">0.05</text><text text-anchor="end" transform="translate(-7,3)" font-family="sans-serif" font-size="10px" fill="#000" opacity="1">0.10</text></g><g class="mark-rule role-axis-domain" pointer-events="none"><line transform="translate(0,90)" x2="0" y2="-90" stroke="#888" stroke-width="1" opacity="1"></line></g><g class="mark-text role-axis-title" pointer-events="none"><text text-anchor="middle" transform="translate(-45,45) rotate(-90) translate(0,-2)" font-family="sans-serif" font-size="11px" font-weight="bold" fill="#000" opacity="1"><tspan>Target - Other</tspan><tspan x="0" dy="13">Correlation</tspan></text></g></g><path class="foreground" aria-hidden="true" d="" pointer-events="none" display="none"></path></g></g><g class="mark-group role-scope layer_0_layer_0_pathgroup" role="graphics-object" aria-roledescription="group mark container"><g transform="translate(0,0)"><path class="background" aria-hidden="true" d="M0,0h100v90h-100Z"></path><g><g class="mark-line role-mark layer_0_layer_0_marks" role="graphics-object" aria-roledescription="line mark container"><path aria-label="Time: -0.96875; condition: Global; Target - Other, Correlation: 0.00680218001723" role="graphics-symbol" aria-roledescription="line mark" d="M0.8928571428571428,64.52156768038141L3.571428571428571,63.513629563442315L6.25,61.70321135495545L8.928571428571429,64.28040600539649L11.607142857142858,66.56138878118662L14.285714285714285,68.1446438367096L16.964285714285715,68.65625104191825L19.642857142857142,67.57607305024398L22.321428571428573,66.89934068983001L25,69.64760465583112L27.67857142857143,65.97455770798446L30.357142857142854,65.19536659585076L33.035714285714285,72.64627593968731L35.714285714285715,72.73733522014545L38.392857142857146,66.99501814150743L41.07142857142857,62.11829859614966L43.75,55.42721620494271L46.42857142857143,53.25879954474066L49.107142857142854,43.902158947218936L51.78571428571429,38.31966349196L54.46428571428571,40.07483058840046L57.14285714285714,38.472307833476506L59.82142857142857,34.043651493731254L62.5,25.626519682125757L65.17857142857143,31.4257853374483L67.85714285714286,38.95295083600515L70.53571428571429,38.08742426697689L73.21428571428571,41.089089406416285L75.89285714285714,48.50447487355977L78.57142857142857,56.97663995855258L81.25,60.86654492320169L83.92857142857143,64.79461800468903L86.60714285714286,70.90185754405006L89.28571428571429,69.63215373030484L91.96428571428571,67.64593342858014L94.64285714285714,67.32322262978546L97.32142857142857,72.6741766860819" stroke="#0F3C5F" stroke-width="2" stroke-linejoin="round"></path></g></g><path class="foreground" aria-hidden="true" d="" display="none"></path></g><g transform="translate(0,0)"><path class="background" aria-hidden="true" d="M0,0h100v90h-100Z"></path><g><g class="mark-line role-mark layer_0_layer_0_marks" role="graphics-object" aria-roledescription="line mark container"><path aria-label="Time: -0.96875; condition: Object; Target - Other, Correlation: 0.0104647991174" role="graphics-symbol" aria-roledescription="line mark" d="M0.8928571428571428,61.985908303361825L3.571428571428571,65.20409631040744L6.25,68.15706782237488L8.928571428571429,65.66600264726165L11.607142857142858,67.14353870214732L14.285714285714285,64.54510151482782L16.964285714285715,68.50569778757682L19.642857142857142,70.68804665941282L22.321428571428573,66.39168665371744L25,65.59446685882563L27.67857142857143,63.75272504542377L30.357142857142854,67.80880594737927L33.035714285714285,76.21973512550103L35.714285714285715,75.35282046286191L38.392857142857146,76.4507105230393L41.07142857142857,76.2447079954104L43.75,68.78060122290312L46.42857142857143,64.50606883244123L49.107142857142854,62.727513522882546L51.78571428571429,50.6764428309068L54.46428571428571,47.708576956383745L57.14285714285714,43.69450399004095L59.82142857142857,40.45879850092534L62.5,34.3419733749002L65.17857142857143,36.83673600307905L67.85714285714286,36.61239902047237L70.53571428571429,37.97711629019805L73.21428571428571,37.350468579236505L75.89285714285714,37.14649177935001L78.57142857142857,47.427753135925876L81.25,44.101157156003836L83.92857142857143,54.205079405136296L86.60714285714286,61.448460130945605L89.28571428571429,62.63675492349532L91.96428571428571,58.36694873195165L94.64285714285714,58.910093701596224L97.32142857142857,58.92263242087863" stroke="#687B3E" stroke-width="2" stroke-linejoin="round"></path></g></g><path class="foreground" aria-hidden="true" d="" display="none"></path></g><g transform="translate(0,0)"><path class="background" aria-hidden="true" d="M0,0h100v90h-100Z"></path><g><g class="mark-line role-mark layer_0_layer_0_marks" role="graphics-object" aria-roledescription="line mark container"><path aria-label="Time: -0.96875; condition: Spatial; Target - Other, Correlation: 0.00740856519332" role="graphics-symbol" aria-roledescription="line mark" d="M0.8928571428571428,64.10176255847117L3.571428571428571,64.57930804343081L6.25,66.71222426515446L8.928571428571429,60.444637601318654L11.607142857142858,69.6628720724772L14.285714285714285,70.02526709206285L16.964285714285715,73.54130803182467L19.642857142857142,69.89657266233178L22.321428571428573,72.66234252356669L25,64.27661941210403L27.67857142857143,58.51835303910693L30.357142857142854,58.340077790620825L33.035714285714285,70.29812892377305L35.714285714285715,63.64985550266806L38.392857142857146,64.28732033325605L41.07142857142857,64.20791476762518L43.75,54.91474104038869L46.42857142857143,53.15049675677484L49.107142857142854,50.05094680889062L51.78571428571429,47.27830119662097L54.46428571428571,49.33847217999792L57.14285714285714,35.13970367843862L59.82142857142857,30.517544166137643L62.5,20.243644417672815L65.17857142857143,20.846550051313564L67.85714285714286,24.716486147640722L70.53571428571429,22.15759261863987L73.21428571428571,27.43079130853373L75.89285714285714,27.415756277005954L78.57142857142857,44.117366186949454L81.25,56.587352726261926L83.92857142857143,63.01260092504726L86.60714285714286,64.97047388740978L89.28571428571429,50.245343002285786L91.96428571428571,48.32279705669521L94.64285714285714,52.54040647470028L97.32142857142857,50.48983275099166" stroke="#EB9A60" stroke-width="2" stroke-linejoin="round"></path></g></g><path class="foreground" aria-hidden="true" d="" display="none"></path></g></g><g class="mark-group role-scope layer_0_layer_1_layer_0_pathgroup" role="graphics-object" aria-roledescription="group mark container"><g transform="translate(0,0)"><path class="background" aria-hidden="true" d="M0,0h100v90h-100Z"></path><g><g class="mark-area role-mark layer_0_layer_1_layer_0_marks" role="graphics-object" aria-roledescription="area mark container"><path aria-label=": -0.000630184428572; upper_lower: 0.0144860051602; Time: -0.96875; condition: Global; upper: 0.0144860051602; lower: -0.000630184428572" role="graphics-symbol" aria-roledescription="errorband" d="M0.8928571428571428,69.6670507582424L3.571428571428571,68.99447133743753L6.25,67.52884106624684L8.928571428571429,70.70551693374237L11.607142857142858,73.57731303458047L14.285714285714285,75.12900140677587L16.964285714285715,75.4528603003159L19.642857142857142,74.39201130951264L22.321428571428573,73.41478979053508L25,76.92058848715452L27.67857142857143,71.76218188207764L30.357142857142854,70.97565186823847L33.035714285714285,78.04212220583713L35.714285714285715,77.6767236832405L38.392857142857146,72.09206491725273L41.07142857142857,67.01801515186997L43.75,60.37731305100954L46.42857142857143,57.235260562318636L49.107142857142854,48.062692496157354L51.78571428571429,41.982418432207325L54.46428571428571,44.43472652798398L57.14285714285714,44.29772632721054L59.82142857142857,39.98706545801598L62.5,32.07823911041331L65.17857142857143,37.67697774594309L67.85714285714286,45.32357616584457L70.53571428571429,43.735224727838215L73.21428571428571,46.325538768104124L75.89285714285714,53.80945263142581L78.57142857142857,62.37797201766791L81.25,66.33349275933529L83.92857142857143,70.47185846043611L86.60714285714286,77.23317052995746L89.28571428571429,76.33437643459752L91.96428571428571,74.68137179829003L94.64285714285714,74.89977924545826L97.32142857142857,80.09737222776727L97.32142857142857,65.12274351705314L94.64285714285714,59.87309807422629L91.96428571428571,60.70168227143245L89.28571428571429,63.03215240351725L86.60714285714286,64.67518380288658L83.92857142857143,59.229149448550814L81.25,55.5154794101819L78.57142857142857,51.68948879888177L75.89285714285714,43.41286729158282L73.21428571428571,35.87091172953332L70.53571428571429,32.48101833605976L67.85714285714286,32.70326901972542L65.17857142857143,25.29883221648195L62.5,19.0787738491944L59.82142857142857,27.982594494092158L57.14285714285714,32.79153313935975L54.46428571428571,35.728736547259544L51.78571428571429,34.665432201675806L49.107142857142854,39.73836454591798L46.42857142857143,49.410768902379004L43.75,50.44454972329288L41.07142857142857,57.26900971319271L38.392857142857146,61.91301557200757L35.714285714285715,67.92246196246028L33.035714285714285,67.38312798702701L30.357142857142854,59.719996200132194L27.67857142857143,59.93367970788442L25,62.607087699833315L22.321428571428573,60.29077039797782L19.642857142857142,60.91671556012395L16.964285714285715,62.024920695673025L14.285714285714285,60.96879371306036L11.607142857142858,59.46000425357457L8.928571428571429,57.704545192254805L6.25,55.919923202667675L3.571428571428571,57.97564688731253L0.8928571428571428,59.20199642757886Z" fill="#0F3C5F" opacity="0.3"></path></g></g><path class="foreground" aria-hidden="true" d="" display="none"></path></g><g transform="translate(0,0)"><path class="background" aria-hidden="true" d="M0,0h100v90h-100Z"></path><g><g class="mark-area role-mark layer_0_layer_1_layer_0_marks" role="graphics-object" aria-roledescription="area mark container"><path aria-label=": -0.00184478389788; upper_lower: 0.0225720436624; Time: -0.96875; condition: Object; upper: 0.0225720436624; lower: -0.00184478389788" role="graphics-symbol" aria-roledescription="errorband" d="M0.8928571428571428,70.5079273139156L3.571428571428571,73.49914142657437L6.25,77.1096646856306L8.928571428571429,73.53537592317872L11.607142857142858,74.58183897355518L14.285714285714285,71.65950783068344L16.964285714285715,76.24579955148096L19.642857142857142,78.29549054872088L22.321428571428573,74.22321600474928L25,73.31430627600254L27.67857142857143,70.61517573472115L30.357142857142854,74.55144557005585L33.035714285714285,83.0156927773198L35.714285714285715,83.05454205004743L38.392857142857146,84.39022296726128L41.07142857142857,83.75536012507878L43.75,77.34570305709089L46.42857142857143,73.52393696552161L49.107142857142854,71.26377907806346L51.78571428571429,59.69734446778412L54.46428571428571,55.6858239763538L57.14285714285714,51.002588553231824L59.82142857142857,50.458042558080344L62.5,43.679253623673695L65.17857142857143,46.30782119664113L67.85714285714286,45.4835906645233L70.53571428571429,46.85224612165396L73.21428571428571,45.593803771215086L75.89285714285714,45.093352139106045L78.57142857142857,55.018418344052705L81.25,51.94594868920443L83.92857142857143,62.84029829629953L86.60714285714286,70.14771346734356L89.28571428571429,70.74758351110475L91.96428571428571,66.86053738562006L94.64285714285714,67.4755817816621L97.32142857142857,67.41670997592878L97.32142857142857,50.372907321760344L94.64285714285714,50.01895846304821L91.96428571428571,49.933327256819105L89.28571428571429,54.34786685180796L86.60714285714286,53.01353538883657L83.92857142857143,45.66817628598755L81.25,36.16746427482842L78.57142857142857,39.75262221027524L75.89285714285714,29.1463804691232L73.21428571428571,28.924457503349522L70.53571428571429,29.555112007829546L67.85714285714286,27.72511075332487L65.17857142857143,27.333298190092137L62.5,24.833989640133268L59.82142857142857,30.12100513741693L57.14285714285714,36.36762724486217L54.46428571428571,39.558904176871806L51.78571428571429,41.48298709933415L49.107142857142854,54.17060110965771L46.42857142857143,55.83163443731529L43.75,60.15204803021269L41.07142857142857,68.40093252389684L38.392857142857146,68.29766596438056L35.714285714285715,67.45957160860233L33.035714285714285,69.51381131610547L30.357142857142854,61.15308720223512L27.67857142857143,56.89544068278667L25,58.12169763010689L22.321428571428573,58.70450140134617L19.642857142857142,63.31168313562874L16.964285714285715,60.586364019826284L14.285714285714285,57.45225984212693L11.607142857142858,59.51311121717882L8.928571428571429,57.973882581696806L6.25,59.20379577280809L3.571428571428571,56.67135214532762L0.8928571428571428,53.60396977216263Z" fill="#687B3E" opacity="0.3"></path></g></g><path class="foreground" aria-hidden="true" d="" display="none"></path></g><g transform="translate(0,0)"><path class="background" aria-hidden="true" d="M0,0h100v90h-100Z"></path><g><g class="mark-area role-mark layer_0_layer_1_layer_0_marks" role="graphics-object" aria-roledescription="area mark container"><path aria-label=": -0.00964656995797; upper_lower: 0.024665155671; Time: -0.96875; condition: Spatial; upper: 0.024665155671; lower: -0.00964656995797" role="graphics-symbol" aria-roledescription="errorband" d="M0.8928571428571428,75.90916381705868L3.571428571428571,75.92699654333728L6.25,78.07907958263962L8.928571428571429,71.992646933008L11.607142857142858,80.47757519218904L14.285714285714285,80.06962240524712L16.964285714285715,82.58865630556966L19.642857142857142,78.91660372183588L22.321428571428573,83.89454529162705L25,74.76795073364106L27.67857142857143,66.95913458892947L30.357142857142854,68.12185198057777L33.035714285714285,80.52249115156793L35.714285714285715,75.93888633208594L38.392857142857146,77.49295659568678L41.07142857142857,76.3365162730248L43.75,67.19100294708743L46.42857142857143,66.31039453801475L49.107142857142854,61.90547834547972L51.78571428571429,59.050481735954584L54.46428571428571,61.66909283642735L57.14285714285714,45.84841521225427L59.82142857142857,41.537677586278704L62.5,33.81778579766184L65.17857142857143,33.93209288198927L67.85714285714286,36.49522855792461L70.53571428571429,34.27720941087101L73.21428571428571,38.44517405229183L75.89285714285714,36.94380134829618L78.57142857142857,53.127927024493715L81.25,66.59620193487034L83.92857142857143,70.75182863459479L86.60714285714286,74.06894173204569L89.28571428571429,61.21883979185627L91.96428571428571,61.74446325690717L94.64285714285714,66.01526290169862L97.32142857142857,64.80531061831026L97.32142857142857,35.95587621884197L94.64285714285714,39.39178698221113L91.96428571428571,34.74442622169715L89.28571428571429,39.65938711517271L86.60714285714286,55.80338976272992L83.92857142857143,55.290083735593356L81.25,46.498559744014024L78.57142857142857,35.07672015269208L75.89285714285714,17.906490138325257L73.21428571428571,16.4844975613209L70.53571428571429,9.929246142575241L67.85714285714286,12.507448404711091L65.17857142857143,7.5298365209532605L62.5,6.745801650353172L59.82142857142857,19.652586005396866L57.14285714285714,24.283081256705895L54.46428571428571,36.708102972520926L51.78571428571429,35.56013088873686L49.107142857142854,38.250390520096346L46.42857142857143,40.54707338573869L43.75,42.79432572134876L41.07142857142857,51.90942181897207L38.392857142857146,51.15057287937644L35.714285714285715,51.500220575946535L33.035714285714285,59.923138217062274L30.357142857142854,48.92474251616932L27.67857142857143,50.011952528429504L25,53.69720533499767L22.321428571428573,61.713170992986406L19.642857142857142,60.92409668833998L16.964285714285715,64.640872305438L14.285714285714285,60.08790750998418L11.607142857142858,58.92882747107715L8.928571428571429,48.952395609221014L6.25,55.08894088329118L3.571428571428571,53.15816756304267L0.8928571428571428,52.154892227738316Z" fill="#EB9A60" opacity="0.3"></path></g></g><path class="foreground" aria-hidden="true" d="" display="none"></path></g></g><g class="mark-text role-mark layer_0_layer_2_marks" role="graphics-object" aria-roledescription="text mark container"><text aria-label=": 2.40625; condition: Global; Mean of score: -0.00110923283924" role="graphics-symbol" aria-roledescription="text mark" text-anchor="start" transform="translate(100.32142857142857,72.99869965793368)" font-family="sans-serif" font-size="11px" fill="#0F3C5F">Global</text><text aria-label=": 2.40625; condition: Object; Mean of score: 0.0148985866893" role="graphics-symbol" aria-roledescription="text mark" text-anchor="start" transform="translate(100.32142857142857,61.91636306123741)" font-family="sans-serif" font-size="11px" fill="#687B3E">Object</text><text aria-label=": 2.40625; condition: Spatial; Mean of score: 0.0255892716703" role="graphics-symbol" aria-roledescription="text mark" text-anchor="start" transform="translate(100.32142857142857,54.515119612845965)" font-family="sans-serif" font-size="11px" fill="#EB9A60">Spatial</text></g></g><path class="foreground" aria-hidden="true" d="" display="none"></path></g></g></g></svg>
