<?xml version="1.0" encoding="utf-8"?>
<!DOCTYPE svg PUBLIC "-//W3C//DTD SVG 1.1//EN" "http://www.w3.org/Graphics/SVG/1.1/DTD/svg11.dtd">
<svg class="marks" width="126" height="253" viewBox="0 0 126 253" version="1.1" xmlns="http://www.w3.org/2000/svg" xmlns:xlink="http://www.w3.org/1999/xlink"><rect width="126" height="253" fill="white"></rect><g fill="none" stroke-miterlimit="10" transform="translate(46,10)"><g class="mark-group role-frame root" role="graphics-object" aria-roledescription="group mark container"><g transform="translate(0,0)"><path class="background" aria-hidden="true" d="M0.5,0.5h75v200h-75Z" stroke="#ddd"></path><g><g class="mark-group role-axis" aria-hidden="true"><g transform="translate(0.5,0.5)"><path class="background" aria-hidden="true" d="M0,0h0v0h0Z" pointer-events="none"></path><g><g class="mark-rule role-axis-grid" pointer-events="none"><line transform="translate(0,200)" x2="75" y2="0" stroke="#ddd" stroke-width="1" opacity="1"></line><line transform="translate(0,171)" x2="75" y2="0" stroke="#ddd" stroke-width="1" opacity="1"></line><line transform="translate(0,143)" x2="75" y2="0" stroke="#ddd" stroke-width="1" opacity="1"></line><line transform="translate(0,114)" x2="75" y2="0" stroke="#ddd" stroke-width="1" opacity="1"></line><line transform="translate(0,86)" x2="75" y2="0" stroke="#ddd" stroke-width="1" opacity="1"></line><line transform="translate(0,57)" x2="75" y2="0" stroke="#ddd" stroke-width="1" opacity="1"></line><line transform="translate(0,29)" x2="75" y2="0" stroke="#ddd" stroke-width="1" opacity="1"></line><line transform="translate(0,0)" x2="75" y2="0" stroke="#ddd" stroke-width="1" opacity="1"></line></g></g><path class="foreground" aria-hidden="true" d="" pointer-events="none" display="none"></path></g></g><g class="mark-group role-axis" role="graphics-symbol" aria-roledescription="axis" aria-label="X-axis for a discrete scale with 3 values: global, object, spatial"><g transform="translate(0.5,200.5)"><path class="background" aria-hidden="true" d="M0,0h0v0h0Z" pointer-events="none"></path><g><g class="mark-rule role-axis-tick" pointer-events="none"><line transform="translate(12,0)" x2="0" y2="5" stroke="#888" stroke-width="1" opacity="1"></line><line transform="translate(37,0)" x2="0" y2="5" stroke="#888" stroke-width="1" opacity="1"></line><line transform="translate(62,0)" x2="0" y2="5" stroke="#888" stroke-width="1" opacity="1"></line></g><g class="mark-text role-axis-label" pointer-events="none"><text text-anchor="end" transform="translate(12,7) rotate(315) translate(0,8)" font-family="sans-serif" font-size="10px" fill="#000" opacity="1">global</text><text text-anchor="end" transform="translate(37,7) rotate(315) translate(0,8)" font-family="sans-serif" font-size="10px" fill="#000" opacity="1">object</text><text text-anchor="end" transform="translate(62,7) rotate(315) translate(0,8)" font-family="sans-serif" font-size="10px" fill="#000" opacity="1">spatial</text></g><g class="mark-rule role-axis-domain" pointer-events="none"><line transform="translate(0,0)" x2="75" y2="0" stroke="#888" stroke-width="1" opacity="1"></line></g></g><path class="foreground" aria-hidden="true" d="" pointer-events="none" display="none"></path></g></g><g class="mark-group role-axis" role="graphics-symbol" aria-roledescription="axis" aria-label="Y-axis titled 'Target - Non-target Score' for a linear scale with values from -1.0 to 0.4"><g transform="translate(0.5,0.5)"><path class="background" aria-hidden="true" d="M0,0h0v0h0Z" pointer-events="none"></path><g><g class="mark-rule role-axis-tick" pointer-events="none"><line transform="translate(0,200)" x2="-5" y2="0" stroke="#888" stroke-width="1" opacity="1"></line><line transform="translate(0,171)" x2="-5" y2="0" stroke="#888" stroke-width="1" opacity="1"></line><line transform="translate(0,143)" x2="-5" y2="0" stroke="#888" stroke-width="1" opacity="1"></line><line transform="translate(0,114)" x2="-5" y2="0" stroke="#888" stroke-width="1" opacity="1"></line><line transform="translate(0,86)" x2="-5" y2="0" stroke="#888" stroke-width="1" opacity="1"></line><line transform="translate(0,57)" x2="-5" y2="0" stroke="#888" stroke-width="1" opacity="1"></line><line transform="translate(0,29)" x2="-5" y2="0" stroke="#888" stroke-width="1" opacity="1"></line><line transform="translate(0,0)" x2="-5" y2="0" stroke="#888" stroke-width="1" opacity="1"></line></g><g class="mark-text role-axis-label" pointer-events="none"><text text-anchor="end" transform="translate(-7,203)" font-family="sans-serif" font-size="10px" fill="#000" opacity="1">-1.0</text><text text-anchor="end" transform="translate(-7,174.42857142857144)" font-family="sans-serif" font-size="10px" fill="#000" opacity="1">-0.8</text><text text-anchor="end" transform="translate(-7,145.85714285714283)" font-family="sans-serif" font-size="10px" fill="#000" opacity="1">-0.6</text><text text-anchor="end" transform="translate(-7,117.28571428571428)" font-family="sans-serif" font-size="10px" fill="#000" opacity="1">-0.4</text><text text-anchor="end" transform="translate(-7,88.7142857142857)" font-family="sans-serif" font-size="10px" fill="#000" opacity="1">-0.2</text><text text-anchor="end" transform="translate(-7,60.14285714285714)" font-family="sans-serif" font-size="10px" fill="#000" opacity="1">0.0</text><text text-anchor="end" transform="translate(-7,31.57142857142856)" font-family="sans-serif" font-size="10px" fill="#000" opacity="1">0.2</text><text text-anchor="end" transform="translate(-7,3)" font-family="sans-serif" font-size="10px" fill="#000" opacity="1">0.4</text></g><g class="mark-rule role-axis-domain" pointer-events="none"><line transform="translate(0,200)" x2="0" y2="-200" stroke="#888" stroke-width="1" opacity="1"></line></g><g class="mark-text role-axis-title" pointer-events="none"><text text-anchor="middle" transform="translate(-30,100) rotate(-90) translate(0,-2)" font-family="sans-serif" font-size="11px" font-weight="bold" fill="#000" opacity="1">Target - Non-target Score</text></g></g><path class="foreground" aria-hidden="true" d="" pointer-events="none" display="none"></path></g></g><g class="mark-symbol role-mark layer_0_layer_0_marks" role="graphics-object" aria-roledescription="symbol mark container"><path aria-label="condition: global; : global; Mean of cordiff: -0.339857126" role="graphics-symbol" aria-roledescription="point" transform="translate(9.5,105.69387514285712)" d="M2.7386127875258306,0A2.7386127875258306,2.7386127875258306,0,1,1,-2.7386127875258306,0A2.7386127875258306,2.7386127875258306,0,1,1,2.7386127875258306,0" stroke="#0F3C5F" stroke-width="2"></path><path aria-label="condition: object; : object; Mean of cordiff: -0.329688532292" role="graphics-symbol" aria-roledescription="point" transform="translate(34.5,104.2412188988095)" d="M2.7386127875258306,0A2.7386127875258306,2.7386127875258306,0,1,1,-2.7386127875258306,0A2.7386127875258306,2.7386127875258306,0,1,1,2.7386127875258306,0" stroke="#687B3E" stroke-width="2"></path><path aria-label="condition: spatial; : spatial; Mean of cordiff: -0.366303960833" role="graphics-symbol" aria-roledescription="point" transform="translate(59.5,109.47199440476192)" d="M2.7386127875258306,0A2.7386127875258306,2.7386127875258306,0,1,1,-2.7386127875258306,0A2.7386127875258306,2.7386127875258306,0,1,1,2.7386127875258306,0" stroke="#EB9A60" stroke-width="2"></path></g><g class="mark-symbol role-mark layer_0_layer_1_marks" role="graphics-object" aria-roledescription="symbol mark container"><path aria-label="condition: global; : global; Target - Non-target Score: -0.31663182" role="graphics-symbol" aria-roledescription="point" transform="translate(15.5,102.37597428571428)" d="M2.7386127875258306,0A2.7386127875258306,2.7386127875258306,0,1,1,-2.7386127875258306,0A2.7386127875258306,2.7386127875258306,0,1,1,2.7386127875258306,0" fill="#0F3C5F" stroke-width="2" opacity="0.7"></path><path aria-label="condition: object; : object; Target - Non-target Score: -0.45356756" role="graphics-symbol" aria-roledescription="point" transform="translate(40.5,121.93822285714285)" d="M2.7386127875258306,0A2.7386127875258306,2.7386127875258306,0,1,1,-2.7386127875258306,0A2.7386127875258306,2.7386127875258306,0,1,1,2.7386127875258306,0" fill="#687B3E" stroke-width="2" opacity="0.7"></path><path aria-label="condition: spatial; : spatial; Target - Non-target Score: -0.24915163" role="graphics-symbol" aria-roledescription="point" transform="translate(65.5,92.73594714285716)" d="M2.7386127875258306,0A2.7386127875258306,2.7386127875258306,0,1,1,-2.7386127875258306,0A2.7386127875258306,2.7386127875258306,0,1,1,2.7386127875258306,0" fill="#EB9A60" stroke-width="2" opacity="0.7"></path><path aria-label="condition: global; : global; Target - Non-target Score: -0.31648624" role="graphics-symbol" aria-roledescription="point" transform="translate(15.5,102.35517714285712)" d="M2.7386127875258306,0A2.7386127875258306,2.7386127875258306,0,1,1,-2.7386127875258306,0A2.7386127875258306,2.7386127875258306,0,1,1,2.7386127875258306,0" fill="#0F3C5F" stroke-width="2" opacity="0.7"></path><path aria-label="condition: object; : object; Target - Non-target Score: -0.25207016" role="graphics-symbol" aria-roledescription="point" transform="translate(40.5,93.15288)" d="M2.7386127875258306,0A2.7386127875258306,2.7386127875258306,0,1,1,-2.7386127875258306,0A2.7386127875258306,2.7386127875258306,0,1,1,2.7386127875258306,0" fill="#687B3E" stroke-width="2" opacity="0.7"></path><path aria-label="condition: spatial; : spatial; Target - Non-target Score: -0.30641824" role="graphics-symbol" aria-roledescription="point" transform="translate(65.5,100.9168914285714)" d="M2.7386127875258306,0A2.7386127875258306,2.7386127875258306,0,1,1,-2.7386127875258306,0A2.7386127875258306,2.7386127875258306,0,1,1,2.7386127875258306,0" fill="#EB9A60" stroke-width="2" opacity="0.7"></path><path aria-label="condition: global; : global; Target - Non-target Score: -0.26921612" role="graphics-symbol" aria-roledescription="point" transform="translate(15.5,95.60230285714286)" d="M2.7386127875258306,0A2.7386127875258306,2.7386127875258306,0,1,1,-2.7386127875258306,0A2.7386127875258306,2.7386127875258306,0,1,1,2.7386127875258306,0" fill="#0F3C5F" stroke-width="2" opacity="0.7"></path><path aria-label="condition: object; : object; Target - Non-target Score: 0.008798019" role="graphics-symbol" aria-roledescription="point" transform="translate(40.5,55.88599728571426)" d="M2.7386127875258306,0A2.7386127875258306,2.7386127875258306,0,1,1,-2.7386127875258306,0A2.7386127875258306,2.7386127875258306,0,1,1,2.7386127875258306,0" fill="#687B3E" stroke-width="2" opacity="0.7"></path><path aria-label="condition: spatial; : spatial; Target - Non-target Score: -0.43040407" role="graphics-symbol" aria-roledescription="point" transform="translate(65.5,118.62915285714286)" d="M2.7386127875258306,0A2.7386127875258306,2.7386127875258306,0,1,1,-2.7386127875258306,0A2.7386127875258306,2.7386127875258306,0,1,1,2.7386127875258306,0" fill="#EB9A60" stroke-width="2" opacity="0.7"></path><path aria-label="condition: global; : global; Target - Non-target Score: -0.51023936" role="graphics-symbol" aria-roledescription="point" transform="translate(15.5,130.0341942857143)" d="M2.7386127875258306,0A2.7386127875258306,2.7386127875258306,0,1,1,-2.7386127875258306,0A2.7386127875258306,2.7386127875258306,0,1,1,2.7386127875258306,0" fill="#0F3C5F" stroke-width="2" opacity="0.7"></path><path aria-label="condition: object; : object; Target - Non-target Score: 0.049570385" role="graphics-symbol" aria-roledescription="point" transform="translate(40.5,50.06137357142857)" d="M2.7386127875258306,0A2.7386127875258306,2.7386127875258306,0,1,1,-2.7386127875258306,0A2.7386127875258306,2.7386127875258306,0,1,1,2.7386127875258306,0" fill="#687B3E" stroke-width="2" opacity="0.7"></path><path aria-label="condition: spatial; : spatial; Target - Non-target Score: 0.3749218" role="graphics-symbol" aria-roledescription="point" transform="translate(65.5,3.582599999999969)" d="M2.7386127875258306,0A2.7386127875258306,2.7386127875258306,0,1,1,-2.7386127875258306,0A2.7386127875258306,2.7386127875258306,0,1,1,2.7386127875258306,0" fill="#EB9A60" stroke-width="2" opacity="0.7"></path><path aria-label="condition: global; : global; Target - Non-target Score: -0.24076597" role="graphics-symbol" aria-roledescription="point" transform="translate(15.5,91.53799571428571)" d="M2.7386127875258306,0A2.7386127875258306,2.7386127875258306,0,1,1,-2.7386127875258306,0A2.7386127875258306,2.7386127875258306,0,1,1,2.7386127875258306,0" fill="#0F3C5F" stroke-width="2" opacity="0.7"></path><path aria-label="condition: object; : object; Target - Non-target Score: -0.07895504" role="graphics-symbol" aria-roledescription="point" transform="translate(40.5,68.42214857142856)" d="M2.7386127875258306,0A2.7386127875258306,2.7386127875258306,0,1,1,-2.7386127875258306,0A2.7386127875258306,2.7386127875258306,0,1,1,2.7386127875258306,0" fill="#687B3E" stroke-width="2" opacity="0.7"></path><path aria-label="condition: spatial; : spatial; Target - Non-target Score: -0.37034497" role="graphics-symbol" aria-roledescription="point" transform="translate(65.5,110.04928142857142)" d="M2.7386127875258306,0A2.7386127875258306,2.7386127875258306,0,1,1,-2.7386127875258306,0A2.7386127875258306,2.7386127875258306,0,1,1,2.7386127875258306,0" fill="#EB9A60" stroke-width="2" opacity="0.7"></path><path aria-label="condition: global; : global; Target - Non-target Score: -0.39641654" role="graphics-symbol" aria-roledescription="point" transform="translate(15.5,113.77379142857143)" d="M2.7386127875258306,0A2.7386127875258306,2.7386127875258306,0,1,1,-2.7386127875258306,0A2.7386127875258306,2.7386127875258306,0,1,1,2.7386127875258306,0" fill="#0F3C5F" stroke-width="2" opacity="0.7"></path><path aria-label="condition: object; : object; Target - Non-target Score: -0.23280244" role="graphics-symbol" aria-roledescription="point" transform="translate(40.5,90.40034857142855)" d="M2.7386127875258306,0A2.7386127875258306,2.7386127875258306,0,1,1,-2.7386127875258306,0A2.7386127875258306,2.7386127875258306,0,1,1,2.7386127875258306,0" fill="#687B3E" stroke-width="2" opacity="0.7"></path><path aria-label="condition: spatial; : spatial; Target - Non-target Score: 0.033377375" role="graphics-symbol" aria-roledescription="point" transform="translate(65.5,52.37466071428572)" d="M2.7386127875258306,0A2.7386127875258306,2.7386127875258306,0,1,1,-2.7386127875258306,0A2.7386127875258306,2.7386127875258306,0,1,1,2.7386127875258306,0" fill="#EB9A60" stroke-width="2" opacity="0.7"></path><path aria-label="condition: global; : global; Target - Non-target Score: -0.06190827" role="graphics-symbol" aria-roledescription="point" transform="translate(15.5,65.98689571428571)" d="M2.7386127875258306,0A2.7386127875258306,2.7386127875258306,0,1,1,-2.7386127875258306,0A2.7386127875258306,2.7386127875258306,0,1,1,2.7386127875258306,0" fill="#0F3C5F" stroke-width="2" opacity="0.7"></path><path aria-label="condition: object; : object; Target - Non-target Score: -0.597647" role="graphics-symbol" aria-roledescription="point" transform="translate(40.5,142.521)" d="M2.7386127875258306,0A2.7386127875258306,2.7386127875258306,0,1,1,-2.7386127875258306,0A2.7386127875258306,2.7386127875258306,0,1,1,2.7386127875258306,0" fill="#687B3E" stroke-width="2" opacity="0.7"></path><path aria-label="condition: spatial; : spatial; Target - Non-target Score: -0.3193288" role="graphics-symbol" aria-roledescription="point" transform="translate(65.5,102.76125714285715)" d="M2.7386127875258306,0A2.7386127875258306,2.7386127875258306,0,1,1,-2.7386127875258306,0A2.7386127875258306,2.7386127875258306,0,1,1,2.7386127875258306,0" fill="#EB9A60" stroke-width="2" opacity="0.7"></path><path aria-label="condition: global; : global; Target - Non-target Score: -0.332085" role="graphics-symbol" aria-roledescription="point" transform="translate(15.5,104.58357142857142)" d="M2.7386127875258306,0A2.7386127875258306,2.7386127875258306,0,1,1,-2.7386127875258306,0A2.7386127875258306,2.7386127875258306,0,1,1,2.7386127875258306,0" fill="#0F3C5F" stroke-width="2" opacity="0.7"></path><path aria-label="condition: object; : object; Target - Non-target Score: 0.068628155" role="graphics-symbol" aria-roledescription="point" transform="translate(40.5,47.33883499999998)" d="M2.7386127875258306,0A2.7386127875258306,2.7386127875258306,0,1,1,-2.7386127875258306,0A2.7386127875258306,2.7386127875258306,0,1,1,2.7386127875258306,0" fill="#687B3E" stroke-width="2" opacity="0.7"></path><path aria-label="condition: spatial; : spatial; Target - Non-target Score: -0.2864988" role="graphics-symbol" aria-roledescription="point" transform="translate(65.5,98.07125714285714)" d="M2.7386127875258306,0A2.7386127875258306,2.7386127875258306,0,1,1,-2.7386127875258306,0A2.7386127875258306,2.7386127875258306,0,1,1,2.7386127875258306,0" fill="#EB9A60" stroke-width="2" opacity="0.7"></path><path aria-label="condition: global; : global; Target - Non-target Score: -0.30255955" role="graphics-symbol" aria-roledescription="point" transform="translate(15.5,100.36564999999999)" d="M2.7386127875258306,0A2.7386127875258306,2.7386127875258306,0,1,1,-2.7386127875258306,0A2.7386127875258306,2.7386127875258306,0,1,1,2.7386127875258306,0" fill="#0F3C5F" stroke-width="2" opacity="0.7"></path><path aria-label="condition: object; : object; Target - Non-target Score: -0.48127484" role="graphics-symbol" aria-roledescription="point" transform="translate(40.5,125.8964057142857)" d="M2.7386127875258306,0A2.7386127875258306,2.7386127875258306,0,1,1,-2.7386127875258306,0A2.7386127875258306,2.7386127875258306,0,1,1,2.7386127875258306,0" fill="#687B3E" stroke-width="2" opacity="0.7"></path><path aria-label="condition: spatial; : spatial; Target - Non-target Score: -0.20770305" role="graphics-symbol" aria-roledescription="point" transform="translate(65.5,86.81472142857143)" d="M2.7386127875258306,0A2.7386127875258306,2.7386127875258306,0,1,1,-2.7386127875258306,0A2.7386127875258306,2.7386127875258306,0,1,1,2.7386127875258306,0" fill="#EB9A60" stroke-width="2" opacity="0.7"></path><path aria-label="condition: global; : global; Target - Non-target Score: -0.22367398" role="graphics-symbol" aria-roledescription="point" transform="translate(15.5,89.09628285714287)" d="M2.7386127875258306,0A2.7386127875258306,2.7386127875258306,0,1,1,-2.7386127875258306,0A2.7386127875258306,2.7386127875258306,0,1,1,2.7386127875258306,0" fill="#0F3C5F" stroke-width="2" opacity="0.7"></path><path aria-label="condition: object; : object; Target - Non-target Score: -0.5953033" role="graphics-symbol" aria-roledescription="point" transform="translate(40.5,142.1861857142857)" d="M2.7386127875258306,0A2.7386127875258306,2.7386127875258306,0,1,1,-2.7386127875258306,0A2.7386127875258306,2.7386127875258306,0,1,1,2.7386127875258306,0" fill="#687B3E" stroke-width="2" opacity="0.7"></path><path aria-label="condition: spatial; : spatial; Target - Non-target Score: 0.38495865" role="graphics-symbol" aria-roledescription="point" transform="translate(65.5,2.1487642857142886)" d="M2.7386127875258306,0A2.7386127875258306,2.7386127875258306,0,1,1,-2.7386127875258306,0A2.7386127875258306,2.7386127875258306,0,1,1,2.7386127875258306,0" fill="#EB9A60" stroke-width="2" opacity="0.7"></path><path aria-label="condition: global; : global; Target - Non-target Score: -0.68754554" role="graphics-symbol" aria-roledescription="point" transform="translate(15.5,155.36364857142857)" d="M2.7386127875258306,0A2.7386127875258306,2.7386127875258306,0,1,1,-2.7386127875258306,0A2.7386127875258306,2.7386127875258306,0,1,1,2.7386127875258306,0" fill="#0F3C5F" stroke-width="2" opacity="0.7"></path><path aria-label="condition: object; : object; Target - Non-target Score: -0.536864" role="graphics-symbol" aria-roledescription="point" transform="translate(40.5,133.8377142857143)" d="M2.7386127875258306,0A2.7386127875258306,2.7386127875258306,0,1,1,-2.7386127875258306,0A2.7386127875258306,2.7386127875258306,0,1,1,2.7386127875258306,0" fill="#687B3E" stroke-width="2" opacity="0.7"></path><path aria-label="condition: spatial; : spatial; Target - Non-target Score: -0.91815853" role="graphics-symbol" aria-roledescription="point" transform="translate(65.5,188.30836142857143)" d="M2.7386127875258306,0A2.7386127875258306,2.7386127875258306,0,1,1,-2.7386127875258306,0A2.7386127875258306,2.7386127875258306,0,1,1,2.7386127875258306,0" fill="#EB9A60" stroke-width="2" opacity="0.7"></path><path aria-label="condition: global; : global; Target - Non-target Score: -0.19019791" role="graphics-symbol" aria-roledescription="point" transform="translate(15.5,84.31398714285714)" d="M2.7386127875258306,0A2.7386127875258306,2.7386127875258306,0,1,1,-2.7386127875258306,0A2.7386127875258306,2.7386127875258306,0,1,1,2.7386127875258306,0" fill="#0F3C5F" stroke-width="2" opacity="0.7"></path><path aria-label="condition: object; : object; Target - Non-target Score: -0.29727793" role="graphics-symbol" aria-roledescription="point" transform="translate(40.5,99.61113285714285)" d="M2.7386127875258306,0A2.7386127875258306,2.7386127875258306,0,1,1,-2.7386127875258306,0A2.7386127875258306,2.7386127875258306,0,1,1,2.7386127875258306,0" fill="#687B3E" stroke-width="2" opacity="0.7"></path><path aria-label="condition: spatial; : spatial; Target - Non-target Score: -0.54366344" role="graphics-symbol" aria-roledescription="point" transform="translate(65.5,134.80906285714283)" d="M2.7386127875258306,0A2.7386127875258306,2.7386127875258306,0,1,1,-2.7386127875258306,0A2.7386127875258306,2.7386127875258306,0,1,1,2.7386127875258306,0" fill="#EB9A60" stroke-width="2" opacity="0.7"></path><path aria-label="condition: global; : global; Target - Non-target Score: -0.803895" role="graphics-symbol" aria-roledescription="point" transform="translate(15.5,171.985)" d="M2.7386127875258306,0A2.7386127875258306,2.7386127875258306,0,1,1,-2.7386127875258306,0A2.7386127875258306,2.7386127875258306,0,1,1,2.7386127875258306,0" fill="#0F3C5F" stroke-width="2" opacity="0.7"></path><path aria-label="condition: object; : object; Target - Non-target Score: -0.3550963" role="graphics-symbol" aria-roledescription="point" transform="translate(40.5,107.87089999999999)" d="M2.7386127875258306,0A2.7386127875258306,2.7386127875258306,0,1,1,-2.7386127875258306,0A2.7386127875258306,2.7386127875258306,0,1,1,2.7386127875258306,0" fill="#687B3E" stroke-width="2" opacity="0.7"></path><path aria-label="condition: spatial; : spatial; Target - Non-target Score: 0.109667875" role="graphics-symbol" aria-roledescription="point" transform="translate(65.5,41.47601785714286)" d="M2.7386127875258306,0A2.7386127875258306,2.7386127875258306,0,1,1,-2.7386127875258306,0A2.7386127875258306,2.7386127875258306,0,1,1,2.7386127875258306,0" fill="#EB9A60" stroke-width="2" opacity="0.7"></path><path aria-label="condition: global; : global; Target - Non-target Score: -0.7179192" role="graphics-symbol" aria-roledescription="point" transform="translate(15.5,159.70274285714285)" d="M2.7386127875258306,0A2.7386127875258306,2.7386127875258306,0,1,1,-2.7386127875258306,0A2.7386127875258306,2.7386127875258306,0,1,1,2.7386127875258306,0" fill="#0F3C5F" stroke-width="2" opacity="0.7"></path><path aria-label="condition: object; : object; Target - Non-target Score: -0.23173909" role="graphics-symbol" aria-roledescription="point" transform="translate(40.5,90.24844142857143)" d="M2.7386127875258306,0A2.7386127875258306,2.7386127875258306,0,1,1,-2.7386127875258306,0A2.7386127875258306,2.7386127875258306,0,1,1,2.7386127875258306,0" fill="#687B3E" stroke-width="2" opacity="0.7"></path><path aria-label="condition: spatial; : spatial; Target - Non-target Score: -0.85887617" role="graphics-symbol" aria-roledescription="point" transform="translate(65.5,179.83945285714287)" d="M2.7386127875258306,0A2.7386127875258306,2.7386127875258306,0,1,1,-2.7386127875258306,0A2.7386127875258306,2.7386127875258306,0,1,1,2.7386127875258306,0" fill="#EB9A60" stroke-width="2" opacity="0.7"></path><path aria-label="condition: global; : global; Target - Non-target Score: -0.51983935" role="graphics-symbol" aria-roledescription="point" transform="translate(15.5,131.40562142857144)" d="M2.7386127875258306,0A2.7386127875258306,2.7386127875258306,0,1,1,-2.7386127875258306,0A2.7386127875258306,2.7386127875258306,0,1,1,2.7386127875258306,0" fill="#0F3C5F" stroke-width="2" opacity="0.7"></path><path aria-label="condition: object; : object; Target - Non-target Score: -0.40518096" role="graphics-symbol" aria-roledescription="point" transform="translate(40.5,115.02585142857143)" d="M2.7386127875258306,0A2.7386127875258306,2.7386127875258306,0,1,1,-2.7386127875258306,0A2.7386127875258306,2.7386127875258306,0,1,1,2.7386127875258306,0" fill="#687B3E" stroke-width="2" opacity="0.7"></path><path aria-label="condition: spatial; : spatial; Target - Non-target Score: -0.7755825" role="graphics-symbol" aria-roledescription="point" transform="translate(65.5,167.94035714285712)" d="M2.7386127875258306,0A2.7386127875258306,2.7386127875258306,0,1,1,-2.7386127875258306,0A2.7386127875258306,2.7386127875258306,0,1,1,2.7386127875258306,0" fill="#EB9A60" stroke-width="2" opacity="0.7"></path><path aria-label="condition: global; : global; Target - Non-target Score: -0.13945718" role="graphics-symbol" aria-roledescription="point" transform="translate(15.5,77.06531142857142)" d="M2.7386127875258306,0A2.7386127875258306,2.7386127875258306,0,1,1,-2.7386127875258306,0A2.7386127875258306,2.7386127875258306,0,1,1,2.7386127875258306,0" fill="#0F3C5F" stroke-width="2" opacity="0.7"></path><path aria-label="condition: object; : object; Target - Non-target Score: -0.43768907" role="graphics-symbol" aria-roledescription="point" transform="translate(40.5,119.66986714285714)" d="M2.7386127875258306,0A2.7386127875258306,2.7386127875258306,0,1,1,-2.7386127875258306,0A2.7386127875258306,2.7386127875258306,0,1,1,2.7386127875258306,0" fill="#687B3E" stroke-width="2" opacity="0.7"></path><path aria-label="condition: spatial; : spatial; Target - Non-target Score: -0.40776885" role="graphics-symbol" aria-roledescription="point" transform="translate(65.5,115.39554999999999)" d="M2.7386127875258306,0A2.7386127875258306,2.7386127875258306,0,1,1,-2.7386127875258306,0A2.7386127875258306,2.7386127875258306,0,1,1,2.7386127875258306,0" fill="#EB9A60" stroke-width="2" opacity="0.7"></path><path aria-label="condition: global; : global; Target - Non-target Score: -0.26728836" role="graphics-symbol" aria-roledescription="point" transform="translate(15.5,95.32690857142856)" d="M2.7386127875258306,0A2.7386127875258306,2.7386127875258306,0,1,1,-2.7386127875258306,0A2.7386127875258306,2.7386127875258306,0,1,1,2.7386127875258306,0" fill="#0F3C5F" stroke-width="2" opacity="0.7"></path><path aria-label="condition: object; : object; Target - Non-target Score: -0.6382981" role="graphics-symbol" aria-roledescription="point" transform="translate(40.5,148.32829999999998)" d="M2.7386127875258306,0A2.7386127875258306,2.7386127875258306,0,1,1,-2.7386127875258306,0A2.7386127875258306,2.7386127875258306,0,1,1,2.7386127875258306,0" fill="#687B3E" stroke-width="2" opacity="0.7"></path><path aria-label="condition: spatial; : spatial; Target - Non-target Score: -0.45673233" role="graphics-symbol" aria-roledescription="point" transform="translate(65.5,122.39033285714287)" d="M2.7386127875258306,0A2.7386127875258306,2.7386127875258306,0,1,1,-2.7386127875258306,0A2.7386127875258306,2.7386127875258306,0,1,1,2.7386127875258306,0" fill="#EB9A60" stroke-width="2" opacity="0.7"></path><path aria-label="condition: global; : global; Target - Non-target Score: -0.104694344" role="graphics-symbol" aria-roledescription="point" transform="translate(15.5,72.09919199999999)" d="M2.7386127875258306,0A2.7386127875258306,2.7386127875258306,0,1,1,-2.7386127875258306,0A2.7386127875258306,2.7386127875258306,0,1,1,2.7386127875258306,0" fill="#0F3C5F" stroke-width="2" opacity="0.7"></path><path aria-label="condition: object; : object; Target - Non-target Score: 0.039468326" role="graphics-symbol" aria-roledescription="point" transform="translate(40.5,51.504524857142854)" d="M2.7386127875258306,0A2.7386127875258306,2.7386127875258306,0,1,1,-2.7386127875258306,0A2.7386127875258306,2.7386127875258306,0,1,1,2.7386127875258306,0" fill="#687B3E" stroke-width="2" opacity="0.7"></path><path aria-label="condition: spatial; : spatial; Target - Non-target Score: -0.7702657" role="graphics-symbol" aria-roledescription="point" transform="translate(65.5,167.1808142857143)" d="M2.7386127875258306,0A2.7386127875258306,2.7386127875258306,0,1,1,-2.7386127875258306,0A2.7386127875258306,2.7386127875258306,0,1,1,2.7386127875258306,0" fill="#EB9A60" stroke-width="2" opacity="0.7"></path><path aria-label="condition: global; : global; Target - Non-target Score: -0.1712264" role="graphics-symbol" aria-roledescription="point" transform="translate(15.5,81.60377142857142)" d="M2.7386127875258306,0A2.7386127875258306,2.7386127875258306,0,1,1,-2.7386127875258306,0A2.7386127875258306,2.7386127875258306,0,1,1,2.7386127875258306,0" fill="#0F3C5F" stroke-width="2" opacity="0.7"></path><path aria-label="condition: object; : object; Target - Non-target Score: -0.9441717" role="graphics-symbol" aria-roledescription="point" transform="translate(40.5,192.02452857142856)" d="M2.7386127875258306,0A2.7386127875258306,2.7386127875258306,0,1,1,-2.7386127875258306,0A2.7386127875258306,2.7386127875258306,0,1,1,2.7386127875258306,0" fill="#687B3E" stroke-width="2" opacity="0.7"></path><path aria-label="condition: spatial; : spatial; Target - Non-target Score: -0.80862963" role="graphics-symbol" aria-roledescription="point" transform="translate(65.5,172.6613757142857)" d="M2.7386127875258306,0A2.7386127875258306,2.7386127875258306,0,1,1,-2.7386127875258306,0A2.7386127875258306,2.7386127875258306,0,1,1,2.7386127875258306,0" fill="#EB9A60" stroke-width="2" opacity="0.7"></path><path aria-label="condition: global; : global; Target - Non-target Score: -0.42598653" role="graphics-symbol" aria-roledescription="point" transform="translate(15.5,117.9980757142857)" d="M2.7386127875258306,0A2.7386127875258306,2.7386127875258306,0,1,1,-2.7386127875258306,0A2.7386127875258306,2.7386127875258306,0,1,1,2.7386127875258306,0" fill="#0F3C5F" stroke-width="2" opacity="0.7"></path><path aria-label="condition: object; : object; Target - Non-target Score: -0.28599104" role="graphics-symbol" aria-roledescription="point" transform="translate(40.5,97.99871999999998)" d="M2.7386127875258306,0A2.7386127875258306,2.7386127875258306,0,1,1,-2.7386127875258306,0A2.7386127875258306,2.7386127875258306,0,1,1,2.7386127875258306,0" fill="#687B3E" stroke-width="2" opacity="0.7"></path><path aria-label="condition: spatial; : spatial; Target - Non-target Score: -0.5810323" role="graphics-symbol" aria-roledescription="point" transform="translate(65.5,140.1474714285714)" d="M2.7386127875258306,0A2.7386127875258306,2.7386127875258306,0,1,1,-2.7386127875258306,0A2.7386127875258306,2.7386127875258306,0,1,1,2.7386127875258306,0" fill="#EB9A60" stroke-width="2" opacity="0.7"></path><path aria-label="condition: global; : global; Target - Non-target Score: -0.17846556" role="graphics-symbol" aria-roledescription="point" transform="translate(15.5,82.63793714285714)" d="M2.7386127875258306,0A2.7386127875258306,2.7386127875258306,0,1,1,-2.7386127875258306,0A2.7386127875258306,2.7386127875258306,0,1,1,2.7386127875258306,0" fill="#0F3C5F" stroke-width="2" opacity="0.7"></path><path aria-label="condition: object; : object; Target - Non-target Score: 0.2760746" role="graphics-symbol" aria-roledescription="point" transform="translate(40.5,17.703628571428553)" d="M2.7386127875258306,0A2.7386127875258306,2.7386127875258306,0,1,1,-2.7386127875258306,0A2.7386127875258306,2.7386127875258306,0,1,1,2.7386127875258306,0" fill="#687B3E" stroke-width="2" opacity="0.7"></path><path aria-label="condition: spatial; : spatial; Target - Non-target Score: -0.8897201" role="graphics-symbol" aria-roledescription="point" transform="translate(65.5,184.24572857142857)" d="M2.7386127875258306,0A2.7386127875258306,2.7386127875258306,0,1,1,-2.7386127875258306,0A2.7386127875258306,2.7386127875258306,0,1,1,2.7386127875258306,0" fill="#EB9A60" stroke-width="2" opacity="0.7"></path><path aria-label="condition: global; : global; Target - Non-target Score: -0.28248936" role="graphics-symbol" aria-roledescription="point" transform="translate(15.5,97.49847999999999)" d="M2.7386127875258306,0A2.7386127875258306,2.7386127875258306,0,1,1,-2.7386127875258306,0A2.7386127875258306,2.7386127875258306,0,1,1,2.7386127875258306,0" fill="#0F3C5F" stroke-width="2" opacity="0.7"></path><path aria-label="condition: object; : object; Target - Non-target Score: -0.5138305" role="graphics-symbol" aria-roledescription="point" transform="translate(40.5,130.54721428571426)" d="M2.7386127875258306,0A2.7386127875258306,2.7386127875258306,0,1,1,-2.7386127875258306,0A2.7386127875258306,2.7386127875258306,0,1,1,2.7386127875258306,0" fill="#687B3E" stroke-width="2" opacity="0.7"></path><path aria-label="condition: spatial; : spatial; Target - Non-target Score: -0.14141259" role="graphics-symbol" aria-roledescription="point" transform="translate(65.5,77.34465571428572)" d="M2.7386127875258306,0A2.7386127875258306,2.7386127875258306,0,1,1,-2.7386127875258306,0A2.7386127875258306,2.7386127875258306,0,1,1,2.7386127875258306,0" fill="#EB9A60" stroke-width="2" opacity="0.7"></path><path aria-label="condition: global; : global; Target - Non-target Score: -0.3470659" role="graphics-symbol" aria-roledescription="point" transform="translate(15.5,106.7237)" d="M2.7386127875258306,0A2.7386127875258306,2.7386127875258306,0,1,1,-2.7386127875258306,0A2.7386127875258306,2.7386127875258306,0,1,1,2.7386127875258306,0" fill="#0F3C5F" stroke-width="2" opacity="0.7"></path><path aria-label="condition: object; : object; Target - Non-target Score: -0.65015477" role="graphics-symbol" aria-roledescription="point" transform="translate(40.5,150.02211)" d="M2.7386127875258306,0A2.7386127875258306,2.7386127875258306,0,1,1,-2.7386127875258306,0A2.7386127875258306,2.7386127875258306,0,1,1,2.7386127875258306,0" fill="#687B3E" stroke-width="2" opacity="0.7"></path><path aria-label="condition: spatial; : spatial; Target - Non-target Score: -0.19493881" role="graphics-symbol" aria-roledescription="point" transform="translate(65.5,84.99125857142857)" d="M2.7386127875258306,0A2.7386127875258306,2.7386127875258306,0,1,1,-2.7386127875258306,0A2.7386127875258306,2.7386127875258306,0,1,1,2.7386127875258306,0" fill="#EB9A60" stroke-width="2" opacity="0.7"></path><path aria-label="condition: global; : global; Target - Non-target Score: -0.35051754" role="graphics-symbol" aria-roledescription="point" transform="translate(15.5,107.21679142857141)" d="M2.7386127875258306,0A2.7386127875258306,2.7386127875258306,0,1,1,-2.7386127875258306,0A2.7386127875258306,2.7386127875258306,0,1,1,2.7386127875258306,0" fill="#0F3C5F" stroke-width="2" opacity="0.7"></path><path aria-label="condition: object; : object; Target - Non-target Score: -0.36715046" role="graphics-symbol" aria-roledescription="point" transform="translate(40.5,109.59292285714284)" d="M2.7386127875258306,0A2.7386127875258306,2.7386127875258306,0,1,1,-2.7386127875258306,0A2.7386127875258306,2.7386127875258306,0,1,1,2.7386127875258306,0" fill="#687B3E" stroke-width="2" opacity="0.7"></path><path aria-label="condition: spatial; : spatial; Target - Non-target Score: -0.17759025" role="graphics-symbol" aria-roledescription="point" transform="translate(65.5,82.51289285714284)" d="M2.7386127875258306,0A2.7386127875258306,2.7386127875258306,0,1,1,-2.7386127875258306,0A2.7386127875258306,2.7386127875258306,0,1,1,2.7386127875258306,0" fill="#EB9A60" stroke-width="2" opacity="0.7"></path></g><g class="mark-rule role-mark layer_0_layer_2_marks" role="graphics-object" aria-roledescription="rule mark container"><line aria-label=": global; Ci0 of cordiff: -0.420993749987; Ci1 of cordiff: -0.264801387158" role="graphics-symbol" aria-roledescription="rule mark" transform="translate(9.5,117.28482142678571)" x2="0" y2="-22.31319468988093" stroke="black"></line><line aria-label=": object; Ci0 of cordiff: -0.43921903091; Ci1 of cordiff: -0.212060075968" role="graphics-symbol" aria-roledescription="rule mark" transform="translate(34.5,119.88843298720235)" x2="0" y2="-32.45127927752975" stroke="black"></line><line aria-label=": spatial; Ci0 of cordiff: -0.509230327115; Ci1 of cordiff: -0.221107859875" role="graphics-symbol" aria-roledescription="rule mark" transform="translate(59.5,129.89004673065477)" x2="0" y2="-41.16035246279762" stroke="black"></line></g></g><path class="foreground" aria-hidden="true" d="" display="none"></path></g></g></g></svg>
