<?xml version="1.0" encoding="utf-8"?>
<!DOCTYPE svg PUBLIC "-//W3C//DTD SVG 1.1//EN" "http://www.w3.org/Graphics/SVG/1.1/DTD/svg11.dtd">
<svg class="marks" width="817" height="295" viewBox="0 0 817 295" version="1.1" xmlns="http://www.w3.org/2000/svg" xmlns:xlink="http://www.w3.org/1999/xlink"><rect width="817" height="295" fill="white"></rect><g fill="none" stroke-miterlimit="10" transform="translate(47,57)"><g class="mark-group role-frame root" role="graphics-object" aria-roledescription="group mark container"><g transform="translate(0,0)"><path class="background" aria-hidden="true" d="M0,0h0v0h0Z"></path><g><g class="mark-group role-column-title column-title" role="graphics-object" aria-roledescription="group mark container"><g transform="translate(322,-31)"><path class="background" aria-hidden="true" d="M0,0h0v0h0Z"></path><g><g class="mark-group role-title"><g transform="translate(0,-21)"><path class="background" aria-hidden="true" d="M0,0h0v0h0Z" pointer-events="none"></path><g><g class="mark-text role-title-text" role="graphics-symbol" aria-roledescription="title" aria-label="Title text 'condition'" pointer-events="none"><text text-anchor="middle" transform="translate(0,9)" font-family="sans-serif" font-size="11px" font-weight="bold" fill="#000" opacity="1">condition</text></g></g><path class="foreground" aria-hidden="true" d="" pointer-events="none" display="none"></path></g></g></g><path class="foreground" aria-hidden="true" d="" display="none"></path></g></g><g class="mark-group role-row-header row_header" role="graphics-object" aria-roledescription="group mark container"><g transform="translate(-1,0)"><path class="background" aria-hidden="true" d="M0,0h0v200h0Z"></path><g><g class="mark-group role-axis" role="graphics-symbol" aria-roledescription="axis" aria-label="Y-axis titled 'Mean of score' for a linear scale with values from -0.3 to 0.3"><g transform="translate(0.5,0.5)"><path class="background" aria-hidden="true" d="M0,0h0v0h0Z" pointer-events="none"></path><g><g class="mark-rule role-axis-tick" pointer-events="none"><line transform="translate(0,183)" x2="-5" y2="0" stroke="#888" stroke-width="1" opacity="1"></line><line transform="translate(0,150)" x2="-5" y2="0" stroke="#888" stroke-width="1" opacity="1"></line><line transform="translate(0,117)" x2="-5" y2="0" stroke="#888" stroke-width="1" opacity="1"></line><line transform="translate(0,83)" x2="-5" y2="0" stroke="#888" stroke-width="1" opacity="1"></line><line transform="translate(0,50)" x2="-5" y2="0" stroke="#888" stroke-width="1" opacity="1"></line><line transform="translate(0,17)" x2="-5" y2="0" stroke="#888" stroke-width="1" opacity="1"></line></g><g class="mark-text role-axis-label" pointer-events="none"><text text-anchor="end" transform="translate(-7,186.33333333333334)" font-family="sans-serif" font-size="10px" fill="#000" opacity="1">-0.2</text><text text-anchor="end" transform="translate(-7,153)" font-family="sans-serif" font-size="10px" fill="#000" opacity="1">-0.1</text><text text-anchor="end" transform="translate(-7,119.66666666666666)" font-family="sans-serif" font-size="10px" fill="#000" opacity="1">0.0</text><text text-anchor="end" transform="translate(-7,86.33333333333333)" font-family="sans-serif" font-size="10px" fill="#000" opacity="1">0.1</text><text text-anchor="end" transform="translate(-7,53)" font-family="sans-serif" font-size="10px" fill="#000" opacity="1">0.2</text><text text-anchor="end" transform="translate(-7,19.66666666666665)" font-family="sans-serif" font-size="10px" fill="#000" opacity="1">0.3</text></g><g class="mark-rule role-axis-domain" pointer-events="none"><line transform="translate(0,200)" x2="0" y2="-200" stroke="#888" stroke-width="1" opacity="1"></line></g><g class="mark-text role-axis-title" pointer-events="none"><text text-anchor="middle" transform="translate(-30,100) rotate(-90) translate(0,-2)" font-family="sans-serif" font-size="11px" font-weight="bold" fill="#000" opacity="1">Mean of score</text></g></g><path class="foreground" aria-hidden="true" d="" pointer-events="none" display="none"></path></g></g></g><path class="foreground" aria-hidden="true" d="" display="none"></path></g></g><g class="mark-group role-column-header column_header" role="graphics-object" aria-roledescription="group mark container"><g transform="translate(0,-1)"><path class="background" aria-hidden="true" d="M0,0h200v0h-200Z"></path><g><g class="mark-group role-title"><g transform="translate(100,-20)"><path class="background" aria-hidden="true" d="M0,0h0v0h0Z" pointer-events="none"></path><g><g class="mark-text role-title-text" role="graphics-symbol" aria-roledescription="title" aria-label="Title text 'global'" pointer-events="none"><text text-anchor="middle" transform="translate(0,8)" font-family="sans-serif" font-size="10px" fill="#000" opacity="1">global</text></g></g><path class="foreground" aria-hidden="true" d="" pointer-events="none" display="none"></path></g></g></g><path class="foreground" aria-hidden="true" d="" display="none"></path></g><g transform="translate(222,-1)"><path class="background" aria-hidden="true" d="M0,0h200v0h-200Z"></path><g><g class="mark-group role-title"><g transform="translate(100,-20)"><path class="background" aria-hidden="true" d="M0,0h0v0h0Z" pointer-events="none"></path><g><g class="mark-text role-title-text" role="graphics-symbol" aria-roledescription="title" aria-label="Title text 'object'" pointer-events="none"><text text-anchor="middle" transform="translate(0,8)" font-family="sans-serif" font-size="10px" fill="#000" opacity="1">object</text></g></g><path class="foreground" aria-hidden="true" d="" pointer-events="none" display="none"></path></g></g></g><path class="foreground" aria-hidden="true" d="" display="none"></path></g><g transform="translate(444,-1)"><path class="background" aria-hidden="true" d="M0,0h200v0h-200Z"></path><g><g class="mark-group role-title"><g transform="translate(100,-20)"><path class="background" aria-hidden="true" d="M0,0h0v0h0Z" pointer-events="none"></path><g><g class="mark-text role-title-text" role="graphics-symbol" aria-roledescription="title" aria-label="Title text 'spatial'" pointer-events="none"><text text-anchor="middle" transform="translate(0,8)" font-family="sans-serif" font-size="10px" fill="#000" opacity="1">spatial</text></g></g><path class="foreground" aria-hidden="true" d="" pointer-events="none" display="none"></path></g></g></g><path class="foreground" aria-hidden="true" d="" display="none"></path></g></g><g class="mark-group role-column-footer column_footer" role="graphics-object" aria-roledescription="group mark container"><g transform="translate(0,201)"><path class="background" aria-hidden="true" d="M0,0h200v0h-200Z"></path><g><g class="mark-group role-axis" role="graphics-symbol" aria-roledescription="axis" aria-label="X-axis titled 'target_salience_level' for a linear scale with values from -0.8 to 1.4"><g transform="translate(0.5,0.5)"><path class="background" aria-hidden="true" d="M0,0h0v0h0Z" pointer-events="none"></path><g><g class="mark-rule role-axis-tick" pointer-events="none"><line transform="translate(27,0)" x2="0" y2="5" stroke="#888" stroke-width="1" opacity="1"></line><line transform="translate(73,0)" x2="0" y2="5" stroke="#888" stroke-width="1" opacity="1"></line><line transform="translate(118,0)" x2="0" y2="5" stroke="#888" stroke-width="1" opacity="1"></line><line transform="translate(164,0)" x2="0" y2="5" stroke="#888" stroke-width="1" opacity="1"></line></g><g class="mark-text role-axis-label" pointer-events="none"><text text-anchor="middle" transform="translate(27.272727272727277,15)" font-family="sans-serif" font-size="10px" fill="#000" opacity="1">-0.5</text><text text-anchor="middle" transform="translate(72.72727272727273,15)" font-family="sans-serif" font-size="10px" fill="#000" opacity="1">0.0</text><text text-anchor="middle" transform="translate(118.18181818181816,15)" font-family="sans-serif" font-size="10px" fill="#000" opacity="1">0.5</text><text text-anchor="middle" transform="translate(163.63636363636363,15)" font-family="sans-serif" font-size="10px" fill="#000" opacity="1">1.0</text></g><g class="mark-rule role-axis-domain" pointer-events="none"><line transform="translate(0,0)" x2="200" y2="0" stroke="#888" stroke-width="1" opacity="1"></line></g><g class="mark-text role-axis-title" pointer-events="none"><text text-anchor="middle" transform="translate(100,30)" font-family="sans-serif" font-size="11px" font-weight="bold" fill="#000" opacity="1">target_salience_level</text></g></g><path class="foreground" aria-hidden="true" d="" pointer-events="none" display="none"></path></g></g></g><path class="foreground" aria-hidden="true" d="" display="none"></path></g><g transform="translate(222,201)"><path class="background" aria-hidden="true" d="M0,0h200v0h-200Z"></path><g><g class="mark-group role-axis" role="graphics-symbol" aria-roledescription="axis" aria-label="X-axis titled 'target_salience_level' for a linear scale with values from -0.8 to 1.4"><g transform="translate(0.5,0.5)"><path class="background" aria-hidden="true" d="M0,0h0v0h0Z" pointer-events="none"></path><g><g class="mark-rule role-axis-tick" pointer-events="none"><line transform="translate(27,0)" x2="0" y2="5" stroke="#888" stroke-width="1" opacity="1"></line><line transform="translate(73,0)" x2="0" y2="5" stroke="#888" stroke-width="1" opacity="1"></line><line transform="translate(118,0)" x2="0" y2="5" stroke="#888" stroke-width="1" opacity="1"></line><line transform="translate(164,0)" x2="0" y2="5" stroke="#888" stroke-width="1" opacity="1"></line></g><g class="mark-text role-axis-label" pointer-events="none"><text text-anchor="middle" transform="translate(27.272727272727277,15)" font-family="sans-serif" font-size="10px" fill="#000" opacity="1">-0.5</text><text text-anchor="middle" transform="translate(72.72727272727273,15)" font-family="sans-serif" font-size="10px" fill="#000" opacity="1">0.0</text><text text-anchor="middle" transform="translate(118.18181818181816,15)" font-family="sans-serif" font-size="10px" fill="#000" opacity="1">0.5</text><text text-anchor="middle" transform="translate(163.63636363636363,15)" font-family="sans-serif" font-size="10px" fill="#000" opacity="1">1.0</text></g><g class="mark-rule role-axis-domain" pointer-events="none"><line transform="translate(0,0)" x2="200" y2="0" stroke="#888" stroke-width="1" opacity="1"></line></g><g class="mark-text role-axis-title" pointer-events="none"><text text-anchor="middle" transform="translate(100,30)" font-family="sans-serif" font-size="11px" font-weight="bold" fill="#000" opacity="1">target_salience_level</text></g></g><path class="foreground" aria-hidden="true" d="" pointer-events="none" display="none"></path></g></g></g><path class="foreground" aria-hidden="true" d="" display="none"></path></g><g transform="translate(444,201)"><path class="background" aria-hidden="true" d="M0,0h200v0h-200Z"></path><g><g class="mark-group role-axis" role="graphics-symbol" aria-roledescription="axis" aria-label="X-axis titled 'target_salience_level' for a linear scale with values from -0.8 to 1.4"><g transform="translate(0.5,0.5)"><path class="background" aria-hidden="true" d="M0,0h0v0h0Z" pointer-events="none"></path><g><g class="mark-rule role-axis-tick" pointer-events="none"><line transform="translate(27,0)" x2="0" y2="5" stroke="#888" stroke-width="1" opacity="1"></line><line transform="translate(73,0)" x2="0" y2="5" stroke="#888" stroke-width="1" opacity="1"></line><line transform="translate(118,0)" x2="0" y2="5" stroke="#888" stroke-width="1" opacity="1"></line><line transform="translate(164,0)" x2="0" y2="5" stroke="#888" stroke-width="1" opacity="1"></line></g><g class="mark-text role-axis-label" pointer-events="none"><text text-anchor="middle" transform="translate(27.272727272727277,15)" font-family="sans-serif" font-size="10px" fill="#000" opacity="1">-0.5</text><text text-anchor="middle" transform="translate(72.72727272727273,15)" font-family="sans-serif" font-size="10px" fill="#000" opacity="1">0.0</text><text text-anchor="middle" transform="translate(118.18181818181816,15)" font-family="sans-serif" font-size="10px" fill="#000" opacity="1">0.5</text><text text-anchor="middle" transform="translate(163.63636363636363,15)" font-family="sans-serif" font-size="10px" fill="#000" opacity="1">1.0</text></g><g class="mark-rule role-axis-domain" pointer-events="none"><line transform="translate(0,0)" x2="200" y2="0" stroke="#888" stroke-width="1" opacity="1"></line></g><g class="mark-text role-axis-title" pointer-events="none"><text text-anchor="middle" transform="translate(100,30)" font-family="sans-serif" font-size="11px" font-weight="bold" fill="#000" opacity="1">target_salience_level</text></g></g><path class="foreground" aria-hidden="true" d="" pointer-events="none" display="none"></path></g></g></g><path class="foreground" aria-hidden="true" d="" display="none"></path></g></g><g class="mark-group role-scope cell" role="graphics-object" aria-roledescription="group mark container"><g transform="translate(0,0)"><path class="background" aria-hidden="true" d="M0.5,0.5h200v200h-200Z" stroke="#ddd"></path><g><g class="mark-group role-axis" aria-hidden="true"><g transform="translate(0.5,200.5)"><path class="background" aria-hidden="true" d="M0,0h0v0h0Z" pointer-events="none"></path><g><g class="mark-rule role-axis-grid" pointer-events="none"><line transform="translate(27,-200)" x2="0" y2="200" stroke="#ddd" stroke-width="1" opacity="1"></line><line transform="translate(73,-200)" x2="0" y2="200" stroke="#ddd" stroke-width="1" opacity="1"></line><line transform="translate(118,-200)" x2="0" y2="200" stroke="#ddd" stroke-width="1" opacity="1"></line><line transform="translate(164,-200)" x2="0" y2="200" stroke="#ddd" stroke-width="1" opacity="1"></line></g></g><path class="foreground" aria-hidden="true" d="" pointer-events="none" display="none"></path></g></g><g class="mark-group role-axis" aria-hidden="true"><g transform="translate(0.5,0.5)"><path class="background" aria-hidden="true" d="M0,0h0v0h0Z" pointer-events="none"></path><g><g class="mark-rule role-axis-grid" pointer-events="none"><line transform="translate(0,183)" x2="200" y2="0" stroke="#ddd" stroke-width="1" opacity="1"></line><line transform="translate(0,150)" x2="200" y2="0" stroke="#ddd" stroke-width="1" opacity="1"></line><line transform="translate(0,117)" x2="200" y2="0" stroke="#ddd" stroke-width="1" opacity="1"></line><line transform="translate(0,83)" x2="200" y2="0" stroke="#ddd" stroke-width="1" opacity="1"></line><line transform="translate(0,50)" x2="200" y2="0" stroke="#ddd" stroke-width="1" opacity="1"></line><line transform="translate(0,17)" x2="200" y2="0" stroke="#ddd" stroke-width="1" opacity="1"></line></g></g><path class="foreground" aria-hidden="true" d="" pointer-events="none" display="none"></path></g></g><g class="mark-group role-scope child_pathgroup" role="graphics-object" aria-roledescription="group mark container"><g transform="translate(0,0)"><path class="background" aria-hidden="true" d="M0,0h200v200h-200Z"></path><g><g class="mark-line role-mark child_marks" role="graphics-object" aria-roledescription="line mark container"><path aria-label="target_salience_level: -0.758594828302; Mean of score: -0.0459844651111; is_target_source: Target" role="graphics-symbol" aria-roledescription="line mark" d="M3.76410651798091,131.99482170370368L24.214603766793,122.36861563095238L24.339549174511912,123.31614256140351L25.384820010770547,101.14476825925927L25.903805926029815,75.06699416666666L28.419503264984364,156.583628875L33.36831845480564,99.62607326984126L35.825027018278455,133.06354729242423L39.27613937960182,15.66022181481479L42.358447968424,150.2179110625L56.28100829059364,107.59861066666664L57.97814122613727,106.30809909090911L58.110332847557636,96.07536476190477L62.03296449706709,94.15415215555556L63.34639430672527,83.39621766666667L66.21779198140085,93.81521231578947L66.25203780006284,101.95392625L68.85343594763792,154.21289008333335L68.9955820605465,86.16047348888888L69.0083330884237,150.89091474166668L74.77573218977874,181.81082805555556L77.95145741956892,112.73365392857141L81.1115566597076,117.09959786333333L83.38626501159172,97.76557588235295L87.98096649130363,159.61875311111112L88.00710251271427,111.49601424074073L102.58297326911399,87.99180568627449L103.59871007681618,70.64398772941176L105.28718011916244,141.79432625490196L123.33300722939056,41.77467442592593L131.6728937176541,116.41658639215686L132.083378013187,39.11265238095236L140.64994091134056,79.2312599047619L142.5394011729919,79.98558410499999L146.65387585745208,45.9449805L153.48963067678,154.61909145454544L160.61664580247864,147.95987854761904L179.47955752048455,180.35877889814816L192.0574521802382,112.43183099999999L192.21397248684093,94.13740803777777" stroke="#EB9A60" stroke-width="2"></path></g></g><path class="foreground" aria-hidden="true" d="" display="none"></path></g><g transform="translate(0,0)"><path class="background" aria-hidden="true" d="M0,0h200v200h-200Z"></path><g><g class="mark-line role-mark child_marks" role="graphics-object" aria-roledescription="line mark container"><path aria-label="target_salience_level: -0.758594828302; Mean of score: -0.0286343225833; is_target_source: Non-target" role="graphics-symbol" aria-roledescription="line mark" d="M3.76410651798091,126.21144086111111L24.214603766793,116.54548847619046L24.339549174511912,134.23929435087717L25.384820010770547,139.37746424074072L25.903805926029815,135.4050115277778L28.419503264984364,108.30698491666668L33.36831845480564,108.32072219047619L35.825027018278455,91.3090319090909L39.27613937960182,133.88334125111112L42.358447968424,125.31972816666665L56.28100829059364,137.5383979111111L57.97814122613727,117.07009584848484L58.110332847557636,95.53075627619047L62.03296449706709,104.87309351111111L63.34639430672527,137.82506045499997L66.21779198140085,107.7412205614035L66.25203780006284,141.21360122916667L68.85343594763792,114.58990560277775L68.9955820605465,133.38164487333333L69.0083330884237,108.66418543750001L74.77573218977874,117.16387486111111L77.95145741956892,134.24637789523808L81.1115566597076,98.1841666L83.38626501159172,111.69504560784311L87.98096649130363,105.76804253333334L88.00710251271427,98.25409314814814L102.58297326911399,137.99273494117648L103.59871007681618,101.81741183607843L105.28718011916244,124.78952484313726L123.33300722939056,106.48888475666666L131.6728937176541,86.80879313725491L132.083378013187,166.41425952380953L140.64994091134056,97.56425990238095L142.5394011729919,57.193355525L146.65387585745208,106.49913033333331L153.48963067678,92.11938618181819L160.61664580247864,135.72214171666667L179.47955752048455,131.30423374074073L192.0574521802382,96.5871197190476L192.21397248684093,172.9070588148148" stroke="#0F3C5F" stroke-width="2"></path></g></g><path class="foreground" aria-hidden="true" d="" display="none"></path></g></g></g><path class="foreground" aria-hidden="true" d="" display="none"></path></g><g transform="translate(222,0)"><path class="background" aria-hidden="true" d="M0.5,0.5h200v200h-200Z" stroke="#ddd"></path><g><g class="mark-group role-axis" aria-hidden="true"><g transform="translate(0.5,200.5)"><path class="background" aria-hidden="true" d="M0,0h0v0h0Z" pointer-events="none"></path><g><g class="mark-rule role-axis-grid" pointer-events="none"><line transform="translate(27,-200)" x2="0" y2="200" stroke="#ddd" stroke-width="1" opacity="1"></line><line transform="translate(73,-200)" x2="0" y2="200" stroke="#ddd" stroke-width="1" opacity="1"></line><line transform="translate(118,-200)" x2="0" y2="200" stroke="#ddd" stroke-width="1" opacity="1"></line><line transform="translate(164,-200)" x2="0" y2="200" stroke="#ddd" stroke-width="1" opacity="1"></line></g></g><path class="foreground" aria-hidden="true" d="" pointer-events="none" display="none"></path></g></g><g class="mark-group role-axis" aria-hidden="true"><g transform="translate(0.5,0.5)"><path class="background" aria-hidden="true" d="M0,0h0v0h0Z" pointer-events="none"></path><g><g class="mark-rule role-axis-grid" pointer-events="none"><line transform="translate(0,183)" x2="200" y2="0" stroke="#ddd" stroke-width="1" opacity="1"></line><line transform="translate(0,150)" x2="200" y2="0" stroke="#ddd" stroke-width="1" opacity="1"></line><line transform="translate(0,117)" x2="200" y2="0" stroke="#ddd" stroke-width="1" opacity="1"></line><line transform="translate(0,83)" x2="200" y2="0" stroke="#ddd" stroke-width="1" opacity="1"></line><line transform="translate(0,50)" x2="200" y2="0" stroke="#ddd" stroke-width="1" opacity="1"></line><line transform="translate(0,17)" x2="200" y2="0" stroke="#ddd" stroke-width="1" opacity="1"></line></g></g><path class="foreground" aria-hidden="true" d="" pointer-events="none" display="none"></path></g></g><g class="mark-group role-scope child_pathgroup" role="graphics-object" aria-roledescription="group mark container"><g transform="translate(0,0)"><path class="background" aria-hidden="true" d="M0,0h200v200h-200Z"></path><g><g class="mark-line role-mark child_marks" role="graphics-object" aria-roledescription="line mark container"><path aria-label="target_salience_level: -0.758594828302; Mean of score: -0.0412193157333; is_target_source: Target" role="graphics-symbol" aria-roledescription="line mark" d="M3.76410651798091,130.40643857777775L24.214603766793,61.43380270833334L25.384820010770547,155.00505833333332L39.27613937960182,98.49569786111107L56.28100829059364,154.48840904692307L57.97814122613727,104.07463480555555L58.110332847557636,98.6213621060606L62.03296449706709,117.16271119047619L63.34639430672527,124.66452963157894L66.25203780006284,127.12442968421054L68.9955820605465,145.12742652083332L77.95145741956892,144.2947250392157L81.1115566597076,65.02345619047618L83.38626501159172,69.23791298958332L87.98096649130363,60.23779819999999L88.00710251271427,98.3709414631579L132.083378013187,89.8719287037037L140.64994091134056,108.40451031249998L142.5394011729919,142.0319461372549L146.65387585745208,114.40896477296296L153.48963067678,153.2729606111111L160.61664580247864,44.49126543137256L179.47955752048455,132.85093672222223L192.0574521802382,103.40571484210525L192.21397248684093,188.08229210784316" stroke="#EB9A60" stroke-width="2"></path></g></g><path class="foreground" aria-hidden="true" d="" display="none"></path></g><g transform="translate(0,0)"><path class="background" aria-hidden="true" d="M0,0h200v200h-200Z"></path><g><g class="mark-line role-mark child_marks" role="graphics-object" aria-roledescription="line mark container"><path aria-label="target_salience_level: -0.758594828302; Mean of score: 0.0524556278; is_target_source: Non-target" role="graphics-symbol" aria-roledescription="line mark" d="M3.76410651798091,99.1814574L24.214603766793,92.00759385416666L25.384820010770547,85.9426682L39.27613937960182,169.98216941277778L56.28100829059364,135.97494912820514L57.97814122613727,109.87450522222221L58.110332847557636,130.38013739393938L62.03296449706709,116.61516478571427L63.34639430672527,113.83775589473686L66.25203780006284,142.128736L68.9955820605465,136.955062275L77.95145741956892,125.06505994705881L81.1115566597076,105.37208157142857L83.38626501159172,119.112651125L87.98096649130363,141.29156999999998L88.00710251271427,169.00990519298244L132.083378013187,156.48133962962962L140.64994091134056,113.31424827083332L142.5394011729919,70.63332666666666L146.65387585745208,112.92304602518519L153.48963067678,149.28720992222222L160.61664580247864,122.81743701568627L179.47955752048455,113.87560341666668L192.0574521802382,113.75654274736844L192.21397248684093,133.41306598039216" stroke="#0F3C5F" stroke-width="2"></path></g></g><path class="foreground" aria-hidden="true" d="" display="none"></path></g></g></g><path class="foreground" aria-hidden="true" d="" display="none"></path></g><g transform="translate(444,0)"><path class="background" aria-hidden="true" d="M0.5,0.5h200v200h-200Z" stroke="#ddd"></path><g><g class="mark-group role-axis" aria-hidden="true"><g transform="translate(0.5,200.5)"><path class="background" aria-hidden="true" d="M0,0h0v0h0Z" pointer-events="none"></path><g><g class="mark-rule role-axis-grid" pointer-events="none"><line transform="translate(27,-200)" x2="0" y2="200" stroke="#ddd" stroke-width="1" opacity="1"></line><line transform="translate(73,-200)" x2="0" y2="200" stroke="#ddd" stroke-width="1" opacity="1"></line><line transform="translate(118,-200)" x2="0" y2="200" stroke="#ddd" stroke-width="1" opacity="1"></line><line transform="translate(164,-200)" x2="0" y2="200" stroke="#ddd" stroke-width="1" opacity="1"></line></g></g><path class="foreground" aria-hidden="true" d="" pointer-events="none" display="none"></path></g></g><g class="mark-group role-axis" aria-hidden="true"><g transform="translate(0.5,0.5)"><path class="background" aria-hidden="true" d="M0,0h0v0h0Z" pointer-events="none"></path><g><g class="mark-rule role-axis-grid" pointer-events="none"><line transform="translate(0,183)" x2="200" y2="0" stroke="#ddd" stroke-width="1" opacity="1"></line><line transform="translate(0,150)" x2="200" y2="0" stroke="#ddd" stroke-width="1" opacity="1"></line><line transform="translate(0,117)" x2="200" y2="0" stroke="#ddd" stroke-width="1" opacity="1"></line><line transform="translate(0,83)" x2="200" y2="0" stroke="#ddd" stroke-width="1" opacity="1"></line><line transform="translate(0,50)" x2="200" y2="0" stroke="#ddd" stroke-width="1" opacity="1"></line><line transform="translate(0,17)" x2="200" y2="0" stroke="#ddd" stroke-width="1" opacity="1"></line></g></g><path class="foreground" aria-hidden="true" d="" pointer-events="none" display="none"></path></g></g><g class="mark-group role-scope child_pathgroup" role="graphics-object" aria-roledescription="group mark container"><g transform="translate(0,0)"><path class="background" aria-hidden="true" d="M0,0h200v200h-200Z"></path><g><g class="mark-line role-mark child_marks" role="graphics-object" aria-roledescription="line mark container"><path aria-label="target_salience_level: -0.758594828302; Mean of score: -0.0857829747429; is_target_source: Target" role="graphics-symbol" aria-roledescription="line mark" d="M3.76410651798091,145.26099158095238L24.214603766793,60.887303770833334L39.27613937960182,130.87508883333334L56.28100829059364,98.1525451388889L57.97814122613727,133.72594090909092L66.21779198140085,139.21887361111112L68.9955820605465,153.80549026666665L81.1115566597076,93.9955663939394L83.38626501159172,135.9020048181818L87.98096649130363,116.03155021212122L102.58297326911399,150.35455197222223L103.59871007681618,96.6805926904762L105.28718011916244,79.91971510666667L131.6728937176541,69.20467792857143L153.48963067678,163.33920843589743" stroke="#EB9A60" stroke-width="2"></path></g></g><path class="foreground" aria-hidden="true" d="" display="none"></path></g><g transform="translate(0,0)"><path class="background" aria-hidden="true" d="M0,0h200v200h-200Z"></path><g><g class="mark-line role-mark child_marks" role="graphics-object" aria-roledescription="line mark container"><path aria-label="target_salience_level: -0.758594828302; Mean of score: 0.0107285340714; is_target_source: Non-target" role="graphics-symbol" aria-roledescription="line mark" d="M3.76410651798091,113.09048864285714L24.214603766793,102.44022820833332L39.27613937960182,158.14117653333332L56.28100829059364,151.92438252777777L57.97814122613727,146.86588209090908L66.21779198140085,132.0759036111111L68.9955820605465,92.19143983333333L81.1115566597076,82.86401909090908L83.38626501159172,88.15026119393939L87.98096649130363,160.31937445454545L102.58297326911399,135.77830439722223L103.59871007681618,125.6684043809524L105.28718011916244,127.80627533333333L131.6728937176541,98.01019842857144L153.48963067678,104.8971565948718" stroke="#0F3C5F" stroke-width="2"></path></g></g><path class="foreground" aria-hidden="true" d="" display="none"></path></g></g></g><path class="foreground" aria-hidden="true" d="" display="none"></path></g></g><g class="mark-group role-legend" role="graphics-symbol" aria-roledescription="legend" aria-label="Symbol legend titled 'is_target_source' for stroke color with 2 values: Non-target, Target"><g transform="translate(663,0)"><path class="background" aria-hidden="true" d="M0,0h102v40h-102Z" pointer-events="none"></path><g><g class="mark-group role-legend-entry"><g transform="translate(0,16)"><path class="background" aria-hidden="true" d="M0,0h0v0h0Z" pointer-events="none"></path><g><g class="mark-group role-scope" role="graphics-object" aria-roledescription="group mark container"><g transform="translate(0,0)"><path class="background" aria-hidden="true" d="M0,0h69v11h-69Z" pointer-events="none" opacity="1"></path><g><g class="mark-symbol role-legend-symbol" pointer-events="none"><path transform="translate(6,6)" d="M-5,0L5,0" stroke="#0F3C5F" stroke-width="1.5" opacity="1"></path></g><g class="mark-text role-legend-label" pointer-events="none"><text text-anchor="start" transform="translate(16,9)" font-family="sans-serif" font-size="10px" fill="#000" opacity="1">Non-target</text></g></g><path class="foreground" aria-hidden="true" d="" pointer-events="none" display="none"></path></g><g transform="translate(0,13)"><path class="background" aria-hidden="true" d="M0,0h69v11h-69Z" pointer-events="none" opacity="1"></path><g><g class="mark-symbol role-legend-symbol" pointer-events="none"><path transform="translate(6,6)" d="M-5,0L5,0" stroke="#EB9A60" stroke-width="1.5" opacity="1"></path></g><g class="mark-text role-legend-label" pointer-events="none"><text text-anchor="start" transform="translate(16,9)" font-family="sans-serif" font-size="10px" fill="#000" opacity="1">Target</text></g></g><path class="foreground" aria-hidden="true" d="" pointer-events="none" display="none"></path></g></g></g><path class="foreground" aria-hidden="true" d="" pointer-events="none" display="none"></path></g></g><g class="mark-text role-legend-title" pointer-events="none"><text text-anchor="start" transform="translate(0,9)" font-family="sans-serif" font-size="11px" font-weight="bold" fill="#000" opacity="1">is_target_source</text></g></g><path class="foreground" aria-hidden="true" d="" pointer-events="none" display="none"></path></g></g></g><path class="foreground" aria-hidden="true" d="" display="none"></path></g></g></g></svg>
