<?xml version="1.0" encoding="utf-8"?>
<!DOCTYPE svg PUBLIC "-//W3C//DTD SVG 1.1//EN" "http://www.w3.org/Graphics/SVG/1.1/DTD/svg11.dtd">
<svg class="marks" width="126" height="263" viewBox="0 0 126 263" version="1.1" xmlns="http://www.w3.org/2000/svg" xmlns:xlink="http://www.w3.org/1999/xlink"><rect width="126" height="263" fill="white"></rect><g fill="none" stroke-miterlimit="10" transform="translate(46,5)"><g class="mark-group role-frame root" role="graphics-object" aria-roledescription="group mark container"><g transform="translate(0,0)"><path class="background" aria-hidden="true" d="M0.5,0.5h75v200h-75Z" stroke="#ddd"></path><g><g class="mark-group role-axis" aria-hidden="true"><g transform="translate(0.5,0.5)"><path class="background" aria-hidden="true" d="M0,0h0v0h0Z" pointer-events="none"></path><g><g class="mark-rule role-axis-grid" pointer-events="none"><line transform="translate(0,175)" x2="75" y2="0" stroke="#ddd" stroke-width="1" opacity="1"></line><line transform="translate(0,125)" x2="75" y2="0" stroke="#ddd" stroke-width="1" opacity="1"></line><line transform="translate(0,75)" x2="75" y2="0" stroke="#ddd" stroke-width="1" opacity="1"></line><line transform="translate(0,25)" x2="75" y2="0" stroke="#ddd" stroke-width="1" opacity="1"></line></g></g><path class="foreground" aria-hidden="true" d="" pointer-events="none" display="none"></path></g></g><g class="mark-group role-axis" role="graphics-symbol" aria-roledescription="axis" aria-label="X-axis titled 'Salience' for a discrete scale with 3 values: global, object, spatial"><g transform="translate(0.5,200.5)"><path class="background" aria-hidden="true" d="M0,0h0v0h0Z" pointer-events="none"></path><g><g class="mark-rule role-axis-tick" pointer-events="none"><line transform="translate(12,0)" x2="0" y2="5" stroke="#888" stroke-width="1" opacity="1"></line><line transform="translate(37,0)" x2="0" y2="5" stroke="#888" stroke-width="1" opacity="1"></line><line transform="translate(62,0)" x2="0" y2="5" stroke="#888" stroke-width="1" opacity="1"></line></g><g class="mark-text role-axis-label" pointer-events="none"><text text-anchor="end" transform="translate(12,7) rotate(315) translate(0,8)" font-family="sans-serif" font-size="10px" fill="#000" opacity="1">global</text><text text-anchor="end" transform="translate(37,7) rotate(315) translate(0,8)" font-family="sans-serif" font-size="10px" fill="#000" opacity="0">object</text><text text-anchor="end" transform="translate(62,7) rotate(315) translate(0,8)" font-family="sans-serif" font-size="10px" fill="#000" opacity="1">spatial</text></g><g class="mark-rule role-axis-domain" pointer-events="none"><line transform="translate(0,0)" x2="75" y2="0" stroke="#888" stroke-width="1" opacity="1"></line></g><g class="mark-text role-axis-title" pointer-events="none"><text text-anchor="middle" transform="translate(37.5,50.40559159102155)" font-family="sans-serif" font-size="11px" font-weight="bold" fill="#000" opacity="1">Salience</text></g></g><path class="foreground" aria-hidden="true" d="" pointer-events="none" display="none"></path></g></g><g class="mark-group role-axis" role="graphics-symbol" aria-roledescription="axis" aria-label="Y-axis titled 'Target - Non-target Correlation' for a linear scale with values from -0.1 to 0.3"><g transform="translate(0.5,0.5)"><path class="background" aria-hidden="true" d="M0,0h0v0h0Z" pointer-events="none"></path><g><g class="mark-rule role-axis-tick" pointer-events="none"><line transform="translate(0,175)" x2="-5" y2="0" stroke="#888" stroke-width="1" opacity="1"></line><line transform="translate(0,125)" x2="-5" y2="0" stroke="#888" stroke-width="1" opacity="1"></line><line transform="translate(0,75)" x2="-5" y2="0" stroke="#888" stroke-width="1" opacity="1"></line><line transform="translate(0,25)" x2="-5" y2="0" stroke="#888" stroke-width="1" opacity="1"></line></g><g class="mark-text role-axis-label" pointer-events="none"><text text-anchor="end" transform="translate(-7,178)" font-family="sans-serif" font-size="10px" fill="#000" opacity="1">-0.1</text><text text-anchor="end" transform="translate(-7,128)" font-family="sans-serif" font-size="10px" fill="#000" opacity="1">0.0</text><text text-anchor="end" transform="translate(-7,78)" font-family="sans-serif" font-size="10px" fill="#000" opacity="1">0.1</text><text text-anchor="end" transform="translate(-7,28.00000000000002)" font-family="sans-serif" font-size="10px" fill="#000" opacity="1">0.2</text></g><g class="mark-rule role-axis-domain" pointer-events="none"><line transform="translate(0,200)" x2="0" y2="-200" stroke="#888" stroke-width="1" opacity="1"></line></g><g class="mark-text role-axis-title" pointer-events="none"><text text-anchor="middle" transform="translate(-30,100) rotate(-90) translate(0,-2)" font-family="sans-serif" font-size="11px" font-weight="bold" fill="#000" opacity="1">Target - Non-target Correlation</text></g></g><path class="foreground" aria-hidden="true" d="" pointer-events="none" display="none"></path></g></g><g class="mark-symbol role-mark layer_0_layer_0_marks" role="graphics-object" aria-roledescription="symbol mark container"><path aria-label="condition: global; Salience: global; Mean of cordiff: 0.0737226440552" role="graphics-symbol" aria-roledescription="point" transform="translate(9.5,88.13867797240769)" d="M2.7386127875258306,0A2.7386127875258306,2.7386127875258306,0,1,1,-2.7386127875258306,0A2.7386127875258306,2.7386127875258306,0,1,1,2.7386127875258306,0" stroke="#0F3C5F" stroke-width="2"></path><path aria-label="condition: object; Salience: object; Mean of cordiff: 0.0976779184197" role="graphics-symbol" aria-roledescription="point" transform="translate(34.5,76.16104079014787)" d="M2.7386127875258306,0A2.7386127875258306,2.7386127875258306,0,1,1,-2.7386127875258306,0A2.7386127875258306,2.7386127875258306,0,1,1,2.7386127875258306,0" stroke="#687B3E" stroke-width="2"></path><path aria-label="condition: spatial; Salience: spatial; Mean of cordiff: 0.0385557272239" role="graphics-symbol" aria-roledescription="point" transform="translate(59.5,105.72213638802657)" d="M2.7386127875258306,0A2.7386127875258306,2.7386127875258306,0,1,1,-2.7386127875258306,0A2.7386127875258306,2.7386127875258306,0,1,1,2.7386127875258306,0" stroke="#EB9A60" stroke-width="2"></path></g><g class="mark-symbol role-mark layer_0_layer_1_marks" role="graphics-object" aria-roledescription="symbol mark container"><path aria-label="condition: global; Salience: global; Target - Non-target Correlation: 0.0469301271147" role="graphics-symbol" aria-roledescription="point" transform="translate(15.5,101.53493644265119)" d="M2.7386127875258306,0A2.7386127875258306,2.7386127875258306,0,1,1,-2.7386127875258306,0A2.7386127875258306,2.7386127875258306,0,1,1,2.7386127875258306,0" fill="#0F3C5F" stroke-width="2" opacity="0.7"></path><path aria-label="condition: object; Salience: object; Target - Non-target Correlation: 0.116786840507" role="graphics-symbol" aria-roledescription="point" transform="translate(40.5,66.60657974649125)" d="M2.7386127875258306,0A2.7386127875258306,2.7386127875258306,0,1,1,-2.7386127875258306,0A2.7386127875258306,2.7386127875258306,0,1,1,2.7386127875258306,0" fill="#687B3E" stroke-width="2" opacity="0.7"></path><path aria-label="condition: spatial; Salience: spatial; Target - Non-target Correlation: 0.104933991189" role="graphics-symbol" aria-roledescription="point" transform="translate(65.5,72.53300440550603)" d="M2.7386127875258306,0A2.7386127875258306,2.7386127875258306,0,1,1,-2.7386127875258306,0A2.7386127875258306,2.7386127875258306,0,1,1,2.7386127875258306,0" fill="#EB9A60" stroke-width="2" opacity="0.7"></path><path aria-label="condition: global; Salience: global; Target - Non-target Correlation: 0.0622286514407" role="graphics-symbol" aria-roledescription="point" transform="translate(15.5,93.8856742796508)" d="M2.7386127875258306,0A2.7386127875258306,2.7386127875258306,0,1,1,-2.7386127875258306,0A2.7386127875258306,2.7386127875258306,0,1,1,2.7386127875258306,0" fill="#0F3C5F" stroke-width="2" opacity="0.7"></path><path aria-label="condition: object; Salience: object; Target - Non-target Correlation: 0.0981115156523" role="graphics-symbol" aria-roledescription="point" transform="translate(40.5,75.94424217382954)" d="M2.7386127875258306,0A2.7386127875258306,2.7386127875258306,0,1,1,-2.7386127875258306,0A2.7386127875258306,2.7386127875258306,0,1,1,2.7386127875258306,0" fill="#687B3E" stroke-width="2" opacity="0.7"></path><path aria-label="condition: spatial; Salience: spatial; Target - Non-target Correlation: 0.0654854660385" role="graphics-symbol" aria-roledescription="point" transform="translate(65.5,92.25726698076)" d="M2.7386127875258306,0A2.7386127875258306,2.7386127875258306,0,1,1,-2.7386127875258306,0A2.7386127875258306,2.7386127875258306,0,1,1,2.7386127875258306,0" fill="#EB9A60" stroke-width="2" opacity="0.7"></path><path aria-label="condition: global; Salience: global; Target - Non-target Correlation: 0.0494852245634" role="graphics-symbol" aria-roledescription="point" transform="translate(15.5,100.2573877182916)" d="M2.7386127875258306,0A2.7386127875258306,2.7386127875258306,0,1,1,-2.7386127875258306,0A2.7386127875258306,2.7386127875258306,0,1,1,2.7386127875258306,0" fill="#0F3C5F" stroke-width="2" opacity="0.7"></path><path aria-label="condition: object; Salience: object; Target - Non-target Correlation: 0.0397628407452" role="graphics-symbol" aria-roledescription="point" transform="translate(40.5,105.11857962740456)" d="M2.7386127875258306,0A2.7386127875258306,2.7386127875258306,0,1,1,-2.7386127875258306,0A2.7386127875258306,2.7386127875258306,0,1,1,2.7386127875258306,0" fill="#687B3E" stroke-width="2" opacity="0.7"></path><path aria-label="condition: spatial; Salience: spatial; Target - Non-target Correlation: 0.0518097283315" role="graphics-symbol" aria-roledescription="point" transform="translate(65.5,99.09513583425138)" d="M2.7386127875258306,0A2.7386127875258306,2.7386127875258306,0,1,1,-2.7386127875258306,0A2.7386127875258306,2.7386127875258306,0,1,1,2.7386127875258306,0" fill="#EB9A60" stroke-width="2" opacity="0.7"></path><path aria-label="condition: global; Salience: global; Target - Non-target Correlation: 0.0961548275228" role="graphics-symbol" aria-roledescription="point" transform="translate(15.5,76.92258623858991)" d="M2.7386127875258306,0A2.7386127875258306,2.7386127875258306,0,1,1,-2.7386127875258306,0A2.7386127875258306,2.7386127875258306,0,1,1,2.7386127875258306,0" fill="#0F3C5F" stroke-width="2" opacity="0.7"></path><path aria-label="condition: object; Salience: object; Target - Non-target Correlation: 0.155109730704" role="graphics-symbol" aria-roledescription="point" transform="translate(40.5,47.44513464790383)" d="M2.7386127875258306,0A2.7386127875258306,2.7386127875258306,0,1,1,-2.7386127875258306,0A2.7386127875258306,2.7386127875258306,0,1,1,2.7386127875258306,0" fill="#687B3E" stroke-width="2" opacity="0.7"></path><path aria-label="condition: spatial; Salience: spatial; Target - Non-target Correlation: -0.0355842924884" role="graphics-symbol" aria-roledescription="point" transform="translate(65.5,142.79214624419393)" d="M2.7386127875258306,0A2.7386127875258306,2.7386127875258306,0,1,1,-2.7386127875258306,0A2.7386127875258306,2.7386127875258306,0,1,1,2.7386127875258306,0" fill="#EB9A60" stroke-width="2" opacity="0.7"></path><path aria-label="condition: global; Salience: global; Target - Non-target Correlation: 0.0411913645636" role="graphics-symbol" aria-roledescription="point" transform="translate(15.5,104.40431771819986)" d="M2.7386127875258306,0A2.7386127875258306,2.7386127875258306,0,1,1,-2.7386127875258306,0A2.7386127875258306,2.7386127875258306,0,1,1,2.7386127875258306,0" fill="#0F3C5F" stroke-width="2" opacity="0.7"></path><path aria-label="condition: object; Salience: object; Target - Non-target Correlation: 0.149503463389" role="graphics-symbol" aria-roledescription="point" transform="translate(40.5,50.248268305293294)" d="M2.7386127875258306,0A2.7386127875258306,2.7386127875258306,0,1,1,-2.7386127875258306,0A2.7386127875258306,2.7386127875258306,0,1,1,2.7386127875258306,0" fill="#687B3E" stroke-width="2" opacity="0.7"></path><path aria-label="condition: spatial; Salience: spatial; Target - Non-target Correlation: 0.0617919333316" role="graphics-symbol" aria-roledescription="point" transform="translate(65.5,94.10403333417894)" d="M2.7386127875258306,0A2.7386127875258306,2.7386127875258306,0,1,1,-2.7386127875258306,0A2.7386127875258306,2.7386127875258306,0,1,1,2.7386127875258306,0" fill="#EB9A60" stroke-width="2" opacity="0.7"></path><path aria-label="condition: global; Salience: global; Target - Non-target Correlation: 0.0544158574835" role="graphics-symbol" aria-roledescription="point" transform="translate(15.5,97.79207125825221)" d="M2.7386127875258306,0A2.7386127875258306,2.7386127875258306,0,1,1,-2.7386127875258306,0A2.7386127875258306,2.7386127875258306,0,1,1,2.7386127875258306,0" fill="#0F3C5F" stroke-width="2" opacity="0.7"></path><path aria-label="condition: object; Salience: object; Target - Non-target Correlation: 0.0490190396706" role="graphics-symbol" aria-roledescription="point" transform="translate(40.5,100.49048016470104)" d="M2.7386127875258306,0A2.7386127875258306,2.7386127875258306,0,1,1,-2.7386127875258306,0A2.7386127875258306,2.7386127875258306,0,1,1,2.7386127875258306,0" fill="#687B3E" stroke-width="2" opacity="0.7"></path><path aria-label="condition: spatial; Salience: spatial; Target - Non-target Correlation: 0.0384179623671" role="graphics-symbol" aria-roledescription="point" transform="translate(65.5,105.79101881646965)" d="M2.7386127875258306,0A2.7386127875258306,2.7386127875258306,0,1,1,-2.7386127875258306,0A2.7386127875258306,2.7386127875258306,0,1,1,2.7386127875258306,0" fill="#EB9A60" stroke-width="2" opacity="0.7"></path><path aria-label="condition: global; Salience: global; Target - Non-target Correlation: 0.0860334471154" role="graphics-symbol" aria-roledescription="point" transform="translate(15.5,81.98327644231856)" d="M2.7386127875258306,0A2.7386127875258306,2.7386127875258306,0,1,1,-2.7386127875258306,0A2.7386127875258306,2.7386127875258306,0,1,1,2.7386127875258306,0" fill="#0F3C5F" stroke-width="2" opacity="0.7"></path><path aria-label="condition: object; Salience: object; Target - Non-target Correlation: 0.107582483682" role="graphics-symbol" aria-roledescription="point" transform="translate(40.5,71.20875815883932)" d="M2.7386127875258306,0A2.7386127875258306,2.7386127875258306,0,1,1,-2.7386127875258306,0A2.7386127875258306,2.7386127875258306,0,1,1,2.7386127875258306,0" fill="#687B3E" stroke-width="2" opacity="0.7"></path><path aria-label="condition: spatial; Salience: spatial; Target - Non-target Correlation: 0.0691567123666" role="graphics-symbol" aria-roledescription="point" transform="translate(65.5,90.42164381672366)" d="M2.7386127875258306,0A2.7386127875258306,2.7386127875258306,0,1,1,-2.7386127875258306,0A2.7386127875258306,2.7386127875258306,0,1,1,2.7386127875258306,0" fill="#EB9A60" stroke-width="2" opacity="0.7"></path><path aria-label="condition: global; Salience: global; Target - Non-target Correlation: 0.119262842453" role="graphics-symbol" aria-roledescription="point" transform="translate(15.5,65.36857877360003)" d="M2.7386127875258306,0A2.7386127875258306,2.7386127875258306,0,1,1,-2.7386127875258306,0A2.7386127875258306,2.7386127875258306,0,1,1,2.7386127875258306,0" fill="#0F3C5F" stroke-width="2" opacity="0.7"></path><path aria-label="condition: object; Salience: object; Target - Non-target Correlation: 0.0880526800909" role="graphics-symbol" aria-roledescription="point" transform="translate(40.5,80.97365995454776)" d="M2.7386127875258306,0A2.7386127875258306,2.7386127875258306,0,1,1,-2.7386127875258306,0A2.7386127875258306,2.7386127875258306,0,1,1,2.7386127875258306,0" fill="#687B3E" stroke-width="2" opacity="0.7"></path><path aria-label="condition: spatial; Salience: spatial; Target - Non-target Correlation: -0.0411816138265" role="graphics-symbol" aria-roledescription="point" transform="translate(65.5,145.59080691326471)" d="M2.7386127875258306,0A2.7386127875258306,2.7386127875258306,0,1,1,-2.7386127875258306,0A2.7386127875258306,2.7386127875258306,0,1,1,2.7386127875258306,0" fill="#EB9A60" stroke-width="2" opacity="0.7"></path><path aria-label="condition: global; Salience: global; Target - Non-target Correlation: 0.0427119786072" role="graphics-symbol" aria-roledescription="point" transform="translate(15.5,103.64401069640539)" d="M2.7386127875258306,0A2.7386127875258306,2.7386127875258306,0,1,1,-2.7386127875258306,0A2.7386127875258306,2.7386127875258306,0,1,1,2.7386127875258306,0" fill="#0F3C5F" stroke-width="2" opacity="0.7"></path><path aria-label="condition: object; Salience: object; Target - Non-target Correlation: -0.00148684146184" role="graphics-symbol" aria-roledescription="point" transform="translate(40.5,125.74342073092042)" d="M2.7386127875258306,0A2.7386127875258306,2.7386127875258306,0,1,1,-2.7386127875258306,0A2.7386127875258306,2.7386127875258306,0,1,1,2.7386127875258306,0" fill="#687B3E" stroke-width="2" opacity="0.7"></path><path aria-label="condition: spatial; Salience: spatial; Target - Non-target Correlation: 0.0472571925226" role="graphics-symbol" aria-roledescription="point" transform="translate(65.5,101.37140373870336)" d="M2.7386127875258306,0A2.7386127875258306,2.7386127875258306,0,1,1,-2.7386127875258306,0A2.7386127875258306,2.7386127875258306,0,1,1,2.7386127875258306,0" fill="#EB9A60" stroke-width="2" opacity="0.7"></path><path aria-label="condition: global; Salience: global; Target - Non-target Correlation: 0.122650959762" role="graphics-symbol" aria-roledescription="point" transform="translate(15.5,63.67452011889196)" d="M2.7386127875258306,0A2.7386127875258306,2.7386127875258306,0,1,1,-2.7386127875258306,0A2.7386127875258306,2.7386127875258306,0,1,1,2.7386127875258306,0" fill="#0F3C5F" stroke-width="2" opacity="0.7"></path><path aria-label="condition: object; Salience: object; Target - Non-target Correlation: 0.144065347228" role="graphics-symbol" aria-roledescription="point" transform="translate(40.5,52.9673263860833)" d="M2.7386127875258306,0A2.7386127875258306,2.7386127875258306,0,1,1,-2.7386127875258306,0A2.7386127875258306,2.7386127875258306,0,1,1,2.7386127875258306,0" fill="#687B3E" stroke-width="2" opacity="0.7"></path><path aria-label="condition: spatial; Salience: spatial; Target - Non-target Correlation: 0.124409924998" role="graphics-symbol" aria-roledescription="point" transform="translate(65.5,62.7950375007863)" d="M2.7386127875258306,0A2.7386127875258306,2.7386127875258306,0,1,1,-2.7386127875258306,0A2.7386127875258306,2.7386127875258306,0,1,1,2.7386127875258306,0" fill="#EB9A60" stroke-width="2" opacity="0.7"></path><path aria-label="condition: global; Salience: global; Target - Non-target Correlation: 0.0422447992859" role="graphics-symbol" aria-roledescription="point" transform="translate(15.5,103.8776003570396)" d="M2.7386127875258306,0A2.7386127875258306,2.7386127875258306,0,1,1,-2.7386127875258306,0A2.7386127875258306,2.7386127875258306,0,1,1,2.7386127875258306,0" fill="#0F3C5F" stroke-width="2" opacity="0.7"></path><path aria-label="condition: object; Salience: object; Target - Non-target Correlation: 0.131514490161" role="graphics-symbol" aria-roledescription="point" transform="translate(40.5,59.24275491939828)" d="M2.7386127875258306,0A2.7386127875258306,2.7386127875258306,0,1,1,-2.7386127875258306,0A2.7386127875258306,2.7386127875258306,0,1,1,2.7386127875258306,0" fill="#687B3E" stroke-width="2" opacity="0.7"></path><path aria-label="condition: spatial; Salience: spatial; Target - Non-target Correlation: 0.1153081733" role="graphics-symbol" aria-roledescription="point" transform="translate(65.5,67.34591335022337)" d="M2.7386127875258306,0A2.7386127875258306,2.7386127875258306,0,1,1,-2.7386127875258306,0A2.7386127875258306,2.7386127875258306,0,1,1,2.7386127875258306,0" fill="#EB9A60" stroke-width="2" opacity="0.7"></path><path aria-label="condition: global; Salience: global; Target - Non-target Correlation: 0.108189860398" role="graphics-symbol" aria-roledescription="point" transform="translate(15.5,70.90506980086577)" d="M2.7386127875258306,0A2.7386127875258306,2.7386127875258306,0,1,1,-2.7386127875258306,0A2.7386127875258306,2.7386127875258306,0,1,1,2.7386127875258306,0" fill="#0F3C5F" stroke-width="2" opacity="0.7"></path><path aria-label="condition: object; Salience: object; Target - Non-target Correlation: 0.0559560868194" role="graphics-symbol" aria-roledescription="point" transform="translate(40.5,97.02195659028068)" d="M2.7386127875258306,0A2.7386127875258306,2.7386127875258306,0,1,1,-2.7386127875258306,0A2.7386127875258306,2.7386127875258306,0,1,1,2.7386127875258306,0" fill="#687B3E" stroke-width="2" opacity="0.7"></path><path aria-label="condition: spatial; Salience: spatial; Target - Non-target Correlation: -0.077141774262" role="graphics-symbol" aria-roledescription="point" transform="translate(65.5,163.57088713099)" d="M2.7386127875258306,0A2.7386127875258306,2.7386127875258306,0,1,1,-2.7386127875258306,0A2.7386127875258306,2.7386127875258306,0,1,1,2.7386127875258306,0" fill="#EB9A60" stroke-width="2" opacity="0.7"></path><path aria-label="condition: global; Salience: global; Target - Non-target Correlation: 0.0516054936161" role="graphics-symbol" aria-roledescription="point" transform="translate(15.5,99.19725319195783)" d="M2.7386127875258306,0A2.7386127875258306,2.7386127875258306,0,1,1,-2.7386127875258306,0A2.7386127875258306,2.7386127875258306,0,1,1,2.7386127875258306,0" fill="#0F3C5F" stroke-width="2" opacity="0.7"></path><path aria-label="condition: object; Salience: object; Target - Non-target Correlation: 0.0999953691432" role="graphics-symbol" aria-roledescription="point" transform="translate(40.5,75.00231542839128)" d="M2.7386127875258306,0A2.7386127875258306,2.7386127875258306,0,1,1,-2.7386127875258306,0A2.7386127875258306,2.7386127875258306,0,1,1,2.7386127875258306,0" fill="#687B3E" stroke-width="2" opacity="0.7"></path><path aria-label="condition: spatial; Salience: spatial; Target - Non-target Correlation: -0.0606535159129" role="graphics-symbol" aria-roledescription="point" transform="translate(65.5,155.32675795644587)" d="M2.7386127875258306,0A2.7386127875258306,2.7386127875258306,0,1,1,-2.7386127875258306,0A2.7386127875258306,2.7386127875258306,0,1,1,2.7386127875258306,0" fill="#EB9A60" stroke-width="2" opacity="0.7"></path><path aria-label="condition: global; Salience: global; Target - Non-target Correlation: 0.0811678311963" role="graphics-symbol" aria-roledescription="point" transform="translate(15.5,84.4160844018695)" d="M2.7386127875258306,0A2.7386127875258306,2.7386127875258306,0,1,1,-2.7386127875258306,0A2.7386127875258306,2.7386127875258306,0,1,1,2.7386127875258306,0" fill="#0F3C5F" stroke-width="2" opacity="0.7"></path><path aria-label="condition: object; Salience: object; Target - Non-target Correlation: 0.143975139045" role="graphics-symbol" aria-roledescription="point" transform="translate(40.5,53.01243047741491)" d="M2.7386127875258306,0A2.7386127875258306,2.7386127875258306,0,1,1,-2.7386127875258306,0A2.7386127875258306,2.7386127875258306,0,1,1,2.7386127875258306,0" fill="#687B3E" stroke-width="2" opacity="0.7"></path><path aria-label="condition: spatial; Salience: spatial; Target - Non-target Correlation: 0.10591161444" role="graphics-symbol" aria-roledescription="point" transform="translate(65.5,72.04419278017238)" d="M2.7386127875258306,0A2.7386127875258306,2.7386127875258306,0,1,1,-2.7386127875258306,0A2.7386127875258306,2.7386127875258306,0,1,1,2.7386127875258306,0" fill="#EB9A60" stroke-width="2" opacity="0.7"></path><path aria-label="condition: global; Salience: global; Target - Non-target Correlation: 0.100304711718" role="graphics-symbol" aria-roledescription="point" transform="translate(15.5,74.84764414102467)" d="M2.7386127875258306,0A2.7386127875258306,2.7386127875258306,0,1,1,-2.7386127875258306,0A2.7386127875258306,2.7386127875258306,0,1,1,2.7386127875258306,0" fill="#0F3C5F" stroke-width="2" opacity="0.7"></path><path aria-label="condition: object; Salience: object; Target - Non-target Correlation: 0.0738423621819" role="graphics-symbol" aria-roledescription="point" transform="translate(40.5,88.07881890906137)" d="M2.7386127875258306,0A2.7386127875258306,2.7386127875258306,0,1,1,-2.7386127875258306,0A2.7386127875258306,2.7386127875258306,0,1,1,2.7386127875258306,0" fill="#687B3E" stroke-width="2" opacity="0.7"></path><path aria-label="condition: spatial; Salience: spatial; Target - Non-target Correlation: 0.133783092187" role="graphics-symbol" aria-roledescription="point" transform="translate(65.5,58.10845390625254)" d="M2.7386127875258306,0A2.7386127875258306,2.7386127875258306,0,1,1,-2.7386127875258306,0A2.7386127875258306,2.7386127875258306,0,1,1,2.7386127875258306,0" fill="#EB9A60" stroke-width="2" opacity="0.7"></path><path aria-label="condition: global; Salience: global; Target - Non-target Correlation: 0.0686805145954" role="graphics-symbol" aria-roledescription="point" transform="translate(15.5,90.65974270227697)" d="M2.7386127875258306,0A2.7386127875258306,2.7386127875258306,0,1,1,-2.7386127875258306,0A2.7386127875258306,2.7386127875258306,0,1,1,2.7386127875258306,0" fill="#0F3C5F" stroke-width="2" opacity="0.7"></path><path aria-label="condition: object; Salience: object; Target - Non-target Correlation: 0.142705511963" role="graphics-symbol" aria-roledescription="point" transform="translate(40.5,53.64724401862284)" d="M2.7386127875258306,0A2.7386127875258306,2.7386127875258306,0,1,1,-2.7386127875258306,0A2.7386127875258306,2.7386127875258306,0,1,1,2.7386127875258306,0" fill="#687B3E" stroke-width="2" opacity="0.7"></path><path aria-label="condition: spatial; Salience: spatial; Target - Non-target Correlation: 0.0529319701603" role="graphics-symbol" aria-roledescription="point" transform="translate(65.5,98.53401491984002)" d="M2.7386127875258306,0A2.7386127875258306,2.7386127875258306,0,1,1,-2.7386127875258306,0A2.7386127875258306,2.7386127875258306,0,1,1,2.7386127875258306,0" fill="#EB9A60" stroke-width="2" opacity="0.7"></path><path aria-label="condition: global; Salience: global; Target - Non-target Correlation: 0.109314476588" role="graphics-symbol" aria-roledescription="point" transform="translate(15.5,70.34276170603442)" d="M2.7386127875258306,0A2.7386127875258306,2.7386127875258306,0,1,1,-2.7386127875258306,0A2.7386127875258306,2.7386127875258306,0,1,1,2.7386127875258306,0" fill="#0F3C5F" stroke-width="2" opacity="0.7"></path><path aria-label="condition: object; Salience: object; Target - Non-target Correlation: -0.0261490746751" role="graphics-symbol" aria-roledescription="point" transform="translate(40.5,138.07453733755685)" d="M2.7386127875258306,0A2.7386127875258306,2.7386127875258306,0,1,1,-2.7386127875258306,0A2.7386127875258306,2.7386127875258306,0,1,1,2.7386127875258306,0" fill="#687B3E" stroke-width="2" opacity="0.7"></path><path aria-label="condition: spatial; Salience: spatial; Target - Non-target Correlation: 0.00273241799169" role="graphics-symbol" aria-roledescription="point" transform="translate(65.5,123.63379100415719)" d="M2.7386127875258306,0A2.7386127875258306,2.7386127875258306,0,1,1,-2.7386127875258306,0A2.7386127875258306,2.7386127875258306,0,1,1,2.7386127875258306,0" fill="#EB9A60" stroke-width="2" opacity="0.7"></path><path aria-label="condition: global; Salience: global; Target - Non-target Correlation: 0.0581896319248" role="graphics-symbol" aria-roledescription="point" transform="translate(15.5,95.90518403761517)" d="M2.7386127875258306,0A2.7386127875258306,2.7386127875258306,0,1,1,-2.7386127875258306,0A2.7386127875258306,2.7386127875258306,0,1,1,2.7386127875258306,0" fill="#0F3C5F" stroke-width="2" opacity="0.7"></path><path aria-label="condition: object; Salience: object; Target - Non-target Correlation: 0.00684428995284" role="graphics-symbol" aria-roledescription="point" transform="translate(40.5,121.57785502358196)" d="M2.7386127875258306,0A2.7386127875258306,2.7386127875258306,0,1,1,-2.7386127875258306,0A2.7386127875258306,2.7386127875258306,0,1,1,2.7386127875258306,0" fill="#687B3E" stroke-width="2" opacity="0.7"></path><path aria-label="condition: spatial; Salience: spatial; Target - Non-target Correlation: 0.00541023165845" role="graphics-symbol" aria-roledescription="point" transform="translate(65.5,122.29488417077702)" d="M2.7386127875258306,0A2.7386127875258306,2.7386127875258306,0,1,1,-2.7386127875258306,0A2.7386127875258306,2.7386127875258306,0,1,1,2.7386127875258306,0" fill="#EB9A60" stroke-width="2" opacity="0.7"></path><path aria-label="condition: global; Salience: global; Target - Non-target Correlation: -0.0610675548031" role="graphics-symbol" aria-roledescription="point" transform="translate(15.5,155.53377740152507)" d="M2.7386127875258306,0A2.7386127875258306,2.7386127875258306,0,1,1,-2.7386127875258306,0A2.7386127875258306,2.7386127875258306,0,1,1,2.7386127875258306,0" fill="#0F3C5F" stroke-width="2" opacity="0.7"></path><path aria-label="condition: object; Salience: object; Target - Non-target Correlation: 0.110169423909" role="graphics-symbol" aria-roledescription="point" transform="translate(40.5,69.91528804541389)" d="M2.7386127875258306,0A2.7386127875258306,2.7386127875258306,0,1,1,-2.7386127875258306,0A2.7386127875258306,2.7386127875258306,0,1,1,2.7386127875258306,0" fill="#687B3E" stroke-width="2" opacity="0.7"></path><path aria-label="condition: spatial; Salience: spatial; Target - Non-target Correlation: -0.106087966109" role="graphics-symbol" aria-roledescription="point" transform="translate(65.5,178.04398305457275)" d="M2.7386127875258306,0A2.7386127875258306,2.7386127875258306,0,1,1,-2.7386127875258306,0A2.7386127875258306,2.7386127875258306,0,1,1,2.7386127875258306,0" fill="#EB9A60" stroke-width="2" opacity="0.7"></path><path aria-label="condition: global; Salience: global; Target - Non-target Correlation: 0.108197074717" role="graphics-symbol" aria-roledescription="point" transform="translate(15.5,70.90146264130352)" d="M2.7386127875258306,0A2.7386127875258306,2.7386127875258306,0,1,1,-2.7386127875258306,0A2.7386127875258306,2.7386127875258306,0,1,1,2.7386127875258306,0" fill="#0F3C5F" stroke-width="2" opacity="0.7"></path><path aria-label="condition: object; Salience: object; Target - Non-target Correlation: 0.0849746961216" role="graphics-symbol" aria-roledescription="point" transform="translate(40.5,82.51265193918185)" d="M2.7386127875258306,0A2.7386127875258306,2.7386127875258306,0,1,1,-2.7386127875258306,0A2.7386127875258306,2.7386127875258306,0,1,1,2.7386127875258306,0" fill="#687B3E" stroke-width="2" opacity="0.7"></path><path aria-label="condition: spatial; Salience: spatial; Target - Non-target Correlation: 0.10589876283" role="graphics-symbol" aria-roledescription="point" transform="translate(65.5,72.05061858498718)" d="M2.7386127875258306,0A2.7386127875258306,2.7386127875258306,0,1,1,-2.7386127875258306,0A2.7386127875258306,2.7386127875258306,0,1,1,2.7386127875258306,0" fill="#EB9A60" stroke-width="2" opacity="0.7"></path><path aria-label="condition: global; Salience: global; Target - Non-target Correlation: 0.105442920895" role="graphics-symbol" aria-roledescription="point" transform="translate(15.5,72.27853955263907)" d="M2.7386127875258306,0A2.7386127875258306,2.7386127875258306,0,1,1,-2.7386127875258306,0A2.7386127875258306,2.7386127875258306,0,1,1,2.7386127875258306,0" fill="#0F3C5F" stroke-width="2" opacity="0.7"></path><path aria-label="condition: object; Salience: object; Target - Non-target Correlation: 0.0215574365924" role="graphics-symbol" aria-roledescription="point" transform="translate(40.5,114.22128170380424)" d="M2.7386127875258306,0A2.7386127875258306,2.7386127875258306,0,1,1,-2.7386127875258306,0A2.7386127875258306,2.7386127875258306,0,1,1,2.7386127875258306,0" fill="#687B3E" stroke-width="2" opacity="0.7"></path><path aria-label="condition: spatial; Salience: spatial; Target - Non-target Correlation: -0.091989664947" role="graphics-symbol" aria-roledescription="point" transform="translate(65.5,170.9948324735161)" d="M2.7386127875258306,0A2.7386127875258306,2.7386127875258306,0,1,1,-2.7386127875258306,0A2.7386127875258306,2.7386127875258306,0,1,1,2.7386127875258306,0" fill="#EB9A60" stroke-width="2" opacity="0.7"></path><path aria-label="condition: global; Salience: global; Target - Non-target Correlation: 0.0901563726758" role="graphics-symbol" aria-roledescription="point" transform="translate(15.5,79.9218136620772)" d="M2.7386127875258306,0A2.7386127875258306,2.7386127875258306,0,1,1,-2.7386127875258306,0A2.7386127875258306,2.7386127875258306,0,1,1,2.7386127875258306,0" fill="#0F3C5F" stroke-width="2" opacity="0.7"></path><path aria-label="condition: object; Salience: object; Target - Non-target Correlation: 0.144949737577" role="graphics-symbol" aria-roledescription="point" transform="translate(40.5,52.52513121145712)" d="M2.7386127875258306,0A2.7386127875258306,2.7386127875258306,0,1,1,-2.7386127875258306,0A2.7386127875258306,2.7386127875258306,0,1,1,2.7386127875258306,0" fill="#687B3E" stroke-width="2" opacity="0.7"></path><path aria-label="condition: spatial; Salience: spatial; Target - Non-target Correlation: -0.00531785801573" role="graphics-symbol" aria-roledescription="point" transform="translate(65.5,127.65892900786704)" d="M2.7386127875258306,0A2.7386127875258306,2.7386127875258306,0,1,1,-2.7386127875258306,0A2.7386127875258306,2.7386127875258306,0,1,1,2.7386127875258306,0" fill="#EB9A60" stroke-width="2" opacity="0.7"></path><path aria-label="condition: global; Salience: global; Target - Non-target Correlation: 0.0765689798077" role="graphics-symbol" aria-roledescription="point" transform="translate(15.5,86.71551009616782)" d="M2.7386127875258306,0A2.7386127875258306,2.7386127875258306,0,1,1,-2.7386127875258306,0A2.7386127875258306,2.7386127875258306,0,1,1,2.7386127875258306,0" fill="#0F3C5F" stroke-width="2" opacity="0.7"></path><path aria-label="condition: object; Salience: object; Target - Non-target Correlation: 0.166260975301" role="graphics-symbol" aria-roledescription="point" transform="translate(40.5,41.869512349381786)" d="M2.7386127875258306,0A2.7386127875258306,2.7386127875258306,0,1,1,-2.7386127875258306,0A2.7386127875258306,2.7386127875258306,0,1,1,2.7386127875258306,0" fill="#687B3E" stroke-width="2" opacity="0.7"></path><path aria-label="condition: spatial; Salience: spatial; Target - Non-target Correlation: 0.240504242565" role="graphics-symbol" aria-roledescription="point" transform="translate(65.5,4.747878717429876)" d="M2.7386127875258306,0A2.7386127875258306,2.7386127875258306,0,1,1,-2.7386127875258306,0A2.7386127875258306,2.7386127875258306,0,1,1,2.7386127875258306,0" fill="#EB9A60" stroke-width="2" opacity="0.7"></path><path aria-label="condition: global; Salience: global; Target - Non-target Correlation: 0.109283064083" role="graphics-symbol" aria-roledescription="point" transform="translate(15.5,70.35846795853584)" d="M2.7386127875258306,0A2.7386127875258306,2.7386127875258306,0,1,1,-2.7386127875258306,0A2.7386127875258306,2.7386127875258306,0,1,1,2.7386127875258306,0" fill="#0F3C5F" stroke-width="2" opacity="0.7"></path><path aria-label="condition: object; Salience: object; Target - Non-target Correlation: 0.241166497772" role="graphics-symbol" aria-roledescription="point" transform="translate(40.5,4.416751113987516)" d="M2.7386127875258306,0A2.7386127875258306,2.7386127875258306,0,1,1,-2.7386127875258306,0A2.7386127875258306,2.7386127875258306,0,1,1,2.7386127875258306,0" fill="#687B3E" stroke-width="2" opacity="0.7"></path><path aria-label="condition: spatial; Salience: spatial; Target - Non-target Correlation: 0.0175507226589" role="graphics-symbol" aria-roledescription="point" transform="translate(65.5,116.2246386705679)" d="M2.7386127875258306,0A2.7386127875258306,2.7386127875258306,0,1,1,-2.7386127875258306,0A2.7386127875258306,2.7386127875258306,0,1,1,2.7386127875258306,0" fill="#EB9A60" stroke-width="2" opacity="0.7"></path></g><g class="mark-rule role-mark layer_0_layer_2_marks" role="graphics-object" aria-roledescription="rule mark container"><line aria-label="Salience: global; Ci0 of cordiff: 0.0579934097072; Ci1 of cordiff: 0.0884692078019" role="graphics-symbol" aria-roledescription="rule mark" transform="translate(9.5,96.00329514640242)" x2="0" y2="-15.237899047365062" stroke="black"></line><line aria-label="Salience: object; Ci0 of cordiff: 0.0750452651249; Ci1 of cordiff: 0.121175247161" role="graphics-symbol" aria-roledescription="rule mark" transform="translate(34.5,87.47736743754011)" x2="0" y2="-23.064991017851952" stroke="black"></line><line aria-label="Salience: spatial; Ci0 of cordiff: 0.00612302300202; Ci1 of cordiff: 0.0726161157745" role="graphics-symbol" aria-roledescription="rule mark" transform="translate(59.5,121.93848849898774)" x2="0" y2="-33.24654638624243" stroke="black"></line></g></g><path class="foreground" aria-hidden="true" d="" display="none"></path></g></g></g></svg>
