<?xml version="1.0" encoding="utf-8"?>
<!DOCTYPE svg PUBLIC "-//W3C//DTD SVG 1.1//EN" "http://www.w3.org/Graphics/SVG/1.1/DTD/svg11.dtd">
<svg class="marks" width="322" height="309" viewBox="0 0 322 309" version="1.1" xmlns="http://www.w3.org/2000/svg" xmlns:xlink="http://www.w3.org/1999/xlink"><rect width="322" height="309" fill="white"></rect><g fill="none" stroke-miterlimit="10" transform="translate(47,57)"><g class="mark-group role-frame root" role="graphics-object" aria-roledescription="group mark container"><g transform="translate(0,0)"><path class="background" aria-hidden="true" d="M0,0h0v0h0Z"></path><g><g class="mark-group role-column-title column-title" role="graphics-object" aria-roledescription="group mark container"><g transform="translate(135,-31)"><path class="background" aria-hidden="true" d="M0,0h0v0h0Z"></path><g><g class="mark-group role-title"><g transform="translate(0,-21)"><path class="background" aria-hidden="true" d="M0,0h0v0h0Z" pointer-events="none"></path><g><g class="mark-text role-title-text" role="graphics-symbol" aria-roledescription="title" aria-label="Title text 'condition'" pointer-events="none"><text text-anchor="middle" transform="translate(0,9)" font-family="sans-serif" font-size="11px" font-weight="bold" fill="#000" opacity="1">condition</text></g></g><path class="foreground" aria-hidden="true" d="" pointer-events="none" display="none"></path></g></g></g><path class="foreground" aria-hidden="true" d="" display="none"></path></g></g><g class="mark-group role-row-header row_header" role="graphics-object" aria-roledescription="group mark container"><g transform="translate(-1,0)"><path class="background" aria-hidden="true" d="M0,0h0v200h0Z"></path><g><g class="mark-group role-axis" role="graphics-symbol" aria-roledescription="axis" aria-label="Y-axis titled 'Target - Non-target Score' for a linear scale with values from -1.2 to 1.4"><g transform="translate(0.5,0.5)"><path class="background" aria-hidden="true" d="M0,0h0v0h0Z" pointer-events="none"></path><g><g class="mark-rule role-axis-tick" pointer-events="none"><line transform="translate(0,185)" x2="-5" y2="0" stroke="#888" stroke-width="1" opacity="1"></line><line transform="translate(0,146)" x2="-5" y2="0" stroke="#888" stroke-width="1" opacity="1"></line><line transform="translate(0,108)" x2="-5" y2="0" stroke="#888" stroke-width="1" opacity="1"></line><line transform="translate(0,69)" x2="-5" y2="0" stroke="#888" stroke-width="1" opacity="1"></line><line transform="translate(0,31)" x2="-5" y2="0" stroke="#888" stroke-width="1" opacity="1"></line></g><g class="mark-text role-axis-label" pointer-events="none"><text text-anchor="end" transform="translate(-7,187.6153846153846)" font-family="sans-serif" font-size="10px" fill="#000" opacity="1">-1.0</text><text text-anchor="end" transform="translate(-7,149.15384615384613)" font-family="sans-serif" font-size="10px" fill="#000" opacity="1">-0.5</text><text text-anchor="end" transform="translate(-7,110.6923076923077)" font-family="sans-serif" font-size="10px" fill="#000" opacity="1">0.0</text><text text-anchor="end" transform="translate(-7,72.23076923076921)" font-family="sans-serif" font-size="10px" fill="#000" opacity="1">0.5</text><text text-anchor="end" transform="translate(-7,33.76923076923073)" font-family="sans-serif" font-size="10px" fill="#000" opacity="1">1.0</text></g><g class="mark-rule role-axis-domain" pointer-events="none"><line transform="translate(0,200)" x2="0" y2="-200" stroke="#888" stroke-width="1" opacity="1"></line></g><g class="mark-text role-axis-title" pointer-events="none"><text text-anchor="middle" transform="translate(-30,100) rotate(-90) translate(0,-2)" font-family="sans-serif" font-size="11px" font-weight="bold" fill="#000" opacity="1">Target - Non-target Score</text></g></g><path class="foreground" aria-hidden="true" d="" pointer-events="none" display="none"></path></g></g></g><path class="foreground" aria-hidden="true" d="" display="none"></path></g></g><g class="mark-group role-column-header column_header" role="graphics-object" aria-roledescription="group mark container"><g transform="translate(0,-1)"><path class="background" aria-hidden="true" d="M0,0h75v0h-75Z"></path><g><g class="mark-group role-title"><g transform="translate(37.5,-20)"><path class="background" aria-hidden="true" d="M0,0h0v0h0Z" pointer-events="none"></path><g><g class="mark-text role-title-text" role="graphics-symbol" aria-roledescription="title" aria-label="Title text 'global'" pointer-events="none"><text text-anchor="middle" transform="translate(0,8)" font-family="sans-serif" font-size="10px" fill="#000" opacity="1">global</text></g></g><path class="foreground" aria-hidden="true" d="" pointer-events="none" display="none"></path></g></g></g><path class="foreground" aria-hidden="true" d="" display="none"></path></g><g transform="translate(97,-1)"><path class="background" aria-hidden="true" d="M0,0h75v0h-75Z"></path><g><g class="mark-group role-title"><g transform="translate(37.5,-20)"><path class="background" aria-hidden="true" d="M0,0h0v0h0Z" pointer-events="none"></path><g><g class="mark-text role-title-text" role="graphics-symbol" aria-roledescription="title" aria-label="Title text 'object'" pointer-events="none"><text text-anchor="middle" transform="translate(0,8)" font-family="sans-serif" font-size="10px" fill="#000" opacity="1">object</text></g></g><path class="foreground" aria-hidden="true" d="" pointer-events="none" display="none"></path></g></g></g><path class="foreground" aria-hidden="true" d="" display="none"></path></g><g transform="translate(194,-1)"><path class="background" aria-hidden="true" d="M0,0h75v0h-75Z"></path><g><g class="mark-group role-title"><g transform="translate(37.5,-20)"><path class="background" aria-hidden="true" d="M0,0h0v0h0Z" pointer-events="none"></path><g><g class="mark-text role-title-text" role="graphics-symbol" aria-roledescription="title" aria-label="Title text 'spatial'" pointer-events="none"><text text-anchor="middle" transform="translate(0,8)" font-family="sans-serif" font-size="10px" fill="#000" opacity="1">spatial</text></g></g><path class="foreground" aria-hidden="true" d="" pointer-events="none" display="none"></path></g></g></g><path class="foreground" aria-hidden="true" d="" display="none"></path></g></g><g class="mark-group role-column-footer column_footer" role="graphics-object" aria-roledescription="group mark container"><g transform="translate(0,201)"><path class="background" aria-hidden="true" d="M0,0h75v0h-75Z"></path><g><g class="mark-group role-axis" role="graphics-symbol" aria-roledescription="axis" aria-label="X-axis titled 'Salience' for a discrete scale with 2 values: Low, High"><g transform="translate(0.5,0.5)"><path class="background" aria-hidden="true" d="M0,0h0v0h0Z" pointer-events="none"></path><g><g class="mark-rule role-axis-tick" pointer-events="none"><line transform="translate(18,0)" x2="0" y2="5" stroke="#888" stroke-width="1" opacity="1"></line><line transform="translate(56,0)" x2="0" y2="5" stroke="#888" stroke-width="1" opacity="1"></line></g><g class="mark-text role-axis-label" pointer-events="none"><text text-anchor="end" transform="translate(18.25,7) rotate(315) translate(0,8)" font-family="sans-serif" font-size="10px" fill="#000" opacity="1">Low</text><text text-anchor="end" transform="translate(55.75,7) rotate(315) translate(0,8)" font-family="sans-serif" font-size="10px" fill="#000" opacity="1">High</text></g><g class="mark-rule role-axis-domain" pointer-events="none"><line transform="translate(0,0)" x2="75" y2="0" stroke="#888" stroke-width="1" opacity="1"></line></g><g class="mark-text role-axis-title" pointer-events="none"><text text-anchor="middle" transform="translate(37.5,43.33452377915607)" font-family="sans-serif" font-size="11px" font-weight="bold" fill="#000" opacity="1">Salience</text></g></g><path class="foreground" aria-hidden="true" d="" pointer-events="none" display="none"></path></g></g></g><path class="foreground" aria-hidden="true" d="" display="none"></path></g><g transform="translate(97,201)"><path class="background" aria-hidden="true" d="M0,0h75v0h-75Z"></path><g><g class="mark-group role-axis" role="graphics-symbol" aria-roledescription="axis" aria-label="X-axis titled 'Salience' for a discrete scale with 2 values: Low, High"><g transform="translate(0.5,0.5)"><path class="background" aria-hidden="true" d="M0,0h0v0h0Z" pointer-events="none"></path><g><g class="mark-rule role-axis-tick" pointer-events="none"><line transform="translate(18,0)" x2="0" y2="5" stroke="#888" stroke-width="1" opacity="1"></line><line transform="translate(56,0)" x2="0" y2="5" stroke="#888" stroke-width="1" opacity="1"></line></g><g class="mark-text role-axis-label" pointer-events="none"><text text-anchor="end" transform="translate(18.25,7) rotate(315) translate(0,8)" font-family="sans-serif" font-size="10px" fill="#000" opacity="1">Low</text><text text-anchor="end" transform="translate(55.75,7) rotate(315) translate(0,8)" font-family="sans-serif" font-size="10px" fill="#000" opacity="1">High</text></g><g class="mark-rule role-axis-domain" pointer-events="none"><line transform="translate(0,0)" x2="75" y2="0" stroke="#888" stroke-width="1" opacity="1"></line></g><g class="mark-text role-axis-title" pointer-events="none"><text text-anchor="middle" transform="translate(37.5,43.33452377915607)" font-family="sans-serif" font-size="11px" font-weight="bold" fill="#000" opacity="1">Salience</text></g></g><path class="foreground" aria-hidden="true" d="" pointer-events="none" display="none"></path></g></g></g><path class="foreground" aria-hidden="true" d="" display="none"></path></g><g transform="translate(194,201)"><path class="background" aria-hidden="true" d="M0,0h75v0h-75Z"></path><g><g class="mark-group role-axis" role="graphics-symbol" aria-roledescription="axis" aria-label="X-axis titled 'Salience' for a discrete scale with 2 values: Low, High"><g transform="translate(0.5,0.5)"><path class="background" aria-hidden="true" d="M0,0h0v0h0Z" pointer-events="none"></path><g><g class="mark-rule role-axis-tick" pointer-events="none"><line transform="translate(18,0)" x2="0" y2="5" stroke="#888" stroke-width="1" opacity="1"></line><line transform="translate(56,0)" x2="0" y2="5" stroke="#888" stroke-width="1" opacity="1"></line></g><g class="mark-text role-axis-label" pointer-events="none"><text text-anchor="end" transform="translate(18.25,7) rotate(315) translate(0,8)" font-family="sans-serif" font-size="10px" fill="#000" opacity="1">Low</text><text text-anchor="end" transform="translate(55.75,7) rotate(315) translate(0,8)" font-family="sans-serif" font-size="10px" fill="#000" opacity="1">High</text></g><g class="mark-rule role-axis-domain" pointer-events="none"><line transform="translate(0,0)" x2="75" y2="0" stroke="#888" stroke-width="1" opacity="1"></line></g><g class="mark-text role-axis-title" pointer-events="none"><text text-anchor="middle" transform="translate(37.5,43.33452377915607)" font-family="sans-serif" font-size="11px" font-weight="bold" fill="#000" opacity="1">Salience</text></g></g><path class="foreground" aria-hidden="true" d="" pointer-events="none" display="none"></path></g></g></g><path class="foreground" aria-hidden="true" d="" display="none"></path></g></g><g class="mark-group role-scope cell" role="graphics-object" aria-roledescription="group mark container"><g transform="translate(0,0)"><path class="background" aria-hidden="true" d="M0.5,0.5h75v200h-75Z" stroke="#ddd"></path><g><g class="mark-group role-axis" aria-hidden="true"><g transform="translate(0.5,0.5)"><path class="background" aria-hidden="true" d="M0,0h0v0h0Z" pointer-events="none"></path><g><g class="mark-rule role-axis-grid" pointer-events="none"><line transform="translate(0,185)" x2="75" y2="0" stroke="#ddd" stroke-width="1" opacity="1"></line><line transform="translate(0,146)" x2="75" y2="0" stroke="#ddd" stroke-width="1" opacity="1"></line><line transform="translate(0,108)" x2="75" y2="0" stroke="#ddd" stroke-width="1" opacity="1"></line><line transform="translate(0,69)" x2="75" y2="0" stroke="#ddd" stroke-width="1" opacity="1"></line><line transform="translate(0,31)" x2="75" y2="0" stroke="#ddd" stroke-width="1" opacity="1"></line></g></g><path class="foreground" aria-hidden="true" d="" pointer-events="none" display="none"></path></g></g><g class="mark-symbol role-mark child_layer_0_marks" role="graphics-object" aria-roledescription="symbol mark container"><path aria-label="target_salience: High; Salience: High; Mean of cordiff: 0.744680856667" role="graphics-symbol" aria-roledescription="point" transform="translate(53.25,50.40916487179488)" d="M2.7386127875258306,0A2.7386127875258306,2.7386127875258306,0,1,1,-2.7386127875258306,0A2.7386127875258306,2.7386127875258306,0,1,1,2.7386127875258306,0" stroke="#687B3E" stroke-width="2"></path><path aria-label="target_salience: Low; Salience: Low; Mean of cordiff: 0.18469146125" role="graphics-symbol" aria-roledescription="point" transform="translate(15.75,93.48527221153846)" d="M2.7386127875258306,0A2.7386127875258306,2.7386127875258306,0,1,1,-2.7386127875258306,0A2.7386127875258306,2.7386127875258306,0,1,1,2.7386127875258306,0" stroke="#0F3C5F" stroke-width="2"></path></g><g class="mark-symbol role-mark child_layer_1_marks" role="graphics-object" aria-roledescription="symbol mark container"><path aria-label="target_salience: High; Salience: High; Target - Non-target Score: 0.5852657" role="graphics-symbol" aria-roledescription="point" transform="translate(59.25,62.67186923076922)" d="M2.7386127875258306,0A2.7386127875258306,2.7386127875258306,0,1,1,-2.7386127875258306,0A2.7386127875258306,2.7386127875258306,0,1,1,2.7386127875258306,0" fill="#687B3E" stroke-width="2" opacity="0.7"></path><path aria-label="target_salience: Low; Salience: Low; Target - Non-target Score: -0.06587205" role="graphics-symbol" aria-roledescription="point" transform="translate(21.75,112.75938846153846)" d="M2.7386127875258306,0A2.7386127875258306,2.7386127875258306,0,1,1,-2.7386127875258306,0A2.7386127875258306,2.7386127875258306,0,1,1,2.7386127875258306,0" fill="#0F3C5F" stroke-width="2" opacity="0.7"></path><path aria-label="target_salience: High; Salience: High; Target - Non-target Score: 0.7550535" role="graphics-symbol" aria-roledescription="point" transform="translate(59.25,49.61126923076922)" d="M2.7386127875258306,0A2.7386127875258306,2.7386127875258306,0,1,1,-2.7386127875258306,0A2.7386127875258306,2.7386127875258306,0,1,1,2.7386127875258306,0" fill="#687B3E" stroke-width="2" opacity="0.7"></path><path aria-label="target_salience: Low; Salience: Low; Target - Non-target Score: 0.18890761" role="graphics-symbol" aria-roledescription="point" transform="translate(21.75,93.16095307692306)" d="M2.7386127875258306,0A2.7386127875258306,2.7386127875258306,0,1,1,-2.7386127875258306,0A2.7386127875258306,2.7386127875258306,0,1,1,2.7386127875258306,0" fill="#0F3C5F" stroke-width="2" opacity="0.7"></path><path aria-label="target_salience: High; Salience: High; Target - Non-target Score: 0.8364159" role="graphics-symbol" aria-roledescription="point" transform="translate(59.25,43.35262307692307)" d="M2.7386127875258306,0A2.7386127875258306,2.7386127875258306,0,1,1,-2.7386127875258306,0A2.7386127875258306,2.7386127875258306,0,1,1,2.7386127875258306,0" fill="#687B3E" stroke-width="2" opacity="0.7"></path><path aria-label="target_salience: Low; Salience: Low; Target - Non-target Score: 0.33264327" role="graphics-symbol" aria-roledescription="point" transform="translate(21.75,82.10436384615384)" d="M2.7386127875258306,0A2.7386127875258306,2.7386127875258306,0,1,1,-2.7386127875258306,0A2.7386127875258306,2.7386127875258306,0,1,1,2.7386127875258306,0" fill="#0F3C5F" stroke-width="2" opacity="0.7"></path><path aria-label="target_salience: Low; Salience: Low; Target - Non-target Score: 0.14488108" role="graphics-symbol" aria-roledescription="point" transform="translate(21.75,96.54760923076921)" d="M2.7386127875258306,0A2.7386127875258306,2.7386127875258306,0,1,1,-2.7386127875258306,0A2.7386127875258306,2.7386127875258306,0,1,1,2.7386127875258306,0" fill="#0F3C5F" stroke-width="2" opacity="0.7"></path><path aria-label="target_salience: High; Salience: High; Target - Non-target Score: 0.8007775" role="graphics-symbol" aria-roledescription="point" transform="translate(59.25,46.09403846153845)" d="M2.7386127875258306,0A2.7386127875258306,2.7386127875258306,0,1,1,-2.7386127875258306,0A2.7386127875258306,2.7386127875258306,0,1,1,2.7386127875258306,0" fill="#687B3E" stroke-width="2" opacity="0.7"></path><path aria-label="target_salience: Low; Salience: Low; Target - Non-target Score: 0.27298418" role="graphics-symbol" aria-roledescription="point" transform="translate(21.75,86.6935246153846)" d="M2.7386127875258306,0A2.7386127875258306,2.7386127875258306,0,1,1,-2.7386127875258306,0A2.7386127875258306,2.7386127875258306,0,1,1,2.7386127875258306,0" fill="#0F3C5F" stroke-width="2" opacity="0.7"></path><path aria-label="target_salience: High; Salience: High; Target - Non-target Score: 0.7032608" role="graphics-symbol" aria-roledescription="point" transform="translate(59.25,53.59532307692305)" d="M2.7386127875258306,0A2.7386127875258306,2.7386127875258306,0,1,1,-2.7386127875258306,0A2.7386127875258306,2.7386127875258306,0,1,1,2.7386127875258306,0" fill="#687B3E" stroke-width="2" opacity="0.7"></path><path aria-label="target_salience: High; Salience: High; Target - Non-target Score: 0.9634988" role="graphics-symbol" aria-roledescription="point" transform="translate(59.25,33.57701538461535)" d="M2.7386127875258306,0A2.7386127875258306,2.7386127875258306,0,1,1,-2.7386127875258306,0A2.7386127875258306,2.7386127875258306,0,1,1,2.7386127875258306,0" fill="#687B3E" stroke-width="2" opacity="0.7"></path><path aria-label="target_salience: Low; Salience: Low; Target - Non-target Score: 0.1944566" role="graphics-symbol" aria-roledescription="point" transform="translate(21.75,92.73410769230767)" d="M2.7386127875258306,0A2.7386127875258306,2.7386127875258306,0,1,1,-2.7386127875258306,0A2.7386127875258306,2.7386127875258306,0,1,1,2.7386127875258306,0" fill="#0F3C5F" stroke-width="2" opacity="0.7"></path><path aria-label="target_salience: High; Salience: High; Target - Non-target Score: 0.46991238" role="graphics-symbol" aria-roledescription="point" transform="translate(59.25,71.54520153846153)" d="M2.7386127875258306,0A2.7386127875258306,2.7386127875258306,0,1,1,-2.7386127875258306,0A2.7386127875258306,2.7386127875258306,0,1,1,2.7386127875258306,0" fill="#687B3E" stroke-width="2" opacity="0.7"></path><path aria-label="target_salience: Low; Salience: Low; Target - Non-target Score: 0.010277124" role="graphics-symbol" aria-roledescription="point" transform="translate(21.75,106.90175969230768)" d="M2.7386127875258306,0A2.7386127875258306,2.7386127875258306,0,1,1,-2.7386127875258306,0A2.7386127875258306,2.7386127875258306,0,1,1,2.7386127875258306,0" fill="#0F3C5F" stroke-width="2" opacity="0.7"></path><path aria-label="target_salience: High; Salience: High; Target - Non-target Score: 0.9521106" role="graphics-symbol" aria-roledescription="point" transform="translate(59.25,34.453030769230764)" d="M2.7386127875258306,0A2.7386127875258306,2.7386127875258306,0,1,1,-2.7386127875258306,0A2.7386127875258306,2.7386127875258306,0,1,1,2.7386127875258306,0" fill="#687B3E" stroke-width="2" opacity="0.7"></path><path aria-label="target_salience: Low; Salience: Low; Target - Non-target Score: 0.030130751" role="graphics-symbol" aria-roledescription="point" transform="translate(21.75,105.37455761538462)" d="M2.7386127875258306,0A2.7386127875258306,2.7386127875258306,0,1,1,-2.7386127875258306,0A2.7386127875258306,2.7386127875258306,0,1,1,2.7386127875258306,0" fill="#0F3C5F" stroke-width="2" opacity="0.7"></path><path aria-label="target_salience: High; Salience: High; Target - Non-target Score: 0.6569007" role="graphics-symbol" aria-roledescription="point" transform="translate(59.25,57.161484615384595)" d="M2.7386127875258306,0A2.7386127875258306,2.7386127875258306,0,1,1,-2.7386127875258306,0A2.7386127875258306,2.7386127875258306,0,1,1,2.7386127875258306,0" fill="#687B3E" stroke-width="2" opacity="0.7"></path><path aria-label="target_salience: Low; Salience: Low; Target - Non-target Score: 0.30137944" role="graphics-symbol" aria-roledescription="point" transform="translate(21.75,84.50927384615383)" d="M2.7386127875258306,0A2.7386127875258306,2.7386127875258306,0,1,1,-2.7386127875258306,0A2.7386127875258306,2.7386127875258306,0,1,1,2.7386127875258306,0" fill="#0F3C5F" stroke-width="2" opacity="0.7"></path><path aria-label="target_salience: Low; Salience: Low; Target - Non-target Score: 0.1646111" role="graphics-symbol" aria-roledescription="point" transform="translate(21.75,95.02991538461538)" d="M2.7386127875258306,0A2.7386127875258306,2.7386127875258306,0,1,1,-2.7386127875258306,0A2.7386127875258306,2.7386127875258306,0,1,1,2.7386127875258306,0" fill="#0F3C5F" stroke-width="2" opacity="0.7"></path><path aria-label="target_salience: High; Salience: High; Target - Non-target Score: 0.5386695" role="graphics-symbol" aria-roledescription="point" transform="translate(59.25,66.2561923076923)" d="M2.7386127875258306,0A2.7386127875258306,2.7386127875258306,0,1,1,-2.7386127875258306,0A2.7386127875258306,2.7386127875258306,0,1,1,2.7386127875258306,0" fill="#687B3E" stroke-width="2" opacity="0.7"></path><path aria-label="target_salience: Low; Salience: Low; Target - Non-target Score: 0.3686789" role="graphics-symbol" aria-roledescription="point" transform="translate(21.75,79.33239230769229)" d="M2.7386127875258306,0A2.7386127875258306,2.7386127875258306,0,1,1,-2.7386127875258306,0A2.7386127875258306,2.7386127875258306,0,1,1,2.7386127875258306,0" fill="#0F3C5F" stroke-width="2" opacity="0.7"></path><path aria-label="target_salience: High; Salience: High; Target - Non-target Score: 0.92216986" role="graphics-symbol" aria-roledescription="point" transform="translate(59.25,36.75616461538458)" d="M2.7386127875258306,0A2.7386127875258306,2.7386127875258306,0,1,1,-2.7386127875258306,0A2.7386127875258306,2.7386127875258306,0,1,1,2.7386127875258306,0" fill="#687B3E" stroke-width="2" opacity="0.7"></path><path aria-label="target_salience: Low; Salience: Low; Target - Non-target Score: 0.27321953" role="graphics-symbol" aria-roledescription="point" transform="translate(21.75,86.67542076923075)" d="M2.7386127875258306,0A2.7386127875258306,2.7386127875258306,0,1,1,-2.7386127875258306,0A2.7386127875258306,2.7386127875258306,0,1,1,2.7386127875258306,0" fill="#0F3C5F" stroke-width="2" opacity="0.7"></path><path aria-label="target_salience: High; Salience: High; Target - Non-target Score: 0.75213504" role="graphics-symbol" aria-roledescription="point" transform="translate(59.25,49.83576615384613)" d="M2.7386127875258306,0A2.7386127875258306,2.7386127875258306,0,1,1,-2.7386127875258306,0A2.7386127875258306,2.7386127875258306,0,1,1,2.7386127875258306,0" fill="#687B3E" stroke-width="2" opacity="0.7"></path></g><g class="mark-rule role-mark child_layer_2_marks" role="graphics-object" aria-roledescription="rule mark container"><line aria-label="Salience: High; Ci0 of cordiff: 0.657638508292; Ci1 of cordiff: 0.828983615792" role="graphics-symbol" aria-roledescription="rule mark" transform="translate(53.25,57.10473013141024)" x2="0" y2="-13.180392884615387" stroke="black"></line><line aria-label="Salience: Low; Ci0 of cordiff: 0.103113118815; Ci1 of cordiff: 0.251933433792" role="graphics-symbol" aria-roledescription="rule mark" transform="translate(15.75,99.76052932195512)" x2="0" y2="-11.44771653669872" stroke="black"></line></g></g><path class="foreground" aria-hidden="true" d="" display="none"></path></g><g transform="translate(97,0)"><path class="background" aria-hidden="true" d="M0.5,0.5h75v200h-75Z" stroke="#ddd"></path><g><g class="mark-group role-axis" aria-hidden="true"><g transform="translate(0.5,0.5)"><path class="background" aria-hidden="true" d="M0,0h0v0h0Z" pointer-events="none"></path><g><g class="mark-rule role-axis-grid" pointer-events="none"><line transform="translate(0,185)" x2="75" y2="0" stroke="#ddd" stroke-width="1" opacity="1"></line><line transform="translate(0,146)" x2="75" y2="0" stroke="#ddd" stroke-width="1" opacity="1"></line><line transform="translate(0,108)" x2="75" y2="0" stroke="#ddd" stroke-width="1" opacity="1"></line><line transform="translate(0,69)" x2="75" y2="0" stroke="#ddd" stroke-width="1" opacity="1"></line><line transform="translate(0,31)" x2="75" y2="0" stroke="#ddd" stroke-width="1" opacity="1"></line></g></g><path class="foreground" aria-hidden="true" d="" pointer-events="none" display="none"></path></g></g><g class="mark-symbol role-mark child_layer_0_marks" role="graphics-object" aria-roledescription="symbol mark container"><path aria-label="target_salience: Low; Salience: Low; Mean of cordiff: 0.1596070525" role="graphics-symbol" aria-roledescription="point" transform="translate(15.75,95.4148421153846)" d="M2.7386127875258306,0A2.7386127875258306,2.7386127875258306,0,1,1,-2.7386127875258306,0A2.7386127875258306,2.7386127875258306,0,1,1,2.7386127875258306,0" stroke="#0F3C5F" stroke-width="2"></path><path aria-label="target_salience: High; Salience: High; Mean of cordiff: 0.746556773333" role="graphics-symbol" aria-roledescription="point" transform="translate(53.25,50.264863589743584)" d="M2.7386127875258306,0A2.7386127875258306,2.7386127875258306,0,1,1,-2.7386127875258306,0A2.7386127875258306,2.7386127875258306,0,1,1,2.7386127875258306,0" stroke="#687B3E" stroke-width="2"></path></g><g class="mark-symbol role-mark child_layer_1_marks" role="graphics-object" aria-roledescription="symbol mark container"><path aria-label="target_salience: Low; Salience: Low; Target - Non-target Score: 0.23699465" role="graphics-symbol" aria-roledescription="point" transform="translate(21.75,89.46194999999999)" d="M2.7386127875258306,0A2.7386127875258306,2.7386127875258306,0,1,1,-2.7386127875258306,0A2.7386127875258306,2.7386127875258306,0,1,1,2.7386127875258306,0" fill="#0F3C5F" stroke-width="2" opacity="0.7"></path><path aria-label="target_salience: High; Salience: High; Target - Non-target Score: 0.74804425" role="graphics-symbol" aria-roledescription="point" transform="translate(59.25,50.1504423076923)" d="M2.7386127875258306,0A2.7386127875258306,2.7386127875258306,0,1,1,-2.7386127875258306,0A2.7386127875258306,2.7386127875258306,0,1,1,2.7386127875258306,0" fill="#687B3E" stroke-width="2" opacity="0.7"></path><path aria-label="target_salience: High; Salience: High; Target - Non-target Score: 0.9190002" role="graphics-symbol" aria-roledescription="point" transform="translate(59.25,36.999984615384605)" d="M2.7386127875258306,0A2.7386127875258306,2.7386127875258306,0,1,1,-2.7386127875258306,0A2.7386127875258306,2.7386127875258306,0,1,1,2.7386127875258306,0" fill="#687B3E" stroke-width="2" opacity="0.7"></path><path aria-label="target_salience: Low; Salience: Low; Target - Non-target Score: 0.295387" role="graphics-symbol" aria-roledescription="point" transform="translate(21.75,84.97023076923075)" d="M2.7386127875258306,0A2.7386127875258306,2.7386127875258306,0,1,1,-2.7386127875258306,0A2.7386127875258306,2.7386127875258306,0,1,1,2.7386127875258306,0" fill="#0F3C5F" stroke-width="2" opacity="0.7"></path><path aria-label="target_salience: Low; Salience: Low; Target - Non-target Score: 0.35435975" role="graphics-symbol" aria-roledescription="point" transform="translate(21.75,80.43386538461536)" d="M2.7386127875258306,0A2.7386127875258306,2.7386127875258306,0,1,1,-2.7386127875258306,0A2.7386127875258306,2.7386127875258306,0,1,1,2.7386127875258306,0" fill="#0F3C5F" stroke-width="2" opacity="0.7"></path><path aria-label="target_salience: High; Salience: High; Target - Non-target Score: 0.7381121" role="graphics-symbol" aria-roledescription="point" transform="translate(59.25,50.914453846153805)" d="M2.7386127875258306,0A2.7386127875258306,2.7386127875258306,0,1,1,-2.7386127875258306,0A2.7386127875258306,2.7386127875258306,0,1,1,2.7386127875258306,0" fill="#687B3E" stroke-width="2" opacity="0.7"></path><path aria-label="target_salience: High; Salience: High; Target - Non-target Score: 0.67866296" role="graphics-symbol" aria-roledescription="point" transform="translate(59.25,55.48746461538458)" d="M2.7386127875258306,0A2.7386127875258306,2.7386127875258306,0,1,1,-2.7386127875258306,0A2.7386127875258306,2.7386127875258306,0,1,1,2.7386127875258306,0" fill="#687B3E" stroke-width="2" opacity="0.7"></path><path aria-label="target_salience: Low; Salience: Low; Target - Non-target Score: 0.24766488" role="graphics-symbol" aria-roledescription="point" transform="translate(21.75,88.64116307692306)" d="M2.7386127875258306,0A2.7386127875258306,2.7386127875258306,0,1,1,-2.7386127875258306,0A2.7386127875258306,2.7386127875258306,0,1,1,2.7386127875258306,0" fill="#0F3C5F" stroke-width="2" opacity="0.7"></path><path aria-label="target_salience: High; Salience: High; Target - Non-target Score: 0.79497176" role="graphics-symbol" aria-roledescription="point" transform="translate(59.25,46.54063384615383)" d="M2.7386127875258306,0A2.7386127875258306,2.7386127875258306,0,1,1,-2.7386127875258306,0A2.7386127875258306,2.7386127875258306,0,1,1,2.7386127875258306,0" fill="#687B3E" stroke-width="2" opacity="0.7"></path><path aria-label="target_salience: Low; Salience: Low; Target - Non-target Score: 0.28807524" role="graphics-symbol" aria-roledescription="point" transform="translate(21.75,85.53267384615384)" d="M2.7386127875258306,0A2.7386127875258306,2.7386127875258306,0,1,1,-2.7386127875258306,0A2.7386127875258306,2.7386127875258306,0,1,1,2.7386127875258306,0" fill="#0F3C5F" stroke-width="2" opacity="0.7"></path><path aria-label="target_salience: Low; Salience: Low; Target - Non-target Score: 0.49193862" role="graphics-symbol" aria-roledescription="point" transform="translate(21.75,69.85087538461536)" d="M2.7386127875258306,0A2.7386127875258306,2.7386127875258306,0,1,1,-2.7386127875258306,0A2.7386127875258306,2.7386127875258306,0,1,1,2.7386127875258306,0" fill="#0F3C5F" stroke-width="2" opacity="0.7"></path><path aria-label="target_salience: High; Salience: High; Target - Non-target Score: 0.6857563" role="graphics-symbol" aria-roledescription="point" transform="translate(59.25,54.94182307692306)" d="M2.7386127875258306,0A2.7386127875258306,2.7386127875258306,0,1,1,-2.7386127875258306,0A2.7386127875258306,2.7386127875258306,0,1,1,2.7386127875258306,0" fill="#687B3E" stroke-width="2" opacity="0.7"></path><path aria-label="target_salience: High; Salience: High; Target - Non-target Score: 0.6931174" role="graphics-symbol" aria-roledescription="point" transform="translate(59.25,54.37558461538461)" d="M2.7386127875258306,0A2.7386127875258306,2.7386127875258306,0,1,1,-2.7386127875258306,0A2.7386127875258306,2.7386127875258306,0,1,1,2.7386127875258306,0" fill="#687B3E" stroke-width="2" opacity="0.7"></path><path aria-label="target_salience: Low; Salience: Low; Target - Non-target Score: 0.06964461" role="graphics-symbol" aria-roledescription="point" transform="translate(21.75,102.33502999999999)" d="M2.7386127875258306,0A2.7386127875258306,2.7386127875258306,0,1,1,-2.7386127875258306,0A2.7386127875258306,2.7386127875258306,0,1,1,2.7386127875258306,0" fill="#0F3C5F" stroke-width="2" opacity="0.7"></path><path aria-label="target_salience: Low; Salience: Low; Target - Non-target Score: 0.22220664" role="graphics-symbol" aria-roledescription="point" transform="translate(21.75,90.59948923076921)" d="M2.7386127875258306,0A2.7386127875258306,2.7386127875258306,0,1,1,-2.7386127875258306,0A2.7386127875258306,2.7386127875258306,0,1,1,2.7386127875258306,0" fill="#0F3C5F" stroke-width="2" opacity="0.7"></path><path aria-label="target_salience: High; Salience: High; Target - Non-target Score: 0.7012657" role="graphics-symbol" aria-roledescription="point" transform="translate(59.25,53.7487923076923)" d="M2.7386127875258306,0A2.7386127875258306,2.7386127875258306,0,1,1,-2.7386127875258306,0A2.7386127875258306,2.7386127875258306,0,1,1,2.7386127875258306,0" fill="#687B3E" stroke-width="2" opacity="0.7"></path><path aria-label="target_salience: High; Salience: High; Target - Non-target Score: 0.7659626" role="graphics-symbol" aria-roledescription="point" transform="translate(59.25,48.772107692307664)" d="M2.7386127875258306,0A2.7386127875258306,2.7386127875258306,0,1,1,-2.7386127875258306,0A2.7386127875258306,2.7386127875258306,0,1,1,2.7386127875258306,0" fill="#687B3E" stroke-width="2" opacity="0.7"></path><path aria-label="target_salience: Low; Salience: Low; Target - Non-target Score: -0.91627103" role="graphics-symbol" aria-roledescription="point" transform="translate(21.75,178.17469461538462)" d="M2.7386127875258306,0A2.7386127875258306,2.7386127875258306,0,1,1,-2.7386127875258306,0A2.7386127875258306,2.7386127875258306,0,1,1,2.7386127875258306,0" fill="#0F3C5F" stroke-width="2" opacity="0.7"></path><path aria-label="target_salience: Low; Salience: Low; Target - Non-target Score: 0.1435878" role="graphics-symbol" aria-roledescription="point" transform="translate(21.75,96.6470923076923)" d="M2.7386127875258306,0A2.7386127875258306,2.7386127875258306,0,1,1,-2.7386127875258306,0A2.7386127875258306,2.7386127875258306,0,1,1,2.7386127875258306,0" fill="#0F3C5F" stroke-width="2" opacity="0.7"></path><path aria-label="target_salience: High; Salience: High; Target - Non-target Score: 0.70653313" role="graphics-symbol" aria-roledescription="point" transform="translate(59.25,53.34360538461538)" d="M2.7386127875258306,0A2.7386127875258306,2.7386127875258306,0,1,1,-2.7386127875258306,0A2.7386127875258306,2.7386127875258306,0,1,1,2.7386127875258306,0" fill="#687B3E" stroke-width="2" opacity="0.7"></path><path aria-label="target_salience: Low; Salience: Low; Target - Non-target Score: 0.26358056" role="graphics-symbol" aria-roledescription="point" transform="translate(21.75,87.41687999999999)" d="M2.7386127875258306,0A2.7386127875258306,2.7386127875258306,0,1,1,-2.7386127875258306,0A2.7386127875258306,2.7386127875258306,0,1,1,2.7386127875258306,0" fill="#0F3C5F" stroke-width="2" opacity="0.7"></path><path aria-label="target_salience: High; Salience: High; Target - Non-target Score: 0.75785494" role="graphics-symbol" aria-roledescription="point" transform="translate(59.25,49.39577384615384)" d="M2.7386127875258306,0A2.7386127875258306,2.7386127875258306,0,1,1,-2.7386127875258306,0A2.7386127875258306,2.7386127875258306,0,1,1,2.7386127875258306,0" fill="#687B3E" stroke-width="2" opacity="0.7"></path><path aria-label="target_salience: Low; Salience: Low; Target - Non-target Score: 0.21811591" role="graphics-symbol" aria-roledescription="point" transform="translate(21.75,90.91416076923076)" d="M2.7386127875258306,0A2.7386127875258306,2.7386127875258306,0,1,1,-2.7386127875258306,0A2.7386127875258306,2.7386127875258306,0,1,1,2.7386127875258306,0" fill="#0F3C5F" stroke-width="2" opacity="0.7"></path><path aria-label="target_salience: High; Salience: High; Target - Non-target Score: 0.76939994" role="graphics-symbol" aria-roledescription="point" transform="translate(59.25,48.50769692307691)" d="M2.7386127875258306,0A2.7386127875258306,2.7386127875258306,0,1,1,-2.7386127875258306,0A2.7386127875258306,2.7386127875258306,0,1,1,2.7386127875258306,0" fill="#687B3E" stroke-width="2" opacity="0.7"></path></g><g class="mark-rule role-mark child_layer_2_marks" role="graphics-object" aria-roledescription="rule mark container"><line aria-label="Salience: Low; Ci0 of cordiff: -0.0606603491875; Ci1 of cordiff: 0.299145305542" role="graphics-symbol" aria-roledescription="rule mark" transform="translate(15.75,112.35848839903846)" x2="0" y2="-27.67735805608976" stroke="black"></line><line aria-label="Salience: High; Ci0 of cordiff: 0.715927799083; Ci1 of cordiff: 0.783574000896" role="graphics-symbol" aria-roledescription="rule mark" transform="translate(53.25,52.620938532051255)" x2="0" y2="-5.203553985576903" stroke="black"></line></g></g><path class="foreground" aria-hidden="true" d="" display="none"></path></g><g transform="translate(194,0)"><path class="background" aria-hidden="true" d="M0.5,0.5h75v200h-75Z" stroke="#ddd"></path><g><g class="mark-group role-axis" aria-hidden="true"><g transform="translate(0.5,0.5)"><path class="background" aria-hidden="true" d="M0,0h0v0h0Z" pointer-events="none"></path><g><g class="mark-rule role-axis-grid" pointer-events="none"><line transform="translate(0,185)" x2="75" y2="0" stroke="#ddd" stroke-width="1" opacity="1"></line><line transform="translate(0,146)" x2="75" y2="0" stroke="#ddd" stroke-width="1" opacity="1"></line><line transform="translate(0,108)" x2="75" y2="0" stroke="#ddd" stroke-width="1" opacity="1"></line><line transform="translate(0,69)" x2="75" y2="0" stroke="#ddd" stroke-width="1" opacity="1"></line><line transform="translate(0,31)" x2="75" y2="0" stroke="#ddd" stroke-width="1" opacity="1"></line></g></g><path class="foreground" aria-hidden="true" d="" pointer-events="none" display="none"></path></g></g><g class="mark-symbol role-mark child_layer_0_marks" role="graphics-object" aria-roledescription="symbol mark container"><path aria-label="target_salience: High; Salience: High; Mean of cordiff: 0.410899811667" role="graphics-symbol" aria-roledescription="point" transform="translate(53.25,76.08462987179485)" d="M2.7386127875258306,0A2.7386127875258306,2.7386127875258306,0,1,1,-2.7386127875258306,0A2.7386127875258306,2.7386127875258306,0,1,1,2.7386127875258306,0" stroke="#687B3E" stroke-width="2"></path><path aria-label="target_salience: Low; Salience: Low; Mean of cordiff: 0.0566935528333" role="graphics-symbol" aria-roledescription="point" transform="translate(15.75,103.33126516666667)" d="M2.7386127875258306,0A2.7386127875258306,2.7386127875258306,0,1,1,-2.7386127875258306,0A2.7386127875258306,2.7386127875258306,0,1,1,2.7386127875258306,0" stroke="#0F3C5F" stroke-width="2"></path></g><g class="mark-symbol role-mark child_layer_1_marks" role="graphics-object" aria-roledescription="symbol mark container"><path aria-label="target_salience: High; Salience: High; Target - Non-target Score: 0.36458632" role="graphics-symbol" aria-roledescription="point" transform="translate(59.25,79.64720615384613)" d="M2.7386127875258306,0A2.7386127875258306,2.7386127875258306,0,1,1,-2.7386127875258306,0A2.7386127875258306,2.7386127875258306,0,1,1,2.7386127875258306,0" fill="#687B3E" stroke-width="2" opacity="0.7"></path><path aria-label="target_salience: Low; Salience: Low; Target - Non-target Score: 0.08564907" role="graphics-symbol" aria-roledescription="point" transform="translate(21.75,101.10391769230769)" d="M2.7386127875258306,0A2.7386127875258306,2.7386127875258306,0,1,1,-2.7386127875258306,0A2.7386127875258306,2.7386127875258306,0,1,1,2.7386127875258306,0" fill="#0F3C5F" stroke-width="2" opacity="0.7"></path><path aria-label="target_salience: Low; Salience: Low; Target - Non-target Score: 0.54300636" role="graphics-symbol" aria-roledescription="point" transform="translate(21.75,65.92258769230767)" d="M2.7386127875258306,0A2.7386127875258306,2.7386127875258306,0,1,1,-2.7386127875258306,0A2.7386127875258306,2.7386127875258306,0,1,1,2.7386127875258306,0" fill="#0F3C5F" stroke-width="2" opacity="0.7"></path><path aria-label="target_salience: High; Salience: High; Target - Non-target Score: 0.85205984" role="graphics-symbol" aria-roledescription="point" transform="translate(59.25,42.14924307692305)" d="M2.7386127875258306,0A2.7386127875258306,2.7386127875258306,0,1,1,-2.7386127875258306,0A2.7386127875258306,2.7386127875258306,0,1,1,2.7386127875258306,0" fill="#687B3E" stroke-width="2" opacity="0.7"></path><path aria-label="target_salience: High; Salience: High; Target - Non-target Score: 0.55625343" role="graphics-symbol" aria-roledescription="point" transform="translate(59.25,64.90358230769229)" d="M2.7386127875258306,0A2.7386127875258306,2.7386127875258306,0,1,1,-2.7386127875258306,0A2.7386127875258306,2.7386127875258306,0,1,1,2.7386127875258306,0" fill="#687B3E" stroke-width="2" opacity="0.7"></path><path aria-label="target_salience: Low; Salience: Low; Target - Non-target Score: 0.111726366" role="graphics-symbol" aria-roledescription="point" transform="translate(21.75,99.09797184615383)" d="M2.7386127875258306,0A2.7386127875258306,2.7386127875258306,0,1,1,-2.7386127875258306,0A2.7386127875258306,2.7386127875258306,0,1,1,2.7386127875258306,0" fill="#0F3C5F" stroke-width="2" opacity="0.7"></path><path aria-label="target_salience: Low; Salience: Low; Target - Non-target Score: -1.1503112" role="graphics-symbol" aria-roledescription="point" transform="translate(21.75,196.1777846153846)" d="M2.7386127875258306,0A2.7386127875258306,2.7386127875258306,0,1,1,-2.7386127875258306,0A2.7386127875258306,2.7386127875258306,0,1,1,2.7386127875258306,0" fill="#0F3C5F" stroke-width="2" opacity="0.7"></path><path aria-label="target_salience: High; Salience: High; Target - Non-target Score: -0.31213218" role="graphics-symbol" aria-roledescription="point" transform="translate(59.25,131.70247538461538)" d="M2.7386127875258306,0A2.7386127875258306,2.7386127875258306,0,1,1,-2.7386127875258306,0A2.7386127875258306,2.7386127875258306,0,1,1,2.7386127875258306,0" fill="#687B3E" stroke-width="2" opacity="0.7"></path><path aria-label="target_salience: Low; Salience: Low; Target - Non-target Score: 0.70983046" role="graphics-symbol" aria-roledescription="point" transform="translate(21.75,53.0899646153846)" d="M2.7386127875258306,0A2.7386127875258306,2.7386127875258306,0,1,1,-2.7386127875258306,0A2.7386127875258306,2.7386127875258306,0,1,1,2.7386127875258306,0" fill="#0F3C5F" stroke-width="2" opacity="0.7"></path><path aria-label="target_salience: High; Salience: High; Target - Non-target Score: 0.15482484" role="graphics-symbol" aria-roledescription="point" transform="translate(59.25,95.7827046153846)" d="M2.7386127875258306,0A2.7386127875258306,2.7386127875258306,0,1,1,-2.7386127875258306,0A2.7386127875258306,2.7386127875258306,0,1,1,2.7386127875258306,0" fill="#687B3E" stroke-width="2" opacity="0.7"></path><path aria-label="target_salience: Low; Salience: Low; Target - Non-target Score: 0.014383048" role="graphics-symbol" aria-roledescription="point" transform="translate(21.75,106.5859193846154)" d="M2.7386127875258306,0A2.7386127875258306,2.7386127875258306,0,1,1,-2.7386127875258306,0A2.7386127875258306,2.7386127875258306,0,1,1,2.7386127875258306,0" fill="#0F3C5F" stroke-width="2" opacity="0.7"></path><path aria-label="target_salience: High; Salience: High; Target - Non-target Score: 0.3789174" role="graphics-symbol" aria-roledescription="point" transform="translate(59.25,78.54481538461538)" d="M2.7386127875258306,0A2.7386127875258306,2.7386127875258306,0,1,1,-2.7386127875258306,0A2.7386127875258306,2.7386127875258306,0,1,1,2.7386127875258306,0" fill="#687B3E" stroke-width="2" opacity="0.7"></path><path aria-label="target_salience: High; Salience: High; Target - Non-target Score: 0.46087652" role="graphics-symbol" aria-roledescription="point" transform="translate(59.25,72.24026769230767)" d="M2.7386127875258306,0A2.7386127875258306,2.7386127875258306,0,1,1,-2.7386127875258306,0A2.7386127875258306,2.7386127875258306,0,1,1,2.7386127875258306,0" fill="#687B3E" stroke-width="2" opacity="0.7"></path><path aria-label="target_salience: Low; Salience: Low; Target - Non-target Score: 0.2907895" role="graphics-symbol" aria-roledescription="point" transform="translate(21.75,85.3238846153846)" d="M2.7386127875258306,0A2.7386127875258306,2.7386127875258306,0,1,1,-2.7386127875258306,0A2.7386127875258306,2.7386127875258306,0,1,1,2.7386127875258306,0" fill="#0F3C5F" stroke-width="2" opacity="0.7"></path><path aria-label="target_salience: Low; Salience: Low; Target - Non-target Score: -0.51175356" role="graphics-symbol" aria-roledescription="point" transform="translate(21.75,147.05796615384617)" d="M2.7386127875258306,0A2.7386127875258306,2.7386127875258306,0,1,1,-2.7386127875258306,0A2.7386127875258306,2.7386127875258306,0,1,1,2.7386127875258306,0" fill="#0F3C5F" stroke-width="2" opacity="0.7"></path><path aria-label="target_salience: High; Salience: High; Target - Non-target Score: 1.2889482" role="graphics-symbol" aria-roledescription="point" transform="translate(59.25,8.542446153846118)" d="M2.7386127875258306,0A2.7386127875258306,2.7386127875258306,0,1,1,-2.7386127875258306,0A2.7386127875258306,2.7386127875258306,0,1,1,2.7386127875258306,0" fill="#687B3E" stroke-width="2" opacity="0.7"></path><path aria-label="target_salience: Low; Salience: Low; Target - Non-target Score: -0.14353307" role="graphics-symbol" aria-roledescription="point" transform="translate(21.75,118.73331307692308)" d="M2.7386127875258306,0A2.7386127875258306,2.7386127875258306,0,1,1,-2.7386127875258306,0A2.7386127875258306,2.7386127875258306,0,1,1,2.7386127875258306,0" fill="#0F3C5F" stroke-width="2" opacity="0.7"></path><path aria-label="target_salience: High; Salience: High; Target - Non-target Score: 0.39195505" role="graphics-symbol" aria-roledescription="point" transform="translate(59.25,77.54191923076922)" d="M2.7386127875258306,0A2.7386127875258306,2.7386127875258306,0,1,1,-2.7386127875258306,0A2.7386127875258306,2.7386127875258306,0,1,1,2.7386127875258306,0" fill="#687B3E" stroke-width="2" opacity="0.7"></path><path aria-label="target_salience: Low; Salience: Low; Target - Non-target Score: 0.0650695" role="graphics-symbol" aria-roledescription="point" transform="translate(21.75,102.68696153846153)" d="M2.7386127875258306,0A2.7386127875258306,2.7386127875258306,0,1,1,-2.7386127875258306,0A2.7386127875258306,2.7386127875258306,0,1,1,2.7386127875258306,0" fill="#0F3C5F" stroke-width="2" opacity="0.7"></path><path aria-label="target_salience: High; Salience: High; Target - Non-target Score: 0.1906083" role="graphics-symbol" aria-roledescription="point" transform="translate(59.25,93.03013076923075)" d="M2.7386127875258306,0A2.7386127875258306,2.7386127875258306,0,1,1,-2.7386127875258306,0A2.7386127875258306,2.7386127875258306,0,1,1,2.7386127875258306,0" fill="#687B3E" stroke-width="2" opacity="0.7"></path><path aria-label="target_salience: High; Salience: High; Target - Non-target Score: 0.50825006" role="graphics-symbol" aria-roledescription="point" transform="translate(59.25,68.59614923076921)" d="M2.7386127875258306,0A2.7386127875258306,2.7386127875258306,0,1,1,-2.7386127875258306,0A2.7386127875258306,2.7386127875258306,0,1,1,2.7386127875258306,0" fill="#687B3E" stroke-width="2" opacity="0.7"></path><path aria-label="target_salience: Low; Salience: Low; Target - Non-target Score: -0.69432414" role="graphics-symbol" aria-roledescription="point" transform="translate(21.75,161.10185692307692)" d="M2.7386127875258306,0A2.7386127875258306,2.7386127875258306,0,1,1,-2.7386127875258306,0A2.7386127875258306,2.7386127875258306,0,1,1,2.7386127875258306,0" fill="#0F3C5F" stroke-width="2" opacity="0.7"></path><path aria-label="target_salience: High; Salience: High; Target - Non-target Score: 0.09564996" role="graphics-symbol" aria-roledescription="point" transform="translate(59.25,100.33461846153844)" d="M2.7386127875258306,0A2.7386127875258306,2.7386127875258306,0,1,1,-2.7386127875258306,0A2.7386127875258306,2.7386127875258306,0,1,1,2.7386127875258306,0" fill="#687B3E" stroke-width="2" opacity="0.7"></path><path aria-label="target_salience: Low; Salience: Low; Target - Non-target Score: 1.3597903" role="graphics-symbol" aria-roledescription="point" transform="translate(21.75,3.093053846153815)" d="M2.7386127875258306,0A2.7386127875258306,2.7386127875258306,0,1,1,-2.7386127875258306,0A2.7386127875258306,2.7386127875258306,0,1,1,2.7386127875258306,0" fill="#0F3C5F" stroke-width="2" opacity="0.7"></path></g><g class="mark-rule role-mark child_layer_2_marks" role="graphics-object" aria-roledescription="rule mark container"><line aria-label="Salience: High; Ci0 of cordiff: 0.20164010425; Ci1 of cordiff: 0.6463979545" role="graphics-symbol" aria-roledescription="rule mark" transform="translate(53.25,92.18153044230768)" x2="0" y2="-34.212142326923086" stroke="black"></line><line aria-label="Salience: Low; Ci0 of cordiff: -0.299463069879; Ci1 of cordiff: 0.395004081283" role="graphics-symbol" aria-roledescription="rule mark" transform="translate(15.75,130.72792845224356)" x2="0" y2="-53.420550089423045" stroke="black"></line></g></g><path class="foreground" aria-hidden="true" d="" display="none"></path></g></g></g><path class="foreground" aria-hidden="true" d="" display="none"></path></g></g></g></svg>
