<?xml version="1.0" encoding="utf-8"?>
<!DOCTYPE svg PUBLIC "-//W3C//DTD SVG 1.1//EN" "http://www.w3.org/Graphics/SVG/1.1/DTD/svg11.dtd">
<svg class="marks" width="322" height="311" viewBox="0 0 322 311" version="1.1" xmlns="http://www.w3.org/2000/svg" xmlns:xlink="http://www.w3.org/1999/xlink"><rect width="322" height="311" fill="white"></rect><g fill="none" stroke-miterlimit="10" transform="translate(47,57)"><g class="mark-group role-frame root" role="graphics-object" aria-roledescription="group mark container"><g transform="translate(0,0)"><path class="background" aria-hidden="true" d="M0,0h0v0h0Z"></path><g><g class="mark-group role-column-title column-title" role="graphics-object" aria-roledescription="group mark container"><g transform="translate(135,-31)"><path class="background" aria-hidden="true" d="M0,0h0v0h0Z"></path><g><g class="mark-group role-title"><g transform="translate(0,-21)"><path class="background" aria-hidden="true" d="M0,0h0v0h0Z" pointer-events="none"></path><g><g class="mark-text role-title-text" role="graphics-symbol" aria-roledescription="title" aria-label="Title text 'condition'" pointer-events="none"><text text-anchor="middle" transform="translate(0,9)" font-family="sans-serif" font-size="11px" font-weight="bold" fill="#000" opacity="1">condition</text></g></g><path class="foreground" aria-hidden="true" d="" pointer-events="none" display="none"></path></g></g></g><path class="foreground" aria-hidden="true" d="" display="none"></path></g></g><g class="mark-group role-row-header row_header" role="graphics-object" aria-roledescription="group mark container"><g transform="translate(-1,0)"><path class="background" aria-hidden="true" d="M0,0h0v200h0Z"></path><g><g class="mark-group role-axis" role="graphics-symbol" aria-roledescription="axis" aria-label="Y-axis titled 'Target - Non-target Score' for a linear scale with values from -0.8 to 1.0"><g transform="translate(0.5,0.5)"><path class="background" aria-hidden="true" d="M0,0h0v0h0Z" pointer-events="none"></path><g><g class="mark-rule role-axis-tick" pointer-events="none"><line transform="translate(0,167)" x2="-5" y2="0" stroke="#888" stroke-width="1" opacity="1"></line><line transform="translate(0,111)" x2="-5" y2="0" stroke="#888" stroke-width="1" opacity="1"></line><line transform="translate(0,56)" x2="-5" y2="0" stroke="#888" stroke-width="1" opacity="1"></line><line transform="translate(0,0)" x2="-5" y2="0" stroke="#888" stroke-width="1" opacity="1"></line></g><g class="mark-text role-axis-label" pointer-events="none"><text text-anchor="end" transform="translate(-7,169.66666666666666)" font-family="sans-serif" font-size="10px" fill="#000" opacity="1">-0.5</text><text text-anchor="end" transform="translate(-7,114.11111111111111)" font-family="sans-serif" font-size="10px" fill="#000" opacity="1">0.0</text><text text-anchor="end" transform="translate(-7,58.55555555555556)" font-family="sans-serif" font-size="10px" fill="#000" opacity="1">0.5</text><text text-anchor="end" transform="translate(-7,3)" font-family="sans-serif" font-size="10px" fill="#000" opacity="1">1.0</text></g><g class="mark-rule role-axis-domain" pointer-events="none"><line transform="translate(0,200)" x2="0" y2="-200" stroke="#888" stroke-width="1" opacity="1"></line></g><g class="mark-text role-axis-title" pointer-events="none"><text text-anchor="middle" transform="translate(-30,100) rotate(-90) translate(0,-2)" font-family="sans-serif" font-size="11px" font-weight="bold" fill="#000" opacity="1">Target - Non-target Score</text></g></g><path class="foreground" aria-hidden="true" d="" pointer-events="none" display="none"></path></g></g></g><path class="foreground" aria-hidden="true" d="" display="none"></path></g></g><g class="mark-group role-column-header column_header" role="graphics-object" aria-roledescription="group mark container"><g transform="translate(0,-1)"><path class="background" aria-hidden="true" d="M0,0h75v0h-75Z"></path><g><g class="mark-group role-title"><g transform="translate(37.5,-20)"><path class="background" aria-hidden="true" d="M0,0h0v0h0Z" pointer-events="none"></path><g><g class="mark-text role-title-text" role="graphics-symbol" aria-roledescription="title" aria-label="Title text 'global'" pointer-events="none"><text text-anchor="middle" transform="translate(0,8)" font-family="sans-serif" font-size="10px" fill="#000" opacity="1">global</text></g></g><path class="foreground" aria-hidden="true" d="" pointer-events="none" display="none"></path></g></g></g><path class="foreground" aria-hidden="true" d="" display="none"></path></g><g transform="translate(97,-1)"><path class="background" aria-hidden="true" d="M0,0h75v0h-75Z"></path><g><g class="mark-group role-title"><g transform="translate(37.5,-20)"><path class="background" aria-hidden="true" d="M0,0h0v0h0Z" pointer-events="none"></path><g><g class="mark-text role-title-text" role="graphics-symbol" aria-roledescription="title" aria-label="Title text 'object'" pointer-events="none"><text text-anchor="middle" transform="translate(0,8)" font-family="sans-serif" font-size="10px" fill="#000" opacity="1">object</text></g></g><path class="foreground" aria-hidden="true" d="" pointer-events="none" display="none"></path></g></g></g><path class="foreground" aria-hidden="true" d="" display="none"></path></g><g transform="translate(194,-1)"><path class="background" aria-hidden="true" d="M0,0h75v0h-75Z"></path><g><g class="mark-group role-title"><g transform="translate(37.5,-20)"><path class="background" aria-hidden="true" d="M0,0h0v0h0Z" pointer-events="none"></path><g><g class="mark-text role-title-text" role="graphics-symbol" aria-roledescription="title" aria-label="Title text 'spatial'" pointer-events="none"><text text-anchor="middle" transform="translate(0,8)" font-family="sans-serif" font-size="10px" fill="#000" opacity="1">spatial</text></g></g><path class="foreground" aria-hidden="true" d="" pointer-events="none" display="none"></path></g></g></g><path class="foreground" aria-hidden="true" d="" display="none"></path></g></g><g class="mark-group role-column-footer column_footer" role="graphics-object" aria-roledescription="group mark container"><g transform="translate(0,202)"><path class="background" aria-hidden="true" d="M0,0h75v0h-75Z"></path><g><g class="mark-group role-axis" role="graphics-symbol" aria-roledescription="axis" aria-label="X-axis titled 'Salience' for a discrete scale with 2 values: early, late"><g transform="translate(0.5,0.5)"><path class="background" aria-hidden="true" d="M0,0h0v0h0Z" pointer-events="none"></path><g><g class="mark-rule role-axis-tick" pointer-events="none"><line transform="translate(18,0)" x2="0" y2="5" stroke="#888" stroke-width="1" opacity="1"></line><line transform="translate(56,0)" x2="0" y2="5" stroke="#888" stroke-width="1" opacity="1"></line></g><g class="mark-text role-axis-label" pointer-events="none"><text text-anchor="end" transform="translate(18.25,7) rotate(315) translate(0,8)" font-family="sans-serif" font-size="10px" fill="#000" opacity="1">early</text><text text-anchor="end" transform="translate(55.75,7) rotate(315) translate(0,8)" font-family="sans-serif" font-size="10px" fill="#000" opacity="1">late</text></g><g class="mark-rule role-axis-domain" pointer-events="none"><line transform="translate(0,0)" x2="75" y2="0" stroke="#888" stroke-width="1" opacity="1"></line></g><g class="mark-text role-axis-title" pointer-events="none"><text text-anchor="middle" transform="translate(37.5,44.74873734152917)" font-family="sans-serif" font-size="11px" font-weight="bold" fill="#000" opacity="1">Salience</text></g></g><path class="foreground" aria-hidden="true" d="" pointer-events="none" display="none"></path></g></g></g><path class="foreground" aria-hidden="true" d="" display="none"></path></g><g transform="translate(97,202)"><path class="background" aria-hidden="true" d="M0,0h75v0h-75Z"></path><g><g class="mark-group role-axis" role="graphics-symbol" aria-roledescription="axis" aria-label="X-axis titled 'Salience' for a discrete scale with 2 values: early, late"><g transform="translate(0.5,0.5)"><path class="background" aria-hidden="true" d="M0,0h0v0h0Z" pointer-events="none"></path><g><g class="mark-rule role-axis-tick" pointer-events="none"><line transform="translate(18,0)" x2="0" y2="5" stroke="#888" stroke-width="1" opacity="1"></line><line transform="translate(56,0)" x2="0" y2="5" stroke="#888" stroke-width="1" opacity="1"></line></g><g class="mark-text role-axis-label" pointer-events="none"><text text-anchor="end" transform="translate(18.25,7) rotate(315) translate(0,8)" font-family="sans-serif" font-size="10px" fill="#000" opacity="1">early</text><text text-anchor="end" transform="translate(55.75,7) rotate(315) translate(0,8)" font-family="sans-serif" font-size="10px" fill="#000" opacity="1">late</text></g><g class="mark-rule role-axis-domain" pointer-events="none"><line transform="translate(0,0)" x2="75" y2="0" stroke="#888" stroke-width="1" opacity="1"></line></g><g class="mark-text role-axis-title" pointer-events="none"><text text-anchor="middle" transform="translate(37.5,44.74873734152917)" font-family="sans-serif" font-size="11px" font-weight="bold" fill="#000" opacity="1">Salience</text></g></g><path class="foreground" aria-hidden="true" d="" pointer-events="none" display="none"></path></g></g></g><path class="foreground" aria-hidden="true" d="" display="none"></path></g><g transform="translate(194,202)"><path class="background" aria-hidden="true" d="M0,0h75v0h-75Z"></path><g><g class="mark-group role-axis" role="graphics-symbol" aria-roledescription="axis" aria-label="X-axis titled 'Salience' for a discrete scale with 2 values: early, late"><g transform="translate(0.5,0.5)"><path class="background" aria-hidden="true" d="M0,0h0v0h0Z" pointer-events="none"></path><g><g class="mark-rule role-axis-tick" pointer-events="none"><line transform="translate(18,0)" x2="0" y2="5" stroke="#888" stroke-width="1" opacity="1"></line><line transform="translate(56,0)" x2="0" y2="5" stroke="#888" stroke-width="1" opacity="1"></line></g><g class="mark-text role-axis-label" pointer-events="none"><text text-anchor="end" transform="translate(18.25,7) rotate(315) translate(0,8)" font-family="sans-serif" font-size="10px" fill="#000" opacity="1">early</text><text text-anchor="end" transform="translate(55.75,7) rotate(315) translate(0,8)" font-family="sans-serif" font-size="10px" fill="#000" opacity="1">late</text></g><g class="mark-rule role-axis-domain" pointer-events="none"><line transform="translate(0,0)" x2="75" y2="0" stroke="#888" stroke-width="1" opacity="1"></line></g><g class="mark-text role-axis-title" pointer-events="none"><text text-anchor="middle" transform="translate(37.5,44.74873734152917)" font-family="sans-serif" font-size="11px" font-weight="bold" fill="#000" opacity="1">Salience</text></g></g><path class="foreground" aria-hidden="true" d="" pointer-events="none" display="none"></path></g></g></g><path class="foreground" aria-hidden="true" d="" display="none"></path></g></g><g class="mark-group role-scope cell" role="graphics-object" aria-roledescription="group mark container"><g transform="translate(0,0)"><path class="background" aria-hidden="true" d="M0.5,0.5h75v200h-75Z" stroke="#ddd"></path><g><g class="mark-group role-axis" aria-hidden="true"><g transform="translate(0.5,0.5)"><path class="background" aria-hidden="true" d="M0,0h0v0h0Z" pointer-events="none"></path><g><g class="mark-rule role-axis-grid" pointer-events="none"><line transform="translate(0,167)" x2="75" y2="0" stroke="#ddd" stroke-width="1" opacity="1"></line><line transform="translate(0,111)" x2="75" y2="0" stroke="#ddd" stroke-width="1" opacity="1"></line><line transform="translate(0,56)" x2="75" y2="0" stroke="#ddd" stroke-width="1" opacity="1"></line><line transform="translate(0,0)" x2="75" y2="0" stroke="#ddd" stroke-width="1" opacity="1"></line></g></g><path class="foreground" aria-hidden="true" d="" pointer-events="none" display="none"></path></g></g><g class="mark-symbol role-mark child_layer_0_marks" role="graphics-object" aria-roledescription="symbol mark container"><path aria-label="target_time_label: early; Salience: early; Mean of cordiff: 0.119290845" role="graphics-symbol" aria-roledescription="point" transform="translate(15.75,97.85657277777777)" d="M2.7386127875258306,0A2.7386127875258306,2.7386127875258306,0,1,1,-2.7386127875258306,0A2.7386127875258306,2.7386127875258306,0,1,1,2.7386127875258306,0" stroke="#0F3C5F" stroke-width="2"></path><path aria-label="target_time_label: late; Salience: late; Mean of cordiff: 0.107167805667" role="graphics-symbol" aria-roledescription="point" transform="translate(53.25,99.20357714814814)" d="M2.7386127875258306,0A2.7386127875258306,2.7386127875258306,0,1,1,-2.7386127875258306,0A2.7386127875258306,2.7386127875258306,0,1,1,2.7386127875258306,0" stroke="#687B3E" stroke-width="2"></path></g><g class="mark-symbol role-mark child_layer_1_marks" role="graphics-object" aria-roledescription="symbol mark container"><path aria-label="target_time_label: early; Salience: early; Target - Non-target Score: -0.33168983" role="graphics-symbol" aria-roledescription="point" transform="translate(21.75,147.96553666666665)" d="M2.7386127875258306,0A2.7386127875258306,2.7386127875258306,0,1,1,-2.7386127875258306,0A2.7386127875258306,2.7386127875258306,0,1,1,2.7386127875258306,0" fill="#0F3C5F" stroke-width="2" opacity="0.7"></path><path aria-label="target_time_label: late; Salience: late; Target - Non-target Score: 0.12335886" role="graphics-symbol" aria-roledescription="point" transform="translate(59.25,97.40457111111111)" d="M2.7386127875258306,0A2.7386127875258306,2.7386127875258306,0,1,1,-2.7386127875258306,0A2.7386127875258306,2.7386127875258306,0,1,1,2.7386127875258306,0" fill="#687B3E" stroke-width="2" opacity="0.7"></path><path aria-label="target_time_label: early; Salience: early; Target - Non-target Score: -0.12890945" role="graphics-symbol" aria-roledescription="point" transform="translate(21.75,125.43438333333334)" d="M2.7386127875258306,0A2.7386127875258306,2.7386127875258306,0,1,1,-2.7386127875258306,0A2.7386127875258306,2.7386127875258306,0,1,1,2.7386127875258306,0" fill="#0F3C5F" stroke-width="2" opacity="0.7"></path><path aria-label="target_time_label: late; Salience: late; Target - Non-target Score: -0.05676483" role="graphics-symbol" aria-roledescription="point" transform="translate(59.25,117.41831444444443)" d="M2.7386127875258306,0A2.7386127875258306,2.7386127875258306,0,1,1,-2.7386127875258306,0A2.7386127875258306,2.7386127875258306,0,1,1,2.7386127875258306,0" fill="#687B3E" stroke-width="2" opacity="0.7"></path><path aria-label="target_time_label: late; Salience: late; Target - Non-target Score: 0.048738707" role="graphics-symbol" aria-roledescription="point" transform="translate(59.25,105.69569922222222)" d="M2.7386127875258306,0A2.7386127875258306,2.7386127875258306,0,1,1,-2.7386127875258306,0A2.7386127875258306,2.7386127875258306,0,1,1,2.7386127875258306,0" fill="#687B3E" stroke-width="2" opacity="0.7"></path><path aria-label="target_time_label: early; Salience: early; Target - Non-target Score: 0.18506652" role="graphics-symbol" aria-roledescription="point" transform="translate(21.75,90.54816444444444)" d="M2.7386127875258306,0A2.7386127875258306,2.7386127875258306,0,1,1,-2.7386127875258306,0A2.7386127875258306,2.7386127875258306,0,1,1,2.7386127875258306,0" fill="#0F3C5F" stroke-width="2" opacity="0.7"></path><path aria-label="target_time_label: late; Salience: late; Target - Non-target Score: 0.6105003" role="graphics-symbol" aria-roledescription="point" transform="translate(59.25,43.27774444444445)" d="M2.7386127875258306,0A2.7386127875258306,2.7386127875258306,0,1,1,-2.7386127875258306,0A2.7386127875258306,2.7386127875258306,0,1,1,2.7386127875258306,0" fill="#687B3E" stroke-width="2" opacity="0.7"></path><path aria-label="target_time_label: early; Salience: early; Target - Non-target Score: 0.71275467" role="graphics-symbol" aria-roledescription="point" transform="translate(21.75,31.91614777777778)" d="M2.7386127875258306,0A2.7386127875258306,2.7386127875258306,0,1,1,-2.7386127875258306,0A2.7386127875258306,2.7386127875258306,0,1,1,2.7386127875258306,0" fill="#0F3C5F" stroke-width="2" opacity="0.7"></path><path aria-label="target_time_label: late; Salience: late; Target - Non-target Score: -0.2184243" role="graphics-symbol" aria-roledescription="point" transform="translate(59.25,135.38047777777777)" d="M2.7386127875258306,0A2.7386127875258306,2.7386127875258306,0,1,1,-2.7386127875258306,0A2.7386127875258306,2.7386127875258306,0,1,1,2.7386127875258306,0" fill="#687B3E" stroke-width="2" opacity="0.7"></path><path aria-label="target_time_label: early; Salience: early; Target - Non-target Score: 0.30416498" role="graphics-symbol" aria-roledescription="point" transform="translate(21.75,77.31500222222223)" d="M2.7386127875258306,0A2.7386127875258306,2.7386127875258306,0,1,1,-2.7386127875258306,0A2.7386127875258306,2.7386127875258306,0,1,1,2.7386127875258306,0" fill="#0F3C5F" stroke-width="2" opacity="0.7"></path><path aria-label="target_time_label: early; Salience: early; Target - Non-target Score: 0.025268253" role="graphics-symbol" aria-roledescription="point" transform="translate(21.75,108.30352744444443)" d="M2.7386127875258306,0A2.7386127875258306,2.7386127875258306,0,1,1,-2.7386127875258306,0A2.7386127875258306,2.7386127875258306,0,1,1,2.7386127875258306,0" fill="#0F3C5F" stroke-width="2" opacity="0.7"></path><path aria-label="target_time_label: late; Salience: late; Target - Non-target Score: 0.015729828" role="graphics-symbol" aria-roledescription="point" transform="translate(59.25,109.36335244444444)" d="M2.7386127875258306,0A2.7386127875258306,2.7386127875258306,0,1,1,-2.7386127875258306,0A2.7386127875258306,2.7386127875258306,0,1,1,2.7386127875258306,0" fill="#687B3E" stroke-width="2" opacity="0.7"></path><path aria-label="target_time_label: late; Salience: late; Target - Non-target Score: -0.1305705" role="graphics-symbol" aria-roledescription="point" transform="translate(59.25,125.61894444444444)" d="M2.7386127875258306,0A2.7386127875258306,2.7386127875258306,0,1,1,-2.7386127875258306,0A2.7386127875258306,2.7386127875258306,0,1,1,2.7386127875258306,0" fill="#687B3E" stroke-width="2" opacity="0.7"></path><path aria-label="target_time_label: early; Salience: early; Target - Non-target Score: 0.024101384" role="graphics-symbol" aria-roledescription="point" transform="translate(21.75,108.43317955555555)" d="M2.7386127875258306,0A2.7386127875258306,2.7386127875258306,0,1,1,-2.7386127875258306,0A2.7386127875258306,2.7386127875258306,0,1,1,2.7386127875258306,0" fill="#0F3C5F" stroke-width="2" opacity="0.7"></path><path aria-label="target_time_label: late; Salience: late; Target - Non-target Score: 0.19364169" role="graphics-symbol" aria-roledescription="point" transform="translate(59.25,89.59536777777777)" d="M2.7386127875258306,0A2.7386127875258306,2.7386127875258306,0,1,1,-2.7386127875258306,0A2.7386127875258306,2.7386127875258306,0,1,1,2.7386127875258306,0" fill="#687B3E" stroke-width="2" opacity="0.7"></path><path aria-label="target_time_label: early; Salience: early; Target - Non-target Score: 0.8604697" role="graphics-symbol" aria-roledescription="point" transform="translate(21.75,15.50336666666665)" d="M2.7386127875258306,0A2.7386127875258306,2.7386127875258306,0,1,1,-2.7386127875258306,0A2.7386127875258306,2.7386127875258306,0,1,1,2.7386127875258306,0" fill="#0F3C5F" stroke-width="2" opacity="0.7"></path><path aria-label="target_time_label: early; Salience: early; Target - Non-target Score: 0.25196636" role="graphics-symbol" aria-roledescription="point" transform="translate(21.75,83.11484888888889)" d="M2.7386127875258306,0A2.7386127875258306,2.7386127875258306,0,1,1,-2.7386127875258306,0A2.7386127875258306,2.7386127875258306,0,1,1,2.7386127875258306,0" fill="#0F3C5F" stroke-width="2" opacity="0.7"></path><path aria-label="target_time_label: late; Salience: late; Target - Non-target Score: -0.048397157" role="graphics-symbol" aria-roledescription="point" transform="translate(59.25,116.488573)" d="M2.7386127875258306,0A2.7386127875258306,2.7386127875258306,0,1,1,-2.7386127875258306,0A2.7386127875258306,2.7386127875258306,0,1,1,2.7386127875258306,0" fill="#687B3E" stroke-width="2" opacity="0.7"></path><path aria-label="target_time_label: late; Salience: late; Target - Non-target Score: 0.24840708" role="graphics-symbol" aria-roledescription="point" transform="translate(59.25,83.51032444444444)" d="M2.7386127875258306,0A2.7386127875258306,2.7386127875258306,0,1,1,-2.7386127875258306,0A2.7386127875258306,2.7386127875258306,0,1,1,2.7386127875258306,0" fill="#687B3E" stroke-width="2" opacity="0.7"></path><path aria-label="target_time_label: early; Salience: early; Target - Non-target Score: -0.24789873" role="graphics-symbol" aria-roledescription="point" transform="translate(21.75,138.65541444444443)" d="M2.7386127875258306,0A2.7386127875258306,2.7386127875258306,0,1,1,-2.7386127875258306,0A2.7386127875258306,2.7386127875258306,0,1,1,2.7386127875258306,0" fill="#0F3C5F" stroke-width="2" opacity="0.7"></path><path aria-label="target_time_label: early; Salience: early; Target - Non-target Score: -0.049705807" role="graphics-symbol" aria-roledescription="point" transform="translate(21.75,116.63397855555556)" d="M2.7386127875258306,0A2.7386127875258306,2.7386127875258306,0,1,1,-2.7386127875258306,0A2.7386127875258306,2.7386127875258306,0,1,1,2.7386127875258306,0" fill="#0F3C5F" stroke-width="2" opacity="0.7"></path><path aria-label="target_time_label: late; Salience: late; Target - Non-target Score: 0.2950124" role="graphics-symbol" aria-roledescription="point" transform="translate(59.25,78.33195555555554)" d="M2.7386127875258306,0A2.7386127875258306,2.7386127875258306,0,1,1,-2.7386127875258306,0A2.7386127875258306,2.7386127875258306,0,1,1,2.7386127875258306,0" fill="#687B3E" stroke-width="2" opacity="0.7"></path><path aria-label="target_time_label: early; Salience: early; Target - Non-target Score: -0.17409791" role="graphics-symbol" aria-roledescription="point" transform="translate(21.75,130.45532333333335)" d="M2.7386127875258306,0A2.7386127875258306,2.7386127875258306,0,1,1,-2.7386127875258306,0A2.7386127875258306,2.7386127875258306,0,1,1,2.7386127875258306,0" fill="#0F3C5F" stroke-width="2" opacity="0.7"></path><path aria-label="target_time_label: late; Salience: late; Target - Non-target Score: 0.20478159" role="graphics-symbol" aria-roledescription="point" transform="translate(59.25,88.35760111111111)" d="M2.7386127875258306,0A2.7386127875258306,2.7386127875258306,0,1,1,-2.7386127875258306,0A2.7386127875258306,2.7386127875258306,0,1,1,2.7386127875258306,0" fill="#687B3E" stroke-width="2" opacity="0.7"></path></g><g class="mark-rule role-mark child_layer_2_marks" role="graphics-object" aria-roledescription="rule mark container"><line aria-label="Salience: early; Ci0 of cordiff: -0.0620165996667; Ci1 of cordiff: 0.342070908367" role="graphics-symbol" aria-roledescription="rule mark" transform="translate(15.75,118.00184440740739)" x2="0" y2="-44.898612003703676" stroke="black"></line><line aria-label="Salience: late; Ci0 of cordiff: -0.00368642316042; Ci1 of cordiff: 0.23643356899" role="graphics-symbol" aria-roledescription="rule mark" transform="translate(53.25,111.52071368449073)" x2="0" y2="-26.679999127777776" stroke="black"></line></g></g><path class="foreground" aria-hidden="true" d="" display="none"></path></g><g transform="translate(97,0)"><path class="background" aria-hidden="true" d="M0.5,0.5h75v200h-75Z" stroke="#ddd"></path><g><g class="mark-group role-axis" aria-hidden="true"><g transform="translate(0.5,0.5)"><path class="background" aria-hidden="true" d="M0,0h0v0h0Z" pointer-events="none"></path><g><g class="mark-rule role-axis-grid" pointer-events="none"><line transform="translate(0,167)" x2="75" y2="0" stroke="#ddd" stroke-width="1" opacity="1"></line><line transform="translate(0,111)" x2="75" y2="0" stroke="#ddd" stroke-width="1" opacity="1"></line><line transform="translate(0,56)" x2="75" y2="0" stroke="#ddd" stroke-width="1" opacity="1"></line><line transform="translate(0,0)" x2="75" y2="0" stroke="#ddd" stroke-width="1" opacity="1"></line></g></g><path class="foreground" aria-hidden="true" d="" pointer-events="none" display="none"></path></g></g><g class="mark-symbol role-mark child_layer_0_marks" role="graphics-object" aria-roledescription="symbol mark container"><path aria-label="target_time_label: early; Salience: early; Mean of cordiff: 0.20375980575" role="graphics-symbol" aria-roledescription="point" transform="translate(15.75,88.47113269444445)" d="M2.7386127875258306,0A2.7386127875258306,2.7386127875258306,0,1,1,-2.7386127875258306,0A2.7386127875258306,2.7386127875258306,0,1,1,2.7386127875258306,0" stroke="#0F3C5F" stroke-width="2"></path><path aria-label="target_time_label: late; Salience: late; Mean of cordiff: 0.00780819594167" role="graphics-symbol" aria-roledescription="point" transform="translate(53.25,110.24353378425924)" d="M2.7386127875258306,0A2.7386127875258306,2.7386127875258306,0,1,1,-2.7386127875258306,0A2.7386127875258306,2.7386127875258306,0,1,1,2.7386127875258306,0" stroke="#687B3E" stroke-width="2"></path></g><g class="mark-symbol role-mark child_layer_1_marks" role="graphics-object" aria-roledescription="symbol mark container"><path aria-label="target_time_label: early; Salience: early; Target - Non-target Score: 0.013736959" role="graphics-symbol" aria-roledescription="point" transform="translate(21.75,109.58478233333334)" d="M2.7386127875258306,0A2.7386127875258306,2.7386127875258306,0,1,1,-2.7386127875258306,0A2.7386127875258306,2.7386127875258306,0,1,1,2.7386127875258306,0" fill="#0F3C5F" stroke-width="2" opacity="0.7"></path><path aria-label="target_time_label: late; Salience: late; Target - Non-target Score: -0.022555606" role="graphics-symbol" aria-roledescription="point" transform="translate(59.25,113.61728955555554)" d="M2.7386127875258306,0A2.7386127875258306,2.7386127875258306,0,1,1,-2.7386127875258306,0A2.7386127875258306,2.7386127875258306,0,1,1,2.7386127875258306,0" fill="#687B3E" stroke-width="2" opacity="0.7"></path><path aria-label="target_time_label: late; Salience: late; Target - Non-target Score: -0.06550665" role="graphics-symbol" aria-roledescription="point" transform="translate(59.25,118.38962777777778)" d="M2.7386127875258306,0A2.7386127875258306,2.7386127875258306,0,1,1,-2.7386127875258306,0A2.7386127875258306,2.7386127875258306,0,1,1,2.7386127875258306,0" fill="#687B3E" stroke-width="2" opacity="0.7"></path><path aria-label="target_time_label: early; Salience: early; Target - Non-target Score: 0.22754388" role="graphics-symbol" aria-roledescription="point" transform="translate(21.75,85.82845777777777)" d="M2.7386127875258306,0A2.7386127875258306,2.7386127875258306,0,1,1,-2.7386127875258306,0A2.7386127875258306,2.7386127875258306,0,1,1,2.7386127875258306,0" fill="#0F3C5F" stroke-width="2" opacity="0.7"></path><path aria-label="target_time_label: late; Salience: late; Target - Non-target Score: -0.0035608497" role="graphics-symbol" aria-roledescription="point" transform="translate(59.25,111.5067610777778)" d="M2.7386127875258306,0A2.7386127875258306,2.7386127875258306,0,1,1,-2.7386127875258306,0A2.7386127875258306,2.7386127875258306,0,1,1,2.7386127875258306,0" fill="#687B3E" stroke-width="2" opacity="0.7"></path><path aria-label="target_time_label: early; Salience: early; Target - Non-target Score: 0.14890128" role="graphics-symbol" aria-roledescription="point" transform="translate(21.75,94.56652444444444)" d="M2.7386127875258306,0A2.7386127875258306,2.7386127875258306,0,1,1,-2.7386127875258306,0A2.7386127875258306,2.7386127875258306,0,1,1,2.7386127875258306,0" fill="#0F3C5F" stroke-width="2" opacity="0.7"></path><path aria-label="target_time_label: late; Salience: late; Target - Non-target Score: 0.39850903" role="graphics-symbol" aria-roledescription="point" transform="translate(59.25,66.83233)" d="M2.7386127875258306,0A2.7386127875258306,2.7386127875258306,0,1,1,-2.7386127875258306,0A2.7386127875258306,2.7386127875258306,0,1,1,2.7386127875258306,0" fill="#687B3E" stroke-width="2" opacity="0.7"></path><path aria-label="target_time_label: early; Salience: early; Target - Non-target Score: 0.494934" role="graphics-symbol" aria-roledescription="point" transform="translate(21.75,56.11844444444445)" d="M2.7386127875258306,0A2.7386127875258306,2.7386127875258306,0,1,1,-2.7386127875258306,0A2.7386127875258306,2.7386127875258306,0,1,1,2.7386127875258306,0" fill="#0F3C5F" stroke-width="2" opacity="0.7"></path><path aria-label="target_time_label: early; Salience: early; Target - Non-target Score: 0.33741364" role="graphics-symbol" aria-roledescription="point" transform="translate(21.75,73.62070666666665)" d="M2.7386127875258306,0A2.7386127875258306,2.7386127875258306,0,1,1,-2.7386127875258306,0A2.7386127875258306,2.7386127875258306,0,1,1,2.7386127875258306,0" fill="#0F3C5F" stroke-width="2" opacity="0.7"></path><path aria-label="target_time_label: late; Salience: late; Target - Non-target Score: 0.038909663" role="graphics-symbol" aria-roledescription="point" transform="translate(59.25,106.78781522222222)" d="M2.7386127875258306,0A2.7386127875258306,2.7386127875258306,0,1,1,-2.7386127875258306,0A2.7386127875258306,2.7386127875258306,0,1,1,2.7386127875258306,0" fill="#687B3E" stroke-width="2" opacity="0.7"></path><path aria-label="target_time_label: early; Salience: early; Target - Non-target Score: 0.21068001" role="graphics-symbol" aria-roledescription="point" transform="translate(21.75,87.70222111111113)" d="M2.7386127875258306,0A2.7386127875258306,2.7386127875258306,0,1,1,-2.7386127875258306,0A2.7386127875258306,2.7386127875258306,0,1,1,2.7386127875258306,0" fill="#0F3C5F" stroke-width="2" opacity="0.7"></path><path aria-label="target_time_label: late; Salience: late; Target - Non-target Score: -0.07322961" role="graphics-symbol" aria-roledescription="point" transform="translate(59.25,119.24773444444445)" d="M2.7386127875258306,0A2.7386127875258306,2.7386127875258306,0,1,1,-2.7386127875258306,0A2.7386127875258306,2.7386127875258306,0,1,1,2.7386127875258306,0" fill="#687B3E" stroke-width="2" opacity="0.7"></path><path aria-label="target_time_label: early; Salience: early; Target - Non-target Score: 0.08666498" role="graphics-symbol" aria-roledescription="point" transform="translate(21.75,101.48166888888888)" d="M2.7386127875258306,0A2.7386127875258306,2.7386127875258306,0,1,1,-2.7386127875258306,0A2.7386127875258306,2.7386127875258306,0,1,1,2.7386127875258306,0" fill="#0F3C5F" stroke-width="2" opacity="0.7"></path><path aria-label="target_time_label: late; Salience: late; Target - Non-target Score: 0.19412911" role="graphics-symbol" aria-roledescription="point" transform="translate(59.25,89.54120999999999)" d="M2.7386127875258306,0A2.7386127875258306,2.7386127875258306,0,1,1,-2.7386127875258306,0A2.7386127875258306,2.7386127875258306,0,1,1,2.7386127875258306,0" fill="#687B3E" stroke-width="2" opacity="0.7"></path><path aria-label="target_time_label: early; Salience: early; Target - Non-target Score: 0.4332991" role="graphics-symbol" aria-roledescription="point" transform="translate(21.75,62.96676666666667)" d="M2.7386127875258306,0A2.7386127875258306,2.7386127875258306,0,1,1,-2.7386127875258306,0A2.7386127875258306,2.7386127875258306,0,1,1,2.7386127875258306,0" fill="#0F3C5F" stroke-width="2" opacity="0.7"></path><path aria-label="target_time_label: late; Salience: late; Target - Non-target Score: 0.25969377" role="graphics-symbol" aria-roledescription="point" transform="translate(59.25,82.25624777777779)" d="M2.7386127875258306,0A2.7386127875258306,2.7386127875258306,0,1,1,-2.7386127875258306,0A2.7386127875258306,2.7386127875258306,0,1,1,2.7386127875258306,0" fill="#687B3E" stroke-width="2" opacity="0.7"></path><path aria-label="target_time_label: early; Salience: early; Target - Non-target Score: 0.16030775" role="graphics-symbol" aria-roledescription="point" transform="translate(21.75,93.2991388888889)" d="M2.7386127875258306,0A2.7386127875258306,2.7386127875258306,0,1,1,-2.7386127875258306,0A2.7386127875258306,2.7386127875258306,0,1,1,2.7386127875258306,0" fill="#0F3C5F" stroke-width="2" opacity="0.7"></path><path aria-label="target_time_label: late; Salience: late; Target - Non-target Score: -0.42516434" role="graphics-symbol" aria-roledescription="point" transform="translate(59.25,158.35159333333334)" d="M2.7386127875258306,0A2.7386127875258306,2.7386127875258306,0,1,1,-2.7386127875258306,0A2.7386127875258306,2.7386127875258306,0,1,1,2.7386127875258306,0" fill="#687B3E" stroke-width="2" opacity="0.7"></path><path aria-label="target_time_label: early; Salience: early; Target - Non-target Score: 0.12649703" role="graphics-symbol" aria-roledescription="point" transform="translate(21.75,97.05588555555555)" d="M2.7386127875258306,0A2.7386127875258306,2.7386127875258306,0,1,1,-2.7386127875258306,0A2.7386127875258306,2.7386127875258306,0,1,1,2.7386127875258306,0" fill="#0F3C5F" stroke-width="2" opacity="0.7"></path><path aria-label="target_time_label: late; Salience: late; Target - Non-target Score: -0.035563566" role="graphics-symbol" aria-roledescription="point" transform="translate(59.25,115.06261844444445)" d="M2.7386127875258306,0A2.7386127875258306,2.7386127875258306,0,1,1,-2.7386127875258306,0A2.7386127875258306,2.7386127875258306,0,1,1,2.7386127875258306,0" fill="#687B3E" stroke-width="2" opacity="0.7"></path><path aria-label="target_time_label: early; Salience: early; Target - Non-target Score: 0.018473" role="graphics-symbol" aria-roledescription="point" transform="translate(21.75,109.05855555555557)" d="M2.7386127875258306,0A2.7386127875258306,2.7386127875258306,0,1,1,-2.7386127875258306,0A2.7386127875258306,2.7386127875258306,0,1,1,2.7386127875258306,0" fill="#0F3C5F" stroke-width="2" opacity="0.7"></path><path aria-label="target_time_label: late; Salience: late; Target - Non-target Score: -0.29807776" role="graphics-symbol" aria-roledescription="point" transform="translate(59.25,144.2308622222222)" d="M2.7386127875258306,0A2.7386127875258306,2.7386127875258306,0,1,1,-2.7386127875258306,0A2.7386127875258306,2.7386127875258306,0,1,1,2.7386127875258306,0" fill="#687B3E" stroke-width="2" opacity="0.7"></path><path aria-label="target_time_label: early; Salience: early; Target - Non-target Score: 0.18666604" role="graphics-symbol" aria-roledescription="point" transform="translate(21.75,90.37044)" d="M2.7386127875258306,0A2.7386127875258306,2.7386127875258306,0,1,1,-2.7386127875258306,0A2.7386127875258306,2.7386127875258306,0,1,1,2.7386127875258306,0" fill="#0F3C5F" stroke-width="2" opacity="0.7"></path><path aria-label="target_time_label: late; Salience: late; Target - Non-target Score: 0.12611516" role="graphics-symbol" aria-roledescription="point" transform="translate(59.25,97.09831555555554)" d="M2.7386127875258306,0A2.7386127875258306,2.7386127875258306,0,1,1,-2.7386127875258306,0A2.7386127875258306,2.7386127875258306,0,1,1,2.7386127875258306,0" fill="#687B3E" stroke-width="2" opacity="0.7"></path></g><g class="mark-rule role-mark child_layer_2_marks" role="graphics-object" aria-roledescription="rule mark container"><line aria-label="Salience: early; Ci0 of cordiff: 0.128460282271; Ci1 of cordiff: 0.294058414583" role="graphics-symbol" aria-roledescription="rule mark" transform="translate(15.75,96.83774641435183)" x2="0" y2="-18.39979247916665" stroke="black"></line><line aria-label="Salience: late; Ci0 of cordiff: -0.113583591691; Ci1 of cordiff: 0.132340689087" role="graphics-symbol" aria-roledescription="rule mark" transform="translate(53.25,123.73151018789352)" x2="0" y2="-27.32492008650462" stroke="black"></line></g></g><path class="foreground" aria-hidden="true" d="" display="none"></path></g><g transform="translate(194,0)"><path class="background" aria-hidden="true" d="M0.5,0.5h75v200h-75Z" stroke="#ddd"></path><g><g class="mark-group role-axis" aria-hidden="true"><g transform="translate(0.5,0.5)"><path class="background" aria-hidden="true" d="M0,0h0v0h0Z" pointer-events="none"></path><g><g class="mark-rule role-axis-grid" pointer-events="none"><line transform="translate(0,167)" x2="75" y2="0" stroke="#ddd" stroke-width="1" opacity="1"></line><line transform="translate(0,111)" x2="75" y2="0" stroke="#ddd" stroke-width="1" opacity="1"></line><line transform="translate(0,56)" x2="75" y2="0" stroke="#ddd" stroke-width="1" opacity="1"></line><line transform="translate(0,0)" x2="75" y2="0" stroke="#ddd" stroke-width="1" opacity="1"></line></g></g><path class="foreground" aria-hidden="true" d="" pointer-events="none" display="none"></path></g></g><g class="mark-symbol role-mark child_layer_0_marks" role="graphics-object" aria-roledescription="symbol mark container"><path aria-label="target_time_label: early; Salience: early; Mean of cordiff: -0.2591287725" role="graphics-symbol" aria-roledescription="point" transform="translate(15.75,139.90319694444443)" d="M2.7386127875258306,0A2.7386127875258306,2.7386127875258306,0,1,1,-2.7386127875258306,0A2.7386127875258306,2.7386127875258306,0,1,1,2.7386127875258306,0" stroke="#0F3C5F" stroke-width="2"></path><path aria-label="target_time_label: late; Salience: late; Mean of cordiff: -0.0488538702" role="graphics-symbol" aria-roledescription="point" transform="translate(53.25,116.53931891111111)" d="M2.7386127875258306,0A2.7386127875258306,2.7386127875258306,0,1,1,-2.7386127875258306,0A2.7386127875258306,2.7386127875258306,0,1,1,2.7386127875258306,0" stroke="#687B3E" stroke-width="2"></path></g><g class="mark-symbol role-mark child_layer_1_marks" role="graphics-object" aria-roledescription="symbol mark container"><path aria-label="target_time_label: early; Salience: early; Target - Non-target Score: -0.48454502" role="graphics-symbol" aria-roledescription="point" transform="translate(21.75,164.94944666666666)" d="M2.7386127875258306,0A2.7386127875258306,2.7386127875258306,0,1,1,-2.7386127875258306,0A2.7386127875258306,2.7386127875258306,0,1,1,2.7386127875258306,0" fill="#0F3C5F" stroke-width="2" opacity="0.7"></path><path aria-label="target_time_label: late; Salience: late; Target - Non-target Score: -0.28824955" role="graphics-symbol" aria-roledescription="point" transform="translate(59.25,143.13883888888887)" d="M2.7386127875258306,0A2.7386127875258306,2.7386127875258306,0,1,1,-2.7386127875258306,0A2.7386127875258306,2.7386127875258306,0,1,1,2.7386127875258306,0" fill="#687B3E" stroke-width="2" opacity="0.7"></path><path aria-label="target_time_label: early; Salience: early; Target - Non-target Score: 0.1429159" role="graphics-symbol" aria-roledescription="point" transform="translate(21.75,95.23156666666665)" d="M2.7386127875258306,0A2.7386127875258306,2.7386127875258306,0,1,1,-2.7386127875258306,0A2.7386127875258306,2.7386127875258306,0,1,1,2.7386127875258306,0" fill="#0F3C5F" stroke-width="2" opacity="0.7"></path><path aria-label="target_time_label: late; Salience: late; Target - Non-target Score: 0.4168614" role="graphics-symbol" aria-roledescription="point" transform="translate(59.25,64.79317777777777)" d="M2.7386127875258306,0A2.7386127875258306,2.7386127875258306,0,1,1,-2.7386127875258306,0A2.7386127875258306,2.7386127875258306,0,1,1,2.7386127875258306,0" fill="#687B3E" stroke-width="2" opacity="0.7"></path><path aria-label="target_time_label: early; Salience: early; Target - Non-target Score: -0.28192705" role="graphics-symbol" aria-roledescription="point" transform="translate(21.75,142.43633888888888)" d="M2.7386127875258306,0A2.7386127875258306,2.7386127875258306,0,1,1,-2.7386127875258306,0A2.7386127875258306,2.7386127875258306,0,1,1,2.7386127875258306,0" fill="#0F3C5F" stroke-width="2" opacity="0.7"></path><path aria-label="target_time_label: late; Salience: late; Target - Non-target Score: -0.3979735" role="graphics-symbol" aria-roledescription="point" transform="translate(59.25,155.33038888888888)" d="M2.7386127875258306,0A2.7386127875258306,2.7386127875258306,0,1,1,-2.7386127875258306,0A2.7386127875258306,2.7386127875258306,0,1,1,2.7386127875258306,0" fill="#687B3E" stroke-width="2" opacity="0.7"></path><path aria-label="target_time_label: late; Salience: late; Target - Non-target Score: -0.52329916" role="graphics-symbol" aria-roledescription="point" transform="translate(59.25,169.2554622222222)" d="M2.7386127875258306,0A2.7386127875258306,2.7386127875258306,0,1,1,-2.7386127875258306,0A2.7386127875258306,2.7386127875258306,0,1,1,2.7386127875258306,0" fill="#687B3E" stroke-width="2" opacity="0.7"></path><path aria-label="target_time_label: early; Salience: early; Target - Non-target Score: -0.027011573" role="graphics-symbol" aria-roledescription="point" transform="translate(21.75,114.112397)" d="M2.7386127875258306,0A2.7386127875258306,2.7386127875258306,0,1,1,-2.7386127875258306,0A2.7386127875258306,2.7386127875258306,0,1,1,2.7386127875258306,0" fill="#0F3C5F" stroke-width="2" opacity="0.7"></path><path aria-label="target_time_label: early; Salience: early; Target - Non-target Score: 0.1670231" role="graphics-symbol" aria-roledescription="point" transform="translate(21.75,92.5529888888889)" d="M2.7386127875258306,0A2.7386127875258306,2.7386127875258306,0,1,1,-2.7386127875258306,0A2.7386127875258306,2.7386127875258306,0,1,1,2.7386127875258306,0" fill="#0F3C5F" stroke-width="2" opacity="0.7"></path><path aria-label="target_time_label: late; Salience: late; Target - Non-target Score: 0.08116743" role="graphics-symbol" aria-roledescription="point" transform="translate(59.25,102.09250777777777)" d="M2.7386127875258306,0A2.7386127875258306,2.7386127875258306,0,1,1,-2.7386127875258306,0A2.7386127875258306,2.7386127875258306,0,1,1,2.7386127875258306,0" fill="#687B3E" stroke-width="2" opacity="0.7"></path><path aria-label="target_time_label: early; Salience: early; Target - Non-target Score: -0.7813153" role="graphics-symbol" aria-roledescription="point" transform="translate(21.75,197.92392222222222)" d="M2.7386127875258306,0A2.7386127875258306,2.7386127875258306,0,1,1,-2.7386127875258306,0A2.7386127875258306,2.7386127875258306,0,1,1,2.7386127875258306,0" fill="#0F3C5F" stroke-width="2" opacity="0.7"></path><path aria-label="target_time_label: late; Salience: late; Target - Non-target Score: -0.057264782" role="graphics-symbol" aria-roledescription="point" transform="translate(59.25,117.47386466666666)" d="M2.7386127875258306,0A2.7386127875258306,2.7386127875258306,0,1,1,-2.7386127875258306,0A2.7386127875258306,2.7386127875258306,0,1,1,2.7386127875258306,0" fill="#687B3E" stroke-width="2" opacity="0.7"></path><path aria-label="target_time_label: late; Salience: late; Target - Non-target Score: 0.07222991" role="graphics-symbol" aria-roledescription="point" transform="translate(59.25,103.08556555555555)" d="M2.7386127875258306,0A2.7386127875258306,2.7386127875258306,0,1,1,-2.7386127875258306,0A2.7386127875258306,2.7386127875258306,0,1,1,2.7386127875258306,0" fill="#687B3E" stroke-width="2" opacity="0.7"></path><path aria-label="target_time_label: early; Salience: early; Target - Non-target Score: 0.036134936" role="graphics-symbol" aria-roledescription="point" transform="translate(21.75,107.09611822222223)" d="M2.7386127875258306,0A2.7386127875258306,2.7386127875258306,0,1,1,-2.7386127875258306,0A2.7386127875258306,2.7386127875258306,0,1,1,2.7386127875258306,0" fill="#0F3C5F" stroke-width="2" opacity="0.7"></path><path aria-label="target_time_label: late; Salience: late; Target - Non-target Score: -0.3163218" role="graphics-symbol" aria-roledescription="point" transform="translate(59.25,146.25797777777777)" d="M2.7386127875258306,0A2.7386127875258306,2.7386127875258306,0,1,1,-2.7386127875258306,0A2.7386127875258306,2.7386127875258306,0,1,1,2.7386127875258306,0" fill="#687B3E" stroke-width="2" opacity="0.7"></path><path aria-label="target_time_label: early; Salience: early; Target - Non-target Score: -0.39366615" role="graphics-symbol" aria-roledescription="point" transform="translate(21.75,154.85179444444444)" d="M2.7386127875258306,0A2.7386127875258306,2.7386127875258306,0,1,1,-2.7386127875258306,0A2.7386127875258306,2.7386127875258306,0,1,1,2.7386127875258306,0" fill="#0F3C5F" stroke-width="2" opacity="0.7"></path><path aria-label="target_time_label: early; Salience: early; Target - Non-target Score: -0.052121103" role="graphics-symbol" aria-roledescription="point" transform="translate(21.75,116.90234477777777)" d="M2.7386127875258306,0A2.7386127875258306,2.7386127875258306,0,1,1,-2.7386127875258306,0A2.7386127875258306,2.7386127875258306,0,1,1,2.7386127875258306,0" fill="#0F3C5F" stroke-width="2" opacity="0.7"></path><path aria-label="target_time_label: late; Salience: late; Target - Non-target Score: 0.18010403" role="graphics-symbol" aria-roledescription="point" transform="translate(59.25,91.09955222222221)" d="M2.7386127875258306,0A2.7386127875258306,2.7386127875258306,0,1,1,-2.7386127875258306,0A2.7386127875258306,2.7386127875258306,0,1,1,2.7386127875258306,0" fill="#687B3E" stroke-width="2" opacity="0.7"></path><path aria-label="target_time_label: early; Salience: early; Target - Non-target Score: -0.20280024" role="graphics-symbol" aria-roledescription="point" transform="translate(21.75,133.6444711111111)" d="M2.7386127875258306,0A2.7386127875258306,2.7386127875258306,0,1,1,-2.7386127875258306,0A2.7386127875258306,2.7386127875258306,0,1,1,2.7386127875258306,0" fill="#0F3C5F" stroke-width="2" opacity="0.7"></path><path aria-label="target_time_label: early; Salience: early; Target - Non-target Score: -0.54547757" role="graphics-symbol" aria-roledescription="point" transform="translate(21.75,171.71973)" d="M2.7386127875258306,0A2.7386127875258306,2.7386127875258306,0,1,1,-2.7386127875258306,0A2.7386127875258306,2.7386127875258306,0,1,1,2.7386127875258306,0" fill="#0F3C5F" stroke-width="2" opacity="0.7"></path><path aria-label="target_time_label: early; Salience: early; Target - Non-target Score: -0.6867552" role="graphics-symbol" aria-roledescription="point" transform="translate(21.75,187.41724444444446)" d="M2.7386127875258306,0A2.7386127875258306,2.7386127875258306,0,1,1,-2.7386127875258306,0A2.7386127875258306,2.7386127875258306,0,1,1,2.7386127875258306,0" fill="#0F3C5F" stroke-width="2" opacity="0.7"></path><path aria-label="target_time_label: late; Salience: late; Target - Non-target Score: 0.34420732" role="graphics-symbol" aria-roledescription="point" transform="translate(59.25,72.86585333333333)" d="M2.7386127875258306,0A2.7386127875258306,2.7386127875258306,0,1,1,-2.7386127875258306,0A2.7386127875258306,2.7386127875258306,0,1,1,2.7386127875258306,0" fill="#687B3E" stroke-width="2" opacity="0.7"></path></g><g class="mark-rule role-mark child_layer_2_marks" role="graphics-object" aria-roledescription="rule mark container"><line aria-label="Salience: early; Ci0 of cordiff: -0.420042436925; Ci1 of cordiff: -0.0810490076521" role="graphics-symbol" aria-roledescription="rule mark" transform="translate(15.75,157.78249299166666)" x2="0" y2="-37.665936585879635" stroke="black"></line><line aria-label="Salience: late; Ci0 of cordiff: -0.22957586557; Ci1 of cordiff: 0.12525642119" role="graphics-symbol" aria-roledescription="rule mark" transform="translate(53.25,136.6195406188889)" x2="0" y2="-39.42580963999998" stroke="black"></line></g></g><path class="foreground" aria-hidden="true" d="" display="none"></path></g></g></g><path class="foreground" aria-hidden="true" d="" display="none"></path></g></g></g></svg>
