<?xml version="1.0" encoding="utf-8"?>
<!DOCTYPE svg PUBLIC "-//W3C//DTD SVG 1.1//EN" "http://www.w3.org/Graphics/SVG/1.1/DTD/svg11.dtd">
<svg class="marks" width="717" height="295" viewBox="0 0 717 295" version="1.1" xmlns="http://www.w3.org/2000/svg" xmlns:xlink="http://www.w3.org/1999/xlink"><rect width="717" height="295" fill="white"></rect><g fill="none" stroke-miterlimit="10" transform="translate(61,57)"><g class="mark-group role-frame root" role="graphics-object" aria-roledescription="group mark container"><g transform="translate(0,0)"><path class="background" aria-hidden="true" d="M0,0h0v0h0Z"></path><g><g class="mark-group role-column-title column-title" role="graphics-object" aria-roledescription="group mark container"><g transform="translate(325,-31)"><path class="background" aria-hidden="true" d="M0,0h0v0h0Z"></path><g><g class="mark-group role-title"><g transform="translate(0,-21)"><path class="background" aria-hidden="true" d="M0,0h0v0h0Z" pointer-events="none"></path><g><g class="mark-text role-title-text" role="graphics-symbol" aria-roledescription="title" aria-label="Title text 'train_type'" pointer-events="none"><text text-anchor="middle" transform="translate(0,9)" font-family="sans-serif" font-size="11px" font-weight="bold" fill="#000" opacity="1">train_type</text></g></g><path class="foreground" aria-hidden="true" d="" pointer-events="none" display="none"></path></g></g></g><path class="foreground" aria-hidden="true" d="" display="none"></path></g></g><g class="mark-group role-row-header row_header" role="graphics-object" aria-roledescription="group mark container"><g transform="translate(-1,0)"><path class="background" aria-hidden="true" d="M0,0h0v200h0Z"></path><g><g class="mark-group role-axis" role="graphics-symbol" aria-roledescription="axis" aria-label="Y-axis titled 'lower' for a linear scale with values from 0.0000 to 0.0009"><g transform="translate(0.5,0.5)"><path class="background" aria-hidden="true" d="M0,0h0v0h0Z" pointer-events="none"></path><g><g class="mark-rule role-axis-tick" pointer-events="none"><line transform="translate(0,200)" x2="-5" y2="0" stroke="#888" stroke-width="1" opacity="1"></line><line transform="translate(0,156)" x2="-5" y2="0" stroke="#888" stroke-width="1" opacity="1"></line><line transform="translate(0,111)" x2="-5" y2="0" stroke="#888" stroke-width="1" opacity="1"></line><line transform="translate(0,67)" x2="-5" y2="0" stroke="#888" stroke-width="1" opacity="1"></line><line transform="translate(0,22)" x2="-5" y2="0" stroke="#888" stroke-width="1" opacity="1"></line></g><g class="mark-text role-axis-label" pointer-events="none"><text text-anchor="end" transform="translate(-7,203)" font-family="sans-serif" font-size="10px" fill="#000" opacity="1">0.0000</text><text text-anchor="end" transform="translate(-7,158.55555555555557)" font-family="sans-serif" font-size="10px" fill="#000" opacity="1">0.0002</text><text text-anchor="end" transform="translate(-7,114.11111111111111)" font-family="sans-serif" font-size="10px" fill="#000" opacity="1">0.0004</text><text text-anchor="end" transform="translate(-7,69.66666666666667)" font-family="sans-serif" font-size="10px" fill="#000" opacity="1">0.0006</text><text text-anchor="end" transform="translate(-7,25.22222222222221)" font-family="sans-serif" font-size="10px" fill="#000" opacity="1">0.0008</text></g><g class="mark-rule role-axis-domain" pointer-events="none"><line transform="translate(0,200)" x2="0" y2="-200" stroke="#888" stroke-width="1" opacity="1"></line></g><g class="mark-text role-axis-title" pointer-events="none"><text text-anchor="middle" transform="translate(-44,100) rotate(-90) translate(0,-2)" font-family="sans-serif" font-size="11px" font-weight="bold" fill="#000" opacity="1">lower</text></g></g><path class="foreground" aria-hidden="true" d="" pointer-events="none" display="none"></path></g></g></g><path class="foreground" aria-hidden="true" d="" display="none"></path></g></g><g class="mark-group role-column-header column_header" role="graphics-object" aria-roledescription="group mark container"><g transform="translate(0,-1)"><path class="background" aria-hidden="true" d="M0,0h200v0h-200Z"></path><g><g class="mark-group role-title"><g transform="translate(100,-20)"><path class="background" aria-hidden="true" d="M0,0h0v0h0Z" pointer-events="none"></path><g><g class="mark-text role-title-text" role="graphics-symbol" aria-roledescription="title" aria-label="Title text 'athit-other'" pointer-events="none"><text text-anchor="middle" transform="translate(0,8)" font-family="sans-serif" font-size="10px" fill="#000" opacity="1">athit-other</text></g></g><path class="foreground" aria-hidden="true" d="" pointer-events="none" display="none"></path></g></g></g><path class="foreground" aria-hidden="true" d="" display="none"></path></g><g transform="translate(224,-1)"><path class="background" aria-hidden="true" d="M0,0h200v0h-200Z"></path><g><g class="mark-group role-title"><g transform="translate(100,-20)"><path class="background" aria-hidden="true" d="M0,0h0v0h0Z" pointer-events="none"></path><g><g class="mark-text role-title-text" role="graphics-symbol" aria-roledescription="title" aria-label="Title text 'athit-target'" pointer-events="none"><text text-anchor="middle" transform="translate(0,8)" font-family="sans-serif" font-size="10px" fill="#000" opacity="1">athit-target</text></g></g><path class="foreground" aria-hidden="true" d="" pointer-events="none" display="none"></path></g></g></g><path class="foreground" aria-hidden="true" d="" display="none"></path></g><g transform="translate(448,-1)"><path class="background" aria-hidden="true" d="M0,0h200v0h-200Z"></path><g><g class="mark-group role-title"><g transform="translate(100,-20)"><path class="background" aria-hidden="true" d="M0,0h0v0h0Z" pointer-events="none"></path><g><g class="mark-text role-title-text" role="graphics-symbol" aria-roledescription="title" aria-label="Title text 'atmiss-target'" pointer-events="none"><text text-anchor="middle" transform="translate(0,8)" font-family="sans-serif" font-size="10px" fill="#000" opacity="1">atmiss-target</text></g></g><path class="foreground" aria-hidden="true" d="" pointer-events="none" display="none"></path></g></g></g><path class="foreground" aria-hidden="true" d="" display="none"></path></g></g><g class="mark-group role-column-footer column_footer" role="graphics-object" aria-roledescription="group mark container"><g transform="translate(0,201)"><path class="background" aria-hidden="true" d="M0,0h200v0h-200Z"></path><g><g class="mark-group role-axis" role="graphics-symbol" aria-roledescription="axis" aria-label="X-axis titled 'mcca' for a linear scale with values from 0 to 30"><g transform="translate(0.5,0.5)"><path class="background" aria-hidden="true" d="M0,0h0v0h0Z" pointer-events="none"></path><g><g class="mark-rule role-axis-tick" pointer-events="none"><line transform="translate(0,0)" x2="0" y2="5" stroke="#888" stroke-width="1" opacity="1"></line><line transform="translate(33,0)" x2="0" y2="5" stroke="#888" stroke-width="1" opacity="1"></line><line transform="translate(67,0)" x2="0" y2="5" stroke="#888" stroke-width="1" opacity="1"></line><line transform="translate(100,0)" x2="0" y2="5" stroke="#888" stroke-width="1" opacity="1"></line><line transform="translate(133,0)" x2="0" y2="5" stroke="#888" stroke-width="1" opacity="1"></line><line transform="translate(167,0)" x2="0" y2="5" stroke="#888" stroke-width="1" opacity="1"></line><line transform="translate(200,0)" x2="0" y2="5" stroke="#888" stroke-width="1" opacity="1"></line></g><g class="mark-text role-axis-label" pointer-events="none"><text text-anchor="start" transform="translate(0,15)" font-family="sans-serif" font-size="10px" fill="#000" opacity="1">0</text><text text-anchor="middle" transform="translate(33.33333333333333,15)" font-family="sans-serif" font-size="10px" fill="#000" opacity="1">5</text><text text-anchor="middle" transform="translate(66.66666666666666,15)" font-family="sans-serif" font-size="10px" fill="#000" opacity="1">10</text><text text-anchor="middle" transform="translate(100,15)" font-family="sans-serif" font-size="10px" fill="#000" opacity="1">15</text><text text-anchor="middle" transform="translate(133.33333333333331,15)" font-family="sans-serif" font-size="10px" fill="#000" opacity="1">20</text><text text-anchor="middle" transform="translate(166.66666666666669,15)" font-family="sans-serif" font-size="10px" fill="#000" opacity="1">25</text><text text-anchor="end" transform="translate(200,15)" font-family="sans-serif" font-size="10px" fill="#000" opacity="1">30</text></g><g class="mark-rule role-axis-domain" pointer-events="none"><line transform="translate(0,0)" x2="200" y2="0" stroke="#888" stroke-width="1" opacity="1"></line></g><g class="mark-text role-axis-title" pointer-events="none"><text text-anchor="middle" transform="translate(100,30)" font-family="sans-serif" font-size="11px" font-weight="bold" fill="#000" opacity="1">mcca</text></g></g><path class="foreground" aria-hidden="true" d="" pointer-events="none" display="none"></path></g></g></g><path class="foreground" aria-hidden="true" d="" display="none"></path></g><g transform="translate(224,201)"><path class="background" aria-hidden="true" d="M0,0h200v0h-200Z"></path><g><g class="mark-group role-axis" role="graphics-symbol" aria-roledescription="axis" aria-label="X-axis titled 'mcca' for a linear scale with values from 0 to 30"><g transform="translate(0.5,0.5)"><path class="background" aria-hidden="true" d="M0,0h0v0h0Z" pointer-events="none"></path><g><g class="mark-rule role-axis-tick" pointer-events="none"><line transform="translate(0,0)" x2="0" y2="5" stroke="#888" stroke-width="1" opacity="1"></line><line transform="translate(33,0)" x2="0" y2="5" stroke="#888" stroke-width="1" opacity="1"></line><line transform="translate(67,0)" x2="0" y2="5" stroke="#888" stroke-width="1" opacity="1"></line><line transform="translate(100,0)" x2="0" y2="5" stroke="#888" stroke-width="1" opacity="1"></line><line transform="translate(133,0)" x2="0" y2="5" stroke="#888" stroke-width="1" opacity="1"></line><line transform="translate(167,0)" x2="0" y2="5" stroke="#888" stroke-width="1" opacity="1"></line><line transform="translate(200,0)" x2="0" y2="5" stroke="#888" stroke-width="1" opacity="1"></line></g><g class="mark-text role-axis-label" pointer-events="none"><text text-anchor="start" transform="translate(0,15)" font-family="sans-serif" font-size="10px" fill="#000" opacity="1">0</text><text text-anchor="middle" transform="translate(33.33333333333333,15)" font-family="sans-serif" font-size="10px" fill="#000" opacity="1">5</text><text text-anchor="middle" transform="translate(66.66666666666666,15)" font-family="sans-serif" font-size="10px" fill="#000" opacity="1">10</text><text text-anchor="middle" transform="translate(100,15)" font-family="sans-serif" font-size="10px" fill="#000" opacity="1">15</text><text text-anchor="middle" transform="translate(133.33333333333331,15)" font-family="sans-serif" font-size="10px" fill="#000" opacity="1">20</text><text text-anchor="middle" transform="translate(166.66666666666669,15)" font-family="sans-serif" font-size="10px" fill="#000" opacity="1">25</text><text text-anchor="end" transform="translate(200,15)" font-family="sans-serif" font-size="10px" fill="#000" opacity="1">30</text></g><g class="mark-rule role-axis-domain" pointer-events="none"><line transform="translate(0,0)" x2="200" y2="0" stroke="#888" stroke-width="1" opacity="1"></line></g><g class="mark-text role-axis-title" pointer-events="none"><text text-anchor="middle" transform="translate(100,30)" font-family="sans-serif" font-size="11px" font-weight="bold" fill="#000" opacity="1">mcca</text></g></g><path class="foreground" aria-hidden="true" d="" pointer-events="none" display="none"></path></g></g></g><path class="foreground" aria-hidden="true" d="" display="none"></path></g><g transform="translate(448,201)"><path class="background" aria-hidden="true" d="M0,0h200v0h-200Z"></path><g><g class="mark-group role-axis" role="graphics-symbol" aria-roledescription="axis" aria-label="X-axis titled 'mcca' for a linear scale with values from 0 to 30"><g transform="translate(0.5,0.5)"><path class="background" aria-hidden="true" d="M0,0h0v0h0Z" pointer-events="none"></path><g><g class="mark-rule role-axis-tick" pointer-events="none"><line transform="translate(0,0)" x2="0" y2="5" stroke="#888" stroke-width="1" opacity="1"></line><line transform="translate(33,0)" x2="0" y2="5" stroke="#888" stroke-width="1" opacity="1"></line><line transform="translate(67,0)" x2="0" y2="5" stroke="#888" stroke-width="1" opacity="1"></line><line transform="translate(100,0)" x2="0" y2="5" stroke="#888" stroke-width="1" opacity="1"></line><line transform="translate(133,0)" x2="0" y2="5" stroke="#888" stroke-width="1" opacity="1"></line><line transform="translate(167,0)" x2="0" y2="5" stroke="#888" stroke-width="1" opacity="1"></line><line transform="translate(200,0)" x2="0" y2="5" stroke="#888" stroke-width="1" opacity="1"></line></g><g class="mark-text role-axis-label" pointer-events="none"><text text-anchor="start" transform="translate(0,15)" font-family="sans-serif" font-size="10px" fill="#000" opacity="1">0</text><text text-anchor="middle" transform="translate(33.33333333333333,15)" font-family="sans-serif" font-size="10px" fill="#000" opacity="1">5</text><text text-anchor="middle" transform="translate(66.66666666666666,15)" font-family="sans-serif" font-size="10px" fill="#000" opacity="1">10</text><text text-anchor="middle" transform="translate(100,15)" font-family="sans-serif" font-size="10px" fill="#000" opacity="1">15</text><text text-anchor="middle" transform="translate(133.33333333333331,15)" font-family="sans-serif" font-size="10px" fill="#000" opacity="1">20</text><text text-anchor="middle" transform="translate(166.66666666666669,15)" font-family="sans-serif" font-size="10px" fill="#000" opacity="1">25</text><text text-anchor="end" transform="translate(200,15)" font-family="sans-serif" font-size="10px" fill="#000" opacity="1">30</text></g><g class="mark-rule role-axis-domain" pointer-events="none"><line transform="translate(0,0)" x2="200" y2="0" stroke="#888" stroke-width="1" opacity="1"></line></g><g class="mark-text role-axis-title" pointer-events="none"><text text-anchor="middle" transform="translate(100,30)" font-family="sans-serif" font-size="11px" font-weight="bold" fill="#000" opacity="1">mcca</text></g></g><path class="foreground" aria-hidden="true" d="" pointer-events="none" display="none"></path></g></g></g><path class="foreground" aria-hidden="true" d="" display="none"></path></g></g><g class="mark-group role-scope cell" role="graphics-object" aria-roledescription="group mark container"><g transform="translate(0,0)"><path class="background" aria-hidden="true" d="M0.5,0.5h200v200h-200Z" stroke="#ddd"></path><g><g class="mark-group role-axis" aria-hidden="true"><g transform="translate(0.5,200.5)"><path class="background" aria-hidden="true" d="M0,0h0v0h0Z" pointer-events="none"></path><g><g class="mark-rule role-axis-grid" pointer-events="none"><line transform="translate(0,-200)" x2="0" y2="200" stroke="#ddd" stroke-width="1" opacity="1"></line><line transform="translate(33,-200)" x2="0" y2="200" stroke="#ddd" stroke-width="1" opacity="1"></line><line transform="translate(67,-200)" x2="0" y2="200" stroke="#ddd" stroke-width="1" opacity="1"></line><line transform="translate(100,-200)" x2="0" y2="200" stroke="#ddd" stroke-width="1" opacity="1"></line><line transform="translate(133,-200)" x2="0" y2="200" stroke="#ddd" stroke-width="1" opacity="1"></line><line transform="translate(167,-200)" x2="0" y2="200" stroke="#ddd" stroke-width="1" opacity="1"></line><line transform="translate(200,-200)" x2="0" y2="200" stroke="#ddd" stroke-width="1" opacity="1"></line></g></g><path class="foreground" aria-hidden="true" d="" pointer-events="none" display="none"></path></g></g><g class="mark-group role-axis" aria-hidden="true"><g transform="translate(0.5,0.5)"><path class="background" aria-hidden="true" d="M0,0h0v0h0Z" pointer-events="none"></path><g><g class="mark-rule role-axis-grid" pointer-events="none"><line transform="translate(0,200)" x2="200" y2="0" stroke="#ddd" stroke-width="1" opacity="1"></line><line transform="translate(0,156)" x2="200" y2="0" stroke="#ddd" stroke-width="1" opacity="1"></line><line transform="translate(0,111)" x2="200" y2="0" stroke="#ddd" stroke-width="1" opacity="1"></line><line transform="translate(0,67)" x2="200" y2="0" stroke="#ddd" stroke-width="1" opacity="1"></line><line transform="translate(0,22)" x2="200" y2="0" stroke="#ddd" stroke-width="1" opacity="1"></line></g></g><path class="foreground" aria-hidden="true" d="" pointer-events="none" display="none"></path></g></g><g class="mark-line role-mark child_layer_0_marks" role="graphics-object" aria-roledescription="line mark container"><path aria-label="mcca: 1; value: 0.0007271755" role="graphics-symbol" aria-roledescription="line mark" d="M6.666666666666667,38.40544444444445L13.333333333333334,32.377311111111105L20,38.876991111111096L26.666666666666668,36.317055555555555L33.33333333333333,33.6776L40,37.37612666666665L46.666666666666664,33.82982222222222L53.333333333333336,38.768544444444444L60,35.647711111111114L66.66666666666666,35.738777777777784L73.33333333333333,31.587977777777777L80,38.57131111111109L86.66666666666667,32.56931111111112L93.33333333333333,39.543644444444425L100,33.5809111111111L106.66666666666667,42.705777777777776L113.33333333333333,33.377233333333336L120,40.65945111111111L126.66666666666666,43.01594444444443L133.33333333333331,37.162111111111116L140,39.85924444444444L146.66666666666666,37.59348888888889L153.33333333333334,39.94206666666664L160,40.896L166.66666666666669,40.62738666666665L173.33333333333334,35.394633333333346L180,41.2442L186.66666666666666,34.38526666666668L193.33333333333334,40.500764444444435L200,36.4562" stroke="#4c78a8" stroke-width="2"></path></g><g class="mark-area role-mark child_layer_1_layer_0_marks" role="graphics-object" aria-roledescription="area mark container"><path aria-label="lower: 0.000663785263896; upper_lower: 0.000730523315724; mcca: 1; upper: 0.000730523315724" role="graphics-symbol" aria-roledescription="errorband" d="M6.666666666666667,52.492163578669214L13.333333333333334,40.314267203211784L20,48.03057223972347L26.666666666666668,45.26912319577403L33.33333333333333,46.859084856179024L40,48.191134838594316L46.666666666666664,41.55212425523334L53.333333333333336,46.67351883318689L60,40.34935995522473L66.66666666666666,50.60843432115183L73.33333333333333,41.98648275600539L80,52.21174493845966L86.66666666666667,39.76275608357456L93.33333333333333,52.28159413155582L100,38.15925144073036L106.66666666666667,52.65597287151549L113.33333333333333,42.58157201111317L120,53.62787265330553L126.66666666666666,46.45015663570828L133.33333333333331,44.45578108231225L140,54.55455155008369L146.66666666666666,46.57292306009266L153.33333333333334,51.15112374640174L160,49.234591238200665L166.66666666666669,51.0050613226162L173.33333333333334,50.36367757452857L180,53.456677455041145L186.66666666666666,43.38231539974608L193.33333333333334,56.97697330680158L200,47.69627917557955L200,27.10843647105825L193.33333333333334,36.050452561014225L186.66666666666666,28.965597165127587L180,31.00801344133086L173.33333333333334,31.27173295037613L166.66666666666669,39.64984615643819L160,32.61634285251298L153.33333333333334,31.641144636604523L146.66666666666666,30.36064077168703L140,39.55486418886316L133.33333333333331,31.65898205091555L126.66666666666666,32.762431146370034L120,35.442557620505475L113.33333333333333,28.63827608525753L106.66666666666667,38.344920944008564L100,24.586725379857754L93.33333333333333,36.63759970416625L86.66666666666667,24.657195454670312L80,38.05447765108612L73.33333333333333,30.04144289427333L66.66666666666666,34.00303042597241L60,26.849515860279393L53.333333333333336,36.38568988276851L46.666666666666664,28.64801616718371L40,33.75439316862159L33.33333333333333,30.958097138338616L26.666666666666668,30.865223581592225L20,27.176746394899155L13.333333333333334,25.722796635495282L6.666666666666667,37.66148539466989Z" fill="#4c78a8" opacity="0.3"></path></g></g><path class="foreground" aria-hidden="true" d="" display="none"></path></g><g transform="translate(224,0)"><path class="background" aria-hidden="true" d="M0.5,0.5h200v200h-200Z" stroke="#ddd"></path><g><g class="mark-group role-axis" aria-hidden="true"><g transform="translate(0.5,200.5)"><path class="background" aria-hidden="true" d="M0,0h0v0h0Z" pointer-events="none"></path><g><g class="mark-rule role-axis-grid" pointer-events="none"><line transform="translate(0,-200)" x2="0" y2="200" stroke="#ddd" stroke-width="1" opacity="1"></line><line transform="translate(33,-200)" x2="0" y2="200" stroke="#ddd" stroke-width="1" opacity="1"></line><line transform="translate(67,-200)" x2="0" y2="200" stroke="#ddd" stroke-width="1" opacity="1"></line><line transform="translate(100,-200)" x2="0" y2="200" stroke="#ddd" stroke-width="1" opacity="1"></line><line transform="translate(133,-200)" x2="0" y2="200" stroke="#ddd" stroke-width="1" opacity="1"></line><line transform="translate(167,-200)" x2="0" y2="200" stroke="#ddd" stroke-width="1" opacity="1"></line><line transform="translate(200,-200)" x2="0" y2="200" stroke="#ddd" stroke-width="1" opacity="1"></line></g></g><path class="foreground" aria-hidden="true" d="" pointer-events="none" display="none"></path></g></g><g class="mark-group role-axis" aria-hidden="true"><g transform="translate(0.5,0.5)"><path class="background" aria-hidden="true" d="M0,0h0v0h0Z" pointer-events="none"></path><g><g class="mark-rule role-axis-grid" pointer-events="none"><line transform="translate(0,200)" x2="200" y2="0" stroke="#ddd" stroke-width="1" opacity="1"></line><line transform="translate(0,156)" x2="200" y2="0" stroke="#ddd" stroke-width="1" opacity="1"></line><line transform="translate(0,111)" x2="200" y2="0" stroke="#ddd" stroke-width="1" opacity="1"></line><line transform="translate(0,67)" x2="200" y2="0" stroke="#ddd" stroke-width="1" opacity="1"></line><line transform="translate(0,22)" x2="200" y2="0" stroke="#ddd" stroke-width="1" opacity="1"></line></g></g><path class="foreground" aria-hidden="true" d="" pointer-events="none" display="none"></path></g></g><g class="mark-line role-mark child_layer_0_marks" role="graphics-object" aria-roledescription="line mark container"><path aria-label="mcca: 1; value: 0.00076820154" role="graphics-symbol" aria-roledescription="line mark" d="M6.666666666666667,29.288546666666647L13.333333333333334,15.355644444444462L20,28.533140000000003L26.666666666666668,25.608566666666665L33.33333333333333,22.977777777777785L40,29.646924444444434L46.666666666666664,18.58290222222223L53.333333333333336,29.453053333333322L60,19.129688888888886L66.66666666666666,30.4713L73.33333333333333,17.312164444444434L80,26.222199999999994L86.66666666666667,18.47586666666665L93.33333333333333,33.18305333333333L100,20.186777777777777L106.66666666666667,30.467497777777773L113.33333333333333,25.176835555555567L120,29.258988888888872L126.66666666666666,30.297799999999995L133.33333333333331,24.17374888888888L140,28.856488888888876L146.66666666666666,21.830902222222214L153.33333333333334,27.102111111111114L160,22.928324444444435L166.66666666666669,29.831333333333344L173.33333333333334,23.31873333333334L180,28.686088888888882L186.66666666666666,23.98031777777776L193.33333333333334,31.77918666666666L200,21.221999999999987" stroke="#4c78a8" stroke-width="2"></path></g><g class="mark-area role-mark child_layer_1_layer_0_marks" role="graphics-object" aria-roledescription="area mark container"><path aria-label="lower: 0.000748154125176; upper_lower: 0.000771001912653; mcca: 1; upper: 0.000771001912653" role="graphics-symbol" aria-roledescription="errorband" d="M6.666666666666667,33.7435277385844L13.333333333333334,26.773651875555515L20,29.710888055463624L26.666666666666668,27.752665927012753L33.33333333333333,25.798673555254936L40,30.510687186486194L46.666666666666664,21.620268954171063L53.333333333333336,32.3703831475642L60,19.83284103787608L66.66666666666666,33.832999380926275L73.33333333333333,26.10889451785219L80,28.254027913014077L86.66666666666667,20.415991254978707L93.33333333333333,33.294462102154874L100,20.291530340909958L106.66666666666667,32.71364019148879L113.33333333333333,25.557435138358L120,29.83814293725622L126.66666666666666,31.854443376262974L133.33333333333331,24.51057682434716L140,30.970708798203205L146.66666666666666,22.7231101029449L153.33333333333334,35.01267464210589L160,31.486997815469884L166.66666666666669,31.54323935094807L173.33333333333334,27.676181060572457L180,35.76765387422509L186.66666666666666,24.47513482636876L193.33333333333334,33.652697917487885L200,22.70143098301358L200,12.98102324621544L193.33333333333334,28.368671134942105L186.66666666666666,16.473896822167756L180,21.61027017152972L173.33333333333334,16.685759772857022L166.66666666666669,19.201249111857678L160,22.21288761744895L153.33333333333334,20.31719345185492L146.66666666666666,20.247460674080585L140,26.03835976786084L133.33333333333331,18.96574091580179L126.66666666666666,21.373727172613144L120,22.329794470634724L113.33333333333333,16.761998873617912L106.66666666666667,21.991582090655946L100,16.5308368495769L93.33333333333333,23.295795876118873L86.66666666666667,16.212324529058407L80,24.21592964480319L73.33333333333333,16.961806370980213L66.66666666666666,19.231620575818752L60,18.57547795193062L53.333333333333336,14.170503264500024L46.666666666666664,16.90434894214072L40,17.86068787591324L33.33333333333333,18.899953323933815L26.666666666666668,20.85147510386176L20,20.850608456465935L13.333333333333334,14.493775678177666L6.666666666666667,28.666241632567502Z" fill="#4c78a8" opacity="0.3"></path></g></g><path class="foreground" aria-hidden="true" d="" display="none"></path></g><g transform="translate(448,0)"><path class="background" aria-hidden="true" d="M0.5,0.5h200v200h-200Z" stroke="#ddd"></path><g><g class="mark-group role-axis" aria-hidden="true"><g transform="translate(0.5,200.5)"><path class="background" aria-hidden="true" d="M0,0h0v0h0Z" pointer-events="none"></path><g><g class="mark-rule role-axis-grid" pointer-events="none"><line transform="translate(0,-200)" x2="0" y2="200" stroke="#ddd" stroke-width="1" opacity="1"></line><line transform="translate(33,-200)" x2="0" y2="200" stroke="#ddd" stroke-width="1" opacity="1"></line><line transform="translate(67,-200)" x2="0" y2="200" stroke="#ddd" stroke-width="1" opacity="1"></line><line transform="translate(100,-200)" x2="0" y2="200" stroke="#ddd" stroke-width="1" opacity="1"></line><line transform="translate(133,-200)" x2="0" y2="200" stroke="#ddd" stroke-width="1" opacity="1"></line><line transform="translate(167,-200)" x2="0" y2="200" stroke="#ddd" stroke-width="1" opacity="1"></line><line transform="translate(200,-200)" x2="0" y2="200" stroke="#ddd" stroke-width="1" opacity="1"></line></g></g><path class="foreground" aria-hidden="true" d="" pointer-events="none" display="none"></path></g></g><g class="mark-group role-axis" aria-hidden="true"><g transform="translate(0.5,0.5)"><path class="background" aria-hidden="true" d="M0,0h0v0h0Z" pointer-events="none"></path><g><g class="mark-rule role-axis-grid" pointer-events="none"><line transform="translate(0,200)" x2="200" y2="0" stroke="#ddd" stroke-width="1" opacity="1"></line><line transform="translate(0,156)" x2="200" y2="0" stroke="#ddd" stroke-width="1" opacity="1"></line><line transform="translate(0,111)" x2="200" y2="0" stroke="#ddd" stroke-width="1" opacity="1"></line><line transform="translate(0,67)" x2="200" y2="0" stroke="#ddd" stroke-width="1" opacity="1"></line><line transform="translate(0,22)" x2="200" y2="0" stroke="#ddd" stroke-width="1" opacity="1"></line></g></g><path class="foreground" aria-hidden="true" d="" pointer-events="none" display="none"></path></g></g><g class="mark-line role-mark child_layer_0_marks" role="graphics-object" aria-roledescription="line mark container"><path aria-label="mcca: 1; value: 0.0008007106" role="graphics-symbol" aria-roledescription="line mark" d="M6.666666666666667,22.06431111111109L13.333333333333334,17.087155555555555L20,17.966733333333316L26.666666666666668,21.54525777777776L33.33333333333333,15.537877777777776L40,23.734475555555544L46.666666666666664,11.429362222222217L53.333333333333336,20.929444444444446L60,16.437466666666655L66.66666666666666,18.598755555555545L73.33333333333333,20.233311111111085L80,22.21537777777778L86.66666666666667,18.205768888888898L93.33333333333333,23.152577777777793L100,16.116475555555553L106.66666666666667,23.815711111111113L113.33333333333333,18.841733333333323L120,19.656044444444444L126.66666666666666,24.965282222222207L133.33333333333331,18.07668888888887L140,21.578155555555554L146.66666666666666,19.258288888888874L153.33333333333334,20.769233333333315L160,19.62505333333333L166.66666666666669,22.302688888888866L173.33333333333334,18.802591111111113L180,23.64834L186.66666666666666,18.538022222222228L193.33333333333334,22.112155555555546L200,16.669755555555543" stroke="#4c78a8" stroke-width="2"></path></g><g class="mark-area role-mark child_layer_1_layer_0_marks" role="graphics-object" aria-roledescription="area mark container"><path aria-label="lower: 0.000794559018686; upper_lower: 0.000803859671578; mcca: 1; upper: 0.000803859671578" role="graphics-symbol" aria-roledescription="errorband" d="M6.666666666666667,23.431329180796933L13.333333333333334,18.751691944069336L20,19.416733872559334L26.666666666666668,22.087767016556526L33.33333333333333,16.072367442150902L40,25.33933750043311L46.666666666666664,17.36113679491811L53.333333333333336,22.106923804514935L60,16.812135072218037L66.66666666666666,19.558864045474266L73.33333333333333,23.023785009152363L80,23.486975704630208L86.66666666666667,20.69952723880608L93.33333333333333,23.405019318064046L100,18.064324143860077L106.66666666666667,24.074549703962276L113.33333333333333,18.978287900487565L120,24.083992280066013L126.66666666666666,25.314683322277332L133.33333333333331,22.310741162962387L140,27.975264957381608L146.66666666666666,19.689766607350776L153.33333333333334,24.660416278574203L160,20.88264854003985L166.66666666666669,23.116658565898728L173.33333333333334,21.44620217796829L180,25.360020622611046L186.66666666666666,19.15117758843634L193.33333333333334,25.740077843268704L200,21.840565548174908L200,15.618994438813782L193.33333333333334,21.072418449653508L186.66666666666666,17.436172937353444L180,21.026757773425842L173.33333333333334,16.390530516703915L166.66666666666669,20.954437988499784L160,18.348558619618416L153.33333333333334,18.50731031348307L146.66666666666666,14.491085190739895L140,21.46868327011664L133.33333333333331,16.883872780534958L126.66666666666666,24.633006937801838L120,19.497836546765424L113.33333333333333,16.758014882604265L106.66666666666667,21.953656565811897L100,12.452277789513255L93.33333333333333,19.7144983957211L86.66666666666667,10.895843741794419L80,21.604617560903215L73.33333333333333,17.297858599987293L66.66666666666666,18.48101338578594L60,15.953869579566838L53.333333333333336,17.388662551012303L46.666666666666664,10.150927967495393L40,23.219362749821613L33.33333333333333,14.377049915492535L26.666666666666668,21.037700813677574L20,16.54707031945386L13.333333333333334,16.312480510936833L6.666666666666667,21.36451742715306Z" fill="#4c78a8" opacity="0.3"></path></g></g><path class="foreground" aria-hidden="true" d="" display="none"></path></g></g></g><path class="foreground" aria-hidden="true" d="" display="none"></path></g></g></g></svg>
