<?xml version="1.0" encoding="utf-8"?>
<!DOCTYPE svg PUBLIC "-//W3C//DTD SVG 1.1//EN" "http://www.w3.org/Graphics/SVG/1.1/DTD/svg11.dtd">
<svg class="marks" width="220" height="135" viewBox="0 0 220 135" version="1.1" xmlns="http://www.w3.org/2000/svg" xmlns:xlink="http://www.w3.org/1999/xlink"><rect width="220" height="135" fill="white"></rect><g fill="none" stroke-miterlimit="10" transform="translate(55,8)"><g class="mark-group role-frame root" role="graphics-object" aria-roledescription="group mark container"><g transform="translate(0,0)"><path class="background" aria-hidden="true" d="M0.5,0.5h160v90h-160Z" stroke="#ddd"></path><g><g class="mark-group role-axis" aria-hidden="true"><g transform="translate(0.5,90.5)"><path class="background" aria-hidden="true" d="M0,0h0v0h0Z" pointer-events="none"></path><g><g class="mark-rule role-axis-grid" pointer-events="none"><line transform="translate(27,-90)" x2="0" y2="90" stroke="#ddd" stroke-width="1" opacity="1"></line><line transform="translate(80,-90)" x2="0" y2="90" stroke="#ddd" stroke-width="1" opacity="1"></line><line transform="translate(133,-90)" x2="0" y2="90" stroke="#ddd" stroke-width="1" opacity="1"></line></g></g><path class="foreground" aria-hidden="true" d="" pointer-events="none" display="none"></path></g></g><g class="mark-group role-axis" aria-hidden="true"><g transform="translate(0.5,0.5)"><path class="background" aria-hidden="true" d="M0,0h0v0h0Z" pointer-events="none"></path><g><g class="mark-rule role-axis-grid" pointer-events="none"><line transform="translate(0,74)" x2="160" y2="0" stroke="#ddd" stroke-width="1" opacity="1"></line><line transform="translate(0,41)" x2="160" y2="0" stroke="#ddd" stroke-width="1" opacity="1"></line><line transform="translate(0,8)" x2="160" y2="0" stroke="#ddd" stroke-width="1" opacity="1"></line></g></g><path class="foreground" aria-hidden="true" d="" pointer-events="none" display="none"></path></g></g><g class="mark-group role-axis" role="graphics-symbol" aria-roledescription="axis" aria-label="X-axis titled 'Target Time (s)' for a linear scale with values from 1 to 7"><g transform="translate(0.5,90.5)"><path class="background" aria-hidden="true" d="M0,0h0v0h0Z" pointer-events="none"></path><g><g class="mark-rule role-axis-tick" pointer-events="none"><line transform="translate(27,0)" x2="0" y2="5" stroke="#888" stroke-width="1" opacity="1"></line><line transform="translate(80,0)" x2="0" y2="5" stroke="#888" stroke-width="1" opacity="1"></line><line transform="translate(133,0)" x2="0" y2="5" stroke="#888" stroke-width="1" opacity="1"></line></g><g class="mark-text role-axis-label" pointer-events="none"><text text-anchor="middle" transform="translate(26.666666666666664,15)" font-family="sans-serif" font-size="10px" fill="#000" opacity="1">2</text><text text-anchor="middle" transform="translate(80,15)" font-family="sans-serif" font-size="10px" fill="#000" opacity="1">4</text><text text-anchor="middle" transform="translate(133.33333333333334,15)" font-family="sans-serif" font-size="10px" fill="#000" opacity="1">6</text></g><g class="mark-rule role-axis-domain" pointer-events="none"><line transform="translate(0,0)" x2="160" y2="0" stroke="#888" stroke-width="1" opacity="1"></line></g><g class="mark-text role-axis-title" pointer-events="none"><text text-anchor="middle" transform="translate(80,30)" font-family="sans-serif" font-size="11px" font-weight="bold" fill="#000" opacity="1">Target Time (s)</text></g></g><path class="foreground" aria-hidden="true" d="" pointer-events="none" display="none"></path></g></g><g class="mark-group role-axis" role="graphics-symbol" aria-roledescription="axis" aria-label="Y-axis titled 'Correlation (1s post onset)' for a linear scale with values from -0.1 to 0.5"><g transform="translate(0.5,0.5)"><path class="background" aria-hidden="true" d="M0,0h0v0h0Z" pointer-events="none"></path><g><g class="mark-rule role-axis-tick" pointer-events="none"><line transform="translate(0,74)" x2="-5" y2="0" stroke="#888" stroke-width="1" opacity="1"></line><line transform="translate(0,41)" x2="-5" y2="0" stroke="#888" stroke-width="1" opacity="1"></line><line transform="translate(0,8)" x2="-5" y2="0" stroke="#888" stroke-width="1" opacity="1"></line></g><g class="mark-text role-axis-label" pointer-events="none"><text text-anchor="end" transform="translate(-7,76.63636363636363)" font-family="sans-serif" font-size="10px" fill="#000" opacity="1">0.0</text><text text-anchor="end" transform="translate(-7,43.9090909090909)" font-family="sans-serif" font-size="10px" fill="#000" opacity="1">0.2</text><text text-anchor="end" transform="translate(-7,11.181818181818185)" font-family="sans-serif" font-size="10px" fill="#000" opacity="1">0.4</text></g><g class="mark-rule role-axis-domain" pointer-events="none"><line transform="translate(0,90)" x2="0" y2="-90" stroke="#888" stroke-width="1" opacity="1"></line></g><g class="mark-text role-axis-title" pointer-events="none"><text text-anchor="middle" transform="translate(-39,45) rotate(-90) translate(0,-2)" font-family="sans-serif" font-size="11px" font-weight="bold" fill="#000" opacity="1"><tspan>Correlation</tspan><tspan x="0" dy="13">(1s post onset)</tspan></text></g></g><path class="foreground" aria-hidden="true" d="" pointer-events="none" display="none"></path></g></g><g class="mark-symbol role-mark layer_0_marks" role="graphics-object" aria-roledescription="symbol mark container"><path aria-label="Target Time (s): 5.4293877551; Correlation, (1s post onset): 0.263685126158; : Other" role="graphics-symbol" aria-roledescription="point" transform="translate(118.1170068027211,30.487888446889965)" d="M2.7386127875258306,0A2.7386127875258306,2.7386127875258306,0,1,1,-2.7386127875258306,0A2.7386127875258306,2.7386127875258306,0,1,1,2.7386127875258306,0" fill="#9FD26B" stroke-width="2" opacity="0.6"></path><path aria-label="Target Time (s): 6.28526077098; Correlation, (1s post onset): 0.0586848362917; : Other" role="graphics-symbol" aria-roledescription="point" transform="translate(140.9402872260015,64.033390425)" d="M2.7386127875258306,0A2.7386127875258306,2.7386127875258306,0,1,1,-2.7386127875258306,0A2.7386127875258306,2.7386127875258306,0,1,1,2.7386127875258306,0" fill="#9FD26B" stroke-width="2" opacity="0.6"></path><path aria-label="Target Time (s): 2.50888888889; Correlation, (1s post onset): 0.0555186340065; : Other" role="graphics-symbol" aria-roledescription="point" transform="translate(40.237037037037034,64.55149625348974)" d="M2.7386127875258306,0A2.7386127875258306,2.7386127875258306,0,1,1,-2.7386127875258306,0A2.7386127875258306,2.7386127875258306,0,1,1,2.7386127875258306,0" fill="#9FD26B" stroke-width="2" opacity="0.6"></path><path aria-label="Target Time (s): 5.5756462585; Correlation, (1s post onset): 0.0134563491623; : Other" role="graphics-symbol" aria-roledescription="point" transform="translate(122.0172335600907,71.43441559162598)" d="M2.7386127875258306,0A2.7386127875258306,2.7386127875258306,0,1,1,-2.7386127875258306,0A2.7386127875258306,2.7386127875258306,0,1,1,2.7386127875258306,0" fill="#9FD26B" stroke-width="2" opacity="0.6"></path><path aria-label="Target Time (s): 6.09505668934; Correlation, (1s post onset): 0.1661616005; : Other" role="graphics-symbol" aria-roledescription="point" transform="translate(135.8681783824641,46.446283554545445)" d="M2.7386127875258306,0A2.7386127875258306,2.7386127875258306,0,1,1,-2.7386127875258306,0A2.7386127875258306,2.7386127875258306,0,1,1,2.7386127875258306,0" fill="#9FD26B" stroke-width="2" opacity="0.6"></path><path aria-label="Target Time (s): 2.47614512472; Correlation, (1s post onset): 0.0320491179032; : Other" role="graphics-symbol" aria-roledescription="point" transform="translate(39.36386999244142,68.39196252492668)" d="M2.7386127875258306,0A2.7386127875258306,2.7386127875258306,0,1,1,-2.7386127875258306,0A2.7386127875258306,2.7386127875258306,0,1,1,2.7386127875258306,0" fill="#9FD26B" stroke-width="2" opacity="0.6"></path><path aria-label="Target Time (s): 5.26965986395; Correlation, (1s post onset): 0.02272269725; : Other" role="graphics-symbol" aria-roledescription="point" transform="translate(113.85759637188208,69.91810408636364)" d="M2.7386127875258306,0A2.7386127875258306,2.7386127875258306,0,1,1,-2.7386127875258306,0A2.7386127875258306,2.7386127875258306,0,1,1,2.7386127875258306,0" fill="#9FD26B" stroke-width="2" opacity="0.6"></path><path aria-label="Target Time (s): 6.04902494331; Correlation, (1s post onset): 0.0291613084545; : Other" role="graphics-symbol" aria-roledescription="point" transform="translate(134.64066515495085,68.86451316198347)" d="M2.7386127875258306,0A2.7386127875258306,2.7386127875258306,0,1,1,-2.7386127875258306,0A2.7386127875258306,2.7386127875258306,0,1,1,2.7386127875258306,0" fill="#9FD26B" stroke-width="2" opacity="0.6"></path><path aria-label="Target Time (s): 5.86621315193; Correlation, (1s post onset): 0.208179898333; : Other" role="graphics-symbol" aria-roledescription="point" transform="translate(129.76568405139835,39.570562090909085)" d="M2.7386127875258306,0A2.7386127875258306,2.7386127875258306,0,1,1,-2.7386127875258306,0A2.7386127875258306,2.7386127875258306,0,1,1,2.7386127875258306,0" fill="#9FD26B" stroke-width="2" opacity="0.6"></path><path aria-label="Target Time (s): 4.73746031746; Correlation, (1s post onset): 0.143406759419; : Other" role="graphics-symbol" aria-roledescription="point" transform="translate(99.66560846560846,50.16980300410558)" d="M2.7386127875258306,0A2.7386127875258306,2.7386127875258306,0,1,1,-2.7386127875258306,0A2.7386127875258306,2.7386127875258306,0,1,1,2.7386127875258306,0" fill="#9FD26B" stroke-width="2" opacity="0.6"></path><path aria-label="Target Time (s): 5.85378684807; Correlation, (1s post onset): 0.158103124906; : Other" role="graphics-symbol" aria-roledescription="point" transform="translate(129.43431594860166,47.7649431971591)" d="M2.7386127875258306,0A2.7386127875258306,2.7386127875258306,0,1,1,-2.7386127875258306,0A2.7386127875258306,2.7386127875258306,0,1,1,2.7386127875258306,0" fill="#9FD26B" stroke-width="2" opacity="0.6"></path><path aria-label="Target Time (s): 2.57138321995; Correlation, (1s post onset): 0.0152597881781; : Other" role="graphics-symbol" aria-roledescription="point" transform="translate(41.90355253212396,71.1393073890341)" d="M2.7386127875258306,0A2.7386127875258306,2.7386127875258306,0,1,1,-2.7386127875258306,0A2.7386127875258306,2.7386127875258306,0,1,1,2.7386127875258306,0" fill="#9FD26B" stroke-width="2" opacity="0.6"></path><path aria-label="Target Time (s): 2.46049886621; Correlation, (1s post onset): 0.0369761757386; : Other" role="graphics-symbol" aria-roledescription="point" transform="translate(38.946636432350715,67.58571669731887)" d="M2.7386127875258306,0A2.7386127875258306,2.7386127875258306,0,1,1,-2.7386127875258306,0A2.7386127875258306,2.7386127875258306,0,1,1,2.7386127875258306,0" fill="#9FD26B" stroke-width="2" opacity="0.6"></path><path aria-label="Target Time (s): 6.1820861678; Correlation, (1s post onset): 0.15622960675; : Other" role="graphics-symbol" aria-roledescription="point" transform="translate(138.18896447467876,48.07151889545455)" d="M2.7386127875258306,0A2.7386127875258306,2.7386127875258306,0,1,1,-2.7386127875258306,0A2.7386127875258306,2.7386127875258306,0,1,1,2.7386127875258306,0" fill="#9FD26B" stroke-width="2" opacity="0.6"></path><path aria-label="Target Time (s): 3.31310657596; Correlation, (1s post onset): 0.0419584351486; : Other" role="graphics-symbol" aria-roledescription="point" transform="translate(61.68284202569917,66.77043788477923)" d="M2.7386127875258306,0A2.7386127875258306,2.7386127875258306,0,1,1,-2.7386127875258306,0A2.7386127875258306,2.7386127875258306,0,1,1,2.7386127875258306,0" fill="#9FD26B" stroke-width="2" opacity="0.6"></path><path aria-label="Target Time (s): 5.56217687075; Correlation, (1s post onset): 0.224987264979; : Other" role="graphics-symbol" aria-roledescription="point" transform="translate(121.65804988662131,36.82026573075435)" d="M2.7386127875258306,0A2.7386127875258306,2.7386127875258306,0,1,1,-2.7386127875258306,0A2.7386127875258306,2.7386127875258306,0,1,1,2.7386127875258306,0" fill="#9FD26B" stroke-width="2" opacity="0.6"></path><path aria-label="Target Time (s): 5.45637188209; Correlation, (1s post onset): 0.210210298284; : Other" role="graphics-symbol" aria-roledescription="point" transform="translate(118.8365835222978,39.23831482623966)" d="M2.7386127875258306,0A2.7386127875258306,2.7386127875258306,0,1,1,-2.7386127875258306,0A2.7386127875258306,2.7386127875258306,0,1,1,2.7386127875258306,0" fill="#9FD26B" stroke-width="2" opacity="0.6"></path><path aria-label="Target Time (s): 1.54607709751; Correlation, (1s post onset): 0.011970972175; : Other" role="graphics-symbol" aria-roledescription="point" transform="translate(14.562055933484508,71.67747728045454)" d="M2.7386127875258306,0A2.7386127875258306,2.7386127875258306,0,1,1,-2.7386127875258306,0A2.7386127875258306,2.7386127875258306,0,1,1,2.7386127875258306,0" fill="#9FD26B" stroke-width="2" opacity="0.6"></path><path aria-label="Target Time (s): 3.58934240363; Correlation, (1s post onset): -0.00841718513871; : Other" role="graphics-symbol" aria-roledescription="point" transform="translate(69.04913076341647,75.01372120451613)" d="M2.7386127875258306,0A2.7386127875258306,2.7386127875258306,0,1,1,-2.7386127875258306,0A2.7386127875258306,2.7386127875258306,0,1,1,2.7386127875258306,0" fill="#9FD26B" stroke-width="2" opacity="0.6"></path><path aria-label="Target Time (s): 1.91995464853; Correlation, (1s post onset): -0.0347702806882; : Other" role="graphics-symbol" aria-roledescription="point" transform="translate(24.532123960695387,79.32604593080214)" d="M2.7386127875258306,0A2.7386127875258306,2.7386127875258306,0,1,1,-2.7386127875258306,0A2.7386127875258306,2.7386127875258306,0,1,1,2.7386127875258306,0" fill="#9FD26B" stroke-width="2" opacity="0.6"></path><path aria-label="Target Time (s): 2.53777777778; Correlation, (1s post onset): 0.00167049096667; : Other" role="graphics-symbol" aria-roledescription="point" transform="translate(41.007407407407406,73.3630105690909)" d="M2.7386127875258306,0A2.7386127875258306,2.7386127875258306,0,1,1,-2.7386127875258306,0A2.7386127875258306,2.7386127875258306,0,1,1,2.7386127875258306,0" fill="#9FD26B" stroke-width="2" opacity="0.6"></path><path aria-label="Target Time (s): 2.53854875283; Correlation, (1s post onset): 0.0335779589; : Other" role="graphics-symbol" aria-roledescription="point" transform="translate(41.02796674225246,68.14178854363637)" d="M2.7386127875258306,0A2.7386127875258306,2.7386127875258306,0,1,1,-2.7386127875258306,0A2.7386127875258306,2.7386127875258306,0,1,1,2.7386127875258306,0" fill="#9FD26B" stroke-width="2" opacity="0.6"></path><path aria-label="Target Time (s): 2.639138322; Correlation, (1s post onset): 0.0271344052205; : Other" role="graphics-symbol" aria-roledescription="point" transform="translate(43.7103552532124,69.19618823663883)" d="M2.7386127875258306,0A2.7386127875258306,2.7386127875258306,0,1,1,-2.7386127875258306,0A2.7386127875258306,2.7386127875258306,0,1,1,2.7386127875258306,0" fill="#9FD26B" stroke-width="2" opacity="0.6"></path><path aria-label="Target Time (s): 2.56798185941; Correlation, (1s post onset): 0.0550539217194; : Other" role="graphics-symbol" aria-roledescription="point" transform="translate(41.81284958427816,64.62754008227273)" d="M2.7386127875258306,0A2.7386127875258306,2.7386127875258306,0,1,1,-2.7386127875258306,0A2.7386127875258306,2.7386127875258306,0,1,1,2.7386127875258306,0" fill="#9FD26B" stroke-width="2" opacity="0.6"></path><path aria-label="Target Time (s): 2.75297052154; Correlation, (1s post onset): 0.00435801364865; : Other" role="graphics-symbol" aria-roledescription="point" transform="translate(46.745880574451995,72.92323413022113)" d="M2.7386127875258306,0A2.7386127875258306,2.7386127875258306,0,1,1,-2.7386127875258306,0A2.7386127875258306,2.7386127875258306,0,1,1,2.7386127875258306,0" fill="#9FD26B" stroke-width="2" opacity="0.6"></path><path aria-label="Target Time (s): 5.77859410431; Correlation, (1s post onset): 0.0473945500289; : Other" role="graphics-symbol" aria-roledescription="point" transform="translate(127.42917611489041,65.88089181345454)" d="M2.7386127875258306,0A2.7386127875258306,2.7386127875258306,0,1,1,-2.7386127875258306,0A2.7386127875258306,2.7386127875258306,0,1,1,2.7386127875258306,0" fill="#9FD26B" stroke-width="2" opacity="0.6"></path><path aria-label="Target Time (s): 2.8622675737; Correlation, (1s post onset): 0.0276704596; : Other" role="graphics-symbol" aria-roledescription="point" transform="translate(49.6604686318972,69.10847024727272)" d="M2.7386127875258306,0A2.7386127875258306,2.7386127875258306,0,1,1,-2.7386127875258306,0A2.7386127875258306,2.7386127875258306,0,1,1,2.7386127875258306,0" fill="#9FD26B" stroke-width="2" opacity="0.6"></path><path aria-label="Target Time (s): 2.85424036281; Correlation, (1s post onset): 0.0627282817279; : Other" role="graphics-symbol" aria-roledescription="point" transform="translate(49.4464096749811,63.37173571725159)" d="M2.7386127875258306,0A2.7386127875258306,2.7386127875258306,0,1,1,-2.7386127875258306,0A2.7386127875258306,2.7386127875258306,0,1,1,2.7386127875258306,0" fill="#9FD26B" stroke-width="2" opacity="0.6"></path><path aria-label="Target Time (s): 1.50517006803; Correlation, (1s post onset): 0.021236876027; : Other" role="graphics-symbol" aria-roledescription="point" transform="translate(13.471201814058958,70.16123846830467)" d="M2.7386127875258306,0A2.7386127875258306,2.7386127875258306,0,1,1,-2.7386127875258306,0A2.7386127875258306,2.7386127875258306,0,1,1,2.7386127875258306,0" fill="#9FD26B" stroke-width="2" opacity="0.6"></path><path aria-label="Target Time (s): 4.17632653061; Correlation, (1s post onset): 0.220447256538; : Other" role="graphics-symbol" aria-roledescription="point" transform="translate(84.70204081632653,37.563176202797194)" d="M2.7386127875258306,0A2.7386127875258306,2.7386127875258306,0,1,1,-2.7386127875258306,0A2.7386127875258306,2.7386127875258306,0,1,1,2.7386127875258306,0" fill="#9FD26B" stroke-width="2" opacity="0.6"></path><path aria-label="Target Time (s): 1.50340136054; Correlation, (1s post onset): 0.0418683090326; : Other" role="graphics-symbol" aria-roledescription="point" transform="translate(13.424036281179134,66.78518579466403)" d="M2.7386127875258306,0A2.7386127875258306,2.7386127875258306,0,1,1,-2.7386127875258306,0A2.7386127875258306,2.7386127875258306,0,1,1,2.7386127875258306,0" fill="#9FD26B" stroke-width="2" opacity="0.6"></path><path aria-label="Target Time (s): 3.92712018141; Correlation, (1s post onset): 0.022037807381; : Other" role="graphics-symbol" aria-roledescription="point" transform="translate(78.05653817082388,70.03017697402598)" d="M2.7386127875258306,0A2.7386127875258306,2.7386127875258306,0,1,1,-2.7386127875258306,0A2.7386127875258306,2.7386127875258306,0,1,1,2.7386127875258306,0" fill="#9FD26B" stroke-width="2" opacity="0.6"></path><path aria-label="Target Time (s): 5.7380952381; Correlation, (1s post onset): 0.170828209484; : Other" role="graphics-symbol" aria-roledescription="point" transform="translate(126.34920634920634,45.682656629912024)" d="M2.7386127875258306,0A2.7386127875258306,2.7386127875258306,0,1,1,-2.7386127875258306,0A2.7386127875258306,2.7386127875258306,0,1,1,2.7386127875258306,0" fill="#9FD26B" stroke-width="2" opacity="0.6"></path><path aria-label="Target Time (s): 4.11750566893; Correlation, (1s post onset): 0.00559228031613; : Other" role="graphics-symbol" aria-roledescription="point" transform="translate(83.13348450491306,72.72126322099707)" d="M2.7386127875258306,0A2.7386127875258306,2.7386127875258306,0,1,1,-2.7386127875258306,0A2.7386127875258306,2.7386127875258306,0,1,1,2.7386127875258306,0" fill="#9FD26B" stroke-width="2" opacity="0.6"></path><path aria-label="Target Time (s): 4.31650793651; Correlation, (1s post onset): -0.05166387225; : Other" role="graphics-symbol" aria-roledescription="point" transform="translate(88.44021164021164,82.09045182272727)" d="M2.7386127875258306,0A2.7386127875258306,2.7386127875258306,0,1,1,-2.7386127875258306,0A2.7386127875258306,2.7386127875258306,0,1,1,2.7386127875258306,0" fill="#9FD26B" stroke-width="2" opacity="0.6"></path><path aria-label="Target Time (s): 1.59414965986; Correlation, (1s post onset): -0.0101557581403; : Other" role="graphics-symbol" aria-roledescription="point" transform="translate(15.843990929705214,75.29821496840908)" d="M2.7386127875258306,0A2.7386127875258306,2.7386127875258306,0,1,1,-2.7386127875258306,0A2.7386127875258306,2.7386127875258306,0,1,1,2.7386127875258306,0" fill="#9FD26B" stroke-width="2" opacity="0.6"></path><path aria-label="Target Time (s): 2.98712018141; Correlation, (1s post onset): 0.00833984627586; : Other" role="graphics-symbol" aria-roledescription="point" transform="translate(52.98987150415722,72.2716615184953)" d="M2.7386127875258306,0A2.7386127875258306,2.7386127875258306,0,1,1,-2.7386127875258306,0A2.7386127875258306,2.7386127875258306,0,1,1,2.7386127875258306,0" fill="#9FD26B" stroke-width="2" opacity="0.6"></path><path aria-label="Target Time (s): 6.46893424036; Correlation, (1s post onset): 0.0650455198; : Other" role="graphics-symbol" aria-roledescription="point" transform="translate(145.83824640967498,62.992551305454555)" d="M2.7386127875258306,0A2.7386127875258306,2.7386127875258306,0,1,1,-2.7386127875258306,0A2.7386127875258306,2.7386127875258306,0,1,1,2.7386127875258306,0" fill="#9FD26B" stroke-width="2" opacity="0.6"></path><path aria-label="Target Time (s): 3.43587301587; Correlation, (1s post onset): 0.0984629452; : Other" role="graphics-symbol" aria-roledescription="point" transform="translate(64.95661375661375,57.52424533090909)" d="M2.7386127875258306,0A2.7386127875258306,2.7386127875258306,0,1,1,-2.7386127875258306,0A2.7386127875258306,2.7386127875258306,0,1,1,2.7386127875258306,0" fill="#9FD26B" stroke-width="2" opacity="0.6"></path><path aria-label="Target Time (s): 1.57832199546; Correlation, (1s post onset): 0.0030777125; : Other" role="graphics-symbol" aria-roledescription="point" transform="translate(15.421919879062738,73.13273795454546)" d="M2.7386127875258306,0A2.7386127875258306,2.7386127875258306,0,1,1,-2.7386127875258306,0A2.7386127875258306,2.7386127875258306,0,1,1,2.7386127875258306,0" fill="#9FD26B" stroke-width="2" opacity="0.6"></path><path aria-label="Target Time (s): 3.31310657596; Correlation, (1s post onset): 0.0347269087714; : Target" role="graphics-symbol" aria-roledescription="point" transform="translate(61.68284202569917,67.95377856467533)" d="M2.7386127875258306,0A2.7386127875258306,2.7386127875258306,0,1,1,-2.7386127875258306,0A2.7386127875258306,2.7386127875258306,0,1,1,2.7386127875258306,0" fill="#356698" stroke-width="2" opacity="0.6"></path><path aria-label="Target Time (s): 5.56217687075; Correlation, (1s post onset): 0.278019325285; : Target" role="graphics-symbol" aria-roledescription="point" transform="translate(121.65804988662131,28.1422922260735)" d="M2.7386127875258306,0A2.7386127875258306,2.7386127875258306,0,1,1,-2.7386127875258306,0A2.7386127875258306,2.7386127875258306,0,1,1,2.7386127875258306,0" fill="#356698" stroke-width="2" opacity="0.6"></path><path aria-label="Target Time (s): 5.45637188209; Correlation, (1s post onset): 0.214658314659; : Target" role="graphics-symbol" aria-roledescription="point" transform="translate(118.8365835222978,38.51045760123966)" d="M2.7386127875258306,0A2.7386127875258306,2.7386127875258306,0,1,1,-2.7386127875258306,0A2.7386127875258306,2.7386127875258306,0,1,1,2.7386127875258306,0" fill="#356698" stroke-width="2" opacity="0.6"></path><path aria-label="Target Time (s): 1.54607709751; Correlation, (1s post onset): -0.00736776086225; : Target" role="graphics-symbol" aria-roledescription="point" transform="translate(14.562055933484508,74.84199723200454)" d="M2.7386127875258306,0A2.7386127875258306,2.7386127875258306,0,1,1,-2.7386127875258306,0A2.7386127875258306,2.7386127875258306,0,1,1,2.7386127875258306,0" fill="#356698" stroke-width="2" opacity="0.6"></path><path aria-label="Target Time (s): 3.58934240363; Correlation, (1s post onset): 0.0263124185129; : Target" role="graphics-symbol" aria-roledescription="point" transform="translate(69.04913076341647,69.33069515243402)" d="M2.7386127875258306,0A2.7386127875258306,2.7386127875258306,0,1,1,-2.7386127875258306,0A2.7386127875258306,2.7386127875258306,0,1,1,2.7386127875258306,0" fill="#356698" stroke-width="2" opacity="0.6"></path><path aria-label="Target Time (s): 1.91995464853; Correlation, (1s post onset): 0.0454565232647; : Target" role="graphics-symbol" aria-roledescription="point" transform="translate(24.532123960695387,66.1980234657754)" d="M2.7386127875258306,0A2.7386127875258306,2.7386127875258306,0,1,1,-2.7386127875258306,0A2.7386127875258306,2.7386127875258306,0,1,1,2.7386127875258306,0" fill="#356698" stroke-width="2" opacity="0.6"></path><path aria-label="Target Time (s): 2.53777777778; Correlation, (1s post onset): -0.0426840465333; : Target" role="graphics-symbol" aria-roledescription="point" transform="translate(41.007407407407406,80.62102579636363)" d="M2.7386127875258306,0A2.7386127875258306,2.7386127875258306,0,1,1,-2.7386127875258306,0A2.7386127875258306,2.7386127875258306,0,1,1,2.7386127875258306,0" fill="#356698" stroke-width="2" opacity="0.6"></path><path aria-label="Target Time (s): 2.53854875283; Correlation, (1s post onset): 0.0121618208175; : Target" role="graphics-symbol" aria-roledescription="point" transform="translate(41.02796674225246,71.64624750259091)" d="M2.7386127875258306,0A2.7386127875258306,2.7386127875258306,0,1,1,-2.7386127875258306,0A2.7386127875258306,2.7386127875258306,0,1,1,2.7386127875258306,0" fill="#356698" stroke-width="2" opacity="0.6"></path><path aria-label="Target Time (s): 2.639138322; Correlation, (1s post onset): -0.0291420962541; : Target" role="graphics-symbol" aria-roledescription="point" transform="translate(43.7103552532124,78.40507029611794)" d="M2.7386127875258306,0A2.7386127875258306,2.7386127875258306,0,1,1,-2.7386127875258306,0A2.7386127875258306,2.7386127875258306,0,1,1,2.7386127875258306,0" fill="#356698" stroke-width="2" opacity="0.6"></path><path aria-label="Target Time (s): 2.56798185941; Correlation, (1s post onset): -0.01045994125; : Target" role="graphics-symbol" aria-roledescription="point" transform="translate(41.81284958427816,75.34799038636363)" d="M2.7386127875258306,0A2.7386127875258306,2.7386127875258306,0,1,1,-2.7386127875258306,0A2.7386127875258306,2.7386127875258306,0,1,1,2.7386127875258306,0" fill="#356698" stroke-width="2" opacity="0.6"></path><path aria-label="Target Time (s): 2.75297052154; Correlation, (1s post onset): 0.042599097787; : Target" role="graphics-symbol" aria-roledescription="point" transform="translate(46.745880574451995,66.66560218030466)" d="M2.7386127875258306,0A2.7386127875258306,2.7386127875258306,0,1,1,-2.7386127875258306,0A2.7386127875258306,2.7386127875258306,0,1,1,2.7386127875258306,0" fill="#356698" stroke-width="2" opacity="0.6"></path><path aria-label="Target Time (s): 5.77859410431; Correlation, (1s post onset): 0.196142504911; : Target" role="graphics-symbol" aria-roledescription="point" transform="translate(127.42917611489041,41.54031737818181)" d="M2.7386127875258306,0A2.7386127875258306,2.7386127875258306,0,1,1,-2.7386127875258306,0A2.7386127875258306,2.7386127875258306,0,1,1,2.7386127875258306,0" fill="#356698" stroke-width="2" opacity="0.6"></path><path aria-label="Target Time (s): 2.8622675737; Correlation, (1s post onset): 0.03379090536; : Target" role="graphics-symbol" aria-roledescription="point" transform="translate(49.6604686318972,68.10694275927273)" d="M2.7386127875258306,0A2.7386127875258306,2.7386127875258306,0,1,1,-2.7386127875258306,0A2.7386127875258306,2.7386127875258306,0,1,1,2.7386127875258306,0" fill="#356698" stroke-width="2" opacity="0.6"></path><path aria-label="Target Time (s): 2.85424036281; Correlation, (1s post onset): 0.0406309650698; : Target" role="graphics-symbol" aria-roledescription="point" transform="translate(49.4464096749811,66.98766026131078)" d="M2.7386127875258306,0A2.7386127875258306,2.7386127875258306,0,1,1,-2.7386127875258306,0A2.7386127875258306,2.7386127875258306,0,1,1,2.7386127875258306,0" fill="#356698" stroke-width="2" opacity="0.6"></path><path aria-label="Target Time (s): 1.50517006803; Correlation, (1s post onset): 0.0237169716108; : Target" role="graphics-symbol" aria-roledescription="point" transform="translate(13.471201814058958,69.75540464550369)" d="M2.7386127875258306,0A2.7386127875258306,2.7386127875258306,0,1,1,-2.7386127875258306,0A2.7386127875258306,2.7386127875258306,0,1,1,2.7386127875258306,0" fill="#356698" stroke-width="2" opacity="0.6"></path><path aria-label="Target Time (s): 4.17632653061; Correlation, (1s post onset): 0.418828779487; : Target" role="graphics-symbol" aria-roledescription="point" transform="translate(84.70204081632653,5.100745174825173)" d="M2.7386127875258306,0A2.7386127875258306,2.7386127875258306,0,1,1,-2.7386127875258306,0A2.7386127875258306,2.7386127875258306,0,1,1,2.7386127875258306,0" fill="#356698" stroke-width="2" opacity="0.6"></path><path aria-label="Target Time (s): 1.50340136054; Correlation, (1s post onset): 0.0618672409113; : Target" role="graphics-symbol" aria-roledescription="point" transform="translate(13.424036281179134,63.51263330542292)" d="M2.7386127875258306,0A2.7386127875258306,2.7386127875258306,0,1,1,-2.7386127875258306,0A2.7386127875258306,2.7386127875258306,0,1,1,2.7386127875258306,0" fill="#356698" stroke-width="2" opacity="0.6"></path><path aria-label="Target Time (s): 3.92712018141; Correlation, (1s post onset): -0.0418377585238; : Target" role="graphics-symbol" aria-roledescription="point" transform="translate(78.05653817082388,80.48254230389611)" d="M2.7386127875258306,0A2.7386127875258306,2.7386127875258306,0,1,1,-2.7386127875258306,0A2.7386127875258306,2.7386127875258306,0,1,1,2.7386127875258306,0" fill="#356698" stroke-width="2" opacity="0.6"></path><path aria-label="Target Time (s): 5.7380952381; Correlation, (1s post onset): 0.257230433581; : Target" role="graphics-symbol" aria-roledescription="point" transform="translate(126.34920634920634,31.5441108686217)" d="M2.7386127875258306,0A2.7386127875258306,2.7386127875258306,0,1,1,-2.7386127875258306,0A2.7386127875258306,2.7386127875258306,0,1,1,2.7386127875258306,0" fill="#356698" stroke-width="2" opacity="0.6"></path><path aria-label="Target Time (s): 4.11750566893; Correlation, (1s post onset): 0.040109256929; : Target" role="graphics-symbol" aria-roledescription="point" transform="translate(83.13348450491306,67.07303068434018)" d="M2.7386127875258306,0A2.7386127875258306,2.7386127875258306,0,1,1,-2.7386127875258306,0A2.7386127875258306,2.7386127875258306,0,1,1,2.7386127875258306,0" fill="#356698" stroke-width="2" opacity="0.6"></path><path aria-label="Target Time (s): 4.31650793651; Correlation, (1s post onset): 0.0252277705; : Target" role="graphics-symbol" aria-roledescription="point" transform="translate(88.44021164021164,69.50818300909091)" d="M2.7386127875258306,0A2.7386127875258306,2.7386127875258306,0,1,1,-2.7386127875258306,0A2.7386127875258306,2.7386127875258306,0,1,1,2.7386127875258306,0" fill="#356698" stroke-width="2" opacity="0.6"></path><path aria-label="Target Time (s): 1.59414965986; Correlation, (1s post onset): 0.0736465381833; : Target" role="graphics-symbol" aria-roledescription="point" transform="translate(15.843990929705214,61.585111933636355)" d="M2.7386127875258306,0A2.7386127875258306,2.7386127875258306,0,1,1,-2.7386127875258306,0A2.7386127875258306,2.7386127875258306,0,1,1,2.7386127875258306,0" fill="#356698" stroke-width="2" opacity="0.6"></path><path aria-label="Target Time (s): 2.98712018141; Correlation, (1s post onset): 0.00263648018276; : Target" role="graphics-symbol" aria-roledescription="point" transform="translate(52.98987150415722,73.20493960645767)" d="M2.7386127875258306,0A2.7386127875258306,2.7386127875258306,0,1,1,-2.7386127875258306,0A2.7386127875258306,2.7386127875258306,0,1,1,2.7386127875258306,0" fill="#356698" stroke-width="2" opacity="0.6"></path><path aria-label="Target Time (s): 6.46893424036; Correlation, (1s post onset): 0.320381350714; : Target" role="graphics-symbol" aria-roledescription="point" transform="translate(145.83824640967498,21.21032442857143)" d="M2.7386127875258306,0A2.7386127875258306,2.7386127875258306,0,1,1,-2.7386127875258306,0A2.7386127875258306,2.7386127875258306,0,1,1,2.7386127875258306,0" fill="#356698" stroke-width="2" opacity="0.6"></path><path aria-label="Target Time (s): 3.43587301587; Correlation, (1s post onset): 0.132073795668; : Target" role="graphics-symbol" aria-roledescription="point" transform="translate(64.95661375661375,52.024287981531096)" d="M2.7386127875258306,0A2.7386127875258306,2.7386127875258306,0,1,1,-2.7386127875258306,0A2.7386127875258306,2.7386127875258306,0,1,1,2.7386127875258306,0" fill="#356698" stroke-width="2" opacity="0.6"></path><path aria-label="Target Time (s): 5.4293877551; Correlation, (1s post onset): 0.156749854166; : Target" role="graphics-symbol" aria-roledescription="point" transform="translate(118.1170068027211,47.98638750005742)" d="M2.7386127875258306,0A2.7386127875258306,2.7386127875258306,0,1,1,-2.7386127875258306,0A2.7386127875258306,2.7386127875258306,0,1,1,2.7386127875258306,0" fill="#356698" stroke-width="2" opacity="0.6"></path><path aria-label="Target Time (s): 6.28526077098; Correlation, (1s post onset): 0.15873524; : Target" role="graphics-symbol" aria-roledescription="point" transform="translate(140.9402872260015,47.66150618181819)" d="M2.7386127875258306,0A2.7386127875258306,2.7386127875258306,0,1,1,-2.7386127875258306,0A2.7386127875258306,2.7386127875258306,0,1,1,2.7386127875258306,0" fill="#356698" stroke-width="2" opacity="0.6"></path><path aria-label="Target Time (s): 2.50888888889; Correlation, (1s post onset): 0.0550849203871; : Target" role="graphics-symbol" aria-roledescription="point" transform="translate(40.237037037037034,64.62246757302053)" d="M2.7386127875258306,0A2.7386127875258306,2.7386127875258306,0,1,1,-2.7386127875258306,0A2.7386127875258306,2.7386127875258306,0,1,1,2.7386127875258306,0" fill="#356698" stroke-width="2" opacity="0.6"></path><path aria-label="Target Time (s): 5.5756462585; Correlation, (1s post onset): 0.151401849524; : Target" role="graphics-symbol" aria-roledescription="point" transform="translate(122.0172335600907,48.86151553246754)" d="M2.7386127875258306,0A2.7386127875258306,2.7386127875258306,0,1,1,-2.7386127875258306,0A2.7386127875258306,2.7386127875258306,0,1,1,2.7386127875258306,0" fill="#356698" stroke-width="2" opacity="0.6"></path><path aria-label="Target Time (s): 6.09505668934; Correlation, (1s post onset): 0.1998758825; : Target" role="graphics-symbol" aria-roledescription="point" transform="translate(135.8681783824641,40.929401045454554)" d="M2.7386127875258306,0A2.7386127875258306,2.7386127875258306,0,1,1,-2.7386127875258306,0A2.7386127875258306,2.7386127875258306,0,1,1,2.7386127875258306,0" fill="#356698" stroke-width="2" opacity="0.6"></path><path aria-label="Target Time (s): 2.47614512472; Correlation, (1s post onset): 0.0127442197355; : Target" role="graphics-symbol" aria-roledescription="point" transform="translate(39.36386999244142,71.55094586146627)" d="M2.7386127875258306,0A2.7386127875258306,2.7386127875258306,0,1,1,-2.7386127875258306,0A2.7386127875258306,2.7386127875258306,0,1,1,2.7386127875258306,0" fill="#356698" stroke-width="2" opacity="0.6"></path><path aria-label="Target Time (s): 5.26965986395; Correlation, (1s post onset): 0.133030180063; : Target" role="graphics-symbol" aria-roledescription="point" transform="translate(113.85759637188208,51.86778871704546)" d="M2.7386127875258306,0A2.7386127875258306,2.7386127875258306,0,1,1,-2.7386127875258306,0A2.7386127875258306,2.7386127875258306,0,1,1,2.7386127875258306,0" fill="#356698" stroke-width="2" opacity="0.6"></path><path aria-label="Target Time (s): 6.04902494331; Correlation, (1s post onset): 0.290073870273; : Target" role="graphics-symbol" aria-roledescription="point" transform="translate(134.64066515495085,26.169730319008274)" d="M2.7386127875258306,0A2.7386127875258306,2.7386127875258306,0,1,1,-2.7386127875258306,0A2.7386127875258306,2.7386127875258306,0,1,1,2.7386127875258306,0" fill="#356698" stroke-width="2" opacity="0.6"></path><path aria-label="Target Time (s): 5.86621315193; Correlation, (1s post onset): 0.292263249444; : Target" role="graphics-symbol" aria-roledescription="point" transform="translate(129.76568405139835,25.81146827272727)" d="M2.7386127875258306,0A2.7386127875258306,2.7386127875258306,0,1,1,-2.7386127875258306,0A2.7386127875258306,2.7386127875258306,0,1,1,2.7386127875258306,0" fill="#356698" stroke-width="2" opacity="0.6"></path><path aria-label="Target Time (s): 4.73746031746; Correlation, (1s post onset): 0.420736256516; : Target" role="graphics-symbol" aria-roledescription="point" transform="translate(99.66560846560846,4.7886125700879765)" d="M2.7386127875258306,0A2.7386127875258306,2.7386127875258306,0,1,1,-2.7386127875258306,0A2.7386127875258306,2.7386127875258306,0,1,1,2.7386127875258306,0" fill="#356698" stroke-width="2" opacity="0.6"></path><path aria-label="Target Time (s): 5.85378684807; Correlation, (1s post onset): 0.20564580475; : Target" role="graphics-symbol" aria-roledescription="point" transform="translate(129.43431594860166,39.98523195)" d="M2.7386127875258306,0A2.7386127875258306,2.7386127875258306,0,1,1,-2.7386127875258306,0A2.7386127875258306,2.7386127875258306,0,1,1,2.7386127875258306,0" fill="#356698" stroke-width="2" opacity="0.6"></path><path aria-label="Target Time (s): 2.57138321995; Correlation, (1s post onset): 0.0579140625937; : Target" role="graphics-symbol" aria-roledescription="point" transform="translate(41.90355253212396,64.15951703011363)" d="M2.7386127875258306,0A2.7386127875258306,2.7386127875258306,0,1,1,-2.7386127875258306,0A2.7386127875258306,2.7386127875258306,0,1,1,2.7386127875258306,0" fill="#356698" stroke-width="2" opacity="0.6"></path><path aria-label="Target Time (s): 2.46049886621; Correlation, (1s post onset): 0.0482086132414; : Target" role="graphics-symbol" aria-roledescription="point" transform="translate(38.946636432350715,65.74768146959248)" d="M2.7386127875258306,0A2.7386127875258306,2.7386127875258306,0,1,1,-2.7386127875258306,0A2.7386127875258306,2.7386127875258306,0,1,1,2.7386127875258306,0" fill="#356698" stroke-width="2" opacity="0.6"></path><path aria-label="Target Time (s): 6.1820861678; Correlation, (1s post onset): 0.008663747375; : Target" role="graphics-symbol" aria-roledescription="point" transform="translate(138.18896447467876,72.21865952045454)" d="M2.7386127875258306,0A2.7386127875258306,2.7386127875258306,0,1,1,-2.7386127875258306,0A2.7386127875258306,2.7386127875258306,0,1,1,2.7386127875258306,0" fill="#356698" stroke-width="2" opacity="0.6"></path><path aria-label="Target Time (s): 1.57832199546; Correlation, (1s post onset): 0.0831817959167; : Target" role="graphics-symbol" aria-roledescription="point" transform="translate(15.421919879062738,60.02479703181819)" d="M2.7386127875258306,0A2.7386127875258306,2.7386127875258306,0,1,1,-2.7386127875258306,0A2.7386127875258306,2.7386127875258306,0,1,1,2.7386127875258306,0" fill="#356698" stroke-width="2" opacity="0.6"></path></g><g class="mark-line role-mark layer_1_layer_0_marks" role="graphics-object" aria-roledescription="line mark container"><path aria-label="target_time: 1.50340136054; score: -0.00480009141526" role="graphics-symbol" aria-roledescription="line mark" d="M13.424036281179134,74.42183314067887L145.83824640967498,39.55144961676864" stroke="gray" stroke-width="2"></path></g><g class="mark-group role-legend" role="graphics-symbol" aria-roledescription="legend" aria-label="Symbol legend for fill color with 2 values: Target, Other"><g transform="translate(5,5)"><path class="background" aria-hidden="true" d="M0,0h46v24h-46Z" pointer-events="none"></path><g><g class="mark-group role-legend-entry"><g transform="translate(0,0)"><path class="background" aria-hidden="true" d="M0,0h0v0h0Z" pointer-events="none"></path><g><g class="mark-group role-scope" role="graphics-object" aria-roledescription="group mark container"><g transform="translate(0,0)"><path class="background" aria-hidden="true" d="M0,0h46v11h-46Z" pointer-events="none" opacity="1"></path><g><g class="mark-symbol role-legend-symbol" pointer-events="none"><path transform="translate(6,6)" d="M5,0A5,5,0,1,1,-5,0A5,5,0,1,1,5,0" fill="#356698" stroke-width="1.5" opacity="0.6"></path></g><g class="mark-text role-legend-label" pointer-events="none"><text text-anchor="start" transform="translate(16,9)" font-family="sans-serif" font-size="10px" fill="#000" opacity="1">Target</text></g></g><path class="foreground" aria-hidden="true" d="" pointer-events="none" display="none"></path></g><g transform="translate(0,13)"><path class="background" aria-hidden="true" d="M0,0h46v11h-46Z" pointer-events="none" opacity="1"></path><g><g class="mark-symbol role-legend-symbol" pointer-events="none"><path transform="translate(6,6)" d="M5,0A5,5,0,1,1,-5,0A5,5,0,1,1,5,0" fill="#9FD26B" stroke-width="1.5" opacity="0.6"></path></g><g class="mark-text role-legend-label" pointer-events="none"><text text-anchor="start" transform="translate(16,9)" font-family="sans-serif" font-size="10px" fill="#000" opacity="1">Other</text></g></g><path class="foreground" aria-hidden="true" d="" pointer-events="none" display="none"></path></g></g></g><path class="foreground" aria-hidden="true" d="" pointer-events="none" display="none"></path></g></g></g><path class="foreground" aria-hidden="true" d="" pointer-events="none" display="none"></path></g></g></g><path class="foreground" aria-hidden="true" d="" display="none"></path></g></g></g></svg>
