<?xml version="1.0" encoding="utf-8"?>
<!DOCTYPE svg PUBLIC "-//W3C//DTD SVG 1.1//EN" "http://www.w3.org/Graphics/SVG/1.1/DTD/svg11.dtd">
<svg class="marks" width="333" height="242" viewBox="0 0 333 242" version="1.1" xmlns="http://www.w3.org/2000/svg" xmlns:xlink="http://www.w3.org/1999/xlink"><rect width="333" height="242" fill="white"></rect><g fill="none" stroke-miterlimit="10" transform="translate(48,5)"><g class="mark-group role-frame root" role="graphics-object" aria-roledescription="group mark container"><g transform="translate(0,0)"><path class="background" aria-hidden="true" d="M0.5,0.5h200v200h-200Z" stroke="#ddd"></path><g><g class="mark-group role-axis" aria-hidden="true"><g transform="translate(0.5,200.5)"><path class="background" aria-hidden="true" d="M0,0h0v0h0Z" pointer-events="none"></path><g><g class="mark-rule role-axis-grid" pointer-events="none"><line transform="translate(0,-200)" x2="0" y2="200" stroke="#ddd" stroke-width="1" opacity="1"></line><line transform="translate(33,-200)" x2="0" y2="200" stroke="#ddd" stroke-width="1" opacity="1"></line><line transform="translate(67,-200)" x2="0" y2="200" stroke="#ddd" stroke-width="1" opacity="1"></line><line transform="translate(100,-200)" x2="0" y2="200" stroke="#ddd" stroke-width="1" opacity="1"></line><line transform="translate(133,-200)" x2="0" y2="200" stroke="#ddd" stroke-width="1" opacity="1"></line><line transform="translate(167,-200)" x2="0" y2="200" stroke="#ddd" stroke-width="1" opacity="1"></line><line transform="translate(200,-200)" x2="0" y2="200" stroke="#ddd" stroke-width="1" opacity="1"></line></g></g><path class="foreground" aria-hidden="true" d="" pointer-events="none" display="none"></path></g></g><g class="mark-group role-axis" aria-hidden="true"><g transform="translate(0.5,0.5)"><path class="background" aria-hidden="true" d="M0,0h0v0h0Z" pointer-events="none"></path><g><g class="mark-rule role-axis-grid" pointer-events="none"><line transform="translate(0,200)" x2="200" y2="0" stroke="#ddd" stroke-width="1" opacity="1"></line><line transform="translate(0,138)" x2="200" y2="0" stroke="#ddd" stroke-width="1" opacity="1"></line><line transform="translate(0,75)" x2="200" y2="0" stroke="#ddd" stroke-width="1" opacity="1"></line><line transform="translate(0,13)" x2="200" y2="0" stroke="#ddd" stroke-width="1" opacity="1"></line></g></g><path class="foreground" aria-hidden="true" d="" pointer-events="none" display="none"></path></g></g><g class="mark-group role-axis" role="graphics-symbol" aria-roledescription="axis" aria-label="X-axis titled 'time' for a linear scale with values from -3 to 3"><g transform="translate(0.5,200.5)"><path class="background" aria-hidden="true" d="M0,0h0v0h0Z" pointer-events="none"></path><g><g class="mark-rule role-axis-tick" pointer-events="none"><line transform="translate(0,0)" x2="0" y2="5" stroke="#888" stroke-width="1" opacity="1"></line><line transform="translate(33,0)" x2="0" y2="5" stroke="#888" stroke-width="1" opacity="1"></line><line transform="translate(67,0)" x2="0" y2="5" stroke="#888" stroke-width="1" opacity="1"></line><line transform="translate(100,0)" x2="0" y2="5" stroke="#888" stroke-width="1" opacity="1"></line><line transform="translate(133,0)" x2="0" y2="5" stroke="#888" stroke-width="1" opacity="1"></line><line transform="translate(167,0)" x2="0" y2="5" stroke="#888" stroke-width="1" opacity="1"></line><line transform="translate(200,0)" x2="0" y2="5" stroke="#888" stroke-width="1" opacity="1"></line></g><g class="mark-text role-axis-label" pointer-events="none"><text text-anchor="start" transform="translate(0,15)" font-family="sans-serif" font-size="10px" fill="#000" opacity="1">-3</text><text text-anchor="middle" transform="translate(33.33333333333333,15)" font-family="sans-serif" font-size="10px" fill="#000" opacity="1">-2</text><text text-anchor="middle" transform="translate(66.66666666666666,15)" font-family="sans-serif" font-size="10px" fill="#000" opacity="1">-1</text><text text-anchor="middle" transform="translate(100,15)" font-family="sans-serif" font-size="10px" fill="#000" opacity="1">0</text><text text-anchor="middle" transform="translate(133.33333333333331,15)" font-family="sans-serif" font-size="10px" fill="#000" opacity="1">1</text><text text-anchor="middle" transform="translate(166.66666666666669,15)" font-family="sans-serif" font-size="10px" fill="#000" opacity="1">2</text><text text-anchor="end" transform="translate(200,15)" font-family="sans-serif" font-size="10px" fill="#000" opacity="1">3</text></g><g class="mark-rule role-axis-domain" pointer-events="none"><line transform="translate(0,0)" x2="200" y2="0" stroke="#888" stroke-width="1" opacity="1"></line></g><g class="mark-text role-axis-title" pointer-events="none"><text text-anchor="middle" transform="translate(100,30)" font-family="sans-serif" font-size="11px" font-weight="bold" fill="#000" opacity="1">time</text></g></g><path class="foreground" aria-hidden="true" d="" pointer-events="none" display="none"></path></g></g><g class="mark-group role-axis" role="graphics-symbol" aria-roledescription="axis" aria-label="Y-axis titled 'lower' for a linear scale with values from 0.00 to 0.16"><g transform="translate(0.5,0.5)"><path class="background" aria-hidden="true" d="M0,0h0v0h0Z" pointer-events="none"></path><g><g class="mark-rule role-axis-tick" pointer-events="none"><line transform="translate(0,200)" x2="-5" y2="0" stroke="#888" stroke-width="1" opacity="1"></line><line transform="translate(0,138)" x2="-5" y2="0" stroke="#888" stroke-width="1" opacity="1"></line><line transform="translate(0,75)" x2="-5" y2="0" stroke="#888" stroke-width="1" opacity="1"></line><line transform="translate(0,13)" x2="-5" y2="0" stroke="#888" stroke-width="1" opacity="1"></line></g><g class="mark-text role-axis-label" pointer-events="none"><text text-anchor="end" transform="translate(-7,203)" font-family="sans-serif" font-size="10px" fill="#000" opacity="1">0.00</text><text text-anchor="end" transform="translate(-7,140.5)" font-family="sans-serif" font-size="10px" fill="#000" opacity="1">0.05</text><text text-anchor="end" transform="translate(-7,78)" font-family="sans-serif" font-size="10px" fill="#000" opacity="1">0.10</text><text text-anchor="end" transform="translate(-7,15.5)" font-family="sans-serif" font-size="10px" fill="#000" opacity="1">0.15</text></g><g class="mark-rule role-axis-domain" pointer-events="none"><line transform="translate(0,200)" x2="0" y2="-200" stroke="#888" stroke-width="1" opacity="1"></line></g><g class="mark-text role-axis-title" pointer-events="none"><text text-anchor="middle" transform="translate(-32,100) rotate(-90) translate(0,-2)" font-family="sans-serif" font-size="11px" font-weight="bold" fill="#000" opacity="1">lower</text></g></g><path class="foreground" aria-hidden="true" d="" pointer-events="none" display="none"></path></g></g><g class="mark-group role-scope layer_0_pathgroup" role="graphics-object" aria-roledescription="group mark container"><g transform="translate(0,0)"><path class="background" aria-hidden="true" d="M0,0h200v200h-200Z"></path><g><g class="mark-line role-mark layer_0_marks" role="graphics-object" aria-roledescription="line mark container"><path aria-label="time: -3; condition: global; score: 0.0280242911538" role="graphics-symbol" aria-roledescription="line mark" d="M0,164.9696360577938L3.125,170.07623206648012L6.25,169.237303333798L9.375,170.52380073874573L12.5,175.05502707573086L15.625,176.2772384509345L18.75,163.73438214791483L21.875,177.64998500813164L25,175.15017988585794L28.125,179.32676808104796L31.25,184.3294144026875L34.375,176.61273154720456L37.5,173.4380562478219L40.625,170.59256534044303L43.75,171.24293319116336L46.875,171.11027741269348L50,171.92080944215817L53.125,177.2822306111378L56.25,175.141847708905L59.375,173.92290230561755L62.5,174.38028770007512L65.625,175.30624691638002L68.75,178.25053114577491L71.875,186.25692360936745L75,186.5154628113389L78.125,180.7984542581567L81.25,175.5813235250746L84.375,166.4686904014949L87.5,166.69573134520056L90.625,151.82290047384774L93.75,143.69491286814448L96.875,146.64279475888264L100,141.4104650013869L103.125,134.15746664158502L106.25,119.63490538443003L109.375,129.46675888735157L112.5,140.79090941177247L115.625,141.48490897736147L118.75,146.3175165135627L121.875,158.74240060488881L125,168.9453619925147L128.125,172.26228244418573L131.25,174.79356647095946L134.375,178.1410374597402L137.5,176.75595977215573L140.625,173.4086317497622L143.75,172.77667580859557L146.875,179.16793762762202L150,161.11047715733875L153.125,187.0262495540889L156.25,182.9012708726012L159.375,186.5946557335211L162.5,186.11300312091223L165.625,175.68650864367547L168.75,171.2882692631815L171.875,170.78178238925227L175,168.69856581050834L178.125,151.79037386437545L181.25,161.15385977765786L184.375,153.5872708459291L187.5,161.13017652098407L190.625,148.17405270180387L193.75,141.5523463763871L196.875,139.4323564040776L200,156.0155077182217" stroke="#0F3C5F" stroke-width="2"></path></g></g><path class="foreground" aria-hidden="true" d="" display="none"></path></g><g transform="translate(0,0)"><path class="background" aria-hidden="true" d="M0,0h200v200h-200Z"></path><g><g class="mark-line role-mark layer_0_marks" role="graphics-object" aria-roledescription="line mark container"><path aria-label="time: -3; condition: object; score: 0.0199019693988" role="graphics-symbol" aria-roledescription="line mark" d="M0,175.12253825146487L3.125,171.3380611568751L6.25,152.69422634758857L9.375,163.31697184523213L12.5,164.81490120492458L15.625,155.78269549382938L18.75,136.77001671162537L21.875,165.4771085286592L25,154.91134790523654L28.125,164.25249741203584L31.25,156.6888430987211L34.375,163.42817372070425L37.5,169.42768538306905L40.625,167.89120913841396L43.75,169.7698688659696L46.875,171.17106076472282L50,168.80764817655464L53.125,169.88963274110515L56.25,173.96354542270825L59.375,170.53744083954163L62.5,169.71449985901273L65.625,168.65768926493146L68.75,173.08650781627318L71.875,179.84340727639903L75,175.58744626745496L78.125,175.01965469412016L81.25,178.2179231856385L84.375,170.81954322108749L87.5,166.75269982335453L90.625,166.53686018561905L93.75,154.67344513588026L96.875,151.73198213504708L100,149.71628913713533L103.125,135.981458663397L106.25,129.83842421934096L109.375,131.80607540795873L112.5,134.07956729390696L115.625,136.45008153388522L118.75,133.7800354918494L121.875,132.81808815129298L125,147.59477073147508L128.125,141.44125563583452L131.25,153.491417164766L134.375,162.8221557875952L137.5,164.0695756452707L140.625,158.48531010316347L143.75,161.44265656851528L146.875,158.87607213711254L150,160.1252321258435L153.125,163.6494586420532L156.25,159.03424977974151L159.375,175.8672810321032L162.5,179.4578970444848L165.625,178.14675594407782L168.75,182.88622498733952L171.875,170.27094338420184L175,168.30213868135814L178.125,158.8505101409175L181.25,175.00911541456676L184.375,167.83932366647434L187.5,172.5211999354223L190.625,165.63539248359297L193.75,163.7172391968416L196.875,157.90154520691578L200,160.98486879834218" stroke="#687B3E" stroke-width="2"></path></g></g><path class="foreground" aria-hidden="true" d="" display="none"></path></g><g transform="translate(0,0)"><path class="background" aria-hidden="true" d="M0,0h200v200h-200Z"></path><g><g class="mark-line role-mark layer_0_marks" role="graphics-object" aria-roledescription="line mark container"><path aria-label="time: -3; condition: spatial; score: 0.0467019400609" role="graphics-symbol" aria-roledescription="line mark" d="M0,141.62257492385478L3.125,146.80157364711098L6.25,134.20755368218073L9.375,140.98255294789007L12.5,157.9005271189305L15.625,156.94832258058037L18.75,128.6844243299058L21.875,130.20894964539127L25,137.92487868426778L28.125,154.20924595417515L31.25,150.58289803906067L34.375,153.31759371476434L37.5,157.79092901217305L40.625,159.05013680447234L43.75,151.9208382585675L46.875,164.48834717833842L50,164.8133784735632L53.125,171.2350573025119L56.25,169.5478717080402L59.375,164.86071784134768L62.5,157.13222970487865L65.625,158.5844956322294L68.75,154.30415465946837L71.875,166.3513994770341L75,152.0533651369536L78.125,146.8701218606022L81.25,153.26086134404147L84.375,140.71414654990915L87.5,137.68901718982818L90.625,138.20584233758146L93.75,133.75212425513837L96.875,134.01804216741314L100,118.29683461640808L103.125,110.38701605976611L106.25,90.50133245969214L109.375,90.08396538786134L112.5,98.67844689975682L115.625,98.58454129514232L118.75,110.91095399844173L121.875,113.45561278142577L125,137.25644319302916L128.125,152.38637342895686L131.25,168.22280881215133L134.375,164.9643652159689L137.5,140.44976778990195L140.625,128.11428207719499L143.75,134.47708683933755L146.875,132.38531655631797L150,139.4156803084172L153.125,139.2175438323503L156.25,118.09519802588588L159.375,163.81890971319783L162.5,155.5459181384505L165.625,134.60441873628665L168.75,124.18358217345346L171.875,137.8293857507754L175,127.73731186825887L178.125,86.83760157213673L181.25,93.74724290046237L184.375,54.21792921908859L187.5,58.58509121406313L190.625,69.78376149378389L193.75,79.4561541483647L196.875,102.22303010414781L200,133.62596088430877" stroke="#EB9A60" stroke-width="2"></path></g></g><path class="foreground" aria-hidden="true" d="" display="none"></path></g></g><g class="mark-group role-scope layer_1_layer_0_pathgroup" role="graphics-object" aria-roledescription="group mark container"><g transform="translate(0,0)"><path class="background" aria-hidden="true" d="M0,0h200v200h-200Z"></path><g><g class="mark-area role-mark layer_1_layer_0_marks" role="graphics-object" aria-roledescription="area mark container"><path aria-label="lower: 0.0221113212984; upper_lower: 0.0339439518714; time: -3; condition: global; upper: 0.0339439518714" role="graphics-symbol" aria-roledescription="errorband" d="M0,172.36084837704507L3.125,176.39263427293105L6.25,177.356016663577L9.375,178.78482587533136L12.5,181.52299260854318L15.625,184.69116008643923L18.75,173.79502684574567L21.875,183.85551171527163L25,182.42518483247594L28.125,185.6374907993946L31.25,189.12853565775836L34.375,182.50303034823614L37.5,179.3742550886372L40.625,177.0662294716025L43.75,178.42490021896518L46.875,178.91516711965886L50,179.173023327874L53.125,184.77312027043803L56.25,182.32751933509493L59.375,180.73147891575468L62.5,181.87236122106628L65.625,181.48420786216874L68.75,184.4653874097509L71.875,191.1713845686938L75,191.26066520374061L78.125,186.29621599331762L81.25,180.9816956939162L84.375,173.1527524356326L87.5,172.39285023272978L90.625,158.50889379481424L93.75,150.09505974618506L96.875,154.23927577884407L100,150.8173382708018L103.125,144.30292125600914L106.25,130.73732582055246L109.375,139.96356295302618L112.5,150.65888570320413L115.625,151.34622138101662L118.75,155.0416181159696L121.875,167.72534698199206L125,176.53396903688665L128.125,179.05075812570652L131.25,181.28965396889737L134.375,184.6681181130748L137.5,184.582842890535L140.625,181.7510827366723L143.75,180.38063285849267L146.875,186.65857355245825L150,171.7194356387055L153.125,192.77788875106862L156.25,188.7284008904403L159.375,192.84201678684573L162.5,190.4341200110246L165.625,183.07447551348974L168.75,178.60792022874267L171.875,181.8185439766727L175,181.35874739009267L178.125,167.073619113104L181.25,171.1262284961672L184.375,164.19882736833463L187.5,171.52931154103405L190.625,159.61127957117816L193.75,153.35462110234621L196.875,151.0976580593077L200,165.95805318046678L200,146.28756054211308L196.875,127.21671065799826L193.75,129.95225759578074L190.625,136.42966680914438L187.5,150.7600008364087L184.375,142.84598300724554L181.25,151.09592967543227L178.125,136.85766229985637L175,156.14336285685854L171.875,159.39894392100769L168.75,164.20648297770535L165.625,168.33225219283236L162.5,181.82056948160326L159.375,180.70215382046223L156.25,177.15643797978626L153.125,181.20536792473484L150,150.79462871418409L146.875,171.5662643729378L143.75,165.29400092238282L140.625,165.01725619863294L137.5,168.92641936810097L134.375,171.72193803646348L131.25,168.28732725971952L128.125,165.46951288906283L125,161.15469759633376L121.875,150.07288079022712L118.75,137.76382408415745L115.625,131.99622290042626L112.5,130.89964141537246L109.375,119.3569219733345L106.25,108.36639493304263L103.125,124.03212365740353L100,131.87165035886227L96.875,138.94560928481533L93.75,137.26500101802017L90.625,145.2286896902186L87.5,161.25619214603176L84.375,159.79800242339948L81.25,170.09616734720808L78.125,175.35886065438518L75,181.71346990583126L71.875,181.31505706825845L68.75,171.95878197376322L65.625,169.135085910349L62.5,167.06966215150152L59.375,167.1050771151088L56.25,167.63213065559734L53.125,169.9479715109834L50,164.46079594523673L46.875,163.30604389985123L43.75,164.0345780272182L40.625,164.2279135681464L37.5,167.31171625534668L34.375,170.72190621425088L31.25,179.58481456889993L28.125,173.1635809398103L25,168.01811805079328L21.875,171.13383730392312L18.75,153.54358088959464L15.625,167.94347255407118L12.5,168.52975164472093L9.375,162.00906361307028L6.25,161.12205155137914L3.125,163.9517298559056L0,157.57006016068962Z" fill="#0F3C5F" opacity="0.3"></path></g></g><path class="foreground" aria-hidden="true" d="" display="none"></path></g><g transform="translate(0,0)"><path class="background" aria-hidden="true" d="M0,0h200v200h-200Z"></path><g><g class="mark-area role-mark layer_1_layer_0_marks" role="graphics-object" aria-roledescription="area mark container"><path aria-label="lower: 0.0112911750373; upper_lower: 0.028494967886; time: -3; condition: object; upper: 0.028494967886" role="graphics-symbol" aria-roledescription="errorband" d="M0,185.88603120332536L3.125,183.4929431337605L6.25,168.3690045311686L9.375,178.55291210945015L12.5,179.47501334738553L15.625,171.71220071117204L18.75,164.0534419857376L21.875,179.15021218812143L25,173.47301033680242L28.125,176.6369714617863L31.25,169.0763870056407L34.375,172.01906561973846L37.5,178.5798466874495L40.625,178.16265860397104L43.75,179.36201826330037L46.875,179.33224457799236L50,176.87240078693605L53.125,178.14337573630675L56.25,182.34921731767452L59.375,179.95269305159147L62.5,179.6295038024527L65.625,176.31514570735584L68.75,179.99952038417786L71.875,185.8818264328787L75,183.63833460263123L78.125,183.63583829624326L81.25,185.85454058735627L84.375,180.39974831302493L87.5,177.79510634958183L90.625,178.23509444226895L93.75,168.8365858187454L96.875,164.4519111706301L100,162.281956200543L103.125,151.15619264084174L106.25,144.5404537410051L109.375,146.0473606438428L112.5,148.24096783102146L115.625,150.31055272259815L118.75,145.0004708545519L121.875,143.26811098083817L125,156.44394413990105L128.125,151.7174534725901L131.25,162.54972669641745L134.375,171.1965277697361L137.5,172.34026301273553L140.625,168.12549177787247L143.75,172.32411816312262L146.875,168.66315043240056L150,170.98282936987982L153.125,174.70951182664157L156.25,171.78388847518886L159.375,182.53518153265063L162.5,186.79323839649288L165.625,185.39693928784268L168.75,188.71821881862041L171.875,179.4822187952492L175,178.24624700811214L178.125,170.0384671315183L181.25,184.93612606509828L184.375,178.7052909520964L187.5,182.19691673573303L190.625,177.66991745675597L193.75,177.02797587847527L196.875,172.0179976461425L200,172.75130474354916L200,149.29355302015367L196.875,144.26073884228242L193.75,150.3158973359479L190.625,153.44135186143365L187.5,162.88504501189195L184.375,157.1273703478104L181.25,165.1973865428919L178.125,147.65640043199087L175,158.43484766136686L171.875,161.0300009353806L168.75,177.29773421318546L165.625,170.86337247880303L162.5,172.18501829643446L159.375,169.07623302193934L156.25,146.41454415342173L153.125,152.46618538023503L150,149.73774830278708L146.875,149.02995159902744L143.75,150.65115096642776L140.625,148.6071738772622L137.5,155.70848094844192L134.375,154.41246192352708L131.25,144.21806776434326L128.125,131.16593663215005L125,138.72705699326525L121.875,122.24343975212513L118.75,122.26284142964717L115.625,123.09685813401114L112.5,119.77681421249046L109.375,117.82745840641195L106.25,114.7164350640443L103.125,120.74104401868469L100,137.41676886526594L96.875,138.83350980768972L93.75,140.75407733704557L90.625,154.9406128840247L87.5,155.69780364247L84.375,161.09364269276796L81.25,170.4976327996339L78.125,166.46828154061748L75,167.5526833469873L71.875,173.81770639864095L68.75,166.34161906955165L65.625,161.13193797359517L62.5,159.77772268634644L59.375,160.85890227815608L56.25,165.2444176589923L53.125,161.51165936768376L50,160.83792086844431L46.875,162.90392271367267L43.75,160.0454913084795L40.625,157.74411325318684L37.5,160.35232135874477L34.375,154.6355896011288L31.25,144.19178358839676L28.125,152.39115172174317L25,136.54848253545393L21.875,151.41507549262357L18.75,109.68665411428952L15.625,139.62825640905226L12.5,149.66974127640546L9.375,148.16932574448498L6.25,137.33192168100064L3.125,159.39831759578024L0,164.38129014254983Z" fill="#687B3E" opacity="0.3"></path></g></g><path class="foreground" aria-hidden="true" d="" display="none"></path></g><g transform="translate(0,0)"><path class="background" aria-hidden="true" d="M0,0h200v200h-200Z"></path><g><g class="mark-area role-mark layer_1_layer_0_marks" role="graphics-object" aria-roledescription="area mark container"><path aria-label="lower: 0.0311531302149; upper_lower: 0.0617094078991; time: -3; condition: spatial; upper: 0.0617094078991" role="graphics-symbol" aria-roledescription="errorband" d="M0,161.05858723132994L3.125,168.81120134621204L6.25,157.81954915873715L9.375,161.6925570599292L12.5,174.64665402339548L15.625,173.24022519086182L18.75,149.73497466040138L21.875,154.5806688520717L25,155.5149249547023L28.125,168.16321726698703L31.25,165.8881927719571L34.375,166.15633339349486L37.5,170.56586497195644L40.625,172.61551673380282L43.75,165.42388983712314L46.875,176.96242760500112L50,174.5986930669895L53.125,179.49073574634775L56.25,180.86980875087306L59.375,175.18043505880027L62.5,167.21142570497636L65.625,167.861147779282L68.75,163.98688283844126L71.875,176.514447821737L75,164.24409690552918L78.125,158.7925194178914L81.25,164.86147127400065L84.375,151.89598218709526L87.5,150.86177461713658L90.625,150.63434018341164L93.75,146.16695365160933L96.875,146.6034966055179L100,131.02871676866818L103.125,123.37723230489716L106.25,105.97686821532406L109.375,105.05011082808005L112.5,112.03335395519159L115.625,114.58677025167164L118.75,126.1691807211073L121.875,127.40463648998119L125,148.19596841205095L128.125,163.65074134400217L131.25,176.57761441254453L134.375,174.4942035565405L137.5,153.95525925325782L140.625,144.87093035100256L143.75,150.3229809083286L146.875,153.0302639487247L150,159.6504437635356L153.125,161.79537313380266L156.25,140.29753156223506L159.375,175.74062219750644L162.5,169.4337816540019L165.625,154.98779919812605L168.75,145.05405090694623L171.875,159.19362314918564L175,155.04427802330318L178.125,114.66741160093204L181.25,121.54223816870908L184.375,89.95546491306861L187.5,94.97259684022235L190.625,99.53056703507714L193.75,109.99284954106217L196.875,131.04327584994516L200,158.6689947613184L200,108.64500984279104L196.875,73.70244235116559L193.75,49.46246307119975L190.625,39.629503347716444L187.5,22.43911340295439L184.375,17.849188408365293L181.25,66.30961100370716L178.125,59.06011274194973L175,99.44242634447578L171.875,116.13580086762857L168.75,103.37651273452133L165.625,113.94589118605445L162.5,141.5933608746247L159.375,151.47905686693616L156.25,95.88993075313192L153.125,117.5998370969133L150,117.97050701989332L146.875,112.01563441841193L143.75,118.8018514181313L140.625,111.8187297164862L137.5,127.11402437142816L134.375,155.35481694578624L131.25,159.83241287176656L128.125,140.83117290973738L125,126.11312746763276L121.875,99.54937990636982L118.75,95.68457566513399L115.625,82.20141138034325L112.5,85.04254876639182L109.375,75.32332749363455L106.25,74.80694877657675L103.125,96.7991382853197L100,105.72646182651577L96.875,121.73058653882171L93.75,121.34673097142672L90.625,125.99187148802793L87.5,124.18157128266412L84.375,129.00305890933708L81.25,141.31091302922357L78.125,134.9088611795186L75,139.71171693071983L71.875,156.2396024671402L68.75,144.27774692498136L65.625,149.33798866810872L62.5,147.1238967298659L59.375,154.5439482762614L56.25,158.12869196056994L53.125,162.8140658767972L50,155.25547655443597L46.875,152.3735748304794L43.75,138.37635973583224L40.625,145.89194993491415L37.5,145.18922685287527L34.375,140.28264183333727L31.25,135.1799957156926L28.125,140.2437536779456L25,120.72552689643162L21.875,105.82900680949581L18.75,106.82859727195402L15.625,140.19576103166312L12.5,140.81355895994054L9.375,120.359775863719L6.25,111.33133848429708L3.125,124.76020294898036L0,122.86324012615528Z" fill="#EB9A60" opacity="0.3"></path></g></g><path class="foreground" aria-hidden="true" d="" display="none"></path></g></g><g class="mark-group role-legend" role="graphics-symbol" aria-roledescription="legend" aria-label="Symbol legend titled 'condition' for fill color and stroke color with 3 values: global, object, spatial"><g transform="translate(220,0)"><path class="background" aria-hidden="true" d="M0,0h60v61h-60Z" pointer-events="none"></path><g><g class="mark-group role-legend-entry"><g transform="translate(0,16)"><path class="background" aria-hidden="true" d="M0,0h0v0h0Z" pointer-events="none"></path><g><g class="mark-group role-scope" role="graphics-object" aria-roledescription="group mark container"><g transform="translate(0,0)"><path class="background" aria-hidden="true" d="M0,0h49v12.5h-49Z" pointer-events="none" opacity="1"></path><g><g class="mark-symbol role-legend-symbol" pointer-events="none"><path transform="translate(6,6)" d="M5,0A5,5,0,1,1,-5,0A5,5,0,1,1,5,0" fill="#0F3C5F" stroke="#0F3C5F" stroke-width="1.5" opacity="0.3"></path></g><g class="mark-text role-legend-label" pointer-events="none"><text text-anchor="start" transform="translate(16,9)" font-family="sans-serif" font-size="10px" fill="#000" opacity="1">global</text></g></g><path class="foreground" aria-hidden="true" d="" pointer-events="none" display="none"></path></g><g transform="translate(0,16)"><path class="background" aria-hidden="true" d="M0,0h49v12.5h-49Z" pointer-events="none" opacity="1"></path><g><g class="mark-symbol role-legend-symbol" pointer-events="none"><path transform="translate(6,6)" d="M5,0A5,5,0,1,1,-5,0A5,5,0,1,1,5,0" fill="#687B3E" stroke="#687B3E" stroke-width="1.5" opacity="0.3"></path></g><g class="mark-text role-legend-label" pointer-events="none"><text text-anchor="start" transform="translate(16,9)" font-family="sans-serif" font-size="10px" fill="#000" opacity="1">object</text></g></g><path class="foreground" aria-hidden="true" d="" pointer-events="none" display="none"></path></g><g transform="translate(0,32)"><path class="background" aria-hidden="true" d="M0,0h49v12.5h-49Z" pointer-events="none" opacity="1"></path><g><g class="mark-symbol role-legend-symbol" pointer-events="none"><path transform="translate(6,6)" d="M5,0A5,5,0,1,1,-5,0A5,5,0,1,1,5,0" fill="#EB9A60" stroke="#EB9A60" stroke-width="1.5" opacity="0.3"></path></g><g class="mark-text role-legend-label" pointer-events="none"><text text-anchor="start" transform="translate(16,9)" font-family="sans-serif" font-size="10px" fill="#000" opacity="1">spatial</text></g></g><path class="foreground" aria-hidden="true" d="" pointer-events="none" display="none"></path></g></g></g><path class="foreground" aria-hidden="true" d="" pointer-events="none" display="none"></path></g></g><g class="mark-text role-legend-title" pointer-events="none"><text text-anchor="start" transform="translate(0,9)" font-family="sans-serif" font-size="11px" font-weight="bold" fill="#000" opacity="1">condition</text></g></g><path class="foreground" aria-hidden="true" d="" pointer-events="none" display="none"></path></g></g></g><path class="foreground" aria-hidden="true" d="" display="none"></path></g></g></g></svg>
