<?xml version="1.0" encoding="utf-8"?>
<!DOCTYPE svg PUBLIC "-//W3C//DTD SVG 1.1//EN" "http://www.w3.org/Graphics/SVG/1.1/DTD/svg11.dtd">
<svg class="marks" width="329" height="242" viewBox="0 0 329 242" version="1.1" xmlns="http://www.w3.org/2000/svg" xmlns:xlink="http://www.w3.org/1999/xlink"><rect width="329" height="242" fill="white"></rect><g fill="none" stroke-miterlimit="10" transform="translate(46,5)"><g class="mark-group role-frame root" role="graphics-object" aria-roledescription="group mark container"><g transform="translate(0,0)"><path class="background" aria-hidden="true" d="M0.5,0.5h200v200h-200Z" stroke="#ddd"></path><g><g class="mark-group role-axis" aria-hidden="true"><g transform="translate(0.5,200.5)"><path class="background" aria-hidden="true" d="M0,0h0v0h0Z" pointer-events="none"></path><g><g class="mark-rule role-axis-grid" pointer-events="none"><line transform="translate(0,-200)" x2="0" y2="200" stroke="#ddd" stroke-width="1" opacity="1"></line><line transform="translate(36,-200)" x2="0" y2="200" stroke="#ddd" stroke-width="1" opacity="1"></line><line transform="translate(73,-200)" x2="0" y2="200" stroke="#ddd" stroke-width="1" opacity="1"></line><line transform="translate(109,-200)" x2="0" y2="200" stroke="#ddd" stroke-width="1" opacity="1"></line><line transform="translate(145,-200)" x2="0" y2="200" stroke="#ddd" stroke-width="1" opacity="1"></line><line transform="translate(182,-200)" x2="0" y2="200" stroke="#ddd" stroke-width="1" opacity="1"></line></g></g><path class="foreground" aria-hidden="true" d="" pointer-events="none" display="none"></path></g></g><g class="mark-group role-axis" aria-hidden="true"><g transform="translate(0.5,0.5)"><path class="background" aria-hidden="true" d="M0,0h0v0h0Z" pointer-events="none"></path><g><g class="mark-rule role-axis-grid" pointer-events="none"><line transform="translate(0,187)" x2="200" y2="0" stroke="#ddd" stroke-width="1" opacity="1"></line><line transform="translate(0,153)" x2="200" y2="0" stroke="#ddd" stroke-width="1" opacity="1"></line><line transform="translate(0,120)" x2="200" y2="0" stroke="#ddd" stroke-width="1" opacity="1"></line><line transform="translate(0,87)" x2="200" y2="0" stroke="#ddd" stroke-width="1" opacity="1"></line><line transform="translate(0,53)" x2="200" y2="0" stroke="#ddd" stroke-width="1" opacity="1"></line><line transform="translate(0,20)" x2="200" y2="0" stroke="#ddd" stroke-width="1" opacity="1"></line></g></g><path class="foreground" aria-hidden="true" d="" pointer-events="none" display="none"></path></g></g><g class="mark-group role-axis" role="graphics-symbol" aria-roledescription="axis" aria-label="X-axis titled 'freq' for a linear scale with values from 0 to 11"><g transform="translate(0.5,200.5)"><path class="background" aria-hidden="true" d="M0,0h0v0h0Z" pointer-events="none"></path><g><g class="mark-rule role-axis-tick" pointer-events="none"><line transform="translate(0,0)" x2="0" y2="5" stroke="#888" stroke-width="1" opacity="1"></line><line transform="translate(36,0)" x2="0" y2="5" stroke="#888" stroke-width="1" opacity="1"></line><line transform="translate(73,0)" x2="0" y2="5" stroke="#888" stroke-width="1" opacity="1"></line><line transform="translate(109,0)" x2="0" y2="5" stroke="#888" stroke-width="1" opacity="1"></line><line transform="translate(145,0)" x2="0" y2="5" stroke="#888" stroke-width="1" opacity="1"></line><line transform="translate(182,0)" x2="0" y2="5" stroke="#888" stroke-width="1" opacity="1"></line></g><g class="mark-text role-axis-label" pointer-events="none"><text text-anchor="start" transform="translate(0,15)" font-family="sans-serif" font-size="10px" fill="#000" opacity="1">0</text><text text-anchor="middle" transform="translate(36.36363636363637,15)" font-family="sans-serif" font-size="10px" fill="#000" opacity="1">2</text><text text-anchor="middle" transform="translate(72.72727272727273,15)" font-family="sans-serif" font-size="10px" fill="#000" opacity="1">4</text><text text-anchor="middle" transform="translate(109.09090909090908,15)" font-family="sans-serif" font-size="10px" fill="#000" opacity="1">6</text><text text-anchor="middle" transform="translate(145.45454545454547,15)" font-family="sans-serif" font-size="10px" fill="#000" opacity="1">8</text><text text-anchor="middle" transform="translate(181.8181818181818,15)" font-family="sans-serif" font-size="10px" fill="#000" opacity="1">10</text></g><g class="mark-rule role-axis-domain" pointer-events="none"><line transform="translate(0,0)" x2="200" y2="0" stroke="#888" stroke-width="1" opacity="1"></line></g><g class="mark-text role-axis-title" pointer-events="none"><text text-anchor="middle" transform="translate(100,30)" font-family="sans-serif" font-size="11px" font-weight="bold" fill="#000" opacity="1">freq</text></g></g><path class="foreground" aria-hidden="true" d="" pointer-events="none" display="none"></path></g></g><g class="mark-group role-axis" role="graphics-symbol" aria-roledescription="axis" aria-label="Y-axis titled 'lower' for a linear scale with values from -2.2 to 0.8"><g transform="translate(0.5,0.5)"><path class="background" aria-hidden="true" d="M0,0h0v0h0Z" pointer-events="none"></path><g><g class="mark-rule role-axis-tick" pointer-events="none"><line transform="translate(0,187)" x2="-5" y2="0" stroke="#888" stroke-width="1" opacity="1"></line><line transform="translate(0,153)" x2="-5" y2="0" stroke="#888" stroke-width="1" opacity="1"></line><line transform="translate(0,120)" x2="-5" y2="0" stroke="#888" stroke-width="1" opacity="1"></line><line transform="translate(0,87)" x2="-5" y2="0" stroke="#888" stroke-width="1" opacity="1"></line><line transform="translate(0,53)" x2="-5" y2="0" stroke="#888" stroke-width="1" opacity="1"></line><line transform="translate(0,20)" x2="-5" y2="0" stroke="#888" stroke-width="1" opacity="1"></line></g><g class="mark-text role-axis-label" pointer-events="none"><text text-anchor="end" transform="translate(-7,189.66666666666666)" font-family="sans-serif" font-size="10px" fill="#000" opacity="1">-2.0</text><text text-anchor="end" transform="translate(-7,156.33333333333331)" font-family="sans-serif" font-size="10px" fill="#000" opacity="1">-1.5</text><text text-anchor="end" transform="translate(-7,122.99999999999997)" font-family="sans-serif" font-size="10px" fill="#000" opacity="1">-1.0</text><text text-anchor="end" transform="translate(-7,89.66666666666664)" font-family="sans-serif" font-size="10px" fill="#000" opacity="1">-0.5</text><text text-anchor="end" transform="translate(-7,56.33333333333332)" font-family="sans-serif" font-size="10px" fill="#000" opacity="1">0.0</text><text text-anchor="end" transform="translate(-7,22.999999999999996)" font-family="sans-serif" font-size="10px" fill="#000" opacity="1">0.5</text></g><g class="mark-rule role-axis-domain" pointer-events="none"><line transform="translate(0,200)" x2="0" y2="-200" stroke="#888" stroke-width="1" opacity="1"></line></g><g class="mark-text role-axis-title" pointer-events="none"><text text-anchor="middle" transform="translate(-30,100) rotate(-90) translate(0,-2)" font-family="sans-serif" font-size="11px" font-weight="bold" fill="#000" opacity="1">lower</text></g></g><path class="foreground" aria-hidden="true" d="" pointer-events="none" display="none"></path></g></g><g class="mark-group role-scope layer_0_pathgroup" role="graphics-object" aria-roledescription="group mark container"><g transform="translate(0,0)"><path class="background" aria-hidden="true" d="M0,0h200v200h-200Z"></path><g><g class="mark-line role-mark layer_0_marks" role="graphics-object" aria-roledescription="line mark container"><path aria-label="freq: 0; condition: global; mean: 0.441506694053" role="graphics-symbol" aria-roledescription="line mark" d="M0,23.89955372982735L12.12121212121212,14.037357582287658L24.24242424242424,43.554314129370184L36.36363636363637,85.17509522845496L48.48484848484848,90.75329745187028L60.60606060606061,104.70610541657402L72.72727272727273,128.2003688731323L84.84848484848484,126.21888715603885L96.96969696969695,134.99718522226226L109.09090909090908,153.1500059957134L121.21212121212122,145.77228327649348L133.33333333333331,154.4415186140979L145.45454545454547,163.65975112426565L157.57575757575756,157.59878471138666L169.6969696969697,166.59732952267842L181.8181818181818,169.28114326421408L193.9393939393939,182.41155703717925" stroke="#0F3C5F" stroke-width="2"></path></g></g><path class="foreground" aria-hidden="true" d="" display="none"></path></g><g transform="translate(0,0)"><path class="background" aria-hidden="true" d="M0,0h200v200h-200Z"></path><g><g class="mark-line role-mark layer_0_marks" role="graphics-object" aria-roledescription="line mark container"><path aria-label="freq: 0; condition: object; mean: 0.45313733933" role="graphics-symbol" aria-roledescription="line mark" d="M0,23.1241773779834L12.12121212121212,10.989463228211772L24.24242424242424,47.44980714099649L36.36363636363637,84.62024461055083L48.48484848484848,92.60634695215053L60.60606060606061,104.16634185671079L72.72727272727273,127.82701036987501L84.84848484848484,125.61088331782871L96.96969696969695,138.21065850150882L109.09090909090908,153.43558645438392L121.21212121212122,147.45749440573502L133.33333333333331,156.29454398342773L145.45454545454547,163.08671487542838L157.57575757575756,160.8793400214487L169.6969696969697,166.57112955083505L181.8181818181818,169.8737675028152L193.9393939393939,180.66227197748242" stroke="#687B3E" stroke-width="2"></path></g></g><path class="foreground" aria-hidden="true" d="" display="none"></path></g><g transform="translate(0,0)"><path class="background" aria-hidden="true" d="M0,0h200v200h-200Z"></path><g><g class="mark-line role-mark layer_0_marks" role="graphics-object" aria-roledescription="line mark container"><path aria-label="freq: 0; condition: spatial; mean: 0.489402216561" role="graphics-symbol" aria-roledescription="line mark" d="M0,20.70651889593087L12.12121212121212,15.343719501925435L24.24242424242424,46.79913757891494L36.36363636363637,89.20052009507866L48.48484848484848,97.56654110454723L60.60606060606061,105.05443048561385L72.72727272727273,129.73324314655827L84.84848484848484,125.01769265912661L96.96969696969695,138.34089988793022L109.09090909090908,151.24118880631784L121.21212121212122,147.72799185048856L133.33333333333331,153.15020481147633L145.45454545454547,162.04920618173566L157.57575757575756,158.82835238183273L169.6969696969697,165.03522845739073L181.8181818181818,168.08135918983845L193.9393939393939,185.49613001545043" stroke="#EB9A60" stroke-width="2"></path></g></g><path class="foreground" aria-hidden="true" d="" display="none"></path></g></g><g class="mark-symbol role-mark layer_1_marks" role="graphics-object" aria-roledescription="symbol mark container"><path aria-label="freq: 0; condition: global; mean: 0.441506694053" role="graphics-symbol" aria-roledescription="point" transform="translate(0,23.89955372982735)" d="M2.7386127875258306,0A2.7386127875258306,2.7386127875258306,0,1,1,-2.7386127875258306,0A2.7386127875258306,2.7386127875258306,0,1,1,2.7386127875258306,0" stroke="#0F3C5F" stroke-width="2" opacity="0.7"></path><path aria-label="freq: 0.666666666667; condition: global; mean: 0.589439636266" role="graphics-symbol" aria-roledescription="point" transform="translate(12.12121212121212,14.037357582287658)" d="M2.7386127875258306,0A2.7386127875258306,2.7386127875258306,0,1,1,-2.7386127875258306,0A2.7386127875258306,2.7386127875258306,0,1,1,2.7386127875258306,0" stroke="#0F3C5F" stroke-width="2" opacity="0.7"></path><path aria-label="freq: 1.33333333333; condition: global; mean: 0.146685288059" role="graphics-symbol" aria-roledescription="point" transform="translate(24.24242424242424,43.554314129370184)" d="M2.7386127875258306,0A2.7386127875258306,2.7386127875258306,0,1,1,-2.7386127875258306,0A2.7386127875258306,2.7386127875258306,0,1,1,2.7386127875258306,0" stroke="#0F3C5F" stroke-width="2" opacity="0.7"></path><path aria-label="freq: 2; condition: global; mean: -0.477626428427" role="graphics-symbol" aria-roledescription="point" transform="translate(36.36363636363637,85.17509522845496)" d="M2.7386127875258306,0A2.7386127875258306,2.7386127875258306,0,1,1,-2.7386127875258306,0A2.7386127875258306,2.7386127875258306,0,1,1,2.7386127875258306,0" stroke="#0F3C5F" stroke-width="2" opacity="0.7"></path><path aria-label="freq: 2.66666666667; condition: global; mean: -0.561299461778" role="graphics-symbol" aria-roledescription="point" transform="translate(48.48484848484848,90.75329745187028)" d="M2.7386127875258306,0A2.7386127875258306,2.7386127875258306,0,1,1,-2.7386127875258306,0A2.7386127875258306,2.7386127875258306,0,1,1,2.7386127875258306,0" stroke="#0F3C5F" stroke-width="2" opacity="0.7"></path><path aria-label="freq: 3.33333333333; condition: global; mean: -0.770591581249" role="graphics-symbol" aria-roledescription="point" transform="translate(60.60606060606061,104.70610541657402)" d="M2.7386127875258306,0A2.7386127875258306,2.7386127875258306,0,1,1,-2.7386127875258306,0A2.7386127875258306,2.7386127875258306,0,1,1,2.7386127875258306,0" stroke="#0F3C5F" stroke-width="2" opacity="0.7"></path><path aria-label="freq: 4; condition: global; mean: -1.1230055331" role="graphics-symbol" aria-roledescription="point" transform="translate(72.72727272727273,128.2003688731323)" d="M2.7386127875258306,0A2.7386127875258306,2.7386127875258306,0,1,1,-2.7386127875258306,0A2.7386127875258306,2.7386127875258306,0,1,1,2.7386127875258306,0" stroke="#0F3C5F" stroke-width="2" opacity="0.7"></path><path aria-label="freq: 4.66666666667; condition: global; mean: -1.09328330734" role="graphics-symbol" aria-roledescription="point" transform="translate(84.84848484848484,126.21888715603885)" d="M2.7386127875258306,0A2.7386127875258306,2.7386127875258306,0,1,1,-2.7386127875258306,0A2.7386127875258306,2.7386127875258306,0,1,1,2.7386127875258306,0" stroke="#0F3C5F" stroke-width="2" opacity="0.7"></path><path aria-label="freq: 5.33333333333; condition: global; mean: -1.22495777833" role="graphics-symbol" aria-roledescription="point" transform="translate(96.96969696969695,134.99718522226226)" d="M2.7386127875258306,0A2.7386127875258306,2.7386127875258306,0,1,1,-2.7386127875258306,0A2.7386127875258306,2.7386127875258306,0,1,1,2.7386127875258306,0" stroke="#0F3C5F" stroke-width="2" opacity="0.7"></path><path aria-label="freq: 6; condition: global; mean: -1.49725008994" role="graphics-symbol" aria-roledescription="point" transform="translate(109.09090909090908,153.1500059957134)" d="M2.7386127875258306,0A2.7386127875258306,2.7386127875258306,0,1,1,-2.7386127875258306,0A2.7386127875258306,2.7386127875258306,0,1,1,2.7386127875258306,0" stroke="#0F3C5F" stroke-width="2" opacity="0.7"></path><path aria-label="freq: 6.66666666667; condition: global; mean: -1.38658424915" role="graphics-symbol" aria-roledescription="point" transform="translate(121.21212121212122,145.77228327649348)" d="M2.7386127875258306,0A2.7386127875258306,2.7386127875258306,0,1,1,-2.7386127875258306,0A2.7386127875258306,2.7386127875258306,0,1,1,2.7386127875258306,0" stroke="#0F3C5F" stroke-width="2" opacity="0.7"></path><path aria-label="freq: 7.33333333333; condition: global; mean: -1.51662277921" role="graphics-symbol" aria-roledescription="point" transform="translate(133.33333333333331,154.4415186140979)" d="M2.7386127875258306,0A2.7386127875258306,2.7386127875258306,0,1,1,-2.7386127875258306,0A2.7386127875258306,2.7386127875258306,0,1,1,2.7386127875258306,0" stroke="#0F3C5F" stroke-width="2" opacity="0.7"></path><path aria-label="freq: 8; condition: global; mean: -1.65489626686" role="graphics-symbol" aria-roledescription="point" transform="translate(145.45454545454547,163.65975112426565)" d="M2.7386127875258306,0A2.7386127875258306,2.7386127875258306,0,1,1,-2.7386127875258306,0A2.7386127875258306,2.7386127875258306,0,1,1,2.7386127875258306,0" stroke="#0F3C5F" stroke-width="2" opacity="0.7"></path><path aria-label="freq: 8.66666666667; condition: global; mean: -1.56398177067" role="graphics-symbol" aria-roledescription="point" transform="translate(157.57575757575756,157.59878471138666)" d="M2.7386127875258306,0A2.7386127875258306,2.7386127875258306,0,1,1,-2.7386127875258306,0A2.7386127875258306,2.7386127875258306,0,1,1,2.7386127875258306,0" stroke="#0F3C5F" stroke-width="2" opacity="0.7"></path><path aria-label="freq: 9.33333333333; condition: global; mean: -1.69895994284" role="graphics-symbol" aria-roledescription="point" transform="translate(169.6969696969697,166.59732952267842)" d="M2.7386127875258306,0A2.7386127875258306,2.7386127875258306,0,1,1,-2.7386127875258306,0A2.7386127875258306,2.7386127875258306,0,1,1,2.7386127875258306,0" stroke="#0F3C5F" stroke-width="2" opacity="0.7"></path><path aria-label="freq: 10; condition: global; mean: -1.73921714896" role="graphics-symbol" aria-roledescription="point" transform="translate(181.8181818181818,169.28114326421408)" d="M2.7386127875258306,0A2.7386127875258306,2.7386127875258306,0,1,1,-2.7386127875258306,0A2.7386127875258306,2.7386127875258306,0,1,1,2.7386127875258306,0" stroke="#0F3C5F" stroke-width="2" opacity="0.7"></path><path aria-label="freq: 10.6666666667; condition: global; mean: -1.93617335556" role="graphics-symbol" aria-roledescription="point" transform="translate(193.9393939393939,182.41155703717925)" d="M2.7386127875258306,0A2.7386127875258306,2.7386127875258306,0,1,1,-2.7386127875258306,0A2.7386127875258306,2.7386127875258306,0,1,1,2.7386127875258306,0" stroke="#0F3C5F" stroke-width="2" opacity="0.7"></path><path aria-label="freq: 0; condition: object; mean: 0.45313733933" role="graphics-symbol" aria-roledescription="point" transform="translate(0,23.1241773779834)" d="M2.7386127875258306,0A2.7386127875258306,2.7386127875258306,0,1,1,-2.7386127875258306,0A2.7386127875258306,2.7386127875258306,0,1,1,2.7386127875258306,0" stroke="#687B3E" stroke-width="2" opacity="0.7"></path><path aria-label="freq: 0.666666666667; condition: object; mean: 0.635158051577" role="graphics-symbol" aria-roledescription="point" transform="translate(12.12121212121212,10.989463228211772)" d="M2.7386127875258306,0A2.7386127875258306,2.7386127875258306,0,1,1,-2.7386127875258306,0A2.7386127875258306,2.7386127875258306,0,1,1,2.7386127875258306,0" stroke="#687B3E" stroke-width="2" opacity="0.7"></path><path aria-label="freq: 1.33333333333; condition: object; mean: 0.0882528928851" role="graphics-symbol" aria-roledescription="point" transform="translate(24.24242424242424,47.44980714099649)" d="M2.7386127875258306,0A2.7386127875258306,2.7386127875258306,0,1,1,-2.7386127875258306,0A2.7386127875258306,2.7386127875258306,0,1,1,2.7386127875258306,0" stroke="#687B3E" stroke-width="2" opacity="0.7"></path><path aria-label="freq: 2; condition: object; mean: -0.469303669158" role="graphics-symbol" aria-roledescription="point" transform="translate(36.36363636363637,84.62024461055083)" d="M2.7386127875258306,0A2.7386127875258306,2.7386127875258306,0,1,1,-2.7386127875258306,0A2.7386127875258306,2.7386127875258306,0,1,1,2.7386127875258306,0" stroke="#687B3E" stroke-width="2" opacity="0.7"></path><path aria-label="freq: 2.66666666667; condition: object; mean: -0.589095204282" role="graphics-symbol" aria-roledescription="point" transform="translate(48.48484848484848,92.60634695215053)" d="M2.7386127875258306,0A2.7386127875258306,2.7386127875258306,0,1,1,-2.7386127875258306,0A2.7386127875258306,2.7386127875258306,0,1,1,2.7386127875258306,0" stroke="#687B3E" stroke-width="2" opacity="0.7"></path><path aria-label="freq: 3.33333333333; condition: object; mean: -0.762495127851" role="graphics-symbol" aria-roledescription="point" transform="translate(60.60606060606061,104.16634185671079)" d="M2.7386127875258306,0A2.7386127875258306,2.7386127875258306,0,1,1,-2.7386127875258306,0A2.7386127875258306,2.7386127875258306,0,1,1,2.7386127875258306,0" stroke="#687B3E" stroke-width="2" opacity="0.7"></path><path aria-label="freq: 4; condition: object; mean: -1.11740515555" role="graphics-symbol" aria-roledescription="point" transform="translate(72.72727272727273,127.82701036987501)" d="M2.7386127875258306,0A2.7386127875258306,2.7386127875258306,0,1,1,-2.7386127875258306,0A2.7386127875258306,2.7386127875258306,0,1,1,2.7386127875258306,0" stroke="#687B3E" stroke-width="2" opacity="0.7"></path><path aria-label="freq: 4.66666666667; condition: object; mean: -1.08416324977" role="graphics-symbol" aria-roledescription="point" transform="translate(84.84848484848484,125.61088331782871)" d="M2.7386127875258306,0A2.7386127875258306,2.7386127875258306,0,1,1,-2.7386127875258306,0A2.7386127875258306,2.7386127875258306,0,1,1,2.7386127875258306,0" stroke="#687B3E" stroke-width="2" opacity="0.7"></path><path aria-label="freq: 5.33333333333; condition: object; mean: -1.27315987752" role="graphics-symbol" aria-roledescription="point" transform="translate(96.96969696969695,138.21065850150882)" d="M2.7386127875258306,0A2.7386127875258306,2.7386127875258306,0,1,1,-2.7386127875258306,0A2.7386127875258306,2.7386127875258306,0,1,1,2.7386127875258306,0" stroke="#687B3E" stroke-width="2" opacity="0.7"></path><path aria-label="freq: 6; condition: object; mean: -1.50153379682" role="graphics-symbol" aria-roledescription="point" transform="translate(109.09090909090908,153.43558645438392)" d="M2.7386127875258306,0A2.7386127875258306,2.7386127875258306,0,1,1,-2.7386127875258306,0A2.7386127875258306,2.7386127875258306,0,1,1,2.7386127875258306,0" stroke="#687B3E" stroke-width="2" opacity="0.7"></path><path aria-label="freq: 6.66666666667; condition: object; mean: -1.41186241609" role="graphics-symbol" aria-roledescription="point" transform="translate(121.21212121212122,147.45749440573502)" d="M2.7386127875258306,0A2.7386127875258306,2.7386127875258306,0,1,1,-2.7386127875258306,0A2.7386127875258306,2.7386127875258306,0,1,1,2.7386127875258306,0" stroke="#687B3E" stroke-width="2" opacity="0.7"></path><path aria-label="freq: 7.33333333333; condition: object; mean: -1.54441815975" role="graphics-symbol" aria-roledescription="point" transform="translate(133.33333333333331,156.29454398342773)" d="M2.7386127875258306,0A2.7386127875258306,2.7386127875258306,0,1,1,-2.7386127875258306,0A2.7386127875258306,2.7386127875258306,0,1,1,2.7386127875258306,0" stroke="#687B3E" stroke-width="2" opacity="0.7"></path><path aria-label="freq: 8; condition: object; mean: -1.64630072313" role="graphics-symbol" aria-roledescription="point" transform="translate(145.45454545454547,163.08671487542838)" d="M2.7386127875258306,0A2.7386127875258306,2.7386127875258306,0,1,1,-2.7386127875258306,0A2.7386127875258306,2.7386127875258306,0,1,1,2.7386127875258306,0" stroke="#687B3E" stroke-width="2" opacity="0.7"></path><path aria-label="freq: 8.66666666667; condition: object; mean: -1.61319010032" role="graphics-symbol" aria-roledescription="point" transform="translate(157.57575757575756,160.8793400214487)" d="M2.7386127875258306,0A2.7386127875258306,2.7386127875258306,0,1,1,-2.7386127875258306,0A2.7386127875258306,2.7386127875258306,0,1,1,2.7386127875258306,0" stroke="#687B3E" stroke-width="2" opacity="0.7"></path><path aria-label="freq: 9.33333333333; condition: object; mean: -1.69856694326" role="graphics-symbol" aria-roledescription="point" transform="translate(169.6969696969697,166.57112955083505)" d="M2.7386127875258306,0A2.7386127875258306,2.7386127875258306,0,1,1,-2.7386127875258306,0A2.7386127875258306,2.7386127875258306,0,1,1,2.7386127875258306,0" stroke="#687B3E" stroke-width="2" opacity="0.7"></path><path aria-label="freq: 10; condition: object; mean: -1.74810651254" role="graphics-symbol" aria-roledescription="point" transform="translate(181.8181818181818,169.8737675028152)" d="M2.7386127875258306,0A2.7386127875258306,2.7386127875258306,0,1,1,-2.7386127875258306,0A2.7386127875258306,2.7386127875258306,0,1,1,2.7386127875258306,0" stroke="#687B3E" stroke-width="2" opacity="0.7"></path><path aria-label="freq: 10.6666666667; condition: object; mean: -1.90993407966" role="graphics-symbol" aria-roledescription="point" transform="translate(193.9393939393939,180.66227197748242)" d="M2.7386127875258306,0A2.7386127875258306,2.7386127875258306,0,1,1,-2.7386127875258306,0A2.7386127875258306,2.7386127875258306,0,1,1,2.7386127875258306,0" stroke="#687B3E" stroke-width="2" opacity="0.7"></path><path aria-label="freq: 0; condition: spatial; mean: 0.489402216561" role="graphics-symbol" aria-roledescription="point" transform="translate(0,20.70651889593087)" d="M2.7386127875258306,0A2.7386127875258306,2.7386127875258306,0,1,1,-2.7386127875258306,0A2.7386127875258306,2.7386127875258306,0,1,1,2.7386127875258306,0" stroke="#EB9A60" stroke-width="2" opacity="0.7"></path><path aria-label="freq: 0.666666666667; condition: spatial; mean: 0.569844207471" role="graphics-symbol" aria-roledescription="point" transform="translate(12.12121212121212,15.343719501925435)" d="M2.7386127875258306,0A2.7386127875258306,2.7386127875258306,0,1,1,-2.7386127875258306,0A2.7386127875258306,2.7386127875258306,0,1,1,2.7386127875258306,0" stroke="#EB9A60" stroke-width="2" opacity="0.7"></path><path aria-label="freq: 1.33333333333; condition: spatial; mean: 0.0980129363163" role="graphics-symbol" aria-roledescription="point" transform="translate(24.24242424242424,46.79913757891494)" d="M2.7386127875258306,0A2.7386127875258306,2.7386127875258306,0,1,1,-2.7386127875258306,0A2.7386127875258306,2.7386127875258306,0,1,1,2.7386127875258306,0" stroke="#EB9A60" stroke-width="2" opacity="0.7"></path><path aria-label="freq: 2; condition: spatial; mean: -0.538007801426" role="graphics-symbol" aria-roledescription="point" transform="translate(36.36363636363637,89.20052009507866)" d="M2.7386127875258306,0A2.7386127875258306,2.7386127875258306,0,1,1,-2.7386127875258306,0A2.7386127875258306,2.7386127875258306,0,1,1,2.7386127875258306,0" stroke="#EB9A60" stroke-width="2" opacity="0.7"></path><path aria-label="freq: 2.66666666667; condition: spatial; mean: -0.663498116568" role="graphics-symbol" aria-roledescription="point" transform="translate(48.48484848484848,97.56654110454723)" d="M2.7386127875258306,0A2.7386127875258306,2.7386127875258306,0,1,1,-2.7386127875258306,0A2.7386127875258306,2.7386127875258306,0,1,1,2.7386127875258306,0" stroke="#EB9A60" stroke-width="2" opacity="0.7"></path><path aria-label="freq: 3.33333333333; condition: spatial; mean: -0.775816457284" role="graphics-symbol" aria-roledescription="point" transform="translate(60.60606060606061,105.05443048561385)" d="M2.7386127875258306,0A2.7386127875258306,2.7386127875258306,0,1,1,-2.7386127875258306,0A2.7386127875258306,2.7386127875258306,0,1,1,2.7386127875258306,0" stroke="#EB9A60" stroke-width="2" opacity="0.7"></path><path aria-label="freq: 4; condition: spatial; mean: -1.1459986472" role="graphics-symbol" aria-roledescription="point" transform="translate(72.72727272727273,129.73324314655827)" d="M2.7386127875258306,0A2.7386127875258306,2.7386127875258306,0,1,1,-2.7386127875258306,0A2.7386127875258306,2.7386127875258306,0,1,1,2.7386127875258306,0" stroke="#EB9A60" stroke-width="2" opacity="0.7"></path><path aria-label="freq: 4.66666666667; condition: spatial; mean: -1.07526538989" role="graphics-symbol" aria-roledescription="point" transform="translate(84.84848484848484,125.01769265912661)" d="M2.7386127875258306,0A2.7386127875258306,2.7386127875258306,0,1,1,-2.7386127875258306,0A2.7386127875258306,2.7386127875258306,0,1,1,2.7386127875258306,0" stroke="#EB9A60" stroke-width="2" opacity="0.7"></path><path aria-label="freq: 5.33333333333; condition: spatial; mean: -1.27511349832" role="graphics-symbol" aria-roledescription="point" transform="translate(96.96969696969695,138.34089988793022)" d="M2.7386127875258306,0A2.7386127875258306,2.7386127875258306,0,1,1,-2.7386127875258306,0A2.7386127875258306,2.7386127875258306,0,1,1,2.7386127875258306,0" stroke="#EB9A60" stroke-width="2" opacity="0.7"></path><path aria-label="freq: 6; condition: spatial; mean: -1.46861783209" role="graphics-symbol" aria-roledescription="point" transform="translate(109.09090909090908,151.24118880631784)" d="M2.7386127875258306,0A2.7386127875258306,2.7386127875258306,0,1,1,-2.7386127875258306,0A2.7386127875258306,2.7386127875258306,0,1,1,2.7386127875258306,0" stroke="#EB9A60" stroke-width="2" opacity="0.7"></path><path aria-label="freq: 6.66666666667; condition: spatial; mean: -1.41591987776" role="graphics-symbol" aria-roledescription="point" transform="translate(121.21212121212122,147.72799185048856)" d="M2.7386127875258306,0A2.7386127875258306,2.7386127875258306,0,1,1,-2.7386127875258306,0A2.7386127875258306,2.7386127875258306,0,1,1,2.7386127875258306,0" stroke="#EB9A60" stroke-width="2" opacity="0.7"></path><path aria-label="freq: 7.33333333333; condition: spatial; mean: -1.49725307217" role="graphics-symbol" aria-roledescription="point" transform="translate(133.33333333333331,153.15020481147633)" d="M2.7386127875258306,0A2.7386127875258306,2.7386127875258306,0,1,1,-2.7386127875258306,0A2.7386127875258306,2.7386127875258306,0,1,1,2.7386127875258306,0" stroke="#EB9A60" stroke-width="2" opacity="0.7"></path><path aria-label="freq: 8; condition: spatial; mean: -1.63073809273" role="graphics-symbol" aria-roledescription="point" transform="translate(145.45454545454547,162.04920618173566)" d="M2.7386127875258306,0A2.7386127875258306,2.7386127875258306,0,1,1,-2.7386127875258306,0A2.7386127875258306,2.7386127875258306,0,1,1,2.7386127875258306,0" stroke="#EB9A60" stroke-width="2" opacity="0.7"></path><path aria-label="freq: 8.66666666667; condition: spatial; mean: -1.58242528573" role="graphics-symbol" aria-roledescription="point" transform="translate(157.57575757575756,158.82835238183273)" d="M2.7386127875258306,0A2.7386127875258306,2.7386127875258306,0,1,1,-2.7386127875258306,0A2.7386127875258306,2.7386127875258306,0,1,1,2.7386127875258306,0" stroke="#EB9A60" stroke-width="2" opacity="0.7"></path><path aria-label="freq: 9.33333333333; condition: spatial; mean: -1.67552842686" role="graphics-symbol" aria-roledescription="point" transform="translate(169.6969696969697,165.03522845739073)" d="M2.7386127875258306,0A2.7386127875258306,2.7386127875258306,0,1,1,-2.7386127875258306,0A2.7386127875258306,2.7386127875258306,0,1,1,2.7386127875258306,0" stroke="#EB9A60" stroke-width="2" opacity="0.7"></path><path aria-label="freq: 10; condition: spatial; mean: -1.72122038785" role="graphics-symbol" aria-roledescription="point" transform="translate(181.8181818181818,168.08135918983845)" d="M2.7386127875258306,0A2.7386127875258306,2.7386127875258306,0,1,1,-2.7386127875258306,0A2.7386127875258306,2.7386127875258306,0,1,1,2.7386127875258306,0" stroke="#EB9A60" stroke-width="2" opacity="0.7"></path><path aria-label="freq: 10.6666666667; condition: spatial; mean: -1.98244195023" role="graphics-symbol" aria-roledescription="point" transform="translate(193.9393939393939,185.49613001545043)" d="M2.7386127875258306,0A2.7386127875258306,2.7386127875258306,0,1,1,-2.7386127875258306,0A2.7386127875258306,2.7386127875258306,0,1,1,2.7386127875258306,0" stroke="#EB9A60" stroke-width="2" opacity="0.7"></path></g><g class="mark-rule role-mark layer_2_marks" role="graphics-object" aria-roledescription="rule mark container"><line aria-label="lower: 0.394333380422; upper_lower: 0.48928784591; freq: 0; condition: global; upper: 0.48928784591" role="graphics-symbol" aria-roledescription="errorbar" transform="translate(0,27.044441305227718)" x2="0" y2="-6.330297699237942" stroke="#0F3C5F"></line><line aria-label="lower: 0.571190357831; upper_lower: 0.607791529761; freq: 0.666666666667; condition: global; upper: 0.607791529761" role="graphics-symbol" aria-roledescription="errorbar" transform="translate(12.12121212121212,15.253976144607929)" x2="0" y2="-2.440078128698598" stroke="#0F3C5F"></line><line aria-label="lower: 0.11183057956; upper_lower: 0.184106161273; freq: 1.33333333333; condition: global; upper: 0.184106161273" role="graphics-symbol" aria-roledescription="errorbar" transform="translate(24.24242424242424,45.87796136268889)" x2="0" y2="-4.818372114235487" stroke="#0F3C5F"></line><line aria-label="lower: -0.498927743182; upper_lower: -0.456347307729; freq: 2; condition: global; upper: -0.456347307729" role="graphics-symbol" aria-roledescription="errorbar" transform="translate(36.36363636363637,86.59518287878502)" x2="0" y2="-2.838695696862146" stroke="#0F3C5F"></line><line aria-label="lower: -0.586918949101; upper_lower: -0.533328540563; freq: 2.66666666667; condition: global; upper: -0.533328540563" role="graphics-symbol" aria-roledescription="errorbar" transform="translate(48.48484848484848,92.46126327339097)" x2="0" y2="-3.572693902492091" stroke="#0F3C5F"></line><line aria-label="lower: -0.796611770989; upper_lower: -0.742470149761; freq: 3.33333333333; condition: global; upper: -0.742470149761" role="graphics-symbol" aria-roledescription="errorbar" transform="translate(60.60606060606061,106.44078473257372)" x2="0" y2="-3.609441415161726" stroke="#0F3C5F"></line><line aria-label="lower: -1.15312730594; upper_lower: -1.09138443183; freq: 4; condition: global; upper: -1.09138443183" role="graphics-symbol" aria-roledescription="errorbar" transform="translate(72.72727272727273,130.2084870628817)" x2="0" y2="-4.116191607879088" stroke="#0F3C5F"></line><line aria-label="lower: -1.13225878519; upper_lower: -1.05331922255; freq: 4.66666666667; condition: global; upper: -1.05331922255" role="graphics-symbol" aria-roledescription="errorbar" transform="translate(84.84848484848484,128.81725234603132)" x2="0" y2="-5.262637509070444" stroke="#0F3C5F"></line><line aria-label="lower: -1.25525863406; upper_lower: -1.19393294987; freq: 5.33333333333; condition: global; upper: -1.19393294987" role="graphics-symbol" aria-roledescription="errorbar" transform="translate(96.96969696969695,137.0172422707388)" x2="0" y2="-4.088378946309632" stroke="#0F3C5F"></line><line aria-label="lower: -1.52237471083; upper_lower: -1.46983346463; freq: 6; condition: global; upper: -1.46983346463" role="graphics-symbol" aria-roledescription="errorbar" transform="translate(109.09090909090908,154.82498072181733)" x2="0" y2="-3.5027497463703696" stroke="#0F3C5F"></line><line aria-label="lower: -1.41501004508; upper_lower: -1.35689338455; freq: 6.66666666667; condition: global; upper: -1.35689338455" role="graphics-symbol" aria-roledescription="errorbar" transform="translate(121.21212121212122,147.6673363386031)" x2="0" y2="-3.874444035287013" stroke="#0F3C5F"></line><line aria-label="lower: -1.54194785403; upper_lower: -1.49281085924; freq: 7.33333333333; condition: global; upper: -1.49281085924" role="graphics-symbol" aria-roledescription="errorbar" transform="translate(133.33333333333331,156.12985693555578)" x2="0" y2="-3.275799652804494" stroke="#0F3C5F"></line><line aria-label="lower: -1.69341170756; upper_lower: -1.61712297213; freq: 8; condition: global; upper: -1.61712297213" role="graphics-symbol" aria-roledescription="errorbar" transform="translate(145.45454545454547,166.22744717078405)" x2="0" y2="-5.085915695599397" stroke="#0F3C5F"></line><line aria-label="lower: -1.58768406392; upper_lower: -1.54006269028; freq: 8.66666666667; condition: global; upper: -1.54006269028" role="graphics-symbol" aria-roledescription="errorbar" transform="translate(157.57575757575756,159.17893759482584)" x2="0" y2="-3.174758243027412" stroke="#0F3C5F"></line><line aria-label="lower: -1.7255166421; upper_lower: -1.67360438796; freq: 9.33333333333; condition: global; upper: -1.67360438796" role="graphics-symbol" aria-roledescription="errorbar" transform="translate(169.6969696969697,168.36777613991737)" x2="0" y2="-3.460816942639866" stroke="#0F3C5F"></line><line aria-label="lower: -1.76103041109; upper_lower: -1.71773255555; freq: 10; condition: global; upper: -1.71773255555" role="graphics-symbol" aria-roledescription="errorbar" transform="translate(181.8181818181818,170.73536073950095)" x2="0" y2="-2.8865237030453272" stroke="#0F3C5F"></line><line aria-label="lower: -1.9789345942; upper_lower: -1.89173568519; freq: 10.6666666667; condition: global; upper: -1.89173568519" role="graphics-symbol" aria-roledescription="errorbar" transform="translate(193.9393939393939,185.26230627987687)" x2="0" y2="-5.813260600610306" stroke="#0F3C5F"></line><line aria-label="lower: 0.369528164652; upper_lower: 0.532833531469; freq: 0; condition: object; upper: 0.532833531469" role="graphics-symbol" aria-roledescription="errorbar" transform="translate(0,28.698122356535904)" x2="0" y2="-10.887024454484283" stroke="#687B3E"></line><line aria-label="lower: 0.599729790992; upper_lower: 0.668604284444; freq: 0.666666666667; condition: object; upper: 0.668604284444" role="graphics-symbol" aria-roledescription="errorbar" transform="translate(12.12121212121212,13.351347267188295)" x2="0" y2="-4.591632896763365" stroke="#687B3E"></line><line aria-label="lower: 0.0473653101; upper_lower: 0.127187080877; freq: 1.33333333333; condition: object; upper: 0.127187080877" role="graphics-symbol" aria-roledescription="errorbar" transform="translate(24.24242424242424,50.17564599333302)" x2="0" y2="-5.321451385142822" stroke="#687B3E"></line><line aria-label="lower: -0.508169694421; upper_lower: -0.432654921537; freq: 2; condition: object; upper: -0.432654921537" role="graphics-symbol" aria-roledescription="errorbar" transform="translate(36.36363636363637,87.21131296140146)" x2="0" y2="-5.034318192261836" stroke="#687B3E"></line><line aria-label="lower: -0.647330216292; upper_lower: -0.527460847894; freq: 2.66666666667; condition: object; upper: -0.527460847894" role="graphics-symbol" aria-roledescription="errorbar" transform="translate(48.48484848484848,96.48868108610971)" x2="0" y2="-7.991291226498646" stroke="#687B3E"></line><line aria-label="lower: -0.794148968255; upper_lower: -0.730206710422; freq: 3.33333333333; condition: object; upper: -0.730206710422" role="graphics-symbol" aria-roledescription="errorbar" transform="translate(60.60606060606061,106.27659788367066)" x2="0" y2="-4.262817188882778" stroke="#687B3E"></line><line aria-label="lower: -1.14814170556; upper_lower: -1.08771060359; freq: 4; condition: object; upper: -1.08771060359" role="graphics-symbol" aria-roledescription="errorbar" transform="translate(72.72727272727273,129.8761137042561)" x2="0" y2="-4.028740131281964" stroke="#687B3E"></line><line aria-label="lower: -1.12084322093; upper_lower: -1.04868303213; freq: 4.66666666667; condition: object; upper: -1.04868303213" role="graphics-symbol" aria-roledescription="errorbar" transform="translate(84.84848484848484,128.05621472888868)" x2="0" y2="-4.810679253837478" stroke="#687B3E"></line><line aria-label="lower: -1.30902328141; upper_lower: -1.23890435002; freq: 5.33333333333; condition: object; upper: -1.23890435002" role="graphics-symbol" aria-roledescription="errorbar" transform="translate(96.96969696969695,140.60155209424892)" x2="0" y2="-4.674595426079833" stroke="#687B3E"></line><line aria-label="lower: -1.54374799788; upper_lower: -1.45686489168; freq: 6; condition: object; upper: -1.45686489168" role="graphics-symbol" aria-roledescription="errorbar" transform="translate(109.09090909090908,156.24986652524214)" x2="0" y2="-5.792207079730275" stroke="#687B3E"></line><line aria-label="lower: -1.45167822621; upper_lower: -1.37130809986; freq: 6.66666666667; condition: object; upper: -1.37130809986" role="graphics-symbol" aria-roledescription="errorbar" transform="translate(121.21212121212122,150.1118817474715)" x2="0" y2="-5.35800842369639" stroke="#687B3E"></line><line aria-label="lower: -1.58561457148; upper_lower: -1.49496726958; freq: 7.33333333333; condition: object; upper: -1.49496726958" role="graphics-symbol" aria-roledescription="errorbar" transform="translate(133.33333333333331,159.04097143208108)" x2="0" y2="-6.043153459953544" stroke="#687B3E"></line><line aria-label="lower: -1.68142454531; upper_lower: -1.60983692134; freq: 8; condition: object; upper: -1.60983692134" role="graphics-symbol" aria-roledescription="errorbar" transform="translate(145.45454545454547,165.42830302049902)" x2="0" y2="-4.772508264746023" stroke="#687B3E"></line><line aria-label="lower: -1.67154055473; upper_lower: -1.55411484396; freq: 8.66666666667; condition: object; upper: -1.55411484396" role="graphics-symbol" aria-roledescription="errorbar" transform="translate(157.57575757575756,164.76937031555045)" x2="0" y2="-7.82838071828715" stroke="#687B3E"></line><line aria-label="lower: -1.737317041; upper_lower: -1.65679643304; freq: 9.33333333333; condition: object; upper: -1.65679643304" role="graphics-symbol" aria-roledescription="errorbar" transform="translate(169.6969696969697,169.15446940021758)" x2="0" y2="-5.36804053059592" stroke="#687B3E"></line><line aria-label="lower: -1.79230992525; upper_lower: -1.70327992243; freq: 10; condition: object; upper: -1.70327992243" role="graphics-symbol" aria-roledescription="errorbar" transform="translate(181.8181818181818,172.8206616833704)" x2="0" y2="-5.935333521256354" stroke="#687B3E"></line><line aria-label="lower: -1.99042238585; upper_lower: -1.84193985112; freq: 10.6666666667; condition: object; upper: -1.84193985112" role="graphics-symbol" aria-roledescription="errorbar" transform="translate(193.9393939393939,186.02815905633867)" x2="0" y2="-9.898835648561572" stroke="#687B3E"></line><line aria-label="lower: 0.404646864074; upper_lower: 0.568678004837; freq: 0; condition: spatial; upper: 0.568678004837" role="graphics-symbol" aria-roledescription="errorbar" transform="translate(0,26.3568757283948)" x2="0" y2="-10.93540938420454" stroke="#EB9A60"></line><line aria-label="lower: 0.515273644518; upper_lower: 0.627856334971; freq: 0.666666666667; condition: spatial; upper: 0.627856334971" role="graphics-symbol" aria-roledescription="errorbar" transform="translate(12.12121212121212,18.98175703216449)" x2="0" y2="-7.505512696875893" stroke="#EB9A60"></line><line aria-label="lower: 0.0500632974354; upper_lower: 0.144303918533; freq: 1.33333333333; condition: spatial; upper: 0.144303918533" role="graphics-symbol" aria-roledescription="errorbar" transform="translate(24.24242424242424,49.99578017097639)" x2="0" y2="-6.282708073174014" stroke="#EB9A60"></line><line aria-label="lower: -0.597196765173; upper_lower: -0.476429183396; freq: 2; condition: spatial; upper: -0.476429183396" role="graphics-symbol" aria-roledescription="errorbar" transform="translate(36.36363636363637,93.1464510115004)" x2="0" y2="-8.051172118432305" stroke="#EB9A60"></line><line aria-label="lower: -0.72659908779; upper_lower: -0.598307513055; freq: 2.66666666667; condition: spatial; upper: -0.598307513055" role="graphics-symbol" aria-roledescription="errorbar" transform="translate(48.48484848484848,101.77327251932087)" x2="0" y2="-8.552771649000192" stroke="#EB9A60"></line><line aria-label="lower: -0.856110535993; upper_lower: -0.69286423455; freq: 3.33333333333; condition: spatial; upper: -0.69286423455" role="graphics-symbol" aria-roledescription="errorbar" transform="translate(60.60606060606061,110.40736906618606)" x2="0" y2="-10.88308676286016" stroke="#EB9A60"></line><line aria-label="lower: -1.19548450431; upper_lower: -1.09173549747; freq: 4; condition: spatial; upper: -1.09173549747" role="graphics-symbol" aria-roledescription="errorbar" transform="translate(72.72727272727273,133.03230028718826)" x2="0" y2="-6.916600455987336" stroke="#EB9A60"></line><line aria-label="lower: -1.12511806918; upper_lower: -1.02707268878; freq: 4.66666666667; condition: spatial; upper: -1.02707268878" role="graphics-symbol" aria-roledescription="errorbar" transform="translate(84.84848484848484,128.3412046119813)" x2="0" y2="-6.536358693250975" stroke="#EB9A60"></line><line aria-label="lower: -1.34771814457; upper_lower: -1.20353288821; freq: 5.33333333333; condition: spatial; upper: -1.20353288821" role="graphics-symbol" aria-roledescription="errorbar" transform="translate(96.96969696969695,143.18120963807323)" x2="0" y2="-9.612350423942019" stroke="#EB9A60"></line><line aria-label="lower: -1.52932643922; upper_lower: -1.40811581565; freq: 6; condition: spatial; upper: -1.40811581565" role="graphics-symbol" aria-roledescription="errorbar" transform="translate(109.09090909090908,155.2884292811268)" x2="0" y2="-8.080708237938182" stroke="#EB9A60"></line><line aria-label="lower: -1.46931284642; upper_lower: -1.36219442783; freq: 6.66666666667; condition: spatial; upper: -1.36219442783" role="graphics-symbol" aria-roledescription="errorbar" transform="translate(121.21212121212122,151.28752309485495)" x2="0" y2="-7.14122790605299" stroke="#EB9A60"></line><line aria-label="lower: -1.5650762276; upper_lower: -1.43355736982; freq: 7.33333333333; condition: spatial; upper: -1.43355736982" role="graphics-symbol" aria-roledescription="errorbar" transform="translate(133.33333333333331,157.67174850687144)" x2="0" y2="-8.767923852296718" stroke="#EB9A60"></line><line aria-label="lower: -1.69702501142; upper_lower: -1.56447428207; freq: 8; condition: spatial; upper: -1.56447428207" role="graphics-symbol" aria-roledescription="errorbar" transform="translate(145.45454545454547,166.46833409435482)" x2="0" y2="-8.836715289787094" stroke="#EB9A60"></line><line aria-label="lower: -1.64264164499; upper_lower: -1.5234378925; freq: 8.66666666667; condition: spatial; upper: -1.5234378925" role="graphics-symbol" aria-roledescription="errorbar" transform="translate(157.57575757575756,162.8427763326663)" x2="0" y2="-7.94691683254274" stroke="#EB9A60"></line><line aria-label="lower: -1.74876374187; upper_lower: -1.60074052554; freq: 9.33333333333; condition: spatial; upper: -1.60074052554" role="graphics-symbol" aria-roledescription="errorbar" transform="translate(169.6969696969697,169.91758279109953)" x2="0" y2="-9.868214421607291" stroke="#EB9A60"></line><line aria-label="lower: -1.78619504454; upper_lower: -1.65706901856; freq: 10; condition: spatial; upper: -1.65706901856" role="graphics-symbol" aria-roledescription="errorbar" transform="translate(181.8181818181818,172.41300296962197)" x2="0" y2="-8.608401732210353" stroke="#EB9A60"></line><line aria-label="lower: -2.07918429908; upper_lower: -1.87325103724; freq: 10.6666666667; condition: spatial; upper: -1.87325103724" role="graphics-symbol" aria-roledescription="errorbar" transform="translate(193.9393939393939,191.94561993839454)" x2="0" y2="-13.728884122437194" stroke="#EB9A60"></line></g><g class="mark-group role-legend" role="graphics-symbol" aria-roledescription="legend" aria-label="Symbol legend titled 'condition' for stroke color with 3 values: global, object, spatial"><g transform="translate(218,0)"><path class="background" aria-hidden="true" d="M0,0h60v61h-60Z" pointer-events="none"></path><g><g class="mark-group role-legend-entry"><g transform="translate(0,16)"><path class="background" aria-hidden="true" d="M0,0h0v0h0Z" pointer-events="none"></path><g><g class="mark-group role-scope" role="graphics-object" aria-roledescription="group mark container"><g transform="translate(0,0)"><path class="background" aria-hidden="true" d="M0,0h49v12.5h-49Z" pointer-events="none" opacity="1"></path><g><g class="mark-symbol role-legend-symbol" pointer-events="none"><path transform="translate(6,6)" d="M5,0A5,5,0,1,1,-5,0A5,5,0,1,1,5,0" stroke="#0F3C5F" stroke-width="1.5" opacity="0.7"></path></g><g class="mark-text role-legend-label" pointer-events="none"><text text-anchor="start" transform="translate(16,9)" font-family="sans-serif" font-size="10px" fill="#000" opacity="1">global</text></g></g><path class="foreground" aria-hidden="true" d="" pointer-events="none" display="none"></path></g><g transform="translate(0,16)"><path class="background" aria-hidden="true" d="M0,0h49v12.5h-49Z" pointer-events="none" opacity="1"></path><g><g class="mark-symbol role-legend-symbol" pointer-events="none"><path transform="translate(6,6)" d="M5,0A5,5,0,1,1,-5,0A5,5,0,1,1,5,0" stroke="#687B3E" stroke-width="1.5" opacity="0.7"></path></g><g class="mark-text role-legend-label" pointer-events="none"><text text-anchor="start" transform="translate(16,9)" font-family="sans-serif" font-size="10px" fill="#000" opacity="1">object</text></g></g><path class="foreground" aria-hidden="true" d="" pointer-events="none" display="none"></path></g><g transform="translate(0,32)"><path class="background" aria-hidden="true" d="M0,0h49v12.5h-49Z" pointer-events="none" opacity="1"></path><g><g class="mark-symbol role-legend-symbol" pointer-events="none"><path transform="translate(6,6)" d="M5,0A5,5,0,1,1,-5,0A5,5,0,1,1,5,0" stroke="#EB9A60" stroke-width="1.5" opacity="0.7"></path></g><g class="mark-text role-legend-label" pointer-events="none"><text text-anchor="start" transform="translate(16,9)" font-family="sans-serif" font-size="10px" fill="#000" opacity="1">spatial</text></g></g><path class="foreground" aria-hidden="true" d="" pointer-events="none" display="none"></path></g></g></g><path class="foreground" aria-hidden="true" d="" pointer-events="none" display="none"></path></g></g><g class="mark-text role-legend-title" pointer-events="none"><text text-anchor="start" transform="translate(0,9)" font-family="sans-serif" font-size="11px" font-weight="bold" fill="#000" opacity="1">condition</text></g></g><path class="foreground" aria-hidden="true" d="" pointer-events="none" display="none"></path></g></g></g><path class="foreground" aria-hidden="true" d="" display="none"></path></g></g></g></svg>
