<?xml version="1.0" encoding="utf-8"?>
<!DOCTYPE svg PUBLIC "-//W3C//DTD SVG 1.1//EN" "http://www.w3.org/Graphics/SVG/1.1/DTD/svg11.dtd">
<svg class="marks" width="126" height="248" viewBox="0 0 126 248" version="1.1" xmlns="http://www.w3.org/2000/svg" xmlns:xlink="http://www.w3.org/1999/xlink"><rect width="126" height="248" fill="white"></rect><g fill="none" stroke-miterlimit="10" transform="translate(46,5)"><g class="mark-group role-frame root" role="graphics-object" aria-roledescription="group mark container"><g transform="translate(0,0)"><path class="background" aria-hidden="true" d="M0.5,0.5h75v200h-75Z" stroke="#ddd"></path><g><g class="mark-group role-axis" aria-hidden="true"><g transform="translate(0.5,0.5)"><path class="background" aria-hidden="true" d="M0,0h0v0h0Z" pointer-events="none"></path><g><g class="mark-rule role-axis-grid" pointer-events="none"><line transform="translate(0,200)" x2="75" y2="0" stroke="#ddd" stroke-width="1" opacity="1"></line><line transform="translate(0,156)" x2="75" y2="0" stroke="#ddd" stroke-width="1" opacity="1"></line><line transform="translate(0,111)" x2="75" y2="0" stroke="#ddd" stroke-width="1" opacity="1"></line><line transform="translate(0,67)" x2="75" y2="0" stroke="#ddd" stroke-width="1" opacity="1"></line><line transform="translate(0,22)" x2="75" y2="0" stroke="#ddd" stroke-width="1" opacity="1"></line></g></g><path class="foreground" aria-hidden="true" d="" pointer-events="none" display="none"></path></g></g><g class="mark-group role-axis" role="graphics-symbol" aria-roledescription="axis" aria-label="X-axis for a discrete scale with 3 values: global, object, spatial"><g transform="translate(0.5,200.5)"><path class="background" aria-hidden="true" d="M0,0h0v0h0Z" pointer-events="none"></path><g><g class="mark-rule role-axis-tick" pointer-events="none"><line transform="translate(12,0)" x2="0" y2="5" stroke="#888" stroke-width="1" opacity="1"></line><line transform="translate(37,0)" x2="0" y2="5" stroke="#888" stroke-width="1" opacity="1"></line><line transform="translate(62,0)" x2="0" y2="5" stroke="#888" stroke-width="1" opacity="1"></line></g><g class="mark-text role-axis-label" pointer-events="none"><text text-anchor="end" transform="translate(12,7) rotate(315) translate(0,8)" font-family="sans-serif" font-size="10px" fill="#000" opacity="1">global</text><text text-anchor="end" transform="translate(37,7) rotate(315) translate(0,8)" font-family="sans-serif" font-size="10px" fill="#000" opacity="1">object</text><text text-anchor="end" transform="translate(62,7) rotate(315) translate(0,8)" font-family="sans-serif" font-size="10px" fill="#000" opacity="1">spatial</text></g><g class="mark-rule role-axis-domain" pointer-events="none"><line transform="translate(0,0)" x2="75" y2="0" stroke="#888" stroke-width="1" opacity="1"></line></g></g><path class="foreground" aria-hidden="true" d="" pointer-events="none" display="none"></path></g></g><g class="mark-group role-axis" role="graphics-symbol" aria-roledescription="axis" aria-label="Y-axis titled 'Target - Non-target Score' for a linear scale with values from -0.2 to 0.3"><g transform="translate(0.5,0.5)"><path class="background" aria-hidden="true" d="M0,0h0v0h0Z" pointer-events="none"></path><g><g class="mark-rule role-axis-tick" pointer-events="none"><line transform="translate(0,200)" x2="-5" y2="0" stroke="#888" stroke-width="1" opacity="1"></line><line transform="translate(0,156)" x2="-5" y2="0" stroke="#888" stroke-width="1" opacity="1"></line><line transform="translate(0,111)" x2="-5" y2="0" stroke="#888" stroke-width="1" opacity="1"></line><line transform="translate(0,67)" x2="-5" y2="0" stroke="#888" stroke-width="1" opacity="1"></line><line transform="translate(0,22)" x2="-5" y2="0" stroke="#888" stroke-width="1" opacity="1"></line></g><g class="mark-text role-axis-label" pointer-events="none"><text text-anchor="end" transform="translate(-7,203)" font-family="sans-serif" font-size="10px" fill="#000" opacity="1">-0.2</text><text text-anchor="end" transform="translate(-7,158.55555555555557)" font-family="sans-serif" font-size="10px" fill="#000" opacity="1">-0.1</text><text text-anchor="end" transform="translate(-7,114.11111111111111)" font-family="sans-serif" font-size="10px" fill="#000" opacity="1">0.0</text><text text-anchor="end" transform="translate(-7,69.66666666666666)" font-family="sans-serif" font-size="10px" fill="#000" opacity="1">0.1</text><text text-anchor="end" transform="translate(-7,25.22222222222221)" font-family="sans-serif" font-size="10px" fill="#000" opacity="1">0.2</text></g><g class="mark-rule role-axis-domain" pointer-events="none"><line transform="translate(0,200)" x2="0" y2="-200" stroke="#888" stroke-width="1" opacity="1"></line></g><g class="mark-text role-axis-title" pointer-events="none"><text text-anchor="middle" transform="translate(-30,100) rotate(-90) translate(0,-2)" font-family="sans-serif" font-size="11px" font-weight="bold" fill="#000" opacity="1">Target - Non-target Score</text></g></g><path class="foreground" aria-hidden="true" d="" pointer-events="none" display="none"></path></g></g><g class="mark-symbol role-mark layer_0_layer_0_marks" role="graphics-object" aria-roledescription="symbol mark container"><path aria-label="condition: global; : global; Mean of cordiff: 0.0531578123333" role="graphics-symbol" aria-roledescription="point" transform="translate(9.5,87.48541674074073)" d="M2.7386127875258306,0A2.7386127875258306,2.7386127875258306,0,1,1,-2.7386127875258306,0A2.7386127875258306,2.7386127875258306,0,1,1,2.7386127875258306,0" stroke="#0F3C5F" stroke-width="2"></path><path aria-label="condition: object; : object; Mean of cordiff: 0.0319400140892" role="graphics-symbol" aria-roledescription="point" transform="translate(34.5,96.91554929370369)" d="M2.7386127875258306,0A2.7386127875258306,2.7386127875258306,0,1,1,-2.7386127875258306,0A2.7386127875258306,2.7386127875258306,0,1,1,2.7386127875258306,0" stroke="#687B3E" stroke-width="2"></path><path aria-label="condition: spatial; : spatial; Mean of cordiff: 0.0443569848333" role="graphics-symbol" aria-roledescription="point" transform="translate(59.5,91.39689562962963)" d="M2.7386127875258306,0A2.7386127875258306,2.7386127875258306,0,1,1,-2.7386127875258306,0A2.7386127875258306,2.7386127875258306,0,1,1,2.7386127875258306,0" stroke="#EB9A60" stroke-width="2"></path></g><g class="mark-symbol role-mark layer_0_layer_1_marks" role="graphics-object" aria-roledescription="symbol mark container"><path aria-label="condition: global; : global; Target - Non-target Score: 0.04091604" role="graphics-symbol" aria-roledescription="point" transform="translate(15.5,92.92620444444444)" d="M2.7386127875258306,0A2.7386127875258306,2.7386127875258306,0,1,1,-2.7386127875258306,0A2.7386127875258306,2.7386127875258306,0,1,1,2.7386127875258306,0" fill="#0F3C5F" stroke-width="2" opacity="0.7"></path><path aria-label="condition: object; : object; Target - Non-target Score: -0.002068969" role="graphics-symbol" aria-roledescription="point" transform="translate(40.5,112.0306528888889)" d="M2.7386127875258306,0A2.7386127875258306,2.7386127875258306,0,1,1,-2.7386127875258306,0A2.7386127875258306,2.7386127875258306,0,1,1,2.7386127875258306,0" fill="#687B3E" stroke-width="2" opacity="0.7"></path><path aria-label="condition: spatial; : spatial; Target - Non-target Score: -0.04663843" role="graphics-symbol" aria-roledescription="point" transform="translate(65.5,131.83930222222222)" d="M2.7386127875258306,0A2.7386127875258306,2.7386127875258306,0,1,1,-2.7386127875258306,0A2.7386127875258306,2.7386127875258306,0,1,1,2.7386127875258306,0" fill="#EB9A60" stroke-width="2" opacity="0.7"></path><path aria-label="condition: global; : global; Target - Non-target Score: 0.06128027" role="graphics-symbol" aria-roledescription="point" transform="translate(15.5,83.87543555555557)" d="M2.7386127875258306,0A2.7386127875258306,2.7386127875258306,0,1,1,-2.7386127875258306,0A2.7386127875258306,2.7386127875258306,0,1,1,2.7386127875258306,0" fill="#0F3C5F" stroke-width="2" opacity="0.7"></path><path aria-label="condition: object; : object; Target - Non-target Score: -0.05462263" role="graphics-symbol" aria-roledescription="point" transform="translate(40.5,135.38783555555557)" d="M2.7386127875258306,0A2.7386127875258306,2.7386127875258306,0,1,1,-2.7386127875258306,0A2.7386127875258306,2.7386127875258306,0,1,1,2.7386127875258306,0" fill="#687B3E" stroke-width="2" opacity="0.7"></path><path aria-label="condition: spatial; : spatial; Target - Non-target Score: 0.086632915" role="graphics-symbol" aria-roledescription="point" transform="translate(65.5,72.60759333333333)" d="M2.7386127875258306,0A2.7386127875258306,2.7386127875258306,0,1,1,-2.7386127875258306,0A2.7386127875258306,2.7386127875258306,0,1,1,2.7386127875258306,0" fill="#EB9A60" stroke-width="2" opacity="0.7"></path><path aria-label="condition: global; : global; Target - Non-target Score: 0.064557366" role="graphics-symbol" aria-roledescription="point" transform="translate(15.5,82.41894844444444)" d="M2.7386127875258306,0A2.7386127875258306,2.7386127875258306,0,1,1,-2.7386127875258306,0A2.7386127875258306,2.7386127875258306,0,1,1,2.7386127875258306,0" fill="#0F3C5F" stroke-width="2" opacity="0.7"></path><path aria-label="condition: object; : object; Target - Non-target Score: 0.020176576" role="graphics-symbol" aria-roledescription="point" transform="translate(40.5,102.143744)" d="M2.7386127875258306,0A2.7386127875258306,2.7386127875258306,0,1,1,-2.7386127875258306,0A2.7386127875258306,2.7386127875258306,0,1,1,2.7386127875258306,0" fill="#687B3E" stroke-width="2" opacity="0.7"></path><path aria-label="condition: spatial; : spatial; Target - Non-target Score: 0.12536855" role="graphics-symbol" aria-roledescription="point" transform="translate(65.5,55.39175555555558)" d="M2.7386127875258306,0A2.7386127875258306,2.7386127875258306,0,1,1,-2.7386127875258306,0A2.7386127875258306,2.7386127875258306,0,1,1,2.7386127875258306,0" fill="#EB9A60" stroke-width="2" opacity="0.7"></path><path aria-label="condition: global; : global; Target - Non-target Score: 0.06853143" role="graphics-symbol" aria-roledescription="point" transform="translate(15.5,80.65269777777777)" d="M2.7386127875258306,0A2.7386127875258306,2.7386127875258306,0,1,1,-2.7386127875258306,0A2.7386127875258306,2.7386127875258306,0,1,1,2.7386127875258306,0" fill="#0F3C5F" stroke-width="2" opacity="0.7"></path><path aria-label="condition: object; : object; Target - Non-target Score: 0.021805083" role="graphics-symbol" aria-roledescription="point" transform="translate(40.5,101.4199631111111)" d="M2.7386127875258306,0A2.7386127875258306,2.7386127875258306,0,1,1,-2.7386127875258306,0A2.7386127875258306,2.7386127875258306,0,1,1,2.7386127875258306,0" fill="#687B3E" stroke-width="2" opacity="0.7"></path><path aria-label="condition: spatial; : spatial; Target - Non-target Score: 0.22289695" role="graphics-symbol" aria-roledescription="point" transform="translate(65.5,12.045799999999973)" d="M2.7386127875258306,0A2.7386127875258306,2.7386127875258306,0,1,1,-2.7386127875258306,0A2.7386127875258306,2.7386127875258306,0,1,1,2.7386127875258306,0" fill="#EB9A60" stroke-width="2" opacity="0.7"></path><path aria-label="condition: global; : global; Target - Non-target Score: 0.07190435" role="graphics-symbol" aria-roledescription="point" transform="translate(15.5,79.15362222222222)" d="M2.7386127875258306,0A2.7386127875258306,2.7386127875258306,0,1,1,-2.7386127875258306,0A2.7386127875258306,2.7386127875258306,0,1,1,2.7386127875258306,0" fill="#0F3C5F" stroke-width="2" opacity="0.7"></path><path aria-label="condition: object; : object; Target - Non-target Score: 0.00030417944" role="graphics-symbol" aria-roledescription="point" transform="translate(40.5,110.9759202488889)" d="M2.7386127875258306,0A2.7386127875258306,2.7386127875258306,0,1,1,-2.7386127875258306,0A2.7386127875258306,2.7386127875258306,0,1,1,2.7386127875258306,0" fill="#687B3E" stroke-width="2" opacity="0.7"></path><path aria-label="condition: spatial; : spatial; Target - Non-target Score: 0.09781843" role="graphics-symbol" aria-roledescription="point" transform="translate(65.5,67.63625333333331)" d="M2.7386127875258306,0A2.7386127875258306,2.7386127875258306,0,1,1,-2.7386127875258306,0A2.7386127875258306,2.7386127875258306,0,1,1,2.7386127875258306,0" fill="#EB9A60" stroke-width="2" opacity="0.7"></path><path aria-label="condition: global; : global; Target - Non-target Score: 0.10716276" role="graphics-symbol" aria-roledescription="point" transform="translate(15.5,63.48321777777779)" d="M2.7386127875258306,0A2.7386127875258306,2.7386127875258306,0,1,1,-2.7386127875258306,0A2.7386127875258306,2.7386127875258306,0,1,1,2.7386127875258306,0" fill="#0F3C5F" stroke-width="2" opacity="0.7"></path><path aria-label="condition: object; : object; Target - Non-target Score: 0.04990751" role="graphics-symbol" aria-roledescription="point" transform="translate(40.5,88.92999555555556)" d="M2.7386127875258306,0A2.7386127875258306,2.7386127875258306,0,1,1,-2.7386127875258306,0A2.7386127875258306,2.7386127875258306,0,1,1,2.7386127875258306,0" fill="#687B3E" stroke-width="2" opacity="0.7"></path><path aria-label="condition: spatial; : spatial; Target - Non-target Score: 0.087610915" role="graphics-symbol" aria-roledescription="point" transform="translate(65.5,72.17292666666665)" d="M2.7386127875258306,0A2.7386127875258306,2.7386127875258306,0,1,1,-2.7386127875258306,0A2.7386127875258306,2.7386127875258306,0,1,1,2.7386127875258306,0" fill="#EB9A60" stroke-width="2" opacity="0.7"></path><path aria-label="condition: global; : global; Target - Non-target Score: 0.032783948" role="graphics-symbol" aria-roledescription="point" transform="translate(15.5,96.54046755555554)" d="M2.7386127875258306,0A2.7386127875258306,2.7386127875258306,0,1,1,-2.7386127875258306,0A2.7386127875258306,2.7386127875258306,0,1,1,2.7386127875258306,0" fill="#0F3C5F" stroke-width="2" opacity="0.7"></path><path aria-label="condition: object; : object; Target - Non-target Score: 0.072594486" role="graphics-symbol" aria-roledescription="point" transform="translate(40.5,78.8468951111111)" d="M2.7386127875258306,0A2.7386127875258306,2.7386127875258306,0,1,1,-2.7386127875258306,0A2.7386127875258306,2.7386127875258306,0,1,1,2.7386127875258306,0" fill="#687B3E" stroke-width="2" opacity="0.7"></path><path aria-label="condition: spatial; : spatial; Target - Non-target Score: 0.004184388" role="graphics-symbol" aria-roledescription="point" transform="translate(65.5,109.2513831111111)" d="M2.7386127875258306,0A2.7386127875258306,2.7386127875258306,0,1,1,-2.7386127875258306,0A2.7386127875258306,2.7386127875258306,0,1,1,2.7386127875258306,0" fill="#EB9A60" stroke-width="2" opacity="0.7"></path><path aria-label="condition: global; : global; Target - Non-target Score: -0.040591437" role="graphics-symbol" aria-roledescription="point" transform="translate(15.5,129.15174977777778)" d="M2.7386127875258306,0A2.7386127875258306,2.7386127875258306,0,1,1,-2.7386127875258306,0A2.7386127875258306,2.7386127875258306,0,1,1,2.7386127875258306,0" fill="#0F3C5F" stroke-width="2" opacity="0.7"></path><path aria-label="condition: object; : object; Target - Non-target Score: 0.06753382" role="graphics-symbol" aria-roledescription="point" transform="translate(40.5,81.09607999999999)" d="M2.7386127875258306,0A2.7386127875258306,2.7386127875258306,0,1,1,-2.7386127875258306,0A2.7386127875258306,2.7386127875258306,0,1,1,2.7386127875258306,0" fill="#687B3E" stroke-width="2" opacity="0.7"></path><path aria-label="condition: spatial; : spatial; Target - Non-target Score: 0.070279546" role="graphics-symbol" aria-roledescription="point" transform="translate(65.5,79.87575733333333)" d="M2.7386127875258306,0A2.7386127875258306,2.7386127875258306,0,1,1,-2.7386127875258306,0A2.7386127875258306,2.7386127875258306,0,1,1,2.7386127875258306,0" fill="#EB9A60" stroke-width="2" opacity="0.7"></path><path aria-label="condition: global; : global; Target - Non-target Score: 0.16567543" role="graphics-symbol" aria-roledescription="point" transform="translate(15.5,37.47758666666665)" d="M2.7386127875258306,0A2.7386127875258306,2.7386127875258306,0,1,1,-2.7386127875258306,0A2.7386127875258306,2.7386127875258306,0,1,1,2.7386127875258306,0" fill="#0F3C5F" stroke-width="2" opacity="0.7"></path><path aria-label="condition: object; : object; Target - Non-target Score: 0.0790537" role="graphics-symbol" aria-roledescription="point" transform="translate(40.5,75.97613333333332)" d="M2.7386127875258306,0A2.7386127875258306,2.7386127875258306,0,1,1,-2.7386127875258306,0A2.7386127875258306,2.7386127875258306,0,1,1,2.7386127875258306,0" fill="#687B3E" stroke-width="2" opacity="0.7"></path><path aria-label="condition: spatial; : spatial; Target - Non-target Score: -0.13036118" role="graphics-symbol" aria-roledescription="point" transform="translate(65.5,169.04941333333332)" d="M2.7386127875258306,0A2.7386127875258306,2.7386127875258306,0,1,1,-2.7386127875258306,0A2.7386127875258306,2.7386127875258306,0,1,1,2.7386127875258306,0" fill="#EB9A60" stroke-width="2" opacity="0.7"></path><path aria-label="condition: global; : global; Target - Non-target Score: 0.009366623" role="graphics-symbol" aria-roledescription="point" transform="translate(15.5,106.94816755555556)" d="M2.7386127875258306,0A2.7386127875258306,2.7386127875258306,0,1,1,-2.7386127875258306,0A2.7386127875258306,2.7386127875258306,0,1,1,2.7386127875258306,0" fill="#0F3C5F" stroke-width="2" opacity="0.7"></path><path aria-label="condition: object; : object; Target - Non-target Score: 0.04012259" role="graphics-symbol" aria-roledescription="point" transform="translate(40.5,93.27884888888889)" d="M2.7386127875258306,0A2.7386127875258306,2.7386127875258306,0,1,1,-2.7386127875258306,0A2.7386127875258306,2.7386127875258306,0,1,1,2.7386127875258306,0" fill="#687B3E" stroke-width="2" opacity="0.7"></path><path aria-label="condition: spatial; : spatial; Target - Non-target Score: 0.048201695" role="graphics-symbol" aria-roledescription="point" transform="translate(65.5,89.68813555555555)" d="M2.7386127875258306,0A2.7386127875258306,2.7386127875258306,0,1,1,-2.7386127875258306,0A2.7386127875258306,2.7386127875258306,0,1,1,2.7386127875258306,0" fill="#EB9A60" stroke-width="2" opacity="0.7"></path><path aria-label="condition: global; : global; Target - Non-target Score: 0.11508938" role="graphics-symbol" aria-roledescription="point" transform="translate(15.5,59.96027555555554)" d="M2.7386127875258306,0A2.7386127875258306,2.7386127875258306,0,1,1,-2.7386127875258306,0A2.7386127875258306,2.7386127875258306,0,1,1,2.7386127875258306,0" fill="#0F3C5F" stroke-width="2" opacity="0.7"></path><path aria-label="condition: object; : object; Target - Non-target Score: 0.06380579" role="graphics-symbol" aria-roledescription="point" transform="translate(40.5,82.7529822222222)" d="M2.7386127875258306,0A2.7386127875258306,2.7386127875258306,0,1,1,-2.7386127875258306,0A2.7386127875258306,2.7386127875258306,0,1,1,2.7386127875258306,0" fill="#687B3E" stroke-width="2" opacity="0.7"></path><path aria-label="condition: spatial; : spatial; Target - Non-target Score: 0.02832628" role="graphics-symbol" aria-roledescription="point" transform="translate(65.5,98.52165333333333)" d="M2.7386127875258306,0A2.7386127875258306,2.7386127875258306,0,1,1,-2.7386127875258306,0A2.7386127875258306,2.7386127875258306,0,1,1,2.7386127875258306,0" fill="#EB9A60" stroke-width="2" opacity="0.7"></path><path aria-label="condition: global; : global; Target - Non-target Score: -0.026264513" role="graphics-symbol" aria-roledescription="point" transform="translate(15.5,122.784228)" d="M2.7386127875258306,0A2.7386127875258306,2.7386127875258306,0,1,1,-2.7386127875258306,0A2.7386127875258306,2.7386127875258306,0,1,1,2.7386127875258306,0" fill="#0F3C5F" stroke-width="2" opacity="0.7"></path><path aria-label="condition: object; : object; Target - Non-target Score: 0.03678558" role="graphics-symbol" aria-roledescription="point" transform="translate(40.5,94.76196444444444)" d="M2.7386127875258306,0A2.7386127875258306,2.7386127875258306,0,1,1,-2.7386127875258306,0A2.7386127875258306,2.7386127875258306,0,1,1,2.7386127875258306,0" fill="#687B3E" stroke-width="2" opacity="0.7"></path><path aria-label="condition: spatial; : spatial; Target - Non-target Score: 0.114807345" role="graphics-symbol" aria-roledescription="point" transform="translate(65.5,60.08562444444443)" d="M2.7386127875258306,0A2.7386127875258306,2.7386127875258306,0,1,1,-2.7386127875258306,0A2.7386127875258306,2.7386127875258306,0,1,1,2.7386127875258306,0" fill="#EB9A60" stroke-width="2" opacity="0.7"></path><path aria-label="condition: global; : global; Target - Non-target Score: 0.053274125" role="graphics-symbol" aria-roledescription="point" transform="translate(15.5,87.43372222222222)" d="M2.7386127875258306,0A2.7386127875258306,2.7386127875258306,0,1,1,-2.7386127875258306,0A2.7386127875258306,2.7386127875258306,0,1,1,2.7386127875258306,0" fill="#0F3C5F" stroke-width="2" opacity="0.7"></path><path aria-label="condition: object; : object; Target - Non-target Score: 0.035724025" role="graphics-symbol" aria-roledescription="point" transform="translate(40.5,95.23376666666667)" d="M2.7386127875258306,0A2.7386127875258306,2.7386127875258306,0,1,1,-2.7386127875258306,0A2.7386127875258306,2.7386127875258306,0,1,1,2.7386127875258306,0" fill="#687B3E" stroke-width="2" opacity="0.7"></path><path aria-label="condition: spatial; : spatial; Target - Non-target Score: 0.17352434" role="graphics-symbol" aria-roledescription="point" transform="translate(65.5,33.989182222222226)" d="M2.7386127875258306,0A2.7386127875258306,2.7386127875258306,0,1,1,-2.7386127875258306,0A2.7386127875258306,2.7386127875258306,0,1,1,2.7386127875258306,0" fill="#EB9A60" stroke-width="2" opacity="0.7"></path><path aria-label="condition: global; : global; Target - Non-target Score: 0.058111798" role="graphics-symbol" aria-roledescription="point" transform="translate(15.5,85.28364533333333)" d="M2.7386127875258306,0A2.7386127875258306,2.7386127875258306,0,1,1,-2.7386127875258306,0A2.7386127875258306,2.7386127875258306,0,1,1,2.7386127875258306,0" fill="#0F3C5F" stroke-width="2" opacity="0.7"></path><path aria-label="condition: object; : object; Target - Non-target Score: 0.0510918" role="graphics-symbol" aria-roledescription="point" transform="translate(40.5,88.40364444444444)" d="M2.7386127875258306,0A2.7386127875258306,2.7386127875258306,0,1,1,-2.7386127875258306,0A2.7386127875258306,2.7386127875258306,0,1,1,2.7386127875258306,0" fill="#687B3E" stroke-width="2" opacity="0.7"></path><path aria-label="condition: spatial; : spatial; Target - Non-target Score: -0.046529807" role="graphics-symbol" aria-roledescription="point" transform="translate(65.5,131.79102533333332)" d="M2.7386127875258306,0A2.7386127875258306,2.7386127875258306,0,1,1,-2.7386127875258306,0A2.7386127875258306,2.7386127875258306,0,1,1,2.7386127875258306,0" fill="#EB9A60" stroke-width="2" opacity="0.7"></path><path aria-label="condition: global; : global; Target - Non-target Score: 0.038375776" role="graphics-symbol" aria-roledescription="point" transform="translate(15.5,94.05521066666667)" d="M2.7386127875258306,0A2.7386127875258306,2.7386127875258306,0,1,1,-2.7386127875258306,0A2.7386127875258306,2.7386127875258306,0,1,1,2.7386127875258306,0" fill="#0F3C5F" stroke-width="2" opacity="0.7"></path><path aria-label="condition: object; : object; Target - Non-target Score: 0.14385419" role="graphics-symbol" aria-roledescription="point" transform="translate(40.5,47.17591555555556)" d="M2.7386127875258306,0A2.7386127875258306,2.7386127875258306,0,1,1,-2.7386127875258306,0A2.7386127875258306,2.7386127875258306,0,1,1,2.7386127875258306,0" fill="#687B3E" stroke-width="2" opacity="0.7"></path><path aria-label="condition: spatial; : spatial; Target - Non-target Score: -0.08880321" role="graphics-symbol" aria-roledescription="point" transform="translate(65.5,150.57920444444443)" d="M2.7386127875258306,0A2.7386127875258306,2.7386127875258306,0,1,1,-2.7386127875258306,0A2.7386127875258306,2.7386127875258306,0,1,1,2.7386127875258306,0" fill="#EB9A60" stroke-width="2" opacity="0.7"></path><path aria-label="condition: global; : global; Target - Non-target Score: 0.01260613" role="graphics-symbol" aria-roledescription="point" transform="translate(15.5,105.50838666666667)" d="M2.7386127875258306,0A2.7386127875258306,2.7386127875258306,0,1,1,-2.7386127875258306,0A2.7386127875258306,2.7386127875258306,0,1,1,2.7386127875258306,0" fill="#0F3C5F" stroke-width="2" opacity="0.7"></path><path aria-label="condition: object; : object; Target - Non-target Score: 0.02135026" role="graphics-symbol" aria-roledescription="point" transform="translate(40.5,101.62210666666667)" d="M2.7386127875258306,0A2.7386127875258306,2.7386127875258306,0,1,1,-2.7386127875258306,0A2.7386127875258306,2.7386127875258306,0,1,1,2.7386127875258306,0" fill="#687B3E" stroke-width="2" opacity="0.7"></path><path aria-label="condition: spatial; : spatial; Target - Non-target Score: 0.016373424" role="graphics-symbol" aria-roledescription="point" transform="translate(65.5,103.83403377777778)" d="M2.7386127875258306,0A2.7386127875258306,2.7386127875258306,0,1,1,-2.7386127875258306,0A2.7386127875258306,2.7386127875258306,0,1,1,2.7386127875258306,0" fill="#EB9A60" stroke-width="2" opacity="0.7"></path><path aria-label="condition: global; : global; Target - Non-target Score: 0.03975595" role="graphics-symbol" aria-roledescription="point" transform="translate(15.5,93.4418)" d="M2.7386127875258306,0A2.7386127875258306,2.7386127875258306,0,1,1,-2.7386127875258306,0A2.7386127875258306,2.7386127875258306,0,1,1,2.7386127875258306,0" fill="#0F3C5F" stroke-width="2" opacity="0.7"></path><path aria-label="condition: object; : object; Target - Non-target Score: 0.09019921" role="graphics-symbol" aria-roledescription="point" transform="translate(40.5,71.02257333333333)" d="M2.7386127875258306,0A2.7386127875258306,2.7386127875258306,0,1,1,-2.7386127875258306,0A2.7386127875258306,2.7386127875258306,0,1,1,2.7386127875258306,0" fill="#687B3E" stroke-width="2" opacity="0.7"></path><path aria-label="condition: spatial; : spatial; Target - Non-target Score: -0.07036885" role="graphics-symbol" aria-roledescription="point" transform="translate(65.5,142.38615555555555)" d="M2.7386127875258306,0A2.7386127875258306,2.7386127875258306,0,1,1,-2.7386127875258306,0A2.7386127875258306,2.7386127875258306,0,1,1,2.7386127875258306,0" fill="#EB9A60" stroke-width="2" opacity="0.7"></path><path aria-label="condition: global; : global; Target - Non-target Score: 0.030065088" role="graphics-symbol" aria-roledescription="point" transform="translate(15.5,97.74884977777778)" d="M2.7386127875258306,0A2.7386127875258306,2.7386127875258306,0,1,1,-2.7386127875258306,0A2.7386127875258306,2.7386127875258306,0,1,1,2.7386127875258306,0" fill="#0F3C5F" stroke-width="2" opacity="0.7"></path><path aria-label="condition: object; : object; Target - Non-target Score: 0.06173533" role="graphics-symbol" aria-roledescription="point" transform="translate(40.5,83.67318666666668)" d="M2.7386127875258306,0A2.7386127875258306,2.7386127875258306,0,1,1,-2.7386127875258306,0A2.7386127875258306,2.7386127875258306,0,1,1,2.7386127875258306,0" fill="#687B3E" stroke-width="2" opacity="0.7"></path><path aria-label="condition: spatial; : spatial; Target - Non-target Score: 0.09676041" role="graphics-symbol" aria-roledescription="point" transform="translate(65.5,68.10648444444442)" d="M2.7386127875258306,0A2.7386127875258306,2.7386127875258306,0,1,1,-2.7386127875258306,0A2.7386127875258306,2.7386127875258306,0,1,1,2.7386127875258306,0" fill="#EB9A60" stroke-width="2" opacity="0.7"></path><path aria-label="condition: global; : global; Target - Non-target Score: 0.16606887" role="graphics-symbol" aria-roledescription="point" transform="translate(15.5,37.30272444444444)" d="M2.7386127875258306,0A2.7386127875258306,2.7386127875258306,0,1,1,-2.7386127875258306,0A2.7386127875258306,2.7386127875258306,0,1,1,2.7386127875258306,0" fill="#0F3C5F" stroke-width="2" opacity="0.7"></path><path aria-label="condition: object; : object; Target - Non-target Score: -0.15916482" role="graphics-symbol" aria-roledescription="point" transform="translate(40.5,181.85103111111113)" d="M2.7386127875258306,0A2.7386127875258306,2.7386127875258306,0,1,1,-2.7386127875258306,0A2.7386127875258306,2.7386127875258306,0,1,1,2.7386127875258306,0" fill="#687B3E" stroke-width="2" opacity="0.7"></path><path aria-label="condition: spatial; : spatial; Target - Non-target Score: 0.1820063" role="graphics-symbol" aria-roledescription="point" transform="translate(65.5,30.219422222222224)" d="M2.7386127875258306,0A2.7386127875258306,2.7386127875258306,0,1,1,-2.7386127875258306,0A2.7386127875258306,2.7386127875258306,0,1,1,2.7386127875258306,0" fill="#EB9A60" stroke-width="2" opacity="0.7"></path><path aria-label="condition: global; : global; Target - Non-target Score: 0.029908137" role="graphics-symbol" aria-roledescription="point" transform="translate(15.5,97.81860577777776)" d="M2.7386127875258306,0A2.7386127875258306,2.7386127875258306,0,1,1,-2.7386127875258306,0A2.7386127875258306,2.7386127875258306,0,1,1,2.7386127875258306,0" fill="#0F3C5F" stroke-width="2" opacity="0.7"></path><path aria-label="condition: object; : object; Target - Non-target Score: 0.03375196" role="graphics-symbol" aria-roledescription="point" transform="translate(40.5,96.11023999999999)" d="M2.7386127875258306,0A2.7386127875258306,2.7386127875258306,0,1,1,-2.7386127875258306,0A2.7386127875258306,2.7386127875258306,0,1,1,2.7386127875258306,0" fill="#687B3E" stroke-width="2" opacity="0.7"></path><path aria-label="condition: spatial; : spatial; Target - Non-target Score: 0.12571454" role="graphics-symbol" aria-roledescription="point" transform="translate(65.5,55.23798222222223)" d="M2.7386127875258306,0A2.7386127875258306,2.7386127875258306,0,1,1,-2.7386127875258306,0A2.7386127875258306,2.7386127875258306,0,1,1,2.7386127875258306,0" fill="#EB9A60" stroke-width="2" opacity="0.7"></path><path aria-label="condition: global; : global; Target - Non-target Score: 0.050058737" role="graphics-symbol" aria-roledescription="point" transform="translate(15.5,88.86278355555555)" d="M2.7386127875258306,0A2.7386127875258306,2.7386127875258306,0,1,1,-2.7386127875258306,0A2.7386127875258306,2.7386127875258306,0,1,1,2.7386127875258306,0" fill="#0F3C5F" stroke-width="2" opacity="0.7"></path><path aria-label="condition: object; : object; Target - Non-target Score: 0.11167846" role="graphics-symbol" aria-roledescription="point" transform="translate(40.5,61.476240000000004)" d="M2.7386127875258306,0A2.7386127875258306,2.7386127875258306,0,1,1,-2.7386127875258306,0A2.7386127875258306,2.7386127875258306,0,1,1,2.7386127875258306,0" fill="#687B3E" stroke-width="2" opacity="0.7"></path><path aria-label="condition: spatial; : spatial; Target - Non-target Score: -0.08404556" role="graphics-symbol" aria-roledescription="point" transform="translate(65.5,148.46469333333334)" d="M2.7386127875258306,0A2.7386127875258306,2.7386127875258306,0,1,1,-2.7386127875258306,0A2.7386127875258306,2.7386127875258306,0,1,1,2.7386127875258306,0" fill="#EB9A60" stroke-width="2" opacity="0.7"></path><path aria-label="condition: global; : global; Target - Non-target Score: 0.059365682" role="graphics-symbol" aria-roledescription="point" transform="translate(15.5,84.72636355555557)" d="M2.7386127875258306,0A2.7386127875258306,2.7386127875258306,0,1,1,-2.7386127875258306,0A2.7386127875258306,2.7386127875258306,0,1,1,2.7386127875258306,0" fill="#0F3C5F" stroke-width="2" opacity="0.7"></path><path aria-label="condition: object; : object; Target - Non-target Score: 0.0013047837" role="graphics-symbol" aria-roledescription="point" transform="translate(40.5,110.53120724444443)" d="M2.7386127875258306,0A2.7386127875258306,2.7386127875258306,0,1,1,-2.7386127875258306,0A2.7386127875258306,2.7386127875258306,0,1,1,2.7386127875258306,0" fill="#687B3E" stroke-width="2" opacity="0.7"></path><path aria-label="condition: spatial; : spatial; Target - Non-target Score: 0.117241815" role="graphics-symbol" aria-roledescription="point" transform="translate(65.5,59.003637777777776)" d="M2.7386127875258306,0A2.7386127875258306,2.7386127875258306,0,1,1,-2.7386127875258306,0A2.7386127875258306,2.7386127875258306,0,1,1,2.7386127875258306,0" fill="#EB9A60" stroke-width="2" opacity="0.7"></path><path aria-label="condition: global; : global; Target - Non-target Score: 0.05134132" role="graphics-symbol" aria-roledescription="point" transform="translate(15.5,88.29274666666664)" d="M2.7386127875258306,0A2.7386127875258306,2.7386127875258306,0,1,1,-2.7386127875258306,0A2.7386127875258306,2.7386127875258306,0,1,1,2.7386127875258306,0" fill="#0F3C5F" stroke-width="2" opacity="0.7"></path><path aria-label="condition: object; : object; Target - Non-target Score: 0.082068674" role="graphics-symbol" aria-roledescription="point" transform="translate(40.5,74.63614488888888)" d="M2.7386127875258306,0A2.7386127875258306,2.7386127875258306,0,1,1,-2.7386127875258306,0A2.7386127875258306,2.7386127875258306,0,1,1,2.7386127875258306,0" fill="#687B3E" stroke-width="2" opacity="0.7"></path><path aria-label="condition: spatial; : spatial; Target - Non-target Score: -0.15168965" role="graphics-symbol" aria-roledescription="point" transform="translate(65.5,178.52873333333332)" d="M2.7386127875258306,0A2.7386127875258306,2.7386127875258306,0,1,1,-2.7386127875258306,0A2.7386127875258306,2.7386127875258306,0,1,1,2.7386127875258306,0" fill="#EB9A60" stroke-width="2" opacity="0.7"></path><path aria-label="condition: global; : global; Target - Non-target Score: 0.016444236" role="graphics-symbol" aria-roledescription="point" transform="translate(15.5,103.80256177777778)" d="M2.7386127875258306,0A2.7386127875258306,2.7386127875258306,0,1,1,-2.7386127875258306,0A2.7386127875258306,2.7386127875258306,0,1,1,2.7386127875258306,0" fill="#0F3C5F" stroke-width="2" opacity="0.7"></path><path aria-label="condition: object; : object; Target - Non-target Score: -0.10243125" role="graphics-symbol" aria-roledescription="point" transform="translate(40.5,156.63611111111112)" d="M2.7386127875258306,0A2.7386127875258306,2.7386127875258306,0,1,1,-2.7386127875258306,0A2.7386127875258306,2.7386127875258306,0,1,1,2.7386127875258306,0" fill="#687B3E" stroke-width="2" opacity="0.7"></path><path aria-label="condition: spatial; : spatial; Target - Non-target Score: 0.08525648" role="graphics-symbol" aria-roledescription="point" transform="translate(65.5,73.21934222222222)" d="M2.7386127875258306,0A2.7386127875258306,2.7386127875258306,0,1,1,-2.7386127875258306,0A2.7386127875258306,2.7386127875258306,0,1,1,2.7386127875258306,0" fill="#EB9A60" stroke-width="2" opacity="0.7"></path></g><g class="mark-rule role-mark layer_0_layer_2_marks" role="graphics-object" aria-roledescription="rule mark container"><line aria-label=": global; Ci0 of cordiff: 0.0348447450083; Ci1 of cordiff: 0.0722559674781" role="graphics-symbol" aria-roledescription="rule mark" transform="translate(9.5,95.62455777407406)" x2="0" y2="-16.627209986574073" stroke="black"></line><line aria-label=": object; Ci0 of cordiff: 0.00459905220767; Ci1 of cordiff: 0.0533819976075" role="graphics-symbol" aria-roledescription="rule mark" transform="translate(34.5,109.06708790770372)" x2="0" y2="-21.68130906660187" stroke="black"></line><line aria-label=": spatial; Ci0 of cordiff: 0.00217194747917; Ci1 of cordiff: 0.0825637730292" role="graphics-symbol" aria-roledescription="rule mark" transform="translate(59.5,110.14580112037038)" x2="0" y2="-35.72970024444446" stroke="black"></line></g></g><path class="foreground" aria-hidden="true" d="" display="none"></path></g></g></g></svg>
