<?xml version="1.0" encoding="utf-8"?>
<!DOCTYPE svg PUBLIC "-//W3C//DTD SVG 1.1//EN" "http://www.w3.org/Graphics/SVG/1.1/DTD/svg11.dtd">
<svg class="marks" width="774" height="517" viewBox="0 0 774 517" version="1.1" xmlns="http://www.w3.org/2000/svg" xmlns:xlink="http://www.w3.org/1999/xlink"><rect width="774" height="517" fill="white"></rect><g fill="none" stroke-miterlimit="10" transform="translate(120,57)"><g class="mark-group role-frame root" role="graphics-object" aria-roledescription="group mark container"><g transform="translate(0,0)"><path class="background" aria-hidden="true" d="M0,0h0v0h0Z"></path><g><g class="mark-group role-row-title row-title" role="graphics-object" aria-roledescription="group mark container"><g transform="translate(-94,211)"><path class="background" aria-hidden="true" d="M0,0h0v0h0Z"></path><g><g class="mark-group role-title"><g transform="translate(-21.000000000000004,0)"><path class="background" aria-hidden="true" d="M0,0h0v0h0Z" pointer-events="none"></path><g><g class="mark-text role-title-text" role="graphics-symbol" aria-roledescription="title" aria-label="Title text 'encoding'" pointer-events="none"><text text-anchor="middle" transform="translate(0,0) rotate(-90) translate(0,9)" font-family="sans-serif" font-size="11px" font-weight="bold" fill="#000" opacity="1">encoding</text></g></g><path class="foreground" aria-hidden="true" d="" pointer-events="none" display="none"></path></g></g></g><path class="foreground" aria-hidden="true" d="" display="none"></path></g></g><g class="mark-group role-column-title column-title" role="graphics-object" aria-roledescription="group mark container"><g transform="translate(323,-31)"><path class="background" aria-hidden="true" d="M0,0h0v0h0Z"></path><g><g class="mark-group role-title"><g transform="translate(0,-21)"><path class="background" aria-hidden="true" d="M0,0h0v0h0Z" pointer-events="none"></path><g><g class="mark-text role-title-text" role="graphics-symbol" aria-roledescription="title" aria-label="Title text 'train_kind'" pointer-events="none"><text text-anchor="middle" transform="translate(0,9)" font-family="sans-serif" font-size="11px" font-weight="bold" fill="#000" opacity="1">train_kind</text></g></g><path class="foreground" aria-hidden="true" d="" pointer-events="none" display="none"></path></g></g></g><path class="foreground" aria-hidden="true" d="" display="none"></path></g></g><g class="mark-group role-row-header row_header" role="graphics-object" aria-roledescription="group mark container"><g transform="translate(-3,0)"><path class="background" aria-hidden="true" d="M0,0h0v200h0Z"></path><g><g class="mark-group role-axis" role="graphics-symbol" aria-roledescription="axis" aria-label="Y-axis titled 'lower' for a linear scale with values from 0.00000 to 0.00070"><g transform="translate(0.5,0.5)"><path class="background" aria-hidden="true" d="M0,0h0v0h0Z" pointer-events="none"></path><g><g class="mark-rule role-axis-tick" pointer-events="none"><line transform="translate(0,200)" x2="-5" y2="0" stroke="#888" stroke-width="1" opacity="1"></line><line transform="translate(0,171)" x2="-5" y2="0" stroke="#888" stroke-width="1" opacity="1"></line><line transform="translate(0,143)" x2="-5" y2="0" stroke="#888" stroke-width="1" opacity="1"></line><line transform="translate(0,114)" x2="-5" y2="0" stroke="#888" stroke-width="1" opacity="1"></line><line transform="translate(0,86)" x2="-5" y2="0" stroke="#888" stroke-width="1" opacity="1"></line><line transform="translate(0,57)" x2="-5" y2="0" stroke="#888" stroke-width="1" opacity="1"></line><line transform="translate(0,29)" x2="-5" y2="0" stroke="#888" stroke-width="1" opacity="1"></line><line transform="translate(0,0)" x2="-5" y2="0" stroke="#888" stroke-width="1" opacity="1"></line></g><g class="mark-text role-axis-label" pointer-events="none"><text text-anchor="end" transform="translate(-7,203)" font-family="sans-serif" font-size="10px" fill="#000" opacity="1">0.00000</text><text text-anchor="end" transform="translate(-7,174.42857142857142)" font-family="sans-serif" font-size="10px" fill="#000" opacity="1">0.00010</text><text text-anchor="end" transform="translate(-7,145.85714285714283)" font-family="sans-serif" font-size="10px" fill="#000" opacity="1">0.00020</text><text text-anchor="end" transform="translate(-7,117.28571428571428)" font-family="sans-serif" font-size="10px" fill="#000" opacity="1">0.00030</text><text text-anchor="end" transform="translate(-7,88.7142857142857)" font-family="sans-serif" font-size="10px" fill="#000" opacity="1">0.00040</text><text text-anchor="end" transform="translate(-7,60.14285714285714)" font-family="sans-serif" font-size="10px" fill="#000" opacity="1">0.00050</text><text text-anchor="end" transform="translate(-7,31.57142857142858)" font-family="sans-serif" font-size="10px" fill="#000" opacity="1">0.00060</text><text text-anchor="end" transform="translate(-7,3)" font-family="sans-serif" font-size="10px" fill="#000" opacity="1">0.00070</text></g><g class="mark-rule role-axis-domain" pointer-events="none"><line transform="translate(0,200)" x2="0" y2="-200" stroke="#888" stroke-width="1" opacity="1"></line></g><g class="mark-text role-axis-title" pointer-events="none"><text text-anchor="middle" transform="translate(-50,100) rotate(-90) translate(0,-2)" font-family="sans-serif" font-size="11px" font-weight="bold" fill="#000" opacity="1">lower</text></g></g><path class="foreground" aria-hidden="true" d="" pointer-events="none" display="none"></path></g></g><g class="mark-group role-title"><g transform="translate(-81,100)"><path class="background" aria-hidden="true" d="M0,0h0v0h0Z" pointer-events="none"></path><g><g class="mark-text role-title-text" role="graphics-symbol" aria-roledescription="title" aria-label="Title text 'envelope'" pointer-events="none"><text text-anchor="middle" transform="translate(0,0) rotate(-90) translate(0,8)" font-family="sans-serif" font-size="10px" fill="#000" opacity="1">envelope</text></g></g><path class="foreground" aria-hidden="true" d="" pointer-events="none" display="none"></path></g></g></g><path class="foreground" aria-hidden="true" d="" display="none"></path></g><g transform="translate(-3,222)"><path class="background" aria-hidden="true" d="M0,0h0v200h0Z"></path><g><g class="mark-group role-axis" role="graphics-symbol" aria-roledescription="axis" aria-label="Y-axis titled 'lower' for a linear scale with values from 0.00000 to 0.00070"><g transform="translate(0.5,0.5)"><path class="background" aria-hidden="true" d="M0,0h0v0h0Z" pointer-events="none"></path><g><g class="mark-rule role-axis-tick" pointer-events="none"><line transform="translate(0,200)" x2="-5" y2="0" stroke="#888" stroke-width="1" opacity="1"></line><line transform="translate(0,171)" x2="-5" y2="0" stroke="#888" stroke-width="1" opacity="1"></line><line transform="translate(0,143)" x2="-5" y2="0" stroke="#888" stroke-width="1" opacity="1"></line><line transform="translate(0,114)" x2="-5" y2="0" stroke="#888" stroke-width="1" opacity="1"></line><line transform="translate(0,86)" x2="-5" y2="0" stroke="#888" stroke-width="1" opacity="1"></line><line transform="translate(0,57)" x2="-5" y2="0" stroke="#888" stroke-width="1" opacity="1"></line><line transform="translate(0,29)" x2="-5" y2="0" stroke="#888" stroke-width="1" opacity="1"></line><line transform="translate(0,0)" x2="-5" y2="0" stroke="#888" stroke-width="1" opacity="1"></line></g><g class="mark-text role-axis-label" pointer-events="none"><text text-anchor="end" transform="translate(-7,203)" font-family="sans-serif" font-size="10px" fill="#000" opacity="1">0.00000</text><text text-anchor="end" transform="translate(-7,174.42857142857142)" font-family="sans-serif" font-size="10px" fill="#000" opacity="1">0.00010</text><text text-anchor="end" transform="translate(-7,145.85714285714283)" font-family="sans-serif" font-size="10px" fill="#000" opacity="1">0.00020</text><text text-anchor="end" transform="translate(-7,117.28571428571428)" font-family="sans-serif" font-size="10px" fill="#000" opacity="1">0.00030</text><text text-anchor="end" transform="translate(-7,88.7142857142857)" font-family="sans-serif" font-size="10px" fill="#000" opacity="1">0.00040</text><text text-anchor="end" transform="translate(-7,60.14285714285714)" font-family="sans-serif" font-size="10px" fill="#000" opacity="1">0.00050</text><text text-anchor="end" transform="translate(-7,31.57142857142858)" font-family="sans-serif" font-size="10px" fill="#000" opacity="1">0.00060</text><text text-anchor="end" transform="translate(-7,3)" font-family="sans-serif" font-size="10px" fill="#000" opacity="1">0.00070</text></g><g class="mark-rule role-axis-domain" pointer-events="none"><line transform="translate(0,200)" x2="0" y2="-200" stroke="#888" stroke-width="1" opacity="1"></line></g><g class="mark-text role-axis-title" pointer-events="none"><text text-anchor="middle" transform="translate(-50,100) rotate(-90) translate(0,-2)" font-family="sans-serif" font-size="11px" font-weight="bold" fill="#000" opacity="1">lower</text></g></g><path class="foreground" aria-hidden="true" d="" pointer-events="none" display="none"></path></g></g><g class="mark-group role-title"><g transform="translate(-81,100)"><path class="background" aria-hidden="true" d="M0,0h0v0h0Z" pointer-events="none"></path><g><g class="mark-text role-title-text" role="graphics-symbol" aria-roledescription="title" aria-label="Title text 'pitch'" pointer-events="none"><text text-anchor="middle" transform="translate(0,0) rotate(-90) translate(0,8)" font-family="sans-serif" font-size="10px" fill="#000" opacity="1">pitch</text></g></g><path class="foreground" aria-hidden="true" d="" pointer-events="none" display="none"></path></g></g></g><path class="foreground" aria-hidden="true" d="" display="none"></path></g></g><g class="mark-group role-column-header column_header" role="graphics-object" aria-roledescription="group mark container"><g transform="translate(0,-1)"><path class="background" aria-hidden="true" d="M0,0h200v0h-200Z"></path><g><g class="mark-group role-title"><g transform="translate(100,-20)"><path class="background" aria-hidden="true" d="M0,0h0v0h0Z" pointer-events="none"></path><g><g class="mark-text role-title-text" role="graphics-symbol" aria-roledescription="title" aria-label="Title text 'athitother'" pointer-events="none"><text text-anchor="middle" transform="translate(0,8)" font-family="sans-serif" font-size="10px" fill="#000" opacity="1">athitother</text></g></g><path class="foreground" aria-hidden="true" d="" pointer-events="none" display="none"></path></g></g></g><path class="foreground" aria-hidden="true" d="" display="none"></path></g><g transform="translate(224,-1)"><path class="background" aria-hidden="true" d="M0,0h200v0h-200Z"></path><g><g class="mark-group role-title"><g transform="translate(100,-20)"><path class="background" aria-hidden="true" d="M0,0h0v0h0Z" pointer-events="none"></path><g><g class="mark-text role-title-text" role="graphics-symbol" aria-roledescription="title" aria-label="Title text 'athittarget'" pointer-events="none"><text text-anchor="middle" transform="translate(0,8)" font-family="sans-serif" font-size="10px" fill="#000" opacity="1">athittarget</text></g></g><path class="foreground" aria-hidden="true" d="" pointer-events="none" display="none"></path></g></g></g><path class="foreground" aria-hidden="true" d="" display="none"></path></g><g transform="translate(448,-1)"><path class="background" aria-hidden="true" d="M0,0h200v0h-200Z"></path><g><g class="mark-group role-title"><g transform="translate(100,-20)"><path class="background" aria-hidden="true" d="M0,0h0v0h0Z" pointer-events="none"></path><g><g class="mark-text role-title-text" role="graphics-symbol" aria-roledescription="title" aria-label="Title text 'premiss'" pointer-events="none"><text text-anchor="middle" transform="translate(0,8)" font-family="sans-serif" font-size="10px" fill="#000" opacity="1">premiss</text></g></g><path class="foreground" aria-hidden="true" d="" pointer-events="none" display="none"></path></g></g></g><path class="foreground" aria-hidden="true" d="" display="none"></path></g></g><g class="mark-group role-column-footer column_footer" role="graphics-object" aria-roledescription="group mark container"><g transform="translate(0,423)"><path class="background" aria-hidden="true" d="M0,0h200v0h-200Z"></path><g><g class="mark-group role-axis" role="graphics-symbol" aria-roledescription="axis" aria-label="X-axis titled 'time' for a linear scale with values from 0.0 to 3.0"><g transform="translate(0.5,0.5)"><path class="background" aria-hidden="true" d="M0,0h0v0h0Z" pointer-events="none"></path><g><g class="mark-rule role-axis-tick" pointer-events="none"><line transform="translate(0,0)" x2="0" y2="5" stroke="#888" stroke-width="1" opacity="1"></line><line transform="translate(33,0)" x2="0" y2="5" stroke="#888" stroke-width="1" opacity="1"></line><line transform="translate(67,0)" x2="0" y2="5" stroke="#888" stroke-width="1" opacity="1"></line><line transform="translate(100,0)" x2="0" y2="5" stroke="#888" stroke-width="1" opacity="1"></line><line transform="translate(133,0)" x2="0" y2="5" stroke="#888" stroke-width="1" opacity="1"></line><line transform="translate(167,0)" x2="0" y2="5" stroke="#888" stroke-width="1" opacity="1"></line><line transform="translate(200,0)" x2="0" y2="5" stroke="#888" stroke-width="1" opacity="1"></line></g><g class="mark-text role-axis-label" pointer-events="none"><text text-anchor="start" transform="translate(0,15)" font-family="sans-serif" font-size="10px" fill="#000" opacity="1">0.0</text><text text-anchor="middle" transform="translate(33.33333333333333,15)" font-family="sans-serif" font-size="10px" fill="#000" opacity="1">0.5</text><text text-anchor="middle" transform="translate(66.66666666666666,15)" font-family="sans-serif" font-size="10px" fill="#000" opacity="1">1.0</text><text text-anchor="middle" transform="translate(100,15)" font-family="sans-serif" font-size="10px" fill="#000" opacity="1">1.5</text><text text-anchor="middle" transform="translate(133.33333333333331,15)" font-family="sans-serif" font-size="10px" fill="#000" opacity="1">2.0</text><text text-anchor="middle" transform="translate(166.66666666666669,15)" font-family="sans-serif" font-size="10px" fill="#000" opacity="1">2.5</text><text text-anchor="end" transform="translate(200,15)" font-family="sans-serif" font-size="10px" fill="#000" opacity="1">3.0</text></g><g class="mark-rule role-axis-domain" pointer-events="none"><line transform="translate(0,0)" x2="200" y2="0" stroke="#888" stroke-width="1" opacity="1"></line></g><g class="mark-text role-axis-title" pointer-events="none"><text text-anchor="middle" transform="translate(100,30)" font-family="sans-serif" font-size="11px" font-weight="bold" fill="#000" opacity="1">time</text></g></g><path class="foreground" aria-hidden="true" d="" pointer-events="none" display="none"></path></g></g></g><path class="foreground" aria-hidden="true" d="" display="none"></path></g><g transform="translate(224,423)"><path class="background" aria-hidden="true" d="M0,0h200v0h-200Z"></path><g><g class="mark-group role-axis" role="graphics-symbol" aria-roledescription="axis" aria-label="X-axis titled 'time' for a linear scale with values from 0.0 to 3.0"><g transform="translate(0.5,0.5)"><path class="background" aria-hidden="true" d="M0,0h0v0h0Z" pointer-events="none"></path><g><g class="mark-rule role-axis-tick" pointer-events="none"><line transform="translate(0,0)" x2="0" y2="5" stroke="#888" stroke-width="1" opacity="1"></line><line transform="translate(33,0)" x2="0" y2="5" stroke="#888" stroke-width="1" opacity="1"></line><line transform="translate(67,0)" x2="0" y2="5" stroke="#888" stroke-width="1" opacity="1"></line><line transform="translate(100,0)" x2="0" y2="5" stroke="#888" stroke-width="1" opacity="1"></line><line transform="translate(133,0)" x2="0" y2="5" stroke="#888" stroke-width="1" opacity="1"></line><line transform="translate(167,0)" x2="0" y2="5" stroke="#888" stroke-width="1" opacity="1"></line><line transform="translate(200,0)" x2="0" y2="5" stroke="#888" stroke-width="1" opacity="1"></line></g><g class="mark-text role-axis-label" pointer-events="none"><text text-anchor="start" transform="translate(0,15)" font-family="sans-serif" font-size="10px" fill="#000" opacity="1">0.0</text><text text-anchor="middle" transform="translate(33.33333333333333,15)" font-family="sans-serif" font-size="10px" fill="#000" opacity="1">0.5</text><text text-anchor="middle" transform="translate(66.66666666666666,15)" font-family="sans-serif" font-size="10px" fill="#000" opacity="1">1.0</text><text text-anchor="middle" transform="translate(100,15)" font-family="sans-serif" font-size="10px" fill="#000" opacity="1">1.5</text><text text-anchor="middle" transform="translate(133.33333333333331,15)" font-family="sans-serif" font-size="10px" fill="#000" opacity="1">2.0</text><text text-anchor="middle" transform="translate(166.66666666666669,15)" font-family="sans-serif" font-size="10px" fill="#000" opacity="1">2.5</text><text text-anchor="end" transform="translate(200,15)" font-family="sans-serif" font-size="10px" fill="#000" opacity="1">3.0</text></g><g class="mark-rule role-axis-domain" pointer-events="none"><line transform="translate(0,0)" x2="200" y2="0" stroke="#888" stroke-width="1" opacity="1"></line></g><g class="mark-text role-axis-title" pointer-events="none"><text text-anchor="middle" transform="translate(100,30)" font-family="sans-serif" font-size="11px" font-weight="bold" fill="#000" opacity="1">time</text></g></g><path class="foreground" aria-hidden="true" d="" pointer-events="none" display="none"></path></g></g></g><path class="foreground" aria-hidden="true" d="" display="none"></path></g><g transform="translate(448,423)"><path class="background" aria-hidden="true" d="M0,0h200v0h-200Z"></path><g><g class="mark-group role-axis" role="graphics-symbol" aria-roledescription="axis" aria-label="X-axis titled 'time' for a linear scale with values from 0.0 to 3.0"><g transform="translate(0.5,0.5)"><path class="background" aria-hidden="true" d="M0,0h0v0h0Z" pointer-events="none"></path><g><g class="mark-rule role-axis-tick" pointer-events="none"><line transform="translate(0,0)" x2="0" y2="5" stroke="#888" stroke-width="1" opacity="1"></line><line transform="translate(33,0)" x2="0" y2="5" stroke="#888" stroke-width="1" opacity="1"></line><line transform="translate(67,0)" x2="0" y2="5" stroke="#888" stroke-width="1" opacity="1"></line><line transform="translate(100,0)" x2="0" y2="5" stroke="#888" stroke-width="1" opacity="1"></line><line transform="translate(133,0)" x2="0" y2="5" stroke="#888" stroke-width="1" opacity="1"></line><line transform="translate(167,0)" x2="0" y2="5" stroke="#888" stroke-width="1" opacity="1"></line><line transform="translate(200,0)" x2="0" y2="5" stroke="#888" stroke-width="1" opacity="1"></line></g><g class="mark-text role-axis-label" pointer-events="none"><text text-anchor="start" transform="translate(0,15)" font-family="sans-serif" font-size="10px" fill="#000" opacity="1">0.0</text><text text-anchor="middle" transform="translate(33.33333333333333,15)" font-family="sans-serif" font-size="10px" fill="#000" opacity="1">0.5</text><text text-anchor="middle" transform="translate(66.66666666666666,15)" font-family="sans-serif" font-size="10px" fill="#000" opacity="1">1.0</text><text text-anchor="middle" transform="translate(100,15)" font-family="sans-serif" font-size="10px" fill="#000" opacity="1">1.5</text><text text-anchor="middle" transform="translate(133.33333333333331,15)" font-family="sans-serif" font-size="10px" fill="#000" opacity="1">2.0</text><text text-anchor="middle" transform="translate(166.66666666666669,15)" font-family="sans-serif" font-size="10px" fill="#000" opacity="1">2.5</text><text text-anchor="end" transform="translate(200,15)" font-family="sans-serif" font-size="10px" fill="#000" opacity="1">3.0</text></g><g class="mark-rule role-axis-domain" pointer-events="none"><line transform="translate(0,0)" x2="200" y2="0" stroke="#888" stroke-width="1" opacity="1"></line></g><g class="mark-text role-axis-title" pointer-events="none"><text text-anchor="middle" transform="translate(100,30)" font-family="sans-serif" font-size="11px" font-weight="bold" fill="#000" opacity="1">time</text></g></g><path class="foreground" aria-hidden="true" d="" pointer-events="none" display="none"></path></g></g></g><path class="foreground" aria-hidden="true" d="" display="none"></path></g></g><g class="mark-group role-scope cell" role="graphics-object" aria-roledescription="group mark container"><g transform="translate(0,0)"><path class="background" aria-hidden="true" d="M0.5,0.5h200v200h-200Z" stroke="#ddd"></path><g><g class="mark-group role-axis" aria-hidden="true"><g transform="translate(0.5,200.5)"><path class="background" aria-hidden="true" d="M0,0h0v0h0Z" pointer-events="none"></path><g><g class="mark-rule role-axis-grid" pointer-events="none"><line transform="translate(0,-200)" x2="0" y2="200" stroke="#ddd" stroke-width="1" opacity="1"></line><line transform="translate(33,-200)" x2="0" y2="200" stroke="#ddd" stroke-width="1" opacity="1"></line><line transform="translate(67,-200)" x2="0" y2="200" stroke="#ddd" stroke-width="1" opacity="1"></line><line transform="translate(100,-200)" x2="0" y2="200" stroke="#ddd" stroke-width="1" opacity="1"></line><line transform="translate(133,-200)" x2="0" y2="200" stroke="#ddd" stroke-width="1" opacity="1"></line><line transform="translate(167,-200)" x2="0" y2="200" stroke="#ddd" stroke-width="1" opacity="1"></line><line transform="translate(200,-200)" x2="0" y2="200" stroke="#ddd" stroke-width="1" opacity="1"></line></g></g><path class="foreground" aria-hidden="true" d="" pointer-events="none" display="none"></path></g></g><g class="mark-group role-axis" aria-hidden="true"><g transform="translate(0.5,0.5)"><path class="background" aria-hidden="true" d="M0,0h0v0h0Z" pointer-events="none"></path><g><g class="mark-rule role-axis-grid" pointer-events="none"><line transform="translate(0,200)" x2="200" y2="0" stroke="#ddd" stroke-width="1" opacity="1"></line><line transform="translate(0,171)" x2="200" y2="0" stroke="#ddd" stroke-width="1" opacity="1"></line><line transform="translate(0,143)" x2="200" y2="0" stroke="#ddd" stroke-width="1" opacity="1"></line><line transform="translate(0,114)" x2="200" y2="0" stroke="#ddd" stroke-width="1" opacity="1"></line><line transform="translate(0,86)" x2="200" y2="0" stroke="#ddd" stroke-width="1" opacity="1"></line><line transform="translate(0,57)" x2="200" y2="0" stroke="#ddd" stroke-width="1" opacity="1"></line><line transform="translate(0,29)" x2="200" y2="0" stroke="#ddd" stroke-width="1" opacity="1"></line><line transform="translate(0,0)" x2="200" y2="0" stroke="#ddd" stroke-width="1" opacity="1"></line></g></g><path class="foreground" aria-hidden="true" d="" pointer-events="none" display="none"></path></g></g><g class="mark-line role-mark child_layer_0_marks" role="graphics-object" aria-roledescription="line mark container"><path aria-label="time: 0; value: 0.0004472177" role="graphics-symbol" aria-roledescription="line mark" d="M0,72.2235142857143L2.083333333333333,66.76223999999999L4.166666666666666,69.99002857142858L6.25,64.56095142857143L8.333333333333332,69.4163142857143L10.416666666666668,69.97890285714286L12.5,79.18356285714285L14.583333333333334,69.9459342857143L16.666666666666664,72.93853142857142L18.75,72.18527428571429L20.833333333333336,69.58724857142857L22.916666666666664,64.12009428571427L25,65.25892L27.083333333333332,68.95573714285715L29.166666666666668,69.73360857142856L31.25,64.41653714285714L33.33333333333333,68.2583942857143L35.41666666666667,67.88882857142858L37.5,72.95613428571428L39.58333333333333,71.47517142857143L41.66666666666667,66.12828571428571L43.75,73.81690857142857L45.83333333333333,76.00930857142858L47.91666666666667,71.18123999999999L50,66.63441714285713L52.083333333333336,66.53304285714286L54.166666666666664,67.27057714285714L56.25,74.03744L58.333333333333336,55.4349542857143L60.416666666666664,64.95012857142856L62.5,72.56785714285714L64.58333333333334,74.08722857142858L66.66666666666666,72.54719142857142L68.75,72.87136571428572L70.83333333333334,65.12777714285714L72.91666666666666,74.47634285714284L75,62.91806571428571L77.08333333333334,62.15827999999999L79.16666666666666,56.90422857142856L81.25,64.52251428571427L83.33333333333334,60.76442857142859L85.41666666666666,67.02348571428571L87.5,73.24102857142859L89.58333333333334,61.73038L91.66666666666666,73.28095714285713L93.75,72.40045714285715L95.83333333333334,69.73505714285714L97.91666666666666,71.05147999999998L100,64.89213714285714L102.08333333333333,72.86904571428572L104.16666666666667,71.28302L106.25,66.10130000000001L108.33333333333333,68.82931428571428L110.41666666666667,65.0574457142857L112.5,68.11003714285715L114.58333333333333,72.56257142857143L116.66666666666667,74.10185142857144L118.75,74.81363999999999L120.83333333333333,63.368371428571436L122.91666666666667,76.91959428571428L125,63.801571428571435L127.08333333333333,61.480934285714284L129.16666666666669,69.88526285714285L131.25,63.45558L133.33333333333331,64.07064285714286L135.41666666666669,62.781257142857136L137.5,76.87378285714286L139.58333333333331,62.98049714285714L141.66666666666669,67.24365142857143L143.75,70.21342857142857L145.83333333333331,68.02817142857143L147.91666666666669,69.37602285714286L150,74.61421142857144L152.08333333333331,59.32267714285715L154.16666666666669,65.16085714285713L156.25,70.80015428571429L158.33333333333331,65.28817142857142L160.41666666666669,55.18489428571427L162.5,71.56788571428572L164.58333333333331,70.63253428571427L166.66666666666669,65.74708571428572L168.75,69.55565142857142L170.83333333333331,66.55352285714287L172.91666666666669,73.62652857142858L175,74.81841428571427L177.08333333333331,68.07172000000001L179.16666666666669,70.67597142857143L181.25,67.1231142857143L183.33333333333331,70.09702857142857L185.41666666666669,71.82108571428572L187.5,70.0476857142857L189.58333333333331,74.54660857142858L191.66666666666669,64.69983428571429L193.75,77.62248571428572L195.83333333333331,70.77552571428572L197.91666666666669,72.02239142857142" stroke="#4c78a8" stroke-width="2"></path></g><g class="mark-area role-mark child_layer_1_layer_0_marks" role="graphics-object" aria-roledescription="area mark container"><path aria-label="lower: 0.000433472957229; upper_lower: 0.00051941141719; time: 0; upper: 0.00051941141719" role="graphics-symbol" aria-roledescription="errorband" d="M0,76.15058364878809L2.083333333333333,74.60449670574494L4.166666666666666,78.63101996481419L6.25,74.94019525391715L8.333333333333332,81.54900493100286L10.416666666666668,80.79712493345141L12.5,87.10734926696333L14.583333333333334,85.22644354296582L16.666666666666664,81.77925946989231L18.75,77.04897399193473L20.833333333333336,84.0453552215227L22.916666666666664,87.58042454719543L25,76.24067414019791L27.083333333333332,77.8199078515172L29.166666666666668,82.72185769996472L31.25,82.89646737809693L33.33333333333333,85.37590584850739L35.41666666666667,76.77941764039653L37.5,81.14300483305539L39.58333333333333,80.46426691913177L41.66666666666667,79.16185553850872L43.75,86.41028259215611L45.83333333333333,77.10169849119018L47.91666666666667,84.46822223652686L50,79.01676545983977L52.083333333333336,72.80341197869609L54.166666666666664,76.35311637339848L56.25,76.66157872549127L58.333333333333336,80.94919161604983L60.416666666666664,81.37244945392013L62.5,76.18601714660016L64.58333333333334,82.53577279725243L66.66666666666666,84.01593706969706L68.75,76.80932307349784L70.83333333333334,83.44938028603792L72.91666666666666,86.25300382929188L75,78.3661418461374L77.08333333333334,71.51895516685076L79.16666666666666,78.62552516162395L81.25,74.51627218563644L83.33333333333334,83.81200736122472L85.41666666666666,78.43307067773173L87.5,80.87200659460254L89.58333333333334,80.03073459757226L91.66666666666666,77.32549530587028L93.75,79.33274990479862L95.83333333333334,83.32439513344849L97.91666666666666,85.06869080343418L100,75.23400258006794L102.08333333333333,83.30945073227798L104.16666666666667,74.58850456667798L106.25,72.20036897010039L108.33333333333333,76.63053242223603L110.41666666666667,78.56491102970074L112.5,79.0967560905431L114.58333333333333,79.1097929435117L116.66666666666667,85.62386549477068L118.75,77.63743847608566L120.83333333333333,80.98242486427938L122.91666666666667,85.46243070491724L125,76.6352073289454L127.08333333333333,70.41216476687362L129.16666666666669,74.58376978923167L131.25,81.24131258311016L133.33333333333331,79.18756336772017L135.41666666666669,73.92781269071358L137.5,81.7060758093638L139.58333333333331,76.9490031658539L141.66666666666669,83.23386558996779L143.75,78.57130555702108L145.83333333333331,87.00882864317722L147.91666666666669,81.81107078811951L150,77.86688309695037L152.08333333333331,74.68116284747208L154.16666666666669,72.71967776385802L156.25,74.72047131242496L158.33333333333331,75.27460824432117L160.41666666666669,80.12804117585932L162.5,86.10723687868034L164.58333333333331,78.33693656804306L166.66666666666669,82.93421920388937L168.75,81.71269984117575L170.83333333333331,89.19933592634541L172.91666666666669,85.26283497256892L175,81.34176403816255L177.08333333333331,82.35213261629852L179.16666666666669,78.02099702613694L181.25,74.10435153703605L183.33333333333331,83.32611309098345L185.41666666666669,80.15986579869474L187.5,87.95013133702534L189.58333333333331,76.1694529093802L191.66666666666669,84.40257563654865L193.75,85.57779995192374L195.83333333333331,81.36299819286381L197.91666666666669,77.55231891891785L197.91666666666669,56.398780164974085L195.83333333333331,54.381533805280924L193.75,56.196992498423384L191.66666666666669,52.16114270899976L189.58333333333331,55.342494057757506L187.5,58.14874027190462L185.41666666666669,55.661072901317056L183.33333333333331,51.86354190643343L181.25,54.410419772778226L179.16666666666669,46.73526736774616L177.08333333333331,52.877376335007796L175,56.171850115060785L172.91666666666669,59.34062029368113L170.83333333333331,58.740500972739284L168.75,58.51330981988991L166.66666666666669,49.304250840629834L164.58333333333331,52.293819588209914L162.5,57.77256411633323L160.41666666666669,46.55689581164293L158.33333333333331,53.341816924512386L156.25,54.82564329036646L154.16666666666669,57.63012165469783L152.08333333333331,52.676845953932826L150,51.94859826671225L147.91666666666669,53.783203954143175L145.83333333333331,66.90095226679529L143.75,55.15331915978874L141.66666666666669,60.29625038749404L139.58333333333331,57.33213169234139L137.5,55.603490556989385L135.41666666666669,50.63723953706878L133.33333333333331,50.74044171986836L131.25,52.07769953246628L129.16666666666669,47.98321966081858L127.08333333333333,54.087546866919325L125,52.60959448558944L122.91666666666667,51.040567071842304L120.83333333333333,52.49856087778295L118.75,54.341984194304246L116.66666666666667,51.81729841445173L114.58333333333333,59.70891180581279L112.5,59.573183182094795L110.41666666666667,50.864592008292654L108.33333333333333,48.13789903585399L106.25,56.874423234590466L104.16666666666667,55.405032368642956L102.08333333333333,53.81382118378366L100,53.13441138714552L97.91666666666666,52.160776832274024L95.83333333333334,57.24013365272964L93.75,53.394010902515475L91.66666666666666,46.18598661784616L89.58333333333334,56.09306521447641L87.5,51.466572311307715L85.41666666666666,53.505500193153125L83.33333333333334,53.99076249450445L81.25,54.79647293686867L79.16666666666666,54.370446077414925L77.08333333333334,54.3552921286651L75,48.787356833262095L72.91666666666666,52.63936520953263L70.83333333333334,58.221918943205054L68.75,54.56351922558886L66.66666666666666,59.69454781817538L64.58333333333334,62.50609758176972L62.5,63.24710438826256L60.416666666666664,53.63755508192946L58.333333333333336,53.34260189639672L56.25,57.359931671193664L54.166666666666664,47.572276900921565L52.083333333333336,48.64003823271821L50,49.38092862388916L47.91666666666667,58.79111336544156L45.83333333333333,58.377369985516566L43.75,63.280094827392276L41.66666666666667,48.207107944680104L39.58333333333333,57.152576026107596L37.5,64.45059766992927L35.41666666666667,55.89844540559821L33.33333333333333,52.07206503088986L31.25,57.02515613021595L29.166666666666668,48.48143399826117L27.083333333333332,50.48876676176275L25,51.72047412821226L22.916666666666664,60.967838737581445L20.833333333333336,64.0881369023451L18.75,59.1096606105566L16.666666666666664,53.39846794626541L14.583333333333334,53.02145193730081L12.5,63.860955727951854L10.416666666666668,58.895265164652045L8.333333333333332,55.33777757414751L6.25,54.033955905054285L4.166666666666666,49.24119032387224L2.083333333333333,56.42422356509738L0,51.59673794571844Z" fill="#4c78a8" opacity="0.3"></path></g></g><path class="foreground" aria-hidden="true" d="" display="none"></path></g><g transform="translate(224,0)"><path class="background" aria-hidden="true" d="M0.5,0.5h200v200h-200Z" stroke="#ddd"></path><g><g class="mark-group role-axis" aria-hidden="true"><g transform="translate(0.5,200.5)"><path class="background" aria-hidden="true" d="M0,0h0v0h0Z" pointer-events="none"></path><g><g class="mark-rule role-axis-grid" pointer-events="none"><line transform="translate(0,-200)" x2="0" y2="200" stroke="#ddd" stroke-width="1" opacity="1"></line><line transform="translate(33,-200)" x2="0" y2="200" stroke="#ddd" stroke-width="1" opacity="1"></line><line transform="translate(67,-200)" x2="0" y2="200" stroke="#ddd" stroke-width="1" opacity="1"></line><line transform="translate(100,-200)" x2="0" y2="200" stroke="#ddd" stroke-width="1" opacity="1"></line><line transform="translate(133,-200)" x2="0" y2="200" stroke="#ddd" stroke-width="1" opacity="1"></line><line transform="translate(167,-200)" x2="0" y2="200" stroke="#ddd" stroke-width="1" opacity="1"></line><line transform="translate(200,-200)" x2="0" y2="200" stroke="#ddd" stroke-width="1" opacity="1"></line></g></g><path class="foreground" aria-hidden="true" d="" pointer-events="none" display="none"></path></g></g><g class="mark-group role-axis" aria-hidden="true"><g transform="translate(0.5,0.5)"><path class="background" aria-hidden="true" d="M0,0h0v0h0Z" pointer-events="none"></path><g><g class="mark-rule role-axis-grid" pointer-events="none"><line transform="translate(0,200)" x2="200" y2="0" stroke="#ddd" stroke-width="1" opacity="1"></line><line transform="translate(0,171)" x2="200" y2="0" stroke="#ddd" stroke-width="1" opacity="1"></line><line transform="translate(0,143)" x2="200" y2="0" stroke="#ddd" stroke-width="1" opacity="1"></line><line transform="translate(0,114)" x2="200" y2="0" stroke="#ddd" stroke-width="1" opacity="1"></line><line transform="translate(0,86)" x2="200" y2="0" stroke="#ddd" stroke-width="1" opacity="1"></line><line transform="translate(0,57)" x2="200" y2="0" stroke="#ddd" stroke-width="1" opacity="1"></line><line transform="translate(0,29)" x2="200" y2="0" stroke="#ddd" stroke-width="1" opacity="1"></line><line transform="translate(0,0)" x2="200" y2="0" stroke="#ddd" stroke-width="1" opacity="1"></line></g></g><path class="foreground" aria-hidden="true" d="" pointer-events="none" display="none"></path></g></g><g class="mark-line role-mark child_layer_0_marks" role="graphics-object" aria-roledescription="line mark container"><path aria-label="time: 0; value: 0.00047670302" role="graphics-symbol" aria-roledescription="line mark" d="M0,63.79913714285714L2.083333333333333,66.91221714285713L4.166666666666666,70.02901142857144L6.25,86.19765714285714L8.333333333333332,74.32002857142857L10.416666666666668,68.75042857142857L12.5,76.89883714285715L14.583333333333334,84.37362857142855L16.666666666666664,79.15996571428569L18.75,84.9522L20.833333333333336,81.37536571428572L22.916666666666664,79.96688571428572L25,68.15777142857142L27.083333333333332,71.13223714285712L29.166666666666668,68.19569428571428L31.25,73.06662L33.33333333333333,73.04631428571429L35.41666666666667,74.82213142857144L37.5,84.0191057142857L39.58333333333333,84.27082857142855L41.66666666666667,77.34011428571428L43.75,73.06697714285716L45.83333333333333,73.69615999999999L47.91666666666667,82.53700571428573L50,75.82326857142859L52.083333333333336,72.48871428571428L54.166666666666664,67.04113714285714L56.25,71.45350285714287L58.333333333333336,72.09082L60.416666666666664,66.1195942857143L62.5,76.51032L64.58333333333334,78.19955428571429L66.66666666666666,79.66794285714285L68.75,79.16000571428572L70.83333333333334,71.07411428571429L72.91666666666666,78.35505142857141L75,70.47238L77.08333333333334,74.03823999999999L79.16666666666666,71.08668571428571L81.25,69.17257142857143L83.33333333333334,70.49383428571427L85.41666666666666,79.31929428571429L87.5,83.07700857142856L89.58333333333334,83.36639142857143L91.66666666666666,68.36264285714286L93.75,77.65546285714287L95.83333333333334,73.67881428571428L97.91666666666666,77.64289714285715L100,75.19521714285715L102.08333333333333,75.61765714285713L104.16666666666667,73.41272285714287L106.25,75.46964857142856L108.33333333333333,68.19185714285713L110.41666666666667,71.82298L112.5,79.03916L114.58333333333333,86.69181999999999L116.66666666666667,72.24002285714286L118.75,72.04234857142858L120.83333333333333,73.82284571428572L122.91666666666667,74.32270857142858L125,70.49431428571428L127.08333333333333,69.98328571428571L129.16666666666669,68.28078571428571L131.25,71.41458L133.33333333333331,79.2078L135.41666666666669,74.54680857142857L137.5,74.05801428571428L139.58333333333331,76.01758285714286L141.66666666666669,66.5494L143.75,83.4075942857143L145.83333333333331,77.49484285714286L147.91666666666669,82.24273428571429L150,70.45057142857144L152.08333333333331,74.84636L154.16666666666669,74.71186857142857L156.25,74.70169142857142L158.33333333333331,75.54185142857143L160.41666666666669,70.73346571428571L162.5,79.14349142857142L164.58333333333331,86.57893714285714L166.66666666666669,75.88234285714286L168.75,82.05015714285715L170.83333333333331,76.04886571428571L172.91666666666669,74.75789428571429L175,74.24767999999999L177.08333333333331,64.00365714285714L179.16666666666669,65.86451428571426L181.25,70.07882857142856L183.33333333333331,75.59238285714285L185.41666666666669,74.02193142857143L187.5,80.77018L189.58333333333331,85.70951428571428L191.66666666666669,72.65892571428572L193.75,80.04030571428574L195.83333333333331,77.51466571428571L197.91666666666669,75.75817714285714" stroke="#4c78a8" stroke-width="2"></path></g><g class="mark-area role-mark child_layer_1_layer_0_marks" role="graphics-object" aria-roledescription="area mark container"><path aria-label="lower: 0.000329361873446; upper_lower: 0.000484992709244; time: 0; upper: 0.000484992709244" role="graphics-symbol" aria-roledescription="errorband" d="M0,105.89660758684789L2.083333333333333,106.23691784484043L4.166666666666666,107.58731229496854L6.25,110.2357991172799L8.333333333333332,106.05910840843404L10.416666666666668,108.15830283931322L12.5,108.99112807320697L14.583333333333334,108.39749973799502L16.666666666666664,99.47257230856587L18.75,110.54550212408816L20.833333333333336,107.61359055925692L22.916666666666664,114.37548472146904L25,109.2539123791669L27.083333333333332,104.47522972577383L29.166666666666668,109.68615914295827L31.25,106.50243791086334L33.33333333333333,113.8400873302349L35.41666666666667,100.56148963049054L37.5,110.85485588493091L39.58333333333333,108.25696981378962L41.66666666666667,111.12286058653677L43.75,113.79370081371496L45.83333333333333,112.67224374626363L47.91666666666667,115.38815499682511L50,106.12430265173316L52.083333333333336,100.12423700786061L54.166666666666664,104.89897318184376L56.25,105.8079207316041L58.333333333333336,100.50027845427394L60.416666666666664,104.48449804846729L62.5,108.67021260783076L64.58333333333334,109.49405556810754L66.66666666666666,111.05994309431739L68.75,106.3275272159704L70.83333333333334,103.01400123696243L72.91666666666666,102.41323331637042L75,105.00418934971094L77.08333333333334,104.15157018495455L79.16666666666666,107.69223243530308L81.25,109.30988153974926L83.33333333333334,105.43376188725233L85.41666666666666,103.22602679952979L87.5,103.75088195183446L89.58333333333334,116.1796860529908L91.66666666666666,106.18971475799168L93.75,106.0227602188076L95.83333333333334,105.96169705635737L97.91666666666666,111.99725107955081L100,108.53781179924096L102.08333333333333,107.68015351412552L104.16666666666667,99.80368575613414L106.25,104.7370228384222L108.33333333333333,103.12217934323209L110.41666666666667,97.4206408352724L112.5,104.13302189803551L114.58333333333333,113.15876167001468L116.66666666666667,106.78885120100207L118.75,108.40817834915859L120.83333333333333,107.78334904462099L122.91666666666667,109.07587676442094L125,103.4604606484728L127.08333333333333,111.66626568883657L129.16666666666669,99.27716919087936L131.25,104.26859419260705L133.33333333333331,112.20050724223256L135.41666666666669,104.83731131202407L137.5,106.65640881551161L139.58333333333331,115.66021760393465L141.66666666666669,107.36653562635183L143.75,109.84306205064058L145.83333333333331,111.61587282216976L147.91666666666669,109.27617431485228L150,97.6676176036043L152.08333333333331,98.67103618702717L154.16666666666669,99.48837984619396L156.25,98.56932578342301L158.33333333333331,108.16362135644471L160.41666666666669,106.07751699696695L162.5,110.67573927076799L164.58333333333331,112.12989137108838L166.66666666666669,105.13589332944582L168.75,104.42197470526611L170.83333333333331,108.59601946015442L172.91666666666669,111.65618744811843L175,101.2566071801952L177.08333333333331,103.89916014724542L179.16666666666669,101.13053770203675L181.25,106.37924555423007L183.33333333333331,100.81909012847711L185.41666666666669,100.98707577479738L187.5,109.68421001785569L189.58333333333331,109.42503791302443L191.66666666666669,106.06200382379546L193.75,110.22821549060089L195.83333333333331,105.3784113909517L197.91666666666669,111.47614117445693L197.91666666666669,61.80047271773219L195.83333333333331,57.50781405451042L193.75,63.268286987606984L191.66666666666669,59.10208696233374L189.58333333333331,64.32645070765699L187.5,59.611275938472595L185.41666666666669,65.61436172840851L183.33333333333331,63.1836979516915L181.25,61.886538565158844L179.16666666666669,54.80398671435458L177.08333333333331,55.53872039807695L175,62.54417537046331L172.91666666666669,64.65202611205834L170.83333333333331,63.8736632918673L168.75,61.31488445347972L166.66666666666669,57.87236198250736L164.58333333333331,62.4493051985545L162.5,58.703989801662296L160.41666666666669,64.45562847490822L158.33333333333331,67.56022221275737L156.25,59.039961094302804L154.16666666666669,60.17866259706872L152.08333333333331,53.89635299465485L150,60.26313854381442L147.91666666666669,57.843757074858445L145.83333333333331,62.99241593639766L143.75,66.20419658720493L141.66666666666669,54.25429352160012L139.58333333333331,67.96083727053232L137.5,61.06901030455316L135.41666666666669,60.61733382354888L133.33333333333331,60.690515821001355L131.25,59.6235693964575L129.16666666666669,56.72961255269391L127.08333333333333,58.20658039301634L125,62.027860113552634L122.91666666666667,66.89165400873335L120.83333333333333,65.94596245725239L118.75,66.68044335341878L116.66666666666667,69.81977874945318L114.58333333333333,59.723545211766435L112.5,63.46657554219877L110.41666666666667,59.48583343997598L108.33333333333333,53.14173890011651L106.25,63.43503197921174L104.16666666666667,61.69734371027775L102.08333333333333,61.10013643545764L100,53.25836376952273L97.91666666666666,67.94636850910527L95.83333333333334,59.098797397954115L93.75,73.26771286981446L91.66666666666666,55.767183804086294L89.58333333333334,62.11067298427224L87.5,61.18996748700738L85.41666666666666,58.16480226016469L83.33333333333334,57.11055674723215L81.25,59.24268008342813L79.16666666666666,63.49046562931369L77.08333333333334,62.206783810896525L75,66.97076986144697L72.91666666666666,65.20701786503196L70.83333333333334,57.99412575683425L68.75,60.99146439560823L66.66666666666666,62.275041440235725L64.58333333333334,56.80615230064308L62.5,69.88449901608485L60.416666666666664,53.16531799201456L58.333333333333336,62.54726037649172L56.25,62.73897645462836L54.166666666666664,63.37455089337058L52.083333333333336,58.669580758682315L50,61.849239096045494L47.91666666666667,61.730094666459735L45.83333333333333,64.81621994503908L43.75,67.672283601548L41.66666666666667,67.94562677719765L39.58333333333333,59.66561861070139L37.5,59.57286054534572L35.41666666666667,62.30477225035429L33.33333333333333,62.915104521172395L31.25,54.99492779906308L29.166666666666668,65.67065851496798L27.083333333333332,61.31525531943356L25,54.39374577254057L22.916666666666664,64.79589050369603L20.833333333333336,65.60616775282793L18.75,66.22225260362029L16.666666666666664,61.18803000343698L14.583333333333334,62.98431010384644L12.5,62.928987879838246L10.416666666666668,61.844870195324916L8.333333333333332,63.5569919965097L6.25,60.33426331622258L4.166666666666666,58.037412299641545L2.083333333333333,59.83254654066903L0,61.43065450180853Z" fill="#4c78a8" opacity="0.3"></path></g></g><path class="foreground" aria-hidden="true" d="" display="none"></path></g><g transform="translate(448,0)"><path class="background" aria-hidden="true" d="M0.5,0.5h200v200h-200Z" stroke="#ddd"></path><g><g class="mark-group role-axis" aria-hidden="true"><g transform="translate(0.5,200.5)"><path class="background" aria-hidden="true" d="M0,0h0v0h0Z" pointer-events="none"></path><g><g class="mark-rule role-axis-grid" pointer-events="none"><line transform="translate(0,-200)" x2="0" y2="200" stroke="#ddd" stroke-width="1" opacity="1"></line><line transform="translate(33,-200)" x2="0" y2="200" stroke="#ddd" stroke-width="1" opacity="1"></line><line transform="translate(67,-200)" x2="0" y2="200" stroke="#ddd" stroke-width="1" opacity="1"></line><line transform="translate(100,-200)" x2="0" y2="200" stroke="#ddd" stroke-width="1" opacity="1"></line><line transform="translate(133,-200)" x2="0" y2="200" stroke="#ddd" stroke-width="1" opacity="1"></line><line transform="translate(167,-200)" x2="0" y2="200" stroke="#ddd" stroke-width="1" opacity="1"></line><line transform="translate(200,-200)" x2="0" y2="200" stroke="#ddd" stroke-width="1" opacity="1"></line></g></g><path class="foreground" aria-hidden="true" d="" pointer-events="none" display="none"></path></g></g><g class="mark-group role-axis" aria-hidden="true"><g transform="translate(0.5,0.5)"><path class="background" aria-hidden="true" d="M0,0h0v0h0Z" pointer-events="none"></path><g><g class="mark-rule role-axis-grid" pointer-events="none"><line transform="translate(0,200)" x2="200" y2="0" stroke="#ddd" stroke-width="1" opacity="1"></line><line transform="translate(0,171)" x2="200" y2="0" stroke="#ddd" stroke-width="1" opacity="1"></line><line transform="translate(0,143)" x2="200" y2="0" stroke="#ddd" stroke-width="1" opacity="1"></line><line transform="translate(0,114)" x2="200" y2="0" stroke="#ddd" stroke-width="1" opacity="1"></line><line transform="translate(0,86)" x2="200" y2="0" stroke="#ddd" stroke-width="1" opacity="1"></line><line transform="translate(0,57)" x2="200" y2="0" stroke="#ddd" stroke-width="1" opacity="1"></line><line transform="translate(0,29)" x2="200" y2="0" stroke="#ddd" stroke-width="1" opacity="1"></line><line transform="translate(0,0)" x2="200" y2="0" stroke="#ddd" stroke-width="1" opacity="1"></line></g></g><path class="foreground" aria-hidden="true" d="" pointer-events="none" display="none"></path></g></g><g class="mark-line role-mark child_layer_0_marks" role="graphics-object" aria-roledescription="line mark container"><path aria-label="time: 0; value: 0.00046638233" role="graphics-symbol" aria-roledescription="line mark" d="M0,66.74790571428572L2.083333333333333,77.35932857142858L4.166666666666666,68.76745142857143L6.25,79.69927428571428L8.333333333333332,65.99450571428571L10.416666666666668,83.96434285714285L12.5,87.27848571428571L14.583333333333334,81.63460571428571L16.666666666666664,77.46536571428572L18.75,91.61104857142857L20.833333333333336,79.61494857142857L22.916666666666664,83.49464857142857L25,73.11904857142856L27.083333333333332,76.3592L29.166666666666668,72.33160857142857L31.25,85.33632857142857L33.33333333333333,70.66512285714286L35.41666666666667,74.60061714285715L37.5,82.08538285714286L39.58333333333333,82.72506857142857L41.66666666666667,74.67952L43.75,81.92115428571427L45.83333333333333,64.99550571428571L47.91666666666667,84.32478L50,82.05873142857143L52.083333333333336,83.3723142857143L54.166666666666664,75.93176L56.25,83.07051428571428L58.333333333333336,77.45472857142856L60.416666666666664,82.74215428571429L62.5,76.38487142857142L64.58333333333334,85.99262L66.66666666666666,70.21879428571427L68.75,75.00998285714286L70.83333333333334,83.45283714285713L72.91666666666666,73.33712857142858L75,75.94312571428571L77.08333333333334,81.4062742857143L79.16666666666666,76.88526857142857L81.25,84.53216571428572L83.33333333333334,73.44415428571429L85.41666666666666,76.68401142857142L87.5,87.38661142857143L89.58333333333334,79.18289714285713L91.66666666666666,69.76273714285715L93.75,83.69399142857144L95.83333333333334,82.35640571428571L97.91666666666666,86.55409142857143L100,83.14373142857143L102.08333333333333,71.03405714285715L104.16666666666667,74.84385714285715L106.25,85.7886857142857L108.33333333333333,82.99683999999998L110.41666666666667,81.35922857142856L112.5,79.64846857142858L114.58333333333333,83.19985142857142L116.66666666666667,73.75457142857142L118.75,84.49676L120.83333333333333,79.28179428571428L122.91666666666667,87.60582857142857L125,77.63144857142856L127.08333333333333,71.89814285714284L129.16666666666669,79.89014285714286L131.25,87.50315142857144L133.33333333333331,75.76439714285715L135.41666666666669,90.31804000000001L137.5,79.43734285714285L139.58333333333331,76.86797142857142L141.66666666666669,77.80694285714284L143.75,82.94958285714287L145.83333333333331,82.69537142857142L147.91666666666669,74.76854285714285L150,72.8954L152.08333333333331,79.26305714285714L154.16666666666669,77.75664571428571L156.25,63.026L158.33333333333331,63.971248571428575L160.41666666666669,82.82278285714287L162.5,87.19646285714285L164.58333333333331,85.60475714285714L166.66666666666669,74.40804857142858L168.75,88.06621142857142L170.83333333333331,87.62744857142857L172.91666666666669,73.19584857142858L175,67.55942857142855L177.08333333333331,81.95833142857143L179.16666666666669,77.7588L181.25,92.52214857142857L183.33333333333331,65.65794285714286L185.41666666666669,81.81637142857143L187.5,79.36261142857144L189.58333333333331,82.27571999999998L191.66666666666669,90.26703428571427L193.75,84.45141428571428L195.83333333333331,80.93582857142859L197.91666666666669,69.50252285714285" stroke="#4c78a8" stroke-width="2"></path></g><g class="mark-area role-mark child_layer_1_layer_0_marks" role="graphics-object" aria-roledescription="area mark container"><path aria-label="lower: 0.000356985168764; upper_lower: 0.000589724828023; time: 0; upper: 0.000589724828023" role="graphics-symbol" aria-roledescription="errorband" d="M0,98.00423749589496L2.083333333333333,95.0488549391074L4.166666666666666,90.84117946081926L6.25,92.78804278001189L8.333333333333332,89.47063351848294L10.416666666666668,99.85095370294792L12.5,100.46453728739704L14.583333333333334,102.6538903958031L16.666666666666664,89.37393396294542L18.75,108.06904388591647L20.833333333333336,92.16327999851535L22.916666666666664,100.61568761510506L25,100.89991063411748L27.083333333333332,93.4668239339122L29.166666666666668,93.26505456119776L31.25,89.27623822486828L33.33333333333333,92.74276719827736L35.41666666666667,95.38150673199979L37.5,99.98018302555596L39.58333333333333,97.5118322830115L41.66666666666667,84.92739420118076L43.75,98.77993606829219L45.83333333333333,103.19195037175501L47.91666666666667,105.06745608789578L50,103.81261367084724L52.083333333333336,101.52617018403751L54.166666666666664,94.58819452141014L56.25,95.26360794635755L58.333333333333336,98.73326849192381L60.416666666666664,97.08987663366966L62.5,95.62320157087277L64.58333333333334,105.71185647110855L66.66666666666666,97.73216491032926L68.75,92.2083792941911L70.83333333333334,100.5203667495932L72.91666666666666,83.43310875019858L75,99.22927592747979L77.08333333333334,102.5451485067606L79.16666666666666,102.05206642193451L81.25,95.27847750910689L83.33333333333334,91.87426898362381L85.41666666666666,96.74000202545096L87.5,101.56731801107526L89.58333333333334,107.42775345487254L91.66666666666666,91.50191956598843L93.75,95.83499929202455L95.83333333333334,101.07116921405708L97.91666666666666,92.70194367106473L100,98.43912522441573L102.08333333333333,93.47896771505475L104.16666666666667,95.25558526760764L106.25,97.49232772737741L108.33333333333333,87.9676086029836L110.41666666666667,91.89401302220566L112.5,107.05067591209496L114.58333333333333,102.43566654888645L116.66666666666667,87.62574336890665L118.75,97.85588279898678L120.83333333333333,93.67870314578923L122.91666666666667,97.59115934638041L125,89.24655730703049L127.08333333333333,101.32477666650499L129.16666666666669,97.87314220198562L131.25,102.43817446753383L133.33333333333331,92.60567984144603L135.41666666666669,98.2146814731615L137.5,106.5883208199271L139.58333333333331,108.05399304788028L141.66666666666669,98.93797818305237L143.75,94.66297972415174L145.83333333333331,95.7099492794701L147.91666666666669,91.8642639182508L150,101.90435699852452L152.08333333333331,95.1982191231634L154.16666666666669,90.61162674001287L156.25,101.88350701438529L158.33333333333331,93.89836389039243L160.41666666666669,96.97397353925876L162.5,112.09790044065033L164.58333333333331,103.66151656157203L166.66666666666669,89.84452959682261L168.75,101.437692876373L170.83333333333331,98.17427704110742L172.91666666666669,100.49035654270222L175,101.91055860902583L177.08333333333331,98.8163873686322L179.16666666666669,88.97392592791999L181.25,95.1658506744674L183.33333333333331,89.78987094014883L185.41666666666669,101.91514537270581L187.5,102.27466083264775L189.58333333333331,90.26218120540892L191.66666666666669,98.21553296808685L193.75,102.95358833723833L195.83333333333331,97.48811681887935L197.91666666666669,100.1177426959787L197.91666666666669,32.32769050768445L195.83333333333331,25.102200598589008L193.75,36.421129293739796L191.66666666666669,34.95872667325395L189.58333333333331,39.54798496727434L187.5,38.72124659163612L185.41666666666669,24.675082761262132L183.33333333333331,22.560292003410183L181.25,14.906446928424486L179.16666666666669,23.961127549409838L177.08333333333331,30.974794791213128L175,21.78707806659594L172.91666666666669,28.549318148621495L170.83333333333331,32.34893796699387L168.75,29.567892343870227L166.66666666666669,38.006220358823015L164.58333333333331,40.03673640212841L162.5,34.427872805723126L160.41666666666669,33.39659603578704L158.33333333333331,23.96362881575311L156.25,13.885058808539611L154.16666666666669,31.35398610361986L152.08333333333331,32.656703490231706L150,21.91046832927634L147.91666666666669,39.971364209694514L145.83333333333331,30.891527900738367L143.75,37.219502244676846L141.66666666666669,40.7716297411493L139.58333333333331,46.29645477980373L137.5,33.816007178808945L135.41666666666669,23.570334618645063L133.33333333333331,35.38622036576271L131.25,46.51939012110231L129.16666666666669,32.64973187553031L127.08333333333333,28.89587990939617L125,31.30744658410549L122.91666666666667,41.38814532863244L120.83333333333333,29.76274830954415L118.75,39.31418641337325L116.66666666666667,27.98425148108177L114.58333333333333,30.955809115299132L112.5,37.163928896188736L110.41666666666667,22.473609154777876L108.33333333333333,24.400209555668482L106.25,23.151548792208928L104.16666666666667,39.40449144159044L102.08333333333333,28.27901507594757L100,27.080622448452885L97.91666666666666,42.591623642614906L95.83333333333334,30.48238791525364L93.75,32.73111616394348L91.66666666666666,22.724114970437114L89.58333333333334,20.136551612189834L87.5,40.50814528018236L85.41666666666666,28.108849136957105L83.33333333333334,21.021820285490577L81.25,23.953377615128232L79.16666666666666,29.700525983103688L77.08333333333334,39.679973333009634L75,20.71341281490666L72.91666666666666,33.56660231947899L70.83333333333334,39.69984043921744L68.75,22.658327008996707L66.66666666666666,28.75254936516282L64.58333333333334,25.756288399653783L62.5,27.26028122540032L60.416666666666664,27.317703914429444L58.333333333333336,9.960671700537176L56.25,25.750387805913164L54.166666666666664,19.83944308012721L52.083333333333336,29.989907863949014L50,39.66827858239412L47.91666666666667,35.06078964897566L45.83333333333333,25.4323810605066L43.75,30.562554832015707L41.66666666666667,28.141491993197356L39.58333333333333,34.96023674628563L37.5,20.087933247642866L35.41666666666667,26.53762147362741L33.33333333333333,18.608094938099384L31.25,23.34372055317675L29.166666666666668,42.57216232695748L27.083333333333332,31.28050475248267L25,34.56687935228857L22.916666666666664,28.464434748249403L20.833333333333336,41.58629751099008L18.75,32.70928330187289L16.666666666666664,30.13281266071968L14.583333333333334,31.61730758313624L12.5,37.02788595110178L10.416666666666668,29.854636586138156L8.333333333333332,30.13760897197892L6.25,29.620704986155033L4.166666666666666,15.48934177096399L2.083333333333333,44.833446799644385L0,31.507191993296146Z" fill="#4c78a8" opacity="0.3"></path></g></g><path class="foreground" aria-hidden="true" d="" display="none"></path></g><g transform="translate(0,222)"><path class="background" aria-hidden="true" d="M0.5,0.5h200v200h-200Z" stroke="#ddd"></path><g><g class="mark-group role-axis" aria-hidden="true"><g transform="translate(0.5,200.5)"><path class="background" aria-hidden="true" d="M0,0h0v0h0Z" pointer-events="none"></path><g><g class="mark-rule role-axis-grid" pointer-events="none"><line transform="translate(0,-200)" x2="0" y2="200" stroke="#ddd" stroke-width="1" opacity="1"></line><line transform="translate(33,-200)" x2="0" y2="200" stroke="#ddd" stroke-width="1" opacity="1"></line><line transform="translate(67,-200)" x2="0" y2="200" stroke="#ddd" stroke-width="1" opacity="1"></line><line transform="translate(100,-200)" x2="0" y2="200" stroke="#ddd" stroke-width="1" opacity="1"></line><line transform="translate(133,-200)" x2="0" y2="200" stroke="#ddd" stroke-width="1" opacity="1"></line><line transform="translate(167,-200)" x2="0" y2="200" stroke="#ddd" stroke-width="1" opacity="1"></line><line transform="translate(200,-200)" x2="0" y2="200" stroke="#ddd" stroke-width="1" opacity="1"></line></g></g><path class="foreground" aria-hidden="true" d="" pointer-events="none" display="none"></path></g></g><g class="mark-group role-axis" aria-hidden="true"><g transform="translate(0.5,0.5)"><path class="background" aria-hidden="true" d="M0,0h0v0h0Z" pointer-events="none"></path><g><g class="mark-rule role-axis-grid" pointer-events="none"><line transform="translate(0,200)" x2="200" y2="0" stroke="#ddd" stroke-width="1" opacity="1"></line><line transform="translate(0,171)" x2="200" y2="0" stroke="#ddd" stroke-width="1" opacity="1"></line><line transform="translate(0,143)" x2="200" y2="0" stroke="#ddd" stroke-width="1" opacity="1"></line><line transform="translate(0,114)" x2="200" y2="0" stroke="#ddd" stroke-width="1" opacity="1"></line><line transform="translate(0,86)" x2="200" y2="0" stroke="#ddd" stroke-width="1" opacity="1"></line><line transform="translate(0,57)" x2="200" y2="0" stroke="#ddd" stroke-width="1" opacity="1"></line><line transform="translate(0,29)" x2="200" y2="0" stroke="#ddd" stroke-width="1" opacity="1"></line><line transform="translate(0,0)" x2="200" y2="0" stroke="#ddd" stroke-width="1" opacity="1"></line></g></g><path class="foreground" aria-hidden="true" d="" pointer-events="none" display="none"></path></g></g><g class="mark-line role-mark child_layer_0_marks" role="graphics-object" aria-roledescription="line mark container"><path aria-label="time: 0; value: 0.00040787307" role="graphics-symbol" aria-roledescription="line mark" d="M0,83.46483714285715L2.083333333333333,80.61976285714285L4.166666666666666,79.38348571428571L6.25,87.62814285714286L8.333333333333332,91.88710285714285L10.416666666666668,77.75258571428571L12.5,88.16401714285713L14.583333333333334,85.57948571428571L16.666666666666664,93.49420857142859L18.75,90.14071428571428L20.833333333333336,90.22661428571428L22.916666666666664,86.58307142857143L25,84.29569428571429L27.083333333333332,84.39007999999998L29.166666666666668,74.74848571428572L31.25,83.11947428571429L33.33333333333333,84.6339542857143L35.41666666666667,83.49107142857144L37.5,89.67734285714283L39.58333333333333,88.15921714285714L41.66666666666667,85.93680857142859L43.75,95.1722857142857L45.83333333333333,90.30785714285715L47.91666666666667,92.52732857142858L50,85.29836285714285L52.083333333333336,84.14587428571427L54.166666666666664,76.68900857142857L56.25,92.56305714285715L58.333333333333336,89.85897142857144L60.416666666666664,81.60419714285713L62.5,92.20921714285714L64.58333333333334,86.0451257142857L66.66666666666666,87.38286857142856L68.75,87.43142857142858L70.83333333333334,86.09146571428572L72.91666666666666,86.20072285714286L75,86.3936L77.08333333333334,85.14565714285716L79.16666666666666,85.72387714285713L81.25,87.52763999999999L83.33333333333334,90.42275714285715L85.41666666666666,82.73595142857143L87.5,87.38129714285714L89.58333333333334,83.14012857142856L91.66666666666666,86.46457142857142L93.75,84.72052571428573L95.83333333333334,92.10434285714287L97.91666666666666,85.64197714285714L100,88.72068571428571L102.08333333333333,82.24508571428571L104.16666666666667,83.94149142857144L106.25,86.28419142857145L108.33333333333333,86.81675142857142L110.41666666666667,85.0983257142857L112.5,92.78050857142857L114.58333333333333,91.3039142857143L116.66666666666667,86.21964857142859L118.75,87.34765714285714L120.83333333333333,88.20543428571428L122.91666666666667,94.106L125,85.23832571428571L127.08333333333333,83.42602000000001L129.16666666666669,80.37133142857142L131.25,86.81455428571428L133.33333333333331,87.15038857142856L135.41666666666669,83.59453142857143L137.5,83.75222857142856L139.58333333333331,90.08517142857141L141.66666666666669,84.40818285714285L143.75,88.85108571428573L145.83333333333331,91.7328457142857L147.91666666666669,91.68757142857143L150,79.8842L152.08333333333331,79.16837142857143L154.16666666666669,80.5222857142857L156.25,84.22394857142856L158.33333333333331,82.53322285714286L160.41666666666669,88.19010857142857L162.5,90.33033142857143L164.58333333333331,91.25277142857142L166.66666666666669,88.58738571428573L168.75,91.82427142857141L170.83333333333331,90.82166857142857L172.91666666666669,86.28511428571429L175,82.96211428571429L177.08333333333331,87.45493142857144L179.16666666666669,85.37585142857142L181.25,82.20962285714283L183.33333333333331,88.74833714285712L185.41666666666669,83.71168571428571L187.5,82.93684285714285L189.58333333333331,94.73656000000001L191.66666666666669,86.7288657142857L193.75,91.78518L195.83333333333331,94.25669428571427L197.91666666666669,92.23672285714287" stroke="#4c78a8" stroke-width="2"></path></g><g class="mark-area role-mark child_layer_1_layer_0_marks" role="graphics-object" aria-roledescription="area mark container"><path aria-label="lower: 0.000336504646111; upper_lower: 0.000437056634109; time: 0; upper: 0.000437056634109" role="graphics-symbol" aria-roledescription="errorband" d="M0,103.85581539677722L2.083333333333333,103.17616944334338L4.166666666666666,94.65877214180571L6.25,101.29097630935055L8.333333333333332,98.69837216766817L10.416666666666668,101.36641343789441L12.5,105.96487186849117L14.583333333333334,102.67035152230943L16.666666666666664,100.96525788041097L18.75,112.54748477201377L20.833333333333336,103.46665726974607L22.916666666666664,108.43579871580005L25,98.99226098454426L27.083333333333332,100.47012522284473L29.166666666666668,101.22701606846283L31.25,97.86532740773899L33.33333333333333,104.71278350534183L35.41666666666667,101.8624790811113L37.5,107.35356363334824L39.58333333333333,106.20810837884034L41.66666666666667,99.43349833733268L43.75,102.92217116802931L45.83333333333333,103.99414673447609L47.91666666666667,103.72805290722422L50,100.63156832807829L52.083333333333336,100.21487465128303L54.166666666666664,95.1471277645656L56.25,96.23939119545477L58.333333333333336,99.01886354865772L60.416666666666664,101.84804857043281L62.5,102.58314979395698L64.58333333333334,108.93644945962089L66.66666666666666,104.30475112849047L68.75,104.30388965510895L70.83333333333334,107.79190557077527L72.91666666666666,103.68677868640847L75,103.44204540763582L77.08333333333334,95.62323815854532L79.16666666666666,105.88550821744968L81.25,101.05072003124013L83.33333333333334,98.79619762567538L85.41666666666666,105.80810699611902L87.5,102.03541237860918L89.58333333333334,106.59045620954464L91.66666666666666,98.70907073574406L93.75,105.68108790154969L95.83333333333334,102.5871345241155L97.91666666666666,104.32871272787452L100,99.07789609528012L102.08333333333333,101.74988218184029L104.16666666666667,94.73565614649229L106.25,97.42261490651538L108.33333333333333,101.94320312834213L110.41666666666667,106.48348050724184L112.5,106.08352569064925L114.58333333333333,103.93566799217035L116.66666666666667,101.71031760317939L118.75,102.77095431728023L120.83333333333333,99.60504130327274L122.91666666666667,104.36211727293477L125,98.76969151997142L127.08333333333333,98.15578862492526L129.16666666666669,97.18638826161623L131.25,104.50381966573852L133.33333333333331,100.52103696923172L135.41666666666669,100.16284032857843L137.5,103.33714688728963L139.58333333333331,104.68934411183L141.66666666666669,100.88482487148474L143.75,99.65806848236491L145.83333333333331,105.9799992080246L147.91666666666669,105.5886291898787L150,101.4686793088913L152.08333333333331,97.03814998002989L154.16666666666669,92.97198231465049L156.25,100.48169191660625L158.33333333333331,100.32390924170613L160.41666666666669,101.82592300698161L162.5,105.39895869525415L164.58333333333331,98.51206607584442L166.66666666666669,97.74764315890414L168.75,107.29436477912321L170.83333333333331,99.84792524150438L172.91666666666669,107.18937811574764L175,102.42768544703722L177.08333333333331,108.13250354092037L179.16666666666669,96.02057695654887L181.25,100.18990190167511L183.33333333333331,100.66915052011609L185.41666666666669,99.48098414710589L187.5,101.73636802605219L189.58333333333331,102.57919499916687L191.66666666666669,98.8811591906207L193.75,103.21446675807238L195.83333333333331,98.41333091525095L197.91666666666669,101.57540388671413L197.91666666666669,78.03968002221413L195.83333333333331,86.81080784382564L193.75,82.24194385111332L191.66666666666669,74.24796979342187L189.58333333333331,83.3596589975059L187.5,81.76636231530989L185.41666666666669,79.22991193564874L183.33333333333331,75.74739414932472L181.25,73.94598345937473L179.16666666666669,81.72942207061817L177.08333333333331,75.22817682474852L175,70.98126106762459L172.91666666666669,83.03857389837503L170.83333333333331,79.74927893706732L168.75,76.13545963540673L166.66666666666669,80.11996195252453L164.58333333333331,81.86341610604097L162.5,80.39791850107056L160.41666666666669,67.00736917555332L158.33333333333331,77.31548525126917L156.25,77.43705943492907L154.16666666666669,73.6786306835711L152.08333333333331,77.22380485917839L150,74.26504958420992L147.91666666666669,80.44190686196089L145.83333333333331,80.0232557446829L143.75,82.03159466918027L141.66666666666669,72.17943749523587L139.58333333333331,82.25320620196206L137.5,80.01521809824877L135.41666666666669,69.29993111906307L133.33333333333331,78.82731116509865L131.25,74.39597524436456L129.16666666666669,74.25400509632061L127.08333333333333,73.60127436529314L125,68.62615083477328L122.91666666666667,81.93844079173036L120.83333333333333,83.98749348042267L118.75,75.86024050999964L116.66666666666667,82.73109775036573L114.58333333333333,85.20523932363304L112.5,73.2842322039817L110.41666666666667,74.55574862126792L108.33333333333333,75.01218648893493L106.25,73.63683093073112L104.16666666666667,78.33755356924874L102.08333333333333,76.69910270986813L100,74.7785426011043L97.91666666666666,81.44419122753399L95.83333333333334,73.91114700585604L93.75,69.36035732339533L91.66666666666666,74.51335016105855L89.58333333333334,76.63796470899666L87.5,81.05263660794921L85.41666666666666,76.34856287123901L83.33333333333334,78.23229249832886L81.25,74.10115676798992L79.16666666666666,78.46981634252839L77.08333333333334,75.35248510539532L75,71.83573289907403L72.91666666666666,83.74845790011543L70.83333333333334,79.75108337455563L68.75,82.9903397043901L66.66666666666666,82.10044435358475L64.58333333333334,77.54331668838859L62.5,78.27611954084463L60.416666666666664,71.4394518174231L58.333333333333336,77.38207814150624L56.25,75.62231586447783L54.166666666666664,68.31313664359706L52.083333333333336,79.06980261738809L50,69.37265244445632L47.91666666666667,78.26646871066518L45.83333333333333,80.3111391940287L43.75,79.63061014722501L41.66666666666667,81.2644210244928L39.58333333333333,80.08662559358137L37.5,76.10821845009923L35.41666666666667,72.90122246901905L33.33333333333333,79.92291904187627L31.25,78.89572844973631L29.166666666666668,68.13710170931049L27.083333333333332,77.56948020043117L25,76.5526688657701L22.916666666666664,82.00768628822905L20.833333333333336,82.07230178107108L18.75,79.2152535835547L16.666666666666664,74.78650707219327L14.583333333333334,81.65446557104588L12.5,81.54938411233681L10.416666666666668,71.15359066852503L8.333333333333332,84.1618004787181L6.25,72.45226511731744L4.166666666666666,73.40536899864674L2.083333333333333,72.64444851981742L0,75.12667596872365Z" fill="#4c78a8" opacity="0.3"></path></g></g><path class="foreground" aria-hidden="true" d="" display="none"></path></g><g transform="translate(224,222)"><path class="background" aria-hidden="true" d="M0.5,0.5h200v200h-200Z" stroke="#ddd"></path><g><g class="mark-group role-axis" aria-hidden="true"><g transform="translate(0.5,200.5)"><path class="background" aria-hidden="true" d="M0,0h0v0h0Z" pointer-events="none"></path><g><g class="mark-rule role-axis-grid" pointer-events="none"><line transform="translate(0,-200)" x2="0" y2="200" stroke="#ddd" stroke-width="1" opacity="1"></line><line transform="translate(33,-200)" x2="0" y2="200" stroke="#ddd" stroke-width="1" opacity="1"></line><line transform="translate(67,-200)" x2="0" y2="200" stroke="#ddd" stroke-width="1" opacity="1"></line><line transform="translate(100,-200)" x2="0" y2="200" stroke="#ddd" stroke-width="1" opacity="1"></line><line transform="translate(133,-200)" x2="0" y2="200" stroke="#ddd" stroke-width="1" opacity="1"></line><line transform="translate(167,-200)" x2="0" y2="200" stroke="#ddd" stroke-width="1" opacity="1"></line><line transform="translate(200,-200)" x2="0" y2="200" stroke="#ddd" stroke-width="1" opacity="1"></line></g></g><path class="foreground" aria-hidden="true" d="" pointer-events="none" display="none"></path></g></g><g class="mark-group role-axis" aria-hidden="true"><g transform="translate(0.5,0.5)"><path class="background" aria-hidden="true" d="M0,0h0v0h0Z" pointer-events="none"></path><g><g class="mark-rule role-axis-grid" pointer-events="none"><line transform="translate(0,200)" x2="200" y2="0" stroke="#ddd" stroke-width="1" opacity="1"></line><line transform="translate(0,171)" x2="200" y2="0" stroke="#ddd" stroke-width="1" opacity="1"></line><line transform="translate(0,143)" x2="200" y2="0" stroke="#ddd" stroke-width="1" opacity="1"></line><line transform="translate(0,114)" x2="200" y2="0" stroke="#ddd" stroke-width="1" opacity="1"></line><line transform="translate(0,86)" x2="200" y2="0" stroke="#ddd" stroke-width="1" opacity="1"></line><line transform="translate(0,57)" x2="200" y2="0" stroke="#ddd" stroke-width="1" opacity="1"></line><line transform="translate(0,29)" x2="200" y2="0" stroke="#ddd" stroke-width="1" opacity="1"></line><line transform="translate(0,0)" x2="200" y2="0" stroke="#ddd" stroke-width="1" opacity="1"></line></g></g><path class="foreground" aria-hidden="true" d="" pointer-events="none" display="none"></path></g></g><g class="mark-line role-mark child_layer_0_marks" role="graphics-object" aria-roledescription="line mark container"><path aria-label="time: 0; value: 0.00047498694" role="graphics-symbol" aria-roledescription="line mark" d="M0,64.28944571428572L2.083333333333333,65.92797142857142L4.166666666666666,70.69985714285716L6.25,65.50461428571428L8.333333333333332,73.31446857142856L10.416666666666668,73.12750571428572L12.5,68.23662285714285L14.583333333333334,64.59473714285716L16.666666666666664,61.31690571428572L18.75,73.53309714285714L20.833333333333336,70.42344285714286L22.916666666666664,65.22451142857142L25,54.87995142857143L27.083333333333332,63.119780000000006L29.166666666666668,59.91609714285715L31.25,73.15272571428571L33.33333333333333,58.093799999999995L35.41666666666667,67.20432000000001L37.5,69.06537714285714L39.58333333333333,62.856748571428575L41.66666666666667,66.67280857142856L43.75,70.45672285714286L45.83333333333333,73.2991142857143L47.91666666666667,70.42036571428571L50,62.400499999999994L52.083333333333336,75.4308L54.166666666666664,52.099285714285706L56.25,68.10262857142857L58.333333333333336,65.87481428571427L60.416666666666664,64.22381142857144L62.5,64.49884285714288L64.58333333333334,72.28402857142856L66.66666666666666,64.43674285714285L68.75,78.25090285714285L70.83333333333334,72.42424000000001L72.91666666666666,68.46044L75,58.094297142857144L77.08333333333334,65.55873142857142L79.16666666666666,67.20767714285714L81.25,66.38923714285714L83.33333333333334,56.95914285714283L85.41666666666666,72.35572285714285L87.5,73.51833714285713L89.58333333333334,72.09837714285715L91.66666666666666,63.61228571428572L93.75,73.22405714285713L95.83333333333334,62.746159999999996L97.91666666666666,65.93770285714287L100,66.72265142857141L102.08333333333333,57.55171428571428L104.16666666666667,57.25659999999999L106.25,56.86048571428572L108.33333333333333,63.13869714285716L110.41666666666667,61.3417857142857L112.5,76.97867428571428L114.58333333333333,63.93191428571428L116.66666666666667,65.38932L118.75,71.3938L120.83333333333333,77.66973142857142L122.91666666666667,73.76134285714286L125,53.33758285714285L127.08333333333333,69.83285714285714L129.16666666666669,70.03322857142858L131.25,62.639557142857136L133.33333333333331,58.62508571428571L135.41666666666669,62.46026285714286L137.5,67.62057142857142L139.58333333333331,62.09774285714287L141.66666666666669,65.78653142857142L143.75,65.53158857142859L145.83333333333331,64.54029428571428L147.91666666666669,72.32659428571428L150,62.913291428571426L152.08333333333331,69.84116L154.16666666666669,65.67031428571428L156.25,66.26989428571429L158.33333333333331,62.17815428571427L160.41666666666669,61.45054857142858L162.5,70.43728571428571L164.58333333333331,62.70442857142857L166.66666666666669,69.96602857142858L168.75,64.57919999999999L170.83333333333331,66.65305714285714L172.91666666666669,65.5776857142857L175,61.766571428571424L177.08333333333331,69.21900000000001L179.16666666666669,49.24785714285716L181.25,69.03800857142856L183.33333333333331,56.35211428571429L185.41666666666669,73.40673714285715L187.5,72.39433142857143L189.58333333333331,71.99051428571428L191.66666666666669,62.48534285714287L193.75,69.33682285714285L195.83333333333331,64.23892857142857L197.91666666666669,70.80665714285715" stroke="#4c78a8" stroke-width="2"></path></g><g class="mark-area role-mark child_layer_1_layer_0_marks" role="graphics-object" aria-roledescription="area mark container"><path aria-label="lower: 0.000356128567364; upper_lower: 0.000522779650055; time: 0; upper: 0.000522779650055" role="graphics-symbol" aria-roledescription="errorband" d="M0,98.24898075312376L2.083333333333333,98.16919135461958L4.166666666666666,97.26314088329673L6.25,94.6917459501752L8.333333333333332,91.27863331564836L10.416666666666668,94.6873304833259L12.5,102.83751727214883L14.583333333333334,104.37352763754981L16.666666666666664,97.46167889929245L18.75,99.27726232313685L20.833333333333336,103.60462938302328L22.916666666666664,100.7452345852341L25,98.87705471898826L27.083333333333332,101.37871853741152L29.166666666666668,102.28203823789954L31.25,102.10254576855473L33.33333333333333,97.1640132367611L35.41666666666667,97.63448081378425L37.5,104.65750618438636L39.58333333333333,100.049771115716L41.66666666666667,101.18255539398109L43.75,95.38724767044187L45.83333333333333,105.68366733246614L47.91666666666667,100.70984266432268L50,86.96452429784196L52.083333333333336,96.83806862948197L54.166666666666664,105.07138593654548L56.25,101.58498486770051L58.333333333333336,100.31741659290026L60.416666666666664,96.93084498867393L62.5,103.44169117244226L64.58333333333334,100.14881228229828L66.66666666666666,103.80071103572845L68.75,105.20026102395994L70.83333333333334,105.15621112925666L72.91666666666666,101.94671221875717L75,102.79591043612785L77.08333333333334,88.79056181758642L79.16666666666666,93.17287358322312L81.25,95.50282979117972L83.33333333333334,100.50258680379815L85.41666666666666,94.32103798857759L87.5,100.66087837996227L89.58333333333334,100.18465822296483L91.66666666666666,97.75617640199405L93.75,98.03993542279517L95.83333333333334,105.31717859474674L97.91666666666666,100.13836483870233L100,95.90833761862345L102.08333333333333,92.90463771404964L104.16666666666667,95.54788584687881L106.25,104.05998292512129L108.33333333333333,95.7807065120765L110.41666666666667,96.05959604627319L112.5,108.28189932342087L114.58333333333333,99.4216971498515L116.66666666666667,103.9203776711864L118.75,99.98724112021071L120.83333333333333,110.22475795554263L122.91666666666667,96.7756500600704L125,98.99244225983108L127.08333333333333,101.00366662123372L129.16666666666669,97.24301267415285L131.25,89.22192216185587L133.33333333333331,95.94899151208145L135.41666666666669,100.356909659292L137.5,100.92660965664047L139.58333333333331,93.67475167715125L141.66666666666669,100.96044327531541L143.75,97.33993009264981L145.83333333333331,103.48512240286385L147.91666666666669,106.38696389006716L150,94.61663312145643L152.08333333333331,97.48424351481455L154.16666666666669,97.35279731186372L156.25,95.62870967867119L158.33333333333331,94.57343638475453L160.41666666666669,95.3955015167594L162.5,100.54006921127439L164.58333333333331,104.91485223174095L166.66666666666669,101.50662072535073L168.75,96.95030630433132L170.83333333333331,99.75120073982646L172.91666666666669,101.9094493373164L175,99.42720525764994L177.08333333333331,103.55761256068945L179.16666666666669,98.65323794739587L181.25,105.75817812766348L183.33333333333331,98.01710804126094L185.41666666666669,90.43521761362041L187.5,95.8609881810844L189.58333333333331,96.70708476166641L191.66666666666669,100.02442583707827L193.75,104.77529354393482L195.83333333333331,104.89867881738712L197.91666666666669,102.68605095999581L197.91666666666669,55.48122453370263L195.83333333333331,38.93658500164747L193.75,53.90686862436789L191.66666666666669,48.72746281325817L189.58333333333331,43.03334993975503L187.5,48.741672134825166L185.41666666666669,46.07371900762829L183.33333333333331,47.254409853901166L181.25,41.102043033710544L179.16666666666669,42.79473844383443L177.08333333333331,45.547535057578756L175,43.892704562417116L172.91666666666669,51.04308995817388L170.83333333333331,43.89107474791154L168.75,44.82424333691597L166.66666666666669,53.42711276773895L164.58333333333331,52.16819415135041L162.5,44.108827944312765L160.41666666666669,33.949306048452854L158.33333333333331,49.14982092699836L156.25,52.82350930252247L154.16666666666669,37.493321060069974L152.08333333333331,38.41380703129937L150,45.635614890073015L147.91666666666669,55.28852391455854L145.83333333333331,46.352869644761086L143.75,38.92601781657763L141.66666666666669,48.34024549594949L139.58333333333331,53.27527392655611L137.5,50.732129665889914L135.41666666666669,47.02054145080701L133.33333333333331,49.1245454975537L131.25,44.54852528870106L129.16666666666669,42.59213919618301L127.08333333333333,41.037685317652574L125,31.614294089376926L122.91666666666667,48.47381045775754L120.83333333333333,44.752651240144445L118.75,52.01559362134765L116.66666666666667,38.7946713981884L114.58333333333333,48.7448170115905L112.5,52.60742916060344L110.41666666666667,43.7770243201937L108.33333333333333,46.39424697629045L106.25,43.7681601249746L104.16666666666667,36.48157878113643L102.08333333333333,40.33657570502589L100,36.690956726670265L97.91666666666666,59.31028578696507L95.83333333333334,48.856956564954345L93.75,50.15315469354391L91.66666666666666,37.870949081012185L89.58333333333334,45.0507509655186L87.5,44.74571288696359L85.41666666666666,39.317742069917074L83.33333333333334,43.86340116283725L81.25,41.04001362408911L79.16666666666666,34.513468002634376L77.08333333333334,43.536067887076314L75,41.51875001511402L72.91666666666666,51.46808238433942L70.83333333333334,50.20778175177318L68.75,31.29605118717467L66.66666666666666,49.12821424326725L64.58333333333334,55.00682877110583L62.5,50.27306081194962L60.416666666666664,33.69341851877314L58.333333333333336,47.705685533583164L56.25,48.8780144335968L54.166666666666664,38.178574905863854L52.083333333333336,50.37225165537424L50,40.13830045504228L47.91666666666667,53.080527723899905L45.83333333333333,50.171115914625794L43.75,48.67223871073551L41.66666666666667,42.53287381891695L39.58333333333333,47.793702169188435L37.5,48.61983352207713L35.41666666666667,44.196751447660574L33.33333333333333,42.37527075622762L31.25,52.220840486032635L29.166666666666668,38.983350699501365L27.083333333333332,46.798986462610095L25,42.51811900841338L22.916666666666664,47.67433322433914L20.833333333333336,52.52335068902798L18.75,51.89790438328472L16.666666666666664,46.18845129651683L14.583333333333334,38.502063149852404L12.5,45.21668271294661L10.416666666666668,43.60660226749522L8.333333333333332,43.948969750532086L6.25,35.830507799983025L4.166666666666666,49.98008834996395L2.083333333333333,42.54726607884678L0,50.634385698607986Z" fill="#4c78a8" opacity="0.3"></path></g></g><path class="foreground" aria-hidden="true" d="" display="none"></path></g><g transform="translate(448,222)"><path class="background" aria-hidden="true" d="M0.5,0.5h200v200h-200Z" stroke="#ddd"></path><g><g class="mark-group role-axis" aria-hidden="true"><g transform="translate(0.5,200.5)"><path class="background" aria-hidden="true" d="M0,0h0v0h0Z" pointer-events="none"></path><g><g class="mark-rule role-axis-grid" pointer-events="none"><line transform="translate(0,-200)" x2="0" y2="200" stroke="#ddd" stroke-width="1" opacity="1"></line><line transform="translate(33,-200)" x2="0" y2="200" stroke="#ddd" stroke-width="1" opacity="1"></line><line transform="translate(67,-200)" x2="0" y2="200" stroke="#ddd" stroke-width="1" opacity="1"></line><line transform="translate(100,-200)" x2="0" y2="200" stroke="#ddd" stroke-width="1" opacity="1"></line><line transform="translate(133,-200)" x2="0" y2="200" stroke="#ddd" stroke-width="1" opacity="1"></line><line transform="translate(167,-200)" x2="0" y2="200" stroke="#ddd" stroke-width="1" opacity="1"></line><line transform="translate(200,-200)" x2="0" y2="200" stroke="#ddd" stroke-width="1" opacity="1"></line></g></g><path class="foreground" aria-hidden="true" d="" pointer-events="none" display="none"></path></g></g><g class="mark-group role-axis" aria-hidden="true"><g transform="translate(0.5,0.5)"><path class="background" aria-hidden="true" d="M0,0h0v0h0Z" pointer-events="none"></path><g><g class="mark-rule role-axis-grid" pointer-events="none"><line transform="translate(0,200)" x2="200" y2="0" stroke="#ddd" stroke-width="1" opacity="1"></line><line transform="translate(0,171)" x2="200" y2="0" stroke="#ddd" stroke-width="1" opacity="1"></line><line transform="translate(0,143)" x2="200" y2="0" stroke="#ddd" stroke-width="1" opacity="1"></line><line transform="translate(0,114)" x2="200" y2="0" stroke="#ddd" stroke-width="1" opacity="1"></line><line transform="translate(0,86)" x2="200" y2="0" stroke="#ddd" stroke-width="1" opacity="1"></line><line transform="translate(0,57)" x2="200" y2="0" stroke="#ddd" stroke-width="1" opacity="1"></line><line transform="translate(0,29)" x2="200" y2="0" stroke="#ddd" stroke-width="1" opacity="1"></line><line transform="translate(0,0)" x2="200" y2="0" stroke="#ddd" stroke-width="1" opacity="1"></line></g></g><path class="foreground" aria-hidden="true" d="" pointer-events="none" display="none"></path></g></g><g class="mark-line role-mark child_layer_0_marks" role="graphics-object" aria-roledescription="line mark container"><path aria-label="time: 0; value: 0.0004140658" role="graphics-symbol" aria-roledescription="line mark" d="M0,81.69548571428571L2.083333333333333,79.64974285714285L4.166666666666666,79.32015142857142L6.25,79.74941714285715L8.333333333333332,70.89255714285714L10.416666666666668,77.98360571428572L12.5,79.7037142857143L14.583333333333334,84.69030857142856L16.666666666666664,69.01395428571429L18.75,85.35389142857144L20.833333333333336,76.44993142857142L22.916666666666664,74.50760857142858L25,81.51561999999998L27.083333333333332,76.72153714285714L29.166666666666668,71.01056000000001L31.25,64.88432857142858L33.33333333333333,72.15153714285714L35.41666666666667,84.74409142857142L37.5,79.46079142857143L39.58333333333333,78.15951428571428L41.66666666666667,78.59783714285714L43.75,85.0754L45.83333333333333,78.48997142857144L47.91666666666667,74.24481714285716L50,79.11530285714285L52.083333333333336,74.01224571428571L54.166666666666664,73.81603428571428L56.25,75.11395142857143L58.333333333333336,70.92362285714285L60.416666666666664,73.74682857142858L62.5,75.49032857142856L64.58333333333334,82.79345714285715L66.66666666666666,84.31077714285713L68.75,73.35296L70.83333333333334,82.788L72.91666666666666,83.30968571428569L75,73.59319142857143L77.08333333333334,84.40799999999999L79.16666666666666,72.36684857142856L81.25,72.94151428571429L83.33333333333334,67.50375714285714L85.41666666666666,83.20741714285715L87.5,75.64232571428573L89.58333333333334,77.07233714285715L91.66666666666666,76.60907999999999L93.75,81.93854857142857L95.83333333333334,79.00577142857144L97.91666666666666,83.93637714285714L100,78.96268571428571L102.08333333333333,69.89497142857142L104.16666666666667,64.65995428571429L106.25,77.70514285714285L108.33333333333333,72.4604L110.41666666666667,82.00891428571428L112.5,77.93174285714286L114.58333333333333,76.51433428571428L116.66666666666667,71.73281714285713L118.75,74.04549142857144L120.83333333333333,75.49645714285715L122.91666666666667,76.99197142857143L125,78.67626857142858L127.08333333333333,74.11487428571428L129.16666666666669,73.75732857142859L131.25,68.36552857142857L133.33333333333331,73.51518571428572L135.41666666666669,72.27248571428572L137.5,86.47911428571429L139.58333333333331,81.38768L141.66666666666669,68.5943857142857L143.75,76.01993714285713L145.83333333333331,76.60464L147.91666666666669,77.2285857142857L150,63.96455428571428L152.08333333333331,79.08388571428571L154.16666666666669,68.26592571428571L156.25,79.29034857142855L158.33333333333331,66.23151428571428L160.41666666666669,79.07553142857142L162.5,83.14721428571428L164.58333333333331,82.58234285714285L166.66666666666669,74.37393142857142L168.75,79.86289714285715L170.83333333333331,75.99155428571429L172.91666666666669,75.8618342857143L175,77.77542857142859L177.08333333333331,72.35180571428572L179.16666666666669,83.73092L181.25,69.32476571428572L183.33333333333331,73.81046571428571L185.41666666666669,74.09633142857143L187.5,83.42947142857142L189.58333333333331,81.00918857142855L191.66666666666669,80.61677142857143L193.75,85.46542857142856L195.83333333333331,77.6331857142857L197.91666666666669,74.94315999999999" stroke="#4c78a8" stroke-width="2"></path></g><g class="mark-area role-mark child_layer_1_layer_0_marks" role="graphics-object" aria-roledescription="area mark container"><path aria-label="lower: 0.00040422200691; upper_lower: 0.000523697439348; time: 0; upper: 0.000523697439348" role="graphics-symbol" aria-roledescription="errorband" d="M0,84.50799802584308L2.083333333333333,83.9695256070367L4.166666666666666,81.12199353054166L6.25,82.27639779714602L8.333333333333332,79.5338989501553L10.416666666666668,89.9132844858936L12.5,90.7674553005823L14.583333333333334,96.15838608837552L16.666666666666664,84.67816063868148L18.75,90.93596814200282L20.833333333333336,87.94088962354832L22.916666666666664,83.5165286436677L25,88.22385535708494L27.083333333333332,85.28134999796748L29.166666666666668,79.93966455438309L31.25,87.18026849840368L33.33333333333333,87.88213481062223L35.41666666666667,93.27800160806092L37.5,86.304180004767L39.58333333333333,92.35052240214179L41.66666666666667,88.30306600513202L43.75,92.31457833998971L45.83333333333333,81.6523251922003L47.91666666666667,92.10511557757854L50,92.48875395527907L52.083333333333336,86.7623258515128L54.166666666666664,82.57105329207013L56.25,89.93677543476224L58.333333333333336,76.4924206105726L60.416666666666664,82.20003267217962L62.5,93.78099229985051L64.58333333333334,89.30326321029239L66.66666666666666,95.83891583606601L68.75,91.36308764240573L70.83333333333334,85.76197065412998L72.91666666666666,92.53208207498704L75,91.53620886749457L77.08333333333334,92.95717761186617L79.16666666666666,87.85387415971076L81.25,88.81562104714769L83.33333333333334,85.45248384720512L85.41666666666666,86.58039697578977L87.5,90.7900698083852L89.58333333333334,88.01757239603572L91.66666666666666,88.79512696127807L93.75,85.43549885175057L95.83333333333334,80.04316941701941L97.91666666666666,93.83466974166888L100,87.95889907383494L102.08333333333333,85.97597195101636L104.16666666666667,74.50381075697285L106.25,85.77296192358648L108.33333333333333,77.17435329354234L110.41666666666667,88.84067528748088L112.5,93.55042177651609L114.58333333333333,92.85318879410625L116.66666666666667,83.31033548872387L118.75,92.12139709187406L120.83333333333333,88.90528246494276L122.91666666666667,86.37944084725208L125,88.21272272616625L127.08333333333333,83.8185632069196L129.16666666666669,87.84679943429572L131.25,79.75874017657978L133.33333333333331,80.59171342423986L135.41666666666669,86.91252323665788L137.5,95.30477739338363L139.58333333333331,86.3999149762094L141.66666666666669,80.43759783197726L143.75,93.94567008795482L145.83333333333331,87.54452206194401L147.91666666666669,85.19138257418362L150,83.62523893426572L152.08333333333331,92.59797148406506L154.16666666666669,78.75342734956314L156.25,91.5267675848944L158.33333333333331,73.96137023876821L160.41666666666669,85.48156772074955L162.5,92.76413107290864L164.58333333333331,99.84471883092607L166.66666666666669,80.30904205515981L168.75,92.93937105685472L170.83333333333331,88.25696720076459L172.91666666666669,85.32999663480692L175,94.12195614672135L177.08333333333331,78.10581556654401L179.16666666666669,91.63815542789442L181.25,80.13622517298373L183.33333333333331,87.85185352233904L185.41666666666669,84.39587177708745L187.5,86.61491079255939L189.58333333333331,87.9558905693037L191.66666666666669,91.35607611387968L193.75,93.81317614710758L195.83333333333331,83.15620825492908L197.91666666666669,81.19801439877068L197.91666666666669,32.276116857039085L195.83333333333331,33.6275274466191L193.75,31.41062382076467L191.66666666666669,45.94528629843677L189.58333333333331,43.66104805043767L187.5,57.73702750780751L185.41666666666669,41.499857471457545L183.33333333333331,41.30620058359844L181.25,29.758911593151964L179.16666666666669,38.35188572161965L177.08333333333331,38.078444424484445L175,44.72506080887146L172.91666666666669,42.860699365181596L170.83333333333331,41.68449716110316L168.75,50.5087087063917L166.66666666666669,40.69341693871786L164.58333333333331,50.520168963287574L162.5,41.9534963821726L160.41666666666669,46.60019732213445L158.33333333333331,37.11975593385952L156.25,38.344661319362274L154.16666666666669,43.14193549965108L152.08333333333331,35.07791434281637L150,38.93734336431536L147.91666666666669,43.74894827072111L145.83333333333331,40.60696858380521L143.75,55.57861093963896L141.66666666666669,40.31653896506342L139.58333333333331,47.28723232235228L137.5,53.99667639285326L135.41666666666669,44.59061441676959L133.33333333333331,37.83331367054157L131.25,31.865619801517056L129.16666666666669,45.522309520414915L127.08333333333333,39.0666990807014L125,44.56959646195173L122.91666666666667,36.97680290788412L120.83333333333333,45.285437602017595L118.75,32.912013932530385L116.66666666666667,38.34556270656844L114.58333333333333,37.79918901356203L112.5,50.16580903902648L110.41666666666667,51.32792332608784L108.33333333333333,39.27339448460512L106.25,38.647415994533475L104.16666666666667,41.916444711387136L102.08333333333333,47.95615808772189L100,52.06340872017401L97.91666666666666,42.22495695576072L95.83333333333334,47.65318721266729L93.75,38.927431431199835L91.66666666666666,38.01695717764753L89.58333333333334,53.15671323665552L87.5,43.86071030582701L85.41666666666666,36.447841620871L83.33333333333334,29.88274423405528L81.25,32.87980846528495L79.16666666666666,43.0263966188899L77.08333333333334,53.00276062584351L75,48.48066898328918L72.91666666666666,44.02169107592533L70.83333333333334,29.365998240453848L68.75,46.98464395478366L66.66666666666666,36.07724508536714L64.58333333333334,45.063691360077705L62.5,40.65602932657515L60.416666666666664,49.376140628010035L58.333333333333336,48.17941107654147L56.25,47.6478670324598L54.166666666666664,39.59617758435863L52.083333333333336,32.94164495808738L50,32.59425165929963L47.91666666666667,42.753840078200625L45.83333333333333,47.69349851246392L43.75,43.24455394276552L41.66666666666667,41.73077058845334L39.58333333333333,38.245866288031834L37.5,36.04182156601124L35.41666666666667,49.9656212516129L33.33333333333333,37.64142795865024L31.25,25.10085184393185L29.166666666666668,42.45124006909986L27.083333333333332,47.32010800923621L25,29.230914890233976L22.916666666666664,40.25968504803521L20.833333333333336,50.73563875630498L18.75,49.14246181558286L16.666666666666664,39.489537823413116L14.583333333333334,44.83542419703943L12.5,55.78164092398114L10.416666666666668,38.221083129090935L8.333333333333332,51.73366232109922L6.25,41.22778322281584L4.166666666666666,41.304055215524784L2.083333333333333,44.09770529185022L0,50.372160186192815Z" fill="#4c78a8" opacity="0.3"></path></g></g><path class="foreground" aria-hidden="true" d="" display="none"></path></g></g></g><path class="foreground" aria-hidden="true" d="" display="none"></path></g></g></g></svg>
