<?xml version="1.0" encoding="utf-8"?>
<!DOCTYPE svg PUBLIC "-//W3C//DTD SVG 1.1//EN" "http://www.w3.org/Graphics/SVG/1.1/DTD/svg11.dtd">
<svg class="marks" width="252" height="210" viewBox="0 0 252 210" version="1.1" xmlns="http://www.w3.org/2000/svg" xmlns:xlink="http://www.w3.org/1999/xlink"><rect width="252" height="210" fill="white"></rect><g fill="none" stroke-miterlimit="10" transform="translate(61,5)"><g class="mark-group role-frame root" role="graphics-object" aria-roledescription="group mark container"><g transform="translate(0,0)"><path class="background" aria-hidden="true" d="M0.5,0.5h186v183h-186Z" stroke="#ddd"></path><g><g class="mark-group role-axis" aria-hidden="true"><g transform="translate(0.5,0.5)"><path class="background" aria-hidden="true" d="M0,0h0v0h0Z" pointer-events="none"></path><g><g class="mark-rule role-axis-grid" pointer-events="none"><line transform="translate(0,156)" x2="186" y2="0" stroke="#ddd" stroke-width="1" opacity="1"></line><line transform="translate(0,110)" x2="186" y2="0" stroke="#ddd" stroke-width="1" opacity="1"></line><line transform="translate(0,64)" x2="186" y2="0" stroke="#ddd" stroke-width="1" opacity="1"></line><line transform="translate(0,18)" x2="186" y2="0" stroke="#ddd" stroke-width="1" opacity="1"></line></g></g><path class="foreground" aria-hidden="true" d="" pointer-events="none" display="none"></path></g></g><g class="mark-group role-axis" role="graphics-symbol" aria-roledescription="axis" aria-label="X-axis for a discrete scale with 3 values: global, object, spatial"><g transform="translate(0.5,183.5)"><path class="background" aria-hidden="true" d="M0,0h0v0h0Z" pointer-events="none"></path><g><g class="mark-rule role-axis-tick" pointer-events="none"><line transform="translate(31,0)" x2="0" y2="5" stroke="#888" stroke-width="1" opacity="1"></line><line transform="translate(93,0)" x2="0" y2="5" stroke="#888" stroke-width="1" opacity="1"></line><line transform="translate(155,0)" x2="0" y2="5" stroke="#888" stroke-width="1" opacity="1"></line></g><g class="mark-text role-axis-label" pointer-events="none"><text text-anchor="middle" transform="translate(30.5,15)" font-family="sans-serif" font-size="10px" fill="#000" opacity="1">Global</text><text text-anchor="middle" transform="translate(92.5,15)" font-family="sans-serif" font-size="10px" fill="#000" opacity="1">Object</text><text text-anchor="middle" transform="translate(154.5,15)" font-family="sans-serif" font-size="10px" fill="#000" opacity="1">Spatial</text></g><g class="mark-rule role-axis-domain" pointer-events="none"><line transform="translate(0,0)" x2="186" y2="0" stroke="#888" stroke-width="1" opacity="1"></line></g></g><path class="foreground" aria-hidden="true" d="" pointer-events="none" display="none"></path></g></g><g class="mark-group role-axis" role="graphics-symbol" aria-roledescription="axis" aria-label="Y-axis titled 'Decoder Correlation (Envelope &amp; Pitch Surprisal)' for a linear scale with values from 0.22 to 0.42"><g transform="translate(0.5,0.5)"><path class="background" aria-hidden="true" d="M0,0h0v0h0Z" pointer-events="none"></path><g><g class="mark-rule role-axis-tick" pointer-events="none"><line transform="translate(0,156)" x2="-5" y2="0" stroke="#888" stroke-width="1" opacity="1"></line><line transform="translate(0,110)" x2="-5" y2="0" stroke="#888" stroke-width="1" opacity="1"></line><line transform="translate(0,64)" x2="-5" y2="0" stroke="#888" stroke-width="1" opacity="1"></line><line transform="translate(0,18)" x2="-5" y2="0" stroke="#888" stroke-width="1" opacity="1"></line></g><g class="mark-text role-axis-label" pointer-events="none"><text text-anchor="end" transform="translate(-7,158.54999999999998)" font-family="sans-serif" font-size="10px" fill="#000" opacity="1">0.25</text><text text-anchor="end" transform="translate(-7,112.80000000000001)" font-family="sans-serif" font-size="10px" fill="#000" opacity="1">0.30</text><text text-anchor="end" transform="translate(-7,67.05000000000001)" font-family="sans-serif" font-size="10px" fill="#000" opacity="1">0.35</text><text text-anchor="end" transform="translate(-7,21.299999999999976)" font-family="sans-serif" font-size="10px" fill="#000" opacity="1">0.40</text></g><g class="mark-rule role-axis-domain" pointer-events="none"><line transform="translate(0,183)" x2="0" y2="-183" stroke="#888" stroke-width="1" opacity="1"></line></g><g class="mark-text role-axis-title" pointer-events="none"><text text-anchor="middle" transform="translate(-45,91.5) rotate(-90) translate(0,-2)" font-family="sans-serif" font-size="11px" font-weight="bold" fill="#000" opacity="1"><tspan>Decoder Correlation</tspan><tspan x="0" dy="13">(Envelope &amp; Pitch Surprisal)</tspan></text></g></g><path class="foreground" aria-hidden="true" d="" pointer-events="none" display="none"></path></g></g><g class="mark-symbol role-mark layer_0_marks" role="graphics-object" aria-roledescription="symbol mark container"><path aria-label="is_target_source: true; : global; Mean of value: 0.345192547479" role="graphics-symbol" aria-roledescription="point" transform="translate(16,68.44881905706198)" d="M2.7386127875258306,0A2.7386127875258306,2.7386127875258306,0,1,1,-2.7386127875258306,0A2.7386127875258306,2.7386127875258306,0,1,1,2.7386127875258306,0" stroke="#EB9A60" stroke-width="2"></path><path aria-label="is_target_source: true; : object; Mean of value: 0.346365609217" role="graphics-symbol" aria-roledescription="point" transform="translate(78,67.37546756680969)" d="M2.7386127875258306,0A2.7386127875258306,2.7386127875258306,0,1,1,-2.7386127875258306,0A2.7386127875258306,2.7386127875258306,0,1,1,2.7386127875258306,0" stroke="#EB9A60" stroke-width="2"></path><path aria-label="is_target_source: true; : spatial; Mean of value: 0.342151236461" role="graphics-symbol" aria-roledescription="point" transform="translate(140,71.23161863845472)" d="M2.7386127875258306,0A2.7386127875258306,2.7386127875258306,0,1,1,-2.7386127875258306,0A2.7386127875258306,2.7386127875258306,0,1,1,2.7386127875258306,0" stroke="#EB9A60" stroke-width="2"></path></g><g class="mark-symbol role-mark layer_1_marks" role="graphics-object" aria-roledescription="symbol mark container"><path aria-label="is_target_source: true; : global; Decoder Correlation, (Envelope &amp; Pitch Surprisal): 0.33205221672" role="graphics-symbol" aria-roledescription="point" transform="translate(25,80.47222170124606)" d="M2.7386127875258306,0A2.7386127875258306,2.7386127875258306,0,1,1,-2.7386127875258306,0A2.7386127875258306,2.7386127875258306,0,1,1,2.7386127875258306,0" fill="#EB9A60" stroke-width="2" opacity="0.7"></path><path aria-label="is_target_source: true; : object; Decoder Correlation, (Envelope &amp; Pitch Surprisal): 0.367378276421" role="graphics-symbol" aria-roledescription="point" transform="translate(87,48.148877074876765)" d="M2.7386127875258306,0A2.7386127875258306,2.7386127875258306,0,1,1,-2.7386127875258306,0A2.7386127875258306,2.7386127875258306,0,1,1,2.7386127875258306,0" fill="#EB9A60" stroke-width="2" opacity="0.7"></path><path aria-label="is_target_source: true; : spatial; Decoder Correlation, (Envelope &amp; Pitch Surprisal): 0.332399259768" role="graphics-symbol" aria-roledescription="point" transform="translate(149,80.15467731189437)" d="M2.7386127875258306,0A2.7386127875258306,2.7386127875258306,0,1,1,-2.7386127875258306,0A2.7386127875258306,2.7386127875258306,0,1,1,2.7386127875258306,0" fill="#EB9A60" stroke-width="2" opacity="0.7"></path><path aria-label="is_target_source: true; : global; Decoder Correlation, (Envelope &amp; Pitch Surprisal): 0.352013298218" role="graphics-symbol" aria-roledescription="point" transform="translate(25,62.20783213076092)" d="M2.7386127875258306,0A2.7386127875258306,2.7386127875258306,0,1,1,-2.7386127875258306,0A2.7386127875258306,2.7386127875258306,0,1,1,2.7386127875258306,0" fill="#EB9A60" stroke-width="2" opacity="0.7"></path><path aria-label="is_target_source: true; : object; Decoder Correlation, (Envelope &amp; Pitch Surprisal): 0.330232451761" role="graphics-symbol" aria-roledescription="point" transform="translate(87,82.13730663850765)" d="M2.7386127875258306,0A2.7386127875258306,2.7386127875258306,0,1,1,-2.7386127875258306,0A2.7386127875258306,2.7386127875258306,0,1,1,2.7386127875258306,0" fill="#EB9A60" stroke-width="2" opacity="0.7"></path><path aria-label="is_target_source: true; : spatial; Decoder Correlation, (Envelope &amp; Pitch Surprisal): 0.330610370168" role="graphics-symbol" aria-roledescription="point" transform="translate(149,81.7915112959912)" d="M2.7386127875258306,0A2.7386127875258306,2.7386127875258306,0,1,1,-2.7386127875258306,0A2.7386127875258306,2.7386127875258306,0,1,1,2.7386127875258306,0" fill="#EB9A60" stroke-width="2" opacity="0.7"></path><path aria-label="is_target_source: true; : global; Decoder Correlation, (Envelope &amp; Pitch Surprisal): 0.342115936448" role="graphics-symbol" aria-roledescription="point" transform="translate(25,71.2639181503102)" d="M2.7386127875258306,0A2.7386127875258306,2.7386127875258306,0,1,1,-2.7386127875258306,0A2.7386127875258306,2.7386127875258306,0,1,1,2.7386127875258306,0" fill="#EB9A60" stroke-width="2" opacity="0.7"></path><path aria-label="is_target_source: true; : object; Decoder Correlation, (Envelope &amp; Pitch Surprisal): 0.365148575649" role="graphics-symbol" aria-roledescription="point" transform="translate(87,50.18905328148661)" d="M2.7386127875258306,0A2.7386127875258306,2.7386127875258306,0,1,1,-2.7386127875258306,0A2.7386127875258306,2.7386127875258306,0,1,1,2.7386127875258306,0" fill="#EB9A60" stroke-width="2" opacity="0.7"></path><path aria-label="is_target_source: true; : spatial; Decoder Correlation, (Envelope &amp; Pitch Surprisal): 0.400800132457" role="graphics-symbol" aria-roledescription="point" transform="translate(149,17.567878801655162)" d="M2.7386127875258306,0A2.7386127875258306,2.7386127875258306,0,1,1,-2.7386127875258306,0A2.7386127875258306,2.7386127875258306,0,1,1,2.7386127875258306,0" fill="#EB9A60" stroke-width="2" opacity="0.7"></path><path aria-label="is_target_source: true; : global; Decoder Correlation, (Envelope &amp; Pitch Surprisal): 0.341614930212" role="graphics-symbol" aria-roledescription="point" transform="translate(25,71.72233885639773)" d="M2.7386127875258306,0A2.7386127875258306,2.7386127875258306,0,1,1,-2.7386127875258306,0A2.7386127875258306,2.7386127875258306,0,1,1,2.7386127875258306,0" fill="#EB9A60" stroke-width="2" opacity="0.7"></path><path aria-label="is_target_source: true; : object; Decoder Correlation, (Envelope &amp; Pitch Surprisal): 0.326451060697" role="graphics-symbol" aria-roledescription="point" transform="translate(87,85.59727946235945)" d="M2.7386127875258306,0A2.7386127875258306,2.7386127875258306,0,1,1,-2.7386127875258306,0A2.7386127875258306,2.7386127875258306,0,1,1,2.7386127875258306,0" fill="#EB9A60" stroke-width="2" opacity="0.7"></path><path aria-label="is_target_source: true; : spatial; Decoder Correlation, (Envelope &amp; Pitch Surprisal): 0.346054043863" role="graphics-symbol" aria-roledescription="point" transform="translate(149,67.66054986535156)" d="M2.7386127875258306,0A2.7386127875258306,2.7386127875258306,0,1,1,-2.7386127875258306,0A2.7386127875258306,2.7386127875258306,0,1,1,2.7386127875258306,0" fill="#EB9A60" stroke-width="2" opacity="0.7"></path><path aria-label="is_target_source: true; : global; Decoder Correlation, (Envelope &amp; Pitch Surprisal): 0.348372606038" role="graphics-symbol" aria-roledescription="point" transform="translate(25,65.53906547494107)" d="M2.7386127875258306,0A2.7386127875258306,2.7386127875258306,0,1,1,-2.7386127875258306,0A2.7386127875258306,2.7386127875258306,0,1,1,2.7386127875258306,0" fill="#EB9A60" stroke-width="2" opacity="0.7"></path><path aria-label="is_target_source: true; : object; Decoder Correlation, (Envelope &amp; Pitch Surprisal): 0.359930360224" role="graphics-symbol" aria-roledescription="point" transform="translate(87,54.96372039470588)" d="M2.7386127875258306,0A2.7386127875258306,2.7386127875258306,0,1,1,-2.7386127875258306,0A2.7386127875258306,2.7386127875258306,0,1,1,2.7386127875258306,0" fill="#EB9A60" stroke-width="2" opacity="0.7"></path><path aria-label="is_target_source: true; : spatial; Decoder Correlation, (Envelope &amp; Pitch Surprisal): 0.246930729377" role="graphics-symbol" aria-roledescription="point" transform="translate(149,158.35838262015776)" d="M2.7386127875258306,0A2.7386127875258306,2.7386127875258306,0,1,1,-2.7386127875258306,0A2.7386127875258306,2.7386127875258306,0,1,1,2.7386127875258306,0" fill="#EB9A60" stroke-width="2" opacity="0.7"></path><path aria-label="is_target_source: true; : global; Decoder Correlation, (Envelope &amp; Pitch Surprisal): 0.338823448512" role="graphics-symbol" aria-roledescription="point" transform="translate(25,74.27654461159368)" d="M2.7386127875258306,0A2.7386127875258306,2.7386127875258306,0,1,1,-2.7386127875258306,0A2.7386127875258306,2.7386127875258306,0,1,1,2.7386127875258306,0" fill="#EB9A60" stroke-width="2" opacity="0.7"></path><path aria-label="is_target_source: true; : object; Decoder Correlation, (Envelope &amp; Pitch Surprisal): 0.3744105332" role="graphics-symbol" aria-roledescription="point" transform="translate(87,41.714362122397034)" d="M2.7386127875258306,0A2.7386127875258306,2.7386127875258306,0,1,1,-2.7386127875258306,0A2.7386127875258306,2.7386127875258306,0,1,1,2.7386127875258306,0" fill="#EB9A60" stroke-width="2" opacity="0.7"></path><path aria-label="is_target_source: true; : spatial; Decoder Correlation, (Envelope &amp; Pitch Surprisal): 0.39111965478" role="graphics-symbol" aria-roledescription="point" transform="translate(149,26.425515876460608)" d="M2.7386127875258306,0A2.7386127875258306,2.7386127875258306,0,1,1,-2.7386127875258306,0A2.7386127875258306,2.7386127875258306,0,1,1,2.7386127875258306,0" fill="#EB9A60" stroke-width="2" opacity="0.7"></path><path aria-label="is_target_source: true; : global; Decoder Correlation, (Envelope &amp; Pitch Surprisal): 0.324952648254" role="graphics-symbol" aria-roledescription="point" transform="translate(25,86.9683268471826)" d="M2.7386127875258306,0A2.7386127875258306,2.7386127875258306,0,1,1,-2.7386127875258306,0A2.7386127875258306,2.7386127875258306,0,1,1,2.7386127875258306,0" fill="#EB9A60" stroke-width="2" opacity="0.7"></path><path aria-label="is_target_source: true; : object; Decoder Correlation, (Envelope &amp; Pitch Surprisal): 0.350998324593" role="graphics-symbol" aria-roledescription="point" transform="translate(87,63.13653299707499)" d="M2.7386127875258306,0A2.7386127875258306,2.7386127875258306,0,1,1,-2.7386127875258306,0A2.7386127875258306,2.7386127875258306,0,1,1,2.7386127875258306,0" fill="#EB9A60" stroke-width="2" opacity="0.7"></path><path aria-label="is_target_source: true; : spatial; Decoder Correlation, (Envelope &amp; Pitch Surprisal): 0.345961795313" role="graphics-symbol" aria-roledescription="point" transform="translate(149,67.74495728896707)" d="M2.7386127875258306,0A2.7386127875258306,2.7386127875258306,0,1,1,-2.7386127875258306,0A2.7386127875258306,2.7386127875258306,0,1,1,2.7386127875258306,0" fill="#EB9A60" stroke-width="2" opacity="0.7"></path><path aria-label="is_target_source: true; : global; Decoder Correlation, (Envelope &amp; Pitch Surprisal): 0.349219064605" role="graphics-symbol" aria-roledescription="point" transform="translate(25,64.76455588598084)" d="M2.7386127875258306,0A2.7386127875258306,2.7386127875258306,0,1,1,-2.7386127875258306,0A2.7386127875258306,2.7386127875258306,0,1,1,2.7386127875258306,0" fill="#EB9A60" stroke-width="2" opacity="0.7"></path><path aria-label="is_target_source: true; : object; Decoder Correlation, (Envelope &amp; Pitch Surprisal): 0.338436179633" role="graphics-symbol" aria-roledescription="point" transform="translate(87,74.630895635449)" d="M2.7386127875258306,0A2.7386127875258306,2.7386127875258306,0,1,1,-2.7386127875258306,0A2.7386127875258306,2.7386127875258306,0,1,1,2.7386127875258306,0" fill="#EB9A60" stroke-width="2" opacity="0.7"></path><path aria-label="is_target_source: true; : spatial; Decoder Correlation, (Envelope &amp; Pitch Surprisal): 0.357462609628" role="graphics-symbol" aria-roledescription="point" transform="translate(149,57.22171218997438)" d="M2.7386127875258306,0A2.7386127875258306,2.7386127875258306,0,1,1,-2.7386127875258306,0A2.7386127875258306,2.7386127875258306,0,1,1,2.7386127875258306,0" fill="#EB9A60" stroke-width="2" opacity="0.7"></path><path aria-label="is_target_source: true; : global; Decoder Correlation, (Envelope &amp; Pitch Surprisal): 0.34458403954" role="graphics-symbol" aria-roledescription="point" transform="translate(25,69.00560382133585)" d="M2.7386127875258306,0A2.7386127875258306,2.7386127875258306,0,1,1,-2.7386127875258306,0A2.7386127875258306,2.7386127875258306,0,1,1,2.7386127875258306,0" fill="#EB9A60" stroke-width="2" opacity="0.7"></path><path aria-label="is_target_source: true; : object; Decoder Correlation, (Envelope &amp; Pitch Surprisal): 0.355172932174" role="graphics-symbol" aria-roledescription="point" transform="translate(87,59.31676706051583)" d="M2.7386127875258306,0A2.7386127875258306,2.7386127875258306,0,1,1,-2.7386127875258306,0A2.7386127875258306,2.7386127875258306,0,1,1,2.7386127875258306,0" fill="#EB9A60" stroke-width="2" opacity="0.7"></path><path aria-label="is_target_source: true; : spatial; Decoder Correlation, (Envelope &amp; Pitch Surprisal): 0.356556984635" role="graphics-symbol" aria-roledescription="point" transform="translate(149,58.05035905895319)" d="M2.7386127875258306,0A2.7386127875258306,2.7386127875258306,0,1,1,-2.7386127875258306,0A2.7386127875258306,2.7386127875258306,0,1,1,2.7386127875258306,0" fill="#EB9A60" stroke-width="2" opacity="0.7"></path><path aria-label="is_target_source: true; : global; Decoder Correlation, (Envelope &amp; Pitch Surprisal): 0.353529566258" role="graphics-symbol" aria-roledescription="point" transform="translate(25,60.820446873887505)" d="M2.7386127875258306,0A2.7386127875258306,2.7386127875258306,0,1,1,-2.7386127875258306,0A2.7386127875258306,2.7386127875258306,0,1,1,2.7386127875258306,0" fill="#EB9A60" stroke-width="2" opacity="0.7"></path><path aria-label="is_target_source: true; : object; Decoder Correlation, (Envelope &amp; Pitch Surprisal): 0.353637611153" role="graphics-symbol" aria-roledescription="point" transform="translate(87,60.721585795418925)" d="M2.7386127875258306,0A2.7386127875258306,2.7386127875258306,0,1,1,-2.7386127875258306,0A2.7386127875258306,2.7386127875258306,0,1,1,2.7386127875258306,0" fill="#EB9A60" stroke-width="2" opacity="0.7"></path><path aria-label="is_target_source: true; : spatial; Decoder Correlation, (Envelope &amp; Pitch Surprisal): 0.323266228649" role="graphics-symbol" aria-roledescription="point" transform="translate(149,88.51140078631676)" d="M2.7386127875258306,0A2.7386127875258306,2.7386127875258306,0,1,1,-2.7386127875258306,0A2.7386127875258306,2.7386127875258306,0,1,1,2.7386127875258306,0" fill="#EB9A60" stroke-width="2" opacity="0.7"></path><path aria-label="is_target_source: true; : global; Decoder Correlation, (Envelope &amp; Pitch Surprisal): 0.342111930493" role="graphics-symbol" aria-roledescription="point" transform="translate(25,71.26758359873206)" d="M2.7386127875258306,0A2.7386127875258306,2.7386127875258306,0,1,1,-2.7386127875258306,0A2.7386127875258306,2.7386127875258306,0,1,1,2.7386127875258306,0" fill="#EB9A60" stroke-width="2" opacity="0.7"></path><path aria-label="is_target_source: true; : object; Decoder Correlation, (Envelope &amp; Pitch Surprisal): 0.335721300551" role="graphics-symbol" aria-roledescription="point" transform="translate(87,77.11500999591848)" d="M2.7386127875258306,0A2.7386127875258306,2.7386127875258306,0,1,1,-2.7386127875258306,0A2.7386127875258306,2.7386127875258306,0,1,1,2.7386127875258306,0" fill="#EB9A60" stroke-width="2" opacity="0.7"></path><path aria-label="is_target_source: true; : spatial; Decoder Correlation, (Envelope &amp; Pitch Surprisal): 0.329873300092" role="graphics-symbol" aria-roledescription="point" transform="translate(149,82.4659304158906)" d="M2.7386127875258306,0A2.7386127875258306,2.7386127875258306,0,1,1,-2.7386127875258306,0A2.7386127875258306,2.7386127875258306,0,1,1,2.7386127875258306,0" fill="#EB9A60" stroke-width="2" opacity="0.7"></path><path aria-label="is_target_source: true; : global; Decoder Correlation, (Envelope &amp; Pitch Surprisal): 0.355627188007" role="graphics-symbol" aria-roledescription="point" transform="translate(25,58.901122973971574)" d="M2.7386127875258306,0A2.7386127875258306,2.7386127875258306,0,1,1,-2.7386127875258306,0A2.7386127875258306,2.7386127875258306,0,1,1,2.7386127875258306,0" fill="#EB9A60" stroke-width="2" opacity="0.7"></path><path aria-label="is_target_source: true; : object; Decoder Correlation, (Envelope &amp; Pitch Surprisal): 0.268305124639" role="graphics-symbol" aria-roledescription="point" transform="translate(87,138.80081095544006)" d="M2.7386127875258306,0A2.7386127875258306,2.7386127875258306,0,1,1,-2.7386127875258306,0A2.7386127875258306,2.7386127875258306,0,1,1,2.7386127875258306,0" fill="#EB9A60" stroke-width="2" opacity="0.7"></path><path aria-label="is_target_source: true; : spatial; Decoder Correlation, (Envelope &amp; Pitch Surprisal): 0.33244390455" role="graphics-symbol" aria-roledescription="point" transform="translate(149,80.11382733649334)" d="M2.7386127875258306,0A2.7386127875258306,2.7386127875258306,0,1,1,-2.7386127875258306,0A2.7386127875258306,2.7386127875258306,0,1,1,2.7386127875258306,0" fill="#EB9A60" stroke-width="2" opacity="0.7"></path><path aria-label="is_target_source: true; : global; Decoder Correlation, (Envelope &amp; Pitch Surprisal): 0.345009440655" role="graphics-symbol" aria-roledescription="point" transform="translate(25,68.61636180022228)" d="M2.7386127875258306,0A2.7386127875258306,2.7386127875258306,0,1,1,-2.7386127875258306,0A2.7386127875258306,2.7386127875258306,0,1,1,2.7386127875258306,0" fill="#EB9A60" stroke-width="2" opacity="0.7"></path><path aria-label="is_target_source: true; : object; Decoder Correlation, (Envelope &amp; Pitch Surprisal): 0.350469794122" role="graphics-symbol" aria-roledescription="point" transform="translate(87,63.620138378496236)" d="M2.7386127875258306,0A2.7386127875258306,2.7386127875258306,0,1,1,-2.7386127875258306,0A2.7386127875258306,2.7386127875258306,0,1,1,2.7386127875258306,0" fill="#EB9A60" stroke-width="2" opacity="0.7"></path><path aria-label="is_target_source: true; : spatial; Decoder Correlation, (Envelope &amp; Pitch Surprisal): 0.351081929467" role="graphics-symbol" aria-roledescription="point" transform="translate(149,63.06003453800066)" d="M2.7386127875258306,0A2.7386127875258306,2.7386127875258306,0,1,1,-2.7386127875258306,0A2.7386127875258306,2.7386127875258306,0,1,1,2.7386127875258306,0" fill="#EB9A60" stroke-width="2" opacity="0.7"></path><path aria-label="is_target_source: true; : global; Decoder Correlation, (Envelope &amp; Pitch Surprisal): 0.343964403737" role="graphics-symbol" aria-roledescription="point" transform="translate(25,69.57257058063881)" d="M2.7386127875258306,0A2.7386127875258306,2.7386127875258306,0,1,1,-2.7386127875258306,0A2.7386127875258306,2.7386127875258306,0,1,1,2.7386127875258306,0" fill="#EB9A60" stroke-width="2" opacity="0.7"></path><path aria-label="is_target_source: true; : object; Decoder Correlation, (Envelope &amp; Pitch Surprisal): 0.35718425944" role="graphics-symbol" aria-roledescription="point" transform="translate(87,57.476402612004335)" d="M2.7386127875258306,0A2.7386127875258306,2.7386127875258306,0,1,1,-2.7386127875258306,0A2.7386127875258306,2.7386127875258306,0,1,1,2.7386127875258306,0" fill="#EB9A60" stroke-width="2" opacity="0.7"></path><path aria-label="is_target_source: true; : spatial; Decoder Correlation, (Envelope &amp; Pitch Surprisal): 0.348522784745" role="graphics-symbol" aria-roledescription="point" transform="translate(149,65.40165195868443)" d="M2.7386127875258306,0A2.7386127875258306,2.7386127875258306,0,1,1,-2.7386127875258306,0A2.7386127875258306,2.7386127875258306,0,1,1,2.7386127875258306,0" fill="#EB9A60" stroke-width="2" opacity="0.7"></path><path aria-label="is_target_source: true; : global; Decoder Correlation, (Envelope &amp; Pitch Surprisal): 0.35060873378" role="graphics-symbol" aria-roledescription="point" transform="translate(25,63.493008591744726)" d="M2.7386127875258306,0A2.7386127875258306,2.7386127875258306,0,1,1,-2.7386127875258306,0A2.7386127875258306,2.7386127875258306,0,1,1,2.7386127875258306,0" fill="#EB9A60" stroke-width="2" opacity="0.7"></path><path aria-label="is_target_source: true; : object; Decoder Correlation, (Envelope &amp; Pitch Surprisal): 0.323397249571" role="graphics-symbol" aria-roledescription="point" transform="translate(87,88.3915166429273)" d="M2.7386127875258306,0A2.7386127875258306,2.7386127875258306,0,1,1,-2.7386127875258306,0A2.7386127875258306,2.7386127875258306,0,1,1,2.7386127875258306,0" fill="#EB9A60" stroke-width="2" opacity="0.7"></path><path aria-label="is_target_source: true; : spatial; Decoder Correlation, (Envelope &amp; Pitch Surprisal): 0.342058334952" role="graphics-symbol" aria-roledescription="point" transform="translate(149,71.31662351848962)" d="M2.7386127875258306,0A2.7386127875258306,2.7386127875258306,0,1,1,-2.7386127875258306,0A2.7386127875258306,2.7386127875258306,0,1,1,2.7386127875258306,0" fill="#EB9A60" stroke-width="2" opacity="0.7"></path><path aria-label="is_target_source: true; : global; Decoder Correlation, (Envelope &amp; Pitch Surprisal): 0.357623151514" role="graphics-symbol" aria-roledescription="point" transform="translate(25,57.07481636435585)" d="M2.7386127875258306,0A2.7386127875258306,2.7386127875258306,0,1,1,-2.7386127875258306,0A2.7386127875258306,2.7386127875258306,0,1,1,2.7386127875258306,0" fill="#EB9A60" stroke-width="2" opacity="0.7"></path><path aria-label="is_target_source: true; : object; Decoder Correlation, (Envelope &amp; Pitch Surprisal): 0.313031205735" role="graphics-symbol" aria-roledescription="point" transform="translate(87,97.8764467528569)" d="M2.7386127875258306,0A2.7386127875258306,2.7386127875258306,0,1,1,-2.7386127875258306,0A2.7386127875258306,2.7386127875258306,0,1,1,2.7386127875258306,0" fill="#EB9A60" stroke-width="2" opacity="0.7"></path><path aria-label="is_target_source: true; : spatial; Decoder Correlation, (Envelope &amp; Pitch Surprisal): 0.380960040469" role="graphics-symbol" aria-roledescription="point" transform="translate(149,35.721562971078626)" d="M2.7386127875258306,0A2.7386127875258306,2.7386127875258306,0,1,1,-2.7386127875258306,0A2.7386127875258306,2.7386127875258306,0,1,1,2.7386127875258306,0" fill="#EB9A60" stroke-width="2" opacity="0.7"></path><path aria-label="is_target_source: true; : global; Decoder Correlation, (Envelope &amp; Pitch Surprisal): 0.333923568244" role="graphics-symbol" aria-roledescription="point" transform="translate(25,78.7599350569353)" d="M2.7386127875258306,0A2.7386127875258306,2.7386127875258306,0,1,1,-2.7386127875258306,0A2.7386127875258306,2.7386127875258306,0,1,1,2.7386127875258306,0" fill="#EB9A60" stroke-width="2" opacity="0.7"></path><path aria-label="is_target_source: true; : object; Decoder Correlation, (Envelope &amp; Pitch Surprisal): 0.41079309281" role="graphics-symbol" aria-roledescription="point" transform="translate(87,8.424320078854889)" d="M2.7386127875258306,0A2.7386127875258306,2.7386127875258306,0,1,1,-2.7386127875258306,0A2.7386127875258306,2.7386127875258306,0,1,1,2.7386127875258306,0" fill="#EB9A60" stroke-width="2" opacity="0.7"></path><path aria-label="is_target_source: true; : spatial; Decoder Correlation, (Envelope &amp; Pitch Surprisal): 0.32508678985" role="graphics-symbol" aria-roledescription="point" transform="translate(149,86.84558728725675)" d="M2.7386127875258306,0A2.7386127875258306,2.7386127875258306,0,1,1,-2.7386127875258306,0A2.7386127875258306,2.7386127875258306,0,1,1,2.7386127875258306,0" fill="#EB9A60" stroke-width="2" opacity="0.7"></path><path aria-label="is_target_source: true; : global; Decoder Correlation, (Envelope &amp; Pitch Surprisal): 0.353860947939" role="graphics-symbol" aria-roledescription="point" transform="translate(25,60.51723263560916)" d="M2.7386127875258306,0A2.7386127875258306,2.7386127875258306,0,1,1,-2.7386127875258306,0A2.7386127875258306,2.7386127875258306,0,1,1,2.7386127875258306,0" fill="#EB9A60" stroke-width="2" opacity="0.7"></path><path aria-label="is_target_source: true; : object; Decoder Correlation, (Envelope &amp; Pitch Surprisal): 0.330283082656" role="graphics-symbol" aria-roledescription="point" transform="translate(87,82.09097936935956)" d="M2.7386127875258306,0A2.7386127875258306,2.7386127875258306,0,1,1,-2.7386127875258306,0A2.7386127875258306,2.7386127875258306,0,1,1,2.7386127875258306,0" fill="#EB9A60" stroke-width="2" opacity="0.7"></path><path aria-label="is_target_source: true; : spatial; Decoder Correlation, (Envelope &amp; Pitch Surprisal): 0.279707504015" role="graphics-symbol" aria-roledescription="point" transform="translate(149,128.36763382590527)" d="M2.7386127875258306,0A2.7386127875258306,2.7386127875258306,0,1,1,-2.7386127875258306,0A2.7386127875258306,2.7386127875258306,0,1,1,2.7386127875258306,0" fill="#EB9A60" stroke-width="2" opacity="0.7"></path><path aria-label="is_target_source: true; : global; Decoder Correlation, (Envelope &amp; Pitch Surprisal): 0.349351262699" role="graphics-symbol" aria-roledescription="point" transform="translate(25,64.64359463078596)" d="M2.7386127875258306,0A2.7386127875258306,2.7386127875258306,0,1,1,-2.7386127875258306,0A2.7386127875258306,2.7386127875258306,0,1,1,2.7386127875258306,0" fill="#EB9A60" stroke-width="2" opacity="0.7"></path><path aria-label="is_target_source: true; : object; Decoder Correlation, (Envelope &amp; Pitch Surprisal): 0.346527738186" role="graphics-symbol" aria-roledescription="point" transform="translate(87,67.22711955944797)" d="M2.7386127875258306,0A2.7386127875258306,2.7386127875258306,0,1,1,-2.7386127875258306,0A2.7386127875258306,2.7386127875258306,0,1,1,2.7386127875258306,0" fill="#EB9A60" stroke-width="2" opacity="0.7"></path><path aria-label="is_target_source: true; : spatial; Decoder Correlation, (Envelope &amp; Pitch Surprisal): 0.340837003154" role="graphics-symbol" aria-roledescription="point" transform="translate(149,72.43414211431819)" d="M2.7386127875258306,0A2.7386127875258306,2.7386127875258306,0,1,1,-2.7386127875258306,0A2.7386127875258306,2.7386127875258306,0,1,1,2.7386127875258306,0" fill="#EB9A60" stroke-width="2" opacity="0.7"></path><path aria-label="is_target_source: true; : global; Decoder Correlation, (Envelope &amp; Pitch Surprisal): 0.343092865855" role="graphics-symbol" aria-roledescription="point" transform="translate(25,70.3700277426295)" d="M2.7386127875258306,0A2.7386127875258306,2.7386127875258306,0,1,1,-2.7386127875258306,0A2.7386127875258306,2.7386127875258306,0,1,1,2.7386127875258306,0" fill="#EB9A60" stroke-width="2" opacity="0.7"></path><path aria-label="is_target_source: true; : object; Decoder Correlation, (Envelope &amp; Pitch Surprisal): 0.378441397117" role="graphics-symbol" aria-roledescription="point" transform="translate(87,38.02612163817789)" d="M2.7386127875258306,0A2.7386127875258306,2.7386127875258306,0,1,1,-2.7386127875258306,0A2.7386127875258306,2.7386127875258306,0,1,1,2.7386127875258306,0" fill="#EB9A60" stroke-width="2" opacity="0.7"></path><path aria-label="is_target_source: true; : global; Decoder Correlation, (Envelope &amp; Pitch Surprisal): 0.347803383354" role="graphics-symbol" aria-roledescription="point" transform="translate(25,66.05990423128898)" d="M2.7386127875258306,0A2.7386127875258306,2.7386127875258306,0,1,1,-2.7386127875258306,0A2.7386127875258306,2.7386127875258306,0,1,1,2.7386127875258306,0" fill="#EB9A60" stroke-width="2" opacity="0.7"></path><path aria-label="is_target_source: true; : object; Decoder Correlation, (Envelope &amp; Pitch Surprisal): 0.337507950672" role="graphics-symbol" aria-roledescription="point" transform="translate(87,75.48022513474086)" d="M2.7386127875258306,0A2.7386127875258306,2.7386127875258306,0,1,1,-2.7386127875258306,0A2.7386127875258306,2.7386127875258306,0,1,1,2.7386127875258306,0" fill="#EB9A60" stroke-width="2" opacity="0.7"></path><path aria-label="is_target_source: true; : spatial; Decoder Correlation, (Envelope &amp; Pitch Surprisal): 0.341565373876" role="graphics-symbol" aria-roledescription="point" transform="translate(149,71.76768290376359)" d="M2.7386127875258306,0A2.7386127875258306,2.7386127875258306,0,1,1,-2.7386127875258306,0A2.7386127875258306,2.7386127875258306,0,1,1,2.7386127875258306,0" fill="#EB9A60" stroke-width="2" opacity="0.7"></path><path aria-label="is_target_source: true; : spatial; Decoder Correlation, (Envelope &amp; Pitch Surprisal): 0.323038257942" role="graphics-symbol" aria-roledescription="point" transform="translate(149,88.71999398325607)" d="M2.7386127875258306,0A2.7386127875258306,2.7386127875258306,0,1,1,-2.7386127875258306,0A2.7386127875258306,2.7386127875258306,0,1,1,2.7386127875258306,0" fill="#EB9A60" stroke-width="2" opacity="0.7"></path><path aria-label="is_target_source: true; : global; Decoder Correlation, (Envelope &amp; Pitch Surprisal): 0.338045911086" role="graphics-symbol" aria-roledescription="point" transform="translate(25,74.98799135671896)" d="M2.7386127875258306,0A2.7386127875258306,2.7386127875258306,0,1,1,-2.7386127875258306,0A2.7386127875258306,2.7386127875258306,0,1,1,2.7386127875258306,0" fill="#EB9A60" stroke-width="2" opacity="0.7"></path><path aria-label="is_target_source: true; : object; Decoder Correlation, (Envelope &amp; Pitch Surprisal): 0.318724564893" role="graphics-symbol" aria-roledescription="point" transform="translate(87,92.6670231228501)" d="M2.7386127875258306,0A2.7386127875258306,2.7386127875258306,0,1,1,-2.7386127875258306,0A2.7386127875258306,2.7386127875258306,0,1,1,2.7386127875258306,0" fill="#EB9A60" stroke-width="2" opacity="0.7"></path><path aria-label="is_target_source: true; : spatial; Decoder Correlation, (Envelope &amp; Pitch Surprisal): 0.349307257411" role="graphics-symbol" aria-roledescription="point" transform="translate(149,64.68385946909459)" d="M2.7386127875258306,0A2.7386127875258306,2.7386127875258306,0,1,1,-2.7386127875258306,0A2.7386127875258306,2.7386127875258306,0,1,1,2.7386127875258306,0" fill="#EB9A60" stroke-width="2" opacity="0.7"></path><path aria-label="is_target_source: true; : global; Decoder Correlation, (Envelope &amp; Pitch Surprisal): 0.359749218274" role="graphics-symbol" aria-roledescription="point" transform="translate(25,55.12946527940232)" d="M2.7386127875258306,0A2.7386127875258306,2.7386127875258306,0,1,1,-2.7386127875258306,0A2.7386127875258306,2.7386127875258306,0,1,1,2.7386127875258306,0" fill="#EB9A60" stroke-width="2" opacity="0.7"></path><path aria-label="is_target_source: true; : object; Decoder Correlation, (Envelope &amp; Pitch Surprisal): 0.364782357942" role="graphics-symbol" aria-roledescription="point" transform="translate(87,50.524142483415204)" d="M2.7386127875258306,0A2.7386127875258306,2.7386127875258306,0,1,1,-2.7386127875258306,0A2.7386127875258306,2.7386127875258306,0,1,1,2.7386127875258306,0" fill="#EB9A60" stroke-width="2" opacity="0.7"></path><path aria-label="is_target_source: true; : spatial; Decoder Correlation, (Envelope &amp; Pitch Surprisal): 0.384908151287" role="graphics-symbol" aria-roledescription="point" transform="translate(149,32.1090415727067)" d="M2.7386127875258306,0A2.7386127875258306,2.7386127875258306,0,1,1,-2.7386127875258306,0A2.7386127875258306,2.7386127875258306,0,1,1,2.7386127875258306,0" fill="#EB9A60" stroke-width="2" opacity="0.7"></path><path aria-label="is_target_source: true; : global; Decoder Correlation, (Envelope &amp; Pitch Surprisal): 0.336571379046" role="graphics-symbol" aria-roledescription="point" transform="translate(25,76.33718817281614)" d="M2.7386127875258306,0A2.7386127875258306,2.7386127875258306,0,1,1,-2.7386127875258306,0A2.7386127875258306,2.7386127875258306,0,1,1,2.7386127875258306,0" fill="#EB9A60" stroke-width="2" opacity="0.7"></path><path aria-label="is_target_source: true; : object; Decoder Correlation, (Envelope &amp; Pitch Surprisal): 0.355809197359" role="graphics-symbol" aria-roledescription="point" transform="translate(87,58.73458441614983)" d="M2.7386127875258306,0A2.7386127875258306,2.7386127875258306,0,1,1,-2.7386127875258306,0A2.7386127875258306,2.7386127875258306,0,1,1,2.7386127875258306,0" fill="#EB9A60" stroke-width="2" opacity="0.7"></path><path aria-label="is_target_source: true; : spatial; Decoder Correlation, (Envelope &amp; Pitch Surprisal): 0.35107723461" role="graphics-symbol" aria-roledescription="point" transform="translate(149,63.06433033225266)" d="M2.7386127875258306,0A2.7386127875258306,2.7386127875258306,0,1,1,-2.7386127875258306,0A2.7386127875258306,2.7386127875258306,0,1,1,2.7386127875258306,0" fill="#EB9A60" stroke-width="2" opacity="0.7"></path></g><g class="mark-symbol role-mark layer_2_marks" role="graphics-object" aria-roledescription="symbol mark container"><path aria-label="is_target_source: false; : global; Mean of value: 0.275068771333" role="graphics-symbol" aria-roledescription="point" transform="translate(46,132.61207423064585)" d="M2.7386127875258306,0A2.7386127875258306,2.7386127875258306,0,1,1,-2.7386127875258306,0A2.7386127875258306,2.7386127875258306,0,1,1,2.7386127875258306,0" stroke="#0F3C5F" stroke-width="2"></path><path aria-label="is_target_source: false; : spatial; Mean of value: 0.284639140322" role="graphics-symbol" aria-roledescription="point" transform="translate(170,123.8551866053162)" d="M2.7386127875258306,0A2.7386127875258306,2.7386127875258306,0,1,1,-2.7386127875258306,0A2.7386127875258306,2.7386127875258306,0,1,1,2.7386127875258306,0" stroke="#0F3C5F" stroke-width="2"></path><path aria-label="is_target_source: false; : object; Mean of value: 0.241161034746" role="graphics-symbol" aria-roledescription="point" transform="translate(108,163.63765320734507)" d="M2.7386127875258306,0A2.7386127875258306,2.7386127875258306,0,1,1,-2.7386127875258306,0A2.7386127875258306,2.7386127875258306,0,1,1,2.7386127875258306,0" stroke="#0F3C5F" stroke-width="2"></path></g><g class="mark-symbol role-mark layer_3_marks" role="graphics-object" aria-roledescription="symbol mark container"><path aria-label="is_target_source: false; : global; Decoder Correlation, (Envelope &amp; Pitch Surprisal): 0.278022003831" role="graphics-symbol" aria-roledescription="point" transform="translate(37,129.9098664943701)" d="M2.7386127875258306,0A2.7386127875258306,2.7386127875258306,0,1,1,-2.7386127875258306,0A2.7386127875258306,2.7386127875258306,0,1,1,2.7386127875258306,0" fill="#0F3C5F" stroke-width="2" opacity="0.7"></path><path aria-label="is_target_source: false; : spatial; Decoder Correlation, (Envelope &amp; Pitch Surprisal): 0.295156127837" role="graphics-symbol" aria-roledescription="point" transform="translate(161,114.23214302881702)" d="M2.7386127875258306,0A2.7386127875258306,2.7386127875258306,0,1,1,-2.7386127875258306,0A2.7386127875258306,2.7386127875258306,0,1,1,2.7386127875258306,0" fill="#0F3C5F" stroke-width="2" opacity="0.7"></path><path aria-label="is_target_source: false; : global; Decoder Correlation, (Envelope &amp; Pitch Surprisal): 0.288384027083" role="graphics-symbol" aria-roledescription="point" transform="translate(37,120.42861521915283)" d="M2.7386127875258306,0A2.7386127875258306,2.7386127875258306,0,1,1,-2.7386127875258306,0A2.7386127875258306,2.7386127875258306,0,1,1,2.7386127875258306,0" fill="#0F3C5F" stroke-width="2" opacity="0.7"></path><path aria-label="is_target_source: false; : spatial; Decoder Correlation, (Envelope &amp; Pitch Surprisal): 0.29735702454" role="graphics-symbol" aria-roledescription="point" transform="translate(161,112.21832254555495)" d="M2.7386127875258306,0A2.7386127875258306,2.7386127875258306,0,1,1,-2.7386127875258306,0A2.7386127875258306,2.7386127875258306,0,1,1,2.7386127875258306,0" fill="#0F3C5F" stroke-width="2" opacity="0.7"></path><path aria-label="is_target_source: false; : object; Decoder Correlation, (Envelope &amp; Pitch Surprisal): 0.261645939733" role="graphics-symbol" aria-roledescription="point" transform="translate(99,144.8939651444372)" d="M2.7386127875258306,0A2.7386127875258306,2.7386127875258306,0,1,1,-2.7386127875258306,0A2.7386127875258306,2.7386127875258306,0,1,1,2.7386127875258306,0" fill="#0F3C5F" stroke-width="2" opacity="0.7"></path><path aria-label="is_target_source: false; : object; Decoder Correlation, (Envelope &amp; Pitch Surprisal): 0.244360597472" role="graphics-symbol" aria-roledescription="point" transform="translate(99,160.7100533128283)" d="M2.7386127875258306,0A2.7386127875258306,2.7386127875258306,0,1,1,-2.7386127875258306,0A2.7386127875258306,2.7386127875258306,0,1,1,2.7386127875258306,0" fill="#0F3C5F" stroke-width="2" opacity="0.7"></path><path aria-label="is_target_source: false; : global; Decoder Correlation, (Envelope &amp; Pitch Surprisal): 0.26342754255" role="graphics-symbol" aria-roledescription="point" transform="translate(37,143.26379856654768)" d="M2.7386127875258306,0A2.7386127875258306,2.7386127875258306,0,1,1,-2.7386127875258306,0A2.7386127875258306,2.7386127875258306,0,1,1,2.7386127875258306,0" fill="#0F3C5F" stroke-width="2" opacity="0.7"></path><path aria-label="is_target_source: false; : global; Decoder Correlation, (Envelope &amp; Pitch Surprisal): 0.278108926593" role="graphics-symbol" aria-roledescription="point" transform="translate(37,129.83033216767205)" d="M2.7386127875258306,0A2.7386127875258306,2.7386127875258306,0,1,1,-2.7386127875258306,0A2.7386127875258306,2.7386127875258306,0,1,1,2.7386127875258306,0" fill="#0F3C5F" stroke-width="2" opacity="0.7"></path><path aria-label="is_target_source: false; : spatial; Decoder Correlation, (Envelope &amp; Pitch Surprisal): 0.289557188069" role="graphics-symbol" aria-roledescription="point" transform="translate(161,119.35517291671289)" d="M2.7386127875258306,0A2.7386127875258306,2.7386127875258306,0,1,1,-2.7386127875258306,0A2.7386127875258306,2.7386127875258306,0,1,1,2.7386127875258306,0" fill="#0F3C5F" stroke-width="2" opacity="0.7"></path><path aria-label="is_target_source: false; : object; Decoder Correlation, (Envelope &amp; Pitch Surprisal): 0.228782982279" role="graphics-symbol" aria-roledescription="point" transform="translate(99,174.96357121506054)" d="M2.7386127875258306,0A2.7386127875258306,2.7386127875258306,0,1,1,-2.7386127875258306,0A2.7386127875258306,2.7386127875258306,0,1,1,2.7386127875258306,0" fill="#0F3C5F" stroke-width="2" opacity="0.7"></path><path aria-label="is_target_source: false; : spatial; Decoder Correlation, (Envelope &amp; Pitch Surprisal): 0.277869748273" role="graphics-symbol" aria-roledescription="point" transform="translate(161,130.04918033052954)" d="M2.7386127875258306,0A2.7386127875258306,2.7386127875258306,0,1,1,-2.7386127875258306,0A2.7386127875258306,2.7386127875258306,0,1,1,2.7386127875258306,0" fill="#0F3C5F" stroke-width="2" opacity="0.7"></path><path aria-label="is_target_source: false; : object; Decoder Correlation, (Envelope &amp; Pitch Surprisal): 0.220780189138" role="graphics-symbol" aria-roledescription="point" transform="translate(99,182.28612693856425)" d="M2.7386127875258306,0A2.7386127875258306,2.7386127875258306,0,1,1,-2.7386127875258306,0A2.7386127875258306,2.7386127875258306,0,1,1,2.7386127875258306,0" fill="#0F3C5F" stroke-width="2" opacity="0.7"></path><path aria-label="is_target_source: false; : global; Decoder Correlation, (Envelope &amp; Pitch Surprisal): 0.270944575848" role="graphics-symbol" aria-roledescription="point" transform="translate(37,136.38571309882127)" d="M2.7386127875258306,0A2.7386127875258306,2.7386127875258306,0,1,1,-2.7386127875258306,0A2.7386127875258306,2.7386127875258306,0,1,1,2.7386127875258306,0" fill="#0F3C5F" stroke-width="2" opacity="0.7"></path><path aria-label="is_target_source: false; : spatial; Decoder Correlation, (Envelope &amp; Pitch Surprisal): 0.244959971855" role="graphics-symbol" aria-roledescription="point" transform="translate(161,160.16162575260608)" d="M2.7386127875258306,0A2.7386127875258306,2.7386127875258306,0,1,1,-2.7386127875258306,0A2.7386127875258306,2.7386127875258306,0,1,1,2.7386127875258306,0" fill="#0F3C5F" stroke-width="2" opacity="0.7"></path><path aria-label="is_target_source: false; : global; Decoder Correlation, (Envelope &amp; Pitch Surprisal): 0.276329814792" role="graphics-symbol" aria-roledescription="point" transform="translate(37,131.45821946554895)" d="M2.7386127875258306,0A2.7386127875258306,2.7386127875258306,0,1,1,-2.7386127875258306,0A2.7386127875258306,2.7386127875258306,0,1,1,2.7386127875258306,0" fill="#0F3C5F" stroke-width="2" opacity="0.7"></path><path aria-label="is_target_source: false; : spatial; Decoder Correlation, (Envelope &amp; Pitch Surprisal): 0.261134144079" role="graphics-symbol" aria-roledescription="point" transform="translate(161,145.36225816782675)" d="M2.7386127875258306,0A2.7386127875258306,2.7386127875258306,0,1,1,-2.7386127875258306,0A2.7386127875258306,2.7386127875258306,0,1,1,2.7386127875258306,0" fill="#0F3C5F" stroke-width="2" opacity="0.7"></path><path aria-label="is_target_source: false; : global; Decoder Correlation, (Envelope &amp; Pitch Surprisal): 0.288508743774" role="graphics-symbol" aria-roledescription="point" transform="translate(37,120.31449944686294)" d="M2.7386127875258306,0A2.7386127875258306,2.7386127875258306,0,1,1,-2.7386127875258306,0A2.7386127875258306,2.7386127875258306,0,1,1,2.7386127875258306,0" fill="#0F3C5F" stroke-width="2" opacity="0.7"></path><path aria-label="is_target_source: false; : spatial; Decoder Correlation, (Envelope &amp; Pitch Surprisal): 0.265157867614" role="graphics-symbol" aria-roledescription="point" transform="translate(161,141.68055113326236)" d="M2.7386127875258306,0A2.7386127875258306,2.7386127875258306,0,1,1,-2.7386127875258306,0A2.7386127875258306,2.7386127875258306,0,1,1,2.7386127875258306,0" fill="#0F3C5F" stroke-width="2" opacity="0.7"></path><path aria-label="is_target_source: false; : object; Decoder Correlation, (Envelope &amp; Pitch Surprisal): 0.251527891064" role="graphics-symbol" aria-roledescription="point" transform="translate(99,154.1519796763516)" d="M2.7386127875258306,0A2.7386127875258306,2.7386127875258306,0,1,1,-2.7386127875258306,0A2.7386127875258306,2.7386127875258306,0,1,1,2.7386127875258306,0" fill="#0F3C5F" stroke-width="2" opacity="0.7"></path><path aria-label="is_target_source: false; : object; Decoder Correlation, (Envelope &amp; Pitch Surprisal): 0.237231939862" role="graphics-symbol" aria-roledescription="point" transform="translate(99,167.2327750263499)" d="M2.7386127875258306,0A2.7386127875258306,2.7386127875258306,0,1,1,-2.7386127875258306,0A2.7386127875258306,2.7386127875258306,0,1,1,2.7386127875258306,0" fill="#0F3C5F" stroke-width="2" opacity="0.7"></path><path aria-label="is_target_source: false; : object; Decoder Correlation, (Envelope &amp; Pitch Surprisal): 0.230531680726" role="graphics-symbol" aria-roledescription="point" transform="translate(99,173.36351213529264)" d="M2.7386127875258306,0A2.7386127875258306,2.7386127875258306,0,1,1,-2.7386127875258306,0A2.7386127875258306,2.7386127875258306,0,1,1,2.7386127875258306,0" fill="#0F3C5F" stroke-width="2" opacity="0.7"></path><path aria-label="is_target_source: false; : global; Decoder Correlation, (Envelope &amp; Pitch Surprisal): 0.270759593639" role="graphics-symbol" aria-roledescription="point" transform="translate(37,136.55497182022742)" d="M2.7386127875258306,0A2.7386127875258306,2.7386127875258306,0,1,1,-2.7386127875258306,0A2.7386127875258306,2.7386127875258306,0,1,1,2.7386127875258306,0" fill="#0F3C5F" stroke-width="2" opacity="0.7"></path><path aria-label="is_target_source: false; : spatial; Decoder Correlation, (Envelope &amp; Pitch Surprisal): 0.278915746409" role="graphics-symbol" aria-roledescription="point" transform="translate(161,129.09209203568057)" d="M2.7386127875258306,0A2.7386127875258306,2.7386127875258306,0,1,1,-2.7386127875258306,0A2.7386127875258306,2.7386127875258306,0,1,1,2.7386127875258306,0" fill="#0F3C5F" stroke-width="2" opacity="0.7"></path><path aria-label="is_target_source: false; : global; Decoder Correlation, (Envelope &amp; Pitch Surprisal): 0.279667318931" role="graphics-symbol" aria-roledescription="point" transform="translate(37,128.4044031784564)" d="M2.7386127875258306,0A2.7386127875258306,2.7386127875258306,0,1,1,-2.7386127875258306,0A2.7386127875258306,2.7386127875258306,0,1,1,2.7386127875258306,0" fill="#0F3C5F" stroke-width="2" opacity="0.7"></path><path aria-label="is_target_source: false; : spatial; Decoder Correlation, (Envelope &amp; Pitch Surprisal): 0.284695662353" role="graphics-symbol" aria-roledescription="point" transform="translate(161,123.80346894683298)" d="M2.7386127875258306,0A2.7386127875258306,2.7386127875258306,0,1,1,-2.7386127875258306,0A2.7386127875258306,2.7386127875258306,0,1,1,2.7386127875258306,0" fill="#0F3C5F" stroke-width="2" opacity="0.7"></path><path aria-label="is_target_source: false; : object; Decoder Correlation, (Envelope &amp; Pitch Surprisal): 0.243433237639" role="graphics-symbol" aria-roledescription="point" transform="translate(99,161.55858756047056)" d="M2.7386127875258306,0A2.7386127875258306,2.7386127875258306,0,1,1,-2.7386127875258306,0A2.7386127875258306,2.7386127875258306,0,1,1,2.7386127875258306,0" fill="#0F3C5F" stroke-width="2" opacity="0.7"></path><path aria-label="is_target_source: false; : object; Decoder Correlation, (Envelope &amp; Pitch Surprisal): 0.23734025654" role="graphics-symbol" aria-roledescription="point" transform="translate(99,167.13366526564755)" d="M2.7386127875258306,0A2.7386127875258306,2.7386127875258306,0,1,1,-2.7386127875258306,0A2.7386127875258306,2.7386127875258306,0,1,1,2.7386127875258306,0" fill="#0F3C5F" stroke-width="2" opacity="0.7"></path><path aria-label="is_target_source: false; : global; Decoder Correlation, (Envelope &amp; Pitch Surprisal): 0.293625442782" role="graphics-symbol" aria-roledescription="point" transform="translate(37,115.63271985435462)" d="M2.7386127875258306,0A2.7386127875258306,2.7386127875258306,0,1,1,-2.7386127875258306,0A2.7386127875258306,2.7386127875258306,0,1,1,2.7386127875258306,0" fill="#0F3C5F" stroke-width="2" opacity="0.7"></path><path aria-label="is_target_source: false; : spatial; Decoder Correlation, (Envelope &amp; Pitch Surprisal): 0.329997279238" role="graphics-symbol" aria-roledescription="point" transform="translate(161,82.3524894968871)" d="M2.7386127875258306,0A2.7386127875258306,2.7386127875258306,0,1,1,-2.7386127875258306,0A2.7386127875258306,2.7386127875258306,0,1,1,2.7386127875258306,0" fill="#0F3C5F" stroke-width="2" opacity="0.7"></path><path aria-label="is_target_source: false; : global; Decoder Correlation, (Envelope &amp; Pitch Surprisal): 0.260969341324" role="graphics-symbol" aria-roledescription="point" transform="translate(37,145.51305268888407)" d="M2.7386127875258306,0A2.7386127875258306,2.7386127875258306,0,1,1,-2.7386127875258306,0A2.7386127875258306,2.7386127875258306,0,1,1,2.7386127875258306,0" fill="#0F3C5F" stroke-width="2" opacity="0.7"></path><path aria-label="is_target_source: false; : spatial; Decoder Correlation, (Envelope &amp; Pitch Surprisal): 0.270261537927" role="graphics-symbol" aria-roledescription="point" transform="translate(161,137.01069279670193)" d="M2.7386127875258306,0A2.7386127875258306,2.7386127875258306,0,1,1,-2.7386127875258306,0A2.7386127875258306,2.7386127875258306,0,1,1,2.7386127875258306,0" fill="#0F3C5F" stroke-width="2" opacity="0.7"></path><path aria-label="is_target_source: false; : global; Decoder Correlation, (Envelope &amp; Pitch Surprisal): 0.278724674407" role="graphics-symbol" aria-roledescription="point" transform="translate(37,129.26692291718487)" d="M2.7386127875258306,0A2.7386127875258306,2.7386127875258306,0,1,1,-2.7386127875258306,0A2.7386127875258306,2.7386127875258306,0,1,1,2.7386127875258306,0" fill="#0F3C5F" stroke-width="2" opacity="0.7"></path><path aria-label="is_target_source: false; : spatial; Decoder Correlation, (Envelope &amp; Pitch Surprisal): 0.316958561825" role="graphics-symbol" aria-roledescription="point" transform="translate(161,94.28291593014822)" d="M2.7386127875258306,0A2.7386127875258306,2.7386127875258306,0,1,1,-2.7386127875258306,0A2.7386127875258306,2.7386127875258306,0,1,1,2.7386127875258306,0" fill="#0F3C5F" stroke-width="2" opacity="0.7"></path><path aria-label="is_target_source: false; : object; Decoder Correlation, (Envelope &amp; Pitch Surprisal): 0.257645139099" role="graphics-symbol" aria-roledescription="point" transform="translate(99,148.5546977241794)" d="M2.7386127875258306,0A2.7386127875258306,2.7386127875258306,0,1,1,-2.7386127875258306,0A2.7386127875258306,2.7386127875258306,0,1,1,2.7386127875258306,0" fill="#0F3C5F" stroke-width="2" opacity="0.7"></path><path aria-label="is_target_source: false; : object; Decoder Correlation, (Envelope &amp; Pitch Surprisal): 0.244258546279" role="graphics-symbol" aria-roledescription="point" transform="translate(99,160.8034301551106)" d="M2.7386127875258306,0A2.7386127875258306,2.7386127875258306,0,1,1,-2.7386127875258306,0A2.7386127875258306,2.7386127875258306,0,1,1,2.7386127875258306,0" fill="#0F3C5F" stroke-width="2" opacity="0.7"></path><path aria-label="is_target_source: false; : object; Decoder Correlation, (Envelope &amp; Pitch Surprisal): 0.273123125459" role="graphics-symbol" aria-roledescription="point" transform="translate(99,134.39234020458582)" d="M2.7386127875258306,0A2.7386127875258306,2.7386127875258306,0,1,1,-2.7386127875258306,0A2.7386127875258306,2.7386127875258306,0,1,1,2.7386127875258306,0" fill="#0F3C5F" stroke-width="2" opacity="0.7"></path><path aria-label="is_target_source: false; : global; Decoder Correlation, (Envelope &amp; Pitch Surprisal): 0.280681488231" role="graphics-symbol" aria-roledescription="point" transform="translate(37,127.47643826837721)" d="M2.7386127875258306,0A2.7386127875258306,2.7386127875258306,0,1,1,-2.7386127875258306,0A2.7386127875258306,2.7386127875258306,0,1,1,2.7386127875258306,0" fill="#0F3C5F" stroke-width="2" opacity="0.7"></path><path aria-label="is_target_source: false; : spatial; Decoder Correlation, (Envelope &amp; Pitch Surprisal): 0.284492815885" role="graphics-symbol" aria-roledescription="point" transform="translate(161,123.98907346551083)" d="M2.7386127875258306,0A2.7386127875258306,2.7386127875258306,0,1,1,-2.7386127875258306,0A2.7386127875258306,2.7386127875258306,0,1,1,2.7386127875258306,0" fill="#0F3C5F" stroke-width="2" opacity="0.7"></path><path aria-label="is_target_source: false; : global; Decoder Correlation, (Envelope &amp; Pitch Surprisal): 0.276157673865" role="graphics-symbol" aria-roledescription="point" transform="translate(37,131.61572841332512)" d="M2.7386127875258306,0A2.7386127875258306,2.7386127875258306,0,1,1,-2.7386127875258306,0A2.7386127875258306,2.7386127875258306,0,1,1,2.7386127875258306,0" fill="#0F3C5F" stroke-width="2" opacity="0.7"></path><path aria-label="is_target_source: false; : spatial; Decoder Correlation, (Envelope &amp; Pitch Surprisal): 0.273293745592" role="graphics-symbol" aria-roledescription="point" transform="translate(161,134.23622278330538)" d="M2.7386127875258306,0A2.7386127875258306,2.7386127875258306,0,1,1,-2.7386127875258306,0A2.7386127875258306,2.7386127875258306,0,1,1,2.7386127875258306,0" fill="#0F3C5F" stroke-width="2" opacity="0.7"></path><path aria-label="is_target_source: false; : object; Decoder Correlation, (Envelope &amp; Pitch Surprisal): 0.228936052437" role="graphics-symbol" aria-roledescription="point" transform="translate(99,174.82351202029184)" d="M2.7386127875258306,0A2.7386127875258306,2.7386127875258306,0,1,1,-2.7386127875258306,0A2.7386127875258306,2.7386127875258306,0,1,1,2.7386127875258306,0" fill="#0F3C5F" stroke-width="2" opacity="0.7"></path><path aria-label="is_target_source: false; : object; Decoder Correlation, (Envelope &amp; Pitch Surprisal): 0.240012269942" role="graphics-symbol" aria-roledescription="point" transform="translate(99,164.6887730028321)" d="M2.7386127875258306,0A2.7386127875258306,2.7386127875258306,0,1,1,-2.7386127875258306,0A2.7386127875258306,2.7386127875258306,0,1,1,2.7386127875258306,0" fill="#0F3C5F" stroke-width="2" opacity="0.7"></path><path aria-label="is_target_source: false; : global; Decoder Correlation, (Envelope &amp; Pitch Surprisal): 0.249300478769" role="graphics-symbol" aria-roledescription="point" transform="translate(37,156.1900619260256)" d="M2.7386127875258306,0A2.7386127875258306,2.7386127875258306,0,1,1,-2.7386127875258306,0A2.7386127875258306,2.7386127875258306,0,1,1,2.7386127875258306,0" fill="#0F3C5F" stroke-width="2" opacity="0.7"></path><path aria-label="is_target_source: false; : spatial; Decoder Correlation, (Envelope &amp; Pitch Surprisal): 0.279665819376" role="graphics-symbol" aria-roledescription="point" transform="translate(161,128.40577527102033)" d="M2.7386127875258306,0A2.7386127875258306,2.7386127875258306,0,1,1,-2.7386127875258306,0A2.7386127875258306,2.7386127875258306,0,1,1,2.7386127875258306,0" fill="#0F3C5F" stroke-width="2" opacity="0.7"></path><path aria-label="is_target_source: false; : global; Decoder Correlation, (Envelope &amp; Pitch Surprisal): 0.275068605489" role="graphics-symbol" aria-roledescription="point" transform="translate(37,132.61222597793952)" d="M2.7386127875258306,0A2.7386127875258306,2.7386127875258306,0,1,1,-2.7386127875258306,0A2.7386127875258306,2.7386127875258306,0,1,1,2.7386127875258306,0" fill="#0F3C5F" stroke-width="2" opacity="0.7"></path><path aria-label="is_target_source: false; : object; Decoder Correlation, (Envelope &amp; Pitch Surprisal): 0.231786800226" role="graphics-symbol" aria-roledescription="point" transform="translate(99,172.21507779329426)" d="M2.7386127875258306,0A2.7386127875258306,2.7386127875258306,0,1,1,-2.7386127875258306,0A2.7386127875258306,2.7386127875258306,0,1,1,2.7386127875258306,0" fill="#0F3C5F" stroke-width="2" opacity="0.7"></path><path aria-label="is_target_source: false; : object; Decoder Correlation, (Envelope &amp; Pitch Surprisal): 0.220471080607" role="graphics-symbol" aria-roledescription="point" transform="translate(99,182.56896124414746)" d="M2.7386127875258306,0A2.7386127875258306,2.7386127875258306,0,1,1,-2.7386127875258306,0A2.7386127875258306,2.7386127875258306,0,1,1,2.7386127875258306,0" fill="#0F3C5F" stroke-width="2" opacity="0.7"></path><path aria-label="is_target_source: false; : spatial; Decoder Correlation, (Envelope &amp; Pitch Surprisal): 0.283252089072" role="graphics-symbol" aria-roledescription="point" transform="translate(161,125.12433849884394)" d="M2.7386127875258306,0A2.7386127875258306,2.7386127875258306,0,1,1,-2.7386127875258306,0A2.7386127875258306,2.7386127875258306,0,1,1,2.7386127875258306,0" fill="#0F3C5F" stroke-width="2" opacity="0.7"></path><path aria-label="is_target_source: false; : global; Decoder Correlation, (Envelope &amp; Pitch Surprisal): 0.259688514637" role="graphics-symbol" aria-roledescription="point" transform="translate(37,146.685009107493)" d="M2.7386127875258306,0A2.7386127875258306,2.7386127875258306,0,1,1,-2.7386127875258306,0A2.7386127875258306,2.7386127875258306,0,1,1,2.7386127875258306,0" fill="#0F3C5F" stroke-width="2" opacity="0.7"></path><path aria-label="is_target_source: false; : spatial; Decoder Correlation, (Envelope &amp; Pitch Surprisal): 0.319645557074" role="graphics-symbol" aria-roledescription="point" transform="translate(161,91.82431527721964)" d="M2.7386127875258306,0A2.7386127875258306,2.7386127875258306,0,1,1,-2.7386127875258306,0A2.7386127875258306,2.7386127875258306,0,1,1,2.7386127875258306,0" fill="#0F3C5F" stroke-width="2" opacity="0.7"></path><path aria-label="is_target_source: false; : global; Decoder Correlation, (Envelope &amp; Pitch Surprisal): 0.281232690325" role="graphics-symbol" aria-roledescription="point" transform="translate(37,126.97208835271516)" d="M2.7386127875258306,0A2.7386127875258306,2.7386127875258306,0,1,1,-2.7386127875258306,0A2.7386127875258306,2.7386127875258306,0,1,1,2.7386127875258306,0" fill="#0F3C5F" stroke-width="2" opacity="0.7"></path><path aria-label="is_target_source: false; : spatial; Decoder Correlation, (Envelope &amp; Pitch Surprisal): 0.231029203762" role="graphics-symbol" aria-roledescription="point" transform="translate(161,172.9082785579369)" d="M2.7386127875258306,0A2.7386127875258306,2.7386127875258306,0,1,1,-2.7386127875258306,0A2.7386127875258306,2.7386127875258306,0,1,1,2.7386127875258306,0" fill="#0F3C5F" stroke-width="2" opacity="0.7"></path><path aria-label="is_target_source: false; : global; Decoder Correlation, (Envelope &amp; Pitch Surprisal): 0.268512531765" role="graphics-symbol" aria-roledescription="point" transform="translate(37,138.61103343524064)" d="M2.7386127875258306,0A2.7386127875258306,2.7386127875258306,0,1,1,-2.7386127875258306,0A2.7386127875258306,2.7386127875258306,0,1,1,2.7386127875258306,0" fill="#0F3C5F" stroke-width="2" opacity="0.7"></path><path aria-label="is_target_source: false; : spatial; Decoder Correlation, (Envelope &amp; Pitch Surprisal): 0.290779298335" role="graphics-symbol" aria-roledescription="point" transform="translate(161,118.23694202342196)" d="M2.7386127875258306,0A2.7386127875258306,2.7386127875258306,0,1,1,-2.7386127875258306,0A2.7386127875258306,2.7386127875258306,0,1,1,2.7386127875258306,0" fill="#0F3C5F" stroke-width="2" opacity="0.7"></path><path aria-label="is_target_source: false; : object; Decoder Correlation, (Envelope &amp; Pitch Surprisal): 0.220856440546" role="graphics-symbol" aria-roledescription="point" transform="translate(99,182.21635690000784)" d="M2.7386127875258306,0A2.7386127875258306,2.7386127875258306,0,1,1,-2.7386127875258306,0A2.7386127875258306,2.7386127875258306,0,1,1,2.7386127875258306,0" fill="#0F3C5F" stroke-width="2" opacity="0.7"></path><path aria-label="is_target_source: false; : object; Decoder Correlation, (Envelope &amp; Pitch Surprisal): 0.239181332796" role="graphics-symbol" aria-roledescription="point" transform="translate(99,165.44908049196917)" d="M2.7386127875258306,0A2.7386127875258306,2.7386127875258306,0,1,1,-2.7386127875258306,0A2.7386127875258306,2.7386127875258306,0,1,1,2.7386127875258306,0" fill="#0F3C5F" stroke-width="2" opacity="0.7"></path><path aria-label="is_target_source: false; : object; Decoder Correlation, (Envelope &amp; Pitch Surprisal): 0.244233014678" role="graphics-symbol" aria-roledescription="point" transform="translate(99,160.8267915697211)" d="M2.7386127875258306,0A2.7386127875258306,2.7386127875258306,0,1,1,-2.7386127875258306,0A2.7386127875258306,2.7386127875258306,0,1,1,2.7386127875258306,0" fill="#0F3C5F" stroke-width="2" opacity="0.7"></path><path aria-label="is_target_source: false; : global; Decoder Correlation, (Envelope &amp; Pitch Surprisal): 0.264955395098" role="graphics-symbol" aria-roledescription="point" transform="translate(37,141.86581348558713)" d="M2.7386127875258306,0A2.7386127875258306,2.7386127875258306,0,1,1,-2.7386127875258306,0A2.7386127875258306,2.7386127875258306,0,1,1,2.7386127875258306,0" fill="#0F3C5F" stroke-width="2" opacity="0.7"></path><path aria-label="is_target_source: false; : spatial; Decoder Correlation, (Envelope &amp; Pitch Surprisal): 0.315861954018" role="graphics-symbol" aria-roledescription="point" transform="translate(161,95.28631207395215)" d="M2.7386127875258306,0A2.7386127875258306,2.7386127875258306,0,1,1,-2.7386127875258306,0A2.7386127875258306,2.7386127875258306,0,1,1,2.7386127875258306,0" fill="#0F3C5F" stroke-width="2" opacity="0.7"></path><path aria-label="is_target_source: false; : global; Decoder Correlation, (Envelope &amp; Pitch Surprisal): 0.280693790125" role="graphics-symbol" aria-roledescription="point" transform="translate(37,127.46518203579808)" d="M2.7386127875258306,0A2.7386127875258306,2.7386127875258306,0,1,1,-2.7386127875258306,0A2.7386127875258306,2.7386127875258306,0,1,1,2.7386127875258306,0" fill="#0F3C5F" stroke-width="2" opacity="0.7"></path><path aria-label="is_target_source: false; : spatial; Decoder Correlation, (Envelope &amp; Pitch Surprisal): 0.297303812403" role="graphics-symbol" aria-roledescription="point" transform="translate(161,112.26701165163044)" d="M2.7386127875258306,0A2.7386127875258306,2.7386127875258306,0,1,1,-2.7386127875258306,0A2.7386127875258306,2.7386127875258306,0,1,1,2.7386127875258306,0" fill="#0F3C5F" stroke-width="2" opacity="0.7"></path><path aria-label="is_target_source: false; : object; Decoder Correlation, (Envelope &amp; Pitch Surprisal): 0.233609277497" role="graphics-symbol" aria-roledescription="point" transform="translate(99,170.54751109018395)" d="M2.7386127875258306,0A2.7386127875258306,2.7386127875258306,0,1,1,-2.7386127875258306,0A2.7386127875258306,2.7386127875258306,0,1,1,2.7386127875258306,0" fill="#0F3C5F" stroke-width="2" opacity="0.7"></path><path aria-label="is_target_source: false; : object; Decoder Correlation, (Envelope &amp; Pitch Surprisal): 0.248058449691" role="graphics-symbol" aria-roledescription="point" transform="translate(99,157.3265185326033)" d="M2.7386127875258306,0A2.7386127875258306,2.7386127875258306,0,1,1,-2.7386127875258306,0A2.7386127875258306,2.7386127875258306,0,1,1,2.7386127875258306,0" fill="#0F3C5F" stroke-width="2" opacity="0.7"></path><path aria-label="is_target_source: false; : global; Decoder Correlation, (Envelope &amp; Pitch Surprisal): 0.280148697467" role="graphics-symbol" aria-roledescription="point" transform="translate(37,127.96394181768017)" d="M2.7386127875258306,0A2.7386127875258306,2.7386127875258306,0,1,1,-2.7386127875258306,0A2.7386127875258306,2.7386127875258306,0,1,1,2.7386127875258306,0" fill="#0F3C5F" stroke-width="2" opacity="0.7"></path><path aria-label="is_target_source: false; : spatial; Decoder Correlation, (Envelope &amp; Pitch Surprisal): 0.293013904222" role="graphics-symbol" aria-roledescription="point" transform="translate(161,116.1922776367238)" d="M2.7386127875258306,0A2.7386127875258306,2.7386127875258306,0,1,1,-2.7386127875258306,0A2.7386127875258306,2.7386127875258306,0,1,1,2.7386127875258306,0" fill="#0F3C5F" stroke-width="2" opacity="0.7"></path><path aria-label="is_target_source: false; : global; Decoder Correlation, (Envelope &amp; Pitch Surprisal): 0.278561248266" role="graphics-symbol" aria-roledescription="point" transform="translate(37,129.41645783650864)" d="M2.7386127875258306,0A2.7386127875258306,2.7386127875258306,0,1,1,-2.7386127875258306,0A2.7386127875258306,2.7386127875258306,0,1,1,2.7386127875258306,0" fill="#0F3C5F" stroke-width="2" opacity="0.7"></path><path aria-label="is_target_source: false; : spatial; Decoder Correlation, (Envelope &amp; Pitch Surprisal): 0.261950946558" role="graphics-symbol" aria-roledescription="point" transform="translate(161,144.61488389965837)" d="M2.7386127875258306,0A2.7386127875258306,2.7386127875258306,0,1,1,-2.7386127875258306,0A2.7386127875258306,2.7386127875258306,0,1,1,2.7386127875258306,0" fill="#0F3C5F" stroke-width="2" opacity="0.7"></path><path aria-label="is_target_source: false; : global; Decoder Correlation, (Envelope &amp; Pitch Surprisal): 0.279177392393" role="graphics-symbol" aria-roledescription="point" transform="translate(37,128.85268596072825)" d="M2.7386127875258306,0A2.7386127875258306,2.7386127875258306,0,1,1,-2.7386127875258306,0A2.7386127875258306,2.7386127875258306,0,1,1,2.7386127875258306,0" fill="#0F3C5F" stroke-width="2" opacity="0.7"></path><path aria-label="is_target_source: false; : spatial; Decoder Correlation, (Envelope &amp; Pitch Surprisal): 0.289029361413" role="graphics-symbol" aria-roledescription="point" transform="translate(161,119.83813430680583)" d="M2.7386127875258306,0A2.7386127875258306,2.7386127875258306,0,1,1,-2.7386127875258306,0A2.7386127875258306,2.7386127875258306,0,1,1,2.7386127875258306,0" fill="#0F3C5F" stroke-width="2" opacity="0.7"></path><path aria-label="is_target_source: false; : object; Decoder Correlation, (Envelope &amp; Pitch Surprisal): 0.260368076884" role="graphics-symbol" aria-roledescription="point" transform="translate(99,146.0632096508413)" d="M2.7386127875258306,0A2.7386127875258306,2.7386127875258306,0,1,1,-2.7386127875258306,0A2.7386127875258306,2.7386127875258306,0,1,1,2.7386127875258306,0" fill="#0F3C5F" stroke-width="2" opacity="0.7"></path><path aria-label="is_target_source: false; : object; Decoder Correlation, (Envelope &amp; Pitch Surprisal): 0.247811089648" role="graphics-symbol" aria-roledescription="point" transform="translate(99,157.55285297216327)" d="M2.7386127875258306,0A2.7386127875258306,2.7386127875258306,0,1,1,-2.7386127875258306,0A2.7386127875258306,2.7386127875258306,0,1,1,2.7386127875258306,0" fill="#0F3C5F" stroke-width="2" opacity="0.7"></path><path aria-label="is_target_source: false; : object; Decoder Correlation, (Envelope &amp; Pitch Surprisal): 0.241879423662" role="graphics-symbol" aria-roledescription="point" transform="translate(99,162.9803273493478)" d="M2.7386127875258306,0A2.7386127875258306,2.7386127875258306,0,1,1,-2.7386127875258306,0A2.7386127875258306,2.7386127875258306,0,1,1,2.7386127875258306,0" fill="#0F3C5F" stroke-width="2" opacity="0.7"></path></g><g class="mark-rule role-mark layer_4_marks" role="graphics-object" aria-roledescription="rule mark container"><line aria-label=": global; Ci0 of value: 0.341944423995; Ci1 of value: 0.348311576726" role="graphics-symbol" aria-roledescription="rule mark" transform="translate(16,71.42085204457874)" x2="0" y2="-5.825944749001806" stroke="black"></line><line aria-label=": object; Ci0 of value: 0.335415027772; Ci1 of value: 0.356800135004" role="graphics-symbol" aria-roledescription="rule mark" transform="translate(78,77.39524958872855)" x2="0" y2="-19.567373117295283" stroke="black"></line><line aria-label=": spatial; Ci0 of value: 0.329654428479; Ci1 of value: 0.353826601472" role="graphics-symbol" aria-roledescription="rule mark" transform="translate(140,82.66619794166954)" x2="0" y2="-22.11753828878158" stroke="black"></line></g><g class="mark-rule role-mark layer_5_marks" role="graphics-object" aria-roledescription="rule mark container"><line aria-label=": global; Ci0 of value: 0.271194739406; Ci1 of value: 0.278780550502" role="graphics-symbol" aria-roledescription="rule mark" transform="translate(46,136.15681344318835)" x2="0" y2="-6.94101715218855" stroke="black"></line><line aria-label=": spatial; Ci0 of value: 0.275257598998; Ci1 of value: 0.293307564456" role="graphics-symbol" aria-roledescription="rule mark" transform="translate(170,132.4392969170995)" x2="0" y2="-16.51571839423157" stroke="black"></line><line aria-label=": object; Ci0 of value: 0.235939517334; Ci1 of value: 0.246917544934" role="graphics-symbol" aria-roledescription="rule mark" transform="translate(108,168.41534163925175)" x2="0" y2="-10.04489525351812" stroke="black"></line></g><g class="mark-text role-mark layer_6_marks" role="graphics-object" aria-roledescription="text mark container"><text aria-label="is_target_source: true; : global; Max of value: 0.359749218274" role="graphics-symbol" aria-roledescription="text mark" text-anchor="middle" transform="translate(25,48.12946527940232)" font-family="sans-serif" font-size="11px" fill="#EB9A60">Target</text></g><g class="mark-text role-mark layer_7_marks" role="graphics-object" aria-roledescription="text mark container"><text aria-label="is_target_source: false; : global; Max of value: 0.293625442782" role="graphics-symbol" aria-roledescription="text mark" text-anchor="middle" transform="translate(37,108.63271985435462)" font-family="sans-serif" font-size="11px" fill="#0F3C5F">Non-target</text></g></g><path class="foreground" aria-hidden="true" d="" display="none"></path></g></g></g></svg>
