<?xml version="1.0" encoding="utf-8"?>
<!DOCTYPE svg PUBLIC "-//W3C//DTD SVG 1.1//EN" "http://www.w3.org/Graphics/SVG/1.1/DTD/svg11.dtd">
<svg class="marks" width="132" height="248" viewBox="0 0 132 248" version="1.1" xmlns="http://www.w3.org/2000/svg" xmlns:xlink="http://www.w3.org/1999/xlink"><rect width="132" height="248" fill="white"></rect><g fill="none" stroke-miterlimit="10" transform="translate(52,5)"><g class="mark-group role-frame root" role="graphics-object" aria-roledescription="group mark container"><g transform="translate(0,0)"><path class="background" aria-hidden="true" d="M0.5,0.5h75v200h-75Z" stroke="#ddd"></path><g><g class="mark-group role-axis" aria-hidden="true"><g transform="translate(0.5,0.5)"><path class="background" aria-hidden="true" d="M0,0h0v0h0Z" pointer-events="none"></path><g><g class="mark-rule role-axis-grid" pointer-events="none"><line transform="translate(0,171)" x2="75" y2="0" stroke="#ddd" stroke-width="1" opacity="1"></line><line transform="translate(0,136)" x2="75" y2="0" stroke="#ddd" stroke-width="1" opacity="1"></line><line transform="translate(0,100)" x2="75" y2="0" stroke="#ddd" stroke-width="1" opacity="1"></line><line transform="translate(0,64)" x2="75" y2="0" stroke="#ddd" stroke-width="1" opacity="1"></line><line transform="translate(0,29)" x2="75" y2="0" stroke="#ddd" stroke-width="1" opacity="1"></line></g></g><path class="foreground" aria-hidden="true" d="" pointer-events="none" display="none"></path></g></g><g class="mark-group role-axis" role="graphics-symbol" aria-roledescription="axis" aria-label="X-axis for a discrete scale with 3 values: global, object, spatial"><g transform="translate(0.5,200.5)"><path class="background" aria-hidden="true" d="M0,0h0v0h0Z" pointer-events="none"></path><g><g class="mark-rule role-axis-tick" pointer-events="none"><line transform="translate(12,0)" x2="0" y2="5" stroke="#888" stroke-width="1" opacity="1"></line><line transform="translate(37,0)" x2="0" y2="5" stroke="#888" stroke-width="1" opacity="1"></line><line transform="translate(62,0)" x2="0" y2="5" stroke="#888" stroke-width="1" opacity="1"></line></g><g class="mark-text role-axis-label" pointer-events="none"><text text-anchor="end" transform="translate(12,7) rotate(315) translate(0,8)" font-family="sans-serif" font-size="10px" fill="#000" opacity="1">global</text><text text-anchor="end" transform="translate(37,7) rotate(315) translate(0,8)" font-family="sans-serif" font-size="10px" fill="#000" opacity="1">object</text><text text-anchor="end" transform="translate(62,7) rotate(315) translate(0,8)" font-family="sans-serif" font-size="10px" fill="#000" opacity="1">spatial</text></g><g class="mark-rule role-axis-domain" pointer-events="none"><line transform="translate(0,0)" x2="75" y2="0" stroke="#888" stroke-width="1" opacity="1"></line></g></g><path class="foreground" aria-hidden="true" d="" pointer-events="none" display="none"></path></g></g><g class="mark-group role-axis" role="graphics-symbol" aria-roledescription="axis" aria-label="Y-axis titled 'Target - Non-target Correlation' for a linear scale with values from -0.24 to 0.04"><g transform="translate(0.5,0.5)"><path class="background" aria-hidden="true" d="M0,0h0v0h0Z" pointer-events="none"></path><g><g class="mark-rule role-axis-tick" pointer-events="none"><line transform="translate(0,171)" x2="-5" y2="0" stroke="#888" stroke-width="1" opacity="1"></line><line transform="translate(0,136)" x2="-5" y2="0" stroke="#888" stroke-width="1" opacity="1"></line><line transform="translate(0,100)" x2="-5" y2="0" stroke="#888" stroke-width="1" opacity="1"></line><line transform="translate(0,64)" x2="-5" y2="0" stroke="#888" stroke-width="1" opacity="1"></line><line transform="translate(0,29)" x2="-5" y2="0" stroke="#888" stroke-width="1" opacity="1"></line></g><g class="mark-text role-axis-label" pointer-events="none"><text text-anchor="end" transform="translate(-7,174.42857142857144)" font-family="sans-serif" font-size="10px" fill="#000" opacity="1">-0.20</text><text text-anchor="end" transform="translate(-7,138.71428571428572)" font-family="sans-serif" font-size="10px" fill="#000" opacity="1">-0.15</text><text text-anchor="end" transform="translate(-7,103)" font-family="sans-serif" font-size="10px" fill="#000" opacity="1">-0.10</text><text text-anchor="end" transform="translate(-7,67.28571428571428)" font-family="sans-serif" font-size="10px" fill="#000" opacity="1">-0.05</text><text text-anchor="end" transform="translate(-7,31.57142857142856)" font-family="sans-serif" font-size="10px" fill="#000" opacity="1">0.00</text></g><g class="mark-rule role-axis-domain" pointer-events="none"><line transform="translate(0,200)" x2="0" y2="-200" stroke="#888" stroke-width="1" opacity="1"></line></g><g class="mark-text role-axis-title" pointer-events="none"><text text-anchor="middle" transform="translate(-36,100) rotate(-90) translate(0,-2)" font-family="sans-serif" font-size="11px" font-weight="bold" fill="#000" opacity="1">Target - Non-target Correlation</text></g></g><path class="foreground" aria-hidden="true" d="" pointer-events="none" display="none"></path></g></g><g class="mark-symbol role-mark layer_0_layer_0_marks" role="graphics-object" aria-roledescription="symbol mark container"><path aria-label="condition: global; : global; Mean of cordiff: -0.0743700415625" role="graphics-symbol" aria-roledescription="point" transform="translate(9.5,81.69288683035714)" d="M2.7386127875258306,0A2.7386127875258306,2.7386127875258306,0,1,1,-2.7386127875258306,0A2.7386127875258306,2.7386127875258306,0,1,1,2.7386127875258306,0" stroke="#0F3C5F" stroke-width="2"></path><path aria-label="condition: object; : object; Mean of cordiff: -0.0992745688125" role="graphics-symbol" aria-roledescription="point" transform="translate(34.5,99.48183486607142)" d="M2.7386127875258306,0A2.7386127875258306,2.7386127875258306,0,1,1,-2.7386127875258306,0A2.7386127875258306,2.7386127875258306,0,1,1,2.7386127875258306,0" stroke="#687B3E" stroke-width="2"></path><path aria-label="condition: spatial; : spatial; Mean of cordiff: -0.125095864812" role="graphics-symbol" aria-roledescription="point" transform="translate(59.5,117.92561772321429)" d="M2.7386127875258306,0A2.7386127875258306,2.7386127875258306,0,1,1,-2.7386127875258306,0A2.7386127875258306,2.7386127875258306,0,1,1,2.7386127875258306,0" stroke="#EB9A60" stroke-width="2"></path></g><g class="mark-symbol role-mark layer_0_layer_1_marks" role="graphics-object" aria-roledescription="symbol mark container"><path aria-label="condition: global; : global; Target - Non-target Correlation: -0.11003611" role="graphics-symbol" aria-roledescription="point" transform="translate(15.5,107.16865000000001)" d="M2.7386127875258306,0A2.7386127875258306,2.7386127875258306,0,1,1,-2.7386127875258306,0A2.7386127875258306,2.7386127875258306,0,1,1,2.7386127875258306,0" fill="#0F3C5F" stroke-width="2" opacity="0.7"></path><path aria-label="condition: object; : object; Target - Non-target Correlation: -0.07495426" role="graphics-symbol" aria-roledescription="point" transform="translate(40.5,82.1101857142857)" d="M2.7386127875258306,0A2.7386127875258306,2.7386127875258306,0,1,1,-2.7386127875258306,0A2.7386127875258306,2.7386127875258306,0,1,1,2.7386127875258306,0" fill="#687B3E" stroke-width="2" opacity="0.7"></path><path aria-label="condition: spatial; : spatial; Target - Non-target Correlation: -0.23458168" role="graphics-symbol" aria-roledescription="point" transform="translate(65.5,196.12977142857142)" d="M2.7386127875258306,0A2.7386127875258306,2.7386127875258306,0,1,1,-2.7386127875258306,0A2.7386127875258306,2.7386127875258306,0,1,1,2.7386127875258306,0" fill="#EB9A60" stroke-width="2" opacity="0.7"></path><path aria-label="condition: global; : global; Target - Non-target Correlation: -0.031015487" role="graphics-symbol" aria-roledescription="point" transform="translate(15.5,50.72534785714284)" d="M2.7386127875258306,0A2.7386127875258306,2.7386127875258306,0,1,1,-2.7386127875258306,0A2.7386127875258306,2.7386127875258306,0,1,1,2.7386127875258306,0" fill="#0F3C5F" stroke-width="2" opacity="0.7"></path><path aria-label="condition: object; : object; Target - Non-target Correlation: -0.10340709" role="graphics-symbol" aria-roledescription="point" transform="translate(40.5,102.4336357142857)" d="M2.7386127875258306,0A2.7386127875258306,2.7386127875258306,0,1,1,-2.7386127875258306,0A2.7386127875258306,2.7386127875258306,0,1,1,2.7386127875258306,0" fill="#687B3E" stroke-width="2" opacity="0.7"></path><path aria-label="condition: spatial; : spatial; Target - Non-target Correlation: -0.14191434" role="graphics-symbol" aria-roledescription="point" transform="translate(65.5,129.9388142857143)" d="M2.7386127875258306,0A2.7386127875258306,2.7386127875258306,0,1,1,-2.7386127875258306,0A2.7386127875258306,2.7386127875258306,0,1,1,2.7386127875258306,0" fill="#EB9A60" stroke-width="2" opacity="0.7"></path><path aria-label="condition: global; : global; Target - Non-target Correlation: -0.078701474" role="graphics-symbol" aria-roledescription="point" transform="translate(15.5,84.78676714285713)" d="M2.7386127875258306,0A2.7386127875258306,2.7386127875258306,0,1,1,-2.7386127875258306,0A2.7386127875258306,2.7386127875258306,0,1,1,2.7386127875258306,0" fill="#0F3C5F" stroke-width="2" opacity="0.7"></path><path aria-label="condition: object; : object; Target - Non-target Correlation: -0.08024835" role="graphics-symbol" aria-roledescription="point" transform="translate(40.5,85.89167857142857)" d="M2.7386127875258306,0A2.7386127875258306,2.7386127875258306,0,1,1,-2.7386127875258306,0A2.7386127875258306,2.7386127875258306,0,1,1,2.7386127875258306,0" fill="#687B3E" stroke-width="2" opacity="0.7"></path><path aria-label="condition: spatial; : spatial; Target - Non-target Correlation: -0.033960525" role="graphics-symbol" aria-roledescription="point" transform="translate(65.5,52.82894642857141)" d="M2.7386127875258306,0A2.7386127875258306,2.7386127875258306,0,1,1,-2.7386127875258306,0A2.7386127875258306,2.7386127875258306,0,1,1,2.7386127875258306,0" fill="#EB9A60" stroke-width="2" opacity="0.7"></path><path aria-label="condition: global; : global; Target - Non-target Correlation: -0.106436595" role="graphics-symbol" aria-roledescription="point" transform="translate(15.5,104.59756785714285)" d="M2.7386127875258306,0A2.7386127875258306,2.7386127875258306,0,1,1,-2.7386127875258306,0A2.7386127875258306,2.7386127875258306,0,1,1,2.7386127875258306,0" fill="#0F3C5F" stroke-width="2" opacity="0.7"></path><path aria-label="condition: object; : object; Target - Non-target Correlation: -0.09753921" role="graphics-symbol" aria-roledescription="point" transform="translate(40.5,98.24229285714286)" d="M2.7386127875258306,0A2.7386127875258306,2.7386127875258306,0,1,1,-2.7386127875258306,0A2.7386127875258306,2.7386127875258306,0,1,1,2.7386127875258306,0" fill="#687B3E" stroke-width="2" opacity="0.7"></path><path aria-label="condition: spatial; : spatial; Target - Non-target Correlation: -0.21190977" role="graphics-symbol" aria-roledescription="point" transform="translate(65.5,179.93555)" d="M2.7386127875258306,0A2.7386127875258306,2.7386127875258306,0,1,1,-2.7386127875258306,0A2.7386127875258306,2.7386127875258306,0,1,1,2.7386127875258306,0" fill="#EB9A60" stroke-width="2" opacity="0.7"></path><path aria-label="condition: global; : global; Target - Non-target Correlation: -0.06803888" role="graphics-symbol" aria-roledescription="point" transform="translate(15.5,77.17062857142855)" d="M2.7386127875258306,0A2.7386127875258306,2.7386127875258306,0,1,1,-2.7386127875258306,0A2.7386127875258306,2.7386127875258306,0,1,1,2.7386127875258306,0" fill="#0F3C5F" stroke-width="2" opacity="0.7"></path><path aria-label="condition: object; : object; Target - Non-target Correlation: -0.07852428" role="graphics-symbol" aria-roledescription="point" transform="translate(40.5,84.66019999999999)" d="M2.7386127875258306,0A2.7386127875258306,2.7386127875258306,0,1,1,-2.7386127875258306,0A2.7386127875258306,2.7386127875258306,0,1,1,2.7386127875258306,0" fill="#687B3E" stroke-width="2" opacity="0.7"></path><path aria-label="condition: spatial; : spatial; Target - Non-target Correlation: -0.023806773" role="graphics-symbol" aria-roledescription="point" transform="translate(65.5,45.57626642857142)" d="M2.7386127875258306,0A2.7386127875258306,2.7386127875258306,0,1,1,-2.7386127875258306,0A2.7386127875258306,2.7386127875258306,0,1,1,2.7386127875258306,0" fill="#EB9A60" stroke-width="2" opacity="0.7"></path><path aria-label="condition: global; : global; Target - Non-target Correlation: -0.066363454" role="graphics-symbol" aria-roledescription="point" transform="translate(15.5,75.9738957142857)" d="M2.7386127875258306,0A2.7386127875258306,2.7386127875258306,0,1,1,-2.7386127875258306,0A2.7386127875258306,2.7386127875258306,0,1,1,2.7386127875258306,0" fill="#0F3C5F" stroke-width="2" opacity="0.7"></path><path aria-label="condition: object; : object; Target - Non-target Correlation: -0.11935913" role="graphics-symbol" aria-roledescription="point" transform="translate(40.5,113.82794999999999)" d="M2.7386127875258306,0A2.7386127875258306,2.7386127875258306,0,1,1,-2.7386127875258306,0A2.7386127875258306,2.7386127875258306,0,1,1,2.7386127875258306,0" fill="#687B3E" stroke-width="2" opacity="0.7"></path><path aria-label="condition: spatial; : spatial; Target - Non-target Correlation: -0.13005291" role="graphics-symbol" aria-roledescription="point" transform="translate(65.5,121.46636428571429)" d="M2.7386127875258306,0A2.7386127875258306,2.7386127875258306,0,1,1,-2.7386127875258306,0A2.7386127875258306,2.7386127875258306,0,1,1,2.7386127875258306,0" fill="#EB9A60" stroke-width="2" opacity="0.7"></path><path aria-label="condition: global; : global; Target - Non-target Correlation: -0.048506048" role="graphics-symbol" aria-roledescription="point" transform="translate(15.5,63.2186057142857)" d="M2.7386127875258306,0A2.7386127875258306,2.7386127875258306,0,1,1,-2.7386127875258306,0A2.7386127875258306,2.7386127875258306,0,1,1,2.7386127875258306,0" fill="#0F3C5F" stroke-width="2" opacity="0.7"></path><path aria-label="condition: object; : object; Target - Non-target Correlation: -0.02426147" role="graphics-symbol" aria-roledescription="point" transform="translate(40.5,45.90105)" d="M2.7386127875258306,0A2.7386127875258306,2.7386127875258306,0,1,1,-2.7386127875258306,0A2.7386127875258306,2.7386127875258306,0,1,1,2.7386127875258306,0" fill="#687B3E" stroke-width="2" opacity="0.7"></path><path aria-label="condition: spatial; : spatial; Target - Non-target Correlation: -0.04421402" role="graphics-symbol" aria-roledescription="point" transform="translate(65.5,60.152871428571416)" d="M2.7386127875258306,0A2.7386127875258306,2.7386127875258306,0,1,1,-2.7386127875258306,0A2.7386127875258306,2.7386127875258306,0,1,1,2.7386127875258306,0" fill="#EB9A60" stroke-width="2" opacity="0.7"></path><path aria-label="condition: global; : global; Target - Non-target Correlation: -0.07916308" role="graphics-symbol" aria-roledescription="point" transform="translate(15.5,85.11648571428572)" d="M2.7386127875258306,0A2.7386127875258306,2.7386127875258306,0,1,1,-2.7386127875258306,0A2.7386127875258306,2.7386127875258306,0,1,1,2.7386127875258306,0" fill="#0F3C5F" stroke-width="2" opacity="0.7"></path><path aria-label="condition: object; : object; Target - Non-target Correlation: -0.08039517" role="graphics-symbol" aria-roledescription="point" transform="translate(40.5,85.99655000000001)" d="M2.7386127875258306,0A2.7386127875258306,2.7386127875258306,0,1,1,-2.7386127875258306,0A2.7386127875258306,2.7386127875258306,0,1,1,2.7386127875258306,0" fill="#687B3E" stroke-width="2" opacity="0.7"></path><path aria-label="condition: spatial; : spatial; Target - Non-target Correlation: -0.11975865" role="graphics-symbol" aria-roledescription="point" transform="translate(65.5,114.11332142857142)" d="M2.7386127875258306,0A2.7386127875258306,2.7386127875258306,0,1,1,-2.7386127875258306,0A2.7386127875258306,2.7386127875258306,0,1,1,2.7386127875258306,0" fill="#EB9A60" stroke-width="2" opacity="0.7"></path><path aria-label="condition: global; : global; Target - Non-target Correlation: -0.081149444" role="graphics-symbol" aria-roledescription="point" transform="translate(15.5,86.53531714285714)" d="M2.7386127875258306,0A2.7386127875258306,2.7386127875258306,0,1,1,-2.7386127875258306,0A2.7386127875258306,2.7386127875258306,0,1,1,2.7386127875258306,0" fill="#0F3C5F" stroke-width="2" opacity="0.7"></path><path aria-label="condition: object; : object; Target - Non-target Correlation: -0.14930616" role="graphics-symbol" aria-roledescription="point" transform="translate(40.5,135.21868571428573)" d="M2.7386127875258306,0A2.7386127875258306,2.7386127875258306,0,1,1,-2.7386127875258306,0A2.7386127875258306,2.7386127875258306,0,1,1,2.7386127875258306,0" fill="#687B3E" stroke-width="2" opacity="0.7"></path><path aria-label="condition: spatial; : spatial; Target - Non-target Correlation: -0.15077662" role="graphics-symbol" aria-roledescription="point" transform="translate(65.5,136.26901428571426)" d="M2.7386127875258306,0A2.7386127875258306,2.7386127875258306,0,1,1,-2.7386127875258306,0A2.7386127875258306,2.7386127875258306,0,1,1,2.7386127875258306,0" fill="#EB9A60" stroke-width="2" opacity="0.7"></path><path aria-label="condition: global; : global; Target - Non-target Correlation: -0.07738133" role="graphics-symbol" aria-roledescription="point" transform="translate(15.5,83.84380714285713)" d="M2.7386127875258306,0A2.7386127875258306,2.7386127875258306,0,1,1,-2.7386127875258306,0A2.7386127875258306,2.7386127875258306,0,1,1,2.7386127875258306,0" fill="#0F3C5F" stroke-width="2" opacity="0.7"></path><path aria-label="condition: object; : object; Target - Non-target Correlation: -0.11189176" role="graphics-symbol" aria-roledescription="point" transform="translate(40.5,108.49411428571428)" d="M2.7386127875258306,0A2.7386127875258306,2.7386127875258306,0,1,1,-2.7386127875258306,0A2.7386127875258306,2.7386127875258306,0,1,1,2.7386127875258306,0" fill="#687B3E" stroke-width="2" opacity="0.7"></path><path aria-label="condition: spatial; : spatial; Target - Non-target Correlation: -0.0803963" role="graphics-symbol" aria-roledescription="point" transform="translate(65.5,85.99735714285714)" d="M2.7386127875258306,0A2.7386127875258306,2.7386127875258306,0,1,1,-2.7386127875258306,0A2.7386127875258306,2.7386127875258306,0,1,1,2.7386127875258306,0" fill="#EB9A60" stroke-width="2" opacity="0.7"></path><path aria-label="condition: global; : global; Target - Non-target Correlation: -0.0961377" role="graphics-symbol" aria-roledescription="point" transform="translate(15.5,97.24121428571428)" d="M2.7386127875258306,0A2.7386127875258306,2.7386127875258306,0,1,1,-2.7386127875258306,0A2.7386127875258306,2.7386127875258306,0,1,1,2.7386127875258306,0" fill="#0F3C5F" stroke-width="2" opacity="0.7"></path><path aria-label="condition: object; : object; Target - Non-target Correlation: -0.15045813" role="graphics-symbol" aria-roledescription="point" transform="translate(40.5,136.04152142857143)" d="M2.7386127875258306,0A2.7386127875258306,2.7386127875258306,0,1,1,-2.7386127875258306,0A2.7386127875258306,2.7386127875258306,0,1,1,2.7386127875258306,0" fill="#687B3E" stroke-width="2" opacity="0.7"></path><path aria-label="condition: spatial; : spatial; Target - Non-target Correlation: -0.039234936" role="graphics-symbol" aria-roledescription="point" transform="translate(65.5,56.596382857142856)" d="M2.7386127875258306,0A2.7386127875258306,2.7386127875258306,0,1,1,-2.7386127875258306,0A2.7386127875258306,2.7386127875258306,0,1,1,2.7386127875258306,0" fill="#EB9A60" stroke-width="2" opacity="0.7"></path><path aria-label="condition: global; : global; Target - Non-target Correlation: -0.026797703" role="graphics-symbol" aria-roledescription="point" transform="translate(15.5,47.71264499999999)" d="M2.7386127875258306,0A2.7386127875258306,2.7386127875258306,0,1,1,-2.7386127875258306,0A2.7386127875258306,2.7386127875258306,0,1,1,2.7386127875258306,0" fill="#0F3C5F" stroke-width="2" opacity="0.7"></path><path aria-label="condition: object; : object; Target - Non-target Correlation: -0.1305049" role="graphics-symbol" aria-roledescription="point" transform="translate(40.5,121.7892142857143)" d="M2.7386127875258306,0A2.7386127875258306,2.7386127875258306,0,1,1,-2.7386127875258306,0A2.7386127875258306,2.7386127875258306,0,1,1,2.7386127875258306,0" fill="#687B3E" stroke-width="2" opacity="0.7"></path><path aria-label="condition: spatial; : spatial; Target - Non-target Correlation: 0.021541437" role="graphics-symbol" aria-roledescription="point" transform="translate(65.5,13.18468785714284)" d="M2.7386127875258306,0A2.7386127875258306,2.7386127875258306,0,1,1,-2.7386127875258306,0A2.7386127875258306,2.7386127875258306,0,1,1,2.7386127875258306,0" fill="#EB9A60" stroke-width="2" opacity="0.7"></path><path aria-label="condition: global; : global; Target - Non-target Correlation: -0.074896194" role="graphics-symbol" aria-roledescription="point" transform="translate(15.5,82.06871)" d="M2.7386127875258306,0A2.7386127875258306,2.7386127875258306,0,1,1,-2.7386127875258306,0A2.7386127875258306,2.7386127875258306,0,1,1,2.7386127875258306,0" fill="#0F3C5F" stroke-width="2" opacity="0.7"></path><path aria-label="condition: object; : object; Target - Non-target Correlation: -0.09149662" role="graphics-symbol" aria-roledescription="point" transform="translate(40.5,93.92615714285715)" d="M2.7386127875258306,0A2.7386127875258306,2.7386127875258306,0,1,1,-2.7386127875258306,0A2.7386127875258306,2.7386127875258306,0,1,1,2.7386127875258306,0" fill="#687B3E" stroke-width="2" opacity="0.7"></path><path aria-label="condition: spatial; : spatial; Target - Non-target Correlation: -0.22897178" role="graphics-symbol" aria-roledescription="point" transform="translate(65.5,192.12270000000004)" d="M2.7386127875258306,0A2.7386127875258306,2.7386127875258306,0,1,1,-2.7386127875258306,0A2.7386127875258306,2.7386127875258306,0,1,1,2.7386127875258306,0" fill="#EB9A60" stroke-width="2" opacity="0.7"></path><path aria-label="condition: global; : global; Target - Non-target Correlation: -0.088029176" role="graphics-symbol" aria-roledescription="point" transform="translate(15.5,91.44941142857141)" d="M2.7386127875258306,0A2.7386127875258306,2.7386127875258306,0,1,1,-2.7386127875258306,0A2.7386127875258306,2.7386127875258306,0,1,1,2.7386127875258306,0" fill="#0F3C5F" stroke-width="2" opacity="0.7"></path><path aria-label="condition: object; : object; Target - Non-target Correlation: -0.11848455" role="graphics-symbol" aria-roledescription="point" transform="translate(40.5,113.20324999999998)" d="M2.7386127875258306,0A2.7386127875258306,2.7386127875258306,0,1,1,-2.7386127875258306,0A2.7386127875258306,2.7386127875258306,0,1,1,2.7386127875258306,0" fill="#687B3E" stroke-width="2" opacity="0.7"></path><path aria-label="condition: spatial; : spatial; Target - Non-target Correlation: -0.21794145" role="graphics-symbol" aria-roledescription="point" transform="translate(65.5,184.24389285714287)" d="M2.7386127875258306,0A2.7386127875258306,2.7386127875258306,0,1,1,-2.7386127875258306,0A2.7386127875258306,2.7386127875258306,0,1,1,2.7386127875258306,0" fill="#EB9A60" stroke-width="2" opacity="0.7"></path><path aria-label="condition: global; : global; Target - Non-target Correlation: -0.09404257" role="graphics-symbol" aria-roledescription="point" transform="translate(15.5,95.74469285714284)" d="M2.7386127875258306,0A2.7386127875258306,2.7386127875258306,0,1,1,-2.7386127875258306,0A2.7386127875258306,2.7386127875258306,0,1,1,2.7386127875258306,0" fill="#0F3C5F" stroke-width="2" opacity="0.7"></path><path aria-label="condition: object; : object; Target - Non-target Correlation: 0.018796599" role="graphics-symbol" aria-roledescription="point" transform="translate(40.5,15.145286428571403)" d="M2.7386127875258306,0A2.7386127875258306,2.7386127875258306,0,1,1,-2.7386127875258306,0A2.7386127875258306,2.7386127875258306,0,1,1,2.7386127875258306,0" fill="#687B3E" stroke-width="2" opacity="0.7"></path><path aria-label="condition: spatial; : spatial; Target - Non-target Correlation: -0.23689058" role="graphics-symbol" aria-roledescription="point" transform="translate(65.5,197.7789857142857)" d="M2.7386127875258306,0A2.7386127875258306,2.7386127875258306,0,1,1,-2.7386127875258306,0A2.7386127875258306,2.7386127875258306,0,1,1,2.7386127875258306,0" fill="#EB9A60" stroke-width="2" opacity="0.7"></path><path aria-label="condition: global; : global; Target - Non-target Correlation: -0.06322542" role="graphics-symbol" aria-roledescription="point" transform="translate(15.5,73.73244285714284)" d="M2.7386127875258306,0A2.7386127875258306,2.7386127875258306,0,1,1,-2.7386127875258306,0A2.7386127875258306,2.7386127875258306,0,1,1,2.7386127875258306,0" fill="#0F3C5F" stroke-width="2" opacity="0.7"></path><path aria-label="condition: object; : object; Target - Non-target Correlation: -0.19635862" role="graphics-symbol" aria-roledescription="point" transform="translate(40.5,168.82758571428573)" d="M2.7386127875258306,0A2.7386127875258306,2.7386127875258306,0,1,1,-2.7386127875258306,0A2.7386127875258306,2.7386127875258306,0,1,1,2.7386127875258306,0" fill="#687B3E" stroke-width="2" opacity="0.7"></path><path aria-label="condition: spatial; : spatial; Target - Non-target Correlation: -0.12866494" role="graphics-symbol" aria-roledescription="point" transform="translate(65.5,120.47495714285714)" d="M2.7386127875258306,0A2.7386127875258306,2.7386127875258306,0,1,1,-2.7386127875258306,0A2.7386127875258306,2.7386127875258306,0,1,1,2.7386127875258306,0" fill="#EB9A60" stroke-width="2" opacity="0.7"></path></g><g class="mark-rule role-mark layer_0_layer_2_marks" role="graphics-object" aria-roledescription="rule mark container"><line aria-label=": global; Ci0 of cordiff: -0.0849973258641; Ci1 of cordiff: -0.0631664533469" role="graphics-symbol" aria-roledescription="rule mark" transform="translate(9.5,89.28380418861606)" x2="0" y2="-15.593480369419652" stroke="black"></line><line aria-label=": object; Ci0 of cordiff: -0.121148021063; Ci1 of cordiff: -0.0738618629562" role="graphics-symbol" aria-roledescription="rule mark" transform="translate(34.5,115.10572933035716)" x2="0" y2="-33.775827218750024" stroke="black"></line><line aria-label=": spatial; Ci0 of cordiff: -0.164404739286; Ci1 of cordiff: -0.0879799368219" role="graphics-symbol" aria-roledescription="rule mark" transform="translate(59.5,146.00338520424106)" x2="0" y2="-54.589144617187486" stroke="black"></line></g></g><path class="foreground" aria-hidden="true" d="" display="none"></path></g></g></g></svg>
