<?xml version="1.0" encoding="utf-8"?>
<!DOCTYPE svg PUBLIC "-//W3C//DTD SVG 1.1//EN" "http://www.w3.org/Graphics/SVG/1.1/DTD/svg11.dtd">
<svg class="marks" width="242" height="207" viewBox="0 0 242 207" version="1.1" xmlns="http://www.w3.org/2000/svg" xmlns:xlink="http://www.w3.org/1999/xlink"><defs><clipPath id="clip1"><rect x="0" y="0" width="80" height="130"></rect></clipPath><clipPath id="clip2"><rect x="0" y="0" width="80" height="130"></rect></clipPath><clipPath id="clip3"><rect x="0" y="0" width="80" height="130"></rect></clipPath><clipPath id="clip4"><rect x="0" y="0" width="80" height="130"></rect></clipPath><clipPath id="clip5"><rect x="0" y="0" width="80" height="130"></rect></clipPath><clipPath id="clip6"><rect x="0" y="0" width="80" height="130"></rect></clipPath><clipPath id="clip7"><rect x="0" y="0" width="80" height="130"></rect></clipPath><clipPath id="clip8"><rect x="0" y="0" width="80" height="130"></rect></clipPath><clipPath id="clip9"><rect x="0" y="0" width="80" height="130"></rect></clipPath><clipPath id="clip10"><rect x="0" y="0" width="80" height="130"></rect></clipPath><clipPath id="clip11"><rect x="0" y="0" width="80" height="130"></rect></clipPath><clipPath id="clip12"><rect x="0" y="0" width="80" height="130"></rect></clipPath></defs><rect width="242" height="207" fill="white"></rect><g fill="none" stroke-miterlimit="10" transform="translate(43,26)"><g class="mark-group role-frame root" role="graphics-object" aria-roledescription="group mark container"><g transform="translate(0,0)"><path class="background" aria-hidden="true" d="M0,0h0v0h0Z"></path><g><g class="mark-group role-row-header row_header" role="graphics-object" aria-roledescription="group mark container"><g transform="translate(-1,0)"><path class="background" aria-hidden="true" d="M0,0h0v130h0Z"></path><g><g class="mark-group role-axis" role="graphics-symbol" aria-roledescription="axis" aria-label="Y-axis titled 'Hit Rate' for a linear scale with values from 0.5 to 1.0"><g transform="translate(0.5,0.5)"><path class="background" aria-hidden="true" d="M0,0h0v0h0Z" pointer-events="none"></path><g><g class="mark-rule role-axis-tick" pointer-events="none"><line transform="translate(0,130)" x2="-5" y2="0" stroke="#888" stroke-width="1" opacity="1"></line><line transform="translate(0,104)" x2="-5" y2="0" stroke="#888" stroke-width="1" opacity="1"></line><line transform="translate(0,78)" x2="-5" y2="0" stroke="#888" stroke-width="1" opacity="1"></line><line transform="translate(0,52)" x2="-5" y2="0" stroke="#888" stroke-width="1" opacity="1"></line><line transform="translate(0,26)" x2="-5" y2="0" stroke="#888" stroke-width="1" opacity="1"></line><line transform="translate(0,0)" x2="-5" y2="0" stroke="#888" stroke-width="1" opacity="1"></line></g><g class="mark-text role-axis-label" pointer-events="none"><text text-anchor="end" transform="translate(-7,133)" font-family="sans-serif" font-size="10px" fill="#000" opacity="1">0.5</text><text text-anchor="end" transform="translate(-7,107)" font-family="sans-serif" font-size="10px" fill="#000" opacity="1">0.6</text><text text-anchor="end" transform="translate(-7,81.00000000000001)" font-family="sans-serif" font-size="10px" fill="#000" opacity="1">0.7</text><text text-anchor="end" transform="translate(-7,54.999999999999986)" font-family="sans-serif" font-size="10px" fill="#000" opacity="1">0.8</text><text text-anchor="end" transform="translate(-7,28.999999999999993)" font-family="sans-serif" font-size="10px" fill="#000" opacity="1">0.9</text><text text-anchor="end" transform="translate(-7,3)" font-family="sans-serif" font-size="10px" fill="#000" opacity="1">1.0</text></g><g class="mark-rule role-axis-domain" pointer-events="none"><line transform="translate(0,130)" x2="0" y2="-130" stroke="#888" stroke-width="1" opacity="1"></line></g><g class="mark-text role-axis-title" pointer-events="none"><text text-anchor="middle" transform="translate(-26,65) rotate(-90) translate(0,-2)" font-family="sans-serif" font-size="11px" font-weight="bold" fill="#000" opacity="1">Hit Rate</text></g></g><path class="foreground" aria-hidden="true" d="" pointer-events="none" display="none"></path></g></g></g><path class="foreground" aria-hidden="true" d="" display="none"></path></g></g><g class="mark-group role-column-header column_header" role="graphics-object" aria-roledescription="group mark container"><g transform="translate(0,-1)"><path class="background" aria-hidden="true" d="M0,0h80v0h-80Z"></path><g><g class="mark-group role-title"><g transform="translate(40,-20)"><path class="background" aria-hidden="true" d="M0,0h0v0h0Z" pointer-events="none"></path><g><g class="mark-text role-title-text" role="graphics-symbol" aria-roledescription="title" aria-label="Title text 'early'" pointer-events="none"><text text-anchor="middle" transform="translate(0,8)" font-family="sans-serif" font-size="10px" font-weight="bold" fill="#000" opacity="1">early</text></g></g><path class="foreground" aria-hidden="true" d="" pointer-events="none" display="none"></path></g></g></g><path class="foreground" aria-hidden="true" d="" display="none"></path></g><g transform="translate(98,-1)"><path class="background" aria-hidden="true" d="M0,0h80v0h-80Z"></path><g><g class="mark-group role-title"><g transform="translate(40,-20)"><path class="background" aria-hidden="true" d="M0,0h0v0h0Z" pointer-events="none"></path><g><g class="mark-text role-title-text" role="graphics-symbol" aria-roledescription="title" aria-label="Title text 'late'" pointer-events="none"><text text-anchor="middle" transform="translate(0,8)" font-family="sans-serif" font-size="10px" font-weight="bold" fill="#000" opacity="1">late</text></g></g><path class="foreground" aria-hidden="true" d="" pointer-events="none" display="none"></path></g></g></g><path class="foreground" aria-hidden="true" d="" display="none"></path></g></g><g class="mark-group role-column-footer column_footer" role="graphics-object" aria-roledescription="group mark container"><g transform="translate(0,131)"><path class="background" aria-hidden="true" d="M0,0h80v0h-80Z"></path><g><g class="mark-group role-axis" role="graphics-symbol" aria-roledescription="axis" aria-label="X-axis titled 'Time after Switch (s)' for a linear scale with values from 0.0 to 1.3"><g transform="translate(0.5,0.5)"><path class="background" aria-hidden="true" d="M0,0h0v0h0Z" pointer-events="none"></path><g><g class="mark-rule role-axis-tick" pointer-events="none"><line transform="translate(0,0)" x2="0" y2="5" stroke="#888" stroke-width="1" opacity="1"></line><line transform="translate(31,0)" x2="0" y2="5" stroke="#888" stroke-width="1" opacity="1"></line><line transform="translate(62,0)" x2="0" y2="5" stroke="#888" stroke-width="1" opacity="1"></line></g><g class="mark-text role-axis-label" pointer-events="none"><text text-anchor="start" transform="translate(0,15)" font-family="sans-serif" font-size="10px" fill="#000" opacity="1">0.0</text><text text-anchor="middle" transform="translate(30.769230769230766,15)" font-family="sans-serif" font-size="10px" fill="#000" opacity="1">0.5</text><text text-anchor="middle" transform="translate(61.53846153846153,15)" font-family="sans-serif" font-size="10px" fill="#000" opacity="1">1.0</text></g><g class="mark-rule role-axis-domain" pointer-events="none"><line transform="translate(0,0)" x2="80" y2="0" stroke="#888" stroke-width="1" opacity="1"></line></g><g class="mark-text role-axis-title" pointer-events="none"><text text-anchor="middle" transform="translate(40,30)" font-family="sans-serif" font-size="11px" font-weight="bold" fill="#000" opacity="1"><tspan>Time after</tspan><tspan x="0" dy="13">Switch (s)</tspan></text></g></g><path class="foreground" aria-hidden="true" d="" pointer-events="none" display="none"></path></g></g></g><path class="foreground" aria-hidden="true" d="" display="none"></path></g><g transform="translate(98,131)"><path class="background" aria-hidden="true" d="M0,0h80v0h-80Z"></path><g><g class="mark-group role-axis" role="graphics-symbol" aria-roledescription="axis" aria-label="X-axis titled 'Time after Switch (s)' for a linear scale with values from 0.0 to 1.3"><g transform="translate(0.5,0.5)"><path class="background" aria-hidden="true" d="M0,0h0v0h0Z" pointer-events="none"></path><g><g class="mark-rule role-axis-tick" pointer-events="none"><line transform="translate(0,0)" x2="0" y2="5" stroke="#888" stroke-width="1" opacity="1"></line><line transform="translate(31,0)" x2="0" y2="5" stroke="#888" stroke-width="1" opacity="1"></line><line transform="translate(62,0)" x2="0" y2="5" stroke="#888" stroke-width="1" opacity="1"></line></g><g class="mark-text role-axis-label" pointer-events="none"><text text-anchor="start" transform="translate(0,15)" font-family="sans-serif" font-size="10px" fill="#000" opacity="1">0.0</text><text text-anchor="middle" transform="translate(30.769230769230766,15)" font-family="sans-serif" font-size="10px" fill="#000" opacity="1">0.5</text><text text-anchor="middle" transform="translate(61.53846153846153,15)" font-family="sans-serif" font-size="10px" fill="#000" opacity="1">1.0</text></g><g class="mark-rule role-axis-domain" pointer-events="none"><line transform="translate(0,0)" x2="80" y2="0" stroke="#888" stroke-width="1" opacity="1"></line></g><g class="mark-text role-axis-title" pointer-events="none"><text text-anchor="middle" transform="translate(40,30)" font-family="sans-serif" font-size="11px" font-weight="bold" fill="#000" opacity="1"><tspan>Time after</tspan><tspan x="0" dy="13">Switch (s)</tspan></text></g></g><path class="foreground" aria-hidden="true" d="" pointer-events="none" display="none"></path></g></g></g><path class="foreground" aria-hidden="true" d="" display="none"></path></g></g><g class="mark-group role-scope cell" role="graphics-object" aria-roledescription="group mark container"><g transform="translate(0,0)"><path class="background" aria-hidden="true" d="M0.5,0.5h80v130h-80Z" stroke="#ddd"></path><g><g class="mark-group role-axis" aria-hidden="true"><g transform="translate(0.5,130.5)"><path class="background" aria-hidden="true" d="M0,0h0v0h0Z" pointer-events="none"></path><g><g class="mark-rule role-axis-grid" pointer-events="none"><line transform="translate(0,-130)" x2="0" y2="130" stroke="#ddd" stroke-width="1" opacity="1"></line><line transform="translate(31,-130)" x2="0" y2="130" stroke="#ddd" stroke-width="1" opacity="1"></line><line transform="translate(62,-130)" x2="0" y2="130" stroke="#ddd" stroke-width="1" opacity="1"></line></g></g><path class="foreground" aria-hidden="true" d="" pointer-events="none" display="none"></path></g></g><g class="mark-group role-axis" aria-hidden="true"><g transform="translate(0.5,0.5)"><path class="background" aria-hidden="true" d="M0,0h0v0h0Z" pointer-events="none"></path><g><g class="mark-rule role-axis-grid" pointer-events="none"><line transform="translate(0,130)" x2="80" y2="0" stroke="#ddd" stroke-width="1" opacity="1"></line><line transform="translate(0,104)" x2="80" y2="0" stroke="#ddd" stroke-width="1" opacity="1"></line><line transform="translate(0,78)" x2="80" y2="0" stroke="#ddd" stroke-width="1" opacity="1"></line><line transform="translate(0,52)" x2="80" y2="0" stroke="#ddd" stroke-width="1" opacity="1"></line><line transform="translate(0,26)" x2="80" y2="0" stroke="#ddd" stroke-width="1" opacity="1"></line><line transform="translate(0,0)" x2="80" y2="0" stroke="#ddd" stroke-width="1" opacity="1"></line></g></g><path class="foreground" aria-hidden="true" d="" pointer-events="none" display="none"></path></g></g><g class="mark-group role-scope child_layer_0_pathgroup" role="graphics-object" aria-roledescription="group mark container"><g transform="translate(0,0)"><path class="background" aria-hidden="true" d="M0,0h80v130h-80Z"></path><g><g class="mark-trail role-mark child_layer_0_marks" clip-path="url(#clip1)" role="graphics-object" aria-roledescription="trail mark container"><path aria-label="condition: Global; Time after, Switch (s): 0.00507936507937; Hit Rate: 0.583333333333; weight: 73" role="graphics-symbol" aria-roledescription="trail mark" d="M0.3125763125763495,107.52222222222221L0.8330716902145462,107.52222222222221A0.8111111111111111,0.8111111111111111,0,1,1,0.8330716902145462,109.14444444444445L0.3125763125763495,109.14444444444445A0.8111111111111111,0.8111111111111111,0,1,1,0.3125763125763493,107.52222222222221ZM1.5417150091632463,107.93871214652594L4.5446802978428105,113.33130473911855A0.8111111111111111,0.8111111111111111,0,1,1,3.1273936599454104,114.12054711273332L0.12442837126584605,108.72795452014071A0.8111111111111111,0.8111111111111111,0,1,1,1.541715009163246,107.93871214652594ZM3.067248532365504,113.46734216956828L5.876988247307187,104.76525307052384A0.9222222222222223,0.9222222222222223,0,1,1,7.625192112016075,105.35326544799466L4.6048254254227174,113.98450968228359A0.8111111111111111,0.8111111111111111,0,1,1,3.067248532365504,113.46734216956828ZM6.751090179661631,104.13703703703703L7.493458922030368,104.13703703703703A0.9222222222222223,0.9222222222222223,0,1,1,7.493458922030368,105.98148148148147L6.751090179661631,105.98148148148147A0.9222222222222223,0.9222222222222223,0,1,1,6.751090179661631,104.13703703703703ZM7.493458922030368,104.13703703703703L7.845107273678707,104.13703703703703A0.9222222222222223,0.9222222222222223,0,1,1,7.845107273678707,105.98148148148147L7.493458922030368,105.98148148148147A0.9222222222222223,0.9222222222222223,0,1,1,7.493458922030368,104.13703703703703ZM7.845107273678707,104.13703703703703L8.376068376068368,104.13703703703703A0.9222222222222223,0.9222222222222223,0,1,1,8.376068376068368,105.98148148148147L7.845107273678707,105.98148148148147A0.9222222222222223,0.9222222222222223,0,1,1,7.845107273678707,104.13703703703703ZM8.376068376068368,104.13703703703703L10.536891679748798,104.13703703703703A0.9222222222222223,0.9222222222222223,0,1,1,10.536891679748798,105.98148148148147L8.376068376068368,105.98148148148147A0.9222222222222223,0.9222222222222223,0,1,1,8.376068376068368,104.13703703703703ZM10.536891679748798,104.13703703703703L12.922379208093478,104.13703703703703A0.9222222222222223,0.9222222222222223,0,1,1,12.922379208093478,105.98148148148147L10.536891679748798,105.98148148148147A0.9222222222222223,0.9222222222222223,0,1,1,10.536891679748798,104.13703703703703ZM12.120001864417919,104.60463367098177L12.938421539980473,103.16018922653733A0.9222222222222223,0.9222222222222223,0,1,1,14.54317622733159,104.06944040309229L13.724756551769037,105.51388484753673A0.9222222222222223,0.9222222222222223,0,1,1,12.120001864417919,104.60463367098177ZM13.740798883656032,102.69259259259259L16.379556950985535,102.69259259259259A0.9222222222222223,0.9222222222222223,0,1,1,16.379556950985535,104.53703703703702L13.740798883656032,104.53703703703702A0.9222222222222223,0.9222222222222223,0,1,1,13.740798883656032,102.69259259259259ZM15.796999563370873,102.89988774350188L19.86717747959387,99.48297893268102A1,1,0,1,1,21.13055494671,101.03342318372111L16.962114338600195,104.32974188612774A0.9222222222222223,0.9222222222222223,0,1,1,15.796999563370873,102.89988774350188ZM21.283858063770698,99.63869496907672L23.381887018942518,102.29716057754233A1,1,0,1,1,21.811903317704992,103.53617275579101L19.713874362533172,100.87770714732541A1,1,0,0,1,21.283858063770698,99.63869496907672ZM22.596895168323755,101.91666666666667L24.11651840223268,101.91666666666667A1,1,0,1,1,24.11651840223268,103.91666666666667L22.596895168323755,103.91666666666667A1,1,0,1,1,22.596895168323755,101.91666666666667ZM23.581604636972035,102.07176000689017L25.102623300847817,101.10879704392723A1,1,0,1,1,26.172450831369105,102.79861036348022L24.651432167493322,103.76157332644317A1,1,0,0,1,23.581604636972035,102.07176000689017ZM25.335240619155666,101.0004897412799L28.37169622703988,100.03752677831696A1,1,0,1,1,28.97628912094547,101.9439547031646L25.939833513061256,102.90691766612754A1,1,0,1,1,25.335240619155666,101.0004897412799ZM27.687368108860483,100.82773163830257L30.822201529408204,81.85392211449303A1,1,0,1,1,32.79545065967259,82.17994031936945L29.660617239124868,101.15374984317899A1,1,0,1,1,27.687368108860483,100.82773163830257ZM32.101941054523294,81.06085401281317L34.83907693451628,81.90000745196662A1,1,0,1,1,34.25284701455049,83.81216186020276L31.515711134557503,82.97300842104931A1,1,0,1,1,32.101941054523294,81.06085401281317ZM35.326438308761084,82.23089933019284L37.40911753429742,84.83089933019284A1,1,0,1,1,35.84816486584202,86.08126998197653L33.765485640305684,83.48126998197654A1,1,0,1,1,35.326438308761084,82.23089933019284ZM35.70447158499906,85.07410229709392L37.569463735705526,80.56193298492461A1,1,0,1,1,39.417802965846846,81.32589770290615L37.55281081514038,85.83806701507545A1,1,0,1,1,35.70447158499906,85.07410229709392ZM38.493633350776186,79.94391534391538L40.54561311704169,79.94391534391538A1,1,0,1,1,40.54561311704169,81.94391534391538L38.493633350776186,81.94391534391538A1,1,0,1,1,38.493633350776186,79.94391534391538ZM40.54561311704169,79.94391534391538L41.15541601255886,79.94391534391538A1,1,0,1,1,41.15541601255886,81.94391534391538L40.54561311704169,81.94391534391538A1,1,0,1,1,40.54561311704169,79.94391534391538ZM41.15541601255886,79.94391534391538L41.847549276120674,79.94391534391538A1,1,0,1,1,41.847549276120674,81.94391534391538L41.15541601255886,81.94391534391538A1,1,0,1,1,41.15541601255886,79.94391534391538ZM41.847549276120674,79.94391534391538L42.72667015524157,79.94391534391538A1,1,0,1,1,42.72667015524157,81.94391534391538L41.847549276120674,81.94391534391538A1,1,0,1,1,41.847549276120674,79.94391534391538ZM41.97581071553337,80.28345330730684L46.174659485810714,75.50990833376187A1,1,0,1,1,47.676378365227116,76.83083240697894L43.47752959494977,81.60437738052391A1,1,0,1,1,41.97581071553337,80.28345330730684ZM47.15173287307271,75.19629272976258L51.29825301959286,76.15925569272552A1,1,0,1,1,50.845825124485266,78.10741097394119L46.69930497796512,77.14444801097824A1,1,0,1,1,47.15173287307272,75.19629272976258ZM51.07203907203907,76.13333333333335L53.37310308738879,76.13333333333335A1,1,0,1,1,53.37310308738879,78.13333333333335L51.07203907203907,78.13333333333335A1,1,0,1,1,51.07203907203907,76.13333333333335ZM53.25272845328199,76.1406047966912L56.8264245984067,75.70727146335787A1,1,0,1,1,57.06717386662031,77.69272853664216L53.493477721495594,78.1260618699755A1,1,0,1,1,53.25272845328199,76.1406047966912ZM56.946799232513506,75.70000000000002L59.32391418105701,75.70000000000002A1,1,0,1,1,59.32391418105701,77.70000000000002L56.946799232513506,77.70000000000002A1,1,0,1,1,56.946799232513506,75.70000000000002ZM59.32391418105701,75.70000000000002L60.01534972963544,75.70000000000002A1,1,0,1,1,60.01534972963544,77.70000000000002L59.32391418105701,77.70000000000002A1,1,0,1,1,59.32391418105701,75.70000000000002Z" fill="#0F3C5F"></path></g></g><path class="foreground" aria-hidden="true" d="" display="none"></path></g><g transform="translate(0,0)"><path class="background" aria-hidden="true" d="M0,0h80v130h-80Z"></path><g><g class="mark-trail role-mark child_layer_0_marks" clip-path="url(#clip2)" role="graphics-object" aria-roledescription="trail mark container"><path aria-label="condition: Spatial; Time after, Switch (s): 0.00507936507937; Hit Rate: 0.603703703704; weight: 73" role="graphics-symbol" aria-roledescription="trail mark" d="M0.3125763125763495,102.22592592592594L0.8330716902145462,102.22592592592594A0.8111111111111111,0.8111111111111111,0,1,1,0.8330716902145462,103.84814814814817L0.3125763125763495,103.84814814814817A0.8111111111111111,0.8111111111111111,0,1,1,0.3125763125763493,102.22592592592594ZM0.27073967558292067,102.45249966450366L3.2737049642624854,99.56361077561476A0.8111111111111111,0.8111111111111111,0,1,1,4.398368993525736,100.73268552068154L1.3954037048461716,103.62157440957044A0.8111111111111111,0.8111111111111111,0,1,1,0.27073967558292056,102.45249966450366ZM3.0409552629392884,99.9876916134659L5.847093160151354,85.52126682180473A0.9222222222222223,0.9222222222222223,0,1,1,7.655087199171908,85.88614058560272L4.631118694848933,100.3086046828304A0.8111111111111111,0.8111111111111111,0,1,1,3.0409552629392884,99.9876916134659ZM6.751090179661631,84.7814814814815L7.493458922030368,84.7814814814815A0.9222222222222223,0.9222222222222223,0,1,1,7.493458922030368,86.62592592592594L6.751090179661631,86.62592592592594A0.9222222222222223,0.9222222222222223,0,1,1,6.751090179661631,84.7814814814815ZM7.493458922030368,84.7814814814815L7.845107273678707,84.7814814814815A0.9222222222222223,0.9222222222222223,0,1,1,7.845107273678707,86.62592592592594L7.493458922030368,86.62592592592594A0.9222222222222223,0.9222222222222223,0,1,1,7.493458922030368,84.7814814814815ZM7.845107273678707,84.7814814814815L8.376068376068368,84.7814814814815A0.9222222222222223,0.9222222222222223,0,1,1,8.376068376068368,86.62592592592594L7.845107273678707,86.62592592592594A0.9222222222222223,0.9222222222222223,0,1,1,7.845107273678707,84.7814814814815ZM8.376068376068368,84.7814814814815L10.536891679748798,84.7814814814815A0.9222222222222223,0.9222222222222223,0,1,1,10.536891679748798,86.62592592592594L8.376068376068368,86.62592592592594A0.9222222222222223,0.9222222222222223,0,1,1,8.376068376068368,84.7814814814815ZM10.536891679748798,84.7814814814815L12.922379208093478,84.7814814814815A0.9222222222222223,0.9222222222222223,0,1,1,12.922379208093478,86.62592592592594L10.536891679748798,86.62592592592594A0.9222222222222223,0.9222222222222223,0,1,1,10.536891679748798,84.7814814814815ZM12.120001864417919,85.24907811542624L12.938421539980473,83.8046336709818A0.9222222222222223,0.9222222222222223,0,1,1,14.54317622733159,84.71388484753676L13.724756551769037,86.1583292919812A0.9222222222222223,0.9222222222222223,0,1,1,12.120001864417919,85.24907811542624ZM13.740798883656032,83.33703703703706L16.379556950985535,83.33703703703706A0.9222222222222223,0.9222222222222223,0,1,1,16.379556950985535,85.1814814814815L13.740798883656032,85.1814814814815A0.9222222222222223,0.9222222222222223,0,1,1,13.740798883656032,83.33703703703706ZM15.589630211480381,83.78332904024052L19.642319146218636,76.90615331003318A1,1,0,1,1,21.355413280085234,77.93829113441123L17.169483690490686,84.73518947827804A0.9222222222222223,0.9222222222222223,0,1,1,15.589630211480381,83.78332904024052ZM21.34611334223359,76.89102329313546L23.44414229740541,80.23731958943176A1,1,0,1,1,21.7496480392421,81.29971744760525L19.65161908407028,77.95342115130894A1,1,0,0,1,21.34611334223359,76.89102329313546ZM22.596895168323755,79.7685185185185L24.11651840223268,79.7685185185185A1,1,0,1,1,24.11651840223268,81.7685185185185L22.596895168323755,81.7685185185185A1,1,0,1,1,22.596895168323755,79.7685185185185ZM24.651432167493336,79.92361185874202L26.17245083136912,80.88657482170501A1,1,0,1,1,25.102623300847803,82.57638814125798L23.58160463697202,81.61342517829499A1,1,0,1,1,24.651432167493336,79.92361185874202ZM25.63753706610845,80.7314814814815L28.673992673992664,80.73148148148147A1,1,0,1,1,28.673992673992686,82.73148148148147L25.63753706610847,82.7314814814815A1,1,0,1,1,25.63753706610845,80.7314814814815ZM28.803446295200196,80.73989600359454L31.938279715747917,81.14915526285381A1,1,0,1,1,31.679372473332876,83.13232621862767L28.544539052785154,82.7230669593684A1,1,0,1,1,28.803446295200196,80.73989600359454ZM32.205579717938306,81.22281560091689L34.94271559793129,82.40588438398566A1,1,0,1,1,34.14920835113548,84.24173466363337L31.41207247114249,83.05866588056459A1,1,0,0,1,32.205579717938306,81.22281560091689ZM33.553103302170115,83.20451301626194L35.63578252770645,65.87117968292861A1,1,0,1,1,37.62149987243299,66.10977269802376L35.53882064689665,83.44310603135709A1,1,0,1,1,33.553103302170115,83.20451301626194ZM35.75200686825208,65.50931899342035L37.616999018958545,62.11143539553671A1,1,0,1,1,39.37026768259383,63.073749789648396L37.505275531887364,66.47163338753202A1,1,0,1,1,35.75200686825208,65.50931899342035ZM38.493633350776186,61.59259259259255L40.54561311704169,61.59259259259255A1,1,0,1,1,40.54561311704169,63.59259259259255L38.493633350776186,63.59259259259255A1,1,0,1,1,38.493633350776186,61.59259259259255ZM40.54561311704169,61.59259259259255L41.15541601255886,61.59259259259255A1,1,0,1,1,41.15541601255886,63.59259259259255L40.54561311704169,63.59259259259255A1,1,0,1,1,40.54561311704169,61.59259259259255ZM41.15541601255886,61.59259259259255L41.847549276120674,61.59259259259255A1,1,0,1,1,41.847549276120674,63.59259259259255L41.15541601255886,63.59259259259255A1,1,0,1,1,41.15541601255886,61.59259259259255ZM41.847549276120674,61.59259259259255L42.72667015524157,61.59259259259255A1,1,0,1,1,42.72667015524157,63.59259259259255L41.847549276120674,63.59259259259255A1,1,0,1,1,41.847549276120674,61.59259259259255ZM42.0552964020834,61.851473652360745L46.254145172360744,58.04776994865706A1,1,0,1,1,47.59689267867709,59.53000782912068L43.39804390839974,63.33371153282436A1,1,0,1,1,42.0552964020834,61.851473652360745ZM47.34676623411898,57.881943077388975L51.493286380639134,59.807869003314906A1,1,0,1,1,50.650791763439,61.621760626314696L46.50427161691885,59.695834700388765A1,1,0,0,1,47.34676623411898,57.881943077388975ZM51.07203907203907,59.7148148148148L53.37310308738879,59.7148148148148A1,1,0,1,1,53.37310308738879,61.7148148148148L51.07203907203907,61.7148148148148A1,1,0,1,1,51.07203907203907,59.7148148148148ZM53.57119230201089,59.73463082032683L57.14488844713561,60.45685304254908A1,1,0,1,1,56.748710017891405,62.417221031525024L53.17501387276669,61.694998809302774A1,1,0,1,1,53.57119230201089,59.73463082032683ZM56.946799232513506,60.43703703703705L59.32391418105701,60.43703703703705A1,1,0,1,1,59.32391418105701,62.43703703703705L56.946799232513506,62.43703703703705A1,1,0,1,1,56.946799232513506,60.43703703703705ZM59.32391418105701,60.43703703703705L60.01534972963544,60.43703703703705A1,1,0,1,1,60.01534972963544,62.43703703703705L59.32391418105701,62.43703703703705A1,1,0,1,1,59.32391418105701,60.43703703703705Z" fill="#EB9A60"></path></g></g><path class="foreground" aria-hidden="true" d="" display="none"></path></g><g transform="translate(0,0)"><path class="background" aria-hidden="true" d="M0,0h80v130h-80Z"></path><g><g class="mark-trail role-mark child_layer_0_marks" clip-path="url(#clip3)" role="graphics-object" aria-roledescription="trail mark container"><path aria-label="condition: Object; Time after, Switch (s): 0.00507936507937; Hit Rate: 0.825925925926; weight: 73" role="graphics-symbol" aria-roledescription="trail mark" d="M0.3125763125763495,44.44814814814817L0.8330716902145462,44.44814814814817A0.8111111111111111,0.8111111111111111,0,1,1,0.8330716902145462,46.07037037037039L0.3125763125763495,46.07037037037039A0.8111111111111111,0.8111111111111111,0,1,1,0.3125763125763493,44.44814814814817ZM1.0807485294620296,44.48688796391728L4.083713818141594,45.44985092688023A0.8111111111111111,0.8111111111111111,0,1,1,3.5883601396466274,46.994593517564226L0.5853948509670627,46.03163055460128A0.8111111111111111,0.8111111111111111,0,1,1,1.0807485294620294,44.48688796391728ZM4.560200336405833,45.85686121416958L7.574453997106466,51.58458953878944A0.9222222222222223,0.9222222222222223,0,1,1,5.927726362216796,52.415410461210534L3.1118736213823883,46.58758323027488A0.8111111111111111,0.8111111111111111,0,1,1,4.560200336405833,45.85686121416958ZM6.751090179661631,51.07777777777776L7.493458922030368,51.07777777777776A0.9222222222222223,0.9222222222222223,0,1,1,7.493458922030368,52.92222222222221L6.751090179661631,52.92222222222221A0.9222222222222223,0.9222222222222223,0,1,1,6.751090179661631,51.07777777777776ZM7.493458922030368,51.07777777777776L7.845107273678707,51.07777777777776A0.9222222222222223,0.9222222222222223,0,1,1,7.845107273678707,52.92222222222221L7.493458922030368,52.92222222222221A0.9222222222222223,0.9222222222222223,0,1,1,7.493458922030368,51.07777777777776ZM7.845107273678707,51.07777777777776L8.376068376068368,51.07777777777776A0.9222222222222223,0.9222222222222223,0,1,1,8.376068376068368,52.92222222222221L7.845107273678707,52.92222222222221A0.9222222222222223,0.9222222222222223,0,1,1,7.845107273678707,51.07777777777776ZM8.376068376068368,51.07777777777776L10.536891679748798,51.07777777777776A0.9222222222222223,0.9222222222222223,0,1,1,10.536891679748798,52.92222222222221L8.376068376068368,52.92222222222221A0.9222222222222223,0.9222222222222223,0,1,1,8.376068376068368,51.07777777777776ZM10.536891679748798,51.07777777777776L12.922379208093478,51.07777777777776A0.9222222222222223,0.9222222222222223,0,1,1,12.922379208093478,52.92222222222221L10.536891679748798,52.92222222222221A0.9222222222222223,0.9222222222222223,0,1,1,10.536891679748798,51.07777777777776ZM12.120001864417919,51.545374411722506L12.938421539980473,50.10092996727806A0.9222222222222223,0.9222222222222223,0,1,1,14.54317622733159,51.01018114383304L13.724756551769037,52.454625588277466A0.9222222222222223,0.9222222222222223,0,1,1,12.120001864417919,51.545374411722506ZM13.740798883656032,49.633333333333326L16.379556950985535,49.633333333333326A0.9222222222222223,0.9222222222222223,0,1,1,16.379556950985535,51.477777777777774L13.740798883656032,51.477777777777774A0.9222222222222223,0.9222222222222223,0,1,1,13.740798883656032,49.633333333333326ZM17.137785255947122,50.03059492396917L21.32104148359221,55.936056585498555A1,1,0,1,1,19.67669094271166,57.07452542508347L15.621328646023947,51.08051618714193A0.9222222222222223,0.9222222222222223,0,1,1,17.137785255947122,50.03059492396917ZM21.228029820718824,55.8209515914034L23.326058775890644,58.05640132685311A1,1,0,1,1,21.867731560756866,59.42508015462834L19.769702605585046,57.18963041917863A1,1,0,1,1,21.228029820718824,55.8209515914034ZM22.596895168323755,57.740740740740726L24.11651840223268,57.740740740740726A1,1,0,1,1,24.11651840223268,59.740740740740726L22.596895168323755,59.740740740740726A1,1,0,1,1,22.596895168323755,57.740740740740726ZM23.33174480994078,58.1209581910983L24.852763473816562,56.19503226517237A1,1,0,1,1,26.42231065840036,57.43459736445722L24.901291994524577,59.36052329038315A1,1,0,1,1,23.33174480994078,58.1209581910983ZM25.55850160902908,55.8179430093532L28.594957216913294,55.57720226861247A1,1,0,1,1,28.753028131072057,57.57094587953566L25.716572523187843,57.81168662027639A1,1,0,0,1,25.55850160902908,55.8179430093532ZM27.813436695902055,56.06471819792017L30.948270116449777,50.76842190162388A1,1,0,1,1,32.66938207263102,51.78713365393166L29.534548652083295,57.08342995022795A1,1,0,1,1,27.813436695902055,56.06471819792017ZM32.43903765196771,50.501354315429396L35.1761735319607,52.72304743712254A1,1,0,1,1,33.91575041710607,54.27589436181929L31.178614537113084,52.05420124012615A1,1,0,1,1,32.43903765196771,50.501354315429396ZM33.570660073087744,53.27859491382167L35.65333929862408,44.08229861752537A1,1,0,1,1,37.60394310151536,44.524050588823854L35.521263875979024,53.72034688512016A1,1,0,1,1,33.570660073087744,53.27859491382167ZM36.816990715114954,43.321072541175845L38.68198286582142,43.67874449884777A1,1,0,1,1,38.30528383573095,45.6429486228453L36.44029168502449,45.28527666517338A1,1,0,1,1,36.816990715114954,43.321072541175845ZM38.493633350776186,43.66084656084654L40.54561311704169,43.66084656084654A1,1,0,1,1,40.54561311704169,45.66084656084654L38.493633350776186,45.66084656084654A1,1,0,1,1,38.493633350776186,43.66084656084654ZM40.54561311704169,43.66084656084654L41.15541601255886,43.66084656084654A1,1,0,1,1,41.15541601255886,45.66084656084654L40.54561311704169,45.66084656084654A1,1,0,1,1,40.54561311704169,43.66084656084654ZM41.15541601255886,43.66084656084654L41.847549276120674,43.66084656084654A1,1,0,1,1,41.847549276120674,45.66084656084654L41.15541601255886,45.66084656084654A1,1,0,1,1,41.15541601255886,43.66084656084654ZM41.847549276120674,43.66084656084654L42.72667015524157,43.66084656084654A1,1,0,1,1,42.72667015524157,45.66084656084654L41.847549276120674,45.66084656084654A1,1,0,1,1,41.847549276120674,43.66084656084654ZM42.58398864984965,43.671077907059654L46.782837420126995,43.06578690176866A1,1,0,1,1,47.068200430910835,45.045324209342425L42.86935166063349,45.65061521463342A1,1,0,1,1,42.58398864984965,43.671077907059654ZM47.04086094216732,43.06222971818118L51.187381088687474,43.543711199662695A1,1,0,1,1,50.95669705539066,45.53036287441142L46.81017690887051,45.04888139292991A1,1,0,1,1,47.04086094216732,43.06222971818118ZM51.07203907203907,43.53703703703706L53.37310308738879,43.53703703703706A1,1,0,1,1,53.37310308738879,45.53703703703706L51.07203907203907,45.53703703703706A1,1,0,1,1,51.07203907203907,43.53703703703706ZM53.51970406750264,43.54784132706372L57.09340021262735,44.077470956693304A1,1,0,1,1,56.80019825239966,46.05586237663998L53.226502107274946,45.5262327470104A1,1,0,1,1,53.51970406750264,43.54784132706372ZM56.946799232513506,44.06666666666664L59.32391418105701,44.06666666666664A1,1,0,1,1,59.32391418105701,46.06666666666664L56.946799232513506,46.06666666666664A1,1,0,1,1,56.946799232513506,44.06666666666664ZM59.32391418105701,44.06666666666664L60.01534972963544,44.06666666666664A1,1,0,1,1,60.01534972963544,46.06666666666664L59.32391418105701,46.06666666666664A1,1,0,1,1,59.32391418105701,44.06666666666664Z" fill="#687B3E"></path></g></g><path class="foreground" aria-hidden="true" d="" display="none"></path></g></g><g class="mark-group role-scope child_layer_1_layer_0_pathgroup" role="graphics-object" aria-roledescription="group mark container"><g transform="translate(0,0)"><path class="background" aria-hidden="true" d="M0,0h80v130h-80Z"></path><g><g class="mark-area role-mark child_layer_1_layer_0_marks" clip-path="url(#clip4)" role="graphics-object" aria-roledescription="area mark container"><path aria-label=": 0.653703703704; upper_upper: 0.512962962963; condition: Global; time: 0.00507936507937; lower: 0.512962962963; upper: 0.653703703704" role="graphics-symbol" aria-roledescription="errorband" d="M0.3125763125763495,90.03703703703698L0.8330716902145462,90.03703703703704L3.8360369788941107,98.8938888888889L6.751090179661631,87.62962962962956L7.493458922030368,87.72592592592589L7.845107273678707,87.81981481481479L8.376068376068368,88.10870370370367L10.536891679748798,87.34074074074073L12.922379208093478,87.62962962962959L13.740798883656032,87.5333333333333L16.379556950985535,87.04944444444442L20.498866213151935,83.70830687830686L22.596895168323755,87.62962962962966L24.11651840223268,87.62962962962966L25.63753706610846,86.90740740740746L28.673992673992675,85.70370370370378L31.808826094540397,65.06861111111118L34.545961974533384,66.23121693121695L36.62864120006972,68.01235449735451L38.493633350776186,63.74814814814815L40.54561311704169,63.59682539682545L41.15541601255886,64.18767195767194L41.847549276120674,64.16084656084658L42.72667015524157,64.06420634920639L46.925518925518915,58.83583333333336L51.07203907203907,59.65555555555559L53.37310308738879,59.51111111111115L56.946799232513506,59.076574074074095L59.32391418105701,58.691388888888866L60.01534972963544,59.17407407407407L60.01534972963544,93.64935185185189L59.32391418105701,93.31111111111106L56.946799232513506,93.79259259259256L53.37310308738879,94.03453703703703L51.07203907203907,94.12962962962963L46.925518925518915,92.58888888888896L42.72667015524157,97.17706349206347L41.847549276120674,97.4931216931217L41.15541601255886,96.98447089947095L40.54561311704169,96.9978835978836L38.493633350776186,97.02539682539691L36.62864120006972,101.77142857142854L34.545961974533384,98.97900793650797L31.808826094540397,98.67017195767197L28.673992673992675,116.16041666666672L25.63753706610846,116.75925925925925L24.11651840223268,117.72222222222224L22.596895168323755,118.0863425925926L20.498866213151935,116.16136243386242L16.379556950985535,119.9851851851851L13.740798883656032,120.27407407407401L12.922379208093478,121.81481481481477L10.536891679748798,121.52592592592589L8.376068376068368,122.10370370370367L7.845107273678707,121.42962962962957L7.493458922030368,121.62222222222218L6.751090179661631,122.00740740740736L3.8360369788941107,128.94074074074075L0.8330716902145462,127.11111111111106L0.3125763125763495,126.6296296296296Z" fill="#0F3C5F" opacity="0.3"></path></g></g><path class="foreground" aria-hidden="true" d="" display="none"></path></g><g transform="translate(0,0)"><path class="background" aria-hidden="true" d="M0,0h80v130h-80Z"></path><g><g class="mark-area role-mark child_layer_1_layer_0_marks" clip-path="url(#clip5)" role="graphics-object" aria-roledescription="area mark container"><path aria-label=": 0.674074074074; upper_upper: 0.533333333333; condition: Spatial; time: 0.00507936507937; lower: 0.533333333333; upper: 0.674074074074" role="graphics-symbol" aria-roledescription="errorband" d="M0.3125763125763495,84.74074074074075L0.8330716902145462,84.25925925925925L3.8360369788941107,84.06425925925922L6.751090179661631,68.367962962963L7.493458922030368,68.1777777777778L7.845107273678707,68.46666666666665L8.376068376068368,68.3703703703704L10.536891679748798,68.6592592592593L12.922379208093478,68.37037037037045L13.740798883656032,67.21481481481483L16.379556950985535,67.69629629629632L20.498866213151935,60.90018518518509L22.596895168323755,64.39814814814817L24.11651840223268,64.5185185185185L25.63753706610846,65.6018518518519L28.673992673992675,65.48148148148147L31.808826094540397,62.207235449735435L34.545961974533384,63.70670634920633L36.62864120006972,48.46351851851852L38.493633350776186,45.56156084656073L40.54561311704169,45.29949735449727L41.15541601255886,45.53439153439148L41.847549276120674,45.60317460317447L42.72667015524157,46.18026455026445L46.925518925518915,41.022222222222226L51.07203907203907,42.65925925925922L53.37310308738879,42.65805555555551L56.946799232513506,43.092592592592624L59.32391418105701,43.237037037037034L60.01534972963544,43.14074074074077L60.01534972963544,78.81972222222224L59.32391418105701,78.7222222222222L56.946799232513506,79.10740740740734L53.37310308738879,77.66296296296291L51.07203907203907,77.85675925925916L46.925518925518915,75.3518518518518L42.72667015524157,78.82608465608457L41.847549276120674,78.60563492063486L41.15541601255886,78.79788359788344L40.54561311704169,79.01798941798938L38.493633350776186,78.89521164021153L36.62864120006972,82.44373015873003L34.545961974533384,102.10949735449734L31.808826094540397,100.87054232804229L28.673992673992675,97.13888888888889L25.63753706610846,97.2592592592593L24.11651840223268,95.93518518518518L22.596895168323755,96.05555555555556L20.498866213151935,92.93297619047613L16.379556950985535,100.72592592592599L13.740798883656032,100.34074074074081L12.922379208093478,102.36296296296298L10.536891679748798,102.26666666666667L8.376068376068368,102.65185185185186L7.845107273678707,102.36296296296295L7.493458922030368,103.13333333333333L6.751090179661631,102.36296296296304L3.8360369788941107,115.65185185185182L0.8330716902145462,121.33333333333333L0.3125763125763495,121.33333333333337Z" fill="#EB9A60" opacity="0.3"></path></g></g><path class="foreground" aria-hidden="true" d="" display="none"></path></g><g transform="translate(0,0)"><path class="background" aria-hidden="true" d="M0,0h80v130h-80Z"></path><g><g class="mark-area role-mark child_layer_1_layer_0_marks" clip-path="url(#clip6)" role="graphics-object" aria-roledescription="area mark container"><path aria-label=": 0.890740740741; upper_upper: 0.764814814815; condition: Object; time: 0.00507936507937; lower: 0.764814814815; upper: 0.890740740741" role="graphics-symbol" aria-roledescription="errorband" d="M0.3125763125763495,28.40740740740744L0.8330716902145462,27.925925925925952L3.8360369788941107,30.429629629629634L6.751090179661631,34.95555555555556L7.493458922030368,34.567962962962916L7.845107273678707,34.762962962962895L8.376068376068368,34.76296296296292L10.536891679748798,34.955555555555506L12.922379208093478,34.57037037037037L13.740798883656032,34.0888888888889L16.379556950985535,34.088888888888874L20.498866213151935,39.371084656084655L22.596895168323755,42.370370370370345L24.11651840223268,42.370370370370345L25.63753706610846,42.00925925925924L28.673992673992675,41.648148148148124L31.808826094540397,34.3433862433862L34.545961974533384,37.34232804232805L36.62864120006972,30.498412698412682L38.493633350776186,30.670370370370364L40.54561311704169,30.691005291005208L41.15541601255886,30.05115079365071L41.847549276120674,30.08537037037034L42.72667015524157,30.00970899470895L46.925518925518915,29.41851851851845L51.07203907203907,29.948148148148203L53.37310308738879,29.803703703703793L56.946799232513506,30.574074074073984L59.32391418105701,30.23703703703699L60.01534972963544,30.524722222222127L60.01534972963544,58.74074074074067L59.32391418105701,58.54814814814805L56.946799232513506,58.40370370370364L53.37310308738879,57.729629629629656L51.07203907203907,57.874074074074095L46.925518925518915,57.633333333333304L42.72667015524157,57.750264550264504L41.847549276120674,57.81939153439146L41.15541601255886,57.633849206349105L40.54561311704169,57.76402116402112L38.493633350776186,57.5509656084655L36.62864120006972,56.9936507936507L34.545961974533384,68.39805555555559L31.808826094540397,66.21780423280423L28.673992673992675,70.65740740740735L25.63753706610846,71.01851851851849L24.11651840223268,73.6666666666666L22.596895168323755,74.14814814814812L20.498866213151935,71.5760052910053L16.379556950985535,65.7703703703703L13.740798883656032,66.34814814814814L12.922379208093478,67.88888888888889L10.536891679748798,67.98518518518512L8.376068376068368,67.98518518518512L7.845107273678707,67.88888888888889L7.493458922030368,68.37037037037031L6.751090179661631,67.79259259259253L3.8360369788941107,60.85925925925927L0.8330716902145462,61.14814814814826L0.3125763125763495,61.14814814814823Z" fill="#687B3E" opacity="0.3"></path></g></g><path class="foreground" aria-hidden="true" d="" display="none"></path></g></g><g class="mark-text role-mark child_layer_2_layer_0_marks" role="graphics-object" aria-roledescription="text mark container"><text text-anchor="end" transform="translate(94.30769230769229,128)" font-family="sans-serif" font-size="9px" fill="#3A3A3A">Far</text></g><g class="mark-text role-mark child_layer_2_layer_1_marks" role="graphics-object" aria-roledescription="text mark container"><text text-anchor="start" transform="translate(2,128)" font-family="sans-serif" font-size="9px" fill="#3A3A3A">Near</text></g></g><path class="foreground" aria-hidden="true" d="" display="none"></path></g><g transform="translate(98,0)"><path class="background" aria-hidden="true" d="M0.5,0.5h80v130h-80Z" stroke="#ddd"></path><g><g class="mark-group role-axis" aria-hidden="true"><g transform="translate(0.5,130.5)"><path class="background" aria-hidden="true" d="M0,0h0v0h0Z" pointer-events="none"></path><g><g class="mark-rule role-axis-grid" pointer-events="none"><line transform="translate(0,-130)" x2="0" y2="130" stroke="#ddd" stroke-width="1" opacity="1"></line><line transform="translate(31,-130)" x2="0" y2="130" stroke="#ddd" stroke-width="1" opacity="1"></line><line transform="translate(62,-130)" x2="0" y2="130" stroke="#ddd" stroke-width="1" opacity="1"></line></g></g><path class="foreground" aria-hidden="true" d="" pointer-events="none" display="none"></path></g></g><g class="mark-group role-axis" aria-hidden="true"><g transform="translate(0.5,0.5)"><path class="background" aria-hidden="true" d="M0,0h0v0h0Z" pointer-events="none"></path><g><g class="mark-rule role-axis-grid" pointer-events="none"><line transform="translate(0,130)" x2="80" y2="0" stroke="#ddd" stroke-width="1" opacity="1"></line><line transform="translate(0,104)" x2="80" y2="0" stroke="#ddd" stroke-width="1" opacity="1"></line><line transform="translate(0,78)" x2="80" y2="0" stroke="#ddd" stroke-width="1" opacity="1"></line><line transform="translate(0,52)" x2="80" y2="0" stroke="#ddd" stroke-width="1" opacity="1"></line><line transform="translate(0,26)" x2="80" y2="0" stroke="#ddd" stroke-width="1" opacity="1"></line><line transform="translate(0,0)" x2="80" y2="0" stroke="#ddd" stroke-width="1" opacity="1"></line></g></g><path class="foreground" aria-hidden="true" d="" pointer-events="none" display="none"></path></g></g><g class="mark-group role-scope child_layer_0_pathgroup" role="graphics-object" aria-roledescription="group mark container"><g transform="translate(0,0)"><path class="background" aria-hidden="true" d="M0,0h80v130h-80Z"></path><g><g class="mark-trail role-mark child_layer_0_marks" clip-path="url(#clip7)" role="graphics-object" aria-roledescription="trail mark container"><path aria-label="condition: Global; Time after, Switch (s): 0.00507936507937; Hit Rate: 0.737830687831; weight: 83" role="graphics-symbol" aria-roledescription="trail mark" d="M0.3125763125763495,67.24179894179892L0.8330716902145462,67.24179894179892A0.9222222222222223,0.9222222222222223,0,1,1,0.8330716902145463,69.08624338624335L0.3125763125763495,69.08624338624335A0.9222222222222223,0.9222222222222223,0,1,1,0.3125763125763493,67.24179894179892ZM0.8330716902145462,67.24179894179892L3.8360369788941107,67.24179894179892A0.9222222222222223,0.9222222222222223,0,1,1,3.8360369788941107,69.08624338624335L0.8330716902145462,69.08624338624335A0.9222222222222223,0.9222222222222223,0,1,1,0.833071690214546,67.24179894179892ZM3.8360369788941107,67.24179894179892L6.751090179661631,67.24179894179892A0.9222222222222223,0.9222222222222223,0,1,1,6.751090179661631,69.08624338624335L3.8360369788941107,69.08624338624335A0.9222222222222223,0.9222222222222223,0,1,1,3.8360369788941107,67.24179894179892ZM5.8313269550427,68.09672006596858L6.496125304973695,57.94554142424469A1,1,0,1,1,8.49079253908704,58.09149561279238L7.670853404280562,68.23132226207369A0.9222222222222223,0.9222222222222223,0,1,1,5.8313269550427,68.09672006596858ZM7.493458922030368,57.01851851851853L7.845107273678707,57.01851851851853A1,1,0,1,1,7.845107273678707,59.01851851851853L7.493458922030368,59.01851851851853A1,1,0,1,1,7.493458922030368,57.01851851851853ZM7.845107273678707,57.01851851851853L8.376068376068368,57.01851851851853A1,1,0,1,1,8.376068376068368,59.01851851851853L7.845107273678707,59.01851851851853A1,1,0,1,1,7.845107273678707,57.01851851851853ZM9.250357720389935,57.53311338627768L11.411181024070366,61.42508869491969A1,1,0,1,1,9.66260233542723,62.3958989594014L7.501779031746801,58.50392365075939A1,1,0,1,1,9.250357720389935,57.53311338627768ZM10.536891679748798,60.91049382716054L12.922379208093478,60.91049382716054A1,1,0,1,1,12.922379208093478,62.91049382716054L10.536891679748798,62.91049382716054A1,1,0,1,1,10.536891679748798,60.91049382716054ZM12.922379208093478,60.91049382716054L13.740798883656032,60.91049382716054A1,1,0,1,1,13.740798883656032,62.91049382716054L12.922379208093478,62.91049382716054A1,1,0,1,1,12.922379208093478,60.91049382716054ZM13.740798883656032,60.91049382716054L16.379556950985535,60.91049382716054A1,1,0,1,1,16.379556950985535,62.91049382716054L13.740798883656032,62.91049382716054A1,1,0,1,1,13.740798883656032,60.91049382716054ZM16.687247816476514,60.959007447177406L20.806557078642914,62.29110621260949A1,1,0,1,1,20.191175347660955,64.19407897257577L16.071866085494555,62.86198020714368A1,1,0,1,1,16.687247816476514,60.959007447177406ZM19.560308878138812,62.89746923943746L21.658337833310632,57.19191368388188A1,1,0,1,1,23.535452503336877,57.88216039019221L21.437423548165057,63.587715945747796A1,1,0,1,1,19.560308878138812,62.89746923943746ZM22.596895168323755,56.537037037037045L24.11651840223268,56.537037037037045A1,1,0,1,1,24.11651840223268,58.537037037037045L22.596895168323755,58.537037037037045A1,1,0,1,1,22.596895168323755,56.537037037037045ZM24.608611296060513,56.66649434202195L26.129629959936295,57.526282701810324A1,1,0,1,1,25.145444172280627,59.26736809184052L23.624425508404844,58.40757973205214A1,1,0,0,1,24.608611296060513,56.66649434202195ZM25.207963956973565,57.493793313282325L28.24441956485778,56.04934886883788A1,1,0,1,1,29.10356578312757,57.85541303592407L26.067110175243357,59.299857480368516A1,1,0,1,1,25.207963956973565,57.493793313282325ZM29.579739429066,56.52856163277161L32.71457284961372,63.228032532242516A1,1,0,1,1,30.903079339467073,64.07567117146125L27.76824591891935,57.37620027199034A1,1,0,1,1,29.579739429066,56.52856163277161ZM32.41208797603926,62.85430868541482L35.14922385603225,64.92467905578516A1,1,0,1,1,33.94270009303452,66.51976538865927L31.20556421304153,64.44939501828894A1,1,0,1,1,32.41208797603926,62.85430868541482ZM34.40856723276156,64.73170584934721L36.4912464582979,64.44281696045833A1,1,0,1,1,36.766035941841544,66.42384970620834L34.683356716305205,66.71273859509722A1,1,0,0,1,34.40856723276156,64.73170584934721ZM36.57707627100761,64.4346636892113L38.442068421714076,64.33836739291493A1,1,0,1,1,38.545198279838296,66.335706681159L36.68020612913183,66.43200297745537A1,1,0,1,1,36.57707627100761,64.4346636892113ZM38.493633350776186,64.33703703703696L40.54561311704169,64.33703703703696A1,1,0,1,1,40.54561311704169,66.33703703703696L38.493633350776186,66.33703703703696A1,1,0,1,1,38.493633350776186,64.33703703703696ZM40.54561311704169,64.33703703703696L41.15541601255886,64.33703703703696A1,1,0,1,1,41.15541601255886,66.33703703703696L40.54561311704169,66.33703703703696A1,1,0,1,1,40.54561311704169,64.33703703703696ZM41.15541601255886,64.33703703703696L41.847549276120674,64.33703703703696A1,1,0,1,1,41.847549276120674,66.33703703703696L41.15541601255886,66.33703703703696A1,1,0,1,1,41.15541601255886,64.33703703703696ZM42.845429892419034,65.27196572526289L43.72455077153993,78.75344720674441A1,1,0,1,1,41.72878953894321,78.88358983029256L40.84966865982231,65.40210834881104A1,1,0,1,1,42.845429892419034,65.27196572526289ZM42.72667015524157,77.81851851851849L46.925518925518915,77.81851851851849A1,1,0,1,1,46.925518925518915,79.81851851851849L42.72667015524157,79.81851851851849A1,1,0,1,1,42.72667015524157,77.81851851851849ZM47.7983146394958,78.33043282761618L51.94483478601595,85.74524764243105A1,1,0,1,1,50.19924335806218,86.72141902423567L46.05272321154203,79.3066042094208A1,1,0,0,1,47.7983146394958,78.33043282761618ZM50.47036636811302,85.43459059793584L52.77143038346274,83.70125726460246A1,1,0,1,1,53.97477579131484,85.29874273539751L51.67371177596512,87.03207606873089A1,1,0,1,1,50.47036636811302,85.43459059793584ZM54.36775816762228,84.39674656729326L57.786730189155115,118.83873413830695A0.8444444444444444,0.8444444444444444,0,1,1,56.106868275871896,119.01311771354496L52.378448007155306,84.60325343270671A1,1,0,0,1,54.36775816762228,84.39674656729326ZM56.946799232513506,118.0814814814815L59.32391418105701,118.0814814814815A0.8444444444444444,0.8444444444444444,0,1,1,59.32391418105701,119.7703703703704L56.946799232513506,119.7703703703704A0.8444444444444444,0.8444444444444444,0,1,1,56.946799232513506,118.0814814814815ZM59.32391418105701,118.0814814814815L60.01534972963544,118.0814814814815A0.8444444444444444,0.8444444444444444,0,1,1,60.01534972963544,119.7703703703704L59.32391418105701,119.7703703703704A0.8444444444444444,0.8444444444444444,0,1,1,59.32391418105701,118.0814814814815Z" fill="#0F3C5F"></path></g></g><path class="foreground" aria-hidden="true" d="" display="none"></path></g><g transform="translate(0,0)"><path class="background" aria-hidden="true" d="M0,0h80v130h-80Z"></path><g><g class="mark-trail role-mark child_layer_0_marks" clip-path="url(#clip8)" role="graphics-object" aria-roledescription="trail mark container"><path aria-label="condition: Spatial; Time after, Switch (s): 0.00507936507937; Hit Rate: 0.601111111111; weight: 28" role="graphics-symbol" aria-roledescription="trail mark" d="M0.3125763125763495,103.39999999999998L0.8330716902145462,103.39999999999998A0.3111111111111111,0.3111111111111111,0,1,1,0.8330716902145462,104.02222222222221L0.3125763125763495,104.02222222222221A0.3111111111111111,0.3111111111111111,0,1,1,0.31257631257634944,103.39999999999998ZM0.8330716902145462,103.39999999999998L3.8360369788941107,103.39999999999998A0.3111111111111111,0.3111111111111111,0,1,1,3.8360369788941107,104.02222222222221L0.8330716902145462,104.02222222222221A0.3111111111111111,0.3111111111111111,0,1,1,0.8330716902145461,103.39999999999998ZM3.8360369788941107,103.39999999999998L6.751090179661631,103.39999999999998A0.3111111111111111,0.3111111111111111,0,1,1,6.751090179661631,104.02222222222221L3.8360369788941107,104.02222222222221A0.3111111111111111,0.3111111111111111,0,1,1,3.8360369788941107,103.39999999999998ZM7.0540442719244005,103.64033723571889L7.796413014293137,106.81811501349674A0.3111111111111111,0.3111111111111111,0,1,1,7.190504829767598,106.95966276428115L6.448136087398861,103.7818849865033A0.3111111111111111,0.3111111111111111,0,1,1,7.0540442719244005,103.64033723571889ZM7.493458922030368,106.57777777777783L7.845107273678707,106.57777777777783A0.3111111111111111,0.3111111111111111,0,1,1,7.845107273678707,107.20000000000006L7.493458922030368,107.20000000000006A0.3111111111111111,0.3111111111111111,0,1,1,7.493458922030368,106.57777777777783ZM7.845107273678707,106.57777777777783L8.376068376068368,106.57777777777783A0.3111111111111111,0.3111111111111111,0,1,1,8.376068376068368,107.20000000000006L7.845107273678707,107.20000000000006A0.3111111111111111,0.3111111111111111,0,1,1,7.845107273678707,106.57777777777783ZM8.065376116042245,106.87275064187602L10.148526354716145,65.26871608012273A0.3888888888888889,0.3888888888888889,0,1,1,10.925257004781452,65.30906169765503L8.68676063609449,106.90502713590186A0.3111111111111111,0.3111111111111111,0,1,1,8.065376116042245,106.87275064187602ZM10.536891679748798,64.89999999999999L12.922379208093478,64.89999999999999A0.3888888888888889,0.3888888888888889,0,1,1,12.922379208093478,65.67777777777776L10.536891679748798,65.67777777777776A0.3888888888888889,0.3888888888888889,0,1,1,10.536891679748798,64.89999999999999ZM12.534758036020948,65.25751382136141L12.744058726898098,55.097099032707185A1,1,0,1,1,14.737539040413965,55.25845652284841L13.310000380166008,65.32026395641634A0.3888888888888889,0.3888888888888889,0,1,1,12.534758036020948,65.25751382136141ZM13.740798883656032,54.1777777777778L16.379556950985535,54.1777777777778A1,1,0,1,1,16.379556950985535,56.1777777777778L13.740798883656032,56.1777777777778A1,1,0,1,1,13.740798883656032,54.1777777777778ZM16.048658372566603,54.23411145391097L20.167967634733003,52.78966700946648A1,1,0,1,1,20.829764791570867,54.676999657200135L16.710455529404467,56.12144410164463A1,1,0,0,1,16.048658372566603,54.23411145391097ZM20.635274510900917,52.74268063116911L22.733303466072737,53.03156952005807A1,1,0,1,1,22.460486870574773,55.012874924386466L20.362457915402953,54.723986035497504A1,1,0,1,1,20.635274510900917,52.74268063116911ZM22.596895168323755,53.02222222222227L24.11651840223268,53.02222222222227A1,1,0,1,1,24.11651840223268,55.02222222222227L22.596895168323755,55.02222222222227A1,1,0,1,1,22.596895168323755,53.02222222222227ZM23.286569054247074,53.464383464355556L24.807587718122857,51.201420501392576A1,1,0,1,1,26.467486414094065,52.317098017126L24.946467750218282,54.58006098008898A1,1,0,1,1,23.286569054247074,53.464383464355556ZM24.94825402600267,51.03476709876166L27.984709633886883,48.145878209872755A1,1,0,1,1,29.363275714098467,49.594862530868006L26.326820106214253,52.48375141975691A1,1,0,1,1,24.94825402600267,51.03476709876166ZM29.62707843392104,48.567669966965006L32.76191185446876,58.43804033733541A1,1,0,1,1,30.855740334612033,59.04344114414616L27.72090691406431,49.173070773775756A1,1,0,1,1,29.62707843392104,48.567669966965006ZM32.62397714753682,58.161492295944576L35.361113027529804,62.0133441477964A1,1,0,1,1,33.730810921536964,63.171841037388816L30.993675041543977,59.31998918553699A1,1,0,1,1,32.62397714753682,58.161492295944576ZM33.97606151655292,61.770878854120596L36.058740742089256,60.32643440967616A1,1,0,1,1,37.19854165805019,61.96986188662019L35.11586243251385,63.41430633106462A1,1,0,1,1,33.97606151655292,61.770878854120596ZM37.5668386078754,60.80204755007484L39.43183075858186,65.85760310563037A1,1,0,1,1,37.55543594297051,66.54980430177704L35.69044379226405,61.49424874622151A1,1,0,1,1,37.5668386078754,60.80204755007484ZM38.493633350776186,65.20370370370371L40.54561311704169,65.20370370370371A1,1,0,1,1,40.54561311704169,67.20370370370371L38.493633350776186,67.20370370370371A1,1,0,1,1,38.493633350776186,65.20370370370371ZM40.54561311704169,65.20370370370371L41.15541601255886,65.20370370370371A1,1,0,1,1,41.15541601255886,67.20370370370371L40.54561311704169,67.20370370370371A1,1,0,1,1,40.54561311704169,65.20370370370371ZM41.15541601255886,65.20370370370371L41.847549276120674,65.20370370370371A1,1,0,1,1,41.847549276120674,67.20370370370371L41.15541601255886,67.20370370370371A1,1,0,1,1,41.15541601255886,65.20370370370371ZM42.843790767110214,66.11708447009515L43.72291164623111,76.22819558120628A1,1,0,1,1,41.73042866425203,76.4014340484234L40.851307785131134,66.29032293731227A1,1,0,1,1,42.843790767110214,66.11708447009515ZM42.72667015524157,75.31481481481484L46.925518925518915,75.31481481481484A1,1,0,1,1,46.925518925518915,77.31481481481484L42.72667015524157,77.31481481481484A1,1,0,1,1,42.72667015524157,75.31481481481484ZM46.59655613628608,75.3704719304237L50.743076282806236,73.92602748597925A1,1,0,1,1,51.4010018612719,75.81471325476151L47.25448171475175,77.25915769920597A1,1,0,1,1,46.59655613628608,75.3704719304237ZM50.188837291520066,74.40137717757536L52.48990130686979,70.06804384424203A1,1,0,1,1,54.256304867907794,71.00603022983208L51.95524085255807,75.3393635631654A1,1,0,1,1,50.188837291520066,74.40137717757537ZM54.36898173675746,70.4463413054306L57.73243683368212,109.7062289228438A0.7888888888888889,0.7888888888888889,0,1,1,56.16116163134489,109.84932663271177L52.37722443802012,70.62773276864351A1,1,0,1,1,54.36898173675746,70.4463413054306ZM56.946799232513506,108.9888888888889L59.32391418105701,108.9888888888889A0.7888888888888889,0.7888888888888889,0,1,1,59.32391418105701,110.56666666666668L56.946799232513506,110.56666666666668A0.7888888888888889,0.7888888888888889,0,1,1,56.946799232513506,108.9888888888889ZM59.32391418105701,108.9888888888889L60.01534972963544,108.9888888888889A0.7888888888888889,0.7888888888888889,0,1,1,60.01534972963544,110.56666666666668L59.32391418105701,110.56666666666668A0.7888888888888889,0.7888888888888889,0,1,1,59.32391418105701,108.9888888888889Z" fill="#EB9A60"></path></g></g><path class="foreground" aria-hidden="true" d="" display="none"></path></g><g transform="translate(0,0)"><path class="background" aria-hidden="true" d="M0,0h80v130h-80Z"></path><g><g class="mark-trail role-mark child_layer_0_marks" clip-path="url(#clip9)" role="graphics-object" aria-roledescription="trail mark container"><path aria-label="condition: Object; Time after, Switch (s): 0.00507936507937; Hit Rate: 0.800740740741; weight: 83" role="graphics-symbol" aria-roledescription="trail mark" d="M0.3125763125763495,50.88518518518536L0.8330716902145462,50.88518518518536A0.9222222222222223,0.9222222222222223,0,1,1,0.8330716902145463,52.729629629629805L0.3125763125763495,52.729629629629805A0.9222222222222223,0.9222222222222223,0,1,1,0.3125763125763493,50.88518518518536ZM0.8330716902145462,50.88518518518536L3.8360369788941107,50.88518518518536A0.9222222222222223,0.9222222222222223,0,1,1,3.8360369788941107,52.729629629629805L0.8330716902145462,52.729629629629805A0.9222222222222223,0.9222222222222223,0,1,1,0.833071690214546,50.88518518518536ZM3.8360369788941107,50.88518518518536L6.751090179661631,50.88518518518536A0.9222222222222223,0.9222222222222223,0,1,1,6.751090179661631,52.729629629629805L3.8360369788941107,52.729629629629805A0.9222222222222223,0.9222222222222223,0,1,1,3.8360369788941107,50.88518518518536ZM5.829916870023433,51.76343513465871L6.494596297121478,36.20787477787618A1,1,0,1,1,8.492321546939259,36.30323633323518L7.672263489299829,51.851379680156455A0.9222222222222223,0.9222222222222223,0,1,1,5.829916870023433,51.76343513465871ZM7.493458922030368,35.25555555555568L7.845107273678707,35.25555555555568A1,1,0,1,1,7.845107273678707,37.25555555555568L7.493458922030368,37.25555555555568A1,1,0,1,1,7.493458922030368,35.25555555555568ZM7.845107273678707,35.25555555555568L8.376068376068368,35.25555555555568A1,1,0,1,1,8.376068376068368,37.25555555555568L7.845107273678707,37.25555555555568A1,1,0,1,1,7.845107273678707,35.25555555555568ZM9.26690941342537,35.8012404158556L11.427732717105801,40.0382774528926A1,1,0,1,1,9.646050642391796,40.94690773229276L7.485227338711365,36.70987069525576A1,1,0,0,1,9.26690941342537,35.8012404158556ZM10.536891679748798,39.49259259259268L12.922379208093478,39.49259259259268A1,1,0,1,1,12.922379208093478,41.49259259259268L10.536891679748798,41.49259259259268A1,1,0,1,1,10.536891679748798,39.49259259259268ZM12.922379208093478,39.49259259259268L13.740798883656032,39.49259259259268A1,1,0,1,1,13.740798883656032,41.49259259259268L12.922379208093478,41.49259259259268A1,1,0,1,1,12.922379208093478,39.49259259259268ZM13.740798883656032,39.49259259259268L16.379556950985535,39.49259259259268A1,1,0,1,1,16.379556950985535,41.49259259259268L13.740798883656032,41.49259259259268A1,1,0,1,1,13.740798883656032,39.49259259259268ZM16.312914555900278,39.494815668036246L20.432223818066678,39.21968339290402A1,1,0,1,1,20.56550860823719,41.21523724201688L16.44619934607079,41.49036951714911A1,1,0,1,1,16.312914555900278,39.494815668036246ZM20.269130586169247,39.244207245698085L22.367159541341067,38.74896915045998A1,1,0,1,1,22.826630795306443,40.69547529398471L20.728601840134623,41.190713389222815A1,1,0,0,1,20.269130586169247,39.24420724569809ZM22.596895168323755,38.72222222222234L24.11651840223268,38.72222222222234A1,1,0,1,1,24.11651840223268,40.72222222222234L22.596895168323755,40.72222222222234A1,1,0,1,1,22.596895168323755,38.72222222222234ZM24.934977245825124,39.14765706373697L26.455995909700906,41.31432373040363A1,1,0,1,1,24.819078222516016,42.46345404737437L23.298059558640233,40.29678738070771A1,1,0,1,1,24.934977245825124,39.14765706373697ZM25.993212665800133,40.954279415481004L29.029668273684347,42.10983497103645A1,1,0,1,1,28.318317074301003,43.97905391785244L25.28186146641679,42.823498362296995A1,1,0,1,1,25.993212665800133,40.954279415481004ZM29.38589339166874,42.34216432357222L32.520726812216466,45.519942101350004A1,1,0,1,1,31.09692537686433,46.92450234309445L27.96209195631661,43.74672456531667A1,1,0,1,1,29.38589339166874,42.34216432357222ZM30.87372866688529,45.867831476303536L33.61086454687828,38.64560925408126A1,1,0,1,1,35.481059402188485,39.35439074591864L32.7439235221955,46.57661296814092A1,1,0,1,1,30.87372866688529,45.867831476303536ZM34.545961974533384,37.99999999999995L36.62864120006972,37.99999999999995A1,1,0,1,1,36.62864120006972,39.99999999999995L34.545961974533384,39.99999999999995A1,1,0,1,1,34.545961974533384,37.99999999999995ZM35.66040258089682,38.74997204887818L37.525394731603285,31.52774982665601A1,1,0,1,1,39.46187196994909,32.02780572889955L37.59687981924262,39.25002795112172A1,1,0,1,1,35.66040258089682,38.74997204887818ZM38.493633350776186,30.77777777777778L40.54561311704169,30.77777777777778A1,1,0,1,1,40.54561311704169,32.77777777777778L38.493633350776186,32.77777777777778A1,1,0,1,1,38.493633350776186,30.77777777777778ZM40.54561311704169,30.77777777777778L41.15541601255886,30.77777777777778A1,1,0,1,1,41.15541601255886,32.77777777777778L40.54561311704169,32.77777777777778A1,1,0,1,1,40.54561311704169,30.77777777777778ZM41.15541601255886,30.77777777777778L41.847549276120674,30.77777777777778A1,1,0,1,1,41.847549276120674,32.77777777777778L41.15541601255886,32.77777777777778A1,1,0,1,1,41.15541601255886,30.77777777777778ZM40.85043068772374,31.701919220756878L41.92897528452402,20.161535376605485A0.8,0.8,0,1,1,43.52436502595912,20.28290906783893L42.84466786451761,31.85363633479868A1,1,0,1,1,40.85043068772374,31.701919220756878ZM42.72667015524157,19.422222222222207L46.925518925518915,19.422222222222207A0.8,0.8,0,1,1,46.925518925518915,21.022222222222208L42.72667015524157,21.022222222222208A0.8,0.8,0,1,1,42.72667015524157,19.422222222222207ZM47.725208399141955,20.199934427883118L51.316388633423884,168.9931898406186A0.24444444444444444,0.24444444444444444,0,1,1,50.82768951065425,169.0068101593814L46.125829451895875,20.244510016561296A0.8,0.8,0,1,1,47.725208399141955,20.199934427883118ZM50.8276597505545,168.99435786826658L53.206480822740225,69.32948642533329A0.16666666666666666,0.16666666666666666,0,1,1,53.53972535203736,69.3371802413334L51.316418393523634,169.00564213173342A0.24444444444444444,0.24444444444444444,0,1,1,50.8276597505545,168.99435786826658ZM53.20708326867867,69.31866371939036L56.78077941380339,28.87421927494591A0.16666666666666666,0.16666666666666666,0,1,1,57.112819051223624,28.90355850283189L53.53912290609891,69.34800294727633A0.16666666666666666,0.16666666666666666,0,1,1,53.20708326867867,69.31866371939036ZM56.946799232513506,28.722222222222232L59.32391418105701,28.722222222222232A0.16666666666666666,0.16666666666666666,0,1,1,59.32391418105701,29.055555555555568L56.946799232513506,29.055555555555568A0.16666666666666666,0.16666666666666666,0,1,1,56.946799232513506,28.722222222222232ZM59.32391418105701,28.722222222222232L60.01534972963544,28.722222222222232A0.16666666666666666,0.16666666666666666,0,1,1,60.01534972963544,29.055555555555568L59.32391418105701,29.055555555555568A0.16666666666666666,0.16666666666666666,0,1,1,59.32391418105701,28.722222222222232Z" fill="#687B3E"></path></g></g><path class="foreground" aria-hidden="true" d="" display="none"></path></g></g><g class="mark-group role-scope child_layer_1_layer_0_pathgroup" role="graphics-object" aria-roledescription="group mark container"><g transform="translate(0,0)"><path class="background" aria-hidden="true" d="M0,0h80v130h-80Z"></path><g><g class="mark-area role-mark child_layer_1_layer_0_marks" clip-path="url(#clip10)" role="graphics-object" aria-roledescription="area mark container"><path aria-label=": 0.781944444444; upper_upper: 0.693715277778; condition: Global; time: 0.00507936507937; lower: 0.693715277778; upper: 0.781944444444" role="graphics-symbol" aria-roledescription="errorband" d="M0.3125763125763495,56.694444444444386L0.8330716902145462,56.487665343915275L3.8360369788941107,56.488095238095156L6.751090179661631,56.53968253968248L7.493458922030368,46.703703703703724L7.845107273678707,46.580324074074035L8.376068376068368,46.703703703703695L10.536891679748798,50.716049382716115L12.922379208093478,50.75617283950627L13.740798883656032,51.357021604938375L16.379556950985535,51.357021604938375L20.498866213151935,54.16606481481485L22.596895168323755,46.94444444444448L24.11651840223268,47.30555555555559L25.63753706610846,47.01993386243389L28.673992673992675,45.83669312169316L31.808826094540397,51.518518518518555L34.545961974533384,52.24074074074072L36.62864120006972,51.80740740740743L38.493633350776186,51.950648148147955L40.54561311704169,51.75925925925911L41.15541601255886,51.80740740740723L41.847549276120674,51.66175925925908L42.72667015524157,60.04074074074067L46.925518925518915,59.65555555555547L51.07203907203907,65.3370370370371L53.37310308738879,62.833333333333286L56.946799232513506,94.85185185185188L59.32391418105701,95.09259259259264L60.01534972963544,94.85185185185188L60.01534972963544,143.00000000000003L59.32391418105701,143.24074074074076L56.946799232513506,142.7592592592593L53.37310308738879,105.68518518518512L51.07203907203907,106.21601851851855L46.925518925518915,97.01851851851842L42.72667015524157,97.40370370370368L41.847549276120674,78.2900925925924L41.15541601255886,78.43333333333315L40.54561311704169,78.48148148148127L38.493633350776186,78.09749999999987L36.62864120006972,78.14564814814815L34.545961974533384,78.38518518518515L31.808826094540397,75.35185185185183L28.673992673992675,68.13667989417996L25.63753706610846,69.2239682539683L24.11651840223268,67.76851851851853L22.596895168323755,68.12962962962963L20.498866213151935,72.19875000000005L16.379556950985535,72.10285493827169L13.740798883656032,71.90123456790133L12.922379208093478,72.86419753086427L10.536891679748798,72.74382716049392L8.376068376068368,69.09259259259268L7.845107273678707,69.09259259259261L7.493458922030368,69.09259259259261L6.751090179661631,79.83994708994703L3.8360369788941107,79.87476851851845L0.8330716902145462,79.89196428571424L0.3125763125763495,79.63402777777767Z" fill="#0F3C5F" opacity="0.3"></path></g></g><path class="foreground" aria-hidden="true" d="" display="none"></path></g><g transform="translate(0,0)"><path class="background" aria-hidden="true" d="M0,0h80v130h-80Z"></path><g><g class="mark-area role-mark child_layer_1_layer_0_marks" clip-path="url(#clip11)" role="graphics-object" aria-roledescription="area mark container"><path aria-label=": 0.638333333333; upper_upper: 0.561666666667; condition: Spatial; time: 0.00507936507937; lower: 0.561666666667; upper: 0.638333333333" role="graphics-symbol" aria-roledescription="errorband" d="M0.3125763125763495,94.03333333333335L0.8330716902145462,94.17777777777778L3.8360369788941107,94.03333333333332L6.751090179661631,94.17777777777778L7.493458922030368,97.35555555555563L7.845107273678707,97.35555555555565L8.376068376068368,97.35555555555568L10.536891679748798,49.399999999999984L12.922379208093478,49.49629629629625L13.740798883656032,35.82222222222228L16.379556950985535,35.918518518518574L20.498866213151935,37.651851851851774L22.596895168323755,37.55555555555562L24.11651840223268,37.8444444444445L25.63753706610846,35.87037037037042L28.673992673992675,32.74074074074076L31.808826094540397,41.88888888888894L34.545961974533384,45.25925925925928L36.62864120006972,43.57407407407411L38.493633350776186,48.87037037037038L40.54561311704169,48.87037037037038L41.15541601255886,48.87037037037038L41.847549276120674,48.62962962962965L42.72667015524157,55.61111111111114L46.925518925518915,56.09259259259263L51.07203907203907,54.407407407407405L53.37310308738879,49.3518518518519L56.946799232513506,85.7037037037037L59.32391418105701,86.65462962962977L60.01534972963544,85.22222222222227L60.01534972963544,133.3703703703704L59.32391418105701,133.3703703703704L56.946799232513506,134.33333333333337L53.37310308738879,91.24074074074078L51.07203907203907,94.61111111111109L46.925518925518915,95.57407407407413L42.72667015524157,96.05555555555559L41.847549276120674,82.0925925925926L41.15541601255886,82.57407407407409L40.54561311704169,82.57407407407409L38.493633350776186,82.57407407407409L36.62864120006972,77.27777777777779L34.545961974533384,78.97499999999991L31.808826094540397,74.62962962962973L28.673992673992675,64.27777777777779L25.63753706610846,66.68518518518523L24.11651840223268,68.76277777777777L22.596895168323755,69.04444444444452L20.498866213151935,68.6616666666666L16.379556950985535,72.6074074074074L13.740798883656032,72.89629629629633L12.922379208093478,80.50370370370366L10.536891679748798,80.31111111111107L8.376068376068368,117.28888888888898L7.845107273678707,117.28888888888898L7.493458922030368,117.00000000000007L6.751090179661631,114.11111111111109L3.8360369788941107,113.96666666666664L0.8330716902145462,113.96666666666667L0.3125763125763495,113.96666666666664Z" fill="#EB9A60" opacity="0.3"></path></g></g><path class="foreground" aria-hidden="true" d="" display="none"></path></g><g transform="translate(0,0)"><path class="background" aria-hidden="true" d="M0,0h80v130h-80Z"></path><g><g class="mark-area role-mark child_layer_1_layer_0_marks" clip-path="url(#clip12)" role="graphics-object" aria-roledescription="area mark container"><path aria-label=": 0.86962962963; upper_upper: 0.737037037037; condition: Object; time: 0.00507936507937; lower: 0.737037037037; upper: 0.86962962963" role="graphics-symbol" aria-roledescription="errorband" d="M0.3125763125763495,33.89629629629661L0.8330716902145462,33.89629629629661L3.8360369788941107,33.89629629629661L6.751090179661631,33.703703703704L7.493458922030368,22.677777777778033L7.845107273678707,22.677777777778033L8.376068376068368,22.533333333333566L10.536891679748798,27.588888888889045L12.922379208093478,27.588888888889045L13.740798883656032,27.637037037037192L16.379556950985535,27.73333333333354L20.498866213151935,27.09365079365105L22.596895168323755,26.866666666666884L24.11651840223268,27.01111111111138L25.63753706610846,29.17777777777798L28.673992673992675,29.900000000000027L31.808826094540397,32.74074074074076L34.545961974533384,25.0370370370369L36.62864120006972,25.0370370370369L38.493633350776186,17.33333333333333L40.54561311704169,17.33333333333333L41.15541601255886,17.33333333333333L41.847549276120674,17.33333333333333L42.72667015524157,8.666666666666636L46.925518925518915,8.666666666666636L51.07203907203907,144.44444444444446L53.37310308738879,46.22222222222226L56.946799232513506,11.555555555555571L59.32391418105701,11.555555555555571L60.01534972963544,11.555555555555571L60.01534972963544,43.33333333333335L59.32391418105701,43.33333333333335L56.946799232513506,43.33333333333335L53.37310308738879,92.44444444444446L51.07203907203907,193.55555555555557L46.925518925518915,30.33333333333331L42.72667015524157,30.33333333333331L41.847549276120674,44.77777777777779L41.15541601255886,44.77777777777779L40.54561311704169,44.77777777777779L38.493633350776186,44.77777777777779L36.62864120006972,51.9999999999999L34.545961974533384,51.9999999999999L31.808826094540397,58.98148148148148L28.673992673992675,55.17777777777777L25.63753706610846,53.73333333333353L24.11651840223268,51.566666666666876L22.596895168323755,51.56666666666685L20.498866213151935,52.16559523809547L16.379556950985535,52.338240740740865L13.740798883656032,52.481481481481595L12.922379208093478,52.24074074074089L10.536891679748798,52.24074074074086L8.376068376068368,48.53333333333356L7.845107273678707,48.38888888888912L7.493458922030368,48.677777777778026L6.751090179661631,68.56296296296327L3.8360369788941107,68.567777777778L0.8330716902145462,68.56296296296327L0.3125763125763495,68.37037037037071Z" fill="#687B3E" opacity="0.3"></path></g></g><path class="foreground" aria-hidden="true" d="" display="none"></path></g></g><g class="mark-text role-mark child_layer_2_layer_0_marks" role="graphics-object" aria-roledescription="text mark container"><text text-anchor="end" transform="translate(94.30769230769229,128)" font-family="sans-serif" font-size="9px" fill="#3A3A3A">Far</text></g><g class="mark-text role-mark child_layer_2_layer_1_marks" role="graphics-object" aria-roledescription="text mark container"><text text-anchor="start" transform="translate(2,128)" font-family="sans-serif" font-size="9px" fill="#3A3A3A">Near</text></g></g><path class="foreground" aria-hidden="true" d="" display="none"></path></g></g></g><path class="foreground" aria-hidden="true" d="" display="none"></path></g></g></g></svg>
