<?xml version="1.0" encoding="utf-8"?>
<!DOCTYPE svg PUBLIC "-//W3C//DTD SVG 1.1//EN" "http://www.w3.org/Graphics/SVG/1.1/DTD/svg11.dtd">
<svg class="marks" width="212" height="207" viewBox="0 0 212 207" version="1.1" xmlns="http://www.w3.org/2000/svg" xmlns:xlink="http://www.w3.org/1999/xlink"><defs><clipPath id="clip1"><rect x="0" y="0" width="80" height="130"></rect></clipPath><clipPath id="clip2"><rect x="0" y="0" width="80" height="130"></rect></clipPath><clipPath id="clip3"><rect x="0" y="0" width="80" height="130"></rect></clipPath><clipPath id="clip4"><rect x="0" y="0" width="80" height="130"></rect></clipPath><clipPath id="clip5"><rect x="0" y="0" width="80" height="130"></rect></clipPath><clipPath id="clip6"><rect x="0" y="0" width="80" height="130"></rect></clipPath><clipPath id="clip7"><rect x="0" y="0" width="80" height="130"></rect></clipPath><clipPath id="clip8"><rect x="0" y="0" width="80" height="130"></rect></clipPath><clipPath id="clip9"><rect x="0" y="0" width="80" height="130"></rect></clipPath><clipPath id="clip10"><rect x="0" y="0" width="80" height="130"></rect></clipPath></defs><rect width="212" height="207" fill="white"></rect><g fill="none" stroke-miterlimit="10" transform="translate(43,26)"><g class="mark-group role-frame root" role="graphics-object" aria-roledescription="group mark container"><g transform="translate(0,0)"><path class="background" aria-hidden="true" d="M0,0h0v0h0Z"></path><g><g class="mark-group role-row-header row_header" role="graphics-object" aria-roledescription="group mark container"><g transform="translate(-1,0)"><path class="background" aria-hidden="true" d="M0,0h0v130h0Z"></path><g><g class="mark-group role-axis" role="graphics-symbol" aria-roledescription="axis" aria-label="Y-axis titled 'Hit Rate' for a linear scale with values from 0.5 to 1.0"><g transform="translate(0.5,0.5)"><path class="background" aria-hidden="true" d="M0,0h0v0h0Z" pointer-events="none"></path><g><g class="mark-rule role-axis-tick" pointer-events="none"><line transform="translate(0,130)" x2="-5" y2="0" stroke="#888" stroke-width="1" opacity="1"></line><line transform="translate(0,104)" x2="-5" y2="0" stroke="#888" stroke-width="1" opacity="1"></line><line transform="translate(0,78)" x2="-5" y2="0" stroke="#888" stroke-width="1" opacity="1"></line><line transform="translate(0,52)" x2="-5" y2="0" stroke="#888" stroke-width="1" opacity="1"></line><line transform="translate(0,26)" x2="-5" y2="0" stroke="#888" stroke-width="1" opacity="1"></line><line transform="translate(0,0)" x2="-5" y2="0" stroke="#888" stroke-width="1" opacity="1"></line></g><g class="mark-text role-axis-label" pointer-events="none"><text text-anchor="end" transform="translate(-7,133)" font-family="sans-serif" font-size="10px" fill="#000" opacity="1">0.5</text><text text-anchor="end" transform="translate(-7,107)" font-family="sans-serif" font-size="10px" fill="#000" opacity="1">0.6</text><text text-anchor="end" transform="translate(-7,81.00000000000001)" font-family="sans-serif" font-size="10px" fill="#000" opacity="1">0.7</text><text text-anchor="end" transform="translate(-7,54.999999999999986)" font-family="sans-serif" font-size="10px" fill="#000" opacity="1">0.8</text><text text-anchor="end" transform="translate(-7,28.999999999999993)" font-family="sans-serif" font-size="10px" fill="#000" opacity="1">0.9</text><text text-anchor="end" transform="translate(-7,3)" font-family="sans-serif" font-size="10px" fill="#000" opacity="1">1.0</text></g><g class="mark-rule role-axis-domain" pointer-events="none"><line transform="translate(0,130)" x2="0" y2="-130" stroke="#888" stroke-width="1" opacity="1"></line></g><g class="mark-text role-axis-title" pointer-events="none"><text text-anchor="middle" transform="translate(-26,65) rotate(-90) translate(0,-2)" font-family="sans-serif" font-size="11px" font-weight="bold" fill="#000" opacity="1">Hit Rate</text></g></g><path class="foreground" aria-hidden="true" d="" pointer-events="none" display="none"></path></g></g></g><path class="foreground" aria-hidden="true" d="" display="none"></path></g></g><g class="mark-group role-column-header column_header" role="graphics-object" aria-roledescription="group mark container"><g transform="translate(0,-1)"><path class="background" aria-hidden="true" d="M0,0h80v0h-80Z"></path><g><g class="mark-group role-title"><g transform="translate(40,-20)"><path class="background" aria-hidden="true" d="M0,0h0v0h0Z" pointer-events="none"></path><g><g class="mark-text role-title-text" role="graphics-symbol" aria-roledescription="title" aria-label="Title text 'early'" pointer-events="none"><text text-anchor="middle" transform="translate(0,8)" font-family="sans-serif" font-size="10px" font-weight="bold" fill="#000" opacity="1">early</text></g></g><path class="foreground" aria-hidden="true" d="" pointer-events="none" display="none"></path></g></g></g><path class="foreground" aria-hidden="true" d="" display="none"></path></g><g transform="translate(83,-1)"><path class="background" aria-hidden="true" d="M0,0h80v0h-80Z"></path><g><g class="mark-group role-title"><g transform="translate(40,-20)"><path class="background" aria-hidden="true" d="M0,0h0v0h0Z" pointer-events="none"></path><g><g class="mark-text role-title-text" role="graphics-symbol" aria-roledescription="title" aria-label="Title text 'late'" pointer-events="none"><text text-anchor="middle" transform="translate(0,8)" font-family="sans-serif" font-size="10px" font-weight="bold" fill="#000" opacity="1">late</text></g></g><path class="foreground" aria-hidden="true" d="" pointer-events="none" display="none"></path></g></g></g><path class="foreground" aria-hidden="true" d="" display="none"></path></g></g><g class="mark-group role-column-footer column_footer" role="graphics-object" aria-roledescription="group mark container"><g transform="translate(0,131)"><path class="background" aria-hidden="true" d="M0,0h80v0h-80Z"></path><g><g class="mark-group role-axis" role="graphics-symbol" aria-roledescription="axis" aria-label="X-axis titled 'Time after Switch (s)' for a linear scale with values from 0.0 to 2.8"><g transform="translate(0.5,0.5)"><path class="background" aria-hidden="true" d="M0,0h0v0h0Z" pointer-events="none"></path><g><g class="mark-rule role-axis-tick" pointer-events="none"><line transform="translate(0,0)" x2="0" y2="5" stroke="#888" stroke-width="1" opacity="1"></line><line transform="translate(29,0)" x2="0" y2="5" stroke="#888" stroke-width="1" opacity="1"></line><line transform="translate(57,0)" x2="0" y2="5" stroke="#888" stroke-width="1" opacity="1"></line></g><g class="mark-text role-axis-label" pointer-events="none"><text text-anchor="start" transform="translate(0,15)" font-family="sans-serif" font-size="10px" fill="#000" opacity="1">0</text><text text-anchor="middle" transform="translate(28.571428571428573,15)" font-family="sans-serif" font-size="10px" fill="#000" opacity="1">1</text><text text-anchor="middle" transform="translate(57.142857142857146,15)" font-family="sans-serif" font-size="10px" fill="#000" opacity="1">2</text></g><g class="mark-rule role-axis-domain" pointer-events="none"><line transform="translate(0,0)" x2="80" y2="0" stroke="#888" stroke-width="1" opacity="1"></line></g><g class="mark-text role-axis-title" pointer-events="none"><text text-anchor="middle" transform="translate(40,30)" font-family="sans-serif" font-size="11px" font-weight="bold" fill="#000" opacity="1"><tspan>Time after</tspan><tspan x="0" dy="13">Switch (s)</tspan></text></g></g><path class="foreground" aria-hidden="true" d="" pointer-events="none" display="none"></path></g></g></g><path class="foreground" aria-hidden="true" d="" display="none"></path></g><g transform="translate(83,131)"><path class="background" aria-hidden="true" d="M0,0h80v0h-80Z"></path><g><g class="mark-group role-axis" role="graphics-symbol" aria-roledescription="axis" aria-label="X-axis titled 'Time after Switch (s)' for a linear scale with values from 0.0 to 2.8"><g transform="translate(0.5,0.5)"><path class="background" aria-hidden="true" d="M0,0h0v0h0Z" pointer-events="none"></path><g><g class="mark-rule role-axis-tick" pointer-events="none"><line transform="translate(0,0)" x2="0" y2="5" stroke="#888" stroke-width="1" opacity="1"></line><line transform="translate(29,0)" x2="0" y2="5" stroke="#888" stroke-width="1" opacity="1"></line><line transform="translate(57,0)" x2="0" y2="5" stroke="#888" stroke-width="1" opacity="1"></line></g><g class="mark-text role-axis-label" pointer-events="none"><text text-anchor="start" transform="translate(0,15)" font-family="sans-serif" font-size="10px" fill="#000" opacity="1">0</text><text text-anchor="middle" transform="translate(28.571428571428573,15)" font-family="sans-serif" font-size="10px" fill="#000" opacity="1">1</text><text text-anchor="middle" transform="translate(57.142857142857146,15)" font-family="sans-serif" font-size="10px" fill="#000" opacity="1">2</text></g><g class="mark-rule role-axis-domain" pointer-events="none"><line transform="translate(0,0)" x2="80" y2="0" stroke="#888" stroke-width="1" opacity="1"></line></g><g class="mark-text role-axis-title" pointer-events="none"><text text-anchor="middle" transform="translate(40,30)" font-family="sans-serif" font-size="11px" font-weight="bold" fill="#000" opacity="1"><tspan>Time after</tspan><tspan x="0" dy="13">Switch (s)</tspan></text></g></g><path class="foreground" aria-hidden="true" d="" pointer-events="none" display="none"></path></g></g></g><path class="foreground" aria-hidden="true" d="" display="none"></path></g></g><g class="mark-group role-scope cell" role="graphics-object" aria-roledescription="group mark container"><g transform="translate(0,0)"><path class="background" aria-hidden="true" d="M0.5,0.5h80v130h-80Z" stroke="#ddd"></path><g><g class="mark-group role-axis" aria-hidden="true"><g transform="translate(0.5,130.5)"><path class="background" aria-hidden="true" d="M0,0h0v0h0Z" pointer-events="none"></path><g><g class="mark-rule role-axis-grid" pointer-events="none"><line transform="translate(0,-130)" x2="0" y2="130" stroke="#ddd" stroke-width="1" opacity="1"></line><line transform="translate(29,-130)" x2="0" y2="130" stroke="#ddd" stroke-width="1" opacity="1"></line><line transform="translate(57,-130)" x2="0" y2="130" stroke="#ddd" stroke-width="1" opacity="1"></line></g></g><path class="foreground" aria-hidden="true" d="" pointer-events="none" display="none"></path></g></g><g class="mark-group role-axis" aria-hidden="true"><g transform="translate(0.5,0.5)"><path class="background" aria-hidden="true" d="M0,0h0v0h0Z" pointer-events="none"></path><g><g class="mark-rule role-axis-grid" pointer-events="none"><line transform="translate(0,130)" x2="80" y2="0" stroke="#ddd" stroke-width="1" opacity="1"></line><line transform="translate(0,104)" x2="80" y2="0" stroke="#ddd" stroke-width="1" opacity="1"></line><line transform="translate(0,78)" x2="80" y2="0" stroke="#ddd" stroke-width="1" opacity="1"></line><line transform="translate(0,52)" x2="80" y2="0" stroke="#ddd" stroke-width="1" opacity="1"></line><line transform="translate(0,26)" x2="80" y2="0" stroke="#ddd" stroke-width="1" opacity="1"></line><line transform="translate(0,0)" x2="80" y2="0" stroke="#ddd" stroke-width="1" opacity="1"></line></g></g><path class="foreground" aria-hidden="true" d="" pointer-events="none" display="none"></path></g></g><g class="mark-group role-scope child_layer_0_pathgroup" role="graphics-object" aria-roledescription="group mark container"><g transform="translate(0,0)"><path class="background" aria-hidden="true" d="M0,0h80v130h-80Z"></path><g><g class="mark-trail role-mark child_layer_0_marks" clip-path="url(#clip1)" role="graphics-object" aria-roledescription="trail mark container"><path aria-label="condition: Global; Time after, Switch (s): 0.398982993197; Hit Rate: 0.668650793651; weight: 20" role="graphics-symbol" aria-roledescription="trail mark" d="M11.399514091350829,85.15079365079363L11.580293704783497,85.15079365079363A1,1,0,1,1,11.580293704783497,87.15079365079363L11.399514091350829,87.15079365079363A1,1,0,1,1,11.399514091350829,85.15079365079363ZM12.308594930261133,85.46553652754152L15.60435132805835,88.96831430531932A1,1,0,1,1,14.147748877103073,90.33882855182355L10.85199247930586,86.83605077404575A1,1,0,1,1,12.308594930261135,85.46553652754152ZM13.915806223337125,89.37440894474665L17.03078300770167,78.65972640506413A1,1,0,1,1,18.95127076618884,79.21805137271372L15.836293981824298,89.93273391239623A1,1,0,1,1,13.915806223337125,89.37440894474665ZM17.991026886945257,77.93888888888893L18.248558471007456,77.93888888888893A1,1,0,1,1,18.248558471007456,79.93888888888893L17.991026886945257,79.93888888888893A1,1,0,1,1,17.991026886945257,77.93888888888893ZM18.248558471007456,77.93888888888893L18.506090055069656,77.93888888888893A1,1,0,1,1,18.506090055069656,79.93888888888893L18.248558471007456,79.93888888888893A1,1,0,1,1,18.248558471007456,77.93888888888893ZM19.428392338829365,78.55241961796092L21.590037949454565,83.71114977669104A1,1,0,1,1,19.745433381935147,84.48408831854705L17.583787771309947,79.32535815981693A1,1,0,1,1,19.428392338829365,78.55241961796092ZM20.667735665694856,83.09761904761905L23.796339488176233,83.09761904761905A1,1,0,1,1,23.796339488176233,85.09761904761905L20.667735665694856,85.09761904761905A1,1,0,1,1,20.667735665694856,83.09761904761905ZM23.796339488176233,83.09761904761905L24.7632977000324,83.09761904761905A1,1,0,1,1,24.7632977000324,85.09761904761905L23.796339488176233,85.09761904761905A1,1,0,1,1,23.796339488176233,83.09761904761905ZM24.7632977000324,83.09761904761905L25.62918691286039,83.09761904761905A1,1,0,1,1,25.62918691286039,85.09761904761905L24.7632977000324,85.09761904761905A1,1,0,1,1,24.7632977000324,83.09761904761905ZM25.62918691286039,83.09761904761905L26.581891804340785,83.09761904761905A1,1,0,1,1,26.581891804340785,85.09761904761905L25.62918691286039,85.09761904761905A1,1,0,1,1,25.62918691286039,83.09761904761905ZM26.581891804340785,83.09761904761905L26.668707482993202,83.09761904761905A1,1,0,1,1,26.668707482993202,85.09761904761905L26.581891804340785,85.09761904761905A1,1,0,1,1,26.581891804340785,83.09761904761905ZM26.668707482993202,83.09761904761905L26.990055069646914,83.09761904761905A1,1,0,1,1,26.990055069646914,85.09761904761905L26.668707482993202,85.09761904761905A1,1,0,1,1,26.668707482993202,83.09761904761905ZM27.872360723279858,83.62694215890733L28.193708309933577,84.2293231112883A1,1,0,1,1,26.42909700266769,85.17067688871174L26.10774941601397,84.56829593633077A1,1,0,0,1,27.872360723279858,83.62694215890733ZM27.311402656300633,83.70000000000002L29.51969549724646,83.70000000000002A1,1,0,1,1,29.51969549724646,85.70000000000002L27.311402656300633,85.70000000000002A1,1,0,1,1,27.311402656300633,83.70000000000002ZM29.802588267806993,83.74084845808154L33.108338186822245,84.71584845808151A1,1,0,1,1,32.542552645701186,86.63415154191846L29.236802726685927,85.65915154191849A1,1,0,1,1,29.802588267806993,83.74084845808154ZM33.68552071866164,85.164832895806L35.344736786041075,87.96205511802822A1,1,0,1,1,33.62458618124122,88.98238932641618L31.96537011386179,86.18516710419397A1,1,0,1,1,33.68552071866164,85.164832895806ZM34.48466148364115,87.4722222222222L35.04642047295115,87.4722222222222A1,1,0,1,1,35.04642047295115,89.4722222222222L34.48466148364115,89.4722222222222A1,1,0,1,1,34.48466148364115,87.4722222222222ZM35.04642047295115,87.4722222222222L36.453563330094,87.4722222222222A1,1,0,1,1,36.453563330094,89.4722222222222L35.04642047295115,89.4722222222222A1,1,0,1,1,35.04642047295115,87.4722222222222ZM37.43910499097581,88.30278894725436L38.846247848118665,96.48770958217503A1,1,0,1,1,36.87516452635505,96.82657613211072L35.46802166921219,88.64165549719004A1,1,0,0,1,37.43910499097581,88.30278894725436ZM37.86070618723686,95.65714285714287L38.991901522513864,95.65714285714287A1,1,0,1,1,38.991901522513864,97.65714285714287L37.86070618723686,97.65714285714287A1,1,0,1,1,37.86070618723686,95.65714285714287ZM38.38667265812681,95.86109133763377L41.0993872677801,93.79864545018788A1,1,0,1,1,42.309844996554204,95.39074848920609L39.597130386900915,97.45319437665198A1,1,0,1,1,38.38667265812681,95.86109133763377ZM41.70461613216715,93.59469696969698L45.84881762228701,93.59469696969698A1,1,0,1,1,45.84881762228701,95.59469696969698L41.70461613216715,95.59469696969698A1,1,0,1,1,41.70461613216715,93.59469696969698ZM46.19019106212302,93.65476922004038L48.983193977575006,94.66916315943432A1,1,0,1,1,48.30044709790298,96.54901865874753L45.507444182450996,95.53462471935359A1,1,0,1,1,46.19019106212302,93.65476922004038ZM48.46790282663172,94.62433072012956L52.0739928817013,93.98746203326087A1,1,0,1,1,52.421828303915845,95.95698241118359L48.815738248846266,96.59385109805228A1,1,0,1,1,48.46790282663172,94.62433072012956ZM52.24791059280857,93.97222222222223L55.62367994816972,93.97222222222223A1,1,0,1,1,55.62367994816972,95.97222222222223L52.24791059280857,95.97222222222223A1,1,0,1,1,52.24791059280857,93.97222222222223ZM56.57696922218496,94.67016335370896L59.633658564588664,104.31698875053435A1,1,0,1,1,57.7270800165582,104.92110648756089L54.67039067415449,95.2742810907355A1,1,0,1,1,56.57696922218496,94.67016335370896ZM59.65771257314919,104.40738725902703L62.71440191555291,118.52167297331277A1,1,0,1,1,60.75971535040139,118.94499369335395L57.70302600799767,104.83070797906821A1,1,0,1,1,59.65771257314919,104.40738725902703ZM61.52022600451177,117.75712453843711L69.32391891024548,116.02379120510373A1,1,0,1,1,69.75758416717625,117.97620879489624L61.953891261442536,119.70954212822961A1,1,0,1,1,61.52022600451177,117.75712453843711ZM70.11643574570247,116.18232788122593L79.34870008000762,122.68232788122594A1,1,0,1,1,78.1973316660244,124.31767211877406L68.96506733171925,117.81767211877404A1,1,0,1,1,70.11643574570247,116.18232788122593Z" fill="#0F3C5F"></path></g></g><path class="foreground" aria-hidden="true" d="" display="none"></path></g><g transform="translate(0,0)"><path class="background" aria-hidden="true" d="M0,0h80v130h-80Z"></path><g><g class="mark-trail role-mark child_layer_0_marks" clip-path="url(#clip2)" role="graphics-object" aria-roledescription="trail mark container"><path aria-label="condition: Spatial; Time after, Switch (s): 0.398982993197; Hit Rate: 0.720238095238; weight: 20" role="graphics-symbol" aria-roledescription="trail mark" d="M11.399514091350829,71.73809523809524L11.580293704783497,71.73809523809524A1,1,0,1,1,11.580293704783497,73.73809523809524L11.399514091350829,73.73809523809524A1,1,0,1,1,11.399514091350829,71.73809523809524ZM12.337664946987092,72.08511070421793L15.633421344784306,75.90772975183701A1,1,0,1,1,14.118678860377116,77.21369881959164L10.822922462579902,73.39107977197256A1,1,0,1,1,12.337664946987092,72.08511070421793ZM13.984130980914001,76.10851932731111L17.099107765278546,69.96447170826346A1,1,0,1,1,18.882946008611967,70.86886162506988L15.767969224247421,77.01290924411754A1,1,0,1,1,13.984130980914001,76.10851932731111ZM17.991026886945257,69.41666666666667L18.248558471007456,69.41666666666667A1,1,0,1,1,18.248558471007456,71.41666666666667L17.991026886945257,71.41666666666667A1,1,0,1,1,17.991026886945257,69.41666666666667ZM18.248558471007456,69.41666666666667L18.506090055069656,69.41666666666667A1,1,0,1,1,18.506090055069656,71.41666666666667L18.248558471007456,71.41666666666667A1,1,0,1,1,18.248558471007456,69.41666666666667ZM17.788287320622008,69.72042013387855L19.949932931247208,67.49184870530712A1,1,0,1,1,21.385538400142504,68.88434177088337L19.223892789517304,71.1129131994548A1,1,0,1,1,17.788287320622008,69.72042013387855ZM20.667735665694856,67.18809523809524L23.796339488176233,67.18809523809524A1,1,0,1,1,23.796339488176233,69.18809523809524L20.667735665694856,69.18809523809524A1,1,0,1,1,20.667735665694856,67.18809523809524ZM23.796339488176233,67.18809523809524L24.7632977000324,67.18809523809524A1,1,0,1,1,24.7632977000324,69.18809523809524L23.796339488176233,69.18809523809524A1,1,0,1,1,23.796339488176233,67.18809523809524ZM24.7632977000324,67.18809523809524L25.62918691286039,67.18809523809524A1,1,0,1,1,25.62918691286039,69.18809523809524L24.7632977000324,69.18809523809524A1,1,0,1,1,24.7632977000324,67.18809523809524ZM25.62918691286039,67.18809523809524L26.581891804340785,67.18809523809524A1,1,0,1,1,26.581891804340785,69.18809523809524L25.62918691286039,69.18809523809524A1,1,0,1,1,25.62918691286039,67.18809523809524ZM26.581891804340785,67.18809523809524L26.668707482993202,67.18809523809524A1,1,0,1,1,26.668707482993202,69.18809523809524L26.581891804340785,69.18809523809524A1,1,0,1,1,26.581891804340785,67.18809523809524ZM26.668707482993202,67.18809523809524L26.990055069646914,67.18809523809524A1,1,0,1,1,26.990055069646914,69.18809523809524L26.668707482993202,69.18809523809524A1,1,0,1,1,26.668707482993202,67.18809523809524ZM27.971509143551785,67.99639781814513L28.292856730205504,69.6416359133832A1,1,0,1,1,26.32994858239576,70.02503075328343L26.008600995742043,68.37979265804536A1,1,0,1,1,27.971509143551785,67.99639781814513ZM27.311402656300633,68.83333333333331L29.51969549724646,68.83333333333331A1,1,0,1,1,29.51969549724646,70.83333333333331L27.311402656300633,70.83333333333331A1,1,0,1,1,27.311402656300633,68.83333333333331ZM29.296104864337916,68.85865019052456L32.601854783353176,68.10031685719122A1,1,0,1,1,33.049036049170255,70.04968314280873L29.743286130155003,70.80801647614207A1,1,0,1,1,29.296104864337916,68.85865019052456ZM32.930335116395426,68.08051613848896L34.58955118377486,68.255516138489A1,1,0,1,1,34.37977178350744,70.24448386151103L32.720555716128004,70.06948386151099A1,1,0,1,1,32.930335116395426,68.08051613848896ZM34.48466148364115,68.25000000000001L35.04642047295115,68.25000000000001A1,1,0,1,1,35.04642047295115,70.25000000000001L34.48466148364115,70.25000000000001A1,1,0,1,1,34.48466148364115,68.25000000000001ZM35.04642047295115,68.25000000000001L36.453563330094,68.25000000000001A1,1,0,1,1,36.453563330094,70.25000000000001L35.04642047295115,70.25000000000001A1,1,0,1,1,35.04642047295115,68.25000000000001ZM37.35930627633003,68.8261725405974L38.76644913347289,71.83331539774024A1,1,0,1,1,36.954963241000826,72.68097031654547L35.54782038385797,69.67382745940263A1,1,0,1,1,37.35930627633003,68.8261725405974ZM37.86070618723686,71.25714285714285L38.991901522513864,71.25714285714285A1,1,0,1,1,38.991901522513864,73.25714285714285L37.86070618723686,73.25714285714285A1,1,0,1,1,37.86070618723686,71.25714285714285ZM38.180862854098486,71.67215031160487L40.893577463751775,67.91121957567412A1,1,0,1,1,42.51565480058253,69.0812046667501L39.80294019092924,72.84213540268084A1,1,0,1,1,38.180862854098486,71.67215031160487ZM41.70461613216715,67.49621212121211L45.84881762228701,67.49621212121211A1,1,0,1,1,45.84881762228701,69.49621212121211L41.70461613216715,69.49621212121211A1,1,0,1,1,41.70461613216715,67.49621212121211ZM45.29135660704958,67.66600900360146L48.08435952250156,65.79057610316858A1,1,0,1,1,49.19928155297642,67.45098233838988L46.40627863752444,69.32641523882276A1,1,0,1,1,45.29135660704958,67.66600900360146ZM48.1601740721908,65.74441361087379L51.76626412726038,63.76252327898345A1,1,0,1,1,52.72955705835677,65.51525449879432L49.12346700328719,67.49714483068466A1,1,0,1,1,48.1601740721908,65.74441361087379ZM52.24791059280857,63.638888888888886L55.62367994816972,63.638888888888886A1,1,0,1,1,55.62367994816972,65.63888888888889L52.24791059280857,65.63888888888889A1,1,0,1,1,52.24791059280857,63.638888888888886ZM54.90073761567418,63.94798051299096L57.95742695807789,60.74956781457828A1,1,0,1,1,59.40331162306897,62.13138456637413L56.346622280665265,65.3297972647868A1,1,0,1,1,54.90073761567418,63.94798051299096ZM58.97986918888547,60.48637985838438L62.036558531289195,61.445903667908176A1,1,0,1,1,61.43755873466511,63.35409633209182L58.38086939226139,62.394572522568026A1,1,0,1,1,58.97986918888547,60.48637985838438ZM62.40124678986394,61.65243455654282L70.20493969559766,68.58576788987617A1,1,0,1,1,68.87656338182407,70.08089877679052L61.072870476090365,63.147565443457175A1,1,0,1,1,62.40124678986394,61.65243455654282ZM69.7692282083111,68.35978394503896L79.00149254261625,70.52645061170561A1,1,0,1,1,78.54453920341577,72.47354938829439L69.31227486911062,70.30688272162773A1,1,0,1,1,69.7692282083111,68.35978394503896Z" fill="#EB9A60"></path></g></g><path class="foreground" aria-hidden="true" d="" display="none"></path></g><g transform="translate(0,0)"><path class="background" aria-hidden="true" d="M0,0h80v130h-80Z"></path><g><g class="mark-trail role-mark child_layer_0_marks" clip-path="url(#clip3)" role="graphics-object" aria-roledescription="trail mark container"><path aria-label="condition: Object; Time after, Switch (s): 0.398982993197; Hit Rate: 0.850793650794; weight: 20" role="graphics-symbol" aria-roledescription="trail mark" d="M11.399514091350829,37.7936507936508L11.580293704783497,37.7936507936508A1,1,0,1,1,11.580293704783497,39.7936507936508L11.399514091350829,39.7936507936508A1,1,0,1,1,11.399514091350829,37.7936507936508ZM11.580293704783497,37.7936507936508L14.876050102580711,37.7936507936508A1,1,0,1,1,14.876050102580711,39.7936507936508L11.580293704783497,39.7936507936508A1,1,0,1,1,11.580293704783497,37.7936507936508ZM14.368173762518952,37.93222080624296L17.483150546883497,36.095712869735046A1,1,0,1,1,18.498903227007016,37.81857284455072L15.383926442642471,39.655080781058636A1,1,0,1,1,14.368173762518953,37.93222080624296ZM17.991026886945257,35.957142857142884L18.248558471007456,35.957142857142884A1,1,0,1,1,18.248558471007456,37.957142857142884L17.991026886945257,37.957142857142884A1,1,0,1,1,17.991026886945257,35.957142857142884ZM18.248558471007456,35.957142857142884L18.506090055069656,35.957142857142884A1,1,0,1,1,18.506090055069656,37.957142857142884L18.248558471007456,37.957142857142884A1,1,0,1,1,18.248558471007456,35.957142857142884ZM18.725382427551033,35.98148366696863L20.887028038176233,36.467342252827166A1,1,0,1,1,20.44844329321348,38.418660633175676L18.28679768258828,37.93280204731714A1,1,0,1,1,18.725382427551033,35.98148366696863ZM20.667735665694856,36.44300144300142L23.796339488176233,36.44300144300142A1,1,0,1,1,23.796339488176233,38.44300144300142L20.667735665694856,38.44300144300142A1,1,0,1,1,20.667735665694856,36.44300144300142ZM23.796339488176233,36.44300144300142L24.7632977000324,36.44300144300142A1,1,0,1,1,24.7632977000324,38.44300144300142L23.796339488176233,38.44300144300142A1,1,0,1,1,23.796339488176233,36.44300144300142ZM24.7632977000324,36.44300144300142L25.62918691286039,36.44300144300142A1,1,0,1,1,25.62918691286039,38.44300144300142L24.7632977000324,38.44300144300142A1,1,0,1,1,24.7632977000324,36.44300144300142ZM25.62918691286039,36.44300144300142L26.581891804340785,36.44300144300142A1,1,0,1,1,26.581891804340785,38.44300144300142L25.62918691286039,38.44300144300142A1,1,0,1,1,25.62918691286039,36.44300144300142ZM26.581891804340785,36.44300144300142L26.668707482993202,36.44300144300142A1,1,0,1,1,26.668707482993202,38.44300144300142L26.581891804340785,38.44300144300142A1,1,0,1,1,26.581891804340785,36.44300144300142ZM26.668707482993202,36.44300144300142L26.990055069646914,36.44300144300142A1,1,0,1,1,26.990055069646914,38.44300144300142L26.668707482993202,38.44300144300142A1,1,0,1,1,26.668707482993202,36.44300144300142ZM27.983365096766537,37.32752334973861L28.304712683420256,40.09166476388009A1,1,0,1,1,26.31809262918101,40.32262095040571L25.99674504252729,37.55847953626423A1,1,0,1,1,27.983365096766537,37.32752334973861ZM27.311402656300633,39.2071428571429L29.51969549724646,39.2071428571429A1,1,0,1,1,29.51969549724646,41.2071428571429L27.311402656300633,41.2071428571429A1,1,0,1,1,27.311402656300633,39.2071428571429ZM29.444285030538854,39.209990280296736L32.75003494955411,38.95999028029671A1,1,0,1,1,32.90085588296932,40.95429543398903L29.595105963954065,41.20429543398906A1,1,0,1,1,29.444285030538854,39.209990280296736ZM33.31062444295193,39.08272801734431L34.96984051033136,40.0033629379792A1,1,0,1,1,33.999482456950936,41.75219261757632L32.340266389571504,40.83155769694143A1,1,0,1,1,33.31062444295193,39.08272801734431ZM34.48466148364115,39.87777777777776L35.04642047295115,39.87777777777776A1,1,0,1,1,35.04642047295115,41.87777777777776L34.48466148364115,41.87777777777776A1,1,0,1,1,34.48466148364115,39.87777777777776ZM35.04642047295115,39.87777777777776L36.453563330094,39.87777777777776A1,1,0,1,1,36.453563330094,41.87777777777776L35.04642047295115,41.87777777777776A1,1,0,1,1,35.04642047295115,39.87777777777776ZM37.40838215777824,40.58058927480416L38.8155250149211,45.101512795727714A1,1,0,1,1,36.905887359552615,45.69588980167491L35.49874450240976,41.174966280751356A1,1,0,1,1,37.40838215777824,40.58058927480416ZM37.86070618723686,44.39870129870131L38.991901522513864,44.39870129870131A1,1,0,1,1,38.991901522513864,46.39870129870131L37.86070618723686,46.39870129870131A1,1,0,1,1,37.86070618723686,44.39870129870131ZM38.354179060845354,44.62843507077524L41.066893670498644,42.3825115498517A1,1,0,1,1,42.34233859383566,43.923044005703844L39.62962398418237,46.168967526627384A1,1,0,1,1,38.354179060845354,44.62843507077524ZM41.70461613216715,42.15277777777777L45.84881762228701,42.15277777777777A1,1,0,1,1,45.84881762228701,44.15277777777777L41.70461613216715,44.15277777777777A1,1,0,1,1,41.70461613216715,42.15277777777777ZM45.54125665662969,42.201249400689655L48.33425957208168,41.298471622911876A1,1,0,1,1,48.94938150339631,43.20152837708811L46.156378587944324,44.10430615486589A1,1,0,1,1,45.54125665662969,42.201249400689655ZM49.579726513235805,41.90311041940211L53.185816568305384,51.65311041940213A1,1,0,1,1,51.31000461731176,52.346889580597896L47.70391456224218,42.596889580597875A1,1,0,1,1,49.579726513235805,41.90311041940211ZM52.24791059280857,51.000000000000014L55.62367994816972,51.000000000000014A1,1,0,1,1,55.62367994816972,53.000000000000014L52.24791059280857,53.000000000000014A1,1,0,1,1,52.24791059280857,51.000000000000014ZM56.583098728874276,51.718014888280635L59.639788071277984,62.11801488828062A1,1,0,1,1,57.72095050986888,62.68198511171938L54.66426116746517,52.28198511171939A1,1,0,0,1,56.583098728874276,51.718014888280635ZM58.68036929057343,61.4L61.73705863297715,61.4A1,1,0,1,1,61.73705863297715,63.4L58.68036929057343,63.4A1,1,0,1,1,58.68036929057343,61.4ZM62.05315170712318,61.45127181528274L69.85684461285689,64.05127181528273A1,1,0,1,1,69.22465846456484,65.94872818471727L61.42096555883113,63.34872818471726A1,1,0,1,1,62.05315170712318,61.45127181528274ZM69.54075153871086,64L78.773015873016,64A1,1,0,1,1,78.773015873016,66L69.54075153871086,66A1,1,0,1,1,69.54075153871086,64Z" fill="#687B3E"></path></g></g><path class="foreground" aria-hidden="true" d="" display="none"></path></g></g><g class="mark-group role-scope child_layer_1_layer_0_pathgroup" role="graphics-object" aria-roledescription="group mark container"><g transform="translate(0,0)"><path class="background" aria-hidden="true" d="M0,0h80v130h-80Z"></path><g><g class="mark-area role-mark child_layer_1_layer_0_marks" clip-path="url(#clip4)" role="graphics-object" aria-roledescription="area mark container"><path aria-label=": 0.78373015873; upper_upper: 0.565873015873; condition: Global; time: 0.398982993197; lower: 0.565873015873; upper: 0.78373015873" role="graphics-symbol" aria-roledescription="errorband" d="M11.399514091350829,56.230158730158706L11.580293704783497,56.0238095238095L14.876050102580711,61.00714285714286L17.991026886945257,55.105555555555654L18.248558471007456,54.96111111111119L18.506090055069656,54.524166666666765L20.667735665694856,60.48095238095235L23.796339488176233,60.54208333333331L24.7632977000324,60.35636904761907L25.62918691286039,60.635714285714286L26.581891804340785,60.69761904761905L26.668707482993202,61.347619047619034L26.990055069646914,60.48095238095235L27.311402656300633,61.83333333333337L29.51969549724646,61.3641666666667L32.825445416261715,62.47281250000002L34.48466148364115,65.66597222222217L35.04642047295115,66.33263888888887L36.453563330094,65.60972222222217L37.86070618723686,74.30000000000005L38.991901522513864,74.08178571428574L41.70461613216715,70.12121212121214L45.84881762228701,70.46590909090911L48.641820537738994,73.1714285714286L52.24791059280857,71.1388888888889L55.62367994816972,71.86111111111111L58.68036929057343,81.09523809523813L61.73705863297715,86.66666666666673L69.54075153871086,79.08333333333329L78.773015873016,84.49999999999999L78.773015873016,162.5L69.54075153871086,153.83333333333331L61.73705863297715,150.3666666666667L58.68036929057343,128.91666666666666L55.62367994816972,118.98611111111111L52.24791059280857,118.99062499999997L48.641820537738994,117.82769480519481L45.84881762228701,118.28276515151515L41.70461613216715,118.92045454545458L38.991901522513864,118.30000000000001L37.86070618723686,118.50035714285715L36.453563330094,109.41736111111106L35.04642047295115,109.38958333333329L34.48466148364115,109.47291666666662L32.825445416261715,107.18812499999997L29.51969549724646,105.63333333333334L27.311402656300633,105.43333333333335L26.990055069646914,105.30077380952382L26.668707482993202,105.48726190476187L26.581891804340785,105.51744047619046L25.62918691286039,105.51744047619046L24.7632977000324,105.9817261904762L23.796339488176233,105.51666666666665L20.667735665694856,105.73333333333335L18.506090055069656,101.11111111111119L18.248558471007456,100.60555555555564L17.991026886945257,100.82402777777781L14.876050102580711,114.91187500000001L11.580293704783497,112.87301587301585L11.399514091350829,112.87301587301585Z" fill="#0F3C5F" opacity="0.3"></path></g></g><path class="foreground" aria-hidden="true" d="" display="none"></path></g><g transform="translate(0,0)"><path class="background" aria-hidden="true" d="M0,0h80v130h-80Z"></path><g><g class="mark-area role-mark child_layer_1_layer_0_marks" clip-path="url(#clip5)" role="graphics-object" aria-roledescription="area mark container"><path aria-label=": 0.828968253968; upper_upper: 0.61626984127; condition: Spatial; time: 0.398982993197; lower: 0.61626984127; upper: 0.828968253968" role="graphics-symbol" aria-roledescription="errorband" d="M11.399514091350829,44.46825396825398L11.580293704783497,44.571428571428584L14.876050102580711,51.48812500000005L17.991026886945257,48.244444444444454L18.248558471007456,48.16861111111117L18.506090055069656,48.02777777777778L20.667735665694856,46.42779761904763L23.796339488176233,46.676190476190506L24.7632977000324,46.24285714285716L25.62918691286039,46.42779761904763L26.581891804340785,46.70636904761907L26.668707482993202,46.61428571428577L26.990055069646914,47.01589285714288L27.311402656300633,48.69916666666665L29.51969549724646,48.43333333333329L32.825445416261715,47.83749999999995L34.48466148364115,45.77708333333338L35.04642047295115,45.694444444444485L36.453563330094,45.77708333333335L37.86070618723686,48.49857142857141L38.991901522513864,47.956785714285694L41.70461613216715,43.97348484848484L45.84881762228701,44.218465909090874L48.641820537738994,41.00909090909091L52.24791059280857,38.99999999999998L55.62367994816972,38.99097222222228L58.68036929057343,34.51190476190478L61.73705863297715,35.1L69.54075153871086,31.4166666666667L78.773015873016,32.5L78.773015873016,110.50000000000001L69.54075153871086,104L61.73705863297715,88.39999999999999L58.68036929057343,86.6705357142857L55.62367994816972,89.19444444444441L52.24791059280857,89.2034722222221L48.641820537738994,90.20733766233766L45.84881762228701,91.73863636363635L41.70461613216715,91.73863636363635L38.991901522513864,95.515L37.86070618723686,94.8285714285714L36.453563330094,91.22222222222224L35.04642047295115,91.58333333333339L34.48466148364115,91.30694444444445L32.825445416261715,89.73749999999993L29.51969549724646,90.99999999999997L27.311402656300633,91.43416666666663L26.990055069646914,89.54601190476195L26.668707482993202,89.8245833333334L26.581891804340785,89.51428571428575L25.62918691286039,88.98809523809527L24.7632977000324,89.29839285714289L23.796339488176233,89.5460119047619L20.667735665694856,89.48410714285716L18.506090055069656,93.16666666666669L18.248558471007456,92.44444444444446L17.991026886945257,93.16666666666669L14.876050102580711,100.47142857142863L11.580293704783497,98.94444444444444L11.399514091350829,99.76984126984127Z" fill="#EB9A60" opacity="0.3"></path></g></g><path class="foreground" aria-hidden="true" d="" display="none"></path></g><g transform="translate(0,0)"><path class="background" aria-hidden="true" d="M0,0h80v130h-80Z"></path><g><g class="mark-area role-mark child_layer_1_layer_0_marks" clip-path="url(#clip6)" role="graphics-object" aria-roledescription="area mark container"><path aria-label=": 0.919067460317; upper_upper: 0.79126984127; condition: Object; time: 0.398982993197; lower: 0.79126984127; upper: 0.919067460317" role="graphics-symbol" aria-roledescription="errorband" d="M11.399514091350829,21.04246031746037L11.580293704783497,21.460317460317498L14.876050102580711,21.253968253968264L17.991026886945257,20.567857142857193L18.248558471007456,20.148839285714338L18.506090055069656,20.24285714285717L20.667735665694856,20.878787878787854L23.796339488176233,20.82251082251077L24.7632977000324,20.821572871572815L25.62918691286039,20.878787878787826L26.581891804340785,20.821572871572815L26.668707482993202,21.028860028859974L26.990055069646914,20.728715728715677L27.311402656300633,22.90398809523819L29.51969549724646,22.750000000000064L32.825445416261715,23.171428571428617L34.48466148364115,19.788888888888863L35.04642047295115,19.644444444444396L36.453563330094,19.211111111111084L37.86070618723686,25.45889610389613L38.991901522513864,25.509545454545478L41.70461613216715,23.79722222222219L45.84881762228701,24.555555555555525L48.641820537738994,18.10714285714285L52.24791059280857,19.066666666666674L55.62367994816972,19.04500000000021L58.68036929057343,26.64999999999998L61.73705863297715,26.633750000000134L69.54075153871086,30.33333333333331L78.773015873016,25.999999999999993L78.773015873016,97.5L69.54075153871086,97.5L61.73705863297715,94.89999999999999L58.68036929057343,94.90000000000002L55.62367994816972,78.8666666666667L52.24791059280857,78.8666666666667L48.641820537738994,63.14285714285715L45.84881762228701,60.63055555555552L41.70461613216715,60.63055555555551L38.991901522513864,64.12250000000003L37.86070618723686,64.22379870129869L36.453563330094,60.092499999999916L35.04642047295115,60.377777777777716L34.48466148364115,60.088888888888846L32.825445416261715,55.8857142857143L29.51969549724646,56.02380952380961L27.311402656300633,56.33410714285723L26.990055069646914,52.56370851370847L26.668707482993202,52.41363636363632L26.581891804340785,52.469913419913354L25.62918691286039,52.506493506493456L24.7632977000324,52.506493506493456L23.796339488176233,52.300144300144254L20.667735665694856,52.03751803751799L18.506090055069656,51.49160714285717L18.248558471007456,51.490446428571474L17.991026886945257,51.7214285714286L14.876050102580711,54.26984126984128L11.580293704783497,53.85714285714287L11.399514091350829,54.26984126984128Z" fill="#687B3E" opacity="0.3"></path></g></g><path class="foreground" aria-hidden="true" d="" display="none"></path></g></g><g class="mark-text role-mark child_layer_2_marks" role="graphics-object" aria-roledescription="text mark container"></g><g class="mark-text role-mark child_layer_3_layer_0_marks" role="graphics-object" aria-roledescription="text mark container"><text text-anchor="end" transform="translate(44.857142857142854,128)" font-family="sans-serif" font-size="9px" fill="#3A3A3A">Far</text></g><g class="mark-text role-mark child_layer_3_layer_1_marks" role="graphics-object" aria-roledescription="text mark container"><text text-anchor="start" transform="translate(2,128)" font-family="sans-serif" font-size="9px" fill="#3A3A3A">Near</text></g></g><path class="foreground" aria-hidden="true" d="" display="none"></path></g><g transform="translate(83,0)"><path class="background" aria-hidden="true" d="M0.5,0.5h80v130h-80Z" stroke="#ddd"></path><g><g class="mark-group role-axis" aria-hidden="true"><g transform="translate(0.5,130.5)"><path class="background" aria-hidden="true" d="M0,0h0v0h0Z" pointer-events="none"></path><g><g class="mark-rule role-axis-grid" pointer-events="none"><line transform="translate(0,-130)" x2="0" y2="130" stroke="#ddd" stroke-width="1" opacity="1"></line><line transform="translate(29,-130)" x2="0" y2="130" stroke="#ddd" stroke-width="1" opacity="1"></line><line transform="translate(57,-130)" x2="0" y2="130" stroke="#ddd" stroke-width="1" opacity="1"></line></g></g><path class="foreground" aria-hidden="true" d="" pointer-events="none" display="none"></path></g></g><g class="mark-group role-axis" aria-hidden="true"><g transform="translate(0.5,0.5)"><path class="background" aria-hidden="true" d="M0,0h0v0h0Z" pointer-events="none"></path><g><g class="mark-rule role-axis-grid" pointer-events="none"><line transform="translate(0,130)" x2="80" y2="0" stroke="#ddd" stroke-width="1" opacity="1"></line><line transform="translate(0,104)" x2="80" y2="0" stroke="#ddd" stroke-width="1" opacity="1"></line><line transform="translate(0,78)" x2="80" y2="0" stroke="#ddd" stroke-width="1" opacity="1"></line><line transform="translate(0,52)" x2="80" y2="0" stroke="#ddd" stroke-width="1" opacity="1"></line><line transform="translate(0,26)" x2="80" y2="0" stroke="#ddd" stroke-width="1" opacity="1"></line><line transform="translate(0,0)" x2="80" y2="0" stroke="#ddd" stroke-width="1" opacity="1"></line></g></g><path class="foreground" aria-hidden="true" d="" pointer-events="none" display="none"></path></g></g><g class="mark-group role-scope child_layer_0_pathgroup" role="graphics-object" aria-roledescription="group mark container"><g transform="translate(0,0)"><path class="background" aria-hidden="true" d="M0,0h80v130h-80Z"></path><g><g class="mark-trail role-mark child_layer_0_marks" clip-path="url(#clip7)" role="graphics-object" aria-roledescription="trail mark container"><path aria-label="condition: Global; Time after, Switch (s): 0.398982993197; Hit Rate: 0.783333333333; weight: 20" role="graphics-symbol" aria-roledescription="trail mark" d="M11.399514091350829,55.333333333333336L11.580293704783497,55.333333333333336A1,1,0,1,1,11.580293704783497,57.333333333333336L11.399514091350829,57.333333333333336A1,1,0,1,1,11.399514091350829,55.333333333333336ZM11.580293704783497,55.333333333333336L14.876050102580711,55.333333333333336A1,1,0,1,1,14.876050102580711,57.333333333333336L11.580293704783497,57.333333333333336A1,1,0,1,1,11.580293704783497,55.333333333333336ZM15.777844858251298,55.90116875976786L18.892821642615843,62.40116875976787A1,1,0,1,1,17.08923213127467,63.265497906898815L13.974255346910125,56.76549790689881A1,1,0,1,1,15.777844858251298,55.90116875976786ZM17.991026886945257,61.83333333333334L18.248558471007456,61.83333333333334A1,1,0,1,1,18.248558471007456,63.83333333333334L17.991026886945257,63.83333333333334A1,1,0,1,1,17.991026886945257,61.83333333333334ZM18.248558471007456,61.83333333333334L18.506090055069656,61.83333333333334A1,1,0,1,1,18.506090055069656,63.83333333333334L18.248558471007456,63.83333333333334A1,1,0,1,1,18.248558471007456,61.83333333333334ZM18.506090055069656,61.83333333333334L20.667735665694856,61.83333333333334A1,1,0,1,1,20.667735665694856,63.83333333333334L18.506090055069656,63.83333333333334A1,1,0,1,1,18.506090055069656,61.83333333333334ZM20.667735665694856,61.83333333333334L23.796339488176233,61.83333333333334A1,1,0,1,1,23.796339488176233,63.83333333333334L20.667735665694856,63.83333333333334A1,1,0,1,1,20.667735665694856,61.83333333333334ZM23.796339488176233,61.83333333333334L24.7632977000324,61.83333333333334A1,1,0,1,1,24.7632977000324,63.83333333333334L23.796339488176233,63.83333333333334A1,1,0,1,1,23.796339488176233,61.83333333333334ZM24.7632977000324,61.83333333333334L25.62918691286039,61.83333333333334A1,1,0,1,1,25.62918691286039,63.83333333333334L24.7632977000324,63.83333333333334A1,1,0,1,1,24.7632977000324,61.83333333333334ZM25.62918691286039,61.83333333333334L26.581891804340785,61.83333333333334A1,1,0,1,1,26.581891804340785,63.83333333333334L25.62918691286039,63.83333333333334A1,1,0,1,1,25.62918691286039,61.83333333333334ZM26.581891804340785,61.83333333333334L26.668707482993202,61.83333333333334A1,1,0,1,1,26.668707482993202,63.83333333333334L26.581891804340785,63.83333333333334A1,1,0,1,1,26.581891804340785,61.83333333333334ZM26.668707482993202,61.83333333333334L26.990055069646914,61.83333333333334A1,1,0,1,1,26.990055069646914,63.83333333333334L26.668707482993202,63.83333333333334A1,1,0,1,1,26.668707482993202,61.83333333333334ZM25.995619784469437,62.727984087517385L26.316967371123155,59.69465075418404A1,1,0,1,1,28.30583794147811,59.905349245815955L27.98449035482439,62.9386825791493A1,1,0,1,1,25.995619784469437,62.727984087517385ZM27.311402656300633,58.8L29.51969549724646,58.8A1,1,0,1,1,29.51969549724646,60.8L27.311402656300633,60.8A1,1,0,1,1,27.311402656300633,58.8ZM29.51969549724646,58.8L32.825445416261715,58.8A1,1,0,1,1,32.825445416261715,60.8L29.51969549724646,60.8A1,1,0,1,1,29.51969549724646,58.8ZM32.825445416261715,58.8L34.48466148364115,58.8A1,1,0,1,1,34.48466148364115,60.8L32.825445416261715,60.8A1,1,0,1,1,32.825445416261715,58.8ZM34.48466148364115,58.8L35.04642047295115,58.8A1,1,0,1,1,35.04642047295115,60.8L34.48466148364115,60.8A1,1,0,1,1,34.48466148364115,58.8ZM35.04642047295115,58.8L36.453563330094,58.8A1,1,0,1,1,36.453563330094,60.8L35.04642047295115,60.8A1,1,0,1,1,35.04642047295115,58.8ZM36.453563330094,58.8L37.86070618723686,58.8A1,1,0,1,1,37.86070618723686,60.8L36.453563330094,60.8A1,1,0,1,1,36.453563330094,58.8ZM37.86070618723686,58.8L38.991901522513864,58.8A1,1,0,1,1,38.991901522513864,60.8L37.86070618723686,60.8A1,1,0,1,1,37.86070618723686,58.8ZM38.991901522513864,58.8L41.70461613216715,58.8A1,1,0,1,1,41.70461613216715,60.8L38.991901522513864,60.8A1,1,0,1,1,38.991901522513864,58.8ZM42.13037518927826,58.89516342619904L46.274576679398116,60.84516342619906A1,1,0,1,1,45.4230585651759,62.65483657380097L41.278857075056045,60.704836573800954A1,1,0,1,1,42.13037518927826,58.89516342619904ZM45.48719337189293,60.81767607478576L48.280196287344914,59.734342741452394A1,1,0,1,1,49.00344478813307,61.598990591880906L46.21044187268109,62.68232392521427A1,1,0,1,1,45.48719337189293,60.81767607478576ZM49.41047966178747,60.02700804598134L53.01656971685705,64.36034137931469A1,1,0,1,1,51.4792514687601,65.63965862068531L47.87316141369052,61.30632528735196A1,1,0,1,1,49.41047966178747,60.02700804598134ZM52.24791059280857,64L55.62367994816972,64A1,1,0,1,1,55.62367994816972,66L52.24791059280857,66A1,1,0,1,1,52.24791059280857,64ZM56.6116160224149,64.84513776055788L59.66830536481861,84.34513776055786A1,1,0,1,1,57.692433216328254,84.65486223944211L54.63574387392455,65.15486223944212A1,1,0,1,1,56.6116160224149,64.84513776055788ZM58.68036929057343,83.49999999999999L61.73705863297715,83.49999999999999A1,1,0,1,1,61.73705863297715,85.49999999999999L58.68036929057343,85.49999999999999A1,1,0,1,1,58.68036929057343,83.49999999999999ZM61.73705863297715,83.49999999999999L69.54075153871086,83.49999999999999A1,1,0,1,1,69.54075153871086,85.49999999999999L61.73705863297715,85.49999999999999A1,1,0,1,1,61.73705863297715,83.49999999999999ZM70.50269226627664,84.22674181320549L79.73495660058178,116.72674181320549A1,1,0,1,1,77.81107514545023,117.27325818679448L68.57881081114509,84.77325818679448A1,1,0,0,1,70.50269226627664,84.22674181320549Z" fill="#0F3C5F"></path></g></g><path class="foreground" aria-hidden="true" d="" display="none"></path></g><g transform="translate(0,0)"><path class="background" aria-hidden="true" d="M0,0h80v130h-80Z"></path><g><g class="mark-trail role-mark child_layer_0_marks" clip-path="url(#clip8)" role="graphics-object" aria-roledescription="trail mark container"><path aria-label="condition: Spatial; Time after, Switch (s): 0.398982993197; Hit Rate: 0.908333333333; weight: 20" role="graphics-symbol" aria-roledescription="trail mark" d="M11.399514091350829,22.833333333333307L11.580293704783497,22.833333333333307A1,1,0,1,1,11.580293704783497,24.833333333333307L11.399514091350829,24.833333333333307A1,1,0,1,1,11.399514091350829,22.833333333333307ZM11.580293704783497,22.833333333333307L14.876050102580711,22.833333333333307A1,1,0,1,1,14.876050102580711,24.833333333333307L11.580293704783497,24.833333333333307A1,1,0,1,1,11.580293704783497,22.833333333333307ZM15.688030532660573,23.249648674320134L18.803007317025116,27.58298200765351A1,1,0,1,1,17.179046456865397,28.750351325679855L14.06406967250085,24.41701799234648A1,1,0,1,1,15.688030532660573,23.249648674320134ZM17.991026886945257,27.166666666666682L18.248558471007456,27.166666666666682A1,1,0,1,1,18.248558471007456,29.166666666666682L17.991026886945257,29.166666666666682A1,1,0,1,1,17.991026886945257,27.166666666666682ZM18.248558471007456,27.166666666666682L18.506090055069656,27.166666666666682A1,1,0,1,1,18.506090055069656,29.166666666666682L18.248558471007456,29.166666666666682A1,1,0,1,1,18.248558471007456,27.166666666666682ZM18.506090055069656,27.166666666666682L20.667735665694856,27.166666666666682A1,1,0,1,1,20.667735665694856,29.166666666666682L18.506090055069656,29.166666666666682A1,1,0,1,1,18.506090055069656,27.166666666666682ZM20.667735665694856,27.166666666666682L23.796339488176233,27.166666666666682A1,1,0,1,1,23.796339488176233,29.166666666666682L20.667735665694856,29.166666666666682A1,1,0,1,1,20.667735665694856,27.166666666666682ZM23.796339488176233,27.166666666666682L24.7632977000324,27.166666666666682A1,1,0,1,1,24.7632977000324,29.166666666666682L23.796339488176233,29.166666666666682A1,1,0,1,1,23.796339488176233,27.166666666666682ZM24.7632977000324,27.166666666666682L25.62918691286039,27.166666666666682A1,1,0,1,1,25.62918691286039,29.166666666666682L24.7632977000324,29.166666666666682A1,1,0,1,1,24.7632977000324,27.166666666666682ZM25.62918691286039,27.166666666666682L26.581891804340785,27.166666666666682A1,1,0,1,1,26.581891804340785,29.166666666666682L25.62918691286039,29.166666666666682A1,1,0,1,1,25.62918691286039,27.166666666666682ZM26.581891804340785,27.166666666666682L26.668707482993202,27.166666666666682A1,1,0,1,1,26.668707482993202,29.166666666666682L26.581891804340785,29.166666666666682A1,1,0,1,1,26.581891804340785,27.166666666666682ZM26.668707482993202,27.166666666666682L26.990055069646914,27.166666666666682A1,1,0,1,1,26.990055069646914,29.166666666666682L26.668707482993202,29.166666666666682A1,1,0,1,1,26.668707482993202,27.166666666666682ZM27.989739259490516,28.14153659351241L28.311086846144235,40.92486992684572A1,1,0,1,1,26.31171846645703,40.97513007315427L25.99037087980331,28.191796739820955A1,1,0,1,1,27.989739259490516,28.14153659351241ZM27.311402656300633,39.949999999999996L29.51969549724646,39.949999999999996A1,1,0,1,1,29.51969549724646,41.949999999999996L27.311402656300633,41.949999999999996A1,1,0,1,1,27.311402656300633,39.949999999999996ZM29.51969549724646,39.949999999999996L32.825445416261715,39.949999999999996A1,1,0,1,1,32.825445416261715,41.949999999999996L29.51969549724646,41.949999999999996A1,1,0,1,1,29.51969549724646,39.949999999999996ZM32.825445416261715,39.949999999999996L34.48466148364115,39.949999999999996A1,1,0,1,1,34.48466148364115,41.949999999999996L32.825445416261715,41.949999999999996A1,1,0,1,1,32.825445416261715,39.949999999999996ZM34.48466148364115,39.949999999999996L35.04642047295115,39.949999999999996A1,1,0,1,1,35.04642047295115,41.949999999999996L34.48466148364115,41.949999999999996A1,1,0,1,1,34.48466148364115,39.949999999999996ZM35.04642047295115,39.949999999999996L36.453563330094,39.949999999999996A1,1,0,1,1,36.453563330094,41.949999999999996L35.04642047295115,41.949999999999996A1,1,0,1,1,35.04642047295115,39.949999999999996ZM36.453563330094,39.949999999999996L37.86070618723686,39.949999999999996A1,1,0,1,1,37.86070618723686,41.949999999999996L36.453563330094,41.949999999999996A1,1,0,1,1,36.453563330094,39.949999999999996ZM37.86070618723686,39.949999999999996L38.991901522513864,39.949999999999996A1,1,0,1,1,38.991901522513864,41.949999999999996L37.86070618723686,41.949999999999996A1,1,0,1,1,37.86070618723686,39.949999999999996ZM38.991901522513864,39.949999999999996L41.70461613216715,39.949999999999996A1,1,0,1,1,41.70461613216715,41.949999999999996L38.991901522513864,41.949999999999996A1,1,0,1,1,38.991901522513864,39.949999999999996ZM42.658808050380266,40.65080477407421L46.80300954050012,53.86747144074089A1,1,0,1,1,44.894625704073896,54.465861892592464L40.75042421395404,41.24919522592578A1,1,0,1,1,42.658808050380266,40.65080477407421ZM46.461758504429596,53.37653789551715L49.25476141988158,55.54320456218381A1,1,0,1,1,48.028879655596405,57.12346210448286L45.23587674014442,54.956795437816204A1,1,0,0,1,46.461758504429596,53.37653789551715ZM49.156842748166866,55.47615650048845L52.762932803236446,57.64282316715511A1,1,0,1,1,51.7328883823807,59.35717683284488L48.12679832731112,57.19051016617822A1,1,0,1,1,49.156842748166866,55.47615650048845ZM52.24791059280857,57.49999999999999L55.62367994816972,57.49999999999999A1,1,0,1,1,55.62367994816972,59.49999999999999L52.24791059280857,59.49999999999999A1,1,0,1,1,52.24791059280857,57.49999999999999ZM56.440837376026955,57.92358544596986L59.49752671843066,62.25691877930321A1,1,0,1,1,57.8632118627162,63.40974788736347L54.80652252031249,59.07641455403012A1,1,0,0,1,56.440837376026955,57.92358544596986ZM58.68036929057343,61.83333333333334L61.73705863297715,61.83333333333334A1,1,0,1,1,61.73705863297715,63.83333333333334L58.68036929057343,63.83333333333334A1,1,0,1,1,58.68036929057343,61.83333333333334ZM61.73705863297715,61.83333333333334L69.54075153871086,61.83333333333334A1,1,0,1,1,69.54075153871086,63.83333333333334L61.73705863297715,63.83333333333334A1,1,0,1,1,61.73705863297715,61.83333333333334ZM70.22517246137683,62.104246232489366L79.45743679568197,70.77091289915602A1,1,0,1,1,78.08859495035004,72.22908710084398L68.8563306160449,63.56242043417732A1,1,0,1,1,70.22517246137683,62.104246232489366Z" fill="#EB9A60"></path></g></g><path class="foreground" aria-hidden="true" d="" display="none"></path></g></g><g class="mark-group role-scope child_layer_1_layer_0_pathgroup" role="graphics-object" aria-roledescription="group mark container"><g transform="translate(0,0)"><path class="background" aria-hidden="true" d="M0,0h80v130h-80Z"></path><g><g class="mark-area role-mark child_layer_1_layer_0_marks" clip-path="url(#clip9)" role="graphics-object" aria-roledescription="area mark container"><path aria-label=": 0.95; upper_upper: 0.633333333333; condition: Global; time: 0.398982993197; lower: 0.633333333333; upper: 0.95" role="graphics-symbol" aria-roledescription="errorband" d="M11.399514091350829,12.999999999999982L11.580293704783497,10.833333333333323L14.876050102580711,10.833333333333323L17.991026886945257,17.33333333333333L18.248558471007456,19.49999999999999L18.506090055069656,17.33333333333333L20.667735665694856,17.33333333333333L23.796339488176233,17.333333333333357L24.7632977000324,17.33333333333333L25.62918691286039,19.49999999999999L26.581891804340785,17.33333333333333L26.668707482993202,17.33333333333333L26.990055069646914,17.33333333333333L27.311402656300633,31.849999999999984L29.51969549724646,31.849999999999984L32.825445416261715,32.5L34.48466148364115,31.19999999999997L35.04642047295115,31.849999999999984L36.453563330094,31.849999999999984L37.86070618723686,31.849999999999984L38.991901522513864,32.5L41.70461613216715,31.849999999999984L45.84881762228701,17.33333333333333L48.641820537738994,15.166666666666641L52.24791059280857,19.49999999999999L55.62367994816972,19.49999999999999L58.68036929057343,51.999999999999986L61.73705863297715,51.999999999999986L69.54075153871086,51.999999999999986L78.773015873016,64.99999999999997L78.773015873016,168.99999999999997L69.54075153871086,116.99999999999999L61.73705863297715,116.99999999999999L58.68036929057343,116.99999999999999L55.62367994816972,110.50000000000001L52.24791059280857,104L48.641820537738994,101.83333333333331L45.84881762228701,101.83333333333334L41.70461613216715,87.1L38.991901522513864,87.1L37.86070618723686,87.1L36.453563330094,87.1L35.04642047295115,87.1L34.48466148364115,87.1L32.825445416261715,87.1L29.51969549724646,87.1L27.311402656300633,87.1L26.990055069646914,101.83333333333331L26.668707482993202,101.83333333333331L26.581891804340785,101.83333333333337L25.62918691286039,101.83333333333331L24.7632977000324,101.83333333333337L23.796339488176233,101.83333333333337L20.667735665694856,101.83333333333331L18.506090055069656,101.83333333333331L18.248558471007456,101.83333333333337L17.991026886945257,104L14.876050102580711,95.33333333333331L11.580293704783497,95.33333333333331L11.399514091350829,95.33333333333331Z" fill="#0F3C5F" opacity="0.3"></path></g></g><path class="foreground" aria-hidden="true" d="" display="none"></path></g><g transform="translate(0,0)"><path class="background" aria-hidden="true" d="M0,0h80v130h-80Z"></path><g><g class="mark-area role-mark child_layer_1_layer_0_marks" clip-path="url(#clip10)" role="graphics-object" aria-roledescription="area mark container"><path aria-label=": 1.03333333333; upper_upper: 0.816666666667; condition: Spatial; time: 0.398982993197; lower: 0.816666666667; upper: 1.03333333333" role="graphics-symbol" aria-roledescription="errorband" d="M11.399514091350829,-8.666666666666751L11.580293704783497,-8.666666666666751L14.876050102580711,-8.666666666666751L17.991026886945257,-6.499999999999977L18.248558471007456,-6.499999999999977L18.506090055069656,-6.499999999999977L20.667735665694856,-6.499999999999977L23.796339488176233,-6.499999999999977L24.7632977000324,-6.499999999999977L25.62918691286039,-6.499999999999977L26.581891804340785,-6.499999999999977L26.668707482993202,-6.499999999999977L26.990055069646914,-4.333333333333318L27.311402656300633,10.39999999999998L29.51969549724646,10.39999999999998L32.825445416261715,11.699999999999982L34.48466148364115,11.699999999999982L35.04642047295115,11.699999999999982L36.453563330094,11.049999999999995L37.86070618723686,10.39999999999998L38.991901522513864,11.699999999999982L41.70461613216715,11.049999999999995L45.84881762228701,8.666666666666664L48.641820537738994,8.666666666666664L52.24791059280857,12.999999999999982L55.62367994816972,12.999999999999982L58.68036929057343,34.666666666666686L61.73705863297715,34.666666666666686L69.54075153871086,34.666666666666686L78.773015873016,19.500000000000018L78.773015873016,117.00000000000001L69.54075153871086,91L61.73705863297715,91L58.68036929057343,88.83333333333337L55.62367994816972,103.99999999999997L52.24791059280857,103.99999999999997L48.641820537738994,99.66666666666666L45.84881762228701,95.33333333333334L41.70461613216715,68.89999999999998L38.991901522513864,68.89999999999998L37.86070618723686,68.89999999999998L36.453563330094,68.89999999999998L35.04642047295115,68.89999999999998L34.48466148364115,68.89999999999998L32.825445416261715,68.89999999999998L29.51969549724646,68.89999999999998L27.311402656300633,68.89999999999998L26.990055069646914,56.33333333333337L26.668707482993202,56.333333333333364L26.581891804340785,56.333333333333364L25.62918691286039,56.333333333333364L24.7632977000324,56.333333333333364L23.796339488176233,56.333333333333364L20.667735665694856,56.333333333333364L18.506090055069656,56.333333333333364L18.248558471007456,56.333333333333364L17.991026886945257,56.333333333333364L14.876050102580711,47.666666666666615L11.580293704783497,47.666666666666615L11.399514091350829,47.666666666666615Z" fill="#EB9A60" opacity="0.3"></path></g></g><path class="foreground" aria-hidden="true" d="" display="none"></path></g></g><g class="mark-text role-mark child_layer_2_marks" role="graphics-object" aria-roledescription="text mark container"></g><g class="mark-text role-mark child_layer_3_layer_0_marks" role="graphics-object" aria-roledescription="text mark container"><text text-anchor="end" transform="translate(44.857142857142854,128)" font-family="sans-serif" font-size="9px" fill="#3A3A3A">Far</text></g><g class="mark-text role-mark child_layer_3_layer_1_marks" role="graphics-object" aria-roledescription="text mark container"><text text-anchor="start" transform="translate(2,128)" font-family="sans-serif" font-size="9px" fill="#3A3A3A">Near</text></g></g><path class="foreground" aria-hidden="true" d="" display="none"></path></g></g></g><path class="foreground" aria-hidden="true" d="" display="none"></path></g></g></g></svg>
