<?xml version="1.0" encoding="utf-8"?>
<!DOCTYPE svg PUBLIC "-//W3C//DTD SVG 1.1//EN" "http://www.w3.org/Graphics/SVG/1.1/DTD/svg11.dtd">
<svg class="marks" width="212" height="187" viewBox="0 0 212 187" version="1.1" xmlns="http://www.w3.org/2000/svg" xmlns:xlink="http://www.w3.org/1999/xlink"><defs><clipPath id="clip1"><rect x="0" y="0" width="80" height="110"></rect></clipPath><clipPath id="clip2"><rect x="0" y="0" width="80" height="110"></rect></clipPath><clipPath id="clip3"><rect x="0" y="0" width="80" height="110"></rect></clipPath><clipPath id="clip4"><rect x="0" y="0" width="80" height="110"></rect></clipPath><clipPath id="clip5"><rect x="0" y="0" width="80" height="110"></rect></clipPath><clipPath id="clip6"><rect x="0" y="0" width="80" height="110"></rect></clipPath><clipPath id="clip7"><rect x="0" y="0" width="80" height="110"></rect></clipPath><clipPath id="clip8"><rect x="0" y="0" width="80" height="110"></rect></clipPath><clipPath id="clip9"><rect x="0" y="0" width="80" height="110"></rect></clipPath><clipPath id="clip10"><rect x="0" y="0" width="80" height="110"></rect></clipPath><clipPath id="clip11"><rect x="0" y="0" width="80" height="110"></rect></clipPath><clipPath id="clip12"><rect x="0" y="0" width="80" height="110"></rect></clipPath></defs><rect width="212" height="187" fill="white"></rect><g fill="none" stroke-miterlimit="10" transform="translate(43,26)"><g class="mark-group role-frame root" role="graphics-object" aria-roledescription="group mark container"><g transform="translate(0,0)"><path class="background" aria-hidden="true" d="M0,0h0v0h0Z"></path><g><g class="mark-group role-row-header row_header" role="graphics-object" aria-roledescription="group mark container"><g transform="translate(-1,0)"><path class="background" aria-hidden="true" d="M0,0h0v110h0Z"></path><g><g class="mark-group role-axis" role="graphics-symbol" aria-roledescription="axis" aria-label="Y-axis titled 'Hit Rate' for a linear scale with values from 0.5 to 1.0"><g transform="translate(0.5,0.5)"><path class="background" aria-hidden="true" d="M0,0h0v0h0Z" pointer-events="none"></path><g><g class="mark-rule role-axis-tick" pointer-events="none"><line transform="translate(0,88)" x2="-5" y2="0" stroke="#888" stroke-width="1" opacity="1"></line><line transform="translate(0,44)" x2="-5" y2="0" stroke="#888" stroke-width="1" opacity="1"></line><line transform="translate(0,0)" x2="-5" y2="0" stroke="#888" stroke-width="1" opacity="1"></line></g><g class="mark-text role-axis-label" pointer-events="none"><text text-anchor="end" transform="translate(-7,91)" font-family="sans-serif" font-size="10px" fill="#000" opacity="1">0.6</text><text text-anchor="end" transform="translate(-7,46.99999999999999)" font-family="sans-serif" font-size="10px" fill="#000" opacity="1">0.8</text><text text-anchor="end" transform="translate(-7,3)" font-family="sans-serif" font-size="10px" fill="#000" opacity="1">1.0</text></g><g class="mark-rule role-axis-domain" pointer-events="none"><line transform="translate(0,110)" x2="0" y2="-110" stroke="#888" stroke-width="1" opacity="1"></line></g><g class="mark-text role-axis-title" pointer-events="none"><text text-anchor="middle" transform="translate(-26,55) rotate(-90) translate(0,-2)" font-family="sans-serif" font-size="11px" font-weight="bold" fill="#000" opacity="1">Hit Rate</text></g></g><path class="foreground" aria-hidden="true" d="" pointer-events="none" display="none"></path></g></g></g><path class="foreground" aria-hidden="true" d="" display="none"></path></g></g><g class="mark-group role-column-header column_header" role="graphics-object" aria-roledescription="group mark container"><g transform="translate(0,-1)"><path class="background" aria-hidden="true" d="M0,0h80v0h-80Z"></path><g><g class="mark-group role-title"><g transform="translate(40,-20)"><path class="background" aria-hidden="true" d="M0,0h0v0h0Z" pointer-events="none"></path><g><g class="mark-text role-title-text" role="graphics-symbol" aria-roledescription="title" aria-label="Title text 'early'" pointer-events="none"><text text-anchor="middle" transform="translate(0,8)" font-family="sans-serif" font-size="10px" font-weight="bold" fill="#000" opacity="1">early</text></g></g><path class="foreground" aria-hidden="true" d="" pointer-events="none" display="none"></path></g></g></g><path class="foreground" aria-hidden="true" d="" display="none"></path></g><g transform="translate(83,-1)"><path class="background" aria-hidden="true" d="M0,0h80v0h-80Z"></path><g><g class="mark-group role-title"><g transform="translate(40,-20)"><path class="background" aria-hidden="true" d="M0,0h0v0h0Z" pointer-events="none"></path><g><g class="mark-text role-title-text" role="graphics-symbol" aria-roledescription="title" aria-label="Title text 'late'" pointer-events="none"><text text-anchor="middle" transform="translate(0,8)" font-family="sans-serif" font-size="10px" font-weight="bold" fill="#000" opacity="1">late</text></g></g><path class="foreground" aria-hidden="true" d="" pointer-events="none" display="none"></path></g></g></g><path class="foreground" aria-hidden="true" d="" display="none"></path></g></g><g class="mark-group role-column-footer column_footer" role="graphics-object" aria-roledescription="group mark container"><g transform="translate(0,111)"><path class="background" aria-hidden="true" d="M0,0h80v0h-80Z"></path><g><g class="mark-group role-axis" role="graphics-symbol" aria-roledescription="axis" aria-label="X-axis titled 'Time after Switch (s)' for a linear scale with values from 0.0 to 2.6"><g transform="translate(0.5,0.5)"><path class="background" aria-hidden="true" d="M0,0h0v0h0Z" pointer-events="none"></path><g><g class="mark-rule role-axis-tick" pointer-events="none"><line transform="translate(0,0)" x2="0" y2="5" stroke="#888" stroke-width="1" opacity="1"></line><line transform="translate(31,0)" x2="0" y2="5" stroke="#888" stroke-width="1" opacity="1"></line><line transform="translate(62,0)" x2="0" y2="5" stroke="#888" stroke-width="1" opacity="1"></line></g><g class="mark-text role-axis-label" pointer-events="none"><text text-anchor="start" transform="translate(0,15)" font-family="sans-serif" font-size="10px" fill="#000" opacity="1">0</text><text text-anchor="middle" transform="translate(30.769230769230766,15)" font-family="sans-serif" font-size="10px" fill="#000" opacity="1">1</text><text text-anchor="middle" transform="translate(61.53846153846153,15)" font-family="sans-serif" font-size="10px" fill="#000" opacity="1">2</text></g><g class="mark-rule role-axis-domain" pointer-events="none"><line transform="translate(0,0)" x2="80" y2="0" stroke="#888" stroke-width="1" opacity="1"></line></g><g class="mark-text role-axis-title" pointer-events="none"><text text-anchor="middle" transform="translate(40,30)" font-family="sans-serif" font-size="11px" font-weight="bold" fill="#000" opacity="1"><tspan>Time after</tspan><tspan x="0" dy="13">Switch (s)</tspan></text></g></g><path class="foreground" aria-hidden="true" d="" pointer-events="none" display="none"></path></g></g></g><path class="foreground" aria-hidden="true" d="" display="none"></path></g><g transform="translate(83,111)"><path class="background" aria-hidden="true" d="M0,0h80v0h-80Z"></path><g><g class="mark-group role-axis" role="graphics-symbol" aria-roledescription="axis" aria-label="X-axis titled 'Time after Switch (s)' for a linear scale with values from 0.0 to 2.6"><g transform="translate(0.5,0.5)"><path class="background" aria-hidden="true" d="M0,0h0v0h0Z" pointer-events="none"></path><g><g class="mark-rule role-axis-tick" pointer-events="none"><line transform="translate(0,0)" x2="0" y2="5" stroke="#888" stroke-width="1" opacity="1"></line><line transform="translate(31,0)" x2="0" y2="5" stroke="#888" stroke-width="1" opacity="1"></line><line transform="translate(62,0)" x2="0" y2="5" stroke="#888" stroke-width="1" opacity="1"></line></g><g class="mark-text role-axis-label" pointer-events="none"><text text-anchor="start" transform="translate(0,15)" font-family="sans-serif" font-size="10px" fill="#000" opacity="1">0</text><text text-anchor="middle" transform="translate(30.769230769230766,15)" font-family="sans-serif" font-size="10px" fill="#000" opacity="1">1</text><text text-anchor="middle" transform="translate(61.53846153846153,15)" font-family="sans-serif" font-size="10px" fill="#000" opacity="1">2</text></g><g class="mark-rule role-axis-domain" pointer-events="none"><line transform="translate(0,0)" x2="80" y2="0" stroke="#888" stroke-width="1" opacity="1"></line></g><g class="mark-text role-axis-title" pointer-events="none"><text text-anchor="middle" transform="translate(40,30)" font-family="sans-serif" font-size="11px" font-weight="bold" fill="#000" opacity="1"><tspan>Time after</tspan><tspan x="0" dy="13">Switch (s)</tspan></text></g></g><path class="foreground" aria-hidden="true" d="" pointer-events="none" display="none"></path></g></g></g><path class="foreground" aria-hidden="true" d="" display="none"></path></g></g><g class="mark-group role-scope cell" role="graphics-object" aria-roledescription="group mark container"><g transform="translate(0,0)"><path class="background" aria-hidden="true" d="M0.5,0.5h80v110h-80Z" stroke="#ddd"></path><g><g class="mark-group role-axis" aria-hidden="true"><g transform="translate(0.5,110.5)"><path class="background" aria-hidden="true" d="M0,0h0v0h0Z" pointer-events="none"></path><g><g class="mark-rule role-axis-grid" pointer-events="none"><line transform="translate(0,-110)" x2="0" y2="110" stroke="#ddd" stroke-width="1" opacity="1"></line><line transform="translate(31,-110)" x2="0" y2="110" stroke="#ddd" stroke-width="1" opacity="1"></line><line transform="translate(62,-110)" x2="0" y2="110" stroke="#ddd" stroke-width="1" opacity="1"></line></g></g><path class="foreground" aria-hidden="true" d="" pointer-events="none" display="none"></path></g></g><g class="mark-group role-axis" aria-hidden="true"><g transform="translate(0.5,0.5)"><path class="background" aria-hidden="true" d="M0,0h0v0h0Z" pointer-events="none"></path><g><g class="mark-rule role-axis-grid" pointer-events="none"><line transform="translate(0,88)" x2="80" y2="0" stroke="#ddd" stroke-width="1" opacity="1"></line><line transform="translate(0,44)" x2="80" y2="0" stroke="#ddd" stroke-width="1" opacity="1"></line><line transform="translate(0,0)" x2="80" y2="0" stroke="#ddd" stroke-width="1" opacity="1"></line></g></g><path class="foreground" aria-hidden="true" d="" pointer-events="none" display="none"></path></g></g><g class="mark-group role-scope child_layer_0_pathgroup" role="graphics-object" aria-roledescription="group mark container"><g transform="translate(0,0)"><path class="background" aria-hidden="true" d="M0,0h80v110h-80Z"></path><g><g class="mark-trail role-mark child_layer_0_marks" clip-path="url(#clip1)" role="graphics-object" aria-roledescription="trail mark container"><path aria-label="condition: Global; Time after, Switch (s): -1; Hit Rate: 0.566666666667; weight: 67" role="graphics-symbol" aria-roledescription="trail mark" d="M-31.48309099369188,94.91548400345387L-26.62944193565377,86.37904435775599A0.9506172839506173,0.9506172839506173,0,1,1,-24.98862888241479,87.33947416076253L-30.05537054476965,95.75118266321282A0.8271604938271605,0.8271604938271605,0,1,1,-31.48309099369188,94.91548400345387ZM-26.74095077665428,86.67162405963157L-19.659974204862763,52.191021680742416A0.8148148148148148,0.8148148148148148,0,1,1,-18.062405003228477,52.51268202296132L-24.87712004141428,87.04689445888695A0.9506172839506173,0.9506172839506173,0,1,1,-26.74095077665428,86.67162405963157ZM-19.510008910878756,51.858945481917104L-16.26019206106303,47.58116770413929A0.8148148148148148,0.8148148148148148,0,1,1,-14.96255344739676,48.56698044400882L-18.212370297212484,52.844758221786634A0.8148148148148148,0.8148148148148148,0,1,1,-19.510008910878756,51.858945481917104ZM-14.798201411362601,48.02234835918188L-12.4365189942298,82.23281473711043A1,1,0,1,1,-14.432485017631336,82.35977785548212L-16.424544097097186,48.125799788966226A0.8148148148148148,0.8148148148148148,0,1,1,-14.798201411362601,48.02234835918188ZM-13.770240376897407,81.35434101802637L-11.484177233691407,80.53952620321158A1,1,0,1,1,-10.81270049175773,82.42343675975138L-13.09876363496373,83.23825157456618A1,1,0,1,1,-13.770240376897407,81.35434101802637ZM-12.131114485281218,81.29614767228063L-9.718416072582803,68.50355507968804A1,1,0,1,1,-7.753064827469503,68.87422269808975L-10.165763240167918,81.66681529068234A1,1,0,1,1,-12.131114485281218,81.29614767228063ZM-8.735740450026153,67.6888888888889L-7.0532007674864605,67.6888888888889A1,1,0,1,1,-7.0532007674864605,69.6888888888889L-8.735740450026153,69.6888888888889A1,1,0,1,1,-8.735740450026153,67.6888888888889ZM-7.3608024769424025,67.73737368231583L-6.3526043258871105,67.4114477563899A1,1,0,1,1,-5.7374009069752265,69.31447816953603L-6.7455990580305185,69.64040409546196A1,1,0,1,1,-7.360802476942403,67.73737368231583ZM-5.9200549443614445,67.37079963001604L-3.979011860461232,67.61524407446049A1,1,0,1,1,-4.22890720460068,69.59957074035435L-6.1699502885008926,69.3551262959099A1,1,0,1,1,-5.9200549443614445,67.37079963001604ZM-4.420743322518367,67.65890963176363L-1.4931312520491504,66.68113185398587A1,1,0,1,1,-0.859563672074328,68.57812740527345L-3.787175742543545,69.55590518305121A1,1,0,1,1,-4.4207433225183665,67.65890963176363ZM-0.3446525929041213,67.0743966653553L2.5033995255689026,71.6518443381928A0.8271604938271605,0.8271604938271605,0,1,1,1.127509248197041,72.5703778840294L-2.008042331219357,68.18486259390403A1,1,0,1,1,-0.3446525929041213,67.0743966653553ZM1.0830333779782118,71.7267233534193L3.2321126015465182,67.65838641005713A0.8148148148148148,0.8148148148148148,0,1,1,4.675091305657388,68.41568766401709L2.547875395787732,72.4954988688029A0.8271604938271605,0.8271604938271605,0,1,1,1.0830333779782118,71.7267233534193ZM4.575559127562717,67.51064131497961L6.20537691616784,69.6274352796011A0.691358024691358,0.691358024691358,0,1,1,5.149934439143513,70.52071286854716L3.3316447796411897,68.56343275909461A0.8148148148148148,0.8148148148148148,0,1,1,4.575559127562717,67.51064131497961ZM6.364240461970971,69.99297381358222L9.471741362042794,100.19470606241248A0.2345679012345679,0.2345679012345679,0,1,1,9.005844544114558,100.24973838203198L4.991070893340381,70.15517433456604A0.691358024691358,0.691358024691358,0,1,1,6.364240461970971,69.99297381358222ZM9.46723210789928,100.16895259828478L14.242617611455467,120.10387891707008A0.35802469135802467,0.35802469135802467,0,1,1,13.54527703358204,120.26649145330019L9.010353798258071,100.27549184615968A0.2345679012345679,0.2345679012345679,0,1,1,9.46723210789928,100.16895259828478ZM14.250914097510211,120.15768243670053L18.394259640855697,173.93546021447835A0.35802469135802467,0.35802469135802467,0,1,1,17.680326090872786,173.99046571144757L13.536980547527296,120.21268793366974A0.35802469135802467,0.35802469135802467,0,1,1,14.250914097510211,120.15768243670053ZM17.679549297609732,173.94877779484483L19.646281985907272,112.81956836578989A0.8148148148148148,0.8148148148148148,0,1,1,21.2746320207209,112.88413533791386L18.39503643411875,173.9771481310811A0.35802469135802467,0.35802469135802467,0,1,1,17.679549297609732,173.94877779484483ZM20.460457003314087,112.03703703703707L23.436595150880862,112.03703703703707A0.8148148148148148,0.8148148148148148,0,1,1,23.436595150880862,113.66666666666669L20.460457003314087,113.66666666666669A0.8148148148148148,0.8148148148148148,0,1,1,20.460457003314087,112.03703703703707ZM23.849025370931635,112.14912537872696L27.989039193600494,114.6361593063911A0.7654320987654321,0.7654320987654321,0,1,1,27.21417029532328,115.95643328620152L23.02416493083009,113.55457832497679A0.8148148148148148,0.8148148148148148,0,1,1,23.849025370931635,112.14912537872696ZM26.840512130743868,115.21490630204441L32.32206893415273,65.11692260936105A0.6419753086419753,0.6419753086419753,0,1,1,33.59874041522813,65.25344776100941L28.362697358179908,115.3776862905482A0.7654320987654321,0.7654320987654321,0,1,1,26.840512130743864,115.21490630204441ZM33.59726310324714,65.1042924235669L39.473279957638525,109.89577278791485A0.8271604938271605,0.8271604938271605,0,1,1,37.83214477635778,110.10422721208515L32.32354624613372,65.26607794680356A0.6419753086419753,0.6419753086419753,0,1,1,33.59726310324714,65.1042924235669ZM38.65271236699815,109.17283950617283L42.27734170591323,109.17283950617283A0.8271604938271605,0.8271604938271605,0,1,1,42.27734170591323,110.82716049382717L38.65271236699815,110.82716049382717A0.8271604938271605,0.8271604938271605,0,1,1,38.65271236699815,109.17283950617283ZM42.27734170591323,109.17283950617283L46.50200593057739,109.17283950617283A0.8271604938271605,0.8271604938271605,0,1,1,46.50200593057739,110.82716049382717L42.27734170591323,110.82716049382717A0.8271604938271605,0.8271604938271605,0,1,1,42.27734170591323,109.17283950617283ZM47.32670959941413,109.93629488909349L53.861941969903576,202.87462655062626A0.18518518518518517,0.18518518518518517,0,1,1,53.492671670424436,202.90315122715157L45.67730226174065,110.06370511090651A0.8271604938271605,0.8271604938271605,0,1,1,47.32670959941413,109.93629488909349Z" fill="#0F3C5F"></path></g></g><path class="foreground" aria-hidden="true" d="" display="none"></path></g><g transform="translate(0,0)"><path class="background" aria-hidden="true" d="M0,0h80v110h-80Z"></path><g><g class="mark-trail role-mark child_layer_0_marks" clip-path="url(#clip2)" role="graphics-object" aria-roledescription="trail mark container"><path aria-label="condition: Spatial; Time after, Switch (s): -1; Hit Rate: 0.597222222222; weight: 67" role="graphics-symbol" aria-roledescription="trail mark" d="M-31.552569531817877,88.34545180753436L-26.709290404843347,73.67987523928355A0.9506172839506173,0.9506172839506173,0,1,1,-24.908780413225212,74.29049513108683L-29.985892006643656,88.87677041468787A0.8271604938271605,0.8271604938271605,0,1,1,-31.552569531817877,88.34545180753436ZM-26.747147771677064,73.83150234423533L-19.665285914882293,31.442345924688496A0.8148148148148148,0.8148148148148148,0,1,1,-18.057093293208947,31.705802223459685L-24.870923046391496,74.13886802613504A0.9506172839506173,0.9506172839506173,0,1,1,-26.747147771677064,73.83150234423533ZM-18.39866404034419,30.90325868563672L-15.148847190528466,33.14399942637744A0.8148148148148148,0.8148148148148148,0,1,1,-16.073898317931324,34.48563020325218L-19.32371516774705,32.24488946251146A0.8148148148148148,0.8148148148148148,0,1,1,-18.39866404034419,30.90325868563672ZM-14.798201411362601,33.76308909992264L-12.4365189942298,67.97355547785119A1,1,0,1,1,-14.432485017631336,68.10051859622288L-16.424544097097186,33.86654052970698A0.8148148148148148,0.8148148148148148,0,1,1,-14.798201411362601,33.76308909992264ZM-13.276133944761447,67.04965688876509L-10.990070801555447,67.41632355543176A1,1,0,1,1,-11.306806923893689,69.39108385197567L-13.592870067099689,69.02441718530899A1,1,0,1,1,-13.276133944761447,67.04965688876509ZM-12.131221486803996,68.21893813925094L-9.718523074105581,55.38560480591759A1,1,0,1,1,-7.752957825946726,55.75513593482315L-10.16565623864514,68.58846926815649A1,1,0,1,1,-12.131221486803996,68.21893813925094ZM-8.735740450026153,54.57037037037037L-7.0532007674864605,54.57037037037037A1,1,0,1,1,-7.0532007674864605,56.57037037037037L-8.735740450026153,56.57037037037037A1,1,0,1,1,-8.735740450026153,54.57037037037037ZM-6.6785396936070045,54.64320852920159L-5.6703415425517125,55.050615936609A1,1,0,1,1,-6.419663690310625,56.904939618946564L-7.4278618413659165,56.49753221153915A1,1,0,1,1,-6.6785396936070045,54.64320852920159ZM-5.2146318923751185,55.42056645284744L-3.2735888084749063,58.31315904544A1,1,0,1,1,-4.934330256587006,59.42758169530069L-6.875373340487219,56.534989102708124A1,1,0,0,1,-5.214631892375119,55.42056645284743ZM-3.9661274218376894,57.87991476345914L-1.0385153513684728,58.28732217086658A1,1,0,1,1,-1.3141795727550056,60.26823338468899L-4.241791643224222,59.86082597728155A1,1,0,1,1,-3.9661274218376894,57.87991476345914ZM-0.28423348829628214,58.82596735535218L2.5533758219729177,64.81146545305538A0.8271604938271605,0.8271604938271605,0,1,1,1.0775329517930259,65.55890491731503L-2.068461435827196,59.729588200203395A1,1,0,1,1,-0.28423348829628226,58.82596735535218ZM0.990259063691424,65.1282013178964L3.140722978517742,34.16608886041533A0.8148148148148148,0.8148148148148148,0,1,1,4.766480928686165,34.278355584029114L2.6406497100745194,65.24216905247401A0.8271604938271605,0.8271604938271605,0,1,1,0.990259063691424,65.1282013178964ZM3.1604125972076607,34.03574480443522L5.052718608981385,26.741967286996104A0.6419753086419753,0.6419753086419753,0,1,1,6.302592746329967,27.03581049078168L4.746791309996246,34.408699640009225A0.8148148148148148,0.8148148148148148,0,1,1,3.1604125972076607,34.03574480443522ZM6.319042481401493,26.86140680587679L9.738334598303783,109.97859568534635A0.5,0.5,0,1,1,8.739251307853568,110.02140431465365L5.036268873909859,26.916370971900996A0.6419753086419753,0.6419753086419753,0,1,1,6.319042481401493,26.86140680587679ZM9.734811390232768,109.93702611649888L14.389965759672846,146.6036927831656A0.5,0.5,0,1,1,13.397928885364662,146.72964055016783L8.742774515924584,110.06297388350112A0.5,0.5,0,1,1,9.734811390232768,109.93702611649888ZM14.393151160980079,146.6384615666761L18.536496704325568,219.9717949000094A0.5,0.5,0,1,1,17.538089027402915,220.0282050999906L13.394743484057429,146.69487176665731A0.5,0.5,0,1,1,14.393151160980079,146.6384615666761ZM18.03729286586424,219.5L20.460457003314087,219.5A0.5,0.5,0,1,1,20.460457003314087,220.5L18.03729286586424,220.5A0.5,0.5,0,1,1,18.03729286586424,219.5ZM20.460457003314087,219.5L23.436595150880862,219.5A0.5,0.5,0,1,1,23.436595150880862,220.5L20.460457003314087,220.5A0.5,0.5,0,1,1,20.460457003314087,219.5ZM22.93715423580113,219.97636163405983L27.102163829382157,131.97636163405986A0.5,0.5,0,1,1,28.10104565954162,132.0236383659402L23.936036065960593,220.02363836594017A0.5,0.5,0,1,1,22.93715423580113,219.97636163405983ZM27.10367767585904,131.95451775783263L32.46247760608758,73.287851091166A0.5,0.5,0,1,1,33.45833174329328,73.37881557550082L28.099531813064736,132.04548224216742A0.5,0.5,0,1,1,27.10367767585904,131.95451775783263ZM33.4600285224938,73.31394233784174L39.15233621480152,219.98060900450832A0.5,0.5,0,1,1,38.15308851919478,220.01939099549168L32.46078082688706,73.35272432882509A0.5,0.5,0,1,1,33.4600285224938,73.31394233784174ZM38.65271236699815,219.5L42.27734170591323,219.5A0.5,0.5,0,1,1,42.27734170591323,220.5L38.65271236699815,220.5A0.5,0.5,0,1,1,38.65271236699815,219.5ZM42.27734170591323,219.5L46.50200593057739,219.5A0.5,0.5,0,1,1,46.50200593057739,220.5L42.27734170591323,220.5A0.5,0.5,0,1,1,42.27734170591323,219.5ZM46.50200593057739,219.5L53.677306820164006,219.5A0.5,0.5,0,1,1,53.677306820164006,220.5L46.50200593057739,220.5A0.5,0.5,0,1,1,46.50200593057739,219.5Z" fill="#EB9A60"></path></g></g><path class="foreground" aria-hidden="true" d="" display="none"></path></g><g transform="translate(0,0)"><path class="background" aria-hidden="true" d="M0,0h80v110h-80Z"></path><g><g class="mark-trail role-mark child_layer_0_marks" clip-path="url(#clip3)" role="graphics-object" aria-roledescription="trail mark container"><path aria-label="condition: Object; Time after, Switch (s): -1; Hit Rate: 0.825; weight: 67" role="graphics-symbol" aria-roledescription="trail mark" d="M-30.48246551353085,37.72413907775186L-25.47946936890154,39.441672273436204A0.9506172839506173,0.9506172839506173,0,1,1,-26.13860144916702,41.22499439323047L-31.055996024930682,39.27586092224816A0.8271604938271605,0.8271604938271605,0,1,1,-30.48246551353085,37.72413907775186ZM-26.645002187123662,39.88074879263789L-19.57773255669366,27.11207039368962A0.8148148148148148,0.8148148148148148,0,1,1,-18.14464665139758,27.88792960631038L-24.973068630944898,40.78591787402878A0.9506172839506173,0.9506172839506173,0,1,1,-26.645002187123662,39.88074879263789ZM-18.9324193161037,26.688304545681188L-15.682602466287975,26.403119360496014A0.8148148148148148,0.8148148148148148,0,1,1,-15.540143042171813,28.026510269133638L-18.78995989198754,28.311695454318812A0.8148148148148148,0.8148148148148148,0,1,1,-18.9324193161037,26.688304545681188ZM-14.799215113709487,27.149064154087924L-12.437763083473703,54.02300971099343A1,1,0,1,1,-14.431240928387433,54.184397696414L-16.4235303947503,27.280565475541728A0.8148148148148148,0.8148148148148148,0,1,1,-14.799215113709487,27.149064154087924ZM-14.107093012746558,53.363689286580474L-11.821029869540558,51.28591150880269A1,1,0,1,1,-10.475847855908578,52.765940343049174L-12.761910999114578,54.843718120826956A1,1,0,1,1,-14.107093012746558,53.363689286580474ZM-12.13194371392866,51.84504417544232L-9.719245301230245,38.72652565692381A1,1,0,1,1,-7.75223559882206,39.08828915789104L-10.164934011520476,52.20680767640955A1,1,0,1,1,-12.13194371392866,51.84504417544232ZM-8.735740450026153,37.907407407407426L-7.0532007674864605,37.907407407407426A1,1,0,1,1,-7.0532007674864605,39.907407407407426L-8.735740450026153,39.907407407407426A1,1,0,1,1,-8.735740450026153,37.907407407407426ZM-6.647016829138968,37.99361607005052L-5.638818678083676,38.44176421819865A1,1,0,1,1,-6.451186554778661,40.26934689291246L-7.459384705833953,39.82119874476433A1,1,0,1,1,-6.647016829138968,37.99361607005052ZM-6.602564119789951,38.525419922076125L-4.661521035889739,37.2217162183724A1,1,0,1,1,-3.546398029172173,38.88198748533126L-5.487441113072386,40.18569118903498A1,1,0,1,1,-6.602564119789951,38.525419922076125ZM-4.769047706484387,37.305087015462696L-1.84143563601517,34.69767960805531A1,1,0,1,1,-0.5112592881083082,36.191209280833576L-3.4388713585775252,38.79861668824096A1,1,0,1,1,-4.769047706484387,37.305087015462696ZM-0.21399629688428934,35.17263525607583L2.611473251906294,45.812207214559315A0.8271604938271605,0.8271604938271605,0,1,1,1.019435521859649,46.261866859514804L-2.138698627239189,35.71625363281306A1,1,0,1,1,-0.21399629688428934,35.17263525607583ZM0.9897282804751731,45.98834535658743L3.140200117439047,9.729812838827385A0.8148148148148148,0.8148148148148148,0,1,1,4.76700378976486,9.82574271672815L2.6411804932907703,46.08572871748669A0.8271604938271605,0.8271604938271605,0,1,1,0.9897282804751732,45.98834535658743ZM3.9536019536019533,8.962962962962953L5.677655677655676,9.135802469135793A0.6419753086419753,0.6419753086419753,0,1,1,5.677655677655676,10.419753086419743L3.9536019536019533,10.592592592592583A0.8148148148148148,0.8148148148148148,0,1,1,3.9536019536019533,8.962962962962953ZM6.3192261059459245,9.754981233096014L9.738477613573965,109.98224499885363A0.5,0.5,0,1,1,8.739108292583387,110.01775500114637L5.036085249365428,9.800574322459521A0.6419753086419753,0.6419753086419753,0,1,1,6.3192261059459245,9.754981233096014ZM9.734811390232768,109.93702611649888L14.389965759672846,146.6036927831656A0.5,0.5,0,1,1,13.397928885364662,146.72964055016783L8.742774515924584,110.06297388350112A0.5,0.5,0,1,1,9.734811390232768,109.93702611649888ZM14.393151160980079,146.6384615666761L18.536496704325568,219.9717949000094A0.5,0.5,0,1,1,17.538089027402915,220.0282050999906L13.394743484057429,146.69487176665731A0.5,0.5,0,1,1,14.393151160980079,146.6384615666761ZM18.03729286586424,219.5L20.460457003314087,219.5A0.5,0.5,0,1,1,20.460457003314087,220.5L18.03729286586424,220.5A0.5,0.5,0,1,1,18.03729286586424,219.5ZM20.460457003314087,219.5L23.436595150880862,219.5A0.5,0.5,0,1,1,23.436595150880862,220.5L20.460457003314087,220.5A0.5,0.5,0,1,1,20.460457003314087,219.5ZM22.936684730649205,219.99053576501728L27.10169432423023,-0.009464234982708973A0.5,0.5,0,1,1,28.101515164693545,0.009464234982708973L23.93650557111252,220.00946423498272A0.5,0.5,0,1,1,22.936684730649205,219.99053576501728ZM27.601604744461888,-0.5L32.96040467469043,-0.5A0.5,0.5,0,1,1,32.96040467469043,0.5L27.601604744461888,0.5A0.5,0.5,0,1,1,27.601604744461888,-0.5ZM32.96040467469043,-0.5L38.65271236699815,-0.5A0.5,0.5,0,1,1,38.65271236699815,0.5L32.96040467469043,0.5A0.5,0.5,0,1,1,32.96040467469043,-0.5ZM38.65271236699815,-0.5L42.27734170591323,-0.5A0.5,0.5,0,1,1,42.27734170591323,0.5L38.65271236699815,0.5A0.5,0.5,0,1,1,38.65271236699815,-0.5ZM42.27734170591323,-0.5L46.50200593057739,-0.5A0.5,0.5,0,1,1,46.50200593057739,0.5L42.27734170591323,0.5A0.5,0.5,0,1,1,42.27734170591323,-0.5ZM47.00174020793097,-0.016298835476600368L54.17704109751759,219.9837011645234A0.5,0.5,0,1,1,53.177572542810424,220.0162988354766L46.00227165322381,0.016298835476600368A0.5,0.5,0,1,1,47.00174020793097,-0.016298835476600448Z" fill="#687B3E"></path></g></g><path class="foreground" aria-hidden="true" d="" display="none"></path></g></g><g class="mark-group role-scope child_layer_1_layer_0_pathgroup" role="graphics-object" aria-roledescription="group mark container"><g transform="translate(0,0)"><path class="background" aria-hidden="true" d="M0,0h80v110h-80Z"></path><g><g class="mark-area role-mark child_layer_1_layer_0_marks" clip-path="url(#clip4)" role="graphics-object" aria-roledescription="area mark container"><path aria-label=": 0.625; upper_upper: 0.508333333333; condition: Global; time: -1; lower: 0.508333333333; upper: 0.625" role="graphics-symbol" aria-roledescription="errorband" d="M-30.769230769230766,82.5L-25.80903540903428,73.0074074074074L-18.86118960404562,38.29629629629634L-15.611372754229894,35.281481481481464L-13.434502005930568,65.38787037037035L-11.148438862724568,64.65555555555552L-8.735740450026153,55.5703703703704L-7.0532007674864605,55.57037037037042L-6.0450026164311685,55.488888888888944L-4.103959532530956,54.42962962962965L-1.1763474620617391,53.16666666666672L1.8154543868829718,57.64814814814811L3.9536019536019533,51.74074074074083L5.677655677655676,54.59259259259266L9.238792953078676,92.8888888888889L13.893947322518754,109.59259259259257L18.03729286586424,158.48148148148147L20.460457003314087,92.48148148148151L23.436595150880862,93.29629629629629L27.601604744461888,95.33333333333336L32.96040467469043,52.148148148148174L38.65271236699815,88L42.27734170591323,88L46.50200593057739,88L53.677306820164006,193.11111111111111L53.677306820164006,215.11111111111111L46.50200593057739,132L42.27734170591323,132L38.65271236699815,132L32.96040467469043,77.40740740740753L27.601604744461888,134.85185185185188L23.436595150880862,132.8148148148148L20.460457003314087,132.8148148148148L18.03729286586424,190.25925925925924L13.893947322518754,131.59259259259252L9.238792953078676,107.55555555555557L5.677655677655676,84.74074074074083L3.9536019536019533,83.92592592592608L1.8154543868829718,86.16666666666666L-1.1763474620617391,81.27777777777786L-4.103959532530956,82.21481481481486L-6.0450026164311685,80.91111111111113L-7.0532007674864605,80.91111111111115L-8.735740450026153,81.23703703703707L-11.148438862724568,97.81851851851849L-13.434502005930568,98.7555555555555L-15.611372754229894,60.17407407407404L-18.86118960404562,65.79629629629632L-25.80903540903428,100.38722222222219L-30.769230769230766,108.16666666666667Z" fill="#0F3C5F" opacity="0.3"></path></g></g><path class="foreground" aria-hidden="true" d="" display="none"></path></g><g transform="translate(0,0)"><path class="background" aria-hidden="true" d="M0,0h80v110h-80Z"></path><g><g class="mark-area role-mark child_layer_1_layer_0_marks" clip-path="url(#clip5)" role="graphics-object" aria-roledescription="area mark container"><path aria-label=": 0.658333333333; upper_upper: 0.538888888889; condition: Spatial; time: -1; lower: 0.538888888889; upper: 0.658333333333" role="graphics-symbol" aria-roledescription="errorband" d="M-30.769230769230766,75.16666666666667L-25.80903540903428,59.886851851851844L-18.86118960404562,20.574074074074108L-15.611372754229894,21.59157407407408L-13.434502005930568,50.2323148148148L-11.148438862724568,50.55925925925926L-8.735740450026153,42.288888888888906L-7.0532007674864605,42.37037037037038L-6.0450026164311685,42.53129629629631L-4.103959532530956,44.08148148148142L-1.1763474620617391,43.592592592592624L1.8154543868829718,50.11111111111115L3.9536019536019533,17.111111111111125L5.677655677655676,12.222222222222229L9.238792953078676,110L13.893947322518754,146.6666666666667L18.03729286586424,220L20.460457003314087,220L23.436595150880862,220L27.601604744461888,132.00000000000003L32.96040467469043,73.33333333333341L38.65271236699815,220L42.27734170591323,220L46.50200593057739,220L53.677306820164006,220L53.677306820164006,220L46.50200593057739,220L42.27734170591323,220L38.65271236699815,220L32.96040467469043,73.33333333333341L27.601604744461888,132.00000000000003L23.436595150880862,220L20.460457003314087,220L18.03729286586424,220L13.893947322518754,146.6666666666667L9.238792953078676,110L5.677655677655676,41.55555555555556L3.9536019536019533,48.888888888888886L1.8154543868829718,79.44444444444446L-1.1763474620617391,73.94953703703703L-4.103959532530956,72.5602777777777L-6.0450026164311685,68.69092592592591L-7.0532007674864605,68.52592592592592L-8.735740450026153,68.36296296296292L-11.148438862724568,85.2713888888889L-13.434502005930568,84.94546296296296L-15.611372754229894,44.6111111111111L-18.86118960404562,41.759259259259295L-25.80903540903428,88.08148148148149L-30.769230769230766,101.44444444444446Z" fill="#EB9A60" opacity="0.3"></path></g></g><path class="foreground" aria-hidden="true" d="" display="none"></path></g><g transform="translate(0,0)"><path class="background" aria-hidden="true" d="M0,0h80v110h-80Z"></path><g><g class="mark-area role-mark child_layer_1_layer_0_marks" clip-path="url(#clip6)" role="graphics-object" aria-roledescription="area mark container"><path aria-label=": 0.886111111111; upper_upper: 0.769444444444; condition: Object; time: -1; lower: 0.769444444444; upper: 0.886111111111" role="graphics-symbol" aria-roledescription="errorband" d="M-30.769230769230766,25.055555555555564L-25.80903540903428,26.074074074074062L-18.86118960404562,15.685185185185162L-15.611372754229894,17.1111111111111L-13.434502005930568,37.68518518518523L-11.148438862724568,35.851851851851876L-8.735740450026153,28.518518518518572L-7.0532007674864605,28.518518518518547L-6.0450026164311685,28.76296296296298L-4.103959532530956,26.92861111111108L-1.1763474620617391,24.037037037037017L1.8154543868829718,33.81481481481483L3.9536019536019533,0L5.677655677655676,0L9.238792953078676,110L13.893947322518754,146.6666666666667L18.03729286586424,220L20.460457003314087,220L23.436595150880862,220L27.601604744461888,0L32.96040467469043,0L38.65271236699815,0L42.27734170591323,0L46.50200593057739,0L53.677306820164006,220L53.677306820164006,220L46.50200593057739,0L42.27734170591323,0L38.65271236699815,0L32.96040467469043,0L27.601604744461888,0L23.436595150880862,220L20.460457003314087,220L18.03729286586424,220L13.893947322518754,146.6666666666667L9.238792953078676,110L5.677655677655676,17.1111111111111L3.9536019536019533,17.1111111111111L1.8154543868829718,58.25925925925929L-1.1763474620617391,46.03703703703706L-4.103959532530956,48.56398148148143L-6.0450026164311685,49.1333333333333L-7.0532007674864605,48.644444444444474L-8.735740450026153,48.72592592592596L-11.148438862724568,67.22222222222226L-13.434502005930568,69.09629629629629L-15.611372754229894,36.30000000000001L-18.86118960404562,37.8888888888889L-25.80903540903428,53.533333333333324L-30.769230769230766,50.722222222222236Z" fill="#687B3E" opacity="0.3"></path></g></g><path class="foreground" aria-hidden="true" d="" display="none"></path></g></g><g class="mark-text role-mark child_layer_2_marks" role="graphics-object" aria-roledescription="text mark container"></g><g class="mark-text role-mark child_layer_3_layer_0_marks" role="graphics-object" aria-roledescription="text mark container"><text text-anchor="end" transform="translate(48.153846153846146,108)" font-family="sans-serif" font-size="9px" fill="#3A3A3A">Far</text></g><g class="mark-text role-mark child_layer_3_layer_1_marks" role="graphics-object" aria-roledescription="text mark container"><text text-anchor="start" transform="translate(2,108)" font-family="sans-serif" font-size="9px" fill="#3A3A3A">Near</text></g></g><path class="foreground" aria-hidden="true" d="" display="none"></path></g><g transform="translate(83,0)"><path class="background" aria-hidden="true" d="M0.5,0.5h80v110h-80Z" stroke="#ddd"></path><g><g class="mark-group role-axis" aria-hidden="true"><g transform="translate(0.5,110.5)"><path class="background" aria-hidden="true" d="M0,0h0v0h0Z" pointer-events="none"></path><g><g class="mark-rule role-axis-grid" pointer-events="none"><line transform="translate(0,-110)" x2="0" y2="110" stroke="#ddd" stroke-width="1" opacity="1"></line><line transform="translate(31,-110)" x2="0" y2="110" stroke="#ddd" stroke-width="1" opacity="1"></line><line transform="translate(62,-110)" x2="0" y2="110" stroke="#ddd" stroke-width="1" opacity="1"></line></g></g><path class="foreground" aria-hidden="true" d="" pointer-events="none" display="none"></path></g></g><g class="mark-group role-axis" aria-hidden="true"><g transform="translate(0.5,0.5)"><path class="background" aria-hidden="true" d="M0,0h0v0h0Z" pointer-events="none"></path><g><g class="mark-rule role-axis-grid" pointer-events="none"><line transform="translate(0,88)" x2="80" y2="0" stroke="#ddd" stroke-width="1" opacity="1"></line><line transform="translate(0,44)" x2="80" y2="0" stroke="#ddd" stroke-width="1" opacity="1"></line><line transform="translate(0,0)" x2="80" y2="0" stroke="#ddd" stroke-width="1" opacity="1"></line></g></g><path class="foreground" aria-hidden="true" d="" pointer-events="none" display="none"></path></g></g><g class="mark-group role-scope child_layer_0_pathgroup" role="graphics-object" aria-roledescription="group mark container"><g transform="translate(0,0)"><path class="background" aria-hidden="true" d="M0,0h80v110h-80Z"></path><g><g class="mark-trail role-mark child_layer_0_marks" clip-path="url(#clip7)" role="graphics-object" aria-roledescription="trail mark container"><path aria-label="condition: Global; Time after, Switch (s): -1; Hit Rate: 0.737037037037; weight: 77" role="graphics-symbol" aria-roledescription="trail mark" d="M-31.605893892204904,57.40055589662864L-26.689161551383698,48.18134475513558A1,1,0,1,1,-24.92890926668486,49.13082455703371L-29.93256764625663,58.303147807075014A0.9506172839506173,0.9506172839506173,0,1,1,-31.605893892204904,57.40055589662864ZM-25.359956485065055,47.762592563200414L-18.4952734437744,51.420117553946135A0.8148148148148148,0.8148148148148148,0,1,1,-19.22710576431684,52.87617874235007L-26.258114333003505,49.549576748968875A1,1,0,1,1,-25.359956485065055,47.762592563200414ZM-18.05484186454966,52.03098797807546L-14.621764164848484,74.37102733336204A1,1,0,1,1,-16.600981343611302,74.65860229626762L-19.667537343541582,52.26530831822075A0.8148148148148148,0.8148148148148148,0,0,1,-18.05484186454966,52.03098797807546ZM-15.215995121585259,73.59629615544839L-13.039124373285933,74.5333331924854A1,1,0,1,1,-13.829879638575203,76.37037051121828L-16.00675038687453,75.43333347418127A1,1,0,1,1,-15.215995121585259,73.59629615544839ZM-14.336782815369865,75.02070299018389L-12.050719672163865,70.23657600605691A1,1,0,1,1,-10.24615805328527,71.0988737293928L-12.532221196491271,75.88300071351979A1,1,0,1,1,-14.336782815369865,75.02070299018389ZM-10.26896846832881,70.19177127189711L-7.856270055630395,74.64997233009818A1,1,0,1,1,-9.615210844421911,75.60187952175367L-12.027909257120326,71.1436784635526A1,1,0,1,1,-10.26896846832881,70.19177127189711ZM-7.816183663519043,74.73296878272998L-6.13364398097935,78.67027037003159A1,1,0,1,1,-7.972757553993571,79.45618465642347L-9.655297236533263,75.51888306912187A1,1,0,1,1,-7.816183663519043,74.73296878272998ZM-7.58049257539158,78.21354324874092L-6.572294424336288,77.58788187307951A1,1,0,1,1,-5.517710808526049,79.28725040205273L-6.525908959581341,79.91291177771414A1,1,0,1,1,-7.58049257539158,78.21354324874092ZM-5.193321878686229,77.91350514783856L-3.252278794786016,81.06800250233587A1,1,0,1,1,-4.955640270275896,82.11612448179099L-6.896683354176108,78.96162712729368A1,1,0,0,1,-5.193321878686229,77.91350514783856ZM-4.5539993197519975,80.69905498711063L-1.626387249282781,79.22365816171381A1,1,0,1,1,-0.7263076748406974,81.00967517161942L-3.6539197453099144,82.48507199701623A1,1,0,1,1,-4.5539993197519975,80.69905498711063ZM-1.6901137883803465,79.25873650520761L1.3016880605643641,77.46711393025168A1,1,0,1,1,2.3292207132015794,79.1829742531697L-0.6625811357431316,80.97459682812563A1,1,0,1,1,-1.6901137883803465,79.25873650520761ZM1.984040690608064,77.33935719507652L4.122188257327045,77.70505384410657A1,1,0,1,1,3.7850156498768612,79.67642763737493L1.6468680831578795,79.31073098834487A1,1,0,1,1,1.9840406906080643,77.33935719507652ZM2.9574024621649775,78.60363980354309L4.6814561862187,58.885121285024574A1,1,0,1,1,6.673855169092652,59.0593231594199L4.949801445038929,78.77784167793841A1,1,0,1,1,2.9574024621649775,78.60363980354309ZM6.621117553357329,58.640741168317916L10.182254828780328,68.77645545403223A1,1,0,1,1,8.295331077377023,69.43941756184088L4.7341938019540235,59.303703276126555A1,1,0,1,1,6.621117553357329,58.640741168317916ZM8.614617491829396,68.32665231279739L13.269771861269474,64.60760469374974A1,1,0,1,1,14.518122783768034,66.17017308402806L9.862968414327955,69.88922070307572A1,1,0,1,1,8.614617491829394,68.32665231279739ZM14.497577456015023,64.5916244020746L18.64092299936051,67.72866143911165A1,1,0,1,1,17.433662732367974,69.32319041274025L13.290317189022485,66.1861533757032A1,1,0,1,1,14.497577456015023,64.5916244020746ZM18.522450989546655,67.65149948818235L20.9456151269965,68.99594393262674A1,1,0,1,1,19.975298879631673,70.74479680811393L17.552134742181828,69.40035236366954A1,1,0,1,1,18.522450989546655,67.65149948818235ZM21.304554246281054,69.3341802507154L24.28069239384783,74.01936543590058A1,1,0,1,1,22.592497907913895,75.09174567521045L19.61635976034712,70.40656049002527A1,1,0,0,1,21.304554246281054,69.3341802507154ZM22.759747242745792,73.81943266550714L27.041742894523,70.11703415267606A0.8271604938271605,0.8271604938271605,0,1,1,28.161466594400775,71.33481769917584L24.113443059015932,75.29167844560389A1,1,0,1,1,22.759747242745792,73.81943266550714ZM28.416648527039136,70.58486524738454L33.8849319504497,101.52887976099116A0.9382716049382716,0.9382716049382716,0,1,1,32.03587739893116,101.8488980167866L26.78656096188464,70.86698660446736A0.8271604938271605,0.8271604938271605,0,1,1,28.416648527039136,70.58486524738454ZM32.03969331191645,101.50821185356807L37.683542511446596,72.49129512851222A0.9876543209876543,0.9876543209876543,0,1,1,39.62188222254971,72.87166783445078L33.88111603746441,101.8695659242097A0.9382716049382716,0.9382716049382716,0,1,1,32.03969331191645,101.50821185356807ZM39.617474600298856,72.47006981916786L43.24210393921393,89.01081055990859A0.9876543209876543,0.9876543209876543,0,1,1,41.312579472612526,89.43363388453587L37.68795013369745,72.89289314379513A0.9876543209876543,0.9876543209876543,0,0,1,39.617474600298856,72.47006981916786ZM42.91639619692297,88.46918144292414L47.14904860272475,92.04495361836808A1,1,0,1,1,45.85496325843003,93.56986119644671L41.63828721490349,89.97526300152032A0.9876543209876543,0.9876543209876543,0,0,1,42.91639619692297,88.46918144292414ZM46.98823636710581,91.93357678160318L54.16353725669243,95.9261693741958A1,1,0,1,1,53.19107638363558,97.67383062580423L46.01577549404897,93.68123803321161A1,1,0,1,1,46.98823636710581,91.93357678160318Z" fill="#0F3C5F"></path></g></g><path class="foreground" aria-hidden="true" d="" display="none"></path></g><g transform="translate(0,0)"><path class="background" aria-hidden="true" d="M0,0h80v110h-80Z"></path><g><g class="mark-trail role-mark child_layer_0_marks" clip-path="url(#clip8)" role="graphics-object" aria-roledescription="trail mark container"><path aria-label="condition: Spatial; Time after, Switch (s): -1; Hit Rate: 0.608888888889; weight: 25" role="graphics-symbol" aria-roledescription="trail mark" d="M-30.656028791381082,85.75731175537307L-25.695833431184596,87.71286731092864A0.30864197530864196,0.30864197530864196,0,1,1,-25.922237386883964,88.28713268907133L-30.88243274708045,86.33157713351575A0.30864197530864196,0.30864197530864196,0,1,1,-30.656028791381082,85.75731175537307ZM-26.115207816374287,87.96103429833758L-19.669484759423245,33.30453795501865A0.8148148148148148,0.8148148148148148,0,1,1,-18.052894448667995,33.510276859796186L-25.502863001694273,88.03896570166239A0.30864197530864196,0.30864197530864196,0,1,1,-26.115207816374287,87.96103429833758ZM-18.0492928563221,33.33850999470076L-14.614954018387392,71.6191477881092A1,1,0,1,1,-16.607791490072394,71.78825961929827L-19.67308635176914,33.47630482011408A0.8148148148148148,0.8148148148148148,0,0,1,-18.0492928563221,33.33850999470076ZM-16.159318420685604,70.8671897787674L-13.98244767238628,69.44126385284143A1,1,0,1,1,-12.886556339474856,71.11429170271411L-15.063427087774182,72.54021762864008A1,1,0,0,1,-16.159318420685608,70.8671897787674ZM-14.41041271529787,70.05960746049742L-12.12434957209187,59.833681534571504A1,1,0,1,1,-10.172528153357266,60.2700221691322L-12.458591296563267,70.49594809505813A1,1,0,1,1,-14.41041271529787,70.05960746049742ZM-11.496677005881894,59.11444575220755L-9.08397859318348,58.21814945591127A1,1,0,1,1,-8.387502306868827,60.09296165519987L-10.800200719567242,60.98925795149615A1,1,0,1,1,-11.496677005881894,59.11444575220755ZM-7.88006209413995,58.63804753506905L-6.197522411600257,61.42005811707961A1,1,0,1,1,-7.908879123372664,62.45507415805266L-9.591418805912356,59.6730635760421A1,1,0,1,1,-7.88006209413995,58.63804753506905ZM-7.96862987058628,61.5350868745005L-6.960431719530988,59.24196518137882A1,1,0,1,1,-5.129573513331349,60.046923707510096L-6.137771664386641,62.34004540063177A1,1,0,1,1,-7.96862987058628,61.5350868745005ZM-5.089063582506795,59.350879181820055L-3.1480204986065825,65.67151410245489A1,1,0,1,1,-5.059898566455329,66.25864462770372L-7.000941650355542,59.938009707068865A1,1,0,1,1,-5.089063582506795,59.350879181820055ZM-3.2787162428459795,65.40030196394686L-0.3511041723767627,69.67807974172464A1,1,0,1,1,-2.0015907517467157,70.80763454398954L-4.929202822215933,66.52985676621175A1,1,0,1,1,-3.2787162428459795,65.40030196394686ZM-0.6550657103230977,69.38947250782768L2.336736138621613,71.2169857353409A1,1,0,1,1,1.2941726351443301,72.92375500539973L-1.6976292138003806,71.0962417778865A1,1,0,1,1,-0.6550657103230975,69.38947250782768ZM2.6885861157475905,71.5828860280065L4.826733682466572,75.4125156576362A1,1,0,1,1,3.0804702247373346,76.38748434236383L0.942322658018353,72.55785471273413A1,1,0,1,1,2.68858611574759,71.5828860280065ZM4.926191290511139,75.66747047127184L6.650245014564862,82.87858158238294A1,1,0,1,1,4.705066340746491,83.3436406398393L2.9810126166927677,76.1325295287282A1,1,0,1,1,4.926191290511139,75.66747047127184ZM5.992548420490298,82.16198384856405L9.549798131186945,83.35518295057079A0.9876543209876543,0.9876543209876543,0,1,1,8.927787774970406,85.23000223461437L5.362762934821054,84.06023837365818A1,1,0,1,1,5.992548420490298,82.16198384856405ZM8.256946150344698,84.18564441015526L13.096196795297397,41.46866015732523A0.8024691358024691,0.8024691358024691,0,1,1,14.69169784974011,41.64245095378588L10.220639755812654,84.3995407750299A0.9876543209876543,0.9876543209876543,0,1,1,8.256946150344698,84.18564441015526ZM13.121701931942027,41.337395589822705L17.360093061820034,26.697579380477006A0.7037037037037037,0.7037037037037037,0,1,1,18.71449266990845,27.08019839730078L14.66619271309548,41.77371552128841A0.8024691358024691,0.8024691358024691,0,1,1,13.121701931942027,41.337395589822705ZM17.406787184710677,26.57638050717827L19.94056635394185,21.74231765016843A0.5802469135802469,0.5802469135802469,0,1,1,20.980347652686323,22.257682349831562L18.667798547017806,27.201397270599514A0.7037037037037037,0.7037037037037037,0,1,1,17.406787184710677,26.57638050717827ZM20.460457003314087,21.41975308641975L23.436595150880862,21.41975308641975A0.5802469135802469,0.5802469135802469,0,1,1,23.436595150880862,22.580246913580243L20.460457003314087,22.580246913580243A0.5802469135802469,0.5802469135802469,0,1,1,20.460457003314087,21.41975308641975ZM24.014315860863913,21.945914308952524L27.72452404445828,66.47738129504901A0.12345679012345678,0.12345679012345678,0,1,1,27.478685444465494,66.5003964827288L22.85887444089781,22.05408569104747A0.5802469135802469,0.5802469135802469,0,1,1,24.014315860863913,21.94591430895252ZM27.482336672803616,66.45700305958333L32.84113660303216,46.41255861513886A0.12345679012345678,0.12345679012345678,0,1,1,33.0796727463487,46.47633027375004L27.72087281612016,66.52077471819449A0.12345679012345678,0.12345679012345678,0,1,1,27.482336672803616,66.45700305958333ZM33.08375409896627,46.43929676939572L38.96108592768774,182.83157525682265A0.30864197530864196,0.30864197530864196,0,1,1,38.34433880630856,182.85731363206628L32.83705525041459,46.44959211949318A0.12345679012345678,0.12345679012345678,0,1,1,33.08375409896627,46.43929676939572ZM38.64231089508478,182.53597778773022L42.26694023399986,182.41375556550796A0.30864197530864196,0.30864197530864196,0,1,1,42.2877431778266,183.03068887893645L38.66311383891152,183.1529111011587A0.30864197530864196,0.30864197530864196,0,1,1,38.64231089508478,182.53597778773022ZM41.96897357448378,182.70922358994295L45.50289318474598,82.45788443141521A1,1,0,1,1,47.5011186764088,82.54211556858479L42.58570983734268,182.73522085450145A0.30864197530864196,0.30864197530864196,0,1,1,41.96897357448378,182.70922358994295ZM46.36146689553514,81.50992486162444L53.536767785121754,80.49140634310592A1,1,0,1,1,53.81784585520626,82.47155661985704L46.64254496561964,83.49007513837556A1,1,0,1,1,46.36146689553514,81.50992486162444Z" fill="#EB9A60"></path></g></g><path class="foreground" aria-hidden="true" d="" display="none"></path></g><g transform="translate(0,0)"><path class="background" aria-hidden="true" d="M0,0h80v110h-80Z"></path><g><g class="mark-trail role-mark child_layer_0_marks" clip-path="url(#clip9)" role="graphics-object" aria-roledescription="trail mark container"><path aria-label="condition: Object; Time after, Switch (s): -1; Hit Rate: 0.800740740741; weight: 77" role="graphics-symbol" aria-roledescription="trail mark" d="M-31.64149359629973,43.45910743901748L-26.726610590756174,31.991326584478685A1,1,0,1,1,-24.891460227312386,32.7864511932993L-29.896967942161805,44.21496663505683A0.9506172839506173,0.9506172839506173,0,1,1,-31.64149359629973,43.45910743901748ZM-26.76340288111392,32.090254114898556L-19.638822359073476,9.941853147118927A0.8148148148148148,0.8148148148148148,0,1,1,-18.083556849017764,10.428517223251486L-24.85466793695464,32.68752366287943A1,1,0,1,1,-26.76340288111392,32.090254114898556ZM-18.25141031246011,9.644729453422489L-15.001593462644383,13.311396120089142A0.8148148148148148,0.8148148148148148,0,1,1,-16.221152045815405,14.392307583614578L-19.47096889563113,10.725640916947924A0.8148148148148148,0.8148148148148148,0,1,1,-18.25141031246011,9.644729453422489ZM-14.84380222226204,13.578431551039563L-12.666931473962714,19.689542662150675A0.8148148148148148,0.8148148148148148,0,1,1,-14.202072537898422,20.23638326377527L-16.378943286197746,14.125272152664158A0.8148148148148148,0.8148148148148148,0,1,1,-14.84380222226204,13.578431551039563ZM-13.81867541737938,19.24439913672519L-11.53261227417338,18.02217691450297A0.8148148148148148,0.8148148148148148,0,1,1,-10.764265451275756,19.45930456697854L-13.050328594481757,20.681526789200756A0.8148148148148148,0.8148148148148148,0,1,1,-13.81867541737938,19.24439913672519ZM-10.356433005750219,18.549299091771605L-7.943734593051804,28.530780573253068A0.8148148148148148,0.8148148148148148,0,1,1,-9.527746307000502,28.913663871191368L-11.940444719698917,18.932182389709904A0.8148148148148148,0.8148148148148148,0,0,1,-10.356433005750219,18.5492990917716ZM-8.064553317960515,28.26023627417704L-6.3820136354208215,30.7046807186215A0.8148148148148148,0.8148148148148148,0,1,1,-7.7243878995521,31.628652614711857L-9.406927582091791,29.184208170267397A0.8148148148148148,0.8148148148148148,0,0,1,-8.064553317960515,28.26023627417704ZM-7.7834672007956405,30.80523324427247L-6.7752690497403485,28.768196207235423A0.8148148148148148,0.8148148148148148,0,1,1,-5.314736183121989,29.491063052023843L-6.322934334177281,31.52810008906089A0.8148148148148148,0.8148148148148148,0,1,1,-7.7834672007956405,30.80523324427247ZM-5.236860136570811,29.02556755831231L-3.1121483072477893,44.07599116163247A1,1,0,1,1,-5.0957707578141225,44.33141624577499L-6.853145096291526,29.233691700946956A0.8148148148148148,0.8148148148148148,0,1,1,-5.236860136570811,29.02556755831231ZM-3.475887362746886,43.42554861020197L-0.5482752922776691,45.78851157316493A1,1,0,1,1,-1.804419631845809,47.34482176016845L-4.732031702315026,44.98185879720549A1,1,0,1,1,-3.475887362746886,43.42554861020197ZM-2.1228662676848464,46.244018017821226L0.8689355812598646,37.46729844110163A1,1,0,1,1,2.761973192506079,38.112595738792564L-0.22982865643863193,46.88931531551216A1,1,0,1,1,-2.1228662676848464,46.244018017821226ZM2.444144947465233,37.012291524137424L4.582292514184214,38.74086295270886A1,1,0,1,1,3.3249113930196925,40.29617408432821L1.1867638263007108,38.56760265575677A1,1,0,1,1,2.444144947465233,37.012291524137424ZM4.287696219031291,38.57597885261198L6.0117499430850145,39.18708996372309A1,1,0,1,1,5.343561412226338,41.07216929553619L3.619507688172615,40.461058184425085A1,1,0,1,1,4.287696219031291,38.57597885261198ZM6.576722414107194,39.691818022421224L10.137859689530194,47.0047809853841A1,1,0,1,1,8.339726216627158,47.880404199800935L4.778588941204158,40.56744123683806A1,1,0,1,1,6.576722414107194,39.691818022421224ZM9.130044890789419,46.44852324946382L13.785199260229497,45.939263990204644A1,1,0,1,1,14.00269538480801,47.927402676462044L9.347541015367932,48.43666193572122A1,1,0,1,1,9.130044890789419,46.44852324946382ZM13.207513847914242,46.206140728212546L17.359333878600527,42.304007303584456A0.9876543209876543,0.9876543209876543,0,1,1,18.715251853127956,43.74043714086011L14.580380797123265,47.66052593845414A1,1,0,1,1,13.207513847914242,46.206140728212546ZM18.76076273986273,42.349873801251285L21.183926877312576,44.95728120865875A0.9876543209876543,0.9876543209876543,0,1,1,19.736987129315597,46.301978050600745L17.313822991865752,43.69457064319328A0.9876543209876543,0.9876543209876543,0,1,1,18.76076273986273,42.349873801251285ZM20.460457003314087,44.641975308642095L23.436595150880862,44.641975308642095A0.9876543209876543,0.9876543209876543,0,1,1,23.436595150880862,46.6172839506174L20.460457003314087,46.6172839506174A0.9876543209876543,0.9876543209876543,0,1,1,20.460457003314087,44.641975308642095ZM22.463538455459023,45.46045006449166L26.798832970738868,21.534500932835137A0.8148148148148148,0.8148148148148148,0,1,1,28.404376518184907,21.813647215312983L24.4096518463027,45.798809194767834A0.9876543209876543,0.9876543209876543,0,1,1,22.463538455459023,45.46045006449166ZM28.404234087912293,21.533684190271597L33.88464452472423,52.14945003279309A0.9382716049382716,0.9382716049382716,0,1,1,32.03616482465663,52.47277218942907L26.798975401011482,21.814463957876523A0.8148148148148148,0.8148148148148148,0,1,1,28.404234087912293,21.533684190271597ZM32.06727546675278,52.023580551757625L37.712576358642735,34.326965882941785A0.9876543209876543,0.9876543209876543,0,1,1,39.59284837535357,34.93229337631748L33.85353388262808,52.59864167046454A0.9382716049382716,0.9382716049382716,0,1,1,32.06727546675278,52.023580551757625ZM37.7266404315455,34.286334089121816L41.52490825835795,24.572924225189265A0.8024691358024691,0.8024691358024691,0,1,1,43.02977515346851,25.130779478514473L39.578784302450806,34.97292517013745A0.9876543209876543,0.9876543209876543,0,1,1,37.7266404315455,34.286334089121816ZM42.27734170591322,24.0493827160494L46.50200593057738,24.04938271604935A0.8024691358024691,0.8024691358024691,0,1,1,46.5020059305774,25.654320987654287L42.27734170591324,25.654320987654337A0.8024691358024691,0.8024691358024691,0,1,1,42.27734170591322,24.0493827160494ZM47.30293643848002,24.802182591474747L53.80052689830287,140.54791413088213A0.12345679012345678,0.12345679012345678,0,1,1,53.55408674202514,140.56319698022895L45.70107542267476,24.90152111222889A0.8024691358024691,0.8024691358024691,0,0,1,47.30293643848002,24.802182591474747Z" fill="#687B3E"></path></g></g><path class="foreground" aria-hidden="true" d="" display="none"></path></g></g><g class="mark-group role-scope child_layer_1_layer_0_pathgroup" role="graphics-object" aria-roledescription="group mark container"><g transform="translate(0,0)"><path class="background" aria-hidden="true" d="M0,0h80v110h-80Z"></path><g><g class="mark-area role-mark child_layer_1_layer_0_marks" clip-path="url(#clip10)" role="graphics-object" aria-roledescription="area mark container"><path aria-label=": 0.779178240741; upper_upper: 0.693518518519; condition: Global; time: -1; lower: 0.693518518519; upper: 0.779178240741" role="graphics-symbol" aria-roledescription="errorband" d="M-30.769230769230766,48.58078703703702L-25.80903540903428,40.47883597883597L-18.86118960404562,43.18518518518506L-15.611372754229894,56.629629629629655L-13.434502005930568,58.50370370370367L-11.148438862724568,55.732896825396814L-8.735740450026153,60.29629629629631L-7.0532007674864605,64.46851190476193L-6.0450026164311685,63.019087301587305L-4.103959532530956,68.91543650793638L-1.1763474620617391,67.05925925925918L1.8154543868829718,65.86793209876531L3.9536019536019533,66.24444444444444L5.677655677655676,45.01851851851856L9.238792953078676,59.85396825396832L13.893947322518754,55.12222222222224L18.03729286586424,57.892592592592635L20.460457003314087,57.24074074074069L23.436595150880862,60.7037037037036L27.601604744461888,55.24444444444448L32.96040467469043,81.88888888888887L38.65271236699815,59.88685185185187L42.27734170591323,72.11111111111113L46.50200593057739,77.1222222222222L53.677306820164006,76.2666666666667L53.677306820164006,116.84444444444446L46.50200593057739,108.37138888888884L42.27734170591323,106.33333333333333L38.65271236699815,85.06666666666665L32.96040467469043,120.99999999999999L27.601604744461888,85.71851851851858L23.436595150880862,88.40740740740732L20.460457003314087,82.29629629629623L18.03729286586424,79.11851851851851L13.893947322518754,75.4925925925926L9.238792953078676,78.24608465608473L5.677655677655676,72.01180555555558L3.9536019536019533,90.85185185185185L1.8154543868829718,90.56472663139319L-1.1763474620617391,92.8287962962962L-4.103959532530956,94.08783068783059L-6.0450026164311685,92.94141534391532L-7.0532007674864605,92.85396825396828L-8.735740450026153,89.9148148148148L-11.148438862724568,85.04353174603169L-13.434502005930568,92.19629629629627L-15.611372754229894,91.74814814814816L-18.86118960404562,60.7037037037037L-25.80903540903428,56.77549603174605L-30.769230769230766,67.42592592592587Z" fill="#0F3C5F" opacity="0.3"></path></g></g><path class="foreground" aria-hidden="true" d="" display="none"></path></g><g transform="translate(0,0)"><path class="background" aria-hidden="true" d="M0,0h80v110h-80Z"></path><g><g class="mark-area role-mark child_layer_1_layer_0_marks" clip-path="url(#clip11)" role="graphics-object" aria-roledescription="area mark container"><path aria-label=": 0.645; upper_upper: 0.57; condition: Spatial; time: -1; lower: 0.57; upper: 0.645" role="graphics-symbol" aria-roledescription="errorband" d="M-30.769230769230766,78.09999999999992L-25.80903540903428,80.17777777777773L-18.86118960404562,19.555555555555586L-15.611372754229894,52.962962962963026L-13.434502005930568,52.148148148148124L-11.148438862724568,46.85083333333331L-8.735740450026153,45.71111111111112L-7.0532007674864605,48.91187830687831L-6.0450026164311685,46.525925925925954L-4.103959532530956,51.8920634920634L-1.1763474620617391,56.16358465608454L1.8154543868829718,58.21851851851843L3.9536019536019533,62.33027777777783L5.677655677655676,65.18518518518518L9.238792953078676,65.51111111111112L13.893947322518754,21.999999999999996L18.03729286586424,9.777777777777793L20.460457003314087,7.333333333333332L23.436595150880862,7.333333333333332L27.601604744461888,51.82222222222224L32.96040467469043,36.66666666666671L38.65271236699815,167.2L42.27734170591323,166.22222222222223L46.50200593057739,61.72222222222222L53.677306820164006,60.7037037037037L53.677306820164006,101.44444444444446L46.50200593057739,102.66666666666667L42.27734170591323,200.44444444444443L38.65271236699815,199.95555555555555L32.96040467469043,55.40740740740746L27.601604744461888,80.66666666666674L23.436595150880862,34.22222222222222L20.460457003314087,34.22222222222222L18.03729286586424,41.55555555555556L13.893947322518754,58.66666666666666L9.238792953078676,102.42222222222222L5.677655677655676,100.83333333333331L3.9536019536019533,89.83333333333336L1.8154543868829718,85.39361111111101L-1.1763474620617391,83.69923280423271L-4.103959532530956,79.60740740740727L-6.0450026164311685,72.5602777777778L-7.0532007674864605,74.32275132275127L-8.735740450026153,72.11111111111113L-11.148438862724568,73.17138888888891L-13.434502005930568,87.99999999999999L-15.611372754229894,90.64814814814818L-18.86118960404562,46.03703703703706L-25.80903540903428,96.5555555555555L-30.769230769230766,94.59999999999994Z" fill="#EB9A60" opacity="0.3"></path></g></g><path class="foreground" aria-hidden="true" d="" display="none"></path></g><g transform="translate(0,0)"><path class="background" aria-hidden="true" d="M0,0h80v110h-80Z"></path><g><g class="mark-area role-mark child_layer_1_layer_0_marks" clip-path="url(#clip12)" role="graphics-object" aria-roledescription="area mark container"><path aria-label=": 0.865925925926; upper_upper: 0.739259259259; condition: Object; time: -1; lower: 0.739259259259; upper: 0.865925925926" role="graphics-symbol" aria-roledescription="errorband" d="M-30.769230769230766,29.496296296296553L-25.80903540903428,21.75555555555578L-18.86118960404562,2.44444444444446L-15.611372754229894,4.88888888888892L-13.434502005930568,11.407407407407424L-11.148438862724568,10.185185185185206L-8.735740450026153,15.074074074074078L-7.0532007674864605,18.333333333333364L-6.0450026164311685,16.49999999999999L-4.103959532530956,29.944444444444535L-1.1763474620617391,32.633333333333375L1.8154543868829718,25.742328042328065L3.9536019536019533,27.296296296296305L5.677655677655676,27.70370370370372L9.238792953078676,36.544444444444274L13.893947322518754,34.09999999999998L18.03729286586424,29.822222222222294L20.460457003314087,33.0000000000002L23.436595150880862,33.40740740740766L27.601604744461888,10.103703703703655L32.96040467469043,32.51111111111106L38.65271236699815,22.40740740740741L42.27734170591323,16.296296296296294L46.50200593057739,15.481481481481442L53.677306820164006,119.77777777777779L53.677306820164006,162.55555555555557L46.50200593057739,32.99999999999996L42.27734170591323,33.40740740740742L38.65271236699815,46.03703703703701L32.96040467469043,70.39999999999993L27.601604744461888,31.69629629629631L23.436595150880862,57.44444444444468L20.460457003314087,57.444444444444656L18.03729286586424,54.75555555555562L13.893947322518754,58.66666666666668L9.238792953078676,57.60740740740727L5.677655677655676,51.53703703703702L3.9536019536019533,50.931018518518506L1.8154543868829718,48.98201058201061L-1.1763474620617391,59.52222222222227L-4.103959532530956,57.64814814814823L-6.0450026164311685,41.14814814814817L-7.0532007674864605,42.37037037037038L-8.735740450026153,40.740740740740705L-11.148438862724568,26.481481481481502L-13.434502005930568,28.111111111111107L-15.611372754229894,21.185185185185215L-18.86118960404562,16.703703703703734L-25.80903540903428,41.9222222222224L-30.769230769230766,57.36296296296318Z" fill="#687B3E" opacity="0.3"></path></g></g><path class="foreground" aria-hidden="true" d="" display="none"></path></g></g><g class="mark-text role-mark child_layer_2_marks" role="graphics-object" aria-roledescription="text mark container"></g><g class="mark-text role-mark child_layer_3_layer_0_marks" role="graphics-object" aria-roledescription="text mark container"><text text-anchor="end" transform="translate(48.153846153846146,108)" font-family="sans-serif" font-size="9px" fill="#3A3A3A">Far</text></g><g class="mark-text role-mark child_layer_3_layer_1_marks" role="graphics-object" aria-roledescription="text mark container"><text text-anchor="start" transform="translate(2,108)" font-family="sans-serif" font-size="9px" fill="#3A3A3A">Near</text></g></g><path class="foreground" aria-hidden="true" d="" display="none"></path></g></g></g><path class="foreground" aria-hidden="true" d="" display="none"></path></g></g></g></svg>
