<?xml version="1.0" encoding="utf-8"?>
<!DOCTYPE svg PUBLIC "-//W3C//DTD SVG 1.1//EN" "http://www.w3.org/Graphics/SVG/1.1/DTD/svg11.dtd">
<svg class="marks" width="776" height="297" viewBox="0 0 776 297" version="1.1" xmlns="http://www.w3.org/2000/svg" xmlns:xlink="http://www.w3.org/1999/xlink"><rect width="776" height="297" fill="white"></rect><g fill="none" stroke-miterlimit="10" transform="translate(57,57)"><g class="mark-group role-frame root" role="graphics-object" aria-roledescription="group mark container"><g transform="translate(0,0)"><path class="background" aria-hidden="true" d="M0,0h0v0h0Z"></path><g><g class="mark-group role-column-title column-title" role="graphics-object" aria-roledescription="group mark container"><g transform="translate(326,-31)"><path class="background" aria-hidden="true" d="M0,0h0v0h0Z"></path><g><g class="mark-group role-title"><g transform="translate(0,-21)"><path class="background" aria-hidden="true" d="M0,0h0v0h0Z" pointer-events="none"></path><g><g class="mark-text role-title-text" role="graphics-symbol" aria-roledescription="title" aria-label="Title text 'condition'" pointer-events="none"><text text-anchor="middle" transform="translate(0,9)" font-family="sans-serif" font-size="11px" font-weight="bold" fill="#000" opacity="1">condition</text></g></g><path class="foreground" aria-hidden="true" d="" pointer-events="none" display="none"></path></g></g></g><path class="foreground" aria-hidden="true" d="" display="none"></path></g></g><g class="mark-group role-row-header row_header" role="graphics-object" aria-roledescription="group mark container"><g transform="translate(-3,0)"><path class="background" aria-hidden="true" d="M0,0h0v200h0Z"></path><g><g class="mark-group role-axis" role="graphics-symbol" aria-roledescription="axis" aria-label="Y-axis titled 'Mean of value' for a linear scale with values from 0.000 to 0.006"><g transform="translate(0.5,0.5)"><path class="background" aria-hidden="true" d="M0,0h0v0h0Z" pointer-events="none"></path><g><g class="mark-rule role-axis-tick" pointer-events="none"><line transform="translate(0,200)" x2="-5" y2="0" stroke="#888" stroke-width="1" opacity="1"></line><line transform="translate(0,167)" x2="-5" y2="0" stroke="#888" stroke-width="1" opacity="1"></line><line transform="translate(0,133)" x2="-5" y2="0" stroke="#888" stroke-width="1" opacity="1"></line><line transform="translate(0,100)" x2="-5" y2="0" stroke="#888" stroke-width="1" opacity="1"></line><line transform="translate(0,67)" x2="-5" y2="0" stroke="#888" stroke-width="1" opacity="1"></line><line transform="translate(0,33)" x2="-5" y2="0" stroke="#888" stroke-width="1" opacity="1"></line><line transform="translate(0,0)" x2="-5" y2="0" stroke="#888" stroke-width="1" opacity="1"></line></g><g class="mark-text role-axis-label" pointer-events="none"><text text-anchor="end" transform="translate(-7,203)" font-family="sans-serif" font-size="10px" fill="#000" opacity="1">0.000</text><text text-anchor="end" transform="translate(-7,169.66666666666669)" font-family="sans-serif" font-size="10px" fill="#000" opacity="1">0.001</text><text text-anchor="end" transform="translate(-7,136.33333333333334)" font-family="sans-serif" font-size="10px" fill="#000" opacity="1">0.002</text><text text-anchor="end" transform="translate(-7,103)" font-family="sans-serif" font-size="10px" fill="#000" opacity="1">0.003</text><text text-anchor="end" transform="translate(-7,69.66666666666667)" font-family="sans-serif" font-size="10px" fill="#000" opacity="1">0.004</text><text text-anchor="end" transform="translate(-7,36.33333333333333)" font-family="sans-serif" font-size="10px" fill="#000" opacity="1">0.005</text><text text-anchor="end" transform="translate(-7,3)" font-family="sans-serif" font-size="10px" fill="#000" opacity="1">0.006</text></g><g class="mark-rule role-axis-domain" pointer-events="none"><line transform="translate(0,200)" x2="0" y2="-200" stroke="#888" stroke-width="1" opacity="1"></line></g><g class="mark-text role-axis-title" pointer-events="none"><text text-anchor="middle" transform="translate(-38,100) rotate(-90) translate(0,-2)" font-family="sans-serif" font-size="11px" font-weight="bold" fill="#000" opacity="1">Mean of value</text></g></g><path class="foreground" aria-hidden="true" d="" pointer-events="none" display="none"></path></g></g></g><path class="foreground" aria-hidden="true" d="" display="none"></path></g></g><g class="mark-group role-column-header column_header" role="graphics-object" aria-roledescription="group mark container"><g transform="translate(0,-1)"><path class="background" aria-hidden="true" d="M0,0h200v0h-200Z"></path><g><g class="mark-group role-title"><g transform="translate(100,-20)"><path class="background" aria-hidden="true" d="M0,0h0v0h0Z" pointer-events="none"></path><g><g class="mark-text role-title-text" role="graphics-symbol" aria-roledescription="title" aria-label="Title text 'global'" pointer-events="none"><text text-anchor="middle" transform="translate(0,8)" font-family="sans-serif" font-size="10px" fill="#000" opacity="1">global</text></g></g><path class="foreground" aria-hidden="true" d="" pointer-events="none" display="none"></path></g></g></g><path class="foreground" aria-hidden="true" d="" display="none"></path></g><g transform="translate(226,-1)"><path class="background" aria-hidden="true" d="M0,0h200v0h-200Z"></path><g><g class="mark-group role-title"><g transform="translate(100,-20)"><path class="background" aria-hidden="true" d="M0,0h0v0h0Z" pointer-events="none"></path><g><g class="mark-text role-title-text" role="graphics-symbol" aria-roledescription="title" aria-label="Title text 'object'" pointer-events="none"><text text-anchor="middle" transform="translate(0,8)" font-family="sans-serif" font-size="10px" fill="#000" opacity="1">object</text></g></g><path class="foreground" aria-hidden="true" d="" pointer-events="none" display="none"></path></g></g></g><path class="foreground" aria-hidden="true" d="" display="none"></path></g><g transform="translate(452,-1)"><path class="background" aria-hidden="true" d="M0,0h200v0h-200Z"></path><g><g class="mark-group role-title"><g transform="translate(100,-20)"><path class="background" aria-hidden="true" d="M0,0h0v0h0Z" pointer-events="none"></path><g><g class="mark-text role-title-text" role="graphics-symbol" aria-roledescription="title" aria-label="Title text 'spatial'" pointer-events="none"><text text-anchor="middle" transform="translate(0,8)" font-family="sans-serif" font-size="10px" fill="#000" opacity="1">spatial</text></g></g><path class="foreground" aria-hidden="true" d="" pointer-events="none" display="none"></path></g></g></g><path class="foreground" aria-hidden="true" d="" display="none"></path></g></g><g class="mark-group role-column-footer column_footer" role="graphics-object" aria-roledescription="group mark container"><g transform="translate(0,203)"><path class="background" aria-hidden="true" d="M0,0h200v0h-200Z"></path><g><g class="mark-group role-axis" role="graphics-symbol" aria-roledescription="axis" aria-label="X-axis titled 'winstart' for a linear scale with values from 0.0 to 3.0"><g transform="translate(0.5,0.5)"><path class="background" aria-hidden="true" d="M0,0h0v0h0Z" pointer-events="none"></path><g><g class="mark-rule role-axis-tick" pointer-events="none"><line transform="translate(0,0)" x2="0" y2="5" stroke="#888" stroke-width="1" opacity="1"></line><line transform="translate(33,0)" x2="0" y2="5" stroke="#888" stroke-width="1" opacity="1"></line><line transform="translate(67,0)" x2="0" y2="5" stroke="#888" stroke-width="1" opacity="1"></line><line transform="translate(100,0)" x2="0" y2="5" stroke="#888" stroke-width="1" opacity="1"></line><line transform="translate(133,0)" x2="0" y2="5" stroke="#888" stroke-width="1" opacity="1"></line><line transform="translate(167,0)" x2="0" y2="5" stroke="#888" stroke-width="1" opacity="1"></line><line transform="translate(200,0)" x2="0" y2="5" stroke="#888" stroke-width="1" opacity="1"></line></g><g class="mark-text role-axis-label" pointer-events="none"><text text-anchor="start" transform="translate(0,15)" font-family="sans-serif" font-size="10px" fill="#000" opacity="1">0.0</text><text text-anchor="middle" transform="translate(33.33333333333333,15)" font-family="sans-serif" font-size="10px" fill="#000" opacity="1">0.5</text><text text-anchor="middle" transform="translate(66.66666666666666,15)" font-family="sans-serif" font-size="10px" fill="#000" opacity="1">1.0</text><text text-anchor="middle" transform="translate(100,15)" font-family="sans-serif" font-size="10px" fill="#000" opacity="1">1.5</text><text text-anchor="middle" transform="translate(133.33333333333331,15)" font-family="sans-serif" font-size="10px" fill="#000" opacity="1">2.0</text><text text-anchor="middle" transform="translate(166.66666666666669,15)" font-family="sans-serif" font-size="10px" fill="#000" opacity="1">2.5</text><text text-anchor="end" transform="translate(200,15)" font-family="sans-serif" font-size="10px" fill="#000" opacity="1">3.0</text></g><g class="mark-rule role-axis-domain" pointer-events="none"><line transform="translate(0,0)" x2="200" y2="0" stroke="#888" stroke-width="1" opacity="1"></line></g><g class="mark-text role-axis-title" pointer-events="none"><text text-anchor="middle" transform="translate(100,30)" font-family="sans-serif" font-size="11px" font-weight="bold" fill="#000" opacity="1">winstart</text></g></g><path class="foreground" aria-hidden="true" d="" pointer-events="none" display="none"></path></g></g></g><path class="foreground" aria-hidden="true" d="" display="none"></path></g><g transform="translate(226,203)"><path class="background" aria-hidden="true" d="M0,0h200v0h-200Z"></path><g><g class="mark-group role-axis" role="graphics-symbol" aria-roledescription="axis" aria-label="X-axis titled 'winstart' for a linear scale with values from 0.0 to 3.0"><g transform="translate(0.5,0.5)"><path class="background" aria-hidden="true" d="M0,0h0v0h0Z" pointer-events="none"></path><g><g class="mark-rule role-axis-tick" pointer-events="none"><line transform="translate(0,0)" x2="0" y2="5" stroke="#888" stroke-width="1" opacity="1"></line><line transform="translate(33,0)" x2="0" y2="5" stroke="#888" stroke-width="1" opacity="1"></line><line transform="translate(67,0)" x2="0" y2="5" stroke="#888" stroke-width="1" opacity="1"></line><line transform="translate(100,0)" x2="0" y2="5" stroke="#888" stroke-width="1" opacity="1"></line><line transform="translate(133,0)" x2="0" y2="5" stroke="#888" stroke-width="1" opacity="1"></line><line transform="translate(167,0)" x2="0" y2="5" stroke="#888" stroke-width="1" opacity="1"></line><line transform="translate(200,0)" x2="0" y2="5" stroke="#888" stroke-width="1" opacity="1"></line></g><g class="mark-text role-axis-label" pointer-events="none"><text text-anchor="start" transform="translate(0,15)" font-family="sans-serif" font-size="10px" fill="#000" opacity="1">0.0</text><text text-anchor="middle" transform="translate(33.33333333333333,15)" font-family="sans-serif" font-size="10px" fill="#000" opacity="1">0.5</text><text text-anchor="middle" transform="translate(66.66666666666666,15)" font-family="sans-serif" font-size="10px" fill="#000" opacity="1">1.0</text><text text-anchor="middle" transform="translate(100,15)" font-family="sans-serif" font-size="10px" fill="#000" opacity="1">1.5</text><text text-anchor="middle" transform="translate(133.33333333333331,15)" font-family="sans-serif" font-size="10px" fill="#000" opacity="1">2.0</text><text text-anchor="middle" transform="translate(166.66666666666669,15)" font-family="sans-serif" font-size="10px" fill="#000" opacity="1">2.5</text><text text-anchor="end" transform="translate(200,15)" font-family="sans-serif" font-size="10px" fill="#000" opacity="1">3.0</text></g><g class="mark-rule role-axis-domain" pointer-events="none"><line transform="translate(0,0)" x2="200" y2="0" stroke="#888" stroke-width="1" opacity="1"></line></g><g class="mark-text role-axis-title" pointer-events="none"><text text-anchor="middle" transform="translate(100,30)" font-family="sans-serif" font-size="11px" font-weight="bold" fill="#000" opacity="1">winstart</text></g></g><path class="foreground" aria-hidden="true" d="" pointer-events="none" display="none"></path></g></g></g><path class="foreground" aria-hidden="true" d="" display="none"></path></g><g transform="translate(452,203)"><path class="background" aria-hidden="true" d="M0,0h200v0h-200Z"></path><g><g class="mark-group role-axis" role="graphics-symbol" aria-roledescription="axis" aria-label="X-axis titled 'winstart' for a linear scale with values from 0.0 to 3.0"><g transform="translate(0.5,0.5)"><path class="background" aria-hidden="true" d="M0,0h0v0h0Z" pointer-events="none"></path><g><g class="mark-rule role-axis-tick" pointer-events="none"><line transform="translate(0,0)" x2="0" y2="5" stroke="#888" stroke-width="1" opacity="1"></line><line transform="translate(33,0)" x2="0" y2="5" stroke="#888" stroke-width="1" opacity="1"></line><line transform="translate(67,0)" x2="0" y2="5" stroke="#888" stroke-width="1" opacity="1"></line><line transform="translate(100,0)" x2="0" y2="5" stroke="#888" stroke-width="1" opacity="1"></line><line transform="translate(133,0)" x2="0" y2="5" stroke="#888" stroke-width="1" opacity="1"></line><line transform="translate(167,0)" x2="0" y2="5" stroke="#888" stroke-width="1" opacity="1"></line><line transform="translate(200,0)" x2="0" y2="5" stroke="#888" stroke-width="1" opacity="1"></line></g><g class="mark-text role-axis-label" pointer-events="none"><text text-anchor="start" transform="translate(0,15)" font-family="sans-serif" font-size="10px" fill="#000" opacity="1">0.0</text><text text-anchor="middle" transform="translate(33.33333333333333,15)" font-family="sans-serif" font-size="10px" fill="#000" opacity="1">0.5</text><text text-anchor="middle" transform="translate(66.66666666666666,15)" font-family="sans-serif" font-size="10px" fill="#000" opacity="1">1.0</text><text text-anchor="middle" transform="translate(100,15)" font-family="sans-serif" font-size="10px" fill="#000" opacity="1">1.5</text><text text-anchor="middle" transform="translate(133.33333333333331,15)" font-family="sans-serif" font-size="10px" fill="#000" opacity="1">2.0</text><text text-anchor="middle" transform="translate(166.66666666666669,15)" font-family="sans-serif" font-size="10px" fill="#000" opacity="1">2.5</text><text text-anchor="end" transform="translate(200,15)" font-family="sans-serif" font-size="10px" fill="#000" opacity="1">3.0</text></g><g class="mark-rule role-axis-domain" pointer-events="none"><line transform="translate(0,0)" x2="200" y2="0" stroke="#888" stroke-width="1" opacity="1"></line></g><g class="mark-text role-axis-title" pointer-events="none"><text text-anchor="middle" transform="translate(100,30)" font-family="sans-serif" font-size="11px" font-weight="bold" fill="#000" opacity="1">winstart</text></g></g><path class="foreground" aria-hidden="true" d="" pointer-events="none" display="none"></path></g></g></g><path class="foreground" aria-hidden="true" d="" display="none"></path></g></g><g class="mark-group role-scope cell" role="graphics-object" aria-roledescription="group mark container"><g transform="translate(0,0)"><path class="background" aria-hidden="true" d="M0.5,0.5h200v200h-200Z" stroke="#ddd"></path><g><g class="mark-group role-axis" aria-hidden="true"><g transform="translate(0.5,200.5)"><path class="background" aria-hidden="true" d="M0,0h0v0h0Z" pointer-events="none"></path><g><g class="mark-rule role-axis-grid" pointer-events="none"><line transform="translate(0,-200)" x2="0" y2="200" stroke="#ddd" stroke-width="1" opacity="1"></line><line transform="translate(33,-200)" x2="0" y2="200" stroke="#ddd" stroke-width="1" opacity="1"></line><line transform="translate(67,-200)" x2="0" y2="200" stroke="#ddd" stroke-width="1" opacity="1"></line><line transform="translate(100,-200)" x2="0" y2="200" stroke="#ddd" stroke-width="1" opacity="1"></line><line transform="translate(133,-200)" x2="0" y2="200" stroke="#ddd" stroke-width="1" opacity="1"></line><line transform="translate(167,-200)" x2="0" y2="200" stroke="#ddd" stroke-width="1" opacity="1"></line><line transform="translate(200,-200)" x2="0" y2="200" stroke="#ddd" stroke-width="1" opacity="1"></line></g></g><path class="foreground" aria-hidden="true" d="" pointer-events="none" display="none"></path></g></g><g class="mark-group role-axis" aria-hidden="true"><g transform="translate(0.5,0.5)"><path class="background" aria-hidden="true" d="M0,0h0v0h0Z" pointer-events="none"></path><g><g class="mark-rule role-axis-grid" pointer-events="none"><line transform="translate(0,200)" x2="200" y2="0" stroke="#ddd" stroke-width="1" opacity="1"></line><line transform="translate(0,167)" x2="200" y2="0" stroke="#ddd" stroke-width="1" opacity="1"></line><line transform="translate(0,133)" x2="200" y2="0" stroke="#ddd" stroke-width="1" opacity="1"></line><line transform="translate(0,100)" x2="200" y2="0" stroke="#ddd" stroke-width="1" opacity="1"></line><line transform="translate(0,67)" x2="200" y2="0" stroke="#ddd" stroke-width="1" opacity="1"></line><line transform="translate(0,33)" x2="200" y2="0" stroke="#ddd" stroke-width="1" opacity="1"></line><line transform="translate(0,0)" x2="200" y2="0" stroke="#ddd" stroke-width="1" opacity="1"></line></g></g><path class="foreground" aria-hidden="true" d="" pointer-events="none" display="none"></path></g></g><g class="mark-group role-scope child_pathgroup" role="graphics-object" aria-roledescription="group mark container"><g transform="translate(0,0)"><path class="background" aria-hidden="true" d="M0,0h200v200h-200Z"></path><g><g class="mark-line role-mark child_marks" role="graphics-object" aria-roledescription="line mark container"><path aria-label="winstart: 0; Mean of value: 0.000426003130768; variable: nz1" role="graphics-symbol" aria-roledescription="line mark" d="M0,185.79989564105554L6.451612903225806,185.1622119935565L12.903225806451612,189.1527832976249L19.35483870967742,187.2030463636542L25.806451612903224,200L32.25806451612903,200L38.70967741935484,200L45.16129032258064,200L51.61290322580645,198.09144859057648L58.06451612903226,198.79761477905203L64.51612903225806,199.37849034801133L70.96774193548386,194.02917530253663L77.41935483870968,190.38246655928603L83.87096774193549,175.07032604406893L90.32258064516128,169.22962517918387L96.7741935483871,160.9514317148273L103.2258064516129,161.98804074131226L109.67741935483872,153.87148688637023L116.12903225806453,146.01834628373362L122.58064516129032,116.93264794665745L129.03225806451613,109.61617975127562L135.48387096774192,65.58169521541015L141.93548387096772,10.349919416594755L148.38709677419354,43.123163284064205L154.83870967741936,72.49811301111559L161.29032258064518,64.63220738310322L167.74193548387098,95.65891568413379L174.19354838709677,95.76664054748167L180.64516129032256,102.19270851060287L187.0967741935484,141.12498034479395L193.5483870967742,183.7671236065787L200,188.43877080340587" stroke="#F6D470" stroke-width="2"></path></g></g><path class="foreground" aria-hidden="true" d="" display="none"></path></g><g transform="translate(0,0)"><path class="background" aria-hidden="true" d="M0,0h200v200h-200Z"></path><g><g class="mark-line role-mark child_marks" role="graphics-object" aria-roledescription="line mark container"><path aria-label="winstart: 0; Mean of value: 0; variable: nz2" role="graphics-symbol" aria-roledescription="line mark" d="M0,200L6.451612903225806,200L12.903225806451612,196.81426115389746L19.35483870967742,196.79324686170565L25.806451612903224,183.65954580142778L32.25806451612903,200L38.70967741935484,200L45.16129032258064,200L51.61290322580645,200L58.06451612903226,200L64.51612903225806,200L70.96774193548386,200L77.41935483870968,200L83.87096774193549,200L90.32258064516128,200L96.7741935483871,200L103.2258064516129,200L109.67741935483872,200L116.12903225806453,200L122.58064516129032,200L129.03225806451613,200L135.48387096774192,200L141.93548387096772,200L148.38709677419354,200L154.83870967741936,197.63379497839907L161.29032258064518,191.41946125876945L167.74193548387098,152.87921250619902L174.19354838709677,182.99389336367423L180.64516129032256,185.78027253026033L187.0967741935484,127.15073522638333L193.5483870967742,113.22915611792939L200,94.37597468738514" stroke="#E99B53" stroke-width="2"></path></g></g><path class="foreground" aria-hidden="true" d="" display="none"></path></g><g transform="translate(0,0)"><path class="background" aria-hidden="true" d="M0,0h200v200h-200Z"></path><g><g class="mark-line role-mark child_marks" role="graphics-object" aria-roledescription="line mark container"><path aria-label="winstart: 0; Mean of value: 0; variable: nz3" role="graphics-symbol" aria-roledescription="line mark" d="M0,200L6.451612903225806,200L12.903225806451612,200L19.35483870967742,200L25.806451612903224,200L32.25806451612903,200L38.70967741935484,200L45.16129032258064,200L51.61290322580645,200L58.06451612903226,200L64.51612903225806,200L70.96774193548386,200L77.41935483870968,200L83.87096774193549,200L90.32258064516128,200L96.7741935483871,196.68878455943323L103.2258064516129,197.50697396579764L109.67741935483872,190.00101730297098L116.12903225806453,166.8249797852886L122.58064516129032,168.54047027778793L129.03225806451613,156.8771120375508L135.48387096774192,167.42591888124687L141.93548387096772,189.10297639168164L148.38709677419354,170.78987338928766L154.83870967741936,175.10564519780996L161.29032258064518,167.22486708902227L167.74193548387098,189.15419642162695L174.19354838709677,191.6246915287215L180.64516129032256,182.20602808008292L187.0967741935484,183.07880909555703L193.5483870967742,154.28919037261872L200,133.8402881201387" stroke="#D4644D" stroke-width="2"></path></g></g><path class="foreground" aria-hidden="true" d="" display="none"></path></g><g transform="translate(0,0)"><path class="background" aria-hidden="true" d="M0,0h200v200h-200Z"></path><g><g class="mark-line role-mark child_marks" role="graphics-object" aria-roledescription="line mark container"><path aria-label="winstart: 0; Mean of value: 0; variable: nz4" role="graphics-symbol" aria-roledescription="line mark" d="M0,200L6.451612903225806,200L12.903225806451612,200L19.35483870967742,200L25.806451612903224,200L32.25806451612903,200L38.70967741935484,200L45.16129032258064,200L51.61290322580645,200L58.06451612903226,200L64.51612903225806,200L70.96774193548386,200L77.41935483870968,199.80171217126704L83.87096774193549,198.59558429771587L90.32258064516128,197.49979262646556L96.7741935483871,196.41285987588745L103.2258064516129,195.88358378647817L109.67741935483872,195.52569401306008L116.12903225806453,192.77933477952647L122.58064516129032,183.78394111567587L129.03225806451613,161.56528944969142L135.48387096774192,150.6944181899236L141.93548387096772,151.964359814637L148.38709677419354,143.6902250133434L154.83870967741936,125.43035127245416L161.29032258064518,115.91502481220716L167.74193548387098,109.88893710656562L174.19354838709677,75.72350447574208L180.64516129032256,85.54202492758569L187.0967741935484,104.22527248583435L193.5483870967742,65.7318528908406L200,100.60671743451906" stroke="#8A3F39" stroke-width="2"></path></g></g><path class="foreground" aria-hidden="true" d="" display="none"></path></g><g transform="translate(0,0)"><path class="background" aria-hidden="true" d="M0,0h200v200h-200Z"></path><g><g class="mark-line role-mark child_marks" role="graphics-object" aria-roledescription="line mark container"><path aria-label="winstart: 0; Mean of value: 0; variable: nz5" role="graphics-symbol" aria-roledescription="line mark" d="M0,200L6.451612903225806,200L12.903225806451612,200L19.35483870967742,200L25.806451612903224,200L32.25806451612903,200L38.70967741935484,200L45.16129032258064,200L51.61290322580645,200L58.06451612903226,200L64.51612903225806,200L70.96774193548386,200L77.41935483870968,200L83.87096774193549,200L90.32258064516128,199.40646511269105L96.7741935483871,199.55670060500609L103.2258064516129,197.73781107171936L109.67741935483872,196.601394151269L116.12903225806453,194.21979533337495L122.58064516129032,192.28573297873606L129.03225806451613,193.29707907143066L135.48387096774192,187.58014135997513L141.93548387096772,174.06424819505617L148.38709677419354,152.4826875928679L154.83870967741936,127.6682279288627L161.29032258064518,139.30591344332979L167.74193548387098,123.42581312985743L174.19354838709677,125.96331027060121L180.64516129032256,113.57688106801702L187.0967741935484,111.12438365518149L193.5483870967742,150.65160790655122L200,148.11273341656835" stroke="#3E2716" stroke-width="2"></path></g></g><path class="foreground" aria-hidden="true" d="" display="none"></path></g></g></g><path class="foreground" aria-hidden="true" d="" display="none"></path></g><g transform="translate(226,0)"><path class="background" aria-hidden="true" d="M0.5,0.5h200v200h-200Z" stroke="#ddd"></path><g><g class="mark-group role-axis" aria-hidden="true"><g transform="translate(0.5,200.5)"><path class="background" aria-hidden="true" d="M0,0h0v0h0Z" pointer-events="none"></path><g><g class="mark-rule role-axis-grid" pointer-events="none"><line transform="translate(0,-200)" x2="0" y2="200" stroke="#ddd" stroke-width="1" opacity="1"></line><line transform="translate(33,-200)" x2="0" y2="200" stroke="#ddd" stroke-width="1" opacity="1"></line><line transform="translate(67,-200)" x2="0" y2="200" stroke="#ddd" stroke-width="1" opacity="1"></line><line transform="translate(100,-200)" x2="0" y2="200" stroke="#ddd" stroke-width="1" opacity="1"></line><line transform="translate(133,-200)" x2="0" y2="200" stroke="#ddd" stroke-width="1" opacity="1"></line><line transform="translate(167,-200)" x2="0" y2="200" stroke="#ddd" stroke-width="1" opacity="1"></line><line transform="translate(200,-200)" x2="0" y2="200" stroke="#ddd" stroke-width="1" opacity="1"></line></g></g><path class="foreground" aria-hidden="true" d="" pointer-events="none" display="none"></path></g></g><g class="mark-group role-axis" aria-hidden="true"><g transform="translate(0.5,0.5)"><path class="background" aria-hidden="true" d="M0,0h0v0h0Z" pointer-events="none"></path><g><g class="mark-rule role-axis-grid" pointer-events="none"><line transform="translate(0,200)" x2="200" y2="0" stroke="#ddd" stroke-width="1" opacity="1"></line><line transform="translate(0,167)" x2="200" y2="0" stroke="#ddd" stroke-width="1" opacity="1"></line><line transform="translate(0,133)" x2="200" y2="0" stroke="#ddd" stroke-width="1" opacity="1"></line><line transform="translate(0,100)" x2="200" y2="0" stroke="#ddd" stroke-width="1" opacity="1"></line><line transform="translate(0,67)" x2="200" y2="0" stroke="#ddd" stroke-width="1" opacity="1"></line><line transform="translate(0,33)" x2="200" y2="0" stroke="#ddd" stroke-width="1" opacity="1"></line><line transform="translate(0,0)" x2="200" y2="0" stroke="#ddd" stroke-width="1" opacity="1"></line></g></g><path class="foreground" aria-hidden="true" d="" pointer-events="none" display="none"></path></g></g><g class="mark-group role-scope child_pathgroup" role="graphics-object" aria-roledescription="group mark container"><g transform="translate(0,0)"><path class="background" aria-hidden="true" d="M0,0h200v200h-200Z"></path><g><g class="mark-line role-mark child_marks" role="graphics-object" aria-roledescription="line mark container"><path aria-label="winstart: 0; Mean of value: 0.0007340867242; variable: nz1" role="graphics-symbol" aria-roledescription="line mark" d="M0,175.53044252666493L6.451612903225806,168.04657419791903L12.903225806451612,170.39840072550243L19.35483870967742,184.73396847945762L25.806451612903224,185.13903033753056L32.25806451612903,183.9498519312496L38.70967741935484,186.23764182900408L45.16129032258064,175.00966246941158L51.61290322580645,171.82112481319487L58.06451612903226,171.71130048917857L64.51612903225806,181.19499170932647L70.96774193548386,184.4018140847512L77.41935483870968,198.1072931993374L83.87096774193549,184.27693673492027L90.32258064516128,145.77595623618106L96.7741935483871,153.80246198671563L103.2258064516129,185.29980041318703L109.67741935483872,149.8020737168396L116.12903225806453,178.7861777207759L122.58064516129032,130.09831778561448L129.03225806451613,108.39853820884828L135.48387096774192,92.65046359093962L141.93548387096772,88.51224029592257L148.38709677419354,110.19294614611796L154.83870967741936,90.55891103107787L161.29032258064518,85.23218684557763L167.74193548387098,75.65944380899454L174.19354838709677,117.4497561752637L180.64516129032256,75.29900717857814L187.0967741935484,82.88463595289872L193.5483870967742,123.79659972195192L200,115.47439585422606" stroke="#F6D470" stroke-width="2"></path></g></g><path class="foreground" aria-hidden="true" d="" display="none"></path></g><g transform="translate(0,0)"><path class="background" aria-hidden="true" d="M0,0h200v200h-200Z"></path><g><g class="mark-line role-mark child_marks" role="graphics-object" aria-roledescription="line mark container"><path aria-label="winstart: 0; Mean of value: 0.000604907820866; variable: nz2" role="graphics-symbol" aria-roledescription="line mark" d="M0,179.83640597114456L6.451612903225806,188.37166900589366L12.903225806451612,183.7910983496984L19.35483870967742,176.3544316394411L25.806451612903224,198.30634024666043L32.25806451612903,195.72540242942486L38.70967741935484,185.0490157114812L45.16129032258064,198.30174365174062L51.61290322580645,180.1298588807485L58.06451612903226,194.913196303751L64.51612903225806,191.962829789975L70.96774193548386,185.73253550330756L77.41935483870968,165.14053257398217L83.87096774193549,172.03299796149864L90.32258064516128,197.9172186688025L96.7741935483871,191.17396339220838L103.2258064516129,143.57057156421158L109.67741935483872,191.50335073619243L116.12903225806453,159.45299651205218L122.58064516129032,188.23247607101194L129.03225806451613,190.71060894096257L135.48387096774192,196.49264228226846L141.93548387096772,198.69176109631283L148.38709677419354,170.3889027780094L154.83870967741936,194.87998988829867L161.29032258064518,153.1693664203642L167.74193548387098,166.86238206769107L174.19354838709677,114.33610224795412L180.64516129032256,178.8876254179166L187.0967741935484,159.73810968774572L193.5483870967742,96.17667914455473L200,108.4949543422291" stroke="#E99B53" stroke-width="2"></path></g></g><path class="foreground" aria-hidden="true" d="" display="none"></path></g><g transform="translate(0,0)"><path class="background" aria-hidden="true" d="M0,0h200v200h-200Z"></path><g><g class="mark-line role-mark child_marks" role="graphics-object" aria-roledescription="line mark container"><path aria-label="winstart: 0; Mean of value: 0; variable: nz3" role="graphics-symbol" aria-roledescription="line mark" d="M0,200L6.451612903225806,195.55096349948374L12.903225806451612,187.2669589719876L19.35483870967742,174.63632129266895L25.806451612903224,166.01728822318586L32.25806451612903,173.46691459617801L38.70967741935484,179.368518369515L45.16129032258064,183.776178572095L51.61290322580645,195.94350761691558L58.06451612903226,181.14850439024096L64.51612903225806,169.4580241566465L70.96774193548386,197.4799677810899L77.41935483870968,200L83.87096774193549,200L90.32258064516128,200L96.7741935483871,195.55729970816236L103.2258064516129,200L109.67741935483872,196.44511728567042L116.12903225806453,186.4656468055348L122.58064516129032,198.06364310477565L129.03225806451613,192.9511025214692L135.48387096774192,188.3021781148623L141.93548387096772,178.91621396437597L148.38709677419354,180.36321123677266L154.83870967741936,167.54682829612554L161.29032258064518,198.3533974202946L167.74193548387098,183.80720251117555L174.19354838709677,193.9521037823725L180.64516129032256,188.1327101850854L187.0967741935484,195.08535990810427L193.5483870967742,199.20495635505492L200,181.12366922354846" stroke="#D4644D" stroke-width="2"></path></g></g><path class="foreground" aria-hidden="true" d="" display="none"></path></g><g transform="translate(0,0)"><path class="background" aria-hidden="true" d="M0,0h200v200h-200Z"></path><g><g class="mark-line role-mark child_marks" role="graphics-object" aria-roledescription="line mark container"><path aria-label="winstart: 0; Mean of value: 0; variable: nz4" role="graphics-symbol" aria-roledescription="line mark" d="M0,200L6.451612903225806,200L12.903225806451612,200L19.35483870967742,200L25.806451612903224,200L32.25806451612903,200L38.70967741935484,200L45.16129032258064,200L51.61290322580645,200L58.06451612903226,200L64.51612903225806,200L70.96774193548386,198.18273709062316L77.41935483870968,197.64121217714842L83.87096774193549,198.80887958226847L90.32258064516128,197.9970701866228L96.7741935483871,196.16239784920117L103.2258064516129,197.99501752039876L109.67741935483872,198.4827791846548L116.12903225806453,200L122.58064516129032,198.5347831338296L129.03225806451613,196.3500753442957L135.48387096774192,197.74484346182425L141.93548387096772,200L148.38709677419354,200L154.83870967741936,200L161.29032258064518,200L167.74193548387098,200L174.19354838709677,200L180.64516129032256,200L187.0967741935484,200L193.5483870967742,200L200,200" stroke="#8A3F39" stroke-width="2"></path></g></g><path class="foreground" aria-hidden="true" d="" display="none"></path></g><g transform="translate(0,0)"><path class="background" aria-hidden="true" d="M0,0h200v200h-200Z"></path><g><g class="mark-line role-mark child_marks" role="graphics-object" aria-roledescription="line mark container"><path aria-label="winstart: 0; Mean of value: 0; variable: nz5" role="graphics-symbol" aria-roledescription="line mark" d="M0,200L6.451612903225806,200L12.903225806451612,200L19.35483870967742,200L25.806451612903224,200L32.25806451612903,200L38.70967741935484,200L45.16129032258064,200L51.61290322580645,200L58.06451612903226,200L64.51612903225806,200L70.96774193548386,200L77.41935483870968,200L83.87096774193549,200L90.32258064516128,200L96.7741935483871,200L103.2258064516129,200L109.67741935483872,200L116.12903225806453,200L122.58064516129032,199.8823520953536L129.03225806451613,199.05691366562576L135.48387096774192,199.19424751195777L141.93548387096772,198.63023263150535L148.38709677419354,197.52254740904044L154.83870967741936,196.09438653277803L161.29032258064518,194.1223307119502L167.74193548387098,197.31879498170062L174.19354838709677,191.24664119472834L180.64516129032256,177.48323640277874L187.0967741935484,171.80486958798897L193.5483870967742,183.09978163246515L200,187.10768813100663" stroke="#3E2716" stroke-width="2"></path></g></g><path class="foreground" aria-hidden="true" d="" display="none"></path></g></g></g><path class="foreground" aria-hidden="true" d="" display="none"></path></g><g transform="translate(452,0)"><path class="background" aria-hidden="true" d="M0.5,0.5h200v200h-200Z" stroke="#ddd"></path><g><g class="mark-group role-axis" aria-hidden="true"><g transform="translate(0.5,200.5)"><path class="background" aria-hidden="true" d="M0,0h0v0h0Z" pointer-events="none"></path><g><g class="mark-rule role-axis-grid" pointer-events="none"><line transform="translate(0,-200)" x2="0" y2="200" stroke="#ddd" stroke-width="1" opacity="1"></line><line transform="translate(33,-200)" x2="0" y2="200" stroke="#ddd" stroke-width="1" opacity="1"></line><line transform="translate(67,-200)" x2="0" y2="200" stroke="#ddd" stroke-width="1" opacity="1"></line><line transform="translate(100,-200)" x2="0" y2="200" stroke="#ddd" stroke-width="1" opacity="1"></line><line transform="translate(133,-200)" x2="0" y2="200" stroke="#ddd" stroke-width="1" opacity="1"></line><line transform="translate(167,-200)" x2="0" y2="200" stroke="#ddd" stroke-width="1" opacity="1"></line><line transform="translate(200,-200)" x2="0" y2="200" stroke="#ddd" stroke-width="1" opacity="1"></line></g></g><path class="foreground" aria-hidden="true" d="" pointer-events="none" display="none"></path></g></g><g class="mark-group role-axis" aria-hidden="true"><g transform="translate(0.5,0.5)"><path class="background" aria-hidden="true" d="M0,0h0v0h0Z" pointer-events="none"></path><g><g class="mark-rule role-axis-grid" pointer-events="none"><line transform="translate(0,200)" x2="200" y2="0" stroke="#ddd" stroke-width="1" opacity="1"></line><line transform="translate(0,167)" x2="200" y2="0" stroke="#ddd" stroke-width="1" opacity="1"></line><line transform="translate(0,133)" x2="200" y2="0" stroke="#ddd" stroke-width="1" opacity="1"></line><line transform="translate(0,100)" x2="200" y2="0" stroke="#ddd" stroke-width="1" opacity="1"></line><line transform="translate(0,67)" x2="200" y2="0" stroke="#ddd" stroke-width="1" opacity="1"></line><line transform="translate(0,33)" x2="200" y2="0" stroke="#ddd" stroke-width="1" opacity="1"></line><line transform="translate(0,0)" x2="200" y2="0" stroke="#ddd" stroke-width="1" opacity="1"></line></g></g><path class="foreground" aria-hidden="true" d="" pointer-events="none" display="none"></path></g></g><g class="mark-group role-scope child_pathgroup" role="graphics-object" aria-roledescription="group mark container"><g transform="translate(0,0)"><path class="background" aria-hidden="true" d="M0,0h200v200h-200Z"></path><g><g class="mark-line role-mark child_marks" role="graphics-object" aria-roledescription="line mark container"><path aria-label="winstart: 0; Mean of value: 0.000104704931175; variable: nz1" role="graphics-symbol" aria-roledescription="line mark" d="M0,196.50983562749101L6.451612903225806,196.31603547657872L12.903225806451612,200L19.35483870967742,199.34009981722852L25.806451612903224,200L32.25806451612903,199.45659821157477L38.70967741935484,199.2003632547517L45.16129032258064,200L51.61290322580645,200L58.06451612903226,200L64.51612903225806,200L70.96774193548386,200L77.41935483870968,200L83.87096774193549,200L90.32258064516128,200L96.7741935483871,200L103.2258064516129,200L109.67741935483872,200L116.12903225806453,200L122.58064516129032,200L129.03225806451613,199.1799099602428L135.48387096774192,194.36362253826803L141.93548387096772,188.2085734842087L148.38709677419354,198.34253150731456L154.83870967741936,193.65279496198846L161.29032258064518,198.23391219181605L167.74193548387098,200L174.19354838709677,199.95417860433082L180.64516129032256,200L187.0967741935484,200L193.5483870967742,200L200,200" stroke="#F6D470" stroke-width="2"></path></g></g><path class="foreground" aria-hidden="true" d="" display="none"></path></g><g transform="translate(0,0)"><path class="background" aria-hidden="true" d="M0,0h200v200h-200Z"></path><g><g class="mark-line role-mark child_marks" role="graphics-object" aria-roledescription="line mark container"><path aria-label="winstart: 0; Mean of value: 0; variable: nz2" role="graphics-symbol" aria-roledescription="line mark" d="M0,200L6.451612903225806,200L12.903225806451612,200L19.35483870967742,200L25.806451612903224,200L32.25806451612903,200L38.70967741935484,200L45.16129032258064,200L51.61290322580645,199.35481930916157L58.06451612903226,197.8430415348653L64.51612903225806,197.39625603672042L70.96774193548386,196.40411180137426L77.41935483870968,196.3408378221169L83.87096774193549,185.69019557659095L90.32258064516128,184.84584347769072L96.7741935483871,176.1765982496926L103.2258064516129,175.56714621929646L109.67741935483872,176.87914446502236L116.12903225806453,166.011659410844L122.58064516129032,160.4928262383572L129.03225806451613,162.2997858998516L135.48387096774192,172.74750639612256L141.93548387096772,157.98355762153847L148.38709677419354,175.79053805468175L154.83870967741936,185.20708914855024L161.29032258064518,194.6839972014679L167.74193548387098,200L174.19354838709677,200L180.64516129032256,196.04501461553147L187.0967741935484,200L193.5483870967742,198.0707462614953L200,197.37813636754845" stroke="#E99B53" stroke-width="2"></path></g></g><path class="foreground" aria-hidden="true" d="" display="none"></path></g><g transform="translate(0,0)"><path class="background" aria-hidden="true" d="M0,0h200v200h-200Z"></path><g><g class="mark-line role-mark child_marks" role="graphics-object" aria-roledescription="line mark container"><path aria-label="winstart: 0; Mean of value: 0; variable: nz3" role="graphics-symbol" aria-roledescription="line mark" d="M0,200L6.451612903225806,200L12.903225806451612,200L19.35483870967742,200L25.806451612903224,200L32.25806451612903,200L38.70967741935484,200L45.16129032258064,200L51.61290322580645,200L58.06451612903226,200L64.51612903225806,200L70.96774193548386,200L77.41935483870968,200L83.87096774193549,200L90.32258064516128,200L96.7741935483871,200L103.2258064516129,200L109.67741935483872,200L116.12903225806453,200L122.58064516129032,200L129.03225806451613,200L135.48387096774192,200L141.93548387096772,200L148.38709677419354,200L154.83870967741936,200L161.29032258064518,199.01539408003975L167.74193548387098,192.5889658342852L174.19354838709677,191.6289589170456L180.64516129032256,129.87816999757177L187.0967741935484,146.56735607195586L193.5483870967742,119.79792048165527L200,61.813741156978466" stroke="#D4644D" stroke-width="2"></path></g></g><path class="foreground" aria-hidden="true" d="" display="none"></path></g><g transform="translate(0,0)"><path class="background" aria-hidden="true" d="M0,0h200v200h-200Z"></path><g><g class="mark-line role-mark child_marks" role="graphics-object" aria-roledescription="line mark container"><path aria-label="winstart: 0; Mean of value: 0; variable: nz4" role="graphics-symbol" aria-roledescription="line mark" d="M0,200L6.451612903225806,200L12.903225806451612,200L19.35483870967742,200L25.806451612903224,200L32.25806451612903,200L38.70967741935484,200L45.16129032258064,200L51.61290322580645,200L58.06451612903226,200L64.51612903225806,200L70.96774193548386,200L77.41935483870968,200L83.87096774193549,200L90.32258064516128,200L96.7741935483871,200L103.2258064516129,200L109.67741935483872,199.0157912514976L116.12903225806453,199.55236781670834L122.58064516129032,199.54506806573661L129.03225806451613,195.94203297273128L135.48387096774192,190.14981896968314L141.93548387096772,185.0264309774814L148.38709677419354,180.06370594737052L154.83870967741936,196.6018208042202L161.29032258064518,190.68188902268474L167.74193548387098,196.57746705287386L174.19354838709677,200L180.64516129032256,198.89116393647004L187.0967741935484,188.24162901376658L193.5483870967742,147.38337146359927L200,186.52491293731728" stroke="#8A3F39" stroke-width="2"></path></g></g><path class="foreground" aria-hidden="true" d="" display="none"></path></g><g transform="translate(0,0)"><path class="background" aria-hidden="true" d="M0,0h200v200h-200Z"></path><g><g class="mark-line role-mark child_marks" role="graphics-object" aria-roledescription="line mark container"><path aria-label="winstart: 0; Mean of value: 0; variable: nz5" role="graphics-symbol" aria-roledescription="line mark" d="M0,200L6.451612903225806,200L12.903225806451612,200L19.35483870967742,200L25.806451612903224,200L32.25806451612903,200L38.70967741935484,200L45.16129032258064,200L51.61290322580645,200L58.06451612903226,200L64.51612903225806,200L70.96774193548386,200L77.41935483870968,200L83.87096774193549,200L90.32258064516128,200L96.7741935483871,199.63282426139145L103.2258064516129,199.4192934642246L109.67741935483872,198.62412931816752L116.12903225806453,193.70051671925722L122.58064516129032,192.81450288020574L129.03225806451613,190.84768510526874L135.48387096774192,191.31078598241555L141.93548387096772,180.79612650701878L148.38709677419354,166.7634320060105L154.83870967741936,139.64284286074994L161.29032258064518,130.77218846190027L167.74193548387098,116.97744473903526L174.19354838709677,99.52572013195675L180.64516129032256,136.52244492672392L187.0967741935484,117.43001113783569L193.5483870967742,182.42071467597503L200,191.14950182690814" stroke="#3E2716" stroke-width="2"></path></g></g><path class="foreground" aria-hidden="true" d="" display="none"></path></g></g></g><path class="foreground" aria-hidden="true" d="" display="none"></path></g></g><g class="mark-group role-legend" role="graphics-symbol" aria-roledescription="legend" aria-label="Symbol legend titled 'variable' for stroke color with 5 values: nz1, nz2, nz3, nz4, nz5"><g transform="translate(673,0)"><path class="background" aria-hidden="true" d="M0,0h41v79h-41Z" pointer-events="none"></path><g><g class="mark-group role-legend-entry"><g transform="translate(0,16)"><path class="background" aria-hidden="true" d="M0,0h0v0h0Z" pointer-events="none"></path><g><g class="mark-group role-scope" role="graphics-object" aria-roledescription="group mark container"><g transform="translate(0,0)"><path class="background" aria-hidden="true" d="M0,0h33v11h-33Z" pointer-events="none" opacity="1"></path><g><g class="mark-symbol role-legend-symbol" pointer-events="none"><path transform="translate(6,6)" d="M-5,0L5,0" stroke="#F6D470" stroke-width="1.5" opacity="1"></path></g><g class="mark-text role-legend-label" pointer-events="none"><text text-anchor="start" transform="translate(16,9)" font-family="sans-serif" font-size="10px" fill="#000" opacity="1">nz1</text></g></g><path class="foreground" aria-hidden="true" d="" pointer-events="none" display="none"></path></g><g transform="translate(0,13)"><path class="background" aria-hidden="true" d="M0,0h33v11h-33Z" pointer-events="none" opacity="1"></path><g><g class="mark-symbol role-legend-symbol" pointer-events="none"><path transform="translate(6,6)" d="M-5,0L5,0" stroke="#E99B53" stroke-width="1.5" opacity="1"></path></g><g class="mark-text role-legend-label" pointer-events="none"><text text-anchor="start" transform="translate(16,9)" font-family="sans-serif" font-size="10px" fill="#000" opacity="1">nz2</text></g></g><path class="foreground" aria-hidden="true" d="" pointer-events="none" display="none"></path></g><g transform="translate(0,26)"><path class="background" aria-hidden="true" d="M0,0h33v11h-33Z" pointer-events="none" opacity="1"></path><g><g class="mark-symbol role-legend-symbol" pointer-events="none"><path transform="translate(6,6)" d="M-5,0L5,0" stroke="#D4644D" stroke-width="1.5" opacity="1"></path></g><g class="mark-text role-legend-label" pointer-events="none"><text text-anchor="start" transform="translate(16,9)" font-family="sans-serif" font-size="10px" fill="#000" opacity="1">nz3</text></g></g><path class="foreground" aria-hidden="true" d="" pointer-events="none" display="none"></path></g><g transform="translate(0,39)"><path class="background" aria-hidden="true" d="M0,0h33v11h-33Z" pointer-events="none" opacity="1"></path><g><g class="mark-symbol role-legend-symbol" pointer-events="none"><path transform="translate(6,6)" d="M-5,0L5,0" stroke="#8A3F39" stroke-width="1.5" opacity="1"></path></g><g class="mark-text role-legend-label" pointer-events="none"><text text-anchor="start" transform="translate(16,9)" font-family="sans-serif" font-size="10px" fill="#000" opacity="1">nz4</text></g></g><path class="foreground" aria-hidden="true" d="" pointer-events="none" display="none"></path></g><g transform="translate(0,52)"><path class="background" aria-hidden="true" d="M0,0h33v11h-33Z" pointer-events="none" opacity="1"></path><g><g class="mark-symbol role-legend-symbol" pointer-events="none"><path transform="translate(6,6)" d="M-5,0L5,0" stroke="#3E2716" stroke-width="1.5" opacity="1"></path></g><g class="mark-text role-legend-label" pointer-events="none"><text text-anchor="start" transform="translate(16,9)" font-family="sans-serif" font-size="10px" fill="#000" opacity="1">nz5</text></g></g><path class="foreground" aria-hidden="true" d="" pointer-events="none" display="none"></path></g></g></g><path class="foreground" aria-hidden="true" d="" pointer-events="none" display="none"></path></g></g><g class="mark-text role-legend-title" pointer-events="none"><text text-anchor="start" transform="translate(0,9)" font-family="sans-serif" font-size="11px" font-weight="bold" fill="#000" opacity="1">variable</text></g></g><path class="foreground" aria-hidden="true" d="" pointer-events="none" display="none"></path></g></g></g><path class="foreground" aria-hidden="true" d="" display="none"></path></g></g></g></svg>
