<?xml version="1.0" encoding="utf-8"?>
<!DOCTYPE svg PUBLIC "-//W3C//DTD SVG 1.1//EN" "http://www.w3.org/Graphics/SVG/1.1/DTD/svg11.dtd">
<svg class="marks" width="283" height="271" viewBox="0 0 283 271" version="1.1" xmlns="http://www.w3.org/2000/svg" xmlns:xlink="http://www.w3.org/1999/xlink"><rect width="283" height="271" fill="white"></rect><g fill="none" stroke-miterlimit="10" transform="translate(43,34)"><g class="mark-group role-frame root" role="graphics-object" aria-roledescription="group mark container"><g transform="translate(0,0)"><path class="background" aria-hidden="true" d="M0.5,0.5h200v200h-200Z" stroke="#ddd"></path><g><g class="mark-group role-axis" aria-hidden="true"><g transform="translate(0.5,200.5)"><path class="background" aria-hidden="true" d="M0,0h0v0h0Z" pointer-events="none"></path><g><g class="mark-rule role-axis-grid" pointer-events="none"><line transform="translate(0,-200)" x2="0" y2="200" stroke="#ddd" stroke-width="1" opacity="1"></line><line transform="translate(30,-200)" x2="0" y2="200" stroke="#ddd" stroke-width="1" opacity="1"></line><line transform="translate(48,-200)" x2="0" y2="200" stroke="#ddd" stroke-width="1" opacity="1"></line><line transform="translate(60,-200)" x2="0" y2="200" stroke="#ddd" stroke-width="1" opacity="1"></line><line transform="translate(70,-200)" x2="0" y2="200" stroke="#ddd" stroke-width="1" opacity="1"></line><line transform="translate(78,-200)" x2="0" y2="200" stroke="#ddd" stroke-width="1" opacity="1"></line><line transform="translate(85,-200)" x2="0" y2="200" stroke="#ddd" stroke-width="1" opacity="1"></line><line transform="translate(90,-200)" x2="0" y2="200" stroke="#ddd" stroke-width="1" opacity="1"></line><line transform="translate(95,-200)" x2="0" y2="200" stroke="#ddd" stroke-width="1" opacity="1"></line><line transform="translate(100,-200)" x2="0" y2="200" stroke="#ddd" stroke-width="1" opacity="1"></line><line transform="translate(130,-200)" x2="0" y2="200" stroke="#ddd" stroke-width="1" opacity="1"></line><line transform="translate(148,-200)" x2="0" y2="200" stroke="#ddd" stroke-width="1" opacity="1"></line><line transform="translate(160,-200)" x2="0" y2="200" stroke="#ddd" stroke-width="1" opacity="1"></line><line transform="translate(170,-200)" x2="0" y2="200" stroke="#ddd" stroke-width="1" opacity="1"></line><line transform="translate(178,-200)" x2="0" y2="200" stroke="#ddd" stroke-width="1" opacity="1"></line><line transform="translate(185,-200)" x2="0" y2="200" stroke="#ddd" stroke-width="1" opacity="1"></line><line transform="translate(190,-200)" x2="0" y2="200" stroke="#ddd" stroke-width="1" opacity="1"></line><line transform="translate(195,-200)" x2="0" y2="200" stroke="#ddd" stroke-width="1" opacity="1"></line><line transform="translate(200,-200)" x2="0" y2="200" stroke="#ddd" stroke-width="1" opacity="1"></line></g></g><path class="foreground" aria-hidden="true" d="" pointer-events="none" display="none"></path></g></g><g class="mark-group role-axis" aria-hidden="true"><g transform="translate(0.5,0.5)"><path class="background" aria-hidden="true" d="M0,0h0v0h0Z" pointer-events="none"></path><g><g class="mark-rule role-axis-grid" pointer-events="none"><line transform="translate(0,200)" x2="200" y2="0" stroke="#ddd" stroke-width="1" opacity="1"></line><line transform="translate(0,160)" x2="200" y2="0" stroke="#ddd" stroke-width="1" opacity="1"></line><line transform="translate(0,120)" x2="200" y2="0" stroke="#ddd" stroke-width="1" opacity="1"></line><line transform="translate(0,80)" x2="200" y2="0" stroke="#ddd" stroke-width="1" opacity="1"></line><line transform="translate(0,40)" x2="200" y2="0" stroke="#ddd" stroke-width="1" opacity="1"></line><line transform="translate(0,0)" x2="200" y2="0" stroke="#ddd" stroke-width="1" opacity="1"></line></g></g><path class="foreground" aria-hidden="true" d="" pointer-events="none" display="none"></path></g></g><g class="mark-group role-axis" role="graphics-symbol" aria-roledescription="axis" aria-label="X-axis titled 'Regularization Parameter (位)' for a log scale with values from 0.01 to 1"><g transform="translate(0.5,200.5)"><path class="background" aria-hidden="true" d="M0,0h0v0h0Z" pointer-events="none"></path><g><g class="mark-rule role-axis-tick" pointer-events="none"><line transform="translate(0,0)" x2="0" y2="5" stroke="#888" stroke-width="1" opacity="1"></line><line transform="translate(30,0)" x2="0" y2="5" stroke="#888" stroke-width="1" opacity="1"></line><line transform="translate(48,0)" x2="0" y2="5" stroke="#888" stroke-width="1" opacity="1"></line><line transform="translate(60,0)" x2="0" y2="5" stroke="#888" stroke-width="1" opacity="1"></line><line transform="translate(70,0)" x2="0" y2="5" stroke="#888" stroke-width="1" opacity="1"></line><line transform="translate(78,0)" x2="0" y2="5" stroke="#888" stroke-width="1" opacity="1"></line><line transform="translate(85,0)" x2="0" y2="5" stroke="#888" stroke-width="1" opacity="1"></line><line transform="translate(90,0)" x2="0" y2="5" stroke="#888" stroke-width="1" opacity="1"></line><line transform="translate(95,0)" x2="0" y2="5" stroke="#888" stroke-width="1" opacity="1"></line><line transform="translate(100,0)" x2="0" y2="5" stroke="#888" stroke-width="1" opacity="1"></line><line transform="translate(130,0)" x2="0" y2="5" stroke="#888" stroke-width="1" opacity="1"></line><line transform="translate(148,0)" x2="0" y2="5" stroke="#888" stroke-width="1" opacity="1"></line><line transform="translate(160,0)" x2="0" y2="5" stroke="#888" stroke-width="1" opacity="1"></line><line transform="translate(170,0)" x2="0" y2="5" stroke="#888" stroke-width="1" opacity="1"></line><line transform="translate(178,0)" x2="0" y2="5" stroke="#888" stroke-width="1" opacity="1"></line><line transform="translate(185,0)" x2="0" y2="5" stroke="#888" stroke-width="1" opacity="1"></line><line transform="translate(190,0)" x2="0" y2="5" stroke="#888" stroke-width="1" opacity="1"></line><line transform="translate(195,0)" x2="0" y2="5" stroke="#888" stroke-width="1" opacity="1"></line><line transform="translate(200,0)" x2="0" y2="5" stroke="#888" stroke-width="1" opacity="1"></line></g><g class="mark-text role-axis-label" pointer-events="none"><text text-anchor="start" transform="translate(0,15)" font-family="sans-serif" font-size="10px" fill="#000" opacity="1">0.01</text><text text-anchor="middle" transform="translate(30.102999566398108,15)" font-family="sans-serif" font-size="10px" fill="#000" opacity="0">0.02</text><text text-anchor="middle" transform="translate(47.712125471966225,15)" font-family="sans-serif" font-size="10px" fill="#000" opacity="1">0.03</text><text text-anchor="middle" transform="translate(60.20599913279623,15)" font-family="sans-serif" font-size="10px" fill="#000" opacity="0">0.04</text><text text-anchor="middle" transform="translate(69.89700043360187,15)" font-family="sans-serif" font-size="10px" fill="#000" opacity="1">0.05</text><text text-anchor="middle" transform="translate(77.81512503836436,15)" font-family="sans-serif" font-size="10px" fill="#000" opacity="1"></text><text text-anchor="middle" transform="translate(84.50980400142568,15)" font-family="sans-serif" font-size="10px" fill="#000" opacity="1"></text><text text-anchor="middle" transform="translate(90.30899869919435,15)" font-family="sans-serif" font-size="10px" fill="#000" opacity="1"></text><text text-anchor="middle" transform="translate(95.42425094393249,15)" font-family="sans-serif" font-size="10px" fill="#000" opacity="1"></text><text text-anchor="middle" transform="translate(100,15)" font-family="sans-serif" font-size="10px" fill="#000" opacity="1">0.1</text><text text-anchor="middle" transform="translate(130.1029995663981,15)" font-family="sans-serif" font-size="10px" fill="#000" opacity="1">0.2</text><text text-anchor="middle" transform="translate(147.71212547196623,15)" font-family="sans-serif" font-size="10px" fill="#000" opacity="1">0.3</text><text text-anchor="middle" transform="translate(160.20599913279622,15)" font-family="sans-serif" font-size="10px" fill="#000" opacity="0">0.4</text><text text-anchor="middle" transform="translate(169.89700043360187,15)" font-family="sans-serif" font-size="10px" fill="#000" opacity="1">0.5</text><text text-anchor="middle" transform="translate(177.81512503836436,15)" font-family="sans-serif" font-size="10px" fill="#000" opacity="1"></text><text text-anchor="middle" transform="translate(184.50980400142566,15)" font-family="sans-serif" font-size="10px" fill="#000" opacity="1"></text><text text-anchor="middle" transform="translate(190.30899869919435,15)" font-family="sans-serif" font-size="10px" fill="#000" opacity="1"></text><text text-anchor="middle" transform="translate(195.4242509439325,15)" font-family="sans-serif" font-size="10px" fill="#000" opacity="1"></text><text text-anchor="end" transform="translate(200,15)" font-family="sans-serif" font-size="10px" fill="#000" opacity="1">1</text></g><g class="mark-rule role-axis-domain" pointer-events="none"><line transform="translate(0,0)" x2="200" y2="0" stroke="#888" stroke-width="1" opacity="1"></line></g><g class="mark-text role-axis-title" pointer-events="none"><text text-anchor="middle" transform="translate(100,30)" font-family="sans-serif" font-size="11px" font-weight="bold" fill="#000" opacity="1">Regularization Parameter (位)</text></g></g><path class="foreground" aria-hidden="true" d="" pointer-events="none" display="none"></path></g></g><g class="mark-group role-axis" role="graphics-symbol" aria-roledescription="axis" aria-label="Y-axis titled 'Model - Null Model Accuracy (logit scale)' for a linear scale with values from 0.0 to 0.5"><g transform="translate(0.5,0.5)"><path class="background" aria-hidden="true" d="M0,0h0v0h0Z" pointer-events="none"></path><g><g class="mark-rule role-axis-tick" pointer-events="none"><line transform="translate(0,200)" x2="-5" y2="0" stroke="#888" stroke-width="1" opacity="1"></line><line transform="translate(0,160)" x2="-5" y2="0" stroke="#888" stroke-width="1" opacity="1"></line><line transform="translate(0,120)" x2="-5" y2="0" stroke="#888" stroke-width="1" opacity="1"></line><line transform="translate(0,80)" x2="-5" y2="0" stroke="#888" stroke-width="1" opacity="1"></line><line transform="translate(0,40)" x2="-5" y2="0" stroke="#888" stroke-width="1" opacity="1"></line><line transform="translate(0,0)" x2="-5" y2="0" stroke="#888" stroke-width="1" opacity="1"></line></g><g class="mark-text role-axis-label" pointer-events="none"><text text-anchor="end" transform="translate(-7,203)" font-family="sans-serif" font-size="10px" fill="#000" opacity="1">0.0</text><text text-anchor="end" transform="translate(-7,163)" font-family="sans-serif" font-size="10px" fill="#000" opacity="1">0.1</text><text text-anchor="end" transform="translate(-7,123)" font-family="sans-serif" font-size="10px" fill="#000" opacity="1">0.2</text><text text-anchor="end" transform="translate(-7,83)" font-family="sans-serif" font-size="10px" fill="#000" opacity="1">0.3</text><text text-anchor="end" transform="translate(-7,42.99999999999999)" font-family="sans-serif" font-size="10px" fill="#000" opacity="1">0.4</text><text text-anchor="end" transform="translate(-7,3)" font-family="sans-serif" font-size="10px" fill="#000" opacity="1">0.5</text></g><g class="mark-rule role-axis-domain" pointer-events="none"><line transform="translate(0,200)" x2="0" y2="-200" stroke="#888" stroke-width="1" opacity="1"></line></g><g class="mark-text role-axis-title" pointer-events="none"><text text-anchor="middle" transform="translate(-26,100) rotate(-90) translate(0,-2)" font-family="sans-serif" font-size="11px" font-weight="bold" fill="#000" opacity="1">Model - Null Model Accuracy (logit scale)</text></g></g><path class="foreground" aria-hidden="true" d="" pointer-events="none" display="none"></path></g></g><g class="mark-group role-scope layer_0_pathgroup" role="graphics-object" aria-roledescription="group mark container"><g transform="translate(0,0)"><path class="background" aria-hidden="true" d="M0,0h200v200h-200Z"></path><g><g class="mark-line role-mark layer_0_marks" role="graphics-object" aria-roledescription="line mark container"><path aria-label="train_fold: 1; Regularization Parameter (位): 0.01; Model - Null Model Accuracy (logit scale): 0" role="graphics-symbol" aria-roledescription="line mark" d="M0,200L2.0202020202019937,199.99990052521815L4.0404040404040265,199.99993407204144L6.06060606060602,199.99996420359275L8.080808080808053,199.9998324262922L10.101010101010084,199.99975256713577L12.121212121212078,199.99981351951135L14.14141414141411,199.99995166208925L16.161616161616145,199.99962176439288L18.181818181818173,199.99939090125275L20.20202020202017,199.9994875026303L22.2222222222222,199.9999777208579L24.24242424242423,199.9991605933136L26.262626262626227,199.99851571996317L28.28282828282826,199.99862280727427L30.303030303030294,199.9998220872971L32.323232323232325,199.99817462752887L34.34343434343432,199.996419343384L36.36363636363633,199.99636646142528L38.383838383838366,199.99900761847442L40.40404040404037,199.9961303997228L42.42424242424241,199.9914501059024L44.44444444444442,199.990561331591L46.46464646464648,199.99625054177628L48.48484848484846,199.99206824251488L50.50505050505048,199.97980008400765L52.52525252525251,199.9758124975042L54.54545454545452,199.9877248864273L56.56565656565655,199.98450048148266L58.585858585858574,199.95281158796843L60.60606060606059,199.93877019087557L62.626262626262616,199.96276484788814L64.64646464646464,199.97192774752472L66.66666666666666,199.89116408273128L68.68686868686868,199.8468315675549L70.70707070707068,199.89248498528661L72.72727272727272,199.95590759896123L74.74747474747473,199.75299801914764L76.76767676767676,199.6225757159234L78.78787878787877,199.70325271718076L80.8080808080808,199.94773009465268L82.82828282828282,199.44412490698193L84.84848484848484,199.08284263398102L86.86868686868686,199.22521729412387L88.88888888888889,199.94017048750231L90.90909090909092,198.64914917974767L92.9292929292929,197.66100011434276L94.94949494949492,198.06342782374244L96.96969696969697,199.22056304282165L98.98989898989896,194.0314035691319L101.010101010101,187.35256523408134L103.030303030303,181.19544656327093L105.05050505050504,177.94574670478022L107.07070707070704,179.4062182746373L109.09090909090908,185.94662353188022L111.1111111111111,196.1846463655732L113.1313131313131,192.55538043214386L115.15151515151514,183.14487265407777L117.17171717171715,177.4975856246968L119.19191919191918,176.0804076101138L121.21212121212119,178.38985830035128L123.23232323232322,183.94603137896263L125.25252525252523,192.87192869354186L127.27272727272727,194.6106569579726L129.2929292929293,179.50698590340897L131.31313131313132,165.02082800860478L133.33333333333331,155.92386371218402L135.35353535353536,156.10905468140288L137.37373737373736,165.5875312158077L139.39393939393938,178.9561936425514L141.41414141414143,186.76803749349807L143.43434343434342,179.63386236003169L145.45454545454547,153.21944248441957L147.47474747474746,111.43166005040435L149.49494949494948,65.56210058605032L151.5151515151515,29.130286247603365L153.53535353535352,10.919244060864486L155.55555555555557,10.45407479584366L157.57575757575756,19.204518835410944L159.59595959595958,27.121511935574816L161.6161616161616,30.110613802428077L163.63636363636363,32.927155523788755L165.65656565656565,45.16875932397939L167.67676767676767,73.38829700986018L169.6969696969697,115.40066536565097L171.7171717171717,160.90376925049375L173.73737373737373,197.45729433899325L175.75757575757575,182.80729160362324L177.77777777777777,180.01897171227367L179.7979797979798,188.05149956876278L181.81818181818184,198.7513322607015L183.83838383838383,194.000957938507L185.85858585858585,192.36699542821182L187.87878787878788,195.04154251116557L189.89898989898987,199.14924610205182L191.91919191919192,197.8146357539304L193.93939393939394,196.92413194089545L195.959595959596,197.82951935005505L197.97979797979798,199.44439460283965L200,199.2616845211814" stroke="#4c78a8" stroke-width="2"></path></g></g><path class="foreground" aria-hidden="true" d="" display="none"></path></g><g transform="translate(0,0)"><path class="background" aria-hidden="true" d="M0,0h200v200h-200Z"></path><g><g class="mark-line role-mark layer_0_marks" role="graphics-object" aria-roledescription="line mark container"><path aria-label="train_fold: 2; Regularization Parameter (位): 0.01; Model - Null Model Accuracy (logit scale): 0" role="graphics-symbol" aria-roledescription="line mark" d="M0,200L2.0202020202019937,199.98416856120792L4.0404040404040265,199.98041802070185L6.06060606060602,199.98924797458068L8.080808080808053,199.98892528168923L10.101010101010084,199.96319440334176L12.121212121212078,199.95066230061946L14.14141414141411,199.96810079815575L16.161616161616145,199.98080696411975L18.181818181818173,199.91554593977057L20.20202020202017,199.87711464254403L22.2222222222222,199.9093105326999L24.24242424242423,199.97256177401573L26.262626262626227,199.80913672293212L28.28282828282826,199.69784540872018L30.303030303030294,199.75161069367218L32.323232323232325,199.97736968184194L34.34343434343432,199.5713518067472L36.36363636363633,199.26181688102176L38.383838383838366,199.3410829800986L40.40404040404037,199.97805859719904L42.42424242424241,198.98106165316847L44.44444444444442,198.0940415916315L46.46464646464648,198.17188176524246L48.48484848484846,199.8951046822441L50.50505050505048,196.63770691302778L52.52525252525251,192.1510221113994L54.54545454545452,188.00586251152964L56.56565656565655,185.62719153178443L58.585858585858574,185.88127501615048L60.60606060606059,188.7979623969322L62.626262626262616,193.75013894996619L64.64646464646464,199.82607481587848L66.66666666666666,193.95684004500532L68.68686868686868,188.66402638072515L70.70707070707068,185.4212834653744L72.72727272727272,185.1034546284403L74.74747474747473,187.82440499464883L76.76767676767676,192.63190109058036L78.78787878787877,197.74861956105775L80.8080808080808,198.6848344572998L82.82828282828282,197.75647088437688L84.84848484848484,199.26092925343823L86.86868686868686,198.2467257287894L88.88888888888889,196.8331097378961L90.90909090909092,198.2237967757328L92.9292929292929,197.1335493170585L94.94949494949492,190.53836050078024L96.96969696969697,184.6992286153771L98.98989898989896,182.5930838023197L101.010101010101,185.99519915485524L103.030303030303,194.43951651308282L105.05050505050504,194.78814208097575L107.07070707070704,185.5613009891041L109.09090909090908,181.24922326538524L111.1111111111111,183.2898021790907L113.1313131313131,190.67217772794578L115.15151515151514,199.46971220291766L117.17171717171715,190.4853176829693L119.19191919191918,184.70814921480567L121.21212121212119,182.49399851601248L123.23232323232322,182.23519032073375L125.25252525252523,181.35363631831217L127.27272727272727,177.69353964507354L129.2929292929293,170.3548072289575L131.31313131313132,159.34429545140745L133.33333333333331,144.48729670781296L135.35353535353536,124.94020092899021L137.37373737373736,100.30186375809365L139.39393939393938,72.78460465172536L141.41414141414143,48.54732421627901L143.43434343434342,36.469221236767524L145.45454545454547,44.35049671019442L147.47474747474746,74.4323396888083L149.49494949494948,120.76690864104211L151.5151515151515,169.98627455594448L153.53535353535352,194.6567900477163L155.55555555555557,187.34574653770989L157.57575757575756,186.23382248556854L159.59595959595958,132.656613452982L161.6161616161616,70.17258883982906L163.63636363636363,22.608279068286485L165.65656565656565,9.29146963327252L167.67676767676767,35.81108244002979L169.6969696969697,91.26934320713897L171.7171717171717,154.1720092880111L173.73737373737373,196.59753613999575L175.75757575757575,172.4202356474379L177.77777777777777,172.07747518352582L179.7979797979798,185.54997534562014L181.81818181818184,199.08847636375464L183.83838383838383,189.92942149604644L185.85858585858585,189.05441789111805L187.87878787878788,193.82211873150072L189.89898989898987,199.86367003092403L191.91919191919192,196.20266360931853L193.93939393939394,195.51279777706029L195.959595959596,197.22763088812272L197.97979797979798,199.65337582666635L200,198.63170709933593" stroke="#f58518" stroke-width="2"></path></g></g><path class="foreground" aria-hidden="true" d="" display="none"></path></g></g><g class="mark-group role-legend" role="graphics-symbol" aria-roledescription="legend" aria-label="Symbol legend titled 'train_fold' for stroke color with 2 values: 1, 2"><g transform="translate(175,0.5)"><path class="background" aria-hidden="true" d="M0,0h60v40h-60Z" pointer-events="none"></path><g><g class="mark-group role-legend-entry"><g transform="translate(0,16)"><path class="background" aria-hidden="true" d="M0,0h0v0h0Z" pointer-events="none"></path><g><g class="mark-group role-scope" role="graphics-object" aria-roledescription="group mark container"><g transform="translate(0,0)"><path class="background" aria-hidden="true" d="M0,0h22v11h-22Z" pointer-events="none" opacity="1"></path><g><g class="mark-symbol role-legend-symbol" pointer-events="none"><path transform="translate(6,6)" d="M-5,0L5,0" stroke="#4c78a8" stroke-width="1.5" opacity="1"></path></g><g class="mark-text role-legend-label" pointer-events="none"><text text-anchor="start" transform="translate(16,9)" font-family="sans-serif" font-size="10px" fill="#000" opacity="1">1</text></g></g><path class="foreground" aria-hidden="true" d="" pointer-events="none" display="none"></path></g><g transform="translate(0,13)"><path class="background" aria-hidden="true" d="M0,0h22v11h-22Z" pointer-events="none" opacity="1"></path><g><g class="mark-symbol role-legend-symbol" pointer-events="none"><path transform="translate(6,6)" d="M-5,0L5,0" stroke="#f58518" stroke-width="1.5" opacity="1"></path></g><g class="mark-text role-legend-label" pointer-events="none"><text text-anchor="start" transform="translate(16,9)" font-family="sans-serif" font-size="10px" fill="#000" opacity="1">2</text></g></g><path class="foreground" aria-hidden="true" d="" pointer-events="none" display="none"></path></g></g></g><path class="foreground" aria-hidden="true" d="" pointer-events="none" display="none"></path></g></g><g class="mark-text role-legend-title" pointer-events="none"><text text-anchor="start" transform="translate(0,9)" font-family="sans-serif" font-size="11px" font-weight="bold" fill="#000" opacity="1">train_fold</text></g></g><path class="foreground" aria-hidden="true" d="" pointer-events="none" display="none"></path></g></g></g><path class="foreground" aria-hidden="true" d="" display="none"></path></g></g></g></svg>
