<?xml version="1.0" encoding="utf-8"?>
<!DOCTYPE svg PUBLIC "-//W3C//DTD SVG 1.1//EN" "http://www.w3.org/Graphics/SVG/1.1/DTD/svg11.dtd">
<svg class="marks" width="815" height="395" viewBox="0 0 815 395" version="1.1" xmlns="http://www.w3.org/2000/svg" xmlns:xlink="http://www.w3.org/1999/xlink"><rect width="815" height="395" fill="white"></rect><g fill="none" stroke-miterlimit="10" transform="translate(54,57)"><g class="mark-group role-frame root" role="graphics-object" aria-roledescription="group mark container"><g transform="translate(0,0)"><path class="background" aria-hidden="true" d="M0,0h0v0h0Z"></path><g><g class="mark-group role-column-title column-title" role="graphics-object" aria-roledescription="group mark container"><g transform="translate(313,-31)"><path class="background" aria-hidden="true" d="M0,0h0v0h0Z"></path><g><g class="mark-group role-title"><g transform="translate(0,-21)"><path class="background" aria-hidden="true" d="M0,0h0v0h0Z" pointer-events="none"></path><g><g class="mark-text role-title-text" role="graphics-symbol" aria-roledescription="title" aria-label="Title text 'comparison'" pointer-events="none"><text text-anchor="middle" transform="translate(0,9)" font-family="sans-serif" font-size="11px" font-weight="bold" fill="#000" opacity="1">comparison</text></g></g><path class="foreground" aria-hidden="true" d="" pointer-events="none" display="none"></path></g></g></g><path class="foreground" aria-hidden="true" d="" display="none"></path></g></g><g class="mark-group role-row-header row_header" role="graphics-object" aria-roledescription="group mark container"><g transform="translate(-3,0)"><path class="background" aria-hidden="true" d="M0,0h0v300h0Z"></path><g><g class="mark-group role-axis" role="graphics-symbol" aria-roledescription="axis" aria-label="Y-axis titled 'meandiff' for a linear scale with values from -0.2 to 0.3"><g transform="translate(0.5,0.5)"><path class="background" aria-hidden="true" d="M0,0h0v0h0Z" pointer-events="none"></path><g><g class="mark-rule role-axis-tick" pointer-events="none"><line transform="translate(0,300)" x2="-5" y2="0" stroke="#888" stroke-width="1" opacity="1"></line><line transform="translate(0,267)" x2="-5" y2="0" stroke="#888" stroke-width="1" opacity="1"></line><line transform="translate(0,233)" x2="-5" y2="0" stroke="#888" stroke-width="1" opacity="1"></line><line transform="translate(0,200)" x2="-5" y2="0" stroke="#888" stroke-width="1" opacity="1"></line><line transform="translate(0,167)" x2="-5" y2="0" stroke="#888" stroke-width="1" opacity="1"></line><line transform="translate(0,133)" x2="-5" y2="0" stroke="#888" stroke-width="1" opacity="1"></line><line transform="translate(0,100)" x2="-5" y2="0" stroke="#888" stroke-width="1" opacity="1"></line><line transform="translate(0,67)" x2="-5" y2="0" stroke="#888" stroke-width="1" opacity="1"></line><line transform="translate(0,33)" x2="-5" y2="0" stroke="#888" stroke-width="1" opacity="1"></line><line transform="translate(0,0)" x2="-5" y2="0" stroke="#888" stroke-width="1" opacity="1"></line></g><g class="mark-text role-axis-label" pointer-events="none"><text text-anchor="end" transform="translate(-7,303)" font-family="sans-serif" font-size="10px" fill="#000" opacity="1">-0.20</text><text text-anchor="end" transform="translate(-7,269.66666666666663)" font-family="sans-serif" font-size="10px" fill="#000" opacity="1">-0.15</text><text text-anchor="end" transform="translate(-7,236.33333333333334)" font-family="sans-serif" font-size="10px" fill="#000" opacity="1">-0.10</text><text text-anchor="end" transform="translate(-7,203)" font-family="sans-serif" font-size="10px" fill="#000" opacity="1">-0.05</text><text text-anchor="end" transform="translate(-7,169.66666666666669)" font-family="sans-serif" font-size="10px" fill="#000" opacity="1">0.00</text><text text-anchor="end" transform="translate(-7,136.33333333333331)" font-family="sans-serif" font-size="10px" fill="#000" opacity="1">0.05</text><text text-anchor="end" transform="translate(-7,102.99999999999997)" font-family="sans-serif" font-size="10px" fill="#000" opacity="1">0.10</text><text text-anchor="end" transform="translate(-7,69.6666666666667)" font-family="sans-serif" font-size="10px" fill="#000" opacity="1">0.15</text><text text-anchor="end" transform="translate(-7,36.333333333333314)" font-family="sans-serif" font-size="10px" fill="#000" opacity="1">0.20</text><text text-anchor="end" transform="translate(-7,3)" font-family="sans-serif" font-size="10px" fill="#000" opacity="1">0.25</text></g><g class="mark-rule role-axis-domain" pointer-events="none"><line transform="translate(0,300)" x2="0" y2="-300" stroke="#888" stroke-width="1" opacity="1"></line></g><g class="mark-text role-axis-title" pointer-events="none"><text text-anchor="middle" transform="translate(-35,150) rotate(-90) translate(0,-2)" font-family="sans-serif" font-size="11px" font-weight="bold" fill="#000" opacity="1">meandiff</text></g></g><path class="foreground" aria-hidden="true" d="" pointer-events="none" display="none"></path></g></g></g><path class="foreground" aria-hidden="true" d="" display="none"></path></g></g><g class="mark-group role-column-header column_header" role="graphics-object" aria-roledescription="group mark container"><g transform="translate(0,-1)"><path class="background" aria-hidden="true" d="M0,0h300v0h-300Z"></path><g><g class="mark-group role-title"><g transform="translate(150,-20)"><path class="background" aria-hidden="true" d="M0,0h0v0h0Z" pointer-events="none"></path><g><g class="mark-text role-title-text" role="graphics-symbol" aria-roledescription="title" aria-label="Title text 'global-v-object'" pointer-events="none"><text text-anchor="middle" transform="translate(0,8)" font-family="sans-serif" font-size="10px" fill="#000" opacity="1">global-v-object</text></g></g><path class="foreground" aria-hidden="true" d="" pointer-events="none" display="none"></path></g></g></g><path class="foreground" aria-hidden="true" d="" display="none"></path></g><g transform="translate(326,-1)"><path class="background" aria-hidden="true" d="M0,0h300v0h-300Z"></path><g><g class="mark-group role-title"><g transform="translate(150,-20)"><path class="background" aria-hidden="true" d="M0,0h0v0h0Z" pointer-events="none"></path><g><g class="mark-text role-title-text" role="graphics-symbol" aria-roledescription="title" aria-label="Title text 'global-v-spatial'" pointer-events="none"><text text-anchor="middle" transform="translate(0,8)" font-family="sans-serif" font-size="10px" fill="#000" opacity="1">global-v-spatial</text></g></g><path class="foreground" aria-hidden="true" d="" pointer-events="none" display="none"></path></g></g></g><path class="foreground" aria-hidden="true" d="" display="none"></path></g></g><g class="mark-group role-column-footer column_footer" role="graphics-object" aria-roledescription="group mark container"><g transform="translate(0,301)"><path class="background" aria-hidden="true" d="M0,0h300v0h-300Z"></path><g><g class="mark-group role-axis" role="graphics-symbol" aria-roledescription="axis" aria-label="X-axis titled 'winstart' for a linear scale with values from 0.0 to 3.0"><g transform="translate(0.5,0.5)"><path class="background" aria-hidden="true" d="M0,0h0v0h0Z" pointer-events="none"></path><g><g class="mark-rule role-axis-tick" pointer-events="none"><line transform="translate(0,0)" x2="0" y2="5" stroke="#888" stroke-width="1" opacity="1"></line><line transform="translate(50,0)" x2="0" y2="5" stroke="#888" stroke-width="1" opacity="1"></line><line transform="translate(100,0)" x2="0" y2="5" stroke="#888" stroke-width="1" opacity="1"></line><line transform="translate(150,0)" x2="0" y2="5" stroke="#888" stroke-width="1" opacity="1"></line><line transform="translate(200,0)" x2="0" y2="5" stroke="#888" stroke-width="1" opacity="1"></line><line transform="translate(250,0)" x2="0" y2="5" stroke="#888" stroke-width="1" opacity="1"></line><line transform="translate(300,0)" x2="0" y2="5" stroke="#888" stroke-width="1" opacity="1"></line></g><g class="mark-text role-axis-label" pointer-events="none"><text text-anchor="start" transform="translate(0,15)" font-family="sans-serif" font-size="10px" fill="#000" opacity="1">0.0</text><text text-anchor="middle" transform="translate(50,15)" font-family="sans-serif" font-size="10px" fill="#000" opacity="1">0.5</text><text text-anchor="middle" transform="translate(100,15)" font-family="sans-serif" font-size="10px" fill="#000" opacity="1">1.0</text><text text-anchor="middle" transform="translate(150,15)" font-family="sans-serif" font-size="10px" fill="#000" opacity="1">1.5</text><text text-anchor="middle" transform="translate(200,15)" font-family="sans-serif" font-size="10px" fill="#000" opacity="1">2.0</text><text text-anchor="middle" transform="translate(250,15)" font-family="sans-serif" font-size="10px" fill="#000" opacity="1">2.5</text><text text-anchor="end" transform="translate(300,15)" font-family="sans-serif" font-size="10px" fill="#000" opacity="1">3.0</text></g><g class="mark-rule role-axis-domain" pointer-events="none"><line transform="translate(0,0)" x2="300" y2="0" stroke="#888" stroke-width="1" opacity="1"></line></g><g class="mark-text role-axis-title" pointer-events="none"><text text-anchor="middle" transform="translate(150,30)" font-family="sans-serif" font-size="11px" font-weight="bold" fill="#000" opacity="1">winstart</text></g></g><path class="foreground" aria-hidden="true" d="" pointer-events="none" display="none"></path></g></g></g><path class="foreground" aria-hidden="true" d="" display="none"></path></g><g transform="translate(326,301)"><path class="background" aria-hidden="true" d="M0,0h300v0h-300Z"></path><g><g class="mark-group role-axis" role="graphics-symbol" aria-roledescription="axis" aria-label="X-axis titled 'winstart' for a linear scale with values from 0.0 to 3.0"><g transform="translate(0.5,0.5)"><path class="background" aria-hidden="true" d="M0,0h0v0h0Z" pointer-events="none"></path><g><g class="mark-rule role-axis-tick" pointer-events="none"><line transform="translate(0,0)" x2="0" y2="5" stroke="#888" stroke-width="1" opacity="1"></line><line transform="translate(50,0)" x2="0" y2="5" stroke="#888" stroke-width="1" opacity="1"></line><line transform="translate(100,0)" x2="0" y2="5" stroke="#888" stroke-width="1" opacity="1"></line><line transform="translate(150,0)" x2="0" y2="5" stroke="#888" stroke-width="1" opacity="1"></line><line transform="translate(200,0)" x2="0" y2="5" stroke="#888" stroke-width="1" opacity="1"></line><line transform="translate(250,0)" x2="0" y2="5" stroke="#888" stroke-width="1" opacity="1"></line><line transform="translate(300,0)" x2="0" y2="5" stroke="#888" stroke-width="1" opacity="1"></line></g><g class="mark-text role-axis-label" pointer-events="none"><text text-anchor="start" transform="translate(0,15)" font-family="sans-serif" font-size="10px" fill="#000" opacity="1">0.0</text><text text-anchor="middle" transform="translate(50,15)" font-family="sans-serif" font-size="10px" fill="#000" opacity="1">0.5</text><text text-anchor="middle" transform="translate(100,15)" font-family="sans-serif" font-size="10px" fill="#000" opacity="1">1.0</text><text text-anchor="middle" transform="translate(150,15)" font-family="sans-serif" font-size="10px" fill="#000" opacity="1">1.5</text><text text-anchor="middle" transform="translate(200,15)" font-family="sans-serif" font-size="10px" fill="#000" opacity="1">2.0</text><text text-anchor="middle" transform="translate(250,15)" font-family="sans-serif" font-size="10px" fill="#000" opacity="1">2.5</text><text text-anchor="end" transform="translate(300,15)" font-family="sans-serif" font-size="10px" fill="#000" opacity="1">3.0</text></g><g class="mark-rule role-axis-domain" pointer-events="none"><line transform="translate(0,0)" x2="300" y2="0" stroke="#888" stroke-width="1" opacity="1"></line></g><g class="mark-text role-axis-title" pointer-events="none"><text text-anchor="middle" transform="translate(150,30)" font-family="sans-serif" font-size="11px" font-weight="bold" fill="#000" opacity="1">winstart</text></g></g><path class="foreground" aria-hidden="true" d="" pointer-events="none" display="none"></path></g></g></g><path class="foreground" aria-hidden="true" d="" display="none"></path></g></g><g class="mark-group role-scope cell" role="graphics-object" aria-roledescription="group mark container"><g transform="translate(0,0)"><path class="background" aria-hidden="true" d="M0.5,0.5h300v300h-300Z" stroke="#ddd"></path><g><g class="mark-group role-axis" aria-hidden="true"><g transform="translate(0.5,300.5)"><path class="background" aria-hidden="true" d="M0,0h0v0h0Z" pointer-events="none"></path><g><g class="mark-rule role-axis-grid" pointer-events="none"><line transform="translate(0,-300)" x2="0" y2="300" stroke="#ddd" stroke-width="1" opacity="1"></line><line transform="translate(50,-300)" x2="0" y2="300" stroke="#ddd" stroke-width="1" opacity="1"></line><line transform="translate(100,-300)" x2="0" y2="300" stroke="#ddd" stroke-width="1" opacity="1"></line><line transform="translate(150,-300)" x2="0" y2="300" stroke="#ddd" stroke-width="1" opacity="1"></line><line transform="translate(200,-300)" x2="0" y2="300" stroke="#ddd" stroke-width="1" opacity="1"></line><line transform="translate(250,-300)" x2="0" y2="300" stroke="#ddd" stroke-width="1" opacity="1"></line><line transform="translate(300,-300)" x2="0" y2="300" stroke="#ddd" stroke-width="1" opacity="1"></line></g></g><path class="foreground" aria-hidden="true" d="" pointer-events="none" display="none"></path></g></g><g class="mark-group role-axis" aria-hidden="true"><g transform="translate(0.5,0.5)"><path class="background" aria-hidden="true" d="M0,0h0v0h0Z" pointer-events="none"></path><g><g class="mark-rule role-axis-grid" pointer-events="none"><line transform="translate(0,300)" x2="300" y2="0" stroke="#ddd" stroke-width="1" opacity="1"></line><line transform="translate(0,267)" x2="300" y2="0" stroke="#ddd" stroke-width="1" opacity="1"></line><line transform="translate(0,233)" x2="300" y2="0" stroke="#ddd" stroke-width="1" opacity="1"></line><line transform="translate(0,200)" x2="300" y2="0" stroke="#ddd" stroke-width="1" opacity="1"></line><line transform="translate(0,167)" x2="300" y2="0" stroke="#ddd" stroke-width="1" opacity="1"></line><line transform="translate(0,133)" x2="300" y2="0" stroke="#ddd" stroke-width="1" opacity="1"></line><line transform="translate(0,100)" x2="300" y2="0" stroke="#ddd" stroke-width="1" opacity="1"></line><line transform="translate(0,67)" x2="300" y2="0" stroke="#ddd" stroke-width="1" opacity="1"></line><line transform="translate(0,33)" x2="300" y2="0" stroke="#ddd" stroke-width="1" opacity="1"></line><line transform="translate(0,0)" x2="300" y2="0" stroke="#ddd" stroke-width="1" opacity="1"></line></g></g><path class="foreground" aria-hidden="true" d="" pointer-events="none" display="none"></path></g></g><g class="mark-group role-scope child_layer_0_pathgroup" role="graphics-object" aria-roledescription="group mark container"><g transform="translate(0,0)"><path class="background" aria-hidden="true" d="M0,0h300v300h-300Z"></path><g><g class="mark-line role-mark child_layer_0_marks" role="graphics-object" aria-roledescription="line mark container"><path aria-label="salience_target_time: lowlate; winstart: 0; Mean of meandiff: 0.140900881526" role="graphics-symbol" aria-roledescription="line mark" d="M0,72.73274564941228L9.67741935483871,59.25188192345055L19.35483870967742,44.48634607948334L29.03225806451613,46.156643828212495L38.70967741935484,42.63300092548461L48.387096774193544,47.5832877180917L58.06451612903226,55.2109768408788L67.74193548387096,47.45684825341689L77.41935483870968,39.83903260864046L87.0967741935484,50.803819758068144L96.77419354838709,53.37436256553904L106.4516129032258,65.60344611815201L116.12903225806453,69.55012580012578L125.80645161290323,64.22773169096698L135.48387096774192,66.07489732489734L145.16129032258064,65.4893331976665L154.83870967741936,54.636288275994126L164.51612903225808,69.09674045090715L174.1935483870968,77.4711592419926L183.8709677419355,99.4100421183755L193.54838709677418,91.72721568554903L203.2258064516129,119.51732680899347L212.9032258064516,138.6106177772844L222.58064516129028,122.03013036346371L232.25806451612905,149.60403536792427L241.93548387096777,160.21574875741544L251.61290322580646,178.64558281224947L261.2903225806452,199.7895622895623L270.96774193548384,178.0019106407995L280.6451612903226,159.19679600235153L290.3225806451613,201.43298059964727L300,216.04938271604937" stroke="#33a02c" stroke-width="2"></path></g></g><path class="foreground" aria-hidden="true" d="" display="none"></path></g><g transform="translate(0,0)"><path class="background" aria-hidden="true" d="M0,0h300v300h-300Z"></path><g><g class="mark-line role-mark child_layer_0_marks" role="graphics-object" aria-roledescription="line mark container"><path aria-label="salience_target_time: highlate; winstart: 0; Mean of meandiff: -0.0124689353856" role="graphics-symbol" aria-roledescription="line mark" d="M0,174.97929025706802L9.67741935483871,150.00033402811178L19.35483870967742,185.1770014964459L29.03225806451613,154.34436962214738L38.70967741935484,185.1137031692587L48.387096774193544,199.0420073753407L58.06451612903226,193.6668270001603L67.74193548387096,184.7322430655764L77.41935483870968,160.67687456576343L87.0967741935484,178.47522847522842L96.77419354838709,182.52164502164499L106.4516129032258,191.09815082037304L116.12903225806453,221.72735957458178L125.80645161290323,189.16947250280583L135.48387096774192,168.5545935545935L145.16129032258064,174.73912404467956L154.83870967741936,232.71070493292711L164.51612903225808,214.25097536208642L174.1935483870968,212.38258911870017L183.8709677419355,223.64267676767673L193.54838709677418,248.9271017048795L203.2258064516129,242.13631019186573L212.9032258064516,235.5005077227299L222.58064516129028,232.62218748329855L232.25806451612905,244.3452380952381L241.93548387096777,200.08818342151673L251.61290322580646,136.48589065255732L261.2903225806452,179.86845972957084L270.96774193548384,188.92563198118754L280.6451612903226,167.35376249265138L290.3225806451613,122.3655202821869L300,151.86287477954141" stroke="#1f78b4" stroke-width="2"></path></g></g><path class="foreground" aria-hidden="true" d="" display="none"></path></g><g transform="translate(0,0)"><path class="background" aria-hidden="true" d="M0,0h300v300h-300Z"></path><g><g class="mark-line role-mark child_layer_0_marks" role="graphics-object" aria-roledescription="line mark container"><path aria-label="salience_target_time: highearly; winstart: 0; Mean of meandiff: 0.109056510619" role="graphics-symbol" aria-roledescription="line mark" d="M0,93.96232625399291L9.67741935483871,81.93132741743851L19.35483870967742,81.98980803147465L29.03225806451613,108.5093019120797L38.70967741935484,98.05713833491613L48.387096774193544,98.65612782279449L58.06451612903226,113.76858737969849L67.74193548387096,104.63790324901436L77.41935483870968,84.25843703621481L87.0967741935484,96.2948574059685L96.77419354838709,44.361348528015164L106.4516129032258,66.37076914854694L116.12903225806453,58.27922077922077L125.80645161290323,88.36019947131057L135.48387096774192,65.7079545968435L145.16129032258064,82.49718388607279L154.83870967741936,99.21025476581032L164.51612903225808,85.41021735466182L174.1935483870968,94.36253047364163L183.8709677419355,65.89264644820202L193.54838709677418,67.8339150561373L203.2258064516129,76.87410326299215L212.9032258064516,78.89769695325246L222.58064516129028,73.76913210246543L232.25806451612905,68.98744259855371L241.93548387096777,88.36811336811337L251.61290322580646,100.41964208630874L261.2903225806452,118.52959283514836L270.96774193548384,114.01183692850361L280.6451612903226,83.43616260282931L290.3225806451613,75.3934594212372L300,80.59805420916533" stroke="#a6cee3" stroke-width="2"></path></g></g><path class="foreground" aria-hidden="true" d="" display="none"></path></g><g transform="translate(0,0)"><path class="background" aria-hidden="true" d="M0,0h300v300h-300Z"></path><g><g class="mark-line role-mark child_layer_0_marks" role="graphics-object" aria-roledescription="line mark container"><path aria-label="salience_target_time: lowearly; winstart: 0; Mean of meandiff: 0.0389284712201" role="graphics-symbol" aria-roledescription="line mark" d="M0,140.71435251990806L9.67741935483871,134.73992571214794L19.35483870967742,120.7428117150339L29.03225806451613,172.59733579178024L38.70967741935484,167.88019079685745L48.387096774193544,174.89294399016617L58.06451612903226,206.21258885147773L67.74193548387096,191.65430762652983L77.41935483870968,183.73349901127676L87.0967741935484,155.91329966329968L96.77419354838709,164.7067567206456L106.4516129032258,168.9589345839346L116.12903225806453,195.60251990807544L125.80645161290323,156.3259913954358L135.48387096774192,133.27320827320827L145.16129032258064,154.35439046550155L154.83870967741936,142.72236251402916L164.51612903225808,165.8528071722516L174.1935483870968,119.71851451018118L183.8709677419355,141.91418149751485L193.54838709677418,120.05905617016728L203.2258064516129,143.1509205814761L212.9032258064516,151.54170675004005L222.58064516129028,168.03467879856765L232.25806451612905,123.2607156218267L241.93548387096777,124.2287290898402L251.61290322580646,131.5853642242531L261.2903225806452,151.66078777189887L270.96774193548384,158.88447971781306L280.6451612903226,169.6061140505585L290.3225806451613,195.45120517342738L300,192.48236331569666" stroke="#b2df8a" stroke-width="2"></path></g></g><path class="foreground" aria-hidden="true" d="" display="none"></path></g></g><g class="mark-group role-scope child_layer_1_layer_0_pathgroup" role="graphics-object" aria-roledescription="group mark container"><g transform="translate(0,0)"><path class="background" aria-hidden="true" d="M0,0h300v300h-300Z"></path><g><g class="mark-area role-mark child_layer_1_layer_0_marks" role="graphics-object" aria-roledescription="area mark container"><path aria-label="meandiff: 0.112614536614; upper_meandiff: 0.169187226438; salience_target_time: lowlate; winstart: 0; Mean of meandiff: 0.140900881526; Mean + stderr of meandiff: 0.169187226438; Mean - stderr of meandiff: 0.112614536614" role="graphics-symbol" aria-roledescription="errorband" d="M0,91.59030892408538L9.67741935483871,75.65677806762297L19.35483870967742,61.452307624018964L29.03225806451613,63.89149094992298L38.70967741935484,59.80645523227876L48.387096774193544,64.38078676379025L58.06451612903226,72.04442871331896L67.74193548387096,64.43562849746257L77.41935483870968,56.810988188236244L87.0967741935484,65.96338032956236L96.77419354838709,71.46389889820338L106.4516129032258,87.3074920012822L116.12903225806453,93.91487248577354L125.80645161290323,81.40116963674238L135.48387096774192,84.35280707397939L145.16129032258064,83.03856700313405L154.83870967741936,73.69698737178186L164.51612903225808,84.81332073875866L174.1935483870968,92.38191403621211L183.8709677419355,119.51906711666638L193.54838709677418,105.49684491432262L203.2258064516129,135.03743405473338L212.9032258064516,166.62284063086958L222.58064516129028,144.1670365067054L232.25806451612905,174.42544920343573L241.93548387096777,191.14568164755934L251.61290322580646,204.05263208667338L261.2903225806452,226.48886697410046L270.96774193548384,195.3009453681166L280.6451612903226,189.94618009413304L290.3225806451613,242.80761528670155L300,262.62218377019684L300,169.47658166190195L290.3225806451613,160.058345912593L280.6451612903226,128.44741191057005L270.96774193548384,160.70287591348244L261.2903225806452,173.09025760502414L251.61290322580646,153.23853353782556L241.93548387096777,129.28581586727148L232.25806451612905,124.78262153241276L222.58064516129028,99.89322422022204L212.9032258064516,110.5983949236993L203.2258064516129,103.99721956325362L193.54838709677418,77.95758645677546L183.8709677419355,79.30101712008455L174.1935483870968,62.560404447773074L164.51612903225808,53.38016016305567L154.83870967741936,35.575589180206435L145.16129032258064,47.94009939219899L135.48387096774192,47.79698757581523L125.80645161290323,47.054293745191615L116.12903225806453,45.18537911447807L106.4516129032258,43.899400235021815L96.77419354838709,35.284826232874686L87.0967741935484,35.64425918657387L77.41935483870968,22.8670770290447L67.74193548387096,30.478068009371228L58.06451612903226,38.377524968438706L48.387096774193544,30.785788672393096L38.70967741935484,25.459546618690403L29.03225806451613,28.421796706502008L19.35483870967742,27.520384534947688L9.67741935483871,42.84698577927812L0,53.875182374739175Z" fill="#33a02c" opacity="0.3"></path></g></g><path class="foreground" aria-hidden="true" d="" display="none"></path></g><g transform="translate(0,0)"><path class="background" aria-hidden="true" d="M0,0h300v300h-300Z"></path><g><g class="mark-area role-mark child_layer_1_layer_0_marks" role="graphics-object" aria-roledescription="area mark container"><path aria-label="meandiff: -0.0535558798591; upper_meandiff: 0.0286180090879; salience_target_time: highlate; winstart: 0; Mean of meandiff: -0.0124689353856; Mean + stderr of meandiff: 0.0286180090879; Mean - stderr of meandiff: -0.0535558798591" role="graphics-symbol" aria-roledescription="errorband" d="M0,202.37058657276606L9.67741935483871,175.60884146379573L19.35483870967742,207.79162572252054L29.03225806451613,179.21120772093826L38.70967741935484,209.83702333051525L48.387096774193544,222.92160261828454L58.06451612903226,217.9848758322344L67.74193548387096,205.36548892745344L77.41935483870968,182.40266375868578L87.0967741935484,197.52798964410067L96.77419354838709,199.50631217162223L106.4516129032258,208.86621092296335L116.12903225806453,243.56851617141905L125.80645161290323,206.31940255740304L135.48387096774192,187.28282541333715L145.16129032258064,197.13987405498705L154.83870967741936,256.21814664172416L164.51612903225808,237.85260943876128L174.1935483870968,230.56286130617985L183.8709677419355,246.37646030581072L193.54838709677418,270.5751087618685L203.2258064516129,273.38221036026124L212.9032258064516,266.2260225208325L222.58064516129028,266.68755123323336L232.25806451612905,275.816387354511L241.93548387096777,221.5525312562009L251.61290322580646,162.64785202567853L261.2903225806452,203.48110312046015L270.96774193548384,216.66632388418884L280.6451612903226,187.63354118763255L290.3225806451613,147.3926937754037L300,175.3099542079773L300,128.4157953511056L290.3225806451613,97.33834678897017L280.6451612903226,147.07398379767017L270.96774193548384,161.18494007818626L261.2903225806452,156.25581633868146L251.61290322580646,110.32392927943613L241.93548387096777,178.6238355868326L232.25806451612905,212.87408883596518L222.58064516129028,198.55682373336373L212.9032258064516,204.77499292462736L203.2258064516129,210.8904100234702L193.54838709677418,227.27909464789047L183.8709677419355,200.90889322954277L174.1935483870968,194.20231693122054L164.51612903225808,190.64934128541162L154.83870967741936,209.20326322413004L145.16129032258064,152.33837403437207L135.48387096774192,149.8263616958499L125.80645161290323,172.0195424482086L116.12903225806453,199.8862029777445L106.4516129032258,173.33009071778272L96.77419354838709,165.53697787166777L87.0967741935484,159.42246730635625L77.41935483870968,138.95108537284108L67.74193548387096,164.09899720369933L58.06451612903226,169.34877816808623L48.387096774193544,175.1624121323968L38.70967741935484,160.39038300800217L29.03225806451613,129.4775315233565L19.35483870967742,162.5623772703713L9.67741935483871,124.39182659242783L0,147.58799394136994Z" fill="#1f78b4" opacity="0.3"></path></g></g><path class="foreground" aria-hidden="true" d="" display="none"></path></g><g transform="translate(0,0)"><path class="background" aria-hidden="true" d="M0,0h300v300h-300Z"></path><g><g class="mark-area role-mark child_layer_1_layer_0_marks" role="graphics-object" aria-roledescription="area mark container"><path aria-label="meandiff: 0.0756234918412; upper_meandiff: 0.142489529397; salience_target_time: highearly; winstart: 0; Mean of meandiff: 0.109056510619; Mean + stderr of meandiff: 0.142489529397; Mean - stderr of meandiff: 0.0756234918412" role="graphics-symbol" aria-roledescription="errorband" d="M0,116.2510054391799L9.67741935483871,99.93934193327887L19.35483870967742,101.76808669532585L29.03225806451613,129.4470693739678L38.70967741935484,117.12716619455043L48.387096774193544,119.71720706240315L58.06451612903226,134.42460939553365L67.74193548387096,125.88808130929021L77.41935483870968,105.90769007015562L87.0967741935484,121.07395402643097L96.77419354838709,67.96907854691904L106.4516129032258,89.44648343607625L116.12903225806453,82.02012501614323L125.80645161290323,114.3485040219422L135.48387096774192,89.94928515113278L145.16129032258064,106.71233008523447L154.83870967741936,120.10166229057455L164.51612903225808,109.47453203543243L174.1935483870968,118.65184221616568L183.8709677419355,91.13925954980913L193.54838709677418,89.58159184322203L203.2258064516129,99.00351781421425L212.9032258064516,103.20467302710674L222.58064516129028,99.21648041670575L232.25806451612905,92.05738421588717L241.93548387096777,113.69163703317719L251.61290322580646,121.57525089235882L261.2903225806452,141.32691580205432L270.96774193548384,137.49996077678247L280.6451612903226,110.66695163482768L290.3225806451613,110.83377114325648L300,108.48008781034174L300,52.71602060798888L290.3225806451613,39.95314769921791L280.6451612903226,56.20537357083091L270.96774193548384,90.52371308022474L261.2903225806452,95.73226986824245L251.61290322580646,79.26403328025867L241.93548387096777,63.04458970304957L232.25806451612905,45.91750098122026L222.58064516129028,48.32178378822507L212.9032258064516,54.590720879398226L203.2258064516129,54.74468871177004L193.54838709677418,46.086238269052515L183.8709677419355,40.646033346594876L174.1935483870968,70.07321873111752L164.51612903225808,61.345902673891175L154.83870967741936,78.31884724104611L145.16129032258064,58.28203768691108L135.48387096774192,41.466624042554166L125.80645161290323,62.371894920679L116.12903225806453,34.538316542298354L106.4516129032258,43.295054861017555L96.77419354838709,20.753618509111362L87.0967741935484,71.51576078550612L77.41935483870968,62.60918400227404L67.74193548387096,83.38772518873851L58.06451612903226,93.11256536386331L48.387096774193544,77.59504858318581L38.70967741935484,78.98711047528177L29.03225806451613,87.57153445019162L19.35483870967742,62.21152936762352L9.67741935483871,63.92331290159817L0,71.67364706880592Z" fill="#a6cee3" opacity="0.3"></path></g></g><path class="foreground" aria-hidden="true" d="" display="none"></path></g><g transform="translate(0,0)"><path class="background" aria-hidden="true" d="M0,0h300v300h-300Z"></path><g><g class="mark-area role-mark child_layer_1_layer_0_marks" role="graphics-object" aria-roledescription="area mark container"><path aria-label="meandiff: 0.00157243922783; upper_meandiff: 0.0762845032124; salience_target_time: lowearly; winstart: 0; Mean of meandiff: 0.0389284712201; Mean + stderr of meandiff: 0.0762845032124; Mean - stderr of meandiff: 0.00157243922783" role="graphics-symbol" aria-roledescription="errorband" d="M0,165.61837384811517L9.67741935483871,161.2906567108359L19.35483870967742,146.64413002528786L29.03225806451613,201.1497733381881L38.70967741935484,192.84650412714427L48.387096774193544,196.80537732011783L58.06451612903226,227.99072825152834L67.74193548387096,214.41574343666707L77.41935483870968,205.1386748850417L87.0967741935484,178.20311336964878L96.77419354838709,182.19662988690962L106.4516129032258,186.56310934560412L116.12903225806453,218.52271092932298L125.80645161290323,180.4975083090616L135.48387096774192,153.69315787612786L145.16129032258064,178.50777352313185L154.83870967741936,169.1091287788714L164.51612903225808,191.55948457715448L174.1935483870968,151.25528511611458L183.8709677419355,171.48939266736724L193.54838709677418,144.1967277653345L203.2258064516129,167.67417571203987L212.9032258064516,184.0693013482156L222.58064516129028,192.43344892656208L232.25806451612905,153.39565677452208L241.93548387096777,155.49236260209344L251.61290322580646,162.08048226244497L261.2903225806452,171.49007444476433L270.96774193548384,182.43901329139254L280.6451612903226,191.3681074913829L290.3225806451613,223.67387358273564L300,224.2493650911258L300,160.71536154026748L290.3225806451613,167.2285367641191L280.6451612903226,147.8441206097341L270.96774193548384,135.32994614423356L261.2903225806452,131.83150109903343L251.61290322580646,101.09024618606126L241.93548387096777,92.965095577587L232.25806451612905,93.1257744691314L222.58064516129028,143.6359086705733L212.9032258064516,119.01411215186457L203.2258064516129,118.62766545091237L193.54838709677418,95.92138457500012L183.8709677419355,112.33897032766245L174.1935483870968,88.1817439042478L164.51612903225808,140.1461297673487L154.83870967741936,116.3355962491869L145.16129032258064,130.20100740787126L135.48387096774192,112.85325867028867L125.80645161290323,132.15447448181007L116.12903225806453,172.68232888682795L106.4516129032258,151.354759822265L96.77419354838709,147.2168835543816L87.0967741935484,133.62348595695056L77.41935483870968,162.32832313751183L67.74193548387096,168.89287181639264L58.06451612903226,184.4344494514271L48.387096774193544,152.98051066021458L38.70967741935484,142.9138774665706L29.03225806451613,144.04489824537234L19.35483870967742,94.84149340477995L9.67741935483871,108.18919471345995L0,115.81033119170097Z" fill="#b2df8a" opacity="0.3"></path></g></g><path class="foreground" aria-hidden="true" d="" display="none"></path></g></g></g><path class="foreground" aria-hidden="true" d="" display="none"></path></g><g transform="translate(326,0)"><path class="background" aria-hidden="true" d="M0.5,0.5h300v300h-300Z" stroke="#ddd"></path><g><g class="mark-group role-axis" aria-hidden="true"><g transform="translate(0.5,300.5)"><path class="background" aria-hidden="true" d="M0,0h0v0h0Z" pointer-events="none"></path><g><g class="mark-rule role-axis-grid" pointer-events="none"><line transform="translate(0,-300)" x2="0" y2="300" stroke="#ddd" stroke-width="1" opacity="1"></line><line transform="translate(50,-300)" x2="0" y2="300" stroke="#ddd" stroke-width="1" opacity="1"></line><line transform="translate(100,-300)" x2="0" y2="300" stroke="#ddd" stroke-width="1" opacity="1"></line><line transform="translate(150,-300)" x2="0" y2="300" stroke="#ddd" stroke-width="1" opacity="1"></line><line transform="translate(200,-300)" x2="0" y2="300" stroke="#ddd" stroke-width="1" opacity="1"></line><line transform="translate(250,-300)" x2="0" y2="300" stroke="#ddd" stroke-width="1" opacity="1"></line><line transform="translate(300,-300)" x2="0" y2="300" stroke="#ddd" stroke-width="1" opacity="1"></line></g></g><path class="foreground" aria-hidden="true" d="" pointer-events="none" display="none"></path></g></g><g class="mark-group role-axis" aria-hidden="true"><g transform="translate(0.5,0.5)"><path class="background" aria-hidden="true" d="M0,0h0v0h0Z" pointer-events="none"></path><g><g class="mark-rule role-axis-grid" pointer-events="none"><line transform="translate(0,300)" x2="300" y2="0" stroke="#ddd" stroke-width="1" opacity="1"></line><line transform="translate(0,267)" x2="300" y2="0" stroke="#ddd" stroke-width="1" opacity="1"></line><line transform="translate(0,233)" x2="300" y2="0" stroke="#ddd" stroke-width="1" opacity="1"></line><line transform="translate(0,200)" x2="300" y2="0" stroke="#ddd" stroke-width="1" opacity="1"></line><line transform="translate(0,167)" x2="300" y2="0" stroke="#ddd" stroke-width="1" opacity="1"></line><line transform="translate(0,133)" x2="300" y2="0" stroke="#ddd" stroke-width="1" opacity="1"></line><line transform="translate(0,100)" x2="300" y2="0" stroke="#ddd" stroke-width="1" opacity="1"></line><line transform="translate(0,67)" x2="300" y2="0" stroke="#ddd" stroke-width="1" opacity="1"></line><line transform="translate(0,33)" x2="300" y2="0" stroke="#ddd" stroke-width="1" opacity="1"></line><line transform="translate(0,0)" x2="300" y2="0" stroke="#ddd" stroke-width="1" opacity="1"></line></g></g><path class="foreground" aria-hidden="true" d="" pointer-events="none" display="none"></path></g></g><g class="mark-group role-scope child_layer_0_pathgroup" role="graphics-object" aria-roledescription="group mark container"><g transform="translate(0,0)"><path class="background" aria-hidden="true" d="M0,0h300v300h-300Z"></path><g><g class="mark-line role-mark child_layer_0_marks" role="graphics-object" aria-roledescription="line mark container"><path aria-label="salience_target_time: lowlate; winstart: 0; Mean of meandiff: 0.040336977837" role="graphics-symbol" aria-roledescription="line mark" d="M0,139.77534810868144L9.67741935483871,140.6854462410018L19.35483870967742,140.88329366107146L29.03225806451613,141.40334973668308L38.70967741935484,141.12019667575223L48.387096774193544,141.92032247587804L58.06451612903226,137.3641790308457L67.74193548387096,140.74865463754352L77.41935483870968,131.66488860933302L87.0967741935484,136.76292842959512L96.77419354838709,134.70531526087083L106.4516129032258,138.6026524915414L116.12903225806453,137.45513745513745L125.80645161290323,138.80049991161104L135.48387096774192,138.1673881673882L145.16129032258064,136.81123403345623L154.83870967741936,136.71770616215062L164.51612903225808,138.7018331462776L174.1935483870968,137.0183314627759L183.8709677419355,135.12105178771847L193.54838709677418,139.44337555448666L203.2258064516129,144.7410614077281L212.9032258064516,135.72196836085726L222.58064516129028,140.63685799796912L232.25806451612905,163.7125220458554L241.93548387096777,117.26741622574956L251.61290322580646,131.21392496392494L261.2903225806452,94.56269039602371L270.96774193548384,147.68518518518516L280.6451612903226,93.14373897707229L290.3225806451613,100.92592592592594L300,166.66666666666669" stroke="#33a02c" stroke-width="2"></path></g></g><path class="foreground" aria-hidden="true" d="" display="none"></path></g><g transform="translate(0,0)"><path class="background" aria-hidden="true" d="M0,0h300v300h-300Z"></path><g><g class="mark-line role-mark child_layer_0_marks" role="graphics-object" aria-roledescription="line mark container"><path aria-label="salience_target_time: highlate; winstart: 0; Mean of meandiff: 0.0916501322751" role="graphics-symbol" aria-roledescription="line mark" d="M0,105.56657848324514L9.67741935483871,110.46075837742505L19.35483870967742,109.77733686067018L29.03225806451613,113.20546737213402L38.70967741935484,122.6521164021164L48.387096774193544,123.85361552028218L58.06451612903226,129.51940035273367L67.74193548387096,138.35978835978835L77.41935483870968,119.84126984126982L87.0967741935484,131.83421516754848L96.77419354838709,125.55114638447974L106.4516129032258,125.04409171075837L116.12903225806453,142.86816578483243L125.80645161290323,134.1159611992945L135.48387096774192,140.16754850088182L145.16129032258064,131.02954144620813L154.83870967741936,140.77380952380952L164.51612903225808,126.03615520282185L174.1935483870968,130.74294532627866L183.8709677419355,128.3179012345679L193.54838709677418,118.1216931216931L203.2258064516129,117.46031746031746L212.9032258064516,118.1216931216931L222.58064516129028,133.63095238095238L232.25806451612905,166.66666666666669L241.93548387096777,182.09876543209876L251.61290322580646,148.76543209876544L261.2903225806452,137.6543209876543L270.96774193548384,141.66666666666666L280.6451612903226,157.40740740740742L290.3225806451613,165.12345679012344L300,166.66666666666669" stroke="#1f78b4" stroke-width="2"></path></g></g><path class="foreground" aria-hidden="true" d="" display="none"></path></g><g transform="translate(0,0)"><path class="background" aria-hidden="true" d="M0,0h300v300h-300Z"></path><g><g class="mark-line role-mark child_layer_0_marks" role="graphics-object" aria-roledescription="line mark container"><path aria-label="salience_target_time: highearly; winstart: 0; Mean of meandiff: 0.132803171774" role="graphics-symbol" aria-roledescription="line mark" d="M0,78.13121881749329L9.67741935483871,74.8293282607008L19.35483870967742,67.40904112227642L29.03225806451613,68.77052685876221L38.70967741935484,62.2521609653963L48.387096774193544,71.8105492002551L58.06451612903226,77.57739718524029L67.74193548387096,64.90515657182326L77.41935483870968,61.85999911490112L87.0967741935484,57.885261071535574L96.77419354838709,59.538700224974725L106.4516129032258,48.95668964296414L116.12903225806453,48.656064342338865L125.80645161290323,54.13746565707348L135.48387096774192,57.2238854101599L145.16129032258064,51.865046717987894L154.83870967741936,49.94875313502766L164.51612903225808,53.556256742531275L174.1935483870968,45.361519381127245L183.8709677419355,47.12056280683738L193.54838709677418,45.72612391239848L203.2258064516129,49.04271472898923L212.9032258064516,47.3252963449042L222.58064516129028,55.17346669307456L232.25806451612905,54.42735369205952L241.93548387096777,66.82766217079941L251.61290322580646,57.94919495899889L261.2903225806452,60.28640930601718L270.96774193548384,63.95131738268995L280.6451612903226,63.91545092525486L290.3225806451613,67.6179825076884L300,74.06620249757509" stroke="#a6cee3" stroke-width="2"></path></g></g><path class="foreground" aria-hidden="true" d="" display="none"></path></g><g transform="translate(0,0)"><path class="background" aria-hidden="true" d="M0,0h300v300h-300Z"></path><g><g class="mark-line role-mark child_layer_0_marks" role="graphics-object" aria-roledescription="line mark container"><path aria-label="salience_target_time: lowearly; winstart: 0; Mean of meandiff: 0.0545772707231" role="graphics-symbol" aria-roledescription="line mark" d="M0,130.2818195179306L9.67741935483871,132.94201940035268L19.35483870967742,121.33487654320983L29.03225806451613,137.82517636684304L38.70967741935484,175.50521751910642L48.387096774193544,147.90380658436212L58.06451612903226,152.32400058788943L67.74193548387096,189.8478835978836L77.41935483870968,162.7186213991769L87.0967741935484,147.24426807760142L96.77419354838709,172.31407995296885L106.4516129032258,161.73941798941797L116.12903225806453,181.9609788359788L125.80645161290323,181.49250440917103L135.48387096774192,181.94995590828924L145.16129032258064,160.55445326278658L154.83870967741936,157.57275132275132L164.51612903225808,168.12720458553792L174.1935483870968,185.27336860670195L183.8709677419355,176.89594356261023L193.54838709677418,129.13359788359784L203.2258064516129,113.41857730746618L212.9032258064516,145.5871546149324L222.58064516129028,119.13580246913581L232.25806451612905,109.9096119929453L241.93548387096777,136.48037918871253L251.61290322580646,135.53975602586712L261.2903225806452,191.8320105820106L270.96774193548384,217.5374779541446L280.6451612903226,205.5776014109347L290.3225806451613,211.36463844797174L300,203.3289241622575" stroke="#b2df8a" stroke-width="2"></path></g></g><path class="foreground" aria-hidden="true" d="" display="none"></path></g></g><g class="mark-group role-scope child_layer_1_layer_0_pathgroup" role="graphics-object" aria-roledescription="group mark container"><g transform="translate(0,0)"><path class="background" aria-hidden="true" d="M0,0h300v300h-300Z"></path><g><g class="mark-area role-mark child_layer_1_layer_0_marks" role="graphics-object" aria-roledescription="area mark container"><path aria-label="meandiff: 0.0276217380773; upper_meandiff: 0.0530522175967; salience_target_time: lowlate; winstart: 0; Mean of meandiff: 0.040336977837; Mean + stderr of meandiff: 0.0530522175967; Mean - stderr of meandiff: 0.0276217380773" role="graphics-symbol" aria-roledescription="errorband" d="M0,148.25217461514225L9.67741935483871,148.52893135749875L19.35483870967742,148.70670818100652L29.03225806451613,149.39048514872766L38.70967741935484,149.387453497839L48.387096774193544,149.6191630236706L58.06451612903226,146.8150260784627L67.74193548387096,147.40523601742606L77.41935483870968,140.68753285290413L87.0967741935484,145.72589069734286L96.77419354838709,144.32152805234162L106.4516129032258,147.5438924151947L116.12903225806453,147.208454214653L125.80645161290323,148.057710906303L135.48387096774192,147.98497367085085L145.16129032258064,146.64590866986518L154.83870967741936,146.96636145698642L164.51612903225808,147.74146901761443L174.1935483870968,146.42900928474253L183.8709677419355,144.817743218066L193.54838709677418,148.67452058849702L203.2258064516129,152.90560023072405L212.9032258064516,146.1689076909991L222.58064516129028,150.32261042352118L232.25806451612905,195.57470375607636L241.93548387096777,138.3005713171778L251.61290322580646,165.36919903424715L261.2903225806452,113.16187748082557L270.96774193548384,175.63358984084957L280.6451612903226,114.95638043097858L290.3225806451613,121.5608281278489L300,166.66666666666669L300,166.66666666666669L290.3225806451613,80.29102372400298L280.6451612903226,71.33109752316602L270.96774193548384,119.73678052952079L261.2903225806452,75.96350331122188L251.61290322580646,97.05865089360277L241.93548387096777,96.23426113432132L232.25806451612905,131.85034033563437L222.58064516129028,130.95110557241702L212.9032258064516,125.27502903071543L203.2258064516129,136.57652258473212L193.54838709677418,130.21223052047634L183.8709677419355,125.42436035737092L174.1935483870968,127.60765364080929L164.51612903225808,129.6621972749408L154.83870967741936,126.46905086731482L145.16129032258064,126.97655939704732L135.48387096774192,128.34980266392552L125.80645161290323,129.5432889169191L116.12903225806453,127.70182069562193L106.4516129032258,129.66141256788808L96.77419354838709,125.08910246940003L87.0967741935484,127.79996616184737L77.41935483870968,122.64224436576198L67.74193548387096,134.092073257661L58.06451612903226,127.9133319832287L48.387096774193544,134.2214819280855L38.70967741935484,132.8529398536655L29.03225806451613,133.4162143246385L19.35483870967742,133.0598791411364L9.67741935483871,132.84196112450485L0,131.29852160222063Z" fill="#33a02c" opacity="0.3"></path></g></g><path class="foreground" aria-hidden="true" d="" display="none"></path></g><g transform="translate(0,0)"><path class="background" aria-hidden="true" d="M0,0h300v300h-300Z"></path><g><g class="mark-area role-mark child_layer_1_layer_0_marks" role="graphics-object" aria-roledescription="area mark container"><path aria-label="meandiff: 0.0659468048254; upper_meandiff: 0.117353459725; salience_target_time: highlate; winstart: 0; Mean of meandiff: 0.0916501322751; Mean + stderr of meandiff: 0.117353459725; Mean - stderr of meandiff: 0.0659468048254" role="graphics-symbol" aria-roledescription="errorband" d="M0,122.70213011639392L9.67741935483871,127.31889537746936L19.35483870967742,126.94761430593753L29.03225806451613,129.46125148606754L38.70967741935484,138.47278139310367L48.387096774193544,137.46028615167563L58.06451612903226,145.99819590019246L67.74193548387096,159.23669770202775L77.41935483870968,134.61028754774418L87.0967741935484,148.783594212947L96.77419354838709,139.85997872302238L106.4516129032258,136.54063791547927L116.12903225806453,159.05800795791345L125.80645161290323,149.1981299209541L135.48387096774192,154.1488563844948L145.16129032258064,144.08651351914423L154.83870967741936,152.81560988781973L164.51612903225808,140.62324042778957L174.1935483870968,144.29241621267414L183.8709677419355,142.63995277053633L193.54838709677418,136.70473739784012L203.2258064516129,136.02913082084066L212.9032258064516,136.70473739784012L222.58064516129028,149.40306180460735L232.25806451612905,166.66666666666669L241.93548387096777,201.00462682825437L251.61290322580646,160.53612735212718L261.2903225806452,152.23183994318177L270.96774193548384,158.01152003175417L280.6451612903226,166.66666666666669L290.3225806451613,166.66666666666669L300,166.66666666666669L300,166.66666666666669L290.3225806451613,163.58024691358025L280.6451612903226,148.14814814814815L270.96774193548384,125.32181330157918L261.2903225806452,123.07680203212685L251.61290322580646,136.99473684540365L241.93548387096777,163.19290403594317L232.25806451612905,166.66666666666669L222.58064516129028,117.85884295729743L212.9032258064516,99.5386488455461L203.2258064516129,98.89150409979425L193.54838709677418,99.5386488455461L183.8709677419355,113.99584969859944L174.1935483870968,117.19347443988315L164.51612903225808,111.44906997785415L154.83870967741936,128.7320091597993L145.16129032258064,117.97256937327198L135.48387096774192,126.18624061726888L125.80645161290323,119.03379247763492L116.12903225806453,126.67832361175145L106.4516129032258,113.54754550603747L96.77419354838709,111.24231404593704L87.0967741935484,114.88483612215002L77.41935483870968,105.07225213479548L67.74193548387096,117.48287901754895L58.06451612903226,113.04060480527494L48.387096774193544,110.24694488888872L38.70967741935484,106.83145141112911L29.03225806451613,96.94968325820052L19.35483870967742,92.60705941540283L9.67741935483871,93.60262137738074L0,88.43102685009634Z" fill="#1f78b4" opacity="0.3"></path></g></g><path class="foreground" aria-hidden="true" d="" display="none"></path></g><g transform="translate(0,0)"><path class="background" aria-hidden="true" d="M0,0h300v300h-300Z"></path><g><g class="mark-area role-mark child_layer_1_layer_0_marks" role="graphics-object" aria-roledescription="area mark container"><path aria-label="meandiff: 0.112108913728; upper_meandiff: 0.15349742982; salience_target_time: highearly; winstart: 0; Mean of meandiff: 0.132803171774; Mean + stderr of meandiff: 0.15349742982; Mean - stderr of meandiff: 0.112108913728" role="graphics-symbol" aria-roledescription="errorband" d="M0,91.92739084806469L9.67741935483871,89.74835154744595L19.35483870967742,82.31968595023747L29.03225806451613,84.39422435487134L38.70967741935484,77.7671951866657L48.387096774193544,90.29890609660434L58.06451612903226,98.94800126309387L67.74193548387096,80.91405803697283L77.41935483870968,78.76404193209854L87.0967741935484,75.75543328707097L96.77419354838709,76.04236055324975L106.4516129032258,65.31260161290128L116.12903225806453,63.564955337482445L125.80645161290323,71.13333804586908L135.48387096774192,73.62345179297726L145.16129032258064,67.17725411531336L154.83870967741936,66.2544041548678L164.51612903225808,68.71223371489548L174.1935483870968,60.98013087464703L183.8709677419355,62.26992004083708L193.54838709677418,62.33274822845234L203.2258064516129,64.65803785773348L212.9032258064516,63.886655275383816L222.58064516129028,69.93591208823156L232.25806451612905,70.20598753132114L241.93548387096777,79.76943097071165L251.61290322580646,72.63543136024332L261.2903225806452,76.28525910883768L270.96774193548384,80.71166128051146L280.6451612903226,78.66483503640075L290.3225806451613,83.29489384923687L300,93.83282648725587L300,54.29957850789427L290.3225806451613,51.94107116613993L280.6451612903226,49.166066814108966L270.96774193548384,47.19097348486845L261.2903225806452,44.287559503196675L251.61290322580646,43.26295855775448L241.93548387096777,53.885893370887196L232.25806451612905,38.64871985279793L222.58064516129028,40.411021297917515L212.9032258064516,30.763937414424582L203.2258064516129,33.42739160024506L193.54838709677418,29.11949959634461L183.8709677419355,31.971205572837636L174.1935483870968,29.74290788760743L164.51612903225808,38.40027977016707L154.83870967741936,33.64310211518755L145.16129032258064,36.55283932066246L135.48387096774192,40.824319027342604L125.80645161290323,37.14159326827789L116.12903225806453,33.74717334719522L106.4516129032258,32.60077767302702L96.77419354838709,43.0350398966997L87.0967741935484,40.01508885600021L77.41935483870968,44.955956297703636L67.74193548387096,48.896255106673706L58.06451612903226,56.20679310738671L48.387096774193544,53.3221923039058L38.70967741935484,46.737126744126854L29.03225806451613,53.14682936265304L19.35483870967742,52.4983962943154L9.67741935483871,59.910304973955654L0,64.33504678692188Z" fill="#a6cee3" opacity="0.3"></path></g></g><path class="foreground" aria-hidden="true" d="" display="none"></path></g><g transform="translate(0,0)"><path class="background" aria-hidden="true" d="M0,0h300v300h-300Z"></path><g><g class="mark-area role-mark child_layer_1_layer_0_marks" role="graphics-object" aria-roledescription="area mark container"><path aria-label="meandiff: -0.0026176540994; upper_meandiff: 0.111772195546; salience_target_time: lowearly; winstart: 0; Mean of meandiff: 0.0545772707231; Mean + stderr of meandiff: 0.111772195546; Mean - stderr of meandiff: -0.0026176540994" role="graphics-symbol" aria-roledescription="errorband" d="M0,168.41176939960135L9.67741935483871,165.99973927700756L19.35483870967742,154.0091808673884L29.03225806451613,176.19628421769954L38.70967741935484,225.50696673547736L48.387096774193544,185.87697601039656L58.06451612903226,187.0229515353535L67.74193548387096,230.11312966967918L77.41935483870968,201.81021264197332L87.0967741935484,183.07433200111146L96.77419354838709,210.57853795719083L106.4516129032258,199.69837572455543L116.12903225806453,215.2532312154241L125.80645161290323,216.19944628252864L135.48387096774192,213.54368361092762L145.16129032258064,196.286385483526L154.83870967741936,194.14241843019633L164.51612903225808,207.51638738907192L174.1935483870968,222.2585887370917L183.8709677419355,218.63949413973216L193.54838709677418,158.64821055017447L203.2258064516129,137.88299236336385L212.9032258064516,167.39923368086502L222.58064516129028,145.5251702110233L232.25806451612905,139.79916898406105L241.93548387096777,169.73243226007088L251.61290322580646,163.21890706572546L261.2903225806452,225.65344050898366L270.96774193548384,253.40621036160158L280.6451612903226,234.57708403473657L290.3225806451613,243.26664278953385L300,231.14416794027338L300,175.5136803842416L290.3225806451613,179.46263410640967L280.6451612903226,176.57811878713292L270.96774193548384,181.66874554668766L261.2903225806452,158.01058065503747L251.61290322580646,107.8606049860088L241.93548387096777,103.22832611735413L232.25806451612905,80.02005500182953L222.58064516129028,92.74643472724831L212.9032258064516,123.77507554899971L203.2258064516129,88.9541622515685L193.54838709677418,99.6189852170213L183.8709677419355,135.15239298548826L174.1935483870968,148.2881484763122L164.51612903225808,128.7380217820039L154.83870967741936,121.00308421530627L145.16129032258064,124.82252104204716L135.48387096774192,150.35622820565084L125.80645161290323,146.78556253581348L116.12903225806453,148.66872645653353L106.4516129032258,123.78046025428051L96.77419354838709,134.04962194874682L87.0967741935484,111.41420415409138L77.41935483870968,123.62703015638054L67.74193548387096,149.582637526088L58.06451612903226,117.62504964042537L48.387096774193544,109.93063715832768L38.70967741935484,125.50346830273544L29.03225806451613,99.45406851598655L19.35483870967742,88.66057221903128L9.67741935483871,99.88429952369783L0,92.15186963625989Z" fill="#b2df8a" opacity="0.3"></path></g></g><path class="foreground" aria-hidden="true" d="" display="none"></path></g></g></g><path class="foreground" aria-hidden="true" d="" display="none"></path></g></g><g class="mark-group role-legend" role="graphics-symbol" aria-roledescription="legend" aria-label="Symbol legend titled 'salience_target_time' for fill color and stroke color with 4 values: highearly, highlate, lowearly, lowlate"><g transform="translate(647,0)"><path class="background" aria-hidden="true" d="M0,0h109v77h-109Z" pointer-events="none"></path><g><g class="mark-group role-legend-entry"><g transform="translate(0,16)"><path class="background" aria-hidden="true" d="M0,0h0v0h0Z" pointer-events="none"></path><g><g class="mark-group role-scope" role="graphics-object" aria-roledescription="group mark container"><g transform="translate(0,0)"><path class="background" aria-hidden="true" d="M0,0h58v12.5h-58Z" pointer-events="none" opacity="1"></path><g><g class="mark-symbol role-legend-symbol" pointer-events="none"><path transform="translate(6,6)" d="M5,0A5,5,0,1,1,-5,0A5,5,0,1,1,5,0" fill="#a6cee3" stroke="#a6cee3" stroke-width="1.5" opacity="0.3"></path></g><g class="mark-text role-legend-label" pointer-events="none"><text text-anchor="start" transform="translate(16,9)" font-family="sans-serif" font-size="10px" fill="#000" opacity="1">highearly</text></g></g><path class="foreground" aria-hidden="true" d="" pointer-events="none" display="none"></path></g><g transform="translate(0,16)"><path class="background" aria-hidden="true" d="M0,0h58v12.5h-58Z" pointer-events="none" opacity="1"></path><g><g class="mark-symbol role-legend-symbol" pointer-events="none"><path transform="translate(6,6)" d="M5,0A5,5,0,1,1,-5,0A5,5,0,1,1,5,0" fill="#1f78b4" stroke="#1f78b4" stroke-width="1.5" opacity="0.3"></path></g><g class="mark-text role-legend-label" pointer-events="none"><text text-anchor="start" transform="translate(16,9)" font-family="sans-serif" font-size="10px" fill="#000" opacity="1">highlate</text></g></g><path class="foreground" aria-hidden="true" d="" pointer-events="none" display="none"></path></g><g transform="translate(0,32)"><path class="background" aria-hidden="true" d="M0,0h58v12.5h-58Z" pointer-events="none" opacity="1"></path><g><g class="mark-symbol role-legend-symbol" pointer-events="none"><path transform="translate(6,6)" d="M5,0A5,5,0,1,1,-5,0A5,5,0,1,1,5,0" fill="#b2df8a" stroke="#b2df8a" stroke-width="1.5" opacity="0.3"></path></g><g class="mark-text role-legend-label" pointer-events="none"><text text-anchor="start" transform="translate(16,9)" font-family="sans-serif" font-size="10px" fill="#000" opacity="1">lowearly</text></g></g><path class="foreground" aria-hidden="true" d="" pointer-events="none" display="none"></path></g><g transform="translate(0,48)"><path class="background" aria-hidden="true" d="M0,0h58v12.5h-58Z" pointer-events="none" opacity="1"></path><g><g class="mark-symbol role-legend-symbol" pointer-events="none"><path transform="translate(6,6)" d="M5,0A5,5,0,1,1,-5,0A5,5,0,1,1,5,0" fill="#33a02c" stroke="#33a02c" stroke-width="1.5" opacity="0.3"></path></g><g class="mark-text role-legend-label" pointer-events="none"><text text-anchor="start" transform="translate(16,9)" font-family="sans-serif" font-size="10px" fill="#000" opacity="1">lowlate</text></g></g><path class="foreground" aria-hidden="true" d="" pointer-events="none" display="none"></path></g></g></g><path class="foreground" aria-hidden="true" d="" pointer-events="none" display="none"></path></g></g><g class="mark-text role-legend-title" pointer-events="none"><text text-anchor="start" transform="translate(0,9)" font-family="sans-serif" font-size="11px" font-weight="bold" fill="#000" opacity="1">salience_target_time</text></g></g><path class="foreground" aria-hidden="true" d="" pointer-events="none" display="none"></path></g></g></g><path class="foreground" aria-hidden="true" d="" display="none"></path></g></g></g></svg>
