<?xml version="1.0" encoding="utf-8"?>
<!DOCTYPE svg PUBLIC "-//W3C//DTD SVG 1.1//EN" "http://www.w3.org/Graphics/SVG/1.1/DTD/svg11.dtd">
<svg class="marks" width="918" height="603" viewBox="0 0 918 603" version="1.1" xmlns="http://www.w3.org/2000/svg" xmlns:xlink="http://www.w3.org/1999/xlink"><rect width="918" height="603" fill="white"></rect><g fill="none" stroke-miterlimit="10" transform="translate(49,6)"><g class="mark-group role-frame root" role="graphics-object" aria-roledescription="group mark container"><g transform="translate(0,0)"><path class="background" aria-hidden="true" d="M0,0h750v0h-750Z"></path><g><g class="mark-group role-scope concat_0_group" role="graphics-object" aria-roledescription="group mark container"><g transform="translate(0,0)"><path class="background" aria-hidden="true" d="M0.5,0.5h750v100h-750Z" stroke="#ddd"></path><g><g class="mark-group role-axis" aria-hidden="true"><g transform="translate(0.5,100.5)"><path class="background" aria-hidden="true" d="M0,0h0v0h0Z" pointer-events="none"></path><g><g class="mark-rule role-axis-grid" pointer-events="none"><line transform="translate(0,-100)" x2="0" y2="100" stroke="#ddd" stroke-width="1" opacity="1"></line><line transform="translate(113,-100)" x2="0" y2="100" stroke="#ddd" stroke-width="1" opacity="1"></line><line transform="translate(179,-100)" x2="0" y2="100" stroke="#ddd" stroke-width="1" opacity="1"></line><line transform="translate(226,-100)" x2="0" y2="100" stroke="#ddd" stroke-width="1" opacity="1"></line><line transform="translate(262,-100)" x2="0" y2="100" stroke="#ddd" stroke-width="1" opacity="1"></line><line transform="translate(292,-100)" x2="0" y2="100" stroke="#ddd" stroke-width="1" opacity="1"></line><line transform="translate(317,-100)" x2="0" y2="100" stroke="#ddd" stroke-width="1" opacity="1"></line><line transform="translate(339,-100)" x2="0" y2="100" stroke="#ddd" stroke-width="1" opacity="1"></line><line transform="translate(358,-100)" x2="0" y2="100" stroke="#ddd" stroke-width="1" opacity="1"></line><line transform="translate(375,-100)" x2="0" y2="100" stroke="#ddd" stroke-width="1" opacity="1"></line><line transform="translate(488,-100)" x2="0" y2="100" stroke="#ddd" stroke-width="1" opacity="1"></line><line transform="translate(554,-100)" x2="0" y2="100" stroke="#ddd" stroke-width="1" opacity="1"></line><line transform="translate(601,-100)" x2="0" y2="100" stroke="#ddd" stroke-width="1" opacity="1"></line><line transform="translate(637,-100)" x2="0" y2="100" stroke="#ddd" stroke-width="1" opacity="1"></line><line transform="translate(667,-100)" x2="0" y2="100" stroke="#ddd" stroke-width="1" opacity="1"></line><line transform="translate(692,-100)" x2="0" y2="100" stroke="#ddd" stroke-width="1" opacity="1"></line><line transform="translate(714,-100)" x2="0" y2="100" stroke="#ddd" stroke-width="1" opacity="1"></line><line transform="translate(733,-100)" x2="0" y2="100" stroke="#ddd" stroke-width="1" opacity="1"></line><line transform="translate(750,-100)" x2="0" y2="100" stroke="#ddd" stroke-width="1" opacity="1"></line></g></g><path class="foreground" aria-hidden="true" d="" pointer-events="none" display="none"></path></g></g><g class="mark-group role-axis" aria-hidden="true"><g transform="translate(0.5,0.5)"><path class="background" aria-hidden="true" d="M0,0h0v0h0Z" pointer-events="none"></path><g><g class="mark-rule role-axis-grid" pointer-events="none"><line transform="translate(0,100)" x2="750" y2="0" stroke="#ddd" stroke-width="1" opacity="1"></line><line transform="translate(0,55)" x2="750" y2="0" stroke="#ddd" stroke-width="1" opacity="1"></line><line transform="translate(0,9)" x2="750" y2="0" stroke="#ddd" stroke-width="1" opacity="1"></line></g></g><path class="foreground" aria-hidden="true" d="" pointer-events="none" display="none"></path></g></g><g class="mark-group role-axis" role="graphics-symbol" aria-roledescription="axis" aria-label="X-axis titled 'λ' for a log scale with values from 0.01 to 1"><g transform="translate(0.5,100.5)"><path class="background" aria-hidden="true" d="M0,0h0v0h0Z" pointer-events="none"></path><g><g class="mark-rule role-axis-tick" pointer-events="none"><line transform="translate(0,0)" x2="0" y2="5" stroke="#888" stroke-width="1" opacity="1"></line><line transform="translate(113,0)" x2="0" y2="5" stroke="#888" stroke-width="1" opacity="1"></line><line transform="translate(179,0)" x2="0" y2="5" stroke="#888" stroke-width="1" opacity="1"></line><line transform="translate(226,0)" x2="0" y2="5" stroke="#888" stroke-width="1" opacity="1"></line><line transform="translate(262,0)" x2="0" y2="5" stroke="#888" stroke-width="1" opacity="1"></line><line transform="translate(292,0)" x2="0" y2="5" stroke="#888" stroke-width="1" opacity="1"></line><line transform="translate(317,0)" x2="0" y2="5" stroke="#888" stroke-width="1" opacity="1"></line><line transform="translate(339,0)" x2="0" y2="5" stroke="#888" stroke-width="1" opacity="1"></line><line transform="translate(358,0)" x2="0" y2="5" stroke="#888" stroke-width="1" opacity="1"></line><line transform="translate(375,0)" x2="0" y2="5" stroke="#888" stroke-width="1" opacity="1"></line><line transform="translate(488,0)" x2="0" y2="5" stroke="#888" stroke-width="1" opacity="1"></line><line transform="translate(554,0)" x2="0" y2="5" stroke="#888" stroke-width="1" opacity="1"></line><line transform="translate(601,0)" x2="0" y2="5" stroke="#888" stroke-width="1" opacity="1"></line><line transform="translate(637,0)" x2="0" y2="5" stroke="#888" stroke-width="1" opacity="1"></line><line transform="translate(667,0)" x2="0" y2="5" stroke="#888" stroke-width="1" opacity="1"></line><line transform="translate(692,0)" x2="0" y2="5" stroke="#888" stroke-width="1" opacity="1"></line><line transform="translate(714,0)" x2="0" y2="5" stroke="#888" stroke-width="1" opacity="1"></line><line transform="translate(733,0)" x2="0" y2="5" stroke="#888" stroke-width="1" opacity="1"></line><line transform="translate(750,0)" x2="0" y2="5" stroke="#888" stroke-width="1" opacity="1"></line></g><g class="mark-text role-axis-label" pointer-events="none"><text text-anchor="start" transform="translate(0,15)" font-family="sans-serif" font-size="10px" fill="#000" opacity="1">0.01</text><text text-anchor="middle" transform="translate(112.88624837399291,15)" font-family="sans-serif" font-size="10px" fill="#000" opacity="1">0.02</text><text text-anchor="middle" transform="translate(178.92047051987333,15)" font-family="sans-serif" font-size="10px" fill="#000" opacity="1">0.03</text><text text-anchor="middle" transform="translate(225.77249674798585,15)" font-family="sans-serif" font-size="10px" fill="#000" opacity="1">0.04</text><text text-anchor="middle" transform="translate(262.113751626007,15)" font-family="sans-serif" font-size="10px" fill="#000" opacity="1">0.05</text><text text-anchor="middle" transform="translate(291.80671889386633,15)" font-family="sans-serif" font-size="10px" fill="#000" opacity="1"></text><text text-anchor="middle" transform="translate(316.9117650053463,15)" font-family="sans-serif" font-size="10px" fill="#000" opacity="1"></text><text text-anchor="middle" transform="translate(338.65874512197877,15)" font-family="sans-serif" font-size="10px" fill="#000" opacity="1"></text><text text-anchor="middle" transform="translate(357.84094103974684,15)" font-family="sans-serif" font-size="10px" fill="#000" opacity="1"></text><text text-anchor="middle" transform="translate(375,15)" font-family="sans-serif" font-size="10px" fill="#000" opacity="1">0.1</text><text text-anchor="middle" transform="translate(487.8862483739929,15)" font-family="sans-serif" font-size="10px" fill="#000" opacity="1">0.2</text><text text-anchor="middle" transform="translate(553.9204705198734,15)" font-family="sans-serif" font-size="10px" fill="#000" opacity="1">0.3</text><text text-anchor="middle" transform="translate(600.7724967479859,15)" font-family="sans-serif" font-size="10px" fill="#000" opacity="1">0.4</text><text text-anchor="middle" transform="translate(637.113751626007,15)" font-family="sans-serif" font-size="10px" fill="#000" opacity="1">0.5</text><text text-anchor="middle" transform="translate(666.8067188938663,15)" font-family="sans-serif" font-size="10px" fill="#000" opacity="1"></text><text text-anchor="middle" transform="translate(691.9117650053463,15)" font-family="sans-serif" font-size="10px" fill="#000" opacity="1"></text><text text-anchor="middle" transform="translate(713.6587451219789,15)" font-family="sans-serif" font-size="10px" fill="#000" opacity="1"></text><text text-anchor="middle" transform="translate(732.8409410397469,15)" font-family="sans-serif" font-size="10px" fill="#000" opacity="1"></text><text text-anchor="end" transform="translate(750,15)" font-family="sans-serif" font-size="10px" fill="#000" opacity="1">1</text></g><g class="mark-rule role-axis-domain" pointer-events="none"><line transform="translate(0,0)" x2="750" y2="0" stroke="#888" stroke-width="1" opacity="1"></line></g><g class="mark-text role-axis-title" pointer-events="none"><text text-anchor="middle" transform="translate(375,30)" font-family="sans-serif" font-size="11px" font-weight="bold" fill="#000" opacity="1">λ</text></g></g><path class="foreground" aria-hidden="true" d="" pointer-events="none" display="none"></path></g></g><g class="mark-group role-axis" role="graphics-symbol" aria-roledescription="axis" aria-label="Y-axis titled 'Max of nzcoef' for a linear scale with values from 0 to 22"><g transform="translate(0.5,0.5)"><path class="background" aria-hidden="true" d="M0,0h0v0h0Z" pointer-events="none"></path><g><g class="mark-rule role-axis-tick" pointer-events="none"><line transform="translate(0,100)" x2="-5" y2="0" stroke="#888" stroke-width="1" opacity="1"></line><line transform="translate(0,55)" x2="-5" y2="0" stroke="#888" stroke-width="1" opacity="1"></line><line transform="translate(0,9)" x2="-5" y2="0" stroke="#888" stroke-width="1" opacity="1"></line></g><g class="mark-text role-axis-label" pointer-events="none"><text text-anchor="end" transform="translate(-7,103)" font-family="sans-serif" font-size="10px" fill="#000" opacity="1">0</text><text text-anchor="end" transform="translate(-7,57.54545454545454)" font-family="sans-serif" font-size="10px" fill="#000" opacity="1">10</text><text text-anchor="end" transform="translate(-7,12.090909090909093)" font-family="sans-serif" font-size="10px" fill="#000" opacity="1">20</text></g><g class="mark-rule role-axis-domain" pointer-events="none"><line transform="translate(0,100)" x2="0" y2="-100" stroke="#888" stroke-width="1" opacity="1"></line></g><g class="mark-text role-axis-title" pointer-events="none"><text text-anchor="middle" transform="translate(-23,50) rotate(-90) translate(0,-2)" font-family="sans-serif" font-size="11px" font-weight="bold" fill="#000" opacity="1">Max of nzcoef</text></g></g><path class="foreground" aria-hidden="true" d="" pointer-events="none" display="none"></path></g></g><g class="mark-group role-scope concat_0_pathgroup" role="graphics-object" aria-roledescription="group mark container"><g transform="translate(0,0)"><path class="background" aria-hidden="true" d="M0,0h750v100h-750Z"></path><g><g class="mark-line role-mark concat_0_marks" role="graphics-object" aria-roledescription="line mark container"><path aria-label="comparison: global-v-object; λ: 0.01; Max of nzcoef: 19" role="graphics-symbol" aria-roledescription="line mark" d="M0,13.636363636363635L7.575757575757477,4.545454545454541L15.151515151515099,4.545454545454541L22.727272727272574,9.090909090909093L30.303030303030198,9.090909090909093L37.87878787878782,9.090909090909093L45.4545454545453,9.090909090909093L53.03030303030291,13.636363636363635L60.60606060606054,13.636363636363635L68.18181818181816,13.636363636363635L75.75757575757564,9.090909090909093L83.33333333333326,9.090909090909093L90.90909090909086,13.636363636363635L98.48484848484834,18.181818181818176L106.06060606060598,18.181818181818176L113.6363636363636,18.181818181818176L121.21212121212122,18.181818181818176L128.78787878787867,18.181818181818176L136.36363636363623,18.181818181818176L143.93939393939388,22.72727272727273L151.51515151515142,27.27272727272727L159.09090909090904,27.27272727272727L166.66666666666657,31.818181818181824L174.24242424242428,27.27272727272727L181.81818181818173,27.27272727272727L189.3939393939393,31.818181818181824L196.9696969696969,31.818181818181824L204.54545454545445,31.818181818181824L212.12121212121207,40.90909090909091L219.69696969696966,40.90909090909091L227.2727272727272,36.36363636363637L234.84848484848482,36.36363636363637L242.42424242424235,40.90909090909091L250,40.90909090909091L257.5757575757575,45.45454545454546L265.15151515151507,45.45454545454546L272.7272727272727,45.45454545454546L280.30303030303025,45.45454545454546L287.8787878787879,45.45454545454546L295.4545454545454,50L303.030303030303,45.45454545454546L310.60606060606057,45.45454545454546L318.18181818181813,45.45454545454546L325.75757575757575,50L333.3333333333333,50L340.90909090909093,50L348.4848484848484,50L356.06060606060595,50L363.6363636363636,54.54545454545454L371.21212121212113,54.54545454545454L378.78787878787875,54.54545454545454L386.36363636363626,54.54545454545454L393.9393939393939,54.54545454545454L401.51515151515144,54.54545454545454L409.09090909090907,54.54545454545454L416.66666666666663,54.54545454545454L424.24242424242414,54.54545454545454L431.81818181818176,59.09090909090908L439.3939393939393,59.09090909090908L446.96969696969694,63.63636363636363L454.54545454545445,63.63636363636363L462.1212121212121,63.63636363636363L469.69696969696963,63.63636363636363L477.27272727272725,63.63636363636363L484.8484848484849,63.63636363636363L492.42424242424244,68.18181818181819L500,72.72727272727273L507.5757575757576,77.27272727272727L515.1515151515151,77.27272727272727L522.7272727272726,81.81818181818181L530.3030303030303,81.81818181818181L537.8787878787879,90.9090909090909L545.4545454545455,90.9090909090909L553.030303030303,90.9090909090909L560.6060606060605,95.45454545454545L568.1818181818181,95.45454545454545L575.7575757575758,100L583.3333333333334,100L590.9090909090909,100L598.4848484848484,100L606.060606060606,100L613.6363636363636,100L621.2121212121211,100L628.7878787878788,100L636.3636363636363,100L643.9393939393939,100L651.5151515151515,100L659.0909090909091,100L666.6666666666666,100L674.2424242424242,100L681.8181818181819,100L689.3939393939394,100L696.969696969697,100L704.5454545454546,100L712.121212121212,100L719.6969696969696,100L727.2727272727273,100L734.8484848484849,100L742.4242424242424,100L750,100" stroke="#4c78a8" stroke-width="2"></path></g></g><path class="foreground" aria-hidden="true" d="" display="none"></path></g><g transform="translate(0,0)"><path class="background" aria-hidden="true" d="M0,0h750v100h-750Z"></path><g><g class="mark-line role-mark concat_0_marks" role="graphics-object" aria-roledescription="line mark container"><path aria-label="comparison: global-v-spatial; λ: 0.01; Max of nzcoef: 12" role="graphics-symbol" aria-roledescription="line mark" d="M0,45.45454545454546L7.575757575757477,45.45454545454546L15.151515151515099,45.45454545454546L22.727272727272574,45.45454545454546L30.303030303030198,45.45454545454546L37.87878787878782,45.45454545454546L45.4545454545453,45.45454545454546L53.03030303030291,45.45454545454546L60.60606060606054,45.45454545454546L68.18181818181816,45.45454545454546L75.75757575757564,45.45454545454546L83.33333333333326,45.45454545454546L90.90909090909086,45.45454545454546L98.48484848484834,45.45454545454546L106.06060606060598,45.45454545454546L113.6363636363636,45.45454545454546L121.21212121212122,45.45454545454546L128.78787878787867,45.45454545454546L136.36363636363623,45.45454545454546L143.93939393939388,50L151.51515151515142,45.45454545454546L159.09090909090904,45.45454545454546L166.66666666666657,50L174.24242424242428,50L181.81818181818173,50L189.3939393939393,50L196.9696969696969,50L204.54545454545445,50L212.12121212121207,50L219.69696969696966,50L227.2727272727272,50L234.84848484848482,50L242.42424242424235,50L250,50L257.5757575757575,54.54545454545454L265.15151515151507,54.54545454545454L272.7272727272727,54.54545454545454L280.30303030303025,54.54545454545454L287.8787878787879,54.54545454545454L295.4545454545454,54.54545454545454L303.030303030303,54.54545454545454L310.60606060606057,54.54545454545454L318.18181818181813,59.09090909090908L325.75757575757575,54.54545454545454L333.3333333333333,54.54545454545454L340.90909090909093,54.54545454545454L348.4848484848484,50L356.06060606060595,54.54545454545454L363.6363636363636,54.54545454545454L371.21212121212113,54.54545454545454L378.78787878787875,54.54545454545454L386.36363636363626,54.54545454545454L393.9393939393939,54.54545454545454L401.51515151515144,59.09090909090908L409.09090909090907,59.09090909090908L416.66666666666663,59.09090909090908L424.24242424242414,59.09090909090908L431.81818181818176,59.09090909090908L439.3939393939393,63.63636363636363L446.96969696969694,63.63636363636363L454.54545454545445,63.63636363636363L462.1212121212121,63.63636363636363L469.69696969696963,63.63636363636363L477.27272727272725,68.18181818181819L484.8484848484849,68.18181818181819L492.42424242424244,68.18181818181819L500,68.18181818181819L507.5757575757576,72.72727272727273L515.1515151515151,72.72727272727273L522.7272727272726,77.27272727272727L530.3030303030303,77.27272727272727L537.8787878787879,86.36363636363636L545.4545454545455,86.36363636363636L553.030303030303,90.9090909090909L560.6060606060605,95.45454545454545L568.1818181818181,100L575.7575757575758,100L583.3333333333334,100L590.9090909090909,100L598.4848484848484,100L606.060606060606,100L613.6363636363636,100L621.2121212121211,100L628.7878787878788,100L636.3636363636363,100L643.9393939393939,100L651.5151515151515,100L659.0909090909091,100L666.6666666666666,100L674.2424242424242,100L681.8181818181819,100L689.3939393939394,100L696.969696969697,100L704.5454545454546,100L712.121212121212,100L719.6969696969696,100L727.2727272727273,100L734.8484848484849,100L742.4242424242424,100L750,100" stroke="#f58518" stroke-width="2"></path></g></g><path class="foreground" aria-hidden="true" d="" display="none"></path></g></g></g><path class="foreground" aria-hidden="true" d="" display="none"></path></g></g><g class="mark-group role-scope concat_1_group" role="graphics-object" aria-roledescription="group mark container"><g transform="translate(0,159)"><path class="background" aria-hidden="true" d="M0.5,0.5h750v400h-750Z" stroke="#ddd"></path><g><g class="mark-group role-axis" aria-hidden="true"><g transform="translate(0.5,400.5)"><path class="background" aria-hidden="true" d="M0,0h0v0h0Z" pointer-events="none"></path><g><g class="mark-rule role-axis-grid" pointer-events="none"><line transform="translate(0,-400)" x2="0" y2="400" stroke="#ddd" stroke-width="1" opacity="1"></line><line transform="translate(113,-400)" x2="0" y2="400" stroke="#ddd" stroke-width="1" opacity="1"></line><line transform="translate(179,-400)" x2="0" y2="400" stroke="#ddd" stroke-width="1" opacity="1"></line><line transform="translate(226,-400)" x2="0" y2="400" stroke="#ddd" stroke-width="1" opacity="1"></line><line transform="translate(262,-400)" x2="0" y2="400" stroke="#ddd" stroke-width="1" opacity="1"></line><line transform="translate(292,-400)" x2="0" y2="400" stroke="#ddd" stroke-width="1" opacity="1"></line><line transform="translate(317,-400)" x2="0" y2="400" stroke="#ddd" stroke-width="1" opacity="1"></line><line transform="translate(339,-400)" x2="0" y2="400" stroke="#ddd" stroke-width="1" opacity="1"></line><line transform="translate(358,-400)" x2="0" y2="400" stroke="#ddd" stroke-width="1" opacity="1"></line><line transform="translate(375,-400)" x2="0" y2="400" stroke="#ddd" stroke-width="1" opacity="1"></line><line transform="translate(488,-400)" x2="0" y2="400" stroke="#ddd" stroke-width="1" opacity="1"></line><line transform="translate(554,-400)" x2="0" y2="400" stroke="#ddd" stroke-width="1" opacity="1"></line><line transform="translate(601,-400)" x2="0" y2="400" stroke="#ddd" stroke-width="1" opacity="1"></line><line transform="translate(637,-400)" x2="0" y2="400" stroke="#ddd" stroke-width="1" opacity="1"></line><line transform="translate(667,-400)" x2="0" y2="400" stroke="#ddd" stroke-width="1" opacity="1"></line><line transform="translate(692,-400)" x2="0" y2="400" stroke="#ddd" stroke-width="1" opacity="1"></line><line transform="translate(714,-400)" x2="0" y2="400" stroke="#ddd" stroke-width="1" opacity="1"></line><line transform="translate(733,-400)" x2="0" y2="400" stroke="#ddd" stroke-width="1" opacity="1"></line><line transform="translate(750,-400)" x2="0" y2="400" stroke="#ddd" stroke-width="1" opacity="1"></line></g></g><path class="foreground" aria-hidden="true" d="" pointer-events="none" display="none"></path></g></g><g class="mark-group role-axis" aria-hidden="true"><g transform="translate(0.5,0.5)"><path class="background" aria-hidden="true" d="M0,0h0v0h0Z" pointer-events="none"></path><g><g class="mark-rule role-axis-grid" pointer-events="none"><line transform="translate(0,400)" x2="750" y2="0" stroke="#ddd" stroke-width="1" opacity="1"></line><line transform="translate(0,360)" x2="750" y2="0" stroke="#ddd" stroke-width="1" opacity="1"></line><line transform="translate(0,320)" x2="750" y2="0" stroke="#ddd" stroke-width="1" opacity="1"></line><line transform="translate(0,280)" x2="750" y2="0" stroke="#ddd" stroke-width="1" opacity="1"></line><line transform="translate(0,240)" x2="750" y2="0" stroke="#ddd" stroke-width="1" opacity="1"></line><line transform="translate(0,200)" x2="750" y2="0" stroke="#ddd" stroke-width="1" opacity="1"></line><line transform="translate(0,160)" x2="750" y2="0" stroke="#ddd" stroke-width="1" opacity="1"></line><line transform="translate(0,120)" x2="750" y2="0" stroke="#ddd" stroke-width="1" opacity="1"></line><line transform="translate(0,80)" x2="750" y2="0" stroke="#ddd" stroke-width="1" opacity="1"></line><line transform="translate(0,40)" x2="750" y2="0" stroke="#ddd" stroke-width="1" opacity="1"></line><line transform="translate(0,0)" x2="750" y2="0" stroke="#ddd" stroke-width="1" opacity="1"></line></g></g><path class="foreground" aria-hidden="true" d="" pointer-events="none" display="none"></path></g></g><g class="mark-group role-axis" role="graphics-symbol" aria-roledescription="axis" aria-label="X-axis titled 'λ' for a log scale with values from 0.01 to 1"><g transform="translate(0.5,400.5)"><path class="background" aria-hidden="true" d="M0,0h0v0h0Z" pointer-events="none"></path><g><g class="mark-rule role-axis-tick" pointer-events="none"><line transform="translate(0,0)" x2="0" y2="5" stroke="#888" stroke-width="1" opacity="1"></line><line transform="translate(113,0)" x2="0" y2="5" stroke="#888" stroke-width="1" opacity="1"></line><line transform="translate(179,0)" x2="0" y2="5" stroke="#888" stroke-width="1" opacity="1"></line><line transform="translate(226,0)" x2="0" y2="5" stroke="#888" stroke-width="1" opacity="1"></line><line transform="translate(262,0)" x2="0" y2="5" stroke="#888" stroke-width="1" opacity="1"></line><line transform="translate(292,0)" x2="0" y2="5" stroke="#888" stroke-width="1" opacity="1"></line><line transform="translate(317,0)" x2="0" y2="5" stroke="#888" stroke-width="1" opacity="1"></line><line transform="translate(339,0)" x2="0" y2="5" stroke="#888" stroke-width="1" opacity="1"></line><line transform="translate(358,0)" x2="0" y2="5" stroke="#888" stroke-width="1" opacity="1"></line><line transform="translate(375,0)" x2="0" y2="5" stroke="#888" stroke-width="1" opacity="1"></line><line transform="translate(488,0)" x2="0" y2="5" stroke="#888" stroke-width="1" opacity="1"></line><line transform="translate(554,0)" x2="0" y2="5" stroke="#888" stroke-width="1" opacity="1"></line><line transform="translate(601,0)" x2="0" y2="5" stroke="#888" stroke-width="1" opacity="1"></line><line transform="translate(637,0)" x2="0" y2="5" stroke="#888" stroke-width="1" opacity="1"></line><line transform="translate(667,0)" x2="0" y2="5" stroke="#888" stroke-width="1" opacity="1"></line><line transform="translate(692,0)" x2="0" y2="5" stroke="#888" stroke-width="1" opacity="1"></line><line transform="translate(714,0)" x2="0" y2="5" stroke="#888" stroke-width="1" opacity="1"></line><line transform="translate(733,0)" x2="0" y2="5" stroke="#888" stroke-width="1" opacity="1"></line><line transform="translate(750,0)" x2="0" y2="5" stroke="#888" stroke-width="1" opacity="1"></line></g><g class="mark-text role-axis-label" pointer-events="none"><text text-anchor="start" transform="translate(0,15)" font-family="sans-serif" font-size="10px" fill="#000" opacity="1">0.01</text><text text-anchor="middle" transform="translate(112.88624837399291,15)" font-family="sans-serif" font-size="10px" fill="#000" opacity="1">0.02</text><text text-anchor="middle" transform="translate(178.92047051987333,15)" font-family="sans-serif" font-size="10px" fill="#000" opacity="1">0.03</text><text text-anchor="middle" transform="translate(225.77249674798585,15)" font-family="sans-serif" font-size="10px" fill="#000" opacity="1">0.04</text><text text-anchor="middle" transform="translate(262.113751626007,15)" font-family="sans-serif" font-size="10px" fill="#000" opacity="1">0.05</text><text text-anchor="middle" transform="translate(291.80671889386633,15)" font-family="sans-serif" font-size="10px" fill="#000" opacity="1"></text><text text-anchor="middle" transform="translate(316.9117650053463,15)" font-family="sans-serif" font-size="10px" fill="#000" opacity="1"></text><text text-anchor="middle" transform="translate(338.65874512197877,15)" font-family="sans-serif" font-size="10px" fill="#000" opacity="1"></text><text text-anchor="middle" transform="translate(357.84094103974684,15)" font-family="sans-serif" font-size="10px" fill="#000" opacity="1"></text><text text-anchor="middle" transform="translate(375,15)" font-family="sans-serif" font-size="10px" fill="#000" opacity="1">0.1</text><text text-anchor="middle" transform="translate(487.8862483739929,15)" font-family="sans-serif" font-size="10px" fill="#000" opacity="1">0.2</text><text text-anchor="middle" transform="translate(553.9204705198734,15)" font-family="sans-serif" font-size="10px" fill="#000" opacity="1">0.3</text><text text-anchor="middle" transform="translate(600.7724967479859,15)" font-family="sans-serif" font-size="10px" fill="#000" opacity="1">0.4</text><text text-anchor="middle" transform="translate(637.113751626007,15)" font-family="sans-serif" font-size="10px" fill="#000" opacity="1">0.5</text><text text-anchor="middle" transform="translate(666.8067188938663,15)" font-family="sans-serif" font-size="10px" fill="#000" opacity="1"></text><text text-anchor="middle" transform="translate(691.9117650053463,15)" font-family="sans-serif" font-size="10px" fill="#000" opacity="1"></text><text text-anchor="middle" transform="translate(713.6587451219789,15)" font-family="sans-serif" font-size="10px" fill="#000" opacity="1"></text><text text-anchor="middle" transform="translate(732.8409410397469,15)" font-family="sans-serif" font-size="10px" fill="#000" opacity="1"></text><text text-anchor="end" transform="translate(750,15)" font-family="sans-serif" font-size="10px" fill="#000" opacity="1">1</text></g><g class="mark-rule role-axis-domain" pointer-events="none"><line transform="translate(0,0)" x2="750" y2="0" stroke="#888" stroke-width="1" opacity="1"></line></g><g class="mark-text role-axis-title" pointer-events="none"><text text-anchor="middle" transform="translate(375,30)" font-family="sans-serif" font-size="11px" font-weight="bold" fill="#000" opacity="1">λ</text></g></g><path class="foreground" aria-hidden="true" d="" pointer-events="none" display="none"></path></g></g><g class="mark-group role-axis" role="graphics-symbol" aria-roledescription="axis" aria-label="Y-axis titled 'mean' for a linear scale with values from 0.5 to 1.0"><g transform="translate(0.5,0.5)"><path class="background" aria-hidden="true" d="M0,0h0v0h0Z" pointer-events="none"></path><g><g class="mark-rule role-axis-tick" pointer-events="none"><line transform="translate(0,400)" x2="-5" y2="0" stroke="#888" stroke-width="1" opacity="1"></line><line transform="translate(0,360)" x2="-5" y2="0" stroke="#888" stroke-width="1" opacity="1"></line><line transform="translate(0,320)" x2="-5" y2="0" stroke="#888" stroke-width="1" opacity="1"></line><line transform="translate(0,280)" x2="-5" y2="0" stroke="#888" stroke-width="1" opacity="1"></line><line transform="translate(0,240)" x2="-5" y2="0" stroke="#888" stroke-width="1" opacity="1"></line><line transform="translate(0,200)" x2="-5" y2="0" stroke="#888" stroke-width="1" opacity="1"></line><line transform="translate(0,160)" x2="-5" y2="0" stroke="#888" stroke-width="1" opacity="1"></line><line transform="translate(0,120)" x2="-5" y2="0" stroke="#888" stroke-width="1" opacity="1"></line><line transform="translate(0,80)" x2="-5" y2="0" stroke="#888" stroke-width="1" opacity="1"></line><line transform="translate(0,40)" x2="-5" y2="0" stroke="#888" stroke-width="1" opacity="1"></line><line transform="translate(0,0)" x2="-5" y2="0" stroke="#888" stroke-width="1" opacity="1"></line></g><g class="mark-text role-axis-label" pointer-events="none"><text text-anchor="end" transform="translate(-7,403)" font-family="sans-serif" font-size="10px" fill="#000" opacity="1">0.50</text><text text-anchor="end" transform="translate(-7,362.99999999999994)" font-family="sans-serif" font-size="10px" fill="#000" opacity="1">0.55</text><text text-anchor="end" transform="translate(-7,323)" font-family="sans-serif" font-size="10px" fill="#000" opacity="1">0.60</text><text text-anchor="end" transform="translate(-7,283)" font-family="sans-serif" font-size="10px" fill="#000" opacity="1">0.65</text><text text-anchor="end" transform="translate(-7,243.00000000000003)" font-family="sans-serif" font-size="10px" fill="#000" opacity="1">0.70</text><text text-anchor="end" transform="translate(-7,203)" font-family="sans-serif" font-size="10px" fill="#000" opacity="1">0.75</text><text text-anchor="end" transform="translate(-7,162.99999999999997)" font-family="sans-serif" font-size="10px" fill="#000" opacity="1">0.80</text><text text-anchor="end" transform="translate(-7,123.00000000000001)" font-family="sans-serif" font-size="10px" fill="#000" opacity="1">0.85</text><text text-anchor="end" transform="translate(-7,82.99999999999999)" font-family="sans-serif" font-size="10px" fill="#000" opacity="1">0.90</text><text text-anchor="end" transform="translate(-7,43.000000000000036)" font-family="sans-serif" font-size="10px" fill="#000" opacity="1">0.95</text><text text-anchor="end" transform="translate(-7,3)" font-family="sans-serif" font-size="10px" fill="#000" opacity="1">1.00</text></g><g class="mark-rule role-axis-domain" pointer-events="none"><line transform="translate(0,400)" x2="0" y2="-400" stroke="#888" stroke-width="1" opacity="1"></line></g><g class="mark-text role-axis-title" pointer-events="none"><text text-anchor="middle" transform="translate(-32,200) rotate(-90) translate(0,-2)" font-family="sans-serif" font-size="11px" font-weight="bold" fill="#000" opacity="1">mean</text></g></g><path class="foreground" aria-hidden="true" d="" pointer-events="none" display="none"></path></g></g><g class="mark-group role-scope concat_1_layer_0_pathgroup" role="graphics-object" aria-roledescription="group mark container"><g transform="translate(0,0)"><path class="background" aria-hidden="true" d="M0,0h750v400h-750Z"></path><g><g class="mark-line role-mark concat_1_layer_0_marks" role="graphics-object" aria-roledescription="line mark container"><path aria-label="λ: 0.01; comparison: global-v-object; Mean of mean: 0.784165483931" role="graphics-symbol" aria-roledescription="line mark" d="M0,172.66761285553375L7.575757575757477,179.1799971492158L15.151515151515099,177.00644321922567L22.727272727272574,170.77644303200898L30.303030303030198,185.19315700456076L37.87878787878782,166.5513057457373L45.4545454545453,161.76156389379148L53.03030303030291,169.61707468012773L60.60606060606054,163.43372204726379L68.18181818181816,165.90913488595572L75.75757575757564,168.52649873736735L83.33333333333326,186.38131551920836L90.90909090909086,183.82829607359605L98.48484848484834,187.69279386493585L106.06060606060598,178.38512615492323L113.6363636363636,183.55485363768454L121.21212121212122,174.49662362499146L128.78787878787867,171.05519552407955L136.36363636363623,161.92223419519368L143.93939393939388,170.67414184289146L151.51515151515142,165.7742253495867L159.09090909090904,168.90663437397427L166.66666666666657,162.800958669692L174.24242424242428,171.69509983729972L181.81818181818173,160.14272165592328L189.3939393939393,168.56113593943158L196.9696969696969,166.77067169411862L204.54545454545445,174.85628191115845L212.12121212121207,154.50891158953777L219.69696969696966,156.30164672250845L227.2727272727272,154.57355663571528L234.84848484848482,165.20727019160208L242.42424242424235,158.864753726154L250,147.07623273278233L257.5757575757575,139.0866411863348L265.15151515151507,135.35715791764017L272.7272727272727,141.21619923922646L280.30303030303025,138.40090334907612L287.8787878787879,122.36006120481404L295.4545454545454,128.42079770574531L303.030303030303,131.48833205374987L310.60606060606057,142.16515412858382L318.18181818181813,154.7859988432375L325.75757575757575,141.0023799684823L333.3333333333333,136.39987099793203L340.90909090909093,144.66729469246874L348.4848484848484,148.3788801785436L356.06060606060595,141.27651199000857L363.6363636363636,153.51015365687672L371.21212121212113,163.3629228953553L378.78787878787875,159.29180628598124L386.36363636363626,148.0132687865562L393.9393939393939,148.9758533200571L401.51515151515144,155.80871614530903L409.09090909090907,156.5902864516345L416.66666666666663,165.87609333717666L424.24242424242414,165.2878559478517L431.81818181818176,171.92922180305104L439.3939393939393,165.35846780353472L446.96969696969694,168.88965308093907L454.54545454545445,181.6881628636102L462.1212121212121,181.9360719553834L469.69696969696963,188.2586928120184L477.27272727272725,186.76754589146034L484.8484848484849,212.30955264317126L492.42424242424244,232.00224583292712L500,247.49076650349622L507.5757575757576,257.75978536567123L515.1515151515151,272.8783972934976L522.7272727272726,281.7198336876901L530.3030303030303,296.53307789770133L537.8787878787879,295.32170128106935L545.4545454545455,294.3081378332402L553.030303030303,297.6398563938594L560.6060606060605,297.5425166178185L568.1818181818181,296.7175483509054L575.7575757575758,291.59755100086676L583.3333333333334,291.59755100086676L590.9090909090909,291.59755100086676L598.4848484848484,291.59755100086676L606.060606060606,291.59755100086676L613.6363636363636,291.59755100086676L621.2121212121211,291.59755100086676L628.7878787878788,291.59755100086676L636.3636363636363,291.59755100086676L643.9393939393939,291.59755100086676L651.5151515151515,291.59755100086676L659.0909090909091,291.59755100086676L666.6666666666666,291.59755100086676L674.2424242424242,291.59755100086676L681.8181818181819,291.59755100086676L689.3939393939394,291.59755100086676L696.969696969697,291.59755100086676L704.5454545454546,291.59755100086676L712.121212121212,291.59755100086676L719.6969696969696,291.59755100086676L727.2727272727273,291.59755100086676L734.8484848484849,291.59755100086676L742.4242424242424,291.59755100086676L750,291.59755100086676" stroke="#4c78a8" stroke-width="2"></path></g></g><path class="foreground" aria-hidden="true" d="" display="none"></path></g><g transform="translate(0,0)"><path class="background" aria-hidden="true" d="M0,0h750v400h-750Z"></path><g><g class="mark-line role-mark concat_1_layer_0_marks" role="graphics-object" aria-roledescription="line mark container"><path aria-label="λ: 0.01; comparison: global-v-spatial; Mean of mean: 0.965753946893" role="graphics-symbol" aria-roledescription="line mark" d="M0,27.396842485291018L7.575757575757477,25.951466071685836L15.151515151515099,24.285899434282232L22.727272727272574,21.422756510924224L30.303030303030198,24.618108725884458L37.87878787878782,21.676280256615676L45.4545454545453,22.179694862189336L53.03030303030291,24.4671426005862L60.60606060606054,21.165348157705566L68.18181818181816,19.669688925159434L75.75757575757564,22.27684947143098L83.33333333333326,22.27684947143098L90.90909090909086,20.878962649052557L98.48484848484834,17.57658906804176L106.06060606060598,13.513663265985354L113.6363636363636,15.310428062985793L121.21212121212122,15.354828107385465L128.78787878787867,15.539826036390192L136.36363636363623,18.327043281438993L143.93939393939388,14.925200616661982L151.51515151515142,13.15813234356984L159.09090909090904,18.07869991782116L166.66666666666657,17.757776250640944L174.24242424242428,11.876980136784265L181.81818181818173,13.544906165547044L189.3939393939393,13.877296500897884L196.9696969696969,17.063433493751123L204.54545454545445,11.709878031717125L212.12121212121207,10.30333178104259L219.69696969696966,12.25236505741405L227.2727272727272,10.366161878449276L234.84848484848482,12.000806678468212L242.42424242424235,21.954080379770247L250,14.286714054974947L257.5757575757575,9.825874903739251L265.15151515151507,15.144279538680117L272.7272727272727,16.308579959248792L280.30303030303025,18.1879854031191L287.8787878787879,18.084746275489483L295.4545454545454,14.063124611313782L303.030303030303,11.940726406135038L310.60606060606057,14.57805582666234L318.18181818181813,17.62703676025863L325.75757575757575,20.21004424171675L333.3333333333333,19.30365427209839L340.90909090909093,23.166366386492587L348.4848484848484,22.259938401140555L356.06060606060595,24.512597175539153L363.6363636363636,27.32356611619231L371.21212121212113,24.487436482627345L378.78787878787875,27.713464829140655L386.36363636363626,33.92132579208207L393.9393939393939,33.81538294214259L401.51515151515144,34.0932178263067L409.09090909090907,34.95300448929201L416.66666666666663,37.54798490954494L424.24242424242414,43.96658458986833L431.81818181818176,45.94740307734888L439.3939393939393,56.06785391992845L446.96969696969694,66.17409389979265L454.54545454545445,83.14562088200405L462.1212121212121,96.01291526926916L469.69696969696963,103.13724303146836L477.27272727272725,115.20436837133036L484.8484848484849,125.20560984548696L492.42424242424244,139.497209170701L500,157.0515836719105L507.5757575757576,160.11340480464744L515.1515151515151,169.23006637070736L522.7272727272726,169.84243876802284L530.3030303030303,175.10436853635198L537.8787878787879,171.96863275037168L545.4545454545455,166.9266708239312L553.030303030303,169.8158566824927L560.6060606060605,170.79417774294495L568.1818181818181,168.88826269060368L575.7575757575758,168.88826269060368L583.3333333333334,168.88826269060368L590.9090909090909,168.88826269060368L598.4848484848484,168.88826269060368L606.060606060606,168.88826269060368L613.6363636363636,168.88826269060368L621.2121212121211,168.88826269060368L628.7878787878788,168.88826269060368L636.3636363636363,168.88826269060368L643.9393939393939,168.88826269060368L651.5151515151515,168.88826269060368L659.0909090909091,168.88826269060368L666.6666666666666,168.88826269060368L674.2424242424242,168.88826269060368L681.8181818181819,168.88826269060368L689.3939393939394,168.88826269060368L696.969696969697,168.88826269060368L704.5454545454546,168.88826269060368L712.121212121212,168.88826269060368L719.6969696969696,168.88826269060368L727.2727272727273,168.88826269060368L734.8484848484849,168.88826269060368L742.4242424242424,168.88826269060368L750,168.88826269060368" stroke="#f58518" stroke-width="2"></path></g></g><path class="foreground" aria-hidden="true" d="" display="none"></path></g></g><g class="mark-group role-scope concat_1_layer_1_layer_0_pathgroup" role="graphics-object" aria-roledescription="group mark container"><g transform="translate(0,0)"><path class="background" aria-hidden="true" d="M0,0h750v400h-750Z"></path><g><g class="mark-area role-mark concat_1_layer_1_layer_0_marks" role="graphics-object" aria-roledescription="area mark container"><path aria-label="mean: 0.768861069007; upper_mean: 0.799469898854; λ: 0.01; comparison: global-v-object; Mean of mean: 0.784165483931; Mean + stderr of mean: 0.799469898854; Mean - stderr of mean: 0.768861069007" role="graphics-symbol" aria-roledescription="errorband" d="M0,184.91114479438852L7.575757575757477,191.8196191810159L15.151515151515099,189.70971919941667L22.727272727272574,183.38421617416972L30.303030303030198,198.3390295641243L37.87878787878782,179.0769645279596L45.4545454545453,174.45781415078895L53.03030303030291,182.55585845647647L60.60606060606054,176.56828626026098L68.18181818181816,178.86634366982827L75.75757575757564,181.36443935890424L83.33333333333326,199.50104649753993L90.90909090909086,197.08608858570918L98.48484848484834,201.28321110252932L106.06060606060598,191.97354641619773L113.6363636363636,197.2984556684639L121.21212121212122,188.25142385352694L128.78787878787867,185.0136993683539L136.36363636363623,175.854350109804L143.93939393939388,184.24078791356368L151.51515151515142,179.2188628224503L159.09090909090904,182.55908588325588L166.66666666666657,176.83328742958366L174.24242424242428,186.04673776206323L181.81818181818173,175.09299296699172L189.3939393939393,183.30318891283167L196.9696969696969,180.98533019566085L204.54545454545445,189.94186088920398L212.12121212121207,169.04447484455903L219.69696969696966,171.20418707404747L227.2727272727272,169.2655530718005L234.84848484848482,180.68938283087465L242.42424242424235,173.72118435106518L250,162.030353137789L257.5757575757575,154.0026725744327L265.15151515151507,149.5534184068978L272.7272727272727,155.5220252877091L280.30303030303025,152.52407663929722L287.8787878787879,136.4924481673474L295.4545454545454,142.7611509604085L303.030303030303,145.77694399655607L310.60606060606057,157.54604435522418L318.18181818181813,170.74894202009682L325.75757575757575,155.86628662014607L333.3333333333333,150.62050714026026L340.90909090909093,158.79482314916754L348.4848484848484,162.67029273235235L356.06060606060595,154.53247266914332L363.6363636363636,167.85568675375214L371.21212121212113,177.1716350150629L378.78787878787875,173.64857586251566L386.36363636363626,161.56908826109745L393.9393939393939,162.47922408277242L401.51515151515144,168.90860198419463L409.09090909090907,169.29142037977786L416.66666666666663,178.76817818037853L424.24242424242414,178.00562352092467L431.81818181818176,184.7790697251062L439.3939393939393,177.9790800964861L446.96969696969694,181.6356004602488L454.54545454545445,194.76239444766355L462.1212121212121,195.03986162757388L469.69696969696963,201.19285392441134L477.27272727272725,199.9842663830015L484.8484848484849,225.54385520036826L492.42424242424244,244.64602327617467L500,259.7807972714171L507.5757575757576,269.78524348975094L515.1515151515151,284.08822658044494L522.7272727272726,292.2883152349595L530.3030303030303,305.61386472417774L537.8787878787879,304.84811665501456L545.4545454545455,304.77484702587566L553.030303030303,309.3232336027089L560.6060606060605,310.40786829799646L568.1818181818181,310.9583855996078L575.7575757575758,307.3318663947527L583.3333333333334,307.3318663947527L590.9090909090909,307.3318663947527L598.4848484848484,307.3318663947527L606.060606060606,307.3318663947527L613.6363636363636,307.3318663947527L621.2121212121211,307.3318663947527L628.7878787878788,307.3318663947527L636.3636363636363,307.3318663947527L643.9393939393939,307.3318663947527L651.5151515151515,307.3318663947527L659.0909090909091,307.3318663947527L666.6666666666666,307.3318663947527L674.2424242424242,307.3318663947527L681.8181818181819,307.3318663947527L689.3939393939394,307.3318663947527L696.969696969697,307.3318663947527L704.5454545454546,307.3318663947527L712.121212121212,307.3318663947527L719.6969696969696,307.3318663947527L727.2727272727273,307.3318663947527L734.8484848484849,307.3318663947527L742.4242424242424,307.3318663947527L750,307.3318663947527L750,275.8632356069809L742.4242424242424,275.8632356069809L734.8484848484849,275.8632356069809L727.2727272727273,275.8632356069809L719.6969696969696,275.8632356069809L712.121212121212,275.8632356069809L704.5454545454546,275.8632356069809L696.969696969697,275.8632356069809L689.3939393939394,275.8632356069809L681.8181818181819,275.8632356069809L674.2424242424242,275.8632356069809L666.6666666666666,275.8632356069809L659.0909090909091,275.8632356069809L651.5151515151515,275.8632356069809L643.9393939393939,275.8632356069809L636.3636363636363,275.8632356069809L628.7878787878788,275.8632356069809L621.2121212121211,275.8632356069809L613.6363636363636,275.8632356069809L606.060606060606,275.8632356069809L598.4848484848484,275.8632356069809L590.9090909090909,275.8632356069809L583.3333333333334,275.8632356069809L575.7575757575758,275.8632356069809L568.1818181818181,282.476711102203L560.6060606060605,284.67716493764044L553.030303030303,285.9564791850099L545.4545454545455,283.84142864060476L537.8787878787879,285.7952859071241L530.3030303030303,287.4522910712249L522.7272727272726,271.1513521404207L515.1515151515151,261.6685680065503L507.5757575757576,245.73432724159153L500,235.20073573557534L492.42424242424244,219.35846838967956L484.8484848484849,199.07525008597426L477.27272727272725,173.55082539991918L469.69696969696963,175.32453169962548L462.1212121212121,168.8322822831929L454.54545454545445,168.6139312795568L446.96969696969694,156.14370570162936L439.3939393939393,152.7378555105834L431.81818181818176,159.07937388099586L424.24242424242414,152.57008837477875L416.66666666666663,152.98400849397478L409.09090909090907,143.88915252349113L401.51515151515144,142.70883030642347L393.9393939393939,135.47248255734178L386.36363636363626,134.45744931201497L378.78787878787875,144.93503670944685L371.21212121212113,149.5542107756477L363.6363636363636,139.1646205600013L356.06060606060595,128.02055131087383L348.4848484848484,134.0874676247348L340.90909090909093,130.53976623576995L333.3333333333333,122.1792348556038L325.75757575757575,126.13847331681853L318.18181818181813,138.8230556663782L310.60606060606057,126.78426390194346L303.030303030303,117.19972011094369L295.4545454545454,114.08044445108212L287.8787878787879,108.2276742422807L280.30303030303025,124.27773005885498L272.7272727272727,126.91037319074381L265.15151515151507,121.16089742838253L257.5757575757575,124.17060979823687L250,132.12211232777565L242.42424242424235,144.00832310124284L234.84848484848482,149.7251575523295L227.2727272727272,139.8815601996301L219.69696969696966,141.39910637096946L212.12121212121207,139.97334833451652L204.54545454545445,159.77070293311294L196.9696969696969,152.55601319257642L189.3939393939393,153.8190829660315L181.81818181818173,145.19245034485488L174.24242424242428,157.34346191253624L166.66666666666657,148.76862990980032L159.09090909090904,155.25418286469267L151.51515151515142,152.32958787672305L143.93939393939388,157.10749577221924L136.36363636363623,147.99011828058335L128.78787878787867,157.0966916798052L121.21212121212122,160.74182339645597L113.6363636363636,169.81125160690516L106.06060606060598,164.79670589364872L98.48484848484834,174.10237662734235L90.90909090909086,170.57050356148292L83.33333333333326,173.26158454087678L75.75757575757564,155.6885581158305L68.18181818181816,152.9519261020832L60.60606060606054,150.2991578342666L53.03030303030291,156.678290903779L45.4545454545453,149.065313636794L37.87878787878782,154.025646963515L30.303030303030198,172.04728444499722L22.727272727272574,158.16866988984825L15.151515151515099,164.30316723903468L7.575757575757477,166.5403751174157L0,160.42408091667895Z" fill="#4c78a8" opacity="0.3"></path></g></g><path class="foreground" aria-hidden="true" d="" display="none"></path></g><g transform="translate(0,0)"><path class="background" aria-hidden="true" d="M0,0h750v400h-750Z"></path><g><g class="mark-area role-mark concat_1_layer_1_layer_0_marks" role="graphics-object" aria-roledescription="area mark container"><path aria-label="mean: 0.954616765667; upper_mean: 0.97689112812; λ: 0.01; comparison: global-v-spatial; Mean of mean: 0.965753946893; Mean + stderr of mean: 0.97689112812; Mean - stderr of mean: 0.954616765667" role="graphics-symbol" aria-roledescription="errorband" d="M0,36.30658746647768L7.575757575757477,34.55350068549264L15.151515151515099,32.702378025773626L22.727272727272574,28.931210500173865L30.303030303030198,32.730447431080556L37.87878787878782,29.2717031089456L45.4545454545453,29.647519288488233L53.03030303030291,31.979811067085695L60.60606060606054,27.947401491023616L68.18181818181816,26.323564907792285L75.75757575757564,29.4096588698447L83.33333333333326,29.4096588698447L90.90909090909086,27.62001520469024L98.48484848484834,23.511148388589742L106.06060606060598,19.02908876884215L113.6363636363636,21.46395909706662L121.21212121212122,21.517278089950143L128.78787878787867,21.775350450247366L136.36363636363623,24.82472592915732L143.93939393939388,20.516513415172177L151.51515151515142,17.923669758884753L159.09090909090904,25.019749311870054L166.66666666666657,24.57773244964745L174.24242424242428,16.64465616324513L181.81818181818173,18.99104516913326L189.3939393939393,19.45494369867742L196.9696969696969,23.03239861981652L204.54545454545445,15.77388928913459L212.12121212121207,14.134229908277884L219.69696969696966,17.297384649231073L227.2727272727272,14.225676054185588L234.84848484848482,16.163482456895917L242.42424242424235,29.558820038760736L250,19.698593417710608L257.5757575757575,14.670124655252792L265.15151515151507,21.470788512271533L272.7272727272727,22.633666110329553L280.30303030303025,24.794030138741796L287.8787878787879,24.668560761632108L295.4545454545454,19.404702307271027L303.030303030303,16.079412509989854L310.60606060606057,19.63807227315666L318.18181818181813,23.512407029825155L325.75757575757575,26.306701049928094L333.3333333333333,25.33003200216335L340.90909090909093,29.71013328610219L348.4848484848484,28.232201407102497L356.06060606060595,30.752947979323864L363.6363636363636,33.796974603129556L371.21212121212113,30.322353485525433L378.78787878787875,33.76553237795736L386.36363636363626,40.892361392642314L393.9393939393939,40.94180076351108L401.51515151515144,40.77345689838259L409.09090909090907,41.87204374628308L416.66666666666663,44.80145170907441L424.24242424242414,51.59834543273716L431.81818181818176,53.76320987537122L439.3939393939393,64.58219939444865L446.96969696969694,75.64118985769115L454.54545454545445,93.19539604914624L462.1212121212121,106.56507932671113L469.69696969696963,112.95729037765909L477.27272727272725,125.18273005001666L484.8484848484849,134.78407325397086L492.42424242424244,148.36347230592173L500,164.52827222549092L507.5757575757576,167.15902215626954L515.1515151515151,175.52659878151832L522.7272727272726,175.92404048490158L530.3030303030303,180.9453776392891L537.8787878787879,178.7060777057002L545.4545454545455,174.7482791036216L553.030303030303,179.3151076736394L560.6060606060605,182.0952261855659L568.1818181818181,180.65058538744677L575.7575757575758,180.65058538744677L583.3333333333334,180.65058538744677L590.9090909090909,180.65058538744677L598.4848484848484,180.65058538744677L606.060606060606,180.65058538744677L613.6363636363636,180.65058538744677L621.2121212121211,180.65058538744677L628.7878787878788,180.65058538744677L636.3636363636363,180.65058538744677L643.9393939393939,180.65058538744677L651.5151515151515,180.65058538744677L659.0909090909091,180.65058538744677L666.6666666666666,180.65058538744677L674.2424242424242,180.65058538744677L681.8181818181819,180.65058538744677L689.3939393939394,180.65058538744677L696.969696969697,180.65058538744677L704.5454545454546,180.65058538744677L712.121212121212,180.65058538744677L719.6969696969696,180.65058538744677L727.2727272727273,180.65058538744677L734.8484848484849,180.65058538744677L742.4242424242424,180.65058538744677L750,180.65058538744677L750,157.1259399937606L742.4242424242424,157.1259399937606L734.8484848484849,157.1259399937606L727.2727272727273,157.1259399937606L719.6969696969696,157.1259399937606L712.121212121212,157.1259399937606L704.5454545454546,157.1259399937606L696.969696969697,157.1259399937606L689.3939393939394,157.1259399937606L681.8181818181819,157.1259399937606L674.2424242424242,157.1259399937606L666.6666666666666,157.1259399937606L659.0909090909091,157.1259399937606L651.5151515151515,157.1259399937606L643.9393939393939,157.1259399937606L636.3636363636363,157.1259399937606L628.7878787878788,157.1259399937606L621.2121212121211,157.1259399937606L613.6363636363636,157.1259399937606L606.060606060606,157.1259399937606L598.4848484848484,157.1259399937606L590.9090909090909,157.1259399937606L583.3333333333334,157.1259399937606L575.7575757575758,157.1259399937606L568.1818181818181,157.1259399937606L560.6060606060605,159.49312930032403L553.030303030303,160.31660569134596L545.4545454545455,159.1050625442408L537.8787878787879,165.23118779504316L530.3030303030303,169.26335943341488L522.7272727272726,163.76083705114414L515.1515151515151,162.93353395989644L507.5757575757576,153.06778745302535L500,149.5748951183301L492.42424242424244,130.6309460354803L484.8484848484849,115.62714643700306L477.27272727272725,105.22600669264408L469.69696969696963,93.31719568527762L462.1212121212121,85.46075121182719L454.54545454545445,73.09584571486187L446.96969696969694,56.70699794189416L439.3939393939393,47.55350844540827L431.81818181818176,38.131596279326544L424.24242424242414,36.334823746999504L416.66666666666663,30.294518110015467L409.09090909090907,28.03396523230095L401.51515151515144,27.41297875423081L393.9393939393939,26.6889651207741L386.36363636363626,26.95029019152182L378.78787878787875,21.661397280323946L371.21212121212113,18.652519479729257L363.6363636363636,20.85015762925506L356.06060606060595,18.27224637175444L348.4848484848484,16.287675395178614L340.90909090909093,16.622599486882983L333.3333333333333,13.277276542033434L325.75757575757575,14.113387433505409L318.18181818181813,11.741666490692104L310.60606060606057,9.51803938016802L303.030303030303,7.802040302280222L295.4545454545454,8.721546915356537L287.8787878787879,11.500931789346858L280.30303030303025,11.581940667496404L272.7272727272727,9.983493808168031L265.15151515151507,8.8177705650887L257.5757575757575,4.9816251522257105L250,8.874834692239286L242.42424242424235,14.349340720779757L234.84848484848482,7.8381309000405075L227.2727272727272,6.506647702712964L219.69696969696966,7.207345465597026L212.12121212121207,6.472433653807297L204.54545454545445,7.645866774299659L196.9696969696969,11.094468367685728L189.3939393939393,8.29964930311835L181.81818181818173,8.09876716196083L174.24242424242428,7.1093041103234L166.66666666666657,10.93782005163444L159.09090909090904,11.137650523772269L151.51515151515142,8.392594928254926L143.93939393939388,9.333887818151787L136.36363636363623,11.829360633720665L128.78787878787867,9.304301622533018L121.21212121212122,9.192378124820788L113.6363636363636,9.156897028904964L106.06060606060598,7.998237763128557L98.48484848484834,11.642029747493776L90.90909090909086,14.137910093414874L83.33333333333326,15.144040073017262L75.75757575757564,15.144040073017262L68.18181818181816,13.015812942526583L60.60606060606054,14.383294824387516L53.03030303030291,16.954474134086706L45.4545454545453,14.71187043589044L37.87878787878782,14.080857404285751L30.303030303030198,16.50577002068836L22.727272727272574,13.914302521674582L15.151515151515099,15.869420842790838L7.575757575757477,17.34943145787904L0,18.487097504104355Z" fill="#f58518" opacity="0.3"></path></g></g><path class="foreground" aria-hidden="true" d="" display="none"></path></g></g></g><path class="foreground" aria-hidden="true" d="" display="none"></path></g></g><g class="mark-group role-legend" role="graphics-symbol" aria-roledescription="legend" aria-label="Symbol legend titled 'comparison' for fill color and stroke color with 2 values: global-v-object, global-v-spatial"><g transform="translate(771,0)"><path class="background" aria-hidden="true" d="M0,0h93v45h-93Z" pointer-events="none"></path><g><g class="mark-group role-legend-entry"><g transform="translate(0,16)"><path class="background" aria-hidden="true" d="M0,0h0v0h0Z" pointer-events="none"></path><g><g class="mark-group role-scope" role="graphics-object" aria-roledescription="group mark container"><g transform="translate(0,0)"><path class="background" aria-hidden="true" d="M0,0h93v12.5h-93Z" pointer-events="none" opacity="1"></path><g><g class="mark-symbol role-legend-symbol" pointer-events="none"><path transform="translate(6,6)" d="M5,0A5,5,0,1,1,-5,0A5,5,0,1,1,5,0" fill="#4c78a8" stroke="#4c78a8" stroke-width="1.5" opacity="0.3"></path></g><g class="mark-text role-legend-label" pointer-events="none"><text text-anchor="start" transform="translate(16,9)" font-family="sans-serif" font-size="10px" fill="#000" opacity="1">global-v-object</text></g></g><path class="foreground" aria-hidden="true" d="" pointer-events="none" display="none"></path></g><g transform="translate(0,16)"><path class="background" aria-hidden="true" d="M0,0h93v12.5h-93Z" pointer-events="none" opacity="1"></path><g><g class="mark-symbol role-legend-symbol" pointer-events="none"><path transform="translate(6,6)" d="M5,0A5,5,0,1,1,-5,0A5,5,0,1,1,5,0" fill="#f58518" stroke="#f58518" stroke-width="1.5" opacity="0.3"></path></g><g class="mark-text role-legend-label" pointer-events="none"><text text-anchor="start" transform="translate(16,9)" font-family="sans-serif" font-size="10px" fill="#000" opacity="1">global-v-spatial</text></g></g><path class="foreground" aria-hidden="true" d="" pointer-events="none" display="none"></path></g></g></g><path class="foreground" aria-hidden="true" d="" pointer-events="none" display="none"></path></g></g><g class="mark-text role-legend-title" pointer-events="none"><text text-anchor="start" transform="translate(0,9)" font-family="sans-serif" font-size="11px" font-weight="bold" fill="#000" opacity="1">comparison</text></g></g><path class="foreground" aria-hidden="true" d="" pointer-events="none" display="none"></path></g></g></g><path class="foreground" aria-hidden="true" d="" display="none"></path></g></g></g></svg>
