<?xml version="1.0" encoding="utf-8"?>
<!DOCTYPE svg PUBLIC "-//W3C//DTD SVG 1.1//EN" "http://www.w3.org/Graphics/SVG/1.1/DTD/svg11.dtd">
<svg class="marks" width="283" height="242" viewBox="0 0 283 242" version="1.1" xmlns="http://www.w3.org/2000/svg" xmlns:xlink="http://www.w3.org/1999/xlink"><rect width="283" height="242" fill="white"></rect><g fill="none" stroke-miterlimit="10" transform="translate(33,5)"><g class="mark-group role-frame root" role="graphics-object" aria-roledescription="group mark container"><g transform="translate(0,0)"><path class="background" aria-hidden="true" d="M0.5,0.5h200v200h-200Z" stroke="#ddd"></path><g><g class="mark-group role-axis" aria-hidden="true"><g transform="translate(0.5,200.5)"><path class="background" aria-hidden="true" d="M0,0h0v0h0Z" pointer-events="none"></path><g><g class="mark-rule role-axis-grid" pointer-events="none"><line transform="translate(0,-200)" x2="0" y2="200" stroke="#ddd" stroke-width="1" opacity="1"></line><line transform="translate(30,-200)" x2="0" y2="200" stroke="#ddd" stroke-width="1" opacity="1"></line><line transform="translate(48,-200)" x2="0" y2="200" stroke="#ddd" stroke-width="1" opacity="1"></line><line transform="translate(60,-200)" x2="0" y2="200" stroke="#ddd" stroke-width="1" opacity="1"></line><line transform="translate(70,-200)" x2="0" y2="200" stroke="#ddd" stroke-width="1" opacity="1"></line><line transform="translate(78,-200)" x2="0" y2="200" stroke="#ddd" stroke-width="1" opacity="1"></line><line transform="translate(85,-200)" x2="0" y2="200" stroke="#ddd" stroke-width="1" opacity="1"></line><line transform="translate(90,-200)" x2="0" y2="200" stroke="#ddd" stroke-width="1" opacity="1"></line><line transform="translate(95,-200)" x2="0" y2="200" stroke="#ddd" stroke-width="1" opacity="1"></line><line transform="translate(100,-200)" x2="0" y2="200" stroke="#ddd" stroke-width="1" opacity="1"></line><line transform="translate(130,-200)" x2="0" y2="200" stroke="#ddd" stroke-width="1" opacity="1"></line><line transform="translate(148,-200)" x2="0" y2="200" stroke="#ddd" stroke-width="1" opacity="1"></line><line transform="translate(160,-200)" x2="0" y2="200" stroke="#ddd" stroke-width="1" opacity="1"></line><line transform="translate(170,-200)" x2="0" y2="200" stroke="#ddd" stroke-width="1" opacity="1"></line><line transform="translate(178,-200)" x2="0" y2="200" stroke="#ddd" stroke-width="1" opacity="1"></line><line transform="translate(185,-200)" x2="0" y2="200" stroke="#ddd" stroke-width="1" opacity="1"></line><line transform="translate(190,-200)" x2="0" y2="200" stroke="#ddd" stroke-width="1" opacity="1"></line><line transform="translate(195,-200)" x2="0" y2="200" stroke="#ddd" stroke-width="1" opacity="1"></line><line transform="translate(200,-200)" x2="0" y2="200" stroke="#ddd" stroke-width="1" opacity="1"></line></g></g><path class="foreground" aria-hidden="true" d="" pointer-events="none" display="none"></path></g></g><g class="mark-group role-axis" aria-hidden="true"><g transform="translate(0.5,0.5)"><path class="background" aria-hidden="true" d="M0,0h0v0h0Z" pointer-events="none"></path><g><g class="mark-rule role-axis-grid" pointer-events="none"><line transform="translate(0,175)" x2="200" y2="0" stroke="#ddd" stroke-width="1" opacity="1"></line><line transform="translate(0,125)" x2="200" y2="0" stroke="#ddd" stroke-width="1" opacity="1"></line><line transform="translate(0,75)" x2="200" y2="0" stroke="#ddd" stroke-width="1" opacity="1"></line><line transform="translate(0,25)" x2="200" y2="0" stroke="#ddd" stroke-width="1" opacity="1"></line></g></g><path class="foreground" aria-hidden="true" d="" pointer-events="none" display="none"></path></g></g><g class="mark-group role-axis" role="graphics-symbol" aria-roledescription="axis" aria-label="X-axis titled '位' for a log scale with values from 0.01 to 1"><g transform="translate(0.5,200.5)"><path class="background" aria-hidden="true" d="M0,0h0v0h0Z" pointer-events="none"></path><g><g class="mark-rule role-axis-tick" pointer-events="none"><line transform="translate(0,0)" x2="0" y2="5" stroke="#888" stroke-width="1" opacity="1"></line><line transform="translate(30,0)" x2="0" y2="5" stroke="#888" stroke-width="1" opacity="1"></line><line transform="translate(48,0)" x2="0" y2="5" stroke="#888" stroke-width="1" opacity="1"></line><line transform="translate(60,0)" x2="0" y2="5" stroke="#888" stroke-width="1" opacity="1"></line><line transform="translate(70,0)" x2="0" y2="5" stroke="#888" stroke-width="1" opacity="1"></line><line transform="translate(78,0)" x2="0" y2="5" stroke="#888" stroke-width="1" opacity="1"></line><line transform="translate(85,0)" x2="0" y2="5" stroke="#888" stroke-width="1" opacity="1"></line><line transform="translate(90,0)" x2="0" y2="5" stroke="#888" stroke-width="1" opacity="1"></line><line transform="translate(95,0)" x2="0" y2="5" stroke="#888" stroke-width="1" opacity="1"></line><line transform="translate(100,0)" x2="0" y2="5" stroke="#888" stroke-width="1" opacity="1"></line><line transform="translate(130,0)" x2="0" y2="5" stroke="#888" stroke-width="1" opacity="1"></line><line transform="translate(148,0)" x2="0" y2="5" stroke="#888" stroke-width="1" opacity="1"></line><line transform="translate(160,0)" x2="0" y2="5" stroke="#888" stroke-width="1" opacity="1"></line><line transform="translate(170,0)" x2="0" y2="5" stroke="#888" stroke-width="1" opacity="1"></line><line transform="translate(178,0)" x2="0" y2="5" stroke="#888" stroke-width="1" opacity="1"></line><line transform="translate(185,0)" x2="0" y2="5" stroke="#888" stroke-width="1" opacity="1"></line><line transform="translate(190,0)" x2="0" y2="5" stroke="#888" stroke-width="1" opacity="1"></line><line transform="translate(195,0)" x2="0" y2="5" stroke="#888" stroke-width="1" opacity="1"></line><line transform="translate(200,0)" x2="0" y2="5" stroke="#888" stroke-width="1" opacity="1"></line></g><g class="mark-text role-axis-label" pointer-events="none"><text text-anchor="start" transform="translate(0,15)" font-family="sans-serif" font-size="10px" fill="#000" opacity="1">0.01</text><text text-anchor="middle" transform="translate(30.102999566398108,15)" font-family="sans-serif" font-size="10px" fill="#000" opacity="0">0.02</text><text text-anchor="middle" transform="translate(47.712125471966225,15)" font-family="sans-serif" font-size="10px" fill="#000" opacity="1">0.03</text><text text-anchor="middle" transform="translate(60.20599913279623,15)" font-family="sans-serif" font-size="10px" fill="#000" opacity="0">0.04</text><text text-anchor="middle" transform="translate(69.89700043360187,15)" font-family="sans-serif" font-size="10px" fill="#000" opacity="1">0.05</text><text text-anchor="middle" transform="translate(77.81512503836436,15)" font-family="sans-serif" font-size="10px" fill="#000" opacity="1"></text><text text-anchor="middle" transform="translate(84.50980400142568,15)" font-family="sans-serif" font-size="10px" fill="#000" opacity="1"></text><text text-anchor="middle" transform="translate(90.30899869919435,15)" font-family="sans-serif" font-size="10px" fill="#000" opacity="1"></text><text text-anchor="middle" transform="translate(95.42425094393249,15)" font-family="sans-serif" font-size="10px" fill="#000" opacity="1"></text><text text-anchor="middle" transform="translate(100,15)" font-family="sans-serif" font-size="10px" fill="#000" opacity="1">0.1</text><text text-anchor="middle" transform="translate(130.1029995663981,15)" font-family="sans-serif" font-size="10px" fill="#000" opacity="1">0.2</text><text text-anchor="middle" transform="translate(147.71212547196623,15)" font-family="sans-serif" font-size="10px" fill="#000" opacity="1">0.3</text><text text-anchor="middle" transform="translate(160.20599913279622,15)" font-family="sans-serif" font-size="10px" fill="#000" opacity="0">0.4</text><text text-anchor="middle" transform="translate(169.89700043360187,15)" font-family="sans-serif" font-size="10px" fill="#000" opacity="1">0.5</text><text text-anchor="middle" transform="translate(177.81512503836436,15)" font-family="sans-serif" font-size="10px" fill="#000" opacity="1"></text><text text-anchor="middle" transform="translate(184.50980400142566,15)" font-family="sans-serif" font-size="10px" fill="#000" opacity="1"></text><text text-anchor="middle" transform="translate(190.30899869919435,15)" font-family="sans-serif" font-size="10px" fill="#000" opacity="1"></text><text text-anchor="middle" transform="translate(195.4242509439325,15)" font-family="sans-serif" font-size="10px" fill="#000" opacity="1"></text><text text-anchor="end" transform="translate(200,15)" font-family="sans-serif" font-size="10px" fill="#000" opacity="1">1</text></g><g class="mark-rule role-axis-domain" pointer-events="none"><line transform="translate(0,0)" x2="200" y2="0" stroke="#888" stroke-width="1" opacity="1"></line></g><g class="mark-text role-axis-title" pointer-events="none"><text text-anchor="middle" transform="translate(100,30)" font-family="sans-serif" font-size="11px" font-weight="bold" fill="#000" opacity="1">位</text></g></g><path class="foreground" aria-hidden="true" d="" pointer-events="none" display="none"></path></g></g><g class="mark-group role-axis" role="graphics-symbol" aria-roledescription="axis" aria-label="Y-axis titled 'meandiff' for a linear scale with values from -1 to 4"><g transform="translate(0.5,0.5)"><path class="background" aria-hidden="true" d="M0,0h0v0h0Z" pointer-events="none"></path><g><g class="mark-rule role-axis-tick" pointer-events="none"><line transform="translate(0,175)" x2="-5" y2="0" stroke="#888" stroke-width="1" opacity="1"></line><line transform="translate(0,125)" x2="-5" y2="0" stroke="#888" stroke-width="1" opacity="1"></line><line transform="translate(0,75)" x2="-5" y2="0" stroke="#888" stroke-width="1" opacity="1"></line><line transform="translate(0,25)" x2="-5" y2="0" stroke="#888" stroke-width="1" opacity="1"></line></g><g class="mark-text role-axis-label" pointer-events="none"><text text-anchor="end" transform="translate(-7,178)" font-family="sans-serif" font-size="10px" fill="#000" opacity="1">0</text><text text-anchor="end" transform="translate(-7,128)" font-family="sans-serif" font-size="10px" fill="#000" opacity="1">1</text><text text-anchor="end" transform="translate(-7,78)" font-family="sans-serif" font-size="10px" fill="#000" opacity="1">2</text><text text-anchor="end" transform="translate(-7,28)" font-family="sans-serif" font-size="10px" fill="#000" opacity="1">3</text></g><g class="mark-rule role-axis-domain" pointer-events="none"><line transform="translate(0,200)" x2="0" y2="-200" stroke="#888" stroke-width="1" opacity="1"></line></g><g class="mark-text role-axis-title" pointer-events="none"><text text-anchor="middle" transform="translate(-17,100) rotate(-90) translate(0,-2)" font-family="sans-serif" font-size="11px" font-weight="bold" fill="#000" opacity="1">meandiff</text></g></g><path class="foreground" aria-hidden="true" d="" pointer-events="none" display="none"></path></g></g><g class="mark-group role-scope pathgroup" role="graphics-object" aria-roledescription="group mark container"><g transform="translate(0,0)"><path class="background" aria-hidden="true" d="M0,0h200v200h-200Z"></path><g><g class="mark-line role-mark marks" role="graphics-object" aria-roledescription="line mark container"><path aria-label="位: 0.01; meandiff: 3.01456265313; fold: 2" role="graphics-symbol" aria-roledescription="line mark" d="M0,24.271867343684495L2.0202020202019937,23.299654988327912L4.0404040404040265,23.656256775224026L6.06060606060602,23.704788131401955L8.080808080808053,22.21259320921305L10.101010101010084,20.870017348062287L12.121212121212078,20.71288944715144L14.14141414141411,20.25126362353045L16.161616161616145,19.325194841142235L18.181818181818173,20.17741157585997L20.20202020202017,22.566523016045515L22.2222222222222,22.606810264151477L24.24242424242423,19.090365096701632L26.262626262626227,16.51803038569262L28.28282828282826,18.600314406725293L30.303030303030294,22.520332961982614L32.323232323232325,23.41096920035728L34.34343434343432,21.54684934220883L36.36363636363633,20.814603473786008L38.383838383838366,22.024562438952366L40.40404040404037,22.512467730581065L42.42424242424241,21.55581598278884L44.44444444444442,21.16917052669063L46.46464646464648,21.459429652320928L48.48484848484846,20.21265831831178L50.50505050505048,17.6358272368756L52.52525252525251,16.81011683413971L54.54545454545452,18.846851534884834L56.56565656565655,21.631193274779427L58.585858585858574,23.517112453683797L60.60606060606059,24.744141318343637L62.626262626262616,25.295428757195747L64.64646464646464,24.277605723129604L66.66666666666666,21.551607655902984L68.68686868686868,18.34207643669623L70.70707070707068,16.339721040525255L72.72727272727272,16.632437636803065L74.74747474747473,18.56582569292131L76.76767676767676,19.565462246501486L78.78787878787877,17.705601332981402L80.8080808080808,14.533305264180928L82.82828282828282,13.316588077699532L84.84848484848484,14.553676330750086L86.86868686868686,15.77687590783925L88.88888888888889,15.846493225316415L90.90909090909092,16.39199246323788L92.9292929292929,18.289164192304106L94.94949494949492,19.74418900258288L96.96969696969697,19.468301873246176L98.98989898989896,19.184197529581493L101.010101010101,20.72821895957628L103.030303030303,22.711370111324335L105.05050505050504,22.62750010480561L107.07070707070704,20.673975899292294L109.09090909090908,19.123776087057507L111.1111111111111,19.406063303985977L113.1313131313131,21.630335393780097L115.15151515151514,25.345919064669364L117.17171717171715,29.524376326614576L119.19191919191918,33.37054270417232L121.21212121212119,37.345208607012026L123.23232323232322,41.62653065687378L125.25252525252523,44.68418073495188L127.27272727272727,46.236791915694766L129.2929292929293,49.94450599143065L131.31313131313132,58.72202092305956L133.33333333333331,68.79248173316621L135.35353535353536,74.82238340143003L137.37373737373736,80.69134250936231L139.39393939393938,96.65700683378091L141.41414141414143,123.7542494590434L143.43434343434342,149.87765040436506L145.45454545454547,164.80713122973302L147.47474747474746,170.71171414250216L149.49494949494948,174.2422339892816L151.5151515151515,176.7048350140732L153.53535353535352,176.58407636506993L155.55555555555557,175.1069738448872L157.57575757575756,174.60467626259972L159.59595959595958,175.058791978737L161.6161616161616,175.22381649163273L163.63636363636363,174.9681452441342L165.65656565656565,174.88128101751914L167.67676767676767,175.01690161160008L169.6969696969697,175.06272811320142L171.7171717171717,174.99106910113247L173.73737373737373,174.96688168342277L175.75757575757575,175.00471526574103L177.77777777777777,175.01748264438888L179.7979797979798,174.99751087923428L181.81818181818184,174.99077146914343L183.83838383838383,175.00131392732482L185.85858585858585,175.00487141740427L187.87878787878788,174.99930642537333L189.89898989898987,174.99742855264472L191.91919191919192,175.0003661103825L193.93939393939394,175.00135737556587L195.959595959596,174.9998067488703L197.97979797979798,174.99928348856827L200,175.00010200011263" stroke="#f58518" stroke-width="2"></path></g></g><path class="foreground" aria-hidden="true" d="" display="none"></path></g><g transform="translate(0,0)"><path class="background" aria-hidden="true" d="M0,0h200v200h-200Z"></path><g><g class="mark-line role-mark marks" role="graphics-object" aria-roledescription="line mark container"><path aria-label="位: 0.01; meandiff: 3.21919360457; fold: 1" role="graphics-symbol" aria-roledescription="line mark" d="M0,14.04031977153859L2.0202020202019937,14.374466137421638L4.0404040404040265,15.198636688465573L6.06060606060602,16.827144193069763L8.080808080808053,18.390607335389287L10.101010101010084,18.161199875702106L12.121212121212078,15.864112255669127L14.14141414141411,13.55205578970664L16.161616161616145,13.085285433099703L18.181818181818173,13.608694364280648L20.20202020202017,12.95246883859209L22.2222222222222,11.113518451502834L24.24242424242423,10.508282294409943L26.262626262626227,12.529936566878508L28.28282828282826,15.53853023665579L30.303030303030294,16.80963500167849L32.323232323232325,15.543900725377835L34.34343434343432,13.691049669926048L36.36363636363633,13.771607958035714L38.383838383838366,15.669155858226569L40.40404040404037,16.83505617561607L42.42424242424241,16.616057707263245L44.44444444444442,17.87034255644557L46.46464646464648,22.180470861382172L48.48484848484846,26.401876289695036L50.50505050505048,26.87934458770109L52.52525252525251,24.433650562146745L54.54545454545452,22.256597267788415L56.56565656565655,21.21128175888267L58.585858585858574,20.030531426084373L60.60606060606059,18.615702060741633L62.626262626262616,18.545260611952365L64.64646464646464,20.354292605563916L66.66666666666666,22.03342814719491L68.68686868686868,21.513946515445937L70.70707070707068,19.90791853478353L72.72727272727272,20.153718819520062L74.74747474747473,22.463754256086332L76.76767676767676,23.86833941498514L78.78787878787877,23.06546391691584L80.8080808080808,22.575309936619604L82.82828282828282,24.06067991881311L84.84848484848484,24.542471979441615L86.86868686868686,20.791286758280236L88.88888888888889,15.503282781416328L90.90909090909092,14.815210448887495L92.9292929292929,20.168330712892857L94.94949494949492,26.550073142020313L96.96969696969697,29.324304971367642L98.98989898989896,29.398918208418156L101.010101010101,30.039995791307362L103.030303030303,31.428893369516686L105.05050505050504,31.450607293345744L107.07070707070704,30.334178559796655L109.09090909090908,30.587710529361157L111.1111111111111,32.42300557366127L113.1313131313131,33.23560970404134L115.15151515151514,32.45376510625091L117.17171717171715,32.89680577032201L119.19191919191918,35.73197297502257L121.21212121212119,38.18963061443124L123.23232323232322,38.839247301001436L125.25252525252523,41.14193216319475L127.27272727272727,48.19464528489994L129.2929292929293,57.579380505816566L131.31313131313132,65.89931541346739L133.33333333333331,75.27224483452044L135.35353535353536,89.99045926233582L137.37373737373736,108.99312817889518L139.39393939393938,127.11223146498409L141.41414141414143,142.1280135780799L143.43434343434342,155.39214518141L145.45454545454547,166.7967537162385L147.47474747474746,174.03469158859352L149.49494949494948,176.4393548384102L151.5151515151515,176.10997468505195L153.53535353535352,175.35701232874607L155.55555555555557,175.01248310756912L157.57575757575756,174.96293556723984L159.59595959595958,174.99433196253364L161.6161616161616,175.01164623383804L163.63636363636363,175.00325122063236L165.65656565656565,174.99468837632236L167.67676767676767,174.99825642592927L169.6969696969697,175.00271555582265L171.7171717171717,175.00092325976513L173.73737373737373,174.9985758735087L175.75757575757575,174.99951233927828L177.77777777777777,175.0007507614584L179.7979797979798,175.00025745079552L181.81818181818184,174.9996038038856L183.83838383838383,174.9998640975305L185.85858585858585,175.00020912669422L187.87878787878788,175.0000717384828L189.89898989898987,174.9998896107428L191.91919191919192,174.99996213161347L193.93939393939394,175.00005827030668L195.959595959596,175.0000199897102L197.97979797979798,174.99996924138546L200,174.9999894474938" stroke="#4c78a8" stroke-width="2"></path></g></g><path class="foreground" aria-hidden="true" d="" display="none"></path></g></g><g class="mark-group role-legend" role="graphics-symbol" aria-roledescription="legend" aria-label="Symbol legend titled 'fold' for stroke color with 2 values: 1, 2"><g transform="translate(220,0)"><path class="background" aria-hidden="true" d="M0,0h25v40h-25Z" pointer-events="none"></path><g><g class="mark-group role-legend-entry"><g transform="translate(0,16)"><path class="background" aria-hidden="true" d="M0,0h0v0h0Z" pointer-events="none"></path><g><g class="mark-group role-scope" role="graphics-object" aria-roledescription="group mark container"><g transform="translate(0,0)"><path class="background" aria-hidden="true" d="M0,0h22v11h-22Z" pointer-events="none" opacity="1"></path><g><g class="mark-symbol role-legend-symbol" pointer-events="none"><path transform="translate(6,6)" d="M-5,0L5,0" stroke="#4c78a8" stroke-width="1.5" opacity="1"></path></g><g class="mark-text role-legend-label" pointer-events="none"><text text-anchor="start" transform="translate(16,9)" font-family="sans-serif" font-size="10px" fill="#000" opacity="1">1</text></g></g><path class="foreground" aria-hidden="true" d="" pointer-events="none" display="none"></path></g><g transform="translate(0,13)"><path class="background" aria-hidden="true" d="M0,0h22v11h-22Z" pointer-events="none" opacity="1"></path><g><g class="mark-symbol role-legend-symbol" pointer-events="none"><path transform="translate(6,6)" d="M-5,0L5,0" stroke="#f58518" stroke-width="1.5" opacity="1"></path></g><g class="mark-text role-legend-label" pointer-events="none"><text text-anchor="start" transform="translate(16,9)" font-family="sans-serif" font-size="10px" fill="#000" opacity="1">2</text></g></g><path class="foreground" aria-hidden="true" d="" pointer-events="none" display="none"></path></g></g></g><path class="foreground" aria-hidden="true" d="" pointer-events="none" display="none"></path></g></g><g class="mark-text role-legend-title" pointer-events="none"><text text-anchor="start" transform="translate(0,9)" font-family="sans-serif" font-size="11px" font-weight="bold" fill="#000" opacity="1">fold</text></g></g><path class="foreground" aria-hidden="true" d="" pointer-events="none" display="none"></path></g></g></g><path class="foreground" aria-hidden="true" d="" display="none"></path></g></g></g></svg>
