<?xml version="1.0" encoding="utf-8"?>
<!DOCTYPE svg PUBLIC "-//W3C//DTD SVG 1.1//EN" "http://www.w3.org/Graphics/SVG/1.1/DTD/svg11.dtd">
<svg class="marks" width="918" height="608" viewBox="0 0 918 608" version="1.1" xmlns="http://www.w3.org/2000/svg" xmlns:xlink="http://www.w3.org/1999/xlink"><rect width="918" height="608" fill="white"></rect><g fill="none" stroke-miterlimit="10" transform="translate(49,11)"><g class="mark-group role-frame root" role="graphics-object" aria-roledescription="group mark container"><g transform="translate(0,0)"><path class="background" aria-hidden="true" d="M0,0h750v0h-750Z"></path><g><g class="mark-group role-scope concat_0_group" role="graphics-object" aria-roledescription="group mark container"><g transform="translate(0,0)"><path class="background" aria-hidden="true" d="M0.5,0.5h750v100h-750Z" stroke="#ddd"></path><g><g class="mark-group role-axis" aria-hidden="true"><g transform="translate(0.5,100.5)"><path class="background" aria-hidden="true" d="M0,0h0v0h0Z" pointer-events="none"></path><g><g class="mark-rule role-axis-grid" pointer-events="none"><line transform="translate(0,-100)" x2="0" y2="100" stroke="#ddd" stroke-width="1" opacity="1"></line><line transform="translate(113,-100)" x2="0" y2="100" stroke="#ddd" stroke-width="1" opacity="1"></line><line transform="translate(179,-100)" x2="0" y2="100" stroke="#ddd" stroke-width="1" opacity="1"></line><line transform="translate(226,-100)" x2="0" y2="100" stroke="#ddd" stroke-width="1" opacity="1"></line><line transform="translate(262,-100)" x2="0" y2="100" stroke="#ddd" stroke-width="1" opacity="1"></line><line transform="translate(292,-100)" x2="0" y2="100" stroke="#ddd" stroke-width="1" opacity="1"></line><line transform="translate(317,-100)" x2="0" y2="100" stroke="#ddd" stroke-width="1" opacity="1"></line><line transform="translate(339,-100)" x2="0" y2="100" stroke="#ddd" stroke-width="1" opacity="1"></line><line transform="translate(358,-100)" x2="0" y2="100" stroke="#ddd" stroke-width="1" opacity="1"></line><line transform="translate(375,-100)" x2="0" y2="100" stroke="#ddd" stroke-width="1" opacity="1"></line><line transform="translate(488,-100)" x2="0" y2="100" stroke="#ddd" stroke-width="1" opacity="1"></line><line transform="translate(554,-100)" x2="0" y2="100" stroke="#ddd" stroke-width="1" opacity="1"></line><line transform="translate(601,-100)" x2="0" y2="100" stroke="#ddd" stroke-width="1" opacity="1"></line><line transform="translate(637,-100)" x2="0" y2="100" stroke="#ddd" stroke-width="1" opacity="1"></line><line transform="translate(667,-100)" x2="0" y2="100" stroke="#ddd" stroke-width="1" opacity="1"></line><line transform="translate(692,-100)" x2="0" y2="100" stroke="#ddd" stroke-width="1" opacity="1"></line><line transform="translate(714,-100)" x2="0" y2="100" stroke="#ddd" stroke-width="1" opacity="1"></line><line transform="translate(733,-100)" x2="0" y2="100" stroke="#ddd" stroke-width="1" opacity="1"></line><line transform="translate(750,-100)" x2="0" y2="100" stroke="#ddd" stroke-width="1" opacity="1"></line></g></g><path class="foreground" aria-hidden="true" d="" pointer-events="none" display="none"></path></g></g><g class="mark-group role-axis" aria-hidden="true"><g transform="translate(0.5,0.5)"><path class="background" aria-hidden="true" d="M0,0h0v0h0Z" pointer-events="none"></path><g><g class="mark-rule role-axis-grid" pointer-events="none"><line transform="translate(0,100)" x2="750" y2="0" stroke="#ddd" stroke-width="1" opacity="1"></line><line transform="translate(0,75)" x2="750" y2="0" stroke="#ddd" stroke-width="1" opacity="1"></line><line transform="translate(0,50)" x2="750" y2="0" stroke="#ddd" stroke-width="1" opacity="1"></line><line transform="translate(0,25)" x2="750" y2="0" stroke="#ddd" stroke-width="1" opacity="1"></line><line transform="translate(0,0)" x2="750" y2="0" stroke="#ddd" stroke-width="1" opacity="1"></line></g></g><path class="foreground" aria-hidden="true" d="" pointer-events="none" display="none"></path></g></g><g class="mark-group role-axis" role="graphics-symbol" aria-roledescription="axis" aria-label="X-axis titled 'λ' for a log scale with values from 0.01 to 1"><g transform="translate(0.5,100.5)"><path class="background" aria-hidden="true" d="M0,0h0v0h0Z" pointer-events="none"></path><g><g class="mark-rule role-axis-tick" pointer-events="none"><line transform="translate(0,0)" x2="0" y2="5" stroke="#888" stroke-width="1" opacity="1"></line><line transform="translate(113,0)" x2="0" y2="5" stroke="#888" stroke-width="1" opacity="1"></line><line transform="translate(179,0)" x2="0" y2="5" stroke="#888" stroke-width="1" opacity="1"></line><line transform="translate(226,0)" x2="0" y2="5" stroke="#888" stroke-width="1" opacity="1"></line><line transform="translate(262,0)" x2="0" y2="5" stroke="#888" stroke-width="1" opacity="1"></line><line transform="translate(292,0)" x2="0" y2="5" stroke="#888" stroke-width="1" opacity="1"></line><line transform="translate(317,0)" x2="0" y2="5" stroke="#888" stroke-width="1" opacity="1"></line><line transform="translate(339,0)" x2="0" y2="5" stroke="#888" stroke-width="1" opacity="1"></line><line transform="translate(358,0)" x2="0" y2="5" stroke="#888" stroke-width="1" opacity="1"></line><line transform="translate(375,0)" x2="0" y2="5" stroke="#888" stroke-width="1" opacity="1"></line><line transform="translate(488,0)" x2="0" y2="5" stroke="#888" stroke-width="1" opacity="1"></line><line transform="translate(554,0)" x2="0" y2="5" stroke="#888" stroke-width="1" opacity="1"></line><line transform="translate(601,0)" x2="0" y2="5" stroke="#888" stroke-width="1" opacity="1"></line><line transform="translate(637,0)" x2="0" y2="5" stroke="#888" stroke-width="1" opacity="1"></line><line transform="translate(667,0)" x2="0" y2="5" stroke="#888" stroke-width="1" opacity="1"></line><line transform="translate(692,0)" x2="0" y2="5" stroke="#888" stroke-width="1" opacity="1"></line><line transform="translate(714,0)" x2="0" y2="5" stroke="#888" stroke-width="1" opacity="1"></line><line transform="translate(733,0)" x2="0" y2="5" stroke="#888" stroke-width="1" opacity="1"></line><line transform="translate(750,0)" x2="0" y2="5" stroke="#888" stroke-width="1" opacity="1"></line></g><g class="mark-text role-axis-label" pointer-events="none"><text text-anchor="start" transform="translate(0,15)" font-family="sans-serif" font-size="10px" fill="#000" opacity="1">0.01</text><text text-anchor="middle" transform="translate(112.88624837399291,15)" font-family="sans-serif" font-size="10px" fill="#000" opacity="1">0.02</text><text text-anchor="middle" transform="translate(178.92047051987333,15)" font-family="sans-serif" font-size="10px" fill="#000" opacity="1">0.03</text><text text-anchor="middle" transform="translate(225.77249674798585,15)" font-family="sans-serif" font-size="10px" fill="#000" opacity="1">0.04</text><text text-anchor="middle" transform="translate(262.113751626007,15)" font-family="sans-serif" font-size="10px" fill="#000" opacity="1">0.05</text><text text-anchor="middle" transform="translate(291.80671889386633,15)" font-family="sans-serif" font-size="10px" fill="#000" opacity="1"></text><text text-anchor="middle" transform="translate(316.9117650053463,15)" font-family="sans-serif" font-size="10px" fill="#000" opacity="1"></text><text text-anchor="middle" transform="translate(338.65874512197877,15)" font-family="sans-serif" font-size="10px" fill="#000" opacity="1"></text><text text-anchor="middle" transform="translate(357.84094103974684,15)" font-family="sans-serif" font-size="10px" fill="#000" opacity="1"></text><text text-anchor="middle" transform="translate(375,15)" font-family="sans-serif" font-size="10px" fill="#000" opacity="1">0.1</text><text text-anchor="middle" transform="translate(487.8862483739929,15)" font-family="sans-serif" font-size="10px" fill="#000" opacity="1">0.2</text><text text-anchor="middle" transform="translate(553.9204705198734,15)" font-family="sans-serif" font-size="10px" fill="#000" opacity="1">0.3</text><text text-anchor="middle" transform="translate(600.7724967479859,15)" font-family="sans-serif" font-size="10px" fill="#000" opacity="1">0.4</text><text text-anchor="middle" transform="translate(637.113751626007,15)" font-family="sans-serif" font-size="10px" fill="#000" opacity="1">0.5</text><text text-anchor="middle" transform="translate(666.8067188938663,15)" font-family="sans-serif" font-size="10px" fill="#000" opacity="1"></text><text text-anchor="middle" transform="translate(691.9117650053463,15)" font-family="sans-serif" font-size="10px" fill="#000" opacity="1"></text><text text-anchor="middle" transform="translate(713.6587451219789,15)" font-family="sans-serif" font-size="10px" fill="#000" opacity="1"></text><text text-anchor="middle" transform="translate(732.8409410397469,15)" font-family="sans-serif" font-size="10px" fill="#000" opacity="1"></text><text text-anchor="end" transform="translate(750,15)" font-family="sans-serif" font-size="10px" fill="#000" opacity="1">1</text></g><g class="mark-rule role-axis-domain" pointer-events="none"><line transform="translate(0,0)" x2="750" y2="0" stroke="#888" stroke-width="1" opacity="1"></line></g><g class="mark-text role-axis-title" pointer-events="none"><text text-anchor="middle" transform="translate(375,30)" font-family="sans-serif" font-size="11px" font-weight="bold" fill="#000" opacity="1">λ</text></g></g><path class="foreground" aria-hidden="true" d="" pointer-events="none" display="none"></path></g></g><g class="mark-group role-axis" role="graphics-symbol" aria-roledescription="axis" aria-label="Y-axis titled 'Max of nzcoef' for a linear scale with values from 0 to 20"><g transform="translate(0.5,0.5)"><path class="background" aria-hidden="true" d="M0,0h0v0h0Z" pointer-events="none"></path><g><g class="mark-rule role-axis-tick" pointer-events="none"><line transform="translate(0,100)" x2="-5" y2="0" stroke="#888" stroke-width="1" opacity="1"></line><line transform="translate(0,75)" x2="-5" y2="0" stroke="#888" stroke-width="1" opacity="1"></line><line transform="translate(0,50)" x2="-5" y2="0" stroke="#888" stroke-width="1" opacity="1"></line><line transform="translate(0,25)" x2="-5" y2="0" stroke="#888" stroke-width="1" opacity="1"></line><line transform="translate(0,0)" x2="-5" y2="0" stroke="#888" stroke-width="1" opacity="1"></line></g><g class="mark-text role-axis-label" pointer-events="none"><text text-anchor="end" transform="translate(-7,103)" font-family="sans-serif" font-size="10px" fill="#000" opacity="1">0</text><text text-anchor="end" transform="translate(-7,78)" font-family="sans-serif" font-size="10px" fill="#000" opacity="1">5</text><text text-anchor="end" transform="translate(-7,53)" font-family="sans-serif" font-size="10px" fill="#000" opacity="1">10</text><text text-anchor="end" transform="translate(-7,28)" font-family="sans-serif" font-size="10px" fill="#000" opacity="1">15</text><text text-anchor="end" transform="translate(-7,3)" font-family="sans-serif" font-size="10px" fill="#000" opacity="1">20</text></g><g class="mark-rule role-axis-domain" pointer-events="none"><line transform="translate(0,100)" x2="0" y2="-100" stroke="#888" stroke-width="1" opacity="1"></line></g><g class="mark-text role-axis-title" pointer-events="none"><text text-anchor="middle" transform="translate(-23,50) rotate(-90) translate(0,-2)" font-family="sans-serif" font-size="11px" font-weight="bold" fill="#000" opacity="1">Max of nzcoef</text></g></g><path class="foreground" aria-hidden="true" d="" pointer-events="none" display="none"></path></g></g><g class="mark-group role-scope concat_0_pathgroup" role="graphics-object" aria-roledescription="group mark container"><g transform="translate(0,0)"><path class="background" aria-hidden="true" d="M0,0h750v100h-750Z"></path><g><g class="mark-line role-mark concat_0_marks" role="graphics-object" aria-roledescription="line mark container"><path aria-label="comparison: global-v-object; λ: 0.01; Max of nzcoef: 20" role="graphics-symbol" aria-roledescription="line mark" d="M0,0L7.575757575757477,0L15.151515151515099,0L22.727272727272574,0L30.303030303030198,5.000000000000004L37.87878787878782,5.000000000000004L45.4545454545453,0L53.03030303030291,0L60.60606060606054,0L68.18181818181816,5.000000000000004L75.75757575757564,5.000000000000004L83.33333333333326,5.000000000000004L90.90909090909086,5.000000000000004L98.48484848484834,5.000000000000004L106.06060606060598,5.000000000000004L113.6363636363636,5.000000000000004L121.21212121212122,5.000000000000004L128.78787878787867,9.999999999999998L136.36363636363623,9.999999999999998L143.93939393939388,9.999999999999998L151.51515151515142,9.999999999999998L159.09090909090904,9.999999999999998L166.66666666666657,9.999999999999998L174.24242424242428,9.999999999999998L181.81818181818173,9.999999999999998L189.3939393939393,9.999999999999998L196.9696969696969,9.999999999999998L204.54545454545445,9.999999999999998L212.12121212121207,15.000000000000002L219.69696969696966,15.000000000000002L227.2727272727272,15.000000000000002L234.84848484848482,15.000000000000002L242.42424242424235,15.000000000000002L250,15.000000000000002L257.5757575757575,19.999999999999996L265.15151515151507,19.999999999999996L272.7272727272727,19.999999999999996L280.30303030303025,19.999999999999996L287.8787878787879,25L295.4545454545454,25L303.030303030303,35L310.60606060606057,35L318.18181818181813,35L325.75757575757575,30.000000000000004L333.3333333333333,35L340.90909090909093,44.99999999999999L348.4848484848484,40L356.06060606060595,44.99999999999999L363.6363636363636,50L371.21212121212113,50L378.78787878787875,50L386.36363636363626,50L393.9393939393939,44.99999999999999L401.51515151515144,44.99999999999999L409.09090909090907,50L416.66666666666663,44.99999999999999L424.24242424242414,44.99999999999999L431.81818181818176,50L439.3939393939393,55.00000000000001L446.96969696969694,55.00000000000001L454.54545454545445,60L462.1212121212121,60L469.69696969696963,60L477.27272727272725,60L484.8484848484849,65L492.42424242424244,65L500,70L507.5757575757576,70L515.1515151515151,70L522.7272727272726,70L530.3030303030303,75L537.8787878787879,80L545.4545454545455,80L553.030303030303,80L560.6060606060605,80L568.1818181818181,90L575.7575757575758,95L583.3333333333334,95L590.9090909090909,95L598.4848484848484,100L606.060606060606,100L613.6363636363636,100L621.2121212121211,100L628.7878787878788,100L636.3636363636363,100L643.9393939393939,100L651.5151515151515,100L659.0909090909091,100L666.6666666666666,100L674.2424242424242,100L681.8181818181819,100L689.3939393939394,100L696.969696969697,100L704.5454545454546,100L712.121212121212,100L719.6969696969696,100L727.2727272727273,100L734.8484848484849,100L742.4242424242424,100L750,100" stroke="#4c78a8" stroke-width="2"></path></g></g><path class="foreground" aria-hidden="true" d="" display="none"></path></g><g transform="translate(0,0)"><path class="background" aria-hidden="true" d="M0,0h750v100h-750Z"></path><g><g class="mark-line role-mark concat_0_marks" role="graphics-object" aria-roledescription="line mark container"><path aria-label="comparison: global-v-spatial; λ: 0.01; Max of nzcoef: 13" role="graphics-symbol" aria-roledescription="line mark" d="M0,35L7.575757575757477,35L15.151515151515099,35L22.727272727272574,35L30.303030303030198,35L37.87878787878782,35L45.4545454545453,35L53.03030303030291,35L60.60606060606054,35L68.18181818181816,35L75.75757575757564,35L83.33333333333326,35L90.90909090909086,35L98.48484848484834,35L106.06060606060598,35L113.6363636363636,35L121.21212121212122,35L128.78787878787867,35L136.36363636363623,35L143.93939393939388,35L151.51515151515142,35L159.09090909090904,40L166.66666666666657,40L174.24242424242428,40L181.81818181818173,40L189.3939393939393,40L196.9696969696969,40L204.54545454545445,40L212.12121212121207,35L219.69696969696966,40L227.2727272727272,35L234.84848484848482,35L242.42424242424235,40L250,35L257.5757575757575,35L265.15151515151507,35L272.7272727272727,40L280.30303030303025,40L287.8787878787879,40L295.4545454545454,35L303.030303030303,35L310.60606060606057,40L318.18181818181813,40L325.75757575757575,40L333.3333333333333,40L340.90909090909093,44.99999999999999L348.4848484848484,44.99999999999999L356.06060606060595,44.99999999999999L363.6363636363636,44.99999999999999L371.21212121212113,44.99999999999999L378.78787878787875,44.99999999999999L386.36363636363626,44.99999999999999L393.9393939393939,44.99999999999999L401.51515151515144,44.99999999999999L409.09090909090907,44.99999999999999L416.66666666666663,44.99999999999999L424.24242424242414,44.99999999999999L431.81818181818176,50L439.3939393939393,50L446.96969696969694,50L454.54545454545445,44.99999999999999L462.1212121212121,50L469.69696969696963,50L477.27272727272725,50L484.8484848484849,50L492.42424242424244,55.00000000000001L500,55.00000000000001L507.5757575757576,60L515.1515151515151,65L522.7272727272726,65L530.3030303030303,70L537.8787878787879,70L545.4545454545455,75L553.030303030303,80L560.6060606060605,85L568.1818181818181,90L575.7575757575758,100L583.3333333333334,100L590.9090909090909,100L598.4848484848484,100L606.060606060606,100L613.6363636363636,100L621.2121212121211,100L628.7878787878788,100L636.3636363636363,100L643.9393939393939,100L651.5151515151515,100L659.0909090909091,100L666.6666666666666,100L674.2424242424242,100L681.8181818181819,100L689.3939393939394,100L696.969696969697,100L704.5454545454546,100L712.121212121212,100L719.6969696969696,100L727.2727272727273,100L734.8484848484849,100L742.4242424242424,100L750,100" stroke="#f58518" stroke-width="2"></path></g></g><path class="foreground" aria-hidden="true" d="" display="none"></path></g></g></g><path class="foreground" aria-hidden="true" d="" display="none"></path></g></g><g class="mark-group role-scope concat_1_group" role="graphics-object" aria-roledescription="group mark container"><g transform="translate(0,159)"><path class="background" aria-hidden="true" d="M0.5,0.5h750v400h-750Z" stroke="#ddd"></path><g><g class="mark-group role-axis" aria-hidden="true"><g transform="translate(0.5,400.5)"><path class="background" aria-hidden="true" d="M0,0h0v0h0Z" pointer-events="none"></path><g><g class="mark-rule role-axis-grid" pointer-events="none"><line transform="translate(0,-400)" x2="0" y2="400" stroke="#ddd" stroke-width="1" opacity="1"></line><line transform="translate(113,-400)" x2="0" y2="400" stroke="#ddd" stroke-width="1" opacity="1"></line><line transform="translate(179,-400)" x2="0" y2="400" stroke="#ddd" stroke-width="1" opacity="1"></line><line transform="translate(226,-400)" x2="0" y2="400" stroke="#ddd" stroke-width="1" opacity="1"></line><line transform="translate(262,-400)" x2="0" y2="400" stroke="#ddd" stroke-width="1" opacity="1"></line><line transform="translate(292,-400)" x2="0" y2="400" stroke="#ddd" stroke-width="1" opacity="1"></line><line transform="translate(317,-400)" x2="0" y2="400" stroke="#ddd" stroke-width="1" opacity="1"></line><line transform="translate(339,-400)" x2="0" y2="400" stroke="#ddd" stroke-width="1" opacity="1"></line><line transform="translate(358,-400)" x2="0" y2="400" stroke="#ddd" stroke-width="1" opacity="1"></line><line transform="translate(375,-400)" x2="0" y2="400" stroke="#ddd" stroke-width="1" opacity="1"></line><line transform="translate(488,-400)" x2="0" y2="400" stroke="#ddd" stroke-width="1" opacity="1"></line><line transform="translate(554,-400)" x2="0" y2="400" stroke="#ddd" stroke-width="1" opacity="1"></line><line transform="translate(601,-400)" x2="0" y2="400" stroke="#ddd" stroke-width="1" opacity="1"></line><line transform="translate(637,-400)" x2="0" y2="400" stroke="#ddd" stroke-width="1" opacity="1"></line><line transform="translate(667,-400)" x2="0" y2="400" stroke="#ddd" stroke-width="1" opacity="1"></line><line transform="translate(692,-400)" x2="0" y2="400" stroke="#ddd" stroke-width="1" opacity="1"></line><line transform="translate(714,-400)" x2="0" y2="400" stroke="#ddd" stroke-width="1" opacity="1"></line><line transform="translate(733,-400)" x2="0" y2="400" stroke="#ddd" stroke-width="1" opacity="1"></line><line transform="translate(750,-400)" x2="0" y2="400" stroke="#ddd" stroke-width="1" opacity="1"></line></g></g><path class="foreground" aria-hidden="true" d="" pointer-events="none" display="none"></path></g></g><g class="mark-group role-axis" aria-hidden="true"><g transform="translate(0.5,0.5)"><path class="background" aria-hidden="true" d="M0,0h0v0h0Z" pointer-events="none"></path><g><g class="mark-rule role-axis-grid" pointer-events="none"><line transform="translate(0,400)" x2="750" y2="0" stroke="#ddd" stroke-width="1" opacity="1"></line><line transform="translate(0,360)" x2="750" y2="0" stroke="#ddd" stroke-width="1" opacity="1"></line><line transform="translate(0,320)" x2="750" y2="0" stroke="#ddd" stroke-width="1" opacity="1"></line><line transform="translate(0,280)" x2="750" y2="0" stroke="#ddd" stroke-width="1" opacity="1"></line><line transform="translate(0,240)" x2="750" y2="0" stroke="#ddd" stroke-width="1" opacity="1"></line><line transform="translate(0,200)" x2="750" y2="0" stroke="#ddd" stroke-width="1" opacity="1"></line><line transform="translate(0,160)" x2="750" y2="0" stroke="#ddd" stroke-width="1" opacity="1"></line><line transform="translate(0,120)" x2="750" y2="0" stroke="#ddd" stroke-width="1" opacity="1"></line><line transform="translate(0,80)" x2="750" y2="0" stroke="#ddd" stroke-width="1" opacity="1"></line><line transform="translate(0,40)" x2="750" y2="0" stroke="#ddd" stroke-width="1" opacity="1"></line><line transform="translate(0,0)" x2="750" y2="0" stroke="#ddd" stroke-width="1" opacity="1"></line></g></g><path class="foreground" aria-hidden="true" d="" pointer-events="none" display="none"></path></g></g><g class="mark-group role-axis" role="graphics-symbol" aria-roledescription="axis" aria-label="X-axis titled 'λ' for a log scale with values from 0.01 to 1"><g transform="translate(0.5,400.5)"><path class="background" aria-hidden="true" d="M0,0h0v0h0Z" pointer-events="none"></path><g><g class="mark-rule role-axis-tick" pointer-events="none"><line transform="translate(0,0)" x2="0" y2="5" stroke="#888" stroke-width="1" opacity="1"></line><line transform="translate(113,0)" x2="0" y2="5" stroke="#888" stroke-width="1" opacity="1"></line><line transform="translate(179,0)" x2="0" y2="5" stroke="#888" stroke-width="1" opacity="1"></line><line transform="translate(226,0)" x2="0" y2="5" stroke="#888" stroke-width="1" opacity="1"></line><line transform="translate(262,0)" x2="0" y2="5" stroke="#888" stroke-width="1" opacity="1"></line><line transform="translate(292,0)" x2="0" y2="5" stroke="#888" stroke-width="1" opacity="1"></line><line transform="translate(317,0)" x2="0" y2="5" stroke="#888" stroke-width="1" opacity="1"></line><line transform="translate(339,0)" x2="0" y2="5" stroke="#888" stroke-width="1" opacity="1"></line><line transform="translate(358,0)" x2="0" y2="5" stroke="#888" stroke-width="1" opacity="1"></line><line transform="translate(375,0)" x2="0" y2="5" stroke="#888" stroke-width="1" opacity="1"></line><line transform="translate(488,0)" x2="0" y2="5" stroke="#888" stroke-width="1" opacity="1"></line><line transform="translate(554,0)" x2="0" y2="5" stroke="#888" stroke-width="1" opacity="1"></line><line transform="translate(601,0)" x2="0" y2="5" stroke="#888" stroke-width="1" opacity="1"></line><line transform="translate(637,0)" x2="0" y2="5" stroke="#888" stroke-width="1" opacity="1"></line><line transform="translate(667,0)" x2="0" y2="5" stroke="#888" stroke-width="1" opacity="1"></line><line transform="translate(692,0)" x2="0" y2="5" stroke="#888" stroke-width="1" opacity="1"></line><line transform="translate(714,0)" x2="0" y2="5" stroke="#888" stroke-width="1" opacity="1"></line><line transform="translate(733,0)" x2="0" y2="5" stroke="#888" stroke-width="1" opacity="1"></line><line transform="translate(750,0)" x2="0" y2="5" stroke="#888" stroke-width="1" opacity="1"></line></g><g class="mark-text role-axis-label" pointer-events="none"><text text-anchor="start" transform="translate(0,15)" font-family="sans-serif" font-size="10px" fill="#000" opacity="1">0.01</text><text text-anchor="middle" transform="translate(112.88624837399291,15)" font-family="sans-serif" font-size="10px" fill="#000" opacity="1">0.02</text><text text-anchor="middle" transform="translate(178.92047051987333,15)" font-family="sans-serif" font-size="10px" fill="#000" opacity="1">0.03</text><text text-anchor="middle" transform="translate(225.77249674798585,15)" font-family="sans-serif" font-size="10px" fill="#000" opacity="1">0.04</text><text text-anchor="middle" transform="translate(262.113751626007,15)" font-family="sans-serif" font-size="10px" fill="#000" opacity="1">0.05</text><text text-anchor="middle" transform="translate(291.80671889386633,15)" font-family="sans-serif" font-size="10px" fill="#000" opacity="1"></text><text text-anchor="middle" transform="translate(316.9117650053463,15)" font-family="sans-serif" font-size="10px" fill="#000" opacity="1"></text><text text-anchor="middle" transform="translate(338.65874512197877,15)" font-family="sans-serif" font-size="10px" fill="#000" opacity="1"></text><text text-anchor="middle" transform="translate(357.84094103974684,15)" font-family="sans-serif" font-size="10px" fill="#000" opacity="1"></text><text text-anchor="middle" transform="translate(375,15)" font-family="sans-serif" font-size="10px" fill="#000" opacity="1">0.1</text><text text-anchor="middle" transform="translate(487.8862483739929,15)" font-family="sans-serif" font-size="10px" fill="#000" opacity="1">0.2</text><text text-anchor="middle" transform="translate(553.9204705198734,15)" font-family="sans-serif" font-size="10px" fill="#000" opacity="1">0.3</text><text text-anchor="middle" transform="translate(600.7724967479859,15)" font-family="sans-serif" font-size="10px" fill="#000" opacity="1">0.4</text><text text-anchor="middle" transform="translate(637.113751626007,15)" font-family="sans-serif" font-size="10px" fill="#000" opacity="1">0.5</text><text text-anchor="middle" transform="translate(666.8067188938663,15)" font-family="sans-serif" font-size="10px" fill="#000" opacity="1"></text><text text-anchor="middle" transform="translate(691.9117650053463,15)" font-family="sans-serif" font-size="10px" fill="#000" opacity="1"></text><text text-anchor="middle" transform="translate(713.6587451219789,15)" font-family="sans-serif" font-size="10px" fill="#000" opacity="1"></text><text text-anchor="middle" transform="translate(732.8409410397469,15)" font-family="sans-serif" font-size="10px" fill="#000" opacity="1"></text><text text-anchor="end" transform="translate(750,15)" font-family="sans-serif" font-size="10px" fill="#000" opacity="1">1</text></g><g class="mark-rule role-axis-domain" pointer-events="none"><line transform="translate(0,0)" x2="750" y2="0" stroke="#888" stroke-width="1" opacity="1"></line></g><g class="mark-text role-axis-title" pointer-events="none"><text text-anchor="middle" transform="translate(375,30)" font-family="sans-serif" font-size="11px" font-weight="bold" fill="#000" opacity="1">λ</text></g></g><path class="foreground" aria-hidden="true" d="" pointer-events="none" display="none"></path></g></g><g class="mark-group role-axis" role="graphics-symbol" aria-roledescription="axis" aria-label="Y-axis titled 'mean' for a linear scale with values from 0.5 to 1.0"><g transform="translate(0.5,0.5)"><path class="background" aria-hidden="true" d="M0,0h0v0h0Z" pointer-events="none"></path><g><g class="mark-rule role-axis-tick" pointer-events="none"><line transform="translate(0,400)" x2="-5" y2="0" stroke="#888" stroke-width="1" opacity="1"></line><line transform="translate(0,360)" x2="-5" y2="0" stroke="#888" stroke-width="1" opacity="1"></line><line transform="translate(0,320)" x2="-5" y2="0" stroke="#888" stroke-width="1" opacity="1"></line><line transform="translate(0,280)" x2="-5" y2="0" stroke="#888" stroke-width="1" opacity="1"></line><line transform="translate(0,240)" x2="-5" y2="0" stroke="#888" stroke-width="1" opacity="1"></line><line transform="translate(0,200)" x2="-5" y2="0" stroke="#888" stroke-width="1" opacity="1"></line><line transform="translate(0,160)" x2="-5" y2="0" stroke="#888" stroke-width="1" opacity="1"></line><line transform="translate(0,120)" x2="-5" y2="0" stroke="#888" stroke-width="1" opacity="1"></line><line transform="translate(0,80)" x2="-5" y2="0" stroke="#888" stroke-width="1" opacity="1"></line><line transform="translate(0,40)" x2="-5" y2="0" stroke="#888" stroke-width="1" opacity="1"></line><line transform="translate(0,0)" x2="-5" y2="0" stroke="#888" stroke-width="1" opacity="1"></line></g><g class="mark-text role-axis-label" pointer-events="none"><text text-anchor="end" transform="translate(-7,403)" font-family="sans-serif" font-size="10px" fill="#000" opacity="1">0.50</text><text text-anchor="end" transform="translate(-7,362.99999999999994)" font-family="sans-serif" font-size="10px" fill="#000" opacity="1">0.55</text><text text-anchor="end" transform="translate(-7,323)" font-family="sans-serif" font-size="10px" fill="#000" opacity="1">0.60</text><text text-anchor="end" transform="translate(-7,283)" font-family="sans-serif" font-size="10px" fill="#000" opacity="1">0.65</text><text text-anchor="end" transform="translate(-7,243.00000000000003)" font-family="sans-serif" font-size="10px" fill="#000" opacity="1">0.70</text><text text-anchor="end" transform="translate(-7,203)" font-family="sans-serif" font-size="10px" fill="#000" opacity="1">0.75</text><text text-anchor="end" transform="translate(-7,162.99999999999997)" font-family="sans-serif" font-size="10px" fill="#000" opacity="1">0.80</text><text text-anchor="end" transform="translate(-7,123.00000000000001)" font-family="sans-serif" font-size="10px" fill="#000" opacity="1">0.85</text><text text-anchor="end" transform="translate(-7,82.99999999999999)" font-family="sans-serif" font-size="10px" fill="#000" opacity="1">0.90</text><text text-anchor="end" transform="translate(-7,43.000000000000036)" font-family="sans-serif" font-size="10px" fill="#000" opacity="1">0.95</text><text text-anchor="end" transform="translate(-7,3)" font-family="sans-serif" font-size="10px" fill="#000" opacity="1">1.00</text></g><g class="mark-rule role-axis-domain" pointer-events="none"><line transform="translate(0,400)" x2="0" y2="-400" stroke="#888" stroke-width="1" opacity="1"></line></g><g class="mark-text role-axis-title" pointer-events="none"><text text-anchor="middle" transform="translate(-32,200) rotate(-90) translate(0,-2)" font-family="sans-serif" font-size="11px" font-weight="bold" fill="#000" opacity="1">mean</text></g></g><path class="foreground" aria-hidden="true" d="" pointer-events="none" display="none"></path></g></g><g class="mark-group role-scope concat_1_layer_0_pathgroup" role="graphics-object" aria-roledescription="group mark container"><g transform="translate(0,0)"><path class="background" aria-hidden="true" d="M0,0h750v400h-750Z"></path><g><g class="mark-line role-mark concat_1_layer_0_marks" role="graphics-object" aria-roledescription="line mark container"><path aria-label="λ: 0.01; comparison: global-v-object; Mean of mean: 0.8433815374" role="graphics-symbol" aria-roledescription="line mark" d="M0,125.29477008010818L7.575757575757477,121.01093662495606L15.151515151515099,125.3852752655261L22.727272727272574,131.62038640821675L30.303030303030198,126.52068814250966L37.87878787878782,119.79576661408532L45.4545454545453,115.66589262677071L53.03030303030291,111.73455350790755L60.60606060606054,110.04123261970724L68.18181818181816,111.92545546916719L75.75757575757564,123.5616330718214L83.33333333333326,119.79492515005407L90.90909090909086,118.38097406345068L98.48484848484834,109.81973917843905L106.06060606060598,120.9100107527311L113.6363636363636,123.86163575911517L121.21212121212122,118.73049866672005L128.78787878787867,115.23945831519092L136.36363636363623,103.53172742062071L143.93939393939388,112.4019453298648L151.51515151515142,121.32537316426033L159.09090909090904,112.64444276717481L166.66666666666657,112.0158133861957L174.24242424242428,120.74245945528999L181.81818181818173,119.42259029614748L189.3939393939393,115.58382017217035L196.9696969696969,106.91783374247139L204.54545454545445,119.68453249999227L212.12121212121207,121.94878844317634L219.69696969696966,109.84023226739109L227.2727272727272,115.20261783679047L234.84848484848482,110.94285655725251L242.42424242424235,112.00190119914026L250,119.31697066689075L257.5757575757575,111.27531843992608L265.15151515151507,105.37298876451509L272.7272727272727,110.03985711982196L280.30303030303025,108.11007573188212L287.8787878787879,111.29951677492454L295.4545454545454,109.06402959912684L303.030303030303,97.83893182277836L310.60606060606057,94.36667461897468L318.18181818181813,94.29008369392307L325.75757575757575,87.34372464434239L333.3333333333333,79.39894017747626L340.90909090909093,79.79336457563164L348.4848484848484,82.86852013405763L356.06060606060595,95.74720072325418L363.6363636363636,103.27140820979422L371.21212121212113,96.8998349997344L378.78787878787875,101.951598221991L386.36363636363626,97.70481588995904L393.9393939393939,101.24714999737101L401.51515151515144,98.51508976047887L409.09090909090907,96.86321699722598L416.66666666666663,86.28404466421031L424.24242424242414,94.26181171908058L431.81818181818176,102.42567027236014L439.3939393939393,105.93711181407971L446.96969696969694,113.3767741616742L454.54545454545445,119.91473540952855L462.1212121212121,131.06856890628782L469.69696969696963,136.699586409393L477.27272727272725,141.47552358715618L484.8484848484849,143.27205967848843L492.42424242424244,149.9806915726527L500,155.89652177494395L507.5757575757576,168.75189864958423L515.1515151515151,184.2738182216239L522.7272727272726,214.70806492216505L530.3030303030303,228.2921610272692L537.8787878787879,249.0272162079549L545.4545454545455,269.8711566552772L553.030303030303,275.85859099180414L560.6060606060605,291.9623547465714L568.1818181818181,290.01992672188885L575.7575757575758,293.193884699925L583.3333333333334,296.2309106350715L590.9090909090909,295.82157502588456L598.4848484848484,291.59755100086676L606.060606060606,291.59755100086676L613.6363636363636,291.59755100086676L621.2121212121211,291.59755100086676L628.7878787878788,291.59755100086676L636.3636363636363,291.59755100086676L643.9393939393939,291.59755100086676L651.5151515151515,291.59755100086676L659.0909090909091,291.59755100086676L666.6666666666666,291.59755100086676L674.2424242424242,291.59755100086676L681.8181818181819,291.59755100086676L689.3939393939394,291.59755100086676L696.969696969697,291.59755100086676L704.5454545454546,291.59755100086676L712.121212121212,291.59755100086676L719.6969696969696,291.59755100086676L727.2727272727273,291.59755100086676L734.8484848484849,291.59755100086676L742.4242424242424,291.59755100086676L750,291.59755100086676" stroke="#4c78a8" stroke-width="2"></path></g></g><path class="foreground" aria-hidden="true" d="" display="none"></path></g><g transform="translate(0,0)"><path class="background" aria-hidden="true" d="M0,0h750v400h-750Z"></path><g><g class="mark-line role-mark concat_1_layer_0_marks" role="graphics-object" aria-roledescription="line mark container"><path aria-label="λ: 0.01; comparison: global-v-spatial; Mean of mean: 0.987162690432" role="graphics-symbol" aria-roledescription="line mark" d="M0,10.26984765456982L7.575757575757477,11.501374748165993L15.151515151515099,10.26984765456982L22.727272727272574,10.21950526410631L30.303030303030198,11.876013212905878L37.87878787878782,10.521128258981971L45.4545454545453,12.719099799693634L53.03030303030291,10.183433028926903L60.60606060606054,11.310461182746678L68.18181818181816,10.085515403649037L75.75757575757564,10.085515403649037L83.33333333333326,8.830042586139975L90.90909090909086,6.283053121793536L98.48484848484834,6.252700208161777L106.06060606060598,6.344651681811175L113.6363636363636,6.3746309104882215L121.21212121212122,7.474407224890811L128.78787878787867,6.230983025942649L136.36363636363623,7.548411256820398L143.93939393939388,7.511226964914819L151.51515151515142,6.406504065040686L159.09090909090904,6.438697552804751L166.66666666666657,8.880394774096967L174.24242424242428,7.852824682093029L181.81818181818173,7.812759250041523L189.3939393939393,12.704751252573931L196.9696969696969,11.855651882381846L204.54545454545445,9.352021110536413L212.12121212121207,10.481539797212225L219.69696969696966,12.901211407044677L227.2727272727272,15.710693408800402L234.84848484848482,14.513378645372743L242.42424242424235,10.592168029771987L250,11.81977595177015L257.5757575757575,14.042487283161531L265.15151515151507,11.701578192252438L272.7272727272727,16.297450431083327L280.30303030303025,16.628363130191648L287.8787878787879,19.355647414765453L295.4545454545454,20.50060029988341L303.030303030303,20.645031105790146L310.60606060606057,22.094362264801326L318.18181818181813,24.716992528530568L325.75757575757575,26.79938935605195L333.3333333333333,22.512921376225936L340.90909090909093,28.085586428546616L348.4848484848484,28.805849342352907L356.06060606060595,30.497163021836204L363.6363636363636,29.369302711479506L371.21212121212113,31.569891606221123L378.78787878787875,35.334213103174065L386.36363636363626,39.16513983360046L393.9393939393939,40.10741858533162L401.51515151515144,41.559324211465935L409.09090909090907,39.49604351343909L416.66666666666663,38.70250051486046L424.24242424242414,42.817437313722536L431.81818181818176,43.92255154806443L439.3939393939393,50.28438515127975L446.96969696969694,51.13372404262364L454.54545454545445,58.010357871325624L462.1212121212121,58.376686513976935L469.69696969696963,60.236707817844334L477.27272727272725,72.54703911822871L484.8484848484849,83.80238667026907L492.42424242424244,101.89569279129857L500,112.97872282484516L507.5757575757576,123.283801601427L515.1515151515151,135.4736992842316L522.7272727272726,141.99489341955163L530.3030303030303,163.1099102758432L537.8787878787879,171.5297007550257L545.4545454545455,167.72110993742498L553.030303030303,166.22045740465072L560.6060606060605,177.6530383471066L568.1818181818181,169.44937341349248L575.7575757575758,168.88826269060368L583.3333333333334,168.88826269060368L590.9090909090909,168.88826269060368L598.4848484848484,168.88826269060368L606.060606060606,168.88826269060368L613.6363636363636,168.88826269060368L621.2121212121211,168.88826269060368L628.7878787878788,168.88826269060368L636.3636363636363,168.88826269060368L643.9393939393939,168.88826269060368L651.5151515151515,168.88826269060368L659.0909090909091,168.88826269060368L666.6666666666666,168.88826269060368L674.2424242424242,168.88826269060368L681.8181818181819,168.88826269060368L689.3939393939394,168.88826269060368L696.969696969697,168.88826269060368L704.5454545454546,168.88826269060368L712.121212121212,168.88826269060368L719.6969696969696,168.88826269060368L727.2727272727273,168.88826269060368L734.8484848484849,168.88826269060368L742.4242424242424,168.88826269060368L750,168.88826269060368" stroke="#f58518" stroke-width="2"></path></g></g><path class="foreground" aria-hidden="true" d="" display="none"></path></g></g><g class="mark-group role-scope concat_1_layer_1_layer_0_pathgroup" role="graphics-object" aria-roledescription="group mark container"><g transform="translate(0,0)"><path class="background" aria-hidden="true" d="M0,0h750v400h-750Z"></path><g><g class="mark-area role-mark concat_1_layer_1_layer_0_marks" role="graphics-object" aria-roledescription="area mark container"><path aria-label="mean: 0.829582308474; upper_mean: 0.857180766326; λ: 0.01; comparison: global-v-object; Mean of mean: 0.8433815374; Mean + stderr of mean: 0.857180766326; Mean - stderr of mean: 0.829582308474" role="graphics-symbol" aria-roledescription="errorband" d="M0,136.33415322107476L7.575757575757477,132.04650927135998L15.151515151515099,136.6825778126226L22.727272727272574,143.05948070943703L30.303030303030198,137.98636643463595L37.87878787878782,131.09470154788784L45.4545454545453,126.61111481885419L53.03030303030291,122.6112507567172L60.60606060606054,120.93765043525097L68.18181818181816,122.6837773152825L75.75757575757564,134.83984841399695L83.33333333333326,130.91920307468962L90.90909090909086,129.52877794194643L98.48484848484834,120.58341667612815L106.06060606060598,132.1377630722404L113.6363636363636,135.06533879658508L121.21212121212122,129.9127496430642L128.78787878787867,126.09940924877998L136.36363636363623,113.7891733762256L143.93939393939388,122.99961412336087L151.51515151515142,131.88744660968413L159.09090909090904,122.97560545412595L166.66666666666657,122.33660121660579L174.24242424242428,131.74021476696066L181.81818181818173,130.48242640569399L189.3939393939393,126.44345105640645L196.9696969696969,117.66516374158726L204.54545454545445,130.84458756000527L212.12121212121207,133.97505812100522L219.69696969696966,120.87856619772985L227.2727272727272,126.64250779511548L234.84848484848482,122.08119979769121L242.42424242424235,123.18390783384726L250,131.29701931708215L257.5757575757575,123.0199486455227L265.15151515151507,117.19006665057643L272.7272727272727,121.36897763933368L280.30303030303025,120.15605085920215L287.8787878787879,123.6562976193536L295.4545454545454,121.15162375377241L303.030303030303,110.06815722881322L310.60606060606057,106.82125395240227L318.18181818181813,106.42177503806325L325.75757575757575,98.82456738498871L333.3333333333333,90.92683413842444L340.90909090909093,91.63532877999518L348.4848484848484,94.62087822675747L356.06060606060595,108.02982801568008L363.6363636363636,115.65832692663847L371.21212121212113,108.97412514561805L378.78787878787875,114.27870683468547L386.36363636363626,109.77668501207552L393.9393939393939,113.66749236577655L401.51515151515144,110.3965275721019L409.09090909090907,108.4049610918405L416.66666666666663,97.39237514886136L424.24242424242414,106.28621953425643L431.81818181818176,114.75149627368265L439.3939393939393,118.00271810394776L446.96969696969694,125.55598651764113L454.54545454545445,132.37012454601168L462.1212121212121,143.83865007118058L469.69696969696963,149.68052440846105L477.27272727272725,154.87839705247328L484.8484848484849,156.69030184267544L492.42424242424244,163.5543369130369L500,169.85926560737371L507.5757575757576,183.20830690426152L515.1515151515151,199.15430185475583L522.7272727272726,229.24001604800316L530.3030303030303,242.93654795135308L537.8787878787879,262.7598356202801L545.4545454545455,282.3749050880325L553.030303030303,287.89081496047936L560.6060606060605,301.8760296075432L568.1818181818181,300.81418578444703L575.7575757575758,305.17369093705315L583.3333333333334,309.42005328518246L590.9090909090909,309.48389400630816L598.4848484848484,307.3318663947527L606.060606060606,307.3318663947527L613.6363636363636,307.3318663947527L621.2121212121211,307.3318663947527L628.7878787878788,307.3318663947527L636.3636363636363,307.3318663947527L643.9393939393939,307.3318663947527L651.5151515151515,307.3318663947527L659.0909090909091,307.3318663947527L666.6666666666666,307.3318663947527L674.2424242424242,307.3318663947527L681.8181818181819,307.3318663947527L689.3939393939394,307.3318663947527L696.969696969697,307.3318663947527L704.5454545454546,307.3318663947527L712.121212121212,307.3318663947527L719.6969696969696,307.3318663947527L727.2727272727273,307.3318663947527L734.8484848484849,307.3318663947527L742.4242424242424,307.3318663947527L750,307.3318663947527L750,275.8632356069809L742.4242424242424,275.8632356069809L734.8484848484849,275.8632356069809L727.2727272727273,275.8632356069809L719.6969696969696,275.8632356069809L712.121212121212,275.8632356069809L704.5454545454546,275.8632356069809L696.969696969697,275.8632356069809L689.3939393939394,275.8632356069809L681.8181818181819,275.8632356069809L674.2424242424242,275.8632356069809L666.6666666666666,275.8632356069809L659.0909090909091,275.8632356069809L651.5151515151515,275.8632356069809L643.9393939393939,275.8632356069809L636.3636363636363,275.8632356069809L628.7878787878788,275.8632356069809L621.2121212121211,275.8632356069809L613.6363636363636,275.8632356069809L606.060606060606,275.8632356069809L598.4848484848484,275.8632356069809L590.9090909090909,282.1592560454609L583.3333333333334,283.0417679849606L575.7575757575758,281.2140784627968L568.1818181818181,279.22566765933067L560.6060606060605,282.04867988559965L553.030303030303,263.8263670231289L545.4545454545455,257.36740822252193L537.8787878787879,235.29459679562964L530.3030303030303,213.6477741031853L522.7272727272726,200.17611379632694L515.1515151515151,169.39333458849202L507.5757575757576,154.29549039490692L500,141.93377794251418L492.42424242424244,136.4070462322685L484.8484848484849,129.85381751430145L477.27272727272725,128.07265012183908L469.69696969696963,123.71864841032493L462.1212121212121,118.29848774139506L454.54545454545445,107.45934627304541L446.96969696969694,101.19756180570727L439.3939393939393,93.87150552421168L431.81818181818176,90.09984427103763L424.24242424242414,82.23740390390475L416.66666666666663,75.17571417955926L409.09090909090907,85.32147290261145L401.51515151515144,86.63365194885584L393.9393939393939,88.82680762896547L386.36363636363626,85.63294676784254L378.78787878787875,89.62448960929655L371.21212121212113,84.82554485385077L363.6363636363636,90.88448949294997L356.06060606060595,83.46457343082827L348.4848484848484,71.1161620413578L340.90909090909093,67.95140037126811L333.3333333333333,67.87104621652809L325.75757575757575,75.86288190369608L318.18181818181813,82.15839234978289L310.60606060606057,81.91209528554708L303.030303030303,85.6097064167435L295.4545454545454,96.97643544448127L287.8787878787879,98.94273593049547L280.30303030303025,96.06410060456207L272.7272727272727,98.71073660031024L265.15151515151507,93.55591087845374L257.5757575757575,99.53068823432946L250,107.33692201669936L242.42424242424235,100.81989456443327L234.84848484848482,99.80451331681381L227.2727272727272,103.76272787846545L219.69696969696966,98.80189833705231L212.12121212121207,109.92251876534746L204.54545454545445,108.52447743997926L196.9696969696969,96.17050374335551L189.3939393939393,104.72418928793425L181.81818181818173,108.36275418660097L174.24242424242428,109.7447041436193L166.66666666666657,101.69502555578562L159.09090909090904,102.31328008022365L151.51515151515142,110.76329971883654L143.93939393939388,101.80427653636875L136.36363636363623,93.27428146501582L128.78787878787867,104.37950738160184L121.21212121212122,107.54824769037592L113.6363636363636,112.65793272164527L106.06060606060598,109.68225843322176L98.48484848484834,99.05606168074996L90.90909090909086,107.23317018495493L83.33333333333326,108.67064722541855L75.75757575757564,112.28341772964585L68.18181818181816,101.16713362305188L60.60606060606054,99.1448148041635L53.03030303030291,100.85785625909791L45.4545454545453,104.72067043468725L37.87878787878782,108.49683168028284L30.303030303030198,115.05500985038336L22.727272727272574,120.18129210699647L15.151515151515099,114.08797271842958L7.575757575757477,109.97536397855212L0,114.25538693914162Z" fill="#4c78a8" opacity="0.3"></path></g></g><path class="foreground" aria-hidden="true" d="" display="none"></path></g><g transform="translate(0,0)"><path class="background" aria-hidden="true" d="M0,0h750v400h-750Z"></path><g><g class="mark-area role-mark concat_1_layer_1_layer_0_marks" role="graphics-object" aria-roledescription="area mark container"><path aria-label="mean: 0.982072596884; upper_mean: 0.99225278398; λ: 0.01; comparison: global-v-spatial; Mean of mean: 0.987162690432; Mean + stderr of mean: 0.99225278398; Mean - stderr of mean: 0.982072596884" role="graphics-symbol" aria-roledescription="errorband" d="M0,14.341922493101134L7.575757575757477,15.7408592396715L15.151515151515099,14.341922493101134L22.727272727272574,14.271882497783928L30.303030303030198,16.230386523728413L37.87878787878782,14.661809142327265L45.4545454545453,17.093147101606387L53.03030303030291,14.216123180668117L60.60606060606054,15.478872852360848L68.18181818181816,14.079933250416587L75.75757575757564,14.079933250416587L83.33333333333326,12.626158151926603L90.90909090909086,9.066235464499606L98.48484848484834,9.022570903344551L106.06060606060598,9.154844809308038L113.6363636363636,9.197396852612183L121.21212121212122,10.489095532396497L128.78787878787867,8.991159544795124L136.36363636363623,10.592565770219853L143.93939393939388,10.540576745836105L151.51515151515142,9.243238443517843L159.09090909090904,9.289539270326674L166.66666666666657,12.186777992008224L174.24242424242428,11.017845834569862L181.81818181818173,10.961845813881421L189.3939393939393,17.109731193002364L196.9696969696969,16.24346625318429L204.54545454545445,13.38590242000306L212.12121212121207,14.644819355829597L219.69696969696966,17.362331678008935L227.2727272727272,20.948281210232356L234.84848484848482,19.235593946177865L242.42424242424235,14.797500852314815L250,16.180190011369433L257.5757575757575,18.63644311622963L265.15151515151507,16.019083518982846L272.7272727272727,21.12136611478448L280.30303030303025,21.547623532794624L287.8787878787879,24.606083914520127L295.4545454545454,25.845237143130007L303.030303030303,26.01402015212564L310.60606060606057,27.628115035065814L318.18181818181813,30.341132682685057L325.75757575757575,32.5675486164565L333.3333333333333,27.986667015617694L340.90909090909093,34.42810495449473L348.4848484848484,35.1355013408817L356.06060606060595,36.70109053915711L363.6363636363636,35.64673175129762L371.21212121212113,37.97288006246813L378.78787878787875,42.00820298575118L386.36363636363626,46.10109736499241L393.9393939393939,47.07084544122022L401.51515151515144,48.629057580462565L409.09090909090907,46.14017237539505L416.66666666666663,45.33860256499853L424.24242424242414,49.627191108503595L431.81818181818176,50.891097562145845L439.3939393939393,57.594286883925605L446.96969696969694,58.44874424222502L454.54545454545445,65.66711081915616L462.1212121212121,66.06703484963354L469.69696969696963,68.04246320968348L477.27272727272725,81.53058095507255L484.8484848484849,93.0744893287172L492.42424242424244,111.56624661556718L500,121.78158898180618L507.5757575757576,132.13942203593749L515.1515151515151,144.27245027147615L522.7272727272726,150.3661553536614L530.3030303030303,169.64311026579412L537.8787878787879,177.79722357038264L545.4545454545455,174.12936416561732L553.030303030303,172.7979492376985L560.6060606060605,185.56155893283625L568.1818181818181,178.84190050266452L575.7575757575758,180.65058538744677L583.3333333333334,180.65058538744677L590.9090909090909,180.65058538744677L598.4848484848484,180.65058538744677L606.060606060606,180.65058538744677L613.6363636363636,180.65058538744677L621.2121212121211,180.65058538744677L628.7878787878788,180.65058538744677L636.3636363636363,180.65058538744677L643.9393939393939,180.65058538744677L651.5151515151515,180.65058538744677L659.0909090909091,180.65058538744677L666.6666666666666,180.65058538744677L674.2424242424242,180.65058538744677L681.8181818181819,180.65058538744677L689.3939393939394,180.65058538744677L696.969696969697,180.65058538744677L704.5454545454546,180.65058538744677L712.121212121212,180.65058538744677L719.6969696969696,180.65058538744677L727.2727272727273,180.65058538744677L734.8484848484849,180.65058538744677L742.4242424242424,180.65058538744677L750,180.65058538744677L750,157.1259399937606L742.4242424242424,157.1259399937606L734.8484848484849,157.1259399937606L727.2727272727273,157.1259399937606L719.6969696969696,157.1259399937606L712.121212121212,157.1259399937606L704.5454545454546,157.1259399937606L696.969696969697,157.1259399937606L689.3939393939394,157.1259399937606L681.8181818181819,157.1259399937606L674.2424242424242,157.1259399937606L666.6666666666666,157.1259399937606L659.0909090909091,157.1259399937606L651.5151515151515,157.1259399937606L643.9393939393939,157.1259399937606L636.3636363636363,157.1259399937606L628.7878787878788,157.1259399937606L621.2121212121211,157.1259399937606L613.6363636363636,157.1259399937606L606.060606060606,157.1259399937606L598.4848484848484,157.1259399937606L590.9090909090909,157.1259399937606L583.3333333333334,157.1259399937606L575.7575757575758,157.1259399937606L568.1818181818181,160.05684632432047L560.6060606060605,169.74451776137693L553.030303030303,159.64296557160296L545.4545454545455,161.31285570923265L537.8787878787879,165.26217793966876L530.3030303030303,156.57671028589223L522.7272727272726,133.62363148544185L515.1515151515151,126.67494829698703L507.5757575757576,114.42818116691652L500,104.17585666788413L492.42424242424244,92.22513896702998L484.8484848484849,74.53028401182094L477.27272727272725,63.56349728138486L469.69696969696963,52.43095242600519L462.1212121212121,50.686338178320334L454.54545454545445,50.35360492349508L446.96969696969694,43.81870384302226L439.3939393939393,42.9744834186339L431.81818181818176,36.95400553398302L424.24242424242414,36.00768351894148L416.66666666666663,32.06639846472239L409.09090909090907,32.85191465148314L401.51515151515144,34.4895908424693L393.9393939393939,33.14399172944302L386.36363636363626,32.2291823022085L378.78787878787875,28.660223220596936L371.21212121212113,25.166903149974118L363.6363636363636,23.09187367166139L356.06060606060595,24.293235504515298L348.4848484848484,22.47619734382411L340.90909090909093,21.7430679025985L333.3333333333333,17.039175736834178L325.75757575757575,21.031230095647402L318.18181818181813,19.09285237437608L310.60606060606057,16.560609494536838L303.030303030303,15.276042059454653L295.4545454545454,15.155963456636812L287.8787878787879,14.10521091501078L280.30303030303025,11.709102727588672L272.7272727272727,11.473534747382175L265.15151515151507,7.384072865522029L257.5757575757575,9.448531450093434L250,7.459361892170868L242.42424242424235,6.386835207229158L234.84848484848482,9.791163344567622L227.2727272727272,10.47310560736845L219.69696969696966,8.440091136080419L212.12121212121207,6.318260238594853L204.54545454545445,5.318139801069766L196.9696969696969,7.4678375115794005L189.3939393939393,8.299771312145499L181.81818181818173,4.663672686201625L174.24242424242428,4.687803529616197L166.66666666666657,5.5740115561857095L159.09090909090904,3.587855835282827L151.51515151515142,3.5697696865635287L143.93939393939388,4.481877183993532L136.36363636363623,4.504256743420942L128.78787878787867,3.470806507090174L121.21212121212122,4.459718917385125L113.6363636363636,3.55186496836426L106.06060606060598,3.5344585543143126L98.48484848484834,3.482829512979002L90.90909090909086,3.499870779087466L83.33333333333326,5.033927020353346L75.75757575757564,6.091097556881486L68.18181818181816,6.091097556881486L60.60606060606054,7.142049513132509L53.03030303030291,6.150742877185689L45.4545454545453,8.34505249778088L37.87878787878782,6.3804473756366775L30.303030303030198,7.5216399020833435L22.727272727272574,6.167128030428692L15.151515151515099,6.197772816038505L7.575757575757477,7.261890256660486L0,6.197772816038505Z" fill="#f58518" opacity="0.3"></path></g></g><path class="foreground" aria-hidden="true" d="" display="none"></path></g></g></g><path class="foreground" aria-hidden="true" d="" display="none"></path></g></g><g class="mark-group role-legend" role="graphics-symbol" aria-roledescription="legend" aria-label="Symbol legend titled 'comparison' for fill color and stroke color with 2 values: global-v-object, global-v-spatial"><g transform="translate(771,0)"><path class="background" aria-hidden="true" d="M0,0h93v45h-93Z" pointer-events="none"></path><g><g class="mark-group role-legend-entry"><g transform="translate(0,16)"><path class="background" aria-hidden="true" d="M0,0h0v0h0Z" pointer-events="none"></path><g><g class="mark-group role-scope" role="graphics-object" aria-roledescription="group mark container"><g transform="translate(0,0)"><path class="background" aria-hidden="true" d="M0,0h93v12.5h-93Z" pointer-events="none" opacity="1"></path><g><g class="mark-symbol role-legend-symbol" pointer-events="none"><path transform="translate(6,6)" d="M5,0A5,5,0,1,1,-5,0A5,5,0,1,1,5,0" fill="#4c78a8" stroke="#4c78a8" stroke-width="1.5" opacity="0.3"></path></g><g class="mark-text role-legend-label" pointer-events="none"><text text-anchor="start" transform="translate(16,9)" font-family="sans-serif" font-size="10px" fill="#000" opacity="1">global-v-object</text></g></g><path class="foreground" aria-hidden="true" d="" pointer-events="none" display="none"></path></g><g transform="translate(0,16)"><path class="background" aria-hidden="true" d="M0,0h93v12.5h-93Z" pointer-events="none" opacity="1"></path><g><g class="mark-symbol role-legend-symbol" pointer-events="none"><path transform="translate(6,6)" d="M5,0A5,5,0,1,1,-5,0A5,5,0,1,1,5,0" fill="#f58518" stroke="#f58518" stroke-width="1.5" opacity="0.3"></path></g><g class="mark-text role-legend-label" pointer-events="none"><text text-anchor="start" transform="translate(16,9)" font-family="sans-serif" font-size="10px" fill="#000" opacity="1">global-v-spatial</text></g></g><path class="foreground" aria-hidden="true" d="" pointer-events="none" display="none"></path></g></g></g><path class="foreground" aria-hidden="true" d="" pointer-events="none" display="none"></path></g></g><g class="mark-text role-legend-title" pointer-events="none"><text text-anchor="start" transform="translate(0,9)" font-family="sans-serif" font-size="11px" font-weight="bold" fill="#000" opacity="1">comparison</text></g></g><path class="foreground" aria-hidden="true" d="" pointer-events="none" display="none"></path></g></g></g><path class="foreground" aria-hidden="true" d="" display="none"></path></g></g></g></svg>
